v 1130.083984375 5792.619140625 5681.31494140625
v -3.637978807091713E-12 5792.619140625 5792.619140625
v -3.637978807091713E-12 6811.39892578125 4551.23095703125
v 887.90118408203125 6811.39892578125 4463.78076171875
vt 0 0
vt 1 0
vt 1 1
vt 0 1
vn -0.13794970512390137 -0.7071068286895752 -0.69351989030838013
vn 4.4408920985006262E-16 -0.7071068286895752 -0.7071068286895752
vn 4.4408920985006262E-16 -0.83146959543228149 -0.55557018518447876
vn -0.10838639736175537 -0.83146959543228149 -0.54489511251449585
f 1/1/1 2/2/2 3/3/3
f 1/1/1 3/3/3 4/4/4
