v 887.90118408203125 6811.39892578125 4463.78076171875
v -3.637978807091713E-12 6811.39892578125 4551.23095703125
v -3.637978807091713E-12 7568.4208984375 3134.943115234375
v 611.59698486328125 7568.4208984375 3074.7060546875
vt 0 0
vt 1 0
vt 1 1
vt 0 1
vn -0.10838639736175537 -0.83146959543228149 -0.54489511251449585
vn 4.4408920985006262E-16 -0.83146959543228149 -0.55557018518447876
vn 4.4408920985006262E-16 -0.92387950420379639 -0.3826833963394165
vn -0.074657842516899109 -0.92387950420379639 -0.37533029913902283
f 1/1/1 2/2/2 3/3/3
f 1/1/1 3/3/3 4/4/4
