v 1598.1800537109375 8034.5927734375 4.5474740509657274E-13
v 1567.470947265625 8034.5927734375 311.78939819335938
v 0.014023009687662125 8192 0.0027893499936908484
v 0.01429773960262537 8192 5.204170014340115E-18
vt 0 0
vt 1 0
vt 1 1
vt 0 1
vn -0.19509029388427734 -0.9807853102684021 -5.5511151231257827E-17
vn -0.19134169816970825 -0.9807853102684021 -0.038060229271650314
vn -1.7117929473897675E-06 -1 -3.4049691066684318E-07
vn -1.7453289729019161E-06 -1 -6.3527471044072525E-22
f 1/1/1 2/2/2 3/3/3
f 1/1/1 3/3/3 4/4/4
