v 3074.7060546875 7568.4208984375 -611.59698486328125
v 3134.943115234375 7568.4208984375 9.0949470177292824E-13
v 1598.1800537109375 8034.5927734375 4.5474740509657274E-13
v 1567.470947265625 8034.5927734375 -311.78939819335938
vt 0 0
vt 1 0
vt 1 1
vt 0 1
vn -0.37533029913902283 -0.92387950420379639 0.074657842516899109
vn -0.3826833963394165 -0.92387950420379639 -1.1102230246251565E-16
vn -0.19509029388427734 -0.9807853102684021 -5.5511151231257827E-17
vn -0.19134169816970825 -0.9807853102684021 0.038060229271650314
f 1/1/1 2/2/2 3/3/3
f 1/1/1 3/3/3 4/4/4
