v 1130.083984375 -5792.619140625 5681.31494140625
v -1.8189889698649875E-12 -5792.619140625 5792.619140625
v -2.7284841053187847E-12 -4551.23095703125 6811.39892578125
v 1328.8380126953125 -4551.23095703125 6680.52001953125
vt 0 0
vt 1 0
vt 1 1
vt 0 1
vn -0.13794970512390137 0.7071068286895752 -0.69351989030838013
vn 2.2204460492503131E-16 0.7071068286895752 -0.7071068286895752
vn 3.3306690738754696E-16 0.55557018518447876 -0.83146959543228149
vn -0.16221170127391815 0.55557018518447876 -0.81549322605133057
f 1/1/1 2/2/2 3/3/3
f 1/1/1 3/3/3 4/4/4
