mtllib f02101.mtl
usemtl material0
v 7422.99609375 -1598.1800537109375 3074.7060546875
v 6680.52001953125 -1598.1800537109375 4463.78076171875
v 6811.39892578125 2.7284841053187847E-12 4551.23095703125
v 7568.4208984375 2.7284841053187847E-12 3134.943115234375
vt 0 0
vt 1 0
vt 1 1
vt 0 1
vn -0.90612751245498657 0.19509029388427734 -0.37533029913902283
vn -0.81549322605133057 0.19509029388427734 -0.54489511251449585
vn -0.83146959543228149 -3.3306690738754696E-16 -0.55557018518447876
vn -0.92387950420379639 -3.3306690738754696E-16 -0.3826833963394165
f 1/1/1 2/2/2 3/3/3
f 1/1/1 3/3/3 4/4/4
