v 5351.68212890625 -5792.619140625 -2216.739013671875
v 5681.31494140625 -5792.619140625 -1130.083984375
v 6680.52001953125 -4551.23095703125 -1328.8380126953125
v 6292.912109375 -4551.23095703125 -2606.610107421875
vt 0 0
vt 1 0
vt 1 1
vt 0 1
vn -0.65328150987625122 0.7071068286895752 0.27059811353683472
vn -0.69351989030838013 0.7071068286895752 0.13794970512390137
vn -0.81549322605133057 0.55557018518447876 0.16221170127391815
vn -0.76817768812179565 0.55557018518447876 0.31818971037864685
f 1/1/1 2/2/2 3/3/3
f 1/1/1 3/3/3 4/4/4
