v 5681.31494140625 -5792.619140625 -1130.083984375
v 5792.619140625 -5792.619140625 9.0949470177292824E-13
v 6811.39892578125 -4551.23095703125 1.8189889698649875E-12
v 6680.52001953125 -4551.23095703125 -1328.8380126953125
vt 0 0
vt 1 0
vt 1 1
vt 0 1
vn -0.69351989030838013 0.7071068286895752 0.13794970512390137
vn -0.7071068286895752 0.7071068286895752 -1.1102230246251565E-16
vn -0.83146959543228149 0.55557018518447876 -2.2204460492503131E-16
vn -0.81549322605133057 0.55557018518447876 0.16221170127391815
f 1/1/1 2/2/2 3/3/3
f 1/1/1 3/3/3 4/4/4
