mtllib f03000.mtl
usemtl material0
v 7880.2099609375 -1598.1800537109375 -1567.470947265625
v 8034.5927734375 -1598.1800537109375 2.7284841053187847E-12
v 8192 2.7284841053187847E-12 2.7284841053187847E-12
v 8034.5927734375 2.7284841053187847E-12 -1598.1800537109375
vt 0 0
vt 1 0
vt 1 1
vt 0 1
vn -0.961939811706543 0.19509029388427734 0.19134169816970825
vn -0.9807853102684021 0.19509029388427734 -3.3306690738754696E-16
vn -1 -3.3306690738754696E-16 -3.3306690738754696E-16
vn -0.9807853102684021 -3.3306690738754696E-16 0.19509029388427734
f 1/1/1 2/2/2 3/3/3
f 1/1/1 3/3/3 4/4/4
