v -1199.6910400390625 7568.4208984375 -2896.30908203125
v -611.59698486328125 7568.4208984375 -3074.7060546875
v -311.78939819335938 8034.5927734375 -1567.470947265625
v -611.59698486328125 8034.5927734375 -1476.5260009765625
vt 0 0
vt 1 0
vt 1 1
vt 0 1
vn 0.1464466005563736 -0.92387950420379639 0.3535534143447876
vn 0.074657842516899109 -0.92387950420379639 0.37533029913902283
vn 0.038060229271650314 -0.9807853102684021 0.19134169816970825
vn 0.074657842516899109 -0.9807853102684021 0.18024000525474548
f 1/1/1 2/2/2 3/3/3
f 1/1/1 3/3/3 4/4/4
