v -2216.739013671875 7568.4208984375 -2216.739013671875
v -1741.6810302734375 7568.4208984375 -2606.610107421875
v -887.90118408203125 8034.5927734375 -1328.8380126953125
v -1130.083984375 8034.5927734375 -1130.083984375
vt 0 0
vt 1 0
vt 1 1
vt 0 1
vn 0.27059811353683472 -0.92387950420379639 0.27059811353683472
vn 0.2126075029373169 -0.92387950420379639 0.31818971037864685
vn 0.10838639736175537 -0.9807853102684021 0.16221170127391815
vn 0.13794970512390137 -0.9807853102684021 0.13794970512390137
f 1/1/1 2/2/2 3/3/3
f 1/1/1 3/3/3 4/4/4
