v -4204.7900390625 3134.943115234375 -6292.912109375
v -2896.30908203125 3134.943115234375 -6992.31005859375
v -2606.610107421875 4551.23095703125 -6292.912109375
v -3784.2099609375 4551.23095703125 -5663.47119140625
vt 0 0
vt 1 0
vt 1 1
vt 0 1
vn 0.51327997446060181 -0.3826833963394165 0.76817768812179565
vn 0.3535534143447876 -0.3826833963394165 0.8535534143447876
vn 0.31818971037864685 -0.55557018518447876 0.76817768812179565
vn 0.46193981170654297 -0.55557018518447876 0.69134169816970825
f 1/1/1 2/2/2 3/3/3
f 1/1/1 3/3/3 4/4/4
