mtllib f10332.mtl
usemtl material0
v -8034.5927734375 -9.0949470177292824E-13 -1598.1800537109375
v -7568.4208984375 -9.0949470177292824E-13 -3134.943115234375
v -7422.99609375 1598.1800537109375 -3074.7060546875
v -7880.2099609375 1598.1800537109375 -1567.470947265625
vt 0 0
vt 1 0
vt 1 1
vt 0 1
vn 0.9807853102684021 1.1102230246251565E-16 0.19509029388427734
vn 0.92387950420379639 1.1102230246251565E-16 0.3826833963394165
vn 0.90612751245498657 -0.19509029388427734 0.37533029913902283
vn 0.961939811706543 -0.19509029388427734 0.19134169816970825
f 1/1/1 2/2/2 3/3/3
f 1/1/1 3/3/3 4/4/4
