v -1328.8380126953125 8034.5927734375 887.90118408203125
v -1476.5260009765625 8034.5927734375 611.59698486328125
v -0.013209390453994274 8192 0.0054715070873498917
v -0.011888129636645317 8192 0.0079433973878622055
vt 0 0
vt 1 0
vt 1 1
vt 0 1
vn 0.16221170127391815 -0.9807853102684021 -0.10838639736175537
vn 0.18024000525474548 -0.9807853102684021 -0.074657842516899109
vn 1.612473965906247E-06 -1 -6.6790857999876607E-07
vn 1.4511880408463185E-06 -1 -9.6965300144802313E-07
f 1/1/1 2/2/2 3/3/3
f 1/1/1 3/3/3 4/4/4
