v -3.637978807091713E-12 7568.4208984375 3134.943115234375
v -611.59698486328125 7568.4208984375 3074.7060546875
v -311.78939819335938 8034.5927734375 1567.470947265625
v -2.2737369712727551E-12 8034.5927734375 1598.1800537109375
vt 0 0
vt 1 0
vt 1 1
vt 0 1
vn 4.4408920985006262E-16 -0.92387950420379639 -0.3826833963394165
vn 0.074657842516899109 -0.92387950420379639 -0.37533029913902283
vn 0.038060229271650314 -0.9807853102684021 -0.19134169816970825
vn 2.7755580909584834E-16 -0.9807853102684021 -0.19509029388427734
f 1/1/1 2/2/2 3/3/3
f 1/1/1 3/3/3 4/4/4
