v -7422.99609375 1598.1800537109375 3074.7060546875
v -7880.2099609375 1598.1800537109375 1567.470947265625
v -7422.99609375 3134.943115234375 1476.5260009765625
v -6992.31005859375 3134.943115234375 2896.30908203125
vt 0 0
vt 1 0
vt 1 1
vt 0 1
vn 0.90612751245498657 -0.19509029388427734 -0.37533029913902283
vn 0.961939811706543 -0.19509029388427734 -0.19134169816970825
vn 0.90612751245498657 -0.3826833963394165 -0.18024000525474548
vn 0.8535534143447876 -0.3826833963394165 -0.3535534143447876
f 1/1/1 2/2/2 3/3/3
f 1/1/1 3/3/3 4/4/4
