mtllib f13011.mtl
usemtl material0
v -5681.31494140625 -1598.1800537109375 5681.31494140625
v -6680.52001953125 -1598.1800537109375 4463.78076171875
v -6811.39892578125 -9.0949470177292824E-13 4551.23095703125
v -5792.619140625 0 5792.619140625
vt 0 0
vt 1 0
vt 1 1
vt 0 1
vn 0.69351989030838013 0.19509029388427734 -0.69351989030838013
vn 0.81549322605133057 0.19509029388427734 -0.54489511251449585
vn 0.83146959543228149 1.1102230246251565E-16 -0.55557018518447876
vn 0.7071068286895752 0 -0.7071068286895752
f 1/1/1 2/2/2 3/3/3
f 1/1/1 3/3/3 4/4/4
