v -6292.912109375 -3134.943115234375 4204.7900390625
v -6992.31005859375 -3134.943115234375 2896.30908203125
v -7422.99609375 -1598.1800537109375 3074.7060546875
v -6680.52001953125 -1598.1800537109375 4463.78076171875
vt 0 0
vt 1 0
vt 1 1
vt 0 1
vn 0.76817768812179565 0.3826833963394165 -0.51327997446060181
vn 0.8535534143447876 0.3826833963394165 -0.3535534143447876
vn 0.90612751245498657 0.19509029388427734 -0.37533029913902283
vn 0.81549322605133057 0.19509029388427734 -0.54489511251449585
f 1/1/1 2/2/2 3/3/3
f 1/1/1 3/3/3 4/4/4
