mtllib m0002.mtl
usemtl material0
v -2048 6.6485090255737305 1754.5443115234375
v -1958.072998046875 6.0768599510192871 1703.3607177734375
v -2048 8.5608530044555664 1664.0565190017223
v -2048 6.52536678314209 1539.3709716796875
v -2048 8.6497955322265625 1623.0682373046875
v -1964.8094482421875 6.5335230827331543 1575.7197265625
v -2048 6.8008499145507812 1792
v -2040.5858154296875 6.7632169723510742 1792
v -2048 6.7813801765441895 1788.7603759765625
v -2048 6.63022518157959 1536
v -1966.90087890625 7.74043607711792 1536
v -1929.074462890625 5.9526820182800293 1536
v -1902.9180908203125 4.3604898452758789 1536
v -1901.005615234375 2.7844870090484619 1572.36083984375
v -1868.2911376953125 3.1061429977416992 1536
v -1897.63134765625 3.91806697845459 1636.17724609375
v -1838.925537109375 3.1408970355987549 1536
v -1837.1849365234375 2.8862450122833252 1568.990478515625
v -1807.5048828125 1.9906929731369019 1536
v -1792 3.1555159091949463 1566.603759765625
v -1792 2.5701150894165039 1549.4510498046875
v -1792 2.1110429763793945 1536
v -1792 3.4098100662231445 1609.639404296875
v -1833.8154296875 2.9509921073913574 1632.81005859375
v -1961.4410400390625 6.352180004119873 1639.5400390625
v -2048 8.6191854476928711 1644.1046142578125
v -1894.2498779296875 6.733036994934082 1699.98876953125
v -1890.880859375 6.6947908401489258 1763.80859375
v -1830.4351806640625 5.496434211730957 1696.622314453125
v -1954.6990966796875 7.1401619911193848 1767.1773681640625
v -2048 6.9382791519165039 1772.1046142578125
v -1953.3896484375 6.9085121154785156 1792
v -1916.244873046875 6.6317610740661621 1792
v -1889.3902587890625 7.1918039321899414 1792
v -1827.054443359375 8.1285610198974609 1760.4344482421875
v -1855.454345703125 7.9835429191589355 1792
v -1792 4.3317251205444336 1653.9002685546875
v -1792 3.8184869289398193 1694.5972900390625
v -1792 3.418673038482666 1630.6007080078125
v -1792 5.44967794418335 1731.202392578125
v -1794.6695556640625 6.06103515625 1792
v -1825.3912353515625 7.4012532234191895 1792
v -1792 6.6376461982727051 1758.58740234375
v -1792 6.006126880645752 1789.0328369140625
v -1792 5.9834179878234863 1792
vt 0.0056509999558329582 0.83187399804592133
vt 0.35163798928260803 0.6458899974822998
vt 0.013875000178813934 0.48838800191879272
vt 0.025580000132322311 0.015098989009857178
vt 0.01766899973154068 0.33283299207687378
vt 0.33787399530410767 0.16086000204086304
vt 0.0022009999956935644 0.97403299994766712
vt 0.03033900074660778 0.97471600025892258
vt 0.0024999999441206455 0.96173800155520439
vt 0.025899000465869904 0.0023000240325927734
vt 0.33332300186157227 0.00986701250076294
vt 0.47703799605369568 0.013292014598846436
vt 0.57648700475692749 0.015708029270172119
vt 0.58073997497558594 0.15399497747421265
vt 0.7081800103187561 0.019044995307922363
vt 0.58739900588989258 0.39653897285461426
vt 0.81962400674819946 0.021775007247924805
vt 0.82316100597381592 0.1471400260925293
vt 0.93894499540328979 0.024728000164031982
vt 0.99491298198699951 0.1424260139465332
vt 0.9965280294418335 0.0772939920425415
vt 0.99779897928237915 0.026216983795166016
vt 0.990822970867157 0.30574899911880493
vt 0.82992202043533325 0.38965398073196411
vt 0.34474998712539673 0.40337401628494263
vt 0.015719000250101089 0.41266900300979614
vt 0.594182014465332 0.63925901055336
vt 0.60108202695846558 0.88147900253534317
vt 0.83671700954437256 0.63233301043510437
vt 0.35857298970222473 0.88842199742794037
vt 0.0040359999984502792 0.89852499961853027
vt 0.36127600073814392 0.98274900019168854
vt 0.50224697589874268 0.986150000244379
vt 0.60418397188186646 0.98861999996006489
vt 0.84368801116943359 0.874889999628067
vt 0.73300397396087646 0.99189599975943565
vt 0.98662900924682617 0.47378599643707275
vt 0.98290801048278809 0.62824699282646179
vt 0.98883199691772461 0.38529700040817261
vt 0.97952300310134888 0.76683799922466278
vt 0.96413499116897583 0.99747400009073317
vt 0.84711402654647827 0.994777999818325
vt 0.9770050048828125 0.87086400389671326
vt 0.97451901435852051 0.98643799964338541
vt 0.97427099943161011 0.99769999994896352
vn 0.0041470001451671124 0.9999840259552002 -0.0038829999975860119
vn 0.0095149995759129524 0.99993401765823364 -0.0063889999873936176
vn 0.023401999846100807 0.99967998266220093 0.00963599979877472
vn -0.0045819999650120735 0.99993699789047241 0.010262999683618546
vn 0.021141000092029572 0.99974799156188965 -0.0075400001369416714
vn 0.029312999919056892 0.999538004398346 0.00798300001770258
vn 0.0050760000012815 0.9999690055847168 -0.0060100001282989979
vn -0.00078200001735240221 0.99997198581695557 0.0073959999717772007
vn 0.00082100002327933908 0.99999302625656128 0.0037279999814927578
vn -0.01368200033903122 0.99942302703857422 0.031089000403881073
vn 0.015732999891042709 0.99944001436233521 0.029540000483393669
vn 0.057103998959064484 0.99769002199172974 0.036784999072551727
vn 0.04887000098824501 0.99797600507736206 0.040685001760721207
vn 0.035518001765012741 0.99933302402496338 0.00853000022470951
vn 0.0087919998914003372 0.9998210072517395 0.016754999756813049
vn 0.021925000473856926 0.99948400259017944 -0.0234570000320673
vn 0.017067000269889832 0.99983102083206177 0.0068169999867677689
vn 0.0007130000158213079 0.9999960064888 -0.0026199999265372753
vn 0.00407300004735589 0.99971598386764526 -0.02347400039434433
vn -0.0070400000549852848 0.99976497888565063 -0.020483000203967094
vn -0.0077579999342560768 0.99938797950744629 -0.0341080017387867
vn -0.0077570001594722271 0.99938797950744629 -0.0341080017387867
vn -0.0098890000954270363 0.99994897842407227 -0.0018860000418499112
vn -0.0007980000227689743 0.99973499774932861 -0.02301499992609024
vn 0.032248999923467636 0.99947798252105713 0.0018739999504759908
vn 0.026297999545931816 0.99965202808380127 0.0022130000870674849
vn 0.0028919999022036791 0.99976801872253418 -0.021362999454140663
vn -0.0086749996989965439 0.99988901615142822 -0.012071000412106514
vn 0.017720000818371773 0.99940598011016846 -0.029542999342083931
vn 0.002208000048995018 0.99998998641967773 -0.0037809999193996191
vn -0.0023280000314116478 0.9999920129776001 -0.0031049998942762613
vn 0.0030449999030679464 0.99995297193527222 0.009170999750494957
vn -9.9999997473787516E-05 0.99999797344207764 0.002145000034943223
vn -0.022126000374555588 0.99962002038955688 -0.016452999785542488
vn 0.014313000254333019 0.99978601932525635 -0.014926999807357788
vn -0.01193500030785799 0.99990999698638916 -0.0061440002173185349
vn 0.00017899999511428177 0.99963301420211792 -0.027092000469565392
vn 0.04282199963927269 0.99896997213363647 -0.014979000203311443
vn -0.012192999944090843 0.99974197149276733 -0.019144000485539436
vn 0.04045800119638443 0.99822902679443359 -0.043618001043796539
vn 0.039703000336885452 0.99906301498413086 0.017232999205589294
vn 0.031879998743534088 0.99926400184631348 0.021345000714063644
vn 0.041838999837636948 0.99904799461364746 -0.012378999963402748
vn 0.040187999606132507 0.99903601408004761 0.017669999971985817
vn 0.029061000794172287 0.99954801797866821 0.0076500000432133675
f 1/1/1 2/2/2 3/3/3
f 4/4/4 5/5/5 6/6/6
f 7/7/7 8/8/8 9/9/9
f 10/10/10 6/6/6 11/11/11
f 10/10/10 4/4/4 6/6/6
f 11/11/11 6/6/6 12/12/12
f 13/13/13 14/14/14 15/15/15
f 14/14/14 12/12/12 6/6/6
f 14/14/14 13/13/13 12/12/12
f 14/14/14 6/6/6 16/16/16
f 17/17/17 18/18/18 19/19/19
f 18/18/18 15/15/15 14/14/14
f 18/18/18 17/17/17 15/15/15
f 20/20/20 19/19/19 18/18/18
f 20/20/20 21/21/21 19/19/19
f 21/21/21 22/22/22 19/19/19
f 20/20/20 18/18/18 23/23/23
f 18/18/18 14/14/14 24/24/24
f 3/3/3 25/25/25 26/26/26
f 3/3/3 2/2/2 25/25/25
f 25/25/25 2/2/2 16/16/16
f 24/24/24 16/16/16 27/27/27
f 14/14/14 16/16/16 24/24/24
f 27/27/27 28/28/28 29/29/29
f 27/27/27 16/16/16 2/2/2
f 16/16/16 6/6/6 25/25/25
f 27/27/27 2/2/2 28/28/28
f 9/9/9 30/30/30 31/31/31
f 9/9/9 8/8/8 30/30/30
f 8/8/8 32/32/32 30/30/30
f 30/30/30 33/33/33 28/28/28
f 30/30/30 32/32/32 33/33/33
f 33/33/33 34/34/34 28/28/28
f 34/34/34 35/35/35 28/28/28
f 34/34/34 36/36/36 35/35/35
f 2/2/2 30/30/30 28/28/28
f 27/27/27 29/29/29 24/24/24
f 31/31/31 2/2/2 1/1/1
f 31/31/31 30/30/30 2/2/2
f 37/37/37 29/29/29 38/38/38
f 29/29/29 39/39/39 24/24/24
f 29/29/29 37/37/37 39/39/39
f 38/38/38 29/29/29 40/40/40
f 41/41/41 35/35/35 42/42/42
f 41/41/41 43/43/43 35/35/35
f 41/41/41 44/44/44 43/43/43
f 35/35/35 40/40/40 29/29/29
f 35/35/35 43/43/43 40/40/40
f 45/45/45 44/44/44 41/41/41
f 42/42/42 35/35/35 36/36/36
f 35/35/35 29/29/29 28/28/28
f 39/39/39 18/18/18 24/24/24
f 39/39/39 23/23/23 18/18/18
f 26/26/26 6/6/6 5/5/5
f 26/26/26 25/25/25 6/6/6
