mtllib m0001.mtl
usemtl material0
v -1761.403564453125 5.0938248634338379 1792
v -1792 5.7493290901184082 1822.5875244140625
v -1759.87939453125 4.8283820152282715 1820.893798828125
v -1792 5.8621501922607422 1807.845703125
v -1792 5.9834179878234863 1792
v -1697.409423828125 4.2499837875366211 1792
v -1696.0609130859375 4.4482450485229492 1817.52490234375
v -1733.8841552734375 4.4517288208007812 1792
v -1673.097412109375 3.7163798809051514 1792
v -1756.5128173828125 4.2393951416015625 1884.71533203125
v -1792 5.5170111656188965 1852.779052734375
v -1692.6954345703125 3.607309103012085 1881.34716796875
v -1792 5.0215730667114258 1950.5848388671875
v -1753.143310546875 4.3059329986572266 1948.534912109375
v -1792 4.9684748649597168 1924.159912109375
v -1792 4.2342538833618164 1886.5892333984375
v -1689.3258056640625 3.7041199207305908 1945.1666259765625
v -1628.877197265625 3.181535005569458 1877.9783935546875
v -1749.7711181640625 4.9796571731567383 2012.352783203125
v -1792 5.2949151992797852 1974.357666015625
v -1792 5.6985931396484375 2014.580810546875
v -1781.8404541015625 6.4062628746032715 2048
v -1792 6.2974019050598145 2037.6695556640625
v -1792 6.5653238296508789 2048
v -1747.8831787109375 6.3009982109069824 2048
v -1685.9544677734375 4.191321849822998 2008.9849853515625
v -1721.052978515625 6.02282190322876 2048
v -1632.2498779296875 2.3789389133453369 1814.160888671875
v -1633.419677734375 2.4285819530487061 1792
v -1612.3115234375 2.4633800983428955 1792
v -1568.431396484375 2.0129950046539307 1810.7919921875
v -1569.422607421875 2.1961290836334229 1792
v -1551.524169921875 2.0084710121154785 1792
v -1565.0670166015625 0.93378102779388428 1874.6148681640625
v -1625.5091552734375 2.9199519157409668 1941.798828125
v -1536 1.960860013961792 1842.3096923828125
v -1536 2.5501649379730225 1809.0780029296875
v -1536 2.4236369132995605 1801.11962890625
v -1536 2.2786459922790527 1792
v -1536 1.4588069915771484 1873.07861328125
v -1561.692138671875 2.2136809825897217 1938.430908203125
v -1622.13720703125 3.5433840751647949 2005.6168212890625
v -1558.315185546875 3.9484250545501709 2002.2457275390625
v -1536 2.7597000598907471 1937.07275390625
v -1536 3.8087790012359619 1977.442626953125
v -1555.892333984375 5.5414671897888184 2048
v -1575.0146484375 5.3853769302368164 2048
v -1619.8953857421875 4.4638180732727051 2048
v -1642.5860595703125 4.6676201820373535 2048
v -1683.8896484375 5.2950558662414551 2048
v -1538.688232421875 6.12020206451416 2048
v -1536 4.6601028442382812 2001.0655517578125
v -1536 6.1119232177734375 2045.0120849609375
v -1536 6.1701488494873047 2048
v -1536 2.1596829891204834 1909.8746337890625
vt 0.031702000647783279 0.88273099809885025
vt 0.15061900019645691 0.9937419998459518
vt 0.14007499814033508 0.87321899831295013
vt 0.095224998891353607 0.99567200010642409
vt 0.035684000700712204 0.99774600006639957
vt 0.02336600050330162 0.64224401116371155
vt 0.1190669983625412 0.63385999202728271
vt 0.028116999194025993 0.77929900586605072
vt 0.020150000229477882 0.55087301135063171
vt 0.37945100665092468 0.85220800340175629
vt 0.26406601071357727 0.98978899978101254
vt 0.35845598578453064 0.61284399032592773
vt 0.63159400224685669 0.97697100043296814
vt 0.61881202459335327 0.83121100068092346
vt 0.5323910117149353 0.98031700029969215
vt 0.39119601249694824 0.98529999982565641
vt 0.597815990447998 0.5918479859828949
vt 0.337460994720459 0.37348300218582153
vt 0.85817998647689819 0.8102249950170517
vt 0.72092700004577637 0.97388200089335442
vt 0.87207198143005371 0.9686410017311573
vt 0.99636101722717285 0.926146999001503
vt 0.95885801315307617 0.965659998357296
vt 0.99768799543380737 0.96432600170373917
vt 0.99197399616241455 0.79852299392223358
vt 0.83718001842498779 0.57085800170898438
vt 0.98846900463104248 0.69770398736000061
vt 0.09815099835395813 0.39439898729324341
vt 0.015033000148832798 0.40166598558425903
vt 0.012298000045120716 0.32235097885131836
vt 0.077157996594905853 0.15503901243209839
vt 0.0066749998368322849 0.16122597455978394
vt 0.0043359999544918537 0.093968987464904785
vt 0.3165610134601593 0.1340019702911377
vt 0.57682502269744873 0.35247999429702759
vt 0.19130399823188782 0.029021024703979492
vt 0.066417999565601349 0.033390998840332031
vt 0.036582998931407928 0.034430027008056641
vt 0.0023119999095797539 0.035628020763397217
vt 0.3069320023059845 0.02497100830078125
vt 0.55583298206329346 0.11311501264572144
vt 0.81618797779083252 0.33149397373199463
vt 0.79526001214981079 0.092113018035888672
vt 0.54746299982070923 0.016725003719329834
vt 0.69917798042297363 0.01146697998046875
vt 0.96697002649307251 0.077040016651153564
vt 0.96943497657775879 0.14888900518417358
vt 0.97518998384475708 0.31756597757339478
vt 0.97815299034118652 0.40282899141311646
vt 0.98357099294662476 0.55803900957107544
vt 0.96479898691177368 0.012356996536254883
vt 0.78800797462463379 0.008367002010345459
vt 0.95322698354721069 0.00263899564743042
vt 0.96445602178573608 0.0022540092468261719
vt 0.44523999094963074 0.020232975482940674
vn 0.026290999725461006 0.99962401390075684 0.0077969999983906746
vn 0.029062999412417412 0.99954801797866821 0.0076709999702870846
vn 0.020263999700546265 0.99977302551269531 0.0065109999850392342
vn 0.029061999171972275 0.99954801797866821 0.0076500000432133675
vn 0.029061999171972275 0.99954801797866821 0.0076489998027682304
vn 0.013461999595165253 0.99987298250198364 -0.0084769995883107185
vn 0.018092000856995583 0.99983197450637817 0.0029980000108480453
vn 0.01027899980545044 0.99993997812271118 -0.0037869999650865793
vn 0.029640000313520432 0.99955898523330688 -0.0019940000493079424
vn 0.011052999645471573 0.99992698431015015 0.0047900001518428326
vn 0.021812999621033669 0.999638020992279 0.015752999112010002
vn 0.011037999764084816 0.99993801116943359 0.0015930000226944685
vn 0.018048999831080437 0.9998130202293396 -0.0069120000116527081
vn 0.013633999973535538 0.99988502264022827 -0.006577999796718359
vn 0.013766000047326088 0.99988698959350586 -0.00609700009226799
vn 0.00028899998869746923 0.999966025352478 0.0082259997725486755
vn 0.010269000194966793 0.99993598461151123 -0.0047809998504817486
vn 0.014673000201582909 0.99988001585006714 -0.0050490000285208225
vn 0.011818000115454197 0.99967902898788452 -0.022391999140381813
vn 0.017456000670790672 0.99978601932525635 -0.011106000281870365
vn 0.016056999564170837 0.99970501661300659 -0.018247000873088837
vn 0.012299999594688416 0.99950599670410156 -0.02893500030040741
vn 0.015649000182747841 0.99954098463058472 -0.025923000648617744
vn 0.015649000182747841 0.99954098463058472 -0.025923000648617744
vn 0.0068509997799992561 0.99927699565887451 -0.03740299865603447
vn 0.012423000298440456 0.99973899126052856 -0.019153999164700508
vn 0.01281800027936697 0.99929201602935791 -0.035379000008106232
vn 0.014824000187218189 0.999888002872467 -0.0017940000398084521
vn 0.015969999134540558 0.999871015548706 0.0013970000436529517
vn 0.0041290000081062317 0.99996298551559448 0.0075249997898936272
vn 0.0019199999514967203 0.99997901916503906 0.0062199998646974564
vn 0.0082860002294182777 0.999921977519989 0.0093080000951886177
vn -0.0099609997123479843 0.9999079704284668 -0.0092029999941587448
vn 0.0086439996957778931 0.99996000528335571 -0.0022169998846948147
vn 0.011242999695241451 0.99993199110031128 -0.0031620000954717398
vn -0.015988999977707863 0.9997209906578064 0.01739799976348877
vn -0.016542000696063042 0.99986302852630615 0.00035200000274926424
vn -0.017399000003933907 0.99972200393676758 -0.015893999487161636
vn -0.017399000003933907 0.99972200393676758 -0.015893999487161636
vn -0.01810000091791153 0.9998360276222229 -0.000770999991800636
vn -0.0048270002007484436 0.99981600046157837 -0.018561000004410744
vn 0.001408000010997057 0.9998059868812561 -0.019626999273896217
vn -0.019425999373197556 0.99932199716567993 -0.031279999762773514
vn -0.022507000714540482 0.999459981918335 -0.023946000263094902
vn -0.025212999433279037 0.99928098917007446 -0.028310999274253845
vn -0.021314999088644981 0.999206006526947 -0.033661000430583954
vn -0.011040999554097652 0.99945300817489624 -0.031160999089479446
vn -0.0062710000202059746 0.9997519850730896 -0.021379999816417694
vn 0.010425999760627747 0.99966299533843994 -0.02379399910569191
vn 0.01730399951338768 0.99942398071289062 -0.029188999906182289
vn -0.02959199994802475 0.9991300106048584 -0.029393000528216362
vn -0.033681999891996384 0.998835027217865 -0.034545999020338058
vn -0.030097000300884247 0.99910098314285278 -0.029846999794244766
vn -0.01857299916446209 0.999638020992279 -0.01947999931871891
vn -0.019843000918626785 0.99960798025131226 -0.019742999225854874
f 1/1/1 2/2/2 3/3/3
f 1/1/1 4/4/4 2/2/2
f 4/4/4 1/1/1 5/5/5
f 6/6/6 3/3/3 7/7/7
f 6/6/6 8/8/8 3/3/3
f 1/1/1 3/3/3 8/8/8
f 6/6/6 7/7/7 9/9/9
f 2/2/2 10/10/10 3/3/3
f 2/2/2 11/11/11 10/10/10
f 3/3/3 12/12/12 7/7/7
f 10/10/10 13/13/13 14/14/14
f 10/10/10 15/15/15 13/13/13
f 15/15/15 10/10/10 16/16/16
f 12/12/12 14/14/14 17/17/17
f 14/14/14 12/12/12 10/10/10
f 12/12/12 17/17/17 18/18/18
f 17/17/17 14/14/14 19/19/19
f 3/3/3 10/10/10 12/12/12
f 14/14/14 20/20/20 19/19/19
f 14/14/14 13/13/13 20/20/20
f 21/21/21 22/22/22 19/19/19
f 21/21/21 23/23/23 22/22/22
f 23/23/23 24/24/24 22/22/22
f 25/25/25 19/19/19 22/22/22
f 25/25/25 26/26/26 19/19/19
f 25/25/25 27/27/27 26/26/26
f 20/20/20 21/21/21 19/19/19
f 19/19/19 26/26/26 17/17/17
f 11/11/11 16/16/16 10/10/10
f 28/28/28 7/7/7 12/12/12
f 12/12/12 18/18/18 28/28/28
f 29/29/29 28/28/28 30/30/30
f 31/31/31 28/28/28 18/18/18
f 30/30/30 31/31/31 32/32/32
f 30/30/30 28/28/28 31/31/31
f 32/32/32 31/31/31 33/33/33
f 31/31/31 18/18/18 34/34/34
f 17/17/17 35/35/35 18/18/18
f 9/9/9 28/28/28 29/29/29
f 9/9/9 7/7/7 28/28/28
f 36/36/36 31/31/31 34/34/34
f 36/36/36 37/37/37 31/31/31
f 38/38/38 31/31/31 37/37/37
f 38/38/38 33/33/33 31/31/31
f 38/38/38 39/39/39 33/33/33
f 36/36/36 34/34/34 40/40/40
f 34/34/34 18/18/18 41/41/41
f 35/35/35 26/26/26 42/42/42
f 17/17/17 26/26/26 35/35/35
f 41/41/41 42/42/42 43/43/43
f 42/42/42 41/41/41 35/35/35
f 44/44/44 43/43/43 45/45/45
f 44/44/44 41/41/41 43/43/43
f 46/46/46 42/42/42 47/47/47
f 46/46/46 43/43/43 42/42/42
f 41/41/41 18/18/18 35/35/35
f 48/48/48 26/26/26 49/49/49
f 48/48/48 42/42/42 26/26/26
f 48/48/48 47/47/47 42/42/42
f 49/49/49 26/26/26 50/50/50
f 51/51/51 43/43/43 46/46/46
f 51/51/51 52/52/52 43/43/43
f 51/51/51 53/53/53 52/52/52
f 50/50/50 26/26/26 27/27/27
f 45/45/45 43/43/43 52/52/52
f 53/53/53 51/51/51 54/54/54
f 55/55/55 41/41/41 44/44/44
f 55/55/55 34/34/34 41/41/41
f 55/55/55 40/40/40 34/34/34
