mtllib m0013.mtl
usemtl material0
v -1265.7845458984375 -0.23604899644851685 1536
v -1262.81787109375 -0.32434099912643433 1538.6697998046875
v -1262.9586181640625 -0.29262199997901917 1536
v -1280 1.213966965675354 1603.570556640625
v -1259.440673828125 1.4474120140075684 1602.4842529296875
v -1280 -0.026711000129580498 1557.767822265625
v -1280 0.20139999687671661 1539.5755615234375
v -1212.3326416015625 1.0848089456558228 1536
v -1199.6243896484375 1.4571390151977539 1536
v -1280 1.2535099983215332 1644.777099609375
v -1256.071044921875 1.5470880270004273 1666.3037109375
v -1280 0.19949600100517273 1537.4097900390625
v -1280 0.19825699925422669 1536
v -1260.415771484375 -0.27765101194381714 1536
v -1138.8370361328125 1.0460319519042969 1536
v -1198.952392578125 1.4471399784088135 1536
v -1195.62451171875 0.54348897933959961 1599.116943359375
v -1134.9559326171875 1.0856939554214478 1536
v -1131.8013916015625 1.1915600299835205 1595.7449951171875
v -1078.0484619140625 1.208145022392273 1536
v -1067.9833984375 0.69537800550460815 1592.37646484375
v -1070.95751953125 1.1501549482345581 1536
v -1128.434326171875 0.71800202131271362 1659.566162109375
v -1192.2486572265625 2.0264439582824707 1662.9322509765625
v -1024 -0.46063399314880371 1536
v -1063.076171875 1.0954749584197998 1536
v -1024 0.55360698699951172 1571.160400390625
v -1280 1.7628860473632813 1692.900634765625
v -1280 1.2845330238342285 1667.5679929256439
v -1280 1.8670819997787476 1731.5640869140625
v -1252.701171875 1.6987799406051636 1730.123046875
v -1280 2.2670578956604004 1760.46630859375
v -1249.431884765625 2.2669839859008789 1792
v -1280 2.573322057723999 1792
v -1188.8878173828125 0.18500199913978577 1726.7574462890625
v -1247.5828857421875 2.2241389751434326 1792
v -1125.07666015625 -1.7723560333251953 1723.3931884765625
v -1064.607177734375 2.228626012802124 1656.1916499137878
v -1121.71533203125 -3.4831690788269043 1787.2178955078125
v -1061.2418212890625 1.4086530208587647 1720.013916015625
v -1212.562255859375 2.1646199226379395 1792
v -1186.7950439453125 2.0893599987030029 1792
v -1185.510009765625 2.0761880874633789 1790.57177734375
v -1126.01708984375 -3.1472780704498291 1792
v -1185.4346923828125 2.0573689937591553 1792
v -1121.4630126953125 -3.5244100093841553 1792
v -1065.22216796875 0.29371699690818787 1792
v -1057.875 0.89215999841690063 1783.835205078125
v -1024 0.91849797964096069 1611.054931640625
v -1024 1.8207930326461792 1654.0484619140625
v -1024 0.4081059992313385 1590.0546875
v -1024 0.34048300981521606 1692.739013671875
v -1024 0.064232997596263886 1718.0509033203125
v -1024 -0.10937000066041946 1746.1817626953125
v -1024 1.099835991859436 1782.0458984375
v -1024 1.0193710327148438 1792
v -1048.800048828125 0.87791901826858521 1792
v -1024 1.0506709814071655 1788.1279296875
v -1057.4437255859375 0.95342499017715454 1792
vt 0.0553009994328022 0.0317310094833374
vt 0.066791996359825134 0.04137498140335083
vt 0.065916001796722412 0.03136599063873291
vt 0.010633000172674656 0.28740501403808594
vt 0.0879879966378212 0.28067398071289062
vt 0.0047209998592734337 0.11532199382781982
vt 0.0023479999508708715 0.04699397087097168
vt 0.25612100958824158 0.024760007858276367
vt 0.30386900901794434 0.023101985454559326
vt 0.015901999548077583 0.44216501712799072
vt 0.10842499881982803 0.52008000016212463
vt 0.0020689999219030142 0.038860023021698
vt 0.0018870000494644046 0.033564984798431396
vt 0.07546599954366684 0.031035006046295166
vt 0.532164990901947 0.015085995197296143
vt 0.30639201402664185 0.02301400899887085
vt 0.32723701000213623 0.25963801145553589
vt 0.54674100875854492 0.014572978019714356
vt 0.56650102138519287 0.23860698938369751
vt 0.7604680061340332 0.00711899995803833
vt 0.805745005607605 0.21762198209762573
vt 0.7871209979057312 0.0062829852104187012
vt 0.58749502897262573 0.47786098718643188
vt 0.34823000431060791 0.49892902374267578
vt 0.96357697248458862 1.5974044799804688E-05
vt 0.81672000885009766 0.0052430033683776855
vt 0.96811902523040771 0.1321219801902771
vt 0.0218299999833107 0.62292799353599548
vt 0.018699999898672104 0.52776500582695007
vt 0.02659899927675724 0.76814299821853638
vt 0.12952400743961334 0.75931200385093689
vt 0.030158000066876411 0.87670700252056122
vt 0.14983999729156494 0.99128499999642372
vt 0.034575000405311584 0.99513000017032027
vt 0.36942601203918457 0.73827201128005981
vt 0.1567859947681427 0.99105199985206127
vt 0.60874801874160767 0.71728798747062683
vt 0.82683700323104858 0.45690900087356567
vt 0.62991702556610107 0.95661799982190132
vt 0.8483080267906189 0.69584798812866211
vt 0.288318008184433 0.98670199979096651
vt 0.38508498668670654 0.98320100083947182
vt 0.38986501097679138 0.97764899954199791
vt 0.614342987537384 0.97514699958264828
vt 0.39034101366996765 0.98300299979746342
vt 0.631505012512207 0.97454399988055229
vt 0.843205988407135 0.96668599918484688
vt 0.86974799633026123 0.93499500304460526
vt 0.97339200973510742 0.28197300434112549
vt 0.979062020778656 0.44347399473190308
vt 0.97062301635742188 0.20308202505111694
vt 0.98447698354721069 0.58830401301383972
vt 0.9879869818687439 0.68336400389671326
vt 0.99187397956848145 0.78896200656890869
vt 0.99672698974609375 0.923724003136158
vt 0.99811297655105591 0.96086100116372108
vt 0.90498197078704834 0.96437200158834457
vt 0.99754297733306885 0.94656600058078766
vt 0.87252098321914673 0.96559600159525871
vn 0.028084000572562218 0.9996039867401123 0.0018500000005587935
vn -0.0029670000076293945 0.99997401237487793 -0.00660100020468235
vn 0.0074990000575780869 0.99990600347518921 0.011483999900519848
vn -0.012070000171661377 0.99983501434326172 -0.01358100026845932
vn -0.0071829999797046185 0.999904990196228 -0.011727999895811081
vn -0.0025110000278800726 0.99983799457550049 -0.017841000109910965
vn 0.030902000144124031 0.999504029750824 0.0060510002076625824
vn -0.029260000213980675 0.99923700094223022 -0.025887999683618546
vn 0.0030940000433474779 0.99999099969863892 0.00292899995110929
vn -0.011308000423014164 0.99993598461151123 -0.001066999975591898
vn -0.0073460000567138195 0.999966025352478 -0.0037710000760853291
vn 0.030536999925971031 0.99953299760818481 -0.00087899999925866723
vn 0.030536999925971031 0.99953299760818481 -0.00087899999925866723
vn -0.022339999675750732 0.99974697828292847 -0.0026159998960793018
vn -0.00571200018748641 0.99997997283935547 0.0028220000676810741
vn 0.010912000201642513 0.99984598159790039 0.013739000074565411
vn 0.0076859998516738415 0.999966025352478 -0.0030439998954534531
vn -0.0063209999352693558 0.99997901916503906 -0.0014380000066012144
vn -0.0021989999804645777 0.99998897314071655 0.0041700000874698162
vn 0.0054219998419284821 0.99997198581695557 0.0051549999043345451
vn 0.0030000000260770321 0.999987006187439 -0.00420599989593029
vn 0.0075779999606311321 0.99994200468063354 0.0076660001650452614
vn 0.0005329999839887023 0.99989998340606689 0.014152999967336655
vn 0.013154000043869019 0.99991297721862793 0.00091599998995661736
vn 0.039774000644683838 0.99879300594329834 -0.028812000527977943
vn 0.014600999653339386 0.99989300966262817 -0.000818000000435859
vn 0.015706999227404594 0.999875009059906 -0.0020469999872148037
vn 0.0018269999418407679 0.9999769926071167 -0.00646999990567565
vn -0.011521000415086746 0.999879002571106 -0.010413999669253826
vn 0.00571900000795722 0.99994802474975586 -0.0084539996460080147
vn 0.01142400037497282 0.99993002414703369 -0.0030249999836087227
vn 0.0089509999379515648 0.99990302324295044 -0.010672999545931816
vn 0.016813000664114952 0.99980801343917847 -0.010069999843835831
vn 0.01001999992877245 0.99990302324295044 -0.0097120003774762154
vn 0.030879000201821327 0.99948400259017944 0.0088550001382827759
vn 0.017438000068068504 0.99972701072692871 -0.015557999722659588
vn -0.00472299987450242 0.9995419979095459 0.029874999076128006
vn -0.0071660000830888748 0.99997299909591675 0.0017519999528303742
vn 0.0044450000859797 0.99995297193527222 0.0086660003289580345
vn -0.0084840003401041031 0.99987602233886719 0.013251000083982945
vn 0.0017190000507980585 0.999567985534668 -0.029324999079108238
vn 0.0084140002727508545 0.99996298551559448 -0.00165200000628829
vn 0.046813998371362686 0.99881702661514282 -0.013141999952495098
vn 0.085997998714447021 0.99626797437667847 0.0073830001056194305
vn 0.056492999196052551 0.998350977897644 0.010176000185310841
vn 0.0048960000276565552 0.99995297193527222 0.0083649996668100357
vn -0.072199001908302307 0.99735701084136963 0.00813200045377016
vn -0.032067000865936279 0.99948501586914062 0.00062700000125914812
vn 0.0061059999279677868 0.99970501661300659 -0.023523999378085136
vn 0.010445999912917614 0.99991601705551147 0.00763599993661046
vn 0.0061209998093545437 0.99995100498199463 -0.00776199996471405
vn 0.030094999819993973 0.99938100576400757 0.018193000927567482
vn 0.036527998745441437 0.99929499626159668 0.0086160004138946533
vn 0.026076000183820724 0.99965500831604 -0.0031300000846385956
vn -0.0068439999595284462 0.99988502264022827 -0.013509999960660934
vn -0.0057029998861253262 0.99995100498199463 0.0080829998478293419
vn -0.0023360000923275948 0.99998801946640015 0.0043410002253949642
vn -0.0057029998861253262 0.99995100498199463 0.0080829998478293419
vn -0.036354999989271164 0.99932301044464111 -0.0055780000984668732
f 1/1/1 2/2/2 3/3/3
f 2/2/2 4/4/4 5/5/5
f 2/2/2 6/6/6 4/4/4
f 6/6/6 2/2/2 7/7/7
f 8/8/8 5/5/5 9/9/9
f 8/8/8 2/2/2 5/5/5
f 5/5/5 10/10/10 11/11/11
f 5/5/5 4/4/4 10/10/10
f 1/1/1 7/7/7 2/2/2
f 1/1/1 12/12/12 7/7/7
f 12/12/12 1/1/1 13/13/13
f 14/14/14 3/3/3 2/2/2
f 15/15/15 16/16/16 17/17/17
f 18/18/18 17/17/17 19/19/19
f 18/18/18 15/15/15 17/17/17
f 17/17/17 9/9/9 5/5/5
f 17/17/17 16/16/16 9/9/9
f 20/20/20 18/18/18 19/19/19
f 20/20/20 21/21/21 22/22/22
f 20/20/20 19/19/19 21/21/21
f 19/19/19 17/17/17 23/23/23
f 8/8/8 14/14/14 2/2/2
f 17/17/17 5/5/5 24/24/24
f 25/25/25 26/26/26 27/27/27
f 28/28/28 11/11/11 29/29/29
f 10/10/10 29/29/29 11/11/11
f 11/11/11 30/30/30 31/31/31
f 11/11/11 28/28/28 30/30/30
f 32/32/32 33/33/33 31/31/31
f 32/32/32 34/34/34 33/33/33
f 32/32/32 31/31/31 30/30/30
f 24/24/24 11/11/11 31/31/31
f 33/33/33 35/35/35 31/31/31
f 33/33/33 36/36/36 35/35/35
f 24/24/24 35/35/35 23/23/23
f 23/23/23 37/37/37 38/38/38
f 24/24/24 23/23/23 17/17/17
f 37/37/37 39/39/39 40/40/40
f 37/37/37 23/23/23 35/35/35
f 5/5/5 11/11/11 24/24/24
f 37/37/37 35/35/35 39/39/39
f 41/41/41 42/42/42 43/43/43
f 44/44/44 43/43/43 45/45/45
f 44/44/44 39/39/39 43/43/43
f 43/43/43 39/39/39 35/35/35
f 46/46/46 39/39/39 44/44/44
f 45/45/45 43/43/43 42/42/42
f 35/35/35 41/41/41 43/43/43
f 35/35/35 36/36/36 41/41/41
f 47/47/47 39/39/39 46/46/46
f 47/47/47 48/48/48 39/39/39
f 31/31/31 35/35/35 24/24/24
f 21/21/21 19/19/19 23/23/23
f 21/21/21 23/23/23 38/38/38
f 49/49/49 38/38/38 50/50/50
f 38/38/38 51/51/51 21/21/21
f 38/38/38 49/49/49 51/51/51
f 50/50/50 38/38/38 52/52/52
f 48/48/48 40/40/40 39/39/39
f 53/53/53 48/48/48 54/54/54
f 53/53/53 40/40/40 48/48/48
f 55/55/55 54/54/54 48/48/48
f 52/52/52 40/40/40 53/53/53
f 52/52/52 38/38/38 40/40/40
f 56/56/56 48/48/48 57/57/57
f 56/56/56 58/58/58 48/48/48
f 58/58/58 55/55/55 48/48/48
f 40/40/40 38/38/38 37/37/37
f 57/57/57 48/48/48 59/59/59
f 59/59/59 48/48/48 47/47/47
f 27/27/27 21/21/21 51/51/51
f 27/27/27 26/26/26 21/21/21
f 26/26/26 22/22/22 21/21/21
