mtllib m0033.mtl
usemtl material0
v -1226.0067138671875 -3.7911169528961182 1024
v -1226.8026123046875 -3.7320139408111572 1024
v -1225.967041015625 -3.8125159740448 1024.7523193359375
v -1162.0001220703125 -1.9921660423278809 1024
v -1158.7718510627747 -2.5290360450744629 1085.197998046875
v -1211.7432861328125 -3.4017329216003418 1024
v -1097.9991455078125 -1.4015179872512817 1024
v -1159.22216796875 -1.9406859874725342 1024
v -1094.946044921875 -1.3133300542831421 1081.8240966796875
v -1280 -0.086561001837253571 1027.5947265625
v -1280 -0.083011001348495483 1027.47119140625
v -1280 0.01676500029861927 1024
v -1280 0.49915900826454163 1036.896728515625
v -1222.58056640625 -0.016999000683426857 1088.5601806640625
v -1280 -1.2126970291137695 1097.6976318359375
v -1219.2080078125 0.72804301977157593 1152.3776859939098
v -1280 -1.2766790390014648 1091.595947265625
v -1155.3975830078125 -1.4109530448913574 1149.0142819881439
v -1280 0.10130400210618973 1158.4768071174622
v -1215.8414306640625 0.14426399767398834 1216.1993408203125
v -1280 0.12913599610328674 1155.5896000862122
v -1152.0225830003619 -0.13684999942779541 1212.8302001953125
v -1280 1.4041789770126343 1213.0489501953125
v -1280 1.5476189851760864 1219.2550048828125
v -1279.6552734375 1.5525749921798706 1219.5650634765625
v -1024 -1.1612989902496338 1074.407958984375
v -1034.00048828125 -1.2872920036315918 1024
v -1031.124267578125 -0.98260498046875 1078.4530029296875
v -1024 -1.4801540374755859 1026.9503173828125
v -1024 -1.4999769926071167 1024
v -1091.5736083984375 -0.60490900278091431 1145.6417241096497
v -1042.9215087890625 -1.3360220193862915 1024
v -1024 -1.0634490251541138 1078.0770263671875
v -1027.752685546875 -0.45289099216461182 1142.271240234375
v -1024 -1.0805790424346924 1084.8634033203125
v -1280 1.5464240312576294 1219.9481201171875
v -1280 1.5371390581130981 1219.583251953125
v -1280 1.8327410221099854 1280
v -1276.463134765625 1.914592981338501 1280
v -1273.240234375 1.8446799516677856 1280
v -1212.4581298828125 -1.5544459819793701 1280
v -1212.4813232421875 -1.5543110370635986 1280
v -1088.206298828125 -1.0070489645004273 1209.4627685546875
v -1212.019775390625 -1.5371689796447754 1280
v -1148.6485600471497 0.91241997480392456 1276.646728515625
v -1084.8331298828125 -0.14185899496078491 1273.2799072265625
v -1151.6658940017223 0.705161988735199 1280
v -1148.4714360237122 0.93618899583816528 1280
v -1084.4781494140625 -0.0980290025472641 1280
v -1090.8790283203125 0.0088409995660185814 1280
v -1024 -1.6172499656677246 1270.07177734375
v -1030.0933837890625 -1.3947089910507202 1280
v -1024 -1.592697024345398 1273.2269287109375
v -1024.3858642578125 -0.96147501468658447 1206.092529296875
v -1024 -0.53837698698043823 1142.0732421875
v -1024 -0.96750801801681519 1205.6636962890625
v -1024 -0.96558302640914917 1206.072265625
v -1024 -0.970458984375 1206.4398193359375
v -1024 -1.5105220079421997 1280
v -1024 -1.0449440479278565 1213.40966796875
vt 0.20545400679111481 0.026385009288787842
vt 0.20244300365447998 0.026482999324798584
vt 0.205702006816864 0.029218971729278564
vt 0.4470059871673584 0.01782602071762085
vt 0.467303991317749 0.24827098846435547
vt 0.25928100943565369 0.0244789719581604
vt 0.68845498561859131 0.009302973747253418
vt 0.45748800039291382 0.017454981803894043
vt 0.70767402648925781 0.22703200578689575
vt 0.0017180000431835651 0.046639978885650635
vt 0.0017010000301524997 0.046172022819519043
vt 0.0012460000580176711 0.033071994781494141
vt 0.0027220000047236681 0.081807971000671387
vt 0.22539299726486206 0.27003800868988037
vt 0.00979200005531311 0.31131702661514282
vt 0.24573700129985809 0.51042601466178894
vt 0.0090640000998973846 0.28829497098922729
vt 0.48730498552322388 0.48870998620986938
vt 0.017092000693082809 0.54068601131439209
vt 0.26732000708580017 0.75071500241756439
vt 0.016749000176787376 0.529792994260788
vt 0.50759100914001465 0.72913199663162231
vt 0.024122999981045723 0.74662101268768311
vt 0.024922000244259834 0.77004000544548035
vt 0.026263000443577766 0.77116599678993225
vt 0.97480100393295288 0.19146102666854858
vt 0.92988401651382446 0.00077897310256958008
vt 0.94848400354385376 0.20771497488021851
vt 0.96845102310180664 0.012428998947143555
vt 0.96852600574493408 0.0012919902801513672
vt 0.72769898176193237 0.46811199188232422
vt 0.89622998237609863 0.001967012882232666
vt 0.97532498836517334 0.20552098751068115
vt 0.96811598539352417 0.44815701246261597
vt 0.97606498003005981 0.23112702369689941
vt 0.025008000433444977 0.77265200018882751
vt 0.024963000789284706 0.77127900719642639
vt 0.032214000821113586 0.99922100000549108
vt 0.045561999082565308 0.99879800004418939
vt 0.0577239990234375 0.99840899999253452
vt 0.28898900747299194 0.99099500011652708
vt 0.28887099027633667 0.99100099969655275
vt 0.74797201156616211 0.70870199799537659
vt 0.29064399003982544 0.99093300011008978
vt 0.52799302339553833 0.96952899917960167
vt 0.76838099956512451 0.94908899813890457
vt 0.518464982509613 0.9824800007045269
vt 0.52906602621078491 0.982158999890089
vt 0.77051502466201782 0.97440199926495552
vt 0.746379017829895 0.97517599910497665
vt 0.99758201837539673 0.92974399775266647
vt 0.97575998306274414 0.96792799979448318
vt 0.99795502424240112 0.94164799898862839
vt 0.98836600780487061 0.688495010137558
vt 0.98224997520446777 0.44690597057342529
vt 0.98977202177047729 0.6868320107460022
vt 0.98982000350952148 0.68837299942970276
vt 0.98985600471496582 0.68966099619865417
vt 0.99875402450561523 0.967204000800848
vt 0.99070799350738525 0.71595799922943115
vn 0.025126000866293907 0.9993169903755188 0.0270990002900362
vn 0.071142002940177917 0.997081995010376 0.027676999568939209
vn 0.02855600044131279 0.99956101179122925 -0.0079530002549290657
vn -0.023590000346302986 0.999671995639801 0.010014000348746777
vn 0.00093600002583116293 0.99991601705551147 -0.01295199990272522
vn -0.028307000175118446 0.99954301118850708 0.010594000108540058
vn -0.0051259999163448811 0.99998599290847778 -0.0012540000025182962
vn -0.01626100018620491 0.99984198808670044 0.0072280000895261765
vn -0.0094560002908110619 0.99993997812271118 -0.0054870001040399075
vn 0.067808002233505249 0.99752497673034668 -0.018600000068545341
vn 0.0702660009264946 0.99711698293685913 0.028658000752329826
vn 0.0702660009264946 0.99711602926254272 0.028660999611020088
vn 0.042589999735355377 0.99839401245117188 -0.03736099973320961
vn 0.017945999279618263 0.99950498342514038 -0.025852000340819359
vn -0.019441999495029449 0.99971497058868408 -0.013868000358343124
vn 0.0063240001909434795 0.99995702505111694 -0.0067460001446306705
vn -0.021390000358223915 0.99971902370452881 0.010257000103592873
vn 0.009432000108063221 0.99979901313781738 -0.017704000696539879
vn -0.0012989999959245324 0.99999898672103882 0.00069900002563372254
vn 0.013801000081002712 0.99986302852630615 0.0090889995917677879
vn -0.010180000215768814 0.99992901086807251 -0.0062159998342394829
vn 0.0040500001050531864 0.99997502565383911 -0.0057509997859597206
vn 0.020553000271320343 0.999504029750824 -0.023849999532103539
vn -0.0067969998344779015 0.99994099140167236 -0.0084260003641247749
vn -0.0026110000908374786 0.99994200468063354 -0.010428999550640583
vn 0.017463000491261482 0.99975800514221191 -0.013408999890089035
vn 0.0074519999325275421 0.9999539852142334 -0.0059890002012252808
vn 0.005932999774813652 0.99995499849319458 -0.0073480000719428062
vn 0.021261999383568764 0.99975097179412842 -0.0067170001566410065
vn 0.021261999383568764 0.99975097179412842 -0.0067170001566410065
vn -0.0045099998824298382 0.99997502565383911 -0.0054440000094473362
vn -0.0043219998478889465 0.99998098611831665 -0.004280999768525362
vn 0.010684000328183174 0.99986398220062256 -0.01255900040268898
vn 0.0099889999255537987 0.99994897842407227 -0.0012519999872893095
vn 0.019393999129533768 0.99979197978973389 -0.0062730000354349613
vn -0.028488000854849815 0.99954801797866821 -0.0095880003646016121
vn -0.04461200162768364 0.99900197982788086 0.002271000063046813
vn -0.023135999217629433 0.9997209906578064 -0.0047670002095401287
vn 2.8000000384054147E-05 0.99998199939727783 -0.0059919999912381172
vn 0.030805999413132668 0.99952501058578491 0.0010750000365078449
vn -0.0062620001845061779 0.99986100196838379 0.015468000434339047
vn 0.029974000528454781 0.99923700094223022 0.025024000555276871
vn 0.0060549997724592686 0.99997502565383911 -0.0037390000652521849
vn -0.039340998977422714 0.99913299083709717 -0.013625999912619591
vn -0.015593999996781349 0.99985599517822266 -0.0067579997703433037
vn 0.016538999974727631 0.9998289942741394 -0.0082229999825358391
vn -0.046452999114990234 0.99872201681137085 0.019928999245166779
vn -0.026557000353932381 0.99963098764419556 -0.0056830001994967461
vn 0.020384000614285469 0.999763011932373 -0.0075969998724758625
vn 0.0162579994648695 0.99983698129653931 -0.0077949999831616879
vn 0.024322999641299248 0.99970299005508423 0.00145800004247576
vn 0.022546000778675079 0.999705970287323 -0.0089400000870227814
vn 0.022708000615239143 0.99970299005508423 -0.0087940003722906113
vn 0.010162999853491783 0.99993699789047241 0.0048210001550614834
vn 0.0226879995316267 0.99974101781845093 -0.0016360000008717179
vn 0.020159000530838966 0.99978798627853394 0.00407300004735589
vn 0.010851999744772911 0.99993300437927246 0.0039760000072419643
vn 0.013042000122368336 0.99984997510910034 0.011373000219464302
vn 0.019001999869942665 0.99974602460861206 -0.012129999697208405
vn 0.024590000510215759 0.999646008014679 0.010107000358402729
f 1/1/1 2/2/2 3/3/3
f 4/4/4 3/3/3 5/5/5
f 4/4/4 6/6/6 3/3/3
f 1/1/1 3/3/3 6/6/6
f 7/7/7 8/8/8 9/9/9
f 2/2/2 10/10/10 3/3/3
f 2/2/2 11/11/11 10/10/10
f 11/11/11 2/2/2 12/12/12
f 3/3/3 13/13/13 14/14/14
f 3/3/3 10/10/10 13/13/13
f 14/14/14 15/15/15 16/16/16
f 14/14/14 17/17/17 15/15/15
f 13/13/13 17/17/17 14/14/14
f 3/3/3 14/14/14 5/5/5
f 5/5/5 14/14/14 18/18/18
f 16/16/16 19/19/19 20/20/20
f 16/16/16 21/21/21 19/19/19
f 21/21/21 16/16/16 15/15/15
f 16/16/16 18/18/18 14/14/14
f 18/18/18 16/16/16 22/22/22
f 23/23/23 24/24/24 25/25/25
f 9/9/9 5/5/5 18/18/18
f 26/26/26 27/27/27 28/28/28
f 26/26/26 29/29/29 27/27/27
f 29/29/29 30/30/30 27/27/27
f 9/9/9 18/18/18 31/31/31
f 27/27/27 9/9/9 28/28/28
f 27/27/27 32/32/32 9/9/9
f 26/26/26 28/28/28 33/33/33
f 9/9/9 34/34/34 28/28/28
f 33/33/33 28/28/28 35/35/35
f 4/4/4 9/9/9 8/8/8
f 4/4/4 5/5/5 9/9/9
f 7/7/7 9/9/9 32/32/32
f 36/36/36 25/25/25 37/37/37
f 24/24/24 37/37/37 25/25/25
f 38/38/38 25/25/25 36/36/36
f 38/38/38 39/39/39 25/25/25
f 40/40/40 25/25/25 39/39/39
f 40/40/40 20/20/20 25/25/25
f 20/20/20 41/41/41 22/22/22
f 20/20/20 42/42/42 41/41/41
f 31/31/31 22/22/22 43/43/43
f 20/20/20 22/22/22 16/16/16
f 31/31/31 43/43/43 34/34/34
f 22/22/22 44/44/44 45/45/45
f 22/22/22 41/41/41 44/44/44
f 19/19/19 25/25/25 20/20/20
f 19/19/19 23/23/23 25/25/25
f 22/22/22 46/46/46 43/43/43
f 44/44/44 47/47/47 45/45/45
f 48/48/48 45/45/45 47/47/47
f 49/49/49 46/46/46 50/50/50
f 48/48/48 46/46/46 45/45/45
f 48/48/48 50/50/50 46/46/46
f 51/51/51 52/52/52 53/53/53
f 51/51/51 46/46/46 52/52/52
f 46/46/46 49/49/49 52/52/52
f 22/22/22 45/45/45 46/46/46
f 54/54/54 43/43/43 46/46/46
f 40/40/40 42/42/42 20/20/20
f 31/31/31 18/18/18 22/22/22
f 54/54/54 34/34/34 43/43/43
f 55/55/55 54/54/54 56/56/56
f 55/55/55 34/34/34 54/54/54
f 57/57/57 56/56/56 54/54/54
f 35/35/35 34/34/34 55/55/55
f 35/35/35 28/28/28 34/34/34
f 57/57/57 54/54/54 58/58/58
f 59/59/59 53/53/53 52/52/52
f 60/60/60 58/58/58 54/54/54
f 51/51/51 54/54/54 46/46/46
f 51/51/51 60/60/60 54/54/54
f 9/9/9 31/31/31 34/34/34
