mtllib m0100.mtl
usemtl material0
v -993.44439697265625 1.1936509609222412 1792
v -1024 0.83900398015975952 1814.3126220703125
v -990.68609619140625 0.78672897815704346 1844.2852783203125
v -1024 1.0193710327148438 1792
v -865.4564208984375 -0.54466402530670166 1792
v -913.7069091796875 -4.0507979393005371 1792
v -863.0548095703125 -1.187716007232666 1837.551025390625
v -768 -6.3713488578796387 1792
v -799.25726318359375 -6.0358171463012695 1834.195068359375
v -768 -6.7156047821044922 1799.4517822265625
v -801.474609375 -3.9244279861450195 1792
v -846.125 -2.0239520072937012 1792
v -929.47412109375 -4.6167159080505371 1792
v -981.23785400390625 0.38962700963020325 1792
v -926.88531494140625 -3.4012589454650879 1840.9273681640625
v -1024 1.0917439460754395 1846.0435791015625
v -1024 -0.1431179940700531 1881.3106689453125
v -987.330322265625 -2.1110439300537109 1908.1134033203125
v -983.962646484375 -2.4314470291137695 1971.9339599609375
v -923.531494140625 -6.7145538330078125 1904.756591796875
v -1024 -1.4155910015106201 1910.0478515625
v -1024 -1.5192430019378662 1935.90625
v -1024 0.22319099307060242 1974.041259765625
v -1024 0.19494499266147614 2016.4404296875
v -1024 -0.18627099692821503 2048
v -991.61309814453125 -3.1781249046325684 2048
v -1024 -0.28749701380729675 2042.546630859375
v -980.6026611328125 -4.4224629402160645 2035.7593994140625
v -1024 -0.37114199995994568 2038.0404052734375
v -920.15521240234375 -5.1717028617858887 1968.5718994140625
v -979.95391845703125 -3.8885970115661621 2048
v -859.70709228515625 -5.7802882194519043 1901.3839111328125
v -795.89813232421875 -8.1787185668945312 1898.0208740234375
v -768 -7.866365909576416 1832.54931640625
v -768 -8.9142704010009766 1867.0111083984375
v -792.52423095703125 -7.1617388725280762 1961.8375244140625
v -856.34112548828125 -6.4664077758789062 1965.20556640625
v -916.78466796875 -4.8746681213378906 2032.390625
v -852.958984375 -3.6801509857177734 2029.017333984375
v -789.138916015625 -3.7099659442901611 2025.6473388671875
v -768 -7.3978872299194336 1960.543212890625
v -768 -5.1323409080505371 2002.148681640625
v -851.9554443359375 -3.3943378925323486 2048
v -899.4306640625 -4.31804895401001 2048
v -915.95794677734375 -4.3245577812194824 2048
v -966.99444580078125 -4.0586080551147461 2048
v -768 -9.2065229415893555 1896.5504150390625
v -768 -8.5283689498901367 1934.5762939453125
v -787.959228515625 -3.7792489528656006 2048
v -831.86041259765625 -3.7516310214996338 2048
v -768 -4.6551728248596191 2048
v -768 -4.6467628479003906 2037.2645263671875
v -768 -4.6367888450622559 2024.5335693359375
vt 0.99208402633666992 0.13757902383804321
vt 0.90937900543212891 0.019464015960693359
vt 0.79265499114990234 0.14412397146224976
vt 0.99439597129821777 0.021156013011932373
vt 0.98342597484588623 0.62574198842048645
vt 0.98578602075576782 0.44244498014450073
vt 0.80967497825622559 0.63155901432037354
vt 0.97517001628875732 0.99809500004630536
vt 0.8169100284576416 0.87561400234699249
vt 0.94679701328277588 0.99749900004826486
vt 0.97804397344589233 0.87021799385547638
vt 0.98193901777267456 0.69961199164390564
vt 0.98719298839569092 0.38233602046966553
vt 0.99113798141479492 0.18418800830841065
vt 0.80050402879714966 0.38799500465393066
vt 0.78847599029541016 0.017054975032806396
vt 0.65402001142501831 0.014433026313781738
vt 0.54897701740264893 0.15267598628997803
vt 0.30554899573326111 0.16055500507354736
vt 0.55674797296524048 0.39665001630783081
vt 0.54441899061203 0.012310981750488281
vt 0.4458949863910675 0.010325014591217041
vt 0.30044600367546082 0.0073040127754211426
vt 0.13889700174331665 0.0042120218276977539
vt 0.018613999709486961 0.0019050240516662598
vt 0.016215000301599503 0.1258310079574585
vt 0.039395000785589218 0.00234299898147583
vt 0.0619949996471405 0.16857701539993286
vt 0.0565669983625412 0.0027089715003967285
vt 0.31325998902320862 0.40415698289871216
vt 0.015262000262737274 0.17007702589035034
vt 0.56560099124908447 0.64008200168609619
vt 0.57333600521087646 0.88363800197839737
vt 0.82061302661895752 0.99504300020635128
vt 0.68924802541732788 0.99245300004258752
vt 0.33095800876617432 0.89226499944925308
vt 0.32218998670578003 0.64887100458145142
vt 0.069874003529548645 0.41303098201751709
vt 0.078593000769615173 0.65758499503135681
vt 0.087245002388954163 0.90098199993371964
vt 0.33432599902153015 0.9857980003580451
vt 0.17556099593639374 0.98307099938392639
vt 0.0061510000377893448 0.65909400582313538
vt 0.00786800030618906 0.47685301303863525
vt 0.01026500016450882 0.41391497850418091
vt 0.014262000098824501 0.21945798397064209
vt 0.57820802927017212 0.99006799980998039
vt 0.43329399824142456 0.98756599985063076
vt 0.0019960000645369291 0.904009997844696
vt 0.0037219999358057976 0.73564699292182922
vt 0.0006779999821446836 0.98013399913907051
vt 0.041583999991416931 0.98084099963307381
vt 0.090245001018047333 0.98167300038039684
vn 0.0288270004093647 0.9995650053024292 0.0062589999288320541
vn -0.0018510000081732869 0.99999099969863892 0.00380200007930398
vn 0.037762999534606934 0.99905699491500854 0.021420000120997429
vn -0.0057029998861253262 0.99995100498199463 0.0080829998478293419
vn -0.00057500001275911927 0.99989998340606689 0.014146000146865845
vn -0.044397998601198196 0.99892401695251465 -0.013416999951004982
vn 0.019993999972939491 0.99920499324798584 0.034497000277042389
vn 0.072825998067855835 0.99628198146820068 0.046025998890399933
vn 0.061301998794078827 0.997422993183136 0.0372840017080307
vn 0.069888003170490265 0.99661099910736084 0.043375998735427856
vn 0.057124000042676926 0.99726498126983643 0.046900000423192978
vn 0.068432003259658813 0.99747800827026367 0.01882999949157238
vn 0.032439999282360077 0.99912101030349731 -0.026536999270319939
vn 0.072844997048377991 0.9973369836807251 -0.0036490000784397125
vn 0.021159999072551727 0.99965298175811768 0.015675000846385956
vn 0.0099060004577040672 0.99984997510910034 0.014236000366508961
vn 0.0188790000975132 0.9989359974861145 0.042073000222444534
vn 0.045910999178886414 0.99866700172424316 0.023569999262690544
vn 0.055769000202417374 0.99844098091125488 0.0022169998846948147
vn 0.028101999312639236 0.999343991279602 0.022841000929474831
vn 0.020192999392747879 0.999521017074585 0.023453999310731888
vn 0.031088000163435936 0.99947398900985718 -0.0092409998178482056
vn 0.0650079995393753 0.99765002727508545 -0.021655000746250153
vn 0.087725996971130371 0.99594098329544067 0.020145000889897346
vn 0.0919710025191307 0.9955899715423584 -0.018479999154806137
vn 0.083678998053073883 0.99615401029586792 -0.025995999574661255
vn 0.0919710025191307 0.9955899715423584 -0.018479999154806137
vn 0.05137300118803978 0.99864202737808228 -0.0086369998753070831
vn 0.093108996748924255 0.9956510066986084 0.0030660000629723072
vn 0.026522999629378319 0.99958401918411255 -0.011330000124871731
vn 0.036164999008178711 0.99831098318099976 -0.045457001775503159
vn 0.014634000137448311 0.99936801195144653 0.032405000180006027
vn 0.040107998996973038 0.99918699264526367 0.0039780000224709511
vn 0.060141999274492264 0.99765801429748535 0.032581999897956848
vn 0.054735999554395676 0.99817299842834473 0.025567000731825829
vn 0.013871000148355961 0.9993090033531189 -0.034476999193429947
vn 0.0054939999245107174 0.99985301494598389 -0.016225999221205711
vn 0.00040499999886378646 0.99975097179412842 -0.02231300063431263
vn -0.0070259999483823776 0.99958300590515137 -0.028000000864267349
vn 0.016703000292181969 0.99961698055267334 -0.022079000249505043
vn 0.007044999860227108 0.99878597259521484 -0.048748999834060669
vn 0.015112999826669693 0.998786985874176 -0.04686100035905838
vn -0.0002119999990100041 0.99988698959350586 -0.015043999999761581
vn -0.015007000416517258 0.99970698356628418 -0.018964000046253204
vn 0.0023129999171942472 0.99937301874160767 -0.035342998802661896
vn 0.0070509999059140682 0.99927002191543579 -0.037542000412940979
vn 0.036632001399993896 0.99932301044464111 -0.0035019998904317617
vn 0.029223000630736351 0.99928897619247437 -0.023806000128388405
vn 0.022967999801039696 0.99973398447036743 0.0018870000494644046
vn 0.0046279998496174812 0.99998801946640015 -0.0013790000230073929
vn 0.04384399950504303 0.9990379810333252 0.00078200001735240221
vn 0.043843001127243042 0.9990379810333252 0.00078300002496689558
vn 0.043219000101089478 0.99900400638580322 -0.011052000336349011
f 1/1/1 2/2/2 3/3/3
f 1/1/1 4/4/4 2/2/2
f 5/5/5 6/6/6 7/7/7
f 8/8/8 9/9/9 10/10/10
f 8/8/8 11/11/11 9/9/9
f 11/11/11 12/12/12 9/9/9
f 13/13/13 14/14/14 15/15/15
f 16/16/16 17/17/17 3/3/3
f 15/15/15 3/3/3 18/18/18
f 1/1/1 15/15/15 14/14/14
f 1/1/1 3/3/3 15/15/15
f 18/18/18 19/19/19 20/20/20
f 21/21/21 3/3/3 17/17/17
f 21/21/21 18/18/18 3/3/3
f 2/2/2 16/16/16 3/3/3
f 18/18/18 22/22/22 19/19/19
f 18/18/18 21/21/21 22/22/22
f 23/23/23 24/24/24 19/19/19
f 25/25/25 26/26/26 27/27/27
f 27/27/27 28/28/28 29/29/29
f 27/27/27 26/26/26 28/28/28
f 24/24/24 28/28/28 19/19/19
f 24/24/24 29/29/29 28/28/28
f 28/28/28 30/30/30 19/19/19
f 26/26/26 31/31/31 28/28/28
f 22/22/22 23/23/23 19/19/19
f 18/18/18 20/20/20 15/15/15
f 7/7/7 20/20/20 32/32/32
f 20/20/20 7/7/7 15/15/15
f 9/9/9 32/32/32 33/33/33
f 32/32/32 9/9/9 7/7/7
f 33/33/33 34/34/34 9/9/9
f 33/33/33 35/35/35 34/34/34
f 33/33/33 32/32/32 36/36/36
f 12/12/12 7/7/7 9/9/9
f 12/12/12 5/5/5 7/7/7
f 32/32/32 20/20/20 37/37/37
f 37/37/37 30/30/30 38/38/38
f 30/30/30 37/37/37 20/20/20
f 37/37/37 38/38/38 39/39/39
f 38/38/38 30/30/30 28/28/28
f 36/36/36 39/39/39 40/40/40
f 39/39/39 36/36/36 37/37/37
f 40/40/40 41/41/41 36/36/36
f 40/40/40 42/42/42 41/41/41
f 38/38/38 43/43/43 39/39/39
f 38/38/38 44/44/44 43/43/43
f 32/32/32 37/37/37 36/36/36
f 28/28/28 45/45/45 38/38/38
f 28/28/28 46/46/46 45/45/45
f 47/47/47 36/36/36 48/48/48
f 47/47/47 33/33/33 36/36/36
f 30/30/30 20/20/20 19/19/19
f 6/6/6 15/15/15 7/7/7
f 6/6/6 13/13/13 15/15/15
f 39/39/39 49/49/49 40/40/40
f 39/39/39 50/50/50 49/49/49
f 51/51/51 40/40/40 49/49/49
f 51/51/51 52/52/52 40/40/40
f 52/52/52 53/53/53 40/40/40
f 31/31/31 46/46/46 28/28/28
f 43/43/43 50/50/50 39/39/39
f 44/44/44 38/38/38 45/45/45
f 34/34/34 10/10/10 9/9/9
f 41/41/41 48/48/48 36/36/36
f 53/53/53 42/42/42 40/40/40
f 47/47/47 35/35/35 33/33/33
