mtllib m0123.mtl
usemtl material0
v -714.01776123046875 -2.9628520011901855 1024
v -720.0567626953125 -3.6413919925689697 1024
v -713.71478271484375 -2.5112299919128418 1029.697509765625
v -746.02545166015625 -4.7351508140563965 1024
v -753.84759521484375 -4.5929250717163086 1024
v -745.6300048828125 -3.5996859073638916 1031.385986328125
v -768 -2.7620410919189453 1056.2513427734375
v -768 -2.8800089359283447 1032.565185546875
v -768 -4.2576069831848145 1024
v -768 -3.890084981918335 1026.2850341796875
v -768 -2.8338379859924316 1064.5638427734375
v -743.94708251953125 -3.9544849395751953 1063.2969970703125
v -712.03082275390625 -2.6419110298156738 1061.6077880859375
v -681.80511474609375 -2.6173920631408691 1028.0128173828125
v -768 -4.9484338760375977 1118.4935302734375
v -708.5888671875 -2.5985469818115234 1024
v -680.1229248046875 -3.1137900352478027 1059.92431640625
v -708.6619873046875 -2.7152159214019775 1125.4278564453125
v -768 -9.0700006484985352 1191.3670654296875
v -768 -4.9638400077819824 1128.567626953125
v -768 -9.0778398513793945 1192.5770263671875
v -705.293212890625 -2.792165994644165 1189.2479248046875
v -768 -7.8496589660644531 1214.174072265625
v -768 -5.1549439430236816 1254.425537109375
v -765.75567626953125 -5.2140359878540039 1256.4451904296875
v -701.927490234375 -3.5221660137176514 1253.0699462890625
v -768 -5.1058249473571777 1256.5634765625
v -641.48492395877838 -5.326530933380127 1185.8857421875
v -764.50738525390625 -4.2239108085632324 1280
v -768 -4.1119041442871094 1278.915771484375
v -768 -4.0636940002441406 1280
v -700.5062255859375 -3.6026279926300049 1280
v -739.5699462890625 -4.6290411949157715 1280
v -644.84686279296875 -3.7969670295715332 1122.0611572265625
v -665.367919921875 -3.2541570663452148 1280
v -638.10418701171875 -2.8773820400238037 1249.6978759765625
v -650.0269775390625 -4.4757771492004395 1024
v -649.9036865234375 -4.4503889083862305 1026.33349609375
v -678.1953125 -2.8778560161590576 1024
v -682.0172119140625 -2.66878604888916 1024
v -618.02545166015625 -3.9772210121154785 1024
v -617.9912109375 -3.9599950313568115 1024.64697265625
v -647.80419921875 -4.4753389358520508 1024
v -617.4093017578125 -4.0313420295715332 1024
v -616.30535888671875 -3.6819911003112793 1056.5560302734375
v -648.21856689453125 -4.3344931602478027 1058.2430419921875
v -605.65203857421875 -5.5647749900817871 1024
v -586.0460205078125 -7.9881381988525391 1024
v -584.3985595703125 -4.3925619125366211 1054.8731689453125
v -554.04119873046875 -6.8141369819641113 1024
v -552.5003662109375 -6.8993029594421387 1053.1959228515625
v -556.6260986328125 -6.611170768737793 1024
v -581.04180908203125 -7.0034241676330566 1118.7010498046875
v -577.68585205078125 -9.7844324111938477 1182.5294189453125
v -517.22515869140625 -7.7550687789916992 1115.3333740234375
v -574.32196044921875 -10.891867637634277 1246.3525390625
v -526.23638916015625 -8.8643484115600586 1024
v -520.60113525390625 -9.1905288696289062 1051.51806640625
v -522.0537109375 -9.1641530990600586 1024
v -512 -10.009087562561035 1024
v -512 -9.9466390609741211 1041.95654296875
v -512 -9.9114532470703125 1043.7664794921875
v -512 -9.7695541381835938 1051.0655517578125
v -512 -8.0660495758056641 1115.058349609375
v -513.87042236328125 -10.770448684692383 1179.162353515625
v -512 -10.79464054107666 1177.08349609375
v -512 -8.41141414642334 1103.3358154296875
v -512 -10.805265426635742 1179.063720703125
v -512 -11.784429550170898 1214.6868896484375
v -512 -12.529946327209473 1241.6466064453125
v -636.50616502761841 -3.2178270816802979 1280
v -604.58758544921875 -7.2362160682678223 1280
v -572.53057861328125 -7.8223090171813965 1280
v -512 -12.552522659301758 1243.0662841796875
v -543.8018798828125 -8.44787311553955 1280
v -512 -12.406736373901367 1244.644287109375
v -512 -8.2423849105834961 1280
vt 0.99127602577209473 0.23916900157928467
vt 0.99212199449539185 0.21649497747421265
vt 0.96964502334594727 0.23954498767852783
vt 0.99588501453399658 0.11911898851394653
vt 0.9969480037689209 0.089793980121612549
vt 0.96773701906204224 0.11952400207519531
vt 0.87756901979446411 0.032199978828430176
vt 0.96650898456573486 0.035367012023925781
vt 0.99903398752212524 0.036862015724182129
vt 0.99036401510238647 0.036401987075805664
vt 0.846651017665863 0.030758023262023926
vt 0.84784001111984253 0.12130802869796753
vt 0.849606990814209 0.24140399694442749
vt 0.97170698642730713 0.35943198204040527
vt 0.64414000511169434 0.023295998573303223
vt 0.99036699533462524 0.25956100225448608
vt 0.85162901878356934 0.36140400171279907
vt 0.60964202880859375 0.24533498287200928
vt 0.370263010263443 0.012367010116577148
vt 0.6062309741973877 0.021983981132507324
vt 0.3657589852809906 0.012206017971038818
vt 0.36955800652503967 0.24923700094223023
vt 0.28448000550270081 0.009579002857208252
vt 0.13311700522899628 0.0047730207443237305
vt 0.12534500658512116 0.012997984886169434
vt 0.12954600155353546 0.25296199321746826
vt 0.12514500319957733 0.0045369863510131836
vt 0.37318700551986694 0.48944902420043945
vt 0.036818999797105789 0.014490008354187012
vt 0.041365999728441238 0.0016340017318725586
vt 0.0372919999063015 0.0014500021934509277
vt 0.028279000893235207 0.25450801849365234
vt 0.033383000642061234 0.1078839898109436
vt 0.61346501111984253 0.48542201519012451
vt 0.023004999384284019 0.38579398393630981
vt 0.13273400068283081 0.49261200428009033
vt 0.98243999481201172 0.47944098711013794
vt 0.97364997863769531 0.47956001758575439
vt 0.98629099130630493 0.37351000308990479
vt 0.986814022064209 0.35920000076293945
vt 0.9778519868850708 0.59950798749923706
vt 0.97535598278045654 0.59964698553085327
vt 0.982122004032135 0.48777401447296143
vt 0.97778099775314331 0.60183501243591309
vt 0.855463981628418 0.60158300399780273
vt 0.853600025177002 0.48147797584533691
vt 0.97638499736785889 0.64648601412773132
vt 0.97430598735809326 0.72040900588035583
vt 0.857446014881134 0.72164401412010193
vt 0.96879702806472778 0.84064899384975433
vt 0.85904902219772339 0.84200100600719452
vt 0.96920400857925415 0.83098499476909637
vt 0.61721497774124146 0.72578498721122742
vt 0.37704199552536011 0.73017999529838562
vt 0.62136101722717285 0.96587299928069115
vt 0.13696199655532837 0.73421600461006165
vt 0.96458101272583008 0.94492499902844429
vt 0.86101400852203369 0.962372999638319
vt 0.96413898468017578 0.96077299863100052
vt 0.962611973285675 0.99855000001844019
vt 0.89571201801300049 0.9961300001014024
vt 0.88895899057388306 0.99584400001913309
vt 0.861536979675293 0.99481200007721782
vt 0.62163901329040527 0.985601999796927
vt 0.38133499026298523 0.97009900026023388
vt 0.38879799842834473 0.97740199975669384
vt 0.66557502746582031 0.98723599966615438
vt 0.38145199418067932 0.97711900062859058
vt 0.2475540041923523 0.97257100045681
vt 0.14632700383663178 0.96892499923706055
vt 0.018790999427437782 0.49438601732254028
vt 0.014520999975502491 0.61533299088478088
vt 0.01001800037920475 0.73535799980163574
vt 0.14084999263286591 0.9688549991697073
vt 0.0057359999045729637 0.84363199770450592
vt 0.13485999405384064 0.96864600107073784
vt 0.00096600002143532038 0.96330000087618828
vn -0.089933000504970551 0.99319899082183838 -0.073945000767707825
vn -0.057833999395370483 0.98957198858261108 -0.13191600143909454
vn -0.035583999007940292 0.99873298406600952 -0.035571999847888947
vn -0.010785999707877636 0.98841798305511475 -0.15137399733066559
vn 0.022111000493168831 0.987293004989624 -0.157368004322052
vn -0.0037489999085664749 0.99731898307800293 -0.0730850026011467
vn 0.043471001088619232 0.99904000759124756 0.0054529998451471329
vn 0.027871999889612198 0.9964519739151001 -0.079409003257751465
vn 0.02338699996471405 0.98704099655151367 -0.15875400602817535
vn 0.02338699996471405 0.98704099655151367 -0.15875400602817535
vn 0.047807998955249786 0.99855899810791016 0.024382999166846275
vn -0.0017440000083297491 0.9999229907989502 0.012268999591469765
vn -0.014336000196635723 0.99988597631454468 0.00481100007891655
vn 0.028952000662684441 0.99957400560379028 -0.0037410000804811716
vn -0.026492999866604805 0.99962800741195679 0.0064559997990727425
vn -0.015938000753521919 0.99943298101425171 -0.029656000435352325
vn 0.025390999391674995 0.99966299533843994 0.0054839998483657837
vn -0.018112000077962875 0.99978798627853394 0.00981099996715784
vn -0.084299996495246887 0.99623697996139526 0.020150000229477882
vn -0.036024000495672226 0.99875599145889282 0.034480001777410507
vn -0.10107400268316269 0.99453800916671753 -0.02603599987924099
vn -0.023702999576926231 0.99971801042556763 0.0012339999666437507
vn -0.0993880033493042 0.99343401193618774 -0.056664001196622849
vn 0.075627997517585754 0.995622992515564 -0.054910998791456223
vn 0.010734999552369118 0.999409019947052 -0.03265099972486496
vn -0.011989999562501907 0.99992698431015015 0.0016179999802261591
vn 0.046342000365257263 0.99834597110748291 -0.03403099998831749
vn 0.05329199880361557 0.99856299161911011 0.0056059998460114
vn 0.030523000285029411 0.99858301877975464 -0.043593000620603561
vn 0.045779999345541 0.99796599149703979 -0.044374998658895493
vn 0.045779999345541 0.99796599149703979 -0.044374000281095505
vn -0.017818000167608261 0.99983400106430054 0.00392800010740757
vn -0.016356000676751137 0.9998440146446228 -0.0066490001045167446
vn 0.033364001661539078 0.99937999248504639 0.011257000267505646
vn -0.0076069999486207962 0.99995499849319458 0.0055889999493956566
vn 0.0574599988758564 0.99819302558898926 -0.017598999664187431
vn 0.029177999123930931 0.99949699640274048 -0.012415999546647072
vn 0.021766999736428261 0.99970299005508423 -0.011008000001311302
vn 0.05609399825334549 0.99832302331924438 -0.01433899998664856
vn 0.027772000059485435 0.99951201677322388 -0.014268999919295311
vn 0.033698998391628265 0.99902898073196411 -0.028382999822497368
vn 0.037060000002384186 0.9989209771156311 -0.027989000082015991
vn -0.012311000376939774 0.99968701601028442 -0.021765999495983124
vn 0.11823499947786331 0.99298101663589478 -0.003160000080242753
vn 0.0091089997440576553 0.99994301795959473 0.0054870001040399075
vn 0.01107299979776144 0.99993002414703369 -0.0042150001972913742
vn 0.12190599739551544 0.98536598682403564 -0.11913199722766876
vn 0.040403999388217926 0.99222499132156372 -0.11771299690008164
vn 0.048273999243974686 0.99876397848129272 -0.0118410000577569
vn 0.075988002121448517 0.997107982635498 -0.0011020000092685223
vn 0.066035002470016479 0.99781501293182373 0.0020749999675899744
vn 0.044977001845836639 0.99849802255630493 -0.03129500150680542
vn 0.037836000323295593 0.99885100126266479 0.029409000650048256
vn 0.04507799819111824 0.99853599071502686 0.029890000820159912
vn 0.041797000914812088 0.999023973941803 0.014286000281572342
vn 0.054333999752998352 0.99794799089431763 -0.03386399894952774
vn 0.07203800231218338 0.9973989725112915 -0.0023260000161826611
vn 0.070626996457576752 0.99736499786376953 -0.016575999557971954
vn 0.077416002750396729 0.9969940185546875 -0.003131000092253089
vn 0.083746001124382019 0.99648100137710571 -0.0034660000819712877
vn 0.079640999436378479 0.99679797887802124 -0.0071840002201497555
vn 0.066138997673988342 0.997622013092041 -0.019393999129533768
vn 0.065970003604888916 0.99756699800491333 -0.022544000297784805
vn 0.05972599983215332 0.99819701910018921 0.0060259997844696045
vn 0.023787999525666237 0.99922102689743042 0.031500000506639481
vn 0.051688000559806824 0.998054027557373 0.034890998154878616
vn 0.064749002456665039 0.99755299091339111 -0.026373999193310738
vn 0.019455000758171082 0.99968200922012329 0.016049999743700027
vn 0.016953999176621437 0.99947398900985718 0.027636000886559486
vn 0.024653000757098198 0.99951499700546265 0.019026000052690506
vn 0.064088001847267151 0.99791401624679565 0.0078320000320672989
vn 0.096637003123760223 0.99509400129318237 -0.021189000457525253
vn 0.019997000694274902 0.99556899070739746 -0.091886997222900391
vn 0.024708999320864677 0.99903702735900879 -0.03625199943780899
vn 0.014155999757349491 0.99501800537109375 -0.098682001233100891
vn 0.015154999680817127 0.99509197473526 -0.097791001200675964
vn -0.006417000200599432 0.99311399459838867 -0.11697299778461456
f 1/1/1 2/2/2 3/3/3
f 4/4/4 5/5/5 6/6/6
f 7/7/7 6/6/6 8/8/8
f 9/9/9 6/6/6 5/5/5
f 9/9/9 10/10/10 6/6/6
f 10/10/10 8/8/8 6/6/6
f 6/6/6 11/11/11 12/12/12
f 6/6/6 7/7/7 11/11/11
f 3/3/3 12/12/12 13/13/13
f 12/12/12 3/3/3 6/6/6
f 13/13/13 14/14/14 3/3/3
f 11/11/11 15/15/15 12/12/12
f 2/2/2 6/6/6 3/3/3
f 2/2/2 4/4/4 6/6/6
f 1/1/1 3/3/3 16/16/16
f 17/17/17 13/13/13 18/18/18
f 12/12/12 18/18/18 13/13/13
f 19/19/19 18/18/18 20/20/20
f 15/15/15 18/18/18 12/12/12
f 15/15/15 20/20/20 18/18/18
f 18/18/18 21/21/21 22/22/22
f 18/18/18 19/19/19 21/21/21
f 23/23/23 24/24/24 25/25/25
f 22/22/22 25/25/25 26/26/26
f 27/27/27 25/25/25 24/24/24
f 26/26/26 28/28/28 22/22/22
f 27/27/27 29/29/29 25/25/25
f 27/27/27 30/30/30 29/29/29
f 30/30/30 31/31/31 29/29/29
f 23/23/23 22/22/22 21/21/21
f 23/23/23 25/25/25 22/22/22
f 25/25/25 32/32/32 26/26/26
f 25/25/25 33/33/33 32/32/32
f 18/18/18 22/22/22 34/34/34
f 33/33/33 25/25/25 29/29/29
f 26/26/26 35/35/35 36/36/36
f 26/26/26 32/32/32 35/35/35
f 37/37/37 14/14/14 38/38/38
f 37/37/37 39/39/39 14/14/14
f 40/40/40 14/14/14 39/39/39
f 41/41/41 38/38/38 42/42/42
f 41/41/41 43/43/43 38/38/38
f 37/37/37 38/38/38 43/43/43
f 41/41/41 42/42/42 44/44/44
f 42/42/42 38/38/38 45/45/45
f 38/38/38 14/14/14 46/46/46
f 14/14/14 16/16/16 3/3/3
f 14/14/14 40/40/40 16/16/16
f 47/47/47 44/44/44 42/42/42
f 48/48/48 42/42/42 49/49/49
f 48/48/48 47/47/47 42/42/42
f 46/46/46 17/17/17 34/34/34
f 14/14/14 17/17/17 46/46/46
f 49/49/49 42/42/42 45/45/45
f 46/46/46 45/45/45 38/38/38
f 50/50/50 49/49/49 51/51/51
f 50/50/50 52/52/52 49/49/49
f 49/49/49 45/45/45 53/53/53
f 48/48/48 49/49/49 52/52/52
f 45/45/45 46/46/46 34/34/34
f 22/22/22 28/28/28 34/34/34
f 34/34/34 28/28/28 53/53/53
f 53/53/53 54/54/54 55/55/55
f 34/34/34 53/53/53 45/45/45
f 53/53/53 55/55/55 51/51/51
f 54/54/54 53/53/53 28/28/28
f 51/51/51 49/49/49 53/53/53
f 54/54/54 28/28/28 56/56/56
f 57/57/57 50/50/50 51/51/51
f 36/36/36 28/28/28 26/26/26
f 58/58/58 57/57/57 51/51/51
f 58/58/58 59/59/59 57/57/57
f 60/60/60 58/58/58 61/61/61
f 60/60/60 59/59/59 58/58/58
f 62/62/62 58/58/58 63/63/63
f 62/62/62 61/61/61 58/58/58
f 64/64/64 65/65/65 66/66/66
f 64/64/64 55/55/55 65/65/65
f 55/55/55 63/63/63 58/58/58
f 55/55/55 67/67/67 63/63/63
f 67/67/67 55/55/55 64/64/64
f 65/65/65 55/55/55 54/54/54
f 66/66/66 65/65/65 68/68/68
f 55/55/55 58/58/58 51/51/51
f 69/69/69 54/54/54 70/70/70
f 69/69/69 65/65/65 54/54/54
f 35/35/35 71/71/71 36/36/36
f 36/36/36 72/72/72 56/56/56
f 36/36/36 71/71/71 72/72/72
f 72/72/72 73/73/73 56/56/56
f 74/74/74 75/75/75 76/76/76
f 74/74/74 56/56/56 75/75/75
f 56/56/56 73/73/73 75/75/75
f 56/56/56 28/28/28 36/36/36
f 77/77/77 76/76/76 75/75/75
f 70/70/70 56/56/56 74/74/74
f 70/70/70 54/54/54 56/56/56
f 69/69/69 68/68/68 65/65/65
f 34/34/34 17/17/17 18/18/18
f 17/17/17 14/14/14 13/13/13
