mtllib m0130.mtl
usemtl material0
v -512 -12.5464448928833 1371.061279296875
v -512 -12.486923217773438 1379.772705078125
v -503.77755737304688 -13.8287935256958 1370.6307373046875
v -512 -4.4998369216918945 1435.03662109375
v -512 -4.4688210487365723 1447.3553466796875
v -500.36453247070312 -4.6177401542663574 1434.4224853515625
v -512 -4.9609899520874023 1312.2252197265625
v -507.10491943359375 -5.0559859275817871 1306.7843017578125
v -512 -5.0571689605712891 1307.042724609375
v -512 -5.5084381103515625 1303.21142578125
v -508.53445434570312 -8.2199926376342773 1280
v -512 -8.2423849105834961 1280
v -483.0128173828125 -7.9870028495788574 1280
v -444.56353759765625 -13.717400550842285 1280
v -443.3297119140625 -14.478617668151856 1303.4429931640625
v -422.23760986328125 -14.352176666259766 1280
v -439.96292114257812 -14.963472366333008 1367.2640380859375
v -496.994140625 -4.3520851135253906 1498.241455078125
v -436.57061767578125 -10.119537353515625 1431.069091796875
v -512 -4.2326359748840332 1499.033447265625
v -376.154296875 -17.347381591796875 1363.9012451171875
v -433.17950439453125 -5.5277800559997559 1494.875
v -372.77203369140625 -14.610836029052734 1427.7125244140625
v -495.0035400390625 -4.9062538146972656 1536
v -512 -4.6319260597229 1527.1180419921875
v -512 -4.7582049369812012 1536
v -379.51843309402466 -16.311267852783203 1300.07861328125
v -380.5749819278717 -15.620745658874512 1280
v -361.45285034179688 -15.947272300720215 1280
v -315.68896484375 -14.356119155883789 1296.70263671875
v -316.57168579101562 -14.549019813537598 1280
v -300.66143798828125 -14.311661720275879 1280
v -312.3203125 -14.45426082611084 1360.5224609375
v -369.39590454101562 -13.148911476135254 1491.52783203125
v -308.95089721679688 -14.391011238098145 1424.3419189453125
v -256 -16.013124465942383 1357.5528564453125
v -256 -15.993727684020996 1365.484619140625
v -256 -13.374775886535645 1421.54296875
v -305.57354736328125 -12.68641471862793 1488.1563720703125
v -256 -13.079769134521484 1433.0557861328125
v -367.02127075195312 -7.7357511520385742 1536
v -387.46856689453125 -5.4296932220458984 1536
v -256 -13.935807228088379 1297.9251708984375
v -256 -13.92744255065918 1293.5494384765625
v -256 -13.932819366455078 1292.201904296875
v -256 -13.981498718261719 1280
v -256 -12.29056453704834 1485.53759765625
v -256 -12.616848945617676 1523.8092041015625
v -256 -12.693135261535645 1532.75732421875
v -303.0484619140625 -12.813209533691406 1536
v -319.963623046875 -12.933085441589356 1536
v -431.01461791992188 -6.7712512016296387 1536
v -455.04153442382812 -6.2915949821472168 1536
v -256 -12.702133178710938 1536
vt 0.62023001909255981 0.018036007881164551
vt 0.58763402700424194 0.019161999225616455
vt 0.62294900417327881 0.049115002155303955
vt 0.37864398956298828 0.024129986763000488
vt 0.33253800868988037 0.02526700496673584
vt 0.38201698660850525 0.06762397289276123
vt 0.84198200702667236 0.0056729912757873535
vt 0.86314100027084351 0.02308499813079834
vt 0.86136901378631592 0.0048189759254455566
vt 0.87579798698425293 0.0041790008544921875
vt 0.96383398771286011 0.013853013515472412
vt 0.96335399150848389 0.00088697671890258789
vt 0.96740800142288208 0.10933899879455566
vt 0.9739149808883667 0.25473201274871826
vt 0.88643300533294678 0.26364099979400635
vt 0.97771298885345459 0.33851999044418335
vt 0.64830499887466431 0.28705000877380371
vt 0.1439329981803894 0.0913500189781189
vt 0.40584799647331238 0.30648797750473022
vt 0.13911999762058258 0.030031979084014893
vt 0.66467398405075073 0.52589300274848938
vt 0.1671220064163208 0.32950901985168457
vt 0.42601600289344788 0.54541099071502686
vt 0.0023829999845474958 0.097204983234405518
vt 0.0339989997446537 0.032736003398895264
vt 0.00075399997876957059 0.033591985702514648
vt 0.90978801250457764 0.50182899832725525
vt 0.98474198579788208 0.49441301822662354
vt 0.98607897758483887 0.56831800937652588
vt 0.92638701200485229 0.74076399207115173
vt 0.98885899782180786 0.73640498518943787
vt 0.98985397815704346 0.79596899449825287
vt 0.68372201919555664 0.76469899713993073
vt 0.18986499309539795 0.56925401091575623
vt 0.44523099064826965 0.78391000628471375
vt 0.70067298412323 0.9752459991723299
vt 0.67098802328109741 0.97606600075960159
vt 0.46096500754356384 0.98183899931609631
vt 0.21045200526714325 0.80764700472354889
vt 0.42260101437568665 0.98652100004255772
vt 0.022456999868154526 0.58287501335144043
vt 0.021088000386953354 0.50746101140975952
vt 0.9274439811706543 0.96466200053691864
vt 0.9438210129737854 0.96424999833107
vt 0.94886398315429688 0.96411100029945374
vt 0.99452900886535645 0.96285000070929527
vt 0.22619600594043732 0.99283999996259809
vt 0.082980997860431671 0.99741999991238117
vt 0.049754999577999115 0.99870800005737692
vt 0.0317469984292984 0.82306799292564392
vt 0.029866000637412071 0.75996799767017364
vt 0.013605000451207161 0.34452497959136963
vt 0.00061699998332187533 0.24689698219299316
vt 0.037622001022100449 0.999112999998033
vn 0.15680299699306488 0.9859200119972229 0.058097999542951584
vn 0.038033999502658844 0.99303102493286133 -0.11155000329017639
vn 0.068419001996517181 0.9976009726524353 0.010546999983489513
vn 0.0063829999417066574 0.99748599529266357 -0.070574000477790833
vn 0.0082510001957416534 0.99995797872543335 -0.0040919999592006207
vn 0.035737000405788422 0.99712502956390381 -0.066822998225688934
vn 0.12225600332021713 0.9881560206413269 0.092739000916481018
vn 0.057363998144865036 0.9982990026473999 -0.010447000153362751
vn -0.0037360000424087048 0.99779897928237915 -0.06619899719953537
vn -0.006415999960154295 0.99311399459838867 -0.11697299778461456
vn -0.0076959999278187752 0.99311298131942749 -0.11690499633550644
vn -0.006417000200599432 0.99311399459838867 -0.11697299778461456
vn 0.10598599910736084 0.99427598714828491 -0.013470999896526337
vn 0.090131998062133789 0.99554800987243652 0.02758299931883812
vn 0.088110998272895813 0.99598902463912964 0.015537999570369721
vn 0.029881000518798828 0.99903202056884766 0.032272998243570328
vn 0.049681000411510468 0.99837398529052734 -0.027950000017881393
vn 0.023465000092983246 0.99972200393676758 -0.0024989999365061522
vn 0.06207599863409996 0.99599099159240723 -0.064406998455524445
vn 0.008231000043451786 0.99995297193527222 0.0051380000077188015
vn 0.00095600000349804759 0.9998130202293396 -0.019300000742077827
vn 0.041691001504659653 0.99848902225494385 -0.035794999450445175
vn 0.032377999275922775 0.99884700775146484 -0.035436000674963
vn 0.02211499959230423 0.99966400861740112 0.013505999930202961
vn 0.0087090004235506058 0.99986100196838379 0.014214999973773956
vn 0.0087099997326731682 0.99986100196838379 0.014214999973773956
vn 0.0068149999715387821 0.9998130202293396 0.018123999238014221
vn 0.023967999964952469 0.99916499853134155 0.033100999891757965
vn -0.018279999494552612 0.99983102083206177 0.001677999971434474
vn -0.021688999608159065 0.99976402521133423 -0.0011279999744147062
vn -0.023302000015974045 0.99967497587203979 -0.010313999839127064
vn -0.0093999998643994331 0.99993902444839478 -0.0057950001209974289
vn -0.0079469997435808182 0.99996799230575562 -0.00018200000340584666
vn 0.06830800324678421 0.99584197998046875 -0.060276001691818237
vn -0.006928000133484602 0.9997979998588562 -0.018861999735236168
vn 0.02854900062084198 0.99945098161697388 0.016800999641418457
vn 0.016078000888228416 0.99978899955749512 -0.012760999612510204
vn -0.021103000268340111 0.999110996723175 -0.036485001444816589
vn -0.008832000195980072 0.99991601705551147 -0.0094739999622106552
vn -0.01779399998486042 0.99957400560379028 -0.02314399927854538
vn 0.11001399904489517 0.98592597246170044 -0.12588100135326386
vn 0.078299000859260559 0.99291402101516724 -0.089397996664047241
vn 0.0014509999891743064 0.99995297193527222 0.0095870001241564751
vn -0.0072420001961290836 0.99997299909591675 -0.00113800005055964
vn -0.0073919999413192272 0.99996501207351685 -0.0039900001138448715
vn -0.0073919999413192272 0.99996501207351685 -0.0039900001138448715
vn -0.0081780003383755684 0.99996000528335571 -0.0036510000936686993
vn -0.0075340000912547112 0.99993497133255 0.0085249999538064
vn -0.0037410000804811716 0.9999840259552002 0.0043089999817311764
vn -0.0046439999714493752 0.9999849796295166 0.0028949999250471592
vn 0.020222000777721405 0.999422013759613 -0.027327999472618103
vn -0.0062620001845061779 0.99951398372650146 0.030550999566912651
vn 0.023376999422907829 0.999405026435852 0.025361999869346619
vn -0.0023610000498592854 0.99999302625656128 0.0027749999426305294
f 1/1/1 2/2/2 3/3/3
f 4/4/4 5/5/5 6/6/6
f 7/7/7 8/8/8 9/9/9
f 9/9/9 8/8/8 10/10/10
f 10/10/10 11/11/11 12/12/12
f 10/10/10 8/8/8 11/11/11
f 11/11/11 8/8/8 13/13/13
f 14/14/14 15/15/15 16/16/16
f 15/15/15 13/13/13 8/8/8
f 15/15/15 14/14/14 13/13/13
f 15/15/15 8/8/8 17/17/17
f 4/4/4 3/3/3 2/2/2
f 4/4/4 6/6/6 3/3/3
f 3/3/3 6/6/6 17/17/17
f 6/6/6 18/18/18 19/19/19
f 20/20/20 6/6/6 5/5/5
f 20/20/20 18/18/18 6/6/6
f 19/19/19 17/17/17 6/6/6
f 19/19/19 21/21/21 17/17/17
f 22/22/22 23/23/23 19/19/19
f 22/22/22 19/19/19 18/18/18
f 8/8/8 3/3/3 17/17/17
f 20/20/20 24/24/24 18/18/18
f 20/20/20 25/25/25 24/24/24
f 25/25/25 26/26/26 24/24/24
f 15/15/15 17/17/17 27/27/27
f 1/1/1 8/8/8 7/7/7
f 1/1/1 3/3/3 8/8/8
f 27/27/27 16/16/16 15/15/15
f 27/27/27 28/28/28 16/16/16
f 28/28/28 27/27/27 29/29/29
f 30/30/30 27/27/27 21/21/21
f 29/29/29 30/30/30 31/31/31
f 29/29/29 27/27/27 30/30/30
f 31/31/31 30/30/30 32/32/32
f 30/30/30 21/21/21 33/33/33
f 21/21/21 27/27/27 17/17/17
f 34/34/34 23/23/23 22/22/22
f 23/23/23 34/34/34 35/35/35
f 35/35/35 33/33/33 23/23/23
f 36/36/36 35/35/35 37/37/37
f 36/36/36 33/33/33 35/35/35
f 38/38/38 39/39/39 40/40/40
f 38/38/38 35/35/35 39/39/39
f 39/39/39 35/35/35 34/34/34
f 21/21/21 23/23/23 33/33/33
f 22/22/22 41/41/41 34/34/34
f 22/22/22 42/42/42 41/41/41
f 43/43/43 30/30/30 33/33/33
f 43/43/43 44/44/44 30/30/30
f 23/23/23 21/21/21 19/19/19
f 44/44/44 32/32/32 30/30/30
f 44/44/44 45/45/45 32/32/32
f 45/45/45 46/46/46 32/32/32
f 38/38/38 37/37/37 35/35/35
f 47/47/47 40/40/40 39/39/39
f 47/47/47 39/39/39 48/48/48
f 48/48/48 39/39/39 49/49/49
f 36/36/36 43/43/43 33/33/33
f 34/34/34 50/50/50 39/39/39
f 34/34/34 51/51/51 50/50/50
f 18/18/18 52/52/52 22/22/22
f 18/18/18 53/53/53 52/52/52
f 41/41/41 51/51/51 34/34/34
f 42/42/42 22/22/22 52/52/52
f 54/54/54 39/39/39 50/50/50
f 54/54/54 49/49/49 39/39/39
f 53/53/53 18/18/18 24/24/24
