mtllib m0132.mtl
usemtl material0
v -512 -10.009087562561035 1024
v -512 -9.9466390609741211 1041.95654296875
v -495.84716796875 -11.366602897644043 1024
v -490.06744384765625 -11.74977970123291 1024
v -512 -9.7695541381835938 1051.0655517578125
v -488.7012939453125 -11.338014602661133 1049.83984375
v -512 -9.9114532470703125 1043.7664794921875
v -483.64041137695312 -11.500986099243164 1024
v -456.78543090820312 -10.125992774963379 1048.1510009765625
v -458.0655517578125 -11.170984268188477 1024
v -449.85662841796875 -11.404664993286133 1024
v -424.88006591796875 -11.109548568725586 1046.468994140625
v -426.07308959960938 -12.496882438659668 1024
v -512 -8.0660495758056641 1115.058349609375
v -512 -10.79464054107666 1177.08349609375
v -453.42312622070312 -11.552302360534668 1111.97509765625
v -512 -8.41141414642334 1103.3358154296875
v -450.05593872070312 -11.958349227905273 1175.7960205078125
v -389.6024169921875 -11.433323860168457 1108.604736328125
v -512 -10.805265426635742 1179.063720703125
v -404.66824340820312 -12.987916946411133 1024
v -512 -11.784429550170898 1214.6868896484375
v -512 -12.529946327209473 1241.6466064453125
v -510.50994873046875 -12.592227935791016 1242.9876708984375
v -512 -12.552522659301758 1243.0662841796875
v -512 -12.406736373901367 1244.644287109375
v -512 -8.2423849105834961 1280
v -508.53445434570312 -8.2199926376342773 1280
v -483.0128173828125 -7.9870028495788574 1280
v -446.68893432617188 -12.406126976013184 1239.6170654296875
v -386.24322509765625 -13.509264945983887 1172.4307861328125
v -444.56353759765625 -13.717400550842285 1280
v -382.87701404094696 -14.116220474243164 1236.2523193359375
v -422.23760986328125 -14.352176666259766 1280
v -392.9698486328125 -11.084144592285156 1044.783935546875
v -394.07623291015625 -12.929971694946289 1024
v -374.27310180664062 -12.41927433013916 1024
v -343.87554931640625 -10.66139030456543 1024
v -362.07501220703125 -12.490411758422852 1024
v -361.0611572265625 -11.369583129882813 1043.0997314453125
v -330.06219482421875 -9.7201099395751953 1024
v -329.14077758789062 -9.2354412078857422 1041.4080810546875
v -325.78298950195312 -11.589958190917969 1105.235107421875
v -297.23434448242188 -9.9921779632568359 1039.725341796875
v -322.43002319335938 -14.940780639648438 1169.065185546875
v -261.94949340820312 -8.8313417434692383 1101.8564453125
v -319.0616455078125 -15.09315299987793 1232.88525390625
v -313.48004150390625 -9.9361639022827148 1024
v -298.06594848632812 -10.285602569580078 1024
v -283.08721923828125 -10.554439544677734 1024
v -266.06796264648438 -10.49840259552002 1024
v -265.32403564453125 -9.9523525238037109 1038.040283203125
v -256 -9.1594324111938477 1037.5455322265625
v -256 -8.4992055892944336 1088.204345703125
v -256 -8.8426179885864258 1101.5423583984375
v -258.59445190429688 -11.739299774169922 1165.6851806640625
v -256 -11.619714736938477 1162.8018798828125
v -256 -9.38929557800293 1030.8419189453125
v -256 -9.6239023208618164 1024
v -256 -11.637903213500977 1165.5479736328125
v -256 -13.623295783996582 1215.0089111328125
v -256 -14.185947418212891 1228.8260498046875
v -380.5749819278717 -15.620745658874512 1280
v -361.45285034179688 -15.947272300720215 1280
v -316.57168579101562 -14.549019813537598 1280
v -256 -14.188226699829102 1229.552734375
v -300.66143798828125 -14.311661720275879 1280
v -256 -14.179535865783691 1230.3603515625
v -256 -13.981498718261719 1280
vt 0.99914401769638062 0.0019469857215881348
vt 0.92926299571990967 0.0019260048866271973
vt 0.99914401769638062 0.065029025077819824
vt 0.99913901090621948 0.087571024894714355
vt 0.89380800724029541 0.001873016357421875
vt 0.89855998754501343 0.09274899959564209
vt 0.92221802473068237 0.0019159913063049316
vt 0.99909001588821411 0.11260098218917847
vt 0.90489101409912109 0.21705597639083862
vt 0.99896901845932007 0.21213698387145996
vt 0.9988899827003479 0.24419200420379639
vt 0.91132301092147827 0.34128397703170776
vt 0.99894100427627563 0.3368459939956665
vt 0.64468401670455933 0.0013859868049621582
vt 0.4030730128288269 0.00193101167678833
vt 0.65658998489379883 0.22975301742553711
vt 0.69032400846481323 0.0014830231666564941
vt 0.40819600224494934 0.24241501092910767
vt 0.669268012046814 0.47814202308654785
vt 0.39536699652671814 0.0019360184669494629
vt 0.99895000457763672 0.42007297277450562
vt 0.25668299198150635 0.0020930171012878418
vt 0.15172599256038666 0.0023239850997924805
vt 0.14651499688625336 0.008134007453918457
vt 0.1462009996175766 0.0023339986801147461
vt 0.14003400504589081 0.0023300051689147949
vt 0.0014769999543204904 0.0025799870491027832
vt 0.0014890000456944108 0.016067028045654297
vt 0.0015500000445172191 0.11539101600646973
vt 0.15979599952697754 0.25499600172042847
vt 0.42073100805282593 0.4908519983291626
vt 0.0025470000691711903 0.263047993183136
vt 0.172325000166893 0.50344601273536682
vt 0.0023469999432563782 0.34996598958969116
vt 0.91766101121902466 0.46547800302505493
vt 0.99886798858642578 0.46129399538040161
vt 0.99854499101638794 0.53842300176620483
vt 0.9978950023651123 0.65707299113273621
vt 0.99845397472381592 0.585893988609314
vt 0.9239879846572876 0.58967098593711853
vt 0.99829602241516113 0.71049100160598755
vt 0.93053001165390015 0.71417200565338135
vt 0.68193399906158447 0.72652599215507507
vt 0.936610996723175 0.83839899301528931
vt 0.43320399522781372 0.7392829954624176
vt 0.695376992225647 0.97515800036489964
vt 0.18480800092220306 0.75177699327468872
vt 0.998412013053894 0.77502700686454773
vt 0.99783098697662354 0.83540600538253784
vt 0.99761897325515747 0.89370600134134293
vt 0.99843800067901611 0.9590190015733242
vt 0.94377201795578 0.96219399943947792
vt 0.94562602043151855 0.99861400004010648
vt 0.74849998950958252 0.9983609999762848
vt 0.69657599925994873 0.99831199995242059
vt 0.446711003780365 0.98799999989569187
vt 0.45793300867080688 0.99810600001364946
vt 0.97187298536300659 0.99847800005227327
vt 0.99851399660110474 0.99834699998609722
vt 0.44725498557090759 0.998105000006035
vt 0.25461700558662415 0.99799799988977611
vt 0.20000700652599335 0.99725200003013015
vt 0.0019580000080168247 0.5120759904384613
vt 0.0017709999810904264 0.58650198578834534
vt 0.0014700000174343586 0.761246994137764
vt 0.19717900454998016 0.99724499997682869
vt 0.0012710000155493617 0.82297299802303314
vt 0.19403600692749023 0.99723899993114173
vt 0.00085599999874830246 0.99678299995139241
vn 0.083746001124382019 0.99648100137710571 -0.0034660000819712877
vn 0.070256002247333527 0.997406005859375 -0.015674000605940819
vn 0.070830002427101135 0.99737298488616943 -0.015154000371694565
vn 0.01550500001758337 0.99973899126052856 -0.01675100065767765
vn 0.065958000719547272 0.99756300449371338 -0.022768000140786171
vn 0.02055400051176548 0.99970501661300659 -0.01296399999409914
vn 0.066138997673988342 0.997622013092041 -0.019393999129533768
vn -0.032669998705387115 0.99925500154495239 -0.020563000813126564
vn -0.000526999996509403 0.99997502565383911 -0.007009000051766634
vn 0.0070790001191198826 0.999023973941803 -0.043602000921964645
vn 0.032483998686075211 0.99825900793075562 -0.04922100156545639
vn 0.016773000359535217 0.99949502944946289 -0.026998000219464302
vn 0.034706998616456985 0.9973829984664917 -0.063426002860069275
vn 0.0598520003259182 0.99817198514938354 0.0084539996460080147
vn 0.0288929995149374 0.99947899580001831 0.014364000409841538
vn 0.019277999177575111 0.9997900128364563 0.00698099983856082
vn 0.058883000165224075 0.99784499406814575 -0.028944000601768494
vn 0.016116000711917877 0.999800980091095 0.011799000203609467
vn 0.0049129999242722988 0.99987602233886719 0.014986000023782253
vn 0.019494000822305679 0.99966901540756226 0.016787000000476837
vn 0.0021180000621825457 0.99667799472808838 -0.081414997577667236
vn 0.0200009997934103 0.999422013759613 0.027473999187350273
vn 0.019720999523997307 0.99950498342514038 0.024506999179720879
vn 0.0074029997922480106 0.99893099069595337 -0.045628998428583145
vn 0.024511000141501427 0.99890202283859253 -0.039935998618602753
vn 0.0001049999991664663 0.99379998445510864 -0.11118099838495255
vn -0.006417000200599432 0.99311399459838867 -0.11697299778461456
vn -0.0077869999222457409 0.99311298131942749 -0.1168999969959259
vn 0.032747998833656311 0.99629098176956177 -0.079567998647689819
vn 0.030407000333070755 0.999538004398346 -0.00035700001171790063
vn 0.021400999277830124 0.999547004699707 0.021172000095248222
vn 0.085951000452041626 0.99591100215911865 0.027814999222755432
vn 0.022366000339388847 0.99953901767730713 0.020519999787211418
vn 0.028944000601768494 0.99908697605133057 0.031429998576641083
vn -0.0016680000117048621 0.999288022518158 -0.037700999528169632
vn -0.015216000378131867 0.99603497982025146 -0.087647996842861176
vn -0.0026080000679939985 0.9977869987487793 -0.066443003714084625
vn -0.07649499922990799 0.99655997753143311 -0.031876999884843826
vn -0.045207001268863678 0.9973989725112915 -0.056131001561880112
vn -0.028996000066399574 0.99944901466369629 -0.016141999512910843
vn -0.028875000774860382 0.99923700094223022 -0.026291999965906143
vn -0.022282000631093979 0.99972802400588989 0.0068350001238286495
vn -0.016410000622272491 0.99938398599624634 0.031034000217914581
vn 0.0052899997681379318 0.99995201826095581 -0.0082270000129938126
vn -0.0068290000781416893 0.99948501586914062 0.031362999230623245
vn -0.023365000262856483 0.99935102462768555 0.027418000623583794
vn -0.004253000020980835 0.99998801946640015 0.0022780001163482666
vn 0.020089000463485718 0.99955201148986816 -0.022161999717354774
vn 0.020378999412059784 0.99959802627563477 -0.019728999584913254
vn 0.0023749999236315489 0.99943298101425171 -0.033599000424146652
vn -0.04347899928689003 0.998386025428772 -0.036524999886751175
vn -0.044394001364707947 0.9986799955368042 -0.025846000760793686
vn -0.085969999432563782 0.99601101875305176 -0.023905999958515167
vn -0.073849000036716461 0.99723798036575317 -0.0079210000112652779
vn 0.003751999931409955 0.99937397241592407 0.035186998546123505
vn -0.037390999495983124 0.99855202436447144 0.038671001791954041
vn -0.0057450002059340477 0.9993249773979187 0.036276999861001968
vn -0.086484000086784363 0.99566799402236938 -0.034141000360250473
vn -0.086483001708984375 0.99566799402236938 -0.034141000360250473
vn -0.037838999181985855 0.999023973941803 0.022780999541282654
vn -0.047717001289129257 0.99803400039672852 0.040631998330354691
vn -0.023195000365376472 0.99964398145675659 0.013156999833881855
vn 0.023514999076724052 0.99917501211166382 0.033124998211860657
vn 0.0042039998807013035 0.99975097179412842 0.021906999871134758
vn -0.022754000499844551 0.99968802928924561 -0.010343000292778015
vn -0.014538000337779522 0.999888002872467 -0.0035780000034719706
vn -0.012908999808132649 0.99987697601318359 -0.0089530004188418388
vn -0.013162000104784966 0.999871015548706 -0.009180000051856041
vn -0.0073930001817643642 0.99996501207351685 -0.0039889998733997345
f 1/1/1 2/2/2 3/3/3
f 4/4/4 5/5/5 6/6/6
f 4/4/4 7/7/7 5/5/5
f 7/7/7 3/3/3 2/2/2
f 7/7/7 4/4/4 3/3/3
f 8/8/8 9/9/9 10/10/10
f 11/11/11 12/12/12 13/13/13
f 14/14/14 15/15/15 16/16/16
f 17/17/17 6/6/6 5/5/5
f 17/17/17 16/16/16 6/6/6
f 17/17/17 14/14/14 16/16/16
f 12/12/12 9/9/9 16/16/16
f 10/10/10 12/12/12 11/11/11
f 10/10/10 9/9/9 12/12/12
f 16/16/16 18/18/18 19/19/19
f 16/16/16 9/9/9 6/6/6
f 8/8/8 6/6/6 9/9/9
f 8/8/8 4/4/4 6/6/6
f 16/16/16 20/20/20 18/18/18
f 16/16/16 15/15/15 20/20/20
f 21/21/21 13/13/13 12/12/12
f 22/22/22 23/23/23 24/24/24
f 25/25/25 26/26/26 24/24/24
f 27/27/27 24/24/24 26/26/26
f 27/27/27 28/28/28 24/24/24
f 24/24/24 29/29/29 30/30/30
f 24/24/24 28/28/28 29/29/29
f 30/30/30 18/18/18 24/24/24
f 30/30/30 31/31/31 18/18/18
f 32/32/32 33/33/33 30/30/30
f 32/32/32 34/34/34 33/33/33
f 32/32/32 30/30/30 29/29/29
f 23/23/23 25/25/25 24/24/24
f 22/22/22 18/18/18 20/20/20
f 22/22/22 24/24/24 18/18/18
f 19/19/19 12/12/12 16/16/16
f 35/35/35 21/21/21 12/12/12
f 35/35/35 36/36/36 21/21/21
f 36/36/36 35/35/35 37/37/37
f 38/38/38 39/39/39 40/40/40
f 41/41/41 40/40/40 42/42/42
f 41/41/41 38/38/38 40/40/40
f 40/40/40 37/37/37 35/35/35
f 40/40/40 39/39/39 37/37/37
f 40/40/40 35/35/35 19/19/19
f 31/31/31 19/19/19 18/18/18
f 19/19/19 31/31/31 43/43/43
f 19/19/19 43/43/43 40/40/40
f 42/42/42 43/43/43 44/44/44
f 43/43/43 45/45/45 46/46/46
f 45/45/45 43/43/43 31/31/31
f 42/42/42 40/40/40 43/43/43
f 45/45/45 31/31/31 47/47/47
f 48/48/48 41/41/41 42/42/42
f 19/19/19 35/35/35 12/12/12
f 44/44/44 48/48/48 42/42/42
f 44/44/44 49/49/49 48/48/48
f 49/49/49 44/44/44 50/50/50
f 51/51/51 44/44/44 52/52/52
f 51/51/51 50/50/50 44/44/44
f 46/46/46 52/52/52 44/44/44
f 53/53/53 46/46/46 54/54/54
f 53/53/53 52/52/52 46/46/46
f 55/55/55 56/56/56 57/57/57
f 55/55/55 46/46/46 56/56/56
f 45/45/45 56/56/56 46/46/46
f 55/55/55 54/54/54 46/46/46
f 58/58/58 52/52/52 53/53/53
f 58/58/58 51/51/51 52/52/52
f 58/58/58 59/59/59 51/51/51
f 57/57/57 56/56/56 60/60/60
f 43/43/43 46/46/46 44/44/44
f 61/61/61 45/45/45 62/62/62
f 61/61/61 56/56/56 45/45/45
f 63/63/63 33/33/33 34/34/34
f 33/33/33 64/64/64 47/47/47
f 33/33/33 63/63/63 64/64/64
f 64/64/64 65/65/65 47/47/47
f 66/66/66 67/67/67 68/68/68
f 66/66/66 47/47/47 67/67/67
f 47/47/47 65/65/65 67/67/67
f 47/47/47 31/31/31 33/33/33
f 69/69/69 68/68/68 67/67/67
f 62/62/62 47/47/47 66/66/66
f 62/62/62 45/45/45 47/47/47
f 61/61/61 60/60/60 56/56/56
f 33/33/33 31/31/31 30/30/30
