mtllib m0201.mtl
usemtl material0
v -1751.4520263671875 7.9720578193664551 768
v -1781.520263671875 7.3213839530944824 768
v -1749.9566650390625 7.1057949066162109 796.39898681640625
v -1687.4525146484375 8.2530078887939453 768
v -1713.9468994140625 8.2193822860717773 768
v -1686.1341552734375 7.6306910514831543 793.0272216796875
v -1792 7.3131999969482422 768
v -1792 7.2271738052368164 778.16925048828125
v -1792 7.0541791915893555 798.6192626953125
v -1746.5841064453125 7.8763909339904785 860.21649169921875
v -1792 7.3025879859924316 819.36029052734375
v -1663.6160889863968 8.2644453048706055 768
v -1682.7652587890625 7.5399699211120605 856.84747314453125
v -1792 6.9110569953918457 862.6175537109375
v -1792 7.1352419853210449 880.15014553070068
v -1743.2109375 8.7663860321044922 924.03363037109375
v -1792 8.0779380798339844 926.61199951171875
v -1679.400634765625 6.5144658088684082 920.670654296875
v -1792 7.7218470573425293 940.93463134765625
v -1739.8485107421875 7.22259521484375 987.8583984375
v -1622.3131103515625 7.7793869972229 789.6566162109375
v -1559.45654296875 8.15212631225586 768
v -1578.8106689453125 8.70888614654541 768
v -1558.4898681640625 8.4385890960693359 786.28436279296875
v -1555.134033203125 5.4397101402282715 850.11395263671875
v -1623.4539794921875 8.3062953948974609 768
v -1536 7.3018779754638672 777.57666015625
v -1536 7.4370770454406738 785.09979248046875
v -1536 7.12977409362793 768
v -1536 6.8118381500244141 806.53009033203125
v -1618.9481201171875 6.8244218826293945 853.4796142578125
v -1551.76708984375 4.9239640235900879 913.93548583984375
v -1536 4.8821258544921875 849.10516357421875
v -1536 5.3951220512390137 867.3289794921875
v -1615.5826416015625 6.000575065612793 917.30218505859375
v -1612.2222900390625 3.9948770999908447 981.12841796875
v -1536 5.0126981735229492 913.1026611328125
v -1536 4.3528971672058105 928.1251220703125
v -1548.412841796875 1.5725829601287842 977.76593017578125
v -1676.0306396484375 6.6757278442382812 984.49005126953125
v -1792 6.1699419021606445 990.61541748046875
v -1772.365234375 7.2179551124572754 1024
v -1792 6.4129438400268555 1003.4507446289063
v -1792 6.8019862174987793 1024
v -1737.9437255859375 6.5169239044189453 1024
v -1711.5784912109375 6.2645268440246582 1024
v -1650.7918701171875 5.3060917854309082 1024
v -1673.9466552734375 6.288154125213623 1024
v -1609.9603271484375 3.7058479785919189 1024
v -1590.007568359375 2.9434440135955811 1024
v -1545.975341796875 0.8689810037612915 1024
v -1536 1.7511680126190186 977.1099853515625
v -1536 1.26425302028656 1007.6713256835938
v -1536 1.0040980577468872 1024
vt 0.15455000102519989 0.03047102689743042
vt 0.041551999747753143 0.034466981887817383
vt 0.16387200355529785 0.13702797889709473
vt 0.39501398801803589 0.022092998027801514
vt 0.29546800255775452 0.025552988052368164
vt 0.40323400497436523 0.11598402261734009
vt 0.0021770000457763672 0.035844027996063232
vt 0.0035129999741911888 0.074052989482879639
vt 0.0061980001628398895 0.1508910059928894
vt 0.184920996427536 0.37637901306152344
vt 0.008921000175178051 0.22882497310638428
vt 0.48455899953842163 0.018970012664794922
vt 0.42426300048828125 0.35532897710800171
vt 0.014562999829649925 0.39136099815368652
vt 0.016855999827384949 0.45719200372695923
vt 0.20597100257873535 0.61573499441146851
vt 0.022975999861955643 0.63179498910903931
vt 0.4452970027923584 0.59471601247787476
vt 0.024829000234603882 0.68562600016593933
vt 0.22711299359798431 0.85515700280666351
vt 0.6425819993019104 0.0949469804763794
vt 0.87594598531723022 0.0052739977836608887
vt 0.803197979927063 0.0078169703483581543
vt 0.88194698095321655 0.073857009410858154
vt 0.90299797058105469 0.31337100267410278
vt 0.63545697927474976 0.013704001903533936
vt 0.96539902687072754 0.038155972957611084
vt 0.96631300449371338 0.066470026969909668
vt 0.96416002511978149 0.0021679997444152832
vt 0.96916002035140991 0.14702200889587402
vt 0.66361397504806519 0.33432900905609131
vt 0.92400002479553223 0.55273100733757019
vt 0.97479397058486938 0.30714797973632812
vt 0.97714298963546753 0.37554699182510376
vt 0.6846429705619812 0.57370200753211975
vt 0.7056959867477417 0.81318500638008118
vt 0.983132004737854 0.54753598570823669
vt 0.985090970993042 0.60403400659561157
vt 0.945173978805542 0.79242999851703644
vt 0.46645098924636841 0.83404800295829773
vt 0.031364999711513519 0.87237800657749176
vt 0.10958900302648544 0.99525299994274974
vt 0.033070001751184464 0.92061100155115128
vt 0.035799998790025711 0.99783200002275407
vt 0.2390809953212738 0.99071899987757206
vt 0.338144987821579 0.98722700029611588
vt 0.56652098894119263 0.97923500090837479
vt 0.47953400015830994 0.98222300037741661
vt 0.72004997730255127 0.97381000034511089
vt 0.79470902681350708 0.97144199907779694
vt 0.96033698320388794 0.96583599969744682
vt 0.99172401428222656 0.78826899826526642
vt 0.9958760142326355 0.9031049981713295
vt 0.99782299995422363 0.9645950011909008
vn -0.01435799989849329 0.999409019947052 0.031240999698638916
vn -0.005644999910145998 0.999888002872467 0.013864000327885151
vn -0.00535399978980422 0.99994999170303345 0.008418000303208828
vn -0.00088700000196695328 0.999688982963562 0.024904999881982803
vn -0.005348999984562397 0.99955201148986816 0.0294560007750988
vn -0.0037670000456273556 0.99989497661590576 0.013976999558508396
vn -0.00078100000973790884 0.99996399879455566 0.0084589999169111252
vn -0.00078100000973790884 0.99996399879455566 0.0084589999169111252
vn -0.0013389999512583017 0.99999701976776123 -0.0021019999403506517
vn -0.0060259997844696045 0.99993002414703369 -0.010188000276684761
vn -0.0069070002064108849 0.99995601177215576 -0.0063660000450909138
vn -0.00089199998183175921 0.99969899654388428 0.0245130006223917
vn 0.00885200034826994 0.99995100498199463 0.0045309998095035553
vn -0.021368000656366348 0.99976897239685059 -0.002234000014141202
vn -0.020124999806284904 0.99968802928924561 -0.014783999882638454
vn 0.0028399999719113111 0.99998599290847778 0.0044880001805722713
vn -0.013948000036180019 0.99989801645278931 0.0030439998954534531
vn 0.02678300067782402 0.99959897994995117 0.0092029999941587448
vn -0.014321000315248966 0.99954497814178467 0.026551000773906708
vn 0.00082800001837313175 0.9998440146446228 0.017622999846935272
vn 0.00052499998128041625 0.9997590184211731 0.021922999992966652
vn 0.035898998379707336 0.99920099973678589 -0.017552999779582024
vn -0.00020500000391621143 0.99988698959350586 0.015010000206530094
vn 0.021091999486088753 0.99962300062179565 0.017602000385522842
vn 0.018028000369668007 0.99967098236083984 0.018219999969005585
vn -0.0048949997872114182 0.99968600273132324 0.024579999968409538
vn 0.043536998331546783 0.99889099597930908 -0.017951000481843948
vn 0.044739998877048492 0.99898701906204224 0.0048079998232424259
vn 0.043536998331546783 0.99889099597930908 -0.017951000481843948
vn 0.035353001207113266 0.99853497743606567 0.040961001068353653
vn 0.016132999211549759 0.99978697299957275 0.012873999774456024
vn 0.0066809998825192451 0.99954497814178467 0.029426999390125275
vn 0.029642999172210693 0.99951297044754028 0.0097949998453259468
vn 0.0035739999730139971 0.99999302625656128 -0.0013830000534653664
vn 0.016349000856280327 0.9995800256729126 0.023925000801682472
vn 0.036035001277923584 0.99926197528839111 0.013313000090420246
vn -0.0042779999785125256 0.9996650218963623 0.025521999225020409
vn -0.0093609998002648354 0.99867498874664307 0.050593998283147812
vn 0.011764000169932842 0.99949502944946289 0.029513999819755554
vn 0.027753999456763268 0.99959200620651245 0.00672899978235364
vn -0.019899999722838402 0.99978798627853394 0.0053030000999569893
vn -0.010095999576151371 0.999908983707428 -0.0089549999684095383
vn -0.021176999434828758 0.99959701299667358 -0.01892399974167347
vn -0.021176999434828758 0.99959701299667358 -0.01892399974167347
vn 0.014782999642193317 0.99971497058868408 0.018740000203251839
vn 0.0068500000052154064 0.99983900785446167 0.016568999737501144
vn 0.041517000645399094 0.999114990234375 0.006792999804019928
vn 0.021601999178528786 0.9997289776802063 0.0086679998785257339
vn 0.038655001670122147 0.99924200773239136 0.00469700014218688
vn 0.040550000965595245 0.99915397167205811 0.00685499981045723
vn 0.015744000673294067 0.99977302551269531 0.014384999871253967
vn -0.012520999647676945 0.999305009841919 0.035115998238325119
vn -0.013542000204324722 0.99978101253509521 0.015929000452160835
vn -0.013542000204324722 0.99978101253509521 0.015929000452160835
f 1/1/1 2/2/2 3/3/3
f 4/4/4 5/5/5 6/6/6
f 7/7/7 3/3/3 2/2/2
f 7/7/7 8/8/8 3/3/3
f 8/8/8 9/9/9 3/3/3
f 1/1/1 6/6/6 5/5/5
f 1/1/1 3/3/3 6/6/6
f 9/9/9 10/10/10 3/3/3
f 9/9/9 11/11/11 10/10/10
f 12/12/12 4/4/4 6/6/6
f 3/3/3 13/13/13 6/6/6
f 14/14/14 10/10/10 11/11/11
f 10/10/10 15/15/15 16/16/16
f 10/10/10 14/14/14 15/15/15
f 17/17/17 16/16/16 15/15/15
f 13/13/13 16/16/16 18/18/18
f 16/16/16 19/19/19 20/20/20
f 16/16/16 17/17/17 19/19/19
f 13/13/13 10/10/10 16/16/16
f 3/3/3 10/10/10 13/13/13
f 21/21/21 6/6/6 13/13/13
f 22/22/22 23/23/23 24/24/24
f 24/24/24 21/21/21 25/25/25
f 26/26/26 24/24/24 23/23/23
f 26/26/26 21/21/21 24/24/24
f 27/27/27 24/24/24 28/28/28
f 27/27/27 22/22/22 24/24/24
f 27/27/27 29/29/29 22/22/22
f 28/28/28 24/24/24 30/30/30
f 13/13/13 31/31/31 21/21/21
f 25/25/25 31/31/31 32/32/32
f 31/31/31 25/25/25 21/21/21
f 30/30/30 25/25/25 33/33/33
f 30/30/30 24/24/24 25/25/25
f 33/33/33 25/25/25 34/34/34
f 35/35/35 18/18/18 36/36/36
f 18/18/18 35/35/35 31/31/31
f 37/37/37 32/32/32 38/38/38
f 32/32/32 34/34/34 25/25/25
f 32/32/32 37/37/37 34/34/34
f 31/31/31 35/35/35 32/32/32
f 32/32/32 35/35/35 39/39/39
f 13/13/13 18/18/18 31/31/31
f 12/12/12 21/21/21 26/26/26
f 12/12/12 6/6/6 21/21/21
f 18/18/18 16/16/16 40/40/40
f 41/41/41 42/42/42 20/20/20
f 41/41/41 43/43/43 42/42/42
f 43/43/43 44/44/44 42/42/42
f 42/42/42 45/45/45 20/20/20
f 20/20/20 46/46/46 40/40/40
f 20/20/20 45/45/45 46/46/46
f 41/41/41 20/20/20 19/19/19
f 40/40/40 47/47/47 36/36/36
f 40/40/40 48/48/48 47/47/47
f 47/47/47 49/49/49 36/36/36
f 36/36/36 50/50/50 39/39/39
f 36/36/36 49/49/49 50/50/50
f 36/36/36 18/18/18 40/40/40
f 51/51/51 39/39/39 50/50/50
f 52/52/52 39/39/39 53/53/53
f 53/53/53 51/51/51 54/54/54
f 53/53/53 39/39/39 51/51/51
f 52/52/52 32/32/32 39/39/39
f 52/52/52 38/38/38 32/32/32
f 39/39/39 35/35/35 36/36/36
f 46/46/46 48/48/48 40/40/40
f 40/40/40 16/16/16 20/20/20
