mtllib m0202.mtl
usemtl material0
v -2048 11.289484024047852 512
v -2018.69140625 12.500177383422852 554.58197021484375
v -2020.9453125 11.186300277709961 512
v -2048 12.214288711547852 541.777587890625
v -1998.4696044921875 10.633990287780762 512
v -1954.8782958984375 10.823866844177246 551.21734619140625
v -1956.9500732421875 10.511651992797852 512
v -1863.3394775390625 10.341178894042969 512
v -1827.2391357421875 10.472472190856934 544.47821044921875
v -1828.96044921875 9.0122776031494141 512
v -1792 9.7714767456054688 512
v -1795.778564453125 9.6932497024536133 512
v -1792 9.9198627471923828 515.3978271484375
v -1930.9049072265625 10.437797546386719 512
v -1891.058837890625 10.615569114685059 547.847900390625
v -1892.952392578125 10.39792537689209 512
v -2048 11.920234680175781 571.26409912109375
v -2015.3299560546875 10.708245277404785 618.40789794921875
v -2048 10.538694381713867 620.13360595703125
v -1951.5086669921875 10.911301612854004 615.037109375
v -1887.686279296875 11.391469955444336 611.6654052734375
v -1823.8665771484375 11.229819297790527 608.2957763671875
v -2011.96240234375 10.297411918640137 682.22918701171875
v -1948.1453857421875 9.537592887878418 678.861572265625
v -1884.3240966796875 9.7829017639160156 675.49066162109375
v -1820.501953125 10.192530632019043 672.11920166015625
v -1944.7791748046875 8.84430980682373 742.68377685546875
v -1880.95751953125 9.1755552291870117 739.31256103515625
v -2048 10.228501319885254 666.48358154296875
v -2048 10.635463714599609 702.74053955078125
v -1817.1441650390625 7.5647058486938477 735.94769287109375
v -1792 10.488312721252441 640.44036900997162
v -1792 11.025131225585938 606.6136474609375
v -1792 11.443035125732422 572.8770751953125
v -1792 11.113940238952637 542.61541748046875
v -1792 10.486348152160645 670.61322021484375
v -1792 9.7089786529541016 697.765625
v -1792 10.49078369140625 528.41131591796875
v -2008.5946044921875 9.9630107879638672 746.05029296875
v -2048 10.426386833190918 748.1297607421875
v -2048 10.373598098754883 768
v -2007.4361572265625 9.8909130096435547 768
v -2048 10.38637638092041 763.19024658203125
v -1879.4468994140625 8.3147573471069336 768
v -1916.6456298828125 8.1810207366943359 768
v -1792 7.7206230163574219 748.2159423828125
v -1792 7.3929638862609863 758.5709228515625
v -1792 8.1508951187133789 734.6181640625
v -1815.453369140625 7.294884204864502 768
v -1849.0797119140625 8.1562519073486328 768
v -1967.5557861328125 9.1868486404418945 768
v -1943.44287109375 8.79427433013916 768
v -1792 7.3131999969482422 768
vt 0.00215999991632998 0.035811007022857666
vt 0.1178010031580925 0.19209200143814087
vt 0.10382100194692612 0.032299995422363281
vt 0.0060129999183118343 0.14775800704956055
vt 0.1882999986410141 0.029326021671295166
vt 0.35721799731254578 0.17100000381469727
vt 0.34431400895118713 0.0239030122756958
vt 0.69599997997283936 0.011525988578796387
vt 0.83593499660491943 0.12878197431564331
vt 0.82526201009750366 0.0068399906158447266
vt 0.96406000852584839 0.001999974250793457
vt 0.94985902309417725 0.0024899840354919434
vt 0.96451300382614136 0.014779984951019287
vt 0.44218099117279053 0.020501017570495605
vt 0.59657597541809082 0.14989000558853149
vt 0.58472800254821777 0.0154380202293396
vt 0.00980400014668703 0.25856399536132812
vt 0.13895699381828308 0.43156200647354126
vt 0.016317000612616539 0.44226402044296265
vt 0.37831398844718933 0.41035902500152588
vt 0.61769002676010132 0.38925701379776
vt 0.857047975063324 0.36814898252487183
vt 0.16014300286769867 0.67092400789260864
vt 0.39934799075126648 0.6497960090637207
vt 0.638716995716095 0.62871798872947693
vt 0.87809097766876221 0.60762399435043335
vt 0.42067199945449829 0.88915800303220749
vt 0.65977102518081665 0.86810000240802765
vt 0.0226259995251894 0.616580992937088
vt 0.02747499942779541 0.752823993563652
vt 0.899088978767395 0.84722700715065
vt 0.98102599382400513 0.48483902215957642
vt 0.9765700101852417 0.35764098167419434
vt 0.97212600708007812 0.23086398839950562
vt 0.96812498569488525 0.1171489953994751
vt 0.98499602079391479 0.5982150137424469
vt 0.98857599496841431 0.70024400949478149
vt 0.96624600887298584 0.063724994659423828
vt 0.1812949925661087 0.91028600186109543
vt 0.033525999635457993 0.92337600141763687
vt 0.036138001829385757 0.9979999999050051
vt 0.18856799602508545 0.99260899983346462
vt 0.035498999059200287 0.97992699965834618
vt 0.66948902606964111 0.97572099976241589
vt 0.5297120213508606 0.980621999129653
vt 0.9952089786529541 0.88996399939060211
vt 0.99658399820327759 0.92888399958610535
vt 0.993412971496582 0.83884400129318237
vt 0.90971499681472778 0.96744199842214584
vt 0.78331798315048218 0.9717829991132021
vt 0.33844199776649475 0.98730999976396561
vt 0.42899298667907715 0.984112000092864
vt 0.99783998727798462 0.96431500092148781
vn 0.00381199992261827 0.9995110034942627 -0.031042000278830528
vn 0.007127000018954277 0.99996697902679443 -0.0038729999214410782
vn 0.013837999664247036 0.99940598011016846 -0.031569000333547592
vn -0.00279999990016222 0.99986898899078369 -0.015915999189019203
vn 0.019516000524163246 0.99945700168609619 -0.026530999690294266
vn 0.010057000443339348 0.999904990196228 -0.00940600037574768
vn 0.0028929999098181725 0.99996298551559448 -0.0081139998510479927
vn 0.010479000397026539 0.99982202053070068 -0.015689000487327576
vn -0.0043520000763237476 0.99971902370452881 -0.023311000317335129
vn 0.010033999569714069 0.99891698360443115 -0.045442000031471252
vn -0.02067900076508522 0.99883401393890381 -0.043620001524686813
vn -0.02054000087082386 0.99883002042770386 -0.043772999197244644
vn -0.02054700069129467 0.99883002042770386 -0.04376700147986412
vn 0.0024190000258386135 0.99996799230575562 -0.0076480000279843807
vn 0.0020550000481307507 0.9999539852142334 -0.009422999806702137
vn 0.0014690000098198652 0.99997997283935547 -0.006149000022560358
vn -0.0071870000101625919 0.9997289776802063 0.02212899923324585
vn -0.0032649999484419823 0.99984300136566162 0.017424000427126884
vn -0.0042849997989833355 0.9998440146446228 0.017114000394940376
vn 0.0013210000470280647 0.99992400407791138 0.012261000461876392
vn -0.0019030000548809767 0.99997502565383911 0.0068490002304315567
vn 0.0016349999932572246 0.9999849796295166 0.0051480000838637352
vn 0.006750000175088644 0.9999619722366333 0.0055700000375509262
vn 0.0046950001269578934 0.99986499547958374 0.015774000436067581
vn -0.00053100002696737647 0.9997820258140564 0.020880000665783882
vn -0.0053820000030100346 0.99963700771331787 0.026381999254226685
vn 0.00927599985152483 0.99991697072982788 0.0088940002024173737
vn 0.00838099978864193 0.99982398748397827 0.016783999279141426
vn -0.0019480000482872129 0.99999797344207764 8.2999998994637281E-05
vn 0.0089809997007250786 0.99995899200439453 -0.00070199999026954174
vn 0.0010199999669566751 0.99972301721572876 0.023528000339865685
vn 0.0031630001030862331 0.99992102384567261 0.012183000333607197
vn 0.0071649998426437378 0.999875009059906 0.014068000018596649
vn -0.012745999731123447 0.99990397691726685 -0.0054489998146891594
vn -0.019666999578475952 0.9994170069694519 -0.02789900079369545
vn -0.0095750000327825546 0.999858021736145 0.013861999846994877
vn -0.017782999202609062 0.99909597635269165 0.038600999861955643
vn -0.020498000085353851 0.99882900714874268 -0.043820001184940338
vn 0.014825999736785889 0.99988400936126709 0.0034789999481290579
vn 0.011947999708354473 0.999921977519989 0.0035979999229311943
vn 0.011899000033736229 0.999925971031189 0.0026569999754428864
vn 0.014871999621391296 0.99988597631454468 0.0024989999365061522
vn 0.011897999793291092 0.999925971031189 0.0026569999754428864
vn 0.0009590000263415277 0.999550998210907 0.029942000284790993
vn 0.0025810000952333212 0.99972498416900635 0.023324999958276749
vn -0.021624000743031502 0.99926602840423584 0.031619999557733536
vn -0.00634300010278821 0.99987298250198364 0.014640999957919121
vn -0.021330000832676888 0.9990839958190918 0.037106998264789581
vn 0.011970999650657177 0.99989801645278931 0.0077860001474618912
vn 0.020851999521255493 0.999705970287323 0.012350000441074371
vn 0.017285000532865524 0.99984902143478394 0.0020230000372976065
vn 0.019689999520778656 0.9998059868812561 0.00093699997523799539
vn -0.00078100000973790884 0.99996399879455566 0.0084589999169111252
f 1/1/1 2/2/2 3/3/3
f 1/1/1 4/4/4 2/2/2
f 5/5/5 6/6/6 7/7/7
f 8/8/8 9/9/9 10/10/10
f 11/11/11 12/12/12 13/13/13
f 14/14/14 15/15/15 16/16/16
f 17/17/17 18/18/18 2/2/2
f 17/17/17 19/19/19 18/18/18
f 14/14/14 6/6/6 15/15/15
f 14/14/14 7/7/7 6/6/6
f 8/8/8 15/15/15 9/9/9
f 8/8/8 16/16/16 15/15/15
f 20/20/20 6/6/6 2/2/2
f 6/6/6 3/3/3 2/2/2
f 6/6/6 5/5/5 3/3/3
f 21/21/21 15/15/15 6/6/6
f 9/9/9 15/15/15 22/22/22
f 4/4/4 17/17/17 2/2/2
f 18/18/18 23/23/23 20/20/20
f 20/20/20 23/23/23 24/24/24
f 20/20/20 21/21/21 6/6/6
f 21/21/21 22/22/22 15/15/15
f 20/20/20 25/25/25 21/21/21
f 2/2/2 18/18/18 20/20/20
f 21/21/21 26/26/26 22/22/22
f 23/23/23 27/27/27 24/24/24
f 24/24/24 25/25/25 20/20/20
f 25/25/25 26/26/26 21/21/21
f 24/24/24 28/28/28 25/25/25
f 29/29/29 30/30/30 23/23/23
f 31/31/31 26/26/26 25/25/25
f 32/32/32 22/22/22 26/26/26
f 32/32/32 33/33/33 22/22/22
f 18/18/18 29/29/29 23/23/23
f 18/18/18 19/19/19 29/29/29
f 34/34/34 9/9/9 22/22/22
f 34/34/34 35/35/35 9/9/9
f 33/33/33 34/34/34 22/22/22
f 36/36/36 26/26/26 37/37/37
f 36/36/36 32/32/32 26/26/26
f 35/35/35 10/10/10 9/9/9
f 35/35/35 38/38/38 10/10/10
f 38/38/38 12/12/12 10/10/10
f 38/38/38 13/13/13 12/12/12
f 30/30/30 39/39/39 23/23/23
f 30/30/30 40/40/40 39/39/39
f 41/41/41 42/42/42 43/43/43
f 43/43/43 39/39/39 40/40/40
f 43/43/43 42/42/42 39/39/39
f 44/44/44 27/27/27 45/45/45
f 44/44/44 28/28/28 27/27/27
f 27/27/27 28/28/28 24/24/24
f 46/46/46 31/31/31 47/47/47
f 46/46/46 48/48/48 31/31/31
f 31/31/31 37/37/37 26/26/26
f 31/31/31 48/48/48 37/37/37
f 25/25/25 28/28/28 31/31/31
f 49/49/49 28/28/28 50/50/50
f 49/49/49 31/31/31 28/28/28
f 51/51/51 52/52/52 27/27/27
f 52/52/52 45/45/45 27/27/27
f 49/49/49 47/47/47 31/31/31
f 49/49/49 53/53/53 47/47/47
f 50/50/50 28/28/28 44/44/44
f 42/42/42 27/27/27 39/39/39
f 42/42/42 51/51/51 27/27/27
f 23/23/23 39/39/39 27/27/27
