mtllib m0212.mtl
usemtl material0
v -1457.955810546875 8.6423501968383789 512
v -1444.32763671875 8.090576171875 524.2652587890625
v -1444.9749755859375 8.12196159362793 512
v -1322.865478515625 3.4922358989715576 512
v -1316.7098388671875 2.9958651065826416 517.541748046875
v -1317.0009765625 3.2939798831939697 512
v -1390.401611328125 7.1630020141601562 512
v -1380.51220703125 6.974708080291748 520.8988037109375
v -1380.9810791015625 7.1750931739807129 512
v -1525.535400390625 6.997708797454834 512
v -1508.1568603515625 6.099329948425293 527.64190673828125
v -1508.977294921875 7.2537121772766113 512
v -1536 6.8902502059936523 529.10980224609375
v -1536 7.20375919342041 516.2833251953125
v -1536 7.30845308303833 512
v -1536 6.8900032043457031 563.3746337890625
v -1504.7880859375 6.003173828125 591.46221923828125
v -1536 6.7223539352416992 593.10821533203125
v -1536 7.1374030113220215 624.16156005859375
v -1501.4154052734375 6.7807998657226562 655.2796630859375
v -1377.1517333984375 5.0343418121337891 584.72515869140625
v -1313.32763671875 5.8664588928222656 581.352294921875
v -1280 4.4996500015258789 514.22991943359375
v -1280 4.4234209060668945 515.598876953125
v -1280 4.623816967010498 512
v -1280 3.7936570644378662 550.56341552734375
v -1440.97216796875 5.0183920860290527 588.0953369140625
v -1373.782958984375 4.9482121467590332 648.54541015625
v -1437.594970703125 6.7989320755004883 651.90948486328125
v -1280 5.1299300193786621 579.5946044921875
v -1309.963623046875 4.7295641899108887 645.17596387863159
v -1280 4.5940608978271484 611.871826171875
v -1536 6.8933620452880859 657.1055908203125
v -1498.050537109375 5.8033418655395508 719.102783203125
v -1536 6.4727931022644043 684.95513916015625
v -1370.41455078125 4.7661519050598145 712.36590576171875
v -1306.59619140625 4.3468241691589355 708.9971923828125
v -1434.234130859375 4.9342799186706543 715.7354736328125
v -1280 5.0740389823913574 643.59265089035034
v -1280 3.3683230876922607 672.14398193359375
v -1431.4810791015625 3.618696928024292 768
v -1443.7177734375 3.801084041595459 768
v -1367.4849853515625 3.1623280048370361 768
v -1376.1566162109375 3.1982719898223877 768
v -1536 6.7759251594543457 721.1038818359375
v -1495.4698486328125 5.6453490257263184 768
v -1536 6.7297701835632324 745.74200439453125
v -1511.265869140625 6.05173397064209 768
v -1536 6.740142822265625 740.2047119140625
v -1536 7.12977409362793 768
v -1359.6832275390625 3.0993680953979492 768
v -1280 2.8248469829559326 732.3856201171875
v -1280 2.8157451152801514 732.93670654296875
v -1280 3.2343320846557617 707.5960693359375
v -1280 1.5964610576629639 768
v -1303.4913330078125 2.2135159969329834 768
vt 0.29470700025558472 0.025144994258880615
vt 0.34755000472068787 0.069468021392822266
vt 0.3435249924659729 0.023460984230041504
vt 0.80287402868270874 0.0078780055046081543
vt 0.82677102088928223 0.027935981750488281
vt 0.82492399215698242 0.0071210265159606934
vt 0.54863297939300537 0.016381978988647461
vt 0.58695697784423828 0.04853898286819458
vt 0.5840340256690979 0.0151519775390625
vt 0.04069799929857254 0.034497976303100586
vt 0.1080700010061264 0.091077983379364014
vt 0.10292399674654007 0.032248020172119141
vt 0.0035840000491589308 0.10014700889587402
vt 0.0019140000222250819 0.051932990550994873
vt 0.0013559999642893672 0.035831987857818604
vt 0.0083889998495578766 0.22922497987747192
vt 0.12962800264358521 0.33041101694107056
vt 0.012548999860882759 0.34094899892807007
vt 0.016844000667333603 0.45764201879501343
vt 0.15086300671100617 0.56977999210357666
vt 0.60799801349639893 0.28804999589920044
vt 0.84745901823043823 0.26755398511886597
vt 0.96434098482131958 0.010221004486083984
vt 0.96458601951599121 0.016032993793487549
vt 0.96403902769088745 0.0018290281295776367
vt 0.968874990940094 0.14745199680328369
vt 0.3686240017414093 0.30915600061416626
vt 0.62909799814224243 0.52742400765419006
vt 0.39022600650787354 0.54855701327323914
vt 0.97250401973724365 0.25666600465774536
vt 0.86849898099899292 0.50666698813438416
vt 0.97681498527526855 0.37766098976135254
vt 0.021299000829458237 0.58143699169158936
vt 0.17204500734806061 0.8091839998960495
vt 0.025012999773025513 0.68609800934791565
vt 0.65087300539016724 0.76673899590969086
vt 0.89018398523330688 0.7449679970741272
vt 0.4114220142364502 0.78804400563240051
vt 0.9809030294418335 0.49687600135803223
vt 0.98494100570678711 0.60271099209785461
vt 0.42878800630569458 0.98412900045514107
vt 0.38280099630355835 0.98575500026345253
vt 0.6693350076675415 0.9754869993776083
vt 0.63675099611282349 0.97666000016033649
vt 0.029834000393748283 0.821939006447792
vt 0.1882070004940033 0.99258599989116192
vt 0.03321399912238121 0.91451700031757355
vt 0.12915900349617004 0.99485799996182322
vt 0.032478999346494675 0.89371000230312347
vt 0.036127999424934387 0.99817100004293025
vt 0.69918698072433472 0.9743259996175766
vt 0.99359399080276489 0.82907100021839142
vt 0.99359697103500366 0.83123399317264557
vt 0.99000298976898193 0.73591798543930054
vt 0.99864399433135986 0.96305700019001961
vt 0.91034698486328125 0.96635600179433823
vn -0.011463999748229981 0.99827098846435547 0.057647000998258591
vn 0.0070259999483823776 0.999642014503479 0.025821000337600708
vn 0.029193000867962837 0.9995729923248291 0.0010169999441131949
vn 0.05636800080537796 0.9980509877204895 0.02678300067782402
vn 0.0069220000877976418 0.9998289942741394 0.01713700033724308
vn 9.7999996796716E-05 0.99855601787567139 0.053711999207735062
vn 0.013172999955713749 0.999891996383667 0.0065179998055100441
vn 0.038520000874996185 0.99901801347732544 0.021906999871134758
vn 0.029896000400185585 0.99933397769927979 0.020927999168634415
vn 0.019144000485539436 0.99916398525238037 0.036116998642683029
vn -0.0056520001962780952 0.99947500228881836 0.031895000487565994
vn -0.021084999665617943 0.99698400497436523 0.074684001505374908
vn 0.029015000909566879 0.99950897693634033 0.01181000005453825
vn 0.029673000797629356 0.99926102161407471 0.024423999711871147
vn 0.029673000797629356 0.99926102161407471 0.024423999711871147
vn 0.027045000344514847 0.99963301420211792 0.0015089999651536346
vn 0.01203600037842989 0.99992698431015015 -0.0014400000218302012
vn 0.022815000265836716 0.99973100423812866 -0.0041809999383986
vn 0.017346000298857689 0.99981898069381714 -0.0078210001811385155
vn 0.00598399993032217 0.99996697902679443 0.0054589998908340931
vn 0.0054350001737475395 0.99994999170303345 0.0083779999986290932
vn 0.0057459999807178974 0.99985700845718384 -0.015928000211715698
vn -0.035861998796463013 0.99781101942062378 0.055560998618602753
vn -0.036853000521659851 0.998619019985199 0.037432998418807983
vn -0.035861998796463013 0.99781101942062378 0.055560000240802765
vn 0.0042860000394284725 0.9995729923248291 -0.028914999216794968
vn 0.011939000338315964 0.99984300136566162 0.013123000040650368
vn 0.010906999930739403 0.99994099140167236 0.00032099999953061342
vn 0.01295199990272522 0.99991500377655029 -0.0013559999642893672
vn 0.021260999143123627 0.99965000152587891 -0.01575000025331974
vn 0.0075639998540282249 0.99987399578094482 0.013969000428915024
vn 0.014744999818503857 0.99984902143478394 0.0091979997232556343
vn 0.0038550000172108412 0.99992799758911133 0.011382999829947949
vn 0.019995000213384628 0.999767005443573 0.0081630004569888115
vn 0.0096890004351735115 0.99991399049758911 0.0088349999859929085
vn 0.0088820001110434532 0.99978601932525635 0.018662000074982643
vn 0.023395000025629997 0.99959301948547363 0.016349000856280327
vn 0.0081879999488592148 0.999642014503479 0.025472000241279602
vn -0.010382999666035175 0.99972498416900635 0.02100599929690361
vn 0.02859099954366684 0.9994170069694519 0.018679000437259674
vn 0.011125000193715096 0.99963599443435669 0.024576000869274139
vn 0.019731000065803528 0.999625027179718 0.019008999690413475
vn 0.0061710001900792122 0.99957501888275146 0.028490999713540077
vn 0.00494900019839406 0.9996039867401123 0.027703000232577324
vn 0.025457000359892845 0.99967098236083984 -0.0030829999595880508
vn 0.030833000317215919 0.99952298402786255 0.001601999974809587
vn 0.030477000400424004 0.999530017375946 -0.0034199999645352364
vn 0.029875999316573143 0.9995499849319458 -0.0027509999927133322
vn 0.025717999786138535 0.99966698884963989 0.0018729999428614974
vn 0.043536998331546783 0.99889099597930908 -0.017951000481843948
vn 0.010118000209331513 0.99949198961257935 0.03023499995470047
vn 0.042654998600482941 0.99895399808883667 0.01650100015103817
vn 0.0306209996342659 0.9990839958190918 0.029877999797463417
vn 0.042312998324632645 0.999055027961731 0.0099280001595616341
vn 0.026242999359965324 0.99905198812484741 0.034740999341011047
vn 0.021175999194383621 0.99916297197341919 0.03501100093126297
f 1/1/1 2/2/2 3/3/3
f 4/4/4 5/5/5 6/6/6
f 7/7/7 8/8/8 9/9/9
f 10/10/10 11/11/11 12/12/12
f 10/10/10 13/13/13 11/11/11
f 10/10/10 14/14/14 13/13/13
f 14/14/14 10/10/10 15/15/15
f 11/11/11 16/16/16 17/17/17
f 11/11/11 13/13/13 16/16/16
f 18/18/18 17/17/17 16/16/16
f 17/17/17 19/19/19 20/20/20
f 17/17/17 18/18/18 19/19/19
f 2/2/2 11/11/11 17/17/17
f 8/8/8 2/2/2 21/21/21
f 7/7/7 2/2/2 8/8/8
f 7/7/7 3/3/3 2/2/2
f 5/5/5 21/21/21 22/22/22
f 23/23/23 5/5/5 24/24/24
f 23/23/23 6/6/6 5/5/5
f 23/23/23 25/25/25 6/6/6
f 24/24/24 5/5/5 26/26/26
f 5/5/5 9/9/9 8/8/8
f 5/5/5 4/4/4 9/9/9
f 5/5/5 8/8/8 21/21/21
f 21/21/21 2/2/2 27/27/27
f 21/21/21 27/27/27 28/28/28
f 27/27/27 2/2/2 17/17/17
f 2/2/2 12/12/12 11/11/11
f 2/2/2 1/1/1 12/12/12
f 27/27/27 17/17/17 29/29/29
f 22/22/22 26/26/26 5/5/5
f 22/22/22 30/30/30 26/26/26
f 30/30/30 31/31/31 32/32/32
f 30/30/30 22/22/22 31/31/31
f 21/21/21 28/28/28 22/22/22
f 33/33/33 34/34/34 20/20/20
f 33/33/33 35/35/35 34/34/34
f 19/19/19 33/33/33 20/20/20
f 29/29/29 36/36/36 28/28/28
f 27/27/27 29/29/29 28/28/28
f 28/28/28 31/31/31 22/22/22
f 28/28/28 37/37/37 31/31/31
f 29/29/29 17/17/17 20/20/20
f 20/20/20 38/38/38 29/29/29
f 39/39/39 32/32/32 31/31/31
f 39/39/39 31/31/31 40/40/40
f 41/41/41 34/34/34 42/42/42
f 41/41/41 38/38/38 34/34/34
f 34/34/34 38/38/38 20/20/20
f 38/38/38 36/36/36 29/29/29
f 43/43/43 38/38/38 44/44/44
f 43/43/43 36/36/36 38/38/38
f 35/35/35 45/45/45 34/34/34
f 46/46/46 47/47/47 48/48/48
f 46/46/46 49/49/49 47/47/47
f 49/49/49 34/34/34 45/45/45
f 49/49/49 46/46/46 34/34/34
f 46/46/46 42/42/42 34/34/34
f 41/41/41 44/44/44 38/38/38
f 50/50/50 48/48/48 47/47/47
f 51/51/51 36/36/36 43/43/43
f 51/51/51 37/37/37 36/36/36
f 52/52/52 37/37/37 53/53/53
f 52/52/52 54/54/54 37/37/37
f 37/37/37 40/40/40 31/31/31
f 37/37/37 54/54/54 40/40/40
f 55/55/55 37/37/37 56/56/56
f 55/55/55 53/53/53 37/37/37
f 56/56/56 37/37/37 51/51/51
f 28/28/28 36/36/36 37/37/37
