mtllib m0210.mtl
usemtl material0
v -1431.4810791015625 3.618696928024292 768
v -1443.7177734375 3.801084041595459 768
v -1430.8721923828125 3.3276979923248291 779.56060791015625
v -1367.4849853515625 3.1623280048370361 768
v -1376.1566162109375 3.1982719898223877 768
v -1367.0537109375 2.9261751174926758 776.1917724609375
v -1495.4698486328125 5.6453490257263184 768
v -1511.265869140625 6.05173397064209 768
v -1494.6822509765625 5.5971288681030273 782.92340087890625
v -1427.50048828125 3.8722219467163086 843.37872314453125
v -1363.6805419921875 3.8066320419311523 840.00885009765625
v -1536 7.4370770454406738 785.09979248046875
v -1536 7.3018779754638672 777.57666015625
v -1536 7.12977409362793 768
v -1536 6.8118381500244141 806.53009033203125
v -1491.322021484375 3.5801680088043213 846.749755859375
v -1359.6832275390625 3.0993680953979492 768
v -1280 1.4713059663772583 771.59912109375
v -1303.2374267578125 2.03908109664917 772.82452392578125
v -1280 1.6273339986801148 793.7340087890625
v -1280 1.4913790225982666 771.0218505859375
v -1303.4913330078125 2.2135159969329834 768
v -1280 1.5964610576629639 768
v -1299.8621826171875 3.383397102355957 836.64007568359375
v -1424.13427734375 3.199739933013916 907.2008056640625
v -1536 4.8821258544921875 849.10516357421875
v -1536 5.3951220512390137 867.3289794921875
v -1487.9451904296875 5.2831392288208008 910.56427001953125
v -1536 4.3528971672058105 928.1251220703125
v -1484.5885009765625 2.4908320903778076 974.39300537109375
v -1536 5.0126981735229492 913.1026611328125
v -1420.7952880859375 -3.5011990070343018 971.04180908203125
v -1360.30615234375 4.949552059173584 903.82513380050659
v -1280 2.5943880081176758 835.59356689453125
v -1280 2.1604139804840088 854.518798828125
v -1296.4932861328125 3.3100268840789795 900.46026611328125
v -1293.1270751953125 2.6583139896392822 964.28216552734375
v -1280 2.2598209381103516 899.59240698814392
v -1280 2.0068159103393555 915.30853271484375
v -1356.9578857421875 0.30717599391937256 967.65966796875
v -1536 1.7511680126190186 977.1099853515625
v -1529.222412109375 1.0959010124206543 1024
v -1536 1.26425302028656 1007.6713256835938
v -1536 1.0040980577468872 1024
v -1468.4375 -0.85929298400878906 1024
v -1481.979248046875 0.43850201368331909 1024
v -1417.9776611328125 1.1688330173492432 1024
v -1407.6448970139027 1.831663966178894 1024
v -1289.9835205078125 0.7202950119972229 1024
v -1294.333984375 0.5679439902305603 1024
v -1280 1.7004510164260864 963.591796875
v -1280 1.3969680070877075 975.96148681640625
v -1280 1.393530011177063 976.10162353515625
v -1353.986083984375 -0.23558400571346283 1024
v -1280 0.01676500029861927 1024
vt 0.39483800530433655 0.019752025604248047
vt 0.34865200519561768 0.021336019039154053
vt 0.39864999055862427 0.063314974308013916
vt 0.63636499643325806 0.011418998241424561
vt 0.60363799333572388 0.012551009654998779
vt 0.63906598091125488 0.042290985584259033
vt 0.15321299433708191 0.027988970279693604
vt 0.09357900172472 0.030019998550415039
vt 0.15810699760913849 0.084209978580474854
vt 0.41949298977851868 0.30374997854232788
vt 0.660086989402771 0.28272098302841187
vt 0.0023000000510364771 0.097763001918792725
vt 0.0013510000426322222 0.069365024566650391
vt 0.00014299999747890979 0.033215999603271484
vt 0.0050579998642206192 0.17848300933837891
vt 0.17906799912452698 0.32477498054504395
vt 0.6658099889755249 0.010405004024505615
vt 0.96705001592636108 0.013547003269195557
vt 0.879489004611969 0.0212399959564209
vt 0.96995800733566284 0.097084999084472656
vt 0.96697801351547241 0.011425971984863281
vt 0.87788999080657959 0.0030549764633178711
vt 0.96657699346542358 1.5020370483398438E-05
vt 0.90050297975540161 0.2616959810256958
vt 0.4404970109462738 0.544189989566803
vt 0.01067500002682209 0.33932399749755859
vt 0.013024999760091305 0.40832501649856567
vt 0.19998799264431 0.56526800990104675
vt 0.020910000428557396 0.63787001371383667
vt 0.2209479957818985 0.80595199763774872
vt 0.01895499974489212 0.58108100295066833
vt 0.46240800619125366 0.78592899441719055
vt 0.68110698461532593 0.52316498756408691
vt 0.97538101673126221 0.25510501861572266
vt 0.97794699668884277 0.32656198740005493
vt 0.9215729832649231 0.50211000442504883
vt 0.94269102811813354 0.74253800511360168
vt 0.983830988407135 0.49666899442672729
vt 0.98595201969146729 0.55598598718643188
vt 0.701524019241333 0.76432299613952637
vt 0.027264000847935677 0.82299999892711639
vt 0.058880001306533813 0.99898499995470047
vt 0.031210999935865402 0.9383540004491806
vt 0.033348001539707184 0.99998500000037893
vt 0.28854399919509888 0.99143099971115589
vt 0.23719699680805206 0.99299400020390749
vt 0.48158898949623108 0.98605300020426512
vt 0.52066099643707275 0.98460299987345934
vt 0.962082028388977 0.96764500066637993
vt 0.94565498828887939 0.96825699880719185
vt 0.99227499961853027 0.73822799324989319
vt 0.99396198987960815 0.78492200374603271
vt 0.99397999048233032 0.78545199334621429
vt 0.72323101758956909 0.97540600039064884
vt 0.99985700845718384 0.96646599844098091
vn 0.011370999738574028 0.9996340274810791 0.024562999606132507
vn 0.030784999951720238 0.99950301647186279 0.0067199999466538429
vn 0.017729999497532845 0.99983501434326172 0.0039820000529289246
vn 0.006039000116288662 0.99957597255706787 0.028497999534010887
vn 0.0067909997887909412 0.99964797496795654 0.025658000260591507
vn 0.0081639997661113739 0.99994498491287231 0.006632000207901001
vn 0.030500000342726707 0.99953299760818481 0.0016199999954551458
vn 0.03938400000333786 0.99913501739501953 -0.01332900021225214
vn 0.033084999769926071 0.99941802024841309 0.0082879997789859772
vn 0.0035510000307112932 0.9999769926071167 0.0058309999294579029
vn 0.00031599999056197703 0.99993199110031128 -0.011655000038444996
vn 0.044821999967098236 0.99897497892379761 0.0063769998960196972
vn 0.043536998331546783 0.99889099597930908 -0.017951000481843948
vn 0.043535999953746796 0.99889099597930908 -0.017951000481843948
vn 0.042134001851081848 0.99855297803878784 0.033429000526666641
vn 0.019269000738859177 0.9997820258140564 0.00800700020045042
vn 0.013701999559998512 0.99934601783752441 0.033456001430749893
vn 0.025189999490976334 0.999576985836029 0.014546000398695469
vn 0.021513000130653381 0.99973398447036743 0.0083140004426240921
vn 0.034623000770807266 0.99922400712966919 -0.018800999969244003
vn 0.026241999119520187 0.99905198812484741 0.03474000096321106
vn 0.020819999277591705 0.9991689920425415 0.035029999911785126
vn 0.026241999119520187 0.99905198812484741 0.034740999341011047
vn 0.02891400083899498 0.99953198432922363 -0.0099670002236962318
vn -0.00011100000119768083 0.99896997213363647 0.045380998402833939
vn 0.029515000060200691 0.99953699111938477 0.0073469998314976692
vn 0.01888200081884861 0.99965202808380127 -0.018397999927401543
vn 0.02645999938249588 0.99946802854537964 0.019068999215960503
vn -0.0055069997906684875 0.99891102313995361 0.046319998800754547
vn 0.04594000056385994 0.99822497367858887 0.037893999367952347
vn -0.0042139999568462372 0.9996340274810791 0.026719000190496445
vn -0.0057680001482367516 0.99983698129653931 0.017108999192714691
vn -0.009844999760389328 0.99970000982284546 0.0224239993840456
vn 0.039648000150918961 0.99921298027038574 -0.00085599999874830246
vn 0.057424001395702362 0.99834001064300537 0.004497000016272068
vn 0.046007998287677765 0.99893099069595337 0.0044030002318322659
vn 0.026757000014185905 0.9992709755897522 0.027219999581575394
vn 0.063891999423503876 0.99793499708175659 0.0066289999522268772
vn 0.0707779973745346 0.9974520206451416 0.0089260004460811615
vn -0.027127999812364578 0.99893999099731445 0.037177000194787979
vn -0.012587999925017357 0.99934697151184082 0.033858999609947205
vn -0.00621700007468462 0.99972701072692871 0.02251799963414669
vn -0.013542000204324722 0.99978101253509521 0.015929000452160835
vn -0.013542000204324722 0.99978101253509521 0.015929000452160835
vn 0.059312999248504639 0.99823302030563354 0.0035610001068562269
vn 0.056081000715494156 0.99769002199172974 0.03832700103521347
vn -0.052338998764753342 0.99500900506973267 -0.0849590003490448
vn -0.036538999527692795 0.99753701686859131 -0.05986500158905983
vn 0.019447000697255135 0.99931800365448 0.031406998634338379
vn -0.029962999746203423 0.99913901090621948 0.02868100069463253
vn 0.073556996881961823 0.997177004814148 0.015099000185728073
vn 0.074031002819538116 0.9969559907913208 0.024461999535560608
vn 0.071269996464252472 0.99707698822021484 0.02754100039601326
vn 0.011644000187516213 0.999891996383667 0.0090180002152919769
vn 0.0702660009264946 0.99711602926254272 0.028660999611020088
f 1/1/1 2/2/2 3/3/3
f 4/4/4 5/5/5 6/6/6
f 7/7/7 8/8/8 9/9/9
f 3/3/3 9/9/9 10/10/10
f 7/7/7 3/3/3 2/2/2
f 7/7/7 9/9/9 3/3/3
f 1/1/1 6/6/6 5/5/5
f 1/1/1 3/3/3 6/6/6
f 6/6/6 3/3/3 11/11/11
f 8/8/8 12/12/12 9/9/9
f 8/8/8 13/13/13 12/12/12
f 13/13/13 8/8/8 14/14/14
f 9/9/9 15/15/15 16/16/16
f 9/9/9 12/12/12 15/15/15
f 17/17/17 4/4/4 6/6/6
f 18/18/18 19/19/19 20/20/20
f 21/21/21 19/19/19 18/18/18
f 21/21/21 22/22/22 19/19/19
f 21/21/21 23/23/23 22/22/22
f 19/19/19 17/17/17 6/6/6
f 19/19/19 22/22/22 17/17/17
f 19/19/19 6/6/6 24/24/24
f 10/10/10 16/16/16 25/25/25
f 16/16/16 10/10/10 9/9/9
f 10/10/10 11/11/11 3/3/3
f 11/11/11 10/10/10 25/25/25
f 15/15/15 26/26/26 16/16/16
f 16/16/16 27/27/27 28/28/28
f 16/16/16 26/26/26 27/27/27
f 28/28/28 29/29/29 30/30/30
f 28/28/28 31/31/31 29/29/29
f 31/31/31 28/28/28 27/27/27
f 28/28/28 25/25/25 16/16/16
f 25/25/25 28/28/28 32/32/32
f 33/33/33 11/11/11 25/25/25
f 34/34/34 24/24/24 35/35/35
f 24/24/24 20/20/20 19/19/19
f 24/24/24 34/34/34 20/20/20
f 36/36/36 33/33/33 37/37/37
f 33/33/33 36/36/36 24/24/24
f 36/36/36 35/35/35 24/24/24
f 36/36/36 38/38/38 35/35/35
f 38/38/38 36/36/36 39/39/39
f 33/33/33 24/24/24 11/11/11
f 6/6/6 11/11/11 24/24/24
f 33/33/33 25/25/25 40/40/40
f 41/41/41 42/42/42 30/30/30
f 41/41/41 43/43/43 42/42/42
f 43/43/43 44/44/44 42/42/42
f 45/45/45 30/30/30 46/46/46
f 45/45/45 32/32/32 30/30/30
f 28/28/28 30/30/30 32/32/32
f 47/47/47 32/32/32 45/45/45
f 46/46/46 30/30/30 42/42/42
f 41/41/41 30/30/30 29/29/29
f 48/48/48 32/32/32 47/47/47
f 48/48/48 40/40/40 32/32/32
f 49/49/49 40/40/40 50/50/50
f 49/49/49 37/37/37 40/40/40
f 33/33/33 40/40/40 37/37/37
f 51/51/51 36/36/36 37/37/37
f 51/51/51 39/39/39 36/36/36
f 52/52/52 37/37/37 53/53/53
f 52/52/52 51/51/51 37/37/37
f 54/54/54 50/50/50 40/40/40
f 55/55/55 37/37/37 49/49/49
f 55/55/55 53/53/53 37/37/37
f 48/48/48 54/54/54 40/40/40
f 25/25/25 32/32/32 40/40/40
