mtllib m0211.mtl
usemtl material0
v -1239.501220703125 0.50728499889373779 768
v -1241.045654296875 0.57323199510574341 768
v -1239.4241943359375 0.4798940122127533 769.45941162109375
v -1280 1.6273339986801148 793.7340087890625
v -1236.0533447265625 0.84863901138305664 833.278076171875
v -1280 1.4713059663772583 771.59912109375
v -1280 1.4913790225982666 771.0218505859375
v -1280 1.5964610576629639 768
v -1211.7503662109375 -0.17202499508857727 768
v -1175.51025390625 -1.0127220153808594 768
v -1172.2401123046875 -0.66683101654052734 829.912841796875
v -1024 -0.87007302045822144 769.79681396484375
v -1044.6153564453125 -4.1071381568908691 823.18365478515625
v -1024 -3.0421500205993652 811.477783203125
v -1028.1240234375 -0.86745297908782959 768
v -1047.5152587890625 -1.2954100370407105 768
v -1105.92236328125 -0.5301859974861145 768
v -1111.50830078125 -0.21229299902915955 768
v -1173.492431640625 -1.0062810182571411 768
v -1108.4189453125 -0.48138299584388733 826.54217529296875
v -1280 2.1604139804840088 854.518798828125
v -1232.6915283203125 -0.75253897905349731 897.10302698612213
v -1280 2.5943880081176758 835.59356689453125
v -1105.0540771484375 -1.4302270412445068 890.36505079269409
v -1041.2435302734375 -3.5262219905853271 887.0015869140625
v -1168.873779296875 -1.3017150163650513 893.73467993736267
v -1280 2.2598209381103516 899.59240698814392
v -1280 2.0068159103393555 915.30853271484375
v -1229.3280029296875 -1.9970179796218872 960.92681884765625
v -1101.6827392578125 -0.95695900917053223 954.183349609375
v -1037.8720703125 -3.0334219932556152 950.81982421875
v -1165.5067138671875 -1.7776509523391724 957.5560302734375
v -1024 -3.570512056350708 832.16278076171875
v -1024 -3.2142090797424316 877.210693359375
v -1024 -0.93185698986053467 768
v -1024 -3.7589321136474609 822.093994140625
v -1024 -3.3820478916168213 886.09063720703125
v -1024 -3.6788849830627441 894.51525902748108
v -1162.138427734375 -1.9691499471664429 1021.3764038085938
v -1098.315673828125 -1.410660982131958 1018.0045776367188
v -1280 1.7004510164260864 963.591796875
v -1226.0067138671875 -3.7911169528961182 1024
v -1280 1.393530011177063 976.10162353515625
v -1226.8026123046875 -3.7320139408111572 1024
v -1280 1.3969680070877075 975.96148681640625
v -1162.0001220703125 -1.9921660423278809 1024
v -1211.7432861328125 -3.4017329216003418 1024
v -1097.9991455078125 -1.4015179872512817 1024
v -1159.22216796875 -1.9406859874725342 1024
v -1280 0.01676500029861927 1024
v -1024 -3.2729310989379883 942.9434814453125
v -1024 -3.0042500495910645 950.08721923828125
v -1024 -2.8630149364471436 956.8629150390625
v -1034.4951171875 -1.339697003364563 1014.63427734375
v -1024 -1.4898669719696045 1008.6753540039063
v -1024 -1.4737759828567505 1016.1585083007813
v -1024 -1.5321730375289917 1019.2079467773438
v -1024 -1.4339790344238281 1014.0803833007813
v -1024 -1.4999769926071167 1024
v -1034.00048828125 -1.2872920036315918 1024
v -1042.9215087890625 -1.3360220193862915 1024
vt 0.15459799766540527 0.027781009674072266
vt 0.14879000186920166 0.02797698974609375
vt 0.15507699549198151 0.03325498104095459
vt 0.0056880000047385693 0.12968897819519043
vt 0.17591999471187592 0.27261197566986084
vt 0.002853000070899725 0.046518981456756592
vt 0.0027759999502450228 0.044349014759063721
vt 0.0023769999388605356 0.032988011837005615
vt 0.25889700651168823 0.024222016334533691
vt 0.395099014043808 0.019574999809265137
vt 0.41528999805450439 0.2517859935760498
vt 0.96541100740432739 0.0068830251693725586
vt 0.89435601234436035 0.21032702922821045
vt 0.97042602300643921 0.16371399164199829
vt 0.94898700714111328 0.00045102834701538086
vt 0.87611699104309082 0.0031110048294067383
vt 0.65665000677108765 0.010729014873504639
vt 0.635591983795166 0.011407017707824707
vt 0.40267899632453918 0.019317984580993652
vt 0.65465700626373291 0.23097699880599976
vt 0.013491000048816204 0.35813498497009277
vt 0.19705699384212494 0.512037992477417
vt 0.010971999727189541 0.287011981010437
vt 0.67543601989746094 0.47037798166275024
vt 0.91490298509597778 0.44971299171447754
vt 0.43620699644088745 0.49115598201751709
vt 0.019266000017523766 0.52748998999595642
vt 0.02135000005364418 0.58654499053955078
vt 0.21796500682830811 0.75144900381565094
vt 0.69636201858520508 0.70972898602485657
vt 0.93552702665328979 0.68909099698066711
vt 0.45732000470161438 0.73050200939178467
vt 0.972944974899292 0.24153602123260498
vt 0.97850298881530762 0.41080701351165771
vt 0.96515798568725586 0.00012898445129394531
vt 0.97169399261474609 0.20369702577590942
vt 0.97957998514175415 0.44411498308181763
vt 0.98063498735427856 0.47579002380371094
vt 0.4782550036907196 0.96985399909317493
vt 0.717477023601532 0.949074000120163
vt 0.027519000694155693 0.76796400547027588
vt 0.23853799700737 0.988103000447154
vt 0.02920600026845932 0.81497800350189209
vt 0.2358500063419342 0.98845299985259771
vt 0.029187999665737152 0.81445099413394928
vt 0.4791170060634613 0.97969399951398373
vt 0.29214799404144287 0.98622999992221594
vt 0.71959102153778076 0.97154700011014938
vt 0.4895470142364502 0.97934100031852722
vt 0.0354669988155365 0.99501599976792932
vt 0.98667198419570923 0.65776100754737854
vt 0.987559974193573 0.68462198972702026
vt 0.98843300342559814 0.70958098769187927
vt 0.95682799816131592 0.92812599986791611
vt 0.99545198678970337 0.90431000292301178
vt 0.99646902084350586 0.93242699652910233
vt 0.99690502882003784 0.94369300082325935
vt 0.99618500471115112 0.92461799830198288
vt 0.9976230263710022 0.961693998426199
vt 0.96004599332809448 0.96315899863839149
vt 0.92653000354766846 0.96438499912619591
vn 0.033872000873088837 0.99928200244903564 0.016968000680208206
vn 0.030068999156355858 0.99908298254013062 0.030488999560475349
vn 0.026566000655293465 0.99962002038955688 0.0072829998098313808
vn 0.027902999892830849 0.99954599142074585 -0.011327000334858894
vn 0.028150999918580055 0.99959397315979 0.0043629999272525311
vn 0.025117000564932823 0.99959802627563477 0.013154000043869019
vn 0.026241999119520187 0.99905198812484741 0.03474000096321106
vn 0.026242999359965324 0.99905198812484741 0.034740999341011047
vn 0.023212999105453491 0.99971002340316772 -0.0064039998687803745
vn 0.010443000122904778 0.99992698431015015 -0.0061380001716315746
vn 0.011126000434160233 0.99993598461151123 0.0021840000990778208
vn -0.00814099982380867 0.99976402521133423 0.020143000409007072
vn 0.012614999897778034 0.999809980392456 0.014835000038146973
vn -0.019105000421404839 0.99818199872970581 0.057167999446392059
vn -0.01711600087583065 0.99902302026748657 0.040741998702287674
vn -0.0038930000737309456 0.99868601560592651 0.051089998334646225
vn 0.046633001416921616 0.99882799386978149 0.012935999780893326
vn 0.020848000422120094 0.99977600574493408 0.0034960000775754452
vn -0.0054350001737475395 0.99998098611831665 -0.0029249999206513166
vn 0.022887999191880226 0.9997289776802063 0.0042559998109936714
vn 0.046911001205444336 0.99876797199249268 0.016206000000238419
vn 0.032444998621940613 0.999343991279602 0.016078000888228416
vn 0.039728999137878418 0.999210000038147 0.00068400002783164382
vn 0.0168869998306036 0.99985498189926147 0.0021810000762343407
vn 0.016495000571012497 0.99986302852630615 -0.0011050000321120024
vn 0.0057870000600814819 0.99994802474975586 0.0084300003945827484
vn 0.063923999667167664 0.99792897701263428 0.0072340001352131367
vn 0.066710002720355988 0.99768197536468506 0.013464000076055527
vn 0.031302999705076218 0.999347984790802 0.017969999462366104
vn 0.011750999838113785 0.99993002414703369 0.0010849999962374568
vn 0.013372000306844711 0.99979197978973389 -0.015403999947011471
vn -0.0057299998588860035 0.99995499849319458 0.0075500002130866051
vn -0.020842000842094421 0.99971199035644531 -0.011893999762833118
vn -0.017473999410867691 0.99984699487686157 0.0010890000266954303
vn 0.01560600008815527 0.999288022518158 -0.03436100110411644
vn -0.01551899965852499 0.999547004699707 0.025805000215768814
vn -0.0069430000148713589 0.99961698055267334 0.026779999956488609
vn 0.0054910001344978809 0.99995499849319458 0.0077149998396635056
vn -0.016459999606013298 0.99982702732086182 0.0086460001766681671
vn -0.0013370000524446368 0.99999701976776123 -0.0018570000538602471
vn 0.073587000370025635 0.9971650242805481 0.015690000727772713
vn 0.021688999608159065 0.99939197301864624 0.027285000309348106
vn 0.073026999831199646 0.9970020055770874 0.025582000613212585
vn 0.073156997561454773 0.99699598550796509 0.025436999276280403
vn 0.0740320011973381 0.9969559907913208 0.024460999295115471
vn -0.023262999951839447 0.99967902898788452 0.0099959997460246086
vn -0.027295000851154327 0.99919098615646362 0.029526999220252037
vn -0.0048699998296797276 0.999987006187439 -0.0012679999927058816
vn -0.01107299979776144 0.99993801116943359 0.0014600000577047467
vn 0.0702660009264946 0.99711602926254272 0.028660999611020088
vn 0.0069380002096295357 0.99981099367141724 -0.018184000626206398
vn -0.0036589999217540026 0.9995579719543457 -0.029494000598788261
vn -0.00164899998344481 0.99970102310180664 -0.024405999109148979
vn 0.003519000019878149 0.99991399049758911 -0.012648999691009522
vn 0.002340999897569418 0.9997749924659729 -0.021073000505566597
vn 0.0099919997155666351 0.999767005443573 0.019145999103784561
vn 0.017102999612689018 0.99984997510910034 0.0028309999033808708
vn 0.0091890003532171249 0.99994999170303345 0.0039099999703466892
vn 0.021261999383568764 0.99975097179412842 -0.0067170001566410065
vn 0.0083489995449781418 0.99994701147079468 -0.0060359998606145382
vn -0.0023290000390261412 0.99999397993087769 -0.0024880000855773687
f 1/1/1 2/2/2 3/3/3
f 3/3/3 4/4/4 5/5/5
f 3/3/3 6/6/6 4/4/4
f 2/2/2 6/6/6 3/3/3
f 2/2/2 7/7/7 6/6/6
f 7/7/7 2/2/2 8/8/8
f 1/1/1 3/3/3 9/9/9
f 10/10/10 3/3/3 11/11/11
f 10/10/10 9/9/9 3/3/3
f 12/12/12 13/13/13 14/14/14
f 12/12/12 15/15/15 13/13/13
f 15/15/15 16/16/16 13/13/13
f 16/16/16 17/17/17 13/13/13
f 18/18/18 19/19/19 20/20/20
f 5/5/5 21/21/21 22/22/22
f 5/5/5 23/23/23 21/21/21
f 23/23/23 5/5/5 4/4/4
f 20/20/20 11/11/11 24/24/24
f 10/10/10 20/20/20 19/19/19
f 10/10/10 11/11/11 20/20/20
f 18/18/18 13/13/13 17/17/17
f 18/18/18 20/20/20 13/13/13
f 13/13/13 20/20/20 25/25/25
f 3/3/3 5/5/5 11/11/11
f 11/11/11 5/5/5 26/26/26
f 27/27/27 22/22/22 21/21/21
f 22/22/22 28/28/28 29/29/29
f 22/22/22 27/27/27 28/28/28
f 24/24/24 26/26/26 30/30/30
f 26/26/26 24/24/24 11/11/11
f 24/24/24 25/25/25 20/20/20
f 25/25/25 24/24/24 31/31/31
f 5/5/5 22/22/22 26/26/26
f 26/26/26 22/22/22 32/32/32
f 33/33/33 25/25/25 34/34/34
f 33/33/33 13/13/13 25/25/25
f 35/35/35 15/15/15 12/12/12
f 33/33/33 36/36/36 13/13/13
f 37/37/37 34/34/34 25/25/25
f 36/36/36 14/14/14 13/13/13
f 37/37/37 25/25/25 38/38/38
f 32/32/32 29/29/29 39/39/39
f 22/22/22 29/29/29 32/32/32
f 26/26/26 32/32/32 30/30/30
f 30/30/30 32/32/32 40/40/40
f 41/41/41 29/29/29 28/28/28
f 42/42/42 43/43/43 44/44/44
f 42/42/42 45/45/45 43/43/43
f 45/45/45 29/29/29 41/41/41
f 45/45/45 42/42/42 29/29/29
f 46/46/46 39/39/39 47/47/47
f 42/42/42 39/39/39 29/29/29
f 42/42/42 47/47/47 39/39/39
f 39/39/39 40/40/40 32/32/32
f 48/48/48 39/39/39 49/49/49
f 48/48/48 40/40/40 39/39/39
f 50/50/50 44/44/44 43/43/43
f 31/31/31 30/30/30 40/40/40
f 51/51/51 31/31/31 52/52/52
f 30/30/30 31/31/31 24/24/24
f 52/52/52 31/31/31 53/53/53
f 53/53/53 54/54/54 55/55/55
f 53/53/53 31/31/31 54/54/54
f 31/31/31 40/40/40 54/54/54
f 38/38/38 31/31/31 51/51/51
f 38/38/38 25/25/25 31/31/31
f 56/56/56 54/54/54 57/57/57
f 56/56/56 58/58/58 54/54/54
f 55/55/55 54/54/54 58/58/58
f 59/59/59 54/54/54 60/60/60
f 59/59/59 57/57/57 54/54/54
f 60/60/60 54/54/54 61/61/61
f 46/46/46 49/49/49 39/39/39
f 48/48/48 54/54/54 40/40/40
f 48/48/48 61/61/61 54/54/54
