mtllib m0213.mtl
usemtl material0
v -1255.28271484375 5.5121707916259766 512
v -1252.8782958984375 5.4781179428100586 514.1634521484375
v -1252.992431640625 5.4873290061950684 512
v -1280 4.4234209060668945 515.598876953125
v -1280 4.4996500015258789 514.22991943359375
v -1280 4.623816967010498 512
v -1211.89697265625 5.2756528854370117 512
v -1249.5137939453125 4.4561948776245117 577.98681640625
v -1280 3.7936570644378662 550.56341552734375
v -1187.71923828125 5.1790971755981445 512
v -1121.8660888671875 5.97866678237915 571.2415771484375
v -1124.989501953125 6.8261628150939941 512
v -1185.7135009765625 0.045262999832630157 574.631103515625
v -1188.9962158203125 5.0661740303039551 512
v -1024 5.2911849021911621 512
v -1043.172119140625 5.9068961143493652 512
v -1024 5.0583758354187012 520.35760498046875
v -1060.99267578125 6.5148119926452637 512
v -1120.139892578125 6.7569937705993652 512
v -1058.0496826171875 5.114098072052002 567.874267578125
v -1024 4.4024701118469238 548.5416259765625
v -1024 4.9803619384765625 523.7098388671875
v -1280 5.1299300193786621 579.5946044921875
v -1280 4.5940608978271484 611.871826171875
v -1280 5.0740389823913574 643.59265089035034
v -1246.1400146484375 5.4633097648620605 641.80346703529358
v -1118.5125732421875 2.5571401119232178 635.07269287109375
v -1024 3.794888973236084 566.0802001953125
v -1024 3.6713039875030518 582.71697998046875
v -1054.68896484375 3.2760429382324219 631.70025634765625
v -1024 2.8131959438323975 614.275634765625
v -1178.969970703125 1.1803710460662842 702.26715087890625
v -1182.333740234375 2.3682749271392822 638.44342005252838
v -1115.1505126953125 0.99717199802398682 698.89764404296875
v -1024 3.3300139904022217 630.07952880859375
v -1024 3.1836800575256348 645.07159423828125
v -1051.3455810546875 -2.3365950584411621 695.538330078125
v -1280 3.3683230876922607 672.14398193359375
v -1242.7879638671875 1.6777909994125366 705.63568115234375
v -1024 0.045779000967741013 680.01025390625
v -1239.501220703125 0.50728499889373779 768
v -1280 2.8157451152801514 732.93670654296875
v -1241.045654296875 0.57323199510574341 768
v -1280 2.8248469829559326 732.3856201171875
v -1280 3.2343320846557617 707.5960693359375
v -1111.7867431640625 -0.18802900612354279 762.72137451171875
v -1047.9696044921875 -0.8548470139503479 759.3533935546875
v -1175.61083984375 -1.0233689546585083 766.0941162109375
v -1280 1.5964610576629639 768
v -1211.7503662109375 -0.17202499508857727 768
v -1175.51025390625 -1.0127220153808594 768
v -1028.1240234375 -0.86745297908782959 768
v -1047.5152587890625 -1.2954100370407105 768
v -1105.92236328125 -0.5301859974861145 768
v -1024 -2.1604850292205811 707.45159912109375
v -1024 -1.2637380361557007 745.74395751953125
v -1111.50830078125 -0.21229299902915955 768
v -1173.492431640625 -1.0062810182571411 768
v -1024 -1.2148170471191406 694.0909423828125
v -1024 -1.272657036781311 758.08892822265625
v -1024 -0.97060102224349976 766.87322998046875
v -1024 -0.93185698986053467 768
vt 0.093276999890804291 0.034295976161956787
vt 0.10257899761199951 0.04210197925567627
vt 0.10187000036239624 0.0339999794960022
vt 0.00094800000078976154 0.05115199089050293
vt 0.00077300000702962279 0.04600900411605835
vt 0.0004889999981969595 0.037629008293151855
vt 0.2560499906539917 0.028671979904174805
vt 0.12366600334644318 0.28112697601318359
vt 0.00558000011369586 0.18234699964523315
vt 0.346780002117157 0.025512993335723877
vt 0.60251998901367188 0.23806202411651611
vt 0.582165002822876 0.016272008419036865
vt 0.36256501078605652 0.26100897789001465
vt 0.3419719934463501 0.025717973709106445
vt 0.96130698919296265 0.0021619796752929688
vt 0.88934797048568726 0.0048440098762512207
vt 0.96250402927398682 0.033524990081787109
vt 0.822458028793335 0.0073339939117431641
vt 0.60035800933837891 0.015568017959594727
vt 0.84147500991821289 0.21657800674438477
vt 0.96652400493621826 0.13927900791168213
vt 0.96298199892044067 0.046104013919830322
vt 0.0094940001145005226 0.29137402772903442
vt 0.014003000222146511 0.41247498989105225
vt 0.016746999695897102 0.53077799081802368
vt 0.14360399544239044 0.520226001739502
vt 0.62408202886581421 0.47738498449325562
vt 0.96906298398971558 0.20519697666168213
vt 0.9713510274887085 0.267611026763916
vt 0.86303502321243286 0.45563900470733643
vt 0.97577500343322754 0.38604199886322021
vt 0.40345600247383118 0.7389410138130188
vt 0.38287800550460815 0.49985897541046143
vt 0.643975019454956 0.71657100319862366
vt 0.97791999578475952 0.44510698318481445
vt 0.98009401559829712 0.501347005367279
vt 0.884522020816803 0.695576012134552
vt 0.019926000386476517 0.63810300827026367
vt 0.16444399952888489 0.75969499349594116
vt 0.98498499393463135 0.63294300436973572
vt 0.18471500277519226 0.9932969999499619
vt 0.027132000774145126 0.86621600389480591
vt 0.17801399528980255 0.992767000105232
vt 0.027060000225901604 0.86414800584316254
vt 0.024320000782608986 0.77111700177192688
vt 0.66454797983169556 0.95565899834036827
vt 0.9038810133934021 0.93475700169801712
vt 0.42425200343132019 0.978116000071168
vt 0.031817998737096786 0.997838000068441
vt 0.28886398673057556 0.9898089999333024
vt 0.42486798763275146 0.985253999941051
vt 0.9791799783706665 0.96531699970364571
vt 0.906391978263855 0.96720699965953827
vt 0.68599599599838257 0.97617699950933456
vt 0.98838597536087036 0.737421989440918
vt 0.99239999055862427 0.88115300238132477
vt 0.66500198841094971 0.97554700076580048
vt 0.43248701095581055 0.9849439999088645
vt 0.98695701360702515 0.68597599864006042
vt 0.99370598793029785 0.92747700214385986
vt 0.99453997611999512 0.96065200120210648
vt 0.99465698003768921 0.96488299965858459
vn -0.024974999949336052 0.99874198436737061 0.043476998805999756
vn -0.0014720000326633453 0.99970102310180664 0.024413000792264938
vn 0.0080939996987581253 0.99996000528335571 0.0038300000596791506
vn -0.03692299872636795 0.9986649751663208 0.036136001348495483
vn -0.035861998796463013 0.99781101942062378 0.055560998618602753
vn -0.035861998796463013 0.99781101942062378 0.055560000240802765
vn 0.0090520000085234642 0.99689900875091553 0.078169003129005432
vn 0.033475000411272049 0.99942702054977417 -0.00507699977606535
vn -0.022557999938726425 0.99974501132965088 0.0009239999926649034
vn -0.073466002941131592 0.99496102333068848 0.068236000835895538
vn -0.0322129987180233 0.998652994632721 0.040672000497579575
vn -0.0066709998063743114 0.99987000226974487 0.014655999839305878
vn -0.0095800003036856651 0.99956202507019043 0.028017999604344368
vn -0.037866998463869095 0.99592697620391846 0.081825003027915955
vn 0.032085999846458435 0.999098002910614 0.027830999344587326
vn 0.033822998404502869 0.99914300441741943 0.023850999772548676
vn 0.0333469994366169 0.99913299083709717 0.02494099922478199
vn 0.018583999946713448 0.99953699111938477 0.024079000577330589
vn 0.011889000423252583 0.9997979998588562 0.016186000779271126
vn 0.023305999115109444 0.99944502115249634 0.023786000907421112
vn 0.036244001239538193 0.99897700548172 0.027062999084591866
vn 0.034083999693393707 0.99914801120758057 0.023252999410033226
vn 0.021372999995946884 0.99967902898788452 -0.013639000244438648
vn -0.0040699997916817665 0.9999619722366333 -0.00773000018671155
vn -0.010249000042676926 0.99967098236083984 0.023530000820755959
vn 0.016677999868988991 0.99977397918701172 0.013194000348448753
vn -0.0085159996524453163 0.99931097030639648 0.036123998463153839
vn 0.039834000170230865 0.99897599220275879 0.02145799994468689
vn 0.033674001693725586 0.99923497438430786 0.019881999120116234
vn -0.0021379999816417694 0.99869000911712646 0.051121000200510025
vn 0.019099000841379166 0.99979299306869507 0.0070810001343488693
vn 0.0099550001323223114 0.99952602386474609 0.029122000560164452
vn 0.022994000464677811 0.99969202280044556 -0.00937500037252903
vn 0.022346999496221542 0.99964702129364014 0.014374000020325184
vn -0.0024019998963922262 0.9999229907989502 -0.012176999822258949
vn -0.023152999579906464 0.99792802333831787 0.06003199890255928
vn 0.00748499995097518 0.99950200319290161 0.030662000179290771
vn 0.0051009999588131905 0.99898499250411987 0.04475799947977066
vn 0.021857999265193939 0.99921101331710815 0.033155001699924469
vn -0.036008000373840332 0.99535399675369263 0.0892999991774559
vn 0.033254001289606094 0.99930202960968018 0.017002999782562256
vn 0.038283001631498337 0.99903899431228638 0.0213639996945858
vn 0.038830000907182693 0.99902999401092529 0.020755000412464142
vn 0.042654998600482941 0.99895399808883667 0.01650100015103817
vn 0.042334001511335373 0.99905002117156982 0.010350000113248825
vn 0.007466999813914299 0.99979197978973389 0.018975000828504562
vn 0.010276000015437603 0.99984699487686157 0.01413199957460165
vn 0.0052499999292194843 0.99989497661590576 0.013487000018358231
vn 0.026242999359965324 0.99905198812484741 0.034740999341011047
vn 0.024446999654173851 0.99955600500106812 0.01706399954855442
vn 0.0095579996705055237 0.99993598461151123 -0.00609100004658103
vn 0.010680999606847763 0.99967700242996216 -0.023058999329805374
vn -0.0050599998794496059 0.99867802858352661 0.051150999963283539
vn 0.023287000134587288 0.99897199869155884 0.038881000131368637
vn -0.011373000219464302 0.999871015548706 0.01132499985396862
vn 0.0083619998767972 0.99984800815582275 -0.015313000418245792
vn 0.023188000544905663 0.99972498416900635 0.0033720000647008419
vn -0.010565999895334244 0.99993997812271118 0.0027789999730885029
vn -0.036619000136852264 0.9961090087890625 0.0801670029759407
vn 0.016569999977946281 0.99973100423812866 -0.016230000182986259
vn 0.015604999847710133 0.999288022518158 -0.03436100110411644
vn 0.01560600008815527 0.999288022518158 -0.034359999001026154
f 1/1/1 2/2/2 3/3/3
f 1/1/1 4/4/4 2/2/2
f 1/1/1 5/5/5 4/4/4
f 5/5/5 1/1/1 6/6/6
f 3/3/3 2/2/2 7/7/7
f 4/4/4 8/8/8 2/2/2
f 4/4/4 9/9/9 8/8/8
f 10/10/10 11/11/11 12/12/12
f 7/7/7 13/13/13 14/14/14
f 7/7/7 2/2/2 13/13/13
f 15/15/15 16/16/16 17/17/17
f 18/18/18 19/19/19 20/20/20
f 21/21/21 18/18/18 20/20/20
f 21/21/21 22/22/22 18/18/18
f 22/22/22 16/16/16 18/18/18
f 22/22/22 17/17/17 16/16/16
f 23/23/23 8/8/8 9/9/9
f 23/23/23 24/24/24 8/8/8
f 25/25/25 8/8/8 24/24/24
f 25/25/25 26/26/26 8/8/8
f 13/13/13 27/27/27 11/11/11
f 14/14/14 11/11/11 10/10/10
f 14/14/14 13/13/13 11/11/11
f 28/28/28 20/20/20 29/29/29
f 21/21/21 20/20/20 28/28/28
f 20/20/20 11/11/11 30/30/30
f 19/19/19 11/11/11 20/20/20
f 19/19/19 12/12/12 11/11/11
f 30/30/30 29/29/29 20/20/20
f 30/30/30 31/31/31 29/29/29
f 26/26/26 32/32/32 33/33/33
f 26/26/26 33/33/33 13/13/13
f 33/33/33 27/27/27 13/13/13
f 33/33/33 34/34/34 27/27/27
f 35/35/35 30/30/30 36/36/36
f 31/31/31 30/30/30 35/35/35
f 30/30/30 27/27/27 37/37/37
f 11/11/11 27/27/27 30/30/30
f 26/26/26 38/38/38 39/39/39
f 26/26/26 25/25/25 38/38/38
f 26/26/26 13/13/13 8/8/8
f 2/2/2 8/8/8 13/13/13
f 36/36/36 37/37/37 40/40/40
f 36/36/36 30/30/30 37/37/37
f 41/41/41 42/42/42 43/43/43
f 41/41/41 44/44/44 42/42/42
f 44/44/44 39/39/39 45/45/45
f 44/44/44 41/41/41 39/39/39
f 45/45/45 39/39/39 38/38/38
f 34/34/34 32/32/32 46/46/46
f 32/32/32 34/34/34 33/33/33
f 34/34/34 37/37/37 27/27/27
f 37/37/37 34/34/34 47/47/47
f 26/26/26 39/39/39 32/32/32
f 32/32/32 39/39/39 48/48/48
f 49/49/49 43/43/43 42/42/42
f 39/39/39 50/50/50 48/48/48
f 39/39/39 41/41/41 50/50/50
f 51/51/51 48/48/48 50/50/50
f 47/47/47 34/34/34 46/46/46
f 48/48/48 46/46/46 32/32/32
f 52/52/52 47/47/47 53/53/53
f 53/53/53 46/46/46 54/54/54
f 53/53/53 47/47/47 46/46/46
f 55/55/55 47/47/47 56/56/56
f 55/55/55 37/37/37 47/47/47
f 57/57/57 48/48/48 58/58/58
f 57/57/57 46/46/46 48/48/48
f 40/40/40 37/37/37 59/59/59
f 51/51/51 58/58/58 48/48/48
f 57/57/57 54/54/54 46/46/46
f 55/55/55 59/59/59 37/37/37
f 60/60/60 56/56/56 47/47/47
f 52/52/52 60/60/60 47/47/47
f 52/52/52 61/61/61 60/60/60
f 61/61/61 52/52/52 62/62/62
