mtllib m0230.mtl
usemtl material0
v -1522.4854736328125 8.6712961196899414 256
v -1536 9.8350286483764648 259.40914916992188
v -1521.6177978515625 9.6583852767944336 272.35000610351562
v -1536 9.6165542602539062 256
v -1394.513427734375 3.4378159046173096 256
v -1404.710205078125 3.3332829475402832 256
v -1394.0078134536743 2.8146460056304932 265.6326904296875
v -1330.4981689453125 7.0517430305480957 256
v -1337.11474609375 6.8657269477844238 256
v -1330.169189453125 6.8566727638244629 262.24896240234375
v -1458.5068359375 4.46964693069458 256
v -1472.267333984375 4.43576192855835 256
v -1457.822509765625 4.0603938102722168 268.9986572265625
v -1536 9.8605556488037109 268.724365234375
v -1536 9.8725709915161133 273.10882568359375
v -1518.25439453125 8.3478269577026367 336.17446899414062
v -1536 8.9450569152832031 320.20452880859375
v -1390.6243896484375 5.9600729942321777 329.442138671875
v -1280 9.33403205871582 259.59194946289062
v -1280 8.5297422409057617 307.37332153320312
v -1280 9.4187555313110352 257.07955932617188
v -1280 9.4551601409912109 256
v -1326.7901611328125 9.0392236709594727 326.06170654296875
v -1454.4483642578125 5.15702486038208 332.81497192382812
v -1536 10.397941589355469 380.982666015625
v -1514.876953125 10.200078010559082 399.98834228515625
v -1536 9.037968635559082 337.10940551757812
v -1451.0587158203125 9.7235889434814453 396.61978054046631
v -1536 10.465179443359375 441.77099609375
v -1511.5050048828125 10.810421943664551 463.806396484375
v -1536 10.08863639831543 401.1041259765625
v -1447.696044921875 8.2538862228393555 460.4447021484375
v -1387.2509765625 6.8914389610290527 393.25906372070312
v -1280 9.0820856094360352 323.59072875976562
v -1280 8.7009525299072266 368.160888671875
v -1323.4195556640625 9.3519477844238281 389.88073682785034
v -1383.875 8.4119243621826172 457.07403564453125
v -1536 10.335091590881348 465.10134887695312
v -1280 8.8086957931518555 387.58956909179688
v -1280 7.0236039161682129 428.96209716796875
v -1444.9749755859375 8.12196159362793 512
v -1457.955810546875 8.6423501968383789 512
v -1317.0009765625 3.2939798831939697 512
v -1320.0634765625 6.4296321868896484 453.71044921875
v -1322.865478515625 3.4922358989715576 512
v -1280 6.0028591156005859 451.59616088867188
v -1280 5.8667659759521484 488.52853393554688
v -1280 5.8622298240661621 489.75946044921875
v -1380.9810791015625 7.1750931739807129 512
v -1390.401611328125 7.1630020141601562 512
v -1508.977294921875 7.2537121772766113 512
v -1536 8.19778823852539 493.74716186523438
v -1525.535400390625 6.997708797454834 512
v -1536 7.5386710166931152 502.5811767578125
v -1536 7.30845308303833 512
v -1280 4.623816967010498 512
vt 0.052434001117944717 0.035301029682159424
vt 0.0020179999992251396 0.050095021724700928
vt 0.057805001735687256 0.096686005592346191
vt 0.0015790000325068831 0.037268996238708496
vt 0.53334897756576538 0.016457021236419678
vt 0.49526000022888184 0.018269002437591553
vt 0.53679400682449341 0.052604973316192627
vt 0.77449798583984375 0.0080569982528686523
vt 0.749646008014679 0.0088919997215271
vt 0.77649998664855957 0.031490981578826904
vt 0.29326200485229492 0.025834023952484131
vt 0.24160699546337128 0.027806997299194336
vt 0.29769200086593628 0.07455599308013916
vt 0.0033060000278055668 0.085065007209777832
vt 0.003911999985575676 0.10152500867843628
vt 0.079338997602462769 0.33586698770523071
vt 0.010483000427484512 0.27835798263549805
vt 0.558601975440979 0.291949987411499
vt 0.96470499038696289 0.014608979225158691
vt 0.971127986907959 0.19401699304580689
vt 0.96437501907348633 0.0051720142364501953
vt 0.96423298120498657 0.0011159777641296387
vt 0.79807901382446289 0.27071601152420044
vt 0.31946998834609985 0.31367200613021851
vt 0.018650000914931297 0.50661399960517883
vt 0.10094700008630753 0.57505398988723755
vt 0.012798000127077103 0.34182298183441162
vt 0.34005400538444519 0.55343499779701233
vt 0.027428999543190002 0.73483499884605408
vt 0.12243600189685822 0.814177006483078
vt 0.021594999358057976 0.58215400576591492
vt 0.36169800162315369 0.79262100160121918
vt 0.57935601472854614 0.53188899159431458
vt 0.97338902950286865 0.25493299961090088
vt 0.97905498743057251 0.423662006855011
vt 0.81871700286865234 0.51061299443244934
vt 0.60069400072097778 0.77107200026512146
vt 0.030641000717878342 0.82242099940776825
vt 0.98146700859069824 0.49660998582839966
vt 0.98702400922775269 0.65178900957107544
vt 0.3791390061378479 0.98577999975532293
vt 0.33037000894546509 0.98759800009429455
vt 0.85943502187728882 0.96883399970829487
vt 0.83994197845458984 0.750110000371933
vt 0.83794999122619629 0.96894600056111813
vt 0.99007999897003174 0.73684900999069214
vt 0.99499201774597168 0.87550400197505951
vt 0.995373010635376 0.87986599653959274
vt 0.61933797597885132 0.97690399922430515
vt 0.58404099941253662 0.97813699953258038
vt 0.13878099620342255 0.9952270002104342
vt 0.034664999693632126 0.93025700002908707
vt 0.0764710009098053 0.99748599994927645
vt 0.035882998257875443 0.96351300179958344
vt 0.037167001515626907 0.99888400000054389
vt 0.99842101335525513 0.96349000185728073
vn 0.076534003019332886 0.99500197172164917 -0.064131997525691986
vn 0.055011998862028122 0.99735397100448608 -0.047525998204946518
vn 0.052673999220132828 0.99841099977493286 -0.020003000274300575
vn 0.069631002843379974 0.99553102254867554 -0.063798002898693085
vn -0.034081000834703445 0.99721699953079224 0.066302001476287842
vn 0.013791999779641628 0.99916398525238037 0.038472998887300491
vn -0.023728000000119209 0.99969601631164551 0.0066329999826848507
vn -0.037484999746084213 0.99874699115753174 0.033151000738143921
vn -0.052159998565912247 0.99686998128890991 0.059418998658657074
vn -0.045460999011993408 0.99890398979187012 0.011132000014185906
vn 0.0089279999956488609 0.99948000907897949 0.030998000875115395
vn 0.0638120025396347 0.99707299470901489 -0.042118001729249954
vn 0.037494998425245285 0.999243974685669 -0.010293000377714634
vn 0.014746000058948994 0.999888002872467 -0.0027399999089539051
vn 0.015356999821960926 0.99984300136566162 0.0088499998673796654
vn 0.035344000905752182 0.9992709755897522 -0.014415999874472618
vn 0.021972000598907471 0.99967402219772339 0.012969999574124813
vn -0.02105100080370903 0.99920302629470825 -0.033913001418113708
vn -0.047954998910427094 0.99852299690246582 0.025529000908136368
vn -0.014926999807357788 0.99967902898788452 -0.020470000803470612
vn -0.047513000667095184 0.99830299615859985 0.0336650013923645
vn -0.047513999044895172 0.99830299615859985 0.033663999289274216
vn -0.024569999426603317 0.99950498342514038 -0.019641000777482986
vn 0.021234000101685524 0.99894601106643677 -0.040695000439882278
vn 0.026102999225258827 0.99948602914810181 -0.018604999408125877
vn 0.010147999972105026 0.99989598989486694 -0.010232999920845032
vn 0.037872999906539917 0.99910801649093628 -0.018659999594092369
vn 0.017274999991059303 0.99967801570892334 -0.018561000004410744
vn -0.0093250004574656487 0.99994200468063354 -0.0053010000847280025
vn 0.0045139999128878117 0.99968498945236206 0.024676000699400902
vn -0.0051359999924898148 0.999983012676239 0.0026420000940561295
vn 0.017750000581145287 0.9997900128364563 0.01027700025588274
vn 0.00075100001413375139 0.99983698129653931 -0.01803399994969368
vn -0.0016270000487565994 0.9999079704284668 -0.013461999595165253
vn 0.0088349999859929085 0.99995899200439453 -0.0017849999712780118
vn -0.0039320001378655434 0.99992400407791138 0.011707999743521214
vn 0.016233999282121658 0.99972498416900635 0.016944000497460365
vn -0.017209000885486603 0.999002993106842 0.041182000190019608
vn 0.013457000255584717 0.99974799156188965 0.017971999943256378
vn 0.013485999777913094 0.99891698360443115 0.044530000537633896
vn 0.028436999768018723 0.99959498643875122 0.0010570000158622861
vn 0.024374000728130341 0.99954301118850708 0.017883999273180962
vn -0.0022219999227672815 0.9985470175743103 0.0538330003619194
vn 0.016896000131964684 0.998947024345398 0.042656999081373215
vn 0.040617998689413071 0.99819302558898926 0.044291000813245773
vn 0.011970999650657177 0.99961400032043457 0.025062000378966331
vn 0.010846000164747238 0.99993401765823364 0.0036849998869001865
vn -0.023409999907016754 0.99885398149490356 0.041738998144865036
vn 0.032085001468658447 0.99926799535751343 0.020811000838875771
vn 0.0031139999628067017 0.99983900785446167 0.017695000395178795
vn -0.021462000906467438 0.99697500467300415 0.074703000485897064
vn -0.015416000038385391 0.99711000919342041 0.074395999312400818
vn -0.0048980000428855419 0.99801599979400635 0.062761999666690826
vn -0.0033970000222325325 0.99812597036361694 0.061101000756025314
vn 0.029673000797629356 0.99926102161407471 0.024423999711871147
vn -0.035861998796463013 0.99781101942062378 0.055560998618602753
f 1/1/1 2/2/2 3/3/3
f 1/1/1 4/4/4 2/2/2
f 5/5/5 6/6/6 7/7/7
f 8/8/8 9/9/9 10/10/10
f 11/11/11 12/12/12 13/13/13
f 12/12/12 3/3/3 13/13/13
f 12/12/12 1/1/1 3/3/3
f 14/14/14 3/3/3 2/2/2
f 14/14/14 15/15/15 3/3/3
f 15/15/15 16/16/16 3/3/3
f 15/15/15 17/17/17 16/16/16
f 13/13/13 18/18/18 7/7/7
f 6/6/6 13/13/13 7/7/7
f 6/6/6 11/11/11 13/13/13
f 19/19/19 10/10/10 20/20/20
f 21/21/21 10/10/10 19/19/19
f 21/21/21 8/8/8 10/10/10
f 21/21/21 22/22/22 8/8/8
f 10/10/10 5/5/5 7/7/7
f 10/10/10 9/9/9 5/5/5
f 7/7/7 23/23/23 10/10/10
f 3/3/3 24/24/24 13/13/13
f 16/16/16 25/25/25 26/26/26
f 16/16/16 27/27/27 25/25/25
f 27/27/27 16/16/16 17/17/17
f 16/16/16 24/24/24 3/3/3
f 24/24/24 16/16/16 28/28/28
f 26/26/26 29/29/29 30/30/30
f 26/26/26 31/31/31 29/29/29
f 31/31/31 26/26/26 25/25/25
f 26/26/26 28/28/28 16/16/16
f 28/28/28 26/26/26 32/32/32
f 18/18/18 24/24/24 28/28/28
f 23/23/23 18/18/18 33/33/33
f 18/18/18 23/23/23 7/7/7
f 34/34/34 23/23/23 35/35/35
f 20/20/20 23/23/23 34/34/34
f 20/20/20 10/10/10 23/23/23
f 23/23/23 33/33/33 36/36/36
f 33/33/33 18/18/18 28/28/28
f 13/13/13 24/24/24 18/18/18
f 33/33/33 28/28/28 37/37/37
f 29/29/29 38/38/38 30/30/30
f 36/36/36 35/35/35 23/23/23
f 36/36/36 39/39/39 35/35/35
f 39/39/39 36/36/36 40/40/40
f 37/37/37 36/36/36 33/33/33
f 30/30/30 41/41/41 32/32/32
f 30/30/30 42/42/42 41/41/41
f 26/26/26 30/30/30 32/32/32
f 37/37/37 43/43/43 44/44/44
f 37/37/37 45/45/45 43/43/43
f 37/37/37 44/44/44 36/36/36
f 44/44/44 40/40/40 36/36/36
f 44/44/44 46/46/46 40/40/40
f 46/46/46 44/44/44 47/47/47
f 47/47/47 44/44/44 48/48/48
f 37/37/37 28/28/28 32/32/32
f 32/32/32 49/49/49 37/37/37
f 32/32/32 50/50/50 49/49/49
f 38/38/38 51/51/51 30/30/30
f 38/38/38 52/52/52 51/51/51
f 52/52/52 53/53/53 51/51/51
f 52/52/52 54/54/54 53/53/53
f 55/55/55 53/53/53 54/54/54
f 50/50/50 32/32/32 41/41/41
f 56/56/56 44/44/44 43/43/43
f 56/56/56 48/48/48 44/44/44
f 45/45/45 37/37/37 49/49/49
f 42/42/42 30/30/30 51/51/51
