mtllib m03001.mtl
usemtl material0
v -848.7867431640625 -6.1328282356262207 896
v -862.338623046875 -4.9662141799926758 896
v -848.11053466796875 -6.1474418640136719 908.8095703125
v -880.7720947265625 -3.2892110347747803 896
v -896 -3.2205259799957275 896.0965576171875
v -880.007080078125 -3.2308189868927 910.4853515625
v -896 -3.220937967300415 896
v -896 -4.2736477851867676 943.331787109375
v -896 -3.7441339492797852 962.04235792160034
v -878.3277587890625 -4.3568620681762695 942.3988037109375
v -896 -3.7470510005950928 928.26007080078125
v -896 -3.3356220722198486 911.3302001953125
v -896 -3.3338840007781982 1024
v -890.95526123046875 -3.6108779907226562 1024
v -896 -3.3550930023193359 1018.8933715820313
v -874.95953369140625 -4.5630102157592773 1006.21923828125
v -896 -3.4031329154968262 1007.3269653320313
v -896 -3.7918179035186768 995.82452392578125
v -876.64874267578125 -5.5510768890380859 974.31243896484375
v -896 -4.19100284576416 975.33038330078125
v -816.802001953125 -9.0892238616943359 896
v -816.214599609375 -9.1683683395385742 907.13409423828125
v -836.58764600753784 -7.2130961418151855 896
v -806.19696044921875 -9.042475700378418 896
v -846.414794921875 -3.7540099620819092 940.71185302734375
v -814.52239990234375 -7.5449438095092773 939.038818359375
v -844.7354736328125 -4.8754720687866211 972.62530517578125
v -812.8311767578125 -6.1210360527038574 970.9442138671875
v -782.61895751953125 -8.954380989074707 937.35821533203125
v -811.13360595703125 -3.341494083404541 1002.8453369140625
v -843.05401611328125 -5.5460700988769531 1004.5372924804688
v -784.30401611328125 -9.0563449859619141 905.44866943359375
v -784.80242919921875 -8.9770364761352539 896
v -775.8021240234375 -8.6079835891723633 896
v -768 -8.6049976348876953 900.558837890625
v -768 -8.72935962677002 904.5867919921875
v -768 -8.4642419815063477 896
v -768 -8.6128826141357422 936.58526611328125
v -780.93988037109375 -10.127111434936523 969.27178955078125
v -768 -9.3061399459838867 954.89111280441284
v -768 -8.6941585540771484 921.11016845703125
v -768 -9.9768753051757812 968.5880126953125
v -779.24371337890625 -7.662506103515625 1001.1738891601563
v -860.56439208984375 -5.356450080871582 1024
v -874.02264404296875 -4.9283890724182129 1024
v -830.16937303543091 -4.8606648445129395 1024
v -842.02716064453125 -5.6732401847839355 1024
v -810.01947021484375 -3.8917479515075684 1024
v -799.776123046875 -5.2898092269897461 1024
v -768 -8.4417533874511719 988.67510986328125
v -768 -7.9586668014526367 1000.5809936523438
v -768 -6.671654224395752 1008.9000854492188
v -768 -6.3034992218017578 1011.27978515625
v -778.02105712890625 -4.0201749801635742 1024
v -768 -4.2576069831848145 1024
vt 0.35674399137496948 0.020960986614227295
vt 0.25466498732566833 0.024496018886566162
vt 0.36513900756835938 0.11691701412200928
vt 0.11575700342655182 0.029312014579772949
vt 0.0014979999978095293 0.03393399715423584
vt 0.12520299851894379 0.13782697916030884
vt 0.0014730000402778387 0.033208012580871582
vt 0.014485999941825867 0.38894802331924438
vt 0.018484000116586685 0.5283539891242981
vt 0.14683599770069122 0.37697499990463257
vt 0.010220999829471111 0.2757830023765564
vt 0.005392999853938818 0.14826297760009766
vt 0.032526001334190369 0.99352600006386638
vt 0.07127700001001358 0.99275099998340011
vt 0.030956000089645386 0.95521200075745583
vt 0.18727800250053406 0.855456992983818
vt 0.028479000553488731 0.86839200556278229
vt 0.025886999443173409 0.78200800716876984
vt 0.16700999438762665 0.61627000570297241
vt 0.021623000502586365 0.62814301252365112
vt 0.597802996635437 0.012607991695404053
vt 0.60514301061630249 0.096011996269226074
vt 0.4486519992351532 0.017776012420654297
vt 0.67738997936248779 0.0098140239715576172
vt 0.38598498702049255 0.35658299922943115
vt 0.624966025352478 0.3354179859161377
vt 0.40617099404335022 0.59585601091384888
vt 0.64534801244735718 0.57493498921394348
vt 0.86426597833633423 0.31542402505874634
vt 0.66614401340484619 0.81428200006484985
vt 0.42643600702285767 0.83501699566841125
vt 0.844290018081665 0.076306998729705811
vt 0.83854198455810547 0.0054870247840881348
vt 0.90615600347518921 0.0035470128059387207
vt 0.96558398008346558 0.035852015018463135
vt 0.96648997068405151 0.066100001335144043
vt 0.96453601121902466 0.0016189813613891602
vt 0.97384399175643921 0.30627197027206421
vt 0.8861510157585144 0.554295003414154
vt 0.97929400205612183 0.44264698028564453
vt 0.97028297185897827 0.19011902809143066
vt 0.98280900716781616 0.54262301325798035
vt 0.90697497129440308 0.7907249927520752
vt 0.29980400204658508 0.98539999965578318
vt 0.198745995759964 0.98869599960744381
vt 0.52814900875091553 0.97785099968314171
vt 0.43894898891448975 0.98083600029349327
vt 0.67955100536346436 0.97284400090575218
vt 0.7597770094871521 0.969055999070406
vt 0.98808598518371582 0.693807989358902
vt 0.99121999740600586 0.7832300066947937
vt 0.99377399682998657 0.84564299881458282
vt 0.99452400207519531 0.86371000111103058
vt 0.92333298921585083 0.96376999840140343
vt 0.99852699041366577 0.96037299931049347
vn 0.086946003139019012 0.99620699882507324 -0.0034529999829828739
vn 0.089474000036716461 0.99596101045608521 -0.0075409999117255211
vn 0.079354003071784973 0.99655300378799438 -0.024180000647902489
vn 0.046146001666784286 0.99891400337219238 -0.0064639998599886894
vn 0.0016449999529868364 0.99999797344207764 -0.0011129999766126275
vn 0.045781999826431274 0.998865008354187 0.013179999776184559
vn 0.0044840001501142979 0.99998098611831665 -0.0042670001275837421
vn 0.0048279999755322933 0.99998599290847778 0.0022549999412149191
vn 0.055860999971628189 0.99825602769851685 0.019116999581456184
vn 0.015600999817252159 0.99978697299957275 0.013544999994337559
vn 0.0037940000183880329 0.99946600198745728 0.032441001385450363
vn -0.0056960000656545162 0.99985200166702271 0.016207000240683556
vn 0.054825000464916229 0.99848699569702148 -0.0041470001451671124
vn 0.060892000794410706 0.99814301729202271 0.0013299999991431832
vn 0.054823998361825943 0.99848699569702148 -0.0041470001451671124
vn 0.045106001198291779 0.99892902374267578 -0.010305999778211117
vn 0.054065998643636703 0.99836701154708862 -0.018433000892400742
vn 0.056938000023365021 0.99791502952575684 -0.030391000211238861
vn 0.029884999617934227 0.99950599670410156 0.0097390003502368927
vn 0.070432998239994049 0.997497022151947 0.0061759999953210354
vn 0.046716000884771347 0.9988970160484314 0.0046359999105334282
vn 0.043974000960588455 0.99874502420425415 -0.023989999666810036
vn 0.09275200217962265 0.99568897485733032 0.00060199998551979661
vn -0.003418999956920743 0.99996000528335571 0.008231000043451786
vn 0.04812999814748764 0.99859702587127686 -0.02207300066947937
vn 0.060322001576423645 0.99745601415634155 -0.037978999316692352
vn 0.0056039998307824135 0.99997502565383911 0.0043049999512732029
vn 0.069967001676559448 0.99586200714111328 -0.057987000793218613
vn 0.02123899944126606 0.99976199865341187 0.00508299982175231
vn 0.047419000416994095 0.99863797426223755 -0.021769000217318535
vn -0.026760000735521317 0.9995880126953125 0.010427000001072884
vn -0.0085209999233484268 0.99996399879455566 -0.00022600000374950469
vn -0.021384000778198242 0.99972599744796753 0.0095189996063709259
vn -0.024428000673651695 0.9993780255317688 0.025443000718951225
vn -0.018410999327898026 0.99935400485992432 0.030855000019073486
vn -0.01926100067794323 0.99970299005508423 0.014921999536454678
vn -0.018410999327898026 0.99935400485992432 0.030855000019073486
vn -0.022528000175952911 0.999625027179718 0.015565999783575535
vn 0.05391399934887886 0.9983140230178833 -0.021491000428795815
vn -0.018465999513864517 0.99901199340820312 0.040415998548269272
vn -0.020973000675439835 0.99977600574493408 -0.0028580001089721918
vn -0.012219999916851521 0.999858021736145 -0.011574000120162964
vn 0.0473329983651638 0.99455100297927856 -0.092881999909877777
vn 0.027863999828696251 0.99949401617050171 0.015331000089645386
vn 0.053906001150608063 0.99839001893997192 0.01767599955201149
vn -0.062945999205112457 0.99790400266647339 0.015021000057458878
vn -0.027089999988675117 0.99960100650787354 0.0079610003158450127
vn 0.04690999910235405 0.99862301349639893 0.023505000397562981
vn 0.083921000361442566 0.9960780143737793 -0.028051000088453293
vn -0.00633700005710125 0.99767202138900757 -0.06790199875831604
vn 0.021212000399827957 0.9952620267868042 -0.0948840007185936
vn 0.017966000363230705 0.98808401823043823 -0.15286299586296082
vn 0.021947000175714493 0.98732399940490723 -0.1571899950504303
vn -0.015665000304579735 0.98751598596572876 -0.15673699975013733
vn 0.023385999724268913 0.98704099655151367 -0.15875400602817535
f 1/1/1 2/2/2 3/3/3
f 4/4/4 5/5/5 6/6/6
f 4/4/4 7/7/7 5/5/5
f 8/8/8 9/9/9 10/10/10
f 11/11/11 6/6/6 12/12/12
f 13/13/13 14/14/14 15/15/15
f 15/15/15 16/16/16 17/17/17
f 15/15/15 14/14/14 16/16/16
f 18/18/18 19/19/19 20/20/20
f 9/9/9 19/19/19 10/10/10
f 9/9/9 20/20/20 19/19/19
f 6/6/6 10/10/10 3/3/3
f 21/21/21 3/3/3 22/22/22
f 21/21/21 23/23/23 3/3/3
f 4/4/4 3/3/3 2/2/2
f 4/4/4 6/6/6 3/3/3
f 21/21/21 22/22/22 24/24/24
f 3/3/3 10/10/10 25/25/25
f 5/5/5 12/12/12 6/6/6
f 3/3/3 26/26/26 22/22/22
f 25/25/25 19/19/19 27/27/27
f 19/19/19 25/25/25 10/10/10
f 26/26/26 27/27/27 28/28/28
f 27/27/27 26/26/26 25/25/25
f 26/26/26 28/28/28 29/29/29
f 28/28/28 27/27/27 30/30/30
f 3/3/3 25/25/25 26/26/26
f 27/27/27 19/19/19 31/31/31
f 32/32/32 22/22/22 26/26/26
f 18/18/18 16/16/16 19/19/19
f 18/18/18 17/17/17 16/16/16
f 32/32/32 24/24/24 22/22/22
f 32/32/32 33/33/33 24/24/24
f 33/33/33 32/32/32 34/34/34
f 35/35/35 32/32/32 36/36/36
f 35/35/35 34/34/34 32/32/32
f 35/35/35 37/37/37 34/34/34
f 38/38/38 39/39/39 40/40/40
f 38/38/38 29/29/29 39/39/39
f 29/29/29 36/36/36 32/32/32
f 29/29/29 41/41/41 36/36/36
f 41/41/41 29/29/29 38/38/38
f 39/39/39 29/29/29 28/28/28
f 40/40/40 39/39/39 42/42/42
f 29/29/29 32/32/32 26/26/26
f 39/39/39 28/28/28 43/43/43
f 16/16/16 44/44/44 31/31/31
f 16/16/16 45/45/45 44/44/44
f 46/46/46 31/31/31 47/47/47
f 46/46/46 30/30/30 31/31/31
f 27/27/27 31/31/31 30/30/30
f 48/48/48 30/30/30 46/46/46
f 47/47/47 31/31/31 44/44/44
f 31/31/31 19/19/19 16/16/16
f 49/49/49 30/30/30 48/48/48
f 49/49/49 43/43/43 30/30/30
f 45/45/45 16/16/16 14/14/14
f 50/50/50 43/43/43 51/51/51
f 30/30/30 43/43/43 28/28/28
f 52/52/52 43/43/43 53/53/53
f 52/52/52 51/51/51 43/43/43
f 54/54/54 53/53/53 43/43/43
f 54/54/54 55/55/55 53/53/53
f 54/54/54 43/43/43 49/49/49
f 42/42/42 43/43/43 50/50/50
f 42/42/42 39/39/39 43/43/43
f 11/11/11 10/10/10 6/6/6
f 11/11/11 8/8/8 10/10/10
f 23/23/23 1/1/1 3/3/3
