mtllib m03121.mtl
usemtl material0
v -384 -5.3215208053588867 663.221923828125
v -381.24746704101562 -5.44635009765625 660.16229248046875
v -384 -5.2691650390625 660.30712890625
v -384 -4.4821629524230957 692.30364990234375
v -379.55859375 -4.54785680770874 692.06927490234375
v -384 -3.909869909286499 640
v -382.3048095703125 -4.0249629020690918 640
v -384 -4.9562177658081055 655.6318359375
v -384 -4.3938531875610352 697.00616502761841
v -349.33734130859375 -5.4479150772094727 658.47723388671875
v -377.87786865234375 -5.3459267616271973 723.9818115234375
v -347.65884399414062 -6.7129611968994141 690.3912353515625
v -384 -4.991671085357666 724.30401611328125
v -363.10504150390625 -4.2207918167114258 640
v -384 -5.4357662200927734 748.8687744140625
v -376.196533203125 -6.0217409133911133 755.8939208984375
v -384 -5.4545388221740723 756.30426025390625
v -384 -5.3932318687438965 764.568603515625
v -384 -5.4284567832946777 768
v -375.558349609375 -6.2046980857849121 768
v -344.29830932617188 -8.49689769744873 754.216796875
v -356.69754028320312 -7.6791090965271 768
v -345.98001098632812 -7.9011597633361816 722.30499267578125
v -350.306884765625 -4.2645797729492188 640
v -332.70986938476562 -3.6584799289703369 640
v -317.42492699623108 -4.9825038909912109 656.7906494140625
v -315.75100708007812 -7.1874752044677734 688.707763671875
v -343.56979370117188 -8.3219881057739258 768
v -312.39007616043091 -8.8879184722900391 752.53302001953125
v -326.30508422851562 -8.5214414596557617 768
v -314.0643310546875 -6.7511911392211914 720.6162109375
v -318.30401599407196 -3.5153090953826904 640
v -302.31607055664062 -3.8214399814605713 640
v -285.52392578125 -6.8767290115356445 655.11175537109375
v -283.84030151367188 -7.0724568367004395 687.0223388671875
v -311.57403564453125 -8.9832239151000977 768
v -280.48239135742188 -9.3934946060180664 750.849609375
v -295.91241455078125 -9.2357711791992188 768
v -282.1591796875 -7.7841019630432129 718.93450927734375
v -286.31170654296875 -4.8801298141479492 640
v -271.92486572265625 -5.3434758186340332 640
v -256 -6.5423507690429688 656.07965087890625
v -256 -6.525306224822998 653.55169677734375
v -256 -5.2340998649597168 640
v -256 -6.346473217010498 651.67474365234375
v -256 -7.7136797904968262 685.5540771484375
v -256 -7.9550471305847168 717.55364990234375
v -256 -8.25905704498291 723.6405029296875
v -265.51959228515625 -9.8796405792236328 768
v -279.58050537109375 -10.09269905090332 768
v -256 -8.9687347412109375 749.5555419921875
v -256 -9.2956485748291016 757.42047119140625
v -256 -7.8042101860046387 689.85919189453125
v -256 -10.218279838562012 768
vt 0.78867900371551514 0.00870901346206665
vt 0.81237202882766724 0.028590977191925049
vt 0.81056398153305054 0.0079209804534912109
vt 0.57025402784347534 0.016165971755981445
vt 0.57316499948501587 0.049453020095825195
vt 0.96333402395248413 0.0019279718399047852
vt 0.96377700567245483 0.014684021472930908
vt 0.845736026763916 0.0065420269966125488
vt 0.53494298458099365 0.017377018928527832
vt 0.83319902420043945 0.26772797107696533
vt 0.33396199345588684 0.070565998554229736
vt 0.593891978263855 0.28907102346420288
vt 0.32996401190757751 0.024707019329071045
vt 0.96934598684310913 0.15881198644638062
vt 0.14552000164985657 0.031260013580322266
vt 0.0947749987244606 0.0915910005569458
vt 0.089694000780582428 0.033071994781494141
vt 0.027645999565720558 0.035161018371582031
vt 0.0019160000374540687 0.035880982875823975
vt 0.0040440000593662262 0.099525988101959229
vt 0.11542999744415283 0.33137202262878418
vt 0.0088120000436902046 0.24155998229980469
vt 0.3546069860458374 0.31039297580718994
vt 0.97193902730941772 0.25552499294281006
vt 0.976917028427124 0.38769799470901489
vt 0.85472500324249268 0.506846010684967
vt 0.615011990070343 0.52818998694419861
vt 0.012125000357627869 0.34032398462295532
vt 0.13616999983787537 0.57052001357078552
vt 0.016505999490618706 0.46995002031326294
vt 0.37596899271011353 0.54968199133872986
vt 0.98101902008056641 0.49571502208709717
vt 0.9854310154914856 0.61539500951766968
vt 0.87511301040649414 0.74637299776077271
vt 0.63597899675369263 0.76732100546360016
vt 0.020266000181436539 0.58071601390838623
vt 0.1571819931268692 0.80965200066566467
vt 0.024375999346375465 0.69830900430679321
vt 0.39711099863052368 0.78887799382209778
vt 0.98928499221801758 0.73581999540328979
vt 0.99321401119232178 0.84387899935245514
vt 0.87554997205734253 0.96828899905085564
vt 0.89452898502349854 0.96763100102543831
vt 0.99808299541473389 0.96341000124812126
vt 0.910057008266449 0.96693800017237663
vt 0.6540989875793457 0.97601800039410591
vt 0.41440299153327942 0.98490200005471706
vt 0.36815100908279419 0.9861880000680685
vt 0.032366000115871429 0.92655400186777115
vt 0.028571000322699547 0.82109099626541138
vt 0.17352800071239471 0.99312100000679493
vt 0.11443299800157547 0.99521300010383129
vt 0.62231701612472534 0.97756299935281277
vt 0.034710001200437546 0.99807199998758733
vn 0.025395000353455544 0.999517023563385 -0.01793299987912178
vn 0.028054999187588692 0.9992939829826355 0.024971999228000641
vn 0.066358998417854309 0.99693202972412109 0.041519999504089355
vn 0.013538000173866749 0.999629020690918 -0.02364099957048893
vn 0.03815000131726265 0.99927198886871338 -0.000522000016644597
vn 0.0675870031118393 0.99548602104187012 0.066634997725486755
vn 0.039900001138448715 0.996874988079071 0.0681840032339096
vn 0.06758599728345871 0.99548602104187012 0.066634997725486755
vn 0.048395998775959015 0.99875098466873169 0.012382999993860722
vn 0.00075599999399855733 0.99893397092819214 0.046163000166416168
vn 0.068375997245311737 0.997439980506897 0.020956000313162804
vn 0.041152998805046082 0.998416006565094 0.038364998996257782
vn 0.058800000697374344 0.99807202816009521 0.019888000562787056
vn 0.00522099994122982 0.9978489875793457 0.065352000296115875
vn 0.062424998730421066 0.99795299768447876 0.013899999670684338
vn 0.076226003468036652 0.997044026851654 0.0095880003646016121
vn 0.072357997298240662 0.9973750114440918 -0.0026060000527650118
vn 0.087021999061107636 0.99618798494338989 0.0061059999279677868
vn 0.091562002897262573 0.99574702978134155 0.010222000069916248
vn 0.0845159962773323 0.996366024017334 0.010603000409901142
vn 0.035890001803636551 0.99930000305175781 0.010590000078082085
vn 0.070206001400947571 0.99752497673034668 0.0039710002020001411
vn 0.029048999771475792 0.9993709921836853 0.020339999347925186
vn -0.014853999949991703 0.9977949857711792 0.064681001007556915
vn -0.016424000263214111 0.99651902914047241 0.081729002296924591
vn 0.024522999301552773 0.99660402536392212 0.07860100269317627
vn 0.0084750000387430191 0.9996340274810791 0.025705000385642052
vn 0.029611000791192055 0.999459981918335 -0.014248000457882881
vn 0.020096000283956528 0.9993169903755188 0.0310210008174181
vn 0.016829000785946846 0.99982202053070068 -0.0085500003769993782
vn 0.0010049999691545963 0.99968701601028442 0.024994000792503357
vn 0.0041029998101294041 0.996213972568512 0.086836002767086029
vn 0.053052999079227448 0.99179399013519287 0.11632099747657776
vn 0.024033999070525169 0.99721699953079224 0.070566996932029724
vn 0.010552999563515186 0.99985301494598389 0.013527000322937965
vn 0.023471999913454056 0.99971199035644531 0.0049220002256333828
vn 0.0085479998961091042 0.99924898147583008 0.037801999598741531
vn 0.02580299973487854 0.99956899881362915 0.014022000133991242
vn 0.021291999146342278 0.9991530179977417 0.035211998969316483
vn 0.049318999052047729 0.99050897359848022 0.12829700112342835
vn 0.0035649999044835567 0.99455899000167847 0.10411699861288071
vn -0.0029980000108480453 0.99989098310470581 0.014431999996304512
vn -0.0091209998354315758 0.99858802556991577 0.052338998764753342
vn -0.0068370001390576363 0.995468020439148 0.094848997890949249
vn -0.0068370001390576363 0.995468020439148 0.094847001135349274
vn 0.024631999433040619 0.99922597408294678 0.030666999518871307
vn 0.0079539995640516281 0.99960601329803467 0.026928000152111053
vn 0.0033189998939633369 0.99899798631668091 0.044638000428676605
vn -0.0016139999497681856 0.99855697154998779 0.053668998181819916
vn 0.017477000132203102 0.99905401468276978 0.039811000227928162
vn -0.015529000200331211 0.9992939829826355 0.0342090018093586
vn -0.0033529999200254679 0.99863600730896 0.052108000963926315
vn 0.020092999562621117 0.99964702129364014 0.017387000843882561
vn 0.035415999591350555 0.99559402465820312 0.086824998259544373
f 1/1/1 2/2/2 3/3/3
f 4/4/4 2/2/2 1/1/1
f 4/4/4 5/5/5 2/2/2
f 6/6/6 2/2/2 7/7/7
f 6/6/6 8/8/8 2/2/2
f 8/8/8 3/3/3 2/2/2
f 9/9/9 5/5/5 4/4/4
f 5/5/5 10/10/10 2/2/2
f 11/11/11 12/12/12 5/5/5
f 13/13/13 5/5/5 9/9/9
f 13/13/13 11/11/11 5/5/5
f 7/7/7 2/2/2 14/14/14
f 11/11/11 15/15/15 16/16/16
f 11/11/11 13/13/13 15/15/15
f 17/17/17 18/18/18 16/16/16
f 19/19/19 16/16/16 18/18/18
f 19/19/19 20/20/20 16/16/16
f 20/20/20 21/21/21 16/16/16
f 20/20/20 22/22/22 21/21/21
f 15/15/15 17/17/17 16/16/16
f 11/11/11 16/16/16 23/23/23
f 24/24/24 10/10/10 25/25/25
f 10/10/10 12/12/12 26/26/26
f 14/14/14 10/10/10 24/24/24
f 14/14/14 2/2/2 10/10/10
f 11/11/11 23/23/23 12/12/12
f 23/23/23 27/27/27 12/12/12
f 22/22/22 28/28/28 21/21/21
f 28/28/28 29/29/29 21/21/21
f 28/28/28 30/30/30 29/29/29
f 23/23/23 21/21/21 31/31/31
f 16/16/16 21/21/21 23/23/23
f 5/5/5 12/12/12 10/10/10
f 32/32/32 26/26/26 33/33/33
f 27/27/27 26/26/26 12/12/12
f 27/27/27 34/34/34 26/26/26
f 31/31/31 35/35/35 27/27/27
f 31/31/31 27/27/27 23/23/23
f 36/36/36 29/29/29 30/30/30
f 36/36/36 37/37/37 29/29/29
f 36/36/36 38/38/38 37/37/37
f 31/31/31 29/29/29 39/39/39
f 29/29/29 31/31/31 21/21/21
f 26/26/26 25/25/25 10/10/10
f 26/26/26 32/32/32 25/25/25
f 34/34/34 33/33/33 26/26/26
f 34/34/34 40/40/40 33/33/33
f 40/40/40 34/34/34 41/41/41
f 42/42/42 34/34/34 35/35/35
f 42/42/42 43/43/43 34/34/34
f 44/44/44 41/41/41 45/45/45
f 45/45/45 34/34/34 43/43/43
f 45/45/45 41/41/41 34/34/34
f 42/42/42 35/35/35 46/46/46
f 35/35/35 34/34/34 27/27/27
f 37/37/37 39/39/39 29/29/29
f 37/37/37 47/47/47 39/39/39
f 37/37/37 48/48/48 47/47/47
f 49/49/49 37/37/37 50/50/50
f 49/49/49 51/51/51 37/37/37
f 49/49/49 52/52/52 51/51/51
f 53/53/53 39/39/39 47/47/47
f 46/46/46 39/39/39 53/53/53
f 46/46/46 35/35/35 39/39/39
f 50/50/50 37/37/37 38/38/38
f 39/39/39 35/35/35 31/31/31
f 54/54/54 52/52/52 49/49/49
f 51/51/51 48/48/48 37/37/37
