mtllib m03111.mtl
usemtl material0
v -128 -11.71873664855957 919.1864013671875
v -112.51647186279297 -10.927719116210938 901.97869873046875
v -128 -10.735440254211426 902.79571533203125
v -128 -10.921780586242676 986.75262451171875
v -109.15636444091797 -12.772998809814453 965.80419921875
v -128 -11.185770988464356 966.79467821121216
v -128 -9.8892030715942383 1015.349365234375
v -107.45069122314453 -8.4464225769042969 997.700439453125
v -128 -9.3211507797241211 998.7880859375
v -128 -10.067131042480469 1020.5368041992188
v -128 -13.047995567321777 934.80126953125
v -128 -11.655437469482422 952.96875
v -110.84552764892578 -13.717608451843262 933.8973388671875
v -80.610435485839844 -11.762245178222656 900.2962646484375
v -78.9306411743164 -12.735271453857422 932.209228515625
v -100.71778869628906 -8.1205911636352539 1024
v -75.5365219116211 -7.62130880355835 996.0128173828125
v -106.06137084960938 -8.2603530883789062 1024
v -77.238700866699219 -11.225240707397461 964.11431884765625
v -128 -10.057616233825684 1024
v -112.83191680908203 -10.893397331237793 896
v -107.13680267333984 -10.619897842407227 896
v -128 -10.700976371765137 896
v -128 -10.712529182434082 898.2779541015625
v -76.744438171386719 -11.462122917175293 896
v -80.835494995117188 -11.417055130004883 896
v -47.008266448974609 -10.230310440063477 930.5162353515625
v -45.316932678222656 -8.8462553024292 962.4217529296875
v -74.0565414428711 -7.1260719299316406 1024
v -48.687076568603516 -9.0575809478759766 898.6026611328125
v -43.626380920410156 -7.6226539611816406 994.32781982421875
v -70.321625232696533 -7.122748851776123 1024
v -48.824623107910156 -9.0867271423339844 896
v -46.345302581787109 -8.9846639633178711 896
v -13.397991180419922 -7.0530099868774414 960.73107898235321
v -15.090278625488281 -8.62798023223877 928.826171875
v -42.052085876464844 -6.0694451332092285 1024
v -11.719089508056641 -8.20485782623291 992.64459228515625
v -39.925392150878906 -6.1022849082946777 1024
v -16.771862030029297 -8.0226240158081055 896.914306640625
v -15.949100494384766 -7.959327220916748 896
v -16.820144653320312 -8.0253086090087891 896
v 0 -7.726747989654541 896.02783203125
v 0 -7.7481470108032227 897.106201171875
v 0 -8.0447912216186523 912.0550537109375
v 0 -7.0245118141174316 960.02349900081754
v 0 -7.7320389747619629 979.6202392578125
v -10.066028594970703 -8.6422328948974609 1024
v 0 -7.92443323135376 992.02496337890625
v 0 -8.2427167892456055 1013.008544921875
v -9.5365447998046875 -8.6299877166748047 1024
v 0 -8.2486734390258789 1013.4012451171875
v 0 -8.2006340026855469 928.028076171875
v 0 -7.3505501747131348 945.8388671875
v 0 -7.725189208984375 896
v 0 -8.0447912216186523 912.0550537109375
v 0 -8.565216064453125 1024
vt 0.78940802812576294 0.0073119997978210449
vt 0.92267000675201416 0.11885201930999756
vt 0.91253000497817993 0.0029529929161071777
vt 0.28186601400375366 0.024583995342254639
vt 0.44404101371765137 0.16183197498321533
vt 0.43153399229049683 0.019465029239654541
vt 0.0665619969367981 0.03158801794052124
vt 0.20331700146198273 0.18508100509643555
vt 0.19085299968719482 0.028460025787353516
vt 0.027623999863862991 0.032269001007080078
vt 0.671904981136322 0.011559009552001953
vt 0.53525698184967041 0.015631973743438721
vt 0.68288499116897583 0.14007502794265747
vt 0.94335997104644775 0.35775899887084961
vt 0.70442098379135132 0.37900799512863159
vt 0.00812199991196394 0.24333101511001587
vt 0.22534799575805664 0.42392897605895996
vt 0.0065520000644028187 0.20325499773025513
vt 0.46544399857521057 0.400967001914978
vt 0.0016550000291317701 0.033142983913421631
vt 0.96741902828216553 0.11493301391601563
vt 0.96899199485778809 0.15759402513504028
vt 0.96348702907562256 0.0011879801750183106
vt 0.94640600681304932 0.001779019832611084
vt 0.97669297456741333 0.38558602333068848
vt 0.9756159782409668 0.35490900278091431
vt 0.72639197111129761 0.618584007024765
vt 0.48702800273895264 0.640502005815506
vt 0.015936000272631645 0.44335299730300903
vt 0.965395987033844 0.59745898842811584
vt 0.24776600301265717 0.66263100504875183
vt 0.017066000029444695 0.47135299444198608
vt 0.98486900329589844 0.59565401077270508
vt 0.98559898138046265 0.61425700783729553
vt 0.50867700576782227 0.879721000790596
vt 0.74801701307296753 0.85772199928760529
vt 0.025428999215364456 0.68273499608039856
vt 0.26951399445533752 0.9014120027422905
vt 0.02603599987924099 0.69868201017379761
vt 0.986873984336853 0.83641199767589569
vt 0.99395602941513062 0.84234799444675446
vt 0.99371600151062012 0.83579899370670319
vt 0.99813598394393921 0.96194100007414818
vt 0.99004900455474854 0.96223299950361252
vt 0.87794202566146851 0.96630899980664253
vt 0.5178229808807373 0.97996900044381618
vt 0.37059199810028076 0.98553199972957373
vt 0.034931998699903488 0.92334599792957306
vt 0.27757900953292847 0.98911700025200844
vt 0.12041299790143967 0.99550499999895692
vt 0.035092998296022415 0.92731700092554092
vt 0.11746799945831299 0.9956240002065897
vt 0.75788301229476929 0.97071699984371662
vt 0.62419897317886353 0.97589400038123131
vt 0.9983450174331665 0.96193299815058708
vt 0.87794202566146851 0.96630899980664253
vt 0.037974998354911804 0.998812000034377
vn 0.036853000521659851 0.996196985244751 0.078953996300697327
vn 0.015960000455379486 0.99853998422622681 0.05159899964928627
vn 0.014171999879181385 0.99934202432632446 0.033397998660802841
vn -0.018273999914526939 0.9943770170211792 -0.10431099683046341
vn 0.000750000006519258 0.99764502048492432 -0.06859000027179718
vn 0.082703001797199249 0.996304988861084 -0.023151999339461327
vn -0.040693998336791992 0.998583972454071 0.034251000732183456
vn -0.045024998486042023 0.99713701009750366 -0.060743998736143112
vn -0.04492500051856041 0.99792098999023438 -0.046209000051021576
vn -0.072116002440452576 0.99737900495529175 0.0058909999206662178
vn 0.039083998650312424 0.99923497438430786 0.0015099999727681279
vn 0.071154996752738953 0.9965050220489502 -0.043747998774051666
vn 0.017632000148296356 0.99972999095916748 0.01512099988758564
vn -0.022173000499606133 0.99839097261428833 0.052184000611305237
vn -0.057587001472711563 0.998337984085083 -0.0023560000117868185
vn -0.029115000739693642 0.99954098463058472 -0.0083640003576874733
vn -0.026280000805854797 0.99824702739715576 -0.053025998175144196
vn -0.052979998290538788 0.99858599901199341 -0.0042659998871386051
vn -0.063018999993801117 0.99491101503372192 -0.078622996807098389
vn -0.081647999584674835 0.99665701389312744 -0.0027379998937249184
vn -0.016634000465273857 0.99984002113342285 0.0066169998608529568
vn 0.0093550002202391624 0.998166024684906 0.059810001403093338
vn 0.012684999965131283 0.99990701675415039 0.0050710001960396767
vn 0.012684999965131283 0.99990701675415039 0.0050710001960396767
vn -0.059291001409292221 0.99810701608657837 0.016371000558137894
vn 0.020920999348163605 0.99665600061416626 0.078982003033161163
vn -0.061657998710870743 0.99809402227401733 -0.0027499999850988388
vn -0.057633999735116959 0.99719500541687012 -0.047752000391483307
vn -0.018467999994754791 0.99968999624252319 -0.01671300083398819
vn -0.057812999933958054 0.9981989860534668 0.016046000644564629
vn -0.0061460002325475216 0.99948900938034058 -0.0313589982688427
vn -0.010587000288069248 0.9995959997177124 -0.026365999132394791
vn -0.063707001507282257 0.99793797731399536 -0.007809000089764595
vn -0.034784000366926193 0.99938899278640747 -0.00329799996688962
vn -0.0236820001155138 0.99965500831604 -0.011363999918103218
vn -0.039367999881505966 0.99913102388381958 -0.013671999797224999
vn -0.0099910004064440727 0.99861001968383789 -0.051743000745773315
vn 0.0088809998705983162 0.99986898899078369 0.013539000414311886
vn 0.033927001059055328 0.99875897169113159 -0.0364530012011528
vn -0.033481001853942871 0.99925398826599121 0.019255999475717545
vn -0.030896000564098358 0.99866801500320435 0.041335001587867737
vn -0.053293000906705856 0.99857902526855469 -0.00011800000356743112
vn -0.015591000206768513 0.9991379976272583 0.038486998528242111
vn -0.016586000099778175 0.99966597557067871 0.0198379997164011
vn -0.016587000340223312 0.99966597557067871 0.019836999475955963
vn -0.0018329999875277281 0.999983012676239 0.0055619999766349792
vn -0.005555999930948019 0.99949502944946289 0.03128499910235405
vn 0.029039999470114708 0.99950098991394043 0.012411000207066536
vn -0.02310900017619133 0.99961501359939575 0.015339000150561333
vn -0.023118000477552414 0.99961799383163452 0.015162000432610512
vn -0.018761999905109406 0.999642014503479 0.019082000479102135
vn -0.019310999661684036 0.99964100122451782 0.018588000908493996
vn -0.029255000874400139 0.99940997362136841 -0.018002999946475029
vn -0.02439500018954277 0.99882400035858154 -0.041903000324964523
vn -0.014655999839305878 0.99832898378372192 0.055895999073982239
vn -0.027791999280452728 0.99956601858139038 0.0097519997507333755
vn -0.0067889997735619545 0.99953097105026245 0.029851999133825302
f 1/1/1 2/2/2 3/3/3
f 4/4/4 5/5/5 6/6/6
f 7/7/7 8/8/8 9/9/9
f 7/7/7 10/10/10 8/8/8
f 11/11/11 12/12/12 13/13/13
f 1/1/1 13/13/13 2/2/2
f 1/1/1 11/11/11 13/13/13
f 13/13/13 14/14/14 2/2/2
f 5/5/5 15/15/15 13/13/13
f 12/12/12 5/5/5 13/13/13
f 12/12/12 6/6/6 5/5/5
f 8/8/8 16/16/16 17/17/17
f 8/8/8 18/18/18 16/16/16
f 19/19/19 5/5/5 8/8/8
f 10/10/10 18/18/18 8/8/8
f 10/10/10 20/20/20 18/18/18
f 21/21/21 2/2/2 22/22/22
f 4/4/4 8/8/8 5/5/5
f 4/4/4 9/9/9 8/8/8
f 23/23/23 2/2/2 21/21/21
f 23/23/23 24/24/24 2/2/2
f 24/24/24 3/3/3 2/2/2
f 15/15/15 14/14/14 13/13/13
f 25/25/25 26/26/26 14/14/14
f 17/17/17 19/19/19 8/8/8
f 27/27/27 15/15/15 19/19/19
f 28/28/28 19/19/19 17/17/17
f 29/29/29 17/17/17 16/16/16
f 15/15/15 30/30/30 14/14/14
f 19/19/19 15/15/15 5/5/5
f 14/14/14 22/22/22 2/2/2
f 14/14/14 26/26/26 22/22/22
f 29/29/29 31/31/31 17/17/17
f 29/29/29 32/32/32 31/31/31
f 33/33/33 30/30/30 34/34/34
f 25/25/25 30/30/30 33/33/33
f 25/25/25 14/14/14 30/30/30
f 27/27/27 30/30/30 15/15/15
f 19/19/19 28/28/28 27/27/27
f 28/28/28 31/31/31 35/35/35
f 36/36/36 27/27/27 28/28/28
f 37/37/37 38/38/38 31/31/31
f 37/37/37 39/39/39 38/38/38
f 32/32/32 37/37/37 31/31/31
f 17/17/17 31/31/31 28/28/28
f 40/40/40 30/30/30 27/27/27
f 41/41/41 42/42/42 40/40/40
f 36/36/36 40/40/40 27/27/27
f 36/36/36 43/43/43 40/40/40
f 36/36/36 44/44/44 43/43/43
f 44/44/44 36/36/36 45/45/45
f 38/38/38 35/35/35 31/31/31
f 38/38/38 46/46/46 35/35/35
f 38/38/38 47/47/47 46/46/46
f 48/48/48 49/49/49 38/38/38
f 48/48/48 50/50/50 49/49/49
f 50/50/50 51/51/51 52/52/52
f 50/50/50 48/48/48 51/51/51
f 48/48/48 38/38/38 39/39/39
f 53/53/53 35/35/35 54/54/54
f 53/53/53 36/36/36 35/35/35
f 35/35/35 36/36/36 28/28/28
f 40/40/40 34/34/34 30/30/30
f 40/40/40 42/42/42 34/34/34
f 43/43/43 41/41/41 40/40/40
f 43/43/43 55/55/55 41/41/41
f 53/53/53 56/56/56 36/36/36
f 49/49/49 47/47/47 38/38/38
f 57/57/57 52/52/52 51/51/51
f 46/46/46 54/54/54 35/35/35
