mtllib m03113.mtl
usemtl material0
v -128 -7.8722381591796875 817.84832763671875
v -117.55697631835938 -8.2291946411132812 806.24041748046875
v -128 -7.7806358337402344 806.79052734375
v -128 -9.1178064346313477 851.6278076171875
v -115.87626647949219 -9.01870346069336 838.15283203125
v -128 -8.326085090637207 838.79101610183716
v -128 -4.9923849105834961 774.783447265625
v -128 -5.3676638603210449 784.0716552734375
v -119.22460174560547 -4.7579050064086914 774.31939697265625
v -128 -10.104887962341309 870.7950439453125
v -128 -10.64725399017334 885.4066162109375
v -114.20013427734375 -10.744531631469727 870.0682373046875
v -128 -5.04093599319458 768
v -119.55848693847656 -4.8121809959411621 768
v -128 -5.0117688179016113 772.07513427734375
v -113.53843688964844 -4.4608659744262695 768
v -85.632064819335938 -5.206852912902832 804.54571533203125
v -83.955215454101562 -6.7849221229553223 836.46063184738159
v -87.3102798461914 -3.9093539714813232 772.631591796875
v -107.13680267333984 -10.619897842407227 896
v -82.282455444335938 -9.1977500915527344 868.37823486328125
v -112.83191680908203 -10.893397331237793 896
v -128 -10.700976371765137 896
v -87.554252624511719 -3.8032889366149902 768
v -55.399868011474609 -3.8628489971160889 770.9464111328125
v -53.724468231201172 -5.7335810661315918 802.86236572265625
v -83.142860412597656 -3.7392020225524902 768
v -76.744438171386719 -11.462122917175293 896
v -80.835494995117188 -11.417055130004883 896
v -50.373382568359375 -9.414912223815918 866.69390869140625
v -52.049446105957031 -7.6807827949523926 834.77850294113159
v -55.554855346679688 -3.7531850337982178 768
v -52.7489013671875 -3.8276779651641846 768
v -23.49462890625 -4.872291088104248 769.26458740234375
v -20.136875152587891 -7.188298225402832 833.09185802936554
v -48.824623107910156 -9.0867271423339844 896
v -18.456878662109375 -8.1162881851196289 865.00469970703125
v -46.345302581787109 -8.9846639633178711 896
v -21.823009490966797 -7.5091218948364258 801.1829833984375
v -23.561103820800781 -4.81640100479126 768
v -22.35675048828125 -4.81681489944458 768
v 0 -6.816533088684082 810.71112060546875
v 0 -6.9081358909606934 800.02880859375
v 0 -6.7361559867858887 844.4935302734375
v 0 -6.3472881317138672 832.02606200054288
v 0 -4.549476146697998 768.02301025390625
v 0 -4.6014499664306641 768.6484375
v 0 -5.289848804473877 776.9322509765625
v -15.949100494384766 -7.959327220916748 896
v -16.820144653320312 -8.0253086090087891 896
v 0 -6.7171440124511719 864.0260009765625
v 0 -6.7323169708251953 878.27581787109375
v 0 -4.549476146697998 768.02301025390625
v 0 -4.5487160682678223 768
v 0 -7.725189208984375 896
v 0 -6.7323169708251953 878.27581787109375
vt 0.58867502212524414 0.016767978668212891
vt 0.67845600843429565 0.092110991477966309
vt 0.67160999774932861 0.013859987258911133
vt 0.33512899279594421 0.026057004928588867
vt 0.43950200080871582 0.11329299211502075
vt 0.43157500028610229 0.022382020950317383
vt 0.91263502836227417 0.0043860077857971191
vt 0.84292697906494141 0.007088005542755127
vt 0.91873401403427124 0.070074021816253662
vt 0.19117599725723267 0.030786991119384766
vt 0.081522002816200256 0.034789979457855225
vt 0.20020100474357605 0.1339070200920105
vt 0.96350198984146118 0.0023519992828369141
vt 0.96600800752639771 0.065539002418518066
vt 0.93294399976730347 0.0035740137100219727
vt 0.96792900562286377 0.11075198650360107
vt 0.70039200782775879 0.33209699392318726
vt 0.46115800738334656 0.35278797149658203
vt 0.94148397445678711 0.3089110255241394
vt 0.00761799979954958 0.19384801387786865
vt 0.22148199379444122 0.37310302257537842
vt 0.0060820002108812332 0.15108698606491089
vt 0.0020699999295175076 0.0375099778175354
vt 0.976144015789032 0.30563801527023315
vt 0.96233999729156494 0.54781600832939148
vt 0.72091299295425415 0.57103198766708374
vt 0.97731798887252808 0.33898401260375977
vt 0.014999999664723873 0.42156499624252319
vt 0.014034000225365162 0.39121097326278687
vt 0.24191699922084808 0.61202999949455261
vt 0.48152300715446472 0.59178400039672852
vt 0.9844130277633667 0.54589501023292542
vt 0.98511499166488647 0.56694799661636353
vt 0.9826350212097168 0.78685399889945984
vt 0.5019490122795105 0.83076199889183044
vt 0.022551000118255615 0.6317099928855896
vt 0.26278600096702576 0.851170003414154
vt 0.023205000907182693 0.65031999349594116
vt 0.740880012512207 0.81030499935150146
vt 0.99211198091506958 0.78603899478912354
vt 0.99241399765014648 0.795072004199028
vt 0.67471200227737427 0.976384000852704
vt 0.75483697652816772 0.9737710002809763
vt 0.42124098539352417 0.98456399980932474
vt 0.51480400562286377 0.98167500086128712
vt 0.99775797128677368 0.96279300004243851
vt 0.99305301904678345 0.96300200000405312
vt 0.93073499202728271 0.96578000113368034
vt 0.030968999490141869 0.87800899893045425
vt 0.031014999374747276 0.87186899781227112
vt 0.27490100264549255 0.989741999655962
vt 0.16802699863910675 0.99340899987146258
vt 0.99775797128677368 0.96279300004243851
vt 0.99792999029159546 0.96278699859976768
vt 0.034875001758337021 0.99764800001867116
vt 0.16802699863910675 0.99340899987146258
vn 0.054701998829841614 0.99833101034164429 0.018511999398469925
vn -0.012515000067651272 0.99830299615859985 0.056876998394727707
vn 0.045759998261928558 0.99741500616073608 0.055404998362064362
vn 0.051561001688241959 0.997223973274231 0.053725000470876694
vn -0.00846800021827221 0.99898499250411987 0.044252000749111176
vn 0.059199001640081406 0.99735498428344727 0.042181998491287231
vn -0.025786999613046646 0.99951601028442383 0.017411999404430389
vn 0.03128499910235405 0.99541497230529785 0.090389996767044067
vn -0.019466999918222427 0.998744010925293 0.046170998364686966
vn 0.0485679991543293 0.99785101413726807 0.043981000781059265
vn 0.02098499983549118 0.99970102310180664 0.012539000250399113
vn -0.0059989998117089272 0.9992939829826355 0.037078000605106354
vn -0.027087999507784843 0.99960702657699585 -0.0071550002321600914
vn -0.04215100035071373 0.99909102916717529 -0.0063539999537169933
vn -0.027087999507784843 0.99960702657699585 -0.0071539999917149544
vn -0.034086000174283981 0.9992859959602356 0.016300000250339508
vn -0.03565099835395813 0.998304009437561 0.046027999371290207
vn -0.016363000497221947 0.99794197082519531 0.061994001269340515
vn -0.02196899987757206 0.99882698059082031 0.04314899817109108
vn -0.027100000530481338 0.99926602840423584 0.027063999325037003
vn -0.0053559998050332069 0.99779802560806274 0.066115997731685638
vn -0.018665000796318054 0.99980300664901733 0.0067239999771118164
vn 0.012684999965131283 0.99990701675415039 0.0050710001960396767
vn -0.020085999742150307 0.9995110034942627 0.023947000503540039
vn 0.018833000212907791 0.998786985874176 0.045487001538276672
vn 0.037546999752521515 0.99753701686859131 0.059246998280286789
vn -0.0035029998980462551 0.99943000078201294 0.0335640013217926
vn -0.014569999650120735 0.99828898906707764 0.056625999510288239
vn 0.020262999460101128 0.99666702747344971 0.079016998410224915
vn -0.023571999743580818 0.99923902750015259 0.031067000702023506
vn 0.015185999684035778 0.99860501289367676 0.050569001585245132
vn 0.013075999915599823 0.99924802780151367 0.036504000425338745
vn 0.031874999403953552 0.99866700172424316 0.0406000018119812
vn 0.016447000205516815 0.99818402528762817 0.057953998446464539
vn -0.029302999377250671 0.99949300289154053 0.012423000298440456
vn -0.062222998589277267 0.99803102016448975 -0.0078880004584789276
vn -0.052301999181509018 0.99857598543167114 0.010541999712586403
vn -0.0388219989836216 0.99922198057174683 -0.0069360001944005489
vn 0.0090849995613098145 0.99904197454452515 0.042812000960111618
vn 0.017652999609708786 0.99891000986099243 0.043219998478889465
vn -0.0086949998512864113 0.99931299686431885 0.036015000194311142
vn -0.0314599983394146 0.99943602085113525 -0.01170399971306324
vn -0.025823000818490982 0.99915397167205811 0.032014001160860062
vn -0.048381999135017395 0.99854898452758789 0.023653000593185425
vn -0.041533000767230988 0.9991300106048584 0.0036849998869001865
vn -0.0093149999156594276 0.99652200937271118 0.082813002169132233
vn -0.0093149999156594276 0.99652200937271118 0.082813002169132233
vn -0.012678000144660473 0.99673002958297729 0.079805001616477966
vn -0.059335999190807343 0.99811500310897827 0.015704000368714333
vn -0.054740998893976212 0.9985010027885437 -3.9999998989515007E-05
vn -0.075589001178741455 0.99713897705078125 1.1000000085914508E-05
vn -0.075533002614974976 0.9971429705619812 0.0010620000539347529
vn -0.011985000222921372 0.99938297271728516 0.0330130010843277
vn -0.011983999982476234 0.99938297271728516 0.033011998981237412
vn -0.014655999839305878 0.99832701683044434 0.055925000458955765
vn -0.014655999839305878 0.99832701683044434 0.055923998355865479
f 1/1/1 2/2/2 3/3/3
f 4/4/4 5/5/5 6/6/6
f 7/7/7 8/8/8 9/9/9
f 10/10/10 11/11/11 12/12/12
f 13/13/13 9/9/9 14/14/14
f 13/13/13 15/15/15 9/9/9
f 15/15/15 7/7/7 9/9/9
f 14/14/14 9/9/9 16/16/16
f 1/1/1 5/5/5 2/2/2
f 1/1/1 6/6/6 5/5/5
f 5/5/5 17/17/17 2/2/2
f 12/12/12 18/18/18 5/5/5
f 4/4/4 12/12/12 5/5/5
f 4/4/4 10/10/10 12/12/12
f 9/9/9 2/2/2 19/19/19
f 8/8/8 2/2/2 9/9/9
f 8/8/8 3/3/3 2/2/2
f 12/12/12 20/20/20 21/21/21
f 12/12/12 22/22/22 20/20/20
f 11/11/11 22/22/22 12/12/12
f 11/11/11 23/23/23 22/22/22
f 19/19/19 16/16/16 9/9/9
f 19/19/19 24/24/24 16/16/16
f 18/18/18 17/17/17 5/5/5
f 25/25/25 19/19/19 17/17/17
f 26/26/26 17/17/17 18/18/18
f 21/21/21 18/18/18 12/12/12
f 24/24/24 19/19/19 27/27/27
f 17/17/17 19/19/19 2/2/2
f 28/28/28 21/21/21 29/29/29
f 28/28/28 30/30/30 21/21/21
f 21/21/21 31/31/31 18/18/18
f 29/29/29 21/21/21 20/20/20
f 27/27/27 25/25/25 32/32/32
f 27/27/27 19/19/19 25/25/25
f 32/32/32 25/25/25 33/33/33
f 26/26/26 34/34/34 25/25/25
f 17/17/17 26/26/26 25/25/25
f 21/21/21 30/30/30 31/31/31
f 30/30/30 35/35/35 31/31/31
f 36/36/36 37/37/37 30/30/30
f 36/36/36 38/38/38 37/37/37
f 28/28/28 36/36/36 30/30/30
f 26/26/26 31/31/31 39/39/39
f 18/18/18 31/31/31 26/26/26
f 34/34/34 33/33/33 25/25/25
f 34/34/34 40/40/40 33/33/33
f 41/41/41 40/40/40 34/34/34
f 35/35/35 39/39/39 31/31/31
f 42/42/42 39/39/39 35/35/35
f 42/42/42 43/43/43 39/39/39
f 44/44/44 35/35/35 37/37/37
f 44/44/44 45/45/45 35/35/35
f 37/37/37 35/35/35 30/30/30
f 39/39/39 46/46/46 34/34/34
f 39/39/39 47/47/47 46/46/46
f 47/47/47 39/39/39 48/48/48
f 39/39/39 34/34/34 26/26/26
f 49/49/49 37/37/37 50/50/50
f 49/49/49 51/51/51 37/37/37
f 49/49/49 52/52/52 51/51/51
f 50/50/50 37/37/37 38/38/38
f 53/53/53 41/41/41 34/34/34
f 53/53/53 54/54/54 41/41/41
f 45/45/45 42/42/42 35/35/35
f 55/55/55 56/56/56 49/49/49
f 51/51/51 44/44/44 37/37/37
f 43/43/43 48/48/48 39/39/39
