mtllib m03100.mtl
usemtl material0
v -512 -4.5733199119567871 896
v -495.41683959960938 -6.5739998817443848 922.18536376953125
v -496.78756713867188 -4.2126078605651855 896
v -512 -5.6025738716125488 907.25836181640625
v -490.72393798828125 -4.8030362129211426 896
v -463.5208740234375 -9.5372028350830078 920.50970458984375
v -464.80548095703125 -7.6530299186706543 896
v -512 -7.7567768096923828 940.61456298828125
v -493.74423217773438 -9.0777626037597656 954.10314893722534
v -512 -8.8791074752807617 955.06658887863159
v -512 -6.8784389495849609 923.0618896484375
v -512 -9.71550178527832 987.06781005859375
v -492.06826782226562 -10.884572982788086 986.0186767578125
v -512 -9.0389175415039062 974.39404296875
v -461.83489990234375 -9.2397422790527344 952.41864013671875
v -512 -10.023237228393555 998.47412109375
v -490.38827514648438 -11.846482276916504 1017.9315795898438
v -441.46926879882812 -9.4752845764160156 896
v -431.61221313476562 -9.8366880416870117 918.82562255859375
v -432.81585693359375 -9.561762809753418 896
v -400.81698608398438 -9.5993556976318359 896
v -399.70004272460938 -9.3991813659667969 917.13916015625
v -411.07571411132812 -9.74472713470459 896
v -384 -9.3810281753540039 906.3927001953125
v -384 -9.80056381225586 916.311279296875
v -384 -9.0975027084350586 899.68963623046875
v -384 -9.1269645690917969 896
v -384 -9.96846866607666 931.26861572265625
v -398.01657104492188 -9.6319856643676758 949.0498046875
v -429.926025390625 -9.4982118606567383 950.734375
v -428.25424194335938 -12.164871215820313 982.65264892578125
v -384 -10.06477165222168 948.31085205078125
v -384 -10.350887298583984 961.66577100753784
v -396.34469604492188 -12.274230003356934 980.96795654296875
v -458.47659301757812 -11.506516456604004 1016.2454833984375
v -460.15704345703125 -10.646656036376953 984.3328857421875
v -394.66799926757812 -13.917281150817871 1012.8829345703125
v -384 -11.918517112731934 980.3150634765625
v -384 -12.629822731018066 992.0770263671875
v -426.57406616210938 -13.079418182373047 1014.5653686523438
v -512 -10.026242256164551 1019.0675048828125
v -495.84716796875 -11.366602897644043 1024
v -512 -10.018420219421387 1021.3167724609375
v -512 -10.009087562561035 1024
v -490.06744384765625 -11.74977970123291 1024
v -458.0655517578125 -11.170984268188477 1024
v -483.64041137695312 -11.500986099243164 1024
v -426.07308959960938 -12.496882438659668 1024
v -449.85662794113159 -11.404664993286133 1024
v -404.66824340820312 -12.987916946411133 1024
v -394.07623291015625 -12.929971694946289 1024
v -384 -13.69148063659668 1012.3189697265625
v -384 -13.133715629577637 1018.697998046875
v -384 -12.670119285583496 1024
vt 0.0015030000358819962 0.028509020805358887
vt 0.13362500071525574 0.22222501039505005
vt 0.1163019984960556 0.024223029613494873
vt 0.004503999836742878 0.11380600929260254
vt 0.16227999329566956 0.022993981838226318
vt 0.37503299117088318 0.20307302474975586
vt 0.35906499624252319 0.017925024032592773
vt 0.013234999962151051 0.36581099033355713
vt 0.15447500348091126 0.46335798501968384
vt 0.016960000619292259 0.47518199682235718
vt 0.0087360003963112831 0.23342800140380859
vt 0.023905999958515167 0.716152012348175
vt 0.17437300086021423 0.70420199632644653
vt 0.02179500088095665 0.62101998925209045
vt 0.394894003868103 0.44349700212478638
vt 0.026348000392317772 0.80225999653339386
vt 0.19430600106716156 0.94474700093269348
vt 0.535709023475647 0.012975990772247315
vt 0.61545401811599731 0.1832050085067749
vt 0.60112100839614868 0.011227011680603027
vt 0.84259897470474243 0.0038890242576599121
vt 0.85591500997543335 0.16333800554275513
vt 0.76517897844314575 0.0062429904937744141
vt 0.97196000814437866 0.078694999217987061
vt 0.97424602508544922 0.15360701084136963
vt 0.97041600942611694 0.028069019317626953
vt 0.9695659875869751 0.00022602081298828125
vt 0.97759699821472168 0.26648497581481934
vt 0.87573397159576416 0.40377300977706909
vt 0.63531398773193359 0.42363101243972778
vt 0.65547198057174683 0.66475999355316162
vt 0.98139297962188721 0.39509201049804688
vt 0.98447501659393311 0.49536597728729248
vt 0.89586901664733887 0.6446320116519928
vt 0.43473801016807556 0.92469900101423264
vt 0.41479799151420593 0.68417900800704956
vt 0.91570299863815308 0.88574200123548508
vt 0.98888701200485229 0.63658601045608521
vt 0.99155402183532715 0.72605499625205994
vt 0.67520600557327271 0.90530899912118912
vt 0.030655000358819962 0.95767100155353546
vt 0.15396299958229065 0.99165599979460239
vt 0.031099999323487282 0.97464600019156933
vt 0.031629998236894608 0.99489599978551269
vt 0.19810999929904938 0.990472000092268
vt 0.4396510124206543 0.98317299969494343
vt 0.24664600193500519 0.98903399985283613
vt 0.68098998069763184 0.976537000387907
vt 0.501317024230957 0.98153400048613548
vt 0.84248501062393188 0.971951000392437
vt 0.92242300510406494 0.96985100023448467
vt 0.99609100818634033 0.87901400029659271
vt 0.9974219799041748 0.92782100290060043
vt 0.99849700927734375 0.96798700094223022
vn -0.023607000708580017 0.99557000398635864 0.0910160019993782
vn 0.04341600090265274 0.9961010217666626 0.076796002686023712
vn 0.034421999007463455 0.995527982711792 0.087973996996879578
vn -0.021059999242424965 0.99588000774383545 0.088206000626087189
vn 0.099459998309612274 0.99172598123550415 0.08116699755191803
vn 0.0515189990401268 0.99804598093032837 0.03535899892449379
vn 0.093939997255802155 0.99301302433013916 0.071414001286029816
vn 0.0078010000288486481 0.99744302034378052 0.0710349977016449
vn 0.027466999366879463 0.99841898679733276 0.049031998962163925
vn 0.013073000125586987 0.99904400110244751 0.04171999916434288
vn -0.014898000285029411 0.99779301881790161 0.064701996743679047
vn 0.060587000101804733 0.9973750114440918 0.039648998528718948
vn 0.028795000165700912 0.99879199266433716 0.039824999868869781
vn 0.049626998603343964 0.99785298109054565 0.042739000171422958
vn 0.011322000063955784 0.99966901540756226 0.023090999573469162
vn 0.0663599967956543 0.9976000189781189 0.0197720006108284
vn 0.028030000627040863 0.99960601329803467 0.0011200000299140811
vn 0.02811099961400032 0.99921798706054688 0.027815999463200569
vn 0.0026189999189227819 0.9999960064888 0.0002899999963119626
vn 0.0092299999669194222 0.99989098310470581 0.011556000448763371
vn -0.020888999104499817 0.99974697828292847 -0.0083630001172423363
vn 0.00026199998683296144 0.99998098611831665 0.00621700007468462
vn -0.0081439996138215065 0.99996101856231689 -0.00329799996688962
vn 0.02776000089943409 0.99872201681137085 0.042243998497724533
vn 0.026984000578522682 0.99926400184631348 0.02724899910390377
vn -0.015057999640703201 0.99988001585006714 0.0037380000576376915
vn -0.028077999129891396 0.99957400560379028 -0.0079809995368123055
vn 0.029821999371051788 0.999530017375946 0.007135000079870224
vn 0.0096810003742575645 0.99934899806976318 0.034747999161481857
vn 0.0079399999231100082 0.9993249773979187 0.035854000598192215
vn 0.026172000914812088 0.99827700853347778 0.052517000585794449
vn 0.031557999551296234 0.99941402673721313 0.013265999965369701
vn -0.00928299967199564 0.99769902229309082 0.067166000604629517
vn -0.0079920003190636635 0.99762499332427979 0.068415999412536621
vn 0.016828000545501709 0.9997979998588562 -0.010951999574899674
vn 0.022072000429034233 0.99915999174118042 0.034540001302957535
vn -0.0046089999377727509 0.99983102083206177 -0.017790999263525009
vn -0.024898000061511993 0.997061014175415 0.072453998029232025
vn -0.020284999161958694 0.998308002948761 0.054496001452207565
vn 0.036538001149892807 0.99915897846221924 -0.018635999411344528
vn 0.083838000893592834 0.99647802114486694 -0.00171999994199723
vn 0.079061999917030334 0.99684000015258789 -0.0077069997787475586
vn 0.083746001124382019 0.99648100137710571 -0.0034660000819712877
vn 0.083746001124382019 0.99648100137710571 -0.0034660000819712877
vn 0.011996000073850155 0.99979102611541748 -0.016566000878810883
vn 0.0084619997069239616 0.99901002645492554 -0.043675001710653305
vn -0.018902000039815903 0.99917799234390259 -0.035868000239133835
vn 0.033966999500989914 0.99741101264953613 -0.063387997448444366
vn 0.041730999946594238 0.99735599756240845 -0.059487998485565186
vn 0.015314999967813492 0.99745702743530273 -0.069609001278877258
vn -0.015915999189019203 0.99602800607681274 -0.087609998881816864
vn -0.02195500023663044 0.99964499473571777 -0.015072000212967396
vn -0.025682000443339348 0.99586999416351318 -0.087076999247074127
vn -0.025682000443339348 0.99586999416351318 -0.087076999247074127
f 1/1/1 2/2/2 3/3/3
f 1/1/1 4/4/4 2/2/2
f 5/5/5 6/6/6 7/7/7
f 8/8/8 9/9/9 2/2/2
f 8/8/8 10/10/10 9/9/9
f 8/8/8 2/2/2 11/11/11
f 3/3/3 6/6/6 5/5/5
f 3/3/3 2/2/2 6/6/6
f 2/2/2 9/9/9 6/6/6
f 4/4/4 11/11/11 2/2/2
f 9/9/9 12/12/12 13/13/13
f 9/9/9 14/14/14 12/12/12
f 13/13/13 15/15/15 9/9/9
f 14/14/14 9/9/9 10/10/10
f 16/16/16 13/13/13 12/12/12
f 16/16/16 17/17/17 13/13/13
f 6/6/6 9/9/9 15/15/15
f 18/18/18 7/7/7 6/6/6
f 18/18/18 19/19/19 20/20/20
f 18/18/18 6/6/6 19/19/19
f 21/21/21 19/19/19 22/22/22
f 21/21/21 23/23/23 19/19/19
f 20/20/20 19/19/19 23/23/23
f 24/24/24 22/22/22 25/25/25
f 24/24/24 26/26/26 22/22/22
f 27/27/27 22/22/22 26/26/26
f 27/27/27 21/21/21 22/22/22
f 25/25/25 22/22/22 28/28/28
f 22/22/22 19/19/19 29/29/29
f 15/15/15 19/19/19 6/6/6
f 30/30/30 15/15/15 31/31/31
f 19/19/19 15/15/15 30/30/30
f 32/32/32 29/29/29 33/33/33
f 28/28/28 29/29/29 32/32/32
f 28/28/28 22/22/22 29/29/29
f 29/29/29 19/19/19 30/30/30
f 29/29/29 30/30/30 34/34/34
f 13/13/13 35/35/35 36/36/36
f 36/36/36 31/31/31 15/15/15
f 31/31/31 37/37/37 34/34/34
f 34/34/34 33/33/33 29/29/29
f 34/34/34 38/38/38 33/33/33
f 38/38/38 34/34/34 39/39/39
f 30/30/30 31/31/31 34/34/34
f 36/36/36 40/40/40 31/31/31
f 36/36/36 15/15/15 13/13/13
f 41/41/41 42/42/42 17/17/17
f 41/41/41 43/43/43 42/42/42
f 43/43/43 44/44/44 42/42/42
f 45/45/45 17/17/17 42/42/42
f 17/17/17 35/35/35 13/13/13
f 35/35/35 40/40/40 36/36/36
f 17/17/17 46/46/46 35/35/35
f 17/17/17 47/47/47 46/46/46
f 16/16/16 41/41/41 17/17/17
f 35/35/35 48/48/48 40/40/40
f 35/35/35 49/49/49 48/48/48
f 46/46/46 49/49/49 35/35/35
f 47/47/47 17/17/17 45/45/45
f 50/50/50 40/40/40 48/48/48
f 50/50/50 37/37/37 40/40/40
f 51/51/51 37/37/37 50/50/50
f 52/52/52 37/37/37 53/53/53
f 53/53/53 51/51/51 54/54/54
f 53/53/53 37/37/37 51/51/51
f 39/39/39 37/37/37 52/52/52
f 39/39/39 34/34/34 37/37/37
f 31/31/31 40/40/40 37/37/37
