mtllib m03120.mtl
usemtl material0
v -512 -6.4624271392822266 670.35931396484375
v -508.89251708984375 -6.3844900131225586 666.905517578125
v -512 -6.3020229339599609 667.06939697265625
v -512 -3.7184970378875732 640
v -510.29998779296875 -3.7721669673919678 640
v -512 -4.9955787658691406 653.380859375
v -484.67791748046875 -2.2947781085968018 640
v -512 -7.8956141471862793 699.072998046875
v -507.21575927734375 -8.0284357070922852 698.82074022293091
v -512 -5.9345211982727051 737.9249267578125
v -505.52194213867188 -6.0868048667907715 730.724365234375
v -512 -6.29234504699707 731.06707763671875
v -512 -3.835766077041626 768
v -508.66036987304688 -3.6569180488586426 768
v -512 -3.8689370155334473 767.54583740234375
v -503.82644653320312 -3.7904999256134033 762.62689208984375
v -512 -4.1966090202331543 763.05975341796875
v -512 -7.8813657760620117 704.13861100375652
v -476.9718017578125 -4.1705322265625 665.21331787109375
v -475.30422973632812 -7.7285089492797852 697.13476610183716
v -478.29156494140625 -1.8836820125579834 640
v -445.06124901771545 -4.081840991973877 663.5279541015625
v -473.6170654296875 -7.1838269233703613 729.04290771484375
v -443.38839721679688 -6.5333900451660156 695.44580078125
v -454.28372192382812 -2.2669529914855957 640
v -471.9129638671875 -3.0960490703582764 760.93963623046875
v -503.54180908203125 -3.5908300876617432 768
v -478.2650146484375 -2.9928090572357178 768
v -471.5384521484375 -2.7325270175933838 768
v -440.0087890625 -4.3437600135803223 759.25860595703125
v -447.87204000353813 -3.5914700031280518 768
v -441.7080078125 -7.405189037322998 727.3585205078125
v -446.29437303543091 -2.2770860195159912 640
v -423.88922119140625 -2.0623669624328613 640
v -413.14779663085938 -3.392874002456665 661.8406982421875
v -414.2933349609375 -1.8905789852142334 640
v -393.49737548828125 -3.2650609016418457 640
v -411.46649169921875 -4.0758981704711914 693.7528076171875
v -409.77914428710938 -3.499967098236084 725.660888671875
v -417.47784423828125 -3.5418150424957275 768
v -439.54574584960938 -4.0258760452270508 768
v -408.09555053710938 -3.7031331062316895 757.57147216796875
v -384 -5.3215208053588867 663.221923828125
v -384 -5.2691650390625 660.30712890625
v -384 -4.4821629524230957 692.30364990234375
v -384 -3.909869909286499 640
v -384 -4.9562177658081055 655.6318359375
v -384 -4.3938531875610352 697.00616502761841
v -384 -4.991671085357666 724.30401611328125
v -384 -5.4357662200927734 748.8687744140625
v -407.54483032226562 -3.665585994720459 768
v -384 -5.4545388221740723 756.30426025390625
v -387.0867919921875 -5.14461612701416 768
v -384 -5.3932318687438965 764.568603515625
v -384 -5.4284567832946777 768
vt 0.73693299293518066 0.0094209909439086914
vt 0.76379299163818359 0.031906008720397949
vt 0.76174801588058472 0.0085279941558837891
vt 0.96660298109054565 0.00087302923202514648
vt 0.96704399585723877 0.013688027858734131
vt 0.865339994430542 0.0046569705009460449
vt 0.97536599636077881 0.20698899030685425
vt 0.52033698558807373 0.01721799373626709
vt 0.52348297834396362 0.053211987018585205
vt 0.22719100117683411 0.027363002300262451
vt 0.28311100602149963 0.074331998825073242
vt 0.27893099188804626 0.025581002235412598
vt 4.9999998736893758E-05 0.035360991954803467
vt 0.00084400002378970385 0.060561001300811768
vt 0.0034809999633580446 0.035238981246948242
vt 0.042582001537084579 0.095601022243499756
vt 0.037370000034570694 0.034039974212646484
vt 0.4821699857711792 0.018534004688262939
vt 0.78609400987625122 0.27243399620056152
vt 0.54452002048492432 0.29321300983428955
vt 0.97646099328994751 0.25551998615264893
vt 0.80694901943206787 0.51243299245834351
vt 0.30445599555969238 0.31438499689102173
vt 0.5661960244178772 0.53334900736808777
vt 0.98281401395797729 0.43642199039459229
vt 0.062564000487327576 0.33500701189041138
vt 0.0021339999511837959 0.099013984203338623
vt 0.0079330001026391983 0.2895359992980957
vt 0.0098209995776414871 0.34024900197982788
vt 0.084312997758388519 0.57506000995635986
vt 0.016370000317692757 0.51866298913955688
vt 0.32574599981307983 0.55433899164199829
vt 0.98440200090408325 0.49684697389602661
vt 0.99050498008728027 0.66565200686454773
vt 0.828311026096344 0.75246599316596985
vt 0.99294900894165039 0.73805400729179382
vt 0.997759997844696 0.89509899914264679
vt 0.58831101655960083 0.77403700351715088
vt 0.3479749858379364 0.79615600407123566
vt 0.024359000846743584 0.74721100926399231
vt 0.018958000466227531 0.58146500587463379
vt 0.10545100271701813 0.81510299444198608
vt 0.82577097415924072 0.97291699983179569
vt 0.84773397445678711 0.97210700064897537
vt 0.60657298564910889 0.98060699924826622
vt 0.99994897842407227 0.96682899817824364
vt 0.88191300630569458 0.970966000109911
vt 0.571357011795044 0.982116000726819
vt 0.36567598581314087 0.99028799962252378
vt 0.17557899653911591 0.99553100019693375
vt 0.02703000046312809 0.822052001953125
vt 0.11954200267791748 0.99693899997510016
vt 0.03081200085580349 0.97576599940657616
vt 0.057255998253822327 0.99845900002401322
vt 0.031394001096487045 0.99912699998822063
vn 0.030045000836253166 0.99831897020339966 0.049559999257326126
vn -0.016435999423265457 0.99712902307510376 0.073914997279644012
vn 0.030208000913262367 0.99701201915740967 0.071093998849391937
vn 0.031412001699209213 0.99498498439788818 0.094962000846862793
vn -0.011517999693751335 0.99519497156143188 0.0972289964556694
vn 0.031412001699209213 0.99498498439788818 0.094962000846862793
vn -0.06218000128865242 0.99352800846099854 0.095058001577854156
vn 0.028937999159097672 0.9993249773979187 0.022646000608801842
vn -0.0051660002209246159 0.99993199110031128 0.010494999587535858
vn -0.048778001219034195 0.99669498205184937 -0.064962998032569885
vn -0.0167820006608963 0.99776500463485718 -0.064677998423576355
vn -0.034589998424053192 0.99786698818206787 -0.0553629994392395
vn -0.053334999829530716 0.99592399597167969 -0.072737999260425568
vn -0.042544998228549957 0.99710202217102051 -0.063064001500606537
vn -0.053334999829530716 0.99592399597167969 -0.072741001844406128
vn -0.033835001289844513 0.99777400493621826 -0.057466000318527222
vn -0.0532430000603199 0.9960629940032959 -0.070872999727725983
vn -0.020231999456882477 0.99874502420425415 -0.045823000371456146
vn -0.021841999143362045 0.995468020439148 0.092551000416278839
vn -0.011614000424742699 0.99921900033950806 0.037781998515129089
vn -0.025319000706076622 0.99547302722930908 0.091614998877048492
vn -0.011214000172913075 0.99669802188873291 0.080424003303051
vn 0.011491999961435795 0.99767100811004639 -0.0672369971871376
vn -0.042440999299287796 0.99822700023651123 0.04173700138926506
vn 0.0051799998618662357 0.99678802490234375 0.079916998744010925
vn 0.0057560000568628311 0.99702101945877075 -0.076908998191356659
vn -0.018453000113368034 0.999176025390625 -0.036152999848127365
vn -0.027639999985694885 0.99883800745010376 -0.039473000913858414
vn 6.2999999499879777E-05 0.99867701530456543 -0.051422998309135437
vn -0.0042969998903572559 0.99848097562789917 -0.054926998913288116
vn 0.04044099897146225 0.99795502424240112 -0.049506001174449921
vn -0.049731001257896423 0.99791997671127319 -0.041012998670339584
vn -0.0039659999310970306 0.99704700708389282 0.0766879990696907
vn -0.015639999881386757 0.99731600284576416 0.071529000997543335
vn 0.016930000856518745 0.998540997505188 0.051281001418828964
vn 0.0225600004196167 0.99746900796890259 0.067427001893520355
vn 0.067111998796463013 0.99554598331451416 0.066206999123096466
vn -0.03033900074660778 0.99953597784042358 0.0027250000275671482
vn -0.02327599935233593 0.99967801570892334 -0.010092999786138535
vn -0.012745999731123447 0.99955600500106812 -0.026930000633001328
vn 0.013852000236511231 0.99921697378158569 -0.037071000784635544
vn 0.030110999941825867 0.99953699111938477 -0.0043040001764893532
vn 0.053084999322891235 0.99856501817703247 0.0070159998722374439
vn 0.066435001790523529 0.99686098098754883 0.043060999363660812
vn 0.013519999571144581 0.99962097406387329 -0.023980999365448952
vn 0.0675870031118393 0.99548602104187012 0.066634997725486755
vn 0.0675870031118393 0.99548602104187012 0.066633999347686768
vn 0.024336999282240868 0.99966102838516235 -0.0092900004237890244
vn 0.058805998414754868 0.99806898832321167 0.020013000816106796
vn 0.0689150020480156 0.9976000189781189 0.0066610001958906651
vn 0.043299000710248947 0.99904501438140869 -0.0058829998597502708
vn 0.072374999523162842 0.9973750114440918 -0.0022740000858902931
vn 0.077292002737522125 0.99700498580932617 -0.0027060001157224178
vn 0.076660998165607452 0.997052013874054 -0.0032780000474303961
vn 0.091563001275062561 0.99574702978134155 0.010222000069916248
f 1/1/1 2/2/2 3/3/3
f 4/4/4 2/2/2 5/5/5
f 4/4/4 6/6/6 2/2/2
f 6/6/6 3/3/3 2/2/2
f 5/5/5 2/2/2 7/7/7
f 2/2/2 8/8/8 9/9/9
f 2/2/2 1/1/1 8/8/8
f 10/10/10 11/11/11 12/12/12
f 13/13/13 14/14/14 15/15/15
f 15/15/15 16/16/16 17/17/17
f 15/15/15 14/14/14 16/16/16
f 9/9/9 12/12/12 11/11/11
f 9/9/9 18/18/18 12/12/12
f 8/8/8 18/18/18 9/9/9
f 19/19/19 2/2/2 9/9/9
f 20/20/20 19/19/19 9/9/9
f 7/7/7 19/19/19 21/21/21
f 7/7/7 2/2/2 19/19/19
f 11/11/11 20/20/20 9/9/9
f 20/20/20 22/22/22 19/19/19
f 23/23/23 24/24/24 20/20/20
f 23/23/23 20/20/20 11/11/11
f 21/21/21 19/19/19 25/25/25
f 23/23/23 11/11/11 26/26/26
f 27/27/27 16/16/16 14/14/14
f 16/16/16 28/28/28 26/26/26
f 16/16/16 27/27/27 28/28/28
f 29/29/29 26/26/26 28/28/28
f 29/29/29 30/30/30 26/26/26
f 29/29/29 31/31/31 30/30/30
f 11/11/11 16/16/16 26/26/26
f 23/23/23 26/26/26 32/32/32
f 17/17/17 11/11/11 10/10/10
f 17/17/17 16/16/16 11/11/11
f 22/22/22 25/25/25 19/19/19
f 22/22/22 33/33/33 25/25/25
f 33/33/33 22/22/22 34/34/34
f 35/35/35 22/22/22 24/24/24
f 34/34/34 35/35/35 36/36/36
f 34/34/34 22/22/22 35/35/35
f 36/36/36 35/35/35 37/37/37
f 35/35/35 24/24/24 38/38/38
f 24/24/24 22/22/22 20/20/20
f 30/30/30 32/32/32 26/26/26
f 30/30/30 39/39/39 32/32/32
f 40/40/40 30/30/30 41/41/41
f 40/40/40 42/42/42 30/30/30
f 38/38/38 32/32/32 39/39/39
f 24/24/24 32/32/32 38/38/38
f 41/41/41 30/30/30 31/31/31
f 43/43/43 35/35/35 38/38/38
f 43/43/43 44/44/44 35/35/35
f 32/32/32 24/24/24 23/23/23
f 45/45/45 43/43/43 38/38/38
f 46/46/46 37/37/37 47/47/47
f 47/47/47 35/35/35 44/44/44
f 47/47/47 37/37/37 35/35/35
f 39/39/39 45/45/45 38/38/38
f 39/39/39 48/48/48 45/45/45
f 49/49/49 48/48/48 39/39/39
f 49/49/49 39/39/39 50/50/50
f 51/51/51 42/42/42 40/40/40
f 52/52/52 53/53/53 54/54/54
f 52/52/52 42/42/42 53/53/53
f 42/42/42 51/51/51 53/53/53
f 55/55/55 54/54/54 53/53/53
f 50/50/50 42/42/42 52/52/52
f 50/50/50 39/39/39 42/42/42
f 42/42/42 39/39/39 30/30/30
