mtllib m03101.mtl
usemtl material0
v -368.8167724609375 -9.3634738922119141 896
v -384 -9.80056381225586 916.311279296875
v -367.79385375976562 -10.214884757995606 915.45672607421875
v -384 -9.3810281753540039 906.3927001953125
v -380.6802978515625 -9.0337133407592773 896
v -384 -9.0975027084350586 899.68963623046875
v -384 -9.1269645690917969 896
v -350.28659057617188 -9.2301063537597656 896
v -384 -9.96846866607666 931.26861572265625
v -366.1112060546875 -10.617119789123535 947.36785888671875
v -304.82330322265625 -10.301022529602051 896
v -335.88372802734375 -10.209126472473145 913.77166748046875
v -303.97622680664062 -10.749069213867188 912.08831787109375
v -319.89410399645567 -10.024618148803711 896
v -336.81719970703125 -9.265350341796875 896
v -289.502685546875 -11.366049766540527 896
v -302.29824829101562 -12.114666938781738 944.00250244140625
v -272.83355712890625 -12.157825469970703 896
v -272.07342529296875 -12.257070541381836 910.4080810546875
v -334.19970703125 -10.32230281829834 945.681884765625
v -384 -10.350887298583984 961.66577100753784
v -364.43020629882812 -11.354610443115234 979.280029296875
v -384 -10.06477165222168 948.31085205078125
v -332.51412963867188 -10.111566543579102 977.591064453125
v -384 -11.918517112731934 980.3150634765625
v -362.75469970703125 -13.241798400878906 1011.19580078125
v -384 -12.629822731018066 992.0770263671875
v -270.3917236328125 -12.8521728515625 942.31982421875
v -256 -12.025966644287109 926.3255615234375
v -256 -10.892238616943359 941.55413818359375
v -256 -11.682649612426758 909.5576171875
v -256 -11.576096534729004 897.379150390625
v -256 -11.564030647277832 896
v -268.69570922851562 -10.478876113891602 974.22216796875
v -300.60366821289062 -10.038727760314941 975.90582275390625
v -256 -9.64947509765625 960.11303699761629
v -256 -9.1348838806152344 973.5478515625
v -298.9217529296875 -10.587558746337891 1007.8173828125
v -256 -9.16206169128418 985.634521484375
v -267.01458740234375 -11.193231582641602 1006.13427734375
v -330.82962036132812 -10.123785972595215 1009.5009765625
v -384 -13.69148063659668 1012.3189697265625
v -374.27310180664062 -12.41927433013916 1024
v -384 -13.133715629577637 1018.697998046875
v -384 -12.670119285583496 1024
v -343.87554931640625 -10.66139030456543 1024
v -362.07501220703125 -12.490411758422852 1024
v -330.06219482421875 -9.7201099395751953 1024
v -313.48004198074341 -9.9361639022827148 1024
v -298.06594848632812 -10.285602569580078 1024
v -283.08721923828125 -10.554439544677734 1024
v -266.06796264648438 -10.49840259552002 1024
v -256 -9.7442131042480469 1005.5484619140625
v -256 -9.8397617340087891 1012.1041870117188
v -256 -9.8970413208007812 1016.0343017578125
v -256 -9.6239023208618164 1024
vt 0.031378000974655151 0.88357900083065033
vt 0.18801200389862061 0.99220799980685115
vt 0.17737799882888794 0.87066499888896942
vt 0.11344899982213974 0.99487400008365512
vt 0.034458998590707779 0.9727219995111227
vt 0.063057996332645416 0.9966750000603497
vt 0.03534499928355217 0.9976649999152869
vt 0.026356000453233719 0.74440100789070129
vt 0.30036300420761108 0.98828599974513054
vt 0.4166400134563446 0.84965500235557556
vt 0.014601999893784523 0.40277302265167236
vt 0.15617099404335022 0.63144499063491821
vt 0.13513900339603424 0.39211100339889526
vt 0.018502000719308853 0.5159899890422821
vt 0.022754000499844551 0.6432340145111084
vt 0.010577999986708164 0.28742802143096924
vt 0.37460100650787354 0.37085098028182983
vt 0.0063149998895823956 0.16207098960876465
vt 0.11434300243854523 0.15264397859573364
vt 0.395577996969223 0.61040198802948
vt 0.52870100736618042 0.98030300065875053
vt 0.65594899654388428 0.828572005033493
vt 0.42837101221084595 0.98383899964392185
vt 0.6348080039024353 0.58932900428771973
vt 0.669268012046814 0.975314000621438
vt 0.89562302827835083 0.80732199549674988
vt 0.75777000188827515 0.97212200053036213
vt 0.35362699627876282 0.13157498836517334
vt 0.22958900034427643 0.027643024921417236
vt 0.34511300921440125 0.022596001625061035
vt 0.10362000018358231 0.032073020935058594
vt 0.012294000014662743 0.035197973251342773
vt 0.001934999949298799 0.035553991794586182
vt 0.593334972858429 0.11079901456832886
vt 0.61423200368881226 0.35005098581314087
vt 0.48483100533485413 0.01798701286315918
vt 0.5846560001373291 0.015109002590179443
vt 0.85270899534225464 0.32879698276519775
vt 0.6754310131072998 0.011708974838256836
vt 0.83265000581741333 0.089842021465301514
vt 0.87401598691940308 0.56801500916481018
vt 0.91000902652740479 0.96660400182008743
vt 0.995356023311615 0.890063002705574
vt 0.958096981048584 0.9647120013833046
vt 0.9980660080909729 0.96313999965786934
vt 0.9866030216217041 0.6607230007648468
vt 0.99171298742294312 0.79809600114822388
vt 0.98275101184844971 0.55835700035095215
vt 0.97825199365615845 0.4338030219078064
vt 0.97404301166534424 0.31800299882888794
vt 0.97060197591781616 0.20609599351882935
vt 0.96651899814605713 0.078251004219055176
vt 0.82507199048995972 0.0065760016441345215
vt 0.87431502342224121 0.004794001579284668
vt 0.90383601188659668 0.0037249922752380371
vt 0.96421700716018677 0.0023339986801147461
vn 0.010874999687075615 0.99901002645492554 0.043143998831510544
vn 0.026931000873446465 0.99929302930831909 0.026223000138998032
vn 0.011839999817311764 0.9995499849319458 0.027569999918341637
vn 0.027760999277234077 0.99872201681137085 0.042243998497724533
vn 0.012866999953985214 0.99950098991394043 0.028857000172138214
vn 0.014739999547600746 0.99942499399185181 0.030541000887751579
vn -0.028077999129891396 0.99957400560379028 -0.0079819997772574425
vn -3.9999999899009708E-06 0.99872201681137085 0.050546001642942429
vn 0.027483999729156494 0.99957501888275146 0.0097340000793337822
vn 0.0071279997937381268 0.99988901615142822 0.0131029998883605
vn 0.042971000075340271 0.99874997138977051 0.025552000850439072
vn 0.017959000542759895 0.99941498041152954 0.02910199947655201
vn 0.036290999501943588 0.99886798858642578 0.030748000368475914
vn 0.025395000353455544 0.99912500381469727 0.033222001045942307
vn 0.022972999140620232 0.99839299917221069 0.0518140010535717
vn 0.053286999464035034 0.99853301048278809 0.0096450001001358032
vn 0.028513999655842781 0.99949002265930176 -0.014400999993085861
vn 0.00749000022187829 0.99995100498199463 0.0064929998479783535
vn 0.0035610001068562269 0.99987202882766724 0.01559900026768446
vn 0.024486999958753586 0.99969899654388428 -0.0016880000475794077
vn 0.016995999962091446 0.99913102388381958 0.038051001727581024
vn -0.031452998518943787 0.99858701229095459 0.042830999940633774
vn 0.031585998833179474 0.99940598011016846 0.013790999539196491
vn -0.0077100000344216824 0.99996101856231689 -0.00419399980455637
vn -0.024942999705672264 0.99711900949478149 0.071639001369476318
vn -0.056419000029563904 0.99840599298477173 -0.0015300000086426735
vn -0.023641999810934067 0.99802398681640625 0.058217998594045639
vn -0.04544999822974205 0.99825400114059448 -0.03773299977183342
vn -0.059140998870134354 0.99824798107147217 -0.00164899998344481
vn -0.13826200366020203 0.98792201280593872 -0.069952003657817841
vn -0.034949999302625656 0.99928498268127441 0.014402000233530998
vn -0.03525099903345108 0.9993399977684021 0.008743000216782093
vn -0.03525099903345108 0.9993399977684021 0.008743000216782093
vn -0.052832998335361481 0.99837398529052734 -0.021405000239610672
vn 0.0051609999500215054 0.99971002340316772 -0.023507999256253242
vn -0.13086099922657013 0.9896090030670166 -0.059578001499176025
vn -0.10623099654912949 0.9941679835319519 -0.01856599934399128
vn 0.015549000352621079 0.99986797571182251 -0.0047989999875426292
vn -0.12251999974250794 0.9922260046005249 0.021810000762343407
vn -0.053114000707864761 0.99858599901199341 0.0021979999728500843
vn -0.030736999586224556 0.99949002265930176 -0.00861900020390749
vn -0.022199999541044235 0.99955898523330688 -0.019726000726222992
vn -0.017266999930143356 0.99668097496032715 -0.079557999968528748
vn -0.025683000683784485 0.99587100744247437 -0.087076999247074127
vn -0.025682000443339348 0.99586999416351318 -0.087076999247074127
vn -0.091361001133918762 0.99478602409362793 -0.045320000499486923
vn -0.048950999975204468 0.99723398685455322 -0.0559220016002655
vn -0.026110999286174774 0.9993090033531189 -0.026440000161528587
vn 0.015593999996781349 0.99953502416610718 -0.026205999776721
vn 0.020222000777721405 0.99960100650787354 -0.019720999523997307
vn 0.012276000343263149 0.99962002038955688 -0.024698000401258469
vn -0.0463699996471405 0.99826198816299438 -0.03636699914932251
vn -0.12925000488758087 0.99136900901794434 0.021971000358462334
vn -0.12966099381446838 0.99145299196243286 0.014449999667704105
vn -0.098103001713752747 0.99495202302932739 -0.021120000630617142
vn -0.086483001708984375 0.99566799402236938 -0.034141000360250473
f 1/1/1 2/2/2 3/3/3
f 1/1/1 4/4/4 2/2/2
f 4/4/4 5/5/5 6/6/6
f 4/4/4 1/1/1 5/5/5
f 7/7/7 6/6/6 5/5/5
f 1/1/1 3/3/3 8/8/8
f 3/3/3 9/9/9 10/10/10
f 3/3/3 2/2/2 9/9/9
f 11/11/11 12/12/12 13/13/13
f 11/11/11 14/14/14 12/12/12
f 15/15/15 12/12/12 14/14/14
f 11/11/11 13/13/13 16/16/16
f 13/13/13 12/12/12 17/17/17
f 18/18/18 13/13/13 19/19/19
f 18/18/18 16/16/16 13/13/13
f 12/12/12 8/8/8 3/3/3
f 12/12/12 15/15/15 8/8/8
f 12/12/12 3/3/3 20/20/20
f 10/10/10 21/21/21 22/22/22
f 10/10/10 23/23/23 21/21/21
f 9/9/9 23/23/23 10/10/10
f 3/3/3 10/10/10 20/20/20
f 20/20/20 10/10/10 24/24/24
f 25/25/25 22/22/22 21/21/21
f 22/22/22 24/24/24 10/10/10
f 25/25/25 26/26/26 22/22/22
f 25/25/25 27/27/27 26/26/26
f 17/17/17 20/20/20 24/24/24
f 19/19/19 17/17/17 28/28/28
f 20/20/20 17/17/17 12/12/12
f 29/29/29 28/28/28 30/30/30
f 28/28/28 31/31/31 19/19/19
f 28/28/28 29/29/29 31/31/31
f 32/32/32 19/19/19 31/31/31
f 32/32/32 18/18/18 19/19/19
f 32/32/32 33/33/33 18/18/18
f 28/28/28 17/17/17 34/34/34
f 34/34/34 17/17/17 35/35/35
f 30/30/30 34/34/34 36/36/36
f 30/30/30 28/28/28 34/34/34
f 36/36/36 34/34/34 37/37/37
f 24/24/24 38/38/38 35/35/35
f 37/37/37 34/34/34 39/39/39
f 35/35/35 40/40/40 34/34/34
f 35/35/35 17/17/17 24/24/24
f 17/17/17 19/19/19 13/13/13
f 22/22/22 41/41/41 24/24/24
f 42/42/42 43/43/43 26/26/26
f 42/42/42 44/44/44 43/43/43
f 44/44/44 45/45/45 43/43/43
f 46/46/46 26/26/26 47/47/47
f 46/46/46 41/41/41 26/26/26
f 26/26/26 41/41/41 22/22/22
f 48/48/48 41/41/41 46/46/46
f 47/47/47 26/26/26 43/43/43
f 27/27/27 42/42/42 26/26/26
f 49/49/49 41/41/41 48/48/48
f 49/49/49 38/38/38 41/41/41
f 50/50/50 38/38/38 49/49/49
f 38/38/38 51/51/51 40/40/40
f 38/38/38 50/50/50 51/51/51
f 52/52/52 40/40/40 51/51/51
f 40/40/40 39/39/39 34/34/34
f 40/40/40 53/53/53 39/39/39
f 53/53/53 40/40/40 54/54/54
f 54/54/54 40/40/40 55/55/55
f 35/35/35 38/38/38 40/40/40
f 56/56/56 40/40/40 52/52/52
f 56/56/56 55/55/55 40/40/40
f 24/24/24 41/41/41 38/38/38
