mtllib m03220.mtl
usemtl material0
v -1024 11.152552604675293 128
v -1016.0932006835938 12.862421989440918 149.64768981933594
v -1017.2431640625 11.3783597946167 128
v -1024 12.368312835693359 146.2054443359375
v -985.2418212890625 11.815520286560059 128
v -984.1805419921875 13.373405456542969 147.96086120605469
v -996.61871337890625 11.587062835693359 128
v -966.22180223464966 13.327174186706543 128
v -1024 12.393157958984375 147.02085876464844
v -1024 12.609999656677246 154.13728332519531
v -982.4971923828125 13.110530853271484 179.87185668945313
v -1014.4080810546875 12.976984024047852 181.55738830566406
v -1024 12.487257957458496 208.55706787109375
v -1012.7241821289063 12.821718215942383 213.468017578125
v -1024 12.661632537841797 182.06489562988281
v -980.81146240234375 13.3610200881958 211.78111267089844
v -950.59051513671875 12.330705642700195 178.18940734863281
v -979.13433837890625 11.735750198364258 243.69667053222656
v -1024 12.804308891296387 219.87031555175781
v -1011.0499267578125 10.59343147277832 245.38560485839844
v -1024 11.026182174682617 246.06809997558594
v -1024 10.029902458190918 256
v -1010.4947509765625 9.5072002410888672 256
v -1024 10.182523727416992 254.478515625
v -978.49041748046875 10.578465461730957 256
v -990.206298828125 10.121791839599609 256
v -959.81225599348545 10.019993782043457 256
v -947.227783203125 10.937370300292969 242.0142822265625
v -948.90179443359375 13.218879699707031 210.09649658203125
v -952.27032518386841 13.36309814453125 146.27581787109375
v -953.23535203933716 13.324438095092773 128
v -921.23980712890625 12.553629875183106 128
v -938.80303955078125 13.063798904418945 128
v -920.36273193359375 12.781699180603027 144.59269714355469
v -896 12.825186729431152 143.30604553222656
v -918.6806640625 12.235138893127441 176.50465393066406
v -896 12.687965393066406 151.29638671875
v -896 12.628974914550781 128
v -905.43450927734375 12.605746269226074 128
v -896 12.735141754150391 136.28179931640625
v -916.992431640625 13.021263122558594 208.41209411621094
v -896 12.39361572265625 175.30645751953125
v -946.494384765625 9.9180622100830078 256
v -896 12.630108833312988 185.07876586914063
v -896 12.765452384948731 207.30433654785156
v -915.31817626953125 10.791999816894531 240.32969665527344
v -896 11.6686372756958 227.30902099609375
v -914.49700927734375 9.5291280746459961 256
v -929.41845703125 9.77496337890625 256
v -896 9.6484451293945312 256
v -896 9.7588539123535156 252.6385498046875
v -899.02471923828125 9.4950122833251953 256
v -896 10.831508636474609 239.30943298339844
v -896 10.319317817687988 245.67405700683594
vt 0.00089899997692555189 0.032303988933563232
vt 0.066218003630638123 0.19410902261734009
vt 0.05191899836063385 0.030668020248413086
vt 0.0056219999678432941 0.16999000310897827
vt 0.29343599081039429 0.022605001926422119
vt 0.30665299296379089 0.173412024974823
vt 0.20756399631500244 0.025431990623474121
vt 0.43744200468063354 0.018504977226257324
vt 0.005824000108987093 0.1761469841003418
vt 0.0075860000215470791 0.22987502813339233
vt 0.32728898525238037 0.413815975189209
vt 0.086558997631073 0.43452197313308716
vt 0.020522000268101692 0.64057400822639465
vt 0.10721900314092636 0.674915999174118
vt 0.014252999797463417 0.44063800573349
vt 0.34777900576591492 0.65422001481056213
vt 0.5677340030670166 0.39330101013183594
vt 0.3680889904499054 0.89498800039291382
vt 0.023436000570654869 0.72597900032997131
vt 0.12753200531005859 0.915973000228405
vt 0.029922999441623688 0.9241349995136261
vt 0.032191000878810883 0.99911199999041855
vt 0.13420200347900391 0.99636900005862117
vt 0.031835999339818954 0.987572000361979
vt 0.3760640025138855 0.9880809998139739
vt 0.28737300634384155 0.99117499962449074
vt 0.51709097623825073 0.98375999927520752
vt 0.60895001888275146 0.87482699751853943
vt 0.58818399906158447 0.63377800583839417
vt 0.54704302549362183 0.15276497602462769
vt 0.53526097536087036 0.015084028244018555
vt 0.77679002285003662 0.0071830153465271
vt 0.64419400691986084 0.011527001857757568
vt 0.78745901584625244 0.1321989893913269
vt 0.97098797559738159 0.11640197038650513
vt 0.8081200122833252 0.37263399362564087
vt 0.97298300266265869 0.17671000957489014
vt 0.96715998649597168 0.00088798999786376953
vt 0.89606702327728271 0.0033310055732727051
vt 0.96923202276229858 0.063390016555786133
vt 0.82880097627639771 0.613074004650116
vt 0.97898101806640625 0.35791301727294922
vt 0.61799901723861694 0.98046400025486946
vt 0.981419026851654 0.43174898624420166
vt 0.9869530200958252 0.59947499632835388
vt 0.84934097528457642 0.85423000156879425
vt 0.99206602573394775 0.75066199898719788
vt 0.85948902368545532 0.97266099974513054
vt 0.74686700105667114 0.97626299969851971
vt 0.99910098314285278 0.96793799847364426
vt 0.99822098016738892 0.94255900010466576
vt 0.97624897956848145 0.96876800060272217
vt 0.994862973690033 0.84162600338459015
vt 0.99645400047302246 0.889833003282547
vn -0.033326998353004456 0.99722301959991455 -0.066593997180461884
vn -0.025194000452756882 0.9991070032119751 -0.03392999991774559
vn -0.02211499959230423 0.99749398231506348 -0.067208997905254364
vn -0.039167001843452454 0.99781197309494019 -0.053261999040842056
vn -0.048470001667737961 0.99599301815032959 -0.075157001614570618
vn -0.018598999828100204 0.999530017375946 -0.0243500005453825
vn -0.017364999279379845 0.99708002805709839 -0.07436399906873703
vn -0.021004000678658485 0.99955397844314575 -0.021213000640273094
vn -0.049143999814987183 0.99832797050476074 -0.0304189994931221
vn -0.038398999720811844 0.99919700622558594 -0.011447999626398087
vn 0.0042070001363754272 0.99998599290847778 0.003097000066190958
vn -0.018438000231981277 0.9998289942741394 0.0016110000433400273
vn -0.026954000815749168 0.99961799383163452 -0.0061920001171529293
vn -0.010218000039458275 0.99965697526931763 0.024111000820994377
vn -0.032726000994443893 0.99946099519729614 0.0025069999974220991
vn -0.0027069998905062675 0.9998130202293396 0.019153999164700508
vn 0.013651000335812569 0.99990397691726685 0.0025259999092668295
vn -0.0024510000366717577 0.99692702293396 0.078298002481460571
vn 0.018664000555872917 0.9991919994354248 0.035588998347520828
vn 0.0033370000310242176 0.99632501602172852 0.085593000054359436
vn 0.037712998688220978 0.99573302268981934 0.0842209979891777
vn 0.038481999188661575 0.99426901340484619 0.0997370034456253
vn 0.0030380000825971365 0.99481600522995 0.10164599865674973
vn 0.038481999188661575 0.99426901340484619 0.09973599761724472
vn -0.0033839999232441187 0.99558299779891968 0.093823999166488647
vn -0.032425999641418457 0.99433201551437378 0.10125599801540375
vn 0.023843999952077866 0.99594199657440186 0.086782999336719513
vn 0.0161920003592968 0.99715900421142578 0.073568999767303467
vn 0.0088759995996952057 0.99978500604629517 0.018733000382781029
vn 0.012884999625384808 0.99985200166702271 0.011416000314056873
vn 0.0088339997455477715 0.99995797872543335 -0.0025820001028478146
vn 0.013411000370979309 0.9998059868812561 -0.014450999908149242
vn 0.020617000758647919 0.99976998567581177 -0.0059150001034140587
vn 0.0079180002212524414 0.99995797872543335 0.0047289999201893806
vn -0.0016959999920800328 0.99999701976776123 0.001673000049777329
vn -0.0015739999944344163 0.99998897314071655 -0.00431999983265996
vn -0.0021510000806301832 0.99986898899078369 0.01602499932050705
vn -0.0024619998876005411 0.99991500377655029 -0.01281800027936697
vn -0.0026849999558180571 0.99991202354431152 -0.013019000180065632
vn -0.0024619998876005411 0.99991500377655029 -0.01281800027936697
vn 0.005607999861240387 0.99972701072692871 0.02267800085246563
vn -0.0072699999436736107 0.99995899200439453 -0.0053559998050332069
vn 0.0080080004408955574 0.99735301733016968 0.0722690001130104
vn -0.0035699999425560236 0.99979400634765625 -0.019972000271081924
vn 0.013411999680101872 0.999638020992279 0.023321999236941338
vn 0.0061039999127388 0.99725997447967529 0.073728002607822418
vn 0.0052089998498559 0.99782997369766235 0.0656369999051094
vn 0.0090699996799230576 0.99676501750946045 0.079853996634483337
vn 0.010514000430703163 0.9971889853477478 0.074180997908115387
vn -0.050634000450372696 0.998179018497467 0.032786000519990921
vn -0.010118000209331513 0.99755197763442993 0.069193996489048
vn -0.011893999762833118 0.99764102697372437 0.06760299950838089
vn 0.0019069999689236283 0.99720197916030884 0.07472500205039978
vn 0.0021979999728500843 0.99677497148513794 0.080214999616146088
f 1/1/1 2/2/2 3/3/3
f 1/1/1 4/4/4 2/2/2
f 5/5/5 2/2/2 6/6/6
f 5/5/5 7/7/7 2/2/2
f 3/3/3 2/2/2 7/7/7
f 5/5/5 6/6/6 8/8/8
f 9/9/9 2/2/2 4/4/4
f 9/9/9 10/10/10 2/2/2
f 2/2/2 11/11/11 6/6/6
f 12/12/12 13/13/13 14/14/14
f 12/12/12 15/15/15 13/13/13
f 10/10/10 12/12/12 2/2/2
f 10/10/10 15/15/15 12/12/12
f 11/11/11 14/14/14 16/16/16
f 14/14/14 11/11/11 12/12/12
f 11/11/11 16/16/16 17/17/17
f 16/16/16 14/14/14 18/18/18
f 2/2/2 12/12/12 11/11/11
f 19/19/19 14/14/14 13/13/13
f 19/19/19 20/20/20 14/14/14
f 19/19/19 21/21/21 20/20/20
f 22/22/22 23/23/23 24/24/24
f 24/24/24 20/20/20 21/21/21
f 24/24/24 23/23/23 20/20/20
f 25/25/25 18/18/18 26/26/26
f 23/23/23 18/18/18 20/20/20
f 23/23/23 26/26/26 18/18/18
f 18/18/18 27/27/27 28/28/28
f 18/18/18 25/25/25 27/27/27
f 14/14/14 20/20/20 18/18/18
f 29/29/29 16/16/16 18/18/18
f 30/30/30 6/6/6 11/11/11
f 8/8/8 30/30/30 31/31/31
f 8/8/8 6/6/6 30/30/30
f 32/32/32 33/33/33 34/34/34
f 16/16/16 29/29/29 17/17/17
f 30/30/30 17/17/17 34/34/34
f 35/35/35 36/36/36 37/37/37
f 35/35/35 34/34/34 36/36/36
f 31/31/31 34/34/34 33/33/33
f 31/31/31 30/30/30 34/34/34
f 38/38/38 39/39/39 40/40/40
f 40/40/40 34/34/34 35/35/35
f 40/40/40 39/39/39 34/34/34
f 36/36/36 34/34/34 17/17/17
f 39/39/39 32/32/32 34/34/34
f 36/36/36 17/17/17 41/41/41
f 11/11/11 17/17/17 30/30/30
f 37/37/37 36/36/36 42/42/42
f 27/27/27 43/43/43 28/28/28
f 29/29/29 28/28/28 41/41/41
f 44/44/44 41/41/41 45/45/45
f 29/29/29 41/41/41 17/17/17
f 41/41/41 28/28/28 46/46/46
f 44/44/44 36/36/36 41/41/41
f 44/44/44 42/42/42 36/36/36
f 45/45/45 41/41/41 47/47/47
f 48/48/48 46/46/46 49/49/49
f 43/43/43 46/46/46 28/28/28
f 43/43/43 49/49/49 46/46/46
f 50/50/50 51/51/51 52/52/52
f 48/48/48 53/53/53 46/46/46
f 48/48/48 54/54/54 53/53/53
f 54/54/54 52/52/52 51/51/51
f 54/54/54 48/48/48 52/52/52
f 47/47/47 46/46/46 53/53/53
f 47/47/47 41/41/41 46/46/46
f 18/18/18 28/28/28 29/29/29
