mtllib m03231.mtl
usemtl material0
v -633.2803955078125 5.6478948593139648 128
v -634.81512451171875 5.833158016204834 128
v -633.2039794921875 5.5971169471740723 129.45135498046875
v -640 6.2719321250915527 129.80810546875
v -640 6.3048338890075684 129.14369201660156
v -640 6.3614711761474609 128
v -631.8983154296875 5.5169000625610352 128
v -605.60711669921875 3.70645809173584 128
v -640 6.0988659858703613 153.7276611328125
v -631.52130126953125 5.1985030174255371 161.36274719238281
v -569.30023193359375 1.9305440187454224 128
v -601.05267333984375 3.4020180702209473 128
v -567.71539306640625 2.1236538887023926 158.00302124023438
v -601.2921142578125 3.4156310558319092 128
v -599.61688232421875 3.971527099609375 159.68182373046875
v -640 6.6664628982543945 193.8048859834671
v -629.83343505859375 5.8894138336181641 193.27044701576233
v -640 6.0766558647155762 170.78826904296875
v -640 5.8864049911499023 161.80831909179688
v -597.92803955078125 4.8636059761047363 191.58883699774742
v -566.026611328125 3.0118269920349121 189.91001892089844
v -640 7.4849820137023926 214.5059814453125
v -628.14349365234375 7.0253291130065918 225.17666625976563
v -640 7.2559871673583984 225.80204772949219
v -596.236572265625 6.3256869316101074 223.49394226074219
v -564.33380126953125 4.7463650703430176 221.81419372558594
v -534.1197509765625 2.30035400390625 188.22735595703125
v -594.540283203125 8.790379524230957 255.39570617675781
v -626.5076904296875 8.7767744064331055 256
v -640 8.3219585418701172 244.27867126464844
v -627.65179443359375 8.7955513000488281 256
v -640 8.3574466705322266 244.89378356933594
v -535.8087158203125 1.3823959827423096 156.32044982910156
v -540.72271728515625 1.4338539838790894 128
v -562.640869140625 6.5064802169799805 253.71830749511719
v -595.083984375 8.8002357482910156 256
v -594.50836181640625 8.7936277389526367 256
v -605.98486328125 8.8075227737426758 256
v -562.5196533203125 6.6595449447631836 256
v -593.86865234375 8.7875070571899414 256
v -534.30133056640625 5.4755120277404785 256
v -530.737548828125 5.051365852355957 252.03811645507813
v -640 8.0330963134765625 256
v -532.42584228515625 4.2697501182556152 220.13072204589844
v -537.30389404296875 1.3548229932785034 128
v -512 1.7640559673309326 128
v -529.25341796875 1.4687759876251221 128
v -512 1.7146940231323242 135.51577758789063
v -512 1.7163419723510742 142.80184936523438
v -512 1.5201950073242188 155.062744140625
v -512 1.8359110355377197 166.69117736816406
v -512 2.09100604057312 175.6680908203125
v -512 3.133929967880249 187.05667114257813
v -512 3.8877830505371094 197.85604906082153
v -512 4.5208158493041992 208.532958984375
v -512 5.480288028717041 219.04832458496094
v -512 6.9234771728515625 229.01559448242188
v -512 7.1468148231506348 241.39773559570313
v -512 7.4720859527587891 251.04112243652344
v -521.6307373046875 6.1310181617736816 256
v -512 7.4160947799682617 253.61128234863281
v -512 7.36405611038208 256
v -530.5260009765625 5.5284881591796875 256
vt 0.051996998488903046 0.029883980751037598
vt 0.040320001542568207 0.030243992805480957
vt 0.052955001592636108 0.040831983089447021
vt 0.0014519999967887998 0.045162022113800049
vt 0.0012679999927058816 0.040136992931365967
vt 0.00095100002363324165 0.031489014625549316
vt 0.062483999878168106 0.029551982879638672
vt 0.26154899597167969 0.023159027099609375
vt 0.007306000217795372 0.22584497928619385
vt 0.073537997901439667 0.28148001432418823
vt 0.53614002466201782 0.014436006546020508
vt 0.29603099822998047 0.022050976753234863
vt 0.55521899461746216 0.2407039999961853
vt 0.29421800374984741 0.022112011909484863
vt 0.31424400210380554 0.26108300685882568
vt 0.016651000827550888 0.52868101000785828
vt 0.093783996999263763 0.52216801047325134
vt 0.011443999595940113 0.35475200414657593
vt 0.0093900002539157867 0.28690099716186523
vt 0.33450800180435181 0.50177100300788879
vt 0.57526099681854248 0.48144197463989258
vt 0.021174000576138496 0.68518799543380737
vt 0.11397299915552139 0.76294800639152527
vt 0.02421100065112114 0.77052199840545654
vt 0.35430198907852173 0.74267500638961792
vt 0.59521400928497314 0.72242999076843262
vt 0.81595301628112793 0.46129900217056274
vt 0.37470200657844543 0.98397199995815754
vt 0.13310700654983521 0.99581599980592728
vt 0.028472000733017921 0.9103270024061203
vt 0.12446299940347672 0.99608800001442432
vt 0.028612999245524406 0.91498199850320816
vt 0.79591399431228638 0.22055602073669434
vt 0.75219398736953735 0.0077679753303527832
vt 0.61488300561904907 0.96345200017094612
vt 0.37073200941085815 0.98866099957376719
vt 0.37508100271224976 0.98852999974042177
vt 0.28838500380516052 0.99113999959081411
vt 0.61725497245788574 0.98061900027096272
vt 0.37991499900817871 0.98838199954479933
vt 0.82989400625228882 0.96203000098466873
vt 0.85573500394821167 0.94325999915599823
vt 0.031005999073386192 0.998920000041835
vt 0.835889995098114 0.70238599181175232
vt 0.77802598476409912 0.0069710016250610352
vt 0.96919697523117065 0.0010799765586853027
vt 0.83884602785110474 0.00509798526763916
vt 0.9709399938583374 0.05785602331161499
vt 0.97271502017974854 0.11302399635314941
vt 0.97548699378967285 0.20565700531005859
vt 0.97813898324966431 0.29353302717208862
vt 0.98018801212310791 0.36137300729751587
vt 0.982928991317749 0.44775897264480591
vt 0.98539197444915771 0.52968201041221619
vt 0.9877769947052002 0.610480010509491
vt 0.99027001857757568 0.69024199247360229
vt 0.99330598115921021 0.76549099385738373
vt 0.99601602554321289 0.859045997262001
vt 0.99827098846435547 0.93193300068378448
vt 0.92514097690582275 0.9666839987039566
vt 0.99904900789260864 0.95069799944758415
vt 0.99849098920822144 0.96874700114130974
vt 0.85777497291564941 0.96810299903154373
vn 0.1075190007686615 0.99377697706222534 0.029108000919222832
vn 0.10555599629878998 0.99342197179794312 0.044387999922037125
vn 0.086125001311302185 0.99617499113082886 0.014732999727129936
vn 0.10020399838685989 0.99458497762680054 0.027549000456929207
vn 0.10124699771404266 0.99364399909973145 0.049205999821424484
vn 0.10124699771404266 0.99364399909973145 0.049205999821424484
vn 0.075537003576755524 0.99706000089645386 0.01284599956125021
vn 0.067256003618240356 0.99752300977706909 -0.020609000697731972
vn 0.094656996428966522 0.9954339861869812 0.012269999831914902
vn 0.061057001352310181 0.998121976852417 -0.0049600000493228436
vn 0.03232099860906601 0.99944400787353516 -0.008139999583363533
vn 0.054310999810695648 0.99836498498916626 -0.017808999866247177
vn 0.037411000579595566 0.99910402297973633 -0.019797999411821365
vn 0.062160998582839966 0.9978489875793457 -0.020797999575734138
vn 0.050004001706838608 0.9985319972038269 -0.020812999457120895
vn 0.0744590014219284 0.99668699502944946 -0.032715000212192535
vn 0.05324999988079071 0.99806302785873413 -0.032175000756978989
vn 0.075993001461029053 0.99680697917938232 -0.024511000141501427
vn 0.080958999693393707 0.99671602249145508 0.0017569999909028411
vn 0.041756998747587204 0.99841398000717163 -0.037769999355077744
vn 0.036915998905897141 0.998432993888855 -0.042050998657941818
vn 0.059829000383615494 0.99793201684951782 -0.023490000516176224
vn 0.024183999747037888 0.99873298406600952 -0.044142000377178192
vn 0.01839200034737587 0.99963098764419556 -0.01999099925160408
vn 0.036194000393152237 0.99744397401809692 -0.0616069994866848
vn 0.030050000175833702 0.99791198968887329 -0.057167001068592072
vn -0.0063680000603199005 0.99875497817993164 -0.049467001110315323
vn 0.029944000765681267 0.99834001064300537 -0.04918999969959259
vn 0.0071450001560151577 0.998341977596283 -0.057107001543045044
vn 0.016381999477744102 0.99820601940155029 -0.057590000331401825
vn -0.0018110000528395176 0.99929898977279663 -0.03740600124001503
vn -0.0044630002230405807 0.999396026134491 -0.034460999071598053
vn 0.0065120002254843712 0.99988400936126709 -0.013768999837338924
vn 0.021580999717116356 0.99976098537445068 -0.0035699999425560236
vn 0.048535000532865524 0.99686801433563232 -0.062435001134872437
vn 0.00355300004594028 0.9999079704284668 -0.013110999949276447
vn 0.010490999557077885 0.99992698431015015 -0.0059279999695718288
vn -0.0014600000577047467 0.9984319806098938 -0.05596499890089035
vn 0.054290998727083206 0.996088981628418 -0.06970600038766861
vn 0.054058998823165894 0.99700301885604858 -0.055341999977827072
vn 0.026908000931143761 0.99623197317123413 -0.082448996603488922
vn -0.037702001631259918 0.99778997898101807 -0.054715000092983246
vn -0.061602000147104263 0.99767500162124634 0.029136000201106071
vn -0.029175000265240669 0.99795800447463989 -0.056827999651432037
vn 0.0051049999892711639 0.99998599290847778 -0.001243000035174191
vn -0.017111999914050102 0.99983197450637817 0.0065669999457895756
vn -0.014539999887347221 0.99989402294158936 0.00066199997672811151
vn -0.01524600014090538 0.99988102912902832 0.0022819999139755964
vn -0.011061999946832657 0.99992501735687256 0.0052180001512169838
vn -0.0060439999215304852 0.999970018863678 -0.0048489999026060104
vn -0.0068709999322891235 0.99958598613739014 -0.027938000857830048
vn -0.018654000014066696 0.99860000610351562 -0.0494999997317791
vn -0.041799001395702362 0.99586200714111328 -0.080689996480941772
vn -0.04413900151848793 0.99703800678253174 -0.06297600269317627
vn -0.051851999014616013 0.99621599912643433 -0.069755002856254578
vn -0.06489100307226181 0.99111402034759521 -0.11611700057983398
vn -0.10115499794483185 0.99281102418899536 -0.063980996608734131
vn -0.12407899647951126 0.992002010345459 -0.023142000660300255
vn -0.12848000228405 0.99168902635574341 -0.0068250000476837158
vn -0.11930099874734879 0.99285101890563965 0.0036649999674409628
vn -0.1269650012254715 0.99167197942733765 0.02160399965941906
vn -0.1269650012254715 0.99167197942733765 0.02160399965941906
vn -0.041519999504089355 0.992231011390686 -0.11727499961853027
f 1/1/1 2/2/2 3/3/3
f 4/4/4 3/3/3 5/5/5
f 5/5/5 2/2/2 6/6/6
f 5/5/5 3/3/3 2/2/2
f 1/1/1 3/3/3 7/7/7
f 7/7/7 3/3/3 8/8/8
f 3/3/3 9/9/9 10/10/10
f 3/3/3 4/4/4 9/9/9
f 11/11/11 12/12/12 13/13/13
f 14/14/14 3/3/3 15/15/15
f 14/14/14 8/8/8 3/3/3
f 10/10/10 16/16/16 17/17/17
f 10/10/10 18/18/18 16/16/16
f 18/18/18 10/10/10 19/19/19
f 17/17/17 20/20/20 15/15/15
f 17/17/17 15/15/15 10/10/10
f 14/14/14 13/13/13 12/12/12
f 14/14/14 15/15/15 13/13/13
f 15/15/15 21/21/21 13/13/13
f 3/3/3 10/10/10 15/15/15
f 17/17/17 22/22/22 23/23/23
f 17/17/17 16/16/16 22/22/22
f 24/24/24 23/23/23 22/22/22
f 17/17/17 23/23/23 20/20/20
f 20/20/20 23/23/23 25/25/25
f 21/21/21 25/25/25 26/26/26
f 25/25/25 21/21/21 20/20/20
f 21/21/21 26/26/26 27/27/27
f 23/23/23 28/28/28 25/25/25
f 15/15/15 20/20/20 21/21/21
f 24/24/24 29/29/29 23/23/23
f 24/24/24 30/30/30 29/29/29
f 30/30/30 31/31/31 29/29/29
f 30/30/30 32/32/32 31/31/31
f 33/33/33 13/13/13 21/21/21
f 9/9/9 19/19/19 10/10/10
f 34/34/34 11/11/11 13/13/13
f 25/25/25 35/35/35 26/26/26
f 36/36/36 37/37/37 28/28/28
f 36/36/36 28/28/28 38/38/38
f 28/28/28 35/35/35 25/25/25
f 28/28/28 39/39/39 35/35/35
f 28/28/28 40/40/40 39/39/39
f 23/23/23 38/38/38 28/28/28
f 23/23/23 29/29/29 38/38/38
f 40/40/40 28/28/28 37/37/37
f 41/41/41 35/35/35 39/39/39
f 41/41/41 42/42/42 35/35/35
f 43/43/43 31/31/31 32/32/32
f 44/44/44 26/26/26 35/35/35
f 34/34/34 33/33/33 45/45/45
f 34/34/34 13/13/13 33/33/33
f 46/46/46 47/47/47 48/48/48
f 49/49/49 33/33/33 50/50/50
f 48/48/48 33/33/33 49/49/49
f 48/48/48 47/47/47 33/33/33
f 47/47/47 45/45/45 33/33/33
f 50/50/50 33/33/33 51/51/51
f 52/52/52 27/27/27 53/53/53
f 51/51/51 27/27/27 52/52/52
f 51/51/51 33/33/33 27/27/27
f 53/53/53 27/27/27 54/54/54
f 26/26/26 44/44/44 27/27/27
f 21/21/21 27/27/27 33/33/33
f 55/55/55 44/44/44 56/56/56
f 44/44/44 54/54/54 27/27/27
f 44/44/44 55/55/55 54/54/54
f 56/56/56 44/44/44 57/57/57
f 58/58/58 42/42/42 59/59/59
f 42/42/42 57/57/57 44/44/44
f 42/42/42 58/58/58 57/57/57
f 60/60/60 59/59/59 42/42/42
f 60/60/60 61/61/61 59/59/59
f 61/61/61 60/60/60 62/62/62
f 60/60/60 42/42/42 63/63/63
f 41/41/41 63/63/63 42/42/42
f 35/35/35 42/42/42 44/44/44
