mtllib m03212.mtl
usemtl material0
v -728.9859619140625 10.633825302124023 256
v -722.17144775390625 10.907465934753418 262.12890625
v -722.4954833984375 10.811262130737305 256
v -762.7821044921875 9.1052455902099609 256
v -754.0889892578125 9.3613128662109375 263.81918334960938
v -754.50152587890625 9.4095554351806641 256
v -661.45037841796875 6.9803829193115234 256
v -658.37017822265625 6.817838191986084 258.77249145507812
v -658.51617431640625 6.8897910118103027 256
v -695.21533203125 9.1444215774536133 256
v -690.27044677734375 8.9265222549438477 260.45046997070312
v -690.50567626953125 8.87961483001709 256
v -768 9.3049774169921875 296.552978515625
v -752.4029541015625 9.6660728454589844 295.72824096679688
v -768 9.1615400314331055 279.28060913085938
v -768 9.4941015243530273 264.55337524414062
v -768 8.6470479965209961 313.06210279464722
v -768 9.231257438659668 258.13592529296875
v -768 9.14377498626709 256
v -768 7.27803897857666 346.84194946289062
v -750.721923828125 8.9026775360107422 327.64083909988403
v -768 8.24655532836914 328.55526733398438
v -768 7.175602912902832 380.62417602539062
v -749.04339599609375 7.6106719970703125 359.55520629882812
v -768 6.6892948150634766 360.55908203125
v -720.49017333984375 10.20003604888916 294.04135131835938
v -688.58294677734375 9.5530548095703125 292.35845947265625
v -686.90081787109375 9.0308675765991211 324.27026414871216
v -656.6785888671875 8.2949419021606445 290.67758178710938
v -718.8135986328125 8.4972047805786133 325.95712280273438
v -717.13299560546875 7.6456208229064941 357.87002563476562
v -685.22119140625 7.984461784362793 356.18380737304688
v -715.75531005859375 7.2823171615600586 384
v -721.8759765625 7.28011417388916 384
v -640 8.5946750640869141 272.14028930664062
v -640 8.8401641845703125 289.795166015625
v -640 7.9805631637573242 257.79879760742188
v -640 7.6025500297546387 305.68844604492188
v -640 7.3206238746643066 321.79888904094696
v -654.99688720703125 7.6931657791137695 322.58966088294983
v -653.31610107421875 6.8840618133544922 354.50241088867188
v -640 6.3808231353759766 336.0921630859375
v -640 8.0005483627319336 257.114501953125
v -640 8.0330963134765625 256
v -683.756103515625 7.2925758361816406 384
v -710.24859619140625 7.3365907669067383 384
v -747.75860595703125 6.4473237991333008 384
v -679.854736328125 7.153292179107666 384
v -651.75640869140625 7.3834328651428223 384
v -640 5.9951472282409668 353.80197143554688
v -649.46044921875 7.2326269149780273 384
v -640 6.3966889381408691 373.48336791992188
v -640 6.64059591293335 384
v -768 7.0199651718139648 384
vt 0.29532399773597717 0.024146974086761475
vt 0.34807100892066956 0.068405985832214355
vt 0.34405401349067688 0.022487998008728027
vt 0.041421998292207718 0.032773971557617188
vt 0.10868000239133835 0.089245975017547607
vt 0.10361000150442123 0.030664980411529541
vt 0.80307602882385254 0.0061749815940856934
vt 0.82696199417114258 0.026160001754760742
vt 0.82510602474212646 0.0053880214691162109
vt 0.549161970615387 0.015201985836029053
vt 0.58748900890350342 0.047288000583648682
vt 0.58456200361251831 0.013947010040283203
vt 0.012697000056505203 0.33848899602890015
vt 0.12957200407981873 0.3282960057258606
vt 0.00824000034481287 0.208856999874115
vt 0.0044660000130534172 0.098375976085662842
vt 0.016828000545501709 0.46249198913574219
vt 0.0028119999915361404 0.050172984600067139
vt 0.0022609999869018793 0.034129977226257324
vt 0.025097999721765518 0.71620699763298035
vt 0.15018099546432495 0.567452996969223
vt 0.020651999861001968 0.57876500487327576
vt 0.0333469994366169 0.96971599943935871
vt 0.17031900584697723 0.80679099261760712
vt 0.028131000697612762 0.81908699870109558
vt 0.36950600147247314 0.30747997760772705
vt 0.6085590124130249 0.28635001182556152
vt 0.62976199388504028 0.52541300654411316
vt 0.84773600101470947 0.26532799005508423
vt 0.38930600881576538 0.54741400480270386
vt 0.41102701425552368 0.7864920049905777
vt 0.650081992149353 0.765391007065773
vt 0.42592400312423706 0.98244299925863743
vt 0.37998500466346741 0.98388499952852726
vt 0.96850800514221191 0.12221002578735352
vt 0.97277498245239258 0.2547299861907959
vt 0.96488499641418457 0.014477014541625977
vt 0.976984977722168 0.37353998422622681
vt 0.98132997751235962 0.49445998668670654
vt 0.86895900964736938 0.50438699126243591
vt 0.89023101329803467 0.743494987487793
vt 0.98532897233963013 0.60194998979568481
vt 0.964618980884552 0.008433997631072998
vt 0.96431398391723633 6.6995620727539062E-05
vt 0.66840201616287231 0.97382299974560738
vt 0.46958199143409729 0.98078799992799759
vt 0.18562500178813934 0.99017800018191338
vt 0.69854599237442017 0.97262400016188622
vt 0.90941697359085083 0.96505799889564514
vt 0.99020600318908691 0.73476898670196533
vt 0.926600992679596 0.96392200142145157
vt 0.99512499570846558 0.88251200318336487
vt 0.99773901700973511 0.96146300062537193
vt 0.034205999225378036 0.99507900001481175
vn -0.043127000331878662 0.999064028263092 0.0033460000995546579
vn 0.013555999845266342 0.99990701675415039 0.0012850000057369471
vn 0.01536600012332201 0.99974602460861206 -0.016504999250173569
vn -0.0029060000088065863 0.99955999851226807 -0.029503000900149345
vn -0.029449999332427979 0.999563992023468 -0.0018889999482780695
vn -0.0421379990875721 0.99907702207565308 0.0083870002999901772
vn 0.057220999151468277 0.99834901094436646 -0.0050409999676048756
vn -0.0070409998297691345 0.99991500377655029 -0.011008000001311302
vn -0.013857999816536903 0.99954801797866821 0.026670999825000763
vn 0.059847000986337662 0.99805200099945068 -0.017629999667406082
vn 0.057406000792980194 0.99825900793075562 -0.013523999601602554
vn 0.060527000576257706 0.99807202816009521 -0.013718999922275543
vn -0.022266000509262085 0.99961501359939575 0.01657399907708168
vn -0.024989999830722809 0.999584972858429 0.014310999773442745
vn -0.015581999905407429 0.99987798929214478 -0.0011010000016540289
vn 0.0091169998049736023 0.99992501735687256 -0.0081110000610351562
vn -0.032947998493909836 0.99903398752212524 0.029084999114274979
vn 0.00737799983471632 0.99913501739501953 -0.040922001004219055
vn 0.00737799983471632 0.99913501739501953 -0.040922001004219055
vn -0.043646000325679779 0.99802500009536743 0.045170001685619354
vn -0.015607000328600407 0.99915599822998047 0.037994999438524246
vn -0.035813000053167343 0.99856501817703247 0.039811000227928162
vn 0.010033000260591507 0.99950999021530151 0.029666999354958534
vn -0.016452999785542488 0.99942499399185181 0.029644999653100967
vn -0.048112999647855759 0.99880802631378174 0.0081850001588463783
vn 0.0073119997978210449 0.999688982963562 0.023829000070691109
vn 0.032806999981403351 0.999439001083374 -0.0066889999434351921
vn 0.018151000142097473 0.99947500228881836 0.026848999783396721
vn 0.0068660001270473 0.99997097253799438 -0.0033680000342428684
vn -0.00152299995534122 0.99912601709365845 0.041777998208999634
vn -0.0054899998940527439 0.99975699186325073 0.021339999511837959
vn 0.014701999723911285 0.99953597784042358 0.026674000546336174
vn -0.0052660000510513782 0.99988597631454468 0.014179999940097332
vn -0.0077769998461008072 0.99972397089004517 0.022161999717354774
vn -0.057911999523639679 0.997672975063324 -0.03597399964928627
vn -0.031054999679327011 0.99905800819396973 0.0303179994225502
vn -0.063461996614933014 0.99796897172927856 -0.0055840001441538334
vn 0.011296999640762806 0.99937301874160767 0.033544998615980148
vn 0.026961000636219978 0.99880498647689819 0.040759999305009842
vn 0.039902001619338989 0.998885989189148 0.025203999131917953
vn 0.046677999198436737 0.99887901544570923 0.0078929997980594635
vn 0.057232998311519623 0.9978020191192627 0.033411998301744461
vn -0.061602998524904251 0.99767500162124634 0.029137000441551208
vn -0.061602998524904251 0.99767500162124634 0.029136000201106071
vn 0.019241999834775925 0.999530017375946 0.023848000913858414
vn -0.0067819999530911446 0.9998289942741394 0.017185000702738762
vn -0.0029430000577121973 0.99885797500610352 0.047690998762845993
vn 0.023973999544978142 0.99963498115539551 0.012445000000298023
vn 0.029916999861598015 0.99938100576400757 -0.018501000478863716
vn 0.066679000854492188 0.99777400493621826 0.001386999967508018
vn 0.0647059977054596 0.99768102169036865 -0.0210960004478693
vn 0.0648069977760315 0.9976770281791687 -0.021004000678658485
vn 0.06244099885225296 0.99778002500534058 -0.023141000419855118
vn 0.028248999267816544 0.99853998422622681 0.046036999672651291
f 1/1/1 2/2/2 3/3/3
f 4/4/4 5/5/5 6/6/6
f 7/7/7 8/8/8 9/9/9
f 10/10/10 11/11/11 12/12/12
f 5/5/5 13/13/13 14/14/14
f 5/5/5 15/15/15 13/13/13
f 15/15/15 5/5/5 16/16/16
f 5/5/5 14/14/14 2/2/2
f 17/17/17 14/14/14 13/13/13
f 4/4/4 16/16/16 5/5/5
f 4/4/4 18/18/18 16/16/16
f 18/18/18 4/4/4 19/19/19
f 20/20/20 21/21/21 22/22/22
f 23/23/23 24/24/24 25/25/25
f 14/14/14 22/22/22 21/21/21
f 14/14/14 17/17/17 22/22/22
f 21/21/21 26/26/26 14/14/14
f 2/2/2 26/26/26 11/11/11
f 8/8/8 11/11/11 27/27/27
f 12/12/12 8/8/8 7/7/7
f 12/12/12 11/11/11 8/8/8
f 27/27/27 28/28/28 29/29/29
f 27/27/27 11/11/11 26/26/26
f 10/10/10 2/2/2 11/11/11
f 10/10/10 3/3/3 2/2/2
f 27/27/27 26/26/26 28/28/28
f 25/25/25 21/21/21 20/20/20
f 25/25/25 24/24/24 21/21/21
f 21/21/21 24/24/24 30/30/30
f 28/28/28 30/30/30 31/31/31
f 30/30/30 28/28/28 26/26/26
f 31/31/31 32/32/32 28/28/28
f 31/31/31 30/30/30 24/24/24
f 26/26/26 21/21/21 30/30/30
f 33/33/33 24/24/24 34/34/34
f 33/33/33 31/31/31 24/24/24
f 8/8/8 27/27/27 29/29/29
f 14/14/14 26/26/26 2/2/2
f 35/35/35 29/29/29 36/36/36
f 29/29/29 37/37/37 8/8/8
f 29/29/29 35/35/35 37/37/37
f 36/36/36 29/29/29 38/38/38
f 39/39/39 29/29/29 40/40/40
f 39/39/39 38/38/38 29/29/29
f 28/28/28 41/41/41 40/40/40
f 39/39/39 40/40/40 42/42/42
f 40/40/40 29/29/29 28/28/28
f 43/43/43 8/8/8 37/37/37
f 43/43/43 9/9/9 8/8/8
f 43/43/43 44/44/44 9/9/9
f 45/45/45 32/32/32 46/46/46
f 47/47/47 34/34/34 24/24/24
f 32/32/32 48/48/48 41/41/41
f 32/32/32 45/45/45 48/48/48
f 46/46/46 31/31/31 33/33/33
f 46/46/46 32/32/32 31/31/31
f 49/49/49 41/41/41 48/48/48
f 50/50/50 51/51/51 52/52/52
f 50/50/50 41/41/41 51/51/51
f 41/41/41 49/49/49 51/51/51
f 53/53/53 52/52/52 51/51/51
f 42/42/42 41/41/41 50/50/50
f 42/42/42 40/40/40 41/41/41
f 28/28/28 32/32/32 41/41/41
f 54/54/54 24/24/24 23/23/23
f 54/54/54 47/47/47 24/24/24
f 1/1/1 5/5/5 2/2/2
f 1/1/1 6/6/6 5/5/5
