mtllib m03333131.mtl
usemtl material0
v -16 -0.60505598783493042 80
v -15.815245151519775 -0.62302100658416748 80.869026184082031
v -15.861036777496338 -0.60651099681854248 80
v -16 -0.61801999807357788 80.702765941619873
v -11.860905885696411 -0.56115400791168213 80
v -11.8262619972229 -0.58179700374603271 80.658248901367188
v -11.233930110931397 -0.52635198831558228 80
v -12.557848930358887 -0.57577598094940186 80
v -16 -0.62097299098968506 80.878777027130127
v -16 -0.62138998508453369 81.074378967285156
v -15.604965209960938 -0.68221199512481689 84.85797905921936
v -11.616270065307617 -0.69958001375198364 84.647408008575439
v -16 -0.67304402589797974 84.8788149356842
v -16 -0.66645300388336182 88.301750004291534
v -15.394381999969482 -0.67939698696136475 88.846724987030029
v -16 -0.64153498411178589 88.878585994243622
v -16 -0.59447300434112549 89.520027041435242
v -11.406084060668945 -0.77781802415847778 88.636421024799347
v -7.6274740099906921 -0.6964460015296936 84.436759948730469
v -16 -0.35667699575424194 92.877555847167969
v -15.182487964630127 -0.40998899936676025 92.834557056427
v -11.194853067398071 -0.64317399263381958 92.6247181892395
v -7.8369259983301163 -0.46880099177360535 80.447227001190186
v -16 -0.086686000227928162 96
v -16 -0.29302600026130676 93.743439197540283
v -15.01394510269165 -0.12752200663089752 96
v -11.014899969100952 -0.29567500948905945 96
v -14.23074197769165 -0.16952599585056305 96
v -7.2068099975585938 -0.79335701465606689 92.414597034454346
v -10.431736946105957 -0.31442001461982727 96
v -7.4172350168228149 -0.76394200325012207 88.425743013620377
v -7.86039799451828 -0.44180500507354736 80
v -7.434440016746521 -0.40728199481964111 80
v -3.6382098197937012 -0.59810298681259155 84.225784063339233
v -7.0156599879264832 -0.42554301023483276 96
v -3.2178840637207031 -0.76386100053787231 92.203856945037842
v -6.632660984992981 -0.420648992061615 96
v -3.4282760620117188 -0.72760999202728271 88.214981004595757
v -3.8468079566955566 -0.19663399457931519 80.235663890838623
v -3.8591570854187012 -0.17857299745082855 80
v -3.634768009185791 -0.18960300087928772 80
v 0 -0.43629500269889832 84.03314995765686
v 0 -0.44920501112937927 84.405106067657471
v 0 -0.66365897655487061 88.033744998276234
v 0 -0.669622004032135 88.627448976039886
v -2.833622932434082 -0.54678601026535034 96
v -3.0163798332214355 -0.54738897085189819 96
v 0 -0.76291501522064209 92.033927917480469
v 0 -0.716513991355896 92.850151062011719
v 0 -0.20682699978351593 80.182807922363281
v 0 -0.19173599779605866 80.032508850097656
v 0 -0.19075700640678406 80
v 0 -0.19148199260234833 80.024071216583252
v 0 -0.65573000907897949 95.986434936523438
v 0 -0.65546697378158569 96
vt 0.0029060000088065863 0.03571397066116333
vt 0.015809999778866768 0.087530970573425293
vt 0.011251999996602535 0.035426020622253418
vt 0.0043680001981556416 0.077925980091094971
vt 0.25150001049041748 0.02704697847366333
vt 0.25494301319122314 0.066527009010314941
vt 0.28920900821685791 0.02567899227142334
vt 0.20963600277900696 0.028518021106719971
vt 0.0047340001910924912 0.08849799633026123
vt 0.0051389997825026512 0.10024499893188477
vt 0.036747999489307404 0.32668000459671021
vt 0.275860995054245 0.30576801300048828
vt 0.013061000034213066 0.32874602079391479
vt 0.020113000646233559 0.53431698679924011
vt 0.057659998536109924 0.56579300761222839
vt 0.021265000104904175 0.56899398565292358
vt 0.022455999627709389 0.60762399435043335
vt 0.29682400822639465 0.54493799805641174
vt 0.51498198509216309 0.28490501642227173
vt 0.0286640003323555 0.809796005487442
vt 0.078119002282619476 0.80544200539588928
vt 0.31754198670387268 0.78418000042438507
vt 0.49416700005531311 0.045347988605499268
vt 0.034898001700639725 0.99807099997997284
vt 0.030268000438809395 0.86194400489330292
vt 0.094167999923229218 0.99600999988615513
vt 0.33453398942947388 0.98765799961984158
vt 0.14126899838447571 0.99432000005617738
vt 0.55679601430892944 0.76342399418354034
vt 0.36957499384880066 0.98647900018841028
vt 0.53596901893615723 0.52429100871086121
vt 0.49184399843215942 0.018487989902496338
vt 0.51749598979949951 0.017481029033660889
vt 0.75419402122497559 0.26391500234603882
vt 0.57590901851654053 0.97946999967098236
vt 0.79593199491500854 0.74256598949432373
vt 0.59891200065612793 0.97868900001049042
vt 0.77510899305343628 0.50342699885368347
vt 0.73383700847625732 0.023464024066925049
vt 0.73262602090835571 0.0092930197715759277
vt 0.74612098932266235 0.0088970065116882324
vt 0.97248399257659912 0.24451500177383423
vt 0.97317600250244141 0.26698297262191772
vt 0.980663001537323 0.4854699969291687
vt 0.98188102245330811 0.52112698554992676
vt 0.82679802179336548 0.97013700008392334
vt 0.81620097160339355 0.97047599963843822
vt 0.98884302377700806 0.72578799724578857
vt 0.9905170202255249 0.77488799393177032
vt 0.96477901935577393 0.012857019901275635
vt 0.96448498964309692 0.0037850141525268555
vt 0.96443098783493042 0.0019289851188659668
vt 0.964477002620697 0.0033749938011169434
vt 0.99706602096557617 0.9632750004529953
vt 0.997094988822937 0.96409200131893158
vn 0.010466000065207481 0.9997749924659729 0.018442999571561813
vn 0.0024880000855773687 0.99988299608230591 0.015070999972522259
vn 0.00091300002532079816 0.99981999397277832 0.018946999683976173
vn 0.010866999626159668 0.99977898597717285 0.017998000606894493
vn -0.037620000541210175 0.99873697757720947 0.03330099955201149
vn -0.020957000553607941 0.99927598237991333 0.031759001314640045
vn -0.0331059992313385 0.99797701835632324 0.054269999265670776
vn -0.012024000287055969 0.99967402219772339 0.022507999092340469
vn 0.011571000330150127 0.99989098310470581 0.0092070000246167183
vn 0.020949000492691994 0.9997209906578064 0.010904000140726566
vn 0.012377999722957611 0.99988901615142822 0.008248000405728817
vn 0.0022249999456107616 0.999675989151001 0.025342000648379326
vn 0.023493999615311623 0.99970799684524536 0.005565000232309103
vn 0.032990999519824982 0.99937200546264648 -0.012926000170409679
vn 0.038784001022577286 0.99865001440048218 -0.034559000283479691
vn 0.059216998517513275 0.99652302265167236 -0.058603998273611069
vn 0.060564000159502029 0.99562901258468628 -0.071103997528553009
vn 0.010511999949812889 0.99991297721862793 -0.0079579995945096016
vn -0.016143999993801117 0.99892199039459229 0.043529998511075974
vn 0.061140000820159912 0.99553698301315308 -0.071893997490406036
vn 0.055071000009775162 0.99538397789001465 -0.078598000109195709
vn 0.033310998231172562 0.99718201160430908 -0.067212998867034912
vn -0.043543998152017593 0.99728298187255859 0.059415001422166824
vn 0.0412059985101223 0.99500000476837158 -0.090981997549533844
vn 0.045823000371456146 0.99516701698303223 -0.086851000785827637
vn 0.047456000000238419 0.99469298124313354 -0.0912880003452301
vn 0.0353580005466938 0.99392598867416382 -0.10421399772167206
vn 0.049504000693559647 0.99424600601196289 -0.094994999468326569
vn 0.012404000386595726 0.99877697229385376 -0.04785899817943573
vn 0.032055001705884933 0.99406498670578 -0.10395500063896179
vn -0.0026130001060664654 0.99995499849319458 0.009084000252187252
vn -0.051964998245239258 0.99666702747344971 0.06288900226354599
vn -0.068152002990245819 0.99481302499771118 0.075510002672672272
vn -0.02399899996817112 0.99789398908615112 0.060267001390457153
vn 0.0090709999203681946 0.99468898773193359 -0.10252500325441361
vn -0.0019000000320374966 0.99962800741195679 -0.027218999341130257
vn 1.5999999959603883E-05 0.99593901634216309 -0.090029001235961914
vn -0.015580000355839729 0.99957597255706787 0.024590000510215759
vn -0.019271999597549438 0.99676001071929932 0.078092001378536224
vn -0.0092049995437264442 0.99699699878692627 0.076888002455234528
vn 0.013332000002264977 0.99903702735900879 0.041800998151302338
vn -0.041871000081300735 0.99799400568008423 0.047485001385211945
vn -0.036272000521421432 0.998528003692627 0.040327999740839005
vn -0.016769999638199806 0.99923402070999146 0.03535899892449379
vn -0.013625999912619591 0.99980801343917847 0.01408500038087368
vn 0.0078099998645484447 0.9988740086555481 -0.046796999871730804
vn 0.015207000076770783 0.99821597337722778 -0.057730000466108322
vn -0.00099600001703947783 0.99991101026535034 -0.013291000388562679
vn 0.0064119999296963215 0.99882400035858154 -0.048053000122308731
vn -0.0065150000154972076 0.99587398767471313 0.090516000986099243
vn 0.0021029999479651451 0.99795597791671753 0.063873998820781708
vn 0.00031800000579096377 0.999547004699707 0.030106000602245331
vn 0.00031800000579096377 0.999547004699707 0.030107000842690468
vn 0.038318999111652374 0.99907797574996948 -0.019362999126315117
vn 0.038318000733852386 0.99907797574996948 -0.019363999366760254
f 1/1/1 2/2/2 3/3/3
f 1/1/1 4/4/4 2/2/2
f 5/5/5 6/6/6 7/7/7
f 8/8/8 6/6/6 5/5/5
f 9/9/9 10/10/10 2/2/2
f 6/6/6 2/2/2 11/11/11
f 3/3/3 6/6/6 8/8/8
f 3/3/3 2/2/2 6/6/6
f 6/6/6 11/11/11 12/12/12
f 13/13/13 2/2/2 10/10/10
f 13/13/13 11/11/11 2/2/2
f 4/4/4 9/9/9 2/2/2
f 11/11/11 14/14/14 15/15/15
f 11/11/11 13/13/13 14/14/14
f 16/16/16 17/17/17 15/15/15
f 12/12/12 15/15/15 18/18/18
f 16/16/16 15/15/15 14/14/14
f 18/18/18 19/19/19 12/12/12
f 15/15/15 20/20/20 21/21/21
f 15/15/15 17/17/17 20/20/20
f 12/12/12 11/11/11 15/15/15
f 15/15/15 22/22/22 18/18/18
f 6/6/6 12/12/12 23/23/23
f 24/24/24 21/21/21 25/25/25
f 24/24/24 26/26/26 21/21/21
f 27/27/27 22/22/22 28/28/28
f 26/26/26 22/22/22 21/21/21
f 26/26/26 28/28/28 22/22/22
f 27/27/27 29/29/29 22/22/22
f 27/27/27 30/30/30 29/29/29
f 15/15/15 21/21/21 22/22/22
f 20/20/20 25/25/25 21/21/21
f 18/18/18 22/22/22 31/31/31
f 32/32/32 23/23/23 33/33/33
f 7/7/7 23/23/23 32/32/32
f 7/7/7 6/6/6 23/23/23
f 19/19/19 23/23/23 12/12/12
f 18/18/18 31/31/31 19/19/19
f 31/31/31 34/34/34 19/19/19
f 30/30/30 35/35/35 29/29/29
f 35/35/35 36/36/36 29/29/29
f 35/35/35 37/37/37 36/36/36
f 31/31/31 29/29/29 38/38/38
f 22/22/22 29/29/29 31/31/31
f 19/19/19 39/39/39 23/23/23
f 40/40/40 39/39/39 41/41/41
f 39/39/39 33/33/33 23/23/23
f 39/39/39 40/40/40 33/33/33
f 38/38/38 34/34/34 31/31/31
f 42/42/42 38/38/38 43/43/43
f 42/42/42 34/34/34 38/38/38
f 44/44/44 36/36/36 45/45/45
f 44/44/44 38/38/38 36/36/36
f 36/36/36 38/38/38 29/29/29
f 46/46/46 36/36/36 47/47/47
f 46/46/46 48/48/48 36/36/36
f 46/46/46 49/49/49 48/48/48
f 47/47/47 36/36/36 37/37/37
f 50/50/50 39/39/39 34/34/34
f 50/50/50 51/51/51 39/39/39
f 34/34/34 39/39/39 19/19/19
f 52/52/52 41/41/41 53/53/53
f 53/53/53 39/39/39 51/51/51
f 53/53/53 41/41/41 39/39/39
f 50/50/50 34/34/34 42/42/42
f 43/43/43 38/38/38 44/44/44
f 45/45/45 36/36/36 48/48/48
f 49/49/49 46/46/46 54/54/54
f 54/54/54 46/46/46 55/55/55
