mtllib m0333201.mtl
usemtl material0
v -218.99427795410156 2.7668490409851074 96
v -222.78189086914063 2.7394471168518066 96
v -218.8056640625 2.7157309055328369 99.577552795410156
v -210.9943540096283 2.79117488861084 96
v -214.3349461555481 2.8713440895080566 96
v -210.82720899581909 2.9011919498443604 99.155654907226562
v -194.99235534667969 3.264246940612793 96
v -197.44091796875 3.1512069702148438 96
v -194.87014770507813 3.2984249591827393 98.311752319335938
v -202.99389600753784 2.9195570945739746 96
v -205.88935899734497 2.8462879657745361 96
v -202.84928894042969 2.9728670120239258 98.734137535095215
v -224 3.0560569763183594 105.35160112380981
v -224 2.8830258846282959 99.851325988769531
v -224 3.2460670471191406 113.79757702350617
v -218.38284301757813 3.062161922454834 107.55388593673706
v -224 3.1667320728302 107.850182056427
v -210.40596008300781 2.922921895980835 107.13308715820313
v -224 3.278541088104248 115.84957909584045
v -217.96112060546875 3.1820158958435059 115.5309910774231
v -209.98431396484375 3.0276389122009277 115.11024498939514
v -224 3.4720919132232666 123.84871673583984
v -217.53913879394531 3.3545839786529541 123.50791168212891
v -224 3.4359230995178223 122.24355316162109
v -209.56086695194244 3.5019600391387939 123.08613586425781
v -202.00624084472656 3.1320281028747559 114.68861389160156
v -209.29984998703003 3.8215529918670654 128
v -212.54280090332031 3.7506968975067139 128
v -217.2998046875 3.7911698818206787 128
v -224 3.6133410930633545 125.29174041748047
v -220.98783874511719 3.8392040729522705 128
v -224 3.5534520149230957 124.67990112304688
v -202.42785596847534 3.034635066986084 106.71143293380737
v -224 2.8129489421844482 97.3079833984375
v -224 2.7769100666046143 96
v -224 3.8479480743408203 128
v -206.38266003131867 3.8858180046081543 128
v -201.58258104324341 3.6507821083068848 122.66436004638672
v -192 3.4380819797515869 103.56753540039063
v -194.44938659667969 3.2195699214935303 106.2895359992981
v -192 3.5126140117645264 98.159515380859375
v -192 3.5020620822906494 97.1833267211914
v -192 3.4892709255218506 96
v -192 3.4299230575561523 106.1595311164856
v -194.0269775390625 3.4790699481964111 114.26615905761719
v -192 3.5932838916778564 112.01344299968332
v -201.30036878585815 3.7554190158843994 128
v -198.7841796875 3.8493471145629883 128
v -193.60359191894531 3.9411840438842773 122.24210357666016
v -192 3.5776410102844238 114.15881299972534
v -192 3.9254629611968994 120.45970916748047
v -193.29991054534912 3.8852880001068115 128
v -192 3.9831581115722656 122.15728759765625
v -192 3.9897899627685547 123.3538818359375
v -192 3.9916219711303711 123.68445587158203
v -192 3.9401259422302246 128
vt 0.15221500396728516 0.030619978904724121
vt 0.038433000445365906 0.034569978713989258
vt 0.16160200536251068 0.13790398836135864
vt 0.39259201288223267 0.0221710205078125
vt 0.29221498966217041 0.025726974010467529
vt 0.40089300274848938 0.11685097217559815
vt 0.87328898906707764 0.0051410198211669922
vt 0.79966002702713013 0.007825016975402832
vt 0.87953400611877441 0.0744510293006897
vt 0.63296699523925781 0.013983011245727539
vt 0.54595798254013062 0.016925990581512451
vt 0.640129029750824 0.095983982086181641
vt 0.01139300037175417 0.31690299510955811
vt 0.0057729999534785748 0.15158897638320923
vt 0.020138999447226524 0.57071000337600708
vt 0.18293499946594238 0.377269983291626
vt 0.014018000103533268 0.39203298091888428
vt 0.42213299870491028 0.35602998733520508
vt 0.023058999329805374 0.632544994354248
vt 0.20413899421691895 0.616468995809555
vt 0.443342000246048 0.595223993062973
vt 0.031582999974489212 0.87289699912071228
vt 0.22532300651073456 0.8556939959526062
vt 0.029875999316573143 0.82467199862003326
vt 0.46478399634361267 0.83476600050926208
vt 0.68256700038909912 0.57405498623847961
vt 0.47771599888801575 0.98242099955677986
vt 0.38027301430702209 0.9857609998434782
vt 0.23717199265956879 0.99102600011974573
vt 0.033078998327255249 0.91645299643278122
vt 0.12637799978256226 0.994975000154227
vt 0.032444998621940613 0.897986002266407
vt 0.66136199235916138 0.33486300706863403
vt 0.0031649998854845762 0.075156986713409424
vt 0.0018240000354126096 0.035849988460540771
vt 0.035893000662326813 0.99811499996576458
vt 0.56566900014877319 0.97932399995625019
vt 0.70442301034927368 0.81363900005817413
vt 0.97153902053833008 0.22921699285507202
vt 0.90064001083374023 0.31366300582885742
vt 0.96582299470901489 0.06674802303314209
vt 0.96474099159240723 0.037432014942169189
vt 0.96342802047729492 0.0018849968910217285
vt 0.974361002445221 0.30726498365402222
vt 0.92203998565673828 0.55292999744415283
vt 0.98071801662445068 0.48317599296569824
vt 0.71838498115539551 0.97385499998927116
vt 0.79434901475906372 0.97094500064849854
vt 0.94381099939346313 0.79242199659347534
vt 0.98288899660110474 0.54757800698280334
vt 0.99002701044082642 0.7371239960193634
vt 0.95909398794174194 0.96506699919700623
vt 0.99190598726272583 0.78814500570297241
vt 0.99320101737976074 0.82408900558948517
vt 0.99356400966644287 0.83401300013065338
vt 0.9981759786605835 0.96365699917078018
vn -0.014573000371456146 0.99978101253509521 0.015053000301122665
vn 0.021880000829696655 0.9996039867401123 -0.017691999673843384
vn -0.0031789999920874834 0.99983799457550049 -0.017713999375700951
vn 0.0071769999340176582 0.99935400485992432 -0.035220999270677567
vn -0.011598000302910805 0.99992698431015015 0.0034340000711381435
vn -0.0058050001971423626 0.99983102083206177 -0.017426000908017159
vn -0.060061998665332794 0.99812698364257812 -0.011582000181078911
vn -0.042707998305559158 0.99895697832107544 -0.016123000532388687
vn -0.056120000779628754 0.99842101335525513 -0.0022690000478178263
vn -0.033206000924110413 0.99929100275039673 -0.01772800087928772
vn -0.014170000329613686 0.99943399429321289 -0.030513999983668327
vn -0.028132999315857887 0.99951398372650146 -0.013419000431895256
vn 0.019585000351071358 0.998956024646759 -0.041260998696088791
vn 0.0306209996342659 0.99909400939941406 -0.029546000063419342
vn 0.015790000557899475 0.9997590184211731 -0.015242000110447407
vn 0.011578000150620937 0.99964100122451782 -0.024173000827431679
vn 0.017115000635385513 0.99945402145385742 -0.02827100083231926
vn 0.0018970000091940165 0.99996101856231689 -0.00865199975669384
vn 0.014905000105500221 0.99968200922012329 -0.020361000671982765
vn 0.016909999772906303 0.99966698884963989 -0.019492000341415405
vn -0.0035979999229311943 0.99949800968170166 -0.031461000442504883
vn 0.014918999746441841 0.99800902605056763 -0.061289001256227493
vn 0.0053969998843967915 0.99817097187042236 -0.060217998921871185
vn 0.016452999785542488 0.99959999322891235 -0.023009000346064568
vn -0.021090000867843628 0.997871994972229 -0.061698000878095627
vn -0.030851999297738075 0.99886798858642578 -0.036214999854564667
vn -0.021893000230193138 0.99772697687149048 -0.063727997243404388
vn -0.014725999906659126 0.99732702970504761 -0.071565002202987671
vn 0.010639999993145466 0.99519902467727661 -0.097290001809597015
vn 0.010280000045895577 0.99547600746154785 -0.094453997910022736
vn 0.010607000440359116 0.99543797969818115 -0.094815000891685486
vn 0.012961000204086304 0.99515998363494873 -0.097410000860691071
vn -0.023694999516010284 0.99967700242996216 -0.009170999750494957
vn 0.030728999525308609 0.99914902448654175 -0.027529999613761902
vn 0.030728999525308609 0.99914902448654175 -0.027529999613761902
vn 0.0028919999022036791 0.9962649941444397 -0.086303003132343292
vn -0.00927400030195713 0.99858701229095459 -0.052331998944282532
vn -0.025119999423623085 0.99863898754119873 -0.045712001621723175
vn -0.076425999402999878 0.99701201915740967 0.011264000087976456
vn -0.053491000086069107 0.998520016670227 -0.0098689999431371689
vn -0.074363000690937042 0.99723100662231445 0.0010689999908208847
vn -0.074983999133110046 0.9971269965171814 -0.010777999646961689
vn -0.074983999133110046 0.9971269965171814 -0.010777999646961689
vn -0.086180999875068665 0.99620902538299561 -0.011819000355899334
vn -0.049125999212265015 0.998134970664978 -0.036240998655557632
vn -0.077951997518539429 0.99676400423049927 -0.019603999331593513
vn -0.0068899998441338539 0.99979102611541748 -0.019241999834775925
vn -0.029100000858306885 0.99952399730682373 -0.010239999741315842
vn -0.033808998763561249 0.99910998344421387 -0.0252080000936985
vn -0.049768000841140747 0.99849897623062134 -0.02286900021135807
vn -0.045935999602079391 0.99768602848052979 -0.050128001719713211
vn -0.024947000667452812 0.99962800741195679 0.011020000092685223
vn -0.027230000123381615 0.99942499399185181 -0.020222000777721405
vn -0.026458999142050743 0.99963498115539551 -0.0055399998091161251
vn -0.037960998713970184 0.99925297498703 0.007261000107973814
vn -0.042144998908042908 0.99904000759124756 0.011920999735593796
f 1/1/1 2/2/2 3/3/3
f 4/4/4 5/5/5 6/6/6
f 7/7/7 8/8/8 9/9/9
f 10/10/10 11/11/11 12/12/12
f 13/13/13 3/3/3 14/14/14
f 15/15/15 16/16/16 17/17/17
f 13/13/13 16/16/16 3/3/3
f 13/13/13 17/17/17 16/16/16
f 6/6/6 16/16/16 18/18/18
f 16/16/16 6/6/6 3/3/3
f 6/6/6 18/18/18 12/12/12
f 16/16/16 19/19/19 20/20/20
f 16/16/16 15/15/15 19/19/19
f 6/6/6 1/1/1 3/3/3
f 6/6/6 5/5/5 1/1/1
f 16/16/16 21/21/21 18/18/18
f 20/20/20 22/22/22 23/23/23
f 20/20/20 24/24/24 22/22/22
f 24/24/24 20/20/20 19/19/19
f 21/21/21 23/23/23 25/25/25
f 23/23/23 21/21/21 20/20/20
f 21/21/21 25/25/25 26/26/26
f 27/27/27 23/23/23 28/28/28
f 27/27/27 25/25/25 23/23/23
f 16/16/16 20/20/20 21/21/21
f 29/29/29 30/30/30 31/31/31
f 29/29/29 32/32/32 30/30/30
f 32/32/32 23/23/23 22/22/22
f 32/32/32 29/29/29 23/23/23
f 33/33/33 18/18/18 21/21/21
f 14/14/14 3/3/3 34/34/34
f 34/34/34 2/2/2 35/35/35
f 34/34/34 3/3/3 2/2/2
f 29/29/29 28/28/28 23/23/23
f 36/36/36 31/31/31 30/30/30
f 37/37/37 25/25/25 27/27/27
f 37/37/37 38/38/38 25/25/25
f 21/21/21 26/26/26 33/33/33
f 12/12/12 33/33/33 9/9/9
f 39/39/39 9/9/9 40/40/40
f 39/39/39 41/41/41 9/9/9
f 42/42/42 9/9/9 41/41/41
f 42/42/42 7/7/7 9/9/9
f 42/42/42 43/43/43 7/7/7
f 44/44/44 45/45/45 46/46/46
f 44/44/44 40/40/40 45/45/45
f 40/40/40 9/9/9 33/33/33
f 9/9/9 10/10/10 12/12/12
f 9/9/9 8/8/8 10/10/10
f 40/40/40 33/33/33 45/45/45
f 37/37/37 47/47/47 38/38/38
f 26/26/26 38/38/38 45/45/45
f 48/48/48 38/38/38 47/47/47
f 48/48/48 49/49/49 38/38/38
f 38/38/38 49/49/49 45/45/45
f 49/49/49 50/50/50 45/45/45
f 49/49/49 51/51/51 50/50/50
f 48/48/48 52/52/52 49/49/49
f 33/33/33 26/26/26 45/45/45
f 39/39/39 40/40/40 44/44/44
f 25/25/25 38/38/38 26/26/26
f 53/53/53 51/51/51 49/49/49
f 53/53/53 49/49/49 54/54/54
f 54/54/54 49/49/49 55/55/55
f 50/50/50 46/46/46 45/45/45
f 52/52/52 55/55/55 49/49/49
f 52/52/52 56/56/56 55/55/55
f 18/18/18 33/33/33 12/12/12
f 12/12/12 4/4/4 6/6/6
f 12/12/12 11/11/11 4/4/4
