mtllib m03333021.mtl
usemtl material0
v -107.83563995361328 3.9555959701538086 80
v -109.64457702636719 4.0319108963012695 80
v -107.74597907066345 3.8396379947662354 81.70965576171875
v -111.83526611328125 4.0106120109558105 80
v -112 3.8231298923492432 81.681786060333252
v -111.73507690429688 3.7748630046844482 81.920508861541748
v -112 4.0229849815368652 80
v -103.83572399616242 3.9589240550994873 80
v -105.42204999923706 3.9878139495849609 80
v -103.75685900449753 3.907336950302124 81.498786926269531
v -112 3.527601957321167 85.483397960662842
v -111.5260009765625 3.4681229591369629 85.910315990448
v -112 3.789470911026001 81.934455871582031
v -103.54820999503136 3.5136849880218506 85.488883972167969
v -99.768433094024658 3.8348970413208008 81.288399219512939
v -102.4083559513092 3.930138111114502 80
v -107.5370409488678 3.5040900707244873 85.699553966522217
v -107.32813310623169 3.163654088973999 89.6894760131836
v -103.33969098329544 3.0936601161956787 89.479079961776733
v -112 3.4828250408172607 85.935295104980469
v -112 3.48819899559021 89.28301203250885
v -111.31543016433716 3.4680140018463135 89.899070978164673
v -99.836219787597656 3.8789269924163818 80
v -96 3.8611879348754883 80.053604125976562
v -96 3.8005900382995605 81.089508056640625
v -98.609138011932373 3.8961329460144043 80
v -96 3.8643240928649902 80
v -96 3.4795629978179932 84.681595087051392
v -96 3.4385530948638916 85.09052300453186
v -99.559813976287842 3.4339210987091064 85.278526067733765
v -96 3.2241759300231934 88.4828949868679
v -99.350388050079346 3.2009050846099854 89.268074035644531
v -112 3.4919281005859375 89.935142993927
v -112 3.4234480857849121 90.65985894203186
v -112 3.0975608825683594 93.936264038085938
v -112 3.0459699630737305 94.881905078887939
v -111.10684204101563 3.0616569519042969 93.889214038848877
v -109.20709991455078 2.8161649703979492 96
v -110.99628400802612 2.89007306098938 96
v -107.11878204345703 2.9135439395904541 93.679084777832031
v -106.99723100662231 2.7220389842987061 96
v -112 2.95910906791687 96
v -105.40807294845581 2.6789889335632324 96
v -103.1304469704628 2.8225550651550293 93.468758106231689
v -102.997642993927 2.6595311164855957 96
v -96 3.1341309547424316 89.766868948936462
v -99.141403198242188 2.8760900497436523 93.257942199707031
v -96 3.1888599395751953 89.091187000274658
v -96 2.993980884552002 93.091681957244873
v -98.997269153594971 2.7525029182434082 96
v -100.31771898269653 2.7379679679870605 96
v -96 2.9518709182739258 93.989304065704346
v -97.809319019317627 2.7941350936889648 96
v -96 2.8136110305786133 96
vt 0 0.26027297973632812
vt 0 0.14721399545669556
vt 0.10685300081968308 0.26587599515914917
vt 0 0.010295987129211426
vt 0.10511200129985809 0
vt 0.12003199756145477 0.016557991504669189
vt 0 0
vt 0 0.5102669894695282
vt 0 0.41112202405929565
vt 0.09367399662733078 0.51519599556922913
vt 0.34271198511123657 0
vt 0.369394987821579 0.029624998569488525
vt 0.12090300023555756 0
vt 0.34305500984191895 0.528236985206604
vt 0.0805250033736229 0.76447300612926483
vt 0 0.599478006362915
vt 0.356222003698349 0.2789350152015686
vt 0.60559201240539551 0.29199200868606567
vt 0.59244298934936523 0.54126900434494019
vt 0.37095600366592407 0
vt 0.580187976360321 0
vt 0.61869198083877563 0.042786002159118652
vt 0 0.760235995054245
vt 0.0033499998971819878 1
vt 0.068094000220298767 1
vt 0 0.83692899346351624
vt 0 1
vt 0.29260000586509705 1
vt 0.31815800070762634 1
vt 0.32990801334381104 0.77751199901103973
vt 0.53018099069595337 1
vt 0.57925498485565186 0.79060100018978119
vt 0.62094599008560181 0
vt 0.66624099016189575 0
vt 0.8710169792175293 0
vt 0.930118978023529 0
vt 0.86807602643966675 0.055822014808654785
vt 1 0.17455601692199707
vt 1 0.06273198127746582
vt 0.85494297742843628 0.305076003074646
vt 1 0.31267297267913818
vt 1 0
vt 1 0.411994993686676
vt 0.84179699420928955 0.55434700846672058
vt 1 0.5626470148563385
vt 0.61042898893356323 1
vt 0.828620970249176 0.8036620020866394
vt 0.56819897890090942 1
vt 0.81822997331619263 1
vt 1 0.8126710057258606
vt 1 0.73014301061630249
vt 0.874330997467041 1
vt 1 0.88691800087690353
vt 1 1
vn -0.00067099998705089092 0.99770498275756836 0.067704997956752777
vn 0.013690000399947166 0.99521702527999878 0.096722997725009918
vn -0.00595899997279048 0.99579399824142456 0.091426998376846313
vn -0.0043870001100003719 0.99251300096511841 0.12206300348043442
vn 0.073337003588676453 0.99020397663116455 0.11882100254297257
vn -0.003223000094294548 0.99609601497650146 0.088216997683048248
vn 0.074377000331878662 0.99026298522949219 0.11767800152301788
vn 0.019123999401926994 0.99926000833511353 0.033387001603841782
vn -0.000830999983008951 0.998511016368866 0.054538000375032425
vn 0.0055459998548030853 0.99703198671340942 0.076788000762462616
vn 0.057117000222206116 0.99552500247955322 0.0752829983830452
vn 0.024136999621987343 0.99848300218582153 0.04949599876999855
vn 0.058951999992132187 0.99525797367095947 0.077368997037410736
vn 0.0062199998646974564 0.99571597576141357 0.092253997921943665
vn 0.015799999237060547 0.99607402086257935 0.087104998528957367
vn 0.019987000152468681 0.99924898147583008 0.0331839993596077
vn 0.000990999978967011 0.99625498056411743 0.086455002427101135
vn 0.039250999689102173 0.997173011302948 0.064072996377944946
vn 0.0046109999530017376 0.99663102626800537 0.081890001893043518
vn 0.031546000391244888 0.99944901466369629 0.010364999994635582
vn 0.031272001564502716 0.99950897693634033 -0.002001000102609396
vn 0.069866001605987549 0.99625200033187866 0.050988998264074326
vn 0.014833999797701836 0.99933302402496338 0.033371001482009888
vn 0.012170000001788139 0.99821901321411133 0.058393999934196472
vn 0.013408999890089035 0.9965280294418335 0.082174003124237061
vn 0.0041299997828900814 0.99868100881576538 0.051183000206947327
vn 0.012170000001788139 0.99821901321411133 0.058402001857757568
vn 0.012763000093400478 0.99585002660751343 0.090111002326011658
vn 0.0031349998898804188 0.99646800756454468 0.0839100033044815
vn 0.013079999946057797 0.99702000617980957 0.076026998460292816
vn 0.0046319998800754547 0.9981759786605835 0.060191001743078232
vn -0.0027509999927133322 0.99714601039886475 0.075447000563144684
vn 0.037344001233577728 0.9981989860534668 0.046943999826908112
vn 0.044179998338222504 0.9942060112953186 0.097993001341819763
vn 0.044895999133586884 0.99462801218032837 0.093267001211643219
vn 0.056781001389026642 0.99614697694778442 0.066829003393650055
vn 0.055016998201608658 0.99530500173568726 0.0796319991350174
vn 0.041512999683618546 0.99599897861480713 0.0791419968008995
vn 0.050958000123500824 0.99562901258468628 0.0782649964094162
vn 0.031041000038385391 0.99713200330734253 0.069025002419948578
vn 0.035967998206615448 0.99612098932266235 0.080309003591537476
vn 0.068412996828556061 0.99466001987457275 0.077271997928619385
vn 0.021045999601483345 0.9969249963760376 0.075480997562408447
vn -0.0016740000573918223 0.99770599603652954 0.067667998373508453
vn -0.011560999788343906 0.99782699346542358 0.06487099826335907
vn -0.0094680003821849823 0.997825026512146 0.0652339980006218
vn -0.015176000073552132 0.99796801805496216 0.06187799945473671
vn 0.0072800000198185444 0.99752402305603027 0.069955997169017792
vn -0.035114999860525131 0.99839401245117188 0.044463001191616058
vn -0.015447000041604042 0.99883002042770386 0.045830000191926956
vn -0.023194000124931335 0.99798101186752319 0.059122998267412186
vn -0.018219999969005585 0.99791699647903442 0.061889000236988068
vn -0.029901999980211258 0.99822998046875 0.051401998847723007
vn -0.010738000273704529 0.99758702516555786 0.0685959979891777
f 1/1/1 2/2/2 3/3/3
f 4/4/4 5/5/5 6/6/6
f 4/4/4 7/7/7 5/5/5
f 8/8/8 9/9/9 10/10/10
f 6/6/6 11/11/11 12/12/12
f 6/6/6 13/13/13 11/11/11
f 5/5/5 13/13/13 6/6/6
f 10/10/10 1/1/1 3/3/3
f 10/10/10 9/9/9 1/1/1
f 4/4/4 3/3/3 2/2/2
f 4/4/4 6/6/6 3/3/3
f 10/10/10 14/14/14 15/15/15
f 10/10/10 3/3/3 14/14/14
f 8/8/8 10/10/10 16/16/16
f 3/3/3 6/6/6 17/17/17
f 17/17/17 12/12/12 18/18/18
f 12/12/12 17/17/17 6/6/6
f 17/17/17 14/14/14 3/3/3
f 14/14/14 17/17/17 19/19/19
f 11/11/11 20/20/20 12/12/12
f 12/12/12 21/21/21 22/22/22
f 12/12/12 20/20/20 21/21/21
f 23/23/23 10/10/10 15/15/15
f 23/23/23 16/16/16 10/10/10
f 24/24/24 15/15/15 25/25/25
f 24/24/24 26/26/26 15/15/15
f 24/24/24 27/27/27 26/26/26
f 23/23/23 15/15/15 26/26/26
f 25/25/25 15/15/15 28/28/28
f 29/29/29 15/15/15 30/30/30
f 29/29/29 28/28/28 15/15/15
f 29/29/29 30/30/30 31/31/31
f 30/30/30 15/15/15 14/14/14
f 30/30/30 14/14/14 32/32/32
f 33/33/33 34/34/34 22/22/22
f 35/35/35 36/36/36 37/37/37
f 35/35/35 22/22/22 34/34/34
f 35/35/35 37/37/37 22/22/22
f 22/22/22 37/37/37 18/18/18
f 38/38/38 37/37/37 39/39/39
f 38/38/38 40/40/40 37/37/37
f 37/37/37 40/40/40 18/18/18
f 18/18/18 40/40/40 19/19/19
f 41/41/41 40/40/40 38/38/38
f 18/18/18 12/12/12 22/22/22
f 42/42/42 37/37/37 36/36/36
f 42/42/42 39/39/39 37/37/37
f 43/43/43 40/40/40 41/41/41
f 43/43/43 44/44/44 40/40/40
f 33/33/33 22/22/22 21/21/21
f 43/43/43 45/45/45 44/44/44
f 19/19/19 44/44/44 32/32/32
f 46/46/46 32/32/32 47/47/47
f 46/46/46 48/48/48 32/32/32
f 31/31/31 32/32/32 48/48/48
f 31/31/31 30/30/30 32/32/32
f 46/46/46 47/47/47 49/49/49
f 47/47/47 32/32/32 44/44/44
f 32/32/32 14/14/14 19/19/19
f 50/50/50 44/44/44 51/51/51
f 50/50/50 47/47/47 44/44/44
f 45/45/45 51/51/51 44/44/44
f 52/52/52 53/53/53 54/54/54
f 53/53/53 47/47/47 50/50/50
f 53/53/53 49/49/49 47/47/47
f 53/53/53 52/52/52 49/49/49
f 17/17/17 18/18/18 19/19/19
f 40/40/40 44/44/44 19/19/19
