mtllib m0333333102.mtl
usemtl material0
v -16 4.6064457893371582 24
v -16 4.5907669067382812 24.077180981636047
v -15.930515050888062 4.6154050827026367 24
v -16 4.4304518699646 24.864539980888367
v -16 4.3748588562011719 25.132444024086
v -15.746664047241211 4.4657320976257324 24.851050972938538
v -15.790737986564636 4.6333551406860352 24
v -14.790488004684448 4.6870059967041016 24
v -14.749099016189575 4.5407328605651855 24.798133969306946
v -14.980588972568512 4.674595832824707 24
v -14.030753999948502 4.6828641891479492 24
v -16 4.2217950820922852 25.865171000361443
v -15.695011973381043 4.2638211250305176 25.84893399477005
v -13.790519997477531 4.6855039596557617 24
v -13.751803994178772 4.56056022644043 24.745406985282898
v -13.080996990203857 4.6489710807800293 24
v -14.697396993637085 4.3490757942199707 25.795982003211975
v -13.700085997581482 4.3723211288452148 25.743241995573044
v -16 4.0060129165649414 26.865826010704041
v -15.643458008766174 4.0418901443481445 26.84688401222229
v -16 4.1599187850952148 26.187710002064705
v -16 3.9279580116271973 27.24294102191925
v -16 3.8348040580749512 27.908488988876343
v -15.591413974761963 3.9200549125671387 27.844491958618164
v -16 3.8461759090423584 27.866302013397217
v -15.731444001197815 3.8548300266265869 28
v -16 3.8101348876953125 28
v -14.645861029624939 4.1237268447875977 26.793945014476776
v -13.648393988609314 4.1787099838256836 26.741096019744873
v -12.703001022338867 4.3496670722961426 25.690661996603012
v -14.59409898519516 3.9442760944366455 27.791749954223633
v -13.596560001373291 4.0139069557189941 27.738852024078369
v -15.5834139585495 3.8788580894470215 28
v -14.781566977500916 3.8870759010314941 28
v -14.583333015441895 3.89949107170105 28
v -13.583050012588501 3.9597890377044678 28
v -13.831644997000694 3.9432690143585205 28
v -12.599625945091248 3.9604918956756592 27.686377048492432
v -12.881878018379211 3.9146959781646729 28
v -12.651281952857971 4.1614270210266113 26.688498020172119
v -12.754768967628479 4.5276532173156738 24.692862033843994
v -12 4.5815181732177734 24
v -12.468399047851563 4.6141228675842285 24
v -12 4.5157899856567383 24.422186017036438
v -12 4.480186939239502 24.653154015541077
v -12 4.4354248046875 24.909468054771423
v -12 4.23616886138916 25.964763998985291
v -12 4.293400764465332 25.653717011213303
v -12 4.1606640815734863 26.654107987880707
v -12.79078996181488 4.6370120048522949 24
v -12.583395957946777 3.8964200019836426 28
v -12 3.989142894744873 27.654621005058289
v -12 3.9628520011901855 27.782119989395142
v -12 3.9179239273071289 28
v -12 4.08717679977417 27.020163059234619
vt 0 0
vt 0.019294999539852142 0
vt 0 0.017370998859405518
vt 0.21613499522209168 0
vt 0.28311100602149963 0
vt 0.2127629965543747 0.063333988189697266
vt 0 0.052314996719360352
vt 0 0.30237799882888794
vt 0.19953300058841705 0.3127250075340271
vt 0 0.2548530101776123
vt 0 0.49231100082397461
vt 0.46629300713539124 0
vt 0.46223399043083191 0.076246976852416992
vt 0 0.552370011806488
vt 0.18635199964046478 0.562049001455307
vt 0 0.72975099086761475
vt 0.44899600744247437 0.32565099000930786
vt 0.43581101298332214 0.57497900724411011
vt 0.71645599603652954 0
vt 0.71172100305557251 0.08913499116897583
vt 0.54692697525024414 0
vt 0.81073498725891113 0
vt 0.97712200880050659 0
vt 0.961122989654541 0.10214602947235107
vt 0.9665759801864624 0
vt 1 0.067139029502868652
vt 1 0
vt 0.69848597049713135 0.33853501081466675
vt 0.68527400493621826 0.5879020094871521
vt 0.42266601324081421 0.8242499977350235
vt 0.94793701171875 0.35147500038146973
vt 0.93471300601959229 0.60085999965667725
vt 1 0.10414600372314453
vt 1 0.30460798740386963
vt 1 0.35416698455810547
vt 1 0.60423800349235535
vt 1 0.54208898544311523
vt 0.92159402370452881 0.85009400546550751
vt 1 0.77953100204467773
vt 0.67212402820587158 0.83717900514602661
vt 0.17321500182151794 0.81130799651145935
vt 0 1
vt 0 0.88289999961853027
vt 0.10554599761962891 1
vt 0.16328899562358856 1
vt 0.22736699879169464 1
vt 0.49119099974632263 1
vt 0.41342899203300476 1
vt 0.66352701187133789 1
vt 0 0.8023030012845993
vt 1 0.85415099561214447
vt 0.91365498304367065 1
vt 0.9455299973487854 1
vt 1 1
vt 0.75504100322723389 1
vn -0.12536099553108215 0.97225302457809448 0.19750800728797913
vn -0.12489999830722809 0.97222900390625 0.19791600108146668
vn -0.12486100196838379 0.97222697734832764 0.19795000553131104
vn -0.12479600310325623 0.97208601236343384 0.1986829936504364
vn -0.12345899641513825 0.97145402431488037 0.20257300138473511
vn -0.0755859985947609 0.97799700498580933 0.19444200396537781
vn -0.060984998941421509 0.97872000932693481 0.19592699408531189
vn -0.037243001163005829 0.98259097337722778 0.1820099949836731
vn -0.027589000761508942 0.98260998725891113 0.18362100422382355
vn -0.0525519996881485 0.979761004447937 0.19314700365066528
vn -0.0044630002230405807 0.98518699407577515 0.171424999833107
vn -0.12326899915933609 0.97195500135421753 0.20026999711990356
vn -0.0817829966545105 0.97404700517654419 0.21105499565601349
vn 0.035183999687433243 0.98592698574066162 0.16343200206756592
vn 0.018655000254511833 0.98485302925109863 0.17238700389862061
vn 0.044387999922037125 0.98660600185394287 0.15696500241756439
vn -0.050002999603748322 0.97689002752304077 0.20781299471855164
vn 0.0040170000866055489 0.98163300752639771 0.19073499739170075
vn -0.086319997906684875 0.97236001491546631 0.21694600582122803
vn -0.082955002784729 0.97880500555038452 0.18724000453948975
vn -0.0983939990401268 0.97278702259063721 0.20977300405502319
vn -0.15547700226306915 0.97768402099609375 0.14128200709819794
vn -0.15865500271320343 0.9533039927482605 0.25698199868202209
vn -0.074236996471881866 0.98496097326278687 0.156016007065773
vn -0.16919699311256409 0.97606801986694336 0.13661600649356842
vn -0.15776200592517853 0.95324200391769409 0.25776100158691406
vn -0.15865600109100342 0.95330202579498291 0.256987988948822
vn -0.045219000428915024 0.98194599151611328 0.18367700278759003
vn -0.00097400002414360642 0.98393100500106812 0.1785459965467453
vn 0.052742999047040939 0.98215097188949585 0.18054799735546112
vn -0.035406999289989471 0.98074597120285034 0.19205200672149658
vn -0.0057210000231862068 0.98357897996902466 0.18038900196552277
vn -0.01969200000166893 0.96621602773666382 0.25698098540306091
vn -0.019982000812888145 0.96854299306869507 0.24804200232028961
vn -0.057204999029636383 0.97543597221374512 0.21272799372673035
vn 0.047715000808238983 0.97856801748275757 0.20031900703907013
vn -0.058816999197006226 0.97571998834609985 0.21097500622272492
vn 0.028906000778079033 0.98112601041793823 0.19119599461555481
vn 0.0620030015707016 0.978111982345581 0.19862699508666992
vn 0.038961000740528107 0.98365998268127441 0.17576800286769867
vn 0.049518998712301254 0.98463898897171021 0.16743600368499756
vn 0.06861799955368042 0.98576802015304565 0.1534699946641922
vn 0.069682002067565918 0.98587298393249512 0.15231400728225708
vn 0.069663003087043762 0.98587101697921753 0.15233500301837921
vn 0.070694997906684875 0.98315799236297607 0.16853199899196625
vn 0.083710998296737671 0.97956699132919312 0.18286700546741486
vn 0.061395000666379929 0.98568201065063477 0.157041996717453
vn 0.088054999709129334 0.97882002592086792 0.18481600284576416
vn 0.0099910004064440727 0.985850989818573 0.16732800006866455
vn 0.056127000600099564 0.98666000366210938 0.15281300246715546
vn -0.017508000135421753 0.97943401336669922 0.20100100338459015
vn -0.037872001528739929 0.98421698808670044 0.17286799848079681
vn -0.036077000200748444 0.97875702381134033 0.20182499289512634
vn -0.036077000200748444 0.97875702381134033 0.20182499289512634
vn -0.020499000325798988 0.98541402816772461 0.16893300414085388
f 1/1/1 2/2/2 3/3/3
f 4/4/4 5/5/5 6/6/6
f 3/3/3 6/6/6 7/7/7
f 3/3/3 4/4/4 6/6/6
f 3/3/3 2/2/2 4/4/4
f 8/8/8 6/6/6 9/9/9
f 8/8/8 10/10/10 6/6/6
f 7/7/7 6/6/6 10/10/10
f 8/8/8 9/9/9 11/11/11
f 6/6/6 12/12/12 13/13/13
f 6/6/6 5/5/5 12/12/12
f 14/14/14 15/15/15 16/16/16
f 15/15/15 11/11/11 9/9/9
f 15/15/15 14/14/14 11/11/11
f 6/6/6 17/17/17 9/9/9
f 9/9/9 18/18/18 15/15/15
f 13/13/13 19/19/19 20/20/20
f 13/13/13 21/21/21 19/19/19
f 13/13/13 20/20/20 17/17/17
f 21/21/21 13/13/13 12/12/12
f 19/19/19 22/22/22 20/20/20
f 23/23/23 24/24/24 25/25/25
f 23/23/23 26/26/26 24/24/24
f 23/23/23 27/27/27 26/26/26
f 22/22/22 24/24/24 20/20/20
f 22/22/22 25/25/25 24/24/24
f 28/28/28 20/20/20 24/24/24
f 20/20/20 28/28/28 17/17/17
f 18/18/18 28/28/28 29/29/29
f 28/28/28 18/18/18 17/17/17
f 29/29/29 30/30/30 18/18/18
f 28/28/28 24/24/24 31/31/31
f 9/9/9 17/17/17 18/18/18
f 28/28/28 32/32/32 29/29/29
f 33/33/33 31/31/31 24/24/24
f 33/33/33 34/34/34 31/31/31
f 34/34/34 35/35/35 31/31/31
f 36/36/36 32/32/32 37/37/37
f 35/35/35 32/32/32 31/31/31
f 35/35/35 37/37/37 32/32/32
f 36/36/36 38/38/38 32/32/32
f 36/36/36 39/39/39 38/38/38
f 28/28/28 31/31/31 32/32/32
f 29/29/29 32/32/32 40/40/40
f 33/33/33 24/24/24 26/26/26
f 6/6/6 13/13/13 17/17/17
f 15/15/15 18/18/18 41/41/41
f 42/42/42 43/43/43 44/44/44
f 18/18/18 30/30/30 41/41/41
f 45/45/45 30/30/30 46/46/46
f 45/45/45 41/41/41 30/30/30
f 47/47/47 30/30/30 40/40/40
f 47/47/47 48/48/48 30/30/30
f 46/46/46 30/30/30 48/48/48
f 47/47/47 40/40/40 49/49/49
f 44/44/44 41/41/41 45/45/45
f 44/44/44 43/43/43 41/41/41
f 43/43/43 50/50/50 41/41/41
f 29/29/29 40/40/40 30/30/30
f 51/51/51 38/38/38 39/39/39
f 51/51/51 52/52/52 38/38/38
f 51/51/51 53/53/53 52/52/52
f 53/53/53 51/51/51 54/54/54
f 55/55/55 38/38/38 52/52/52
f 49/49/49 38/38/38 55/55/55
f 49/49/49 40/40/40 38/38/38
f 40/40/40 32/32/32 38/38/38
f 16/16/16 41/41/41 50/50/50
f 16/16/16 15/15/15 41/41/41
