mtllib m0333333003.mtl
usemtl material0
v -26.801891028881073 2.389923095703125 24
v -27.26827597618103 2.3546609878540039 24
v -26.77878600358963 2.3626499176025391 24.44032895565033
v -27.802188992500305 2.3266279697418213 24
v -28 2.30377197265625 24.291900992393494
v -27.776249051094055 2.3081519603729248 24.493173956871033
v -28 2.3155660629272461 24
v -25.801330998539925 2.504971981048584 24
v -26.21170599758625 2.4515280723571777 24
v -25.781060993671417 2.4703691005706787 24.387298941612244
v -28 2.29811692237854 24.505022048950195
v -27.723763942718506 2.27567195892334 25.490474998950958
v -28 2.2724480628967285 25.241973996162415
v -28 2.2400829792022705 26.505144000053406
v -27.671260952949524 2.2475860118865967 26.487760990858078
v -28 2.2608060836791992 25.79747200012207
v -28 2.2665278911590576 25.5050910115242
v -26.726418018341064 2.3067328929901123 25.437708020210266
v -28 2.2326109409332275 26.853115022182465
v -28 2.2071530818939209 27.686826944351196
v -27.618752956390381 2.2199881076812744 27.485043048858643
v -28 2.2140860557556152 27.50519597530365
v -28 2.1986820697784424 27.908746957778931
v -26.673987984657288 2.2630219459533691 26.435047000646591
v -25.728839993476868 2.38417911529541 25.384784996509552
v -24.783010005950928 2.6444931030273438 24.334043979644775
v -25.676573008298874 2.3077540397644043 26.382234990596771
v -24.730924963951111 2.5309600830078125 25.331620991230011
v -26.621544003486633 2.2227280139923096 27.432374954223633
v -25.624249994754791 2.2425589561462402 27.379647970199585
v -24.678820013999939 2.4213318824768066 26.329187005758286
v -25.591693997383118 2.2047419548034668 28
v -25.990846999920905 2.1981101036071777 28
v -26.5917209982872 2.1947939395904541 28
v -27.046602010726929 2.19472599029541 28
v -25.432419002056122 2.573153018951416 24
v -24.800467014312744 2.67956805229187 24
v -24 2.8302459716796875 24.068104028701782
v -24 2.8013830184936523 24.292196035385132
v -24.482285976409912 2.7457029819488525 24
v -24 2.8390181064605713 24
v -24 2.694037914276123 25.038119971752167
v -24 2.62915301322937 25.575114995241165
v -24 2.6627669334411621 25.292604029178619
v -24 2.5284790992736816 26.292998999357224
v -24 2.4437720775604248 26.939738988876343
v -24.626662969589233 2.32244610786438 27.326714992523193
v -27.591683983802795 2.1971659660339355 28
v -25.232583999633789 2.2322618961334229 28
v -24.591408014297485 2.2655858993530273 28
v -24 2.3340590000152588 28
v -24 2.3705348968505859 27.685991048812866
v -24.282632946968079 2.3054280281066895 28
v -24 2.4063470363616943 27.293355941772461
v -24 2.3826010227203369 27.553707003593445
v -28 2.1946070194244385 28
vt 0 0.29952698945999146
vt 0 0.18293100595474243
vt 0.1100820004940033 0.30530399084091187
vt 0 0.049453020095825195
vt 0.072975002229213715 0
vt 0.12329299747943878 0.055938005447387695
vt 0 0
vt 0 0.54966700077056885
vt 0 0.44707298278808594
vt 0.0968250036239624 0.554735004901886
vt 0.12625600397586823 0
vt 0.37261900305747986 0.069059014320373535
vt 0.31049299240112305 0
vt 0.626285970211029 0
vt 0.621940016746521 0.082184970378875732
vt 0.44936800003051758 0
vt 0.37627300620079041 0
vt 0.35942700505256653 0.31839597225189209
vt 0.71327900886535645 0
vt 0.92170697450637817 0
vt 0.87126100063323975 0.095311999320983887
vt 0.87629902362823486 0
vt 0.97718697786331177 0
vt 0.60876202583312988 0.33150297403335571
vt 0.34619599580764771 0.56779000163078308
vt 0.083511002361774445 0.80424700677394867
vt 0.59555900096893311 0.58085700869560242
vt 0.33290499448776245 0.81726899743080139
vt 0.8580939769744873 0.34461402893066406
vt 0.84491199254989624 0.59393700957298279
vt 0.58229702711105347 0.83029499650001526
vt 1 0.60207700729370117
vt 1 0.50228801369667053
vt 1 0.35206997394561768
vt 1 0.23834902048110962
vt 0 0.64189499616622925
vt 0 0.79988299310207367
vt 0.01702599972486496 1
vt 0.073049001395702362 1
vt 0 0.87942799925804138
vt 0 1
vt 0.25953000783920288 1
vt 0.39377900958061218 1
vt 0.32315099239349365 1
vt 0.57324999570846558 1
vt 0.73493498563766479 1
vt 0.83167898654937744 0.84333400428295136
vt 1 0.10207897424697876
vt 1 0.69185400009155273
vt 1 0.85214799642562866
vt 1 1
vt 0.92149800062179565 1
vt 1 0.92934200167655945
vt 0.82333898544311523 1
vt 0.8884270191192627 1
vt 1 0
vn -0.096946999430656433 0.993058979511261 0.066596001386642456
vn -0.057431001216173172 0.99730098247528076 0.0457490012049675
vn -0.0658160001039505 0.9964519739151001 0.052452001720666885
vn -0.053688999265432358 0.99774801731109619 0.040203001350164413
vn -0.052983999252319336 0.99790298938751221 0.037184998393058777
vn -0.051477998495101929 0.99799001216888428 0.036958999931812286
vn -0.055789001286029816 0.99762898683547974 0.040309000760316849
vn -0.15349400043487549 0.98348498344421387 0.095902003347873688
vn -0.11388000100851059 0.99039298295974731 0.078445002436637878
vn -0.11990900337696075 0.98931902647018433 0.082878999412059784
vn -0.0429840013384819 0.99849897623062134 0.033946998417377472
vn -0.035241998732089996 0.99865800142288208 0.03795899823307991
vn -0.04003399983048439 0.99870002269744873 0.031546000391244888
vn -0.021335000172257423 0.99938398599624634 0.027867000550031662
vn -0.018425999209284782 0.99930000305175781 0.03257099911570549
vn -0.0244120005518198 0.99935299158096313 0.026426000520586967
vn -0.031970001757144928 0.99926900863647461 0.020942000672221184
vn -0.051862999796867371 0.99694502353668213 0.058407001197338104
vn -0.01665399968624115 0.99952399730682373 0.025983000174164772
vn -0.013451999984681606 0.99918198585510254 0.038139998912811279
vn -0.0057890000753104687 0.99924701452255249 0.038376998156309128
vn -0.013918000273406506 0.99947100877761841 0.029410000890493393
vn -0.011353000067174435 0.99913400411605835 0.040026001632213593
vn -0.022520000115036964 0.99893099069595337 0.040369000285863876
vn -0.11840800195932388 0.98858499526977539 0.093166999518871307
vn -0.16594600677490234 0.979328989982605 0.11565600335597992
vn -0.076034002006053925 0.99450898170471191 0.071912996470928192
vn -0.14451499283313751 0.98332399129867554 0.11040899902582169
vn -0.015873000025749207 0.99853301048278809 0.051759000867605209
vn -0.06076199933886528 0.99533998966217041 0.074879996478557587
vn -0.11936300247907639 0.98715001344680786 0.10624399781227112
vn -0.046748999506235123 0.99690401554107666 0.063225001096725464
vn -0.0099330004304647446 0.99847298860549927 0.054340001195669174
vn -0.001749000046402216 0.99878501892089844 0.049244999885559082
vn 0.002369999885559082 0.9989209771156311 0.046371001750230789
vn -0.16816699504852295 0.9797549843788147 0.10863099992275238
vn -0.17756099998950958 0.97772300243377686 0.11194100230932236
vn -0.18846000730991364 0.97403502464294434 0.12545600533485413
vn -0.18759800493717194 0.97270298004150391 0.13658499717712402
vn -0.19302700459957123 0.973675012588501 0.12123499810695648
vn -0.18846100568771362 0.97403401136398315 0.12546099722385407
vn -0.17670199275016785 0.97592699527740479 0.12783700227737427
vn -0.16233000159263611 0.97895598411560059 0.12366899847984314
vn -0.17010800540447235 0.9783099889755249 0.11820899695158005
vn -0.14759600162506104 0.98004597425460815 0.13313700258731842
vn -0.133760005235672 0.984604001045227 0.112527996301651
vn -0.09102100133895874 0.9917290210723877 0.090487003326416016
vn -0.00012500000593718141 0.99901902675628662 0.044282000511884689
vn -0.060525000095367432 0.99505001306533813 0.078813999891281128
vn -0.099127002060413361 0.99109697341918945 0.088890001177787781
vn -0.10011900216341019 0.98833000659942627 0.11480599641799927
vn -0.10823500156402588 0.9882969856262207 0.10749399662017822
vn -0.11828099936246872 0.98809200525283813 0.098411999642848969
vn -0.12719200551509857 0.98740798234939575 0.094066999852657318
vn -0.12744900584220886 0.98774498701095581 0.090089000761508942
vn -0.0062589999288320541 0.99898499250411987 0.044603999704122543
f 1/1/1 2/2/2 3/3/3
f 4/4/4 5/5/5 6/6/6
f 4/4/4 7/7/7 5/5/5
f 8/8/8 9/9/9 10/10/10
f 5/5/5 11/11/11 6/6/6
f 11/11/11 12/12/12 6/6/6
f 11/11/11 13/13/13 12/12/12
f 12/12/12 14/14/14 15/15/15
f 12/12/12 16/16/16 14/14/14
f 16/16/16 12/12/12 17/17/17
f 12/12/12 15/15/15 18/18/18
f 13/13/13 17/17/17 12/12/12
f 3/3/3 6/6/6 12/12/12
f 14/14/14 19/19/19 15/15/15
f 20/20/20 21/21/21 22/22/22
f 20/20/20 23/23/23 21/21/21
f 22/22/22 15/15/15 19/19/19
f 22/22/22 21/21/21 15/15/15
f 15/15/15 24/24/24 18/18/18
f 3/3/3 18/18/18 10/10/10
f 10/10/10 25/25/25 26/26/26
f 1/1/1 10/10/10 9/9/9
f 1/1/1 3/3/3 10/10/10
f 25/25/25 27/27/27 28/28/28
f 25/25/25 10/10/10 18/18/18
f 2/2/2 6/6/6 3/3/3
f 2/2/2 4/4/4 6/6/6
f 25/25/25 18/18/18 27/27/27
f 24/24/24 21/21/21 29/29/29
f 15/15/15 21/21/21 24/24/24
f 27/27/27 29/29/29 30/30/30
f 29/29/29 27/27/27 24/24/24
f 30/30/30 31/31/31 27/27/27
f 32/32/32 29/29/29 33/33/33
f 32/32/32 30/30/30 29/29/29
f 18/18/18 24/24/24 27/27/27
f 34/34/34 21/21/21 35/35/35
f 34/34/34 29/29/29 21/21/21
f 26/26/26 36/36/36 10/10/10
f 26/26/26 37/37/37 36/36/36
f 12/12/12 18/18/18 3/3/3
f 38/38/38 26/26/26 39/39/39
f 38/38/38 40/40/40 26/26/26
f 38/38/38 41/41/41 40/40/40
f 37/37/37 26/26/26 40/40/40
f 39/39/39 26/26/26 42/42/42
f 43/43/43 28/28/28 31/31/31
f 43/43/43 44/44/44 28/28/28
f 28/28/28 42/42/42 26/26/26
f 28/28/28 44/44/44 42/42/42
f 43/43/43 31/31/31 45/45/45
f 31/31/31 28/28/28 27/27/27
f 45/45/45 31/31/31 46/46/46
f 31/31/31 30/30/30 47/47/47
f 28/28/28 26/26/26 25/25/25
f 33/33/33 29/29/29 34/34/34
f 48/48/48 35/35/35 21/21/21
f 32/32/32 47/47/47 30/30/30
f 32/32/32 49/49/49 47/47/47
f 49/49/49 50/50/50 47/47/47
f 51/51/51 52/52/52 53/53/53
f 50/50/50 54/54/54 47/47/47
f 50/50/50 55/55/55 54/54/54
f 55/55/55 53/53/53 52/52/52
f 55/55/55 50/50/50 53/53/53
f 46/46/46 47/47/47 54/54/54
f 46/46/46 31/31/31 47/47/47
f 56/56/56 21/21/21 23/23/23
f 56/56/56 48/48/48 21/21/21
f 8/8/8 10/10/10 36/36/36
