mtllib m0333333203.mtl
usemtl material0
v -26.642266988754272 3.2361719608306885 8
v -27.097584009170532 3.1840789318084717 8
v -26.619551002979279 3.2434279918670654 8.4296170473098755
v -27.642848968505859 3.1169109344482422 8
v -28 3.0903110504150391 8.1386679410934448
v -27.617349982261658 3.1205720901489258 8.4826979637146
v -28 3.0898149013519287 8
v -24.983360052108765 3.5016279220581055 8
v -24.623553991317749 3.5701909065246582 8.3231749534606934
v -24.640691995620728 3.5552370548248291 8
v -28 3.074882984161377 9.0886160135269165
v -27.564790964126587 3.1032330989837646 9.4799469709396362
v -28 3.0876820087432861 8.5030100345611572
v -25.621583998203278 3.4004619121551514 8.3764179944992065
v -25.568930000066757 3.4026539325714111 9.3736000061035156
v -26.232926994562149 3.2951819896698 8
v -25.641514003276825 3.3889429569244385 8
v -24.570830941200256 3.586543083190918 9.3203089833259583
v -26.566946029663086 3.2353661060333252 9.4268339872360229
v -24.332736968994141 3.6004109382629395 8
v -24 3.6704440116882324 8.2899290323257446
v -24 3.6616880893707275 8.1270250082016
v -24 3.6548609733581543 8
v -24 3.6846709251403809 8.8832839727401733
v -26.514501988887787 3.1950769424438477 10.424162000417709
v -24 3.6875269412994385 9.2898449897766113
v -24.518203973770142 3.5833640098571777 10.317510008811951
v -28 3.0626320838928223 9.503057986497879
v -25.516402989625931 3.3789670467376709 10.370871007442474
v -24 3.6918730735778809 9.8330550044775009
v -28 3.0332028865814209 10.038770999759436
v -27.512393951416016 3.0531790256500244 10.477308005094528
v -26.462096989154816 3.1464879512786865 11.421517968177795
v -25.463891983032227 3.3523499965667725 11.368152022361755
v -24 3.6856749057769775 10.289819985628128
v -24.465590953826904 3.577254056930542 11.314720034599304
v -27.432486057281494 2.9594919681549072 12
v -28 2.9071969985961914 11.939414024353027
v -27.932633996009827 2.9100830554962158 12
v -28 2.9196939468383789 11.738584995269775
v -27.460064053535461 2.9894540309906006 11.474715948104858
v -28 2.9343290328979492 11.503404021263123
v -28 2.9677720069885254 11.019098043441773
v -26.431706994771957 3.1174559593200684 12
v -26.875696003437042 3.0489718914031982 12
v -24 3.6854779720306396 10.782931983470917
v -28 3.0048279762268066 10.50321102142334
v -28 2.9034268856048584 12
v -25.430651009082794 3.3299179077148438 12
v -26.032648000866175 3.1984570026397705 12
v -24 3.6715669631958008 11.622331023216248
v -24 3.6698648929595947 11.732882022857666
v -24 3.6766860485076904 11.289818048477173
v -25.082449018955231 3.4074831008911133 12
v -24.429489016532898 3.5626540184020996 12
v -24 3.6609539985656738 12
vt 0 0.33943301439285278
vt 0 0.22560399770736694
vt 0.10740400105714798 0.34511202573776245
vt 0 0.089287996292114258
vt 0.0346670001745224 0
vt 0.12067499756813049 0.095663011074066162
vt 0 0
vt 0 0.75416000187397
vt 0.080793999135494232 0.84411099553108215
vt 0 0.83982700109481812
vt 0.27215400338172913 0
vt 0.36998701095581055 0.10880202054977417
vt 0.12575200200080872 0
vt 0.09410499781370163 0.59460398554801941
vt 0.34340000152587891 0.60776799917221069
vt 0 0.44176799058914185
vt 0 0.58962199091911316
vt 0.33007699251174927 0.85729199647903442
vt 0.35670900344848633 0.35826301574707031
vt 0 0.91681600362062454
vt 0.072481997311115265 1
vt 0.031755998730659485 1
vt 0 1
vt 0.22082099318504334 1
vt 0.60604000091552734 0.37137502431869507
vt 0.32246100902557373 1
vt 0.57937699556350708 0.8704490065574646
vt 0.37576499581336975 0
vt 0.59271800518035889 0.62089899182319641
vt 0.45826399326324463 1
vt 0.50969302654266357 0
vt 0.61932700872421265 0.1219019889831543
vt 0.85537999868392944 0.38447600603103638
vt 0.84203797578811646 0.63402700424194336
vt 0.57245498895645142 1
vt 0.82867997884750366 0.883602000772953
vt 1 0.14187902212142944
vt 0.984853982925415 0
vt 1 0.016840994358062744
vt 0.93464601039886475 0
vt 0.8686789870262146 0.13498401641845703
vt 0.87585097551345825 0
vt 0.75477498769760132 0
vt 1 0.39207297563552856
vt 1 0.28107601404190063
vt 0.69573301076889038 1
vt 0.62580299377441406 0
vt 1 0
vt 1 0.64233699440956116
vt 1 0.49183797836303711
vt 0.90558302402496338 1
vt 0.9332200288772583 1
vt 0.82245397567749023 1
vt 1 0.72938799858093262
vt 1 0.89262799918651581
vt 1 1
vn -0.12744000554084778 0.99179601669311523 -0.010011999867856503
vn -0.1183520033955574 0.99295699596405029 -0.0054810000583529472
vn -0.14238199591636658 0.98979800939559937 0.0052559999749064445
vn -0.11117400228977203 0.99379998445510864 -0.001664999988861382
vn -0.079323999583721161 0.996849000453949 0.00054500001715496182
vn -0.11341600120067596 0.9934309720993042 0.015211000107228756
vn -0.075649000704288483 0.99712800979614258 -0.0035679999273270369
vn -0.16385099291801453 0.98612099885940552 -0.026785999536514282
vn -0.16733099520206451 0.9857640266418457 -0.016433000564575195
vn -0.15000100433826447 0.98796498775482178 -0.037760000675916672
vn -0.085978001356124878 0.99602097272872925 0.023460999131202698
vn -0.11899299919605255 0.99200600385665894 0.042001001536846161
vn -0.084774002432823181 0.99626898765563965 0.016179999336600304
vn -0.16628900170326233 0.98606902360916138 -0.00392200006172061
vn -0.17393800616264343 0.98458999395370483 0.018098000437021255
vn -0.15353100001811981 0.98795801401138306 -0.019152000546455383
vn -0.16538900136947632 0.98599600791931152 -0.021415999159216881
vn -0.17813099920749664 0.98400199413299561 0.0030829999595880508
vn -0.14788199961185455 0.98853302001953125 0.030542999505996704
vn -0.15711900591850281 0.98635601997375488 -0.049153000116348267
vn -0.16047699749469757 0.98640501499176025 -0.035379998385906219
vn -0.16126799583435059 0.98548799753189087 -0.052967999130487442
vn -0.16126799583435059 0.98548799753189087 -0.052965998649597168
vn -0.16589100658893585 0.98600000143051147 -0.01684500090777874
vn -0.15217800438404083 0.98692601919174194 0.053084000945091248
vn -0.17456899583339691 0.98461902141571045 -0.007180000189691782
vn -0.19469800591468811 0.980696976184845 0.018067000433802605
vn -0.090501002967357636 0.99493998289108276 0.043644998222589493
vn -0.19097000360488892 0.98087799549102783 0.037537001073360443
vn -0.18778599798679352 0.98218297958374023 0.0072949999012053013
vn -0.091205999255180359 0.99424898624420166 0.056120999157428741
vn -0.12504500150680542 0.990198016166687 0.062221001833677292
vn -0.16883499920368195 0.98406201601028442 0.055831000208854675
vn -0.20845000445842743 0.97702997922897339 0.044284000992774963
vn -0.19335100054740906 0.98110699653625488 0.0066049997694790363
vn -0.21338699758052826 0.97652298212051392 0.02947700023651123
vn -0.12249899655580521 0.99047201871871948 0.0629270002245903
vn -0.098123997449874878 0.99325299263000488 0.061802998185157776
vn -0.098123997449874878 0.99325400590896606 0.061790000647306442
vn -0.098123997449874878 0.99325299263000488 0.061806999146938324
vn -0.13564400374889374 0.98861497640609741 0.0651170015335083
vn -0.097779996693134308 0.9929090142250061 0.067611999809741974
vn -0.096151001751422882 0.99290299415588379 0.069985002279281616
vn -0.17579799890518189 0.982683002948761 0.058552999049425125
vn -0.15561699867248535 0.98590701818466187 0.061411000788211823
vn -0.20426200330257416 0.97883397340774536 0.012670000083744526
vn -0.094971001148223877 0.99326997995376587 0.066294997930526733
vn -0.09814000129699707 0.99325102567672729 0.06180800125002861
vn -0.2159619927406311 0.97531801462173462 0.045988000929355621
vn -0.20734000205993652 0.97692298889160156 0.051302999258041382
vn -0.20805700123310089 0.97800099849700928 0.015057000331580639
vn -0.22136500477790833 0.974711000919342 0.030601000413298607
vn -0.2079939991235733 0.97799599170684814 0.016208000481128693
vn -0.22627000510692596 0.97334402799606323 0.037457998842000961
vn -0.22717399895191193 0.97330498695373535 0.032703999429941177
vn -0.2229900062084198 0.97427898645401 0.032501000910997391
f 1/1/1 2/2/2 3/3/3
f 4/4/4 5/5/5 6/6/6
f 4/4/4 7/7/7 5/5/5
f 8/8/8 9/9/9 10/10/10
f 6/6/6 11/11/11 12/12/12
f 6/6/6 13/13/13 11/11/11
f 5/5/5 13/13/13 6/6/6
f 14/14/14 3/3/3 15/15/15
f 16/16/16 14/14/14 17/17/17
f 16/16/16 3/3/3 14/14/14
f 17/17/17 9/9/9 8/8/8
f 17/17/17 14/14/14 9/9/9
f 9/9/9 14/14/14 18/18/18
f 3/3/3 4/4/4 6/6/6
f 3/3/3 2/2/2 4/4/4
f 3/3/3 6/6/6 19/19/19
f 20/20/20 10/10/10 9/9/9
f 21/21/21 20/20/20 9/9/9
f 21/21/21 22/22/22 20/20/20
f 22/22/22 23/23/23 20/20/20
f 21/21/21 9/9/9 24/24/24
f 19/19/19 12/12/12 25/25/25
f 6/6/6 12/12/12 19/19/19
f 18/18/18 14/14/14 15/15/15
f 19/19/19 15/15/15 3/3/3
f 26/26/26 9/9/9 18/18/18
f 26/26/26 24/24/24 9/9/9
f 18/18/18 15/15/15 27/27/27
f 11/11/11 28/28/28 12/12/12
f 15/15/15 19/19/19 29/29/29
f 26/26/26 18/18/18 30/30/30
f 12/12/12 31/31/31 32/32/32
f 12/12/12 28/28/28 31/31/31
f 1/1/1 3/3/3 16/16/16
f 25/25/25 32/32/32 33/33/33
f 12/12/12 32/32/32 25/25/25
f 29/29/29 33/33/33 34/34/34
f 15/15/15 29/29/29 27/27/27
f 30/30/30 27/27/27 35/35/35
f 30/30/30 18/18/18 27/27/27
f 29/29/29 36/36/36 27/27/27
f 29/29/29 19/19/19 25/25/25
f 29/29/29 25/25/25 33/33/33
f 37/37/37 38/38/38 39/39/39
f 37/37/37 40/40/40 38/38/38
f 40/40/40 41/41/41 42/42/42
f 40/40/40 37/37/37 41/41/41
f 32/32/32 42/42/42 41/41/41
f 32/32/32 43/43/43 42/42/42
f 32/32/32 41/41/41 33/33/33
f 44/44/44 41/41/41 45/45/45
f 44/44/44 33/33/33 41/41/41
f 35/35/35 27/27/27 46/46/46
f 43/43/43 32/32/32 47/47/47
f 47/47/47 32/32/32 31/31/31
f 48/48/48 39/39/39 38/38/38
f 45/45/45 41/41/41 37/37/37
f 49/49/49 34/34/34 50/50/50
f 44/44/44 34/34/34 33/33/33
f 44/44/44 50/50/50 34/34/34
f 51/51/51 36/36/36 52/52/52
f 51/51/51 53/53/53 36/36/36
f 36/36/36 46/46/46 27/27/27
f 36/36/36 53/53/53 46/46/46
f 54/54/54 55/55/55 36/36/36
f 55/55/55 52/52/52 36/36/36
f 55/55/55 56/56/56 52/52/52
f 49/49/49 36/36/36 34/34/34
f 49/49/49 54/54/54 36/36/36
f 29/29/29 34/34/34 36/36/36
