mtllib m0333101.mtl
usemtl material0
v -96 3.4414420127868652 224
v -96 3.3702390193939209 224.89694213867188
v -95.192977905273438 3.3907508850097656 224
v -96 2.8267219066619873 233.34143114089966
v -91.981033325195312 3.073991060256958 228.87495422363281
v -96 3.1725699901580811 229.08688354492188
v -92.237190246582031 3.3108971118927 224
v -87.594916820526123 3.1276569366455078 224
v -96 2.5203800201416016 237.08865404129028
v -91.563140869140625 2.4093770980834961 236.85470604896545
v -96 -0.309594988822937 250.22615146636963
v -91.15142822265625 0.47914201021194458 244.83871507644653
v -96 0.4297960102558136 245.09489393234253
v -96 -1.0478980541229248 256
v -93.597770690917969 -1.1410579681396484 256
v -96 -0.957942008972168 254.70481872558594
v -90.7376708984375 -1.03119695186615 252.8212890625
v -96 -0.8463820219039917 253.09860229492188
v -96 1.2298719882965088 241.78373694419861
v -84.005088806152344 2.7420890331268311 228.45480346679688
v -83.589232921600342 1.6604909896850586 236.43595910072327
v -84.239067077636719 2.9790201187133789 224
v -76.0283510684967 2.5732510089874268 228.03410339355469
v -79.996787999989465 2.8991000652313232 224
v -83.176613092422485 -0.0817589983344078 244.41932678222656
v -75.612541198730469 1.4833519458770752 236.01528906822205
v -85.999145984649658 -1.0954350233078003 256
v -82.7598340511322 -0.9739459753036499 252.39984130859375
v -90.570320129394531 -1.1213200092315674 256
v -82.571274042129517 -1.2700760364532471 256
v -74.7832260131836 -1.1676850318908691 251.97921752929688
v -78.401154041290283 -1.3891210556030273 256
v -75.198685169219971 -0.00597199983894825 243.99780297279358
v -68.243331909179688 2.2143759727478027 224
v -72.066260814666748 2.59171199798584 224
v -68.052696228027344 2.1827189922332764 227.61415100097656
v -67.638336181640625 0.79692697525024414 235.59632921218872
v -64 1.7300659418106079 227.40155029296875
v -64 1.0353080034255981 231.55290222167969
v -67.221282958984375 -0.039576999843120575 243.57664489746094
v -76.240119934082031 2.8082931041717529 224
v -74.572327136993408 -1.4366739988327026 256
v -70.802291870117188 -1.2155560255050659 256
v -66.803230285644531 -0.67004901170730591 251.5562744140625
v -64 0.0012600000482052565 243.40641808509827
v -64 -0.39876899123191833 248.44111633300781
v -64 -0.63760000467300415 251.40814208984375
v -64 -0.94524502754211426 255.01664733886719
v -66.570556640625 -1.0472559928894043 256
v -64 -1.0290809869766235 256
v -64 0.3353630006313324 239.99704000004567
v -64 0.81677597761154175 235.40414381027222
v -64 1.7389249801635742 224.30372619628906
v -64 1.7397940158843994 224
vt 0.99325102567672729 0.0030019879341125488
vt 0.96581399440765381 0.0031380057334899902
vt 0.99325102567672729 0.027660012245178223
vt 0.70774102210998535 0.0041710138320922852
vt 0.8446509838104248 0.1261640191078186
vt 0.83790498971939087 0.0035889744758605957
vt 0.9934539794921875 0.1178249716758728
vt 0.99369102716445923 0.25949597358703613
vt 0.593093991279602 0.0046849846839904785
vt 0.600534975528717 0.14000797271728516
vt 0.18267199397087097 0.0089449882507324219
vt 0.35019901394844055 0.15510398149490356
vt 0.3407520055770874 0.00734102725982666
vt 0.004883000161498785 0.010493993759155273
vt 0.005169999785721302 0.0838019847869873
vt 0.04447299987077713 0.010232985019683838
vt 0.10260199755430222 0.17024397850036621
vt 0.093569003045558929 0.0099269747734069824
vt 0.44462200999259949 0.0062860250473022461
vt 0.8578299880027771 0.3695719838142395
vt 0.61227202415466309 0.38428401947021484
vt 0.99383801221847534 0.36192899942398071
vt 0.87179398536682129 0.61280500888824463
vt 0.99419301748275757 0.49131500720977783
vt 0.36210700869560242 0.39893198013305664
vt 0.62627202272415161 0.62751901149749756
vt 0.0067480001598596573 0.31546902656555176
vt 0.11733300238847733 0.4134179949760437
vt 0.0056739998981356621 0.17607802152633667
vt 0.0072349999099969864 0.42013198137283325
vt 0.13153299689292908 0.65665099024772644
vt 0.0079520000144839287 0.54734501242637634
vt 0.37785500288009644 0.64204999804496765
vt 0.99511700868606567 0.85039100050926208
vt 0.99509799480438232 0.7332490086555481
vt 0.88490802049636841 0.85628800094127655
vt 0.63801300525665283 0.87163400650024414
vt 0.89034402370452881 0.980689000338316
vt 0.76200002431869507 0.98205200023949146
vt 0.39234200119972229 0.88522099703550339
vt 0.99497801065444946 0.60562899708747864
vt 0.00877199973911047 0.664106011390686
vt 0.010456999763846397 0.77958199381828308
vt 0.1481190025806427 0.90024100244045258
vt 0.39795801043510437 0.98343499936163425
vt 0.24421900510787964 0.98488099966198206
vt 0.1534540057182312 0.98567999992519617
vt 0.043138999491930008 0.98679200001060963
vt 0.012205000035464764 0.90871399641036987
vt 0.013046000152826309 0.987096999771893
vt 0.50242000818252563 0.98308599926531315
vt 0.64437299966812134 0.98255500011146069
vt 0.98480600118637085 0.981453999876976
vt 0.99406701326370239 0.98152099922299385
vn 0.06249300017952919 0.99491500854492188 0.078979998826980591
vn 0.035280998796224594 0.9978870153427124 0.054565001279115677
vn 0.036490999162197113 0.99778300523757935 0.055651001632213593
vn 0.029100000858306885 0.99626201391220093 0.081339001655578613
vn 0.035856001079082489 0.99728202819824219 0.064369000494480133
vn 0.027875000610947609 0.99752098321914673 0.064607001841068268
vn 0.032974999397993088 0.99836099147796631 0.046783998608589172
vn 0.042911000549793243 0.99784702062606812 0.0495930016040802
vn 0.033925998955965042 0.9836840033531189 0.17667999863624573
vn 0.056439999490976334 0.98439699411392212 0.16666600108146668
vn 0.033355001360177994 0.98416197299957275 0.17410300672054291
vn 0.048277001827955246 0.97864502668380737 0.19980800151824951
vn -9.6999996458180249E-05 0.98228800296783447 0.187376007437706
vn 0.038658000528812408 0.99685102701187134 0.069236002862453461
vn 0.02660599909722805 0.997937023639679 0.058430001139640808
vn 0.038658000528812408 0.99685102701187134 0.069236002862453461
vn 0.02332100085914135 0.99450802803039551 0.10202900320291519
vn 0.041395001113414764 0.99131101369857788 0.12485200166702271
vn 0.010664000175893307 0.9702720046043396 0.24178299307823181
vn 0.041618999093770981 0.99544799327850342 0.085740998387336731
vn 0.0631679967045784 0.98280900716781616 0.17348399758338928
vn 0.031939998269081116 0.99816697835922241 0.0514100007712841
vn 0.039971999824047089 0.99472200870513916 0.09449700266122818
vn 0.022706000134348869 0.99819397926330566 0.055612001568078995
vn 0.032823000103235245 0.98556399345397949 0.16609400510787964
vn 0.053497001528739929 0.98488700389862061 0.16472800076007843
vn 0.0094280000776052475 0.99906498193740845 0.042197000235319138
vn 0.015961000695824623 0.9955180287361145 0.09321100264787674
vn -0.0060740001499652863 0.99957102537155151 0.028659999370574951
vn 0.039191998541355133 0.99603402614593506 0.079875998198986053
vn -0.0074149998836219311 0.9950069785118103 0.099524997174739838
vn 0.024152999743819237 0.996766984462738 0.076627999544143677
vn 0.019426999613642693 0.98868697881698608 0.14873300492763519
vn 0.10446999967098236 0.99452298879623413 0.0032009999267756939
vn 0.062582001090049744 0.99709802865982056 0.043338000774383545
vn 0.094787001609802246 0.99174600839614868 0.086346998810768127
vn 0.050845999270677567 0.99013400077819824 0.13057099282741547
vn 0.11485300213098526 0.99003499746322632 0.081481002271175385
vn 0.090086996555328369 0.986158013343811 0.13920100033283234
vn -0.0063310000114142895 0.99505001306533813 0.099172003567218781
vn 0.037457998842000961 0.99771898984909058 0.056164998561143875
vn -0.024167999625205994 0.997393012046814 0.067993000149726868
vn -0.053396999835968018 0.99581301212310791 0.074190996587276459
vn -0.030426999554038048 0.99623900651931763 0.081133998930454254
vn -0.0079410001635551453 0.99602800607681274 0.088680997490882874
vn -0.0081829996779561043 0.99680602550506592 0.07944200187921524
vn -0.0071760001592338085 0.99656397104263306 0.082509003579616547
vn -0.007044999860227108 0.99636101722717285 0.08494500070810318
vn -0.022802000865340233 0.99605602025985718 0.085744000971317291
vn -0.007044999860227108 0.99636101722717285 0.08494500070810318
vn -0.0016720000421628356 0.99471300840377808 0.10268499702215195
vn -0.001230000052601099 0.99682098627090454 0.079668000340461731
vn 0.11114799976348877 0.99379998445510864 0.0028419999871402979
vn 0.11114899814128876 0.99379998445510864 0.0028429999947547913
f 1/1/1 2/2/2 3/3/3
f 4/4/4 5/5/5 6/6/6
f 3/3/3 5/5/5 7/7/7
f 3/3/3 6/6/6 5/5/5
f 3/3/3 2/2/2 6/6/6
f 7/7/7 5/5/5 8/8/8
f 5/5/5 9/9/9 10/10/10
f 5/5/5 4/4/4 9/9/9
f 11/11/11 12/12/12 13/13/13
f 14/14/14 15/15/15 16/16/16
f 16/16/16 17/17/17 18/18/18
f 16/16/16 15/15/15 17/17/17
f 10/10/10 13/13/13 12/12/12
f 10/10/10 19/19/19 13/13/13
f 9/9/9 19/19/19 10/10/10
f 20/20/20 5/5/5 10/10/10
f 21/21/21 20/20/20 10/10/10
f 8/8/8 20/20/20 22/22/22
f 8/8/8 5/5/5 20/20/20
f 20/20/20 21/21/21 23/23/23
f 24/24/24 22/22/22 20/20/20
f 21/21/21 25/25/25 26/26/26
f 12/12/12 21/21/21 10/10/10
f 21/21/21 12/12/12 25/25/25
f 17/17/17 27/27/27 28/28/28
f 17/17/17 29/29/29 27/27/27
f 17/17/17 25/25/25 12/12/12
f 17/17/17 28/28/28 25/25/25
f 29/29/29 17/17/17 15/15/15
f 30/30/30 28/28/28 27/27/27
f 30/30/30 31/31/31 28/28/28
f 30/30/30 32/32/32 31/31/31
f 25/25/25 28/28/28 33/33/33
f 18/18/18 12/12/12 11/11/11
f 18/18/18 17/17/17 12/12/12
f 34/34/34 35/35/35 36/36/36
f 26/26/26 23/23/23 21/21/21
f 23/23/23 26/26/26 36/36/36
f 37/37/37 26/26/26 33/33/33
f 26/26/26 37/37/37 36/36/36
f 38/38/38 37/37/37 39/39/39
f 38/38/38 36/36/36 37/37/37
f 37/37/37 33/33/33 40/40/40
f 36/36/36 41/41/41 23/23/23
f 36/36/36 35/35/35 41/41/41
f 33/33/33 26/26/26 25/25/25
f 42/42/42 31/31/31 32/32/32
f 31/31/31 43/43/43 44/44/44
f 31/31/31 42/42/42 43/43/43
f 44/44/44 40/40/40 31/31/31
f 45/45/45 44/44/44 46/46/46
f 45/45/45 40/40/40 44/44/44
f 47/47/47 44/44/44 48/48/48
f 48/48/48 49/49/49 50/50/50
f 48/48/48 44/44/44 49/49/49
f 49/49/49 44/44/44 43/43/43
f 33/33/33 31/31/31 40/40/40
f 51/51/51 37/37/37 40/40/40
f 51/51/51 52/52/52 37/37/37
f 31/31/31 33/33/33 28/28/28
f 52/52/52 39/39/39 37/37/37
f 53/53/53 36/36/36 38/38/38
f 53/53/53 34/34/34 36/36/36
f 53/53/53 54/54/54 34/34/34
f 47/47/47 46/46/46 44/44/44
f 45/45/45 51/51/51 40/40/40
f 23/23/23 24/24/24 20/20/20
f 23/23/23 41/41/41 24/24/24
