mtllib m03333113.mtl
usemtl material0
v -15.01394510269165 -0.12752200663089752 96
v -16 -0.0065549998544156551 96.8763279914856
v -14.970171928405762 -0.054161999374628067 96.822097778320312
v -16 -0.063092000782489777 96.258034229278564
v -16 -0.086686000227928162 96
v -11.014899969100952 -0.29567500948905945 96
v -10.982266902923584 -0.23266099393367767 96.612068176269531
v -14.23074197769165 -0.16952599585056305 96
v -10.431736946105957 -0.31442001461982727 96
v -10.769267082214356 0.26231899857521057 100.59913611412048
v -16 0.35098099708557129 99.691703796386719
v -14.757157802581787 0.44374701380729675 100.80915093421936
v -16 0.85918700695037842 102.19139099121094
v -16 0.50652897357940674 100.87457990646362
v -16 1.4067360162734985 104.87161999940872
v -14.542704105377197 1.235103964805603 104.79520398378372
v -10.556214094161987 0.76803702116012573 104.58616602420807
v -6.78159499168396 0.036453999578952789 100.38926696777344
v -14.328914165496826 1.8912039995193481 108.78172302246094
v -16 1.8169670104980469 107.27884697914124
v -6.9942309856414795 -0.38430899381637573 96.401947021484375
v -10.343763113021851 1.1511930227279663 108.57360792160034
v -16 3.1117949485778809 112
v -16 2.8667359352111816 110.64109802246094
v -14.15640115737915 2.4054820537567139 112
v -16 2.7353389263153076 110.18951416015625
v -16 2.3509719371795654 108.86852312088013
v -10.161782026290894 1.3671239614486694 112
v -13.42442798614502 2.2760310173034668 112
v -6.3575090169906616 0.63626998662948608 108.36473083496094
v -9.6269550323486328 1.2999910116195679 112
v -6.5692559480667114 0.39666599035263062 104.37679299712181
v -7.0156599879264832 -0.42554301023483276 96
v -6.632660984992981 -0.420648992061615 96
v -3.0061969757080078 -0.53645002841949463 96.191833019256592
v -2.583104133605957 -0.1387690007686615 104.1679839938879
v -5.8287160396575928 0.73993700742721558 112
v -2.3717021942138672 0.030524000525474548 108.15615797042847
v -6.1648160219192505 0.790132999420166 112
v -2.7941670417785645 -0.23921999335289002 100.17957305908203
v 0 -0.59822702407836914 96.774040222167969
v 0 -0.57536399364471436 97.073235034942627
v 0 -0.65481901168823242 96.033454895019531
v 0 -0.505312979221344 100.03286004066467
v 0 -0.46723300218582153 101.29624891281128
v -2.833622932434082 -0.54678601026535034 96
v -3.0163798332214355 -0.54738897085189819 96
v -2.1676740646362305 0.24828499555587769 112
v 0 -0.1764490008354187 108.03156995773315
v -2.0303730964660645 0.23674400150775909 112
v 0 -0.071878001093864441 109.74265289306641
v 0 -0.30420100688934326 105.51938605308533
v 0 -0.37431800365448 104.03231799975038
v 0 -0.57536399364471436 97.073235034942627
v 0 -0.65546697378158569 96
v 0 0.068089999258518219 111.9656138420105
v 0 0.070254996418952942 112
vt 0.03130900114774704 0.92899099737405777
vt 0.085441999137401581 0.98583200015127659
vt 0.080110996961593628 0.92489399760961533
vt 0.048670999705791473 0.98696199990808964
vt 0.03332500159740448 0.98743299953639507
vt 0.023134000599384308 0.69196298718452454
vt 0.0595179982483387 0.68893200159072876
vt 0.029653999954462051 0.88254699856042862
vt 0.021978000178933144 0.65741100907325745
vt 0.29709398746490479 0.66932401061058044
vt 0.25352999567985535 0.98090299963951111
vt 0.31771799921989441 0.905290000140667
vt 0.40494400262832642 0.97690599970519543
vt 0.32419198751449585 0.97884400002658367
vt 0.56697100400924683 0.97233599983155727
vt 0.55808800458908081 0.88614899665117264
vt 0.53470999002456665 0.64914900064468384
vt 0.2755579948425293 0.43331700563430786
vt 0.79690700769424438 0.86539599299430847
vt 0.7115899920463562 0.96774199977517128
vt 0.039099998772144318 0.45301198959350586
vt 0.7714800238609314 0.62824699282646179
vt 0.99977797269821167 0.96660000085830688
vt 0.91798198223114014 0.96847299858927727
vt 0.98967999219894409 0.850054994225502
vt 0.89246499538421631 0.96606000140309334
vt 0.8109549880027771 0.96725700050592422
vt 0.97434097528457642 0.60964500904083252
vt 0.98709499835968018 0.806086003780365
vt 0.74796199798583984 0.39092797040939331
vt 0.97284901142120361 0.57774099707603455
vt 0.51190400123596191 0.41266000270843506
vt 0.01520800031721592 0.45500099658966064
vt 0.014554000459611416 0.43231499195098877
vt 0.018025999888777733 0.21714597940444946
vt 0.488303005695343 0.17519599199295044
vt 0.96193099021911621 0.350504994392395
vt 0.7241089940071106 0.15291798114776611
vt 0.96289998292922974 0.37062400579452515
vt 0.25328099727630615 0.19720697402954102
vt 0.045334000140428543 0.0380210280418396
vt 0.063105002045631409 0.037460029125213623
vt 0.0013559999642893672 0.039686024188995361
vt 0.23674699664115906 0.031488001346588135
vt 0.31158000230789185 0.028469979763031006
vt 0.0062950002029538155 0.20732200145721436
vt 0.0066689997911453247 0.2181439995765686
vt 0.95158201456069946 0.13187402486801148
vt 0.71037197113037109 0.012328982353210449
vt 0.95119798183441162 0.12353897094726563
vt 0.81186801195144653 0.00827699899673462
vt 0.56144899129867554 0.018402993679046631
vt 0.47331199049949646 0.022026002407073975
vt 0.063105002045631409 0.037460029125213623
vt 0.00022200000239536166 0.039407014846801758
vt 0.94374197721481323 0.0030320286750793457
vt 0.94578200578689575 0.00295102596282959
vn 0.047079998999834061 0.99471300840377808 -0.091269999742507935
vn 0.040169999003410339 0.99321997165679932 -0.10908599942922592
vn 0.041170001029968262 0.99306797981262207 -0.11009500175714493
vn 0.0412059985101223 0.99500000476837158 -0.090981997549533844
vn 0.0412059985101223 0.99500000476837158 -0.090981997549533844
vn 0.035578001290559769 0.99391698837280273 -0.10422399640083313
vn 0.035013999789953232 0.9928010106086731 -0.11454100161790848
vn 0.04280799999833107 0.99396699666976929 -0.10097800195217133
vn 0.03223399817943573 0.99407601356506348 -0.10379499942064285
vn 0.049892999231815338 0.989791989326477 -0.13349799811840057
vn 0.040258001536130905 0.99107897281646729 -0.12705099582672119
vn 0.045788999646902084 0.9843599796295166 -0.1701119989156723
vn 0.08870299905538559 0.97308099269866943 -0.2127079963684082
vn 0.039094001054763794 0.97956001758575439 -0.19731500744819641
vn 0.10556899756193161 0.97755300998687744 -0.18233299255371094
vn 0.10627400130033493 0.98031598329544067 -0.16639000177383423
vn 0.093727998435497284 0.98941498994827271 -0.11078199744224548
vn 0.057824000716209412 0.99320197105407715 -0.10102300345897675
vn 0.20397399365901947 0.95858800411224365 -0.1987529993057251
vn 0.14316800236701965 0.96780902147293091 -0.20699900388717651
vn 0.029162999242544174 0.99439197778701782 -0.10165800154209137
vn 0.14816899597644806 0.983709990978241 -0.10178299993276596
vn 0.35279199481010437 0.92084801197052 -0.16606199741363525
vn 0.32868701219558716 0.92513501644134521 -0.18997399508953095
vn 0.26294699311256409 0.95042699575424194 -0.16597199440002441
vn 0.24222800135612488 0.93158501386642456 -0.27106198668479919
vn 0.24000899493694305 0.92684799432754517 -0.28870299458503723
vn 0.19465799629688263 0.97822600603103638 -0.071987003087997437
vn 0.19691400229930878 0.97016400098800659 -0.14144699275493622
vn 0.13633799552917481 0.98894798755645752 -0.058254998177289963
vn 0.12987799942493439 0.989471971988678 -0.063847996294498444
vn 0.10512500256299973 0.99150598049163818 -0.076585002243518829
vn 0.01056199986487627 0.99466598033905029 -0.1026030033826828
vn 0.02221900038421154 0.99728697538375854 -0.070179000496864319
vn 0.034056000411510468 0.9972190260887146 -0.066294997930526733
vn 0.1123490035533905 0.99277299642562866 -0.042180001735687256
vn 0.14364999532699585 0.98819798231124878 -0.053187001496553421
vn 0.11441999673843384 0.99196702241897583 -0.053948000073432922
vn 0.14655099809169769 0.98795998096466064 -0.04958299919962883
vn 0.080061003565788269 0.9952700138092041 -0.055027000606060028
vn 0.035225000232458115 0.996474027633667 -0.076145999133586884
vn 0.035225000232458115 0.996474027633667 -0.0761450007557869
vn 0.036839999258518219 0.99822497367858887 -0.046790000051259995
vn 0.09338100254535675 0.99527299404144287 -0.026666000485420227
vn 0.092219002544879913 0.99526000022888184 -0.030884999781847
vn 0.027218999341130257 0.99919801950454712 -0.0293550007045269
vn 0.016473999246954918 0.99819201231002808 -0.057796001434326172
vn 0.10752499848604202 0.9922720193862915 -0.061921998858451843
vn 0.083908997476100922 0.99492597579956055 -0.055512998253107071
vn 0.0830639973282814 0.99465799331665039 -0.061276998370885849
vn 0.083131998777389526 0.99465698003768921 -0.061216000467538834
vn 0.087316997349262238 0.99503397941589355 -0.047775000333786011
vn 0.0886479988694191 0.99525398015975952 -0.040127001702785492
vn 0.093549996614456177 0.99533599615097046 -0.0235580001026392
vn 0.038318000733852386 0.99907797574996948 -0.019363999366760254
vn 0.0815650001168251 0.99469798803329468 -0.062633998692035675
vn 0.081564001739025116 0.99469798803329468 -0.062637001276016235
f 1/1/1 2/2/2 3/3/3
f 1/1/1 4/4/4 2/2/2
f 4/4/4 1/1/1 5/5/5
f 6/6/6 3/3/3 7/7/7
f 6/6/6 8/8/8 3/3/3
f 1/1/1 3/3/3 8/8/8
f 6/6/6 7/7/7 9/9/9
f 7/7/7 3/3/3 10/10/10
f 3/3/3 11/11/11 12/12/12
f 3/3/3 2/2/2 11/11/11
f 13/13/13 12/12/12 14/14/14
f 14/14/14 12/12/12 11/11/11
f 12/12/12 15/15/15 16/16/16
f 12/12/12 13/13/13 15/15/15
f 10/10/10 16/16/16 17/17/17
f 16/16/16 10/10/10 12/12/12
f 17/17/17 18/18/18 10/10/10
f 15/15/15 19/19/19 16/16/16
f 15/15/15 20/20/20 19/19/19
f 3/3/3 12/12/12 10/10/10
f 7/7/7 10/10/10 21/21/21
f 16/16/16 22/22/22 17/17/17
f 23/23/23 19/19/19 24/24/24
f 23/23/23 25/25/25 19/19/19
f 26/26/26 19/19/19 27/27/27
f 26/26/26 24/24/24 19/19/19
f 28/28/28 22/22/22 29/29/29
f 25/25/25 22/22/22 19/19/19
f 25/25/25 29/29/29 22/22/22
f 28/28/28 30/30/30 22/22/22
f 28/28/28 31/31/31 30/30/30
f 16/16/16 19/19/19 22/22/22
f 20/20/20 27/27/27 19/19/19
f 17/17/17 22/22/22 32/32/32
f 9/9/9 21/21/21 33/33/33
f 9/9/9 7/7/7 21/21/21
f 33/33/33 21/21/21 34/34/34
f 18/18/18 35/35/35 21/21/21
f 10/10/10 18/18/18 21/21/21
f 22/22/22 30/30/30 32/32/32
f 30/30/30 36/36/36 32/32/32
f 30/30/30 37/37/37 38/38/38
f 30/30/30 39/39/39 37/37/37
f 31/31/31 39/39/39 30/30/30
f 18/18/18 32/32/32 40/40/40
f 17/17/17 32/32/32 18/18/18
f 40/40/40 35/35/35 18/18/18
f 41/41/41 40/40/40 42/42/42
f 41/41/41 35/35/35 40/40/40
f 41/41/41 43/43/43 35/35/35
f 44/44/44 36/36/36 45/45/45
f 44/44/44 40/40/40 36/36/36
f 36/36/36 40/40/40 32/32/32
f 46/46/46 47/47/47 35/35/35
f 35/35/35 34/34/34 21/21/21
f 35/35/35 47/47/47 34/34/34
f 48/48/48 38/38/38 37/37/37
f 49/49/49 50/50/50 51/51/51
f 49/49/49 38/38/38 50/50/50
f 38/38/38 48/48/48 50/50/50
f 52/52/52 36/36/36 38/38/38
f 52/52/52 53/53/53 36/36/36
f 38/38/38 36/36/36 30/30/30
f 54/54/54 40/40/40 44/44/44
f 45/45/45 36/36/36 53/53/53
f 55/55/55 35/35/35 43/43/43
f 55/55/55 46/46/46 35/35/35
f 51/51/51 50/50/50 56/56/56
f 56/56/56 50/50/50 57/57/57
f 52/52/52 38/38/38 49/49/49
