mtllib m033333123.mtl
usemtl material0
v -24 1.9545559883117676 32.963649988174438
v -23.367595911026 2.0490100383758545 32.260941028594971
v -24 2.0073399543762207 32.294467926025391
v -23.381283044815063 2.0661940574645996 32
v -24 2.0140519142150879 32.197356939315796
v -24 2.0276939868927 32
v -22.380947113037109 2.1369640827178955 32
v -22.370049953460693 2.120107889175415 32.208034992218018
v -23.132759094238281 2.0867509841918945 32
v -22.18281888961792 2.1530001163482666 32
v -21.37253201007843 2.1858339309692383 32.155150890350342
v -21.380643963813782 2.2014420032501221 32
v -20.488656997680664 2.2544379234313965 32
v -20.375016987323761 2.2505838871002197 32.102272033691406
v -20.380353987216949 2.2630240917205811 32
v -22.317925930023193 2.0143840312957764 33.205589056015015
v -23.315390110015869 1.9598870277404785 33.258434057235718
v -21.320464968681335 2.0683920383453369 33.152744054794312
v -22.213368892669678 1.8659230470657349 35.20047402381897
v -20.322975009679794 2.1282589435577393 33.09987998008728
v -19.377394020557404 2.3377940654754639 32.049313068389893
v -20.218337997794151 1.996399998664856 35.094707012176514
v -20.282965004444122 2.2728819847106934 32
v -24 1.924159049987793 33.294701099395752
v -24 1.8274639844894409 34.828655004501343
v -24 1.3848379850387573 39.295792102813721
v -24 1.3848110437393189 39.296219110488892
v -23.999552011489868 1.3848110437393189 39.296195983886719
v -24 1.7954169511795044 35.295044004917145
v -24 1.549746036529541 37.185631036758423
v -24 1.3854390382766724 39.28764009475708
v -22.733227014541626 1.3316819667816162 40
v -22.005203008651733 1.3761299848556519 39.19091010093689
v -23.96262001991272 1.3410429954528809 40
v -24 1.3411999940872192 40
v -24 1.3418819904327393 39.988986968994141
v -22.109500885009766 1.5773270130157471 37.1958429813385
v -24 1.5337220430374146 37.295811057090759
v -20.114679001271725 1.6648349761962891 37.090224981307983
v -18.22277295589447 2.2352709770202637 34.9885710477829
v -20.010664000175893 1.4060230255126953 39.0854868888855
v -21.962797045707703 1.3155200481414795 40
v -19.962799001485109 1.3249839544296265 40
v -20.833597004413605 1.3279379606246948 40
v -18.119518041610718 1.8216769695281982 36.9843670129776
v -19.325362980365753 2.2130279541015625 33.046927928924561
v -19.379961013793945 2.3448059558868408 32
v -19.333001971244812 2.3514080047607422 32
v -18.450937032699585 2.4604721069335938 32
v -18.379351019859314 2.4694309234619141 32
v -18.327543020248413 2.3402760028839111 32.993834972381592
v -18.382971048355103 2.4689960479736328 32
v -17.378580093383789 2.6257688999176025 32
v -17.329596042633057 2.4934020042419434 32.940650939941406
v -17.43287992477417 2.6178669929504395 32
v -16.482755899429321 2.7853899002075195 32
v -16 2.7413380146026611 32.519038915634155
v -16.37772011756897 2.7995231151580811 32
v -16.331691980361938 2.6377389430999756 32.887496948242188
v -16 2.8387510776519775 32
v -16 2.72929310798645 32.579078912734985
v -16 2.6709530353546143 32.869873046875
v -16 2.51282000541687 34.36126697063446
v -16.227396011352539 2.4360570907592773 34.882565021514893
v -18.015738964080811 1.5145260095596314 38.979796886444092
v -16.02062201499939 1.6625779867172241 38.873974084854126
v -16.88248610496521 1.4349520206451416 40
v -17.962483882904053 1.3964159488677979 40
v -18.933874011039734 1.3759750127792358 40
v -16.124479055404663 1.9536160230636597 36.878597021102905
v -16 1.9869450330734253 36.740311026573181
v -16 2.4387960433959961 34.870548009872437
v -16 1.954537034034729 36.872021019458771
v -16 1.9394290447235107 36.990700006484985
v -16 1.6039040088653565 39.270260095596313
v -16 1.4933470487594605 40
v -16 1.6631139516830444 38.872883081436157
v -16 1.65904700756073 38.90017294883728
vt 0.12045600265264511 0
vt 0.032618001103401184 0.079051017761230469
vt 0.036807999014854431 0
vt 0 0.0773400068283081
vt 0.02466999925673008 0
vt 0 0
vt 0 0.20238202810287476
vt 0.026003999635577202 0.20374399423599243
vt 0 0.10840499401092529
vt 0 0.22714799642562866
vt 0.019393999129533768 0.32843399047851562
vt 0 0.32741999626159668
vt 0 0.43891799449920654
vt 0.012783999554812908 0.45312297344207764
vt 0 0.452455997467041
vt 0.15069900453090668 0.21025902032852173
vt 0.15730400383472443 0.085575997829437256
vt 0.14409300684928894 0.33494198322296143
vt 0.40005901455879211 0.22332900762557983
vt 0.13748499751091003 0.45962798595428467
vt 0.0061639999039471149 0.57782599329948425
vt 0.38683798909187317 0.47270798683166504
vt 0 0.46462899446487427
vt 0.16183799505233765 0
vt 0.3535819947719574 0
vt 0.91197401285171509 0
vt 0.91202700138092041 0
vt 0.91202402114868164 5.6028366088867188E-05
vt 0.41187998652458191 0
vt 0.64820402860641479 0
vt 0.910955011844635 0
vt 1 0.15834701061248779
vt 0.89886397123336792 0.24935001134872437
vt 1 0.004673004150390625
vt 1 0
vt 0.99862301349639893 0
vt 0.64947998523712158 0.23631197214126587
vt 0.66197597980499268 0
vt 0.636277973651886 0.48566502332687378
vt 0.3735710084438324 0.72215300798416138
vt 0.88568598031997681 0.49866700172424316
vt 1 0.25464999675750732
vt 1 0.50464999675750732
vt 1 0.39579999446868896
vt 0.62304598093032837 0.73506000638008118
vt 0.13086600601673126 0.5843299925327301
vt 0 0.57750499248504639
vt 0 0.58337500691413879
vt 0 0.69363299012184143
vt 0 0.702580988407135
vt 0.12422899901866913 0.70905700325965881
vt 0 0.70212900638580322
vt 0 0.827676996588707
vt 0.11758100241422653 0.83380100131034851
vt 0 0.82088999450206757
vt 0 0.93965600058436394
vt 0.064879998564720154 1
vt 0 0.95278500020504
vt 0.11093699932098389 0.95853900164365768
vt 0 1
vt 0.072384998202323914 1
vt 0.10873399674892426 1
vt 0.29515799880027771 1
vt 0.36032098531723022 0.97157499939203262
vt 0.8724750280380249 0.74803298711776733
vt 0.85924702882766724 0.99742199992761016
vt 1 0.88968899846076965
vt 1 0.75468899309635162
vt 1 0.63326600193977356
vt 0.6098250150680542 0.98443999979645014
vt 0.59253901243209839 1
vt 0.35881900787353516 1
vt 0.60900300741195679 1
vt 0.62383699417114258 1
vt 0.90878200531005859 1
vt 1 1
vt 0.85910999774932861 1
vt 0.86252200603485107 1
vn -0.056662999093532562 0.99495899677276611 0.082741998136043549
vn -0.0569319985806942 0.99410098791122437 0.092309996485710144
vn -0.061597000807523727 0.9952700138092041 0.0751279965043068
vn -0.065153002738952637 0.99548900127410889 0.06897599995136261
vn -0.061958998441696167 0.99570298194885254 0.068824000656604767
vn -0.061958000063896179 0.99570298194885254 0.068827003240585327
vn -0.067700996994972229 0.99415498971939087 0.084099002182483673
vn -0.062761999666690826 0.99243700504302979 0.10550200194120407
vn -0.070340998470783234 0.99426901340484619 0.0805009976029396
vn -0.062277000397443771 0.99294102191925049 0.10094299912452698
vn -0.055730000138282776 0.99194902181625366 0.11371400207281113
vn -0.059450000524520874 0.992904007434845 0.10299299657344818
vn -0.059833001345396042 0.99278700351715088 0.10389800369739533
vn -0.064035996794700623 0.99032402038574219 0.12311799824237824
vn -0.088610999286174774 0.98821300268173218 0.12482900172472
vn -0.052744999527931213 0.99437499046325684 0.091848000884056091
vn -0.04318699985742569 0.99630701541900635 0.074206002056598663
vn -0.055962000042200088 0.99475598335266113 0.08561299741268158
vn -0.042566001415252686 0.99347501993179321 0.10580799728631973
vn -0.069150999188423157 0.9931979775428772 0.093676000833511353
vn -0.092600002884864807 0.98734098672866821 0.12877799570560455
vn -0.0743580013513565 0.99081200361251831 0.11297400295734406
vn -0.079970002174377441 0.98647201061248779 0.14309999346733093
vn -0.047952998429536819 0.99595701694488525 0.0759660005569458
vn -0.045669998973608017 0.99689400196075439 0.064159996807575226
vn -0.0059130000881850719 0.9973139762878418 0.073003001511096954
vn 0.0031580000650137663 0.99808001518249512 0.061849001795053482
vn 0.008759000338613987 0.99630701541900635 0.0854090005159378
vn -0.034139998257160187 0.99473297595977783 0.0966470018029213
vn -0.023050000891089439 0.99030500650405884 0.13698099553585053
vn -0.019073000177741051 0.99705898761749268 0.0742269977927208
vn 0.010346000082790852 0.99788802862167358 0.064129002392292023
vn -0.0089859999716281891 0.99503797292709351 0.099087998270988464
vn 0.0074990000575780869 0.99806797504425049 0.061673998832702637
vn 0.004191999789327383 0.99807900190353394 0.061806999146938324
vn 0.0041680000722408295 0.99807697534561157 0.061847999691963196
vn -0.025833999738097191 0.99212497472763062 0.12256000190973282
vn -0.018871000036597252 0.99678099155426025 0.0779149979352951
vn -0.054462999105453491 0.98705297708511353 0.15086500346660614
vn -0.1015160009264946 0.98624998331069946 0.13040800392627716
vn -0.036963999271392822 0.991582989692688 0.12408600002527237
vn 0.0019650000613182783 0.9972119927406311 0.0745989978313446
vn -0.037902001291513443 0.99520498514175415 0.090172998607158661
vn -0.0076489998027682304 0.99690598249435425 0.078235998749732971
vn -0.063378997147083282 0.98212999105453491 0.17721299827098846
vn -0.10830400139093399 0.99098402261734009 0.078873999416828156
vn -0.08151700347661972 0.98614597320556641 0.14446699619293213
vn -0.12194500118494034 0.97945302724838257 0.16062599420547485
vn -0.12329600006341934 0.98370897769927979 0.13082300126552582
vn -0.13547100126743317 0.98159199953079224 0.13462600111961365
vn -0.13678200542926788 0.98623698949813843 0.0928800031542778
vn -0.12312799692153931 0.98387598991394043 0.12971800565719605
vn -0.15678699314594269 0.97683799266815186 0.14562399685382843
vn -0.12662200629711151 0.98663800954818726 0.1025329977273941
vn -0.15291699767112732 0.9788699746131897 0.13575400412082672
vn -0.15069299936294556 0.97440701723098755 0.16680100560188294
vn -0.10101000219583511 0.97772699594497681 0.18397699296474457
vn -0.10614699870347977 0.97724401950836182 0.18365000188350678
vn -0.12203600257635117 0.983739972114563 0.13176700472831726
vn -0.10154499858617783 0.97776001691818237 0.18350599706172943
vn -0.087393000721931458 0.97671198844909668 0.19595000147819519
vn -0.092598997056484222 0.98843902349472046 0.12005999684333801
vn -0.084356002509593964 0.99045002460479736 0.10904999822378159
vn -0.082152001559734344 0.98239099979400635 0.16780300438404083
vn -0.051878001540899277 0.98926597833633423 0.13661099970340729
vn -0.061039000749588013 0.98671597242355347 0.15055100619792938
vn -0.0576150007545948 0.98831897974014282 0.14108699560165405
vn -0.02854200080037117 0.99278897047042847 0.11642599850893021
vn -0.0354980006814003 0.99404197931289673 0.10305199772119522
vn -0.0516510009765625 0.97989797592163086 0.1926950067281723
vn 0.0008140000281855464 0.971996009349823 0.23499399423599243
vn -0.00035600000410340726 0.97642999887466431 0.21583500504493713
vn 0.0025810000952333212 0.982463002204895 0.18644100427627564
vn -0.01715799979865551 0.98939001560211182 0.14426599442958832
vn -0.06492999941110611 0.9866340160369873 0.14945900440216065
vn -0.065284997224807739 0.98660802841186523 0.14947299659252167
vn -0.018024999648332596 0.98922997713088989 0.14525599777698517
vn -0.017875999212265015 0.98892301321029663 0.14735099673271179
f 1/1/1 2/2/2 3/3/3
f 4/4/4 3/3/3 2/2/2
f 4/4/4 5/5/5 3/3/3
f 5/5/5 4/4/4 6/6/6
f 7/7/7 2/2/2 8/8/8
f 7/7/7 9/9/9 2/2/2
f 4/4/4 2/2/2 9/9/9
f 10/10/10 11/11/11 12/12/12
f 10/10/10 8/8/8 11/11/11
f 7/7/7 8/8/8 10/10/10
f 13/13/13 14/14/14 15/15/15
f 8/8/8 2/2/2 16/16/16
f 16/16/16 2/2/2 17/17/17
f 8/8/8 16/16/16 11/11/11
f 11/11/11 16/16/16 18/18/18
f 16/16/16 17/17/17 19/19/19
f 14/14/14 18/18/18 20/20/20
f 18/18/18 14/14/14 11/11/11
f 14/14/14 20/20/20 21/21/21
f 20/20/20 18/18/18 22/22/22
f 13/13/13 11/11/11 14/14/14
f 13/13/13 12/12/12 11/11/11
f 18/18/18 16/16/16 19/19/19
f 23/23/23 15/15/15 14/14/14
f 24/24/24 2/2/2 1/1/1
f 24/24/24 17/17/17 2/2/2
f 25/25/25 17/17/17 24/24/24
f 26/26/26 27/27/27 28/28/28
f 29/29/29 30/30/30 19/19/19
f 26/26/26 28/28/28 31/31/31
f 28/28/28 32/32/32 33/33/33
f 28/28/28 34/34/34 32/32/32
f 35/35/35 34/34/34 36/36/36
f 36/36/36 28/28/28 27/27/27
f 36/36/36 34/34/34 28/28/28
f 37/37/37 31/31/31 28/28/28
f 37/37/37 38/38/38 31/31/31
f 28/28/28 33/33/33 37/37/37
f 19/19/19 37/37/37 22/22/22
f 39/39/39 37/37/37 33/33/33
f 37/37/37 39/39/39 22/22/22
f 22/22/22 39/39/39 40/40/40
f 39/39/39 33/33/33 41/41/41
f 18/18/18 19/19/19 22/22/22
f 32/32/32 42/42/42 33/33/33
f 43/43/43 41/41/41 44/44/44
f 44/44/44 33/33/33 42/42/42
f 44/44/44 41/41/41 33/33/33
f 45/45/45 39/39/39 41/41/41
f 30/30/30 37/37/37 19/19/19
f 30/30/30 38/38/38 37/37/37
f 17/17/17 29/29/29 19/19/19
f 17/17/17 25/25/25 29/29/29
f 46/46/46 20/20/20 22/22/22
f 20/20/20 46/46/46 21/21/21
f 47/47/47 21/21/21 48/48/48
f 48/48/48 21/21/21 49/49/49
f 50/50/50 46/46/46 51/51/51
f 50/50/50 52/52/52 46/46/46
f 46/46/46 49/49/49 21/21/21
f 46/46/46 52/52/52 49/49/49
f 53/53/53 51/51/51 54/54/54
f 53/53/53 55/55/55 51/51/51
f 50/50/50 51/51/51 55/55/55
f 53/53/53 54/54/54 56/56/56
f 54/54/54 51/51/51 40/40/40
f 51/51/51 46/46/46 40/40/40
f 46/46/46 22/22/22 40/40/40
f 57/57/57 58/58/58 59/59/59
f 57/57/57 60/60/60 58/58/58
f 61/61/61 59/59/59 62/62/62
f 61/61/61 57/57/57 59/59/59
f 59/59/59 56/56/56 54/54/54
f 59/59/59 58/58/58 56/56/56
f 63/63/63 59/59/59 64/64/64
f 63/63/63 62/62/62 59/59/59
f 59/59/59 54/54/54 64/64/64
f 41/41/41 65/65/65 45/45/45
f 40/40/40 39/39/39 45/45/45
f 45/45/45 65/65/65 66/66/66
f 45/45/45 64/64/64 40/40/40
f 67/67/67 65/65/65 68/68/68
f 43/43/43 65/65/65 41/41/41
f 43/43/43 69/69/69 65/65/65
f 64/64/64 54/54/54 40/40/40
f 68/68/68 65/65/65 69/69/69
f 64/64/64 45/45/45 70/70/70
f 71/71/71 64/64/64 70/70/70
f 71/71/71 72/72/72 64/64/64
f 63/63/63 64/64/64 72/72/72
f 73/73/73 71/71/71 70/70/70
f 73/73/73 70/70/70 74/74/74
f 67/67/67 66/66/66 65/65/65
f 67/67/67 75/75/75 66/66/66
f 67/67/67 76/76/76 75/75/75
f 77/77/77 66/66/66 78/78/78
f 78/78/78 66/66/66 75/75/75
f 74/74/74 66/66/66 77/77/77
f 74/74/74 70/70/70 66/66/66
f 66/66/66 70/70/70 45/45/45
f 23/23/23 21/21/21 47/47/47
f 23/23/23 14/14/14 21/21/21
