mtllib m03333032.mtl
usemtl material0
v -88.678664982318878 4.3721060752868652 64
v -89.419792056083679 4.3222751617431641 64
v -88.641875982284546 4.3420310020446777 64.6997299194336
v -84.677567005157471 4.6074790954589844 64
v -85.19464111328125 4.58085823059082 64
v -84.651878118515015 4.5908560752868652 64.488243103027344
v -92.6790771484375 4.2718567848205566 64
v -93.643463134765625 4.2339868545532227 64
v -92.630950927734375 4.2826509475708008 64.910568237304688
v -96 3.9872360229492188 65.089408874511719
v -92.420647144317627 4.2293429374694824 68.899506092071533
v -96 3.9766221046447754 65.681168079376221
v -88.432303994894028 4.1373591423034668 68.6891860961914
v -96 3.99560809135437 64.888175964355469
v -96 4.0325579643249512 64
v -84.212593078613281 4.5952701568603516 64
v -84.4423599243164 4.3754420280456543 68.477736949920654
v -88.222328007221222 4.0156879425048828 72.678359985351562
v -96 4.0380859375 69.089127063751221
v -96 4.0144081115722656 69.480179071426392
v -92.211205005645752 3.9983000755310059 72.8890529870987
v -96 4.0341010093688965 77.078643798828125
v -95.9892430305481 4.0345211029052734 77.088325977325439
v -96 4.0349001884460449 76.884459972381592
v -96 4.0397548675537109 73.088997006416321
v -92.001822948455811 3.7535800933837891 76.878646850585938
v -96 4.0282177925109863 73.279381036758423
v -88.013046000152826 3.7533900737762451 76.668015003204346
v -84.232650995254517 4.1985960006713867 72.4670940041542
v -96 3.8643240928649902 80
v -96 4.0339531898498535 77.10028076171875
v -95.8364028930664 3.8623290061950684 80
v -96 4.0340862274169922 77.096466064453125
v -96 4.0343499183654785 77.0888900756836
v -94.810066223144531 3.7870330810546875 80
v -91.837806940078735 3.6033639907836914 80
v -87.837509006261826 3.6819329261779785 80
v -88.533080995082855 3.6827518939971924 80
v -87.211616992950439 3.7293078899383545 80
v -84.022758007049561 4.0608081817626953 76.456322193145752
v -80.662284851074219 4.7552051544189453 64.277039051055908
v -80.676956176757812 4.7464261054992676 64
v -80.452170848846436 4.6628351211547852 68.266113042831421
v -80 4.725492000579834 64.242165088653564
v -80 4.6524767875671387 67.763518810272217
v -80 4.6452069282531738 68.242294073104858
v -80 4.7250838279724121 64.230155944824219
v -80 4.7172670364379883 64
v -80 4.6098299026489258 68.673340082168579
v -80.244063854217529 4.1578707695007324 72.256599009037018
v -80.034035205841064 4.0479140281677246 76.245735168457031
v -80 4.1586651802062988 72.243706002831459
v -80 4.1479191780090332 72.476265013217926
v -83.836631774902344 3.8737890720367432 80
v -83.412086009979248 3.8712410926818848 80
v -80 3.8393609523773193 80
v -80 4.0116448402404785 76.893889904022217
v -80 4.0473909378051758 76.243935108184814
v -80 4.0467038154602051 76.276175975799561
v -80 4.0467000007629395 76.276360034942627
vt 0 0.45758301019668579
vt 0 0.41126298904418945
vt 0.043733000755310059 0.45988297462463379
vt 0 0.70765200257301331
vt 0 0.67533499002456665
vt 0.030515000224113464 0.70925799012184143
vt 0 0.20755797624588013
vt 0 0.14728397130966187
vt 0.056910999119281769 0.210565984249115
vt 0.068088002502918243 0
vt 0.30621901154518127 0.22371000051498413
vt 0.1050729975104332 0
vt 0.29307401180267334 0.47298097610473633
vt 0.055511001497507095 0
vt 0 0
vt 0 0.7367129921913147
vt 0.27985900640487671 0.7223530113697052
vt 0.54239702224731445 0.48610401153564453
vt 0.31806999444961548 0
vt 0.34251099824905396 0
vt 0.55556601285934448 0.23680001497268677
vt 0.81741499900817871 0
vt 0.81801998615264893 0.00067198276519775391
vt 0.805279016494751 0
vt 0.56806200742721558 0
vt 0.80491501092910767 0.24988597631454468
vt 0.57996100187301636 0
vt 0.79175102710723877 0.49918502569198608
vt 0.52919298410415649 0.73545899987220764
vt 1 0
vt 0.81876802444458008 0
vt 1 0.010224997997283936
vt 0.81852900981903076 0
vt 0.81805598735809326 0
vt 1 0.074370980262756348
vt 1 0.26013702154159546
vt 1 0.51015600562095642
vt 1 0.46668201684951782
vt 1 0.54927399754524231
vt 0.77851998805999756 0.74857801198959351
vt 0.017315000295639038 0.95860699936747551
vt 0 0.95769000053405762
vt 0.26663199067115784 0.971738999709487
vt 0.015135000459849834 1
vt 0.23522000014781952 1
vt 0.2651430070400238 1
vt 0.014384999871253967 1
vt 0 1
vt 0.29208400845527649 1
vt 0.5160369873046875 0.98474599979817867
vt 0.76535797119140625 0.99787300010211766
vt 0.51523202657699585 1
vt 0.52976697683334351 1
vt 1 0.76021100580692291
vt 1 0.78674499690532684
vt 1 1
vt 0.80586802959442139 1
vt 0.76524597406387329 1
vt 0.76726102828979492 1
vt 0.76727199554443359 1
vn -0.06049799919128418 0.99710601568222046 0.046036999672651291
vn -0.02505199983716011 0.99968600273132324 -0.00037399999564513564
vn -0.040913000702857971 0.99805301427841187 0.0470849983394146
vn -0.014665000140666962 0.99928700923919678 0.034793999046087265
vn -0.058667000383138657 0.99727201461791992 0.04479600116610527
vn -0.049240998923778534 0.99749201536178589 0.050834000110626221
vn -0.01853800006210804 0.99976897239685059 -0.010871999897062779
vn -0.079117998480796814 0.99625998735427856 0.034731999039649963
vn -0.025436000898480415 0.99935400485992432 0.025383999571204185
vn -0.0861470028758049 0.99602997303009033 0.022407999262213707
vn -0.022505000233650208 0.99934297800064087 0.028418999165296555
vn -0.059066001325845718 0.99817299842834473 -0.012690000236034393
vn -0.015699999406933784 0.99922198057174683 0.036192998290061951
vn -0.085092999041080475 0.99551200866699219 0.041416000574827194
vn -0.085092999041080475 0.99551200866699219 0.041414998471736908
vn -0.037597000598907471 0.99898499250411987 -0.02479499951004982
vn -0.056379999965429306 0.9973520040512085 0.045937001705169678
vn -0.020157000049948692 0.99853998422622681 0.050110001116991043
vn -0.053879000246524811 0.99849802255630493 -0.00993099994957447
vn -0.022007999941706657 0.9993320107460022 0.029183000326156616
vn -0.0038030000869184732 0.9986950159072876 0.050925999879837036
vn -0.041437998414039612 0.99913698434829712 0.0026889999862760305
vn 0.070354998111724854 0.99724501371383667 0.023497000336647034
vn 0.064451001584529877 0.99791997671127319 -0.0015450000064447522
vn 0.012484000064432621 0.99949198961257935 0.02933800034224987
vn 0.028612999245524406 0.99874597787857056 0.04108700156211853
vn 0.067529000341892242 0.997717022895813 0.001117000007070601
vn -0.032246001064777374 0.99835401773452759 0.047437999397516251
vn -0.0280349999666214 0.998075008392334 0.055312998592853546
vn 0.01217500027269125 0.99821901321411133 0.058393999934196472
vn 0.012163000181317329 0.99822098016738892 0.058363001793622971
vn 0.071171998977661133 0.9959380030632019 0.055162001401185989
vn -0.014058999717235565 0.99929499626159668 0.034804999828338623
vn -0.015868000686168671 0.99987399578094482 0.00082900002598762512
vn 0.064556002616882324 0.99678802490234375 0.047396998852491379
vn 0.016591999679803848 0.99874800443649292 0.047192998230457306
vn -0.0079380003735423088 0.99972999095916748 0.021857999265193939
vn -0.019618000835180283 0.99881798028945923 0.04446600005030632
vn -0.061236999928951263 0.99739199876785278 0.038198001682758331
vn -0.034873001277446747 0.998557984828949 0.04082300141453743
vn -0.045889999717473984 0.99836099147796631 0.034196000546216965
vn -0.020624000579118729 0.99931997060775757 -0.030573999509215355
vn -0.032157000154256821 0.99738001823425293 0.064799003303051
vn 0.045892000198364258 0.9987339973449707 0.020607000216841698
vn 0.04516100138425827 0.99877899885177612 0.020045999437570572
vn 0.041374001652002335 0.99804800748825073 0.0467820018529892
vn 0.043010000139474869 0.99849897623062134 -0.03391600027680397
vn 0.043009001761674881 0.99849897623062134 -0.033911999315023422
vn 0.0061639999039471149 0.99246901273727417 0.12233699858188629
vn 0.013446999713778496 0.99683302640914917 0.078374996781349182
vn 0.00813200045377016 0.99912500381469727 0.041030999273061752
vn 0.0031389999203383923 0.9926990270614624 0.12057500332593918
vn 0.01585800014436245 0.99949097633361816 0.027664000168442726
vn -0.03727399930357933 0.99781101942062378 0.054618000984191895
vn 0.0074889999814331532 0.99852699041366577 0.053727999329566956
vn 0.0093289995566010475 0.99842202663421631 0.055378999561071396
vn 0.0052430001087486744 0.99844002723693848 0.055594999343156815
vn 0.016769999638199806 0.99950498342514038 0.026622999459505081
vn 0.016493000090122223 0.99963700771331787 0.021300999447703362
vn -0.015371999703347683 0.99827498197555542 0.056657999753952026
f 1/1/1 2/2/2 3/3/3
f 4/4/4 5/5/5 6/6/6
f 7/7/7 8/8/8 9/9/9
f 10/10/10 11/11/11 9/9/9
f 10/10/10 12/12/12 11/11/11
f 7/7/7 3/3/3 2/2/2
f 7/7/7 9/9/9 3/3/3
f 1/1/1 6/6/6 5/5/5
f 1/1/1 3/3/3 6/6/6
f 9/9/9 13/13/13 3/3/3
f 8/8/8 10/10/10 9/9/9
f 8/8/8 14/14/14 10/10/10
f 14/14/14 8/8/8 15/15/15
f 16/16/16 4/4/4 6/6/6
f 3/3/3 17/17/17 6/6/6
f 13/13/13 11/11/11 18/18/18
f 11/11/11 13/13/13 9/9/9
f 13/13/13 17/17/17 3/3/3
f 17/17/17 13/13/13 18/18/18
f 12/12/12 19/19/19 11/11/11
f 11/11/11 20/20/20 21/21/21
f 11/11/11 19/19/19 20/20/20
f 22/22/22 23/23/23 24/24/24
f 25/25/25 21/21/21 20/20/20
f 21/21/21 18/18/18 11/11/11
f 25/25/25 26/26/26 21/21/21
f 25/25/25 27/27/27 26/26/26
f 21/21/21 28/28/28 18/18/18
f 29/29/29 18/18/18 28/28/28
f 30/30/30 23/23/23 31/31/31
f 30/30/30 32/32/32 23/23/23
f 33/33/33 23/23/23 34/34/34
f 33/33/33 31/31/31 23/23/23
f 35/35/35 36/36/36 26/26/26
f 32/32/32 26/26/26 23/23/23
f 32/32/32 35/35/35 26/26/26
f 26/26/26 28/28/28 21/21/21
f 26/26/26 37/37/37 28/28/28
f 26/26/26 38/38/38 37/37/37
f 27/27/27 23/23/23 26/26/26
f 27/27/27 24/24/24 23/23/23
f 38/38/38 26/26/26 36/36/36
f 28/28/28 39/39/39 40/40/40
f 28/28/28 37/37/37 39/39/39
f 22/22/22 34/34/34 23/23/23
f 29/29/29 17/17/17 18/18/18
f 41/41/41 6/6/6 17/17/17
f 16/16/16 41/41/41 42/42/42
f 16/16/16 6/6/6 41/41/41
f 29/29/29 43/43/43 17/17/17
f 44/44/44 43/43/43 45/45/45
f 44/44/44 41/41/41 43/43/43
f 46/46/46 45/45/45 43/43/43
f 47/47/47 41/41/41 44/44/44
f 47/47/47 42/42/42 41/41/41
f 47/47/47 48/48/48 42/42/42
f 46/46/46 43/43/43 49/49/49
f 50/50/50 29/29/29 51/51/51
f 43/43/43 29/29/29 50/50/50
f 50/50/50 49/49/49 43/43/43
f 50/50/50 52/52/52 49/49/49
f 52/52/52 50/50/50 53/53/53
f 41/41/41 17/17/17 43/43/43
f 54/54/54 40/40/40 39/39/39
f 40/40/40 55/55/55 51/51/51
f 40/40/40 54/54/54 55/55/55
f 56/56/56 51/51/51 55/55/55
f 56/56/56 57/57/57 51/51/51
f 51/51/51 53/53/53 50/50/50
f 51/51/51 58/58/58 53/53/53
f 58/58/58 51/51/51 59/59/59
f 59/59/59 51/51/51 60/60/60
f 29/29/29 40/40/40 51/51/51
f 60/60/60 51/51/51 57/57/57
f 40/40/40 29/29/29 28/28/28
