mtllib m03333012.mtl
usemtl material0
v -96 2.7384979724884033 97.092360973358154
v -96 2.68379807472229 98.211563110351562
v -94.942642211914062 2.7537219524383545 97.0364761352539
v -96 2.8136110305786133 96
v -94.997002124786377 2.8244080543518066 96
v -96 2.7686278820037842 96.6541748046875
v -94.009963989257812 2.8390059471130371 96
v -86.996055960655212 3.0489959716796875 96
v -87.64623299241066 3.0577960014343262 96
v -86.9636310338974 3.0497300624847412 96.61419677734375
v -96 2.5449759960174561 101.09284210205078
v -94.733002185821533 2.5641489028930664 101.02587890625
v -90.99639892578125 2.9621670246124268 96
v -90.953017950057983 2.9263861179351807 96.825249195098877
v -82.996231079101562 3.0338089466094971 96
v -82.974936962127686 3.0309810638427734 96.403625011444092
v -86.411033987998962 3.0510749816894531 96
v -82.611793994903564 3.0302228927612305 96
v -86.754379034042358 2.7795910835266113 100.60387396812439
v -90.7436830997467 2.67284893989563 100.8148729801178
v -82.765998840332031 2.6963911056518555 100.3935239315033
v -96 2.3390979766845703 105.0933690071106
v -94.523560047149658 2.3330678939819336 105.01541900634766
v -96 2.4921410083770752 102.43397498130798
v -94.3125147819519 2.429124116897583 109.00385284423828
v -96 2.3970749378204346 107.48588609695435
v -96 2.2599940299987793 112
v -96 2.3035750389099121 110.87918901443481
v -94.154914855957031 2.3175380229949951 112
v -96 2.3158268928527832 110.31946611404419
v -96 2.34266996383667 109.09323120117188
v -93.209022998809814 2.3583469390869141 112
v -90.3228530883789 2.6096000671386719 108.79260301589966
v -90.5334780216217 2.597527027130127 104.80388599634171
v -86.544571042060852 2.6237039566040039 104.59316301345825
v -82.5558009147644 2.6205799579620361 104.38253799080849
v -86.3342969417572 2.5635130405426025 108.58212280273438
v -89.40972900390625 2.3716449737548828 112
v -90.154678106307983 2.3829989433288574 112
v -86.155295968055725 2.2806429862976074 112
v -85.610649108886719 2.2629530429840088 112
v -82.346062183380127 2.4510159492492676 108.37187194824219
v -80 2.6229560375213623 104.24756599962711
v -80 2.5585839748382568 105.76449596881867
v -82.155715942382812 2.2159988880157471 112
v -80 2.6915359497070312 101.54196906089783
v -80 2.7165679931640625 100.24739098548889
v -80 2.825706958770752 97.3194432258606
v -80 2.9131839275360107 96.246894836425781
v -80 2.9219310283660889 96
v -80 2.9169909954071045 96.1394419670105
v -80 2.453484058380127 108.24797105789185
v -80 2.3517580032348633 109.82139587402344
v -81.811461925506592 2.21518611907959 112
v -80 2.3410611152648926 109.98685503005981
v -80 2.208345890045166 112
vt 0.068273000419139862 0
vt 0.13822300732135773 0
vt 0.064779996871948242 0.066084980964660645
vt 0 0
vt 0 0.0626869797706604
vt 0.040885999798774719 0
vt 0 0.12437701225280762
vt 0 0.56274700164794922
vt 0 0.5221099853515625
vt 0.0383870005607605 0.56477299332618713
vt 0.31830298900604248 0
vt 0.31411701440811157 0.079186975955963135
vt 0 0.3127250075340271
vt 0.05157800018787384 0.31543600559234619
vt 0 0.81273600459098816
vt 0.025226999074220657 0.81406599283218384
vt 0 0.5993100106716156
vt 0 0.83676299452781677
vt 0.28774198889732361 0.57785099744796753
vt 0.300929993391037 0.32851999998092651
vt 0.2745949923992157 0.82712499797344208
vt 0.568336009979248 0
vt 0.56346398591995239 0.092278003692626953
vt 0.40212300419807434 0
vt 0.8127409815788269 0.10546797513961792
vt 0.71786797046661377 0
vt 1 0
vt 0.92994898557662964 0
vt 1 0.11531800031661987
vt 0.89496701955795288 0
vt 0.818327009677887 0
vt 1 0.17443597316741943
vt 0.7995380163192749 0.35482197999954224
vt 0.55024302005767822 0.34165799617767334
vt 0.537073016166687 0.59096398949623108
vt 0.52390897274017334 0.84026199579238892
vt 0.78638297319412231 0.60410600900650024
vt 1 0.41189199686050415
vt 1 0.36533302068710327
vt 1 0.61529400944709778
vt 1 0.64933401346206665
vt 0.77324199676513672 0.85337099432945251
vt 0.51547300815582275 1
vt 0.61028099060058594 1
vt 1 0.86526800692081451
vt 0.34637299180030823 1
vt 0.26546201109886169 1
vt 0.082465000450611114 1
vt 0.015430999919772148 1
vt 0 1
vt 0.0087150000035762787 1
vt 0.76549798250198364 1
vt 0.86383700370788574 1
vt 1 0.88678400218486786
vt 0.87417799234390259 1
vt 1 1
vn -0.011501000262796879 0.99845397472381592 0.054384998977184296
vn -0.012354999780654907 0.99875599145889282 0.04831400141119957
vn -0.028384000062942505 0.9980970025062561 0.05473800003528595
vn -0.010738999582827091 0.99758702516555786 0.068596996366977692
vn -0.012729999609291554 0.99755597114562988 0.068699002265930176
vn -0.010738999582827091 0.99758702516555786 0.0685959979891777
vn -0.034368999302387238 0.9980970025062561 0.051199000328779221
vn 0.0054410002194345 0.9999840259552002 -0.0014819999923929572
vn -0.021685000509023666 0.99907201528549194 0.037220999598503113
vn -0.00053800002206116915 0.99788498878479 0.064994998276233673
vn -0.012652000412344933 0.99883300065994263 0.046604998409748077
vn -0.016620999202132225 0.99843102693557739 0.053470999002456665
vn -0.035206001251935959 0.99835997819900513 0.04513699933886528
vn -0.030609000474214554 0.99749499559402466 0.063771001994609833
vn 0.0052269999869167805 0.99996399879455566 0.0067300000227987766
vn 0.025389000773429871 0.996757984161377 0.076342999935150146
vn 0.003797000041231513 0.9999769926071167 0.0056059998460114
vn 0.038343999534845352 0.99873197078704834 0.03262300044298172
vn -0.00558600015938282 0.99875497817993164 0.049566999077796936
vn -0.033727999776601791 0.99833697080612183 0.046750001609325409
vn 0.01331700012087822 0.99869900941848755 0.049222998321056366
vn 0.0048890002071857452 0.99987202882766724 0.015238000079989433
vn -0.0408409982919693 0.9989740252494812 0.019582999870181084
vn 0.00036000000545755029 0.99867802858352661 0.0513949990272522
vn -0.041861999779939651 0.999101996421814 0.0065810000523924828
vn -0.018185999244451523 0.99983400106430054 -0.00089299998944625258
vn -0.0311489999294281 0.99875998497009277 0.038835000246763229
vn -0.037432000041007996 0.99874800443649292 0.033181998878717422
vn -0.035190999507904053 0.99861800670623779 0.03904300183057785
vn -0.049998998641967773 0.99851000308990479 0.021857999265193939
vn -0.0496320016682148 0.99835699796676636 0.028626000508666039
vn -0.029247000813484192 0.99822497367858887 0.051878999918699265
vn -0.013152999803423882 0.9994170069694519 0.031505998224020004
vn -0.028889000415802002 0.99952900409698486 0.010347999632358551
vn 0.0031950001139193773 0.99967497587203979 0.025290999561548233
vn 0.006417000200599432 0.99962699413299561 0.026529999449849129
vn 0.015589999966323376 0.99907302856445312 0.04012100026011467
vn 0.020519999787211418 0.99701499938964844 0.074432998895645142
vn -0.0034910000395029783 0.99749499559402466 0.070656001567840576
vn 0.02850399911403656 0.99630898237228394 0.080963999032974243
vn 0.02400599978864193 0.99702197313308716 0.073280997574329376
vn 0.016270000487565994 0.99829298257827759 0.05608699843287468
vn 0.0010089999996125698 0.99932599067687988 0.036701999604701996
vn 0.0012309999438002706 0.99910300970077515 0.042325999587774277
vn 0.0079279998317360878 0.99790400266647339 0.064225003123283386
vn -0.0041009997949004173 0.99976497888565063 0.021283000707626343
vn -0.0056130001321434975 0.99948000907897949 0.031759001314640045
vn 0.026471000164747238 0.9974830150604248 0.065779000520706177
vn 0.043501000851392746 0.99607700109481812 0.077055998146533966
vn 0.041400998830795288 0.9985160231590271 0.035374000668525696
vn 0.041400998830795288 0.9985160231590271 0.035374000668525696
vn 0.0019720001146197319 0.99835902452468872 0.057229001075029373
vn 0.0023570000194013119 0.99791401624679565 0.064516998827457428
vn 0.0034519999753683805 0.99784702062606812 0.0654980018734932
vn 0.0036609999369829893 0.99783402681350708 0.065684996545314789
vn 0.0037680000532418489 0.99782699346542358 0.065780997276306152
f 1/1/1 2/2/2 3/3/3
f 4/4/4 3/3/3 5/5/5
f 4/4/4 6/6/6 3/3/3
f 6/6/6 1/1/1 3/3/3
f 5/5/5 3/3/3 7/7/7
f 8/8/8 9/9/9 10/10/10
f 3/3/3 11/11/11 12/12/12
f 3/3/3 2/2/2 11/11/11
f 13/13/13 3/3/3 14/14/14
f 13/13/13 7/7/7 3/3/3
f 15/15/15 10/10/10 16/16/16
f 15/15/15 17/17/17 10/10/10
f 13/13/13 10/10/10 9/9/9
f 13/13/13 14/14/14 10/10/10
f 15/15/15 16/16/16 18/18/18
f 14/14/14 19/19/19 10/10/10
f 8/8/8 10/10/10 17/17/17
f 3/3/3 20/20/20 14/14/14
f 10/10/10 21/21/21 16/16/16
f 12/12/12 22/22/22 23/23/23
f 12/12/12 24/24/24 22/22/22
f 12/12/12 23/23/23 20/20/20
f 24/24/24 12/12/12 11/11/11
f 22/22/22 25/25/25 23/23/23
f 22/22/22 26/26/26 25/25/25
f 27/27/27 25/25/25 28/28/28
f 27/27/27 29/29/29 25/25/25
f 30/30/30 25/25/25 31/31/31
f 30/30/30 28/28/28 25/25/25
f 25/25/25 32/32/32 33/33/33
f 25/25/25 29/29/29 32/32/32
f 26/26/26 31/31/31 25/25/25
f 34/34/34 23/23/23 25/25/25
f 34/34/34 20/20/20 23/23/23
f 20/20/20 34/34/34 19/19/19
f 21/21/21 19/19/19 35/35/35
f 19/19/19 21/21/21 10/10/10
f 21/21/21 35/35/35 36/36/36
f 35/35/35 19/19/19 34/34/34
f 14/14/14 20/20/20 19/19/19
f 35/35/35 34/34/34 37/37/37
f 38/38/38 33/33/33 39/39/39
f 38/38/38 37/37/37 33/33/33
f 34/34/34 33/33/33 37/37/37
f 40/40/40 37/37/37 38/38/38
f 39/39/39 33/33/33 32/32/32
f 41/41/41 37/37/37 40/40/40
f 41/41/41 42/42/42 37/37/37
f 37/37/37 42/42/42 36/36/36
f 43/43/43 42/42/42 44/44/44
f 43/43/43 36/36/36 42/42/42
f 45/45/45 42/42/42 41/41/41
f 36/36/36 35/35/35 37/37/37
f 46/46/46 21/21/21 36/36/36
f 46/46/46 47/47/47 21/21/21
f 33/33/33 34/34/34 25/25/25
f 3/3/3 12/12/12 20/20/20
f 48/48/48 16/16/16 21/21/21
f 48/48/48 49/49/49 16/16/16
f 50/50/50 18/18/18 51/51/51
f 51/51/51 16/16/16 49/49/49
f 51/51/51 18/18/18 16/16/16
f 46/46/46 36/36/36 43/43/43
f 48/48/48 21/21/21 47/47/47
f 45/45/45 52/52/52 42/42/42
f 45/45/45 53/53/53 52/52/52
f 53/53/53 54/54/54 55/55/55
f 53/53/53 45/45/45 54/54/54
f 56/56/56 55/55/55 54/54/54
f 44/44/44 42/42/42 52/52/52
