mtllib m033120.mtl
usemtl material0
v -256 1.9408140182495117 333.53671264648438
v -256 2.1225259304046631 335.16567993164062
v -254.46107482910156 2.0659089088439941 333.455078125
v -256 4.5125880241394043 365.52780246734619
v -256 4.4919791221618652 368.952880859375
v -252.76449584960938 4.5474629402160645 365.3568115234375
v -256 4.598045825958252 381.52700805664062
v -254.34088134765625 4.4836812019348145 384
v -251.92146301269531 4.7044048309326172 381.31130981445312
v -256 4.4597330093383789 383.77392578125
v -256 4.4458160400390625 384
v -256 3.5962998867034912 352.05987500026822
v -253.61209106445313 3.4500319957733154 349.40545701980591
v -256 3.3261070251464844 349.53195190429688
v -256 1.4150300025939941 326.76239013671875
v -255.17692565917969 0.96047002077102661 320
v -256 0.8901749849319458 320
v -242.35597229003906 1.7941449880599976 320
v -238.50312805175781 2.650413990020752 332.610595703125
v -239.17251586914063 1.9201500415802002 320
v -227.15792798995972 2.3124270439147949 320
v -237.6568603515625 3.4735109806060791 348.56286597251892
v -236.81185913085938 4.0318889617919922 364.5159912109375
v -239.14466857910156 4.0090508460998535 384
v -235.9693603515625 4.0765290260314941 380.47088623046875
v -251.78031921386719 4.5445032119750977 384
v -221.7010190486908 3.6194710731506348 347.71981811523438
v -220.86308288574219 2.7232849597930908 363.67782592773438
v -235.78335571289063 4.018348217010498 384
v -222.54606604576111 3.0502760410308838 331.7667236328125
v -223.94985999912024 2.7705800533294678 384
v -220.02233910560608 2.4041609764099121 379.6339111328125
v -223.17039501667023 2.4232749938964844 320
v -211.96116638183594 2.1405301094055176 320
v -205.75007629394531 2.7565848827362061 346.88015699386597
v -204.91462707519531 1.3472239971160889 362.83987426757812
v -206.59475708007813 2.2616069316864014 330.92681884765625
v -219.79177904129028 2.4171578884124756 384
v -207.17335510253906 1.9125000238418579 320
v -196.76583862304688 1.1828420162200928 320
v -192 0.795740008354187 330.16064453125
v -192 0.84766697883605957 331.5933837890625
v -192 2.1591970920562744 346.15591382980347
v -192 1.959210991859436 348.48684692382812
v -204.07548522949219 0.69949197769165039 378.79702758789062
v -192 0.77135401964187622 365.37557983398438
v -192 0.89565098285675049 362.1593017578125
v -203.80064392089844 0.73552101850509644 384
v -215.17338562011719 1.9437509775161743 384
v -192 0.77549701929092407 327.859130859375
v -192 0.706371009349823 320
v -192 -0.59065800905227661 378.163330078125
v -192 -0.42267900705337524 384
v -198.29635620117188 0.24051700532436371 384
v -192 -0.46125900745391846 382.65948486328125
vt 0.756883978843689 0.008657991886138916
vt 0.73240900039672852 0.00972902774810791
vt 0.75889801979064941 0.031679987907409668
vt 0.27755400538444519 0.028782010078430176
vt 0.22640100121498108 0.030869007110595703
vt 0.28207001090049744 0.07687002420425415
vt 0.038617998361587524 0.038824975490570068
vt 0.0026289999950677156 0.065074026584625244
vt 0.044335998594760895 0.099560022354125977
vt 0.0049959998577833176 0.040156006813049316
vt 0.0016129999421536923 0.040288984775543213
vt 0.47914800047874451 0.020368993282318115
vt 0.520334005355835 0.05437701940536499
vt 0.51711297035217285 0.018732011318206787
vt 0.85835897922515869 0.0045080184936523438
vt 0.9600790143013 0.012705981731414795
vt 0.9596560001373291 0.00036597251892089844
vt 0.9669640064239502 0.20462101697921753
vt 0.78071200847625732 0.26969897747039795
vt 0.96896499395370483 0.25213801860809326
vt 0.97583001852035522 0.4316830039024353
vt 0.54267799854278564 0.29214298725128174
vt 0.30481299757957458 0.31468302011489868
vt 0.012279000133275986 0.2923470139503479
vt 0.067088998854160309 0.33742499351501465
vt 0.0042139999568462372 0.10348498821258545
vt 0.56490600109100342 0.52994000911712646
vt 0.32690799236297607 0.55317598581314087
vt 0.014507000334560871 0.34253901243209839
vt 0.80279499292373657 0.50759300589561462
vt 0.021869000047445297 0.52016699314117432
vt 0.089519999921321869 0.57636699080467224
vt 0.97839999198913574 0.49115300178527832
vt 0.98536300659179688 0.65864700078964233
vt 0.58764499425888062 0.76795299351215363
vt 0.34897699952125549 0.79175099730491638
vt 0.82549500465393066 0.74555701017379761
vt 0.024455999955534935 0.58248800039291382
vt 0.98840999603271484 0.73022601008415222
vt 0.995212972164154 0.88595999777317047
vt 0.84665298461914062 0.96407900005579
vt 0.82524198293685913 0.96495199948549271
vt 0.60732197761535645 0.97301100008189678
vt 0.57239198684692383 0.97466200031340122
vt 0.11168099939823151 0.81538200378417969
vt 0.32039999961853027 0.98643499985337257
vt 0.36763900518417358 0.98426900058984756
vt 0.034132000058889389 0.82254199683666229
vt 0.02734299935400486 0.65182000398635864
vt 0.88102298974990845 0.9625840000808239
vt 0.998386025428772 0.95747999846935272
vt 0.12843799591064453 0.99637400009669364
vt 0.041269998997449875 0.99963400000706315
vt 0.037445001304149628 0.90507999807596207
vt 0.061253000050783157 0.9988710000179708
vn -0.085625998675823212 0.99185800552368164 -0.094267003238201141
vn -0.063148997724056244 0.99396401643753052 -0.089708998799324036
vn -0.062286000698804855 0.99473702907562256 -0.081349998712539673
vn -0.012343999929726124 0.99948197603225708 -0.029714999720454216
vn -0.022770000621676445 0.99972802400588989 -0.0050619998946785927
vn 0.0028800000436604023 0.99944198131561279 -0.033273998647928238
vn -0.024594999849796295 0.99931401014328 0.02770099975168705
vn -0.023020999506115913 0.99786001443862915 0.061202000826597214
vn 0.00698000006377697 0.99965298175811768 0.025381999090313911
vn -0.022772999480366707 0.99785202741622925 0.06142599880695343
vn -0.022772999480366707 0.99785202741622925 0.06142900139093399
vn -0.024333000183105469 0.99674797058105469 -0.07681400328874588
vn -0.029868999496102333 0.99660897254943848 -0.076664999127388
vn -0.05661499872803688 0.9938579797744751 -0.09508100152015686
vn -0.084841996431350708 0.99340701103210449 -0.077101998031139374
vn -0.075147002935409546 0.99414199590682983 -0.077678002417087555
vn -0.084841996431350708 0.99340701103210449 -0.077101998031139374
vn -0.046239998191595078 0.99702101945877075 -0.061737999320030212
vn -0.029975000768899918 0.99793201684951782 -0.056864999234676361
vn -0.036155998706817627 0.99778401851654053 -0.055860999971628189
vn -0.029041999951004982 0.99817800521850586 -0.052880998700857162
vn -0.0054620001465082169 0.99896299839019775 -0.045196998864412308
vn 0.046007998287677765 0.998881995677948 -0.010824000462889671
vn 0.030259000137448311 0.99846798181533813 0.0463160015642643
vn 0.0642630010843277 0.99786502122879028 0.01164500042796135
vn 0.010397999547421932 0.9982140064239502 0.058820001780986786
vn 0.033110998570919037 0.99944901466369629 -0.0023610000498592854
vn 0.08446899801492691 0.99582397937774658 0.03464600071310997
vn 0.052949000149965286 0.99850398302078247 0.013670999556779861
vn 0.0091650001704692841 0.99897897243499756 -0.044241998344659805
vn 0.09949599951505661 0.99501997232437134 0.0059960000216960907
vn 0.1002499982714653 0.994933009147644 0.0076649999246001244
vn -0.0021790000610053539 0.99858701229095459 -0.053095001727342606
vn 0.041583999991416931 0.99834299087524414 -0.039778999984264374
vn 0.060557998716831207 0.99806302785873413 0.01422400027513504
vn 0.066955998539924622 0.99612599611282349 0.05700400099158287
vn 0.070023998618125916 0.99702697992324829 -0.032152999192476273
vn 0.093618996441364288 0.99557697772979736 -0.007907000370323658
vn 0.0583610013127327 0.99768298864364624 -0.03496599942445755
vn 0.091619998216629028 0.9956669807434082 -0.015884000808000565
vn 0.098770998418331146 0.99486899375915527 -0.021926999092102051
vn 0.084219999611377716 0.995265007019043 -0.0485289990901947
vn 0.043138999491930008 0.99905598163604736 -0.0050590001046657562
vn 0.0456789992749691 0.9954569935798645 0.083544999361038208
vn 0.0963129997253418 0.99517697095870972 0.018601000308990479
vn 0.054398000240325928 0.99704301357269287 0.054281000047922134
vn 0.037973001599311829 0.99755400419235229 0.058680001646280289
vn 0.0973379984498024 0.99517899751663208 -0.012032999657094479
vn 0.10478299856185913 0.99442899227142334 -0.011506999842822552
vn 0.099476002156734467 0.99500101804733276 -0.0087519995868206024
vn 0.099476002156734467 0.99500101804733276 -0.00875100027769804
vn 0.10824800282716751 0.99330002069473267 0.040463000535964966
vn 0.1047080010175705 0.9940909743309021 -0.028610000386834145
vn 0.10118599981069565 0.99456197023391724 -0.024656999856233597
vn 0.1047080010175705 0.9940909743309021 -0.028610000386834145
f 1/1/1 2/2/2 3/3/3
f 4/4/4 5/5/5 6/6/6
f 7/7/7 8/8/8 9/9/9
f 7/7/7 10/10/10 8/8/8
f 10/10/10 11/11/11 8/8/8
f 12/12/12 13/13/13 14/14/14
f 1/1/1 3/3/3 15/15/15
f 15/15/15 16/16/16 17/17/17
f 15/15/15 3/3/3 16/16/16
f 16/16/16 3/3/3 18/18/18
f 19/19/19 3/3/3 13/13/13
f 18/18/18 19/19/19 20/20/20
f 18/18/18 3/3/3 19/19/19
f 20/20/20 19/19/19 21/21/21
f 19/19/19 13/13/13 22/22/22
f 14/14/14 3/3/3 2/2/2
f 14/14/14 13/13/13 3/3/3
f 7/7/7 6/6/6 5/5/5
f 7/7/7 9/9/9 6/6/6
f 6/6/6 9/9/9 23/23/23
f 9/9/9 24/24/24 25/25/25
f 9/9/9 26/26/26 24/24/24
f 26/26/26 9/9/9 8/8/8
f 23/23/23 22/22/22 6/6/6
f 23/23/23 27/27/27 22/22/22
f 25/25/25 28/28/28 23/23/23
f 25/25/25 23/23/23 9/9/9
f 13/13/13 6/6/6 22/22/22
f 29/29/29 25/25/25 24/24/24
f 19/19/19 22/22/22 30/30/30
f 4/4/4 13/13/13 12/12/12
f 4/4/4 6/6/6 13/13/13
f 25/25/25 31/31/31 32/32/32
f 25/25/25 29/29/29 31/31/31
f 21/21/21 30/30/30 33/33/33
f 21/21/21 19/19/19 30/30/30
f 33/33/33 30/30/30 34/34/34
f 23/23/23 28/28/28 27/27/27
f 28/28/28 35/35/35 27/27/27
f 32/32/32 36/36/36 28/28/28
f 25/25/25 32/32/32 28/28/28
f 30/30/30 27/27/27 37/37/37
f 22/22/22 27/27/27 30/30/30
f 38/38/38 32/32/32 31/31/31
f 39/39/39 37/37/37 40/40/40
f 37/37/37 34/34/34 30/30/30
f 37/37/37 39/39/39 34/34/34
f 36/36/36 35/35/35 28/28/28
f 41/41/41 35/35/35 42/42/42
f 41/41/41 37/37/37 35/35/35
f 43/43/43 36/36/36 44/44/44
f 43/43/43 35/35/35 36/36/36
f 45/45/45 36/36/36 32/32/32
f 35/35/35 37/37/37 27/27/27
f 46/46/46 36/36/36 45/45/45
f 46/46/46 47/47/47 36/36/36
f 48/48/48 32/32/32 49/49/49
f 48/48/48 45/45/45 32/32/32
f 41/41/41 40/40/40 37/37/37
f 41/41/41 50/50/50 40/40/40
f 50/50/50 51/51/51 40/40/40
f 47/47/47 44/44/44 36/36/36
f 52/52/52 46/46/46 45/45/45
f 43/43/43 42/42/42 35/35/35
f 53/53/53 45/45/45 54/54/54
f 53/53/53 55/55/55 45/45/45
f 55/55/55 52/52/52 45/45/45
f 49/49/49 32/32/32 38/38/38
f 54/54/54 45/45/45 48/48/48
