mtllib m033010.mtl
usemtl material0
v -376.3995361328125 4.3399767875671387 448
v -380.50088500976562 4.2063779830932617 448
v -376.1961669921875 4.1184358596801758 451.87359619140625
v -384 3.5562639236450195 468.28689575195312
v -375.35665893554688 3.5357570648193359 467.83053588867188
v -384 3.8371520042419434 460.54681396484375
v -384 4.029487133026123 452.28598022460938
v -360.24276733398438 3.7562940120697021 451.03228759765625
v -384 4.1253480911254883 449.41653442382812
v -384 4.172670841217041 448
v -372.71087646484375 4.2112679481506348 448
v -384 3.4117839336395264 477.43713402748108
v -384 3.6116549968719482 494.3287353515625
v -374.51596069335938 3.2083690166473389 483.78662109375
v -384 3.2741179466247559 484.28726196289062
v -384 3.7307729721069336 500.28533935546875
v -384 3.7785038948059082 511.22027587890625
v -373.67221069335938 3.5102899074554443 499.74063110351562
v -360.40213012695312 3.901608943939209 448
v -344.40237379074097 3.930901050567627 448
v -346.71994018554688 3.942296028137207 448
v -344.28723096847534 3.844264030456543 450.189453125
v -359.40444898605347 2.9328958988189697 466.989990234375
v -343.4530029296875 2.1717588901519775 466.14999389648438
v -328.33486938476562 3.2720129489898682 449.34881591796875
v -358.56393384933472 2.5669350624084473 482.94622802734375
v -342.61685180664062 0.89321601390838623 482.10919189453125
v -342.31741333007812 3.8254380226135254 448
v -328.4058837890625 3.3081769943237305 448
v -327.121337890625 3.2782878875732422 448
v -320 3.2513160705566406 448.90872192382812
v -327.49960327148438 1.8123960494995117 465.30862426757812
v -320 2.5167379379272461 456.97445678710938
v -320 3.2561171054840088 448.24462890625
v -320 3.2578859329223633 448
v -320 2.1430160999298096 464.91159057617188
v -326.66268920898438 0.69742399454116821 481.26730298995972
v -320 1.4941259622573853 472.05838012695312
v -357.72131299972534 2.6354610919952393 498.9010009765625
v -341.77044677734375 1.7503030300140381 498.06137084960938
v -341.03497314453125 1.6765899658203125 512
v -343.16897583007812 1.7952749729156494 512
v -357.02981615066528 2.6291239261627197 512
v -360.05209445953369 2.7944979667663574 512
v -373.02731323242188 3.051954984664917 512
v -339.11434936523438 1.5718139410018921 512
v -325.81951904296875 0.88215899467468262 497.22171020507812
v -384 3.7519690990448 512
v -325.04251098632812 0.25097599625587463 512
v -320 0.86538600921630859 480.91497802734375
v -320 0.965919017791748 490.75363159179688
v -320 0.76636201143264771 496.91473388671875
v -320 0.23377500474452972 502.34994506835938
v -320 0.22274500131607056 502.46249389648438
v -320 -0.14520500600337982 512
vt 0.11655700206756592 0.028882980346679688
vt 0.054908998310565948 0.031152009963989258
vt 0.12164799869060516 0.087069988250732422
vt 0.013156999833881855 0.33796799182891846
vt 0.14250299334526062 0.32654297351837158
vt 0.0090279998257756233 0.22160398960113525
vt 0.0046190000139176846 0.097459971904754639
vt 0.36098599433898926 0.066395998001098633
vt 0.0030910000205039978 0.054324984550476074
vt 0.0023360000923275948 0.033030986785888672
vt 0.17201399803161621 0.027055978775024414
vt 0.018025999888777733 0.475458025932312
vt 0.027076000347733498 0.7293420135974884
vt 0.16319400072097778 0.56590801477432251
vt 0.021774999797344208 0.57839199900627136
vt 0.030477000400424004 0.81884400546550751
vt 0.036343000829219818 0.98313000053167343
vt 0.18355099856853485 0.80526599287986755
vt 0.357012003660202 0.020868003368377686
vt 0.597370982170105 0.012470006942749023
vt 0.56257897615432739 0.013719022274017334
vt 0.6002659797668457 0.045328974723815918
vt 0.38194599747657776 0.30602997541427612
vt 0.62151801586151123 0.28597402572631836
vt 0.83970797061920166 0.024978995323181152
vt 0.40265899896621704 0.54540801048278809
vt 0.64319700002670288 0.52521899342536926
vt 0.62873798608779907 0.011421024799346924
vt 0.83797401189804077 0.0047410130500793457
vt 0.85722601413726807 0.00407099723815918
vt 0.96469998359680176 0.013951003551483154
vt 0.86085599660873413 0.26530998945236206
vt 0.96904498338699341 0.1356310248374939
vt 0.96434700489044189 0.0039730072021484375
vt 0.964218020439148 0.00029802322387695312
vt 0.97249001264572144 0.25326400995254517
vt 0.882427990436554 0.50368601083755493
vt 0.97726798057556152 0.36104100942611694
vt 0.42316100001335144 0.78472299873828888
vt 0.66282200813293457 0.76469199359416962
vt 0.68038797378540039 0.97379600070416927
vt 0.64867901802062988 0.974303999915719
vt 0.4400399923324585 0.98119699954986572
vt 0.3945620059967041 0.98269899934530258
vt 0.19957099854946137 0.98925399966537952
vt 0.7092900276184082 0.97290300019085407
vt 0.90240198373794556 0.74386200308799744
vt 0.036846999078989029 0.99484799988567829
vt 0.92166000604629517 0.96610600128769875
vt 0.9824870228767395 0.49619799852371216
vt 0.98694700002670288 0.64404699206352234
vt 0.9897339940071106 0.73667699098587036
vt 0.99232697486877441 0.81873700022697449
vt 0.99281597137451172 0.820360004901886
vt 0.99766397476196289 0.96376699954271317
vn 3.4000000596279278E-05 0.99836897850036621 0.057096999138593674
vn -0.014972000382840633 0.99911397695541382 0.039321001619100571
vn 0.00762399984523654 0.99915099143981934 0.0404990017414093
vn 0.0037279999814927578 0.99966299533843994 0.02568499930202961
vn 0.020266000181436539 0.99938100576400757 0.028749000281095505
vn 0.00091699999757111073 0.99944698810577393 0.0332380011677742
vn -0.00990500021725893 0.99955397844314575 0.028161000460386276
vn 0.012954000383615494 0.99880498647689819 0.047136001288890839
vn -0.00962700042873621 0.999396026134491 0.033387999981641769
vn -0.00962700042873621 0.999396026134491 0.033387999981641769
vn 0.027713999152183533 0.99842101335525513 0.0488630011677742
vn 0.006876000203192234 0.99979400634765625 0.019088000059127808
vn 0.016759000718593597 0.99959099292755127 -0.023161999881267548
vn 0.024955000728368759 0.99968701601028442 -0.002019000006839633
vn 0.0065279998816549778 0.99994897842407227 -0.0076560000889003277
vn 0.02071399986743927 0.99971401691436768 -0.011913999915122986
vn 0.053725000470876694 0.99824202060699463 0.025010999292135239
vn 0.036671999841928482 0.99932700395584106 -0.00057299999753013253
vn 0.01155100017786026 0.99881601333618164 0.047258999198675156
vn 0.026928000152111053 0.99891102313995361 0.038111001253128052
vn -0.001129999989643693 0.99894201755523682 0.045983999967575073
vn 0.027711000293493271 0.99761199951171875 0.063267998397350311
vn 0.045986000448465347 0.997776985168457 0.048227999359369278
vn 0.039912998676300049 0.9954109787940979 0.086970999836921692
vn 0.022917000576853752 0.99810999631881714 0.05701100081205368
vn 0.0743430033326149 0.99722599983215332 0.0035490000154823065
vn 0.045625001192092896 0.99891102313995361 0.0097500002011656761
vn 0.040708001703023911 0.99877798557281494 0.028036000207066536
vn 0.030435999855399132 0.99921900033950806 0.025188000872731209
vn 0.0083069996908307076 0.999891996383667 0.012125000357627869
vn 0.0049939998425543308 0.99885398149490356 0.047609999775886536
vn 0.0014449999434873462 0.99703902006149292 0.076884999871253967
vn -0.0040980000048875809 0.99674201011657715 0.080550000071525574
vn 0.0028649999294430017 0.999970018863678 0.0072300001047551632
vn 0.0028649999294430017 0.999970018863678 0.0072289998643100262
vn -0.040352001786231995 0.99687397480010986 0.067919999361038208
vn 0.001408000010997057 0.99968600273132324 0.025008000433444977
vn -0.026117999106645584 0.99676400423049927 0.07601899653673172
vn 0.061268001794815063 0.99806398153305054 -0.010689999908208847
vn 0.048493001610040665 0.99859201908111572 -0.021485999226570129
vn 0.054983001202344894 0.99848401546478271 0.0023789999540895224
vn 0.056584000587463379 0.99839699268341064 0.0011769999982789159
vn 0.057434000074863434 0.99834597110748291 -0.002549000084400177
vn 0.046530000865459442 0.998894989490509 0.0066289999522268772
vn 0.040984001010656357 0.99853998422622681 0.035176001489162445
vn 0.06487099826335907 0.99782401323318481 0.011793999932706356
vn 0.044326998293399811 0.99879199266433716 0.021212000399827957
vn 0.063629999756813049 0.99739599227905273 0.033941999077796936
vn 0.085560999810695648 0.99560701847076416 0.038024000823497772
vn -0.023514000698924065 0.99922102689743042 0.031695999205112457
vn -0.014704000204801559 0.999891996383667 -0.00028099998598918319
vn 0.023222999647259712 0.99768602848052979 0.063900001347064972
vn 0.024930000305175781 0.99492299556732178 0.097502000629901886
vn 0.064131997525691986 0.99646997451782227 0.054164998233318329
vn 0.078268997371196747 0.99619102478027344 0.03843199834227562
f 1/1/1 2/2/2 3/3/3
f 3/3/3 4/4/4 5/5/5
f 3/3/3 6/6/6 4/4/4
f 6/6/6 3/3/3 7/7/7
f 3/3/3 5/5/5 8/8/8
f 2/2/2 7/7/7 3/3/3
f 2/2/2 9/9/9 7/7/7
f 9/9/9 2/2/2 10/10/10
f 11/11/11 1/1/1 3/3/3
f 4/4/4 12/12/12 5/5/5
f 13/13/13 14/14/14 15/15/15
f 16/16/16 17/17/17 18/18/18
f 15/15/15 5/5/5 12/12/12
f 15/15/15 14/14/14 5/5/5
f 11/11/11 8/8/8 19/19/19
f 11/11/11 3/3/3 8/8/8
f 20/20/20 21/21/21 22/22/22
f 23/23/23 5/5/5 14/14/14
f 8/8/8 5/5/5 23/23/23
f 22/22/22 23/23/23 24/24/24
f 23/23/23 22/22/22 8/8/8
f 22/22/22 24/24/24 25/25/25
f 23/23/23 14/14/14 26/26/26
f 21/21/21 8/8/8 22/22/22
f 21/21/21 19/19/19 8/8/8
f 27/27/27 24/24/24 23/23/23
f 28/28/28 20/20/20 22/22/22
f 25/25/25 28/28/28 22/22/22
f 25/25/25 29/29/29 28/28/28
f 29/29/29 25/25/25 30/30/30
f 31/31/31 32/32/32 33/33/33
f 31/31/31 25/25/25 32/32/32
f 32/32/32 25/25/25 24/24/24
f 31/31/31 30/30/30 25/25/25
f 31/31/31 34/34/34 30/30/30
f 34/34/34 35/35/35 30/30/30
f 36/36/36 33/33/33 32/32/32
f 24/24/24 37/37/37 32/32/32
f 38/38/38 36/36/36 32/32/32
f 26/26/26 18/18/18 39/39/39
f 18/18/18 26/26/26 14/14/14
f 27/27/27 39/39/39 40/40/40
f 39/39/39 27/27/27 26/26/26
f 27/27/27 40/40/40 37/37/37
f 41/41/41 39/39/39 42/42/42
f 41/41/41 40/40/40 39/39/39
f 23/23/23 26/26/26 27/27/27
f 43/43/43 18/18/18 44/44/44
f 43/43/43 39/39/39 18/18/18
f 43/43/43 42/42/42 39/39/39
f 44/44/44 18/18/18 45/45/45
f 46/46/46 40/40/40 41/41/41
f 46/46/46 47/47/47 40/40/40
f 48/48/48 18/18/18 17/17/17
f 48/48/48 45/45/45 18/18/18
f 46/46/46 49/49/49 47/47/47
f 50/50/50 47/47/47 51/51/51
f 50/50/50 37/37/37 47/47/47
f 52/52/52 51/51/51 47/47/47
f 38/38/38 37/37/37 50/50/50
f 38/38/38 32/32/32 37/37/37
f 53/53/53 47/47/47 54/54/54
f 53/53/53 52/52/52 47/47/47
f 49/49/49 54/54/54 47/47/47
f 49/49/49 55/55/55 54/54/54
f 40/40/40 47/47/47 37/37/37
f 24/24/24 27/27/27 37/37/37
f 16/16/16 14/14/14 13/13/13
f 16/16/16 18/18/18 14/14/14
