mtllib m0333021.mtl
usemtl material0
v -223.59770202636719 6.295687198638916 160
v -223.39518737792969 6.6165790557861328 163.80567932128906
v -219.97207641601563 6.1295428276062012 160
v -224 6.6476850509643555 163.83750915527344
v -224 6.5970568656921387 163.25434875488281
v -224 6.31453800201416 160
v -215.42011976242065 6.101874828338623 163.38615417480469
v -215.60006713867188 5.8642578125 160
v -224 7.502744197845459 170.85328722000122
v -222.96943664550781 7.5692930221557617 171.77996778488159
v -202.29745483398438 5.4886131286621094 160
v -199.46751403808594 5.5777750015258789 162.54537963867188
v -199.60246276855469 5.4639921188354492 160
v -210.74108910560608 5.7424302101135254 160
v -207.44366502761841 5.8718161582946777 162.96565246582031
v -207.6012569963932 5.6640701293945312 160
v -192 5.2415018081665039 160
v -193.85346984863281 5.2770190238952637 160
v -192 5.2941489219665527 161.66741943359375
v -224 7.6545147895812988 172.92558288574219
v -224 7.5734620094299316 171.83436584472656
v -224 8.2461767196655273 179.83203101158142
v -222.54495239257813 8.2578344345092773 179.75515699386597
v -224 8.0915908813476562 187.832275390625
v -224 8.06403923034668 189.817626953125
v -222.12435913085938 8.1426591873168945 187.73306274414063
v -224 8.1938390731811523 181.37228393554688
v -214.99241590499878 7.4544858932495117 171.35908508300781
v -214.56866502761841 7.99312686920166 179.33477807044983
v -207.01757800579071 6.8880071640014648 170.93972778320313
v -206.59435999393463 7.3177628517150879 178.91580200195313
v -218.36503601074219 8.00788688659668 192
v -221.89990234375 7.9862627983093262 192
v -214.14648389816284 8.2070474624633789 187.31156921386719
v -213.89976501464844 8.0483999252319336 192
v -224 7.9839200973510742 192
v -210.76658606529236 7.948307991027832 192
v -206.17007398605347 7.9657578468322754 186.89112854003906
v -198.61920166015625 6.8196229934692383 178.49621605873108
v -205.90054297447205 7.93044900894165 192
v -199.04373168945313 6.1227822303771973 170.52105712890625
v -203.16835021972656 7.7679510116577148 192
v -198.19479370117188 7.493009090423584 186.47145080566406
v -192 5.3166399002075195 162.15187072753906
v -192 5.3543481826782227 162.69058227539063
v -192 5.7561349868774414 170.15023803710938
v -192 6.3229618072509766 176.856674015522
v -192 6.4394040107727051 178.1478579044342
v -192 6.5647220611572266 179.58422899246216
v -195.57031345367432 7.487788200378418 192
v -197.9022216796875 7.63279914855957 192
v -192 7.0984711647033691 186.14555358886719
v -192 7.1523499488830566 188.03102111816406
v -192 7.2361559867858887 192
vt 0.997035026550293 0.020657002925872803
vt 0.87900900840759277 0.026453971862792969
vt 0.997035026550293 0.13279598951339722
vt 0.8780210018157959 0.0077430009841918945
vt 0.89610600471496582 0.0078139901161193848
vt 0.99703299999237061 0.0082139968872070312
vt 0.89229798316955566 0.27335602045059204
vt 0.99719399213790894 0.26812702417373657
vt 0.6596639752388 0.0064120292663574219
vt 0.63080000877380371 0.038110017776489258
vt 0.995710015296936 0.6795940101146698
vt 0.91701602935791016 0.76657900214195251
vt 0.99575001001358032 0.76261599361896515
vt 0.99698597192764282 0.41830199956893921
vt 0.90442800521850586 0.5199509859085083
vt 0.9963110089302063 0.5156329870223999
vt 0.99569600820541382 0.99747600010596216
vt 0.99554699659347534 0.940336998552084
vt 0.94415199756622314 0.99746800004504621
vt 0.59546500444412231 0.00609201192855835
vt 0.629272997379303 0.006260991096496582
vt 0.38136601448059082 0.004526972770690918
vt 0.38338801264762878 0.049503028392791748
vt 0.13413199782371521 0.0034670233726501465
vt 0.072786003351211548 0.0030410289764404297
vt 0.13681900501251221 0.061510026454925537
vt 0.33375099301338196 0.00414198637008667
vt 0.64234501123428345 0.2846750020980835
vt 0.3952769935131073 0.29613798856735229
vt 0.655987024307251 0.53165799379348755
vt 0.4085560142993927 0.54338398575782776
vt 0.0043390002101659775 0.17700302600860596
vt 0.0048609999939799309 0.067785024642944336
vt 0.14867199957370758 0.30807000398635864
vt 0.0036949999630451202 0.31497102975845337
vt 0.0053139999508857727 0.0025240182876586914
vt 0.0033770001027733088 0.412198007106781
vt 0.16081400215625763 0.55467298626899719
vt 0.42168799042701721 0.79026499390602112
vt 0.0029380000196397305 0.56254398822784424
vt 0.6699870228767395 0.77910000085830688
vt 0.002933999989181757 0.64756700396537781
vt 0.17370200157165527 0.80152300000190735
vt 0.9291679859161377 0.997444000095129
vt 0.91248202323913574 0.99740600003860891
vt 0.68166697025299072 0.99701400008052588
vt 0.47185400128364563 0.99547399999573827
vt 0.43179899454116821 0.995149000082165
vt 0.38691401481628418 0.99460100010037422
vt 0.0028409999795258045 0.8825170025229454
vt 0.0028200000524520874 0.81032800674438477
vt 0.18352299928665161 0.99332500016316772
vt 0.12546199560165405 0.99332399992272258
vt 0.0028049999382346869 0.9931020000949502
vn 0.046135000884532928 0.99519401788711548 -0.086369000375270844
vn 0.050482001155614853 0.99348801374435425 -0.10213900357484818
vn 0.056464001536369324 0.99546098709106445 -0.076608002185821533
vn 0.045609001070261 0.99350202083587646 -0.10427500307559967
vn 0.0466339997947216 0.99516898393630981 -0.086393997073173523
vn 0.046633001416921616 0.99516898393630981 -0.086392998695373535
vn 0.034187000244855881 0.99285000562667847 -0.11437100172042847
vn 0.043271999806165695 0.99644899368286133 -0.072223998606204987
vn 0.0328189991414547 0.9936249852180481 -0.10785499960184097
vn 0.014330999925732613 0.99469298124313354 -0.10188700258731842
vn 0.027412999421358109 0.99748098850250244 -0.065417997539043427
vn 0.036341000348329544 0.9969710111618042 -0.0687670037150383
vn 0.020414000377058983 0.99874502420425415 -0.045728001743555069
vn 0.024973999708890915 0.99714398384094238 -0.071271002292633057
vn 0.032287999987602234 0.99394601583480835 -0.10501900315284729
vn 0.028800999745726585 0.99703401327133179 -0.071373000741004944
vn 0.019148999825119972 0.99931901693344116 -0.03155200183391571
vn 0.029363000765442848 0.99864798784255981 -0.0428990013897419
vn 0.028915999457240105 0.99868202209472656 -0.042403001338243484
vn -0.0095549998804926872 0.99652701616287231 -0.082726001739501953
vn 0.00018000000272877514 0.99733000993728638 -0.073021002113819122
vn -0.00926399976015091 0.99967497587203979 -0.02374500036239624
vn 0.0061750002205371857 0.99948799610137939 -0.031408000737428665
vn -0.026430999860167503 0.99954098463058472 0.014813000336289406
vn -0.0070299999788403511 0.99948298931121826 0.031369999051094055
vn -0.0085270004346966743 0.99980497360229492 0.017808999866247177
vn -0.021678000688552856 0.999563992023468 0.020051000639796257
vn 0.033433001488447189 0.99265199899673462 -0.11629299819469452
vn 0.049646001309156418 0.9978489875793457 -0.042819000780582428
vn 0.072719000279903412 0.99344199895858765 -0.088238000869750977
vn 0.067051000893116 0.99541497230529785 -0.0682160034775734
vn -0.0069010001607239246 0.99931901693344116 0.036240998655557632
vn -0.003696999978274107 0.99931502342224121 0.036821998655796051
vn 0.017311999574303627 0.99984300136566162 -0.0038360001053661108
vn 0.012114999815821648 0.99937599897384644 0.033179000020027161
vn -0.0011149999918416143 0.99932599067687988 0.036687001585960388
vn 0.024380000308156013 0.99938100576400757 0.025348000228405
vn 0.03979099914431572 0.998553991317749 -0.036159001290798187
vn 0.054607000201940536 0.99462699890136719 -0.087954998016357422
vn 0.032469999045133591 0.99945902824401855 0.0051939999684691429
vn 0.06413000077009201 0.99519902467727661 -0.07393299788236618
vn 0.050388000905513763 0.99871999025344849 -0.0043379999697208405
vn 0.053732998669147491 0.99716299772262573 -0.052705999463796616
vn 0.031853999942541122 0.99782699346542358 -0.057666998356580734
vn 0.035356000065803528 0.9971889853477478 -0.066054001450538635
vn 0.048269998282194138 0.9964900016784668 -0.068388000130653381
vn 0.051066998392343521 0.99479198455810547 -0.088206000626087189
vn 0.052491001784801483 0.99471002817153931 -0.088298000395298
vn 0.054095000028610229 0.99487400054931641 -0.085436999797821045
vn 0.064236998558044434 0.99758201837539673 -0.02652600035071373
vn 0.044449999928474426 0.99862998723983765 -0.027603000402450562
vn 0.060543999075889587 0.996612012386322 -0.055674001574516296
vn 0.063965000212192535 0.9975929856300354 -0.026770999655127525
vn 0.0702890008687973 0.99730402231216431 -0.021059000864624977
f 1/1/1 2/2/2 3/3/3
f 4/4/4 2/2/2 5/5/5
f 5/5/5 1/1/1 6/6/6
f 5/5/5 2/2/2 1/1/1
f 3/3/3 7/7/7 8/8/8
f 3/3/3 2/2/2 7/7/7
f 2/2/2 9/9/9 10/10/10
f 2/2/2 4/4/4 9/9/9
f 11/11/11 12/12/12 13/13/13
f 14/14/14 15/15/15 16/16/16
f 17/17/17 18/18/18 19/19/19
f 20/20/20 10/10/10 21/21/21
f 9/9/9 21/21/21 10/10/10
f 10/10/10 22/22/22 23/23/23
f 10/10/10 20/20/20 22/22/22
f 24/24/24 25/25/25 26/26/26
f 27/27/27 26/26/26 23/23/23
f 27/27/27 24/24/24 26/26/26
f 27/27/27 23/23/23 22/22/22
f 28/28/28 10/10/10 23/23/23
f 23/23/23 29/29/29 28/28/28
f 7/7/7 28/28/28 15/15/15
f 30/30/30 28/28/28 29/29/29
f 28/28/28 30/30/30 15/15/15
f 15/15/15 30/30/30 12/12/12
f 30/30/30 29/29/29 31/31/31
f 14/14/14 7/7/7 15/15/15
f 14/14/14 8/8/8 7/7/7
f 26/26/26 29/29/29 23/23/23
f 32/32/32 26/26/26 33/33/33
f 32/32/32 34/34/34 26/26/26
f 29/29/29 26/26/26 34/34/34
f 35/35/35 34/34/34 32/32/32
f 36/36/36 26/26/26 25/25/25
f 36/36/36 33/33/33 26/26/26
f 37/37/37 34/34/34 35/35/35
f 37/37/37 38/38/38 34/34/34
f 34/34/34 38/38/38 31/31/31
f 31/31/31 38/38/38 39/39/39
f 40/40/40 38/38/38 37/37/37
f 31/31/31 29/29/29 34/34/34
f 41/41/41 30/30/30 31/31/31
f 10/10/10 28/28/28 7/7/7
f 10/10/10 7/7/7 2/2/2
f 42/42/42 38/38/38 40/40/40
f 42/42/42 43/43/43 38/38/38
f 41/41/41 12/12/12 30/30/30
f 44/44/44 41/41/41 45/45/45
f 44/44/44 12/12/12 41/41/41
f 46/46/46 45/45/45 41/41/41
f 19/19/19 12/12/12 44/44/44
f 19/19/19 18/18/18 12/12/12
f 18/18/18 13/13/13 12/12/12
f 46/46/46 41/41/41 47/47/47
f 43/43/43 39/39/39 38/38/38
f 48/48/48 43/43/43 49/49/49
f 48/48/48 39/39/39 43/43/43
f 50/50/50 43/43/43 51/51/51
f 50/50/50 52/52/52 43/43/43
f 50/50/50 53/53/53 52/52/52
f 49/49/49 43/43/43 52/52/52
f 53/53/53 50/50/50 54/54/54
f 47/47/47 39/39/39 48/48/48
f 47/47/47 41/41/41 39/39/39
f 51/51/51 43/43/43 42/42/42
f 39/39/39 41/41/41 31/31/31
f 11/11/11 15/15/15 12/12/12
f 11/11/11 16/16/16 15/15/15
