mtllib m0333211.mtl
usemtl material0
v -154.98609924316406 4.6960577964782715 96
v -155.19844055175781 4.7038650512695312 96
v -154.97552490234375 4.6940021514892578 96.200637817382812
v -160 4.8940677642822266 96.46533203125
v -160 4.7615180015563965 101.78536224365234
v -160 4.754249095916748 104.46552991867065
v -154.55451965332031 4.6654391288757324 104.17825317382813
v -151.16438293457031 4.4986000061035156 96
v -146.57881188392639 4.2824010848999023 103.75828647613525
v -146.98837304115295 4.285010814666748 96
v -160 4.8958830833435059 96.074760437011719
v -160 4.8962302207946777 96
v -139.59895277023315 4.1078281402587891 96
v -160 4.552271842956543 112.46591898798943
v -154.13401794433594 4.5323681831359863 112.15621900558472
v -160 4.589055061340332 110.23062098026276
v -146.15898108482361 4.0145649909973145 111.73671001195908
v -138.60270690917969 3.9828369617462158 103.33803558349609
v -145.73793005943298 3.9947540760040283 119.71429395675659
v -160 4.3773159980773926 114.47847700119019
v -153.71627807617188 3.8353219032287598 120.1361083984375
v -138.98956298828125 4.0845599174499512 96
v -128 3.3859050273895264 96
v -128.61903381347656 3.3999879360198975 96
v -128 3.3814980983734131 96.269805908203125
v -130.20564270019531 3.642956018447876 110.89543199539185
v -130.62757873535156 3.4796459674835205 102.91847991943359
v -130.99284362792969 3.4735050201416016 96
v -132.00143432617188 3.536919116973877 96
v -128 3.4000918865203857 102.77997589111328
v -128 3.3945069313049316 101.42661285400391
v -128 3.3955140113830566 104.06375122070313
v -128 3.3831470012664795 96.923622131347656
v -138.1821141242981 3.8692970275878906 111.31593298912048
v -128 3.5221080780029297 109.64316606521606
v -160 3.9628059864044189 120.467529296875
v -160 3.5624539852142334 127.11976623535156
v -145.31921398639679 3.4954400062561035 127.69350433349609
v -137.76008605957031 4.05114221572876 119.29283094406128
v -160 3.5592451095581055 128
v -153.30119323730469 3.8229939937591553 128
v -145.30297899246216 3.5089180469512939 128
v -145.59495496749878 3.504828929901123 128
v -151.13751220703125 3.7342538833618164 128
v -137.33885192871094 4.0703740119934082 127.27027893066406
v -137.99542188644409 4.05089807510376 128
v -129.78372192382813 3.8052699565887451 118.87239789962769
v -128 3.7203319072723389 117.85967302322388
v -128 3.5870668888092041 111.85672000050545
v -128 3.5611870288848877 110.77922105789185
v -128 3.7056119441986084 118.77851915359497
v -129.36334228515625 3.6462829113006592 126.85044860839844
v -128 3.7086760997772217 119.65007781982422
v -128 3.5963680744171143 126.07638454437256
v -129.30262756347656 3.6524989604949951 128
v -136.5280909538269 4.0335907936096191 128
v -128 3.5859730243682861 126.77864837646484
v -128 3.5887179374694824 127.44476318359375
v -137.30035400390625 4.0651640892028809 128
v -128 3.5930590629577637 128
vt 0.15244600176811218 0.029994010925292969
vt 0.1460610032081604 0.030212998390197754
vt 0.15297199785709381 0.036011993885040283
vt 0.0021520000882446766 0.049143016338348389
vt 0.0077920001931488514 0.20904099941253662
vt 0.010582000017166138 0.28957301378250122
vt 0.1738400012254715 0.27528798580169678
vt 0.26743200421333313 0.02606499195098877
vt 0.41333600878715515 0.25447100400924683
vt 0.39307600259780884 0.021772027015686035
vt 0.0017480000387877226 0.037406980991363525
vt 0.0016700000269338489 0.035161018371582031
vt 0.61517399549484253 0.014191985130310059
vt 0.018913999199867249 0.53004100918769836
vt 0.19484500586986542 0.51459300518035889
vt 0.01666099950671196 0.46286600828170776
vt 0.43455800414085388 0.49387198686599731
vt 0.65272700786590576 0.2335360050201416
vt 0.45532301068305969 0.73315399885177612
vt 0.021059000864624977 0.59073999524116516
vt 0.216048002243042 0.75481699407100677
vt 0.633499026298523 0.013568997383117676
vt 0.96441102027893066 0.0021920204162597656
vt 0.94580602645874023 0.0028390288352966309
vt 0.96469599008560181 0.010299980640411377
vt 0.91318202018737793 0.45211100578308105
vt 0.892562985420227 0.21278399229049683
vt 0.87447798252105713 0.0053269863128662109
vt 0.84411102533340454 0.0063480138778686523
vt 0.97141200304031372 0.20594298839569092
vt 0.97001999616622925 0.16524899005889893
vt 0.97272402048110962 0.244517982006073
vt 0.96537697315216064 0.029945015907287598
vt 0.67385900020599365 0.47312301397323608
vt 0.97826999425888062 0.41221600770950317
vt 0.027456000447273254 0.77111899852752686
vt 0.034439001232385635 0.97135999985039234
vt 0.47663301229476929 0.97290400043129921
vt 0.69462502002716064 0.712448000907898
vt 0.035367999225854874 0.99780800007283688
vt 0.23693099617958069 0.99065299984067678
vt 0.47749200463294983 0.98210100084543228
vt 0.46867099404335022 0.98240800015628338
vt 0.30199599266052246 0.98833800014108419
vt 0.71654701232910156 0.95124699920415878
vt 0.69764602184295654 0.97392099909484386
vt 0.93396598100662231 0.6914919912815094
vt 0.98656797409057617 0.65920200943946838
vt 0.98049098253250122 0.47877997159957886
vt 0.97938400506973267 0.44637298583984375
vt 0.98754799365997314 0.68681299686431885
vt 0.95599597692489624 0.92927300184965134
vt 0.98816901445388794 0.711344987154007
vt 0.99607497453689575 0.90442100167274475
vt 0.95915502309799194 0.96373900026082993
vt 0.7417830228805542 0.97221899963915348
vt 0.9969099760055542 0.92552000284194946
vt 0.99768602848052979 0.945532001554966
vt 0.7185329794883728 0.97312700003385544
vt 0.99832999706268311 0.96221299842000008
vn 0.043917998671531677 0.99900400638580322 0.0079250000417232513
vn 0.039262998849153519 0.99921399354934692 0.0054979999549686909
vn 0.042079001665115356 0.99909102916717529 0.006785999983549118
vn 0.0405769981443882 0.99906200170516968 0.015100999735295773
vn 0.022200999781489372 0.99972200393676758 0.0078880004584789276
vn 0.017154000699520111 0.99972301721572876 0.016109000891447067
vn 0.031059000641107559 0.99946701526641846 0.010099999606609345
vn 0.051088001579046249 0.998691976070404 -0.0021949999500066042
vn 0.044339001178741455 0.99891000986099243 0.014578999951481819
vn 0.037983998656272888 0.99927699565887451 -0.0016690000193193555
vn 0.040031000971794128 0.99918800592422485 0.0046439999714493752
vn 0.040029998868703842 0.99918800592422485 0.0046459999866783619
vn 0.034370001405477524 0.99937397241592407 0.0084340004250407219
vn 0.0061730002053081989 0.99858999252319336 0.052731998264789581
vn 0.023648999631404877 0.99883002042770386 0.042172998189926147
vn 0.0074220001697540283 0.99978601932525635 0.019294999539852142
vn 0.044608000665903091 0.99891698360443115 0.013229000382125378
vn 0.045768998563289642 0.9989209771156311 0.00786800030618906
vn 0.0023610000498592854 0.99920499324798584 0.039799001067876816
vn 0.01218899991363287 0.99656301736831665 0.081932000815868378
vn 0.0012270000297576189 0.99835997819900513 0.057236000895500183
vn 0.05747000128030777 0.99828898906707764 0.01080899965018034
vn 0.022740999236702919 0.99960798025131226 0.016328999772667885
vn 0.029881000518798828 0.99955397844314575 -5.6000000768108293E-05
vn 0.027923999354243279 0.99959999322891235 0.0044370000250637531
vn 0.037223998457193375 0.99911999702453613 -0.019350999966263771
vn 0.048413999378681183 0.99876201152801514 -0.011454000137746334
vn 0.047391001135110855 0.99887102842330933 -0.0033889999613165855
vn 0.0668490007519722 0.99776297807693481 -0.0004949999856762588
vn 0.030240999534726143 0.99954301118850708 -0.00040900000021792948
vn 0.030649000778794289 0.99952602386474609 -0.003060000017285347
vn 0.037650000303983688 0.9992070198059082 -0.012978999875485897
vn 0.030954999849200249 0.99951797723770142 -0.0025220001116394997
vn 0.020013999193906784 0.999796986579895 -0.0021780000533908606
vn 0.039632998406887054 0.99886101484298706 -0.026585999876260757
vn 0.023637000471353531 0.99764400720596313 0.064396001398563385
vn -0.02472200058400631 0.99955302476882935 0.016809999942779541
vn -0.021459000185132027 0.99976897239685059 0.0013030000263825059
vn 0.0061510000377893448 0.99997997283935547 -0.0017109999898821116
vn -0.039342001080513 0.99921900033950806 0.0036430000327527523
vn 0.0021669999696314335 0.99999701976776123 0.0014530000044032931
vn -0.045012000948190689 0.99812400341033936 -0.041506998240947723
vn 0.026596000418066978 0.99962401390075684 -0.0066920001991093159
vn 0.040986001491546631 0.99915999174118042 -0.00047599998652003706
vn -0.0048710000701248646 0.99997401237487793 -0.0053240000270307064
vn -0.059693001210689545 0.99785000085830688 -0.027076000347733498
vn 0.037992998957633972 0.99927800893783569 -0.00082800001837313175
vn 0.042259000241756439 0.99906301498413086 -0.0093620000407099724
vn 0.035275999456644058 0.99911600351333618 -0.022850999608635902
vn 0.035486999899148941 0.99893897771835327 -0.029354000464081764
vn 0.056127000600099564 0.99840199947357178 0.0065649999305605888
vn 0.046530000865459442 0.99891501665115356 0.002073999959975481
vn 0.049848001450300217 0.99870997667312622 0.0097139999270439148
vn 0.045968998223543167 0.99880599975585938 0.016558000817894936
vn 0.049006998538970947 0.99876600503921509 -0.0079889995977282524
vn 0.049913998693227768 0.998740017414093 -0.0051139998249709606
vn 0.044489998370409012 0.998993992805481 0.0056500001810491085
vn 0.044989001005887985 0.99896699190139771 -0.0064460001885890961
vn 0.01119999960064888 0.99991601705551147 0.0065480000339448452
vn 0.04558200016617775 0.99892997741699219 -0.0078099998645484447
f 1/1/1 2/2/2 3/3/3
f 4/4/4 5/5/5 3/3/3
f 3/3/3 6/6/6 7/7/7
f 3/3/3 5/5/5 6/6/6
f 1/1/1 3/3/3 8/8/8
f 8/8/8 9/9/9 10/10/10
f 8/8/8 3/3/3 9/9/9
f 4/4/4 3/3/3 11/11/11
f 11/11/11 2/2/2 12/12/12
f 11/11/11 3/3/3 2/2/2
f 10/10/10 9/9/9 13/13/13
f 7/7/7 14/14/14 15/15/15
f 7/7/7 16/16/16 14/14/14
f 16/16/16 7/7/7 6/6/6
f 9/9/9 15/15/15 17/17/17
f 15/15/15 9/9/9 7/7/7
f 17/17/17 18/18/18 9/9/9
f 17/17/17 15/15/15 19/19/19
f 3/3/3 7/7/7 9/9/9
f 15/15/15 20/20/20 21/21/21
f 15/15/15 14/14/14 20/20/20
f 22/22/22 9/9/9 18/18/18
f 22/22/22 13/13/13 9/9/9
f 23/23/23 24/24/24 25/25/25
f 18/18/18 26/26/26 27/27/27
f 28/28/28 18/18/18 27/27/27
f 28/28/28 29/29/29 18/18/18
f 30/30/30 31/31/31 27/27/27
f 32/32/32 30/30/30 27/27/27
f 31/31/31 28/28/28 27/27/27
f 31/31/31 33/33/33 28/28/28
f 33/33/33 24/24/24 28/28/28
f 33/33/33 25/25/25 24/24/24
f 34/34/34 18/18/18 17/17/17
f 22/22/22 18/18/18 29/29/29
f 32/32/32 26/26/26 35/35/35
f 32/32/32 27/27/27 26/26/26
f 36/36/36 37/37/37 21/21/21
f 19/19/19 15/15/15 21/21/21
f 36/36/36 21/21/21 20/20/20
f 19/19/19 38/38/38 39/39/39
f 40/40/40 21/21/21 37/37/37
f 40/40/40 41/41/41 21/21/21
f 19/19/19 34/34/34 17/17/17
f 21/21/21 38/38/38 19/19/19
f 42/42/42 38/38/38 43/43/43
f 43/43/43 38/38/38 44/44/44
f 42/42/42 45/45/45 38/38/38
f 42/42/42 46/46/46 45/45/45
f 21/21/21 44/44/44 38/38/38
f 21/21/21 41/41/41 44/44/44
f 19/19/19 39/39/39 34/34/34
f 26/26/26 39/39/39 47/47/47
f 39/39/39 26/26/26 34/34/34
f 48/48/48 26/26/26 47/47/47
f 48/48/48 49/49/49 26/26/26
f 50/50/50 26/26/26 49/49/49
f 48/48/48 47/47/47 51/51/51
f 35/35/35 26/26/26 50/50/50
f 47/47/47 39/39/39 52/52/52
f 52/52/52 39/39/39 45/45/45
f 51/51/51 47/47/47 53/53/53
f 54/54/54 47/47/47 52/52/52
f 54/54/54 53/53/53 47/47/47
f 45/45/45 55/55/55 52/52/52
f 45/45/45 56/56/56 55/55/55
f 57/57/57 54/54/54 52/52/52
f 58/58/58 57/57/57 52/52/52
f 59/59/59 45/45/45 46/46/46
f 45/45/45 39/39/39 38/38/38
f 18/18/18 34/34/34 26/26/26
f 55/55/55 58/58/58 52/52/52
f 55/55/55 60/60/60 58/58/58
f 59/59/59 56/56/56 45/45/45
