mtllib m033110.mtl
usemtl material0
v -104.43297576904297 -0.95332098007202148 448
v -110.27681732177734 -0.64542001485824585 448
v -104.14127254486084 -0.91755199432373047 453.52218627929688
v -120.42865753173828 -0.18042899668216705 448
v -127.16005706787109 0.3307420015335083 448
v -120.09281158447266 -0.18555900454521179 454.3623046875
v -128 0.13246700167655945 454.77890014648438
v -128 -0.27765300869941711 463.1507568359375
v -128 -1.1343619823455811 486.78167676925659
v -128 -1.267935037612915 496.93096923828125
v -118.414794921875 -1.5269210338592529 486.27673292160034
v -128 -1.4110840559005737 502.781982421875
v -126.36190795898438 -1.9492199420928955 512
v -117.57463836669922 -1.9628560543060303 502.233154296875
v -128 -1.7592949867248535 509.95867919921875
v -128 -1.8583379983901978 512
v -128 -0.94794601202011108 480.04049700126052
v -119.25475311279297 -1.0500470399856567 470.32015991210938
v -128 -0.67261099815368652 470.78082275390625
v -103.30649614334106 -2.4543910026550293 469.48226928710938
v -99.17351508140564 -1.2233899831771851 448
v -102.46920013427734 -3.4747130870819092 485.44061279296875
v -117.05963897705078 -2.0826969146728516 512
v -111.16633605957031 -2.728571891784668 512
v -101.62804412841797 -3.7050850391387939 501.39633178710938
v -87.3586196899414 -3.933027982711792 468.64459228515625
v -86.5210485458374 -4.89719820022583 484.60275316238403
v -101.06893920898438 -3.8394119739532471 512
v -88.1925048828125 -2.2150390148162842 452.6839599609375
v -128 0.34258699417114258 448.68093872070312
v -128 0.36605000495910645 448
v -85.681632995605469 -5.4825439453125 500.55966186523438
v -95.972495999187231 -4.4092960357666016 512
v -88.4392237663269 -2.1072030067443848 448
v -83.978333473205566 -2.2175049781799316 448
v -72.440185546875 -2.2151119709014893 448
v -72.237380981445312 -2.212332010269165 451.84140014648438
v -71.400032043457031 -3.2198829650878906 467.79971313476562
v -64 -2.6073479652404785 451.40762329101562
v -64 -3.1010940074920654 459.57501220703125
v -64 -3.5156130790710449 467.40985107421875
v -70.567680358886719 -5.2489771842956543 483.76138305664062
v -64 -4.6444921493530273 476.46289110183716
v -69.729995727539062 -6.1888089179992676 499.71945190429688
v -85.079353332519531 -5.8130049705505371 512
v -80.778526306152344 -6.009425163269043 512
v -69.083023071289062 -6.4518527984619141 512
v -64 -6.0795040130615234 499.41653442382812
v -65.582199096679688 -6.3892111778259277 512
v -64 -6.3215770721435547 510.2415771484375
v -64 -5.767941951751709 493.35162353515625
v -64 -5.1787562370300293 483.41436791419983
v -68.781318664550781 -2.2463080883026123 448
v -64 -2.4846570491790771 448
v -64 -2.5260078907012939 449.14849853515625
v -64 -6.3610520362854 512
vt 0.35487699508666992 0.022594988346099854
vt 0.26712599396705627 0.025659024715423584
vt 0.36210799217224121 0.10525298118591309
vt 0.11473699659109116 0.030974984169006348
vt 0.013508000411093235 0.034514009952545166
vt 0.12309999763965607 0.12620401382446289
vt 0.0046549998223781586 0.13662397861480713
vt 0.0093310000374913216 0.2623019814491272
vt 0.021826999261975288 0.6166439950466156
vt 0.026953000575304031 0.76885400712490082
vt 0.1654369980096817 0.60430499911308289
vt 0.029905999079346657 0.85662099719047546
vt 0.059424001723527908 0.99419899983331561
vt 0.18604299426078796 0.84325399994850159
vt 0.033732000738382339 0.96436100080609322
vt 0.034820999950170517 0.99500699993222952
vt 0.018360000103712082 0.51551800966262817
vt 0.14462299644947052 0.36535400152206421
vt 0.01360700000077486 0.37685900926589966
vt 0.384319007396698 0.345130980014801
vt 0.43384701013565063 0.01983797550201416
vt 0.40597298741340637 0.584414005279541
vt 0.19841299951076508 0.98949200008064508
vt 0.28732600808143616 0.98676200024783611
vt 0.42623600363731384 0.82331900298595428
vt 0.62409597635269165 0.32475101947784424
vt 0.64567798376083374 0.56402900815010071
vt 0.43967300653457642 0.98208599910140038
vt 0.60161697864532471 0.08433997631072998
vt 0.0012789999600499868 0.045176029205322266
vt 0.000901999999769032 0.034959971904754639
vt 0.66647201776504517 0.8032429963350296
vt 0.51658099889755249 0.97969399951398373
vt 0.59535497426986694 0.014223992824554443
vt 0.66226500272750854 0.011820018291473389
vt 0.83527398109436035 0.0055599808692932129
vt 0.84031802415847778 0.062156975269317627
vt 0.86297297477722168 0.30133599042892456
vt 0.96370798349380493 0.050821006298065186
vt 0.96886897087097168 0.17348200082778931
vt 0.97377598285675049 0.29110097885131836
vt 0.88448798656463623 0.54269999265670776
vt 0.978734016418457 0.42910802364349365
vt 0.90610498189926147 0.78190900385379791
vt 0.68193602561950684 0.97450999915599823
vt 0.746491014957428 0.97217199951410294
vt 0.921995997428894 0.96611899882555008
vt 0.99185502529144287 0.77403299510478973
vt 0.97537201642990112 0.96366799995303154
vt 0.99808597564697266 0.93637699633836746
vt 0.98840498924255371 0.68297898769378662
vt 0.98275798559188843 0.53364101052284241
vt 0.89005899429321289 0.0026829838752746582
vt 0.96184402704238892 0.00013899803161621094
vt 0.96248501539230347 0.017369985580444336
vt 0.999098002910614 0.96274799853563309
vn 0.051968000829219818 0.99860602617263794 -0.0092139998450875282
vn 0.047354999929666519 0.99887198209762573 -0.0033899999689310789
vn 0.067969001829624176 0.99686998128890991 0.040369000285863876
vn 0.061246998608112335 0.9981200098991394 -0.0024280000943690538
vn 0.049844998866319656 0.99842697381973267 0.025653999298810959
vn 0.049353998154401779 0.99836200475692749 0.028938999399542809
vn 0.0423550009727478 0.99822402000427246 0.041880998760461807
vn 0.045060001313686371 0.99768197536468506 0.050997000187635422
vn 0.041971001774072647 0.99891597032547 0.020145000889897346
vn 0.051199000328779221 0.99845099449157715 0.0217909999191761
vn 0.079804003238677979 0.9964439868927002 0.027036000043153763
vn 0.054747998714447021 0.99782198667526245 0.036793999373912811
vn 0.044404000043869019 0.99826902151107788 0.038557000458240509
vn 0.07846900075674057 0.9967380166053772 0.018892999738454819
vn 0.055330000817775726 0.99729502201080322 0.048388000577688217
vn 0.055330000817775726 0.99729502201080322 0.048388000577688217
vn 0.042895000427961349 0.99868398904800415 0.028101999312639236
vn 0.062182001769542694 0.99708700180053711 0.044171001762151718
vn 0.04520300030708313 0.99816399812698364 0.040314000099897385
vn 0.096340000629425049 0.99276697635650635 0.071647003293037415
vn 0.07385600358247757 0.99720597267150879 0.0112119996920228
vn 0.10560899972915649 0.99380898475646973 0.034510999917984009
vn 0.063317999243736267 0.99795401096343994 0.0089060002937912941
vn 0.1090489998459816 0.99401497840881348 0.0065520000644028187
vn 0.10753399878740311 0.99414598941802979 0.010517000220716
vn 0.032882999628782272 0.9965050220489502 0.076782003045082092
vn 0.055484000593423843 0.99700802564620972 0.053810998797416687
vn 0.1102679967880249 0.99387902021408081 0.0067759999074041843
vn 0.04789699986577034 0.99715501070022583 0.058203000575304031
vn 0.041974000632762909 0.99852597713470459 0.034405998885631561
vn 0.041972998529672623 0.99852597713470459 0.034405998885631561
vn 0.0809049978852272 0.99637198448181152 0.026393000036478043
vn 0.11556000262498856 0.99324202537536621 0.010769999586045742
vn 0.054381001740694046 0.99831801652908325 0.020119000226259232
vn 0.0064429999329149723 0.99996501207351685 0.0052709998562932014
vn 0.0040130000561475754 0.99999099969863892 -0.00093600002583116293
vn 0.015544000081717968 0.99904698133468628 0.040771998465061188
vn 0.011332999914884567 0.99633902311325073 0.0847340002655983
vn 0.05035100132226944 0.99759101867675781 0.047715999186038971
vn 0.049035001546144485 0.99708098173141479 0.058518998324871063
vn 0.044362999498844147 0.99520701169967651 0.087150998413562775
vn 0.016416000202298164 0.99621498584747314 0.085363999009132385
vn 0.033865001052618027 0.9930490255355835 0.1127220019698143
vn 0.011854000389575958 0.99926000833511353 0.036593999713659286
vn 0.085327997803688049 0.99605697393417358 0.024280000478029251
vn 0.043522998690605164 0.99874997138977051 0.024567000567913055
vn 0.0090210000053048134 0.99974000453948975 0.020938999950885773
vn -0.017086999490857124 0.99915701150894165 0.037321001291275024
vn -0.017860999330878258 0.99958997964859009 0.022376000881195068
vn -0.017864000052213669 0.99958997964859009 0.022373000159859657
vn -0.009592999704182148 0.998308002948761 0.057348001748323441
vn -0.0070629999972879887 0.99764597415924072 0.068205997347831726
vn 0.038766000419855118 0.99890899658203125 0.026041999459266663
vn 0.0497560016810894 0.99811500310897827 0.035936001688241959
vn 0.0497560016810894 0.99811500310897827 0.035937000066041946
vn -0.017790000885725021 0.99958997964859009 0.022439999505877495
f 1/1/1 2/2/2 3/3/3
f 4/4/4 5/5/5 6/6/6
f 7/7/7 8/8/8 6/6/6
f 9/9/9 10/10/10 11/11/11
f 12/12/12 13/13/13 14/14/14
f 12/12/12 15/15/15 13/13/13
f 15/15/15 16/16/16 13/13/13
f 17/17/17 18/18/18 19/19/19
f 17/17/17 11/11/11 18/18/18
f 17/17/17 9/9/9 11/11/11
f 6/6/6 18/18/18 3/3/3
f 20/20/20 18/18/18 11/11/11
f 18/18/18 20/20/20 3/3/3
f 21/21/21 1/1/1 3/3/3
f 20/20/20 11/11/11 22/22/22
f 2/2/2 6/6/6 3/3/3
f 2/2/2 4/4/4 6/6/6
f 10/10/10 14/14/14 11/11/11
f 10/10/10 12/12/12 14/14/14
f 23/23/23 14/14/14 13/13/13
f 14/14/14 24/24/24 25/25/25
f 14/14/14 23/23/23 24/24/24
f 25/25/25 22/22/22 14/14/14
f 26/26/26 20/20/20 22/22/22
f 27/27/27 22/22/22 25/25/25
f 28/28/28 25/25/25 24/24/24
f 11/11/11 14/14/14 22/22/22
f 20/20/20 29/29/29 3/3/3
f 8/8/8 18/18/18 6/6/6
f 8/8/8 19/19/19 18/18/18
f 5/5/5 7/7/7 6/6/6
f 5/5/5 30/30/30 7/7/7
f 30/30/30 5/5/5 31/31/31
f 28/28/28 32/32/32 25/25/25
f 28/28/28 33/33/33 32/32/32
f 34/34/34 29/29/29 35/35/35
f 36/36/36 29/29/29 37/37/37
f 36/36/36 35/35/35 29/29/29
f 29/29/29 21/21/21 3/3/3
f 29/29/29 34/34/34 21/21/21
f 27/27/27 26/26/26 22/22/22
f 26/26/26 27/27/27 38/38/38
f 38/38/38 37/37/37 26/26/26
f 39/39/39 38/38/38 40/40/40
f 39/39/39 37/37/37 38/38/38
f 41/41/41 42/42/42 43/43/43
f 41/41/41 38/38/38 42/42/42
f 42/42/42 38/38/38 27/27/27
f 29/29/29 26/26/26 37/37/37
f 42/42/42 27/27/27 44/44/44
f 45/45/45 32/32/32 33/33/33
f 32/32/32 46/46/46 44/44/44
f 32/32/32 45/45/45 46/46/46
f 47/47/47 44/44/44 46/46/46
f 48/48/48 49/49/49 50/50/50
f 48/48/48 44/44/44 49/49/49
f 44/44/44 47/47/47 49/49/49
f 27/27/27 32/32/32 44/44/44
f 51/51/51 42/42/42 44/44/44
f 51/51/51 52/52/52 42/42/42
f 32/32/32 27/27/27 25/25/25
f 53/53/53 36/36/36 37/37/37
f 26/26/26 29/29/29 20/20/20
f 54/54/54 53/53/53 55/55/55
f 55/55/55 37/37/37 39/39/39
f 55/55/55 53/53/53 37/37/37
f 43/43/43 42/42/42 52/52/52
f 50/50/50 49/49/49 56/56/56
f 51/51/51 44/44/44 48/48/48
f 40/40/40 38/38/38 41/41/41
