mtllib m0333333200.mtl
usemtl material0
v -30.433192998170853 2.8064041137695312 12
v -31.100636005401611 2.8158071041107178 12
v -30.400092989206314 2.7685809135437012 12.630642056465149
v -29.433193027973175 2.8109960556030273 12
v -30.044973000884056 2.8085160255432129 12
v -29.402854979038239 2.7771821022033691 12.577952980995178
v -31.433104038238525 2.8194139003753662 12
v -32 2.8164019584655762 12.420439958572388
v -31.397253036499023 2.7760930061340332 12.683274984359741
v -32 2.8421730995178223 12
v -28.432963967323303 2.8606550693511963 12
v -28.989029049873352 2.8333899974823 12
v -28.405395984649658 2.8307030200958252 12.525110006332398
v -32 2.7753729820251465 13.025510013103485
v -28 2.8720920085906982 12.503571033477783
v -28 2.8910219669342041 12.199367046356201
v -28 2.9034268856048584 12
v -29.350470006465912 2.7246859073638916 13.57532200217247
v -30.347750008106232 2.7077839374542236 13.628039002418518
v -28 2.8499488830566406 12.889690041542053
v -28.352995038032532 2.7816250324249268 13.522468000650406
v -31.344949960708618 2.7069950103759766 13.680700987577438
v -32 2.6848659515380859 14.369679003953934
v -31.29264497756958 2.6378979682922363 14.678128004074097
v -32 2.7289330959320068 13.715223014354706
v -32 2.6317179203033447 15.079761981964111
v -31.240350961685181 2.5668470859527588 15.67556095123291
v -32 2.5874500274658203 15.715610980987549
v -30.295415997505188 2.6445460319519043 14.625446021556854
v -32 2.5695950984954834 16
v -31.223330020904541 2.5459589958190918 16
v -32 2.5749120712280273 15.915307998657227
v -29.298099994659424 2.6692600250244141 14.5727019906044
v -28 2.8166279792785645 13.503715991973877
v -28 2.7964138984680176 13.839937999844551
v -28.300609946250916 2.7291290760040283 14.519837021827698
v -29.245760023593903 2.6074860095977783 15.570104002952576
v -28 2.758202075958252 14.503871023654938
v -28 2.7424221038818359 14.790189027786255
v -28.248235940933228 2.6741909980773926 15.517215967178345
v -30.243109002709389 2.5764250755310059 15.62286901473999
v -29.223196029663086 2.5817019939422607 16
v -29.824029996991158 2.5649430751800537 16
v -28 2.6924679279327393 15.634040951728821
v -28 2.686784029006958 15.740453004837036
v -28 2.6994130611419678 15.504026055335999
v -28.222888946533203 2.6466529369354248 16
v -28.767892956733704 2.6119530200958252 16
v -30.582462012767792 2.5499229431152344 16
v -30.223322004079819 2.5523290634155273 16
v -28 2.6705200672149658 16
vt 0 0.39170199632644653
vt 0 0.22484099864959717
vt 0.15765999257564545 0.39997702836990356
vt 0 0.64170199632644653
vt 0 0.48875701427459717
vt 0.14448800683021545 0.64928600192070007
vt 0 0.14172399044036865
vt 0.10510999709367752 0
vt 0.1708189994096756 0.15068697929382324
vt 0 0
vt 0 0.8917590007185936
vt 0 0.75274300575256348
vt 0.13127799332141876 0.89865099638700485
vt 0.25637701153755188 0
vt 0.1258929967880249 1
vt 0.049842000007629395 1
vt 0 1
vt 0.39383101463317871 0.66238299012184143
vt 0.40700998902320862 0.41306298971176147
vt 0.2224230021238327 1
vt 0.38061699271202087 0.911751002073288
vt 0.4201749861240387 0.16376298666000366
vt 0.59241998195648193 0
vt 0.66953200101852417 0.17683899402618408
vt 0.42880600690841675 0
vt 0.769940972328186 0
vt 0.91888999938964844 0.18991202116012573
vt 0.92890298366546631 0
vt 0.656361997127533 0.42614597082138062
vt 1 0
vt 1 0.19416797161102295
vt 0.97882699966430664 0
vt 0.64317601919174194 0.675475001335144
vt 0.37592899799346924 1
vt 0.45998498797416687 1
vt 0.629958987236023 0.92484799772500992
vt 0.89252597093582153 0.68856000900268555
vt 0.62596797943115234 1
vt 0.69754701852798462 1
vt 0.87930399179458618 0.93794099986553192
vt 0.90571701526641846 0.43922299146652222
vt 1 0.69420099258422852
vt 1 0.54399299621582031
vt 0.90851002931594849 1
vt 0.93511301279067993 1
vt 0.87600702047348022 1
vt 1 0.94427800178527832
vt 1 0.8080269992351532
vt 1 0.35438400506973267
vt 1 0.44416999816894531
vt 1 1
vn 0.0010000000474974513 0.99820899963378906 0.059815000742673874
vn 0.011864000000059605 0.99803298711776733 0.061558999121189117
vn 0.0002010000025620684 0.99824601411819458 0.059206001460552216
vn -0.036254998296499252 0.99752402305603027 0.060265000909566879
vn -0.00458399998024106 0.99823498725891113 0.059211999177932739
vn -0.0304540004581213 0.9979739785194397 0.055867001414299011
vn 0.032400000840425491 0.99757802486419678 0.061547998338937759
vn 0.0390079990029335 0.997219979763031 0.063481003046035767
vn 0.017725000157952309 0.99775898456573486 0.064519003033638
vn 0.040040001273155212 0.99732601642608643 0.061131998896598816
vn -0.07831999659538269 0.9950680136680603 0.06086999922990799
vn -0.049497000873088837 0.9969639778137207 0.060114998370409012
vn -0.062688998878002167 0.99643301963806152 0.056497998535633087
vn 0.036997001618146896 0.99704998731613159 0.067254997789859772
vn -0.098212003707885742 0.99333697557449341 0.060300000011920929
vn -0.098123997449874878 0.99325299263000488 0.061806000769138336
vn -0.0981220006942749 0.99325400590896606 0.061801999807357788
vn -0.033045999705791473 0.9978489875793457 0.056616999208927155
vn -0.0051179998554289341 0.99797499179840088 0.063403002917766571
vn -0.096253998577594757 0.99386000633239746 0.054565001279115677
vn -0.06388399749994278 0.9964669942855835 0.054526999592781067
vn 0.020689999684691429 0.99747002124786377 0.068015001714229584
vn 0.035913001745939255 0.99693900346755981 0.069449000060558319
vn 0.012500000186264515 0.99755901098251343 0.068695999681949615
vn 0.03692999854683876 0.99706000089645386 0.067134998738765717
vn 0.031567998230457306 0.99698102474212646 0.070938996970653534
vn 0.00887800008058548 0.99762499332427979 0.068313002586364746
vn 0.0306209996342659 0.99722898006439209 0.067798003554344177
vn -0.013709999620914459 0.99768102169036865 0.06666100025177002
vn 0.030358999967575073 0.99757498502731323 0.062628000974655151
vn 0.015875000506639481 0.99786102771759033 0.06341099739074707
vn 0.030357999727129936 0.99757498502731323 0.0626320019364357
vn -0.038908999413251877 0.9973909854888916 0.060805000364780426
vn -0.0955749973654747 0.99384599924087524 0.055991001427173614
vn -0.093506999313831329 0.99394702911376953 0.057668998837471008
vn -0.064862996339797974 0.99624502658843994 0.057339999824762344
vn -0.042015999555587769 0.997044026851654 0.064327001571655273
vn -0.09313800185918808 0.99405002593994141 0.056480001658201218
vn -0.097047999501228333 0.99352598190307617 0.059059999883174896
vn -0.0685570016503334 0.99578797817230225 0.060881000012159348
vn -0.018023999407887459 0.9976159930229187 0.066619999706745148
vn -0.036651000380516052 0.997418999671936 0.061746001243591309
vn -0.029298000037670135 0.99758797883987427 0.062928996980190277
vn -0.098149001598358154 0.99375498294830322 0.053082998842000961
vn -0.10518799722194672 0.99258100986480713 0.060975998640060425
vn -0.097816996276378632 0.993465006351471 0.0588110014796257
vn -0.0717490017414093 0.99558299779891968 0.060554999858140945
vn -0.064672000706195831 0.99600702524185181 0.061539001762866974
vn -0.0062710000202059746 0.99789899587631226 0.064482003450393677
vn -0.019758999347686768 0.997704029083252 0.0647829994559288
vn -0.10626599937677383 0.99239099025726318 0.062185999006032944
f 1/1/1 2/2/2 3/3/3
f 4/4/4 5/5/5 6/6/6
f 7/7/7 8/8/8 9/9/9
f 7/7/7 10/10/10 8/8/8
f 11/11/11 12/12/12 13/13/13
f 8/8/8 14/14/14 9/9/9
f 2/2/2 9/9/9 3/3/3
f 2/2/2 7/7/7 9/9/9
f 13/13/13 4/4/4 6/6/6
f 13/13/13 12/12/12 4/4/4
f 1/1/1 6/6/6 5/5/5
f 1/1/1 3/3/3 6/6/6
f 15/15/15 11/11/11 13/13/13
f 15/15/15 16/16/16 11/11/11
f 16/16/16 17/17/17 11/11/11
f 3/3/3 18/18/18 6/6/6
f 9/9/9 19/19/19 3/3/3
f 20/20/20 15/15/15 13/13/13
f 13/13/13 6/6/6 21/21/21
f 22/22/22 23/23/23 24/24/24
f 22/22/22 25/25/25 23/23/23
f 14/14/14 22/22/22 9/9/9
f 14/14/14 25/25/25 22/22/22
f 22/22/22 24/24/24 19/19/19
f 23/23/23 26/26/26 24/24/24
f 26/26/26 27/27/27 24/24/24
f 26/26/26 28/28/28 27/27/27
f 29/29/29 24/24/24 27/27/27
f 30/30/30 31/31/31 32/32/32
f 32/32/32 27/27/27 28/28/28
f 32/32/32 31/31/31 27/27/27
f 18/18/18 19/19/19 33/33/33
f 19/19/19 18/18/18 3/3/3
f 34/34/34 21/21/21 35/35/35
f 21/21/21 20/20/20 13/13/13
f 21/21/21 34/34/34 20/20/20
f 6/6/6 18/18/18 21/21/21
f 21/21/21 18/18/18 36/36/36
f 33/33/33 29/29/29 37/37/37
f 29/29/29 33/33/33 19/19/19
f 38/38/38 36/36/36 39/39/39
f 36/36/36 35/35/35 21/21/21
f 36/36/36 38/38/38 35/35/35
f 18/18/18 33/33/33 36/36/36
f 36/36/36 33/33/33 40/40/40
f 27/27/27 41/41/41 29/29/29
f 42/42/42 41/41/41 43/43/43
f 42/42/42 37/37/37 41/41/41
f 41/41/41 37/37/37 29/29/29
f 44/44/44 40/40/40 45/45/45
f 44/44/44 46/46/46 40/40/40
f 40/40/40 39/39/39 36/36/36
f 40/40/40 46/46/46 39/39/39
f 33/33/33 37/37/37 40/40/40
f 47/47/47 37/37/37 48/48/48
f 47/47/47 40/40/40 37/37/37
f 49/49/49 50/50/50 41/41/41
f 42/42/42 48/48/48 37/37/37
f 47/47/47 45/45/45 40/40/40
f 47/47/47 51/51/51 45/45/45
f 43/43/43 41/41/41 50/50/50
f 27/27/27 49/49/49 41/41/41
f 27/27/27 31/31/31 49/49/49
f 24/24/24 29/29/29 19/19/19
f 9/9/9 22/22/22 19/19/19
