mtllib m0333333013.mtl
usemtl material0
v -20 3.8034050464630127 24.077788949012756
v -20 3.7619280815124512 24.298603057861328
v -19.791059017181396 3.8612940311431885 24.066571950912476
v -20 3.8144919872283936 24
v -19.794528961181641 3.8698480129241943 24
v -20 3.8072299957275391 24.050948977470398
v -19.7311190366745 3.8855729103088379 24
v -18.79263699054718 4.1110987663269043 24.013056039810181
v -19.739313006401062 3.6784260272979736 25.06438797712326
v -18.793317973613739 4.1128458976745605 24
v -18.74092298746109 3.9218831062316895 25.010895013809204
v -20 3.6086189746856689 25.07837700843811
v -17.792297005653381 4.31768798828125 24
v -17.742666006088257 4.1379961967468262 24.95749294757843
v -17.830708995461464 4.3097801208496094 24
v -18.548555016517639 4.1634631156921387 24
v -16.880566000938416 4.4885239601135254 24
v -17.691042006015778 3.9302260875701904 25.955396998673677
v -18.689347982406616 3.7043468952178955 26.008830999955535
v -20 3.447782039642334 25.781488001346588
v -19.687726974487305 3.4633309841156006 26.062316998839378
v -20 3.3853530883789062 26.079053997993469
v -20 3.3170731067657471 26.409105002880096
v -20 3.0924630165100098 27.464349985122681
v -19.636121988296509 3.2516539096832275 27.060232043266296
v -20 3.1671888828277588 27.079715967178345
v -18.637762010097504 3.4887640476226807 27.006760001182556
v -18.58194500207901 3.2814979553222656 28
v -17.6394140124321 3.7234320640563965 26.9532949924469
v -18.586387991905212 3.280505895614624 28
v -18.591334998607635 3.2793900966644287 28
v -17.631743997335434 3.491008996963501 28
v -17.58780899643898 3.5122430324554443 27.951207995414734
v -18.498998999595642 3.29984188079834 28
v -19.587476968765259 3.0619609355926514 28
v -20 2.978748083114624 28
v -16.744542956352234 4.3267660140991211 24.904186010360718
v -16.692883014678955 4.12631893157959 25.902062997221947
v -16 4.6064457893371582 24
v -16 4.5907669067382812 24.077180981636047
v -16.791370034217834 4.50441312789917 24
v -16 4.4304518699646 24.864539980888367
v -16 4.3748588562011719 25.132444024086
v -16 4.2217950820922852 25.865171000361443
v -16.641147971153259 3.9414980411529541 26.899887025356293
v -16 4.1599187850952148 26.187710002064705
v -16 4.0060129165649414 26.865826010704041
v -16.589496970176697 3.7395861148834229 27.897770047187805
v -16 3.9279580116271973 27.24294102191925
v -16.584236025810242 3.7129030227661133 28
v -16.681555032730103 3.6945269107818604 28
v -16 3.8461759090423584 27.866302013397217
v -16 3.8348040580749512 27.908488988876343
v -16 3.8101348876953125 28
v -17.585290998220444 3.5006999969482422 28
vt 0.019447000697255135 0
vt 0.074651002883911133 0
vt 0.016643000766634941 0.052235007286071777
vt 0 0
vt 0 0.051367998123168945
vt 0.012737000361084938 0
vt 0 0.067219972610473633
vt 0.0032639999408274889 0.30184102058410645
vt 0.26609700918197632 0.065172016620635986
vt 0 0.30167102813720703
vt 0.25272399187088013 0.31476902961730957
vt 0.26959401369094849 0
vt 0 0.55192598700523376
vt 0.23937299847602844 0.5643329918384552
vt 0 0.54232299327850342
vt 0 0.36286097764968872
vt 0 0.77985900640487671
vt 0.488849014043808 0.577239990234375
vt 0.50220799446105957 0.32766300439834595
vt 0.44537198543548584 0
vt 0.5155789852142334 0.078068017959594727
vt 0.51976299285888672 0
vt 0.6022760272026062 0
vt 0.866087019443512 0
vt 0.76505798101425171 0.090969979763031
vt 0.76992899179458618 0
vt 0.75168997049331665 0.34055900573730469
vt 1 0.35451400279998779
vt 0.738323986530304 0.5901469886302948
vt 1 0.35340297222137451
vt 1 0.35216599702835083
vt 1 0.59206399321556091
vt 0.98780202865600586 0.60304799675941467
vt 1 0.375249981880188
vt 1 0.1031309962272644
vt 1 0
vt 0.22604699432849884 0.81386399269104
vt 0.47551599144935608 0.82677899301052094
vt 0 1
vt 0.019294999539852142 1
vt 0 0.802156999707222
vt 0.21613499522209168 1
vt 0.28311100602149963 1
vt 0.46629300713539124 1
vt 0.72497200965881348 0.83971300721168518
vt 0.54692697525024414 1
vt 0.71645599603652954 1
vt 0.9744420051574707 0.85262599587440491
vt 0.81073498725891113 1
vt 1 0.85394099354743958
vt 1 0.82961100339889526
vt 0.9665759801864624 1
vt 0.97712200880050659 1
vt 1 1
vt 1 0.60367700457572937
vn -0.25423899292945862 0.95135498046875 0.1740259975194931
vn -0.24673399329185486 0.951225996017456 0.18517699837684631
vn -0.23476299643516541 0.95451599359512329 0.18380600214004517
vn -0.25770598649978638 0.95655602216720581 0.13634100556373596
vn -0.25319498777389526 0.95777100324630737 0.13626100122928619
vn -0.25770598649978638 0.95655697584152222 0.13633400201797485
vn -0.23345799744129181 0.96213597059249878 0.14068399369716644
vn -0.22294899821281433 0.95643198490142822 0.18849800527095795
vn -0.22569799423217773 0.95257502794265747 0.20411199331283569
vn -0.22648000717163086 0.9637870192527771 0.14078600704669952
vn -0.20630300045013428 0.95700502395629883 0.20391100645065308
vn -0.24382899701595306 0.94981497526168823 0.19595900177955627
vn -0.18996700644493103 0.963113009929657 0.19059400260448456
vn -0.18375599384307861 0.96239298582077026 0.20008499920368195
vn -0.19608600437641144 0.96152698993682861 0.19239699840545654
vn -0.19600200653076172 0.96156001091003418 0.19231800734996796
vn -0.17606599628925324 0.96492701768875122 0.19472399353981018
vn -0.192221999168396 0.95847797393798828 0.2106429934501648
vn -0.21332299709320068 0.95263499021530151 0.21674799919128418
vn -0.23937700688838959 0.94710797071456909 0.21374200284481049
vn -0.21963299810886383 0.95189797878265381 0.21366399526596069
vn -0.22741800546646118 0.9533420205116272 0.19854499399662018
vn -0.21584400534629822 0.95401698350906372 0.20799499750137329
vn -0.20158100128173828 0.95956200361251831 0.19648300111293793
vn -0.2115900069475174 0.954541027545929 0.20995500683784485
vn -0.21058499813079834 0.955187976360321 0.20801299810409546
vn -0.21204400062561035 0.9537850022315979 0.212910994887352
vn -0.212786003947258 0.9540029764175415 0.2111860066652298
vn -0.20213599503040314 0.95720899105072021 0.20710200071334839
vn -0.21514199674129486 0.95350402593612671 0.2110539972782135
vn -0.20880299806594849 0.95646399259567261 0.20390799641609192
vn -0.2091590017080307 0.95147097110748291 0.22573399543762207
vn -0.20504200458526611 0.95567798614501953 0.21127499639987946
vn -0.21094299852848053 0.95393800735473633 0.2133219987154007
vn -0.20434099435806274 0.95744198560714722 0.20383800566196442
vn -0.19358600676059723 0.95969599485397339 0.20373600721359253
vn -0.15370899438858032 0.96730202436447144 0.20174400508403778
vn -0.15877999365329742 0.9671739935874939 0.19840100407600403
vn -0.12535400688648224 0.97225302457809448 0.19751200079917908
vn -0.12489800155162811 0.97222900390625 0.19791600108146668
vn -0.13011300563812256 0.97160297632217407 0.19763100147247315
vn -0.12467300146818161 0.97179198265075684 0.20019300282001495
vn -0.12345699965953827 0.97145402431488037 0.20257300138473511
vn -0.12344499677419663 0.97238600254058838 0.19805899262428284
vn -0.16513900458812714 0.96542102098464966 0.20172199606895447
vn -0.11186400055885315 0.97380697727203369 0.197953999042511
vn -0.086970999836921692 0.97421997785568237 0.20816099643707275
vn -0.15750700235366821 0.96804499626159668 0.19514399766921997
vn -0.1389400064945221 0.97790002822875977 0.15623000264167786
vn -0.16004499793052673 0.95306801795959473 0.25699499249458313
vn -0.20220699906349182 0.9502909779548645 0.23676900565624237
vn -0.16791300475597382 0.97384101152420044 0.153097003698349
vn -0.15865500271320343 0.9533039927482605 0.25698301196098328
vn -0.15865400433540344 0.95330297946929932 0.256987988948822
vn -0.20355400443077087 0.95035898685455322 0.23533700406551361
f 1/1/1 2/2/2 3/3/3
f 4/4/4 3/3/3 5/5/5
f 4/4/4 6/6/6 3/3/3
f 6/6/6 1/1/1 3/3/3
f 5/5/5 3/3/3 7/7/7
f 8/8/8 3/3/3 9/9/9
f 7/7/7 8/8/8 10/10/10
f 7/7/7 3/3/3 8/8/8
f 8/8/8 9/9/9 11/11/11
f 12/12/12 3/3/3 2/2/2
f 12/12/12 9/9/9 3/3/3
f 13/13/13 11/11/11 14/14/14
f 13/13/13 15/15/15 11/11/11
f 11/11/11 16/16/16 8/8/8
f 11/11/11 15/15/15 16/16/16
f 13/13/13 14/14/14 17/17/17
f 14/14/14 11/11/11 18/18/18
f 10/10/10 8/8/8 16/16/16
f 11/11/11 9/9/9 19/19/19
f 9/9/9 20/20/20 21/21/21
f 9/9/9 12/12/12 20/20/20
f 22/22/22 23/23/23 21/21/21
f 24/24/24 25/25/25 26/26/26
f 26/26/26 21/21/21 23/23/23
f 26/26/26 25/25/25 21/21/21
f 21/21/21 25/25/25 19/19/19
f 18/18/18 19/19/19 27/27/27
f 19/19/19 18/18/18 11/11/11
f 27/27/27 28/28/28 29/29/29
f 27/27/27 30/30/30 28/28/28
f 27/27/27 19/19/19 25/25/25
f 9/9/9 21/21/21 19/19/19
f 30/30/30 25/25/25 31/31/31
f 30/30/30 27/27/27 25/25/25
f 32/32/32 33/33/33 34/34/34
f 31/31/31 25/25/25 35/35/35
f 29/29/29 18/18/18 27/27/27
f 36/36/36 25/25/25 24/24/24
f 36/36/36 35/35/35 25/25/25
f 20/20/20 22/22/22 21/21/21
f 37/37/37 14/14/14 18/18/18
f 18/18/18 38/38/38 37/37/37
f 39/39/39 37/37/37 40/40/40
f 39/39/39 41/41/41 37/37/37
f 42/42/42 38/38/38 43/43/43
f 42/42/42 37/37/37 38/38/38
f 40/40/40 37/37/37 42/42/42
f 29/29/29 38/38/38 18/18/18
f 17/17/17 37/37/37 41/41/41
f 17/17/17 14/14/14 37/37/37
f 43/43/43 38/38/38 44/44/44
f 34/34/34 29/29/29 28/28/28
f 34/34/34 33/33/33 29/29/29
f 29/29/29 33/33/33 45/45/45
f 46/46/46 45/45/45 47/47/47
f 29/29/29 45/45/45 38/38/38
f 45/45/45 33/33/33 48/48/48
f 46/46/46 38/38/38 45/45/45
f 46/46/46 44/44/44 38/38/38
f 47/47/47 48/48/48 49/49/49
f 47/47/47 45/45/45 48/48/48
f 50/50/50 48/48/48 51/51/51
f 50/50/50 52/52/52 48/48/48
f 50/50/50 53/53/53 52/52/52
f 53/53/53 50/50/50 54/54/54
f 33/33/33 51/51/51 48/48/48
f 33/33/33 55/55/55 51/51/51
f 49/49/49 48/48/48 52/52/52
f 55/55/55 33/33/33 32/32/32
