mtllib m0333131.mtl
usemtl material0
v -32 -0.68844699859619141 160
v -31.548166275024414 -0.70876699686050415 161.69754028320313
v -31.63763427734375 -0.6799049973487854 160
v -32 -0.7120019793510437 161.29104614257813
v -16.530930995941162 0.72393101453781128 160
v -15.585658013820648 0.79650497436523438 160.84988403320313
v -15.630636990070343 0.77417701482772827 160
v -24.982812881469727 0.023293999955058098 160
v -23.566421985626221 0.14421799778938294 161.27337646484375
v -23.63363790512085 0.14537200331687927 160
v -8.0817031860351562 1.118556022644043 160
v -7.6063556671142578 1.1504379510879517 160.42741394042969
v -7.6290407180786133 1.1264649629592896 160
v -32 -0.71637099981307983 161.72142028808594
v -32 -0.710250973701477 162.19973754882813
v -32 -0.35485100746154785 170.64605712890625
v -31.125038146972656 -0.30342400074005127 169.67365980148315
v -32 -0.35059100389480591 169.72001600265503
v -32 -0.54482197761535645 177.72036695480347
v -30.704889297485352 -0.505511999130249 177.65185499191284
v -23.144755840301514 0.251226007938385 169.25051879882813
v -30.283403396606445 -0.4351620078086853 185.62911987304688
v -22.723155975341797 0.34503200650215149 177.22770702838898
v -32 -0.54416102170944214 179.09124803543091
v -32 -0.49881801009178162 185.71995544433594
v -32 -0.43532401323318481 192
v -32 -0.45678400993347168 187.53701782226563
v -29.9468936920166 -0.39849099516868591 192
v -22.3021559715271 0.31626200675964355 185.20530700683594
v -28.41644287109375 -0.25433799624443054 192
v -15.158371984958649 2.0485119819641113 168.82315111160278
v -14.742334008216858 1.0090370178222656 176.80418401956558
v -7.1820087432861328 1.8033339977264404 168.4027099609375
v -21.945580005645752 -0.10075899958610535 192
v -14.322404026985169 0.76249802112579346 184.78251552581787
v -20.8175048828125 -0.041508998721838 192
v -6.7639780044555664 1.1701020002365112 176.38236999511719
v 0 1.6735719442367554 168.02386522293091
v 0 1.6077779531478882 168.86528015136719
v -6.3424596786499023 1.2472879886627197 184.359619140625
v 0 1.4142450094223023 176.02441399917007
v 0 1.4242080450057983 177.31050097942352
v 0 1.4496510028839111 160.02481079101563
v 0 1.4810409545898438 160.41941833496094
v -5.9414272308349609 0.79332101345062256 192
v -6.300140380859375 0.77271497249603271 192
v -13.944252967834473 0.1989859938621521 192
v 0 1.5833109617233276 184.02363586425781
v -5.6188287734985352 0.80935198068618774 192
v 0 1.4758479595184326 185.75619506835938
v -7.2218027114868164 1.1523920297622681 160
v 0 1.4488480091094971 160
v 0 1.449004054069519 160.00483703613281
v 0 1.2328230142593384 191.93804931640625
v 0 1.2303869724273682 192
vt 0.0014290000544860959 0.046562016010284424
vt 0.016590999439358711 0.096495985984802246
vt 0.01218899991363287 0.046185016632080078
vt 0.002756000030785799 0.0848960280418396
vt 0.46259799599647522 0.029713988304138184
vt 0.4916360080242157 0.053640007972717285
vt 0.48920899629592896 0.028466999530792236
vt 0.21083900332450867 0.038891971111297607
vt 0.25441700220108032 0.075152993202209473
vt 0.25105300545692444 0.037424981594085693
vt 0.7134850025177002 0.019010007381439209
vt 0.72789698839187622 0.028531014919281006
vt 0.72533297538757324 0.016058027744293213
vt 0.0031999999191612005 0.097674012184143066
vt 0.0037000000011175871 0.11187499761581421
vt 0.014103000052273274 0.36281400918960571
vt 0.039076000452041626 0.33300000429153442
vt 0.013109000399708748 0.33532297611236572
vt 0.021657999604940414 0.57291299104690552
vt 0.060047000646591187 0.56946998834609985
vt 0.27605998516082764 0.31147897243499756
vt 0.0817440003156662 0.80578100681304932
vt 0.29783400893211365 0.547787994146347
vt 0.023150000721216202 0.61360800266265869
vt 0.030858999118208885 0.81044100224971771
vt 0.038047000765800476 0.99684599996544421
vt 0.032983001321554184 0.86438900232315063
vt 0.0989999994635582 0.99450899986550212
vt 0.31922399997711182 0.78413000702857971
vt 0.14463099837303162 0.992769000120461
vt 0.51879602670669556 0.29218399524688721
vt 0.53537100553512573 0.52971699833869934
vt 0.75462102890014648 0.26506000757217407
vt 0.33518499135971069 0.98599399998784065
vt 0.55615198612213135 0.76446400582790375
vt 0.36872598528862 0.98499200027436018
vt 0.7717210054397583 0.507656991481781
vt 0.96695899963378906 0.24120199680328369
vt 0.96189498901367188 0.2747730016708374
vt 0.79304701089859009 0.74358001351356506
vt 0.97202402353286743 0.48727202415466309
vt 0.97277402877807617 0.52662798762321472
vt 0.95299100875854492 0.0038909912109375
vt 0.95368897914886475 0.01562798023223877
vt 0.81211298704147339 0.97045099921524525
vt 0.80144697427749634 0.97082299925386906
vt 0.57293802499771118 0.97915099933743477
vt 0.9811519980430603 0.72592198848724365
vt 0.82170200347900391 0.97011999972164631
vt 0.9824029803276062 0.778218999505043
vt 0.73732501268386841 0.014290988445281982
vt 0.95294898748397827 0.0031539797782897949
vt 0.95295697450637817 0.0032979846000671387
vt 0.98889100551605225 0.96187999844551086
vt 0.98895597457885742 0.96372099965810776
vn -0.023563999682664871 0.99955600500106812 0.018237000331282616
vn -0.067628003656864166 0.99766498804092407 -0.0095830000936985016
vn -0.063029997050762177 0.99780499935150146 0.020286999642848969
vn -0.021624000743031502 0.99963700771331787 0.016078999266028404
vn -0.0752670019865036 0.99716198444366455 -0.0014349999837577343
vn -0.080659002065658569 0.9946020245552063 -0.065282002091407776
vn -0.050810001790523529 0.99843102693557739 -0.023541999980807304
vn -0.1015859991312027 0.99465399980545044 0.018540000542998314
vn -0.0874829962849617 0.99615699052810669 -0.0042570000514388084
vn -0.085799999535083771 0.99629801511764526 0.0054319999180734158
vn -0.039011001586914062 0.99875402450561523 -0.031114000827074051
vn -0.0350629985332489 0.9969409704208374 -0.069851003587245941
vn -0.039648000150918961 0.99776101112365723 -0.053858000785112381
vn -0.016916999593377113 0.99985498189926147 -0.0017069999594241381
vn -0.04724700003862381 0.99809998273849487 -0.039560001343488693
vn -0.034671001136302948 0.99916398525238037 0.021645000204443932
vn -0.063716001808643341 0.99793899059295654 -0.0075980001129209995
vn -0.054910998791456223 0.99827700853347778 -0.020698999986052513
vn -0.029664000496268272 0.99947899580001831 0.012714000418782234
vn -0.064007997512817383 0.99791800975799561 0.00786300003528595
vn -0.13300800323486328 0.99094498157501221 -0.018369000405073166
vn -0.064795002341270447 0.9978870153427124 -0.0047320001758635044
vn -0.10942800343036652 0.99383801221847534 0.01767599955201149
vn -0.035771999508142471 0.99934601783752441 -0.0053530000150203705
vn -0.0378590002655983 0.99916702508926392 -0.015243999660015106
vn -0.017937000840902328 0.99982798099517822 -0.0048070000484585762
vn -0.022683000192046165 0.99970102310180664 -0.0090800002217292786
vn -0.057176001369953156 0.99835997819900513 -0.0027270000427961349
vn -0.068201996386051178 0.99718797206878662 0.031057000160217285
vn -0.075154997408390045 0.99704200029373169 0.016100000590085983
vn -0.087148003280162811 0.996071994304657 -0.015676999464631081
vn -0.037976998835802078 0.99664801359176636 0.072462998330593109
vn 0.011495999991893768 0.99986600875854492 0.011638999916613102
vn -0.038472000509500504 0.99725699424743652 0.063225001096725464
vn -0.050870001316070557 0.99757301807403564 0.047534000128507614
vn -0.047685001045465469 0.996537983417511 0.0680989995598793
vn -0.024625999853014946 0.99910598993301392 0.034375999122858047
vn 0.019357999786734581 0.99950897693634033 0.024636000394821167
vn 0.0088959997519850731 0.99777299165725708 0.066099002957344055
vn -0.053296998143196106 0.9982529878616333 0.02549000084400177
vn -0.0355289988219738 0.99931597709655762 0.010222000069916248
vn -0.040605999529361725 0.99910998344421387 -0.011459000408649445
vn -0.042155999690294266 0.99759399890899658 -0.0550369992852211
vn -0.029374999925494194 0.997340977191925 -0.066690996289253235
vn -0.053266998380422592 0.99665302038192749 0.062013998627662659
vn -0.0613039992749691 0.99588602781295776 0.066729001700878143
vn -0.05534299835562706 0.9952089786529541 0.080600999295711517
vn -0.051966000348329544 0.9984930157661438 0.017635999247431755
vn -0.056228999048471451 0.99685698747634888 0.055808998644351959
vn -0.055399999022483826 0.99686098098754883 0.056556001305580139
vn -0.046998001635074615 0.998183012008667 -0.037721998989582062
vn -0.040993999689817429 0.99863702058792114 -0.032290000468492508
vn -0.040993999689817429 0.99863702058792114 -0.032308999449014664
vn -0.07466600090265274 0.99643898010253906 0.03917200118303299
vn -0.07466600090265274 0.99643898010253906 0.0391709990799427
f 1/1/1 2/2/2 3/3/3
f 1/1/1 4/4/4 2/2/2
f 5/5/5 6/6/6 7/7/7
f 8/8/8 9/9/9 10/10/10
f 11/11/11 12/12/12 13/13/13
f 14/14/14 15/15/15 2/2/2
f 16/16/16 17/17/17 18/18/18
f 19/19/19 17/17/17 16/16/16
f 19/19/19 20/20/20 17/17/17
f 15/15/15 17/17/17 2/2/2
f 15/15/15 18/18/18 17/17/17
f 17/17/17 20/20/20 21/21/21
f 17/17/17 9/9/9 2/2/2
f 20/20/20 22/22/22 23/23/23
f 24/24/24 20/20/20 19/19/19
f 8/8/8 2/2/2 9/9/9
f 8/8/8 3/3/3 2/2/2
f 20/20/20 25/25/25 22/22/22
f 20/20/20 24/24/24 25/25/25
f 26/26/26 22/22/22 27/27/27
f 26/26/26 28/28/28 22/22/22
f 28/28/28 29/29/29 22/22/22
f 28/28/28 30/30/30 29/29/29
f 25/25/25 27/27/27 22/22/22
f 4/4/4 14/14/14 2/2/2
f 17/17/17 21/21/21 9/9/9
f 23/23/23 21/21/21 20/20/20
f 21/21/21 23/23/23 31/31/31
f 31/31/31 6/6/6 21/21/21
f 6/6/6 31/31/31 12/12/12
f 31/31/31 32/32/32 33/33/33
f 32/32/32 31/31/31 23/23/23
f 9/9/9 21/21/21 6/6/6
f 32/32/32 23/23/23 29/29/29
f 34/34/34 29/29/29 30/30/30
f 34/34/34 35/35/35 29/29/29
f 34/34/34 36/36/36 35/35/35
f 32/32/32 29/29/29 35/35/35
f 29/29/29 23/23/23 22/22/22
f 37/37/37 33/33/33 32/32/32
f 31/31/31 33/33/33 12/12/12
f 35/35/35 37/37/37 32/32/32
f 37/37/37 38/38/38 33/33/33
f 37/37/37 39/39/39 38/38/38
f 40/40/40 41/41/41 37/37/37
f 40/40/40 42/42/42 41/41/41
f 40/40/40 37/37/37 35/35/35
f 43/43/43 33/33/33 44/44/44
f 43/43/43 12/12/12 33/33/33
f 45/45/45 35/35/35 46/46/46
f 45/45/45 40/40/40 35/35/35
f 46/46/46 35/35/35 47/47/47
f 48/48/48 49/49/49 50/50/50
f 48/48/48 40/40/40 49/49/49
f 40/40/40 45/45/45 49/49/49
f 47/47/47 35/35/35 36/36/36
f 11/11/11 6/6/6 12/12/12
f 11/11/11 7/7/7 6/6/6
f 5/5/5 9/9/9 6/6/6
f 5/5/5 10/10/10 9/9/9
f 13/13/13 12/12/12 51/51/51
f 52/52/52 51/51/51 53/53/53
f 53/53/53 12/12/12 43/43/43
f 53/53/53 51/51/51 12/12/12
f 39/39/39 37/37/37 41/41/41
f 50/50/50 49/49/49 54/54/54
f 54/54/54 49/49/49 55/55/55
f 42/42/42 40/40/40 48/48/48
f 44/44/44 33/33/33 38/38/38
