mtllib m033333022.mtl
usemtl material0
v -61.123733997344971 3.0588099956512451 32
v -62.3754460811615 3.030440092086792 32
v -62.306056976318359 3.0339629650115967 33.314074993133545
v -60.375247985124588 3.0788528919219971 32
v -60.311405003070831 3.0868279933929443 33.208575963974
v -64 2.9878671169281006 32
v -64 2.9886150360107422 32.5762939453125
v -64 3.0012528896331787 34.275897979736328
v -58.316948056221008 3.1006290912628174 33.103209972381592
v -59.543292999267578 3.0848829746246338 32
v -58.375262975692749 3.0857870578765869 32
v -57.324409008026123 3.0876250267028809 32
v -58.2114520072937 3.1430840492248535 35.097442984580994
v -56 3.105720043182373 32
v -56.322417974472046 3.128101110458374 32.997795104980469
v -56 3.1221270561218262 32.63942289352417
v -56.375228881835938 3.1019721031188965 32
v -56.216957092285156 3.1642088890075684 34.992050051689148
v -60.205893993377686 3.1331889629364014 35.2027930021286
v -56 3.1317529678344727 32.980758905410767
v -56 3.1364390850067139 33.287811040878296
v -62.200401067733765 3.1096200942993164 35.308193027973175
v -62.094626903533936 3.2096900939941406 37.302227020263672
v -60.100395001471043 3.1766190528869629 37.197021007537842
v -64 3.0930390357971191 36.472725003957748
v -64 3.0416629314422607 35.403438985347748
v -64 3.254349946975708 38.384052038192749
v -61.989120006561279 3.2545840740203857 39.296452045440674
v -60.722553014755249 3.2083449363708496 40
v -59.9950939998962 3.1800100803375244 39.191390991210938
v -61.951984047889709 3.25423002243042 40
v -64 3.2778360843658447 39.402569055557251
v -64 3.2778780460357666 39.791634082794189
v -64 3.2778999805450439 40
v -58.106181979179382 3.1401290893554688 37.091830968856812
v -56 3.127593994140625 36.862236022949219
v -56.1118700504303 3.1241440773010254 36.986567974090576
v -56 3.1661880016326904 34.980587005615234
v -56 3.124535083770752 36.980659008026123
v -56.006916046142578 3.0562469959259033 38.981178045272827
v -59.0966420173645 3.1441099643707275 40
v -59.952422998845577 3.1772270202636719 40
v -58.0010449886322 3.1103169918060303 39.086311101913452
v -57.952842950820923 3.1038169860839844 40
v -56 3.056520938873291 38.973491907119751
v -56 3.0560190677642822 38.980812072753906
v -56 3.0522251129150391 39.112576007843018
v -56 3.0270020961761475 39.979156017303467
v -56.985970020294189 3.0546419620513916 40
v -56 3.0263950824737549 40
v -56 3.0557830333709717 38.984611988067627
v -56 3.0556089878082275 38.987404108047485
vt 0 0.35953301191329956
vt 0 0.20306897163391113
vt 0.16425900161266327 0.21174299716949463
vt 0 0.4530940055847168
vt 0.15107199549674988 0.46107399463653564
vt 0 0
vt 0.0720369964838028 0
vt 0.28448700904846191 0
vt 0.13790099322795868 0.71038201451301575
vt 0 0.55708798766136169
vt 0 0.70309200882911682
vt 0 0.83444899320602417
vt 0.38718000054359436 0.72356799244880676
vt 0 1
vt 0.12472400069236755 0.959697999060154
vt 0.079928003251552582 1
vt 0 0.95309599861502647
vt 0.3740060031414032 0.97288000024855137
vt 0.40034899115562439 0.47426301240921021
vt 0.12259499728679657 1
vt 0.16097599267959595 1
vt 0.41352400183677673 0.22495001554489136
vt 0.66277801990509033 0.23817199468612671
vt 0.64962798357009888 0.48745101690292358
vt 0.55909097194671631 0
vt 0.42542999982833862 0
vt 0.79800701141357422 0
vt 0.912056028842926 0.25135999917984009
vt 1 0.40968102216720581
vt 0.89892399311065674 0.5006130039691925
vt 1 0.25600200891494751
vt 0.92532098293304443 0
vt 0.97395402193069458 0
vt 1 0
vt 0.63647902011871338 0.73672699928283691
vt 0.60777997970581055 1
vt 0.623320996761322 0.98601599968969822
vt 0.37257298827171326 1
vt 0.62258201837539673 1
vt 0.8726469874382019 0.99913499999092892
vt 1 0.61291998624801636
vt 1 0.50594699382781982
vt 0.88578897714614868 0.74986898899078369
vt 1 0.75589500367641449
vt 0.87168598175048828 1
vt 0.87260198593139648 1
vt 0.8890720009803772 1
vt 0.99739497900009155 1
vt 1 0.87675400078296661
vt 1 1
vt 0.87307602167129517 1
vt 0.87342500686645508 1
vn -0.02419699914753437 0.99970299005508423 -0.0028679999522864819
vn -0.024656999856233597 0.99969500303268433 -0.0013780000153928995
vn -0.026955999433994293 0.99944698810577393 -0.019492000341415405
vn -0.017106000334024429 0.99983799457550049 -0.0056940000504255295
vn -0.014828000217676163 0.99974197149276733 -0.017202999442815781
vn -0.026196999475359917 0.99965602159500122 -0.0012969999806955457
vn -0.024201000109314919 0.99968999624252319 -0.0058800000697374344
vn -0.029944999143481255 0.99937599897384644 -0.018751999363303185
vn -0.0098780002444982529 0.99980300664901733 -0.017204999923706055
vn -0.0034670000895857811 0.99993997812271118 -0.0104179996997118
vn -0.0012359999818727374 0.99990999698638916 -0.013387000188231468
vn -0.01142400037497282 0.99969100952148438 -0.022061999887228012
vn -0.0082449996843934059 0.999891996383667 -0.012134999968111515
vn -0.0099860001355409622 0.99962097406387329 -0.025648999959230423
vn -0.014124000445008278 0.99968099594116211 -0.020937999710440636
vn -0.010970000177621841 0.9995880126953125 -0.02653300017118454
vn -0.013656999915838242 0.99958300590515137 -0.025452999398112297
vn -0.0071640000678598881 0.99996697902679443 -0.0039380001835525036
vn -0.0049160001799464226 0.999675989151001 -0.024972999468445778
vn -0.012489000335335732 0.99967801570892334 -0.02206600084900856
vn -0.010240999981760979 0.999796986579895 -0.017357999458909035
vn -0.027991000562906265 0.9986720085144043 -0.043244000524282455
vn -0.0057279998436570168 0.9991379976272583 -0.04112200066447258
vn 0.020634999498724937 0.99967497587203979 -0.01498000044375658
vn -0.034008000046014786 0.99748700857162476 -0.06215900182723999
vn -0.039765000343322754 0.998449981212616 -0.038938999176025391
vn -0.0028570001013576984 0.998924970626831 -0.046268999576568604
vn 0.020824000239372253 0.999692976474762 -0.013408999890089035
vn 0.037930000573396683 0.99927997589111328 -0.000893999997060746
vn 0.032202001661062241 0.99947899580001831 0.0021420000120997429
vn 0.019732000306248665 0.99980497360229492 -0.00053800002206116915
vn 0.010679000057280064 0.99980300664901733 -0.016712000593543053
vn 0.011556999757885933 0.99993300437927246 -0.00010699999984353781
vn 0.011556999757885933 0.99993300437927246 -0.0001049999991664663
vn 0.012772999703884125 0.999891996383667 0.0072650001384317875
vn -0.0079190004616975784 0.99975597858428955 0.020612999796867371
vn 0.00861399993300438 0.99960899353027344 0.026588000357151031
vn -0.0089910002425313 0.99995601177215576 0.0024739999789744616
vn -0.0017140000127255917 0.99943101406097412 0.033672001212835312
vn 0.018532000482082367 0.99954098463058472 0.023964999243617058
vn 0.03590099886059761 0.99934500455856323 0.0044780001044273376
vn 0.039475999772548676 0.99922001361846924 0.0013559999642893672
vn 0.032915998250246048 0.9993550181388855 0.014388999901711941
vn 0.042350001633167267 0.99909102916717529 0.0048730000853538513
vn -0.0015369999455288053 0.999413013458252 0.034235000610351562
vn 0.036366000771522522 0.99714499711990356 0.066169999539852142
vn 0.028642000630497932 0.99916702508926392 0.029079999774694443
vn 0.0286250002682209 0.99916702508926392 0.029082000255584717
vn 0.039358001202344894 0.99907797574996948 0.017153000459074974
vn 0.0286250002682209 0.99916702508926392 0.029098000377416611
vn 0.036109000444412231 0.99742001295089722 0.062049999833106995
vn 0.067045003175735474 0.99736398458480835 0.027730999514460564
f 1/1/1 2/2/2 3/3/3
f 4/4/4 3/3/3 5/5/5
f 4/4/4 1/1/1 3/3/3
f 6/6/6 3/3/3 2/2/2
f 6/6/6 7/7/7 3/3/3
f 7/7/7 8/8/8 3/3/3
f 9/9/9 4/4/4 5/5/5
f 9/9/9 10/10/10 4/4/4
f 11/11/11 10/10/10 9/9/9
f 11/11/11 9/9/9 12/12/12
f 9/9/9 5/5/5 13/13/13
f 14/14/14 15/15/15 16/16/16
f 14/14/14 17/17/17 15/15/15
f 15/15/15 12/12/12 9/9/9
f 15/15/15 17/17/17 12/12/12
f 15/15/15 9/9/9 18/18/18
f 5/5/5 3/3/3 19/19/19
f 20/20/20 16/16/16 15/15/15
f 20/20/20 15/15/15 21/21/21
f 19/19/19 22/22/22 23/23/23
f 3/3/3 22/22/22 19/19/19
f 19/19/19 23/23/23 24/24/24
f 25/25/25 22/22/22 26/26/26
f 25/25/25 23/23/23 22/22/22
f 26/26/26 3/3/3 8/8/8
f 26/26/26 22/22/22 3/3/3
f 25/25/25 27/27/27 23/23/23
f 28/28/28 29/29/29 30/30/30
f 28/28/28 31/31/31 29/29/29
f 27/27/27 28/28/28 23/23/23
f 27/27/27 32/32/32 28/28/28
f 28/28/28 30/30/30 24/24/24
f 33/33/33 28/28/28 32/32/32
f 33/33/33 31/31/31 28/28/28
f 33/33/33 34/34/34 31/31/31
f 28/28/28 24/24/24 23/23/23
f 35/35/35 19/19/19 24/24/24
f 30/30/30 35/35/35 24/24/24
f 13/13/13 35/35/35 18/18/18
f 36/36/36 18/18/18 37/37/37
f 36/36/36 38/38/38 18/18/18
f 21/21/21 18/18/18 38/38/38
f 21/21/21 15/15/15 18/18/18
f 36/36/36 37/37/37 39/39/39
f 37/37/37 18/18/18 35/35/35
f 18/18/18 9/9/9 13/13/13
f 37/37/37 35/35/35 40/40/40
f 41/41/41 30/30/30 42/42/42
f 35/35/35 30/30/30 43/43/43
f 41/41/41 43/43/43 30/30/30
f 41/41/41 44/44/44 43/43/43
f 42/42/42 30/30/30 29/29/29
f 45/45/45 40/40/40 46/46/46
f 43/43/43 40/40/40 35/35/35
f 43/43/43 47/47/47 40/40/40
f 43/43/43 48/48/48 47/47/47
f 48/48/48 49/49/49 50/50/50
f 48/48/48 43/43/43 49/49/49
f 40/40/40 39/39/39 37/37/37
f 40/40/40 45/45/45 39/39/39
f 46/46/46 40/40/40 51/51/51
f 51/51/51 40/40/40 52/52/52
f 19/19/19 35/35/35 13/13/13
f 13/13/13 5/5/5 19/19/19
f 47/47/47 52/52/52 40/40/40
f 49/49/49 43/43/43 44/44/44
