mtllib m033013.mtl
usemtl material0
v -315.8050537109375 -0.72223800420761108 384
v -320 -0.85120999813079834 384.92337036132812
v -315.7681884765625 -0.73196899890899658 384.69955444335938
v -320 -0.8432769775390625 384.40673828125
v -320 -0.8370320200920105 384
v -315.13864135742188 -0.64441901445388794 384
v -302.60049438476562 0.63691902160644531 384
v -314.92013549804688 0.46443098783493042 400.65057373046875
v -320 -0.033126998692750931 396.08404541015625
v -298.96212768554688 1.0619319677352905 399.8060302734375
v -299.79721069335938 0.92877697944641113 384
v -320 0.33497199416160583 400.91921997070312
v -320 1.0653419494628906 406.29794311523438
v -314.07101440429688 1.8824319839477539 416.60086101293564
v -313.22164916992188 3.350161075592041 432.55099487304688
v -298.11248779296875 2.590770959854126 415.75598099827766
v -320 2.0194640159606934 416.9135439991951
v -320 2.9068100452423096 426.45596313476562
v -320 3.4987320899963379 432.90847778320312
v -320 3.3151109218597412 440.08489990234375
v -320 3.2578859329223633 448
v -312.40664672851562 3.236130952835083 448
v -297.26791381835938 3.0638880729675293 431.70941162109375
v -311.92431640625 3.2273130416870117 448
v -296.72781372070312 2.9102630615234375 448
v -296.42633056640625 2.9182889461517334 447.6649169921875
v -302.77920532226562 3.0433681011199951 448
v -284.73858594894409 2.5786869525909424 384
v -282.99935913085938 2.6466450691223145 398.958251953125
v -283.78890991210938 2.6726150512695312 384
v -269.53866577148438 4.1080489158630371 384
v -256 4.4458160400390625 384
v -267.04098510742188 3.3250489234924316 398.11346435546875
v -256 4.3323187828063965 385.84375
v -267.78176879882812 4.1769309043884277 384
v -266.20394897460938 2.2382099628448486 414.07208299636841
v -256 3.6227691173553467 397.52951049804688
v -256 2.6503419876098633 408.05209398269653
v -282.15710401535034 2.6408419609069824 414.91326904296875
v -281.3160400390625 2.3913159370422363 430.86911010742188
v -265.36456298828125 1.6366389989852905 430.02908325195312
v -280.47265577316284 2.6211979389190674 446.8233642578125
v -296.40875244140625 2.8967959880828857 448
v -281.5313720703125 2.570314884185791 448
v -266.33499145507812 2.185250997543335 448
v -264.51968383789062 2.1760859489440918 445.9822998046875
v -280.41067504882812 2.5940010547637939 448
v -256 2.0469009876251221 419.62142896652222
v -256 2.2770059108734131 413.53311204910278
v -256 1.4922590255737305 429.53500366210938
v -256 1.7332040071487427 436.511962890625
v -256 1.6799999475479126 448
v -264.41336059570312 2.1373510360717773 448
v -256 1.691972017288208 447.26702880859375
v -256 1.7202810049057007 445.53378295898438
vt 0.028633000329136848 0.935140997171402
vt 0.044675000011920929 0.99769599991850555
vt 0.039122000336647034 0.93422900140285492
vt 0.036913998425006866 0.99796000006608665
vt 0.030804999172687531 0.99816800002008677
vt 0.028270000591874123 0.92506500333547592
vt 0.021524000912904739 0.73578301072120666
vt 0.27887499332427979 0.91267900168895721
vt 0.21273200213909149 0.99153400026261806
vt 0.25808700919151306 0.67326301336288452
vt 0.021057000383734703 0.693228006362915
vt 0.28555500507354736 0.98885800037533045
vt 0.36706700921058655 0.9857130004093051
vt 0.51887601613998413 0.89096599817276
vt 0.75893902778625488 0.86921699345111847
vt 0.49822899699211121 0.65146198868751526
vt 0.527055025100708 0.97983800061047077
vt 0.67097598314285278 0.97448400035500526
vt 0.76828098297119141 0.97083999961614609
vt 0.87607800960540771 0.96657200157642364
vt 0.994717001914978 0.96242199838161469
vt 0.99049800634384155 0.84838800132274628
vt 0.73745900392532349 0.63005799055099487
vt 0.9902300238609314 0.84114399552345276
vt 0.98181402683258057 0.61287900805473328
vt 0.97670000791549683 0.60953700542449951
vt 0.98516398668289185 0.703779011964798
vt 0.014081999659538269 0.4656829833984375
vt 0.23856000602245331 0.43265300989151
vt 0.014228000305593014 0.45126199722290039
vt 0.0076709999702870846 0.23612898588180542
vt 0.0004290000069886446 0.032990992069244385
vt 0.21752199530601502 0.19320499897003174
vt 0.027270000427961349 0.033324003219604492
vt 0.0054159997962415218 0.21002101898193359
vt 0.45737400650978088 0.17294299602508545
vt 0.20311200618743897 0.027616977691650391
vt 0.3618369996547699 0.022579014301300049
vt 0.47779199481010437 0.41222298145294189
vt 0.717058002948761 0.39171701669692993
vt 0.69678300619125366 0.15225797891616821
vt 0.95621901750564575 0.37028902769088745
vt 0.98173397779464722 0.60910201072692871
vt 0.97444397211074829 0.3855929970741272
vt 0.96665102243423462 0.15725100040435791
vt 0.93541097640991211 0.13102799654006958
vt 0.97386401891708374 0.36875700950622559
vt 0.53560900688171387 0.016878008842468262
vt 0.44435301423072815 0.019937992095947266
vt 0.68473601341247559 0.011833012104034424
vt 0.788703978061676 0.00786900520324707
vt 0.9614030122756958 0.0018320083618164063
vt 0.96566498279571533 0.12838101387023926
vt 0.950232982635498 0.0021939873695373535
vt 0.92419898509979248 0.0031260251998901367
vn -0.070275001227855682 0.99737298488616943 0.017576999962329865
vn -0.029757000505924225 0.99909597635269165 -0.0303530003875494
vn -0.060175001621246338 0.99803799390792847 -0.017302000895142555
vn -0.027350999414920807 0.99950802326202393 0.015345999971032143
vn -0.027350999414920807 0.99950802326202393 0.015344999730587006
vn -0.1054219976067543 0.99398899078369141 0.029526000842452049
vn -0.10352099686861038 0.99462497234344482 -0.0023040000814944506
vn -0.030205000191926956 0.99580299854278564 -0.086397998034954071
vn -0.031275998800992966 0.99678099155426025 -0.0738150030374527
vn -0.08121199905872345 0.99525201320648193 -0.053645998239517212
vn -0.10614199936389923 0.9943469762802124 -0.0027689998969435692
vn -0.030942000448703766 0.99386799335479736 -0.10615599900484085
vn 0.0065270001068711281 0.99496597051620483 -0.099997997283935547
vn -0.01447799988090992 0.99582099914550781 -0.090176999568939209
vn 0.0081650000065565109 0.99944597482681274 -0.03227899968624115
vn -0.030880000442266464 0.99791502952575684 -0.056669998914003372
vn 0.018208000808954239 0.99567598104476929 -0.091092996299266815
vn 0.017828000709414482 0.99557697772979736 -0.092244997620582581
vn 0.020270999521017075 0.99931502342224121 -0.030951999127864838
vn 0.0076219998300075531 0.999904990196228 0.011509000323712826
vn 0.0028649999294430017 0.999970018863678 0.0072300001047551632
vn 0.010831000283360481 0.99991798400878906 0.0068089999258518219
vn 0.021189000457525253 0.99973601102828979 -0.0088790003210306168
vn 0.018766999244689941 0.99980002641677856 0.00685400003567338
vn 0.02734999917447567 0.99844801425933838 0.048523001372814178
vn 0.023279000073671341 0.99918597936630249 0.032949000597000122
vn 0.0201409999281168 0.9997599720954895 0.008661000058054924
vn -0.10121399909257889 0.99485498666763306 0.0043859998695552349
vn -0.057153001427650452 0.99833500385284424 0.00785600021481514
vn -0.099292002618312836 0.99503397941589355 0.0069679999724030495
vn -0.055396001785993576 0.99733000993728638 0.04758799821138382
vn -0.022772999480366707 0.99785202741622925 0.061425000429153442
vn -0.028031999245285988 0.99726998805999756 0.06830800324678421
vn -0.022988999262452126 0.997859001159668 0.061230998486280441
vn -0.031199999153614044 0.99759799242019653 0.061852000653743744
vn 0.0071959998458623886 0.9991229772567749 0.041239000856876373
vn -0.022873999550938606 0.99686402082443237 0.0757569968700409
vn -0.0060049998573958874 0.99721300601959229 0.074369996786117554
vn 0.016783999279141426 0.999858021736145 0.0014519999967887998
vn 0.041999999433755875 0.99911701679229736 0.0011549999471753836
vn 0.026793999597430229 0.99962699413299561 0.0053429999388754368
vn 0.023955000564455986 0.99967497587203979 0.0087339999154210091
vn 0.031644999980926514 0.99755400419235229 0.062325999140739441
vn 0.010418999940156937 0.99856400489807129 0.052556999027729034
vn 0.027924999594688416 0.99939799308776855 0.020584000274538994
vn 0.035211000591516495 0.99937200546264648 -0.0039229998365044594
vn 0.0047900001518428326 0.99972701072692871 0.022856000810861588
vn 0.0028919999022036791 0.99911397695541382 0.041985999792814255
vn -0.00097699998877942562 0.99857401847839355 0.053376998752355576
vn 0.016057999804615974 0.999796986579895 0.012192999944090843
vn 0.022905999794602394 0.999396026134491 -0.026131000369787216
vn 0.054273001849651337 0.99839299917221069 0.016307000070810318
vn 0.04009699821472168 0.99905002117156982 0.017067000269889832
vn 0.054273001849651337 0.99839299917221069 0.016307000070810318
vn 0.053874000906944275 0.99851000308990479 0.0086219999939203262
f 1/1/1 2/2/2 3/3/3
f 1/1/1 4/4/4 2/2/2
f 4/4/4 1/1/1 5/5/5
f 6/6/6 3/3/3 7/7/7
f 1/1/1 3/3/3 6/6/6
f 2/2/2 8/8/8 3/3/3
f 2/2/2 9/9/9 8/8/8
f 7/7/7 10/10/10 11/11/11
f 7/7/7 3/3/3 10/10/10
f 12/12/12 13/13/13 8/8/8
f 10/10/10 8/8/8 14/14/14
f 8/8/8 10/10/10 3/3/3
f 14/14/14 15/15/15 16/16/16
f 17/17/17 8/8/8 13/13/13
f 17/17/17 14/14/14 8/8/8
f 9/9/9 12/12/12 8/8/8
f 14/14/14 18/18/18 15/15/15
f 14/14/14 17/17/17 18/18/18
f 19/19/19 20/20/20 15/15/15
f 21/21/21 15/15/15 20/20/20
f 21/21/21 22/22/22 15/15/15
f 22/22/22 23/23/23 15/15/15
f 22/22/22 24/24/24 23/23/23
f 25/25/25 26/26/26 27/27/27
f 18/18/18 19/19/19 15/15/15
f 16/16/16 10/10/10 14/14/14
f 28/28/28 11/11/11 10/10/10
f 16/16/16 29/29/29 10/10/10
f 30/30/30 29/29/29 31/31/31
f 32/32/32 33/33/33 34/34/34
f 32/32/32 35/35/35 33/33/33
f 33/33/33 31/31/31 29/29/29
f 33/33/33 35/35/35 31/31/31
f 33/33/33 29/29/29 36/36/36
f 28/28/28 29/29/29 30/30/30
f 28/28/28 10/10/10 29/29/29
f 37/37/37 34/34/34 33/33/33
f 37/37/37 33/33/33 38/38/38
f 23/23/23 16/16/16 15/15/15
f 16/16/16 23/23/23 39/39/39
f 36/36/36 39/39/39 40/40/40
f 29/29/29 39/39/39 36/36/36
f 36/36/36 40/40/40 41/41/41
f 40/40/40 39/39/39 23/23/23
f 39/39/39 29/29/29 16/16/16
f 40/40/40 23/23/23 42/42/42
f 43/43/43 26/26/26 25/25/25
f 26/26/26 44/44/44 42/42/42
f 26/26/26 43/43/43 44/44/44
f 42/42/42 45/45/45 46/46/46
f 42/42/42 47/47/47 45/45/45
f 26/26/26 42/42/42 23/23/23
f 42/42/42 46/46/46 41/41/41
f 47/47/47 42/42/42 44/44/44
f 41/41/41 40/40/40 42/42/42
f 48/48/48 36/36/36 41/41/41
f 48/48/48 49/49/49 36/36/36
f 27/27/27 23/23/23 24/24/24
f 27/27/27 26/26/26 23/23/23
f 46/46/46 50/50/50 41/41/41
f 46/46/46 51/51/51 50/50/50
f 38/38/38 36/36/36 49/49/49
f 38/38/38 33/33/33 36/36/36
f 52/52/52 46/46/46 53/53/53
f 52/52/52 54/54/54 46/46/46
f 54/54/54 55/55/55 46/46/46
f 51/51/51 46/46/46 55/55/55
f 53/53/53 46/46/46 45/45/45
f 48/48/48 41/41/41 50/50/50
