mtllib m0333333201.mtl
usemtl material0
v -27.432486057281494 2.9594919681549072 12
v -27.932633996009827 2.9100830554962158 12
v -27.407701015472412 2.9325640201568604 12.472100973129273
v -26.431706994771957 3.1174559593200684 12
v -26.875696003437042 3.0489718914031982 12
v -26.409700006246567 3.0964341163635254 12.418879985809326
v -28 2.8720920085906982 12.503571033477783
v -28 2.8910219669342041 12.199367046356201
v -28 2.9034268856048584 12
v -28 2.8499488830566406 12.889690041542053
v -27.355311989784241 2.8805561065673828 13.469469010829926
v -26.357306987047195 3.045403003692627 13.416243970394135
v -25.411423027515411 3.316943883895874 12.365461945533752
v -26.032648000866175 3.1984570026397705 12
v -25.430651009082794 3.3299179077148438 12
v -25.359019994735718 3.2678658962249756 13.362820982933044
v -25.082449018955231 3.4074831008911133 12
v -24.4130539894104 3.5560081005096436 12.311982035636902
v -24.429489016532898 3.5626540184020996 12
v -24 3.6609539985656738 12
v -24 3.6573030948638916 12.109421968460083
v -24 3.6512830257415771 12.289867043495178
v -24.360618948936462 3.5137660503387451 13.309316992759705
v -24 3.6352930068969727 12.682981014251709
v -28 2.7964138984680176 13.839937999844551
v -27.302940011024475 2.8256180286407471 14.466847002506256
v -28 2.8166279792785645 13.503715991973877
v -26.30493700504303 2.9899768829345703 14.413623988628388
v -28 2.7424221038818359 14.790189027786255
v -27.25054395198822 2.7755630016326904 15.464208960533142
v -28 2.758202075958252 14.503871023654938
v -26.252525001764297 2.9428520202636719 15.410974979400635
v -24.308222055435181 3.4637110233306885 14.306677997112274
v -24 3.6018788814544678 13.28999400138855
v -24 3.5824830532073975 13.633222997188568
v -25.306631028652191 3.2163460254669189 14.360186994075775
v -24.25583803653717 3.4107260704040527 15.304049015045166
v -24 3.540977954864502 14.290156006813049
v -24 3.5208699703216553 14.583532989025116
v -25.254231989383698 3.1667790412902832 15.357547044754028
v -27.222388982772827 2.7497220039367676 16
v -28 2.686784029006958 15.740453004837036
v -27.711387991905212 2.7014238834381104 16
v -28 2.6924679279327393 15.634040951728821
v -28 2.6994130611419678 15.504026055335999
v -26.782693982124329 2.8220899105072021 16
v -28 2.6705200672149658 16
v -26.221560999751091 2.9170379638671875 16
v -24.219287991523743 3.3734130859375 16
v -24.539018988609314 3.2964260578155518 16
v -24 3.4742369651794434 15.290338039398193
v -24 3.4614710807800293 15.475620985031128
v -24 3.4574580192565918 15.533857941627502
v -25.83254599571228 3.0031430721282959 16
v -25.220468997955322 3.1367371082305908 16
v -24 3.4265360832214355 16
vt 0 0.14187902212142944
vt 0 0.016840994358062744
vt 0.11802499741315842 0.14807498455047607
vt 0 0.39207297563552856
vt 0 0.28107601404190063
vt 0.10471999645233154 0.3975750207901001
vt 0.1258929967880249 0
vt 0.049842000007629395 0
vt 0 0
vt 0.2224230021238327 0
vt 0.36736699938774109 0.16117197275161743
vt 0.35406100749969482 0.41067302227020264
vt 0.0913660004734993 0.64714398980140686
vt 0 0.49183797836303711
vt 0 0.64233699440956116
vt 0.340705007314682 0.66024500131607056
vt 0 0.72938799858093262
vt 0.077996000647544861 0.8967370018362999
vt 0 0.89262799918651581
vt 0 1
vt 0.027355000376701355 1
vt 0.072466999292373657 1
vt 0.32732900977134705 0.90984500199556351
vt 0.17074500024318695 1
vt 0.45998498797416687 0
vt 0.61671197414398193 0.17426502704620361
vt 0.37592899799346924 0
vt 0.60340601205825806 0.42376601696014404
vt 0.69754701852798462 0
vt 0.866051971912384 0.18736398220062256
vt 0.62596797943115234 0
vt 0.85274398326873779 0.43686902523040771
vt 0.57666897773742676 0.922945000231266
vt 0.32249900698661804 1
vt 0.40830600261688232 1
vt 0.59004700183868408 0.67334198951721191
vt 0.8260120153427124 0.936039999127388
vt 0.57253897190093994 1
vt 0.64588302373886108 1
vt 0.83938699960708618 0.68644198775291443
vt 1 0.19440299272537231
vt 0.93511301279067993 0
vt 1 0.072152972221374512
vt 0.90851002931594849 0
vt 0.87600702047348022 0
vt 1 0.30432701110839844
vt 1 0
vt 1 0.44460999965667725
vt 1 0.945177998393774
vt 1 0.86524499952793121
vt 0.82258397340774536 1
vt 0.86890500783920288 1
vt 0.8834649920463562 1
vt 1 0.54186299443244934
vt 1 0.69488298892974854
vt 1 1
vn -0.13002599775791168 0.98948997259140015 0.063265003263950348
vn -0.09812299907207489 0.99325299263000488 0.061806000769138336
vn -0.13845999538898468 0.9885450005531311 0.06007000058889389
vn -0.17429299652576447 0.98295497894287109 0.058487001806497574
vn -0.15706099569797516 0.98557400703430176 0.063054002821445465
vn -0.19129300117492676 0.97977101802825928 0.058793000876903534
vn -0.098283000290393829 0.99340200424194336 0.059105999767780304
vn -0.098125003278255463 0.99325299263000488 0.061806999146938324
vn -0.09814000129699707 0.9932519793510437 0.061801999807357788
vn -0.0975399985909462 0.99365502595901489 0.056003998965024948
vn -0.13517199456691742 0.988988995552063 0.060244001448154449
vn -0.18127900362014771 0.98149698972702026 0.061661999672651291
vn -0.22420799732208252 0.97308200597763062 0.053304001688957214
vn -0.21003800630569458 0.97647601366043091 0.048765998333692551
vn -0.21461799740791321 0.97561800479888916 0.04592600092291832
vn -0.22371600568294525 0.97270697355270386 0.061590000987052917
vn -0.22848699986934662 0.97290498018264771 0.03535199910402298
vn -0.22978800535202026 0.97217100858688354 0.04562000185251236
vn -0.22729800641536713 0.97327601909637451 0.032708000391721725
vn -0.22298899292945862 0.97427898645401 0.032506998628377914
vn -0.22298799455165863 0.97427898645401 0.032503001391887665
vn -0.22270099818706513 0.9741700291633606 0.037383001297712326
vn -0.23431999981403351 0.97045201063156128 0.057594001293182373
vn -0.23186300694942474 0.97143399715423584 0.050544001162052155
vn -0.094578996300697327 0.99377501010894775 0.058867000043392181
vn -0.13352000713348389 0.9893530011177063 0.057911001145839691
vn -0.095577001571655273 0.99384599924087524 0.055991001427173614
vn -0.19199100136756897 0.979515016078949 0.060750998556613922
vn -0.094910003244876862 0.99387198686599731 0.056664001196622849
vn -0.12966999411582947 0.98994499444961548 0.056517001241445541
vn -0.093139000236988068 0.99405002593994141 0.056480001658201218
vn -0.18102699518203735 0.98188400268554688 0.05597899854183197
vn -0.23698499798774719 0.96949899196624756 0.062524996697902679
vn -0.23428100347518921 0.97067099809646606 0.053945001214742661
vn -0.2386229932308197 0.96925497055053711 0.060040999203920364
vn -0.22858099639415741 0.97156602144241333 0.061719000339508057
vn -0.23523600399494171 0.96988701820373535 0.06311500072479248
vn -0.23951199650764465 0.96885901689529419 0.06281600147485733
vn -0.23754200339317322 0.96924400329589844 0.064346000552177429
vn -0.2229900062084198 0.97303497791290283 0.058977000415325165
vn -0.1160150021314621 0.991782009601593 0.053929999470710754
vn -0.10029000043869019 0.99340999126434326 0.055484998971223831
vn -0.10116700083017349 0.99326598644256592 0.056471001356840134
vn -0.09815099835395813 0.99375498294830322 0.053084999322891235
vn -0.097818002104759216 0.993465006351471 0.0588110014796257
vn -0.16345900297164917 0.98502600193023682 0.054823998361825943
vn -0.10626299679279327 0.99239200353622437 0.062185999006032944
vn -0.20205199718475342 0.97791397571563721 0.053479000926017761
vn -0.2338079959154129 0.97015500068664551 0.064292997121810913
vn -0.22964699566364288 0.97144597768783569 0.059617999941110611
vn -0.2371709942817688 0.96932101249694824 0.06454099714756012
vn -0.23702399432659149 0.96920597553253174 0.066780000925064087
vn -0.23518200218677521 0.96980100870132446 0.064609996974468231
vn -0.21402500569820404 0.97523701190948486 0.055739998817443848
vn -0.22075800597667694 0.97365397214889526 0.057130999863147736
vn -0.23495300114154816 0.96987497806549072 0.064337998628616333
f 1/1/1 2/2/2 3/3/3
f 4/4/4 5/5/5 6/6/6
f 7/7/7 3/3/3 8/8/8
f 8/8/8 2/2/2 9/9/9
f 8/8/8 3/3/3 2/2/2
f 10/10/10 3/3/3 7/7/7
f 10/10/10 11/11/11 3/3/3
f 5/5/5 3/3/3 6/6/6
f 5/5/5 1/1/1 3/3/3
f 12/12/12 6/6/6 3/3/3
f 13/13/13 14/14/14 6/6/6
f 13/13/13 15/15/15 14/14/14
f 4/4/4 6/6/6 14/14/14
f 6/6/6 16/16/16 13/13/13
f 17/17/17 18/18/18 19/19/19
f 17/17/17 13/13/13 18/18/18
f 20/20/20 19/19/19 21/21/21
f 21/21/21 18/18/18 22/22/22
f 21/21/21 19/19/19 18/18/18
f 13/13/13 23/23/23 18/18/18
f 22/22/22 18/18/18 24/24/24
f 15/15/15 13/13/13 17/17/17
f 11/11/11 25/25/25 26/26/26
f 11/11/11 27/27/27 25/25/25
f 27/27/27 11/11/11 10/10/10
f 11/11/11 12/12/12 3/3/3
f 12/12/12 11/11/11 28/28/28
f 26/26/26 29/29/29 30/30/30
f 26/26/26 31/31/31 29/29/29
f 31/31/31 26/26/26 25/25/25
f 26/26/26 28/28/28 11/11/11
f 28/28/28 26/26/26 32/32/32
f 16/16/16 12/12/12 28/28/28
f 23/23/23 16/16/16 33/33/33
f 16/16/16 23/23/23 13/13/13
f 24/24/24 23/23/23 34/34/34
f 24/24/24 18/18/18 23/23/23
f 34/34/34 23/23/23 35/35/35
f 33/33/33 36/36/36 37/37/37
f 16/16/16 36/36/36 33/33/33
f 35/35/35 33/33/33 38/38/38
f 35/35/35 23/23/23 33/33/33
f 38/38/38 33/33/33 39/39/39
f 36/36/36 16/16/16 28/28/28
f 6/6/6 12/12/12 16/16/16
f 36/36/36 28/28/28 40/40/40
f 41/41/41 42/42/42 43/43/43
f 41/41/41 44/44/44 42/42/42
f 44/44/44 30/30/30 45/45/45
f 44/44/44 41/41/41 30/30/30
f 45/45/45 30/30/30 29/29/29
f 30/30/30 32/32/32 26/26/26
f 46/46/46 30/30/30 41/41/41
f 46/46/46 32/32/32 30/30/30
f 47/47/47 43/43/43 42/42/42
f 48/48/48 32/32/32 46/46/46
f 49/49/49 40/40/40 50/50/50
f 49/49/49 37/37/37 40/40/40
f 40/40/40 37/37/37 36/36/36
f 39/39/39 37/37/37 51/51/51
f 39/39/39 33/33/33 37/37/37
f 52/52/52 37/37/37 53/53/53
f 52/52/52 51/51/51 37/37/37
f 54/54/54 55/55/55 40/40/40
f 55/55/55 50/50/50 40/40/40
f 56/56/56 37/37/37 49/49/49
f 56/56/56 53/53/53 37/37/37
f 48/48/48 40/40/40 32/32/32
f 48/48/48 54/54/54 40/40/40
f 28/28/28 32/32/32 40/40/40
