mtllib m0333333101.mtl
usemtl material0
v -12 3.9179239273071289 28
v -12 3.9023580551147461 28.075489044189453
v -11.932049036026001 3.920428991317749 28
v -12 3.4006590843200684 29.656424999237061
v -12 3.2310400009155273 30.185530006885529
v -11.500041007995606 3.3704431056976318 29.630118995904922
v -12 3.5900020599365234 29.130555987358093
v -11.550899028778076 3.7339739799499512 28.631682991981506
v -12 3.7441771030426025 28.655367016792297
v -10.583844006061554 3.8174540996551514 28
v -11.196323990821838 3.8439888954162598 28
v -10.554436981678009 3.5843689441680908 28.579537987709045
v -11.448835015296936 3.0777120590209961 30.628313004970551
v -10.503098011016846 3.3189809322357178 29.5776369869709
v -12 3.0937430858612061 30.657368004322052
v -9.5576770007610321 3.4953091144561768 28.527184009552002
v -10.451867997646332 3.0311319828033447 30.575812995433807
v -9.5065709948539734 3.1825590133666992 29.525445997714996
v -11.583363056182861 3.9074909687042236 28
v -10.400254994630814 2.8214070796966553 31.573722958564758
v -10.032823000103235 3.6948399543762207 28
v -12 3.0018820762634277 31.082857012748718
v -11.397261023521423 2.8601739406585693 31.626248955726624
v -9.0832459926605225 3.5617570877075195 28
v -9.5847299993038177 3.6481080055236816 28
v -8.5857429504394531 3.4538350105285645 28
v -8.561460018157959 3.2959001064300537 28.475209951400757
v -9.4551830291748047 2.9269371032714844 30.523512005805969
v -8.5099719762802124 3.0607850551605225 29.473205983638763
v -8 3.1713929176330566 28.445955038070679
v -8 3.0684630870819092 28.906399011611938
v -8 2.9617080688476562 29.44658899307251
v -8.4585679769516 2.8085811138153076 30.471260011196136
v -8 2.8370480537414551 29.961630001664162
v -8.4069620370864868 2.59739089012146 31.469172954559326
v -8.1338150501251221 3.3489511013031006 28
v -8 2.7806410789489746 30.447131991386414
v -8 3.284466028213501 28.099645972251892
v -8 3.3169999122619629 28
v -8 2.635951042175293 30.885182976722717
v -9.4038119912147522 2.667896032333374 31.521589040756226
v -12 2.901623010635376 31.657945990562439
v -11.733667969703674 2.782505989074707 32
v -12 2.8414700031280518 31.870422005653381
v -12 2.8047859668731689 32
v -11.377936005592346 2.7803449630737305 32
v -10.783908009529114 2.7506439685821533 32
v -10.378311008214951 2.7113959789276123 32
v -9.83432699739933 2.6204900741577148 32
v -8.8846900463104248 2.5206170082092285 32
v -9.3791000247001648 2.5612690448760986 32
v -8.37969195842743 2.4495019912719727 32
v -8 2.5225179195404053 31.447919964790344
v -8 2.3939061164855957 31.927049994468689
v -8 2.3743240833282471 32
vt 0.998744010925293 0.0092470049858093262
vt 0.98083102703094482 0.00911402702331543
vt 0.998744010925293 0.025049984455108643
vt 0.59515398740768433 0.0069029927253723145
vt 0.46602898836135864 0.0060600042343139648
vt 0.59807199239730835 0.12343001365661621
vt 0.72504699230194092 0.0074110031127929688
vt 0.8450549840927124 0.11254400014877319
vt 0.84114700555801392 0.008072972297668457
vt 0.99107801914215088 0.33963102102279663
vt 0.99281901121139526 0.19716697931289673
vt 0.84593498706817627 0.34702998399734497
vt 0.35623601078987122 0.13346099853515625
vt 0.60463899374008179 0.35565698146820068
vt 0.351828008890152 0.0051349997520446777
vt 0.84805500507354736 0.57993701100349426
vt 0.36312100291252136 0.36562901735305786
vt 0.60484498739242554 0.58972600102424622
vt 0.99734801054000854 0.106128990650177
vt 0.126010000705719 0.37471598386764526
vt 0.98108100891113281 0.47043997049331665
vt 0.25067201256752014 0.00402301549911499
vt 0.11870799958705902 0.1427299976348877
vt 0.96833699941635132 0.693682998418808
vt 0.97569799423217773 0.575652003288269
vt 0.96034097671508789 0.81127400696277618
vt 0.84393399953842163 0.81632499396801
vt 0.36575299501419067 0.59882500767707825
vt 0.6054530143737793 0.82337400317192078
vt 0.84132498502731323 0.95012599974870682
vt 0.73170202970504761 0.947723999619484
vt 0.60377997159957886 0.94425500184297562
vt 0.36707499623298645 0.83237899839878082
vt 0.48199799656867981 0.94293100014328957
vt 0.13420000672340393 0.84180900454521179
vt 0.95222800970077515 0.91878899931907654
vt 0.36846598982810974 0.93928699940443039
vt 0.92598801851272583 0.9504299983382225
vt 0.950348973274231 0.95033099874854088
vt 0.26794800162315369 0.93956699967384338
vt 0.12780299782752991 0.6093289852142334
vt 0.11501699686050415 0.0021780133247375488
vt 0.030649000778794289 0.063811004161834717
vt 0.063698001205921173 0.0018950104713439941
vt 0.032400000840425491 0.0017229914665222168
vt 0.02984200045466423 0.14616197347640991
vt 0.026760999113321304 0.28435397148132324
vt 0.023708999156951904 0.379006028175354
vt 0.017834000289440155 0.5073469877243042
vt 0.010835999622941017 0.72935900092124939
vt 0.013841000385582447 0.613959014415741
vt 0.006120000034570694 0.84778499603271484
vt 0.13454499840736389 0.93810100108385086
vt 0.018810000270605087 0.93767299875617027
vt 0.001256000017747283 0.93760799989104271
vn -0.036079000681638718 0.97875702381134033 0.20182299613952637
vn 0.019329000264406204 0.96826297044754028 0.24918699264526367
vn 0.016385000199079514 0.968953013420105 0.24670100212097168
vn 0.073950000107288361 0.9442330002784729 0.32086798548698425
vn 0.049681998789310455 0.95724499225616455 0.28498199582099915
vn 0.076775997877120972 0.95083701610565186 0.30002400279045105
vn 0.066169001162052155 0.94123601913452148 0.33120301365852356
vn 0.10137499868869782 0.95077300071716309 0.292836993932724
vn 0.036855001002550125 0.957397997379303 0.28641098737716675
vn 0.11692500114440918 0.92344999313354492 0.36546999216079712
vn 0.12897799909114838 0.95043200254440308 0.28291898965835571
vn 0.11601199954748154 0.94896197319030762 0.29327899217605591
vn 0.049178998917341232 0.96871697902679443 0.24324500560760498
vn 0.097923003137111664 0.95869100093841553 0.26706400513648987
vn 0.041053999215364456 0.96885401010513306 0.24420399963855743
vn 0.151855006814003 0.94863802194595337 0.27753400802612305
vn 0.095250003039836884 0.96660798788070679 0.23789800703525543
vn 0.1426829993724823 0.955331027507782 0.2588140070438385
vn 0.093418002128601074 0.96128100156784058 0.25925299525260925
vn 0.1108269989490509 0.96997100114822388 0.21650500595569611
vn 0.12950600683689117 0.94608402252197266 0.29690501093864441
vn 0.049242999404668808 0.97844702005386353 0.20054200291633606
vn 0.050041999667882919 0.97592097520828247 0.21230599284172058
vn 0.19148300588130951 0.9375230073928833 0.2904910147190094
vn 0.12996900081634522 0.9540870189666748 0.26986300945281982
vn 0.20853400230407715 0.9312400221824646 0.2988399863243103
vn 0.20251099765300751 0.94214701652526855 0.26710999011993408
vn 0.11493100225925446 0.96478301286697388 0.236612007021904
vn 0.16639600694179535 0.96053397655487061 0.22290700674057007
vn 0.22196300327777863 0.9403730034828186 0.25774100422859192
vn 0.21606099605560303 0.95411497354507446 0.20732000470161438
vn 0.19701400399208069 0.95758301019668579 0.21028499305248261
vn 0.12886199355125427 0.96780300140380859 0.21622200310230255
vn 0.16694299876689911 0.9646109938621521 0.20409800112247467
vn 0.14643999934196472 0.96283900737762451 0.22693000733852387
vn 0.21977800130844116 0.927836000919342 0.30136099457740784
vn 0.070569999516010284 0.97456997632980347 0.21268199384212494
vn 0.22134500741958618 0.927033007144928 0.30268201231956482
vn 0.22134600579738617 0.927033007144928 0.30268099904060364
vn 0.15877300500869751 0.96132802963256836 0.22503100335597992
vn 0.11043500155210495 0.96782600879669189 0.22609199583530426
vn 0.078538000583648682 0.97168999910354614 0.22282199561595917
vn 0.060077998787164688 0.96516698598861694 0.25464299321174622
vn 0.080233000218868256 0.95908302068710327 0.2715190052986145
vn 0.080233000218868256 0.95908302068710327 0.2715190052986145
vn 0.028176000341773033 0.97785001993179321 0.20740100741386414
vn 0.06109900027513504 0.97431802749633789 0.21672900021076202
vn 0.12852799892425537 0.96182501316070557 0.24160599708557129
vn 0.15077100694179535 0.96121901273727417 0.23092399537563324
vn 0.095201000571250916 0.96948897838592529 0.22589600086212158
vn 0.10205700248479843 0.97206097841262817 0.21137799322605133
vn 0.162882000207901 0.95257997512817383 0.25702199339866638
vn 0.18764899671077728 0.956279993057251 0.22431300580501556
vn 0.18782399594783783 0.94862097501754761 0.25463700294494629
vn 0.18782399594783783 0.94862198829650879 0.25463500618934631
f 1/1/1 2/2/2 3/3/3
f 4/4/4 5/5/5 6/6/6
f 7/7/7 8/8/8 9/9/9
f 10/10/10 11/11/11 12/12/12
f 4/4/4 8/8/8 7/7/7
f 4/4/4 6/6/6 8/8/8
f 8/8/8 6/6/6 12/12/12
f 6/6/6 13/13/13 14/14/14
f 15/15/15 6/6/6 5/5/5
f 15/15/15 13/13/13 6/6/6
f 14/14/14 12/12/12 6/6/6
f 14/14/14 16/16/16 12/12/12
f 17/17/17 18/18/18 14/14/14
f 17/17/17 14/14/14 13/13/13
f 11/11/11 8/8/8 12/12/12
f 11/11/11 19/19/19 8/8/8
f 17/17/17 13/13/13 20/20/20
f 10/10/10 12/12/12 21/21/21
f 9/9/9 3/3/3 2/2/2
f 9/9/9 8/8/8 3/3/3
f 8/8/8 19/19/19 3/3/3
f 13/13/13 22/22/22 23/23/23
f 13/13/13 15/15/15 22/22/22
f 24/24/24 25/25/25 16/16/16
f 26/26/26 16/16/16 27/27/27
f 26/26/26 24/24/24 16/16/16
f 16/16/16 21/21/21 12/12/12
f 16/16/16 25/25/25 21/21/21
f 28/28/28 18/18/18 17/17/17
f 18/18/18 28/28/28 29/29/29
f 29/29/29 27/27/27 18/18/18
f 30/30/30 29/29/29 31/31/31
f 30/30/30 27/27/27 29/29/29
f 32/32/32 33/33/33 34/34/34
f 32/32/32 29/29/29 33/33/33
f 33/33/33 29/29/29 28/28/28
f 16/16/16 18/18/18 27/27/27
f 33/33/33 28/28/28 35/35/35
f 36/36/36 26/26/26 27/27/27
f 18/18/18 16/16/16 14/14/14
f 32/32/32 31/31/31 29/29/29
f 37/37/37 34/34/34 33/33/33
f 30/30/30 36/36/36 27/27/27
f 30/30/30 38/38/38 36/36/36
f 38/38/38 39/39/39 36/36/36
f 37/37/37 33/33/33 40/40/40
f 28/28/28 17/17/17 41/41/41
f 42/42/42 43/43/43 23/23/23
f 42/42/42 44/44/44 43/43/43
f 44/44/44 45/45/45 43/43/43
f 46/46/46 23/23/23 43/43/43
f 23/23/23 47/47/47 20/20/20
f 23/23/23 46/46/46 47/47/47
f 48/48/48 20/20/20 47/47/47
f 20/20/20 49/49/49 41/41/41
f 20/20/20 48/48/48 49/49/49
f 20/20/20 13/13/13 23/23/23
f 42/42/42 23/23/23 22/22/22
f 41/41/41 50/50/50 35/35/35
f 41/41/41 51/51/51 50/50/50
f 52/52/52 35/35/35 50/50/50
f 53/53/53 35/35/35 54/54/54
f 54/54/54 52/52/52 55/55/55
f 54/54/54 35/35/35 52/52/52
f 35/35/35 28/28/28 41/41/41
f 40/40/40 35/35/35 53/53/53
f 40/40/40 33/33/33 35/35/35
f 17/17/17 20/20/20 41/41/41
f 49/49/49 51/51/51 41/41/41
