mtllib m0333333112.mtl
usemtl material0
v -8 4.1604709625244141 24.685809969902039
v -7.7705260515213013 4.1731748580932617 24.430781960487366
v -8 4.201326847076416 24.44281005859375
v -7.7927290201187134 4.2788729667663574 24
v -7.3830629587173462 4.110659122467041 24
v -8 4.2461328506469727 24.254860043525696
v -8 4.3068909645080566 24
v -6.7942429780960083 3.9862160682678223 24
v -6.7743520140647888 3.9649770259857178 24.378837943077087
v -6.4336059987545013 3.9124679565429688 24
v -8 3.9906671047210693 25.443449020385742
v -7.7190309762954712 3.9395270347595215 25.428773999214172
v -6.7228140234947205 3.740117073059082 25.376798987388611
v -8 3.7414679527282715 26.44420799612999
v -8 3.6612839698791504 26.796199977397919
v -7.6676650047302246 3.6795110702514648 26.426854997873306
v -8 3.3655509948730469 27.851300954818726
v -7.6163309812545776 3.41314697265625 27.424958944320679
v -8 3.4957799911499023 27.444957971572876
v -8 3.9174399375915527 25.741017997264862
v -6.6711339950561523 3.544064998626709 26.374659985303879
v -5.7268339991569519 3.49236798286438 25.324989020824432
v -6.619454026222229 3.3480119705200195 27.372521996498108
v -6.5874189734458923 3.1339540481567383 28
v -7.1842960119247437 3.1849870681762695 28
v -6.2347380071878433 3.0415949821472168 28
v -5.6234549880027771 3.1041688919067383 27.32070004940033
v -7.5869660377502441 3.2183809280395508 28
v -5.6747919917106628 3.3700449466705322 26.322598993778229
v -8 3.3169999122619629 28
v -5.7782569974660873 3.7406649589538574 24.326948046684265
v -5.7953850030899048 3.7665150165557861 24
v -4.7821069955825806 3.5275828838348389 24.275020956993103
v -5.4842470288276672 3.6601760387420654 24
v -4.7966890335083008 3.5151269435882568 24
v -4.5348130464553833 3.4487290382385254 24
v -4 3.2400779724121094 24.234632015228271
v -4.730402946472168 3.336414098739624 25.272864997386932
v -4 3.2011659145355225 24.460765957832336
v -4 3.2435140609741211 24.159862995147705
v -4 3.2508609294891357 24
v -4 3.1385910511016846 25.234921991825104
v -4 3.0222299098968506 25.932470001280308
v -4.67917001247406 3.0495429039001465 26.271039992570877
v -5.5885879993438721 2.9089410305023193 28
v -5.2853040099143982 2.8308100700378418 28
v -4.6274490356445312 2.8617908954620361 27.2688729763031
v -4 2.9379150867462158 26.235529005527496
v -4 2.8777220249176025 26.571510016918182
v -4.5897979736328125 2.6759660243988037 28
v -4.3358769416809082 2.6160819530487061 28
v -4 2.7217259407043457 27.236183047294617
v -4 2.6272130012512207 27.626703023910522
v -4 2.537214994430542 28
vt 0.77805900573730469 0.010133981704711914
vt 0.83871001005172729 0.059526979923248291
vt 0.83411198854446411 0.0069810152053833008
vt 0.93922501802444458 0.04787898063659668
vt 0.93703502416610718 0.14875602722167969
vt 0.87804198265075684 0.0041249990463256836
vt 0.937611997127533 0.00025200843811035156
vt 0.93715798854827881 0.285876989364624
vt 0.85076498985290527 0.29138898849487305
vt 0.93725800514221191 0.36974501609802246
vt 0.60152500867843628 0.02156597375869751
vt 0.60644799470901489 0.086534023284912109
vt 0.62304401397705078 0.31772398948669434
vt 0.36710798740386963 0.03777998685836792
vt 0.28503000736236572 0.043147027492523193
vt 0.3728649914264679 0.11478698253631592
vt 0.035971999168395996 0.061895012855529785
vt 0.13888199627399445 0.14283102750778198
vt 0.13285499811172485 0.053806006908416748
vt 0.53186798095703125 0.026347994804382324
vt 0.39247000217437744 0.34339398145675659
vt 0.63817298412323 0.5513719916343689
vt 0.16195300221443176 0.3695870041847229
vt 0.011827000416815281 0.38783299922943115
vt 0.005644999910145998 0.2514839768409729
vt 0.012866999953985214 0.47336298227310181
vt 0.17652900516986847 0.60576501488685608
vt 0.0014009999576956034 0.15952199697494507
vt 0.40993601083755493 0.5734809935092926
vt 0.00046499999007210135 0.064965009689331055
vt 0.87055397033691406 0.5233210027217865
vt 0.94493299722671509 0.51515600085258484
vt 0.88742798566818237 0.75507999956607819
vt 0.947513997554779 0.59002700448036194
vt 0.95012301206588745 0.751230999827385
vt 0.94998699426651 0.81432700157165527
vt 0.896124005317688 0.94495800137519836
vt 0.65706300735473633 0.780693992972374
vt 0.84392797946929932 0.94791100174188614
vt 0.91317600011825562 0.94473300129175186
vt 0.94963502883911133 0.94425100088119507
vt 0.67008000612258911 0.95186600089073181
vt 0.50928497314453125 0.962202001363039
vt 0.42400500178337097 0.81166300177574158
vt 0.015011000446975231 0.62363800406455994
vt 0.018456999212503433 0.69948101043701172
vt 0.19398300349712372 0.83896499872207642
vt 0.43790900707244873 0.9680740013718605
vt 0.36031201481819153 0.973241999745369
vt 0.023406999185681343 0.86175000667572021
vt 0.025048000738024712 0.92116899788379669
vt 0.20521700382232666 0.98519999999552965
vt 0.11436499655246735 0.99271599994972348
vt 0.027158999815583229 0.99974800000200048
vn 0.17234699428081513 0.963873028755188 0.20309199392795563
vn 0.1986750066280365 0.96170502901077271 0.18881699442863464
vn 0.12953999638557434 0.97186297178268433 0.196725994348526
vn 0.24449899792671204 0.94455802440643311 0.21915699541568756
vn 0.25272899866104126 0.96357399225234985 0.087477996945381165
vn 0.13036799430847168 0.96443897485733032 0.2299170047044754
vn 0.13036899268627167 0.96443802118301392 0.22991900146007538
vn 0.20349200069904327 0.97808098793029785 0.044151000678539276
vn 0.21391299366950989 0.96856999397277832 0.12693899869918823
vn 0.21655599772930145 0.9744420051574707 0.05971900001168251
vn 0.18584400415420532 0.956492006778717 0.2249089926481247
vn 0.19469399750232697 0.954600989818573 0.22545799612998962
vn 0.21517999470233917 0.95541298389434814 0.20219799876213074
vn 0.18993900716304779 0.95491397380828857 0.22817100584506989
vn 0.21003399789333344 0.9488300085067749 0.2358119934797287
vn 0.17746800184249878 0.95649898052215576 0.2315479964017868
vn 0.22001799941062927 0.92771297693252563 0.30156400799751282
vn 0.15613900125026703 0.95007199048995972 0.27015399932861328
vn 0.21616099774837494 0.93839097023010254 0.26962301135063171
vn 0.18903300166130066 0.952817976474762 0.23749600350856781
vn 0.16066199541091919 0.97009897232055664 0.18192300200462341
vn 0.22069300711154938 0.95722800493240356 0.18710599839687347
vn 0.15148499608039856 0.95498001575469971 0.25508001446723938
vn 0.1668190062046051 0.9357529878616333 0.31070700287818909
vn 0.079066000878810883 0.94520801305770874 0.31674900650978088
vn 0.22830399870872498 0.92907500267028809 0.2910270094871521
vn 0.2448430061340332 0.93829101324081421 0.24425600469112396
vn 0.14572100341320038 0.93927502632141113 0.31068998575210571
vn 0.25200599431991577 0.95399802923202515 0.16241900622844696
vn 0.22134500741958618 0.927033007144928 0.30268099904060364
vn 0.23656000196933746 0.96328800916671753 0.12694500386714935
vn 0.27073699235916138 0.96066898107528687 0.061774000525474548
vn 0.26024198532104492 0.96262502670288086 0.075015999376773834
vn 0.23729099333286285 0.97109901905059814 -0.025683000683784485
vn 0.22527000308036804 0.97268599271774292 -0.05599600076675415
vn 0.32101699709892273 0.94691801071166992 0.017152000218629837
vn 0.34785300493240356 0.93211400508880615 0.10080099850893021
vn 0.2139350026845932 0.957397997379303 0.19396099448204041
vn 0.32797399163246155 0.934349000453949 0.13937300443649292
vn 0.34666699171066284 0.93699902296066284 0.043060000985860825
vn 0.34666699171066284 0.93699902296066284 0.043058998882770538
vn 0.26529800891876221 0.95694202184677124 0.11780799925327301
vn 0.19519199430942535 0.95166099071502686 0.23715400695800781
vn 0.21338799595832825 0.95494097471237183 0.20628499984741211
vn 0.21931399405002594 0.94062799215316772 0.25907599925994873
vn 0.23293599486351013 0.93996298313140869 0.24942199885845184
vn 0.22179099917411804 0.95215398073196411 0.21026700735092163
vn 0.16939400136470795 0.96076500415802 0.21962800621986389
vn 0.18181900680065155 0.96564799547195435 0.18565100431442261
vn 0.21784299612045288 0.94852900505065918 0.22986200451850891
vn 0.22318300604820252 0.94748097658157349 0.22906400263309479
vn 0.22343100607395172 0.94815802574157715 0.22599899768829346
vn 0.22321400046348572 0.94746601581573486 0.22909200191497803
vn 0.22254399955272675 0.94776701927185059 0.22849899530410767
f 1/1/1 2/2/2 3/3/3
f 4/4/4 2/2/2 5/5/5
f 3/3/3 2/2/2 6/6/6
f 6/6/6 4/4/4 7/7/7
f 6/6/6 2/2/2 4/4/4
f 8/8/8 9/9/9 10/10/10
f 9/9/9 5/5/5 2/2/2
f 9/9/9 8/8/8 5/5/5
f 2/2/2 11/11/11 12/12/12
f 2/2/2 1/1/1 11/11/11
f 2/2/2 13/13/13 9/9/9
f 14/14/14 15/15/15 16/16/16
f 17/17/17 18/18/18 19/19/19
f 14/14/14 12/12/12 20/20/20
f 14/14/14 16/16/16 12/12/12
f 12/12/12 16/16/16 13/13/13
f 21/21/21 16/16/16 18/18/18
f 16/16/16 21/21/21 13/13/13
f 13/13/13 21/21/21 22/22/22
f 21/21/21 18/18/18 23/23/23
f 2/2/2 12/12/12 13/13/13
f 19/19/19 16/16/16 15/15/15
f 19/19/19 18/18/18 16/16/16
f 24/24/24 23/23/23 25/25/25
f 23/23/23 26/26/26 27/27/27
f 23/23/23 24/24/24 26/26/26
f 18/18/18 25/25/25 23/23/23
f 18/18/18 28/28/28 25/25/25
f 29/29/29 21/21/21 23/23/23
f 30/30/30 18/18/18 17/17/17
f 30/30/30 28/28/28 18/18/18
f 20/20/20 12/12/12 11/11/11
f 31/31/31 9/9/9 13/13/13
f 10/10/10 31/31/31 32/32/32
f 10/10/10 9/9/9 31/31/31
f 31/31/31 22/22/22 33/33/33
f 34/34/34 32/32/32 31/31/31
f 21/21/21 29/29/29 22/22/22
f 13/13/13 22/22/22 31/31/31
f 33/33/33 34/34/34 31/31/31
f 33/33/33 35/35/35 34/34/34
f 35/35/35 33/33/33 36/36/36
f 37/37/37 38/38/38 39/39/39
f 37/37/37 33/33/33 38/38/38
f 38/38/38 33/33/33 22/22/22
f 37/37/37 36/36/36 33/33/33
f 37/37/37 40/40/40 36/36/36
f 40/40/40 41/41/41 36/36/36
f 42/42/42 39/39/39 38/38/38
f 42/42/42 38/38/38 43/43/43
f 38/38/38 22/22/22 44/44/44
f 26/26/26 45/45/45 27/27/27
f 29/29/29 27/27/27 44/44/44
f 46/46/46 27/27/27 45/45/45
f 46/46/46 47/47/47 27/27/27
f 27/27/27 47/47/47 44/44/44
f 48/48/48 47/47/47 49/49/49
f 48/48/48 44/44/44 47/47/47
f 50/50/50 47/47/47 46/46/46
f 22/22/22 29/29/29 44/44/44
f 51/51/51 47/47/47 50/50/50
f 51/51/51 52/52/52 47/47/47
f 51/51/51 53/53/53 52/52/52
f 53/53/53 51/51/51 54/54/54
f 49/49/49 47/47/47 52/52/52
f 43/43/43 44/44/44 48/48/48
f 43/43/43 38/38/38 44/44/44
f 23/23/23 27/27/27 29/29/29
