mtllib m033333233.mtl
usemtl material0
v -38.088748931884766 4.5865039825439453 0
v -38.055907964706421 4.5870552062988281 0.029541969299316406
v -38.057465076446533 4.5871419906616211 0
v -37.489506006240845 4.4713230133056641 0
v -40 4.4196281433105469 2.0810840129852295
v -39.945835113525391 4.4194550514221191 2.1298160552978516
v -40 4.4800739288330078 1.0979840755462647
v -38.088748931884766 4.5865039825439453 0
v -40 4.5379238128662109 0.13235998153686523
v -40 4.537930965423584 0.13155388832092285
v -40 4.5391020774841309 0
v -37.951500058174133 4.4078531265258789 2.0245380401611328
v -40 4.5335450172424316 0.18053507804870606
v -35.981068000197411 4.1541109085083008 0
v -33.967051982879639 3.522845983505249 1.816943883895874
v -34.062546014785767 3.6064670085906982 0
v -32.063889026641846 3.351646900177002 0
v -33.664485931396484 3.5697009563446045 0
v -32.025959014892578 3.3889319896698 0.71489691734313965
v -32 3.3855140209198 0.73827910423278809
v -32 3.3863708972930908 0.71353411674499512
v -32 3.3823730945587158 0.64367103576660156
v -32 3.34553599357605 0
v -36.059661999344826 4.16404914855957 0
v -35.960315998643637 3.7531960010528564 1.9214699268341065
v -40 4.4147491455078125 2.1900080442428589
v -40 4.41816520690918 2.1326800584793091
v -37.848086953163147 4.0260171890258789 4.0202300008386374
v -39.841259002685547 4.2754068374633789 4.1246910020709038
v -40 4.2738051414489746 4.1330779939889908
v -35.854824006557465 3.795180082321167 3.9157050028443336
v -37.743324041366577 3.919564962387085 6.0149750709533691
v -40 4.1533098220825195 5.882483959197998
v -39.736640930175781 4.1386818885803223 6.1195399761199951
v -32 3.4107189178466797 1.7134261131286621
v -32 3.3189830780029297 2.675104022026062
v -32 3.3989040851593018 1.2056660652160645
v -32 3.3177969455718994 2.754362940788269
v -33.86196494102478 3.4828000068664551 3.8114610016345978
v -33.757689952850342 3.2762529850006104 5.8065500259399414
v -32 3.2448029518127441 3.713892012834549
v -32 3.1853229999542236 4.6243559718132019
v -35.750606998801231 3.5774021148681641 5.9108320474624634
v -32 3.1673760414123535 4.8086199760437012
v -40 4.1420202255249023 6.1334359645843506
v -39.637890100479126 4.0369482040405273 8
v -40 4.0589208602905273 7.6928689479827881
v -39.758846044540405 4.0388212203979492 8
v -40 4.0541229248046875 7.7829170227050781
v -40 4.0440611839294434 8
v -35.646380990743637 3.3610880374908447 7.9059550762176514
v -32 3.1174929141998291 5.7142349481582642
v -32 3.0772991180419922 6.57346510887146
v -33.653175115585327 3.1190199851989746 7.8014678955078125
v -32 3.0557129383087158 6.8628520965576172
v -37.639430999755859 3.7427120208740234 8
v -39.529072046279907 4.0247111320495605 8
v -37.448017001152039 3.705348014831543 8
v -35.641463994979858 3.3520419597625732 8
v -32 3.0181789398193359 8
v -33.197902917861938 3.0879209041595459 8
v -32 3.0189940929412842 7.964771032333374
v -32 3.0247840881347656 7.7144680023193359
v -33.642745971679688 3.1089589595794678 8
v -35.541999995708466 3.3440148830413818 8
vt 0.21518799662590027 0.026525020599365234
vt 0.21899999678134918 0.02972102165222168
vt 0.21871000528335571 0.02640300989151001
vt 0.283939003944397 0.02411198616027832
vt 0.0077659999951720238 0.26861602067947388
vt 0.014049000106751919 0.27389097213745117
vt 0.0041310000233352184 0.15776699781417847
vt 0.21518799662590027 0.026525020599365234
vt 0.00055400002747774124 0.04889601469039917
vt 0.00055300001986324787 0.048820972442626953
vt 4.0999999328050762E-05 0.034016013145446777
vt 0.23811799287796021 0.25476300716400146
vt 0.00073199998587369919 0.054340004920959473
vt 0.45743200182914734 0.018037974834442139
vt 0.70170998573303223 0.21468400955200195
vt 0.68196702003479 0.010545015335083008
vt 0.90869301557540894 0.0014110207557678223
vt 0.72694498300552368 0.0087469816207885742
vt 0.91560697555541992 0.08183598518371582
vt 0.91866499185562134 0.084342002868652344
vt 0.91853499412536621 0.081556975841522217
vt 0.91828000545501709 0.073696017265319824
vt 0.915913999080658 0.0011370182037353516
vt 0.44852301478385925 0.018494009971618652
vt 0.47669199109077454 0.23823201656341553
vt 0.0082809999585151672 0.28097200393676758
vt 0.0079629998654127121 0.27442401647567749
vt 0.26732000708580017 0.48198699951171875
vt 0.036550000309944153 0.49828600883483887
vt 0.018741000443696976 0.50009199976921082
vt 0.49966400861740112 0.46197497844696045
vt 0.27985501289367676 0.70690000057220459
vt 0.028160000219941139 0.69732201099395752
vt 0.05432099848985672 0.7230449914932251
vt 0.922577977180481 0.19074702262878418
vt 0.929220974445343 0.29932302236557007
vt 0.92068701982498169 0.13695299625396729
vt 0.92970901727676392 0.30823498964309692
vt 0.725875973701477 0.43832701444625854
vt 0.75295501947402954 0.66285800933837891
vt 0.93638902902603149 0.41638702154159546
vt 0.94286197423934937 0.51817500591278076
vt 0.51491701602935791 0.68777799606323242
vt 0.94427299499511719 0.53897398710250854
vt 0.026937000453472137 0.72558200359344482
vt 0.070742003619670868 0.93475499749183655
vt 0.029590999707579613 0.90140700340271
vt 0.057555999606847763 0.93541400134563446
vt 0.0298289991915226 0.91155900061130524
vt 0.03040199913084507 0.93602199852466583
vt 0.52951699495315552 0.91357699781656265
vt 0.95073801279067993 0.64089798927307129
vt 0.95241200923919678 0.74878999590873718
vt 0.76707398891448975 0.88823399692773819
vt 0.95274597406387329 0.78146499395370483
vt 0.30140501260757446 0.9305730015039444
vt 0.083070002496242523 0.934517003595829
vt 0.3233569860458374 0.92995999753475189
vt 0.53055202960968018 0.92418000102043152
vt 0.9206470251083374 0.99886299995705485
vt 0.802245020866394 0.93377099931240082
vt 0.95366299152374268 0.90561100095510483
vt 0.95347100496292114 0.877420000731945
vt 0.75715100765228271 0.9118340015411377
vt 0.54197502136230469 0.92351700365543365
vn -0.0204050000756979 0.999783992767334 0.0040119998157024384
vn 0.10548999905586243 0.9928780198097229 0.055369999259710312
vn 0.086561001837253571 0.99624502658843994 -0.0016339999856427312
vn 0.20606100559234619 0.95968002080917358 0.19119000434875488
vn -0.044036000967025757 0.99765002727508545 0.052498999983072281
vn 0.0074060000479221344 0.9972270131111145 0.074043996632099152
vn 0.0078739998862147331 0.99827200174331665 0.058233998715877533
vn -0.024793000891804695 0.99965298175811768 0.0088929999619722366
vn -0.022530000656843185 0.99843800067901611 0.051134001463651657
vn -0.024793999269604683 0.99965298175811768 0.00888300035148859
vn -0.024793000891804695 0.99965298175811768 0.0088959997519850731
vn 0.16158199310302734 0.9790080189704895 0.12423799932003021
vn -0.012590999715030193 0.99655997753143311 0.0819149985909462
vn 0.15808799862861633 0.97385901212692261 0.163114994764328
vn 0.12596599757671356 0.99113601446151733 0.042213000357151031
vn 0.18740299344062805 0.9816480278968811 0.035328999161720276
vn 0.11551900207996368 0.99161899089813232 -0.057845998555421829
vn 0.097551003098487854 0.99483698606491089 0.027970999479293823
vn 0.10305000096559525 0.99443399906158447 -0.021958999335765839
vn 0.14072200655937195 0.989982008934021 -0.011526999995112419
vn 0.097510002553462982 0.99515199661254883 -0.012780999764800072
vn 0.09506099671125412 0.99384498596191406 -0.056876000016927719
vn 0.09506099671125412 0.99384498596191406 -0.056876998394727707
vn 0.1668660044670105 0.96591401100158691 0.19790500402450562
vn 0.17859099805355072 0.97936999797821045 0.094549000263214111
vn -0.0095920003950595856 0.99754601716995239 0.06935100257396698
vn -0.021424999460577965 0.99878197908401489 0.044440999627113342
vn 0.14177399873733521 0.98673897981643677 0.079029999673366547
vn 0.058609999716281891 0.99615198373794556 0.065164998173713684
vn -0.0063470001332461834 0.99749398231506348 0.0704680010676384
vn 0.13115499913692474 0.99051898717880249 0.040869001299142838
vn 0.15062899887561798 0.98663300275802612 0.062178000807762146
vn -0.00072000001091510057 0.99805200099945068 0.062385000288486481
vn 0.061009999364614487 0.996616005897522 0.055077001452445984
vn 0.058658000081777573 0.99770098924636841 0.033950001001358032
vn 0.083835996687412262 0.99549299478530884 0.044321000576019287
vn 0.05737999826669693 0.99808001518249512 -0.023314999416470528
vn 0.10808400064706802 0.9935150146484375 0.035298999398946762
vn 0.13544699549674988 0.98918497562408447 0.056276001036167145
vn 0.12552399933338165 0.98893600702285767 0.079047001898288727
vn 0.13008899986743927 0.989022970199585 0.070068001747131348
vn 0.12104099988937378 0.98902899026870728 0.084684997797012329
vn 0.15301899611949921 0.98423498868942261 0.0886939987540245
vn 0.108085997402668 0.99072998762130737 0.082285001873970032
vn 0.015251999720931053 0.9986720085144043 0.049208998680114746
vn 0.065318003296852112 0.99658697843551636 0.050487000495195389
vn 0.0154600003734231 0.99846398830413818 0.053206000477075577
vn 0.016914000734686852 0.99852502346038818 0.051594998687505722
vn 0.017123999074101448 0.99853301048278809 0.051364000886678696
vn 0.02170100063085556 0.998691976070404 0.04629100114107132
vn 0.15016700327396393 0.98500198125839233 0.084971003234386444
vn 0.092485003173351288 0.99441897869110107 0.050769999623298645
vn 0.08463200181722641 0.99435502290725708 0.063989996910095215
vn 0.096532002091407776 0.99362999200820923 0.058143999427556992
vn 0.072979003190994263 0.9954419732093811 0.06139799952507019
vn 0.17003700137138367 0.98229700326919556 0.078616999089717865
vn 0.12114600092172623 0.991025984287262 0.056490000337362289
vn 0.19101600348949432 0.978538990020752 0.077288001775741577
vn 0.13359999656677246 0.98712402582168579 0.087967000901699066
vn 0.05810600146651268 0.9980430006980896 0.023086000233888626
vn 0.05668099969625473 0.99804401397705078 0.026357999071478844
vn 0.05810600146651268 0.9980430006980896 0.023087000474333763
vn 0.058451998978853226 0.99784302711486816 0.029873000457882881
vn 0.0836469978094101 0.99543100595474243 0.046048998832702637
vn 0.11285000294446945 0.992097020149231 0.054852001368999481
f 1/1/1 2/2/2 3/3/3
f 4/4/4 3/3/3 2/2/2
f 5/5/5 6/6/6 7/7/7
f 8/8/8 9/9/9 2/2/2
f 8/8/8 10/10/10 9/9/9
f 10/10/10 8/8/8 11/11/11
f 9/9/9 12/12/12 2/2/2
f 9/9/9 13/13/13 12/12/12
f 14/14/14 15/15/15 16/16/16
f 17/17/17 18/18/18 19/19/19
f 20/20/20 21/21/21 19/19/19
f 22/22/22 19/19/19 21/21/21
f 22/22/22 17/17/17 19/19/19
f 22/22/22 23/23/23 17/17/17
f 24/24/24 2/2/2 25/25/25
f 24/24/24 4/4/4 2/2/2
f 18/18/18 15/15/15 19/19/19
f 18/18/18 16/16/16 15/15/15
f 26/26/26 6/6/6 27/27/27
f 5/5/5 27/27/27 6/6/6
f 13/13/13 6/6/6 12/12/12
f 13/13/13 7/7/7 6/6/6
f 12/12/12 6/6/6 28/28/28
f 28/28/28 6/6/6 29/29/29
f 26/26/26 29/29/29 6/6/6
f 26/26/26 30/30/30 29/29/29
f 25/25/25 28/28/28 31/31/31
f 32/32/32 28/28/28 29/29/29
f 25/25/25 12/12/12 28/28/28
f 33/33/33 29/29/29 30/30/30
f 33/33/33 34/34/34 29/29/29
f 25/25/25 2/2/2 12/12/12
f 35/35/35 15/15/15 36/36/36
f 37/37/37 15/15/15 35/35/35
f 37/37/37 19/19/19 15/15/15
f 20/20/20 19/19/19 37/37/37
f 38/38/38 15/15/15 39/39/39
f 38/38/38 36/36/36 15/15/15
f 40/40/40 39/39/39 31/31/31
f 15/15/15 31/31/31 39/39/39
f 38/38/38 39/39/39 41/41/41
f 41/41/41 39/39/39 42/42/42
f 31/31/31 15/15/15 25/25/25
f 15/15/15 24/24/24 25/25/25
f 15/15/15 14/14/14 24/24/24
f 43/43/43 31/31/31 28/28/28
f 40/40/40 42/42/42 39/39/39
f 40/40/40 44/44/44 42/42/42
f 45/45/45 46/46/46 34/34/34
f 45/45/45 47/47/47 46/46/46
f 47/47/47 48/48/48 46/46/46
f 47/47/47 49/49/49 48/48/48
f 50/50/50 48/48/48 49/49/49
f 45/45/45 34/34/34 33/33/33
f 32/32/32 51/51/51 43/43/43
f 28/28/28 32/32/32 43/43/43
f 52/52/52 40/40/40 53/53/53
f 44/44/44 40/40/40 52/52/52
f 40/40/40 31/31/31 43/43/43
f 43/43/43 54/54/54 40/40/40
f 54/54/54 53/53/53 40/40/40
f 54/54/54 55/55/55 53/53/53
f 56/56/56 32/32/32 57/57/57
f 43/43/43 51/51/51 54/54/54
f 56/56/56 51/51/51 32/32/32
f 56/56/56 58/58/58 51/51/51
f 59/59/59 51/51/51 58/58/58
f 60/60/60 54/54/54 61/61/61
f 60/60/60 62/62/62 54/54/54
f 62/62/62 63/63/63 54/54/54
f 55/55/55 54/54/54 63/63/63
f 64/64/64 51/51/51 65/65/65
f 64/64/64 54/54/54 51/51/51
f 46/46/46 32/32/32 34/34/34
f 46/46/46 57/57/57 32/32/32
f 32/32/32 29/29/29 34/34/34
f 59/59/59 65/65/65 51/51/51
f 61/61/61 54/54/54 64/64/64
