mtllib m033031.mtl
usemtl material0
v -319.16665649414062 2.6876809597015381 320
v -320 2.4740149974823 320.91522216796875
v -319.12139892578125 2.5733358860015869 320.8685302734375
v -320 2.5872259140014648 320.08987426757812
v -320 2.5995559692382812 320
v -303.16598510742188 2.9069890975952148 320
v -303.1646728515625 2.9013099670410156 320.02487182617188
v -318.339599609375 2.7785420417785645 320
v -303.14230346679688 2.9041810035705566 320
v -302.32766723632812 1.8075230121612549 335.98355102539062
v -320 1.1382499933242798 335.2862548828125
v -318.28582763671875 1.1802380084991455 336.82818603515625
v -302.69168090820312 2.870244026184082 320
v -271.1783447265625 0.59560900926589966 320
v -286.31021094322205 1.7952909469604492 320
v -270.42245483398438 0.76845097541809082 334.30194091796875
v -287.17184400558472 1.8130120038986206 320
v -286.3761899471283 1.0553630590438843 335.14352416992188
v -320 0.36972600221633911 352.92068499326706
v -317.44625854492188 0.61273401975631714 352.78506499528885
v -320 0.94373798370361328 338.73297119140625
v -320 1.0239859819412231 336.919189453125
v -301.48687744140625 1.5017340183258057 351.9395750015974
v -300.64520263671875 1.3711589574813843 367.89501953125
v -320 -0.58997702598571777 365.69393920898438
v -316.60940551757812 -0.51001197099685669 368.74380493164062
v -320 -0.66065198183059692 372.5120849609375
v -320 -0.69070500135421753 368.92340087890625
v -320 -0.8370320200920105 384
v -315.8050537109375 -0.72223800420761108 384
v -302.60049438476562 0.63691902160644531 384
v -299.80508422851562 0.927524983882904 383.85150146484375
v -315.13864135742188 -0.64441901445388794 384
v -284.67944288253784 3.5803730487823486 367.04510498046875
v -285.52648901939392 2.5928030014038086 351.09338402748108
v -299.79721069335938 0.92877697944641113 384
v -284.73858594894409 2.5786869525909424 384
v -283.84152221679688 2.6743450164794922 383.00314331054688
v -269.57122802734375 2.6218039989471436 350.25076305866241
v -256 1.9408140182495117 333.53671264648438
v -256 2.1225259304046631 335.16567993164062
v -268.720458984375 4.3754730224609375 366.19992065429688
v -269.53866577148438 4.1080489158630371 384
v -267.87860107421875 4.2882800102233887 382.15524291992188
v -283.78890991210938 2.6726150512695312 384
v -256 4.5125880241394043 365.52780246734619
v -256 4.4919791221618652 368.952880859375
v -256 4.598045825958252 381.52700805664062
v -256 4.4597330093383789 383.77392578125
v -267.78176879882812 4.1769309043884277 384
v -256 4.4458160400390625 384
v -256 3.5962998867034912 352.05987500026822
v -256 3.3261070251464844 349.53195190429688
v -257.55496215820312 0.75737398862838745 320
v -256 1.4150300025939941 326.76239013671875
v -256 0.8901749849319458 320
vt 0.02516699954867363 0.98595600016415119
vt 0.039611998945474625 0.99838600005023181
vt 0.038440998643636703 0.985003000125289
vt 0.026975000277161598 0.99863499996718019
vt 0.025598999112844467 0.99866200005635619
vt 0.02094700001180172 0.743153989315033
vt 0.02132900059223175 0.74312898516654968
vt 0.024731000885367393 0.97333999909460545
vt 0.02094700001180172 0.74279299378395081
vt 0.26154500246047974 0.72449600696563721
vt 0.25851899385452271 0.99305699998512864
vt 0.28110998868942261 0.96634199842810631
vt 0.020966999232769012 0.73593699932098389
vt 0.007474999874830246 0.25785201787948608
vt 0.013546000234782696 0.48806697130203247
vt 0.2241159975528717 0.24091100692749023
vt 0.013902000151574612 0.501136988401413
vt 0.24350699782371521 0.48255401849746704
vt 0.52621400356292725 0.98532800003886223
vt 0.52293199300765991 0.94719399884343147
vt 0.31087800860404968 0.99160499963909388
vt 0.28334501385688782 0.992397999856621
vt 0.5032309889793396 0.70515000820159912
vt 0.744858980178833 0.68564799427986145
vt 0.72048497200012207 0.98026200011372566
vt 0.765300989151001 0.92900899797677994
vt 0.82392400503158569 0.97798500023782253
vt 0.7695009708404541 0.9796379990875721
vt 0.99820798635482788 0.97372400015592575
vt 0.99633198976516724 0.91008300334215164
vt 0.99015599489212036 0.70878401398658752
vt 0.98676300048828125 0.66844901442527771
vt 0.99601602554321289 0.899908997118473
vt 0.72642499208450317 0.44146901369094849
vt 0.48559901118278503 0.46274197101593018
vt 0.98882502317428589 0.66604501008987427
vt 0.98412001132965088 0.43850201368331909
vt 0.96870797872543335 0.42514002323150635
vt 0.46663400530815125 0.2210800051689148
vt 0.20769999921321869 0.021688997745513916
vt 0.23255699872970581 0.020982980728149414
vt 0.70778000354766846 0.19942301511764526
vt 0.978888988494873 0.2067679762840271
vt 0.95033401250839233 0.18207597732543945
vt 0.98381197452545166 0.42402702569961548
vt 0.69097501039505 0.0068839788436889648
vt 0.74535799026489258 0.0071660280227661133
vt 0.93606698513031006 0.0021100044250488281
vt 0.97141599655151367 0.001399993896484375
vt 0.97834098339080811 0.1800990104675293
vt 0.97485202550888062 0.0013380050659179688
vt 0.48629799485206604 0.01407700777053833
vt 0.45120400190353394 0.01519399881362915
vt 0.0022869999520480633 0.051213979721069336
vt 0.10465499758720398 0.024617016315460205
vt 0.0017920000245794654 0.027536988258361816
vn -0.10615299642086029 0.98511201143264771 0.13522699475288391
vn -0.10569600015878677 0.98799002170562744 0.11271499842405319
vn -0.073762997984886169 0.98981600999832153 0.12175100296735764
vn -0.10419899970293045 0.98532897233963013 0.13516600430011749
vn -0.10419800132513046 0.98532700538635254 0.13517899811267853
vn 0.05094200000166893 0.97422701120376587 0.21974200010299683
vn 0.032334998250007629 0.99001002311706543 0.13723999261856079
vn -0.034914001822471619 0.97918897867202759 0.19992299377918243
vn 0.085133001208305359 0.97818297147750854 0.18950100243091583
vn 0.0067369998432695866 0.99883198738098145 0.047843001782894135
vn -0.10163100063800812 0.99109798669815063 0.085995003581047058
vn -0.0648759976029396 0.99594402313232422 0.062337998300790787
vn 0.068002998828887939 0.996504008769989 0.048528000712394714
vn 0.035126000642776489 0.9992859959602356 -0.013933000154793263
vn 0.0341930016875267 0.99884599447250366 0.033730998635292053
vn -0.020579999312758446 0.99791598320007324 -0.061149001121520996
vn 0.045049000531435013 0.99785202741622925 0.047557000070810318
vn 0.0200399998575449 0.99977201223373413 -0.0074319997802376747
vn -0.0915130004286766 0.99410897493362427 0.058077998459339142
vn -0.078290998935699463 0.99582099914550781 0.047019001096487045
vn -0.091563999652862549 0.99494898319244385 0.041131999343633652
vn -0.087667003273963928 0.99455702304840088 0.056317999958992004
vn -0.047432001680135727 0.99887299537658691 0.0017419999931007624
vn -0.10797400027513504 0.99393397569656372 0.020904000848531723
vn -0.080135002732276916 0.99479097127914429 0.0630050003528595
vn -0.085123002529144287 0.99564599990844727 0.037989001721143723
vn -0.033495999872684479 0.99939101934432983 0.0098130004480481148
vn -0.052648000419139862 0.99855601787567139 0.010715999640524387
vn -0.027350999414920807 0.99950802326202393 0.015345999971032143
vn -0.073181003332138062 0.99716097116470337 0.017728999257087708
vn -0.10164400190114975 0.9942929744720459 0.032391000539064407
vn -0.10862600058317184 0.99390298128128052 0.018922999501228333
vn -0.11215700209140778 0.99341499805450439 0.023395000025629997
vn -0.084242001175880432 0.99641597270965576 -0.0076469997875392437
vn -0.044927999377250671 0.99652200937271118 -0.070178002119064331
vn -0.10632500052452087 0.99432802200317383 -0.0027399999089539051
vn -0.10612600296735764 0.99435299634933472 -8.3999999333173037E-05
vn -0.095692999660968781 0.99505698680877686 0.026538999751210213
vn -0.041613001376390457 0.99406498670578 -0.10051299631595612
vn -0.085583999752998352 0.99195200204849243 -0.093312002718448639
vn -0.079274997115135193 0.99139899015426636 -0.10413199663162231
vn -0.04374999925494194 0.99831497669219971 -0.038125000894069672
vn -0.083998002111911774 0.99622899293899536 0.021741999313235283
vn -0.052772998809814453 0.99825698137283325 0.026427999138832092
vn -0.099352002143859863 0.995028018951416 0.0069710002280771732
vn -0.012473000213503838 0.99940401315689087 -0.0321820005774498
vn -0.014205999672412872 0.99989598989486694 0.0026459998916834593
vn -0.02472200058400631 0.99937397241592407 0.025321999564766884
vn -0.022772999480366707 0.99785202741622925 0.061427000910043716
vn -0.030675999820232391 0.99761497974395752 0.061826001852750778
vn -0.022772999480366707 0.99785202741622925 0.06142900139093399
vn -0.04717700183391571 0.9941440224647522 -0.097222000360488892
vn -0.056581001728773117 0.99392598867416382 -0.09438999742269516
vn -0.065413996577262878 0.99607497453689575 -0.059624999761581421
vn -0.08484099805355072 0.99340701103210449 -0.077102996408939362
vn -0.084841996431350708 0.99340701103210449 -0.077101998031139374
f 1/1/1 2/2/2 3/3/3
f 1/1/1 4/4/4 2/2/2
f 4/4/4 1/1/1 5/5/5
f 6/6/6 3/3/3 7/7/7
f 6/6/6 8/8/8 3/3/3
f 1/1/1 3/3/3 8/8/8
f 6/6/6 7/7/7 9/9/9
f 7/7/7 3/3/3 10/10/10
f 3/3/3 11/11/11 12/12/12
f 3/3/3 2/2/2 11/11/11
f 13/13/13 9/9/9 7/7/7
f 14/14/14 15/15/15 16/16/16
f 17/17/17 7/7/7 18/18/18
f 17/17/17 13/13/13 7/7/7
f 12/12/12 19/19/19 20/20/20
f 12/12/12 21/21/21 19/19/19
f 21/21/21 12/12/12 22/22/22
f 10/10/10 20/20/20 23/23/23
f 20/20/20 10/10/10 12/12/12
f 10/10/10 23/23/23 18/18/18
f 23/23/23 20/20/20 24/24/24
f 10/10/10 3/3/3 12/12/12
f 20/20/20 25/25/25 26/26/26
f 20/20/20 19/19/19 25/25/25
f 27/27/27 26/26/26 28/28/28
f 28/28/28 26/26/26 25/25/25
f 29/29/29 26/26/26 27/27/27
f 29/29/29 30/30/30 26/26/26
f 24/24/24 31/31/31 32/32/32
f 24/24/24 33/33/33 31/31/31
f 30/30/30 24/24/24 26/26/26
f 30/30/30 33/33/33 24/24/24
f 24/24/24 32/32/32 34/34/34
f 20/20/20 26/26/26 24/24/24
f 35/35/35 23/23/23 24/24/24
f 22/22/22 12/12/12 11/11/11
f 31/31/31 36/36/36 32/32/32
f 37/37/37 32/32/32 36/36/36
f 37/37/37 38/38/38 32/32/32
f 24/24/24 34/34/34 35/35/35
f 18/18/18 35/35/35 16/16/16
f 39/39/39 35/35/35 34/34/34
f 35/35/35 39/39/39 16/16/16
f 40/40/40 39/39/39 41/41/41
f 40/40/40 16/16/16 39/39/39
f 39/39/39 34/34/34 42/42/42
f 16/16/16 17/17/17 18/18/18
f 16/16/16 15/15/15 17/17/17
f 32/32/32 38/38/38 34/34/34
f 38/38/38 43/43/43 44/44/44
f 38/38/38 45/45/45 43/43/43
f 44/44/44 42/42/42 38/38/38
f 46/46/46 44/44/44 47/47/47
f 46/46/46 42/42/42 44/44/44
f 48/48/48 44/44/44 49/49/49
f 49/49/49 50/50/50 51/51/51
f 49/49/49 44/44/44 50/50/50
f 50/50/50 44/44/44 43/43/43
f 34/34/34 38/38/38 42/42/42
f 52/52/52 39/39/39 42/42/42
f 52/52/52 53/53/53 39/39/39
f 37/37/37 45/45/45 38/38/38
f 40/40/40 54/54/54 16/16/16
f 40/40/40 55/55/55 54/54/54
f 55/55/55 56/56/56 54/54/54
f 53/53/53 41/41/41 39/39/39
f 48/48/48 47/47/47 44/44/44
f 46/46/46 52/52/52 42/42/42
f 7/7/7 10/10/10 18/18/18
f 23/23/23 35/35/35 18/18/18
f 14/14/14 16/16/16 54/54/54
