mtllib m033022.mtl
usemtl material0
v -498.50921630859375 9.0913066864013672 256
v -497.96649169921875 8.93651294708252 266.29501342773438
v -488.70339965820312 9.2975950241088867 256
v -512 7.36405611038208 256
v -512 7.2727799415588379 260.18978881835938
v -512 8.9167165756225586 274.26312255859375
v -512 7.4676170349121094 261.85775756835938
v -482.50787401199341 9.4372854232788086 256
v -482.00955200195312 9.3087711334228516 265.45123291015625
v -448 7.3759231567382812 256
v -450.11135864257812 6.7796812057495117 263.77462768554688
v -448 6.8616790771484375 261.42807006835938
v -450.51800537109375 7.5432581901550293 256
v -475.62585401535034 8.9603443145751953 256
v -466.05966186523438 8.21174144744873 264.61236572265625
v -466.51248168945312 8.5794515609741211 256
v -458.74356079101562 7.8663949966430664 256
v -497.12704467773438 8.3361825942993164 282.2520751953125
v -512 7.3725481033325195 291.36535596847534
v -496.29605102539062 5.9711589813232422 298.21502685546875
v -512 8.5955829620361328 283.03665208816528
v -481.17419397830963 7.8583579063415527 281.4111328125
v -480.34823599457741 4.438176155090332 297.37762546539307
v -512 6.8569269180297852 307.13101196289062
v -512 5.5573129653930664 320
v -495.1578369140625 3.5705349445343018 320
v -512 5.7426481246948242 317.82882690429688
v -495.46264553070068 4.1036100387573242 314.17630004882812
v -512 5.980381965637207 315.04376220703125
v -485.50711107254028 3.006364107131958 320
v -479.51162698864937 3.245419979095459 313.33663940429688
v -464.39120483398438 4.834773063659668 296.53375244140625
v -479.16284197568893 2.64119291305542 320
v -465.22491455078125 6.6329121589660645 280.57269287109375
v -449.27655029296875 5.2130579948425293 279.73492431640625
v -448 6.6204109191894531 263.66363525390625
v -448 5.2437582015991211 278.31613159179688
v -448.44046020507812 3.9173519611358643 295.69430494308472
v -463.55496215820312 3.5702409744262695 312.49301147460938
v -463.16168212890625 2.9597740173339844 320
v -470.3104248046875 2.7785758972167969 320
v -448 3.3989050388336182 311.672119140625
v -455.11325073242188 2.8369219303131104 320
v -448 3.3648691177368164 312.09481811523438
v -448 3.6431200504302979 304.06362915039062
v -448 3.8782439231872559 295.67114305496216
v -448 3.2558948993682861 320
v -448 5.0840740203857422 279.66790771484375
v -448 3.9081521034240723 295.2047119140625
vt 0.99772602319717407 0.21157699823379517
vt 0.83882600069046021 0.21990001201629639
vt 0.99772602319717407 0.36294001340866089
vt 0.99730497598648071 0.0016790032386779785
vt 0.93263000249862671 0.0016300082206726074
vt 0.7139819860458374 0.0044019818305969238
vt 0.906715989112854 0.0019590258598327637
vt 0.99772799015045166 0.45857799053192139
vt 0.85185497999191284 0.4662250280380249
vt 0.99479198455810547 0.993369999807328
vt 0.8746110200881958 0.96022399887442589
vt 0.91078400611877441 0.9928770000115037
vt 0.99519497156143188 0.95442700013518333
vt 0.99760997295379639 0.5650399923324585
vt 0.86452800035476685 0.71296998858451843
vt 0.99755102396011353 0.70580598711967468
vt 0.99726599454879761 0.82620500028133392
vt 0.59238201379776 0.23265302181243897
vt 0.45070698857307434 0.0032770037651062012
vt 0.34336200356483459 0.24586397409439087
vt 0.58061897754669189 0.0030710101127624512
vt 0.60453099012374878 0.47899997234344482
vt 0.352618008852005 0.49327999353408813
vt 0.20727300643920898 0.0022839903831481934
vt 0.007646000012755394 0.002776026725769043
vt 0.00544800003990531 0.26448798179626465
vt 0.041274998337030411 0.0027229785919189453
vt 0.095311999320983887 0.25782698392868042
vt 0.084412001073360443 0.002705991268157959
vt 0.0033629999961704016 0.41117197275161743
vt 0.10555700212717056 0.50447699427604675
vt 0.367684006690979 0.73949900269508362
vt 0.002271000063046813 0.50923699140548706
vt 0.61631900072097778 0.72592300176620483
vt 0.62711799144744873 0.97312399931252
vt 0.87608301639556885 0.99291200004518032
vt 0.64895999431610107 0.99288999987766147
vt 0.37978100776672363 0.98611100018024445
vt 0.1188649982213974 0.75076599419116974
vt 0.0026279999874532223 0.75680400431156158
vt 0.0024290001019835472 0.64644500613212585
vt 0.1311350017786026 0.99085600022226572
vt 0.0023990001063793898 0.88098900020122528
vt 0.12459100037813187 0.99085099995136261
vt 0.24861100316047669 0.99184999987483025
vt 0.38009199500083923 0.99293799977749586
vt 0.0025810000952333212 0.99095499981194735
vt 0.62795400619506836 0.99293400021269917
vt 0.38730499148368835 0.992945000063628
vn -0.075837001204490662 0.99693900346755981 0.018988000229001045
vn -0.0398159995675087 0.99918502569198608 0.0066709998063743114
vn -0.022136000916361809 0.99963998794555664 0.015142999589443207
vn -0.1269650012254715 0.99167197942733765 0.02160399965941906
vn -0.10520000010728836 0.99402600526809692 -0.029069000855088234
vn -0.00977999996393919 0.9998440146446228 -0.014739999547600746
vn -0.06712699681520462 0.99100601673126221 -0.11576099693775177
vn 0.021774999797344208 0.99968498945236206 0.012445000000298023
vn 0.031537998467683792 0.99854499101638794 0.04372899979352951
vn 0.066014997661113739 0.99337100982666016 0.094109997153282166
vn 0.077981002628803253 0.99303001165390015 0.088377997279167175
vn 0.069378003478050232 0.992851972579956 0.097117997705936432
vn 0.052058998495340347 0.99412298202514648 0.094913996756076813
vn 0.0627560019493103 0.99788397550582886 0.017031000927090645
vn 0.079466000199317932 0.99493402242660522 0.061574999243021011
vn 0.065678000450134277 0.99707400798797607 0.0391170009970665
vn 0.079190999269485474 0.99554198980331421 0.051228001713752747
vn 0.022065000608563423 0.99497699737548828 0.097645998001098633
vn 0.043320998549461365 0.99363702535629272 0.1039699986577034
vn 0.079377003014087677 0.989450991153717 0.12118300050497055
vn 0.022257000207901 0.99543601274490356 0.092803999781608582
vn 0.067047998309135437 0.98796999454498291 0.13935600221157074
vn 0.04899900034070015 0.99001097679138184 0.13220499455928803
vn 0.10332400351762772 0.99113500118255615 0.083522997796535492
vn 0.11673399806022644 0.98956501483917236 0.084471002221107483
vn 0.086351998150348663 0.99251699447631836 0.086331002414226532
vn 0.11673299968242645 0.98956501483917236 0.0844699963927269
vn 0.092972002923488617 0.99129897356033325 0.093180000782012939
vn 0.11723700165748596 0.98839598894119263 0.096588000655174255
vn 0.0578950010240078 0.99445700645446777 0.087769001722335815
vn 0.020306000486016273 0.99642300605773926 0.082028001546859741
vn 0.025451000779867172 0.99564200639724731 0.089720003306865692
vn 0.019658999517560005 0.99581301212310791 0.089271001517772675
vn 0.075659997761249542 0.99066299200057983 0.11341200023889542
vn 0.09191499650478363 0.99158000946044922 0.091219000518321991
vn 0.080082997679710388 0.9917299747467041 0.10029499977827072
vn 0.085909001529216766 0.99139702320098877 0.098747998476028442
vn 0.07157299667596817 0.9957919716835022 0.057241000235080719
vn 0.0039550000801682472 0.99716097116470337 0.0751969963312149
vn -0.0043549998663365841 0.99668198823928833 0.081277996301651
vn -0.018069000914692879 0.99588900804519653 0.088762998580932617
vn 0.013919999822974205 0.9983680248260498 0.055383998900651932
vn -0.0045260000042617321 0.99803000688552856 0.062581002712249756
vn -0.0020510000176727772 0.99789601564407349 0.064799003303051
vn 0.013996999710798264 0.99939000606536865 0.032010000199079514
vn 0.090765997767448425 0.99479198455810547 0.046363998204469681
vn -0.058793000876903534 0.99817502498626709 0.01375999953597784
vn 0.10507199913263321 0.98977798223495483 0.096437998116016388
vn 0.1012049987912178 0.99222701787948608 0.072402998805046082
f 1/1/1 2/2/2 3/3/3
f 4/4/4 2/2/2 1/1/1
f 4/4/4 5/5/5 2/2/2
f 6/6/6 2/2/2 7/7/7
f 7/7/7 2/2/2 5/5/5
f 8/8/8 2/2/2 9/9/9
f 8/8/8 3/3/3 2/2/2
f 10/10/10 11/11/11 12/12/12
f 10/10/10 13/13/13 11/11/11
f 14/14/14 15/15/15 16/16/16
f 17/17/17 11/11/11 13/13/13
f 18/18/18 19/19/19 20/20/20
f 18/18/18 21/21/21 19/19/19
f 2/2/2 21/21/21 18/18/18
f 2/2/2 6/6/6 21/21/21
f 22/22/22 18/18/18 20/20/20
f 18/18/18 22/22/22 9/9/9
f 9/9/9 22/22/22 15/15/15
f 22/22/22 20/20/20 23/23/23
f 9/9/9 2/2/2 18/18/18
f 24/24/24 20/20/20 19/19/19
f 25/25/25 26/26/26 27/27/27
f 27/27/27 28/28/28 29/29/29
f 27/27/27 26/26/26 28/28/28
f 20/20/20 29/29/29 28/28/28
f 20/20/20 24/24/24 29/29/29
f 30/30/30 28/28/28 26/26/26
f 30/30/30 31/31/31 28/28/28
f 28/28/28 31/31/31 23/23/23
f 23/23/23 31/31/31 32/32/32
f 33/33/33 31/31/31 30/30/30
f 23/23/23 20/20/20 28/28/28
f 34/34/34 22/22/22 23/23/23
f 23/23/23 32/32/32 34/34/34
f 15/15/15 34/34/34 11/11/11
f 35/35/35 34/34/34 32/32/32
f 34/34/34 35/35/35 11/11/11
f 35/35/35 36/36/36 11/11/11
f 35/35/35 37/37/37 36/36/36
f 35/35/35 32/32/32 38/38/38
f 17/17/17 15/15/15 11/11/11
f 17/17/17 16/16/16 15/15/15
f 31/31/31 39/39/39 32/32/32
f 40/40/40 39/39/39 41/41/41
f 31/31/31 41/41/41 39/39/39
f 31/31/31 33/33/33 41/41/41
f 42/42/42 43/43/43 44/44/44
f 42/42/42 39/39/39 43/43/43
f 39/39/39 40/40/40 43/43/43
f 42/42/42 38/38/38 39/39/39
f 42/42/42 45/45/45 38/38/38
f 45/45/45 46/46/46 38/38/38
f 47/47/47 44/44/44 43/43/43
f 32/32/32 39/39/39 38/38/38
f 48/48/48 38/38/38 49/49/49
f 48/48/48 35/35/35 38/38/38
f 22/22/22 34/34/34 15/15/15
f 14/14/14 9/9/9 15/15/15
f 14/14/14 8/8/8 9/9/9
f 48/48/48 37/37/37 35/35/35
f 46/46/46 49/49/49 38/38/38
f 36/36/36 12/12/12 11/11/11
