mtllib m03333201.mtl
usemtl material0
v -105.52252197265625 4.4553050994873047 48
v -107.20187401771545 4.5301880836486816 48
v -105.43891096115112 4.4226460456848145 49.586964130401611
v -97.525032043457031 3.9968149662017822 48
v -98.7601170539856 4.0637907981872559 48
v -97.463531017303467 3.9730799198150635 49.167229175567627
v -96.4134669303894 3.9203801155090332 48
v -101.52381110191345 4.2194170951843262 48
v -102.98090398311615 4.3075151443481445 48
v -101.45124101638794 4.1944479942321777 49.377110004425049
v -112 4.6310648918151855 49.932774066925049
v -109.21739196777344 4.3680629730224609 53.786545038223267
v -109.42729902267456 4.5033822059631348 49.79732084274292
v -112 4.5889592170715332 51.281330108642578
v -111.60918378829956 4.6905121803283691 48
v -109.52178192138672 4.5823831558227539 48
v -112 4.6928458213806152 48.434391021728516
v -101.24132490158081 4.0596170425415039 53.366324901580811
v -97.25311279296875 3.9422509670257568 53.156094074249268
v -105.22927904129028 4.2306880950927734 53.576378107070923
v -96 3.9762370586395264 49.089934825897217
v -96 3.9290049076080322 48.134582996368408
v -96 3.9223508834838867 48
v -112 4.72040319442749 48
v -96 3.9976649284362793 50.483765125274658
v -112 4.540956974029541 55.0810130238533
v -109.00685119628906 4.3611550331115723 57.775326013565063
v -112 4.5392231941223145 53.93294095993042
v -112 4.5262022018432617 57.932860970497131
v -112 4.4858851432800293 58.880753040313721
v -108.79717302322388 4.179440975189209 61.764706134796143
v -105.01839399337769 4.29506778717041 57.56491494178772
v -97.042212963104248 4.0105381011962891 57.144615054130554
v -96 3.9740960597991943 53.089821100234985
v -96 4.0055398941040039 54.28301203250885
v -104.80859398841858 4.1363019943237305 61.554214000701904
v -101.03113603591919 3.9814209938049316 57.355353951454163
v -100.8207631111145 3.9408180713653564 61.344250202178955
v -96 4.048119068145752 57.089462041854858
v -96 4.0663228034973145 58.081847906112671
v -96.831298828125 4.0807719230651855 61.133132934570312
v -108.67942810058594 4.1271371841430664 64
v -112 4.3534722328186035 62.681098937988281
v -110.5350489616394 4.2387070655822754 64
v -112 4.3599328994750977 62.361732006073
v -112 4.3686032295227051 61.9332389831543
v -107.00913190841675 4.1070652008056641 64
v -112 4.3590011596679688 64
v -104.67964899539948 4.1036200523376465 64
v -96.680489063262939 3.9743928909301758 64
v -97.868965148925781 3.935142993927002 64
v -96 4.1129860877990723 61.089134216308594
v -96 4.1190290451049805 61.707096099853516
v -96 4.1207270622253418 61.880730152130127
v -103.20999097824097 4.0307459831237793 64
v -100.68072509765625 3.9092309474945068 64
v -96 4.0325579643249512 64
vt 0 0.40484201908111572
vt 0 0.29988300800323486
vt 0.099184997379779816 0.41006797552108765
vt 0 0.90468499809503555
vt 0 0.82749299705028534
vt 0.072952002286911011 0.90852899849414825
vt 0 0.97415800020098686
vt 0 0.65476199984550476
vt 0 0.56369400024414062
vt 0.0860690027475357 0.659296989440918
vt 0.12079799920320511 0
vt 0.36165899038314819 0.17391300201416016
vt 0.11233299970626831 0.16079401969909668
vt 0.20508299767971039 0
vt 0 0.024425983428955078
vt 0 0.15488898754119873
vt 0.027148999273777008 0
vt 0.33539500832557678 0.672417014837265
vt 0.32225599884986877 0.92168000340461731
vt 0.34852400422096252 0.42316997051239014
vt 0.068121001124382019 1
vt 0.0084109995514154434 1
vt 0 1
vt 0 0
vt 0.15523500740528107 1
vt 0.442562997341156 0
vt 0.61095798015594482 0.18707197904586792
vt 0.37080898880958557 0
vt 0.62080401182174683 0
vt 0.68004697561264038 0
vt 0.860293984413147 0.20017701387405396
vt 0.597806990146637 0.43634998798370361
vt 0.571537971496582 0.93486200273036957
vt 0.3181140124797821 1
vt 0.39268800616264343 1
vt 0.847137987613678 0.44946300983428955
vt 0.58471000194549561 0.68555399775505066
vt 0.83401602506637573 0.69870200753211975
vt 0.56809097528457642 1
vt 0.63011598587036133 1
vt 0.82082098722457886 0.94804399833083153
vt 1 0.207535982131958
vt 0.91756898164749146 0
vt 1 0.091558992862701416
vt 0.89760798215866089 0
vt 0.87082701921463013 0
vt 1 0.31192898750305176
vt 1 0
vt 1 0.45752197504043579
vt 1 0.95746900141239166
vt 1 0.88318999856710434
vt 0.81807100772857666 1
vt 0.85669398307800293 1
vt 0.867546021938324 1
vt 1 0.54937601089477539
vt 1 0.70745500922203064
vt 1 1
vn 0.055167000740766525 0.998320996761322 0.017637999728322029
vn 0.026820000261068344 0.99892199039459229 0.037898998707532883
vn 0.04181399941444397 0.99840599298477173 0.037918999791145325
vn 0.060989998281002045 0.99799197912216187 0.017079999670386314
vn 0.055573999881744385 0.99832898378372192 0.01585100032389164
vn 0.032919000834226608 0.99944198131561279 0.005601000040769577
vn 0.023484999313950539 0.99943602085113525 -0.023996999487280846
vn 0.05698699876666069 0.9982609748840332 0.015096999704837799
vn 0.0588809996843338 0.99812799692153931 0.016548000276088715
vn 0.050962001085281372 0.99848198890686035 0.020901000127196312
vn 0.0513250008225441 0.99810397624969482 0.033976998180150986
vn 0.047102000564336777 0.99876701831817627 0.015657000243663788
vn 0.034942001104354858 0.99863302707672119 0.038871999830007553
vn 0.058598000556230545 0.99801898002624512 0.022913999855518341
vn 0.052129000425338745 0.99777597188949585 0.041538998484611511
vn 0.0363209992647171 0.99845802783966064 0.041978001594543457
vn 0.057192999869585037 0.997298002243042 0.046098001301288605
vn 0.039799999445676804 0.99909102916717529 0.015267999842762947
vn 0.025349000468850136 0.99967098236083984 0.0038219999987632036
vn 0.0326789990067482 0.9993550181388855 0.014870000071823597
vn -0.0038630000781267881 0.99946999549865723 -0.032315000891685486
vn -0.0047610001638531685 0.99876898527145386 -0.049378998577594757
vn -0.0047610001638531685 0.99876898527145386 -0.049380999058485031
vn 0.07610899955034256 0.99509900808334351 0.063128001987934113
vn -0.017277000471949577 0.99985098838806152 0.000534999999217689
vn 0.05910399928689003 0.99825102090835571 0.00095800001872703433
vn 0.033801000565290451 0.99927502870559692 0.017493000254034996
vn 0.062050998210906982 0.997992992401123 0.012608000077307224
vn 0.055810999125242233 0.99833601713180542 0.014468999579548836
vn 0.05869000032544136 0.99744200706481934 0.040807001292705536
vn 0.036566998809576035 0.99872201681137085 0.034889001399278641
vn 0.047547999769449234 0.99881500005722046 0.010328999720513821
vn -0.0042139999568462372 0.99996399879455566 -0.0074339997954666615
vn -0.025196999311447144 0.99967497587203979 0.0039149997755885124
vn -0.035197000950574875 0.999235987663269 -0.016979999840259552
vn 0.026489000767469406 0.99914002418518066 0.031908001750707626
vn 0.021894000470638275 0.99973398447036743 0.0072340001352131367
vn 0.021821999922394753 0.99957400560379028 0.019360000267624855
vn -0.036876000463962555 0.9991919994354248 -0.015986999496817589
vn -0.039186000823974609 0.99910598993301392 -0.015892000868916512
vn -0.03057200089097023 0.999504029750824 0.0075719999149441719
vn 0.047648999840021133 0.99864602088928223 0.020857000723481178
vn 0.067775003612041473 0.99763399362564087 0.011529999785125256
vn 0.069654002785682678 0.997527003288269 0.00943399965763092
vn 0.060005001723766327 0.99799400568008423 0.020191000774502754
vn 0.060812000185251236 0.99749600887298584 0.036091998219490051
vn 0.0088080000132322311 0.99976402521133423 0.019875999540090561
vn 0.081839002668857574 0.99663698673248291 -0.0041780001483857632
vn 0.035418998450040817 0.99930602312088013 0.011486000381410122
vn -0.039138000458478928 0.99846798181533813 0.039108000695705414
vn -0.016284000128507614 0.99966299533843994 0.020235000178217888
vn -0.039485998451709747 0.999114990234375 -0.014526000246405602
vn -0.039237000048160553 0.99918198585510254 -0.0097709996625781059
vn -0.081647001206874847 0.9959530234336853 0.037560001015663147
vn 0.048551000654697418 0.9987720251083374 0.0098580000922083855
vn 0.017896000295877457 0.999779999256134 0.0109479995444417
vn -0.085092999041080475 0.99551200866699219 0.041416000574827194
f 1/1/1 2/2/2 3/3/3
f 4/4/4 5/5/5 6/6/6
f 7/7/7 4/4/4 6/6/6
f 8/8/8 9/9/9 10/10/10
f 11/11/11 12/12/12 13/13/13
f 11/11/11 14/14/14 12/12/12
f 15/15/15 13/13/13 16/16/16
f 15/15/15 11/11/11 13/13/13
f 15/15/15 17/17/17 11/11/11
f 3/3/3 18/18/18 10/10/10
f 1/1/1 10/10/10 9/9/9
f 1/1/1 3/3/3 10/10/10
f 8/8/8 6/6/6 5/5/5
f 8/8/8 10/10/10 6/6/6
f 10/10/10 19/19/19 6/6/6
f 2/2/2 13/13/13 3/3/3
f 2/2/2 16/16/16 13/13/13
f 13/13/13 20/20/20 3/3/3
f 21/21/21 7/7/7 6/6/6
f 21/21/21 22/22/22 7/7/7
f 22/22/22 23/23/23 7/7/7
f 24/24/24 17/17/17 15/15/15
f 21/21/21 6/6/6 25/25/25
f 12/12/12 26/26/26 27/27/27
f 12/12/12 28/28/28 26/26/26
f 14/14/14 28/28/28 12/12/12
f 13/13/13 12/12/12 20/20/20
f 20/20/20 12/12/12 27/27/27
f 29/29/29 27/27/27 26/26/26
f 30/30/30 27/27/27 29/29/29
f 30/30/30 31/31/31 27/27/27
f 32/32/32 20/20/20 27/27/27
f 19/19/19 18/18/18 33/33/33
f 10/10/10 18/18/18 19/19/19
f 34/34/34 6/6/6 19/19/19
f 34/34/34 25/25/25 6/6/6
f 34/34/34 19/19/19 35/35/35
f 27/27/27 36/36/36 32/32/32
f 32/32/32 37/37/37 18/18/18
f 37/37/37 33/33/33 18/18/18
f 32/32/32 38/38/38 37/37/37
f 39/39/39 33/33/33 40/40/40
f 35/35/35 33/33/33 39/39/39
f 35/35/35 19/19/19 33/33/33
f 37/37/37 41/41/41 33/33/33
f 32/32/32 18/18/18 20/20/20
f 18/18/18 3/3/3 20/20/20
f 42/42/42 43/43/43 44/44/44
f 42/42/42 45/45/45 43/43/43
f 45/45/45 31/31/31 46/46/46
f 45/45/45 42/42/42 31/31/31
f 46/46/46 31/31/31 30/30/30
f 31/31/31 36/36/36 27/27/27
f 47/47/47 31/31/31 42/42/42
f 47/47/47 36/36/36 31/31/31
f 48/48/48 44/44/44 43/43/43
f 49/49/49 36/36/36 47/47/47
f 50/50/50 38/38/38 51/51/51
f 50/50/50 41/41/41 38/38/38
f 38/38/38 41/41/41 37/37/37
f 40/40/40 41/41/41 52/52/52
f 40/40/40 33/33/33 41/41/41
f 53/53/53 41/41/41 54/54/54
f 53/53/53 52/52/52 41/41/41
f 55/55/55 56/56/56 38/38/38
f 56/56/56 51/51/51 38/38/38
f 57/57/57 41/41/41 50/50/50
f 57/57/57 54/54/54 41/41/41
f 49/49/49 38/38/38 36/36/36
f 49/49/49 55/55/55 38/38/38
f 32/32/32 36/36/36 38/38/38
