mtllib m033333002.mtl
usemtl material0
v -61.5290869474411 3.3664538860321045 48
v -61.46209704875946 3.3769869804382324 49.267925024032593
v -60.321514010429382 3.280350923538208 48
v -64 3.4530000686645508 48
v -64 3.4546430110931396 48.161757946014404
v -59.529861003160477 3.2232930660247803 48
v -59.4684140086174 3.2321009635925293 49.163105010986328
v -58.422168970108032 3.1188259124755859 48
v -56 2.8890349864959717 48
v -56.540854930877686 2.9375259876251221 48
v -56 2.8906168937683105 48.486968994140625
v -64 3.4454050064086914 50.708878040313721
v -64 3.4535009860992432 48.476558923721313
v -64 3.4726660251617432 54.817177057266235
v -61.251667022705078 3.3481090068817139 53.256783008575439
v -64 3.4377789497375488 52.0588649995625
v -61.356812000274658 3.3769528865814209 51.262305974960327
v -59.363079011440277 3.2423210144042969 51.157447993755341
v -64 3.44635009765625 51.4016649723053
v -57.369637012481689 3.0486071109771729 51.0527920126915
v -57.47500205039978 3.0320401191711426 49.058471918106079
v -57.530890941619873 3.0297250747680664 48
v -56 2.892219066619873 48.712486028671265
v -56 2.8941259384155273 48.98101806640625
v -56 2.9140660762786865 50.38644003868103
v -59.258125007152557 3.1744160652160645 53.152058005332947
v -57.264678955078125 2.9811899662017822 53.0474009513855
v -64 3.4647049903869629 55.401482105255127
v -61.146541953086853 3.3153591156005859 55.251274108886719
v -56 2.9028251171112061 51.641582012176514
v -56 2.8759570121765137 52.980948984622955
v -56 2.9218881130218506 50.980865001678467
v -57.159950017929077 2.8678739070892334 55.0421679019928
v -59.153275012969971 3.0860021114349365 55.1467399597168
v -56 2.8011329174041748 54.186630010604858
v -59.920791998505592 3.1764459609985352 56
v -61.107028961181641 3.3127779960632324 56
v -64 3.4643270969390869 55.955729961395264
v -63.898459911346436 3.4589788913726807 56
v -64 3.4651620388031006 56
v -59.108260989189148 3.079719066619873 56
v -58.205935955047607 2.9643619060516357 56
v -57.109508991241455 2.8432350158691406 56
v -56 2.7348670959472656 56
v -56 2.7416529655456543 55.864058971405029
v -56.122292041778564 2.7503368854522705 56
v -56 2.7599871158599854 54.981255054473877
v -56 2.7514300346374512 55.393287897109985
vt 0.99523800611495972 0.30900198221206665
vt 0.83835798501968384 0.31717598438262939
vt 0.99523800611495972 0.45878201723098755
vt 0.99536001682281494 0.00311201810836792
vt 0.97534698247909546 0.0030969977378845215
vt 0.9952390193939209 0.55698001384735107
vt 0.8513299822807312 0.56448599696159363
vt 0.99527597427368164 0.69463199377059937
vt 0.99535501003265381 0.9956559999845922
vt 0.99533998966217041 0.92847300320863724
vt 0.93510597944259644 0.99565199995413423
vt 0.66011601686477661 0.0030530095100402832
vt 0.936398983001709 0.003085017204284668
vt 0.15180200338363648 0.0028970241546630859
vt 0.34483599662780762 0.34333997964859009
vt 0.4930889904499054 0.0030599832534790039
vt 0.59161102771759033 0.33017098903656006
vt 0.604578971862793 0.57739898562431335
vt 0.57440400123596191 0.0030410289764404297
vt 0.61759001016616821 0.82518699765205383
vt 0.864346981048584 0.81234599649906158
vt 0.99531298875808716 0.80545100569725037
vt 0.90720498561859131 0.99563999986276031
vt 0.87398099899291992 0.99562799977138638
vt 0.70007002353668213 0.99543499993160367
vt 0.35769098997116089 0.590921014547348
vt 0.37042099237442017 0.8387179970741272
vt 0.079504996538162231 0.0029360055923461914
vt 0.09804999828338623 0.35645401477813721
vt 0.54429900646209717 0.99554099980741739
vt 0.37862199544906616 0.9957269998267293
vt 0.62607699632644653 0.99538399977609515
vt 0.12329000234603882 0.85276700556278229
vt 0.11071000248193741 0.60470300912857056
vt 0.22916999459266663 0.99649000004865229
vt 0.0052490001544356346 0.50897300243377686
vt 0.0054109999909996986 0.36124497652053833
vt 0.010932999663054943 0.002929985523223877
vt 0.0058120000176131725 0.015415012836456299
vt 0.0054560001008212566 0.0030419826507568359
vt 0.0051380000077188015 0.61020898818969727
vt 0.0049530002288520336 0.722698986530304
vt 0.004755999892950058 0.85917399823665619
vt 0.004639000166207552 0.99710300005972385
vt 0.021478999406099319 0.99702899996191263
vt 0.004666999913752079 0.98185300081968307
vt 0.13072800636291504 0.99690099991858
vt 0.079735003411769867 0.99695799988694489
vn 0.052468001842498779 0.99856102466583252 -0.011068000458180904
vn 0.05101500079035759 0.998682975769043 -0.0053699999116361141
vn 0.0716790035367012 0.99736100435256958 -0.011535000056028366
vn 0.035002999007701874 0.99933600425720215 -0.010152000002563
vn 0.032788999378681183 0.99944901466369629 -0.0050650001503527164
vn 0.08252599835395813 0.99651801586151123 -0.011907000094652176
vn 0.084375001490116119 0.99638897180557251 -0.0094739999622106552
vn 0.09798700362443924 0.99514901638031006 -0.00877700001001358
vn 0.089295998215675354 0.99599999189376831 -0.0032339999452233315
vn 0.091926001012325287 0.99574702978134155 -0.0061800000257790089
vn 0.091807998716831207 0.99575799703598022 -0.0060470001772046089
vn 0.027124999091029167 0.99963200092315674 0.00031100001069717109
vn 0.029005000367760658 0.9995729923248291 0.003625999903306365
vn 0.047990001738071442 0.9988359808921814 0.004794000182300806
vn 0.067029997706413269 0.9976850152015686 0.011486999690532684
vn 0.031060999259352684 0.9995110034942627 0.00355600006878376
vn 0.050225000828504562 0.9987180233001709 0.0063749998807907104
vn 0.08290400356054306 0.99651098251342773 0.0096060000360012054
vn 0.026566000655293465 0.999629020690918 0.006076000165194273
vn 0.09482400119304657 0.995464026927948 0.0076839998364448547
vn 0.095438003540039062 0.99538499116897583 -0.0099900001659989357
vn 0.096210002899169922 0.99533498287200928 -0.0072570000775158405
vn 0.09272400289773941 0.9956669807434082 -0.0070730000734329224
vn 0.092543996870517731 0.995652973651886 -0.010479999706149101
vn 0.091681003570556641 0.99569898843765259 -0.013376000337302685
vn 0.09243299812078476 0.99516397714614868 0.033241000026464462
vn 0.09411899745464325 0.99474900960922241 0.040197998285293579
vn 0.052629999816417694 0.99858999252319336 0.0069289999082684517
vn 0.083625003695487976 0.99648201465606689 0.0054890001192688942
vn 0.09133099764585495 0.99546301364898682 0.026670999825000763
vn 0.084953002631664276 0.99557298421859741 0.040208999067544937
vn 0.09249500185251236 0.99568802118301392 0.0071220002137124538
vn 0.10087600350379944 0.99431198835372925 0.034175001084804535
vn 0.11178000271320343 0.99356800317764282 0.018132999539375305
vn 0.092725999653339386 0.99421501159667969 0.054200001060962677
vn 0.11524800211191177 0.99333500862121582 -0.0016240000259131193
vn 0.084320001304149628 0.99643802642822266 -0.0010160000529140234
vn 0.055436000227928162 0.99844098091125488 -0.0065299998968839645
vn 0.053412001579999924 0.99857097864151 -0.0018710000440478325
vn 0.060775000602006912 0.9979739785194397 -0.018833000212907791
vn 0.12265799939632416 0.99244898557662964 0.00083700002869591117
vn 0.11374299973249435 0.99339199066162109 0.015332999639213085
vn 0.10144700109958649 0.99463498592376709 0.020243000239133835
vn 0.12535299360752106 0.99087798595428467 0.049463998526334763
vn 0.1011279970407486 0.9944949746131897 0.02744000032544136
vn 0.10213799774646759 0.99436599016189575 0.02835799939930439
vn 0.09445200115442276 0.9948580265045166 0.036557998508214951
vn 0.093667000532150269 0.99538898468017578 0.020671999081969261
f 1/1/1 2/2/2 3/3/3
f 4/4/4 2/2/2 1/1/1
f 4/4/4 5/5/5 2/2/2
f 6/6/6 2/2/2 7/7/7
f 6/6/6 3/3/3 2/2/2
f 6/6/6 7/7/7 8/8/8
f 9/9/9 10/10/10 11/11/11
f 12/12/12 2/2/2 13/13/13
f 13/13/13 2/2/2 5/5/5
f 14/14/14 15/15/15 16/16/16
f 7/7/7 17/17/17 18/18/18
f 12/12/12 17/17/17 2/2/2
f 12/12/12 19/19/19 17/17/17
f 18/18/18 20/20/20 21/21/21
f 18/18/18 21/21/21 7/7/7
f 22/22/22 11/11/11 10/10/10
f 22/22/22 23/23/23 11/11/11
f 23/23/23 21/21/21 24/24/24
f 23/23/23 22/22/22 21/21/21
f 24/24/24 21/21/21 25/25/25
f 22/22/22 7/7/7 21/21/21
f 22/22/22 8/8/8 7/7/7
f 18/18/18 17/17/17 26/26/26
f 26/26/26 17/17/17 15/15/15
f 20/20/20 18/18/18 27/27/27
f 27/27/27 18/18/18 26/26/26
f 15/15/15 28/28/28 29/29/29
f 15/15/15 14/14/14 28/28/28
f 30/30/30 27/27/27 31/31/31
f 27/27/27 32/32/32 20/20/20
f 27/27/27 30/30/30 32/32/32
f 26/26/26 33/33/33 27/27/27
f 25/25/25 20/20/20 32/32/32
f 25/25/25 21/21/21 20/20/20
f 15/15/15 34/34/34 26/26/26
f 16/16/16 17/17/17 19/19/19
f 16/16/16 15/15/15 17/17/17
f 31/31/31 27/27/27 35/35/35
f 36/36/36 29/29/29 37/37/37
f 36/36/36 34/34/34 29/29/29
f 29/29/29 34/34/34 15/15/15
f 38/38/38 29/29/29 28/28/28
f 38/38/38 39/39/39 29/29/29
f 39/39/39 37/37/37 29/29/29
f 40/40/40 39/39/39 38/38/38
f 36/36/36 41/41/41 34/34/34
f 42/42/42 34/34/34 41/41/41
f 34/34/34 43/43/43 33/33/33
f 34/34/34 42/42/42 43/43/43
f 44/44/44 45/45/45 46/46/46
f 43/43/43 47/47/47 33/33/33
f 43/43/43 48/48/48 47/47/47
f 48/48/48 46/46/46 45/45/45
f 48/48/48 43/43/43 46/46/46
f 35/35/35 33/33/33 47/47/47
f 35/35/35 27/27/27 33/33/33
f 26/26/26 34/34/34 33/33/33
f 2/2/2 17/17/17 7/7/7
