mtllib m03333230.mtl
usemtl material0
v -95.217606067657471 3.3726348876953125 16
v -96 3.4155960083007812 16.294538021087646
v -95.162047863006592 3.4137029647827148 17.048453807830811
v -96 3.40344500541687 16
v -91.217917919158936 3.3298499584198 16
v -92.105255126953125 3.32608699798584 16
v -91.173592090606689 3.3456439971923828 16.838050842285156
v -83.217850208282471 3.3805849552154541 16
v -83.658927917480469 3.3845710754394531 16
v -83.195824146270752 3.386754035949707 16.416636943817139
v -87.217674016952515 3.3965649604797363 16
v -87.88187400251627 3.3802371025085449 16
v -87.184531986713409 3.4020900726318359 16.627220153808594
v -96 3.4431860446929932 17.09260892868042
v -94.9510498046875 3.5010750293731689 21.036911010742188
v -96 3.514301061630249 20.093075037002563
v -86.974220037460327 3.3488380908966064 20.616161108016968
v -82.985390186309814 3.3584051132202148 20.405493021011353
v -90.962738037109375 3.4032309055328369 20.826611042022705
v -80 3.3204710483551025 16.248085021972656
v -80 3.3191609382629395 16.165517807006836
v -80 3.3165359497070312 16
v -80 3.2992420196533203 19.292575836181641
v -96 3.6317410469055176 23.891464002430439
v -94.740219116210938 3.5532848834991455 25.025488018989563
v -96 3.583590030670166 21.092041015625
v -96 3.6088719367980957 25.091837048530579
v -96 3.6386830806732178 27.690720081329346
v -94.529471874237061 3.589867115020752 29.014120101928711
v -90.752159118652344 3.4061260223388672 24.815357029438019
v -82.775925159454346 3.1322999000549316 24.395025014877319
v -80 3.2935619354248047 20.248049020767212
v -80 3.2141458988189697 23.092549979686737
v -86.764191031456 3.2384541034698486 24.605297029018402
v -86.55358898639679 3.245250940322876 28.594029903411865
v -82.565598011016846 3.0824580192565918 28.383953094482422
v -80 3.1484689712524414 24.24838399887085
v -80 3.0201179981231689 26.893377065658569
v -90.5413670539856 3.4510080814361572 28.8039608001709
v -96 3.6230599880218506 29.0916690826416
v -94.371788024902344 3.6011650562286377 32
v -96 3.6349608898162842 31.490056991577148
v -95.433289051055908 3.6248478889465332 32
v -96 3.6320829391479492 30.909996032714844
v -96 3.637099027633667 32
v -93.4166488647461 3.5681910514831543 32
v -86.373198986053467 3.3611350059509277 32
v -86.989510059356689 3.3917450904846191 32
v -80 3.0047590732574463 30.598030090332031
v -80 3.0047340393066406 30.692805767059326
v -80 3.00537109375 28.248713970184326
v -82.374289989471436 3.1634290218353271 32
v -82.768455982208252 3.1790099143981934 32
v -90.372200012207031 3.5382258892059326 32
v -80 3.037667989730835 32
vt 0 0.048900008201599121
vt 0.0184090007096529 0
vt 0.06552799791097641 0.052371978759765625
vt 0 0
vt 0 0.29887998104095459
vt 0 0.24342197179794312
vt 0.052377998828887939 0.3016510009765625
vt 0 0.79888400435447693
vt 0 0.7713170051574707
vt 0.026040000841021538 0.8002610057592392
vt 0 0.548895001411438
vt 0 0.50738298892974854
vt 0.039200998842716217 0.5509670078754425
vt 0.06828799843788147 0
vt 0.31480699777603149 0.0655590295791626
vt 0.2558169960975647 0
vt 0.28850999474525452 0.56411099433898926
vt 0.27534300088882446 0.813412994146347
vt 0.30166301131248474 0.31482899188995361
vt 0.01550500001758337 1
vt 0.010344999842345715 1
vt 0 1
vt 0.20578600466251373 1
vt 0.49321699142456055 0
vt 0.56409299373626709 0.078736007213592529
vt 0.31825301051139832 0
vt 0.56823998689651489 0
vt 0.73066997528076172 0
vt 0.81338298320770264 0.091907978057861328
vt 0.5509600043296814 0.32798999547958374
vt 0.52468901872634888 0.82650500535964966
vt 0.26550298929214478 1
vt 0.44328400492668152 1
vt 0.53783100843429565 0.577237993478775
vt 0.78712701797485352 0.59040099382400513
vt 0.77399700880050659 0.83965000510215759
vt 0.51552402973175049 1
vt 0.680836021900177 1
vt 0.80024802684783936 0.34116500616073608
vt 0.81822901964187622 0
vt 1 0.10176301002502441
vt 0.96812897920608521 0
vt 1 0.035418987274169922
vt 0.93187499046325684 0
vt 1 0
vt 1 0.16145902872085571
vt 1 0.60167500376701355
vt 1 0.563156008720398
vt 0.9123769998550415 1
vt 0.91829997301101685 1
vt 0.76554501056671143 1
vt 1 0.85160699486732483
vt 1 0.82697199285030365
vt 1 0.35173702239990234
vt 1 1
vn 0.0182499997317791 0.99902898073196411 -0.040098998695611954
vn 0.037007998675107956 0.99856799840927124 -0.038624998182058334
vn 0.021059999242424965 0.9995269775390625 -0.02239999920129776
vn 0.039315000176429749 0.99837797880172729 -0.041186999529600143
vn -0.01281800027936697 0.99975299835205078 -0.018163999542593956
vn 0.010689999908208847 0.99932301044464111 -0.035204000771045685
vn 0.0043799998238682747 0.99993401765823364 -0.010595999658107758
vn 0.019037000834941864 0.99969398975372314 -0.015809999778866768
vn 0.0036200000904500484 0.99995100498199463 -0.009263000451028347
vn 0.013968000188469887 0.99988901615142822 0.0051099997945129871
vn -0.0010260000126436353 0.99996101856231689 -0.0087540000677108765
vn -0.015773000195622444 0.99972599744796753 -0.017294000834226608
vn -0.0038330000825226307 0.99995702505111694 0.0084070004522800446
vn 0.033851999789476395 0.9991220235824585 -0.024693999439477921
vn 0.03496599942445755 0.99918299913406372 -0.020281000062823296
vn 0.044126998633146286 0.99841099977493286 -0.035050000995397568
vn 0.011893000453710556 0.999783992767334 0.017021000385284424
vn 0.006587000098079443 0.999625027179718 0.026582000777125359
vn 0.021077999845147133 0.999705970287323 -0.011997999623417854
vn 0.0209330003708601 0.99977397918701172 0.0037459998857229948
vn 0.019897999241948128 0.999675989151001 -0.015856999903917313
vn 0.019897999241948128 0.999675989151001 -0.0158539991825819
vn 0.021663999184966087 0.99974501132965088 0.0063479999080300331
vn 0.072223000228405 0.99732500314712524 -0.011234000325202942
vn 0.036892000585794449 0.99926602840423584 -0.01027199998497963
vn 0.076774999499320984 0.99657201766967773 -0.03081200085580349
vn 0.043985001742839813 0.99902999401092529 -0.001825000043027103
vn 0.039647001773118973 0.99918800592422485 -0.0071970000863075256
vn 0.033032998442649841 0.99942702054977417 -0.0073259999044239521
vn 0.037075001746416092 0.99931097030639648 -0.0016220000106841326
vn 0.014283999800682068 0.99929201602935791 0.034795999526977539
vn 0.022888999432325363 0.99948698282241821 0.022382000461220741
vn 0.0067549999803304672 0.9989129900932312 0.046123001724481583
vn 0.036180999130010605 0.99928498268127441 0.010970000177621841
vn 0.045148998498916626 0.998803973197937 -0.018769999966025352
vn 0.036260999739170074 0.99933397769927979 -0.0040690000168979168
vn -0.0031240000389516354 0.9986950159072876 0.050981998443603516
vn 0.01896899938583374 0.99953699111938477 0.023806000128388405
vn 0.038376998156309128 0.999081015586853 -0.019097000360488892
vn 0.022673999890685081 0.99974101781845093 0.0020500000100582838
vn 0.026158999651670456 0.99964398145675659 -0.0051640002056956291
vn 0.022191999480128288 0.99974197149276733 -0.0048349997960031033
vn 0.022064000368118286 0.99974602460861206 -0.0046939998865127563
vn 0.022305000573396683 0.99973899126052856 -0.0049609998241066933
vn 0.021612999960780144 0.99975800514221191 -0.004191999789327383
vn 0.024800000712275505 0.99958997964859009 -0.01433899998664856
vn 0.049949001520872116 0.9980810284614563 -0.036603998392820358
vn 0.044220000505447388 0.99855202436447144 -0.030626999214291573
vn 0.030045999214053154 0.99954801797866821 0.00026100000832229853
vn 0.052421998232603073 0.998320996761322 -0.024645000696182251
vn 0.030251000076532364 0.999534010887146 0.0041439998894929886
vn 0.045253001153469086 0.99866902828216553 -0.024755999445915222
vn 0.049348998814821243 0.9981529712677002 -0.035429999232292175
vn 0.027432000264525414 0.99921101331710815 -0.028720000758767128
vn 0.052877001464366913 0.9982839822769165 -0.025150999426841736
f 1/1/1 2/2/2 3/3/3
f 1/1/1 4/4/4 2/2/2
f 5/5/5 6/6/6 7/7/7
f 8/8/8 9/9/9 10/10/10
f 11/11/11 12/12/12 13/13/13
f 14/14/14 15/15/15 3/3/3
f 14/14/14 16/16/16 15/15/15
f 2/2/2 14/14/14 3/3/3
f 7/7/7 17/17/17 13/13/13
f 12/12/12 7/7/7 13/13/13
f 12/12/12 5/5/5 7/7/7
f 9/9/9 13/13/13 10/10/10
f 9/9/9 11/11/11 13/13/13
f 13/13/13 18/18/18 10/10/10
f 7/7/7 1/1/1 3/3/3
f 7/7/7 6/6/6 1/1/1
f 3/3/3 19/19/19 7/7/7
f 20/20/20 8/8/8 10/10/10
f 20/20/20 21/21/21 8/8/8
f 21/21/21 22/22/22 8/8/8
f 20/20/20 10/10/10 23/23/23
f 15/15/15 24/24/24 25/25/25
f 15/15/15 26/26/26 24/24/24
f 26/26/26 15/15/15 16/16/16
f 15/15/15 19/19/19 3/3/3
f 19/19/19 15/15/15 25/25/25
f 27/27/27 25/25/25 24/24/24
f 25/25/25 28/28/28 29/29/29
f 25/25/25 27/27/27 28/28/28
f 30/30/30 19/19/19 25/25/25
f 18/18/18 17/17/17 31/31/31
f 17/17/17 18/18/18 13/13/13
f 23/23/23 18/18/18 32/32/32
f 23/23/23 10/10/10 18/18/18
f 32/32/32 18/18/18 33/33/33
f 34/34/34 30/30/30 35/35/35
f 30/30/30 34/34/34 17/17/17
f 34/34/34 31/31/31 17/17/17
f 31/31/31 34/34/34 36/36/36
f 33/33/33 31/31/31 37/37/37
f 33/33/33 18/18/18 31/31/31
f 37/37/37 31/31/31 38/38/38
f 30/30/30 17/17/17 19/19/19
f 7/7/7 19/19/19 17/17/17
f 30/30/30 25/25/25 39/39/39
f 40/40/40 29/29/29 28/28/28
f 41/41/41 42/42/42 43/43/43
f 41/41/41 44/44/44 42/42/42
f 44/44/44 29/29/29 40/40/40
f 44/44/44 41/41/41 29/29/29
f 45/45/45 43/43/43 42/42/42
f 46/46/46 29/29/29 41/41/41
f 46/46/46 39/39/39 29/29/29
f 47/47/47 39/39/39 48/48/48
f 47/47/47 35/35/35 39/39/39
f 39/39/39 35/35/35 30/30/30
f 49/49/49 36/36/36 50/50/50
f 49/49/49 51/51/51 36/36/36
f 36/36/36 38/38/38 31/31/31
f 36/36/36 51/51/51 38/38/38
f 34/34/34 35/35/35 36/36/36
f 52/52/52 35/35/35 53/53/53
f 52/52/52 36/36/36 35/35/35
f 48/48/48 39/39/39 54/54/54
f 53/53/53 35/35/35 47/47/47
f 52/52/52 50/50/50 36/36/36
f 52/52/52 55/55/55 50/50/50
f 54/54/54 39/39/39 46/46/46
f 25/25/25 29/29/29 39/39/39
