mtllib m03333220.mtl
usemtl material0
v -127.21096801757813 4.533775806427002 16
v -128 4.6439571380615234 18.322526931762695
v -127.06623077392578 4.6630740165710449 18.7292537689209
v -128 4.5339069366455078 16
v -123.21215105056763 4.3184661865234375 16
v -125.87884521484375 4.4355249404907227 16
v -123.07893395423889 4.358241081237793 18.519662857055664
v -115.21324920654297 4.1391110420227051 16
v -117.43580603599548 4.1166019439697266 16
v -115.1025390625 4.1162281036376953 18.099222183227539
v -112 4.0039658546447754 16
v -113.21342515945435 4.0565729141235352 16
v -112 3.9969639778137207 17.092173099517822
v -119.21324199438095 4.1205911636352539 16
v -121.65773797035217 4.2293457984924316 16
v -119.09127801656723 4.12566614151001 18.309825897216797
v -122.8684389591217 4.343073844909668 22.508473992347717
v -114.89140319824219 4.2328948974609375 22.087579965591431
v -112 3.9896049499511719 17.935787200927734
v -112 3.9935719966888428 17.481029987335205
v -112 4.0211939811706543 20.891293048858643
v -118.88022601604462 4.2252440452575684 22.298243045806885
v -128 4.646522045135498 18.416347980499268
v -128 4.669562816619873 19.259434223175049
v -126.85573577880859 4.6469321250915527 22.718067049980164
v -128 4.8247427940368652 26.11555290222168
v -126.64419603347778 4.8461132049560547 26.706141948699951
v -128 4.6569890975952148 22.778460025787354
v -118.66770899295807 4.6236400604248047 26.285633087158203
v -114.67957305908203 4.4901800155639648 26.075454950332642
v -122.65630292892456 4.6623702049255371 26.4961359500885
v -128 4.8804240226745605 27.47593092918396
v -112 4.2249088287353516 25.934795022010803
v -114.46885681152344 4.520413875579834 30.064109802246094
v -112 4.2425980567932129 27.319480895996094
v -118.45606994628906 4.8433241844177246 30.273637771606445
v -112 4.0550441741943359 21.935456991195679
v -112 4.1335220336914062 23.096459984779358
v -122.44437408447266 4.9411349296569824 30.483938217163086
v -128 5.0099930763244629 32
v -126.36393690109253 5.00293493270874 32
v -128 5.01101016998291 31.820154190063477
v -126.43282318115234 5.0106220245361328 30.6943359375
v -128 5.0169129371643066 30.777074813842773
v -122.36412000656128 4.9849209785461426 32
v -124.98145294189453 5.0264158248901367 32
v -120.00912499986589 4.93090295791626 32
v -118.36470794677734 4.8870530128479 32
v -114.36611223220825 4.6294240951538086 32
v -116.21023607254028 4.7159152030944824 32
v -112 4.2239670753479 29.934677124023438
v -112 4.2713837623596191 30.693249225616455
v -112.41153001785278 4.4011330604553223 32
v -112 4.3244662284851074 31.542446136474609
v -112 4.3552899360656738 32
vt 0 0.049314022064208984
vt 0.14515799283981323 0
vt 0.1705780029296875 0.0583609938621521
vt 0 0
vt 0 0.29924100637435913
vt 0 0.1325719952583313
vt 0.15747900307178497 0.30756700038909912
vt 0 0.79917199909687042
vt 0 0.66026198863983154
vt 0.13120099902153015 0.80609099566936493
vt 0 1
vt 0 0.92416100203990936
vt 0.068260997533798218 1
vt 0 0.54917201399803162
vt 0 0.39639097452163696
vt 0.14436399936676025 0.55679500102996826
vt 0.40678000450134277 0.32072299718856812
vt 0.38047400116920471 0.8192870020866394
vt 0.12098699808120728 1
vt 0.092564001679420471 1
vt 0.30570599436759949 1
vt 0.39364001154899597 0.56998598575592041
vt 0.15102200210094452 0
vt 0.2037149965763092 0
vt 0.41987898945808411 0.0715169906616211
vt 0.63222199678421021 0
vt 0.66913402080535889 0.084738016128540039
vt 0.4236539900302887 0
vt 0.64285200834274292 0.58326798677444458
vt 0.62971597909927368 0.83252699673175812
vt 0.65600800514221191 0.3339809775352478
vt 0.71724599599838257 0
vt 0.62092500925064087 1
vt 0.87900698184967041 0.84569600224494934
vt 0.70746797323226929 1
vt 0.89210200309753418 0.59649598598480225
vt 0.37096598744392395 1
vt 0.44352900981903076 1
vt 0.90524601936340332 0.34722697734832764
vt 1 0
vt 1 0.10225397348403931
vt 0.98875999450683594 0
vt 0.91839599609375 0.097949028015136719
vt 0.923566997051239 0
vt 1 0.35224199295043945
vt 1 0.18865901231765747
vt 1 0.49943000078201294
vt 1 0.60220599174499512
vt 1 0.85211800038814545
vt 1 0.7368600070476532
vt 0.870917022228241 1
vt 0.91832798719406128 1
vt 1 0.974278999492526
vt 0.97140300273895264 1
vt 1 1
vn 0.033727001398801804 0.99822497367858887 -0.049079000949859619
vn -7.0000000960135367E-06 0.99889802932739258 -0.04693400114774704
vn 0.065700002014637 0.99770897626876831 -0.016139000654220581
vn 0.00016599999798927456 0.99887901544570923 -0.047331001609563828
vn 0.052822001278400421 0.9984319806098938 -0.018554000183939934
vn 0.064011998474597931 0.99712502956390381 -0.040546998381614685
vn 0.056437000632286072 0.99826401472091675 -0.01685200072824955
vn 0.025908999145030975 0.9996190071105957 0.0095300003886222839
vn -0.0010290000354871154 0.99999898672103882 0.0013220000546425581
vn 0.023321999236941338 0.99961501359939575 -0.015048000030219555
vn 0.043313000351190567 0.99904102087020874 0.0064050001092255116
vn 0.04181399941444397 0.99909299612045288 0.0080719999969005585
vn 0.042768001556396484 0.99905997514724731 0.0070110000669956207
vn 0.026695000007748604 0.99963700771331787 -0.0036059999838471413
vn 0.049419000744819641 0.998727023601532 -0.010080999694764614
vn 0.024097999557852745 0.99950498342514038 -0.020230000838637352
vn 0.047196999192237854 0.99792397022247314 -0.04380900040268898
vn 0.019276000559329987 0.99891597032547 -0.042380001395940781
vn 0.040692001581192017 0.99917000532150269 -0.0016469999682158232
vn 0.041235998272895813 0.999110996723175 0.0087160002440214157
vn 0.052239000797271729 0.9983450174331665 -0.024066999554634094
vn 0.021679999306797981 0.99836897850036621 -0.052806001156568527
vn -0.0085640000179409981 0.99958997964859009 -0.027318999171257019
vn 0.0073810000903904438 0.99997198581695557 0.00076099997386336327
vn 0.048934001475572586 0.99799901247024536 -0.040036000311374664
vn 0.0054429997690021992 0.99880200624465942 -0.048636998981237412
vn 0.027272000908851624 0.99821197986602783 -0.053187999874353409
vn 0.0075920000672340393 0.99971497058868408 -0.022626999765634537
vn 0.0291569996625185 0.99728399515151978 -0.0676409974694252
vn 0.043613001704216 0.99772602319717407 -0.051389999687671661
vn 0.031644001603126526 0.99711602926254272 -0.068983003497123718
vn 0.0018639999907463789 0.99914699792861938 -0.041250001639127731
vn 0.0974849984049797 0.99504697322845459 -0.019471999257802963
vn 0.076794996857643127 0.99663698673248291 -0.028601000085473061
vn 0.11207900196313858 0.99369901418685913 0.00023400000645779073
vn 0.038201998919248581 0.99783700704574585 -0.053486999124288559
vn 0.05806099995970726 0.99642497301101685 -0.061372000724077225
vn 0.085491999983787537 0.9954410195350647 -0.042279999703168869
vn 0.024576000869274139 0.9982600212097168 -0.053606998175382614
vn 0.004313999786973 0.99997502565383911 0.0056549999862909317
vn -0.0047900001518428326 0.999970018863678 0.0061400001868605614
vn 0.00431300001218915 0.99997502565383911 0.0056590000167489052
vn 0.0095309996977448463 0.999422013759613 -0.032643001526594162
vn 0.0024260000791400671 0.99954599142074585 -0.030045999214053154
vn 0.017781000584363937 0.99939799308776855 -0.029805000871419907
vn 0.0045030000619590282 0.9998440146446228 -0.017100000753998756
vn 0.023737000301480293 0.999288022518158 -0.029340000823140144
vn 0.068476997315883636 0.9972350001335144 -0.028883999213576317
vn 0.096532002091407776 0.99345499277114868 -0.061064999550580978
vn 0.064236998558044434 0.99701201915740967 -0.042902998626232147
vn 0.11773300170898438 0.99265497922897339 -0.027836000546813011
vn 0.11578699946403503 0.99133902788162231 -0.061967000365257263
vn 0.11546199768781662 0.99135899543762207 -0.062261998653411865
vn 0.11392399668693543 0.99144798517227173 -0.063661001622676849
vn 0.11046499758958817 0.99163198471069336 -0.066803000867366791
f 1/1/1 2/2/2 3/3/3
f 1/1/1 4/4/4 2/2/2
f 5/5/5 6/6/6 7/7/7
f 8/8/8 9/9/9 10/10/10
f 11/11/11 12/12/12 13/13/13
f 14/14/14 15/15/15 16/16/16
f 3/3/3 17/17/17 7/7/7
f 6/6/6 3/3/3 7/7/7
f 6/6/6 1/1/1 3/3/3
f 16/16/16 5/5/5 7/7/7
f 16/16/16 15/15/15 5/5/5
f 16/16/16 18/18/18 10/10/10
f 9/9/9 16/16/16 10/10/10
f 9/9/9 14/14/14 16/16/16
f 19/19/19 8/8/8 10/10/10
f 19/19/19 20/20/20 8/8/8
f 20/20/20 12/12/12 8/8/8
f 20/20/20 13/13/13 12/12/12
f 19/19/19 10/10/10 21/21/21
f 7/7/7 22/22/22 16/16/16
f 23/23/23 3/3/3 2/2/2
f 23/23/23 24/24/24 3/3/3
f 25/25/25 26/26/26 27/27/27
f 25/25/25 28/28/28 26/26/26
f 24/24/24 25/25/25 3/3/3
f 24/24/24 28/28/28 25/25/25
f 22/22/22 17/17/17 29/29/29
f 17/17/17 22/22/22 7/7/7
f 22/22/22 18/18/18 16/16/16
f 18/18/18 22/22/22 30/30/30
f 3/3/3 25/25/25 17/17/17
f 17/17/17 25/25/25 31/31/31
f 32/32/32 27/27/27 26/26/26
f 25/25/25 27/27/27 31/31/31
f 30/30/30 22/22/22 29/29/29
f 31/31/31 29/29/29 17/17/17
f 33/33/33 34/34/34 35/35/35
f 33/33/33 30/30/30 34/34/34
f 31/31/31 36/36/36 29/29/29
f 37/37/37 30/30/30 38/38/38
f 37/37/37 18/18/18 30/30/30
f 27/27/27 39/39/39 31/31/31
f 21/21/21 18/18/18 37/37/37
f 21/21/21 10/10/10 18/18/18
f 29/29/29 34/34/34 30/30/30
f 40/40/40 41/41/41 42/42/42
f 42/42/42 43/43/43 44/44/44
f 42/42/42 41/41/41 43/43/43
f 32/32/32 43/43/43 27/27/27
f 32/32/32 44/44/44 43/43/43
f 43/43/43 39/39/39 27/27/27
f 45/45/45 43/43/43 46/46/46
f 45/45/45 39/39/39 43/43/43
f 46/46/46 43/43/43 41/41/41
f 39/39/39 47/47/47 36/36/36
f 39/39/39 45/45/45 47/47/47
f 48/48/48 36/36/36 47/47/47
f 49/49/49 34/34/34 50/50/50
f 48/48/48 34/34/34 36/36/36
f 48/48/48 50/50/50 34/34/34
f 49/49/49 51/51/51 34/34/34
f 49/49/49 52/52/52 51/51/51
f 52/52/52 53/53/53 54/54/54
f 52/52/52 49/49/49 53/53/53
f 29/29/29 36/36/36 34/34/34
f 31/31/31 39/39/39 36/36/36
f 38/38/38 30/30/30 33/33/33
f 55/55/55 54/54/54 53/53/53
f 51/51/51 35/35/35 34/34/34
