mtllib m033012.mtl
usemtl material0
v -384 0.2216079980134964 392.97479248046875
v -379.58944702148438 -0.91133797168731689 388.07028198242188
v -384 -0.62178701162338257 388.30230712890625
v -384 -0.71263200044631958 384
v -379.8046875 -0.98339301347732544 384
v -384 -0.65955197811126709 386.5137939453125
v -375.92788696289062 -1.1798670291900635 384
v -384 2.5605990886688232 404.2919921875
v -378.7314453125 2.3607099056243896 404.014404296875
v -384 4.7307710647583008 420.28485107421875
v -384 4.7780218124389648 426.76632690429688
v -377.87652587890625 4.993535041809082 419.96069288253784
v -384 3.0402429103851318 409.87164306640625
v -362.78302001953125 0.97221797704696655 403.17648315429688
v -377.0340576171875 5.0311131477355957 435.91558837890625
v -361.92596435546875 4.0430231094360352 419.12130689620972
v -384 4.7824888229370117 436.2841796875
v -376.3995361328125 4.3399767875671387 448
v -384 4.277860164642334 444.85134887695312
v -380.50088500976562 4.2063779830932617 448
v -384 4.3956680297851562 442.85128784179688
v -384 4.172670841217041 448
v -372.71087646484375 4.2112679481506348 448
v -361.08139038085938 4.5210227966308594 435.07473754882812
v -363.6378173828125 -1.6308959722518921 387.23013305664062
v -363.8087158203125 -1.7095320224761963 384
v -360.73187255859375 -1.7572239637374878 384
v -347.68417406082153 -1.9335449934005737 386.38861083984375
v -347.81051588058472 -1.9865759611129761 384
v -345.53497314453125 -1.8520690202713013 384
v -346.83126783370972 0.26967400312423706 402.33627319335938
v -330.33657836914062 -1.119892954826355 384
v -331.8070068359375 -1.1989090442657471 384
v -331.72543334960938 -1.1815990209579468 385.5435791015625
v -320 -0.8432769775390625 384.40673828125
v -320 -0.85120999813079834 384.92337036132812
v -320 -0.8370320200920105 384
v -320 -0.033126998692750931 396.08404541015625
v -330.877197265625 0.05776900053024292 401.49444580078125
v -360.40213012695312 3.901608943939209 448
v -345.97769212722778 2.62125301361084 418.2834780216217
v -345.12646484375 4.4756951332092285 434.23236083984375
v -330.02435302734375 2.251147985458374 417.44216895103455
v -344.40237379074097 3.930901050567627 448
v -346.71994018554688 3.942296028137207 448
v -342.31741333007812 3.8254380226135254 448
v -329.17507934570312 3.6998341083526611 433.39239501953125
v -320 0.33497199416160583 400.91921997070312
v -320 1.0653419494628906 406.29794311523438
v -320 2.0194640159606934 416.9135439991951
v -320 2.9068100452423096 426.45596313476562
v -328.4058837890625 3.3081769943237305 448
v -320 3.4987320899963379 432.90847778320312
v -327.121337890625 3.2782878875732422 448
v -320 3.3151109218597412 440.08489990234375
v -320 3.2578859329223633 448
vt 0.83634400367736816 0.0041570067405700684
vt 0.91358798742294312 0.068801999092102051
vt 0.90778201818466187 0.0024420022964477539
vt 0.97251099348068237 0.000276029109954834
vt 0.9747130274772644 0.063508987426757812
vt 0.934689998626709 0.0015410184860229492
vt 0.97672897577285767 0.12189501523971558
vt 0.66246497631073 0.0081549882888793945
vt 0.668986976146698 0.087346971035003662
vt 0.41949599981307983 0.014703989028930664
vt 0.32196500897407532 0.016649007797241211
vt 0.42618399858474731 0.1068350076675415
vt 0.57820999622344971 0.010389983654022217
vt 0.6909099817276001 0.32761299610137939
vt 0.18664200603961945 0.12782597541809082
vt 0.44719699025154114 0.3467329740524292
vt 0.17874699831008911 0.019465982913970947
vt 0.0025820001028478146 0.13584202527999878
vt 0.049601998180150986 0.021297991275787354
vt 0.0023399998899549246 0.074083983898162842
vt 0.079755999147892 0.021238029003143311
vt 0.0021879998967051506 0.021418988704681396
vt 0.0068430001847445965 0.19948798418045044
vt 0.20754599571228027 0.36746197938919067
vt 0.93367999792099 0.30861401557922363
vt 0.98221200704574585 0.30462098121643066
vt 0.98358297348022461 0.35091400146484375
vt 0.95297098159790039 0.548321008682251
vt 0.98886501789093018 0.54545500874519348
vt 0.98974400758743286 0.57975101470947266
vt 0.71108800172805786 0.56740701198577881
vt 0.99431800842285156 0.80890700221061707
vt 0.99387502670288086 0.786749005317688
vt 0.97067201137542725 0.788453996181488
vt 0.991690993309021 0.96457500010728836
vt 0.98391598463058472 0.96474400162696838
vt 0.99781197309494019 0.9644399993121624
vt 0.81554502248764038 0.96884600073099136
vt 0.73026901483535767 0.807107999920845
vt 0.013287999667227268 0.38468402624130249
vt 0.46889600157737732 0.58649998903274536
vt 0.22766399383544922 0.6056390106678009
vt 0.48840698599815369 0.82620599865913391
vt 0.020865999162197113 0.62452799081802368
vt 0.020725000649690628 0.59046998620033264
vt 0.021748999133706093 0.65479698777198792
vt 0.24779699742794037 0.84548300504684448
vt 0.74251598119735718 0.97063600085675716
vt 0.66084998846054077 0.97274599969387054
vt 0.50049102306365967 0.97684000059962273
vt 0.35653099417686462 0.98070799931883812
vt 0.028364000841975212 0.864207997918129
vt 0.2590470016002655 0.98333700001239777
vt 0.028860999271273613 0.8828359991312027
vt 0.15105199813842773 0.98650399968028069
vt 0.031975001096725464 0.98996799997985363
vn 0.0330669991672039 0.97992098331451416 -0.19662599265575409
vn 0.046668998897075653 0.99287599325180054 -0.10963000357151032
vn 0.059797000139951706 0.99294102191925049 -0.10243400186300278
vn 0.064391002058982849 0.99770200252532959 -0.021067000925540924
vn 0.057725999504327774 0.99811702966690063 -0.020721999928355217
vn 0.064391002058982849 0.99770200252532959 -0.021067000925540924
vn 0.04550199955701828 0.998652994632721 -0.024952000007033348
vn 0.030052000656723976 0.98940002918243408 -0.14207500219345093
vn 0.037599001079797745 0.98489600419998169 -0.16901299357414246
vn -0.047035999596118927 0.99555999040603638 -0.081528998911380768
vn -0.037459000945091248 0.99929600954055786 -0.0020590000785887241
vn 0.0078910002484917641 0.99614900350570679 -0.087324000895023346
vn -0.031284000724554062 0.98924100399017334 -0.1429080069065094
vn 0.049084998667240143 0.98401999473571777 -0.17115700244903565
vn 0.0028550000861287117 0.99971300363540649 0.023768000304698944
vn 0.05938899889588356 0.99281102418899536 -0.103923000395298
vn -0.034058000892400742 0.99896401166915894 0.030177999287843704
vn 0.0022819999139755964 0.99837297201156616 0.05697999894618988
vn -0.02640100009739399 0.99829798936843872 0.052003998309373856
vn -0.027163999155163765 0.99823302030563354 0.052850000560283661
vn -0.032501000910997391 0.99774199724197388 0.05877000093460083
vn -0.00962700042873621 0.999396026134491 0.033387001603841782
vn 0.032228998839855194 0.99807900190353394 0.0529169999063015
vn 0.025808999314904213 0.99966198205947876 -0.0030249999836087227
vn 0.031431999057531357 0.99456000328063965 -0.099307000637054443
vn 0.030040999874472618 0.99921298027038574 -0.025915000587701797
vn 0.017142999917268753 0.9995729923248291 -0.023670999333262444
vn -0.0087519995868206024 0.99726498126983643 -0.07339400053024292
vn -0.019339999184012413 0.99958902597427368 -0.021169999614357948
vn -0.05058399960398674 0.99865400791168213 -0.011450000107288361
vn 0.025996999815106392 0.98862600326538086 -0.14812999963760376
vn -0.034370001405477524 0.99936801195144653 0.0090260002762079239
vn -0.0504859983921051 0.9986879825592041 -0.00853199977427721
vn -0.042440999299287796 0.99835199117660522 -0.038623001426458359
vn -0.027350999414920807 0.99950802326202393 0.015345999971032143
vn -0.029604999348521233 0.99918502569198608 -0.027427000924944878
vn -0.027350999414920807 0.99950802326202393 0.015344999730587006
vn -0.0300890002399683 0.996720016002655 -0.075129002332687378
vn -0.018402000889182091 0.993245005607605 -0.11456599831581116
vn 0.010603000409901142 0.99882400035858154 0.047309000045061111
vn 0.037470001727342606 0.99196398258209229 -0.12084800004959106
vn 0.020638000220060349 0.99913901090621948 -0.036001000553369522
vn 0.014132999815046787 0.9936710000038147 -0.11143399775028229
vn 0.02848299965262413 0.99887102842330933 0.03802800178527832
vn 0.0030730001162737608 0.99914097785949707 0.041322000324726105
vn 0.046925000846385956 0.99833202362060547 0.0336339995265007
vn 0.031968999654054642 0.99897700548172 -0.03197300061583519
vn -0.030849000439047813 0.99406802654266357 -0.10429699718952179
vn -0.020592000335454941 0.99205797910690308 -0.12408299744129181
vn 0.018214000388979912 0.99568599462509155 -0.090985998511314392
vn 0.017304999753832817 0.99563902616500854 -0.091668002307415009
vn 0.02996399998664856 0.99923300743103027 0.025213999673724174
vn 0.020059000700712204 0.999189019203186 -0.034924998879432678
vn 0.01781499944627285 0.99962699413299561 0.02067900076508522
vn 0.018500000238418579 0.99960201978683472 0.021294999867677689
vn 0.0028649999294430017 0.999970018863678 0.0072300001047551632
f 1/1/1 2/2/2 3/3/3
f 4/4/4 2/2/2 5/5/5
f 4/4/4 6/6/6 2/2/2
f 6/6/6 3/3/3 2/2/2
f 5/5/5 2/2/2 7/7/7
f 2/2/2 8/8/8 9/9/9
f 2/2/2 1/1/1 8/8/8
f 10/10/10 11/11/11 12/12/12
f 10/10/10 9/9/9 13/13/13
f 10/10/10 12/12/12 9/9/9
f 9/9/9 12/12/12 14/14/14
f 12/12/12 15/15/15 16/16/16
f 17/17/17 12/12/12 11/11/11
f 17/17/17 15/15/15 12/12/12
f 18/18/18 19/19/19 20/20/20
f 18/18/18 21/21/21 19/19/19
f 21/21/21 15/15/15 17/17/17
f 21/21/21 18/18/18 15/15/15
f 22/22/22 20/20/20 19/19/19
f 23/23/23 15/15/15 18/18/18
f 23/23/23 24/24/24 15/15/15
f 8/8/8 13/13/13 9/9/9
f 25/25/25 2/2/2 9/9/9
f 9/9/9 14/14/14 25/25/25
f 26/26/26 25/25/25 27/27/27
f 28/28/28 25/25/25 14/14/14
f 27/27/27 28/28/28 29/29/29
f 27/27/27 25/25/25 28/28/28
f 29/29/29 28/28/28 30/30/30
f 14/14/14 31/31/31 28/28/28
f 12/12/12 16/16/16 14/14/14
f 7/7/7 25/25/25 26/26/26
f 7/7/7 2/2/2 25/25/25
f 32/32/32 33/33/33 34/34/34
f 35/35/35 34/34/34 36/36/36
f 35/35/35 32/32/32 34/34/34
f 35/35/35 37/37/37 32/32/32
f 34/34/34 30/30/30 28/28/28
f 34/34/34 33/33/33 30/30/30
f 36/36/36 34/34/34 38/38/38
f 28/28/28 39/39/39 34/34/34
f 23/23/23 40/40/40 24/24/24
f 16/16/16 24/24/24 41/41/41
f 41/41/41 31/31/31 16/16/16
f 31/31/31 41/41/41 39/39/39
f 41/41/41 42/42/42 43/43/43
f 42/42/42 41/41/41 24/24/24
f 14/14/14 16/16/16 31/31/31
f 44/44/44 24/24/24 45/45/45
f 44/44/44 42/42/42 24/24/24
f 45/45/45 24/24/24 40/40/40
f 46/46/46 42/42/42 44/44/44
f 46/46/46 47/47/47 42/42/42
f 16/16/16 15/15/15 24/24/24
f 43/43/43 39/39/39 41/41/41
f 48/48/48 43/43/43 49/49/49
f 48/48/48 39/39/39 43/43/43
f 50/50/50 49/49/49 43/43/43
f 38/38/38 39/39/39 48/48/48
f 38/38/38 34/34/34 39/39/39
f 50/50/50 43/43/43 51/51/51
f 52/52/52 47/47/47 46/46/46
f 53/53/53 54/54/54 55/55/55
f 53/53/53 47/47/47 54/54/54
f 47/47/47 52/52/52 54/54/54
f 56/56/56 55/55/55 54/54/54
f 51/51/51 47/47/47 53/53/53
f 51/51/51 43/43/43 47/47/47
f 47/47/47 43/43/43 42/42/42
f 28/28/28 31/31/31 39/39/39
