mtllib m033011.mtl
usemtl material0
v -320 3.2513160705566406 448.90872192382812
v -320 2.5167379379272461 456.97445678710938
v -312.37994384765625 3.2323930263519287 448.50640869140625
v -320 3.2561171054840088 448.24462890625
v -312.40664672851562 3.236130952835083 448
v -320 3.2578859329223633 448
v -311.92431640625 3.2273130416870117 448
v -311.54110717773438 2.5159270763397217 464.46377563476562
v -302.77920532226562 3.0433681011199951 448
v -296.72781372070312 2.9102630615234375 448
v -320 2.1430160999298096 464.91159057617188
v -320 1.4941259622573853 472.05838012695312
v -310.70565795898438 1.0996910333633423 480.42346200346947
v -295.58898878097534 1.894698977470398 463.623291015625
v -296.40875244140625 2.8967959880828857 448
v -281.5313720703125 2.570314884185791 448
v -280.41067504882812 2.5940010547637939 448
v -279.63214111328125 2.25238299369812 462.77957153320312
v -266.33499145507812 2.185250997543335 448
v -294.75177001953125 0.84466797113418579 479.58175700902939
v -256 1.5917550325393677 453.40286254882812
v -264.41336059570312 2.1373510360717773 448
v -263.67886352539062 1.8697700500488281 461.93832397460938
v -256 1.6799999475479126 448
v -256 1.5636390447616577 454.92486572265625
v -256 1.4415479898452759 461.53411865234375
v -256 1.5508999824523926 468.849365234375
v -262.83816528320312 1.5443350076675415 477.89437890052795
v -278.79290771484375 1.6217780113220215 478.73666405677795
v -320 0.86538600921630859 480.91497802734375
v -320 0.965919017791748 490.75363159179688
v -309.86593627929688 0.56471198797225952 496.38021850585938
v -293.91052198410034 0.628042995929718 495.5374755859375
v -320 0.76636201143264771 496.91473388671875
v -309.04910278320312 -0.98632502555847168 512
v -320 0.22274500131607056 502.46249389648438
v -309.4093017578125 -0.977295994758606 512
v -320 0.23377500474452972 502.34994506835938
v -302.59637546539307 -0.81738299131393433 512
v -293.07376098632812 -0.51735299825668335 511.49624633789062
v -308.72494506835938 -0.98673802614212036 512
v -320 -0.14520500600337982 512
v -277.95388793945312 0.94324702024459839 494.69390869140625
v -293.04748487472534 -0.58135098218917847 512
v -278.327392578125 0.84421300888061523 512
v -277.11065673828125 1.1406019926071167 510.64825439453125
v -262.00222778320312 0.23007300496101379 493.85372924804688
v -256 1.3849049806594849 477.53378295898438
v -256 0.60421097278594971 487.18316698074341
v -261.1590576171875 0.41668599843978882 509.80810546875
v -277.03970336914062 1.0577600002288818 512
v -261.04330444335938 0.4217190146446228 512
v -263.13116455078125 0.38353300094604492 512
v -256 0.16658000648021698 509.53643798828125
v -256 0.17203700542449951 510.66323852539062
v -256 0.17851099371910095 512
v -256 0.29350298643112183 504.07369995117188
v -256 0.16453799605369568 493.53695678710938
vt 0.95352500677108765 0.00058400630950927734
vt 0.83136802911758423 0.0048570036888122559
vt 0.96356201171875 0.11530900001525879
vt 0.96354198455810547 0.00023800134658813477
vt 0.97118699550628662 0.11464202404022217
vt 0.96723097562789917 0.00011098384857177734
vt 0.97143697738647461 0.12191802263259888
vt 0.723097026348114 0.13657897710800171
vt 0.97624701261520386 0.25987702608108521
vt 0.979423999786377 0.35117197036743164
vt 0.71152400970458984 0.0091390013694763184
vt 0.60328298807144165 0.012816011905670166
vt 0.48185500502586365 0.15740001201629639
vt 0.74392098188400269 0.37694400548934937
vt 0.97958701848983765 0.35598897933959961
vt 0.98744100332260132 0.58043599128723145
vt 0.9880639910697937 0.59734201431274414
vt 0.76552498340606689 0.61719301342964172
vt 0.99564999341964722 0.80972599983215332
vt 0.50234997272491455 0.39766901731491089
vt 0.91811102628707886 0.96929400041699409
vt 0.99491101503372192 0.839136004447937
vt 0.78508502244949341 0.85818099975585938
vt 0.99960297346115112 0.96621200069785118
vt 0.89446800947189331 0.97083400003612041
vt 0.79475498199462891 0.974006999284029
vt 0.68439000844955444 0.97731399908661842
vt 0.54474097490310669 0.87840499728918076
vt 0.52387398481369019 0.63818201422691345
vt 0.4693630039691925 0.017445027828216553
vt 0.32096898555755615 0.022858977317810059
vt 0.24144800007343292 0.17800301313400269
vt 0.26207000017166138 0.41825699806213379
vt 0.22845099866390228 0.025368988513946533
vt 0.0051199998706579208 0.19848799705505371
vt 0.14437299966812134 0.0282670259475708
vt 0.0049450001679360867 0.19305199384689331
vt 0.14607900381088257 0.028208017349243164
vt 0.008488999679684639 0.29543399810791016
vt 0.021144000813364983 0.43880301713943481
vt 0.0052439998835325241 0.20296299457550049
vt 0.00039599998854100704 0.032788991928100586
vt 0.28300699591636658 0.65854799747467041
vt 0.013501999899744988 0.439503014087677
vt 0.021616000682115555 0.662431001663208
vt 0.0428600013256073 0.68037799000740051
vt 0.30316498875617981 0.89902099967002869
vt 0.55292099714279175 0.98145500011742115
vt 0.40689599514007568 0.98627000022679567
vt 0.063908003270626068 0.92078199982643127
vt 0.02246600016951561 0.68211200833320618
vt 0.030913999304175377 0.9237390011548996
vt 0.029760999605059624 0.892244003713131
vt 0.070952996611595154 0.99852300004567951
vt 0.053877998143434525 0.99915200000396
vt 0.033716998994350433 0.99988899999880232
vt 0.15335600078105927 0.99531000014394522
vt 0.31082600355148315 0.98941399995237589
vn 0.005140999797731638 0.99871599674224854 0.050402998924255371
vn -0.030170999467372894 0.99790799617767334 0.057186000049114227
vn 0.0067369998432695866 0.99947202205657959 0.031785000115633011
vn 0.0028649999294430017 0.999970018863678 0.0072300001047551632
vn 0.010312999598681927 0.9999229907989502 0.0068359998986124992
vn 0.0028649999294430017 0.999970018863678 0.0072300001047551632
vn 0.019620999693870544 0.99977797269821167 0.00762399984523654
vn -0.0042960001155734062 0.99778497219085693 0.066377997398376465
vn 0.021937999874353409 0.99883002042770386 0.0430929996073246
vn 0.0367170013487339 0.99770301580429077 0.0569319985806942
vn -0.0402659997344017 0.99677199125289917 0.0694580003619194
vn -0.0343719981610775 0.99577599763870239 0.085143998265266418
vn 0.0014659999869763851 0.99859601259231567 0.052946999669075012
vn 0.013005999848246574 0.99835902452468872 0.055769998580217361
vn 0.032343998551368713 0.99753397703170776 0.062286000698804855
vn -0.0096349995583295822 0.99935698509216309 0.034547001123428345
vn 0.0031079999171197414 0.99973201751708984 0.022943999618291855
vn 0.000387999985832721 0.99959701299667358 0.028398999944329262
vn 0.026010999456048012 0.99948400259017944 0.018861999735236168
vn -0.013543000444769859 0.998865008354187 0.045662999153137207
vn 0.054825000464916229 0.998354971408844 0.016805000603199005
vn 0.039099998772144318 0.99908900260925293 0.017119999974966049
vn 0.036246001720428467 0.99924302101135254 0.014107000082731247
vn 0.054273001849651337 0.99839299917221069 0.016307000070810318
vn 0.056637998670339584 0.99822402000427246 0.018440000712871552
vn 0.055801000446081162 0.99843901395797729 0.002314999932423234
vn 0.032481998205184937 0.999422013759613 0.010022000409662724
vn 0.023914000019431114 0.99858897924423218 0.047410000115633011
vn -0.01281300000846386 0.99906301498413086 0.0413299985229969
vn -0.023662000894546509 0.999301016330719 0.028934000059962273
vn 0.010552999563515186 0.99969202280044556 0.022439999505877495
vn 0.013764999806880951 0.99791800975799561 0.063001997768878937
vn -0.01621600054204464 0.99859297275543213 0.050482999533414841
vn 0.023331999778747559 0.99754500389099121 0.0660260021686554
vn 0.012702000327408314 0.9950910210609436 0.098148003220558166
vn 0.03915100172162056 0.99587702751159668 0.08183000236749649
vn 0.037377998232841492 0.99578201770782471 0.083787001669406891
vn 0.024935999885201454 0.99492299556732178 0.097494997084140778
vn -0.027498999610543251 0.99688500165939331 0.073918998241424561
vn -0.052035998553037643 0.99448102712631226 0.091099001467227936
vn -0.0064280000515282154 0.99574899673461914 0.091886997222900391
vn 0.078268997371196747 0.99619102478027344 0.03843199834227562
vn -0.0013930000131949782 0.999530017375946 0.030628999695181847
vn -0.061076000332832336 0.98977100849151611 0.128930002450943
vn -0.11349000036716461 0.98694902658462524 0.11424800008535385
vn -0.03527899831533432 0.99878799915313721 0.034331001341342926
vn 0.031076999381184578 0.999006986618042 0.03193100169301033
vn 0.025855999439954758 0.9984700083732605 0.048875998705625534
vn 0.024465000256896019 0.99665999412536621 0.0779149979352951
vn 0.0344570018351078 0.99939900636672974 0.0038250000216066837
vn -0.054499000310897827 0.99646502733230591 0.0639289990067482
vn 0.016063999384641647 0.99986600875854492 -0.0031439999584108591
vn 0.030577000230550766 0.99862402677536011 0.042615000158548355
vn 0.048927001655101776 0.99875599145889282 0.0096469996497035027
vn 0.048167001456022263 0.99882799386978149 -0.00483699981123209
vn 0.04816799983382225 0.99882799386978149 -0.00483699981123209
vn 0.019463999196887016 0.99980300664901733 -0.0039659999310970306
vn 0.012484000064432621 0.99947899580001831 0.029773000627756119
f 1/1/1 2/2/2 3/3/3
f 1/1/1 3/3/3 4/4/4
f 4/4/4 5/5/5 6/6/6
f 4/4/4 3/3/3 5/5/5
f 5/5/5 3/3/3 7/7/7
f 8/8/8 9/9/9 3/3/3
f 8/8/8 10/10/10 9/9/9
f 11/11/11 3/3/3 2/2/2
f 11/11/11 8/8/8 3/3/3
f 12/12/12 8/8/8 11/11/11
f 12/12/12 13/13/13 8/8/8
f 14/14/14 10/10/10 8/8/8
f 14/14/14 15/15/15 10/10/10
f 15/15/15 14/14/14 16/16/16
f 17/17/17 18/18/18 19/19/19
f 18/18/18 16/16/16 14/14/14
f 18/18/18 17/17/17 16/16/16
f 8/8/8 20/20/20 14/14/14
f 9/9/9 7/7/7 3/3/3
f 21/21/21 22/22/22 23/23/23
f 21/21/21 24/24/24 22/22/22
f 25/25/25 23/23/23 26/26/26
f 25/25/25 21/21/21 23/23/23
f 23/23/23 19/19/19 18/18/18
f 23/23/23 22/22/22 19/19/19
f 26/26/26 23/23/23 27/27/27
f 18/18/18 28/28/28 23/23/23
f 14/14/14 29/29/29 18/18/18
f 30/30/30 31/31/31 13/13/13
f 20/20/20 13/13/13 32/32/32
f 13/13/13 20/20/20 8/8/8
f 20/20/20 32/32/32 33/33/33
f 34/34/34 13/13/13 31/31/31
f 34/34/34 32/32/32 13/13/13
f 12/12/12 30/30/30 13/13/13
f 35/35/35 36/36/36 37/37/37
f 35/35/35 38/38/38 36/36/36
f 38/38/38 32/32/32 34/34/34
f 38/38/38 35/35/35 32/32/32
f 33/33/33 39/39/39 40/40/40
f 33/33/33 41/41/41 39/39/39
f 42/42/42 37/37/37 36/36/36
f 33/33/33 40/40/40 43/43/43
f 41/41/41 32/32/32 35/35/35
f 41/41/41 33/33/33 32/32/32
f 39/39/39 44/44/44 40/40/40
f 29/29/29 20/20/20 33/33/33
f 45/45/45 40/40/40 44/44/44
f 45/45/45 46/46/46 40/40/40
f 40/40/40 46/46/46 43/43/43
f 29/29/29 43/43/43 28/28/28
f 47/47/47 43/43/43 46/46/46
f 43/43/43 47/47/47 28/28/28
f 48/48/48 47/47/47 49/49/49
f 48/48/48 28/28/28 47/47/47
f 47/47/47 46/46/46 50/50/50
f 18/18/18 29/29/29 28/28/28
f 45/45/45 51/51/51 46/46/46
f 52/52/52 50/50/50 53/53/53
f 54/54/54 50/50/50 55/55/55
f 55/55/55 52/52/52 56/56/56
f 55/55/55 50/50/50 52/52/52
f 46/46/46 53/53/53 50/50/50
f 46/46/46 51/51/51 53/53/53
f 57/57/57 47/47/47 50/50/50
f 57/57/57 58/58/58 47/47/47
f 33/33/33 43/43/43 29/29/29
f 57/57/57 50/50/50 54/54/54
f 49/49/49 47/47/47 58/58/58
f 27/27/27 28/28/28 48/48/48
f 27/27/27 23/23/23 28/28/28
f 14/14/14 20/20/20 29/29/29
