mtllib m0333333220.mtl
usemtl material0
v -31.543565988540649 3.1830930709838867 4
v -30.819693028926849 3.0830709934234619 4.6520470380783081
v -30.8539559841156 3.1141979694366455 4
v -32 3.226111888885498 4
v -31.816529989242554 3.1560111045837402 4.7044550180435181
v -31.85345995426178 3.2068800926208496 4
v -32 3.1853229999542236 4.6243560314178467
v -29.433197021484375 3.0586869716644287 4
v -28.825503945350647 3.0411911010742188 4.5468729734420776
v -28.854357004165649 3.0448079109191895 4
v -28 3.0652370452880859 4
v -28.377450942993164 3.0610830783843994 4
v -28 3.07110595703125 4.3395090103149414
v -30.488566994667053 3.0994720458984375 4
v -29.822680994868279 3.0452859401702881 4.5995179414749146
v -29.854249998927116 3.0609920024871826 4
v -30.767246007919312 3.0427839756011963 5.64937499165535
v -28.772891998291016 3.0350840091705322 5.5440829992294312
v -28 3.0697290897369385 4.5031900405883789
v -28 3.0776979923248291 5.2892850041389465
v -29.770156994462013 3.0211119651794434 5.5967899858951569
v -32 3.1837060451507568 4.64096200466156
v -32 3.1673760414123535 4.8086199760437012
v -31.764181017875671 3.09619402885437 5.70184999704361
v -32 3.0772991180419922 6.57346498966217
v -31.7117919921875 3.0446760654449463 6.6992170214653015
v -32 3.1174929141998291 5.7142350077629089
v -30.714766979217529 3.0093328952789307 6.6466789841651917
v -30.662236988544464 2.9866230487823486 7.6439460515975952
v -29.717592000961304 3.0052390098571777 6.5940340161323547
v -28.720255017280579 3.033858060836792 6.5412759780883789
v -29.664992988109589 2.9962010383605957 7.5912539958953857
v -32 3.0557129383087158 6.8628519773483276
v -28 3.0757989883422852 5.5031389892101288
v -28 3.0825560092926025 6.2390740066766739
v -28 3.0813169479370117 6.5030909776687622
v -28.667595028877258 3.0375149250030518 7.5384540557861328
v -28 3.0813720226287842 6.79652601480484
v -32 3.0181789398193359 8
v -31.643362045288086 2.9974150657653809 8
v -32 3.0189940929412842 7.964771032333374
v -31.659342050552368 3.0053660869598389 7.6965409517288208
v -32 3.0247840881347656 7.7144680023193359
v -29.643438011407852 2.9918959140777588 8
v -30.266488999128342 2.9862740039825439 8
v -28.643236041069031 3.0362699031829834 8
v -29.210529029369354 3.0129179954528809 8
v -30.643473029136658 2.9802579879760742 8
v -31.322150945663452 2.9936180114746094 8
v -28 3.0880370140075684 7.5030390024185181
v -28 3.0898149013519287 8
v -28.15423595905304 3.0781140327453613 8
v -28 3.0892400741577148 7.8391389846801758
vt 0 0.11410897970199585
vt 0.16301199793815613 0.29507702589035034
vt 0 0.28651100397109985
vt 0 0
vt 0.17611399292945862 0.045867025852203369
vt 0 0.036634981632232666
vt 0.15608899295330048 0
vt 0 0.64170101284980774
vt 0.13671800494194031 0.79362399876117706
vt 0 0.78641100227832794
vt 0 1
vt 0 0.90563700348138809
vt 0.084876999258995056 1
vt 0 0.37785798311233521
vt 0.14987899363040924 0.54433000087738037
vt 0 0.53643798828125
vt 0.41234400868415833 0.30818802118301392
vt 0.38602098822593689 0.80677700042724609
vt 0.12579800188541412 1
vt 0.32232099771499634 1
vt 0.39919701218605042 0.55746099352836609
vt 0.16024099290370941 0
vt 0.20215499401092529 0
vt 0.425462007522583 0.058955013751983643
vt 0.64336597919464111 0
vt 0.6748039722442627 0.072052001953125
vt 0.42855900526046753 0
vt 0.6616700291633606 0.32130801677703857
vt 0.91098701953887939 0.33444100618362427
vt 0.64850902557373047 0.57060199975967407
vt 0.63531899452209473 0.81993600726127625
vt 0.89781397581100464 0.58375200629234314
vt 0.7157130241394043 0
vt 0.37578499317169189 1
vt 0.55976897478103638 1
vt 0.625773012638092 1
vt 0.88461399078369141 0.83310100436210632
vt 0.69913101196289062 1
vt 1 0
vt 1 0.089159011840820312
vt 0.99119299650192261 0
vt 0.92413502931594849 0.085165023803710938
vt 0.928617000579834 0
vt 1 0.589139997959137
vt 1 0.43337798118591309
vt 1 0.8391910046339035
vt 1 0.69736799597740173
vt 1 0.33913201093673706
vt 1 0.16946202516555786
vt 0.875760018825531 1
vt 1 1
vt 1 0.96144099906086922
vt 0.959784984588623 1
vn 0.092215999960899353 0.99447399377822876 0.050175998359918594
vn 0.054894998669624329 0.99762099981307983 0.041701000183820724
vn 0.0789399966597557 0.995934009552002 0.043395001441240311
vn 0.12985299527645111 0.98942399024963379 0.064639002084732056
vn 0.075848996639251709 0.99567097425460815 0.05372299998998642
vn 0.081863999366760254 0.9943540096282959 0.067510999739170074
vn 0.12949499487876892 0.98941701650619507 0.065459996461868286
vn 0.016181999817490578 0.999770998954773 0.014003000222146511
vn -0.018136000260710716 0.999800980091095 0.00828699953854084
vn -0.0022700000554323196 0.99997502565383911 0.0067329998128116131
vn -0.011002999730408192 0.9997900128364563 -0.01728300005197525
vn -0.03014799952507019 0.99953699111938477 0.0040070000104606152
vn -0.029347000643610954 0.999563992023468 0.0031169999856501818
vn 0.046404998749494553 0.99817401170730591 0.03867499902844429
vn 0.017921999096870422 0.99957501888275146 0.023009000346064568
vn 0.022805999964475632 0.99942797422409058 0.024981999769806862
vn 0.046728998422622681 0.99814498424530029 0.039034999907016754
vn -0.027789000421762466 0.9995729923248291 0.0090800002217292786
vn -0.034915000200271606 0.99936598539352417 -0.0069360001944005489
vn -0.038734998553991318 0.99923098087310791 -0.0060660000890493393
vn 0.010896000079810619 0.999625027179718 0.02512500062584877
vn 0.1159060001373291 0.98858201503753662 0.096285998821258545
vn 0.0963359996676445 0.99345999956130981 0.061289001256227493
vn 0.05811300128698349 0.997232973575592 0.046360999345779419
vn 0.090502999722957611 0.9946100115776062 0.05059799924492836
vn 0.041154000908136368 0.99843800067901611 0.0377810001373291
vn 0.092541001737117767 0.994350016117096 0.052003998309373856
vn 0.022037999704480171 0.99942302703857422 0.02586200088262558
vn 0.011672999709844589 0.99965000152587891 0.023724999278783798
vn -0.012063000351190567 0.99986797571182251 0.010873000137507916
vn -0.04439999908208847 0.99900799989700317 0.00344299990683794
vn -0.021647000685334206 0.99971801042556763 0.0097139999270439148
vn 0.064226001501083374 0.99687999486923218 0.045882001519203186
vn -0.052494000643491745 0.998619019985199 0.0021100000012665987
vn -0.060777001082897186 0.99815100431442261 -0.00059100001817569137
vn -0.0657150000333786 0.997838020324707 0.00065000000176951289
vn -0.059335999190807343 0.99823802709579468 -0.0010509999701753259
vn -0.072966001927852631 0.99731200933456421 -0.0067019998095929623
vn 0.058106999844312668 0.9980430006980896 0.023093000054359436
vn 0.037409000098705292 0.999006986618042 0.024205999448895454
vn 0.05810600146651268 0.9980430006980896 0.023088999092578888
vn 0.029320999979972839 0.99910300970077515 0.030564999207854271
vn 0.058688998222351074 0.99767798185348511 0.034561999142169952
vn -0.017681999132037163 0.99977797269821167 0.011463000439107418
vn -0.011636000126600266 0.99983501434326172 0.013913000002503395
vn -0.051996000111103058 0.99863201379776 0.005437999963760376
vn -0.044319998472929 0.9989820122718811 0.0084199998527765274
vn 0.012810000218451023 0.99976998567581177 0.017198000103235245
vn 0.017153000459074974 0.99966001510620117 0.019641000777482986
vn -0.0758569985628128 0.99708998203277588 -0.0075249997898936272
vn -0.07564999908208847 0.99712800979614258 -0.0035669999197125435
vn -0.082955002784729 0.99654299020767212 0.0046089999377727509
vn -0.075650997459888458 0.99712800979614258 -0.0035669999197125435
f 1/1/1 2/2/2 3/3/3
f 4/4/4 5/5/5 6/6/6
f 4/4/4 7/7/7 5/5/5
f 8/8/8 9/9/9 10/10/10
f 11/11/11 12/12/12 13/13/13
f 14/14/14 15/15/15 16/16/16
f 5/5/5 17/17/17 2/2/2
f 14/14/14 2/2/2 15/15/15
f 14/14/14 3/3/3 2/2/2
f 9/9/9 16/16/16 15/15/15
f 9/9/9 8/8/8 16/16/16
f 2/2/2 6/6/6 5/5/5
f 2/2/2 1/1/1 6/6/6
f 15/15/15 18/18/18 9/9/9
f 13/13/13 9/9/9 19/19/19
f 13/13/13 12/12/12 9/9/9
f 12/12/12 10/10/10 9/9/9
f 19/19/19 9/9/9 20/20/20
f 2/2/2 21/21/21 15/15/15
f 22/22/22 5/5/5 7/7/7
f 22/22/22 23/23/23 5/5/5
f 24/24/24 25/25/25 26/26/26
f 24/24/24 27/27/27 25/25/25
f 5/5/5 27/27/27 24/24/24
f 5/5/5 23/23/23 27/27/27
f 5/5/5 24/24/24 17/17/17
f 17/17/17 24/24/24 28/28/28
f 28/28/28 26/26/26 29/29/29
f 24/24/24 26/26/26 28/28/28
f 18/18/18 21/21/21 30/30/30
f 15/15/15 21/21/21 18/18/18
f 30/30/30 31/31/31 18/18/18
f 30/30/30 21/21/21 28/28/28
f 21/21/21 17/17/17 28/28/28
f 30/30/30 28/28/28 32/32/32
f 21/21/21 2/2/2 17/17/17
f 33/33/33 26/26/26 25/25/25
f 34/34/34 18/18/18 35/35/35
f 34/34/34 9/9/9 18/18/18
f 34/34/34 20/20/20 9/9/9
f 31/31/31 35/35/35 18/18/18
f 31/31/31 36/36/36 35/35/35
f 36/36/36 37/37/37 38/38/38
f 36/36/36 31/31/31 37/37/37
f 30/30/30 32/32/32 31/31/31
f 39/39/39 40/40/40 41/41/41
f 41/41/41 42/42/42 43/43/43
f 41/41/41 40/40/40 42/42/42
f 26/26/26 43/43/43 42/42/42
f 26/26/26 33/33/33 43/43/43
f 44/44/44 29/29/29 45/45/45
f 44/44/44 32/32/32 29/29/29
f 28/28/28 29/29/29 32/32/32
f 32/32/32 37/37/37 31/31/31
f 46/46/46 32/32/32 47/47/47
f 46/46/46 37/37/37 32/32/32
f 29/29/29 26/26/26 42/42/42
f 48/48/48 42/42/42 49/49/49
f 48/48/48 29/29/29 42/42/42
f 50/50/50 38/38/38 37/37/37
f 51/51/51 37/37/37 52/52/52
f 51/51/51 53/53/53 37/37/37
f 53/53/53 50/50/50 37/37/37
f 49/49/49 42/42/42 40/40/40
f 47/47/47 32/32/32 44/44/44
f 48/48/48 45/45/45 29/29/29
f 52/52/52 37/37/37 46/46/46
