mtllib m033333033.mtl
usemtl material0
v -40 2.4798910617828369 32.13791298866272
v -40 2.3411939144134521 33.856842041015625
v -38.376827001571655 2.3245348930358887 32.052689075469971
v -40 2.1867959499359131 36.138717994093895
v -40 2.0675570964813232 38.0790901184082
v -38.167740106582642 2.0217549800872803 36.0424840003252
v -40 2.0154099464416504 39.219619989395142
v -37.993682980537415 1.8160920143127441 40
v -40 2.0620319843292236 38.193007946014404
v -39.959000110626221 1.9766210317611694 40
v -40 1.9797890186309815 40
v -40 2.3031020164489746 34.391811013221741
v -40 2.3193910121917725 34.138358950614929
v -38.272346019744873 2.1599619388580322 34.04763400554657
v -37.37506902217865 2.2583539485931396 32
v -36.430023014545441 2.1920020580291748 32
v -34.530578970909119 2.0865259170532227 32
v -36.38034799695015 2.1886289119720459 32
v -36.278580009937286 2.0326399803161621 33.942753076553345
v -34.3809620141983 2.0773069858551025 32
v -34.284747958183289 1.9184999465942383 33.837826013565063
v -38.379589080810547 2.3285460472106934 32
v -36.17407999932766 1.8724609613418579 35.937679000198841
v -40 2.0642609596252441 38.139041900634766
v -38.063038110733032 1.9030779600143433 38.037270069122314
v -36.069351002573967 1.7591539621353149 37.932446002960205
v -34.180243968963623 1.758808970451355 35.832747995853424
v -35.964442998170853 1.6819789409637451 39.927086114883423
v -34.0754280090332 1.6635689735412598 37.827453970909119
v -37.959880948066711 1.8132059574127197 40
v -40 2.0620660781860352 38.192188024520874
v -32.63113808631897 1.9801570177078247 32
v -40 2.4892098903656006 32.006508111953735
v -40 2.4896719455718994 32
v -37.350612998008728 1.772197961807251 40
v -36.030045000836253 1.6825000047683716 40
v -35.9606060013175 1.6794790029525757 40
v -33.970469951629639 1.5966470241546631 39.822060108184814
v -34.130561947822571 1.5980830192565918 40
v -32.290843963623047 1.8190070390701294 33.732848882675171
v -32 1.8891299962997437 32.717788934707642
v -32 1.8188430070877075 33.567711114883423
v -32.381572961807251 1.966621994972229 32
v -32 1.9484909772872925 32
v -32 1.8100509643554688 33.717518091201782
v -32 1.70113205909729 35.520743995904922
v -32.186168909072876 1.6949599981307983 35.727649986743927
v -32 1.5995789766311646 37.631939053535461
v -32.081371068954468 1.5953249931335449 37.722370028495789
v -32 1.6948800086975098 35.717819005250931
v -32 1.5932179689407349 37.718078970909119
v -32 1.5293810367584229 39.270092010498047
v -32 1.5120530128479004 39.695884943008423
v -33.961097955703735 1.5923320055007935 40
v -32 1.5113550424575806 39.718276977539062
v -32.231075048446655 1.5154509544372559 40
v -32 1.5108100175857544 39.743155956268311
v -32 1.5048259496688843 40
vt 0.017239000648260117 0
vt 0.23210500180721283 0
vt 0.006585999857634306 0.20289701223373413
vt 0.51734000444412231 0
vt 0.75988602638244629 0
vt 0.50531101226806641 0.22903299331665039
vt 0.90245199203491211 0
vt 1 0.250789999961853
vt 0.77412599325180054 0
vt 1 0.0051249861717224121
vt 1 0
vt 0.29897600412368774 0
vt 0.26729500293731689 0
vt 0.25595399737358093 0.21595698595046997
vt 0 0.32811599969863892
vt 0 0.44624698162078857
vt 0 0.68367800116539
vt 0 0.452455997467041
vt 0.24284400045871735 0.46517801284790039
vt 0 0.70238000154495239
vt 0.22972799837589264 0.71440601348876953
vt 0 0.202551007270813
vt 0.49221000075340271 0.47824001312255859
vt 0.7673799991607666 0
vt 0.75465899705886841 0.24212002754211426
vt 0.74155598878860474 0.49133098125457764
vt 0.479093998670578 0.72746899724006653
vt 0.99088597297668457 0.50444498658180237
vt 0.72843199968338013 0.740570992231369
vt 1 0.25501501560211182
vt 0.77402400970458984 0
vt 0 0.92110799998044968
vt 0.000813000020571053 0
vt 0 0
vt 1 0.33117300271987915
vt 1 0.49624401330947876
vt 1 0.50492399930953979
vt 0.97775697708129883 0.75369100272655487
vt 1 0.733680009841919
vt 0.216606006026268 0.96364500001072884
vt 0.089723996818065643 1
vt 0.19596399366855621 1
vt 0 0.95230299979448318
vt 0 1
vt 0.21468999981880188 1
vt 0.44009301066398621 1
vt 0.46595600247383118 0.97672899998724461
vt 0.70399200916290283 1
vt 0.71529597043991089 0.98982900008559227
vt 0.4647270143032074 1
vt 0.71476000547409058 1
vt 0.90876197814941406 1
vt 0.9619860053062439 1
vt 1 0.75486299395561218
vt 0.96478497982025146 1
vt 1 0.97111600078642368
vt 0.967894971370697 1
vt 1 1
vn 0.099102996289730072 0.99190902709960938 0.079346999526023865
vn 0.098638996481895447 0.99193602800369263 0.079585000872612
vn 0.0909620001912117 0.99279999732971191 0.077940002083778381
vn 0.092836998403072357 0.9936559796333313 0.063474997878074646
vn 0.092514000833034515 0.99384802579879761 0.060881000012159348
vn 0.086452998220920563 0.99440401792526245 0.060711998492479324
vn 0.08128800243139267 0.99566400051116943 0.045219000428915024
vn 0.081390000879764557 0.9956589937210083 0.045145999640226364
vn 0.081329002976417542 0.99566102027893066 0.0452129989862442
vn 0.081237003207206726 0.99566799402236938 0.045221999287605286
vn 0.076958000659942627 0.99599701166152954 0.045462999492883682
vn 0.094098001718521118 0.99344700574874878 0.06487700343132019
vn 0.095560997724533081 0.99255198240280151 0.0755549967288971
vn 0.078564003109931946 0.99425601959228516 0.072678998112678528
vn 0.069817997515201569 0.99448198080062866 0.078299000859260559
vn 0.06828799843788147 0.99468898773193359 0.077004998922348022
vn 0.055424999445676804 0.99545198678970337 0.0774800032377243
vn 0.055279999971389771 0.9954950213432312 0.077035002410411835
vn 0.062623001635074615 0.99499702453613281 0.077846996486186981
vn 0.0585860013961792 0.9948350191116333 0.082897000014781952
vn 0.05778300017118454 0.99516397714614868 0.0794299989938736
vn 0.0883530005812645 0.99355500936508179 0.071013003587722778
vn 0.068428002297878265 0.99552899599075317 0.065105997025966644
vn 0.085335001349449158 0.99519699811935425 0.0479619987308979
vn 0.077189996838569641 0.99592000246047974 0.046748999506235123
vn 0.061613999307155609 0.99711298942565918 0.044371001422405243
vn 0.04898500069975853 0.99701499938964844 0.0596730001270771
vn 0.0579960010945797 0.99768298864364624 0.035572998225688934
vn 0.04236999899148941 0.9983140230178833 0.039678998291492462
vn 0.080874003469944 0.99586600065231323 0.041349001228809357
vn 0.085000999271869659 0.99553197622299194 0.041119001805782318
vn 0.054545000195503235 0.99510002136230469 0.082461997866630554
vn 0.098701000213623047 0.99262398481369019 0.070396997034549713
vn 0.098701000213623047 0.99261802434921265 0.070474997162818909
vn 0.067110002040863037 0.99684399366378784 0.042394999414682388
vn 0.066463999450206757 0.99639701843261719 0.052677001804113388
vn 0.044401001185178757 0.99850398302078247 0.031899001449346542
vn 0.044550001621246338 0.9985470175743103 0.030324999243021011
vn 0.043522000312805176 0.99856799840927124 0.031098000705242157
vn 0.046606998890638351 0.99626702070236206 0.072654999792575836
vn 0.047304000705480576 0.99548202753067017 0.082324996590614319
vn 0.045288000255823135 0.99586302042007446 0.078772999346256256
vn 0.049518998712301254 0.99538499116897583 0.082200996577739716
vn 0.0473020002245903 0.99548202753067017 0.0823260024189949
vn 0.033888999372720718 0.99761497974395752 0.060127001255750656
vn 0.032676998525857925 0.997713029384613 0.059163998812437057
vn 0.033936001360416412 0.9980970025062561 0.051483001559972763
vn 0.0034030000679194927 0.99874097108840942 0.050041001290082932
vn 0.03559499979019165 0.99835997819900513 0.0448249988257885
vn 0.0029660000000149012 0.99884098768234253 0.048046000301837921
vn 0.028116999194025993 0.9986879825592041 0.042796000838279724
vn 0.036058999598026276 0.99852299690246582 0.040649000555276871
vn 0.03674200177192688 0.99851799011230469 0.040160000324249268
vn 0.04345100000500679 0.99881500005722046 0.021932000294327736
vn 0.044805001467466354 0.99854397773742676 0.030043000355362892
vn 0.044486001133918762 0.99876797199249268 0.021973999217152596
vn 0.045784000307321548 0.998682975769043 0.023144999518990517
vn 0.0459199994802475 0.99867397546768188 0.023267999291419983
f 1/1/1 2/2/2 3/3/3
f 4/4/4 5/5/5 6/6/6
f 7/7/7 8/8/8 9/9/9
f 7/7/7 10/10/10 8/8/8
f 11/11/11 10/10/10 7/7/7
f 4/4/4 6/6/6 12/12/12
f 13/13/13 3/3/3 2/2/2
f 13/13/13 14/14/14 3/3/3
f 15/15/15 14/14/14 16/16/16
f 15/15/15 3/3/3 14/14/14
f 17/17/17 18/18/18 19/19/19
f 20/20/20 19/19/19 21/21/21
f 20/20/20 17/17/17 19/19/19
f 19/19/19 16/16/16 14/14/14
f 19/19/19 18/18/18 16/16/16
f 15/15/15 22/22/22 3/3/3
f 19/19/19 14/14/14 23/23/23
f 24/24/24 6/6/6 5/5/5
f 24/24/24 25/25/25 6/6/6
f 6/6/6 25/25/25 23/23/23
f 23/23/23 26/26/26 27/27/27
f 6/6/6 23/23/23 14/14/14
f 26/26/26 28/28/28 29/29/29
f 26/26/26 23/23/23 25/25/25
f 21/21/21 19/19/19 23/23/23
f 24/24/24 30/30/30 25/25/25
f 24/24/24 31/31/31 30/30/30
f 31/31/31 8/8/8 30/30/30
f 31/31/31 9/9/9 8/8/8
f 32/32/32 20/20/20 21/21/21
f 12/12/12 14/14/14 13/13/13
f 12/12/12 6/6/6 14/14/14
f 1/1/1 3/3/3 33/33/33
f 33/33/33 22/22/22 34/34/34
f 33/33/33 3/3/3 22/22/22
f 25/25/25 28/28/28 26/26/26
f 35/35/35 36/36/36 28/28/28
f 36/36/36 37/37/37 28/28/28
f 37/37/37 38/38/38 28/28/28
f 37/37/37 39/39/39 38/38/38
f 25/25/25 35/35/35 28/28/28
f 25/25/25 30/30/30 35/35/35
f 27/27/27 21/21/21 23/23/23
f 27/27/27 40/40/40 21/21/21
f 41/41/41 40/40/40 42/42/42
f 41/41/41 43/43/43 40/40/40
f 41/41/41 44/44/44 43/43/43
f 45/45/45 42/42/42 40/40/40
f 46/46/46 40/40/40 47/47/47
f 46/46/46 45/45/45 40/40/40
f 29/29/29 27/27/27 26/26/26
f 27/27/27 29/29/29 47/47/47
f 48/48/48 47/47/47 49/49/49
f 48/48/48 50/50/50 47/47/47
f 46/46/46 47/47/47 50/50/50
f 48/48/48 49/49/49 51/51/51
f 49/49/49 47/47/47 29/29/29
f 40/40/40 27/27/27 47/47/47
f 52/52/52 29/29/29 53/53/53
f 52/52/52 49/49/49 29/29/29
f 32/32/32 40/40/40 43/43/43
f 32/32/32 21/21/21 40/40/40
f 51/51/51 49/49/49 52/52/52
f 54/54/54 38/38/38 39/39/39
f 55/55/55 56/56/56 57/57/57
f 55/55/55 38/38/38 56/56/56
f 38/38/38 54/54/54 56/56/56
f 57/57/57 56/56/56 58/58/58
f 55/55/55 29/29/29 38/38/38
f 55/55/55 53/53/53 29/29/29
f 38/38/38 29/29/29 28/28/28
