mtllib m0333333232.mtl
usemtl material0
v -23.067229986190796 2.7368299961090088 0
v -24 2.8291909694671631 0.29284894466400146
v -23.054216027259827 2.7724959850311279 0.24308502674102783
v -24 2.8272969722747803 0.28018403053283691
v -23.78532600402832 2.7742269039154053 0
v -24 2.8210949897766113 0.23869895935058594
v -24 3.0535709857940674 1.2896190285682678
v -23.997387051582336 3.0541720390319824 1.2919650077819824
v -24 3.0433809757232666 1.2435140013694763
v -24 2.7944650650024414 0
v -21.067979991436005 2.614483118057251 0
v -21.214384019374847 2.6252191066741943 0
v -21.06056797504425 2.6405720710754395 0.13828897476196289
v -20.068444967269897 2.5481529235839844 0
v -20.159438967704773 2.5548360347747803 0
v -20.063845038414 2.565079927444458 0.0859609842300415
v -22.835609018802643 2.7176339626312256 0
v -22.004013000056148 2.846764087677002 1.1873599886894226
v -22.057294998317957 2.7161540985107422 0.19061994552612305
v -22.067533001303673 2.6816449165344238 0
v -20.0103360414505 2.7392089366912842 1.0825430154800415
v -20 2.5584509372711182 0.082602024078369141
v -20 2.5422348976135254 0.0022900104522705078
v -20 2.5417730808258057 0
v -20 2.5724020004272461 0.14334404468536377
v -21.007044017314911 2.7976229190826416 1.1348609924316406
v -24 2.8366069793701172 0.34149503707885742
v -23.000841021537781 2.9216599464416504 1.239762008190155
v -24 3.0540430545806885 1.2921029925346375
v -23.944679021835327 3.0675959587097168 2.289108008146286
v -24 3.0643010139465332 2.2393620014190674
v -21.950697001069784 2.9816079139709473 2.1840779930353165
v -20.953732013702393 2.8111739158630371 2.1315809935331345
v -22.947632014751434 3.0371329784393311 2.2365539968013763
v -20 2.7468369007110596 1.2744179964065552
v -20 2.77960205078125 2.0400509983301163
v -22.894164979457855 3.2053389549255371 3.2331650257110596
v -20.900030016899109 3.0480010509490967 3.1280280351638794
v -20 2.7802319526672363 2.0812940001487732
v -20 2.7816479206085205 2.988207995891571
v -21.89708100259304 3.1266379356384277 3.1805850267410278
v -24 3.197796106338501 3.2915849685668945
v -23.853163003921509 3.3029780387878418 4
v -23.89138400554657 3.2006471157073975 3.2858400344848633
v -24 3.2847549915313721 3.9062139987945557
v -24 3.2980248928070068 4
v -24 3.0738589763641357 2.3506090044975281
v -22.852998971939087 3.3396511077880859 4
v -23.096415996551514 3.3362629413604736 4
v -20.853034973144531 3.2067749500274658 4
v -20.984894037246704 3.2158830165863037 4
v -20 2.8048720359802246 3.0805410146713257
v -20 3.2342159748077393 3.8775789737701416
v -20 3.2658569812774658 3.936318039894104
v -21.852980002760887 3.2730278968811035 4
v -22.040564998984337 3.2860300540924072 4
v -24 3.0667400360107422 2.29203200340271
v -20 2.7386519908905029 1.0820000171661377
v -20 3.277169942855835 4
vt 0.96974098682403564 0.22737902402877808
vt 0.89228200912475586 0.0067059993743896484
vt 0.91113400459289551 0.23198097944259644
vt 0.89534401893615723 0.0066390037536621094
vt 0.96443599462509155 0.056057989597320557
vt 0.905364990234375 0.0064280033111572266
vt 0.649200975894928 0.011031985282897949
vt 0.64864200353622437 0.01171499490737915
vt 0.66042101383209229 0.010904014110565186
vt 0.96254897117614746 0.0047349929809570312
vt 0.98793697357177734 0.70397400856018066
vt 0.98614501953125 0.668834000825882
vt 0.95430302619934082 0.70664200186729431
vt 0.99846899509429932 0.94256699830293655
vt 0.9974290132522583 0.92087200284004211
vt 0.977541983127594 0.94414699822664261
vt 0.9717479944229126 0.28254002332687378
vt 0.69242399930953979 0.48909401893615723
vt 0.93206501007080078 0.469245970249176
vt 0.97825199365615845 0.46557599306106567
vt 0.73680299520492554 0.96414300054311752
vt 0.97914797067642212 0.9595320001244545
vt 0.9985700249671936 0.95884900167584419
vt 0.99909502267837524 0.95881099998950958
vt 0.96433699131011963 0.95983999967575073
vt 0.714290976524353 0.72659200429916382
vt 0.88055801391601562 0.0069879889488220215
vt 0.67118501663208008 0.25107097625732422
vt 0.64859199523925781 0.011045992374420166
vt 0.41209900379180908 0.03256601095199585
vt 0.42350798845291138 0.018903017044067383
vt 0.45251500606536865 0.50824901461601257
vt 0.47719401121139526 0.74858298897743225
vt 0.4322429895401001 0.270313024520874
vt 0.691116988658905 0.96832000091671944
vt 0.50881201028823853 0.97536800056695938
vt 0.19154100120067596 0.28895002603530884
vt 0.23283199965953827 0.76452000439167023
vt 0.4989820122718811 0.97575799934566021
vt 0.28354600071907043 0.98519700020551682
vt 0.21278800070285797 0.52669799327850342
vt 0.17117999494075775 0.0256500244140625
vt 0.0015709999715909362 0.064677000045776367
vt 0.17317399382591248 0.051537990570068359
vt 0.023460999131202698 0.02906501293182373
vt 0.00090500002261251211 0.029588997364044189
vt 0.3970089852809906 0.01978600025177002
vt 0.0060120001435279846 0.30285501480102539
vt 0.0050300001166760921 0.24519097805023193
vt 0.020996000617742538 0.77863800525665283
vt 0.020486000925302505 0.7476859986782074
vt 0.2610970139503479 0.98555599991232157
vt 0.048684999346733093 0.97892899997532368
vt 0.032969001680612564 0.97864799946546555
vt 0.014138000085949898 0.54132598638534546
vt 0.012664999812841415 0.49650800228118896
vt 0.41099199652671814 0.0193060040473938
vt 0.73704999685287476 0.96661299839615822
vt 0.017620999366044998 0.9787990003824234
vn 0.066148996353149414 0.98672598600387573 -0.14831399917602539
vn 0.0513480007648468 0.98748201131820679 -0.14914000034332275
vn 0.05599299818277359 0.9869229793548584 -0.1511559933423996
vn 0.051438000053167343 0.9876980185508728 -0.1476690024137497
vn 0.062577001750469208 0.98848098516464233 -0.1378059983253479
vn 0.061126001179218292 0.98839098215103149 -0.13909299671649933
vn -0.03802800178527832 0.97737699747085571 -0.20805700123310089
vn 0.024961000308394432 0.99174898862838745 -0.12573899328708649
vn 0.11454900354146957 0.968330979347229 -0.2218409925699234
vn 0.093281999230384827 0.98950099945068359 -0.11039099842309952
vn 0.068175002932548523 0.97970700263977051 -0.18848299980163574
vn 0.0665460005402565 0.9808729887008667 -0.1829179972410202
vn 0.064113996922969818 0.98253399133682251 -0.17469200491905212
vn 0.081188000738620758 0.97708600759506226 -0.19675000011920929
vn 0.0661190003156662 0.97950601577758789 -0.19025500118732452
vn 0.072697997093200684 0.97890102863311768 -0.19096599519252777
vn 0.055543001741170883 0.98352599143981934 -0.17202000319957733
vn 0.067945003509521484 0.99012500047683716 -0.12262199819087982
vn 0.053518999367952347 0.98568499088287354 -0.15987500548362732
vn 0.055217001587152481 0.98198002576828 -0.18073900043964386
vn 0.052317999303340912 0.99291402101516724 -0.10670299828052521
vn 0.0900769978761673 0.97366297245025635 -0.20944400131702423
vn 0.09098699688911438 0.976161003112793 -0.19705699384212494
vn 0.090985998511314392 0.97616797685623169 -0.1970209926366806
vn 0.055886000394821167 0.98070800304412842 -0.18731799721717835
vn 0.049077998846769333 0.99497199058532715 -0.087310001254081726
vn 0.068980000913143158 0.98306000232696533 -0.16980999708175659
vn 0.083369001746177673 0.98564398288726807 -0.14681699872016907
vn -0.054067999124526978 0.99387598037719727 -0.096367999911308289
vn -0.006624000146985054 0.9967769980430603 -0.079952001571655273
vn -0.041271999478340149 0.99894201755523682 -0.020268000662326813
vn 0.094140000641345978 0.98385500907897949 -0.15220800042152405
vn 0.10752899944782257 0.987733006477356 -0.11322899907827377
vn 0.051577001810073853 0.99044102430343628 -0.12793399393558502
vn 0.056138999760150909 0.99751001596450806 -0.042683001607656479
vn 0.038199998438358307 0.99901401996612549 -0.022608000785112381
vn 0.031550001353025436 0.98541802167892456 -0.16720299422740936
vn 0.12321999669075012 0.96313601732254028 -0.23913699388504028
vn 0.031968999654054642 0.99945098161697388 -0.0086489999666810036
vn 0.18707099556922913 0.96663999557495117 -0.17496000230312347
vn 0.0655750036239624 0.98389297723770142 -0.16629800200462341
vn -0.033153999596834183 0.99023497104644775 -0.13540999591350555
vn -0.038635000586509705 0.98943901062011719 -0.13970699906349182
vn -0.026599999517202377 0.98986297845840454 -0.13951499760150909
vn -0.033378999680280685 0.98958700895309448 -0.14000999927520752
vn -0.033378999680280685 0.98958700895309448 -0.14000999927520752
vn -0.030313000082969666 0.99128299951553345 -0.12821599841117859
vn 0.026796000078320503 0.9844059944152832 -0.17385800182819367
vn -0.020682999864220619 0.98620098829269409 -0.16425299644470215
vn -0.00917499978095293 0.98386901617050171 -0.1786549985408783
vn 0.067015998065471649 0.981112003326416 -0.18145899474620819
vn 0.22814400494098663 0.91143399477005 -0.34240201115608215
vn 0.2081419974565506 0.86111098527908325 -0.46385899186134338
vn -0.0037070000544190407 0.96656697988510132 -0.25638899207115173
vn 0.066284999251365662 0.9816250205039978 -0.17893600463867188
vn 0.06727299839258194 0.98169499635696411 -0.17818500101566315
vn -0.019895000383257866 0.99620699882507324 -0.084706999361515045
vn 0.047579001635313034 0.992680013179779 -0.111005999147892
vn -0.080983996391296387 0.98135197162628174 -0.17432700097560883
f 1/1/1 2/2/2 3/3/3
f 1/1/1 4/4/4 2/2/2
f 4/4/4 5/5/5 6/6/6
f 4/4/4 1/1/1 5/5/5
f 7/7/7 8/8/8 9/9/9
f 6/6/6 5/5/5 10/10/10
f 11/11/11 12/12/12 13/13/13
f 14/14/14 15/15/15 16/16/16
f 1/1/1 3/3/3 17/17/17
f 3/3/3 18/18/18 19/19/19
f 20/20/20 3/3/3 19/19/19
f 20/20/20 17/17/17 3/3/3
f 13/13/13 20/20/20 19/19/19
f 13/13/13 12/12/12 20/20/20
f 13/13/13 21/21/21 16/16/16
f 15/15/15 13/13/13 16/16/16
f 15/15/15 11/11/11 13/13/13
f 22/22/22 14/14/14 16/16/16
f 22/22/22 23/23/23 14/14/14
f 23/23/23 24/24/24 14/14/14
f 22/22/22 16/16/16 25/25/25
f 19/19/19 26/26/26 13/13/13
f 3/3/3 27/27/27 28/28/28
f 3/3/3 2/2/2 27/27/27
f 7/7/7 29/29/29 8/8/8
f 27/27/27 8/8/8 28/28/28
f 27/27/27 9/9/9 8/8/8
f 29/29/29 30/30/30 8/8/8
f 29/29/29 31/31/31 30/30/30
f 28/28/28 32/32/32 18/18/18
f 19/19/19 18/18/18 26/26/26
f 13/13/13 26/26/26 21/21/21
f 18/18/18 33/33/33 26/26/26
f 28/28/28 8/8/8 34/34/34
f 26/26/26 35/35/35 21/21/21
f 26/26/26 36/36/36 35/35/35
f 18/18/18 3/3/3 28/28/28
f 34/34/34 30/30/30 37/37/37
f 30/30/30 34/34/34 8/8/8
f 33/33/33 32/32/32 38/38/38
f 32/32/32 33/33/33 18/18/18
f 33/33/33 36/36/36 26/26/26
f 33/33/33 39/39/39 36/36/36
f 39/39/39 33/33/33 40/40/40
f 28/28/28 34/34/34 32/32/32
f 32/32/32 34/34/34 41/41/41
f 42/42/42 43/43/43 44/44/44
f 42/42/42 45/45/45 43/43/43
f 45/45/45 46/46/46 43/43/43
f 47/47/47 44/44/44 30/30/30
f 47/47/47 42/42/42 44/44/44
f 44/44/44 37/37/37 30/30/30
f 44/44/44 48/48/48 37/37/37
f 44/44/44 49/49/49 48/48/48
f 41/41/41 50/50/50 38/38/38
f 41/41/41 51/51/51 50/50/50
f 41/41/41 38/38/38 32/32/32
f 38/38/38 40/40/40 33/33/33
f 38/38/38 52/52/52 40/40/40
f 52/52/52 38/38/38 53/53/53
f 53/53/53 38/38/38 54/54/54
f 34/34/34 37/37/37 41/41/41
f 37/37/37 55/55/55 41/41/41
f 37/37/37 56/56/56 55/55/55
f 47/47/47 30/30/30 57/57/57
f 31/31/31 57/57/57 30/30/30
f 58/58/58 21/21/21 35/35/35
f 21/21/21 25/25/25 16/16/16
f 21/21/21 58/58/58 25/25/25
f 56/56/56 37/37/37 48/48/48
f 51/51/51 41/41/41 55/55/55
f 43/43/43 49/49/49 44/44/44
f 50/50/50 54/54/54 38/38/38
f 50/50/50 59/59/59 54/54/54
