mtllib m033103.mtl
usemtl material0
v -171.81260681152344 -1.4792410135269165 384
v -171.33238220214844 -1.2334020137786865 393.07339477539062
v -163.16874694824219 -1.1057430505752564 384
v -181.41621398925781 -1.0958429574966431 384
v -187.80909729003906 -0.86410802602767944 384
v -192 -0.25953599810600281 389.66864013671875
v -187.28457641601563 -0.63403302431106567 393.9139404296875
v -192 -0.42267900705337524 384
v -192 -0.20707899332046509 394.16162109375
v -192 -0.098310001194477081 399.1561279296875
v -192 1.0897810459136963 416.04977399855852
v -186.43753051757813 0.34647500514984131 409.86569213867188
v -192 0.60295999050140381 410.15862989425659
v -192 1.6285250186920166 426.15496826171875
v -185.59141540527344 1.1340399980545044 425.81808471679688
v -192 1.8075460195541382 432.94244384765625
v -170.48774719238281 -0.75093299150466919 409.02679395675659
v -184.74562072753906 1.857077956199646 441.77069091796875
v -169.64176940917969 0.010266000404953957 424.979248046875
v -192 2.2502140998840332 442.15255737304688
v -192 2.4578509330749512 448
v -184.41574096679688 2.0610148906707764 448
v -192 2.3686978816986084 445.48928833007812
v -175.15415954589844 1.2855839729309082 448
v -168.79714965820313 0.49063199758529663 440.93267822265625
v -155.37797498703003 -1.3777769804000855 392.23135375976562
v -168.42100524902344 1.094588041305542 448
v -153.68139600753784 1.0904790163040161 424.13314819335938
v -152.838623046875 1.1909689903259277 440.08782958984375
v -159.9566650018096 1.5031869411468506 448
v -154.53010606765747 -0.22979100048542023 408.18252611160278
v -155.81152296066284 -1.1813750267028809 384
v -147.97047424316406 -0.46604299545288086 384
v -138.56756591796875 1.2946749925613403 407.33493041992188
v -137.72543334960938 1.2643829584121704 423.2900390625
v -139.41600036621094 0.029503999277949333 391.38412475585938
v -139.80476379394531 0.23958200216293335 384
v -128 1.0450129508972168 390.77816772460938
v -128 1.4028630256652832 395.58956909179688
v -128 0.933381974697113 406.77801513671875
v -128 0.93284702301025391 412.4797670841217
v -136.88423156738281 1.0411479473114014 439.24578857421875
v -132.77101135253906 0.79888999462127686 384
v -128 0.5890120267868042 429.3702392578125
v -128 0.65942502021789551 422.77831983566284
v -136.4237060546875 0.72014200687408447 448
v -144.04757690429688 0.80624997615814209 448
v -128 1.1320010423660278 387.34735107421875
v -128 1.2168740034103394 384
v -128 0.36499801278114319 438.7786865234375
v -128 0.38162800669670105 443.97210693359375
v -128 0.39210501313209534 447.24383544921875
v -152.42034912109375 1.3059060573577881 448
v -128 0.36605000495910645 448
vt 0.99827498197555542 0.31537801027297974
vt 0.85720902681350708 0.32300001382827759
vt 0.99827498197555542 0.44985002279281616
vt 0.99794000387191772 0.1659960150718689
vt 0.99772697687149048 0.066569983959198
vt 0.9093250036239624 0.0011590123176574707
vt 0.84360897541046143 0.0749170184135437
vt 0.99746602773666382 0.001073002815246582
vt 0.83954697847366333 0.0013399720191955566
vt 0.76190197467803955 0.0014119744300842285
vt 0.49915501475334167 0.00077199935913085938
vt 0.59560900926589966 0.087620019912719727
vt 0.59054899215698242 0.0012590289115905762
vt 0.34187200665473938 0.00051897764205932617
vt 0.34734898805618286 0.10040700435638428
vt 0.23634099960327148 0.00056099891662597656
vt 0.609138011932373 0.33607900142669678
vt 0.099136002361774445 0.11325597763061523
vt 0.36090898513793945 0.34911298751831055
vt 0.093056999146938324 0.00034797191619873047
vt 0.0021160000469535589 0.0002949833869934082
vt 0.0022640000097453594 0.11835801601409912
vt 0.04116399958729744 0.00031602382659912109
vt 0.002647999906912446 0.26280897855758667
vt 0.11281199753284454 0.36167502403259277
vt 0.87031000852584839 0.5709800124168396
vt 0.0025679999962449074 0.36752200126647949
vt 0.3730120062828064 0.59779798984527588
vt 0.12498600035905838 0.60999700427055359
vt 0.00203699991106987 0.49923098087310791
vt 0.62175297737121582 0.58425799012184143
vt 0.99827998876571655 0.56420600414276123
vt 0.99860602617263794 0.68658098578453064
vt 0.63439500331878662 0.83351199328899384
vt 0.38584300875663757 0.84582200646400452
vt 0.88411200046539307 0.81999699771404266
vt 0.99892699718475342 0.81396900117397308
vt 0.89144998788833618 0.99823799997102469
vt 0.816461980342865 0.99830300000030547
vt 0.64241397380828857 0.99788599996827543
vt 0.55348598957061768 0.99748399993404746
vt 0.13745999336242676 0.85800999402999878
vt 0.99917900562286377 0.92363499850034714
vt 0.29034799337387085 0.99693699995987117
vt 0.39336401224136353 0.99729300010949373
vt 0.0012919999426230788 0.86488200724124908
vt 0.001588999992236495 0.746381014585495
vt 0.94478797912597656 0.99877299997024238
vt 0.99682199954986572 0.9997049999947194
vt 0.14407700300216675 0.99652400007471442
vt 0.063358999788761139 0.9961300001014024
vt 0.012581000104546547 0.995947000104934
vt 0.0019940000493079424 0.61640399694442749
vt 0.00082100002327933908 0.99592200014740229
vn -0.00024399999529123306 0.99963301420211792 -0.02707199938595295
vn 0.019887000322341919 0.99944502115249634 -0.026739999651908875
vn -0.003984999842941761 0.99993699789047241 0.010483000427484512
vn 0.037067998200654984 0.99897301197052 -0.026050999760627747
vn 0.0716169998049736 0.99706900119781494 -0.026928000152111053
vn 0.10066000372171402 0.994629979133606 -0.024065999314188957
vn 0.058371998369693756 0.99757999181747437 -0.037772998213768005
vn 0.1047080010175705 0.9940909743309021 -0.028610000386834145
vn 0.089285999536514282 0.99586397409439087 -0.016829000785946846
vn 0.053470000624656677 0.99711900949478149 -0.053803000599145889
vn 0.066513001918792725 0.99598699808120728 -0.059886999428272247
vn 0.054191999137401581 0.99683898687362671 -0.058097001165151596
vn 0.042086999863386154 0.99642497301101685 -0.073252998292446136
vn 0.074822001159191132 0.99642497301101685 -0.039221998304128647
vn 0.06797800213098526 0.99654501676559448 -0.047726999968290329
vn 0.057135999202728271 0.99744397401809692 -0.0428990013897419
vn 0.021027000620961189 0.99874502420425415 -0.045457001775503159
vn 0.065684996545314789 0.99701797962188721 -0.040504001080989838
vn 0.0052470001392066479 0.99895298480987549 -0.045439999550580978
vn 0.051890000700950623 0.99779099225997925 -0.041473999619483948
vn 0.052218999713659286 0.99800699949264526 -0.035438999533653259
vn 0.06830800324678421 0.99700498580932617 -0.036258000880479813
vn 0.052218999713659286 0.99800699949264526 -0.035438001155853271
vn 0.068714000284671783 0.99636900424957275 -0.050266001373529434
vn 0.0087249996140599251 0.99878197908401489 -0.048553001135587692
vn -0.045958001166582108 0.99882000684738159 -0.015723999589681625
vn -0.011214000172913075 0.99635601043701172 -0.084549002349376678
vn -0.048555999994277954 0.99823600053787231 -0.034173998981714249
vn -0.005044999998062849 0.99993699789047241 -0.010069999843835831
vn -0.028263000771403313 0.99749898910522461 -0.064787998795509338
vn -0.070840001106262207 0.99504601955413818 -0.069743998348712921
vn -0.038662001490592957 0.99891698360443115 0.025870999321341515
vn -0.087312996387481689 0.99567598104476929 0.031709998846054077
vn -0.036905001848936081 0.99881500005722046 -0.031718999147415161
vn 0.025043999776244164 0.99965798854827881 0.0075779999606311321
vn -0.089234001934528351 0.99579799175262451 -0.020564999431371689
vn -0.082745000720024109 0.99603402614593506 0.032694000750780106
vn -0.08978000283241272 0.99570202827453613 -0.022739000618457794
vn -0.062373999506235123 0.99694901704788208 -0.046936001628637314
vn 0.03530300036072731 0.99914097785949707 0.021691000089049339
vn 0.041019000113010406 0.99913901090621948 0.0062600001692771912
vn 0.037540998309850693 0.99908298254013062 0.02058899961411953
vn -0.085115000605583191 0.99599999189376831 0.027181999757885933
vn 0.066023997962474823 0.99772399663925171 0.013717000372707844
vn 0.063060000538825989 0.99783200025558472 0.018833000212907791
vn 0.02715500071644783 0.99901098012924194 0.035204000771045685
vn 0.022554000839591026 0.99946802854537964 0.023538000881671906
vn -0.087246999144554138 0.99586701393127441 0.02525000087916851
vn -0.087246999144554138 0.99586701393127441 0.02525000087916851
vn 0.076443001627922058 0.99701601266860962 0.010712999850511551
vn 0.07571999728679657 0.99712401628494263 -0.0031930000986903906
vn 0.050996001809835434 0.9984009861946106 0.024373000487685204
vn 0.04342300072312355 0.99891501665115356 -0.016806000843644142
vn 0.041972998529672623 0.99852597713470459 0.034407000988721848
f 1/1/1 2/2/2 3/3/3
f 1/1/1 4/4/4 2/2/2
f 5/5/5 6/6/6 7/7/7
f 5/5/5 8/8/8 6/6/6
f 9/9/9 10/10/10 7/7/7
f 11/11/11 12/12/12 13/13/13
f 14/14/14 12/12/12 11/11/11
f 14/14/14 15/15/15 12/12/12
f 10/10/10 12/12/12 7/7/7
f 10/10/10 13/13/13 12/12/12
f 16/16/16 15/15/15 14/14/14
f 12/12/12 15/15/15 17/17/17
f 15/15/15 18/18/18 19/19/19
f 20/20/20 15/15/15 16/16/16
f 20/20/20 18/18/18 15/15/15
f 2/2/2 7/7/7 12/12/12
f 21/21/21 22/22/22 23/23/23
f 23/23/23 18/18/18 20/20/20
f 23/23/23 22/22/22 18/18/18
f 24/24/24 18/18/18 22/22/22
f 24/24/24 25/25/25 18/18/18
f 6/6/6 9/9/9 7/7/7
f 15/15/15 19/19/19 17/17/17
f 17/17/17 26/26/26 2/2/2
f 24/24/24 27/27/27 25/25/25
f 25/25/25 28/28/28 19/19/19
f 27/27/27 29/29/29 25/25/25
f 27/27/27 30/30/30 29/29/29
f 17/17/17 19/19/19 31/31/31
f 18/18/18 25/25/25 19/19/19
f 12/12/12 17/17/17 2/2/2
f 4/4/4 7/7/7 2/2/2
f 4/4/4 5/5/5 7/7/7
f 26/26/26 3/3/3 2/2/2
f 26/26/26 32/32/32 3/3/3
f 32/32/32 26/26/26 33/33/33
f 28/28/28 31/31/31 19/19/19
f 28/28/28 34/34/34 31/31/31
f 29/29/29 35/35/35 28/28/28
f 29/29/29 28/28/28 25/25/25
f 26/26/26 31/31/31 36/36/36
f 31/31/31 26/26/26 17/17/17
f 36/36/36 33/33/33 26/26/26
f 36/36/36 37/37/37 33/33/33
f 35/35/35 34/34/34 28/28/28
f 38/38/38 34/34/34 39/39/39
f 38/38/38 36/36/36 34/34/34
f 40/40/40 35/35/35 41/41/41
f 40/40/40 34/34/34 35/35/35
f 42/42/42 35/35/35 29/29/29
f 43/43/43 37/37/37 36/36/36
f 34/34/34 36/36/36 31/31/31
f 44/44/44 35/35/35 42/42/42
f 44/44/44 45/45/45 35/35/35
f 46/46/46 29/29/29 47/47/47
f 46/46/46 42/42/42 29/29/29
f 38/38/38 43/43/43 36/36/36
f 38/38/38 48/48/48 43/43/43
f 48/48/48 49/49/49 43/43/43
f 45/45/45 41/41/41 35/35/35
f 50/50/50 44/44/44 42/42/42
f 40/40/40 39/39/39 34/34/34
f 51/51/51 42/42/42 52/52/52
f 51/51/51 50/50/50 42/42/42
f 47/47/47 29/29/29 53/53/53
f 54/54/54 42/42/42 46/46/46
f 54/54/54 52/52/52 42/42/42
f 53/53/53 29/29/29 30/30/30
