mtllib m033333010.mtl
usemtl material0
v -48 1.7695959806442261 56.56187105178833
v -48 1.7342360019683838 57.527218103408813
v -47.088542938232422 1.6761070489883423 56.514034032821655
v -48 1.6298329830169678 59.638404995203018
v -46.983649969100952 1.5955029726028442 58.508689999580383
v -48 1.6980069875717163 58.562034964561462
v -48 1.7947039604187012 56
v -47.1155469417572 1.7019109725952148 56
v -48 1.7863049507141113 56.187958002090454
v -45.116317987442017 1.5595539808273315 56
v -45.094799041748047 1.5434199571609497 56.409172058105469
v -46.626086950302124 1.6628769636154175 56
v -43.100741982460022 1.4751839637756348 56.30408501625061
v -43.438525974750519 1.4988219738006592 56
v -43.116764008998871 1.48151695728302 56
v -42.827164053916931 1.4701859951019287 56
v -44.989704012870789 1.5048069953918457 58.403679013252258
v -46.878882884979248 1.4899959564208984 60.503426015377045
v -44.884788990020752 1.4290850162506104 60.398315012454987
v -48 1.5852090120315552 60.562327980995178
v -42.995589971542358 1.4478009939193726 58.298557043075562
v -42.890655994415283 1.3764740228652954 60.293179005384445
v -41.001610040664673 1.3639390468597412 58.193526983261108
v -44.780040979385376 1.3196710348129273 62.393069982528687
v -41.106673955917358 1.4093869924545288 56.198993921279907
v -48 1.5375239849090576 61.3940509557724
v -46.774204015731812 1.3664220571517944 62.498225927352905
v -44.695300996303558 1.3015400171279907 64
v -45.105473041534424 1.3113729953765869 64
v -42.7857860326767 1.2919609546661377 62.287846088409424
v -44.326209992170334 1.2962069511413574 64
v -48 1.4591120481491089 62.562664031982422
v -46.695014953613281 1.3483749628067017 64
v -48 1.4532530307769775 63.294361114501953
v -47.2162549495697 1.3880089521408081 64
v -48 1.454645037651062 63.12051796913147
v -42.695598959922791 1.2525249719619751 64
v -48 1.4352669715881348 64
v -42.4266699552536 1.2433509826660156 64
v -40.791718006134033 1.2261650562286377 62.182754993438721
v -40.896651983261108 1.2974940538406372 60.188133001327515
v -40.927647113800049 1.4039880037307739 56
v -41.11716103553772 1.4125089645385742 56
v -40 1.3525569438934326 56.088272094726562
v -40 1.351457953453064 56.140736103057861
v -40 1.3544059991836548 56
v -40 1.3093010187149048 58.14080798625946
v -40 1.2774050235748291 59.191486001014709
v -40 1.3326929807662964 57.080195903778076
v -40 1.2509969472885132 60.140929996967316
v -40 1.2259789705276489 60.9953989982605
v -40.696026086807251 1.1780810356140137 64
v -40 1.1880190372467041 62.141063928604126
v -40.5271680355072 1.1697330474853516 64
v -40 1.1576499938964844 63.414040088653564
v -40 1.1435350179672241 64
vt 0.88728898763656616 0.0074620246887207031
vt 0.77233898639678955 0.011932015419006348
vt 0.89681100845336914 0.11630600690841675
vt 0.5207970142364502 0.022046983242034912
vt 0.65974897146224976 0.13805299997329712
vt 0.64912301301956177 0.016704022884368896
vt 0.95421397686004639 0.004803001880645752
vt 0.957925021648407 0.11064201593399048
vt 0.93182599544525146 0.0056920051574707031
vt 0.96662497520446777 0.34917402267456055
vt 0.91799801588058472 0.35364198684692383
vt 0.96003997325897217 0.16907602548599243
vt 0.93932598829269409 0.59061700105667114
vt 0.97404301166534424 0.548999011516571
vt 0.97544902563095093 0.58734598755836487
vt 0.97672802209854126 0.62182998657226562
vt 0.68107801675796509 0.37512099742889404
vt 0.42255100607872009 0.15993201732635498
vt 0.44404000043869019 0.3968690037727356
vt 0.4107309877872467 0.026471972465515137
vt 0.70242798328399658 0.61205899715423584
vt 0.46558400988578796 0.633776992559433
vt 0.72372400760650635 0.84909899532794952
vt 0.2068140059709549 0.41873502731323242
vt 0.96066200733184814 0.82758399844169617
vt 0.31160500645637512 0.030534982681274414
vt 0.18537400662899017 0.18245601654052734
vt 0.01601799950003624 0.43672400712966919
vt 0.014170000329613686 0.38789898157119751
vt 0.22850599884986877 0.65558600425720215
vt 0.017827000468969345 0.48064500093460083
vt 0.17225199937820435 0.036450982093811035
vt 0.007007999811321497 0.19867700338363648
vt 0.0851759985089302 0.039749979972839355
vt 0.0046890000812709332 0.13646900653839111
vt 0.10586400330066681 0.038966000080108643
vt 0.025480000302195549 0.6747480034828186
vt 0.0011810000287368894 0.043031990528106689
vt 0.02633499912917614 0.7062009871006012
vt 0.24999600648880005 0.89253800362348557
vt 0.48701098561286926 0.87078399956226349
vt 0.98513400554656982 0.848019003868103
vt 0.9842979907989502 0.82544299960136414
vt 0.97869700193405151 0.95897199958562851
vt 0.97245198488235474 0.95920899882912636
vt 0.98920297622680664 0.95857400074601173
vt 0.73470801115036011 0.968214001506567
vt 0.6096230149269104 0.97306100092828274
vt 0.86063301563262939 0.9634459987282753
vt 0.4965980052947998 0.97742499969899654
vt 0.39488199353218079 0.9813659992069006
vt 0.034113999456167221 0.91229700297117233
vt 0.25847798585891724 0.98667899984866381
vt 0.0348609983921051 0.93238499760627747
vt 0.10695300251245499 0.9925119997933507
vt 0.037204999476671219 0.9951969999819994
vn 0.10404399782419205 0.99375700950622559 0.0402819998562336
vn 0.10250700265169144 0.99410998821258545 0.035181000828742981
vn 0.0846100002527237 0.99572998285293579 0.036906000226736069
vn 0.0908769965171814 0.99452799558639526 0.051536001265048981
vn 0.073211997747421265 0.996317982673645 0.044617000967264175
vn 0.10278300195932388 0.99348300695419312 0.049265000969171524
vn 0.10424000024795532 0.9935610294342041 0.04439999908208847
vn 0.092283003032207489 0.99471199512481689 0.045086000114679337
vn 0.10424000024795532 0.9935610294342041 0.04439999908208847
vn 0.0527539998292923 0.99793797731399536 0.036575000733137131
vn 0.051683999598026276 0.99830901622772217 0.026618000119924545
vn 0.0712210014462471 0.996720016002655 0.03842100128531456
vn 0.036773998290300369 0.99916702508926392 0.017707999795675278
vn 0.040238998830318451 0.99864697456359863 0.032931998372077942
vn 0.046643000096082687 0.99874299764633179 0.018343999981880188
vn 0.035142999142408371 0.99926698207855225 0.015193999744951725
vn 0.040049001574516296 0.99873799085617065 0.030303999781608582
vn 0.061190001666545868 0.99680799245834351 0.05127599835395813
vn 0.031039999797940254 0.99852997064590454 0.044429000467061996
vn 0.087251998484134674 0.99479299783706665 0.0526759997010231
vn 0.035158999264240265 0.99908697605133057 0.024273000657558441
vn 0.033727001398801804 0.99869000911712646 0.038492999970912933
vn 0.049015000462532043 0.998458981513977 0.026004999876022339
vn 0.022739000618457794 0.99925601482391357 0.031153000891208649
vn 0.043627001345157623 0.99890702962875366 0.01679299958050251
vn 0.085137002170085907 0.99458497762680054 0.059604998677968979
vn 0.05229099839925766 0.9980120062828064 0.035177998244762421
vn 0.0190459992736578 0.99976599216461182 0.010276000015437603
vn 0.023802999407052994 0.9996650218963623 0.010195000097155571
vn 0.027247000485658646 0.999210000038147 0.028945000842213631
vn 0.017736999318003654 0.9997519850730896 0.013478999957442284
vn 0.077256001532077789 0.99634498357772827 0.036453999578952789
vn 0.048670001327991486 0.998769998550415 0.0094360001385211945
vn 0.07164599746465683 0.99734997749328613 0.012640000320971012
vn 0.0721760019659996 0.99731898307800293 0.012047999538481236
vn 0.075815998017787933 0.99708998203277588 0.0079840002581477165
vn 0.030554000288248062 0.99930399656295776 0.021407999098300934
vn 0.060169000178575516 0.9978640079498291 0.025434000417590141
vn 0.035045001655817032 0.99914199113845825 0.022081000730395317
vn 0.042458999902009964 0.99869400262832642 0.028407000005245209
vn 0.046399001032114029 0.99840801954269409 0.032072000205516815
vn 0.051107998937368393 0.99851500988006592 0.018884999677538872
vn 0.039120998233556747 0.99914199113845825 0.013612000271677971
vn 0.053360998630523682 0.99835598468780518 0.020916000008583069
vn 0.053335998207330704 0.99836701154708862 0.020444000139832497
vn 0.053360000252723694 0.99835598468780518 0.020914999768137932
vn 0.055815998464822769 0.99810200929641724 0.02602200023829937
vn 0.055378001183271408 0.99802398681640625 0.029704000800848007
vn 0.053847998380661011 0.99834001064300537 0.020425999537110329
vn 0.053259998559951782 0.99817502498626709 0.028471000492572784
vn 0.050760000944137573 0.99819701910018921 0.032049000263214111
vn 0.043719999492168427 0.998753011226654 0.024125000461935997
vn 0.049607999622821808 0.99835902452468872 0.028598999604582787
vn 0.049431998282670975 0.99849200248718262 0.023881999775767326
vn 0.049423001706600189 0.99849200248718262 0.023874999955296516
vn 0.049619998782873154 0.99847900867462158 0.0240509994328022
f 1/1/1 2/2/2 3/3/3
f 4/4/4 5/5/5 6/6/6
f 7/7/7 3/3/3 8/8/8
f 7/7/7 9/9/9 3/3/3
f 9/9/9 1/1/1 3/3/3
f 10/10/10 3/3/3 11/11/11
f 10/10/10 12/12/12 3/3/3
f 8/8/8 3/3/3 12/12/12
f 13/13/13 10/10/10 11/11/11
f 13/13/13 14/14/14 10/10/10
f 14/14/14 13/13/13 15/15/15
f 15/15/15 13/13/13 16/16/16
f 13/13/13 11/11/11 17/17/17
f 11/11/11 3/3/3 17/17/17
f 17/17/17 5/5/5 18/18/18
f 5/5/5 17/17/17 3/3/3
f 17/17/17 18/18/18 19/19/19
f 20/20/20 5/5/5 4/4/4
f 20/20/20 18/18/18 5/5/5
f 21/21/21 19/19/19 22/22/22
f 19/19/19 21/21/21 17/17/17
f 22/22/22 23/23/23 21/21/21
f 22/22/22 19/19/19 24/24/24
f 13/13/13 17/17/17 21/21/21
f 19/19/19 18/18/18 24/24/24
f 13/13/13 21/21/21 25/25/25
f 6/6/6 3/3/3 2/2/2
f 6/6/6 5/5/5 3/3/3
f 18/18/18 26/26/26 27/27/27
f 18/18/18 20/20/20 26/26/26
f 28/28/28 27/27/27 29/29/29
f 28/28/28 24/24/24 27/27/27
f 27/27/27 24/24/24 18/18/18
f 24/24/24 30/30/30 22/22/22
f 31/31/31 24/24/24 28/28/28
f 31/31/31 30/30/30 24/24/24
f 26/26/26 32/32/32 27/27/27
f 33/33/33 34/34/34 35/35/35
f 33/33/33 36/36/36 34/34/34
f 36/36/36 27/27/27 32/32/32
f 36/36/36 33/33/33 27/27/27
f 33/33/33 29/29/29 27/27/27
f 31/31/31 37/37/37 30/30/30
f 38/38/38 35/35/35 34/34/34
f 30/30/30 39/39/39 40/40/40
f 30/30/30 37/37/37 39/39/39
f 22/22/22 30/30/30 41/41/41
f 42/42/42 43/43/43 25/25/25
f 44/44/44 25/25/25 45/45/45
f 44/44/44 42/42/42 25/25/25
f 44/44/44 46/46/46 42/42/42
f 25/25/25 16/16/16 13/13/13
f 25/25/25 43/43/43 16/16/16
f 41/41/41 23/23/23 22/22/22
f 47/47/47 41/41/41 48/48/48
f 47/47/47 23/23/23 41/41/41
f 47/47/47 49/49/49 23/23/23
f 50/50/50 48/48/48 41/41/41
f 45/45/45 23/23/23 49/49/49
f 45/45/45 25/25/25 23/23/23
f 50/50/50 41/41/41 51/51/51
f 23/23/23 25/25/25 21/21/21
f 52/52/52 40/40/40 39/39/39
f 53/53/53 54/54/54 55/55/55
f 53/53/53 40/40/40 54/54/54
f 40/40/40 52/52/52 54/54/54
f 55/55/55 54/54/54 56/56/56
f 53/53/53 41/41/41 40/40/40
f 53/53/53 51/51/51 41/41/41
f 40/40/40 41/41/41 30/30/30
