mtllib m033230.mtl
usemtl material0
v -380.66073608398438 6.5622549057006836 64
v -384 5.8462448120117188 68.292327880859375
v -380.44577026367188 6.22699499130249 68.103431701660156
v -384 6.1285610198974609 65.049980163574219
v -384 6.2199850082397461 64
v -376.75311279296875 6.68206787109375 64
v -384 4.9535379409790039 80.112808227539062
v -379.60885620117188 5.1080460548400879 84.062286376953125
v -384 4.0097341537475586 100.29714202880859
v -378.76931762695312 4.5339341163635254 100.01927185058594
v -384 4.4768538475036621 88.941719055175781
v -384 4.6795258522033691 84.295524597167969
v -363.64559936523438 6.8024330139160156 83.213958740234375
v -364.48953247070312 6.4560751914978027 67.260101318359375
v -377.92550659179688 4.8567042350769043 115.97319793701172
v -384 4.161841869354248 110.51338195800781
v -384 4.8305931091308594 128
v -384 4.678246021270752 122.72451782226563
v -377.28866577148438 5.2431650161743164 128
v -384 4.5520920753479 120.72686004638672
v -384 4.2722668647766113 116.29581451416016
v -373.5474853515625 5.7140669822692871 128
v -361.9608154296875 6.8445429801940918 115.12388610839844
v -362.80462646484375 6.5290970802307129 99.169922113418579
v -364.65997314453125 6.7899351119995117 64
v -361.55593872070312 6.7178859710693359 64
v -346.35879516601562 6.7464861869812012 64
v -348.6603090763092 6.7971649169921875 64
v -348.53362989425659 6.6172099113464355 66.417007446289062
v -332.66070556640625 6.7973289489746094 64
v -332.5780029296875 6.7187008857727051 65.5741195678711
v -347.68618822097778 7.6896300315856934 82.3683853149414
v -346.84017896652222 8.4597330093383789 98.320801019668579
v -331.7291259765625 8.0865259170532227 81.524482727050781
v -345.99911499023438 8.2053642272949219 114.27671051025391
v -331.16159057617188 6.8085131645202637 64
v -320 7.5495691299438477 68.486808776855469
v -320 7.2515950202941895 64.9082260131836
v -320 7.269650936126709 64
v -320 7.2585229873657227 64.559738159179688
v -320 7.6125202178955078 80.906600952148438
v -320 7.9005928039550781 85.378716468811035
v -330.88204956054688 9.0826988220214844 97.476127982139587
v -320 7.9270920753479 96.905128002166748
v -320 8.00439453125 107.27494812011719
v -330.03988647460938 9.0524473190307617 113.43128204345703
v -358.34759521484375 7.3023881912231445 128
v -361.280029296875 7.05059814453125 128
v -345.274169921875 8.2989749908447266 128
v -343.1485595703125 8.4122495651245117 128
v -329.2725830078125 8.6944131851196289 128
v -320 8.0241003036499023 112.90434265136719
v -327.95120239257812 8.55774211883545 128
v -320 7.9044198989868164 119.16116333007813
v -320 8.3398189544677734 128
vt 0.031094999983906746 0.94757299870252609
vt 0.097828000783920288 0.99654500000178814
vt 0.093120001256465912 0.9427339993417263
vt 0.0487309992313385 0.997793999966234
vt 0.032830998301506042 0.99819800001569092
vt 0.029431000351905823 0.888602003455162
vt 0.27664801478385925 0.99178799986839294
vt 0.33410999178886414 0.92362199723720551
vt 0.58145302534103394 0.98284400068223476
vt 0.57466000318527222 0.90479599684476852
vt 0.41002699732780457 0.98796499986201525
vt 0.33987799286842346 0.99004399962723255
vt 0.31413999199867249 0.681863009929657
vt 0.074020996689796448 0.70234501361846924
vt 0.81475502252578735 0.88236699998378754
vt 0.7355390191078186 0.97737099975347519
vt 0.99938499927520752 0.9675309993326664
vt 0.91988402605056763 0.970329999923706
vt 0.995864987373352 0.86612400412559509
vt 0.88970297574996948 0.971543999388814
vt 0.8227580189704895 0.97423800081014633
vt 0.99398899078369141 0.8092540055513382
vt 0.79393702745437622 0.64014899730682373
vt 0.55446600914001465 0.66192999482154846
vt 0.02464899979531765 0.70616701245307922
vt 0.023574000224471092 0.6593259871006012
vt 0.01779399998486042 0.43005597591400146
vt 0.018609000369906425 0.46478599309921265
vt 0.055123999714851379 0.46195799112319946
vt 0.0087449997663497925 0.22412699460983276
vt 0.032457001507282257 0.22190302610397339
vt 0.29387998580932617 0.44117200374603271
vt 0.53427499532699585 0.41976702213287354
vt 0.27345699071884155 0.20082902908325195
vt 0.77463299036026 0.40030300617218018
vt 0.0078070000745356083 0.201524019241333
vt 0.070779003202915192 0.030467987060546875
vt 0.016620999202132225 0.032320976257324219
vt 0.00061500002630054951 0.033101022243499756
vt 0.0090560000389814377 0.032747983932495117
vt 0.25809198617935181 0.024109005928039551
vt 0.32488200068473816 0.021323025226593018
vt 0.51369398832321167 0.17931199073791504
vt 0.49869200587272644 0.014631986618041992
vt 0.65761297941207886 0.010022997856140137
vt 0.75487399101257324 0.15960597991943359
vt 0.98667299747467041 0.57991600036621094
vt 0.98779398202896118 0.62314099073410034
vt 0.9804919958114624 0.38215702772140503
vt 0.98038399219512939 0.35118401050567627
vt 0.974373996257782 0.14183300733566284
vt 0.74252897500991821 0.0076010227203369141
vt 0.97385400533676147 0.12179297208786011
vt 0.83726799488067627 0.0050510168075561523
vt 0.97077101469039917 0.0018010139465332031
vn -0.067161999642848969 0.9941369891166687 0.0847420021891594
vn -0.10194700211286545 0.99153697490692139 0.080383002758026123
vn -0.058598000556230545 0.99497497081756592 0.081188999116420746
vn -0.10158400237560272 0.9910770058631897 0.0862950012087822
vn -0.10158400237560272 0.9910770058631897 0.0862950012087822
vn -0.014658000320196152 0.99515998363494873 0.097172997891902924
vn -0.0999239981174469 0.99236601591110229 0.072276003658771515
vn -0.089056998491287231 0.9949989914894104 0.045228999108076096
vn -0.099073998630046844 0.9950069785118103 0.012090999633073807
vn -0.1089399978518486 0.99398499727249146 0.011253999546170235
vn -0.096845000982284546 0.99443501234054565 0.04148399829864502
vn -0.094152003526687622 0.99410098791122437 0.053835999220609665
vn -0.08261600136756897 0.99657201766967773 0.0044030002318322659
vn -0.023600999265909195 0.99876397848129272 0.043745998293161392
vn -0.1070299968123436 0.99393302202224731 -0.025314999744296074
vn -0.099486999213695526 0.99491101503372192 -0.015932999551296234
vn -0.061333000659942627 0.99770098924636841 -0.028812000527977943
vn -0.0701489970088005 0.99685901403427124 -0.036766998469829559
vn -0.094259999692440033 0.99518197774887085 -0.026986999437212944
vn -0.09888099879026413 0.99312102794647217 -0.0627169981598854
vn -0.097873002290725708 0.9943310022354126 -0.041549999266862869
vn -0.12044999748468399 0.99249202013015747 -0.021250000223517418
vn -0.10302799940109253 0.994575023651123 -0.014334999956190586
vn -0.10950999706983566 0.99398499727249146 0.000737000023946166
vn 0.0065720002166926861 0.99481099843978882 0.10153300315141678
vn 0.0016919999616220594 0.99666702747344971 0.081561997532844543
vn 0.0031530000269412994 0.998412013053894 0.056237999349832535
vn 0.0074410000815987587 0.99724102020263672 0.073858000338077545
vn -0.0051290001720190048 0.99998599290847778 0.00081499997759237885
vn -0.0055169998668134212 0.99872499704360962 0.050177000463008881
vn -0.023570999503135681 0.99955600500106812 -0.01825300045311451
vn -0.042665001004934311 0.99812597036361694 -0.043871000409126282
vn -0.080319002270698547 0.99665099382400513 -0.015371000394225121
vn -0.007555999793112278 0.99808299541473389 -0.061422999948263168
vn -0.072135001420974731 0.9973909854888916 0.0027779999654740095
vn -0.032253999263048172 0.99908798933029175 0.027979999780654907
vn -0.02637300081551075 0.99754899740219116 -0.064810000360012054
vn -0.04388900101184845 0.99858999252319336 -0.029874999076128006
vn -0.041271001100540161 0.9989510178565979 0.019859999418258667
vn -0.041271001100540161 0.9989510178565979 0.01985899917781353
vn 0.038587000221014023 0.99868899583816528 -0.033649999648332596
vn 0.052981998771429062 0.99735301733016968 -0.049798000603914261
vn 0.023491000756621361 0.99944198131561279 -0.023749999701976776
vn 0.1053519994020462 0.99442398548126221 -0.0047639999538660049
vn 0.10264900326728821 0.99470698833465576 -0.0045340000651776791
vn 0.03066599927842617 0.99948501586914062 0.00943399965763092
vn -0.08300500363111496 0.99650698900222778 -0.0091209998354315758
vn -0.096537001430988312 0.99527102708816528 -0.010823000222444534
vn -0.06423100084066391 0.99792897701263428 -0.0034139999188482761
vn -0.0444520004093647 0.99900400638580322 0.0039029999170452356
vn 0.043446999043226242 0.99880802631378174 0.022258000448346138
vn 0.10227499902248383 0.99472898244857788 0.0074029997922480106
vn 0.082818001508712769 0.99656397104263306 0.00083999999333173037
vn 0.085335999727249146 0.99634701013565063 0.0031210000161081553
vn 0.027364000678062439 0.99841499328613281 -0.049182001501321793
f 1/1/1 2/2/2 3/3/3
f 1/1/1 4/4/4 2/2/2
f 4/4/4 1/1/1 5/5/5
f 1/1/1 3/3/3 6/6/6
f 3/3/3 7/7/7 8/8/8
f 3/3/3 2/2/2 7/7/7
f 8/8/8 9/9/9 10/10/10
f 8/8/8 11/11/11 9/9/9
f 11/11/11 8/8/8 12/12/12
f 8/8/8 10/10/10 13/13/13
f 7/7/7 12/12/12 8/8/8
f 14/14/14 3/3/3 8/8/8
f 9/9/9 15/15/15 10/10/10
f 9/9/9 16/16/16 15/15/15
f 17/17/17 15/15/15 18/18/18
f 17/17/17 19/19/19 15/15/15
f 20/20/20 15/15/15 21/21/21
f 20/20/20 18/18/18 15/15/15
f 15/15/15 22/22/22 23/23/23
f 15/15/15 19/19/19 22/22/22
f 16/16/16 21/21/21 15/15/15
f 24/24/24 10/10/10 15/15/15
f 8/8/8 13/13/13 14/14/14
f 25/25/25 14/14/14 26/26/26
f 27/27/27 28/28/28 29/29/29
f 30/30/30 29/29/29 31/31/31
f 30/30/30 27/27/27 29/29/29
f 29/29/29 26/26/26 14/14/14
f 29/29/29 28/28/28 26/26/26
f 29/29/29 14/14/14 32/32/32
f 15/15/15 23/23/23 24/24/24
f 13/13/13 24/24/24 32/32/32
f 32/32/32 33/33/33 34/34/34
f 13/13/13 32/32/32 14/14/14
f 32/32/32 34/34/34 31/31/31
f 33/33/33 32/32/32 24/24/24
f 31/31/31 29/29/29 32/32/32
f 33/33/33 24/24/24 35/35/35
f 36/36/36 30/30/30 31/31/31
f 10/10/10 24/24/24 13/13/13
f 37/37/37 31/31/31 34/34/34
f 37/37/37 38/38/38 31/31/31
f 39/39/39 36/36/36 40/40/40
f 40/40/40 31/31/31 38/38/38
f 40/40/40 36/36/36 31/31/31
f 37/37/37 34/34/34 41/41/41
f 42/42/42 43/43/43 44/44/44
f 43/43/43 41/41/41 34/34/34
f 43/43/43 42/42/42 41/41/41
f 44/44/44 43/43/43 45/45/45
f 43/43/43 34/34/34 33/33/33
f 43/43/43 33/33/33 46/46/46
f 23/23/23 47/47/47 35/35/35
f 23/23/23 48/48/48 47/47/47
f 47/47/47 49/49/49 35/35/35
f 35/35/35 50/50/50 46/46/46
f 35/35/35 49/49/49 50/50/50
f 24/24/24 23/23/23 35/35/35
f 51/51/51 46/46/46 50/50/50
f 52/52/52 53/53/53 54/54/54
f 52/52/52 46/46/46 53/53/53
f 46/46/46 51/51/51 53/53/53
f 55/55/55 54/54/54 53/53/53
f 45/45/45 46/46/46 52/52/52
f 45/45/45 43/43/43 46/46/46
f 33/33/33 35/35/35 46/46/46
f 22/22/22 48/48/48 23/23/23
f 6/6/6 14/14/14 25/25/25
f 6/6/6 3/3/3 14/14/14
