mtllib m0333132.mtl
usemtl material0
v -64 0.092621996998786926 155.40896606445313
v -64 0.09140700101852417 155.54063415527344
v -63.875644683837891 0.087918996810913086 155.40240478515625
v -64 0.56757402420043945 130.20481872558594
v -62.016090393066406 0.68698698282241821 128
v -64 0.66450697183609009 128
v -64 0.08629000186920166 137.79966688156128
v -61.14825439453125 0.50331097841262817 131.25784301757813
v -64 0.50032502412796021 131.408447265625
v -61.319313049316406 0.68566000461578369 128
v -57.319332122802734 0.7013009786605835 128
v -57.158760070800781 0.64859402179718018 131.04672241210938
v -58.216850280761719 0.669526994228363 128
v -54.417496204376221 0.71336901187896729 128
v -64 -0.00456500006839633 139.40977478027344
v -56.740116119384766 0.13898900151252747 139.02595520019531
v -64 0.03939099982380867 153.05148315429688
v -64 -0.08900199830532074 147.4097900390625
v -56.321640014648438 -0.40530198812484741 147.00531005859375
v -60.4141960144043 -0.24454900622367859 160
v -55.89985990524292 -0.27433100342750549 154.98236083984375
v -63.63385009765625 -0.092099003493785858 160
v -64 -0.067340001463890076 160
v -64 -0.068248003721237183 147.09471106529236
v -48.761996984481812 0.25278601050376892 138.60429382324219
v -48.344677001237869 -0.52734100818634033 146.58445692062378
v -55.635501861572266 -0.37837401032447815 160
v -53.169467926025391 0.7533460259437561 130.83572387695313
v -53.319224834442139 0.74235200881958008 128
v -49.318966031074524 0.81222802400588989 128
v -49.180240988731384 0.84393298625946045 130.62478637695313
v -50.618098974227905 0.78198301792144775 128
v -46.818652987480164 0.87562400102615356 128
v -45.191447973251343 0.84662598371505737 130.41413879394531
v -45.318744897842407 0.8756830096244812 128
v -43.01922607421875 0.96080499887466431 128
v -47.9244000017643 -0.70349299907684326 154.56254577636719
v -40.782402038574219 0.6673399806022644 138.18161010742188
v -40.366244792938232 -0.34911099076271057 146.16258192062378
v -52.816184997558594 -0.53273200988769531 160
v -47.637459009885788 -0.72439497709274292 160
v -41.202456951141357 0.88886499404907227 130.20335388183594
v -41.318336009979248 0.97525197267532349 128
v -37.317405700683594 1.177454948425293 128
v -37.212474822998047 1.1337310075759888 129.99188232421875
v -39.219764709472656 1.0632380247116089 128
v -33.315170288085938 1.6369099617004395 128
v -33.221088409423828 1.6647210121154785 129.77944946289063
v -35.419952392578125 1.3559420108795166 128
v -32 1.9437190294265747 128
v -32 1.9451119899749756 128.42280578613281
v -32.800797462463379 1.4920239448547363 137.75753784179688
v -39.947162628173828 -0.76891100406646729 154.14151000976563
v -32.384937286376953 0.41502800583839417 145.73870801925659
v -32 1.5669779777526856 137.71502685546875
v -32 0.50783699750900269 145.31105005741119
v -32 -0.49868598580360413 153.11839294433594
v -32 0.42751100659370422 145.71833801269531
v -32 -0.57389199733734131 153.72122192382813
v -39.638160705566406 -0.82334297895431519 160
v -41.881584167480469 -0.80390000343322754 160
v -32 1.9265470504760742 129.71414184570313
v -32 1.7226400375366211 135.92143154144287
v -33.435080528259277 -0.72227901220321655 160
v -32 -0.57631200551986694 153.85386657714844
v -32 -0.68844699859619141 160
vt 0.13802599906921387 0.031895995140075684
vt 0.13407599925994873 0.032033979892730713
vt 0.13835200667381287 0.0356220006942749
vt 0.894769012928009 0.0050380229949951172
vt 0.96314102411270142 0.062180995941162109
vt 0.96097499132156372 0.0026620030403137207
vt 0.6664699912071228 0.013221979141235352
vt 0.86618500947952271 0.091723024845123291
vt 0.85860401391983032 0.0063340067863464355
vt 0.96358001232147217 0.082545995712280273
vt 0.96825098991394043 0.20254701375961304
vt 0.87702202796936035 0.2107740044593811
vt 0.967179000377655 0.17560899257659912
vt 0.97163599729537964 0.28943902254104614
vt 0.61809098720550537 0.014958977699279785
vt 0.63765102624893188 0.23235899209976196
vt 0.20877300202846527 0.029506981372833252
vt 0.3780759871006012 0.023792028427124023
vt 0.39820599555969238 0.2539219856262207
vt 0.0039429999887943268 0.14460897445678711
vt 0.15926800668239594 0.27470898628234863
vt 0.00058900000294670463 0.047909021377563477
vt 0.00021600000036414713 0.036898970603942871
vt 0.38754799962043762 0.023437023162841797
vt 0.659492015838623 0.47121298313140869
vt 0.41901001334190369 0.49283599853515625
vt 0.008992999792098999 0.28802597522735596
vt 0.8880460262298584 0.33022797107696533
vt 0.97292900085449219 0.322393000125885
vt 0.97761702537536621 0.44241797924041748
vt 0.89904302358627319 0.44967198371887207
vt 0.976095974445343 0.4034389853477478
vt 0.98054301738739014 0.51744100451469421
vt 0.90985202789306641 0.56904399394989014
vt 0.98213201761245728 0.56250700354576111
vt 0.98487001657485962 0.63139599561691284
vt 0.180184006690979 0.51388600468635559
vt 0.68193799257278442 0.7103550136089325
vt 0.4403659999370575 0.73177999258041382
vt 0.011934000067412853 0.372734010219574
vt 0.017358999699354172 0.52820399403572083
vt 0.92085599899291992 0.68845498561859131
vt 0.98686397075653076 0.68241700530052185
vt 0.9921870231628418 0.80096900463104248
vt 0.93257802724838257 0.80677500367164612
vt 0.98941200971603394 0.74541699886322021
vt 0.99788898229599 0.92177499830722809
vt 0.9446679949760437 0.92720899730920792
vt 0.99486100673675537 0.8581169992685318
vt 0.999783992767334 0.96226999908685684
vt 0.987214982509613 0.96274299919605255
vt 0.70590800046920776 0.95036099851131439
vt 0.20110900700092316 0.75277900695800781
vt 0.46277698874473572 0.97175499983131886
vt 0.7063639760017395 0.9745899997651577
vt 0.47628501057624817 0.98287400044500828
vt 0.24002699553966522 0.99027999956160784
vt 0.46379101276397705 0.983287999406457
vt 0.22179999947547913 0.99084900040179491
vt 0.025665000081062317 0.76815299689769745
vt 0.023395000025629997 0.70089900493621826
vt 0.94848901033401489 0.96455400064587593
vt 0.7603600025177002 0.97685199975967407
vt 0.032157998532056808 0.95427199825644493
vt 0.21807099878787994 0.9910319996997714
vt 0.033649999648332596 0.99733799998648465
vn 0.037471998482942581 0.99927902221679688 -0.0061329999007284641
vn 0.060628999024629593 0.99772799015045166 0.02936599962413311
vn 0.044743001461029053 0.99899101257324219 0.0039160000160336494
vn -0.001180000021122396 0.99859297275543213 0.05302099883556366
vn -0.0016280000563710928 0.99861299991607666 0.052620001137256622
vn -0.011319000273942947 0.99897098541259766 0.043919000774621964
vn -0.014262000098824501 0.99824798107147217 0.05741799995303154
vn -0.011152000166475773 0.99844902753829956 0.054545998573303223
vn 0.0021430000197142363 0.99817401170730591 0.060364998877048492
vn 0.0034910000395029783 0.99844098091125488 0.055702000856399536
vn -0.020287999883294106 0.99962598085403442 0.018362000584602356
vn -0.026574000716209412 0.99887597560882568 0.039260998368263245
vn -0.0245520006865263 0.99928098917007446 0.028891999274492264
vn -0.020454000681638718 0.99978697299957275 0.002853000070899725
vn -0.018094999715685844 0.9993399977684021 0.031500000506639481
vn -0.0084130000323057175 0.9982609748840332 0.058340001851320267
vn 0.039896998554468155 0.99894499778747559 -0.022731000557541847
vn 0.042204000055789948 0.99890798330307007 0.020031999796628952
vn 0.026515999808907509 0.99926799535751343 0.027583999559283257
vn 0.04212300106883049 0.99860101938247681 0.031970001757144928
vn 0.042817000299692154 0.99905800819396973 0.007000999990850687
vn 0.056995999068021774 0.99772298336029053 0.03606799989938736
vn 0.0674239993095398 0.99709302186965942 0.035495001822710037
vn 0.029645999893546104 0.99819099903106689 0.0523109994828701
vn -0.022064000368118286 0.996720016002655 0.077867999672889709
vn 0.00074799999129027128 0.99828600883483887 0.058511998504400253
vn 0.041781000792980194 0.99895501136779785 0.018512999638915062
vn -0.02020999975502491 0.99926197528839111 0.032652001827955246
vn -0.020721999928355217 0.99978101253509521 -0.002781999995931983
vn -0.024274999275803566 0.99964702129364014 -0.010792000219225884
vn -0.012865999713540077 0.99931800365448 0.034609001129865646
vn -0.020979000255465508 0.99974101781845093 -0.00877899955958128
vn -0.0067920000292360783 0.99995899200439453 0.0059630000032484531
vn -0.013984000310301781 0.99928200244903564 0.035206001251935959
vn -0.017899999395012856 0.99975597858428955 0.012977000325918198
vn -0.016088999807834625 0.99933302402496338 0.032788001000881195
vn 0.026683999225497246 0.99947899580001831 0.01815200038254261
vn -0.063403002917766571 0.9950370192527771 0.076687000691890717
vn -0.050969000905752182 0.994720995426178 0.089069001376628876
vn 0.04994799941778183 0.99866002798080444 0.013573000207543373
vn 0.025010000914335251 0.99968397617340088 0.0025229998864233494
vn -0.032023999840021133 0.99894297122955322 0.032985001802444458
vn -0.024627000093460083 0.998878002166748 0.04045800119638443
vn -0.076232001185417175 0.996753990650177 0.025894999504089355
vn -0.091790996491909027 0.99556100368499756 0.020785000175237656
vn -0.055105000734329224 0.99804800748825073 0.029399000108242035
vn -0.17830300331115723 0.98395800590515137 -0.0059509999118745327
vn -0.17245200276374817 0.98491400480270386 0.014326999895274639
vn -0.12206599861383438 0.99252200126647949 0.00087500002700835466
vn -0.227182999253273 0.973846971988678 -0.0032089999876916409
vn -0.22287300229072571 0.97484701871871948 0.00087699998402968049
vn -0.10291100293397903 0.99063098430633545 0.089778997004032135
vn -0.013830999843776226 0.99904602766036987 0.041432999074459076
vn -0.055303998291492462 0.99000698328018188 0.12971800565719605
vn -0.086781002581119537 0.99003899097442627 0.1108660027384758
vn -0.070505999028682709 0.98608702421188354 0.15053500235080719
vn -0.017984999343752861 0.99214702844619751 0.1237810030579567
vn -0.023527000099420547 0.986810028553009 0.16016100347042084
vn -0.020612999796867371 0.99712401628494263 0.072930999100208282
vn -0.0042300000786781311 0.9999459981918335 0.00951400026679039
vn 0.0098660001531243324 0.9999229907989502 0.0074999998323619366
vn -0.20843599736690521 0.977770984172821 0.02275799959897995
vn -0.19244299829006195 0.98052400350570679 0.039221998304128647
vn -0.02186799980700016 0.99962699413299561 0.016350999474525452
vn -0.023564999923110008 0.99955600500106812 0.018237000331282616
vn -0.023563999682664871 0.99955600500106812 0.018237000331282616
f 1/1/1 2/2/2 3/3/3
f 4/4/4 5/5/5 6/6/6
f 7/7/7 8/8/8 9/9/9
f 5/5/5 8/8/8 10/10/10
f 5/5/5 9/9/9 8/8/8
f 5/5/5 4/4/4 9/9/9
f 11/11/11 8/8/8 12/12/12
f 11/11/11 13/13/13 8/8/8
f 10/10/10 8/8/8 13/13/13
f 11/11/11 12/12/12 14/14/14
f 8/8/8 15/15/15 16/16/16
f 8/8/8 7/7/7 15/15/15
f 8/8/8 16/16/16 12/12/12
f 1/1/1 3/3/3 17/17/17
f 18/18/18 3/3/3 19/19/19
f 18/18/18 17/17/17 3/3/3
f 3/3/3 20/20/20 21/21/21
f 3/3/3 22/22/22 20/20/20
f 23/23/23 3/3/3 2/2/2
f 23/23/23 22/22/22 3/3/3
f 18/18/18 16/16/16 24/24/24
f 18/18/18 19/19/19 16/16/16
f 16/16/16 19/19/19 25/25/25
f 19/19/19 21/21/21 26/26/26
f 21/21/21 19/19/19 3/3/3
f 15/15/15 24/24/24 16/16/16
f 27/27/27 21/21/21 20/20/20
f 28/28/28 12/12/12 16/16/16
f 14/14/14 28/28/28 29/29/29
f 14/14/14 12/12/12 28/28/28
f 30/30/30 28/28/28 31/31/31
f 30/30/30 32/32/32 28/28/28
f 29/29/29 28/28/28 32/32/32
f 33/33/33 34/34/34 35/35/35
f 33/33/33 31/31/31 34/34/34
f 30/30/30 31/31/31 33/33/33
f 35/35/35 34/34/34 36/36/36
f 31/31/31 28/28/28 25/25/25
f 21/21/21 37/37/37 26/26/26
f 25/25/25 19/19/19 26/26/26
f 25/25/25 38/38/38 34/34/34
f 38/38/38 25/25/25 26/26/26
f 26/26/26 37/37/37 39/39/39
f 27/27/27 37/37/37 21/21/21
f 27/27/27 40/40/40 37/37/37
f 31/31/31 25/25/25 34/34/34
f 40/40/40 41/41/41 37/37/37
f 36/36/36 42/42/42 43/43/43
f 36/36/36 34/34/34 42/42/42
f 25/25/25 28/28/28 16/16/16
f 44/44/44 42/42/42 45/45/45
f 44/44/44 46/46/46 42/42/42
f 43/43/43 42/42/42 46/46/46
f 47/47/47 45/45/45 48/48/48
f 47/47/47 49/49/49 45/45/45
f 44/44/44 45/45/45 49/49/49
f 50/50/50 48/48/48 51/51/51
f 50/50/50 47/47/47 48/48/48
f 48/48/48 45/45/45 52/52/52
f 45/45/45 42/42/42 38/38/38
f 39/39/39 38/38/38 26/26/26
f 38/38/38 39/39/39 52/52/52
f 39/39/39 53/53/53 54/54/54
f 53/53/53 39/39/39 37/37/37
f 54/54/54 52/52/52 39/39/39
f 54/54/54 55/55/55 52/52/52
f 54/54/54 56/56/56 55/55/55
f 57/57/57 58/58/58 54/54/54
f 59/59/59 54/54/54 53/53/53
f 59/59/59 57/57/57 54/54/54
f 45/45/45 38/38/38 52/52/52
f 37/37/37 60/60/60 53/53/53
f 37/37/37 61/61/61 60/60/60
f 62/62/62 52/52/52 63/63/63
f 62/62/62 48/48/48 52/52/52
f 38/38/38 42/42/42 34/34/34
f 64/64/64 59/59/59 53/53/53
f 64/64/64 65/65/65 59/59/59
f 65/65/65 64/64/64 66/66/66
f 62/62/62 51/51/51 48/48/48
f 56/56/56 54/54/54 58/58/58
f 63/63/63 52/52/52 55/55/55
f 61/61/61 37/37/37 41/41/41
f 64/64/64 53/53/53 60/60/60
