mtllib m033102.mtl
usemtl material0
v -256 4.4458160400390625 384
v -256 4.3323187828063965 385.84375
v -254.34088134765625 4.4836812019348145 384
v -251.78031921386719 4.5445032119750977 384
v -251.08377075195313 3.7553350925445557 397.26950073242188
v -239.14466857910156 4.0090508460998535 384
v -256 3.6227691173553467 397.52951049804688
v -235.78335571289063 4.018348217010498 384
v -235.12835693359375 3.8134810924530029 396.4267578125
v -256 2.6503419876098633 408.05209398269653
v -250.24853515625 2.2988729476928711 413.22934007644653
v -256 2.0469009876251221 419.62142896652222
v -256 2.2770059108734131 413.53311204910278
v -256 1.7332040071487427 436.511962890625
v -249.41064453125 1.3906669616699219 429.18734741210938
v -256 1.4922590255737305 429.53500366210938
v -234.29069519042969 2.85945200920105 412.38494896888733
v -219.17982482910156 2.4516549110412598 395.5887451171875
v -233.45417785644531 1.6685359477996826 428.34390258789062
v -218.33569288253784 2.834028959274292 411.54251098632812
v -232.60995483398438 2.0673611164093018 444.29757690429688
v -256 1.6799999475479126 448
v -251.13934326171875 1.4157739877700806 448
v -256 1.691972017288208 447.26702880859375
v -248.56867980957031 1.3227030038833618 445.142578125
v -256 1.7202810049057007 445.53378295898438
v -248.41815185546875 1.2613769769668579 448
v -232.41487121582031 1.9953769445419312 448
v -235.94148254394531 1.8277980089187622 448
v -216.65251207351685 2.5487649440765381 443.45346069335938
v -220.74345397949219 2.33453106880188 448
v -217.49351501464844 2.8105731010437012 427.49758911132812
v -223.94985999912024 2.7705800533294678 384
v -219.79177904129028 2.4171578884124756 384
v -203.80064392089844 0.73552101850509644 384
v -215.17338562011719 1.9437509775161743 384
v -203.232666015625 0.80997401475906372 394.75167846679688
v -192 -0.42267900705337524 384
v -198.29635620117188 0.24051700532436371 384
v -192 -0.25953599810600281 389.66864013671875
v -202.38906860351563 1.0819979906082153 410.70578002929688
v -192 -0.20707899332046509 394.16162109375
v -192 -0.098310001194477081 399.1561279296875
v -201.54055786132813 2.364670991897583 426.65652465820312
v -216.41272020339966 2.5025238990783691 448
v -200.69654846191406 2.7215049266815186 442.6103515625
v -205.54583740234375 2.6140189170837402 448
v -192 1.0897810459136963 416.04977399855852
v -192 0.60295999050140381 410.15862989425659
v -192 1.6285250186920166 426.15496826171875
v -192 1.8075460195541382 432.94244384765625
v -192 2.2502140998840332 442.15255737304688
v -192 2.4578509330749512 448
v -194.70703125 2.5994930267333984 448
v -192 2.3686978816986084 445.48928833007812
v -200.41166687011719 2.7917149066925049 448
vt 0.99450898170471191 0.0040349960327148438
vt 0.96592897176742554 0.0039950013160705566
vt 0.99450898170471191 0.029711008071899414
vt 0.99451100826263428 0.069338977336883545
vt 0.78883302211761475 0.079833984375
vt 0.99376100301742554 0.26500701904296875
vt 0.7847980260848999 0.0037450194358825684
vt 0.9936479926109314 0.31701302528381348
vt 0.80138301849365234 0.32671797275543213
vt 0.6213030219078064 0.0034009814262390137
vt 0.54085499048233032 0.092238008975982666
vt 0.4420430064201355 0.0030750036239624023
vt 0.53630602359771729 0.0032449960708618164
vt 0.18041400611400604 0.0024859905242919922
vt 0.29353699088096619 0.10479497909545898
vt 0.28842300176620483 0.0028210282325744629
vt 0.55402201414108276 0.33928000926971436
vt 0.812720000743866 0.57444599270820618
vt 0.30638200044631958 0.35171598196029663
vt 0.56575202941894531 0.58619600534439087
vt 0.059470001608133316 0.36468201875686646
vt 0.0026700000744313 0.0021870136260986328
vt 0.0025710000190883875 0.077439010143280029
vt 0.01401199959218502 0.0021929740905761719
vt 0.046658001840114594 0.11737298965454102
vt 0.040832001715898514 0.0022220015525817871
vt 0.0024339999072253704 0.11960798501968384
vt 0.002171000000089407 0.36758697032928467
vt 0.0022060000337660313 0.31284201145172119
vt 0.072187997400760651 0.61170101165771484
vt 0.0019189999438822269 0.54823899269104
vt 0.3192639946937561 0.59929698705673218
vt 0.99302101135253906 0.50110799074172974
vt 0.99206501245498657 0.5659320056438446
vt 0.99141198396682739 0.8144260048866272
vt 0.99172502756118774 0.63776001334190369
vt 0.82502597570419312 0.82251200079917908
vt 0.99091500043869019 0.99781300011090934
vt 0.9911230206489563 0.89992900192737579
vt 0.90317702293396 0.997306999983266
vt 0.57809698581695557 0.83443200588226318
vt 0.83365899324417114 0.99703600001521409
vt 0.75636798143386841 0.99666599999181926
vt 0.33099600672721863 0.84627600014209747
vt 0.0018269999418407679 0.61512899398803711
vt 0.08427099883556366 0.85863000154495239
vt 0.001171999960206449 0.78326499462127686
vt 0.49540698528289795 0.99485700018703938
vt 0.58580100536346436 0.99537699995562434
vt 0.3388420045375824 0.99431899981573224
vt 0.23377500474452972 0.99400199996307492
vt 0.091116003692150116 0.993389000184834
vt 0.0004889999981969595 0.99299600021913648
vt 0.0005959999980404973 0.95105599984526634
vt 0.039459001272916794 0.99320100015029311
vt 0.00086199998622760177 0.862746000289917
vn -0.022772999480366707 0.99785202741622925 0.061425000429153442
vn -0.023486999794840813 0.99787402153015137 0.060784999281167984
vn -0.023454999551177025 0.99787402153015137 0.060812998563051224
vn 0.0081759998574852943 0.99822801351547241 0.058938000351190567
vn -0.0061880000866949558 0.99752098321914673 0.0700950026512146
vn 0.009270000271499157 0.9995800256729126 0.027452999725937843
vn -0.022814000025391579 0.99678099155426025 0.0768510028719902
vn 0.049288000911474228 0.9986879825592041 0.01386599987745285
vn 0.041193999350070953 0.99845200777053833 0.037372998893260956
vn -0.016179999336600304 0.99619799852371216 0.0856039971113205
vn -0.012538000009953976 0.99778497219085693 0.0653349980711937
vn 0.013643000274896622 0.99857300519943237 0.051639001816511154
vn -0.0010310000507161021 0.99862802028656006 0.052359998226165771
vn 0.044204998761415482 0.99899798631668091 -0.0069510000757873058
vn -0.00080899999011307955 0.999701976776123 0.024380000308156013
vn 0.015899000689387321 0.99983197450637817 0.009170999750494957
vn -0.0011869999580085278 0.99851500988006592 0.054473001509904861
vn 0.082970000803470612 0.99652498960495 -0.0073739998042583466
vn -0.034366998821496964 0.99925702810287476 0.017459999769926071
vn 0.045297000557184219 0.99896699190139771 -0.0036130000371485949
vn -0.039705999195575714 0.999176025390625 0.008391999639570713
vn 0.054273001849651337 0.99839299917221069 0.016307000070810318
vn 0.054903998970985413 0.99834901094436646 0.016876000910997391
vn 0.054273001849651337 0.99839299917221069 0.016307000070810318
vn 0.0043460000306367874 0.99991399049758911 0.012350999750196934
vn 0.053899999707937241 0.99850499629974365 0.0091150002554059029
vn 0.0039440002292394638 0.99976599216461182 0.021248999983072281
vn -0.0379440002143383 0.99905002117156982 0.02142300084233284
vn -0.04590199887752533 0.99867397546768188 0.023313999176025391
vn -0.016248999163508415 0.9998130202293396 0.010455000214278698
vn -0.031631000339984894 0.99932599067687988 0.018626999109983444
vn -0.0066929999738931656 0.99995899200439453 -0.0060959998518228531
vn 0.090062998235225677 0.99593299627304077 -0.0025659999810159206
vn 0.093043997883796692 0.99563097953796387 -0.00787699967622757
vn 0.097868002951145172 0.99512600898742676 -0.012060999870300293
vn 0.1028209999203682 0.9946560263633728 -0.0093040000647306442
vn 0.096711002290248871 0.99515998363494873 -0.017407000064849854
vn 0.1047080010175705 0.9940909743309021 -0.028610000386834145
vn 0.093094997107982636 0.99553501605987549 -0.015584000386297703
vn 0.093625001609325409 0.99547600746154785 -0.016178000718355179
vn 0.0704990029335022 0.99637299776077271 -0.047658998519182205
vn 0.08930400013923645 0.9958680272102356 -0.016485000029206276
vn 0.0782490000128746 0.99643802642822266 -0.0314439982175827
vn 0.041349999606609344 0.99814301729202271 -0.0447239987552166
vn -0.024035999551415443 0.999646008014679 0.011435000225901604
vn 0.018035000190138817 0.99961501359939575 -0.021062999963760376
vn -0.01675100065767765 0.99984800815582275 0.0048690000548958778
vn 0.049143001437187195 0.995934009552002 -0.075503997504711151
vn 0.042123999446630478 0.99647200107574463 -0.0725879967212677
vn 0.0747700035572052 0.996392011642456 -0.040167000144720078
vn 0.069946996867656708 0.99705797433853149 -0.031337998807430267
vn 0.051865998655557632 0.99777400493621826 -0.041910000145435333
vn 0.052218999713659286 0.99800699949264526 -0.035438001155853271
vn 0.047896001487970352 0.99838298559188843 -0.030626000836491585
vn 0.052218999713659286 0.99800699949264526 -0.035438001155853271
vn 0.00069000001531094313 0.99991399049758911 -0.013062000274658203
f 1/1/1 2/2/2 3/3/3
f 4/4/4 5/5/5 6/6/6
f 7/7/7 3/3/3 2/2/2
f 7/7/7 5/5/5 3/3/3
f 5/5/5 4/4/4 3/3/3
f 8/8/8 5/5/5 9/9/9
f 8/8/8 6/6/6 5/5/5
f 5/5/5 10/10/10 11/11/11
f 5/5/5 7/7/7 10/10/10
f 12/12/12 11/11/11 13/13/13
f 14/14/14 15/15/15 16/16/16
f 11/11/11 15/15/15 17/17/17
f 17/17/17 9/9/9 11/11/11
f 17/17/17 18/18/18 9/9/9
f 19/19/19 20/20/20 17/17/17
f 19/19/19 17/17/17 15/15/15
f 10/10/10 13/13/13 11/11/11
f 19/19/19 15/15/15 21/21/21
f 22/22/22 23/23/23 24/24/24
f 24/24/24 25/25/25 26/26/26
f 24/24/24 23/23/23 25/25/25
f 14/14/14 25/25/25 15/15/15
f 14/14/14 26/26/26 25/25/25
f 27/27/27 25/25/25 23/23/23
f 28/28/28 21/21/21 29/29/29
f 27/27/27 21/21/21 25/25/25
f 27/27/27 29/29/29 21/21/21
f 28/28/28 30/30/30 21/21/21
f 28/28/28 31/31/31 30/30/30
f 15/15/15 25/25/25 21/21/21
f 19/19/19 21/21/21 32/32/32
f 12/12/12 15/15/15 11/11/11
f 12/12/12 16/16/16 15/15/15
f 5/5/5 11/11/11 9/9/9
f 8/8/8 9/9/9 33/33/33
f 18/18/18 33/33/33 9/9/9
f 18/18/18 34/34/34 33/33/33
f 35/35/35 36/36/36 37/37/37
f 38/38/38 39/39/39 40/40/40
f 17/17/17 20/20/20 18/18/18
f 18/18/18 20/20/20 37/37/37
f 41/41/41 20/20/20 32/32/32
f 20/20/20 41/41/41 37/37/37
f 42/42/42 41/41/41 43/43/43
f 42/42/42 37/37/37 41/41/41
f 41/41/41 32/32/32 44/44/44
f 36/36/36 18/18/18 37/37/37
f 36/36/36 34/34/34 18/18/18
f 19/19/19 32/32/32 20/20/20
f 31/31/31 45/45/45 30/30/30
f 45/45/45 46/46/46 30/30/30
f 45/45/45 47/47/47 46/46/46
f 44/44/44 30/30/30 46/46/46
f 32/32/32 30/30/30 44/44/44
f 48/48/48 41/41/41 44/44/44
f 48/48/48 49/49/49 41/41/41
f 21/21/21 30/30/30 32/32/32
f 50/50/50 48/48/48 44/44/44
f 43/43/43 41/41/41 49/49/49
f 46/46/46 50/50/50 44/44/44
f 46/46/46 51/51/51 50/50/50
f 52/52/52 51/51/51 46/46/46
f 53/53/53 46/46/46 54/54/54
f 53/53/53 55/55/55 46/46/46
f 55/55/55 52/52/52 46/46/46
f 54/54/54 46/46/46 56/56/56
f 56/56/56 46/46/46 47/47/47
f 40/40/40 37/37/37 42/42/42
f 40/40/40 39/39/39 37/37/37
f 39/39/39 35/35/35 37/37/37
