mtllib m0333130.mtl
usemtl material0
v -63.63385009765625 -0.092099003493785858 160
v -63.456035614013672 -0.224481001496315 163.38096618652344
v -60.4141960144043 -0.24454900622367859 160
v -64 -0.18871599435806274 163.40959167480469
v -64 -0.1733269989490509 162.977294921875
v -64 -0.067340001463890076 160
v -55.635501861572266 -0.37837401032447815 160
v -55.4795298576355 -0.43976101279258728 162.96043395996094
v -64 -0.075098000466823578 170.48901414871216
v -63.034400939941406 -0.123819999396801 171.35813903808594
v -52.816184997558594 -0.53273200988769531 160
v -47.503410011529922 -0.734158992767334 162.5401611328125
v -47.637459009885788 -0.72439497709274292 160
v -41.881584167480469 -0.80390000343322754 160
v -39.526382446289062 -0.843034029006958 162.1192626953125
v -39.638160705566406 -0.82334297895431519 160
v -32 -0.68844699859619141 160
v -33.435080528259277 -0.72227901220321655 160
v -32 -0.7120019793510437 161.29104614257813
v -55.058979034423828 -0.56028801202774048 170.93833923339844
v -64 -0.090727001428604126 171.40902709960938
v -64 -0.063593000173568726 172.43150305747986
v -64 -0.016499999910593033 180.87718200683594
v -62.613380432128906 -0.14817699790000916 179.3357241153717
v -64 -0.062020000070333481 179.40867590904236
v -64 0.039386998862028122 187.40809631347656
v -64 0.099739000201225281 189.32301330566406
v -62.192081451416016 -0.11591199785470963 187.3131103515625
v -64 0.1086990013718605 192
v -61.944721221923828 -0.12880900502204895 192
v -58.81060791015625 -0.25246098637580872 192
v -54.216061115264893 -0.430310994386673 186.89291381835938
v -54.638081073760986 -0.6095460057258606 178.91601610183716
v -47.081516027450562 -0.58027702569961548 170.51713609695435
v -46.661419034004211 -0.79310697317123413 178.49536108970642
v -53.946498870849609 -0.4393639862537384 192
v -51.212624073028564 -0.55309897661209106 192
v -46.240128040313721 -0.76230698823928833 186.47276306152344
v -39.104705810546875 -0.73358398675918579 170.09638977050781
v -32 -0.71637099981307983 161.72142028808594
v -32 -0.710250973701477 162.19973754882813
v -38.683635711669922 -0.74768698215484619 178.07394409179688
v -45.947731018066406 -0.64252597093582153 192
v -38.262416839599609 -0.73104697465896606 186.0513916015625
v -43.614226818084717 -0.63074398040771484 192
v -32 -0.35485100746154785 170.64605712890625
v -32 -0.35059100389480591 169.72001600265503
v -32 -0.54482197761535645 177.72036695480347
v -32 -0.54416102170944214 179.09124803543091
v -32 -0.49881801009178162 185.71995544433594
v -32 -0.43532401323318481 192
v -32 -0.45678400993347168 187.53701782226563
v -36.015457153320312 -0.5073620080947876 192
v -37.9476203918457 -0.58137798309326172 192
vt 0.99537599086761475 0.015487015247344971
vt 0.89059597253799438 0.021182000637054443
vt 0.99537599086761475 0.11531198024749756
vt 0.88972097635269165 0.0042979717254638672
vt 0.90311801433563232 0.004275977611541748
vt 0.99538397789001465 0.0041210055351257324
vt 0.99545502662658691 0.26336801052093506
vt 0.90375602245330811 0.26829898357391357
vt 0.67044198513031006 0.0039160251617431641
vt 0.64351898431777954 0.034192979335784912
vt 0.99545902013778687 0.35081398487091064
vt 0.91687500476837158 0.51548400521278381
vt 0.99554198980331421 0.51128900051116943
vt 0.99563401937484741 0.68956699967384338
vt 0.93004000186920166 0.76255099475383759
vt 0.99567502737045288 0.7590470016002655
vt 0.99571198225021362 0.99572899984195828
vt 0.9958299994468689 0.95118299871683121
vt 0.95572102069854736 0.99567699991166592
vt 0.6566619873046875 0.28155702352523804
vt 0.6419450044631958 0.0040910243988037109
vt 0.61025899648666382 0.0042499899864196777
vt 0.34867200255393982 0.0043110251426696777
vt 0.39645799994468689 0.047396004199981689
vt 0.3941740095615387 0.0043709874153137207
vt 0.14641200006008148 0.0043100118637084961
vt 0.087076999247074127 0.0041980147361755371
vt 0.14939700067043304 0.0605049729347229
vt 0.0041689998470246792 0.00427401065826416
vt 0.004244999960064888 0.068216025829315186
vt 0.0042719999328255653 0.16535598039627075
vt 0.16247999668121338 0.30771297216415405
vt 0.4095970094203949 0.29479897022247314
vt 0.66978299617767334 0.52861800789833069
vt 0.42268499732017517 0.54190000891685486
vt 0.0043150000274181366 0.31611001491546631
vt 0.0043440000154078007 0.40086197853088379
vt 0.17557600140571594 0.55493900179862976
vt 0.682968020439148 0.77569900453090668
vt 0.94239199161529541 0.99567699991166592
vt 0.927577018737793 0.99568299995735288
vt 0.43594101071357727 0.78896799683570862
vt 0.0043529998511075974 0.56393998861312866
vt 0.18874399363994598 0.80200700461864471
vt 0.0043660001829266548 0.63621100783348083
vt 0.66621500253677368 0.99606300005689263
vt 0.69440597295761108 0.99606500007212162
vt 0.44704300165176392 0.99604899995028973
vt 0.40439999103546143 0.99593200022354722
vt 0.1991019994020462 0.99608399998396635
vt 0.0043109999969601631 0.99597699986770749
vt 0.14253300428390503 0.995947000104934
vt 0.0042949998751282692 0.87159700691699982
vt 0.0043660001829266548 0.81171399354934692
vn 0.057698000222444534 0.99768400192260742 0.03602999821305275
vn 0.052655000239610672 0.99854499101638794 0.011622999794781208
vn 0.0331370010972023 0.99916499853134155 0.023883000016212463
vn 0.066069997847080231 0.99777501821517944 0.00889500044286251
vn 0.0674239993095398 0.99709302186965942 0.035495001822710037
vn 0.0674239993095398 0.99709302186965942 0.035495001822710037
vn 0.040874000638723373 0.99899202585220337 0.018561000004410744
vn 0.034774001687765121 0.99929797649383545 0.013965999707579613
vn 0.056866999715566635 0.99835598468780518 -0.0072119999676942825
vn 0.051477000117301941 0.998649001121521 -0.0070440000854432583
vn 0.041701000183820724 0.999110996723175 0.0061400001868605614
vn 0.020732000470161438 0.9997749924659729 -0.0045190001837909222
vn 0.02578900009393692 0.99966400861740112 0.0024820000398904085
vn 0.012610999867320061 0.99991101026535034 0.0044479998759925365
vn -0.0017590000061318278 0.9999920129776001 -0.0034990001004189253
vn -0.0033939999993890524 0.99994897842407227 0.0094699999317526817
vn -0.023563999682664871 0.99955600500106812 0.018237000331282616
vn -0.017985999584197998 0.99976599216461182 0.012035000137984753
vn -0.018231000751256943 0.99975800514221191 0.0123070003464818
vn 0.029859999194741249 0.99955397844314575 0.00091100001009181142
vn 0.033962000161409378 0.99940800666809082 -0.0055010002106428146
vn 0.055211000144481659 0.99845397472381592 -0.00635599996894598
vn 0.079365998506546021 0.99675101041793823 -0.013752000406384468
vn 0.062116000801324844 0.99804902076721191 -0.0063419998623430729
vn 0.061163000762462616 0.99799799919128418 -0.016099000349640846
vn 0.084504999220371246 0.99621498584747314 -0.020352000370621681
vn 0.10760000348091126 0.9941449761390686 -0.0098799997940659523
vn 0.06796099990606308 0.997635006904602 -0.010235999710857868
vn 0.1147959977388382 0.99338400363922119 -0.0033249999396502972
vn 0.075897999107837677 0.99711501598358154 -0.0012619999470189214
vn 0.039149001240730286 0.99923300743103027 0.00042200001189485192
vn 0.037523001432418823 0.99924701452255249 -0.0098770000040531158
vn 0.035252999514341354 0.999364972114563 -0.005142000038176775
vn 0.012787000276148319 0.99991798400878906 0.0011490000179037452
vn 0.014368999749422073 0.99988299608230591 0.0052069998346269131
vn 0.040034998208284378 0.99919801950454712 -0.00034200001391582191
vn 0.035011999309062958 0.99936699867248535 -0.006328000221401453
vn 0.01513999979943037 0.99983102083206177 -0.010412000119686127
vn -0.016155999153852463 0.99984699487686157 -0.0066399998031556606
vn -0.016876000910997391 0.99985700845718384 -0.00093600002583116293
vn -0.0265670008957386 0.99942702054977417 -0.020949000492691994
vn -0.020542999729514122 0.9997820258140564 0.0036440000403672457
vn 0.0055959997698664665 0.99974298477172852 -0.02196200005710125
vn -0.020764000713825226 0.99970102310180664 -0.012923000380396843
vn -0.0060250000096857548 0.99973398447036743 -0.022276999428868294
vn -0.047835998237133026 0.99880701303482056 0.0097810002043843269
vn -0.054999999701976776 0.99823498725891113 -0.022419000044465065
vn -0.029614999890327454 0.99946802854537964 0.013639000244438648
vn -0.032010000199079514 0.99948602914810181 -0.0019640000537037849
vn -0.037829998880624771 0.999176025390625 -0.014702999964356422
vn -0.017937000840902328 0.99982798099517822 -0.0048070000484585762
vn -0.033528000116348267 0.99926000833511353 -0.018842000514268875
vn -0.032846998423337936 0.9992939829826355 -0.018228000029921532
vn -0.023994000628590584 0.99942702054977417 -0.023876000195741653
f 1/1/1 2/2/2 3/3/3
f 4/4/4 2/2/2 5/5/5
f 5/5/5 1/1/1 6/6/6
f 5/5/5 2/2/2 1/1/1
f 7/7/7 2/2/2 8/8/8
f 7/7/7 3/3/3 2/2/2
f 2/2/2 9/9/9 10/10/10
f 2/2/2 4/4/4 9/9/9
f 7/7/7 8/8/8 11/11/11
f 11/11/11 12/12/12 13/13/13
f 11/11/11 8/8/8 12/12/12
f 14/14/14 15/15/15 16/16/16
f 17/17/17 18/18/18 19/19/19
f 8/8/8 2/2/2 20/20/20
f 21/21/21 22/22/22 10/10/10
f 23/23/23 24/24/24 25/25/25
f 22/22/22 24/24/24 10/10/10
f 22/22/22 25/25/25 24/24/24
f 10/10/10 24/24/24 20/20/20
f 26/26/26 27/27/27 28/28/28
f 21/21/21 10/10/10 9/9/9
f 24/24/24 26/26/26 28/28/28
f 24/24/24 23/23/23 26/26/26
f 29/29/29 28/28/28 27/27/27
f 29/29/29 30/30/30 28/28/28
f 28/28/28 31/31/31 32/32/32
f 28/28/28 30/30/30 31/31/31
f 28/28/28 33/33/33 24/24/24
f 20/20/20 33/33/33 34/34/34
f 33/33/33 32/32/32 35/35/35
f 32/32/32 33/33/33 28/28/28
f 20/20/20 24/24/24 33/33/33
f 36/36/36 32/32/32 31/31/31
f 37/37/37 32/32/32 36/36/36
f 37/37/37 38/38/38 32/32/32
f 20/20/20 2/2/2 10/10/10
f 33/33/33 35/35/35 34/34/34
f 12/12/12 34/34/34 15/15/15
f 39/39/39 34/34/34 35/35/35
f 34/34/34 39/39/39 15/15/15
f 40/40/40 39/39/39 41/41/41
f 40/40/40 15/15/15 39/39/39
f 39/39/39 35/35/35 42/42/42
f 14/14/14 12/12/12 15/15/15
f 14/14/14 13/13/13 12/12/12
f 32/32/32 38/38/38 35/35/35
f 43/43/43 44/44/44 38/38/38
f 43/43/43 45/45/45 44/44/44
f 42/42/42 38/38/38 44/44/44
f 35/35/35 38/38/38 42/42/42
f 46/46/46 39/39/39 42/42/42
f 46/46/46 47/47/47 39/39/39
f 37/37/37 43/43/43 38/38/38
f 48/48/48 46/46/46 42/42/42
f 41/41/41 39/39/39 47/47/47
f 44/44/44 48/48/48 42/42/42
f 44/44/44 49/49/49 48/48/48
f 49/49/49 44/44/44 50/50/50
f 51/51/51 52/52/52 53/53/53
f 50/50/50 53/53/53 52/52/52
f 50/50/50 44/44/44 53/53/53
f 44/44/44 54/54/54 53/53/53
f 54/54/54 44/44/44 45/45/45
f 19/19/19 15/15/15 40/40/40
f 19/19/19 18/18/18 15/15/15
f 18/18/18 16/16/16 15/15/15
f 20/20/20 34/34/34 12/12/12
f 20/20/20 12/12/12 8/8/8
