mtllib m03333123.mtl
usemtl material0
v -44.6953010559082 1.3015400171279907 64
v -45.105473041534424 1.3113729953765869 64
v -44.674866199493408 1.2971680164337158 64.387519836425781
v -44.326210021972656 1.2962069511413574 64
v -46.695014953613281 1.3483749628067017 64
v -47.216255187988281 1.3880089521408081 64
v -46.669036865234375 1.3424539566040039 64.492682933807373
v -48 1.4209239482879639 64.562720775604248
v -46.563788890838623 1.3341100215911865 66.487091064453125
v -48 1.4202489852905273 65.19427490234375
v -42.68072509765625 1.246021032333374 64.282379150390625
v -42.69559907913208 1.2525249719619751 64
v -44.5697979927063 1.2526919841766357 66.382050037384033
v -48 1.427014946937561 64.323769092559814
v -48 1.4352669715881348 64
v -42.575732946395874 1.185920000076294 66.276961803436279
v -42.426670074462891 1.2433509826660156 64
v -48 1.2058900594711304 78.585892200469971
v -47.927115917205811 1.2023539543151856 78.559120178222656
v -48 1.206650972366333 78.562957763671875
v -48 1.2040899991989136 78.640137195587158
v -48 1.3826730251312256 70.5626529455185
v -44.359547138214111 1.1876599788665772 70.371032953262329
v -48 1.3881980180740356 69.783775091171265
v -48 1.4437659978866577 66.562583923339844
v -44.149253845214844 1.1309250593185425 74.359977960586548
v -40.371468007564545 1.043861985206604 70.160881042480469
v -48 1.3789119720458984 70.893555045127869
v -48 1.2534329891204834 77.1736068725586
v -48 1.341920018196106 74.562659978866577
v -45.424594879150391 0.99011802673339844 80
v -43.93952202796936 0.95993000268936157 78.349311828613281
v -47.851356983184814 1.1425319910049439 80
v -48 1.1523569822311401 80
v -40.161366000771523 0.94855397939682007 74.149962902069092
v -43.852638006210327 0.90897202491760254 80
v -39.951611001044512 0.781952977180481 78.139289855957031
v -41.625659942626953 0.80624699592590332 80
v -40.686690986156464 1.1733889579772949 64.17730712890625
v -40.696026027202606 1.1780810356140137 64
v -40.527167975902557 1.1697330474853516 64
v -38.692772030830383 1.0768309831619263 64.072319030761719
v -40.581699013710022 1.1132880449295044 66.1718897819519
v -38.696578979492188 1.0787620544433594 64
v -37.31863808631897 1.0005240440368652 64
v -38.587677001953125 1.0377249717712402 66.066833019256592
v -36.383250951766968 0.928380012512207 69.950644969940186
v -37.826587915420532 0.69673001766204834 80
v -35.963450908660889 0.655239999294281 77.929084777832031
v -39.853485003113747 0.76208800077438354 80
v -36.173343896865845 0.793520987033844 73.939857006073
v -36.728267908096313 0.96722298860549927 64
v -34.697516918182373 0.9131699800491333 64
v -36.662678003311157 0.965008020401001 64
v -34.599559783935547 0.90222102403640747 65.856658935546875
v -36.5936279296875 0.96802002191543579 65.961753845214844
v -32.395565032958984 0.70498400926589966 69.740767955780029
v -32 0.35066801309585571 77.720748901367188
v -34.027732849121094 0.46905800700187683 80
v -32 0.35023400187492371 77.745986938476562
v -35.854351043701172 0.61107802391052246 80
v -32.185951232910156 0.51006698608398438 73.730193972587585
v -36.697201013565063 0.96614199876785278 64
v -32.929152965545654 0.87947797775268555 64
v -32 0.82252699136734009 65.078551769256592
v -32.697772979736328 0.87257099151611328 64
v -32.605453014373779 0.84423202276229858 65.751541137695312
v -32 0.837086021900177 64
v -32 0.82130002975463867 65.195479869842529
v -32 0.8158000111579895 65.719657897949219
v -32 0.68766802549362183 69.7199399471283
v -32 0.51106899976730347 73.523514032363892
v -32 0.49917200207710266 73.720406055450439
v -32 0.36715099215507507 77.266356945037842
v -32 0.71509802341461182 68.8329849243164
v -32 0.3030569851398468 80
vt 0.20067599415779114 0.026453018188476562
vt 0.17602600157260895 0.027300000190734863
vt 0.20271000266075134 0.049695014953613281
vt 0.22285400331020355 0.025689005851745605
vt 0.08049900084733963 0.030580997467041016
vt 0.049091000109910965 0.031643986701965332
vt 0.083084002137184143 0.060130000114440918
vt 0.003123000031337142 0.067071974277496338
vt 0.093514002859592438 0.17974001169204712
vt 0.0044200001284480095 0.10501700639724731
vt 0.32234299182891846 0.0392720103263855
vt 0.32085800170898438 0.022333979606628418
vt 0.21320000290870667 0.1693350076675415
vt 0.0026110000908374786 0.052712023258209229
vt 0.0019180000526830554 0.033254027366638184
vt 0.33285000920295715 0.15893900394439697
vt 0.337024986743927 0.021782994270324707
vt 0.032327998429536819 0.90971899777650833
vt 0.036619998514652252 0.907869003713131
vt 0.032249998301267624 0.90834199637174606
vt 0.032405000180006027 0.91288600116968155
vt 0.015483000315725803 0.4275360107421875
vt 0.23412199318408966 0.40858900547027588
vt 0.013880999758839607 0.38073897361755371
vt 0.0071310000494122505 0.18724197149276733
vt 0.2550329864025116 0.647834986448288
vt 0.473457008600235 0.38779902458190918
vt 0.016170000657439232 0.4474179744720459
vt 0.029298000037670135 0.8248240053653717
vt 0.023755999282002449 0.66787099838256836
vt 0.19036300480365753 0.98948800005018711
vt 0.27622899413108826 0.88727299869060516
vt 0.044268999248743057 0.99434599978849292
vt 0.035317998379468918 0.99464299995452166
vt 0.4944550096988678 0.6270889937877655
vt 0.28494900465011597 0.98630800005048513
vt 0.5156400203704834 0.86651700735092163
vt 0.41889199614524841 0.9817660003900528
vt 0.44201299548149109 0.028889000415802002
vt 0.4410800039768219 0.018253028392791748
vt 0.4512380063533783 0.017911016941070557
vt 0.561739981174469 0.018549978733062744
vt 0.45252001285552979 0.14855599403381348
vt 0.56136000156402588 0.014210999011993408
vt 0.64428400993347168 0.011439025402069092
vt 0.57219702005386353 0.13818597793579102
vt 0.71274399757385254 0.36699700355529785
vt 0.64724498987197876 0.9739340003579855
vt 0.7549399733543396 0.8456680029630661
vt 0.52539902925491333 0.9781119991093874
vt 0.73381501436233521 0.60633599758148193
vt 0.67980998754501343 0.010239005088806152
vt 0.80179899930953979 0.0060120224952697754
vt 0.68375301361083984 0.010106027126312256
vt 0.81151401996612549 0.11736202239990234
vt 0.691864013671875 0.12783300876617432
vt 0.95228701829910278 0.34633898735046387
vt 0.99337202310562134 0.82532300055027008
vt 0.87584000825881958 0.9662880003452301
vt 0.9934229850769043 0.82683899998664856
vt 0.76585102081298828 0.96988599933683872
vt 0.97358298301696777 0.58583998680114746
vt 0.68167799711227417 0.010176002979278565
vt 0.90810799598693848 0.0023890137672424316
vt 0.96622002124786377 0.065308988094329834
vt 0.92201602458953857 0.0019159913063049316
vt 0.93118500709533691 0.10697299242019653
vt 0.963994026184082 0.00050300359725952148
vt 0.96645700931549072 0.0723310112953186
vt 0.967536985874176 0.10382598638534546
vt 0.97603297233581543 0.34427601099014282
vt 0.98431700468063354 0.57302901148796082
vt 0.98475497961044312 0.58487901091575623
vt 0.992393970489502 0.798005998134613
vt 0.9741399884223938 0.29096400737762451
vt 0.99808198213577271 0.96229099854826927
vn 0.019365999847650528 0.9997599720954895 0.010258999653160572
vn 0.023431999608874321 0.99966901540756226 0.010606000199913979
vn 0.0247189998626709 0.99953198432922363 0.018017999827861786
vn 0.023484999313950539 0.9995499849319458 0.018650999292731285
vn 0.050450000911951065 0.998682975769043 0.009340999647974968
vn 0.063814997673034668 0.99773299694061279 0.021372999995946884
vn 0.045643001794815063 0.99890798330307007 0.010021000169217587
vn 0.059523999691009521 0.99814397096633911 0.01285099983215332
vn 0.055840998888015747 0.99842697381973267 0.0050599998794496059
vn 0.063274003565311432 0.9979889988899231 -0.003797000041231513
vn 0.031915001571178436 0.99917000532150269 0.025307999923825264
vn 0.030306000262498856 0.99931097030639648 0.021421000361442566
vn 0.035665001720190048 0.99924898147583008 0.015145000070333481
vn 0.060169000178575516 0.9978640079498291 0.025434000417590141
vn 0.060169998556375504 0.9978640079498291 0.025434000417590141
vn 0.035204000771045685 0.99916499853134155 0.020749000832438469
vn 0.03671799972653389 0.99904698133468628 0.023587999865412712
vn 0.060557998716831207 0.9976159930229187 0.033105000853538513
vn 0.061508998274803162 0.99745798110961914 0.035964999347925186
vn 0.060571998357772827 0.99760699272155762 0.033342998474836349
vn 0.06466200202703476 0.99722802639007568 0.036804001778364182
vn 0.053977001458406448 0.99849897623062134 0.0092869997024536133
vn 0.044266998767852783 0.998947024345398 0.012020000256597996
vn 0.056899998337030411 0.99834400415420532 0.008409000001847744
vn 0.076160997152328491 0.997094988822937 0.00060299999313429
vn 0.050942998379468918 0.99835997819900513 0.026116000488400459
vn 0.035262998193502426 0.99923700094223022 0.016812000423669815
vn 0.054391998797655106 0.998458981513977 0.011008000001311302
vn 0.056522000581026077 0.997829020023346 0.0338129997253418
vn 0.055868998169898987 0.99818801879882812 0.022330999374389648
vn 0.05967399850487709 0.99758899211883545 0.035441998392343521
vn 0.053258001804351807 0.99796098470687866 0.035179000347852707
vn 0.0642160028219223 0.99721097946166992 0.038026001304388046
vn 0.065911002457141876 0.9971039891242981 0.037932001054286957
vn 0.042546998709440231 0.99858498573303223 0.031915999948978424
vn 0.048702001571655273 0.99841398000717163 0.028258999809622765
vn 0.037879001349210739 0.99894899129867554 0.02582399919629097
vn 0.040419001132249832 0.99891102313995361 0.023321999236941338
vn 0.043706998229026794 0.99870598316192627 0.025988999754190445
vn 0.043320998549461365 0.99876898527145386 0.024147000163793564
vn 0.049550998955965042 0.99848300218582153 0.023990999907255173
vn 0.051722999662160873 0.99842500686645508 0.021709999069571495
vn 0.039510998874902725 0.99901199340820312 0.020347999408841133
vn 0.053024999797344208 0.998308002948761 0.023869000375270844
vn 0.056315001100301743 0.99827301502227783 0.016728000715374947
vn 0.038492999970912933 0.99918800592422485 0.011919000186026096
vn 0.04351000115275383 0.998835027217865 0.020863000303506851
vn 0.035204000771045685 0.99931198358535767 0.011649999767541885
vn 0.056081000715494156 0.99812901020050049 0.024377999827265739
vn 0.028691999614238739 0.99954599142074585 0.0091580003499984741
vn 0.053881000727415085 0.99796497821807861 0.034095998853445053
vn 0.0405299998819828 0.99917501211166382 0.0023809999693185091
vn 0.022832000628113747 0.99972802400588989 0.00469100009649992
vn 0.031328998506069183 0.99950897693634033 -0.0010130000300705433
vn 0.033229000866413116 0.99936699867248535 0.01267900038510561
vn 0.034099001437425613 0.99941498041152954 0.0026879999786615372
vn 0.051752999424934387 0.998062014579773 0.034552000463008881
vn 0.078000001609325409 0.99658900499343872 0.026961000636219978
vn 0.078589998185634613 0.99674201011657715 0.018155999481678009
vn 0.07845500111579895 0.99675500392913818 0.018032999709248543
vn 0.061035998165607452 0.99797201156616211 0.018066000193357468
vn 0.065728001296520233 0.99694597721099854 0.042176000773906708
vn 0.0338440015912056 0.99942302703857422 -0.0027439999394118786
vn 0.02695699967443943 0.999563992023468 0.012009000405669212
vn 0.05000700056552887 0.99866700172424316 0.012780000455677509
vn 0.039955999702215195 0.99910300970077515 0.014058999717235565
vn 0.039586000144481659 0.9989510178565979 0.023029999807476997
vn 0.050783999264240265 0.998619019985199 0.013480000197887421
vn 0.047456000000238419 0.99881798028945923 0.010479999706149101
vn 0.048002000898122787 0.9986259937286377 0.021028999239206314
vn 0.045717000961303711 0.99821799993515015 0.0383559986948967
vn 0.049729000777006149 0.99753201007843018 0.049573998898267746
vn 0.060995999723672867 0.9969329833984375 0.049035999923944473
vn 0.078160002827644348 0.99628502130508423 0.036155000329017639
vn 0.048154998570680618 0.99832397699356079 0.032106000930070877
vn 0.081574000418186188 0.99644899368286133 0.020855000242590904
f 1/1/1 2/2/2 3/3/3
f 4/4/4 1/1/1 3/3/3
f 5/5/5 6/6/6 7/7/7
f 8/8/8 9/9/9 7/7/7
f 8/8/8 10/10/10 9/9/9
f 5/5/5 3/3/3 2/2/2
f 5/5/5 7/7/7 3/3/3
f 4/4/4 11/11/11 12/12/12
f 4/4/4 3/3/3 11/11/11
f 7/7/7 13/13/13 3/3/3
f 6/6/6 8/8/8 7/7/7
f 6/6/6 14/14/14 8/8/8
f 14/14/14 6/6/6 15/15/15
f 3/3/3 16/16/16 11/11/11
f 12/12/12 11/11/11 17/17/17
f 18/18/18 19/19/19 20/20/20
f 18/18/18 21/21/21 19/19/19
f 9/9/9 22/22/22 23/23/23
f 9/9/9 24/24/24 22/22/22
f 24/24/24 9/9/9 25/25/25
f 16/16/16 13/13/13 23/23/23
f 13/13/13 16/16/16 3/3/3
f 23/23/23 26/26/26 27/27/27
f 23/23/23 13/13/13 9/9/9
f 7/7/7 9/9/9 13/13/13
f 23/23/23 28/28/28 26/26/26
f 23/23/23 22/22/22 28/28/28
f 20/20/20 19/19/19 29/29/29
f 30/30/30 19/19/19 26/26/26
f 30/30/30 29/29/29 19/19/19
f 19/19/19 31/31/31 32/32/32
f 19/19/19 33/33/33 31/31/31
f 34/34/34 19/19/19 21/21/21
f 34/34/34 33/33/33 19/19/19
f 32/32/32 26/26/26 19/19/19
f 32/32/32 35/35/35 26/26/26
f 36/36/36 37/37/37 32/32/32
f 36/36/36 38/38/38 37/37/37
f 36/36/36 32/32/32 31/31/31
f 28/28/28 30/30/30 26/26/26
f 27/27/27 16/16/16 23/23/23
f 10/10/10 25/25/25 9/9/9
f 11/11/11 16/16/16 39/39/39
f 39/39/39 17/17/17 11/11/11
f 39/39/39 40/40/40 17/17/17
f 40/40/40 39/39/39 41/41/41
f 42/42/42 39/39/39 43/43/43
f 41/41/41 42/42/42 44/44/44
f 41/41/41 39/39/39 42/42/42
f 44/44/44 42/42/42 45/45/45
f 42/42/42 43/43/43 46/46/46
f 43/43/43 39/39/39 16/16/16
f 35/35/35 27/27/27 26/26/26
f 35/35/35 47/47/47 27/27/27
f 37/37/37 48/48/48 49/49/49
f 37/37/37 50/50/50 48/48/48
f 51/51/51 35/35/35 37/37/37
f 46/46/46 27/27/27 47/47/47
f 50/50/50 37/37/37 38/38/38
f 43/43/43 27/27/27 46/46/46
f 37/37/37 35/35/35 32/32/32
f 52/52/52 42/42/42 46/46/46
f 52/52/52 45/45/45 42/42/42
f 27/27/27 43/43/43 16/16/16
f 53/53/53 54/54/54 55/55/55
f 47/47/47 56/56/56 46/46/46
f 56/56/56 47/47/47 55/55/55
f 51/51/51 57/57/57 47/47/47
f 51/51/51 47/47/47 35/35/35
f 58/58/58 59/59/59 60/60/60
f 58/58/58 49/49/49 59/59/59
f 49/49/49 61/61/61 59/59/59
f 62/62/62 51/51/51 49/49/49
f 55/55/55 47/47/47 57/57/57
f 61/61/61 49/49/49 48/48/48
f 54/54/54 56/56/56 55/55/55
f 54/54/54 63/63/63 56/56/56
f 49/49/49 51/51/51 37/37/37
f 53/53/53 55/55/55 64/64/64
f 56/56/56 52/52/52 46/46/46
f 56/56/56 63/63/63 52/52/52
f 65/65/65 66/66/66 67/67/67
f 65/65/65 68/68/68 66/66/66
f 69/69/69 67/67/67 70/70/70
f 69/69/69 65/65/65 67/67/67
f 67/67/67 64/64/64 55/55/55
f 67/67/67 66/66/66 64/64/64
f 62/62/62 57/57/57 51/51/51
f 62/62/62 71/71/71 57/57/57
f 62/62/62 72/72/72 71/71/71
f 73/73/73 62/62/62 74/74/74
f 75/75/75 57/57/57 71/71/71
f 76/76/76 60/60/60 59/59/59
f 70/70/70 57/57/57 75/75/75
f 70/70/70 67/67/67 57/57/57
f 58/58/58 62/62/62 49/49/49
f 58/58/58 74/74/74 62/62/62
f 57/57/57 67/67/67 55/55/55
f 73/73/73 72/72/72 62/62/62
