mtllib m0333133.mtl
usemtl material0
v -32 1.9437190294265747 128
v -32 1.9451119899749756 128.42280578613281
v -31.61943244934082 2.0324990749359131 128
v -32 0.50783699750900269 145.31105005741119
v -24.81956672668457 2.2390539646148682 137.333740234375
v -32 1.5669779777526856 137.71502685546875
v -32 -0.49868598580360413 153.11839294433594
v -24.406103134155273 0.67378497123718262 145.31655895709992
v -32 0.42751100659370422 145.71833801269531
v -31.96864128112793 -0.57312202453613281 153.71957397460938
v -32 -0.57389199733734131 153.72122192382813
v -32 1.9265470504760742 129.71414184570313
v -32 1.7226400375366211 135.92143154144287
v -29.228107452392578 2.5208959579467773 129.56590270996094
v -32 -0.57631200551986694 153.85386657714844
v -31.63763427734375 -0.6799049973487854 160
v -32 -0.68844699859619141 160
v -29.310749053955078 2.525752067565918 128
v -27.818593978881836 2.8812589645385742 128
v -25.306337356567383 3.4124369621276855 128
v -25.235141754150391 3.373647928237915 129.35237121582031
v -22.514048099517822 3.5272989273071289 128
v -21.245520114898682 3.5442790985107422 129.14114379882813
v -21.305136203765869 3.6673479080200195 128
v -20.2187819480896 3.5646820068359375 128
v -16.843026995658875 2.0295400619506836 136.91317701339722
v -23.987525939941406 0.15144699811935425 153.29583740234375
v -16.426833987236023 1.0213890075683594 144.89410400390625
v -17.258872985839844 3.1084699630737305 128.93199157714844
v -17.307466983795166 3.2277920246124268 128
v -13.310337066650391 2.6823320388793945 128
v -13.272420883178711 2.6331069469451904 128.72297668457031
v -16.420433014631271 3.0632500648498535 128
v -9.3139538764953613 1.9905019998550415 128
v -9.2868170738220215 1.9853789806365967 128.51454162597656
v -12.622148036956787 2.5283780097961426 128
v -8.8240180015563965 1.909464955329895 128
v -8.867246150970459 1.6657119989395142 136.49314880371094
v -16.007826000452042 0.58694100379943848 152.87309265136719
v -8.4486699104309082 1.1433930397033691 144.47242701053619
v -0.88983821868896484 1.633402943611145 136.07197618484497
v -8.0296931266784668 0.70308500528335571 152.45143127441406
v -0.46872901916503906 1.627187967300415 144.04951500147581
v -15.630636990070343 0.77417701482772827 160
v -16.530930995941162 0.72393101453781128 160
v -5.2999629974365234 1.5925240516662598 128.30525207519531
v -23.63363790512085 0.14537200331687927 160
v -24.982812881469727 0.023293999955058098 160
v -7.6290407180786133 1.1264649629592896 160
v -8.0817031860351562 1.118556022644043 160
v -7.2218027114868164 1.1523920297622681 160
v -0.049741744995117188 1.1888329982757568 152.02850341796875
v -5.3161649703979492 1.5751960277557373 128
v -5.0254049301147461 1.5522849559783936 128
v -1.312169075012207 1.3910679817199707 128.09529113769531
v 0 1.4563529491424561 130.883056640625
v 0 1.5547070503234863 134.02908325195313
v 0 1.4563529491424561 130.883056640625
v 0 1.367035984992981 128.02607727050781
v 0 1.6480909585952759 144.0246890000999
v 0 1.1940579414367676 151.97323608398438
v 0 1.2212660312652588 152.96762084960938
v 0 1.1916019916534424 152.02587890625
v 0 1.4488480091094971 160
v 0 1.6456990242004395 136.02494812011719
v 0 1.6344109773635864 143.52854898571968
v -1.2264518737792969 1.379459023475647 128
v -1.3172426223754883 1.3826580047607422 128
v 0 1.3641519546508789 128
v 0 1.5576690435409546 134.09407043457031
v 0 1.5547070503234863 134.02908325195313
vt 0.99563902616500854 0.020143985748291016
vt 0.9828299880027771 0.020153999328613281
vt 0.99563902616500854 0.031983017921447754
vt 0.46871700882911682 0.013391017913818359
vt 0.71102601289749146 0.23646897077560425
vt 0.70102202892303467 0.017908990383148193
vt 0.23025700449943543 0.0084120035171508789
vt 0.46435999870300293 0.24346297979354858
vt 0.45614299178123474 0.013109028339385986
vt 0.21188899874687195 0.0089799761772155762
vt 0.21185700595378876 0.0080289840698242188
vt 0.94370502233505249 0.020031988620758057
vt 0.75555700063705444 0.018724024295806885
vt 0.94818800687789917 0.10591697692871094
vt 0.20783799886703491 0.0079540014266967773
vt 0.021441999822854996 0.015471994876861572
vt 0.021640999242663383 0.0044919848442077637
vt 0.995631992816925 0.1035040020942688
vt 0.9956430196762085 0.14997398853302002
vt 0.99560797214508057 0.22776597738265991
vt 0.95460599660873413 0.22961497306823731
vt 0.995074987411499 0.31242901086807251
vt 0.95971900224685669 0.3506619930267334
vt 0.99452102184295654 0.34957599639892578
vt 0.99351102113723755 0.3826180100440979
vt 0.71688801050186157 0.47846698760986328
vt 0.221902996301651 0.25126898288726807
vt 0.47296100854873657 0.48561102151870728
vt 0.96112501621246338 0.47228801250457764
vt 0.98962098360061646 0.4716230034828186
vt 0.98429900407791138 0.5936799943447113
vt 0.962319016456604 0.594072014093399
vt 0.98823702335357666 0.49891901016235352
vt 0.980525016784668 0.71561899781227112
vt 0.96491897106170654 0.71598398685455322
vt 0.98327302932739258 0.61502000689506531
vt 0.98006999492645264 0.73065701127052307
vt 0.72272199392318726 0.72061100602149963
vt 0.23067599534988403 0.49355500936508179
vt 0.48023998737335205 0.72756698727607727
vt 0.72968000173568726 0.96252600103616714
vt 0.238413006067276 0.735493004322052
vt 0.48777800798416138 0.96998599916696548
vt 0.014541000127792358 0.501679003238678
vt 0.0149959996342659 0.4743649959564209
vt 0.96811801195144653 0.83461000025272369
vt 0.018712999299168587 0.26021599769592285
vt 0.019185999408364296 0.21917897462844849
vt 0.009171999990940094 0.74306198954582214
vt 0.010778999887406826 0.73058199882507324
vt 0.00888300035148859 0.7554209977388382
vt 0.24638499319553375 0.97790299914777279
vt 0.97739201784133911 0.83443300426006317
vt 0.9772070050239563 0.843188002705574
vt 0.971688985824585 0.95568900182843208
vt 0.88625901937484741 0.99335400015115738
vt 0.790930986404419 0.99100499972701073
vt 0.88625901937484741 0.99335400015115738
vt 0.97282701730728149 0.995486999861896
vt 0.48821300268173218 0.98421400040388107
vt 0.2480349987745285 0.9794440008699894
vt 0.21747599542140961 0.97846800088882446
vt 0.24643899500370026 0.97941300086677074
vt 0.0043569998815655708 0.9743450004607439
vt 0.7305150032043457 0.98951099999248981
vt 0.503246009349823 0.98453000001609325
vt 0.97452300786972046 0.95836599916219711
vt 0.974590003490448 0.95561499893665314
vt 0.97362202405929565 0.99550799978896976
vt 0.78905802965164185 0.99075299967080355
vt 0.790930986404419 0.99100499972701073
vn -0.227182999253273 0.973846971988678 -0.0032089999876916409
vn -0.21326200664043427 0.97694402933120728 0.0099609997123479843
vn -0.21372699737548828 0.97684699296951294 0.0095229996368289
vn -0.0362280011177063 0.98287200927734375 0.18069200217723846
vn -0.031415998935699463 0.98720800876617432 0.1563120037317276
vn -0.086649000644683838 0.98981797695159912 0.11292900145053864
vn -0.025472000241279602 0.991936981678009 0.12414500117301941
vn -0.029569000005722046 0.99115598201751709 0.12936300039291382
vn -0.023676000535488129 0.98721402883529663 0.15763300657272339
vn -0.048861999064683914 0.99679702520370483 0.063317999243736267
vn -0.020834999158978462 0.99737900495529175 0.0692870020866394
vn -0.20839999616146088 0.97776299715042114 0.02341499924659729
vn -0.10429199784994125 0.99140101671218872 0.079034999012947083
vn -0.19221499562263489 0.97980201244354248 0.055151998996734619
vn -0.023569000884890556 0.99955600500106812 0.018237000331282616
vn -0.065699003636837 0.99763000011444092 0.020424999296665192
vn -0.023563999682664871 0.99955600500106812 0.018237000331282616
vn -0.21997299790382385 0.97539597749710083 0.014634000137448311
vn -0.2132830023765564 0.97644197940826416 0.032728001475334167
vn -0.12689399719238281 0.9912949800491333 0.035112999379634857
vn -0.120619997382164 0.98858797550201416 0.09024299681186676
vn -0.058334000408649445 0.997044026851654 0.050009999424219131
vn 0.025659000501036644 0.99256998300552368 0.11893600225448608
vn -0.013815999962389469 0.99406301975250244 0.10792800039052963
vn 0.10860799998044968 0.98736697435379028 0.11537300050258637
vn 0.045552998781204224 0.98959898948669434 0.13645200431346893
vn -0.072775997221469879 0.99682998657226562 0.032145999372005463
vn -0.018658999353647232 0.99622797966003418 0.084747999906539917
vn 0.12612199783325195 0.98525100946426392 0.11563999950885773
vn 0.14622700214385986 0.98217397928237915 0.11812199652194977
vn 0.16792300343513489 0.984080970287323 0.058196000754833221
vn 0.13592299818992615 0.98862099647521973 0.0644489973783493
vn 0.13749599456787109 0.98760002851486206 0.075774997472763062
vn 0.1617870032787323 0.98682498931884766 0.0012919999426230788
vn 0.13801200687885284 0.99038702249526978 0.0092660002410411835
vn 0.17583900690078735 0.98429602384567261 0.015572999604046345
vn 0.11292500048875809 0.99259001016616821 -0.044874999672174454
vn 0.035865999758243561 0.99753797054290771 0.060258001089096069
vn -0.03770500048995018 0.99921202659606934 0.012428999878466129
vn -0.026910999789834023 0.9982069730758667 0.053474999964237213
vn -0.0074359998106956482 0.99996000528335571 -0.0050619998946785927
vn -0.037523001432418823 0.99929499626159668 0.0014990000054240227
vn -0.047299999743700027 0.99852997064590454 0.026464000344276428
vn -0.050459999591112137 0.99844801425933838 -0.023561000823974609
vn -0.061643999069929123 0.99795901775360107 -0.016654999926686287
vn 0.065987996757030487 0.99720501899719238 -0.03503900021314621
vn -0.085501998662948608 0.99632298946380615 0.0054159997962415218
vn -0.093593001365661621 0.99556499719619751 0.0095629999414086342
vn -0.041264001280069351 0.99770098924636841 -0.05376800149679184
vn -0.023996999487280846 0.99856901168823242 -0.0477989986538887
vn -0.057457000017166138 0.9972350001335144 -0.047136001288890839
vn -0.053642001003026962 0.998520016670227 0.0089330002665519714
vn 0.086796000599861145 0.99435299634933472 -0.061055000871419907
vn 0.054271001368761063 0.995123028755188 -0.082365997135639191
vn 0.033668000251054764 0.99740701913833618 -0.063608996570110321
vn 0.016652999445796013 0.99937301874160767 -0.03124300017952919
vn 0.016654999926686287 0.99937301874160767 -0.03124300017952919
vn 0.016654999926686287 0.99937301874160767 -0.03124300017952919
vn 0.014468000270426273 0.99730098247528076 -0.071988001465797424
vn -0.043845001608133316 0.99895000457763672 0.013295000419020653
vn -0.044179998338222504 0.99753302335739136 0.054549001157283783
vn -0.0412679985165596 0.9986259937286377 -0.03230300173163414
vn -0.055114999413490295 0.99844098091125488 0.0088750002905726433
vn -0.040993999689817429 0.99863702058792114 -0.032317999750375748
vn -0.015018999576568604 0.99962699413299561 -0.022808000445365906
vn -0.021270999684929848 0.9997599720954895 -0.0052749998867511749
vn 0.018458999693393707 0.994350016117096 -0.10453200340270996
vn 0.04045800119638443 0.99512201547622681 -0.089973002672195435
vn 0.012404000386595726 0.993861973285675 -0.10992600023746491
vn -0.016206000000238419 0.99883097410202026 -0.045536000281572342
vn -0.016206000000238419 0.99883097410202026 -0.045534998178482056
f 1/1/1 2/2/2 3/3/3
f 4/4/4 5/5/5 6/6/6
f 7/7/7 8/8/8 9/9/9
f 7/7/7 10/10/10 8/8/8
f 11/11/11 10/10/10 7/7/7
f 12/12/12 13/13/13 14/14/14
f 15/15/15 10/10/10 11/11/11
f 15/15/15 16/16/16 10/10/10
f 15/15/15 17/17/17 16/16/16
f 12/12/12 3/3/3 2/2/2
f 12/12/12 14/14/14 3/3/3
f 14/14/14 18/18/18 3/3/3
f 18/18/18 14/14/14 19/19/19
f 20/20/20 14/14/14 21/21/21
f 20/20/20 19/19/19 14/14/14
f 22/22/22 23/23/23 24/24/24
f 24/24/24 23/23/23 25/25/25
f 5/5/5 21/21/21 14/14/14
f 21/21/21 5/5/5 23/23/23
f 5/5/5 26/26/26 23/23/23
f 26/26/26 5/5/5 8/8/8
f 8/8/8 27/27/27 28/28/28
f 10/10/10 27/27/27 8/8/8
f 22/22/22 21/21/21 23/23/23
f 22/22/22 20/20/20 21/21/21
f 4/4/4 8/8/8 5/5/5
f 4/4/4 9/9/9 8/8/8
f 25/25/25 29/29/29 30/30/30
f 25/25/25 23/23/23 29/29/29
f 14/14/14 6/6/6 5/5/5
f 14/14/14 13/13/13 6/6/6
f 31/31/31 29/29/29 32/32/32
f 31/31/31 33/33/33 29/29/29
f 30/30/30 29/29/29 33/33/33
f 34/34/34 32/32/32 35/35/35
f 34/34/34 36/36/36 32/32/32
f 31/31/31 32/32/32 36/36/36
f 34/34/34 35/35/35 37/37/37
f 35/35/35 32/32/32 38/38/38
f 32/32/32 29/29/29 26/26/26
f 28/28/28 26/26/26 8/8/8
f 26/26/26 28/28/28 38/38/38
f 28/28/28 39/39/39 40/40/40
f 39/39/39 28/28/28 27/27/27
f 40/40/40 38/38/38 28/28/28
f 40/40/40 41/41/41 38/38/38
f 42/42/42 43/43/43 40/40/40
f 42/42/42 40/40/40 39/39/39
f 32/32/32 26/26/26 38/38/38
f 27/27/27 44/44/44 39/39/39
f 27/27/27 45/45/45 44/44/44
f 35/35/35 38/38/38 46/46/46
f 26/26/26 29/29/29 23/23/23
f 10/10/10 47/47/47 27/27/27
f 10/10/10 48/48/48 47/47/47
f 39/39/39 49/49/49 42/42/42
f 39/39/39 50/50/50 49/49/49
f 48/48/48 10/10/10 16/16/16
f 50/50/50 39/39/39 44/44/44
f 45/45/45 27/27/27 47/47/47
f 42/42/42 51/51/51 52/52/52
f 42/42/42 49/49/49 51/51/51
f 37/37/37 46/46/46 53/53/53
f 37/37/37 35/35/35 46/46/46
f 53/53/53 46/46/46 54/54/54
f 41/41/41 46/46/46 38/38/38
f 41/41/41 55/55/55 46/46/46
f 56/56/56 41/41/41 57/57/57
f 58/58/58 55/55/55 41/41/41
f 58/58/58 59/59/59 55/55/55
f 42/42/42 52/52/52 43/43/43
f 52/52/52 60/60/60 43/43/43
f 52/52/52 61/61/61 60/60/60
f 62/62/62 63/63/63 52/52/52
f 51/51/51 62/62/62 52/52/52
f 51/51/51 64/64/64 62/62/62
f 65/65/65 43/43/43 66/66/66
f 65/65/65 41/41/41 43/43/43
f 40/40/40 43/43/43 41/41/41
f 67/67/67 68/68/68 55/55/55
f 55/55/55 54/54/54 46/46/46
f 55/55/55 68/68/68 54/54/54
f 69/69/69 55/55/55 59/59/59
f 69/69/69 67/67/67 55/55/55
f 70/70/70 41/41/41 65/65/65
f 70/70/70 71/71/71 41/41/41
f 66/66/66 43/43/43 60/60/60
f 61/61/61 52/52/52 63/63/63
