mtllib m03333103.mtl
usemtl material0
v -44.624073028564453 0.28763300180435181 96
v -47.010787963867188 0.33760398626327515 96
v -46.879127979278564 0.20961299538612366 98.506278991699219
v -42.8908269405365 0.11171700060367584 98.295975208282471
v -43.0113639831543 0.24329699575901032 96
v -48 0.26718398928642273 98.565285205841064
v -48 0.35779398679733276 96.686820983886719
v -48 0.39092400670051575 96
v -41.218651056289673 0.2541860044002533 96
v -38.901867032051086 0.14809200167655945 98.0852198600769
v -39.0114169716835 0.2522830069065094 96
v -36.995467901229858 0.2867090106010437 96
v -34.91270112991333 0.22694100439548492 97.874312877655029
v -35.011332988739014 0.28894099593162537 96
v -48 0.21744699776172638 101.29708909988403
v -46.668968200683594 0.12599000334739685 102.49531602859497
v -48 0.19044299423694611 102.56539905071259
v -46.458580017089844 0.089235998690128326 106.48420000076294
v -42.680892944335938 -0.017804000526666641 102.28517198562622
v -48 0.17363099753856659 105.09673297405243
v -48 0.22019900381565094 110.56505584716797
v -46.247978210449219 0.095445998013019562 110.47293090820313
v -48 0.20764799416065216 108.19769287109375
v -48 0.16708600521087647 106.56534600257874
v -42.470515966415405 -0.057486999779939651 106.27406311035156
v -48 0.26408100128173828 112
v -46.167151927948 0.13651999831199646 112
v -48 0.24593000113964081 111.40647077560425
v -38.691956043243408 0.013687999919056892 102.074432015419
v -34.7024188041687 0.16773200035095215 101.86326599121094
v -32 0.37682399153709412 97.720032215118408
v -32 0.35686600208282471 98.859978199005127
v -34.492251873016357 0.086056999862194061 105.85230302810669
v -38.482089996337891 -0.12999700009822846 106.06367492675781
v -42.260299921035767 -0.12940099835395813 110.26306200027466
v -38.271553039550781 -0.13697099685668945 110.05244398117065
v -34.281459808349609 0.130840003490448 109.84090423583984
v -32 0.42552998661994934 105.71961998939514
v -32 0.43190300464630127 107.30572509765625
v -34.166224956512451 0.37771600484848022 112
v -36.103621959686279 0.23633499443531036 112
v -38.168197989463806 -0.030215000733733177 112
v -40.328857004642487 -0.032361999154090881 112
v -32 0.36313900351524353 103.08279401063919
v -32 0.39704400300979614 101.71984100341797
v -42.168270111083984 -0.0635410025715828 112
v -44.550907135009766 0.065690003335475922 112
v -33.226268768310547 0.281578004360199 96
v -32 0.61640799045562744 109.71889495849609
v -32 0.36179301142692566 96.885344982147217
v -32 0.34584900736808777 96
v -32 0.77744597196578979 111.03656005859375
v -32 0.88146001100540161 111.88764190673828
v -32 0.89288198947906494 112
vt 0 0.21099501848220825
vt 0 0.061825990676879883
vt 0.15664200484752655 0.070055007934570312
vt 0.1434980034828186 0.31932300329208374
vt 0 0.31178998947143555
vt 0.16032999753952026 0
vt 0.042925998568534851 0
vt 0 0
vt 0 0.42383402585983276
vt 0.13032600283622742 0.56863299012184143
vt 0 0.5617859959602356
vt 0 0.68778300285339355
vt 0.11714500188827515 0.81795600056648254
vt 0 0.81179200112819672
vt 0.3310680091381073 0
vt 0.40595701336860657 0.083189010620117188
vt 0.41033700108528137 0
vt 0.65526199340820312 0.096338987350463867
vt 0.39282301068305969 0.33244401216506958
vt 0.56854599714279175 0
vt 0.910315990447998 0
vt 0.904558002948761 0.10950100421905518
vt 0.7623559832572937 0
vt 0.66033399105072021 0
vt 0.64212900400161743 0.34559297561645508
vt 1 0
vt 1 0.11455297470092773
vt 0.96290397644042969 0
vt 0.3796519935131073 0.58175298571586609
vt 0.36645400524139404 0.8310990035533905
vt 0.10750199854373932 1
vt 0.17874899506568909 1
vt 0.61576902866363525 0.84423400461673737
vt 0.62897998094558716 0.5948689877986908
vt 0.8914409875869751 0.3587309718132019
vt 0.87827801704406738 0.608027994632721
vt 0.86505699157714844 0.85740900039672852
vt 0.607475996017456 1
vt 0.70660799741745 1
vt 1 0.86461099982261658
vt 1 0.7435239851474762
vt 1 0.61448800563812256
vt 1 0.47944599390029907
vt 0.44267499446868896 1
vt 0.35749000310897827 1
vt 1 0.36448299884796143
vt 1 0.21556800603866577
vt 0 0.9233580008149147
vt 0.85743099451065063 1
vt 0.055334001779556274 1
vt 0 1
vt 0.93978500366210938 1
vt 0.99297797679901123 1
vt 1 1
vn 0.025405000895261765 0.99822098016738892 0.053932998329401016
vn 0.032483000308275223 0.99825698137283325 0.049272999167442322
vn 0.033224999904632568 0.99886101484298706 0.034244999289512634
vn 0.015878999605774879 0.99915599822998047 0.037895999848842621
vn 0.0098050003871321678 0.99834299087524414 0.0566990002989769
vn 0.052866999059915543 0.99813902378082275 0.030386000871658325
vn 0.05376100167632103 0.99739402532577515 0.048110999166965485
vn 0.05376100167632103 0.99739402532577515 0.048110999166965485
vn -0.004246000200510025 0.99844902753829956 0.055518001317977905
vn -0.0103150000795722 0.99912697076797485 0.040474999696016312
vn -0.007691000122576952 0.99870401620864868 0.05030599981546402
vn -0.013315999880433083 0.99882298707962036 0.046647001057863235
vn -0.029391000047326088 0.99926602840423584 0.024570999667048454
vn 0.0013610000023618341 0.99945497512817383 0.032988999038934708
vn 0.051764998584985733 0.99848401546478271 0.018709000200033188
vn 0.036648999899625778 0.99916601181030273 0.017990000545978546
vn 0.0488319993019104 0.99876701831817627 0.00889699999243021
vn 0.04412899911403656 0.999023973941803 0.0019340000580996275
vn 0.015778999775648117 0.99962097406387329 0.022554000839591026
vn 0.049433998763561249 0.99875998497009277 0.00583200016990304
vn 0.070586003363132477 0.99747097492218018 -0.0083520002663135529
vn 0.052769999951124191 0.99856901168823242 -0.0086439996957778931
vn 0.061934001743793488 0.99799197912216187 -0.013252999633550644
vn 0.049862999469041824 0.99869602918624878 -0.010955999605357647
vn 0.033723000437021255 0.99939000606536865 0.0090939998626708984
vn 0.069397002458572388 0.99712300300598145 -0.030494000762701035
vn 0.059379000216722488 0.99778497219085693 -0.029981000348925591
vn 0.069397002458572388 0.99712300300598145 -0.030493000522255898
vn -0.02618899941444397 0.9991919994354248 0.030478000640869141
vn -0.055197000503540039 0.99834001064300537 0.016442999243736267
vn -0.0510220006108284 0.99867302179336548 0.0069510000757873058
vn -0.075388997793197632 0.99714100360870361 -0.0050409999676048756
vn -0.071419999003410339 0.99738699197769165 0.01090800017118454
vn -0.012045999988913536 0.99976801872253418 0.017883000895380974
vn 0.022414000704884529 0.99972301721572876 -0.0071359998546540737
vn -0.046245001256465912 0.998540997505188 -0.027881000190973282
vn -0.12967200577259064 0.99033898115158081 -0.04913799837231636
vn -0.13549800217151642 0.99072402715682983 -0.010324999690055847
vn -0.18171000480651856 0.982234001159668 -0.046879999339580536
vn -0.1166049987077713 0.98743200302124023 -0.10668200254440308
vn -0.10110100358724594 0.99184697866439819 -0.077574998140335083
vn -0.03402400016784668 0.9980199933052063 -0.052900999784469604
vn -0.0083219995722174644 0.99888098239898682 -0.046551000326871872
vn -0.10008300095796585 0.99493402242660522 0.0094769997522234917
vn -0.084628000855445862 0.99641197919845581 -0.0014799999771639705
vn 0.037675000727176666 0.99849498271942139 -0.039856001734733582
vn 0.04993399977684021 0.99810200929641724 -0.036044999957084656
vn -0.034637000411748886 0.99939799308776855 -0.0020320001058280468
vn -0.21193100512027741 0.97311997413635254 -0.090129002928733826
vn -0.052331998944282532 0.99846798181533813 -0.017981000244617462
vn -0.052331998944282532 0.99846798181533813 -0.017981000244617462
vn -0.21276199817657471 0.96988701820373535 -0.11853399872779846
vn -0.21481099724769592 0.96972000598907471 -0.11618799716234207
vn -0.23024100065231323 0.96814501285552979 -0.098411999642848969
f 1/1/1 2/2/2 3/3/3
f 1/1/1 4/4/4 5/5/5
f 1/1/1 3/3/3 4/4/4
f 6/6/6 3/3/3 7/7/7
f 7/7/7 2/2/2 8/8/8
f 7/7/7 3/3/3 2/2/2
f 9/9/9 10/10/10 11/11/11
f 12/12/12 13/13/13 14/14/14
f 3/3/3 15/15/15 16/16/16
f 3/3/3 6/6/6 15/15/15
f 17/17/17 16/16/16 15/15/15
f 16/16/16 18/18/18 19/19/19
f 16/16/16 4/4/4 3/3/3
f 17/17/17 18/18/18 16/16/16
f 17/17/17 20/20/20 18/18/18
f 18/18/18 21/21/21 22/22/22
f 18/18/18 23/23/23 21/21/21
f 23/23/23 18/18/18 24/24/24
f 22/22/22 25/25/25 18/18/18
f 26/26/26 27/27/27 28/28/28
f 28/28/28 22/22/22 21/21/21
f 28/28/28 27/27/27 22/22/22
f 20/20/20 24/24/24 18/18/18
f 16/16/16 19/19/19 4/4/4
f 10/10/10 19/19/19 29/29/29
f 19/19/19 10/10/10 4/4/4
f 13/13/13 29/29/29 30/30/30
f 29/29/29 13/13/13 10/10/10
f 31/31/31 30/30/30 32/32/32
f 31/31/31 13/13/13 30/30/30
f 30/30/30 29/29/29 33/33/33
f 12/12/12 10/10/10 13/13/13
f 12/12/12 11/11/11 10/10/10
f 29/29/29 19/19/19 34/34/34
f 34/34/34 25/25/25 35/35/35
f 25/25/25 34/34/34 19/19/19
f 34/34/34 35/35/35 36/36/36
f 35/35/35 25/25/25 22/22/22
f 33/33/33 36/36/36 37/37/37
f 36/36/36 33/33/33 34/34/34
f 38/38/38 37/37/37 39/39/39
f 38/38/38 33/33/33 37/37/37
f 40/40/40 36/36/36 41/41/41
f 40/40/40 37/37/37 36/36/36
f 29/29/29 34/34/34 33/33/33
f 42/42/42 35/35/35 43/43/43
f 42/42/42 36/36/36 35/35/35
f 44/44/44 30/30/30 33/33/33
f 44/44/44 45/45/45 30/30/30
f 25/25/25 19/19/19 18/18/18
f 9/9/9 4/4/4 10/10/10
f 9/9/9 5/5/5 4/4/4
f 46/46/46 22/22/22 47/47/47
f 46/46/46 35/35/35 22/22/22
f 48/48/48 14/14/14 13/13/13
f 45/45/45 32/32/32 30/30/30
f 49/49/49 39/39/39 37/37/37
f 38/38/38 44/44/44 33/33/33
f 31/31/31 48/48/48 13/13/13
f 31/31/31 50/50/50 48/48/48
f 50/50/50 51/51/51 48/48/48
f 52/52/52 37/37/37 53/53/53
f 52/52/52 49/49/49 37/37/37
f 41/41/41 36/36/36 42/42/42
f 54/54/54 37/37/37 40/40/40
f 54/54/54 53/53/53 37/37/37
f 43/43/43 35/35/35 46/46/46
f 47/47/47 22/22/22 27/27/27
