mtllib m03333031.mtl
usemtl material0
v -79.836905956268311 3.8378369808197021 80
v -80 3.8257989883422852 80.244513988494873
v -79.824553966522217 3.8246729373931885 80.235251903533936
v -80 3.8383469581604004 80.018288135528564
v -80 3.8393609523773193 80
v -75.86247992515564 3.8991639614105225 80
v -75.835411071777344 3.8981990814208984 80.024367809295654
v -75.836693048477173 3.8987390995025635 80
v -75.813492059707642 3.8971240520477295 80
v -80 3.5794069766998291 84.245171070098877
v -79.615142822265625 3.5882439613342285 84.224814891815186
v -80 3.8094470500946045 80.430229187011719
v -75.626266002655029 3.6065950393676758 84.014122009277344
v -75.372482061386108 3.8728370666503906 80
v -72.014618000015616 3.676501989364624 80
v -75.41706109046936 3.3276820182800293 88.003830000059679
v -80 3.3723111152648926 87.679558008909225
v -79.4057240486145 3.3518109321594238 88.214377999305725
v -67.839522838592529 3.3775119781494141 80
v -71.6416699886322 3.6580269336700439 80
v -67.650496959686279 3.2375280857086182 83.594109058380127
v -71.837935999035835 3.6717801094055176 80
v -71.637955009937286 3.5087320804595947 83.8038182258606
v -64.417327880859375 2.9811999797821045 80
v -64 2.924778938293457 80.149116992950439
v -64 2.8009359836578369 83.4027099609375
v -64 2.9304549694061279 80
v -67.441291809082031 2.9591031074523926 87.583817005157471
v -64 2.5387849807739258 86.883888006210327
v -71.4284520149231 3.2913410663604736 87.7933119982481
v -80 3.0303070545196533 92.246651172637939
v -80 3.0247669219970703 93.0970458984375
v -79.196762084960938 3.0230889320373535 92.204261779785156
v -80 3.3057610988616943 88.87480902671814
v -80 3.3327839374542236 88.245827004313469
v -78.997100830078125 2.8803479671478271 96
v -80 2.9219310283660889 96
v -75.207458019256592 3.1293289661407471 91.993263006210327
v -71.21950501203537 2.9587140083312988 91.78321099281311
v -74.997421026229858 3.0203249454498291 95.982390880584717
v -75.330184936523438 3.0080430507659912 96
v -75.013267993927 3.0190889835357666 96
v -71.214187979698181 2.9135339260101318 96
v -71.009163022041321 2.9131848812103271 95.772118091583252
v -74.996490001678467 3.019881010055542 96
v -67.231667041778564 2.7666089534759521 91.573226928710938
v -64 2.5061979293823242 87.403518974781036
v -64 2.4824039936065674 87.980736000463367
v -64 2.28226900100708 91.404098987579346
v -64 2.2839028835296631 94.4844970703125
v -67.415381908416748 2.6562790870666504 96
v -70.997169017791748 2.9060099124908447 96
v -67.021706104278564 2.6410040855407715 95.562407970428467
v -66.998688220977783 2.62465500831604 96
v -64 2.2610969543457031 95.404045104980469
v -64 2.2531180381774902 95.891304016113281
v -66.535926818847656 2.5723469257354736 96
v -64 2.251338005065918 96
vt 0 0.010192990303039551
vt 0.015282000415027142 0
vt 0.014702999964356422 0.01096498966217041
vt 0.001142999972216785 0
vt 0 0
vt 0 0.25859498977661133
vt 0.00152299995534122 0.26028698682785034
vt 0 0.26020699739456177
vt 0 0.2616569995880127
vt 0.26532301306724548 0
vt 0.26405099034309387 0.024053990840911865
vt 0.026889000087976456 0
vt 0.250883013010025 0.27335798740386963
vt 0 0.28921997547149658
vt 0 0.49908602237701416
vt 0.50023901462554932 0.28643399477005005
vt 0.47997200489044189 0
vt 0.51339900493621826 0.037141978740692139
vt 0 0.76003000140190125
vt 0 0.52239599823951721
vt 0.22463199496269226 0.77184399962425232
vt 0 0.51012900471687317
vt 0.23773899674415588 0.52262800931930542
vt 0 0.97391699999570847
vt 0.0093200001865625381 1
vt 0.2126690000295639 1
vt 0 1
vt 0.47398900985717773 0.78491899371147156
vt 0.43024298548698425 1
vt 0.48708200454711914 0.53572198748588562
vt 0.76541602611541748 0
vt 0.8185650110244751 0
vt 0.76276600360870361 0.050202012062072754
vt 0.55467599630355835 0
vt 0.51536399126052856 0
vt 1 0.062681019306182861
vt 1 0
vt 0.74957901239395142 0.29953402280807495
vt 0.73645102977752686 0.548781007528305
vt 0.998898983001709 0.31266099214553833
vt 1 0.29186302423477173
vt 1 0.31167101860046387
vt 1 0.549113005399704
vt 0.98575699329376221 0.56192699074745178
vt 1 0.31271898746490479
vt 0.72332698106765747 0.79802100360393524
vt 0.46272000670433044 1
vt 0.49879598617553711 1
vt 0.71275597810745239 1
vt 0.90528100728988647 1
vt 1 0.78653900325298309
vt 1 0.56267699599266052
vt 0.97265100479125977 0.81114299595355988
vt 1 0.81258200109004974
vt 0.96275299787521362 1
vt 0.99320697784423828 1
vt 1 0.84150500595569611
vt 1 1
vn -0.013426000252366066 0.998308002948761 0.0565669983625412
vn 0.0098310001194477081 0.99784302711486816 0.06490200012922287
vn -0.015656000003218651 0.99808597564697266 0.059835001826286316
vn 0.0093310000374913216 0.99842202663421631 0.055376999080181122
vn 0.0093289995566010475 0.99842298030853271 0.055358998477458954
vn -0.01538500003516674 0.9982759952545166 0.056644998490810394
vn -0.0043549998663365841 0.99777102470397949 0.066582001745700836
vn 0.041595999151468277 0.99893498420715332 0.019949000328779221
vn 0.055709999054670334 0.998429000377655 0.0060649998486042023
vn -0.019733000546693802 0.997992992401123 0.060178998857736588
vn -0.0032550001051276922 0.99788302183151245 0.064958997070789337
vn -0.018301999196410179 0.99794197082519531 0.061461001634597778
vn 0.020267000421881676 0.99782097339630127 0.06278499960899353
vn 0.058226000517606735 0.9958680272102356 0.069688998162746429
vn 0.041182000190019608 0.99766802787780762 0.054427001625299454
vn 0.0031850000377744436 0.99799597263336182 0.0631909966468811
vn -0.020463999360799789 0.99792897701263428 0.060989998281002045
vn 0.0074579999782145023 0.997518002986908 0.070021003484725952
vn 0.093225002288818359 0.99506902694702148 0.033852998167276382
vn 0.07335200160741806 0.99668598175048828 0.035153001546859741
vn 0.099872000515460968 0.99374699592590332 0.049926001578569412
vn 0.0681070014834404 0.9969099760055542 0.03915100172162056
vn 0.056037001311779022 0.9971809983253479 0.049904998391866684
vn 0.1157820001244545 0.992713987827301 0.033355001360177994
vn 0.12061899900436401 0.99198001623153687 0.0377580001950264
vn 0.12149500101804733 0.99096602201461792 0.05679599940776825
vn 0.120619997382164 0.99198001623153687 0.037758998572826386
vn 0.091555997729301453 0.99414902925491333 0.057310998439788818
vn 0.12372399866580963 0.98963499069213867 0.0729060024023056
vn 0.045235998928546906 0.99696797132492065 0.063318997621536255
vn 0.012470000423491001 0.99771499633789062 0.0663990005850792
vn 0.038196999579668045 0.99874198436737061 0.032489001750946045
vn -0.012954999692738056 0.99859100580215454 0.051468998193740845
vn 0.010386999696493149 0.996832013130188 0.078853003680706024
vn -0.029013000428676605 0.99803298711776733 0.055569000542163849
vn -0.01291900034993887 0.9991840124130249 0.038254000246524811
vn 0.041400998830795288 0.9985160231590271 0.035372000187635422
vn 0.010742999613285065 0.99884301424026489 0.046872999519109726
vn 0.050758998841047287 0.99785101413726807 0.041430000215768814
vn 0.0036609999369829893 0.99966597557067871 0.025577999651432037
vn -0.034777998924255371 0.99862200021743774 0.039305001497268677
vn -0.035427000373601913 0.99864101409912109 0.038214001804590225
vn 0.0284269992262125 0.99930697679519653 0.024041999131441116
vn 0.049180001020431519 0.9986569881439209 0.016269000247120857
vn 0.027766000479459763 0.99933302402496338 0.023726999759674072
vn 0.097940996289253235 0.99474501609802246 0.029833000153303146
vn 0.1329600065946579 0.98978501558303833 0.051447998732328415
vn 0.14827600121498108 0.98739999532699585 0.055268999189138412
vn 0.14969399571418762 0.98827201128005981 0.030162999406456947
vn 0.13484899699687958 0.990759015083313 0.01458400022238493
vn 0.06994599848985672 0.99715399742126465 0.02811799943447113
vn 0.067538999021053314 0.997327983379364 0.02784699946641922
vn 0.097869999706745148 0.99487000703811646 0.025615999475121498
vn 0.094956003129482269 0.99496102333068848 0.03217799961566925
vn 0.12583400309085846 0.9918140172958374 0.021703999489545822
vn 0.12556600570678711 0.99195200204849243 0.016242999583482742
vn 0.123928003013134 0.9921259880065918 0.018086999654769897
vn 0.12556600570678711 0.99195200204849243 0.016243999823927879
f 1/1/1 2/2/2 3/3/3
f 1/1/1 4/4/4 2/2/2
f 4/4/4 1/1/1 5/5/5
f 6/6/6 7/7/7 8/8/8
f 8/8/8 7/7/7 9/9/9
f 3/3/3 10/10/10 11/11/11
f 3/3/3 12/12/12 10/10/10
f 12/12/12 3/3/3 2/2/2
f 7/7/7 11/11/11 13/13/13
f 11/11/11 7/7/7 3/3/3
f 13/13/13 14/14/14 7/7/7
f 13/13/13 15/15/15 14/14/14
f 13/13/13 11/11/11 16/16/16
f 6/6/6 3/3/3 7/7/7
f 6/6/6 1/1/1 3/3/3
f 11/11/11 17/17/17 18/18/18
f 11/11/11 10/10/10 17/17/17
f 9/9/9 7/7/7 14/14/14
f 19/19/19 20/20/20 21/21/21
f 21/21/21 22/22/22 23/23/23
f 21/21/21 20/20/20 22/22/22
f 19/19/19 21/21/21 24/24/24
f 25/25/25 21/21/21 26/26/26
f 25/25/25 24/24/24 21/21/21
f 25/25/25 27/27/27 24/24/24
f 21/21/21 23/23/23 28/28/28
f 26/26/26 21/21/21 29/29/29
f 23/23/23 15/15/15 13/13/13
f 23/23/23 22/22/22 15/15/15
f 23/23/23 13/13/13 30/30/30
f 31/31/31 32/32/32 33/33/33
f 34/34/34 18/18/18 35/35/35
f 32/32/32 36/36/36 33/33/33
f 32/32/32 37/37/37 36/36/36
f 18/18/18 33/33/33 16/16/16
f 30/30/30 16/16/16 38/38/38
f 13/13/13 16/16/16 30/30/30
f 30/30/30 38/38/38 39/39/39
f 38/38/38 16/16/16 33/33/33
f 16/16/16 11/11/11 18/18/18
f 38/38/38 33/33/33 40/40/40
f 41/41/41 42/42/42 40/40/40
f 40/40/40 43/43/43 44/44/44
f 40/40/40 45/45/45 43/43/43
f 36/36/36 40/40/40 33/33/33
f 36/36/36 41/41/41 40/40/40
f 40/40/40 44/44/44 39/39/39
f 45/45/45 40/40/40 42/42/42
f 39/39/39 38/38/38 40/40/40
f 28/28/28 30/30/30 39/39/39
f 44/44/44 46/46/46 39/39/39
f 47/47/47 46/46/46 48/48/48
f 47/47/47 28/28/28 46/46/46
f 49/49/49 48/48/48 46/46/46
f 47/47/47 21/21/21 28/28/28
f 47/47/47 29/29/29 21/21/21
f 49/49/49 46/46/46 50/50/50
f 51/51/51 44/44/44 52/52/52
f 51/51/51 53/53/53 44/44/44
f 46/46/46 44/44/44 53/53/53
f 51/51/51 54/54/54 53/53/53
f 52/52/52 44/44/44 43/43/43
f 53/53/53 50/50/50 46/46/46
f 53/53/53 55/55/55 50/50/50
f 55/55/55 53/53/53 56/56/56
f 56/56/56 57/57/57 58/58/58
f 56/56/56 53/53/53 57/57/57
f 39/39/39 46/46/46 28/28/28
f 28/28/28 23/23/23 30/30/30
f 57/57/57 53/53/53 54/54/54
f 34/34/34 33/33/33 18/18/18
f 34/34/34 31/31/31 33/33/33
f 35/35/35 18/18/18 17/17/17
