mtllib m033333210.mtl
usemtl material0
v -48 2.9214150905609131 24
v -46.772716999053955 2.8998160362243652 24.494476079940796
v -46.798969030380249 2.8703970909118652 24
v -48 2.9261879920959473 24.077302932739258
v -48 2.9559400081634521 24.559107065200806
v -45.211658000946045 2.809561014175415 24
v -44.778732001781464 2.8169310092926025 24.389441967010498
v -44.799377024173737 2.7997701168060303 24
v -44.428378999233246 2.7993850708007812 24
v -48 3.0967409610748291 26.55859899520874
v -46.66661810874939 3.0658080577850342 26.488284945487976
v -48 3.0377860069274902 25.858849048614502
v -44.672661006450653 2.9770638942718506 26.383270025253296
v -42.784489035606384 2.7862899303436279 24.284229040145874
v -44.566856026649475 3.0829980373382568 28.377287000417709
v -48 3.1191709041595459 27.187888979911804
v -46.560997009277344 3.1346330642700195 28.482428014278412
v -48 3.1374979019165039 30.081850051879883
v -48 3.1313738822937012 28.55842798948288
v -48 3.1352260112762451 30.558352947235107
v -46.455760955810547 3.1243569850921631 30.476840972900391
v -44.461773008108139 3.0419609546661377 30.37180495262146
v -42.57311999797821 2.9488439559936523 28.2724289894104
v -46.375747919082642 3.0467879772186279 32
v -48 3.1185181140899658 30.889760971069336
v -46.874866008758545 3.0516290664672852 32
v -48 3.1136031150817871 30.987241983413696
v -42.678725957870483 2.8839249610900879 26.278272986412048
v -45.926692962646484 3.0270819664001465 32
v -44.027327999472618 2.8782351016998291 32
v -44.376491993665695 2.9096360206604004 32
v -42.468219995498657 2.8706979751586914 30.267075061798096
v -48 3.0984570980072021 32
v -42.799538016319275 2.7771759033203125 24
v -40.790363073349 2.7317230701446533 24.179097890853882
v -40.684967041015625 2.7541639804840088 26.173398971557617
v -42.528785943984985 2.7756659984588623 24
v -40.799828052520752 2.7295761108398438 24
v -40 2.6807529926300049 24.105037927627563
v -40 2.681251049041748 24.137521982192993
v -40 2.6791439056396484 24
v -40 2.6998410224914551 25.411963939666748
v -40.579684972763062 2.7536540031433105 28.167779996991158
v -40 2.6951498985290527 26.1374169588089
v -40 2.6880600452423096 26.790177941322327
v -40.474803924560547 2.6711139678955078 30.16244101524353
v -40 2.694904088973999 28.137354001402855
v -40 2.6410729885101318 29.634647011756897
v -40 2.6247389316558838 30.137516021728516
v -40.228718042373657 2.51241397857666 32
v -40 2.507702112197876 31.745776891708374
v -40.378529071807861 2.5276188850402832 32
v -40.544922113418579 2.5449130535125732 32
v -42.377434015274048 2.733253002166748 32
v -40 2.4896719455718994 32
vt 0 0
vt 0.061810001730918884 0.15341001749038696
vt 0 0.15012902021408081
vt 0.0096629997715353966 0
vt 0.069888003170490265 0
vt 0 0.34854298830032349
vt 0.048680000007152557 0.40265798568725586
vt 0 0.40007799863815308
vt 0 0.44645297527313232
vt 0.31982499361038208 0
vt 0.31103599071502686 0.16667300462722778
vt 0.232355996966362 0
vt 0.29790899157524109 0.41591697931289673
vt 0.0355289988219738 0.65193900465965271
vt 0.54716098308563232 0.42914301156997681
vt 0.39848598837852478 0
vt 0.5603029727935791 0.17987501621246338
vt 0.76023101806640625 0
vt 0.56980299949646 0
vt 0.81979399919509888 0
vt 0.80960500240325928 0.19302999973297119
vt 0.79647600650787354 0.44227802753448486
vt 0.5340539813041687 0.6783599853515625
vt 1 0.20303201675415039
vt 0.86122000217437744 0
vt 1 0.140641987323761
vt 0.87340497970581055 0
vt 0.2847839891910553 0.66515898704528809
vt 1 0.2591630220413208
vt 1 0.49658399820327759
vt 1 0.452938973903656
vt 0.78338402509689331 0.69147300720214844
vt 1 0
vt 0 0.65005800127983093
vt 0.022386999800801277 0.90120500326156616
vt 0.2716749906539917 0.91437900066375732
vt 0 0.68390199542045593
vt 0 0.9000220000743866
vt 0.013129999861121178 1
vt 0.017190000042319298 1
vt 0 1
vt 0.1764959990978241 1
vt 0.52097201347351074 0.92753899842500687
vt 0.26717698574066162 1
vt 0.34877198934555054 1
vt 0.77030497789382935 0.940650001168251
vt 0.51716899871826172 1
vt 0.70433098077774048 1
vt 0.76718997955322266 1
vt 1 0.9714100006967783
vt 0.96822202205657959 1
vt 1 0.95268400013446808
vt 1 0.9318849965929985
vt 1 0.70282098650932312
vt 1 1
vn 0.042358998209238052 0.99720299243927 -0.061576999723911285
vn 0.034770999103784561 0.99638199806213379 -0.077552996575832367
vn 0.040006998926401138 0.99730700254440308 -0.061459001153707504
vn 0.042358998209238052 0.99720299243927 -0.061576999723911285
vn 0.042311001569032669 0.9971500039100647 -0.062463000416755676
vn 0.036910001188516617 0.99752098321914673 -0.059909000992774963
vn 0.024134000763297081 0.99690002202987671 -0.0748789981007576
vn 0.012977000325918198 0.99891597032547 -0.044704999774694443
vn 0.012276000343263149 0.99934697151184082 -0.033980999141931534
vn 0.019192000851035118 0.99702298641204834 -0.074681997299194336
vn 0.030004000291228294 0.99787300825119019 -0.057881001383066177
vn 0.03403099998831749 0.99695199728012085 -0.070203997194767
vn 0.036180000752210617 0.99701297283172607 -0.0682390034198761
vn 0.034042000770568848 0.99831801652908325 -0.046923000365495682
vn 0.0449180006980896 0.99869298934936523 -0.024373000487685204
vn 0.012756999582052231 0.999576985836029 -0.026119999587535858
vn 0.019584000110626221 0.9997829794883728 -0.0070779998786747456
vn -0.0001500000071246177 0.99999797344207764 -0.0019259999971836805
vn -0.0025989999994635582 0.9999769926071167 -0.0063330000266432762
vn 0.0083339996635913849 0.99966299533843994 0.024583000689744949
vn 0.028480000793933868 0.999284029006958 0.024891000241041183
vn 0.061524000018835068 0.99743199348449707 0.036667000502347946
vn 0.086167000234127045 0.99624902009963989 0.0079469997435808182
vn 0.015332999639213085 0.99862897396087646 0.050050999969244
vn 0.0096869999542832375 0.99868500232696533 0.05035100132226944
vn 0.029843999072909355 0.99916297197341919 0.02798599936068058
vn 0.038782000541687012 0.999085009098053 0.018053000792860985
vn 0.06255900114774704 0.99727100133895874 -0.039198998361825943
vn 0.056460998952388763 0.99660599231719971 0.059907000511884689
vn 0.088453002274036407 0.99323302507400513 0.07526099681854248
vn 0.077896997332572937 0.99400597810745239 0.0767040029168129
vn 0.095406003296375275 0.99369299411773682 0.058924000710248947
vn 0.041579000651836395 0.99902302026748657 0.014941000379621983
vn 0.012478999793529511 0.99938702583312988 -0.032706998288631439
vn 0.039448000490665436 0.99913102388381958 -0.013427999801933765
vn 0.058556001633405685 0.99811100959777832 -0.01856599934399128
vn 0.024895999580621719 0.99957799911499023 -0.014964999631047249
vn 0.041983000934123993 0.99901801347732544 -0.014193999581038952
vn 0.062921002507209778 0.99790102243423462 -0.015289000235497952
vn 0.062959000468254089 0.9979100227355957 -0.014574999921023846
vn 0.062922000885009766 0.99790102243423462 -0.015286999754607678
vn 0.066878996789455414 0.99769997596740723 -0.011016000062227249
vn 0.090296998620033264 0.99591201543807983 0.0023819999769330025
vn 0.08627899736166 0.99623501300811768 0.0085159996524453163
vn 0.0980679988861084 0.99517697095870972 -0.0022509999107569456
vn 0.10121800005435944 0.99372202157974243 0.047660999000072479
vn 0.101671002805233 0.99468201398849487 0.016431000083684921
vn 0.10219500213861466 0.99413597583770752 0.035351000726222992
vn 0.10041999816894531 0.99276602268218994 0.0658160001039505
vn 0.10063499957323074 0.99230402708053589 0.0721450001001358
vn 0.10043200105428696 0.99233800172805786 0.071964003145694733
vn 0.10295300185680389 0.99207097291946411 0.072076998651027679
vn 0.10205800086259842 0.99207901954650879 0.073238000273704529
vn 0.095021001994609833 0.99273902177810669 0.0737600028514862
vn 0.098699003458023071 0.99262398481369019 0.070399999618530273
f 1/1/1 2/2/2 3/3/3
f 1/1/1 4/4/4 2/2/2
f 4/4/4 5/5/5 2/2/2
f 6/6/6 7/7/7 8/8/8
f 8/8/8 7/7/7 9/9/9
f 2/2/2 10/10/10 11/11/11
f 2/2/2 12/12/12 10/10/10
f 13/13/13 2/2/2 11/11/11
f 2/2/2 13/13/13 7/7/7
f 13/13/13 14/14/14 7/7/7
f 13/13/13 11/11/11 15/15/15
f 6/6/6 2/2/2 7/7/7
f 6/6/6 3/3/3 2/2/2
f 11/11/11 16/16/16 17/17/17
f 11/11/11 10/10/10 16/16/16
f 18/18/18 17/17/17 19/19/19
f 19/19/19 17/17/17 16/16/16
f 17/17/17 20/20/20 21/21/21
f 17/17/17 18/18/18 20/20/20
f 22/22/22 17/17/17 21/21/21
f 17/17/17 22/22/22 15/15/15
f 22/22/22 23/23/23 15/15/15
f 20/20/20 24/24/24 21/21/21
f 20/20/20 25/25/25 24/24/24
f 25/25/25 26/26/26 24/24/24
f 25/25/25 27/27/27 26/26/26
f 11/11/11 17/17/17 15/15/15
f 13/13/13 15/15/15 28/28/28
f 5/5/5 12/12/12 2/2/2
f 21/21/21 29/29/29 22/22/22
f 21/21/21 24/24/24 29/29/29
f 30/30/30 22/22/22 31/31/31
f 30/30/30 32/32/32 22/22/22
f 31/31/31 22/22/22 29/29/29
f 33/33/33 26/26/26 27/27/27
f 14/14/14 9/9/9 7/7/7
f 14/14/14 34/34/34 9/9/9
f 35/35/35 14/14/14 36/36/36
f 37/37/37 35/35/35 38/38/38
f 37/37/37 14/14/14 35/35/35
f 39/39/39 35/35/35 40/40/40
f 39/39/39 38/38/38 35/35/35
f 39/39/39 41/41/41 38/38/38
f 42/42/42 35/35/35 36/36/36
f 42/42/42 40/40/40 35/35/35
f 34/34/34 14/14/14 37/37/37
f 36/36/36 28/28/28 43/43/43
f 14/14/14 28/28/28 36/36/36
f 42/42/42 36/36/36 44/44/44
f 44/44/44 36/36/36 45/45/45
f 43/43/43 23/23/23 46/46/46
f 28/28/28 23/23/23 43/43/43
f 43/43/43 45/45/45 36/36/36
f 43/43/43 47/47/47 45/45/45
f 48/48/48 43/43/43 46/46/46
f 48/48/48 47/47/47 43/43/43
f 23/23/23 28/28/28 15/15/15
f 23/23/23 32/32/32 46/46/46
f 49/49/49 50/50/50 51/51/51
f 49/49/49 46/46/46 50/50/50
f 46/46/46 52/52/52 50/50/50
f 48/48/48 46/46/46 49/49/49
f 32/32/32 52/52/52 46/46/46
f 32/32/32 53/53/53 52/52/52
f 32/32/32 23/23/23 22/22/22
f 28/28/28 14/14/14 13/13/13
f 53/53/53 32/32/32 54/54/54
f 55/55/55 51/51/51 50/50/50
f 54/54/54 32/32/32 30/30/30
