mtllib m03333100.mtl
usemtl material0
v -62.159595012664795 1.5473730564117432 112
v -64 1.7144980430603027 113.48548078536987
v -61.986298084259033 1.3691480159759522 115.299889087677
v -64 1.784669041633606 112
v -64 1.5246109962463379 115.40573120117188
v -64 1.3618990182876587 117.53804802894592
v -58.162270069122314 1.0399620532989502 112
v -57.999168038368225 1.0315289497375488 115.09040117263794
v -59.017844915390015 1.1123319864273071 112
v -64 1.6926289796829224 113.70663499832153
v -55.219161987304688 0.79029399156570435 112
v -64 1.2385540008544922 119.40650898218155
v -61.7770881652832 1.0911730527877808 119.2895889878273
v -57.789433002471924 0.86097502708435059 119.07973498106003
v -64 1.0084919929504395 121.76013195514679
v -64 0.92405402660369873 123.40737199783325
v -61.567539215087891 0.88252902030944824 123.27904510498047
v -57.579182028770447 0.795881986618042 123.06871008872986
v -53.801685094833374 0.64981400966644287 118.86981999874115
v -61.357730865478516 0.72661298513412476 127.26833295822144
v -64 0.86759501695632935 124.89000701904297
v -54.012035012245178 0.69488197565078735 114.88091278076172
v -57.368996024131775 0.717602014541626 127.05773210525513
v -64 0.66450697183609009 128
v -62.016089916229248 0.68698698282241821 128
v -64 0.67814600467681885 127.68975782394409
v -64 0.69053399562835693 127.4079737663269
v -61.319313049316406 0.68566000461578369 128
v -57.319332003593445 0.7013009786605835 128
v -58.21685004234314 0.669526994228363 128
v -54.417495965957642 0.71336901187896729 128
v -53.380111932754517 0.73788201808929443 126.84702301025391
v -53.591305017471313 0.6110879778862 122.85870409011841
v -48 0.26408100128173828 112
v -48.7716178894043 0.31778401136398315 112
v -48 0.2853190004825592 112.6944727897644
v -50.165816783905029 0.38012799620628357 112
v -52.991985082626343 0.60937702655792236 112
v -50.024787902832031 0.38166800141334534 114.67134094238281
v -54.16408896446228 0.70133298635482788 112
v -48 0.3883109986782074 116.64365410804749
v -49.8133430480957 0.55974000692367554 118.65948498249054
v -48 0.29081198573112488 114.56470489501953
v -48 0.57028698921203613 118.56369805335999
v -49.602570056915283 0.60109102725982666 122.6481020450592
v -53.319225072860718 0.74235200881958008 128
v -48 0.593392014503479 120.86686700582504
v -48 0.6872900128364563 122.56320190429688
v -49.391047954559326 0.79575502872467041 126.63619184494019
v -48 0.71307700872421265 124.08904314041138
v -49.318965911865234 0.81222802400588989 128
v -50.618099212646484 0.78198301792144775 128
v -48 0.83023500442504883 126.56263017654419
v -48 0.83997702598571777 127.46974897384644
v -48 0.84567099809646606 128
vt 0 0.11502498388290405
vt 0.092843003571033478 0
vt 0.20624299347400665 0.12585598230361939
vt 0 0
vt 0.21285800635814667 0
vt 0.346127986907959 0
vt 0 0.36485797166824341
vt 0.19314999878406525 0.37505197525024414
vt 0 0.31138497591018677
vt 0.1066650003194809 0
vt 0 0.548801988363266
vt 0.46290698647499084 0
vt 0.45559900999069214 0.13893198966979981
vt 0.44248300790786743 0.38815999031066895
vt 0.61000800132751465 0
vt 0.71296101808547974 0
vt 0.70494002103805542 0.15202897787094116
vt 0.69179397821426392 0.40130102634429932
vt 0.42936399579048157 0.63739499449729919
vt 0.95427101850509644 0.1651419997215271
vt 0.80562502145767212 0
vt 0.18005700409412384 0.62424799799919128
vt 0.941107988357544 0.41443800926208496
vt 1 0
vt 1 0.12399399280548096
vt 0.98061001300811768 0
vt 0.96299797296524048 0
vt 1 0.16754299402236939
vt 1 0.4175419807434082
vt 1 0.36144697666168213
vt 1 0.5989069938659668
vt 0.92793899774551392 0.66374298930168152
vt 0.67866897583007812 0.65054300427436829
vt 0 1
vt 0 0.951774001121521
vt 0.043405000120401382 1
vt 0 0.86463600397109985
vt 0 0.68800100684165955
vt 0.1669590026140213 0.87345099449157715
vt 0 0.61474400758743286
vt 0.290228009223938 1
vt 0.41621801257133484 0.88666599988937378
vt 0.16029399633407593 1
vt 0.41023099422454834 1
vt 0.66550600528717041 0.899838998913765
vt 1 0.66754800081253052
vt 0.55417901277542114 1
vt 0.66019999980926514 1
vt 0.914762020111084 0.91305900365114212
vt 0.75556498765945435 1
vt 1 0.9175650030374527
vt 1 0.83636899292469025
vt 0.9101639986038208 1
vt 0.966858983039856 1
vt 1 1
vn 0.13269199430942535 0.99006599187850952 0.046503998339176178
vn 0.12559899687767029 0.9908599853515625 0.049203000962734222
vn 0.087577000260353088 0.99506098031997681 0.046723000705242157
vn 0.12773799896240234 0.99070298671722412 0.046799000352621078
vn 0.081168003380298614 0.993008017539978 0.085717000067234039
vn 0.0754610002040863 0.9946100115776062 0.071115002036094666
vn 0.084375999867916107 0.99643200635910034 -0.0017340000486001372
vn 0.08521600067615509 0.99620598554611206 0.017681999132037163
vn 0.12584500014781952 0.99139499664306641 0.036049999296665192
vn 0.081725999712944031 0.99181699752807617 0.098076999187469482
vn 0.0842130035161972 0.99644601345062256 -0.00202700006775558
vn 0.069891996681690216 0.99473899602890015 0.074900001287460327
vn 0.053640000522136688 0.996703028678894 0.06086999922990799
vn 0.060462001711130142 0.99763602018356323 0.032652001827955246
vn 0.049952998757362366 0.99567997455596924 0.078267998993396759
vn 0.019401999190449715 0.99881899356842041 0.044555000960826874
vn 0.025560000911355019 0.99910497665405273 0.033695001155138016
vn 0.038534998893737793 0.99915498495101929 0.014274000190198422
vn 0.03966199979186058 0.99921202659606934 -0.0016189999878406525
vn 0.0059819999150931835 0.998960018157959 0.045198999345302582
vn 0.00081499997759237885 0.99830001592636108 0.058272000402212143
vn 0.075829997658729553 0.99706202745437622 0.010811000131070614
vn 0.013495000079274178 0.99979901313781738 0.014844000339508057
vn -0.01131999958306551 0.99897098541259766 0.043917000293731689
vn -0.00889500044286251 0.9988970160484314 0.046094998717308044
vn -0.01131999958306551 0.99897098541259766 0.043917000293731689
vn -0.010054999962449074 0.99766802787780762 0.0675090029835701
vn 0.0049279998056590557 0.99843901395797729 0.055626001209020615
vn -0.011536999605596066 0.99977302551269531 0.017904000356793404
vn -0.0039059999398887157 0.99886602163314819 0.047448001801967621
vn -0.0075170001946389675 0.9998670220375061 0.014495000243186951
vn -0.0083510000258684158 0.999530017375946 -0.029482999816536903
vn 0.018206000328063965 0.99981701374053955 -0.0058670002035796642
vn 0.069398000836372375 0.99712300300598145 -0.030493000522255898
vn 0.046519998461008072 0.9989050030708313 -0.0049910000525414944
vn 0.046503998339176178 0.99890601634979248 -0.0049740001559257507
vn 0.068926997482776642 0.99761301279067993 -0.0042139999568462372
vn 0.080076999962329864 0.99678099155426025 -0.0039789997972548008
vn 0.056341998279094696 0.998274028301239 -0.016556000337004662
vn 0.0792120024561882 0.9968559741973877 -0.0019490000559017062
vn 0.030264999717473984 0.9978790283203125 -0.057636000216007233
vn 0.016473999246954918 0.99936199188232422 -0.031693000346422195
vn 0.043443001806735992 0.99871599674224854 -0.026046000421047211
vn -0.0083710001781582832 0.99878799915313721 -0.04850199818611145
vn -0.0043620001524686813 0.99973499774932861 -0.022622000426054
vn -0.016220999881625175 0.99986398220062256 -0.0030199999455362558
vn -0.016364000737667084 0.99968498945236206 -0.019044000655412674
vn -0.055631000548601151 0.99776297807693481 -0.037060998380184174
vn -0.019826000556349754 0.99921900033950806 -0.034175999462604523
vn -0.032841000705957413 0.99861598014831543 -0.041085001081228256
vn -0.024686999619007111 0.99963700771331787 -0.010769999586045742
vn -0.017464999109506607 0.99983197450637817 -0.0056170001626014709
vn -0.026352999731898308 0.99920302629470825 -0.029984999448060989
vn -0.025345999747514725 0.99962097406387329 -0.010734999552369118
vn -0.025345999747514725 0.99962097406387329 -0.010734000243246555
f 1/1/1 2/2/2 3/3/3
f 1/1/1 4/4/4 2/2/2
f 5/5/5 6/6/6 3/3/3
f 7/7/7 3/3/3 8/8/8
f 7/7/7 9/9/9 3/3/3
f 10/10/10 3/3/3 2/2/2
f 10/10/10 5/5/5 3/3/3
f 7/7/7 8/8/8 11/11/11
f 3/3/3 12/12/12 13/13/13
f 3/3/3 6/6/6 12/12/12
f 3/3/3 14/14/14 8/8/8
f 12/12/12 15/15/15 13/13/13
f 13/13/13 16/16/16 17/17/17
f 13/13/13 15/15/15 16/16/16
f 14/14/14 17/17/17 18/18/18
f 17/17/17 14/14/14 13/13/13
f 14/14/14 18/18/18 19/19/19
f 16/16/16 20/20/20 17/17/17
f 16/16/16 21/21/21 20/20/20
f 3/3/3 13/13/13 14/14/14
f 22/22/22 8/8/8 14/14/14
f 17/17/17 23/23/23 18/18/18
f 24/24/24 25/25/25 26/26/26
f 26/26/26 20/20/20 27/27/27
f 26/26/26 25/25/25 20/20/20
f 25/25/25 28/28/28 20/20/20
f 29/29/29 23/23/23 30/30/30
f 28/28/28 23/23/23 20/20/20
f 28/28/28 30/30/30 23/23/23
f 23/23/23 31/31/31 32/32/32
f 23/23/23 29/29/29 31/31/31
f 17/17/17 20/20/20 23/23/23
f 21/21/21 27/27/27 20/20/20
f 33/33/33 18/18/18 23/23/23
f 9/9/9 1/1/1 3/3/3
f 34/34/34 35/35/35 36/36/36
f 37/37/37 38/38/38 39/39/39
f 11/11/11 22/22/22 40/40/40
f 11/11/11 8/8/8 22/22/22
f 18/18/18 33/33/33 19/19/19
f 22/22/22 19/19/19 39/39/39
f 41/41/41 39/39/39 42/42/42
f 41/41/41 43/43/43 39/39/39
f 36/36/36 39/39/39 43/43/43
f 36/36/36 35/35/35 39/39/39
f 35/35/35 37/37/37 39/39/39
f 41/41/41 42/42/42 44/44/44
f 42/42/42 39/39/39 19/19/19
f 39/39/39 40/40/40 22/22/22
f 39/39/39 38/38/38 40/40/40
f 42/42/42 19/19/19 45/45/45
f 31/31/31 46/46/46 32/32/32
f 33/33/33 32/32/32 45/45/45
f 47/47/47 45/45/45 48/48/48
f 33/33/33 45/45/45 19/19/19
f 45/45/45 32/32/32 49/49/49
f 47/47/47 42/42/42 45/45/45
f 47/47/47 44/44/44 42/42/42
f 50/50/50 48/48/48 45/45/45
f 23/23/23 32/32/32 33/33/33
f 51/51/51 49/49/49 52/52/52
f 46/46/46 49/49/49 32/32/32
f 46/46/46 52/52/52 49/49/49
f 51/51/51 53/53/53 49/49/49
f 51/51/51 54/54/54 53/53/53
f 54/54/54 51/51/51 55/55/55
f 50/50/50 49/49/49 53/53/53
f 50/50/50 45/45/45 49/49/49
f 22/22/22 14/14/14 19/19/19
