mtllib m03333101.mtl
usemtl material0
v -46.167151927948 0.13651999831199646 112
v -48 0.2853190004825592 112.6944727897644
v -46.036880016326904 0.20272299647331238 114.46131086349487
v -48 0.26408100128173828 112
v -34.166224956512451 0.37771600484848022 112
v -36.103621959686279 0.23633499443531036 112
v -34.068656921386719 0.586745023727417 113.82810211181641
v -38.168197989463806 -0.030215000733733177 112
v -40.328857004642487 -0.032361999154090881 112
v -38.059913992881775 0.081633001565933228 114.04045915603638
v -42.168270111083984 -0.0635410025715828 112
v -44.550907135009766 0.065690003335475922 112
v -42.048988103866577 0.021820999681949615 114.25129699707031
v -48 0.3883109986782074 116.64365410804749
v -48 0.29081198573112488 114.56470489501953
v -48 0.57028698921203613 118.56369805335999
v -45.824448108673096 0.58293998241424561 118.44877600669861
v -48 0.6872900128364563 122.56320190429688
v -45.612740039825439 0.81569498777389526 122.43673706054688
v -48 0.593392014503479 120.86686700582504
v -41.836151003837585 0.48406800627708435 118.23847198486328
v -48 0.71307700872421265 124.08904314041138
v -45.401782989501953 0.89463800191879272 126.42521715164185
v -37.847248077392578 0.50872397422790527 118.02775597572327
v -32 0.90349000692367554 112.10436201095581
v -32 1.0674480199813843 113.71734619140625
v -32 0.89288198947906494 112
v -33.856575012207031 0.89518600702285767 117.81580400466919
v -32 1.1383199691772461 115.68493700027466
v -41.623446941375732 0.91945499181747437 122.22574591636658
v -37.63467001914978 0.91823297739028931 122.01511406898499
v -41.412261962890625 1.0452729463577271 126.21407318115234
v -32 1.4389619827270508 119.97618100047112
v -33.644351959228516 1.2319420576095581 121.80341303348541
v -32 1.2730870246887207 117.71657609939575
v -32 1.598984956741333 121.71542394161224
v -33.431964874267578 1.6023839712142944 125.79090881347656
v -32 1.7996699810028076 124.19971513748169
v -37.422615051269531 1.2212940454483032 126.00283813476563
v -46.818653106689453 0.87562400102615356 128
v -45.318745136260986 0.8756830096244812 128
v -48 0.83997702598571777 127.46974897384644
v -48 0.83023500442504883 126.56263017654419
v -48 0.84567099809646606 128
v -43.01922607421875 0.96080499887466431 128
v -41.318336009979248 0.97525197267532349 128
v -37.317405939102173 1.177454948425293 128
v -39.21976500749588 1.0632380247116089 128
v -33.315169811248779 1.6369099617004395 128
v -35.419951915740967 1.3559420108795166 128
v -32 1.9361859560012817 125.71424102783203
v -32 1.9410099983215332 127.17800092697144
v -32 1.9437190294265747 128
vt 0 0.11455297470092773
vt 0.043405000120401382 0
vt 0.15383200347423554 0.12269502878189087
vt 0 0
vt 0 0.86461099982261658
vt 0 0.7435239851474762
vt 0.11425600200891495 0.87070900201797485
vt 0 0.61448800563812256
vt 0 0.47944599390029907
vt 0.12752899527549744 0.62125501036643982
vt 0 0.36448299884796143
vt 0 0.21556800603866577
vt 0.14070600271224976 0.37193799018859863
vt 0.290228009223938 0
vt 0.16029399633407593 0
vt 0.41023099422454834 0
vt 0.40304899215698242 0.13597202301025391
vt 0.66019999980926514 0
vt 0.65229600667953491 0.14920401573181152
vt 0.55417901277542114 0
vt 0.38990399241447449 0.38524097204208374
vt 0.75556498765945435 0
vt 0.90157598257064819 0.16238898038864136
vt 0.37673500180244446 0.63454699516296387
vt 0.0065230000764131546 1
vt 0.10733400285243988 1
vt 0 1
vt 0.36348798871040344 0.88396400213241577
vt 0.23030899465084076 1
vt 0.63910901546478271 0.39853501319885254
vt 0.625944972038269 0.647832989692688
vt 0.88837999105453491 0.41173398494720459
vt 0.49851098656654358 1
vt 0.61271297931671143 0.89722800254821777
vt 0.3572860062122345 1
vt 0.60721397399902344 1
vt 0.86193197965621948 0.91050200164318085
vt 0.76248198747634888 1
vt 0.87517702579498291 0.66108700633049011
vt 1 0.073834002017974854
vt 1 0.16757798194885254
vt 0.966858983039856 0
vt 0.9101639986038208 0
vt 1 0
vt 1 0.31129801273345947
vt 1 0.41760402917861938
vt 1 0.66766199469566345
vt 1 0.54876500368118286
vt 1 0.91780199855566025
vt 1 0.78625300526618958
vt 0.85714000463485718 1
vt 0.94862502813339233 1
vt 1 1
vn 0.051555000245571136 0.99823200702667236 -0.02957800030708313
vn 0.059907998889684677 0.9980049729347229 -0.019909000024199486
vn 0.031436998397111893 0.99730098247528076 -0.066344998776912689
vn 0.069397002458572388 0.99712300300598145 -0.030493000522255898
vn -0.15921400487422943 0.98177599906921387 -0.10376100242137909
vn -0.11526799947023392 0.99141502380371094 -0.061721999198198318
vn -0.16211600601673126 0.98429900407791138 -0.0698150023818016
vn -0.063381999731063843 0.99667197465896606 -0.05126899853348732
vn -0.0083219995722174644 0.99888098239898682 -0.046551000326871872
vn -0.064198002219200134 0.99464899301528931 -0.080943003296852112
vn 0.0041169999167323112 0.99926501512527466 -0.038107000291347504
vn 0.04993399977684021 0.99810200929641724 -0.036044001579284668
vn 0.017531000077724457 0.9965130090713501 -0.081578001379966736
vn 0.016803000122308731 0.99742597341537476 -0.06970600038766861
vn 0.043443001806735992 0.99871599674224854 -0.026046000421047211
vn -0.0095149995759129524 0.99747997522354126 -0.070306003093719482
vn 0.0054250000976026058 0.99680799245834351 -0.079649001359939575
vn -0.056129999458789825 0.99731999635696411 -0.046929001808166504
vn -0.028714999556541443 0.99843001365661621 -0.048087999224662781
vn -0.027689000591635704 0.999189019203186 -0.029231000691652298
vn -0.0060029998421669006 0.99479001760482788 -0.10176599770784378
vn -0.045790001749992371 0.99859499931335449 -0.026682000607252121
vn -0.0368570014834404 0.999239981174469 -0.01266700029373169
vn -0.046328999102115631 0.99364101886749268 -0.10262200236320496
vn -0.23024100065231323 0.96814501285552979 -0.098411001265048981
vn -0.22911900281906128 0.97131198644638062 -0.063703000545501709
vn -0.23024199903011322 0.96814501285552979 -0.09840799868106842
vn -0.12985700368881226 0.98815697431564331 -0.08175099641084671
vn -0.20905900001525879 0.97623497247695923 -0.05708400160074234
vn -0.020883999764919281 0.99693900346755981 -0.07534799724817276
vn -0.062362998723983765 0.99440097808837891 -0.085304997861385345
vn -0.03641900047659874 0.99927598237991333 -0.011045999825000763
vn -0.20651499927043915 0.97553998231887817 -0.07531999796628952
vn -0.12773799896240234 0.98843497037887573 -0.08172299712896347
vn -0.20250099897384644 0.97688800096511841 -0.068439997732639313
vn -0.22126099467277527 0.97185200452804565 -0.080908998847007751
vn -0.12712399661540985 0.99059802293777466 -0.050540998578071594
vn -0.22475500404834747 0.970969021320343 -0.081877000629901886
vn -0.0538019984960556 0.99814701080322266 -0.028436999768018723
vn -0.014675999991595745 0.999891996383667 -0.0011309999972581863
vn -0.022412000223994255 0.99966198205947876 0.013213999569416046
vn -0.025344999507069588 0.99962097406387329 -0.010734999552369118
vn -0.026744000613689423 0.99893897771835327 -0.037496998906135559
vn -0.025344999507069588 0.99962097406387329 -0.010734000243246555
vn -0.030551999807357788 0.99933701753616333 0.019773999229073524
vn -0.034811001271009445 0.99855297803878784 0.040980998426675797
vn -0.085631996393203735 0.99597799777984619 0.026373999193310738
vn -0.050445999950170517 0.99816101789474487 0.033601000905036926
vn -0.18706800043582916 0.98233199119567871 -0.0054629999212920666
vn -0.11404699832201004 0.99344199895858765 0.0081940004602074623
vn -0.22837300598621368 0.97315800189971924 -0.02843100018799305
vn -0.227183997631073 0.973846971988678 -0.0032089999876916409
vn -0.227182999253273 0.973846971988678 -0.0032089999876916409
f 1/1/1 2/2/2 3/3/3
f 1/1/1 4/4/4 2/2/2
f 5/5/5 6/6/6 7/7/7
f 8/8/8 9/9/9 10/10/10
f 11/11/11 12/12/12 13/13/13
f 14/14/14 3/3/3 15/15/15
f 2/2/2 15/15/15 3/3/3
f 3/3/3 16/16/16 17/17/17
f 3/3/3 14/14/14 16/16/16
f 17/17/17 18/18/18 19/19/19
f 17/17/17 20/20/20 18/18/18
f 17/17/17 19/19/19 21/21/21
f 20/20/20 17/17/17 16/16/16
f 22/22/22 19/19/19 18/18/18
f 22/22/22 23/23/23 19/19/19
f 13/13/13 3/3/3 17/17/17
f 21/21/21 13/13/13 17/17/17
f 13/13/13 21/21/21 10/10/10
f 10/10/10 21/21/21 24/24/24
f 6/6/6 10/10/10 7/7/7
f 6/6/6 8/8/8 10/10/10
f 25/25/25 7/7/7 26/26/26
f 25/25/25 5/5/5 7/7/7
f 25/25/25 27/27/27 5/5/5
f 10/10/10 28/28/28 7/7/7
f 10/10/10 11/11/11 13/13/13
f 10/10/10 9/9/9 11/11/11
f 26/26/26 7/7/7 29/29/29
f 24/24/24 30/30/30 31/31/31
f 30/30/30 24/24/24 21/21/21
f 24/24/24 31/31/31 28/28/28
f 19/19/19 32/32/32 30/30/30
f 33/33/33 28/28/28 34/34/34
f 33/33/33 35/35/35 28/28/28
f 28/28/28 29/29/29 7/7/7
f 28/28/28 35/35/35 29/29/29
f 36/36/36 37/37/37 38/38/38
f 36/36/36 34/34/34 37/37/37
f 34/34/34 28/28/28 31/31/31
f 10/10/10 24/24/24 28/28/28
f 30/30/30 39/39/39 31/31/31
f 30/30/30 21/21/21 19/19/19
f 13/13/13 1/1/1 3/3/3
f 13/13/13 12/12/12 1/1/1
f 31/31/31 37/37/37 34/34/34
f 40/40/40 41/41/41 23/23/23
f 42/42/42 23/23/23 43/43/43
f 42/42/42 40/40/40 23/23/23
f 42/42/42 44/44/44 40/40/40
f 23/23/23 32/32/32 19/19/19
f 23/23/23 45/45/45 32/32/32
f 23/23/23 41/41/41 45/45/45
f 22/22/22 43/43/43 23/23/23
f 45/45/45 46/46/46 32/32/32
f 47/47/47 39/39/39 48/48/48
f 46/46/46 39/39/39 32/32/32
f 46/46/46 48/48/48 39/39/39
f 49/49/49 37/37/37 50/50/50
f 47/47/47 37/37/37 39/39/39
f 47/47/47 50/50/50 37/37/37
f 49/49/49 51/51/51 37/37/37
f 49/49/49 52/52/52 51/51/51
f 52/52/52 49/49/49 53/53/53
f 31/31/31 39/39/39 37/37/37
f 30/30/30 32/32/32 39/39/39
f 33/33/33 34/34/34 36/36/36
f 51/51/51 38/38/38 37/37/37
