mtllib m033333222.mtl
usemtl material0
v -64 3.3814880847930908 1.3979969024658203
v -63.988922119140625 3.3813619613647461 1.4028239250183106
v -64 3.3936569690704346 1.1917779445648193
v -62.062180042266846 3.5481910705566406 0
v -61.993957996368408 3.49770188331604 1.2971060276031494
v -60.826771020889282 3.5960919857025146 0
v -57.098933935165405 3.7716450691223145 0
v -56.009365081787109 3.7866570949554443 0.98015809059143066
v -56.060883045196533 3.83176589012146 0
v -56 3.8352921009063721 0
v -56 3.7877099514007568 0.969749927520752
v -59.211284995079041 3.6688990592956543 0
v -58.004256963729858 3.6849689483642578 1.0858259201049805
v -58.061378002166748 3.7245759963989258 0
v -63.435683965682983 3.4976150989532471 0
v -61.889094948768616 3.4112710952758789 3.291782021522522
v -64 3.466533899307251 0
v -59.999069000012241 3.5989038944244385 1.1914401054382324
v -57.899180889129639 3.6419949531555176 3.0803520083427429
v -60.061790000647306 3.6336150169372559 0
v -56 3.7811679840087891 1.1581089496612549
v -56 3.7232999801635742 2.8887360095977783
v -59.894042998552322 3.5461649894714355 3.1859999895095825
v -56 3.7871708869934082 0.97966194152832031
v -56 3.7867341041564941 0.988584041595459
v -64 3.3808999061584473 1.4091150760650635
v -64 3.3814339637756348 1.3990089893341065
v -63.884232044219971 3.2592880725860596 3.3976230025291443
v -64 3.108375072479248 5.2965320348739624
v -63.779716014862061 3.1020569801330566 5.39254105091095
v -64 3.2581319808959961 3.4037389755249023
v -61.784500002861023 3.2706420421600342 5.2866439819335938
v -57.794307947158813 3.5580050945281982 5.0750199556350708
v -56 3.7211439609527588 2.9798099994659424
v -56 3.6474030017852783 4.78898698091507
v -61.679934978485107 3.1236629486083984 7.2815279960632324
v -59.789268001914024 3.4416670799255371 5.1807379722595215
v -56 3.6389310359954834 4.980010986328125
v -57.689758062362671 3.4080970287323 7.0699141025543213
v -59.684765011072159 3.2824819087982178 7.175663948059082
v -56 3.5234711170196533 6.6896131038665771
v -64 3.0965859889984131 5.5176199674606323
v -64 3.0054988861083984 8
v -63.642559051513672 3.005363941192627 8
v -64 3.0053849220275879 7.9642560482025146
v -63.674915075302124 3.0034170150756836 7.3872590065002441
v -64 3.003593921661377 7.4044249057769775
v -60.426582008600235 3.1937060356140137 8
v -61.642127990722656 3.09938907623291 8
v -57.641028881073 3.3350179195404053 8
v -58.768638968467712 3.2688980102539062 8
v -62.993710041046143 3.0205628871917725 8
v -59.641514003276825 3.2302188873291016 8
v -56 3.5008471012115479 6.9803879261016846
v -56.62696099281311 3.3863160610198975 8
v -56 3.4746170043945312 7.3033249378204346
v -56 3.4120719432830811 8
vt 0.17475000023841858 0
vt 0.17535300552845 0.0013849735260009766
vt 0.14897200465202332 0
vt 0 0.24222797155380249
vt 0.16213800013065338 0.25075501203536987
vt 0 0.39665400981903076
vt 0 0.862633004784584
vt 0.12251999974250794 0.998829000047408
vt 0 0.99238999979570508
vt 0 1
vt 0.12121900171041489 1
vt 0 0.59858900308609009
vt 0.13572800159454346 0.74946799874305725
vt 0 0.7423279881477356
vt 0 0.070538997650146484
vt 0.41147300601005554 0.26386302709579468
vt 0 0
vt 0.14892999827861786 0.50011599063873291
vt 0.38504400849342346 0.76260200142860413
vt 0 0.49227601289749146
vt 0.1447640061378479 1
vt 0.36109200119972229 1
vt 0.398250013589859 0.51324498653411865
vt 0.12245800346136093 1
vt 0.12357299774885178 1
vt 0.1761389970779419 0
vt 0.17487600445747376 0
vt 0.42470300197601318 0.014470994472503662
vt 0.6620669960975647 0
vt 0.67406797409057617 0.027535021305084229
vt 0.42546701431274414 0
vt 0.660830020904541 0.27693700790405273
vt 0.63437700271606445 0.77571199834346771
vt 0.3724760115146637 1
vt 0.59862297773361206 1
vt 0.910190999507904 0.290008008480072
vt 0.64759200811386108 0.52634099125862122
vt 0.622501015663147 1
vt 0.88373899459838867 0.788780003786087
vt 0.89695799350738525 0.5394040048122406
vt 0.83620202541351318 1
vt 0.68970298767089844 0
vt 1 0
vt 1 0.044679999351501465
vt 0.99553197622299194 0
vt 0.92340701818466187 0.040636003017425537
vt 0.925553023815155 0
vt 1 0.446677029132843
vt 1 0.29473400115966797
vt 1 0.7948710024356842
vt 1 0.65391999483108521
vt 1 0.12578600645065308
vt 1 0.54481101036071777
vt 0.87254899740219116 1
vt 1 0.92163000255823135
vt 0.91291600465774536 1
vt 1 1
vn -0.014289000071585178 0.99816298484802246 0.058873999863862991
vn -0.060378998517990112 0.99654698371887207 0.057002998888492584
vn -0.054777998477220535 0.99663698673248291 0.060938000679016113
vn -0.037687998265028 0.99845397472381592 0.040846999734640121
vn -0.052345998585224152 0.997734010219574 0.042279001325368881
vn -0.045667000114917755 0.99835598468780518 0.0346359983086586
vn -0.0510139986872673 0.997838020324707 0.041425000876188278
vn -0.051603000611066818 0.99780601263046265 0.041482999920845032
vn -0.057750999927520752 0.99713099002838135 0.0489250011742115
vn -0.057748999446630478 0.99713200330734253 0.0489250011742115
vn -0.057668000459671021 0.99713397026062012 0.048978999257087708
vn -0.043320998549461365 0.99850302934646606 0.033380001783370972
vn -0.044638998806476593 0.99854302406311035 0.0303179994225502
vn -0.048546001315116882 0.99806100130081177 0.03895999863743782
vn -0.048840999603271484 0.99733400344848633 0.054219000041484833
vn -0.0656680017709732 0.99597597122192383 0.060984998941421509
vn -0.054891999810934067 0.99663102626800537 0.060943998396396637
vn -0.045596998184919357 0.9985470175743103 0.028720999136567116
vn -0.042808998376131058 0.9985010027885437 0.034106999635696411
vn -0.045000001788139343 0.99849200248718262 0.031458999961614609
vn -0.049111999571323395 0.99823498725891113 0.0333780013024807
vn -0.044449001550674438 0.99861401319503784 0.028181999921798706
vn -0.058166000992059708 0.9971650242805481 0.047729998826980591
vn -0.05197799950838089 0.99730998277664185 0.051674000918865204
vn -0.038438998162746429 0.99869602918624878 0.03359600156545639
vn -0.0067690000869333744 0.99809098243713379 0.061388000845909119
vn -0.011702000163495541 0.99853497743606567 0.052825998514890671
vn -0.069931000471115112 0.99482202529907227 0.073746003210544586
vn -0.0050030001439154148 0.99701201915740967 0.077087000012397766
vn -0.063979998230934143 0.99554300308227539 0.069283001124858856
vn -0.006289999932050705 0.997560977935791 0.069522999227046967
vn -0.07610899955034256 0.994280993938446 0.0749180018901825
vn -0.04860600084066391 0.99695098400115967 0.061039999127388
vn -0.039498999714851379 0.9984239935874939 0.039877999573946
vn -0.039760999381542206 0.99836599826812744 0.0410350002348423
vn -0.0706389993429184 0.99561798572540283 0.061275001615285873
vn -0.066108003258705139 0.99528002738952637 0.071048997342586517
vn -0.04211600124835968 0.99763298034667969 0.054356001317501068
vn -0.054237000644207 0.99533700942993164 0.079767003655433655
vn -0.0678199976682663 0.99479401111602783 0.076059997081756592
vn -0.0427279993891716 0.9967150092124939 0.068801999092102051
vn 0.0033849999308586121 0.998760998249054 0.049646999686956406
vn 0.00037799999699927866 0.99999499320983887 -0.0031880000606179237
vn -0.014684000052511692 0.99988901615142822 -0.0024009998887777328
vn 0.00037699998938478529 0.99999499320983887 -0.0031979999039322138
vn -0.047759998589754105 0.99798297882080078 0.04182799905538559
vn 0.0027409999165683985 0.99913102388381958 0.041595000773668289
vn -0.070828996598720551 0.9965360164642334 0.0435819998383522
vn -0.063510999083518982 0.997294008731842 0.037036001682281494
vn -0.0563259981572628 0.99510997533798218 0.08113899827003479
vn -0.052170000970363617 0.99586397409439087 0.0743900015950203
vn -0.0469370000064373 0.99860399961471558 0.024237999692559242
vn -0.045207999646663666 0.9968230128288269 0.065571002662181854
vn -0.050487000495195389 0.99562901258468628 0.0785679966211319
vn -0.049082998186349869 0.99542301893234253 0.081996001303195953
vn -0.04388200119137764 0.99527102708816528 0.086655996739864349
vn -0.040881998836994171 0.99516201019287109 0.089341998100280762
f 1/1/1 2/2/2 3/3/3
f 4/4/4 5/5/5 6/6/6
f 7/7/7 8/8/8 9/9/9
f 10/10/10 8/8/8 11/11/11
f 10/10/10 9/9/9 8/8/8
f 12/12/12 13/13/13 14/14/14
f 4/4/4 15/15/15 5/5/5
f 2/2/2 16/16/16 5/5/5
f 15/15/15 2/2/2 5/5/5
f 15/15/15 3/3/3 2/2/2
f 15/15/15 17/17/17 3/3/3
f 18/18/18 19/19/19 13/13/13
f 12/12/12 18/18/18 13/13/13
f 12/12/12 20/20/20 18/18/18
f 7/7/7 13/13/13 8/8/8
f 7/7/7 14/14/14 13/13/13
f 13/13/13 21/21/21 8/8/8
f 13/13/13 22/22/22 21/21/21
f 18/18/18 6/6/6 5/5/5
f 18/18/18 20/20/20 6/6/6
f 5/5/5 23/23/23 18/18/18
f 24/24/24 11/11/11 8/8/8
f 24/24/24 8/8/8 25/25/25
f 26/26/26 2/2/2 27/27/27
f 27/27/27 2/2/2 1/1/1
f 28/28/28 29/29/29 30/30/30
f 28/28/28 31/31/31 29/29/29
f 28/28/28 16/16/16 2/2/2
f 16/16/16 23/23/23 5/5/5
f 16/16/16 28/28/28 32/32/32
f 2/2/2 31/31/31 28/28/28
f 2/2/2 26/26/26 31/31/31
f 19/19/19 23/23/23 33/33/33
f 19/19/19 22/22/22 13/13/13
f 19/19/19 34/34/34 22/22/22
f 21/21/21 25/25/25 8/8/8
f 34/34/34 19/19/19 35/35/35
f 18/18/18 23/23/23 19/19/19
f 23/23/23 16/16/16 32/32/32
f 36/36/36 32/32/32 30/30/30
f 28/28/28 30/30/30 32/32/32
f 33/33/33 23/23/23 37/37/37
f 32/32/32 37/37/37 23/23/23
f 38/38/38 19/19/19 33/33/33
f 38/38/38 35/35/35 19/19/19
f 39/39/39 33/33/33 37/37/37
f 40/40/40 37/37/37 32/32/32
f 41/41/41 38/38/38 33/33/33
f 29/29/29 42/42/42 30/30/30
f 43/43/43 44/44/44 45/45/45
f 45/45/45 46/46/46 47/47/47
f 45/45/45 44/44/44 46/46/46
f 30/30/30 47/47/47 46/46/46
f 30/30/30 42/42/42 47/47/47
f 48/48/48 36/36/36 49/49/49
f 48/48/48 40/40/40 36/36/36
f 32/32/32 36/36/36 40/40/40
f 37/37/37 40/40/40 39/39/39
f 50/50/50 40/40/40 51/51/51
f 50/50/50 39/39/39 40/40/40
f 36/36/36 30/30/30 46/46/46
f 49/49/49 46/46/46 52/52/52
f 49/49/49 36/36/36 46/46/46
f 52/52/52 46/46/46 44/44/44
f 53/53/53 40/40/40 48/48/48
f 54/54/54 55/55/55 56/56/56
f 54/54/54 39/39/39 55/55/55
f 39/39/39 50/50/50 55/55/55
f 51/51/51 40/40/40 53/53/53
f 57/57/57 56/56/56 55/55/55
f 54/54/54 33/33/33 39/39/39
f 54/54/54 41/41/41 33/33/33
