mtllib m0333111.mtl
usemtl material0
v -32 0.20972299575805664 233.71621704101563
v -32 -0.23316699266433716 238.21102905273438
v -27.754310607910156 0.024139000102877617 233.49258422851563
v -32 0.455471009016037 229.76687622070313
v -28.172920227050781 0.54031699895858765 225.51333618164063
v -32 0.52041101455688477 225.71549987792969
v -32 0.54874300956726074 224
v -28.252685546875 0.564965009689331 224
v -32 0.5390859842300415 224.58473205566406
v -27.336095809936523 -0.57213497161865234 241.47209203243256
v -32 -0.49133899807929993 241.71814000606537
v -20.195281982421875 0.55542701482772827 225.09202575683594
v -19.777605056762695 -0.15020200610160828 233.07189893722534
v -32 -0.80690699815750122 246.65542602539063
v -26.811332702636719 0.553695023059845 224
v -32 -0.99052000045776367 249.71942138671875
v -32 -1.3126369714736939 255.09996032714844
v -26.917333602905273 -1.0571019649505615 249.45123291015625
v -26.573015213012695 -1.3321369886398315 256
v -32 -1.3505979776382446 256
v -18.941459894180298 -1.4003850221633911 249.03111267089844
v -25.211387634277344 -1.3935830593109131 256
v -19.360268115997314 -0.9251829981803894 241.05201697349548
v -12.2187180519104 0.35225901007652283 224.67143154144287
v -19.212735891342163 0.58139199018478394 224
v -12.253989934921265 0.38616299629211426 224
v -11.614584922790527 0.37177398800849915 224
v -11.799620151519775 -0.063822999596595764 232.65034484863281
v -4.2421808242797852 0.14321400225162506 224.25086975097656
v -20.252890110015869 0.56352102756500244 224
v -11.382829189300537 -0.94964301586151123 240.63082897663117
v -17.612537026405334 -1.2286529541015625 256
v -10.963094234466553 -1.2358829975128174 248.60929870605469
v -18.572798013687134 -1.2494930028915405 256
v -3.8226461410522461 -0.18351499736309052 232.22947692871094
v -4.2553520202636719 0.15746299922466278 224
v 0 0.16783499717712402 224.02677917480469
v 0 0.12929399311542511 224.96359252929688
v 0 0.0051489998586475849 227.98109436035156
v -3.4030246734619141 -0.492684006690979 240.20802299678326
v 0 -0.13138300180435181 232.0274510383606
v 0 -0.30450299382209778 236.42604088783264
v -4.0164470672607422 0.15538999438285828 224
v -2.9859724044799805 -1.3248130083084106 248.18832397460938
v -10.013986110687256 -1.2226879596710205 256
v -10.572833061218262 -1.2165520191192627 256
v -2.57431697845459 -1.4683690071105957 256
v 0 -1.423550009727478 248.03096008300781
v -2.4159183502197266 -1.4737449884414673 256
v 0 -1.5111989974975586 253.31468200683594
v 0 -0.53000497817993164 240.0284419991076
v 0 -1.0307040214538574 244.87010192871094
v 0 0.16905300319194794 224
v 0 0.0051489998586475849 227.98109436035156
v 0 -1.4573830366134644 255.9212646484375
v 0 -1.4557579755783081 256
vt 0.67135500907897949 0.012088000774383545
vt 0.53575897216796875 0.017409980297088623
vt 0.6824989914894104 0.13946199417114258
vt 0.79015898704528809 0.0076310038566589355
vt 0.922095000743866 0.11787199974060059
vt 0.91181802749633789 0.003184974193572998
vt 0.963333010673523 0.0013030171394348145
vt 0.96732497215271 0.11353302001953125
vt 0.94577401876449585 0.0019440054893493652
vt 0.44274500012397766 0.16124200820922852
vt 0.43018001317977905 0.021462976932525635
vt 0.943930983543396 0.35669702291488647
vt 0.70390599966049194 0.378557026386261
vt 0.28164398670196533 0.0271340012550354
vt 0.96908402442932129 0.15680402517318726
vt 0.1894879937171936 0.030646026134490967
vt 0.027657000347971916 0.036813020706176758
vt 0.20320799946784973 0.18281197547912598
vt 0.0067879999987781048 0.2003600001335144
vt 0.000610999995842576 0.037826001644134521
vt 0.22417299449443817 0.4220849871635437
vt 0.0082109998911619186 0.2412869930267334
vt 0.46369200944900513 0.40052801370620728
vt 0.96526199579238892 0.59581500291824341
vt 0.97782701253890991 0.38497501611709595
vt 0.98540598154067993 0.593995988368988
vt 0.98614001274108887 0.61316001415252686
vt 0.72614902257919312 0.617572009563446
vt 0.98701900243759155 0.83489799499511719
vt 0.97665202617645264 0.35370802879333496
vt 0.48557901382446289 0.63954600691795349
vt 0.016466999426484108 0.47024601697921753
vt 0.24618299305438995 0.66117098927497864
vt 0.015274999663233757 0.44066601991653442
vt 0.74771499633789062 0.85662999749183655
vt 0.99454700946807861 0.83420300483703613
vt 0.99858498573303223 0.9620090015232563
vt 0.97043401002883911 0.96308200061321259
vt 0.88002502918243408 0.966219000518322
vt 0.508525013923645 0.878931000828743
vt 0.75848197937011719 0.97114700078964233
vt 0.62633198499679565 0.97649700008332729
vt 0.9948279857635498 0.841376006603241
vt 0.26772001385688782 0.9002240002155304
vt 0.025338999927043915 0.69790399074554443
vt 0.024757999926805496 0.68159198760986328
vt 0.033608000725507736 0.92139799892902374
vt 0.27534899115562439 0.98978700023144484
vt 0.033783998340368271 0.92615699768066406
vt 0.11706399917602539 0.99575500003993511
vt 0.51713001728057861 0.98096200078725815
vt 0.37098300457000732 0.98626300040632486
vt 0.99938899278640747 0.9619779996573925
vt 0.88002502918243408 0.966219000518322
vt 0.038784001022577286 0.998611000017263
vt 0.036419998854398727 0.99869699997361749
vn 0.047763001173734665 0.9956049919128418 0.080562002956867218
vn 0.02755500003695488 0.99648302793502808 0.079134002327919
vn 0.030342999845743179 0.99678498506546021 0.074153997004032135
vn 0.034919001162052155 0.998071014881134 0.051325999200344086
vn 0.0054029999300837517 0.999442994594574 0.032944001257419586
vn -0.0043410002253949642 0.999858021736145 0.016262000426650047
vn -0.0043279998935759068 0.99985402822494507 0.016512999311089516
vn 0.0015409999759867787 0.99986797571182251 0.016203999519348145
vn -0.0043279998935759068 0.99985402822494507 0.016512999311089516
vn 0.031035000458359718 0.99711602926254272 0.069255001842975616
vn 0.020888999104499817 0.9974370002746582 0.068429000675678253
vn 0.0119439996778965 0.99869900941848755 0.049568001180887222
vn 0.017230000346899033 0.99629998207092285 0.084198996424674988
vn 0.017261000350117683 0.9980049729347229 0.06073400005698204
vn 0.00098699994850903749 0.99995201826095581 0.0097279995679855347
vn 0.016228999942541122 0.99808001518249512 0.059780001640319824
vn 0.0011759999906644225 0.99892902374267578 0.046247001737356186
vn 0.028573999181389809 0.99823898077011108 0.0519849993288517
vn 0.021652000024914742 0.99893200397491455 0.040814999490976334
vn -0.0033990000374615192 0.99910598993301392 0.042139001190662384
vn 0.0074200001545250416 0.99969601631164551 0.02350899949669838
vn 0.027253000065684319 0.99935102462768555 0.023544000461697578
vn 0.025840999558568 0.9965749979019165 0.078548997640609741
vn 0.023398999124765396 0.99819397926330566 0.055319998413324356
vn 0.015957999974489212 0.9991459846496582 0.0381149984896183
vn 0.025335000827908516 0.99847298860549927 0.049086000770330429
vn 0.027303000912070274 0.99818998575210571 0.053578000515699387
vn 0.0092970002442598343 0.996940016746521 0.077618002891540527
vn 0.012757999822497368 0.998760998249054 0.048099000006914139
vn -0.0090749999508261681 0.99992799758911133 0.0078910002484917641
vn -0.0084490003064274788 0.99706602096557617 0.076080001890659332
vn -0.016364999115467072 0.99974298477172852 -0.015700999647378922
vn -0.0015989999519661069 0.99989598989486694 0.014330999925732613
vn -0.02169400081038475 0.99955499172210693 -0.02049499936401844
vn -0.00481100007891655 0.99883097410202026 0.048099000006914139
vn 0.019212000072002411 0.99826300144195557 0.055688999593257904
vn -0.0035089999437332153 0.99905401468276978 0.043338999152183533
vn -0.0036279999185353518 0.99914801120758057 0.041106998920440674
vn -0.0036269999109208584 0.99914801120758057 0.041106000542640686
vn -0.02212199941277504 0.99690800905227661 0.075405001640319824
vn -0.011702000163495541 0.99926799535751343 0.036428000777959824
vn -0.0055379997938871384 0.99898397922515869 0.0447239987552166
vn -0.00017699999443721026 0.99883198738098145 0.048317000269889832
vn 0.016178000718355179 0.99852198362350464 0.051894001662731171
vn 0.016855999827384949 0.99985599517822266 0.0020940001122653484
vn 0.00484299985691905 0.9999840259552002 -0.002870999975129962
vn 0.033473998308181763 0.99930202960968018 0.016599999740719795
vn 0.03673899918794632 0.99674797058105469 0.071714997291564941
vn 0.022887000814080238 0.99971598386764526 0.0066470000892877579
vn 0.02427699975669384 0.99967402219772339 0.007898000068962574
vn 0.015256999991834164 0.99651402235031128 0.082014001905918121
vn 0.021679999306797981 0.993956983089447 0.10760799795389175
vn -0.0033990000374615192 0.99896198511123657 0.045425001531839371
vn -0.011846999637782574 0.999360978603363 0.033720999956130981
vn -0.0074439998716115952 0.9997590184211731 -0.020641999319195747
vn -0.0074430000968277454 0.9997590184211731 -0.020641999319195747
f 1/1/1 2/2/2 3/3/3
f 4/4/4 5/5/5 6/6/6
f 7/7/7 5/5/5 8/8/8
f 7/7/7 9/9/9 5/5/5
f 9/9/9 6/6/6 5/5/5
f 2/2/2 10/10/10 3/3/3
f 2/2/2 11/11/11 10/10/10
f 3/3/3 12/12/12 5/5/5
f 10/10/10 13/13/13 3/3/3
f 14/14/14 10/10/10 11/11/11
f 8/8/8 5/5/5 15/15/15
f 4/4/4 3/3/3 5/5/5
f 4/4/4 1/1/1 3/3/3
f 16/16/16 17/17/17 18/18/18
f 17/17/17 19/19/19 18/18/18
f 17/17/17 20/20/20 19/19/19
f 19/19/19 21/21/21 18/18/18
f 19/19/19 22/22/22 21/21/21
f 10/10/10 16/16/16 18/18/18
f 10/10/10 14/14/14 16/16/16
f 10/10/10 18/18/18 23/23/23
f 13/13/13 12/12/12 3/3/3
f 12/12/12 13/13/13 24/24/24
f 24/24/24 25/25/25 12/12/12
f 24/24/24 26/26/26 25/25/25
f 26/26/26 24/24/24 27/27/27
f 24/24/24 28/28/28 29/29/29
f 28/28/28 24/24/24 13/13/13
f 30/30/30 12/12/12 25/25/25
f 28/28/28 13/13/13 23/23/23
f 21/21/21 23/23/23 18/18/18
f 21/21/21 31/31/31 23/23/23
f 21/21/21 32/32/32 33/33/33
f 21/21/21 34/34/34 32/32/32
f 34/34/34 21/21/21 22/22/22
f 28/28/28 23/23/23 31/31/31
f 23/23/23 13/13/13 10/10/10
f 35/35/35 29/29/29 28/28/28
f 27/27/27 29/29/29 36/36/36
f 27/27/27 24/24/24 29/29/29
f 31/31/31 35/35/35 28/28/28
f 35/35/35 37/37/37 29/29/29
f 35/35/35 38/38/38 37/37/37
f 38/38/38 35/35/35 39/39/39
f 40/40/40 41/41/41 35/35/35
f 40/40/40 42/42/42 41/41/41
f 40/40/40 35/35/35 31/31/31
f 36/36/36 29/29/29 43/43/43
f 40/40/40 31/31/31 44/44/44
f 45/45/45 33/33/33 46/46/46
f 45/45/45 44/44/44 33/33/33
f 33/33/33 44/44/44 31/31/31
f 47/47/47 44/44/44 45/45/45
f 46/46/46 33/33/33 32/32/32
f 48/48/48 49/49/49 50/50/50
f 48/48/48 44/44/44 49/49/49
f 44/44/44 47/47/47 49/49/49
f 51/51/51 44/44/44 52/52/52
f 51/51/51 40/40/40 44/44/44
f 33/33/33 31/31/31 21/21/21
f 12/12/12 15/15/15 5/5/5
f 12/12/12 30/30/30 15/15/15
f 53/53/53 29/29/29 37/37/37
f 53/53/53 43/43/43 29/29/29
f 42/42/42 40/40/40 51/51/51
f 52/52/52 44/44/44 48/48/48
f 54/54/54 35/35/35 41/41/41
f 50/50/50 49/49/49 55/55/55
f 55/55/55 49/49/49 56/56/56
