mtllib m03333022.mtl
usemtl material0
v -116.67669701576233 4.6298980712890625 64
v -118.97663903236389 4.7245798110961914 64
v -116.56186699867249 4.6508698463439941 66.173119068145752
v -112.67787885665894 4.4146652221679688 64
v -114.755530834198 4.5172529220581055 64
v -112.57424211502075 4.4143848419189453 65.963294982910156
v -128 4.781013011932373 65.490737915039062
v -124.53931379318237 4.6770567893981934 66.594306945800781
v -128 4.7958941459655762 65.085861206054688
v -128 4.6682281494140625 68.559257984161377
v -122.2050929069519 4.7400522232055664 64
v -120.55070501565933 4.6402850151062012 66.383797168731689
v -120.6761320233345 4.7231960296630859 64
v -116.35129499435425 4.6517610549926758 70.1618800163269
v -112 4.3590011596679688 64
v -112 4.3602190017700195 64.290610790252686
v -112 4.3671050071716309 65.933121204376221
v -112.36363220214844 4.4216232299804688 69.952025890350342
v -120.34013399481773 4.6416630744934082 70.372550964355469
v -124.67598676681519 4.7333159446716309 64
v -112 4.3724050521850586 66.480263233184814
v -128 4.8179850578308105 64
v -124.32902479171753 4.6193537712097168 70.583260059356689
v -128 4.489832878112793 72.881583988666534
v -124.11982011795044 4.3389949798583984 74.572974920272827
v -128 4.6367888450622559 70.777060985565186
v -120.12933300435543 4.6874699592590332 74.36114501953125
v -128 4.1040148735046387 76.7762598991394
v -119.91992200165987 4.4500741958618164 78.350716114044189
v -128 3.8404269218444824 80
v -123.83559393882752 3.8897140026092529 80
v -128 3.8787410259246826 79.474953174591064
v -123.91093397140503 3.9936909675598145 78.562911987304688
v -128 3.9295239448547363 78.779045104980469
v -119.83386999368668 4.2496371269226074 80
v -121.40432000160217 4.1576371192932129 80
v -117.60481309890747 4.2850561141967773 80
v -115.93070220947266 4.5392708778381348 78.139778137207031
v -116.14099907875061 4.5950298309326172 74.150825977325439
v -112.15325212478638 4.38247013092041 73.94091796875
v -112 4.392974853515625 69.9329149723053
v -112 4.4001998901367188 70.27935004234314
v -112 4.2965240478515625 76.852165222167969
v -112 4.2686080932617188 77.933060169219971
v -112 4.3744702339172363 73.932854056358337
v -112 4.0229849815368652 80
v -113.86634111404419 4.1631622314453125 80
v -112 4.0318760871887207 79.925179004669189
v -115.83378601074219 4.2854418754577637 80
vt 0 0.70770600438117981
vt 0 0.56395998597145081
vt 0.13582000136375427 0.71488299965858459
vt 0 0.95763299986720085
vt 0 0.82777899503707886
vt 0.12270600348711014 0.96410999819636345
vt 0.093171000480651855 0
vt 0.1621440052986145 0.21629297733306885
vt 0.0678659975528717 0
vt 0.2849540114402771 0
vt 0 0.36218202114105225
vt 0.14898699522018433 0.46558099985122681
vt 0 0.45774197578430176
vt 0.38511800765991211 0.72804400324821472
vt 0 1
vt 0.018162999302148819 1
vt 0.12082000076770783 1
vt 0.3720020055770874 0.9772730004042387
vt 0.398283988237381 0.47874200344085693
vt 0 0.20775097608566284
vt 0.15501600503921509 1
vt 0 0
vt 0.41145399212837219 0.22943598031997681
vt 0.5550990104675293 0
vt 0.66081100702285767 0.24251097440719605
vt 0.42356601357460022 0
vt 0.64757198095321655 0.49191701412200928
vt 0.79851597547531128 0
vt 0.89692002534866333 0.50500500202178955
vt 1 0
vt 1 0.26027500629425049
vt 0.96718502044677734 0
vt 0.910181999206543 0.25556701421737671
vt 0.92369002103805542 0
vt 1 0.5103830099105835
vt 1 0.41223001480102539
vt 1 0.64969900250434875
vt 0.8837360143661499 0.75433099269866943
vt 0.634427011013031 0.74118798971176147
vt 0.62130701541900635 0.99042200017720461
vt 0.3708069920539856 1
vt 0.39245900511741638 1
vt 0.80326002836227417 1
vt 0.87081599235534668 1
vt 0.62080299854278564 1
vt 1 1
vt 1 0.88335400074720383
vt 0.99532401561737061 1
vt 1 0.76038800179958344
vn 0.053553000092506409 0.99848699569702148 -0.012466000393033028
vn 0.010695000179111958 0.99970000982284546 0.022025000303983688
vn 0.035681001842021942 0.9993630051612854 0.00025000001187436283
vn 0.058070998638868332 0.998308002948761 -0.00292299990542233
vn 0.053745001554489136 0.99852699041366577 -0.007393999956548214
vn 0.060456998646259308 0.99814397096633911 -0.0073199998587369919
vn 0.018302999436855316 0.99915802478790283 0.036724001169204712
vn 0.008921000175178051 0.99979197978973389 0.018360000103712082
vn 0.023514999076724052 0.99941599369049072 0.024786999449133873
vn 0.0096230003982782364 0.99972397089004517 0.021440999582409859
vn 0.0065939999185502529 0.99952197074890137 0.030203999951481819
vn 0.002701000077649951 0.9999229907989502 0.012125000357627869
vn 0.0047900001518428326 0.99939298629760742 0.034508001059293747
vn 0.021887000650167465 0.9997590184211731 0.001538999960757792
vn 0.081839002668857574 0.99663698673248291 -0.0041769999079406261
vn 0.081839002668857574 0.99663698673248291 -0.0041780001483857632
vn 0.081766001880168915 0.99663597345352173 -0.0055470000952482224
vn 0.058053001761436462 0.99831098318099976 0.002107999986037612
vn -0.0014990000054240227 0.99999701976776123 -0.0017590000061318278
vn 0.013443999923765659 0.99968999624252319 0.020971000194549561
vn 0.0785060003399849 0.99689400196075439 -0.0062509998679161072
vn 0.025458000600337982 0.999468982219696 0.020332999527454376
vn -0.012783000245690346 0.99934202432632446 0.033938001841306686
vn 0.0033519999124109745 0.99669301509857178 0.081196002662181854
vn -0.047968000173568726 0.9955819845199585 0.0807190015912056
vn 0.0069220000877976418 0.99912500381469727 0.0412370003759861
vn -0.021082999184727669 0.99929100275039673 0.031181000173091888
vn -0.0084410002455115318 0.99578398466110229 0.0913349986076355
vn -0.05054900050163269 0.99630200862884521 0.069472000002861023
vn -0.01180300023406744 0.99727898836135864 0.0727740004658699
vn -0.06516999751329422 0.99502098560333252 0.075409002602100372
vn -0.01180300023406744 0.99727898836135864 0.072774998843669891
vn -0.050138000398874283 0.99511998891830444 0.084988996386528015
vn -0.011239999905228615 0.99647098779678345 0.0831810012459755
vn -0.033264998346567154 0.991936981678009 0.12228500097990036
vn -0.089170999825000763 0.991424024105072 0.095535002648830414
vn -0.012116000056266785 0.992123007774353 0.12467899918556213
vn 0.035565998405218124 0.99787998199462891 0.054492998868227005
vn 0.032372999936342239 0.99929100275039673 0.019233999773859978
vn 0.057790998369455338 0.99823898077011108 0.013372999615967274
vn 0.078157998621463776 0.99691402912139893 -0.0072940001264214516
vn 0.05402500182390213 0.99852502346038818 0.00533499987795949
vn 0.069568999111652374 0.99724400043487549 0.0257789995521307
vn 0.0729219987988472 0.99365997314453125 0.08557400107383728
vn 0.052949998527765274 0.99847298860549927 0.015749000012874603
vn 0.074377000331878662 0.99026298522949219 0.1176770031452179
vn 0.067763999104499817 0.98984897136688232 0.12493199855089188
vn 0.074377000331878662 0.99026298522949219 0.1176770031452179
vn 0.032295998185873032 0.990526020526886 0.13347600400447846
f 1/1/1 2/2/2 3/3/3
f 4/4/4 5/5/5 6/6/6
f 7/7/7 8/8/8 9/9/9
f 7/7/7 10/10/10 8/8/8
f 11/11/11 12/12/12 13/13/13
f 11/11/11 8/8/8 12/12/12
f 12/12/12 14/14/14 3/3/3
f 1/1/1 6/6/6 5/5/5
f 1/1/1 3/3/3 6/6/6
f 15/15/15 4/4/4 16/16/16
f 16/16/16 6/6/6 17/17/17
f 16/16/16 4/4/4 6/6/6
f 3/3/3 18/18/18 6/6/6
f 2/2/2 12/12/12 3/3/3
f 2/2/2 13/13/13 12/12/12
f 8/8/8 19/19/19 12/12/12
f 20/20/20 8/8/8 11/11/11
f 17/17/17 6/6/6 21/21/21
f 22/22/22 8/8/8 20/20/20
f 22/22/22 9/9/9 8/8/8
f 23/23/23 24/24/24 25/25/25
f 23/23/23 26/26/26 24/24/24
f 10/10/10 23/23/23 8/8/8
f 10/10/10 26/26/26 23/23/23
f 23/23/23 19/19/19 8/8/8
f 19/19/19 23/23/23 27/27/27
f 28/28/28 25/25/25 24/24/24
f 25/25/25 27/27/27 23/23/23
f 25/25/25 29/29/29 27/27/27
f 14/14/14 19/19/19 27/27/27
f 30/30/30 31/31/31 32/32/32
f 32/32/32 33/33/33 34/34/34
f 32/32/32 31/31/31 33/33/33
f 28/28/28 33/33/33 25/25/25
f 28/28/28 34/34/34 33/33/33
f 35/35/35 29/29/29 36/36/36
f 31/31/31 29/29/29 33/33/33
f 31/31/31 36/36/36 29/29/29
f 29/29/29 37/37/37 38/38/38
f 29/29/29 35/35/35 37/37/37
f 25/25/25 33/33/33 29/29/29
f 39/39/39 27/27/27 29/29/29
f 29/29/29 38/38/38 39/39/39
f 14/14/14 39/39/39 18/18/18
f 18/18/18 39/39/39 40/40/40
f 18/18/18 21/21/21 6/6/6
f 18/18/18 41/41/41 21/21/21
f 41/41/41 18/18/18 42/42/42
f 3/3/3 14/14/14 18/18/18
f 43/43/43 38/38/38 44/44/44
f 43/43/43 40/40/40 38/38/38
f 38/38/38 40/40/40 39/39/39
f 43/43/43 45/45/45 40/40/40
f 42/42/42 40/40/40 45/45/45
f 42/42/42 18/18/18 40/40/40
f 46/46/46 38/38/38 47/47/47
f 46/46/46 48/48/48 38/38/38
f 48/48/48 44/44/44 38/38/38
f 37/37/37 49/49/49 38/38/38
f 47/47/47 38/38/38 49/49/49
f 27/27/27 39/39/39 14/14/14
f 12/12/12 19/19/19 14/14/14
