mtllib m033201.mtl
usemtl material0
v -421.90286302566528 6.4492959976196289 192
v -428.54376220703125 6.185272216796875 192
v -421.5677490234375 7.298306941986084 198.26768493652344
v -437.907470703125 5.4412531852722168 192
v -445.44271850585938 5.3234829902648926 192
v -437.52859497070312 6.1055631637573242 199.1142578125
v -448 5.67368221282959 210.75213623046875
v -448 5.3985681533813477 199.66943359375
v -448 5.2295632362365723 194.530029296875
v -448 5.1463661193847656 192
v -448 6.07942008972168 215.66680908203125
v -436.67947387695312 7.5352840423583984 215.06446838378906
v -448 7.8323249816894531 231.66084289550781
v -448 8.38528823852539 244.53982543945313
v -435.83236694335938 8.5425739288330078 231.01609802246094
v -448 8.166102409362793 247.65931701660156
v -443.11599731445312 7.0513558387756348 256
v -434.99569702148438 7.3667211532592773 246.97509765625
v -448 7.8596310615539551 250.89425659179688
v -448 7.3759231567382812 256
v -448 7.5919880867004395 227.6470639705658
v -420.72012281417847 8.4126043319702148 214.21896362304688
v -405.61309814453125 7.1955881118774414 197.42549133300781
v -415.92962600290775 6.7651309967041016 192
v -405.90176391601562 6.7446260452270508 192
v -400.73223876953125 6.9247879981994629 192
v -404.76299953460693 8.82501220703125 213.37503147125244
v -389.65826416015625 7.1352729797363281 196.58316040039063
v -403.92874145507812 7.1502199172973633 229.33570909500122
v -419.88107299804688 7.7363290786743164 230.17627000808716
v -419.04690599441528 6.0448598861694336 246.13700866699219
v -403.09463500976562 5.4455671310424805 245.29647827148438
v -418.53100609779358 5.0810022354125977 256
v -424.979248046875 5.647000789642334 256
v -388.8074951171875 8.8994607925415039 212.5322265625
v -389.90133666992188 6.9117660522460938 192
v -385.53497314453125 7.017632007598877 192
v -384 9.0141077041625977 207.18902587890625
v -384 7.8882608413696289 196.28201293945313
v -384 7.234379768371582 192
v -384 7.3082780838012695 192.48393249511719
v -384 8.6117992401123047 212.27926635742188
v -387.97518920898438 6.824772834777832 228.49426317214966
v -387.14065551757812 5.2055678367614746 244.45475769042969
v -384 6.63864278793335 228.2849268913269
v -384 5.3867950439453125 240.96434020996094
v -386.53753662109375 3.9286689758300781 256
v -391.20986938476562 4.0259528160095215 256
v -384 7.1193361282348633 224.07653799653053
v -384 5.1188931465148926 244.28916931152344
v -384 4.9555840492248535 246.63873291015625
v -384 4.9108281135559082 247.28263854980469
v -402.53375244140625 4.6064658164978027 256
v -408.09454298019409 4.8377041816711426 256
v -434.5242919921875 6.3544960021972656 256
v -384 3.9439499378204346 256
vt 0.39605399966239929 0.019994020462036133
vt 0.2959119975566864 0.022903978824615479
vt 0.40437600016593933 0.11510699987411499
vt 0.15436099469661713 0.026396989822387695
vt 0.04081299901008606 0.029852986335754395
vt 0.16350199282169342 0.13386797904968262
vt 0.00977499969303608 0.31303799152374268
vt 0.00558099988847971 0.14652198553085327
vt 0.0033060000278055668 0.069042026996612549
vt 0.0021860001143068075 0.030900001525878906
vt 0.01208799984306097 0.38733798265457153
vt 0.18391799926757813 0.37474197149276733
vt 0.020635999739170074 0.62982401251792908
vt 0.026348000392317772 0.82405699789524078
vt 0.20387199521064758 0.61518800258636475
vt 0.027955999597907066 0.87144699692726135
vt 0.10584399849176407 0.99571900023147464
vt 0.22400900721549988 0.85589699447155
vt 0.0295570008456707 0.920403003692627
vt 0.032085001468658447 0.99766999995335937
vt 0.018791999667882919 0.56923899054527283
vt 0.42443400621414185 0.3556479811668396
vt 0.644324004650116 0.094392001628875732
vt 0.48618701100349426 0.017531991004943848
vt 0.63726502656936646 0.012513995170593262
vt 0.71520298719406128 0.010160982608795166
vt 0.66457897424697876 0.33590000867843628
vt 0.884289026260376 0.07386702299118042
vt 0.68363398313522339 0.57738900184631348
vt 0.44419199228286743 0.59592598676681519
vt 0.46486100554466248 0.83731000125408173
vt 0.70503497123718262 0.8177579939365387
vt 0.47752898931503296 0.98635900020599365
vt 0.37998300790786743 0.98874600045382977
vt 0.90457600355148315 0.31562697887420654
vt 0.87838298082351685 0.0048530101776123047
vt 0.94418901205062866 0.0027930140495300293
vt 0.97527897357940674 0.23351001739501953
vt 0.97042697668075562 0.068295001983642578
vt 0.96755200624465942 0.0023300051689147949
vt 0.96785402297973633 0.0097029805183410645
vt 0.97709101438522339 0.31045901775360107
vt 0.92375200986862183 0.5583760142326355
vt 0.94508600234985352 0.798116996884346
vt 0.98366200923919678 0.55397999286651611
vt 0.99063998460769653 0.74387699365615845
vt 0.95958101749420166 0.97284800000488758
vt 0.88946598768234253 0.97450800053775311
vt 0.98198002576828 0.49015200138092041
vt 0.99234402179718018 0.79412999749183655
vt 0.99343502521514893 0.82976700365543365
vt 0.99373000860214233 0.839491993188858
vt 0.71861100196838379 0.97924900054931641
vt 0.63481801748275757 0.981556000187993
vt 0.23574000597000122 0.99247300019487739
vt 0.99781399965286255 0.97164100036025047
vn -0.045618001371622086 0.99023997783660889 -0.13169699907302856
vn -0.069702997803688049 0.99267297983169556 -0.098701000213623047
vn -0.037542998790740967 0.995166003704071 -0.090749002993106842
vn -0.046094998717308044 0.9948350191116333 -0.090439997613430023
vn -0.056609999388456345 0.99730497598648071 -0.046659998595714569
vn -0.075148001313209534 0.99454599618911743 -0.072324998676776886
vn -0.1167759969830513 0.99080699682235718 -0.068302996456623077
vn -0.068847000598907471 0.997215986251831 -0.028643000870943069
vn -0.069057002663612366 0.99707400798797607 -0.032788001000881195
vn -0.069057002663612366 0.99707400798797607 -0.032788001000881195
vn -0.13228000700473785 0.98580300807952881 -0.1034109964966774
vn -0.088806003332138062 0.99304002523422241 -0.077365003526210785
vn -0.060888998210430145 0.99684202671051025 -0.050972998142242432
vn 0.0356610007584095 0.99840801954269409 0.043696999549865723
vn -0.0019470000406727195 0.9999920129776001 0.0035850000567734241
vn 0.065465003252029419 0.99444699287414551 0.082396000623703
vn 0.069875001907348633 0.99277299642562866 0.0975629985332489
vn 0.072291001677513123 0.99340599775314331 0.088991999626159668
vn 0.066014997661113739 0.99337100982666016 0.094109997153282166
vn 0.066013999283313751 0.99337100982666016 0.094109997153282166
vn -0.078267998993396759 0.99411499500274658 -0.074896998703479767
vn -0.016496000811457634 0.99961799383163452 -0.022181000560522079
vn -0.0076089999638497829 0.99647200107574463 -0.083572998642921448
vn -0.012581000104546547 0.99530297517776489 -0.095985002815723419
vn -0.01570500060915947 0.99650901556015015 -0.0819929987192154
vn -0.008410000242292881 0.99831598997116089 -0.057394001632928848
vn -0.014128999784588814 0.99989998340606689 0.0010659999679774046
vn -0.055757999420166016 0.99447697401046753 -0.088921003043651581
vn 0.022901000455021858 0.99479001760482788 0.099336996674537659
vn 0.051047999411821365 0.99643701314926147 0.0671439990401268
vn 0.062321998178958893 0.99346601963043213 0.095611996948719025
vn 0.035767998546361923 0.9949679970741272 0.093585997819900513
vn 0.053993001580238342 0.99407702684402466 0.094322003424167633
vn 0.0839100033044815 0.99185097217559814 0.095871001482009888
vn 0.0080249998718500137 0.99951797723770142 0.030006000772118568
vn -0.01107299979776144 0.9987800121307373 -0.048119999468326569
vn -0.10792499780654907 0.98659300804138184 -0.12241999804973602
vn -0.090236000716686249 0.99412000179290771 -0.05985800176858902
vn -0.13745599985122681 0.982437014579773 -0.12618899345397949
vn -0.13824799656867981 0.979049026966095 -0.14950500428676605
vn -0.13824699819087982 0.979049026966095 -0.14950500428676605
vn 0.064731001853942871 0.99274998903274536 0.10127799957990646
vn 0.0402120016515255 0.992913007736206 0.11183200031518936
vn 0.023826999589800835 0.9950060248374939 0.0969260036945343
vn 0.052074998617172241 0.99300599098205566 0.10595700144767761
vn 0.04704599827528 0.99446302652359009 0.093965999782085419
vn 0.0069070002064108849 0.99395501613616943 0.10956999659538269
vn 0.027780000120401382 0.99449300765991211 0.10105500370264053
vn 0.062698997557163239 0.99049097299575806 0.12246199697256088
vn 0.031458999961614609 0.99668997526168823 0.074968002736568451
vn 0.031171999871730804 0.997107982635498 0.069305002689361572
vn 0.0038980001118034124 0.99504202604293823 0.099380999803543091
vn 0.046411000192165375 0.99605298042297363 0.075654000043869019
vn 0.037172000855207443 0.996051013469696 0.080632001161575317
vn 0.076803997159004211 0.99127000570297241 0.10716799646615982
vn -0.0059850001707673073 0.99388700723648071 0.11023599654436111
f 1/1/1 2/2/2 3/3/3
f 4/4/4 5/5/5 6/6/6
f 7/7/7 6/6/6 8/8/8
f 5/5/5 8/8/8 6/6/6
f 5/5/5 9/9/9 8/8/8
f 9/9/9 5/5/5 10/10/10
f 6/6/6 11/11/11 12/12/12
f 6/6/6 7/7/7 11/11/11
f 13/13/13 14/14/14 15/15/15
f 16/16/16 17/17/17 18/18/18
f 16/16/16 19/19/19 17/17/17
f 19/19/19 20/20/20 17/17/17
f 21/21/21 12/12/12 11/11/11
f 3/3/3 6/6/6 12/12/12
f 13/13/13 12/12/12 21/21/21
f 13/13/13 15/15/15 12/12/12
f 15/15/15 22/22/22 12/12/12
f 3/3/3 22/22/22 23/23/23
f 23/23/23 24/24/24 3/3/3
f 23/23/23 25/25/25 24/24/24
f 25/25/25 23/23/23 26/26/26
f 23/23/23 27/27/27 28/28/28
f 27/27/27 23/23/23 22/22/22
f 2/2/2 6/6/6 3/3/3
f 2/2/2 4/4/4 6/6/6
f 27/27/27 22/22/22 29/29/29
f 16/16/16 15/15/15 14/14/14
f 16/16/16 18/18/18 15/15/15
f 15/15/15 18/18/18 30/30/30
f 29/29/29 30/30/30 31/31/31
f 30/30/30 29/29/29 22/22/22
f 29/29/29 31/31/31 32/32/32
f 31/31/31 30/30/30 18/18/18
f 22/22/22 15/15/15 30/30/30
f 33/33/33 18/18/18 34/34/34
f 33/33/33 31/31/31 18/18/18
f 35/35/35 27/27/27 29/29/29
f 12/12/12 22/22/22 3/3/3
f 27/27/27 35/35/35 28/28/28
f 36/36/36 28/28/28 37/37/37
f 38/38/38 28/28/28 35/35/35
f 38/38/38 39/39/39 28/28/28
f 40/40/40 37/37/37 41/41/41
f 41/41/41 28/28/28 39/39/39
f 41/41/41 37/37/37 28/28/28
f 38/38/38 35/35/35 42/42/42
f 29/29/29 43/43/43 35/35/35
f 43/43/43 32/32/32 44/44/44
f 43/43/43 29/29/29 32/32/32
f 45/45/45 44/44/44 46/46/46
f 45/45/45 43/43/43 44/44/44
f 47/47/47 32/32/32 48/48/48
f 47/47/47 44/44/44 32/32/32
f 45/45/45 49/49/49 43/43/43
f 50/50/50 46/46/46 44/44/44
f 49/49/49 35/35/35 43/43/43
f 49/49/49 42/42/42 35/35/35
f 51/51/51 44/44/44 52/52/52
f 51/51/51 50/50/50 44/44/44
f 26/26/26 28/28/28 36/36/36
f 26/26/26 23/23/23 28/28/28
f 53/53/53 31/31/31 54/54/54
f 53/53/53 32/32/32 31/31/31
f 34/34/34 18/18/18 55/55/55
f 47/47/47 52/52/52 44/44/44
f 47/47/47 56/56/56 52/52/52
f 48/48/48 32/32/32 53/53/53
f 54/54/54 31/31/31 33/33/33
f 55/55/55 18/18/18 17/17/17
f 1/1/1 3/3/3 24/24/24
