mtllib m033333202.mtl
usemtl material0
v -63.221663951873779 2.7225689888000488 16
v -64 2.7635018825531006 16.989491939544678
v -63.149924993515015 2.7099061012268066 17.360158920288086
v -64 2.7695629596710205 16
v -60.026588000357151 2.6858980655670166 16
v -61.222061038017273 2.6541550159454346 16
v -61.155907034873962 2.6338670253753662 17.255101919174194
v -56 2.8070559501647949 16
v -56.215137004852295 2.7999329566955566 16
v -56 2.7909369468688965 16.193628072738647
v -57.221541881561279 2.7754499912261963 16
v -58.327361941337585 2.71158504486084 16
v -57.166798114776611 2.7000420093536377 17.044239044189453
v -62.550395965576172 2.696713924407959 16
v -61.050686001777649 2.6201798915863037 19.249526977539062
v -59.161480009555817 2.6403439044952393 17.149760961532593
v -59.221943020820618 2.6867918968200684 16
v -56 2.7329630851745605 16.982518911361694
v -59.056400001049042 2.598336935043335 19.144285023212433
v -64 2.7572050094604492 17.842792987823486
v -56 2.6908791065216064 18.094066977500916
v -57.061882019042969 2.6248331069946289 19.038875997066498
v -63.044661998748779 2.7050080299377441 19.354555010795593
v -64 2.7673089504241943 20.886484026908875
v -62.939346075057983 2.7118270397186279 21.348909020423889
v -64 2.7579340934753418 19.404834985733032
v -60.9454540014267 2.6099100112915039 21.243939995765686
v -58.951156973838806 2.590507984161377 21.138689041137695
v -60.840034008026123 2.636746883392334 23.238225936889648
v -64 2.7645719051361084 21.95110297203064
v -64 2.8102090358734131 24
v -62.799129009246826 2.7634708881378174 24
v -64 2.8056900501251221 23.866640090942383
v -62.833908081054688 2.7425711154937744 23.34318208694458
v -64 2.7900359630584717 23.40460991859436
v -60.799674987792969 2.6656510829925537 24
v -61.52529501914978 2.6981790065765381 24
v -59.625750988721848 2.6477200984954834 24
v -58.845813989639282 2.6022090911865234 23.133028030395508
v -56 2.64780592918396 19.970068000257015
v -56.956660985946655 2.61114501953125 21.033300042152405
v -56 2.6560928821563721 18.982699990272522
v -56 2.6355609893798828 20.982703983783722
v -56.851406097412109 2.6052680015563965 23.027698993682861
v -58.799942016601562 2.6225790977478027 24
v -57.726154088974 2.6255500316619873 24
v -56 2.630856990814209 22.081434011459351
v -56 2.6169939041137695 22.982702016830444
v -56.799942016601562 2.6316840648651123 24
v -56 2.6396610736846924 23.431179046630859
v -56 2.6579620838165283 23.7932870388031
v -56 2.66314697265625 24
vt 0 0.097292006015777588
vt 0.12368699908256531 0
vt 0.17001999914646149 0.10625898838043213
vt 0 0
vt 0 0.49667602777481079
vt 0 0.34724199771881104
vt 0.15688799321651459 0.35551202297210693
vt 0 1
vt 0 0.97310799919068813
vt 0.02420400083065033 1
vt 0 0.8473069965839386
vt 0 0.70908001065254211
vt 0.13052999973297119 0.85414999723434448
vt 0 0.18120098114013672
vt 0.40619099140167236 0.368664026260376
vt 0.14372000098228455 0.60481500625610352
vt 0 0.597256988286972
vt 0.12281499803066254 1
vt 0.39303600788116455 0.61794999241828918
vt 0.23034900426864624 0
vt 0.26175799965858459 1
vt 0.37985900044441223 0.8672650009393692
vt 0.41931900382041931 0.11941701173782349
vt 0.61081099510192871 0
vt 0.6686139702796936 0.13258200883865356
vt 0.425603985786438 0
vt 0.65549302101135254 0.38181799650192261
vt 0.64233601093292236 0.63110500574111938
vt 0.904778003692627 0.39499598741531372
vt 0.74388802051544189 0
vt 1 0
vt 1 0.15010899305343628
vt 0.98333001136779785 0
vt 0.91789799928665161 0.14576101303100586
vt 0.92557597160339355 0
vt 1 0.40004098415374756
vt 1 0.30933797359466553
vt 1 0.54678100347518921
vt 0.89162898063659668 0.64427301287651062
vt 0.49625799059867859 1
vt 0.62916302680969238 0.88041699677705765
vt 0.37283799052238464 1
vt 0.622838020324707 1
vt 0.878462016582489 0.89357399940490723
vt 1 0.65000700950622559
vt 1 0.78423100709915161
vt 0.76017898321151733 1
vt 0.872838020324707 1
vt 1 0.900007002055645
vt 0.92889702320098877 1
vt 0.97416102886199951 1
vt 1 1
vn 0.053204998373985291 0.99856299161911011 0.006490000057965517
vn 0.0601160004734993 0.998170018196106 0.0064599998295307159
vn 0.044100001454353333 0.999019980430603 0.0037950000260025263
vn 0.060267001390457153 0.99816399812698364 0.0061139999888837337
vn -0.0090420003980398178 0.999405026435852 0.033295001834630966
vn 0.0042849997989833355 0.99986398220062256 0.015936000272631645
vn 0.014999999664723873 0.99978101253509521 0.01462399959564209
vn -0.032976999878883362 0.99601101875305176 0.08291500061750412
vn -0.024497000500559807 0.99699199199676514 0.073537997901439667
vn -0.024520000442862511 0.99698901176452637 0.073563002049922943
vn -0.041675001382827759 0.99637699127197266 0.074137002229690552
vn -0.03554999828338623 0.9980890154838562 0.050542999058961868
vn -0.029513999819755554 0.99837601184844971 0.048719000071287155
vn 0.03642600029706955 0.99929100275039673 0.00956599973142147
vn 0.029531000182032585 0.99956101179122925 0.0022950000129640102
vn -0.014109999872744083 0.99938201904296875 0.032207001000642776
vn -0.01510199997574091 0.99903899431228638 0.041152998805046082
vn -0.025387000292539597 0.9982950091362 0.052560001611709595
vn -0.00098000001162290573 0.99993401765823364 0.011417999863624573
vn 0.056102998554706573 0.99842500686645508 0.0009679999784566462
vn -0.027000999078154564 0.99888497591018677 0.038727998733520508
vn -0.019228000193834305 0.99961799383163452 0.0198340006172657
vn 0.048204001039266586 0.99883300065994263 -0.0030749998986721039
vn 0.054037999361753464 0.99852997064590454 -0.0041419998742640018
vn 0.048677999526262283 0.99877101182937622 -0.0092660002410411835
vn 0.055140998214483261 0.99847298860549927 -0.0033150000963360071
vn 0.02747499942779541 0.99960500001907349 -0.0059449998661875725
vn -0.00064400001429021358 0.99999797344207764 0.0016159999649971724
vn 0.03773299977183342 0.99903100728988647 -0.022670000791549683
vn 0.042314998805522919 0.999019980430603 -0.012972000055015087
vn 0.038869000971317291 0.99867099523544312 -0.033840999007225037
vn 0.0475660003721714 0.99827998876571655 -0.034283999353647232
vn 0.038867998868227005 0.99867099523544312 -0.0338359996676445
vn 0.045735999941825867 0.99871301651000977 -0.021928999572992325
vn 0.039533000439405441 0.99898797273635864 -0.02144400030374527
vn 0.026534000411629677 0.99887502193450928 -0.039305999875068665
vn 0.0488319993019104 0.99813699722290039 -0.036566000431776047
vn 0.018594000488519669 0.999189019203186 -0.03572399914264679
vn 0.0079169999808073044 0.99985998868942261 -0.01474200002849102
vn -0.027994999662041664 0.9995650053024292 0.0092770000919699669
vn -0.017006000503897667 0.99983698129653931 0.0060959998518228531
vn -0.02820499986410141 0.99933898448944092 0.022944999858736992
vn -0.025088999420404434 0.99965298175811768 0.0080249998718500137
vn -0.010610999539494515 0.99991500377655029 -0.0075530000030994415
vn 0.011667000129818916 0.99964100122451782 -0.024103999137878418
vn -0.0037100000772625208 0.99970000982284546 -0.024190999567508698
vn -0.022671999409794807 0.9997209906578064 0.0066349999979138374
vn -0.014115000143647194 0.999879002571106 -0.0065219998359680176
vn -0.023432999849319458 0.99939000606536865 -0.025910999625921249
vn -0.0164209995418787 0.99859100580215454 -0.050469998270273209
vn -0.033705998212099075 0.99894201755523682 -0.03127099946141243
vn -0.039289001375436783 0.99891400337219238 -0.025055000558495522
f 1/1/1 2/2/2 3/3/3
f 1/1/1 4/4/4 2/2/2
f 5/5/5 6/6/6 7/7/7
f 8/8/8 9/9/9 10/10/10
f 11/11/11 12/12/12 13/13/13
f 6/6/6 14/14/14 7/7/7
f 14/14/14 3/3/3 7/7/7
f 14/14/14 1/1/1 3/3/3
f 7/7/7 3/3/3 15/15/15
f 12/12/12 16/16/16 13/13/13
f 12/12/12 17/17/17 16/16/16
f 10/10/10 13/13/13 18/18/18
f 10/10/10 9/9/9 13/13/13
f 9/9/9 11/11/11 13/13/13
f 16/16/16 7/7/7 19/19/19
f 16/16/16 5/5/5 7/7/7
f 16/16/16 17/17/17 5/5/5
f 2/2/2 20/20/20 3/3/3
f 18/18/18 13/13/13 21/21/21
f 22/22/22 13/13/13 16/16/16
f 23/23/23 24/24/24 25/25/25
f 23/23/23 26/26/26 24/24/24
f 20/20/20 23/23/23 3/3/3
f 20/20/20 26/26/26 23/23/23
f 15/15/15 25/25/25 27/27/27
f 25/25/25 15/15/15 23/23/23
f 15/15/15 27/27/27 28/28/28
f 27/27/27 25/25/25 29/29/29
f 3/3/3 23/23/23 15/15/15
f 30/30/30 25/25/25 24/24/24
f 31/31/31 32/32/32 33/33/33
f 33/33/33 34/34/34 35/35/35
f 33/33/33 32/32/32 34/34/34
f 30/30/30 34/34/34 25/25/25
f 30/30/30 35/35/35 34/34/34
f 36/36/36 29/29/29 37/37/37
f 32/32/32 29/29/29 34/34/34
f 32/32/32 37/37/37 29/29/29
f 29/29/29 38/38/38 39/39/39
f 29/29/29 36/36/36 38/38/38
f 25/25/25 34/34/34 29/29/29
f 39/39/39 27/27/27 29/29/29
f 28/28/28 19/19/19 15/15/15
f 19/19/19 28/28/28 22/22/22
f 40/40/40 22/22/22 41/41/41
f 40/40/40 42/42/42 22/22/22
f 22/22/22 21/21/21 13/13/13
f 22/22/22 42/42/42 21/21/21
f 40/40/40 41/41/41 43/43/43
f 41/41/41 22/22/22 28/28/28
f 16/16/16 19/19/19 22/22/22
f 41/41/41 28/28/28 44/44/44
f 45/45/45 39/39/39 38/38/38
f 39/39/39 46/46/46 44/44/44
f 39/39/39 45/45/45 46/46/46
f 47/47/47 44/44/44 48/48/48
f 39/39/39 44/44/44 28/28/28
f 49/49/49 44/44/44 46/46/46
f 47/47/47 41/41/41 44/44/44
f 47/47/47 43/43/43 41/41/41
f 48/48/48 44/44/44 50/50/50
f 50/50/50 44/44/44 51/51/51
f 39/39/39 28/28/28 27/27/27
f 7/7/7 15/15/15 19/19/19
f 49/49/49 51/51/51 44/44/44
f 49/49/49 52/52/52 51/51/51
