mtllib m033000.mtl
usemtl material0
v -488.41189575195312 1.2760410308837891 448
v -510.31710815429688 3.4862010478973389 448
v -487.89727783203125 0.91021299362182617 457.78195190429688
v -512 3.6999039649963379 475.04568481445312
v -512 3.701045036315918 471.465576171875
v -487.05548095703125 0.8075060248374939 473.73727416992188
v -471.94961452484131 -0.64327800273895264 456.94454956054688
v -486.21621704101562 0.177388995885849 489.6943359375
v -471.10763454437256 -0.70985198020935059 472.89975023269653
v -512 3.5868051052093506 478.44229102134705
v -512 3.6824569702148438 450.52679443359375
v -512 3.6802139282226562 448
v -512 1.664605975151062 504.333251953125
v -479.09789997339249 0.086694002151489258 448
v -455.99697875976562 -1.1621919870376587 456.10372924804688
v -470.26647853851318 -0.94886302947998047 488.85552978515625
v -455.15530395507812 -1.2898010015487671 472.05914306640625
v -463.90252685546875 -0.85820198059082031 448
v -456.42449951171875 -1.1036180257797241 448
v -448.70559692382812 -0.92446798086166382 448
v -448 -1.0456860065460205 455.68109130859375
v -448 -1.1193410158157349 464.10650634765625
v -472.42141723632812 -0.56493997573852539 448
v -454.31259155273438 -1.2011799812316895 488.01382446289062
v -469.42294311523438 -0.68209701776504517 504.80963134765625
v -448 -1.2641619443893433 471.68121337890625
v -448 -1.1326600313186646 478.49551403522491
v -448 -0.92489701509475708 448.59124755859375
v -448 -0.91482400894165039 448
v -485.04220581054688 -0.54095500707626343 512
v -512 1.5916919708251953 509.62905883789062
v -506.56295776367188 1.2029370069503784 512
v -512 1.5581179857254028 508.09307861328125
v -485.37789916992188 -0.65250700712203979 505.65206909179688
v -512 1.5353460311889648 507.05123901367188
v -475.89190721511841 -0.54941099882125854 512
v -512 1.6192489862442017 512
v -460.69503784179688 -0.65525001287460327 512
v -453.46823120117188 -0.76498401165008545 503.96737670898438
v -469.04302978515625 -0.616038978099823 512
v -448 -1.090283989906311 487.68014478683472
v -448 -0.82138997316360474 497.88946533203125
v -448 -0.52421200275421143 503.67788696289062
v -448 -0.27763599157333374 509.47763061523438
v -453.04238891601562 -0.40376898646354675 512
v -448 -0.17039799690246582 512
vt 0.35808798670768738 0.020739972591400146
vt 0.026031000539660454 0.031122028827667236
vt 0.37097901105880737 0.16808998584747315
vt 0.013110999949276447 0.43982797861099243
vt 0.01143299974501133 0.38583201169967651
vt 0.39121299982070923 0.40833801031112671
vt 0.61225497722625732 0.14798098802566528
vt 0.41217398643493652 0.64873200654983521
vt 0.63243997097015381 0.38822901248931885
vt 0.014899999834597111 0.49107897281646729
vt 0.0016599999507889152 0.070025026798248291
vt 0.00048099999548867345 0.031915009021759033
vt 0.030205000191926956 0.88253899663686752
vt 0.49970799684524536 0.016429007053375244
vt 0.85258698463439941 0.12776702642440796
vt 0.65293097496032715 0.62848401069641113
vt 0.8728020191192627 0.36805599927902222
vt 0.7294430136680603 0.009275972843170166
vt 0.84228897094726562 0.0057449936866760254
vt 0.95873701572418213 0.0020560026168823242
vt 0.97301399707794189 0.1176450252532959
vt 0.97698301076889038 0.24472397565841675
vt 0.60088300704956055 0.013297021389007568
vt 0.89317697286605835 0.6081869900226593
vt 0.67292201519012451 0.8687639981508255
vt 0.980542004108429 0.35898900032043457
vt 0.98382198810577393 0.46160298585891724
vt 0.9696660041809082 0.010698974132537842
vt 0.96941399574279785 0.0017799735069274902
vt 0.44089001417160034 0.98489599954336882
vt 0.03292199969291687 0.96245900169014931
vt 0.11629100143909454 0.99555000010877848
vt 0.0322129987180233 0.93928699940443039
vt 0.43270999193191528 0.88930899649858475
vt 0.031723000109195709 0.92356999963521957
vt 0.57889097929000854 0.980401000007987
vt 0.034051999449729919 0.99821999995037913
vt 0.80789601802825928 0.9731649998575449
vt 0.9131699800491333 0.84865200519561768
vt 0.682187020778656 0.97702400013804436
vt 0.98823797702789307 0.6001259982585907
vt 0.99285697937011719 0.75446799397468567
vt 0.995602011680603 0.84188500046730042
vt 0.99833101034164429 0.92942100018262863
vt 0.9233819842338562 0.96972399950027466
vt 0.9995189905166626 0.96749899908900261
vn 0.11300999671220779 0.99310398101806641 0.031194999814033508
vn 0.11268600076436997 0.9936249852180481 0.0033899999689310789
vn 0.10714200139045715 0.99419200420379639 0.010142999701201916
vn 0.11605499684810638 0.99309402704238892 0.017209000885486603
vn 0.11497200280427933 0.99336898326873779 -8.70000003487803E-05
vn 0.10611099749803543 0.99421000480651855 0.016955999657511711
vn 0.064836002886295319 0.99789100885391235 0.0031210000161081553
vn 0.080315999686717987 0.99616599082946777 0.034673001617193222
vn 0.06254500150680542 0.99799400568008423 0.0097890002653002739
vn 0.11032100021839142 0.99273598194122314 0.048004999756813049
vn 0.11452700197696686 0.99342000484466553 -0.00088200002210214734
vn 0.11452700197696686 0.99342000484466553 -0.00088200002210214734
vn 0.089282996952533722 0.99441802501678467 0.056228999048471451
vn 0.10500100255012512 0.99441397190093994 0.010737000033259392
vn 0.0087299998849630356 0.9999309778213501 0.0078099998645484447
vn 0.045387998223304749 0.99895197153091431 -0.0058349999599158764
vn 0.010839999653398991 0.99993699789047241 0.0028399999719113111
vn 0.03322799876332283 0.99943101406097412 0.0058789998292922974
vn 0.0057410001754760742 0.99996000528335571 0.0069249998778104782
vn -0.01620900072157383 0.9997599720954895 0.01474399957805872
vn -0.013877999968826771 0.99981898069381714 0.013027000240981579
vn -0.011416000314056873 0.99987298250198364 0.01116000022739172
vn 0.0668649971485138 0.99774801731109619 0.0052109998650848866
vn -0.0029909999575465918 0.99988400936126709 -0.014956999570131302
vn 0.014094999991357327 0.99987298250198364 -0.0074829999357461929
vn -0.0035540000535547733 0.99999397993087769 0.00055599998449906707
vn -0.014285000041127205 0.999862015247345 -0.00853000022470951
vn -0.013664999976754189 0.99976199865341187 0.01703299954533577
vn -0.013664999976754189 0.99976199865341187 0.01703299954533577
vn 0.039547000080347061 0.99902498722076416 -0.019647000357508659
vn 0.079120002686977386 0.99670201539993286 -0.01801300048828125
vn 0.080173999071121216 0.99657100439071655 -0.020450999960303307
vn 0.080748997628688812 0.99649602174758911 -0.021780999377369881
vn 0.042661000043153763 0.99897801876068115 0.014911999925971031
vn 0.082509003579616547 0.99652200937271118 0.011657999828457832
vn 0.0032730000093579292 0.99987399578094482 -0.01550699956715107
vn 0.076341003179550171 0.99701398611068726 -0.011589000001549721
vn -0.0053209997713565826 0.99981600046157837 -0.018445000052452087
vn -0.022330999374389648 0.999180018901825 -0.033769998699426651
vn 0.0071279997937381268 0.99992901086807251 -0.0095629999414086342
vn -0.018361000344157219 0.99971699714660645 -0.01510700024664402
vn -0.025415999814867973 0.99915999174118042 -0.032140001654624939
vn -0.046420998871326447 0.99781697988510132 -0.046966001391410828
vn -0.046190999448299408 0.99803102016448975 -0.042431000620126724
vn -0.039735998958349228 0.99829399585723877 -0.042785000056028366
vn -0.046190999448299408 0.99803102016448975 -0.042431000620126724
f 1/1/1 2/2/2 3/3/3
f 4/4/4 3/3/3 5/5/5
f 4/4/4 6/6/6 3/3/3
f 3/3/3 6/6/6 7/7/7
f 6/6/6 8/8/8 9/9/9
f 10/10/10 6/6/6 4/4/4
f 10/10/10 8/8/8 6/6/6
f 5/5/5 3/3/3 11/11/11
f 11/11/11 2/2/2 12/12/12
f 11/11/11 3/3/3 2/2/2
f 10/10/10 13/13/13 8/8/8
f 14/14/14 1/1/1 3/3/3
f 9/9/9 7/7/7 6/6/6
f 7/7/7 9/9/9 15/15/15
f 9/9/9 16/16/16 17/17/17
f 16/16/16 9/9/9 8/8/8
f 15/15/15 18/18/18 7/7/7
f 15/15/15 19/19/19 18/18/18
f 19/19/19 15/15/15 20/20/20
f 17/17/17 21/21/21 15/15/15
f 17/17/17 22/22/22 21/21/21
f 17/17/17 15/15/15 9/9/9
f 23/23/23 7/7/7 18/18/18
f 16/16/16 24/24/24 17/17/17
f 7/7/7 14/14/14 3/3/3
f 7/7/7 23/23/23 14/14/14
f 16/16/16 8/8/8 25/25/25
f 26/26/26 22/22/22 17/17/17
f 26/26/26 17/17/17 27/27/27
f 21/21/21 20/20/20 15/15/15
f 21/21/21 28/28/28 20/20/20
f 28/28/28 29/29/29 20/20/20
f 30/30/30 31/31/31 32/32/32
f 30/30/30 33/33/33 31/31/31
f 33/33/33 34/34/34 35/35/35
f 33/33/33 30/30/30 34/34/34
f 8/8/8 35/35/35 34/34/34
f 8/8/8 13/13/13 35/35/35
f 34/34/34 36/36/36 25/25/25
f 34/34/34 30/30/30 36/36/36
f 37/37/37 32/32/32 31/31/31
f 25/25/25 38/38/38 39/39/39
f 25/25/25 40/40/40 38/38/38
f 39/39/39 24/24/24 25/25/25
f 41/41/41 39/39/39 42/42/42
f 41/41/41 24/24/24 39/39/39
f 43/43/43 39/39/39 44/44/44
f 44/44/44 45/45/45 46/46/46
f 44/44/44 39/39/39 45/45/45
f 45/45/45 39/39/39 38/38/38
f 8/8/8 34/34/34 25/25/25
f 36/36/36 40/40/40 25/25/25
f 16/16/16 25/25/25 24/24/24
f 42/42/42 39/39/39 43/43/43
f 27/27/27 24/24/24 41/41/41
f 27/27/27 17/17/17 24/24/24
