mtllib m03333222.mtl
usemtl material0
v -128 4.0808429718017578 2.7375979423522949
v -127.9113621711731 4.0786828994750977 2.7762289047241211
v -128 3.9661390781402588 1.1079912185668945
v -122.55453491210938 3.7075109481811523 0
v -119.93518800288439 3.7917590141296387 2.3559417724609375
v -120.06036400049925 3.6339740753173828 0
v -118.33296203613281 3.5545580387115479 0
v -115.94737195968628 3.5938479900360107 2.1459870338439941
v -116.06138610839844 3.4509119987487793 0
v -126.77639007568359 3.8287050724029541 0
v -123.92359900474548 3.8690629005432129 2.5663127899169922
v -124.05976915359497 3.7323870658874512 0
v -114.11215209960938 3.3138680458068848 0
v -112 3.2510330677032471 1.1837577819824219
v -112.06287384033203 3.1759569644927979 0
v -112 3.2990460395812988 1.9004001617431641
v -123.71155500411987 4.171292781829834 6.55403196811676
v -128 3.8885130882263184 0
v -115.73593091964722 3.7720561027526855 6.1341309547424316
v -112 3.3017230033874512 1.9384660720825195
v -112 3.5615520477294922 5.6976540088653564
v -119.72365599870682 3.9899868965148926 6.34401798248291
v -112 3.1728889942169189 0.026545047760009766
v -112 3.1710960865020752 0
v -128 4.0847678184509277 2.8265519142150879
v -128 4.2124271392822266 6.7803620100021362
v -127.70021820068359 4.1968350410461426 6.7645800113677979
v -123.50031304359436 4.3084821701049805 10.542318105697632
v -112 3.5729150772094727 5.9374809265136719
v -119.51245099306107 4.1203398704528809 10.332329034805298
v -127.48887586593628 4.3545308113098145 10.752795934677124
v -128 4.3705840110778809 10.53001594543457
v -112 3.7323629856109619 9.4956250190734863
v -115.52445220947266 3.9585609436035156 10.122247934341431
v -123.28980994224548 4.2952780723571777 14.531122207641602
v -115.31289720535278 4.1597089767456055 14.110314846038818
v -112 3.754288911819458 9.93678104877472
v -112 3.9834020137786865 13.292971134185791
v -119.30189502239227 4.1169018745422363 14.321097850799561
v -128 4.5339069366455078 16
v -127.21096801757813 4.533775806427002 16
v -128 4.5300140380859375 15.91783618927002
v -127.27772521972656 4.4741377830505371 14.741144180297852
v -128 4.4760651588439941 14.779279232025147
v -128 4.3638029098510742 11.043000936508179
v -123.21215105056763 4.3184661865234375 16
v -125.87884521484375 4.4355249404907227 16
v -115.21324920654297 4.1391110420227051 16
v -117.43580603599548 4.1166019439697266 16
v -112 4.0171980857849121 13.9358229637146
v -112 4.0039658546447754 16
v -113.21342515945435 4.0565729141235352 16
v -112 4.0062880516052246 15.637710094451904
v -119.21324199438095 4.1205911636352539 16
v -121.65773797035217 4.2293457984924316 16
vt 0.17110000550746918 0
vt 0.1735139936208725 0.005540013313293457
vt 0.0692489966750145 0
vt 0 0.34034198522567749
vt 0.14724600315093994 0.504050999879837
vt 0 0.49622702598571777
vt 0 0.60418999195098877
vt 0.13412399590015411 0.75328899919986725
vt 0 0.746163010597229
vt 0 0.076475977897644043
vt 0.16039499640464783 0.25477498769760132
vt 0 0.24626398086547852
vt 0 0.86799000203609467
vt 0.073985002934932709 1
vt 0 0.99606999987736344
vt 0.11877500265836716 1
vt 0.40962699055671692 0.26802802085876465
vt 0 0
vt 0.38338300585746765 0.76650400459766388
vt 0.12115400284528732 1
vt 0.35610300302505493 1
vt 0.39650100469589233 0.51727199554443359
vt 0.0016589999431744218 1
vt 0 1
vt 0.1766590029001236 0
vt 0.42377299070358276 0
vt 0.42278599739074707 0.018736004829406738
vt 0.65889501571655273 0.28122997283935547
vt 0.37109300494194031 1
vt 0.64577102661132812 0.53047201037406921
vt 0.67204999923706055 0.031944990158081055
vt 0.65812599658966064 0
vt 0.59347701072692871 1
vt 0.63264000415802 0.77972200512886047
vt 0.90819501876831055 0.29438698291778564
vt 0.88189500570297241 0.792943999171257
vt 0.62104898691177368 1
vt 0.8308110237121582 1
vt 0.89506900310516357 0.54363200068473816
vt 1 0
vt 1 0.049314022064208984
vt 0.99486500024795532 0
vt 0.92132198810577393 0.045141994953155518
vt 0.923704981803894 0
vt 0.69018799066543579 0
vt 1 0.29924100637435913
vt 1 0.1325719952583313
vt 1 0.79917199909687042
vt 1 0.66026198863983154
vt 0.87098902463912964 1
vt 1 1
vt 1 0.92416100203990936
vt 0.97735697031021118 1
vt 1 0.54917201399803162
vt 1 0.39639097452163696
vn 0.054244000464677811 0.99615699052810669 -0.068763002753257751
vn 0.033629998564720154 0.997763991355896 -0.05775199830532074
vn 0.048944000154733658 0.99635797739028931 -0.069817997515201569
vn 0.024551000446081162 0.997713029384613 -0.0629739984869957
vn 0.035270001739263535 0.997855007648468 -0.055146001279354095
vn 0.036122001707553864 0.99698400497436523 -0.068690001964569092
vn 0.045722998678684235 0.99656301736831665 -0.069072999060153961
vn 0.056152001023292542 0.99664002656936646 -0.059627000242471695
vn 0.056795001029968262 0.99597400426864624 -0.069355003535747528
vn 0.044346999377012253 0.99690097570419312 -0.064974002540111542
vn 0.034745000302791595 0.99723601341247559 -0.065673999488353729
vn 0.022836999967694283 0.99825900793075562 -0.0543770007789135
vn 0.069237999618053436 0.99519801139831543 -0.069191001355648041
vn 0.067175999283790588 0.99550902843475342 -0.066705003380775452
vn 0.067290998995304108 0.99550098180770874 -0.066711001098155975
vn 0.069498002529144287 0.99515897035598755 -0.069480001926422119
vn 0.0312890000641346 0.99832397699356079 -0.048693001270294189
vn 0.048700999468564987 0.99637097120285034 -0.069806002080440521
vn 0.051176000386476517 0.99751198291778564 -0.048487000167369843
vn 0.070031002163887024 0.995169997215271 -0.068796999752521515
vn 0.0688759982585907 0.99533897638320923 -0.06749899685382843
vn 0.040642000734806061 0.99792498350143433 -0.049943998456001282
vn 0.076902002096176147 0.99477297067642212 -0.0671750009059906
vn 0.076907001435756683 0.99477201700210571 -0.06718900054693222
vn 0.050080999732017517 0.998216986656189 -0.032490000128746033
vn 0.0498649999499321 0.998000979423523 -0.038816001266241074
vn 0.0083609996363520622 0.99935400485992432 -0.034944001585245132
vn 0.027118999511003494 0.99946600198745728 -0.018232999369502068
vn 0.050751999020576477 0.9976469874382019 -0.046101000159978867
vn 0.033606000244617462 0.9990839958190918 -0.026500999927520752
vn 0.021266000345349312 0.99946999549865723 -0.02466299943625927
vn 0.0468050017952919 0.99827498197555542 -0.035450998693704605
vn 0.053194999694824219 0.99746102094650269 -0.047341998666524887
vn 0.046105001121759415 0.99767100811004639 -0.050262000411748886
vn 0.036708999425172806 0.99927800893783569 -0.009836999699473381
vn 0.022564999759197235 0.999517023563385 -0.021369000896811485
vn 0.054281000047922134 0.99635100364685059 -0.065867997705936432
vn 0.04622500017285347 0.99717599153518677 -0.059193998575210571
vn 0.021586000919342041 0.99976599216461182 0.0015040000434964895
vn 0.00016599999798927456 0.99887901544570923 -0.047327000647783279
vn 0.045274000614881516 0.99773901700973511 -0.049667999148368835
vn 0.00016599999798927456 0.99887901544570923 -0.047329999506473541
vn 0.038633000105619431 0.99880999326705933 -0.029766999185085297
vn 0.00094699999317526817 0.999468982219696 -0.032565999776124954
vn 0.0040449998341500759 0.99968397617340088 -0.0248160008341074
vn 0.04650299996137619 0.99875199794769287 -0.018224999308586121
vn 0.053743001073598862 0.99813097715377808 -0.029105000197887421
vn 0.0027620000764727592 0.99993801116943359 0.010754000395536423
vn -0.004629999864846468 0.99997502565383911 0.0053249998018145561
vn 0.042463000863790512 0.99905002117156982 -0.0097510004416108131
vn 0.043313000351190567 0.99904102087020874 0.0064050001092255116
vn 0.042020000517368317 0.99908602237701416 0.0078429998829960823
vn 0.043313000351190567 0.99904102087020874 0.0064039998687803745
vn 0.034981001168489456 0.99937999248504639 -0.0040429998189210892
vn 0.049419000744819641 0.998727023601532 -0.010080999694764614
f 1/1/1 2/2/2 3/3/3
f 4/4/4 5/5/5 6/6/6
f 7/7/7 8/8/8 9/9/9
f 10/10/10 11/11/11 12/12/12
f 13/13/13 14/14/14 15/15/15
f 13/13/13 16/16/16 14/14/14
f 17/17/17 11/11/11 2/2/2
f 10/10/10 2/2/2 11/11/11
f 10/10/10 3/3/3 2/2/2
f 10/10/10 18/18/18 3/3/3
f 19/19/19 8/8/8 5/5/5
f 7/7/7 5/5/5 8/8/8
f 7/7/7 6/6/6 5/5/5
f 16/16/16 8/8/8 20/20/20
f 16/16/16 13/13/13 8/8/8
f 13/13/13 9/9/9 8/8/8
f 21/21/21 20/20/20 8/8/8
f 5/5/5 12/12/12 11/11/11
f 5/5/5 4/4/4 12/12/12
f 22/22/22 5/5/5 11/11/11
f 23/23/23 15/15/15 14/14/14
f 23/23/23 24/24/24 15/15/15
f 1/1/1 25/25/25 2/2/2
f 26/26/26 2/2/2 25/25/25
f 26/26/26 27/27/27 2/2/2
f 17/17/17 2/2/2 27/27/27
f 27/27/27 28/28/28 17/17/17
f 19/19/19 5/5/5 22/22/22
f 29/29/29 8/8/8 19/19/19
f 29/29/29 21/21/21 8/8/8
f 17/17/17 30/30/30 22/22/22
f 17/17/17 22/22/22 11/11/11
f 26/26/26 31/31/31 27/27/27
f 26/26/26 32/32/32 31/31/31
f 29/29/29 19/19/19 33/33/33
f 19/19/19 22/22/22 34/34/34
f 31/31/31 35/35/35 28/28/28
f 28/28/28 30/30/30 17/17/17
f 30/30/30 36/36/36 34/34/34
f 34/34/34 33/33/33 19/19/19
f 34/34/34 37/37/37 33/33/33
f 37/37/37 34/34/34 38/38/38
f 22/22/22 30/30/30 34/34/34
f 28/28/28 39/39/39 30/30/30
f 40/40/40 41/41/41 42/42/42
f 42/42/42 43/43/43 44/44/44
f 42/42/42 41/41/41 43/43/43
f 31/31/31 44/44/44 43/43/43
f 31/31/31 45/45/45 44/44/44
f 31/31/31 43/43/43 35/35/35
f 46/46/46 43/43/43 47/47/47
f 46/46/46 35/35/35 43/43/43
f 48/48/48 39/39/39 49/49/49
f 48/48/48 36/36/36 39/39/39
f 30/30/30 39/39/39 36/36/36
f 38/38/38 36/36/36 50/50/50
f 38/38/38 34/34/34 36/36/36
f 51/51/51 36/36/36 52/52/52
f 51/51/51 53/53/53 36/36/36
f 53/53/53 50/50/50 36/36/36
f 39/39/39 28/28/28 35/35/35
f 54/54/54 35/35/35 55/55/55
f 54/54/54 39/39/39 35/35/35
f 27/27/27 31/31/31 28/28/28
f 47/47/47 43/43/43 41/41/41
f 55/55/55 35/35/35 46/46/46
f 49/49/49 39/39/39 54/54/54
f 52/52/52 36/36/36 48/48/48
f 32/32/32 45/45/45 31/31/31
