mtllib m03333223.mtl
usemtl material0
v -109.89190721511841 3.0081040859222412 0
v -107.972815990448 2.9763350486755371 1.726837158203125
v -108.06463623046875 2.8467240333557129 0
v -101.45101189613342 2.4434781074523926 0
v -99.997437000274658 2.5282330513000488 1.3071060180664063
v -100.06690192222595 2.4368500709533691 0
v -97.227584838867188 2.5033268928527832 0
v -96.008269786834717 2.6071488857269287 1.0961980819702148
v -96.0665512084961 2.5251400470733643 0
v -105.67246997356415 2.6097240447998047 0
v -103.98604600038379 2.5645449161529541 1.5176172256469727
v -104.0667039975524 2.4575150012969971 0
v -112 3.2990460395812988 1.9004001617431641
v -111.96003007888794 3.2987649440765381 1.9363651275634766
v -112 3.2510330677032471 1.1837577819824219
v -112 3.3017230033874512 1.9384660720825195
v -112 3.5615520477294922 5.6976540088653564
v -111.74818420410156 3.5594921112060547 5.9242260456085205
v -103.7734149992466 2.9864020347595215 5.5049231052398682
v -96 2.8216919898986816 4.901263952255249
v -96 2.6161110401153564 1.2519440650939941
v -96 2.6076290607452393 1.0931830406188965
v -96 2.6078100204467773 1.0957589149475098
v -96 2.5307109355926514 0
v -96 2.6083769798278809 1.1036257743835449
v -99.784873962402344 2.9359300136566162 5.29446005821228
v -112 3.1728889942169189 0.026545047760009766
v -112 3.1710960865020752 0
v -107.76099395751953 3.2321779727935791 5.7147150039672852
v -112 3.5729150772094727 5.9374809265136719
v -111.53679704666138 3.7274420261383057 9.9124059677124023
v -112 3.7323629856109619 9.4956250190734863
v -103.56135600805283 3.2915570735931396 9.4926309585571289
v -96 2.8416910171508789 5.0948920249938965
v -99.57281494140625 3.2415730953216553 9.2821660041809082
v -107.54948401451111 3.4260070323944092 9.7028059959411621
v -96 3.1508889198303223 8.6979939937591553
v -112 3.754288911819458 9.93678104877472
v -111.324951171875 3.9881589412689209 13.900268077850342
v -112 3.9834020137786865 13.292971134185791
v -103.34986901283264 3.4780569076538086 13.480747222900391
v -96 3.1814849376678467 9.0936880111694336
v -96 3.2551069259643555 12.496487140655518
v -99.3613510131836 3.4231901168823242 13.270299911499023
v -107.33791399002075 3.630573034286499 13.6908597946167
v -112 4.0171980857849121 13.9358229637146
v -112 4.0039658546447754 16
v -111.21419477462769 3.969897985458374 16
v -112 4.0062880516052246 15.637710094451904
v -103.21620202064514 3.6119060516357422 16
v -104.77100402116776 3.6668610572814941 16
v -96 3.40344500541687 16
v -96.327370166778564 3.4163360595703125 16
v -96 3.3821799755096436 15.484594821929932
v -96 3.2835190296173096 13.093239784240723
v -99.216796875 3.5127348899841309 16
v -100.54930090904236 3.5287139415740967 16
v -107.21577501296997 3.6766369342803955 16
v -108.99245500564575 3.833683967590332 16
vt 0 0.1317560076713562
vt 0.10792700201272965 0.25169897079467773
vt 0 0.24595999717712402
vt 0 0.65931200981140137
vt 0.081693999469280243 0.75015999376773834
vt 0 0.74581900238990784
vt 0 0.923275999724865
vt 0.068512000143527985 0.99948300002142787
vt 0 0.99584100022912025
vt 0 0.39547097682952881
vt 0.094851002097129822 0.50087198615074158
vt 0 0.49583101272583008
vt 0.11877500265836716 0
vt 0.12102299928665161 0.0024979710578918457
vt 0.073985002934932709 0
vt 0.12115400284528732 0
vt 0.35610300302505493 0
vt 0.37026399374008179 0.015738010406494141
vt 0.34405800700187683 0.514162003993988
vt 0.30632901191711426 1
vt 0.078245997428894043 1
vt 0.0683239996433258 1
vt 0.068484999239444733 1
vt 0 1
vt 0.0689769983291626 1
vt 0.33090400695800781 0.76344500482082367
vt 0.0016589999431744218 0
vt 0 0
vt 0.3571699857711792 0.26493799686431885
vt 0.37109300494194031 0
vt 0.61952501535415649 0.028949975967407227
vt 0.59347701072692871 0
vt 0.59328901767730713 0.527415007352829
vt 0.31843098998069763 1
vt 0.58013498783111572 0.7766990065574646
vt 0.60642498731613159 0.27815699577331543
vt 0.543624997138977 1
vt 0.62104898691177368 0
vt 0.86876702308654785 0.0421910285949707
vt 0.8308110237121582 0
vt 0.84254699945449829 0.54063299298286438
vt 0.5683559775352478 1
vt 0.781029999256134 1
vt 0.82939398288726807 0.7899159938097
vt 0.8556789755821228 0.29137998819351196
vt 0.87098902463912964 0
vt 1 0
vt 1 0.049112975597381592
vt 0.97735697031021118 0
vt 1 0.5489870011806488
vt 1 0.4518120288848877
vt 1 1
vt 1 0.97953899949789047
vt 0.96778702735900879 1
vt 0.818327009677887 1
vt 1 0.79895000159740448
vt 1 0.71566900610923767
vt 1 0.29901397228240967
vt 1 0.18797200918197632
vn 0.081850998103618622 0.99399101734161377 -0.072677001357078552
vn 0.080613002181053162 0.99361002445220947 -0.079003997147083282
vn 0.093699999153614044 0.99242401123046875 -0.07947000116109848
vn 0.0051540001295506954 0.99750500917434692 -0.070410996675491333
vn -0.001686000032350421 0.99660897254943848 -0.0822639986872673
vn -0.014135000295937061 0.99751698970794678 -0.068988002836704254
vn -0.022740000858902931 0.99734598398208618 -0.069164998829364777
vn -0.022648999467492104 0.99794298410415649 -0.059973001480102539
vn -0.022649999707937241 0.99704599380493164 -0.073386996984481812
vn 0.0974930003285408 0.99211102724075317 -0.078803002834320068
vn 0.0415630005300045 0.994255006313324 -0.098633997142314911
vn 0.023571999743580818 0.99715697765350342 -0.071576997637748718
vn 0.067162998020648956 0.99549901485443115 -0.066863000392913818
vn 0.077160999178886414 0.99466800689697266 -0.068426996469497681
vn 0.076875999569892883 0.99477499723434448 -0.067172996699810028
vn 0.070032998919487 0.995169997215271 -0.068796999752521515
vn 0.069032996892929077 0.9953160285949707 -0.067675001919269562
vn 0.075953997671604156 0.99554502964019775 -0.055874999612569809
vn 0.039337001740932465 0.99552202224731445 -0.08595699816942215
vn -0.020677000284194946 0.9980739951133728 -0.058495000004768372
vn -0.025806000456213951 0.99809402227401733 -0.056063000112771988
vn -0.083213001489639282 0.99407398700714111 -0.069945000112056732
vn -0.083237998187541962 0.99398398399353027 -0.071188002824783325
vn -0.0832120031118393 0.99407398700714111 -0.069945000112056732
vn -0.10011100023984909 0.99357402324676514 -0.052806999534368515
vn 0.011640000157058239 0.995697021484375 -0.091939002275466919
vn 0.076912999153137207 0.99477201700210571 -0.0671750009059906
vn 0.076912999153137207 0.99477100372314453 -0.06718900054693222
vn 0.0633459985256195 0.9959149956703186 -0.064350001513957977
vn 0.050824999809265137 0.997704029083252 -0.044766001403331757
vn 0.074741996824741364 0.99559897184371948 -0.056529998779296875
vn 0.051309999078512192 0.99765700101852417 -0.04524499922990799
vn 0.024865999817848206 0.99800699949264526 -0.057992000132799149
vn 0.019785000011324883 0.99530202150344849 -0.094774000346660614
vn 0.015130000188946724 0.99811702966690063 -0.059443999081850052
vn 0.053660999983549118 0.99726498126983643 -0.050825998187065125
vn 0.016222000122070312 0.99658399820327759 -0.080981999635696411
vn 0.054209999740123749 0.99627000093460083 -0.067137002944946289
vn 0.077100999653339386 0.996167004108429 -0.041306000202894211
vn 0.051915999501943588 0.99650001525878906 -0.0655129998922348
vn 0.025035999715328217 0.99854499101638794 -0.047768998891115189
vn 0.015363000333309174 0.99950599670410156 -0.02742299996316433
vn 0.028769999742507935 0.99893099069595337 -0.036184001713991165
vn 0.022881999611854553 0.99881500005722046 -0.0429610013961792
vn 0.057663001120090485 0.99701398611068726 -0.051371000707149506
vn 0.042463000863790512 0.99905002117156982 -0.0097510004416108131
vn 0.043313000351190567 0.99904102087020874 0.0064039998687803745
vn 0.056035000830888748 0.998412013053894 0.005727000068873167
vn 0.043313000351190567 0.99904102087020874 0.0064039998687803745
vn 0.0339060015976429 0.99791997671127319 -0.054818999022245407
vn 0.016172999516129494 0.99930202960968018 -0.033682998269796371
vn 0.039315000176429749 0.99837797880172729 -0.041191000491380692
vn 0.033934000879526138 0.998803973197937 -0.035209000110626221
vn 0.039315000176429749 0.99837797880172729 -0.041191000491380692
vn 0.039246000349521637 0.99832701683044434 -0.042454998940229416
vn 0.019582999870181084 0.999235987663269 -0.033815998584032059
vn 0.024761000648140907 0.99855899810791016 -0.047605000436306
vn 0.062650002539157867 0.99776500463485718 -0.023218000307679176
vn 0.073145002126693726 0.99729001522064209 -0.0078840004280209541
f 1/1/1 2/2/2 3/3/3
f 4/4/4 5/5/5 6/6/6
f 7/7/7 8/8/8 9/9/9
f 10/10/10 11/11/11 12/12/12
f 13/13/13 14/14/14 15/15/15
f 13/13/13 16/16/16 14/14/14
f 17/17/17 14/14/14 16/16/16
f 17/17/17 18/18/18 14/14/14
f 19/19/19 11/11/11 2/2/2
f 10/10/10 2/2/2 11/11/11
f 10/10/10 3/3/3 2/2/2
f 20/20/20 8/8/8 5/5/5
f 20/20/20 21/21/21 8/8/8
f 7/7/7 5/5/5 8/8/8
f 7/7/7 6/6/6 5/5/5
f 22/22/22 8/8/8 23/23/23
f 22/22/22 9/9/9 8/8/8
f 22/22/22 24/24/24 9/9/9
f 25/25/25 23/23/23 8/8/8
f 5/5/5 12/12/12 11/11/11
f 5/5/5 4/4/4 12/12/12
f 26/26/26 5/5/5 11/11/11
f 2/2/2 15/15/15 14/14/14
f 2/2/2 27/27/27 15/15/15
f 27/27/27 1/1/1 28/28/28
f 27/27/27 2/2/2 1/1/1
f 29/29/29 2/2/2 14/14/14
f 30/30/30 18/18/18 17/17/17
f 30/30/30 31/31/31 18/18/18
f 30/30/30 32/32/32 31/31/31
f 19/19/19 2/2/2 29/29/29
f 29/29/29 33/33/33 19/19/19
f 34/34/34 5/5/5 26/26/26
f 34/34/34 20/20/20 5/5/5
f 25/25/25 8/8/8 21/21/21
f 19/19/19 35/35/35 26/26/26
f 19/19/19 26/26/26 11/11/11
f 18/18/18 36/36/36 29/29/29
f 34/34/34 26/26/26 37/37/37
f 18/18/18 29/29/29 14/14/14
f 38/38/38 31/31/31 32/32/32
f 31/31/31 36/36/36 18/18/18
f 38/38/38 39/39/39 31/31/31
f 38/38/38 40/40/40 39/39/39
f 36/36/36 41/41/41 33/33/33
f 33/33/33 35/35/35 19/19/19
f 42/42/42 35/35/35 43/43/43
f 37/37/37 35/35/35 42/42/42
f 37/37/37 26/26/26 35/35/35
f 33/33/33 44/44/44 35/35/35
f 29/29/29 36/36/36 33/33/33
f 31/31/31 45/45/45 36/36/36
f 40/40/40 46/46/46 39/39/39
f 47/47/47 48/48/48 49/49/49
f 49/49/49 39/39/39 46/46/46
f 49/49/49 48/48/48 39/39/39
f 50/50/50 45/45/45 51/51/51
f 50/50/50 41/41/41 45/45/45
f 36/36/36 45/45/45 41/41/41
f 52/52/52 44/44/44 53/53/53
f 52/52/52 54/54/54 44/44/44
f 54/54/54 55/55/55 44/44/44
f 43/43/43 44/44/44 55/55/55
f 43/43/43 35/35/35 44/44/44
f 44/44/44 33/33/33 41/41/41
f 56/56/56 41/41/41 57/57/57
f 56/56/56 44/44/44 41/41/41
f 45/45/45 31/31/31 39/39/39
f 58/58/58 39/39/39 59/59/59
f 58/58/58 45/45/45 39/39/39
f 57/57/57 41/41/41 50/50/50
f 59/59/59 39/39/39 48/48/48
f 51/51/51 45/45/45 58/58/58
f 53/53/53 44/44/44 56/56/56
