mtllib m03333102.mtl
usemtl material0
v -64 2.251338005065918 96
v -62.825255870819092 2.0478999614715576 99.3425521850586
v -63.00132417678833 2.1249220371246338 96
v -64 2.2139320373535156 98.284348011016846
v -62.317927837371826 2.0074200630187988 96
v -58.839812994003296 1.3655610084533691 99.134246826171875
v -59.004398107528687 1.53827702999115 96
v -64 2.1787509918212891 99.4041748046875
v -64 2.1458899974823 100.64845299720764
v -62.615372180938721 1.9076370000839233 103.33178699016571
v -58.630062103271484 1.1979550123214722 103.12357300519943
v -64 2.0657699108123779 103.40440398454666
v -64 1.9651819467544556 105.88491094112396
v -62.405712127685547 1.721472978591919 107.32117509841919
v -64 1.8765189647674561 109.09349822998047
v -64 1.9045259952545166 107.40479302406311
v -64 1.8127779960632324 111.40495300292969
v -62.1958122253418 1.5846179723739624 111.31039381027222
v -58.420181035995483 1.0571990013122559 107.11280107498169
v -54.643951058387756 0.6523280143737793 102.91479504108429
v -58.209686040878296 1.0424129962921143 111.10160779953003
v -64 1.784669041633606 112
v -62.159595012664795 1.5473730564117432 112
v -64 1.795058012008667 111.78007507324219
v -54.854099035263062 0.7388799786567688 98.925743103027344
v -56.020518999546766 1.0362889766693115 96
v -58.162270069122314 1.0399620532989502 112
v -59.017844915390015 1.1123319864273071 112
v -55.219161987304688 0.79029399156570435 112
v -54.222561001777649 0.70381301641464233 110.89212799072266
v -54.433868050575256 0.55307501554489136 106.90388488769531
v -55.007861971855164 0.87504500150680542 96
v -52.222079992294312 0.58161097764968872 96
v -51.009955883026123 0.48167899250984192 96
v -50.866905212402344 0.4144349992275238 98.716217041015625
v -48.423114776611328 0.41373100876808167 96
v -50.656803131103516 0.31909400224685669 102.70529198646545
v -48 0.26718398928642273 98.565285205841064
v -48 0.35779398679733276 96.686820983886719
v -48 0.39092400670051575 96
v -48 0.21744699776172638 101.29708909988403
v -48 0.19044299423694611 102.56539905071259
v -50.446372985839844 0.29064100980758667 106.69414496421814
v -48 0.17363099753856659 105.09673297405243
v -50.235366821289062 0.37936899065971375 110.68259382247925
v -48 0.20764799416065216 108.19769287109375
v -48 0.22019900381565094 110.56505584716797
v -48 0.16708600521087647 106.56534600257874
v -48 0.26408100128173828 112
v -48.7716178894043 0.31778401136398315 112
v -48 0.24593000113964081 111.40647077560425
v -50.165816783905029 0.38012799620628357 112
v -52.991985082626343 0.60937702655792236 112
v -54.16408896446228 0.70133298635482788 112
vt 0 0
vt 0.20891000330448151 0.073421001434326172
vt 0 0.062416970729827881
vt 0.14277200400829315 0
vt 0 0.10512900352478027
vt 0.19588999450206757 0.32251197099685669
vt 0 0.31222498416900635
vt 0.21276099979877472 0
vt 0.29052799940109253 0
vt 0.45823699235916138 0.086538970470428467
vt 0.44522300362586975 0.33562099933624268
vt 0.46277499198913574 0
vt 0.61780697107315063 0
vt 0.70757299661636353 0.09964299201965332
vt 0.818343997001648 0
vt 0.71280002593994141 0
vt 0.9628099799156189 0
vt 0.95690000057220459 0.1127619743347168
vt 0.69454997777938843 0.34873902797698975
vt 0.43217501044273376 0.584753006696701
vt 0.94385099411010742 0.36189502477645874
vt 1 0
vt 1 0.11502498388290405
vt 0.9862549901008606 0
vt 0.18285900354385376 0.57161900401115417
vt 0 0.4987180233001709
vt 1 0.36485797166824341
vt 1 0.31138497591018677
vt 1 0.548801988363266
vt 0.930757999420166 0.61109000444412231
vt 0.68149298429489136 0.59788298606872559
vt 0 0.56200900673866272
vt 0 0.73611998558044434
vt 0 0.81187799572944641
vt 0.16976399719715118 0.82081800699234009
vt 0 0.97355500049889088
vt 0.41908100247383118 0.83394999802112579
vt 0.16032999753952026 1
vt 0.042925998568534851 1
vt 0 1
vt 0.3310680091381073 1
vt 0.41033700108528137 1
vt 0.66838401556015015 0.84710200130939484
vt 0.56854599714279175 1
vt 0.91766202449798584 0.86029000580310822
vt 0.7623559832572937 1
vt 0.910315990447998 1
vt 0.66033399105072021 1
vt 1 1
vt 1 0.951774001121521
vt 0.96290397644042969 1
vt 1 0.86463600397109985
vt 1 0.68800100684165955
vt 1 0.61474400758743286
vn 0.12556500732898712 0.99195200204849243 0.016242999583482742
vn 0.1505340039730072 0.98836302757263184 0.021849999204277992
vn 0.16172699630260468 0.98673301935195923 0.014217999763786793
vn 0.12119899690151215 0.992402970790863 0.021160999312996864
vn 0.14509400725364685 0.98855000734329224 0.041432000696659088
vn 0.1635890007019043 0.98601299524307251 0.0318790003657341
vn 0.15224500000476837 0.98725199699401855 0.0464089997112751
vn 0.11213800311088562 0.99328100681304932 0.028588000684976578
vn 0.11401700228452683 0.99308300018310547 0.028047999367117882
vn 0.16058500111103058 0.98648500442504883 0.032549001276493073
vn 0.15837900340557098 0.98697102069854736 0.02834399975836277
vn 0.11507000029087067 0.9928399920463562 0.032069001346826553
vn 0.11557500064373016 0.99248802661895752 0.040116999298334122
vn 0.15429599583148956 0.98757600784301758 0.0297860000282526
vn 0.12180200219154358 0.99229300022125244 0.022758999839425087
vn 0.11544600129127502 0.99293500185012817 0.027437999844551086
vn 0.12688000500202179 0.99150902032852173 0.028480999171733856
vn 0.14409199357032776 0.98937898874282837 0.019145000725984573
vn 0.14250800013542175 0.9896780252456665 0.015119999647140503
vn 0.11373899877071381 0.99331897497177124 0.019526999443769455
vn 0.11170200258493424 0.99368500709533691 -0.010614000260829926
vn 0.12773799896240234 0.99070298671722412 0.046799998730421066
vn 0.13298699259757996 0.99002701044082642 0.046486001461744308
vn 0.12773799896240234 0.99070298671722412 0.046799000352621078
vn 0.1169390007853508 0.99282002449035645 0.025171000510454178
vn 0.16046099364757538 0.98620200157165527 0.040729999542236328
vn 0.084472998976707458 0.99642401933670044 -0.0017399999778717756
vn 0.13070499897003174 0.99059402942657471 0.040481999516487122
vn 0.0844539999961853 0.996425986289978 -0.0018100000452250242
vn 0.076797999441623688 0.99663698673248291 -0.028586000204086304
vn 0.091401003301143646 0.99578702449798584 -0.0073119997978210449
vn 0.11875800043344498 0.99212002754211426 0.0399320013821125
vn 0.090309001505374908 0.995527982711792 0.027729999274015427
vn 0.044137001037597656 0.998773992061615 0.022401999682188034
vn 0.062684997916221619 0.99775701761245728 0.023483000695705414
vn 0.041335001587867737 0.998462975025177 0.03692999854683876
vn 0.070302002131938934 0.99742698669433594 0.014068000018596649
vn 0.053025998175144196 0.99803102016448975 0.033511999994516373
vn 0.053762998431921005 0.99739402532577515 0.048110999166965485
vn 0.053762000054121017 0.99739402532577515 0.048110999166965485
vn 0.051362998783588409 0.99849599599838257 0.019155999645590782
vn 0.049231000244617462 0.99865001440048218 0.016574999317526817
vn 0.063231997191905975 0.99785697460174561 -0.016828000545501709
vn 0.0500280000269413 0.9987339973449707 0.005169999785721302
vn 0.067548997700214386 0.99750602245330811 -0.020476000383496284
vn 0.061934001743793488 0.99799197912216187 -0.013252999633550644
vn 0.0703980028629303 0.99744802713394165 -0.011900000274181366
vn 0.049453999847173691 0.99860197305679321 -0.018639000132679939
vn 0.069398000836372375 0.99712300300598145 -0.030494000762701035
vn 0.053500000387430191 0.9984859824180603 -0.012767000123858452
vn 0.069397002458572388 0.99712300300598145 -0.030493000522255898
vn 0.074377000331878662 0.997219979763031 -0.0045019998215138912
vn 0.080076999962329864 0.99678099155426025 -0.0039800000376999378
vn 0.080964997410774231 0.9967150092124939 -0.0020419999491423368
f 1/1/1 2/2/2 3/3/3
f 1/1/1 4/4/4 2/2/2
f 5/5/5 6/6/6 7/7/7
f 8/8/8 9/9/9 2/2/2
f 6/6/6 2/2/2 10/10/10
f 3/3/3 6/6/6 5/5/5
f 3/3/3 2/2/2 6/6/6
f 6/6/6 10/10/10 11/11/11
f 12/12/12 2/2/2 9/9/9
f 12/12/12 10/10/10 2/2/2
f 4/4/4 8/8/8 2/2/2
f 10/10/10 13/13/13 14/14/14
f 10/10/10 12/12/12 13/13/13
f 15/15/15 14/14/14 16/16/16
f 13/13/13 16/16/16 14/14/14
f 14/14/14 17/17/17 18/18/18
f 14/14/14 15/15/15 17/17/17
f 19/19/19 14/14/14 18/18/18
f 14/14/14 19/19/19 11/11/11
f 11/11/11 19/19/19 20/20/20
f 19/19/19 18/18/18 21/21/21
f 11/11/11 10/10/10 14/14/14
f 22/22/22 23/23/23 24/24/24
f 24/24/24 18/18/18 17/17/17
f 24/24/24 23/23/23 18/18/18
f 25/25/25 6/6/6 11/11/11
f 26/26/26 7/7/7 6/6/6
f 27/27/27 21/21/21 28/28/28
f 21/21/21 29/29/29 30/30/30
f 21/21/21 27/27/27 29/29/29
f 28/28/28 18/18/18 23/23/23
f 28/28/28 21/21/21 18/18/18
f 31/31/31 19/19/19 21/21/21
f 11/11/11 20/20/20 25/25/25
f 32/32/32 25/25/25 33/33/33
f 34/34/34 35/35/35 36/36/36
f 35/35/35 33/33/33 25/25/25
f 35/35/35 34/34/34 33/33/33
f 35/35/35 25/25/25 37/37/37
f 26/26/26 25/25/25 32/32/32
f 26/26/26 6/6/6 25/25/25
f 38/38/38 36/36/36 35/35/35
f 38/38/38 39/39/39 36/36/36
f 39/39/39 40/40/40 36/36/36
f 38/38/38 35/35/35 41/41/41
f 21/21/21 30/30/30 31/31/31
f 20/20/20 31/31/31 37/37/37
f 42/42/42 35/35/35 37/37/37
f 42/42/42 41/41/41 35/35/35
f 20/20/20 37/37/37 25/25/25
f 37/37/37 31/31/31 43/43/43
f 42/42/42 37/37/37 44/44/44
f 43/43/43 30/30/30 45/45/45
f 30/30/30 43/43/43 31/31/31
f 46/46/46 45/45/45 47/47/47
f 45/45/45 48/48/48 43/43/43
f 45/45/45 46/46/46 48/48/48
f 49/49/49 45/45/45 50/50/50
f 49/49/49 51/51/51 45/45/45
f 51/51/51 47/47/47 45/45/45
f 44/44/44 43/43/43 48/48/48
f 44/44/44 37/37/37 43/43/43
f 52/52/52 30/30/30 53/53/53
f 52/52/52 45/45/45 30/30/30
f 29/29/29 54/54/54 30/30/30
f 19/19/19 31/31/31 20/20/20
f 50/50/50 45/45/45 52/52/52
f 53/53/53 30/30/30 54/54/54
