mtllib m0333333202.mtl
usemtl material0
v -31.643362045288086 2.9974150657653809 8
v -32 3.0060939788818359 8.5223690271377563
v -31.606827020645142 2.9792380332946777 8.6938199996948242
v -32 3.0181789398193359 8
v -29.643438011407852 2.9918959140777588 8
v -30.266488999128342 2.9862740039825439 8
v -29.612401992082596 2.9856979846954346 8.5884799957275391
v -28.643236041069031 3.0362699031829834 8
v -29.210529029369354 3.0129179954528809 8
v -28.614964962005615 3.0348250865936279 8.5356520414352417
v -30.643473029136658 2.9802579879760742 8
v -31.322150945663452 2.9936180114746094 8
v -30.609682023525238 2.9687960147857666 8.6411969661712646
v -28 3.0898149013519287 8
v -28.15423595905304 3.0781140327453613 8
v -28 3.0903110504150391 8.1386679410934448
v -30.557192027568817 2.9377849102020264 9.6384930014610291
v -29.559908002614975 2.9556629657745361 9.58577299118042
v -28 3.0876820087432861 8.5030100345611572
v -28 3.074882984161377 9.0886160135269165
v -28.562445044517517 3.0101621150970459 9.5329259932041168
v -31.554352045059204 2.9452970027923584 9.6911259889602661
v -32 2.9258430004119873 10.471323013305664
v -31.501948952674866 2.8962199687957764 10.688484013080597
v -32 2.9615309238433838 9.7146080136299133
v -32 2.9870738983154297 8.9170550107955933
v -29.507535994052887 2.9002389907836914 10.583151996135712
v -28.510076999664307 2.9542489051818848 10.530306994915009
v -30.504796981811523 2.8872439861297607 10.635855972766876
v -28 3.0626320838928223 9.503057986497879
v -28 3.0332028865814209 10.038770999759436
v -30.452441990375519 2.8284010887145996 11.633247017860413
v -29.455211997032166 2.835536003112793 11.580564022064209
v -30.433192998170853 2.8064041137695312 12
v -31.4495849609375 2.8393299579620361 11.68586802482605
v -31.100636005401611 2.8158071041107178 12
v -29.433193027973175 2.8109960556030273 12
v -30.044973000884056 2.8085160255432129 12
v -32 2.8596510887145996 11.714869022369385
v -32 2.9005110263824463 10.971270024776459
v -32 2.8421730995178223 12
v -31.433104038238525 2.8194139003753662 12
v -32 2.8457870483398438 11.941051006317139
v -28.457759976387024 2.8875930309295654 11.527724981307983
v -28 2.9196939468383789 11.738584995269775
v -28 2.9071969985961914 11.939414024353027
v -28 2.9343290328979492 11.503404021263123
v -28 2.9677720069885254 11.019098043441773
v -28 3.0048279762268066 10.50321102142334
v -28.432963967323303 2.8606550693511963 12
v -28.989029049873352 2.8333899974823 12
v -28 2.9034268856048584 12
vt 0 0.089159011840820312
vt 0.13059200346469879 0
vt 0.17345499992370606 0.0982930064201355
vt 0 0
vt 0 0.589139997959137
vt 0 0.43337798118591309
vt 0.14711999893188477 0.59689998626708984
vt 0 0.8391910046339035
vt 0 0.69736799597740173
vt 0.13391299545764923 0.84625899791717529
vt 0 0.33913201093673706
vt 0 0.16946202516555786
vt 0.16029900312423706 0.34757900238037109
vt 0 1
vt 0 0.96144099906086922
vt 0.0346670001745224 1
vt 0.40962299704551697 0.36070197820663452
vt 0.39644300937652588 0.61002299189567566
vt 0.12575200200080872 1
vt 0.27215400338172913 1
vt 0.38323101401329041 0.85938900709152222
vt 0.42278099060058594 0.11141198873519898
vt 0.61783099174499512 0
vt 0.672120988368988 0.12451297044754028
vt 0.42865198850631714 0
vt 0.22926400601863861 0
vt 0.64578801393508911 0.62311598658561707
vt 0.63257700204849243 0.87248100340366364
vt 0.65896397829055786 0.37380099296569824
vt 0.37576499581336975 1
vt 0.50969302654266357 1
vt 0.90831202268600464 0.38688898086547852
vt 0.89514100551605225 0.63619700074195862
vt 1 0.39170199632644653
vt 0.92146700620651245 0.1376039981842041
vt 1 0.22484099864959717
vt 1 0.64170199632644653
vt 1 0.48875701427459717
vt 0.92871701717376709 0
vt 0.7428169846534729 0
vt 1 0
vt 1 0.14172399044036865
vt 0.98526298999786377 0
vt 0.88193100690841675 0.88555999845266342
vt 0.93464601039886475 1
vt 0.984853982925415 1
vt 0.87585097551345825 1
vt 0.75477498769760132 1
vt 0.62580299377441406 1
vt 1 0.8917590007185936
vt 1 0.75274300575256348
vt 1 1
vn 0.042863998562097549 0.99879497289657593 0.023910000920295715
vn 0.055321000516414642 0.99803400039672852 0.029471000656485558
vn 0.020539000630378723 0.99932098388671875 0.030603000894188881
vn 0.058106999844312668 0.9980430006980896 0.023089999333024025
vn -0.025221999734640121 0.9996110200881958 0.011858000420033932
vn -0.011636000126600266 0.99983501434326172 0.013911000452935696
vn -0.0342090018093586 0.9991229772567749 0.024127999320626259
vn -0.061602998524904251 0.99808299541473389 0.0059429998509585857
vn -0.046507999300956726 0.9988589882850647 0.010858000256121159
vn -0.065444998443126678 0.99767398834228516 0.019052999094128609
vn -0.0040099998004734516 0.99982798099517822 0.018084000796079636
vn 0.014379999600350857 0.999638020992279 0.022719999775290489
vn -0.0027570000384002924 0.99962300062179565 0.027326999232172966
vn -0.075645998120307922 0.99712800979614258 -0.0035679999273270369
vn -0.084779001772403717 0.99637800455093384 0.0066530001349747181
vn -0.084730997681617737 0.99638199806213379 0.0066030002199113369
vn -0.0016570000443607569 0.99910598993301392 0.042240001261234283
vn -0.033612001687288284 0.99843102693557739 0.044787999242544174
vn -0.084771998226642609 0.99626898765563965 0.016179999336600304
vn -0.089210003614425659 0.99564498662948608 0.027086000889539719
vn -0.0669730007648468 0.99686402082443237 0.042153000831604004
vn 0.018749000504612923 0.99888300895690918 0.043375998735427856
vn 0.038486000150442123 0.99811100959777832 0.047885999083518982
vn 0.021984999999403954 0.99832701683044434 0.053477998822927475
vn 0.038306001573801041 0.99859499931335449 0.036630000919103622
vn 0.041088998317718506 0.99845802783966064 0.037319999188184738
vn -0.0272390004247427 0.99785000085830688 0.059615999460220337
vn -0.059397000819444656 0.99619102478027344 0.06384199857711792
vn 0.0016469999682158232 0.998462975025177 0.055397998541593552
vn -0.090498998761177063 0.99493998289108276 0.043644998222589493
vn -0.092393003404140472 0.99406397342681885 0.0574520006775856
vn 0.0057100001722574234 0.99829000234603882 0.058169998228549957
vn -0.029750000685453415 0.99752098321914673 0.063771001994609833
vn 0.010200000368058682 0.99818599224090576 0.059331998229026794
vn 0.022553000599145889 0.99809497594833374 0.057433001697063446
vn 0.012985999695956707 0.99809497594833374 0.060313999652862549
vn -0.014431999996304512 0.99814397096633911 0.059156998991966248
vn -0.00458399998024106 0.99823498725891113 0.059216000139713287
vn 0.039760999381542206 0.99766302108764648 0.055574998259544373
vn 0.038754001259803772 0.99783599376678467 0.053112998604774475
vn 0.040040001273155212 0.99732601642608643 0.061142001301050186
vn 0.030361000448465347 0.997635006904602 0.061659000813961029
vn 0.0400409996509552 0.99732601642608643 0.061131998896598816
vn -0.071849003434181213 0.99516397714614868 0.066979996860027313
vn -0.098123997449874878 0.99325299263000488 0.06180800125002861
vn -0.098123997449874878 0.99325299263000488 0.061806999146938324
vn -0.097856000065803528 0.99298602342605591 0.066353999078273773
vn -0.0961500033736229 0.99290299415588379 0.069985002279281616
vn -0.094991996884346008 0.993291974067688 0.065929003059864044
vn -0.059994000941514969 0.99639499187469482 0.059983000159263611
vn -0.049497000873088837 0.9969639778137207 0.060113999992609024
vn -0.0981220006942749 0.99325299263000488 0.061806000769138336
f 1/1/1 2/2/2 3/3/3
f 1/1/1 4/4/4 2/2/2
f 5/5/5 6/6/6 7/7/7
f 8/8/8 9/9/9 10/10/10
f 11/11/11 12/12/12 13/13/13
f 14/14/14 15/15/15 16/16/16
f 13/13/13 3/3/3 17/17/17
f 12/12/12 3/3/3 13/13/13
f 12/12/12 1/1/1 3/3/3
f 9/9/9 7/7/7 10/10/10
f 9/9/9 5/5/5 7/7/7
f 11/11/11 7/7/7 6/6/6
f 11/11/11 13/13/13 7/7/7
f 7/7/7 13/13/13 18/18/18
f 19/19/19 10/10/10 20/20/20
f 16/16/16 10/10/10 19/19/19
f 16/16/16 15/15/15 10/10/10
f 15/15/15 8/8/8 10/10/10
f 10/10/10 7/7/7 21/21/21
f 22/22/22 23/23/23 24/24/24
f 22/22/22 25/25/25 23/23/23
f 3/3/3 25/25/25 22/22/22
f 3/3/3 26/26/26 25/25/25
f 18/18/18 17/17/17 27/27/27
f 13/13/13 17/17/17 18/18/18
f 7/7/7 18/18/18 21/21/21
f 21/21/21 18/18/18 28/28/28
f 17/17/17 3/3/3 22/22/22
f 17/17/17 22/22/22 29/29/29
f 20/20/20 21/21/21 30/30/30
f 20/20/20 10/10/10 21/21/21
f 30/30/30 21/21/21 31/31/31
f 2/2/2 26/26/26 3/3/3
f 24/24/24 32/32/32 29/29/29
f 17/17/17 29/29/29 27/27/27
f 18/18/18 27/27/27 28/28/28
f 29/29/29 33/33/33 27/27/27
f 29/29/29 22/22/22 24/24/24
f 27/27/27 33/33/33 28/28/28
f 34/34/34 35/35/35 36/36/36
f 34/34/34 32/32/32 35/35/35
f 35/35/35 32/32/32 24/24/24
f 32/32/32 33/33/33 29/29/29
f 37/37/37 32/32/32 38/38/38
f 37/37/37 33/33/33 32/32/32
f 24/24/24 39/39/39 35/35/35
f 24/24/24 40/40/40 39/39/39
f 41/41/41 42/42/42 43/43/43
f 43/43/43 35/35/35 39/39/39
f 43/43/43 42/42/42 35/35/35
f 44/44/44 28/28/28 33/33/33
f 45/45/45 44/44/44 46/46/46
f 45/45/45 47/47/47 44/44/44
f 48/48/48 44/44/44 47/47/47
f 44/44/44 49/49/49 28/28/28
f 44/44/44 48/48/48 49/49/49
f 49/49/49 21/21/21 28/28/28
f 49/49/49 31/31/31 21/21/21
f 50/50/50 33/33/33 51/51/51
f 50/50/50 44/44/44 33/33/33
f 36/36/36 35/35/35 42/42/42
f 51/51/51 33/33/33 37/37/37
f 34/34/34 38/38/38 32/32/32
f 52/52/52 44/44/44 50/50/50
f 52/52/52 46/46/46 44/44/44
f 23/23/23 40/40/40 24/24/24
