mtllib m0333100.mtl
usemtl material0
v -128 4.80206298828125 224
v -128 4.39694881439209 226.68385314941406
v -125.58470916748047 4.7262778282165527 224
v -128 2.5419778823852539 238.77841198444367
v -128 2.112091064453125 243.57037401199341
v -123.47419738769531 2.2456119060516357 238.54032897949219
v -128 2.938884973526001 235.12648010253906
v -123.89096832275391 3.1426429748535156 230.55979919433594
v -128 3.5174269676208496 230.77562046051025
v -124.22996520996094 4.5874171257019043 224
v -117.98676300048828 4.401282787322998 224
v -123.05838012695313 1.1547180414199829 246.52151489257813
v -115.49977898597717 1.6012909412384033 238.12123095989227
v -115.91230010986328 3.3679358959198 230.13777160644531
v -122.63958740234375 0.67316901683807373 254.50064086914063
v -115.0820620059967 0.89906102418899536 246.10110521316528
v -128 1.2598860263824463 252.01422119140625
v -128 1.6926339864730835 246.78079223632813
v -128 1.1049560308456421 254.78236389160156
v -123.98858642578125 0.66604602336883545 256
v -128 1.0592730045318604 255.345947265625
v -128 1.0062589645385742 256
v -122.56117153167725 0.52718502283096313 256
v -114.66436791419983 0.19388400018215179 254.08097839355469
v -116.39104509353638 0.12587399780750275 256
v -116.23092699050903 4.434628963470459 224
v -107.932532787323 3.8187909126281738 229.71498107910156
v -110.38866400718689 4.1524310111999512 224
v -108.23197889328003 4.2650480270385742 224
v -102.79059600830078 3.8940229415893555 224
v -107.52059888839722 1.9325200319290161 237.69885301589966
v -99.957649230957031 3.2696459293365479 229.29556274414063
v -107.10714721679688 0.35774698853492737 245.68165588378906
v -108.79335808753967 -0.3360779881477356 256
v -106.68869781494141 -0.19460099935531616 253.66102600097656
v -114.56414794921875 -0.02171500027179718 256
v -99.129386901855469 0.39794701337814331 245.26025390625
v -106.56635284423828 -0.4176119863986969 256
v -98.713859558105469 -0.75107097625732422 253.24162292480469
v -101.19570922851563 -0.8181920051574707 256
v -99.53973388671875 2.6089379787445068 237.27529907226563
v -100.23499298095703 3.7074480056762695 224
v -96 3.4414420127868652 224
v -96 3.3702390193939209 224.89694213867188
v -96 2.8267219066619873 233.34143114089966
v -96 3.1725699901580811 229.08688354492188
v -96 2.5203800201416016 237.08865404129028
v -96 0.4297960102558136 245.09489393234253
v -96 -0.309594988822937 250.22615146636963
v -96 -1.0478980541229248 256
v -98.5692367553711 -0.94826197624206543 256
v -96 -0.957942008972168 254.70481872558594
v -96 -0.8463820219039917 253.09860229492188
v -96 1.2298719882965088 241.78373694419861
vt 0.99594402313232422 0.0070940256118774414
vt 0.913299024105072 0.0074809789657592773
vt 0.99594402313232422 0.0806729793548584
vt 0.54037201404571533 0.0085939764976501465
vt 0.39387699961662292 0.0082399845123291016
vt 0.54645299911499023 0.14674997329711914
vt 0.65222400426864624 0.0087159872055053711
vt 0.79099297523498535 0.1342960000038147
vt 0.78586900234222412 0.0085939764976501465
vt 0.99541699886322021 0.12213599681854248
vt 0.99591100215911865 0.31231802701950073
vt 0.30112001299858093 0.15828198194503784
vt 0.55536502599716187 0.39052402973175049
vt 0.80429798364639282 0.37730902433395386
vt 0.057624001055955887 0.16895198822021484
vt 0.3113589882850647 0.4013969898223877
vt 0.13539999723434448 0.0071979761123657227
vt 0.29529398679733276 0.007884979248046875
vt 0.0512240007519722 0.0051059722900390625
vt 0.012376000173389912 0.12742900848388672
vt 0.0340070016682148 0.004990994930267334
vt 0.014027000404894352 0.0048580169677734375
vt 0.011738999746739864 0.17104101181030273
vt 0.067447997629642487 0.41436398029327393
vt 0.0090690003708004951 0.35929197072982788
vt 0.99655401706695557 0.36578702926635742
vt 0.82048499584198 0.62047299742698669
vt 0.99399399757385254 0.54404300451278687
vt 0.99493801593780518 0.60976299643516541
vt 0.99559402465820312 0.77583000063896179
vt 0.57072001695632935 0.63354501128196716
vt 0.82962298393249512 0.86403700709342957
vt 0.32300999760627747 0.646928995847702
vt 0.0072030001319944859 0.59325599670410156
vt 0.078322000801563263 0.65759500861167908
vt 0.0086409999057650566 0.41728800535202026
vt 0.33476099371910095 0.88989999890327454
vt 0.0067699998617172241 0.66111001372337341
vt 0.088146001100540161 0.90114600211381912
vt 0.0047809998504817486 0.825081005692482
vt 0.585847020149231 0.87729600071907043
vt 0.99142599105834961 0.855774998664856
vt 0.99062597751617432 0.984977999702096
vt 0.96322900056838989 0.9849439999088645
vt 0.70600599050521851 0.98486100044101477
vt 0.83597797155380249 0.9845789996907115
vt 0.591526985168457 0.98511100001633167
vt 0.3398360013961792 0.98518900014460087
vt 0.18062600493431091 0.9841339997947216
vt 0.0034459999296814203 0.98343599960207939
vt 0.0040270001627504826 0.90514899790287018
vt 0.042626000940799713 0.983492000028491
vt 0.091650001704692841 0.98387200012803078
vt 0.443558007478714 0.98524000030010939
vn 0.03101000003516674 0.98832297325134277 0.14918200671672821
vn 0.083801001310348511 0.97715300321578979 0.19531999528408051
vn 0.081203997135162354 0.97781997919082642 0.19306400418281555
vn 0.070170000195503235 0.99269098043441772 0.098188996315002441
vn 0.10366299748420715 0.98741000890731812 0.11948099732398987
vn 0.070970997214317322 0.98927402496337891 0.12767000496387482
vn 0.076770998537540436 0.99059301614761353 0.11327599734067917
vn 0.041597001254558563 0.98645997047424316 0.15863800048828125
vn 0.0983399972319603 0.98062998056411743 0.16939100623130798
vn 0.065894998610019684 0.975180983543396 0.21137499809265137
vn -0.0057640001177787781 0.98301702737808228 0.18342499434947968
vn 0.077062003314495087 0.99286502599716187 0.090999998152256012
vn 0.034058000892400742 0.98465698957443237 0.17114600539207459
vn -0.0078339995816349983 0.98548197746276855 0.16959799826145172
vn 0.07194799929857254 0.994458019733429 0.076655000448226929
vn 0.057464998215436935 0.9950370192527771 0.081235997378826141
vn 0.089901000261306763 0.99402797222137451 0.061849001795053482
vn 0.11304900050163269 0.98805499076843262 0.10472799837589264
vn 0.083677001297473907 0.99413800239562988 0.068470999598503113
vn 0.087503999471664429 0.99266302585601807 0.083443999290466309
vn 0.084233000874519348 0.99318897724151611 0.080504000186920166
vn 0.084233999252319336 0.99318897724151611 0.080503001809120178
vn 0.079925000667572021 0.99250400066375732 0.092454001307487488
vn 0.063161998987197876 0.9937400221824646 0.092152997851371765
vn 0.068769998848438263 0.99289900064468384 0.0970660001039505
vn 0.013298000209033489 0.98526102304458618 0.17054000496864319
vn 0.015281000174582005 0.98827999830245972 0.15188300609588623
vn -0.025225000455975533 0.99421799182891846 0.104373998939991
vn 0.0059259999543428421 0.99697202444076538 0.077538996934890747
vn 0.071317002177238464 0.99445700645446777 0.077256999909877777
vn -0.033089999109506607 0.98020702600479126 0.19519099593162537
vn 0.036671001464128494 0.99477702379226685 0.095253996551036835
vn 0.012748000212013722 0.99150902032852173 0.12941299378871918
vn 0.049343999475240707 0.99330198764801025 0.104482002556324
vn 0.052246000617742538 0.99452102184295654 0.090539999306201935
vn 0.066581003367900848 0.99192297458648682 0.10796400159597397
vn 0.016047999262809753 0.98143899440765381 0.19110000133514404
vn 0.055945001542568207 0.99419897794723511 0.091866001486778259
vn 0.049419999122619629 0.992393970489502 0.11274799704551697
vn 0.067460000514984131 0.99410402774810791 0.084887996315956116
vn -0.011265999637544155 0.98601001501083374 0.16630400717258453
vn 0.0677260011434555 0.99459701776504517 0.078680001199245453
vn 0.0624920018017292 0.99491500854492188 0.078979998826980591
vn 0.0542140007019043 0.99596202373504639 0.071556001901626587
vn 0.0288270004093647 0.99628901481628418 0.081095002591609955
vn 0.027817999944090843 0.99759399890899658 0.063507996499538422
vn 0.033658001571893692 0.984673023223877 0.17113299667835236
vn 7.6999996963422745E-05 0.98168098926544189 0.19053399562835693
vn 0.0082890000194311142 0.98832201957702637 0.15215399861335754
vn 0.038658998906612396 0.99685102701187134 0.069236002862453461
vn 0.043813999742269516 0.99665701389312744 0.068952001631259918
vn 0.038658000528812408 0.99685102701187134 0.069236002862453461
vn 0.041561998426914215 0.99086099863052368 0.12832599878311157
vn 0.029936999082565308 0.96567302942276 0.25803199410438538
f 1/1/1 2/2/2 3/3/3
f 4/4/4 5/5/5 6/6/6
f 7/7/7 8/8/8 9/9/9
f 7/7/7 6/6/6 8/8/8
f 7/7/7 4/4/4 6/6/6
f 10/10/10 8/8/8 11/11/11
f 6/6/6 12/12/12 13/13/13
f 14/14/14 8/8/8 6/6/6
f 12/12/12 15/15/15 16/16/16
f 17/17/17 12/12/12 18/18/18
f 5/5/5 12/12/12 6/6/6
f 5/5/5 18/18/18 12/12/12
f 19/19/19 20/20/20 15/15/15
f 19/19/19 21/21/21 20/20/20
f 21/21/21 22/22/22 20/20/20
f 20/20/20 23/23/23 15/15/15
f 23/23/23 24/24/24 15/15/15
f 23/23/23 25/25/25 24/24/24
f 12/12/12 19/19/19 15/15/15
f 12/12/12 17/17/17 19/19/19
f 26/26/26 8/8/8 14/14/14
f 26/26/26 11/11/11 8/8/8
f 3/3/3 8/8/8 10/10/10
f 3/3/3 9/9/9 8/8/8
f 3/3/3 2/2/2 9/9/9
f 13/13/13 14/14/14 6/6/6
f 14/14/14 13/13/13 27/27/27
f 27/27/27 28/28/28 14/14/14
f 27/27/27 29/29/29 28/28/28
f 29/29/29 27/27/27 30/30/30
f 31/31/31 32/32/32 27/27/27
f 31/31/31 27/27/27 13/13/13
f 26/26/26 14/14/14 28/28/28
f 31/31/31 13/13/13 33/33/33
f 24/24/24 16/16/16 15/15/15
f 16/16/16 24/24/24 33/33/33
f 24/24/24 34/34/34 35/35/35
f 24/24/24 36/36/36 34/34/34
f 36/36/36 24/24/24 25/25/25
f 35/35/35 33/33/33 24/24/24
f 35/35/35 37/37/37 33/33/33
f 38/38/38 39/39/39 35/35/35
f 38/38/38 40/40/40 39/39/39
f 38/38/38 35/35/35 34/34/34
f 13/13/13 16/16/16 33/33/33
f 31/31/31 33/33/33 41/41/41
f 16/16/16 13/13/13 12/12/12
f 32/32/32 30/30/30 27/27/27
f 32/32/32 42/42/42 30/30/30
f 43/43/43 32/32/32 44/44/44
f 43/43/43 42/42/42 32/32/32
f 45/45/45 32/32/32 41/41/41
f 45/45/45 46/46/46 32/32/32
f 44/44/44 32/32/32 46/46/46
f 45/45/45 41/41/41 47/47/47
f 41/41/41 32/32/32 31/31/31
f 39/39/39 37/37/37 35/35/35
f 39/39/39 48/48/48 37/37/37
f 39/39/39 49/49/49 48/48/48
f 50/50/50 39/39/39 51/51/51
f 50/50/50 52/52/52 39/39/39
f 52/52/52 53/53/53 39/39/39
f 54/54/54 37/37/37 48/48/48
f 47/47/47 37/37/37 54/54/54
f 47/47/47 41/41/41 37/37/37
f 51/51/51 39/39/39 40/40/40
f 37/37/37 41/41/41 33/33/33
f 53/53/53 49/49/49 39/39/39
