mtllib m0333333120.mtl
usemtl material0
v -16 4.6563520431518555 20
v -15.954702973365784 4.7068901062011719 20.860520958900452
v -15.999937057495117 4.6563711166381836 20
v -16 4.691734790802002 20.81980299949646
v -13.999771999995573 4.7142748832702637 20
v -13.960110001266003 4.75540018081665 20.755064010620117
v -13.280764997005463 4.6923441886901855 20
v -15.855046033859253 4.6631298065185547 20
v -14.957255005836487 4.7504482269287109 20.807687997817993
v -14.999693989753723 4.70029878616333 20
v -14.798946976661682 4.7019491195678711 20
v -16 4.7021989822387695 20.862936019897461
v -16 4.7036771774291992 20.91084897518158
v -16 4.7565011978149414 21.966403998434544
v -15.902336955070496 4.7657260894775391 21.857904002070427
v -16 4.7534041404724121 21.86311100423336
v -16 4.8023772239685059 22.863420009613037
v -15.850186944007874 4.8246321678161621 22.855440020561218
v -16 4.6340899467468262 23.86392605304718
v -15.930515050888062 4.6154050827026367 24
v -15.798341989517212 4.6622710227966309 23.853188037872314
v -16 4.6079740524291992 23.992480993270874
v -16 4.6064457893371582 24
v -16 4.77683687210083 23.02185595035553
v -14.85274201631546 4.8752198219299316 22.802606999874115
v -15.790737986564636 4.6333551406860352 24
v -14.90490198135376 4.812769889831543 21.805078998208046
v -13.90777800232172 4.8100199699401855 21.752471998333931
v -12.963135004043579 4.7176671028137207 20.702559947967529
v -13.855597004294395 4.864774227142334 22.749983012676239
v -14.800844013690949 4.7236018180847168 23.800318002700806
v -14.790488004684448 4.6870059967041016 24
v -14.980588972568512 4.674595832824707 24
v -14.030753999948502 4.6828641891479492 24
v -13.803626000881195 4.7278041839599609 23.747643947601318
v -12.858628034591675 4.81819486618042 22.697485029697418
v -13.790519997477531 4.6855039596557617 24
v -12.806638956069946 4.6851310729980469 23.695130944252014
v -13.080996990203857 4.6489710807800293 24
v -12.910794973373413 4.7678799629211426 21.699963003396988
v -13.000033020973206 4.6824870109558105 20
v -12.331047058105469 4.6486721038818359 20
v -12 4.6675119400024414 20.687644958496094
v -12 4.6656150817871094 20.651875019073486
v -12 4.6320581436157227 20.007114052772522
v -12.000373959541321 4.6317071914672852 20
v -12 4.6623902320861816 20.589902997016907
v -12 4.6317028999328613 20
v -12 4.7179741859436035 21.652031004428864
v -12 4.7705078125 22.652293980121613
v -12 4.7514557838439941 22.798705995082855
v -12 4.7228212356567383 21.743214011192322
v -12 4.6355891227722168 23.652693033218384
v -12 4.5815181732177734 24
v -12.468399047851563 4.6141228675842285 24
v -12 4.5912790298461914 23.937304019927979
v -12.79078996181488 4.6370120048522949 24
v -16 4.5997071266174316 20
v -15.999937057495117 4.59972620010376 20
v -16 4.6350903511047363 20.81980299949646
v -13.999771999995573 4.657630443572998 20
v -13.280764997005463 4.6356992721557617 20
v -15.855046033859253 4.6064853668212891 20
v -14.999693989753723 4.6436543464660645 20
v -14.798946976661682 4.6453042030334473 20
v -16 4.6470322608947754 20.91084897518158
v -16 4.6455540657043457 20.862936019897461
v -16 4.6998562812805176 21.966403998434544
v -16 4.6967592239379883 21.86311100423336
v -16 4.745732307434082 22.863420009613037
v -16 4.5513291358947754 23.992480993270874
v -16 4.5774450302124023 23.86392605304718
v -15.930515050888062 4.5587601661682129 24
v -16 4.5498013496398926 24
v -16 4.7201924324035645 23.02185595035553
v -15.790737986564636 4.5767102241516113 24
v -14.790488004684448 4.6303610801696777 24
v -14.980588972568512 4.6179513931274414 24
v -14.030753999948502 4.6262192726135254 24
v -13.080996990203857 4.5923261642456055 24
v -13.790519997477531 4.6288590431213379 24
v -13.000033020973206 4.6258420944213867 20
v -12.331047058105469 4.5920271873474121 20
v -12 4.6089701652526855 20.651875019073486
v -12 4.6108675003051758 20.687644958496094
v -12.000373959541321 4.5750622749328613 20
v -12 4.5754132270812988 20.007114052772522
v -12 4.6057453155517578 20.589902997016907
v -12 4.5750584602355957 20
v -12 4.66132926940918 21.652031004428864
v -12 4.7138633728027344 22.652293980121613
v -12 4.6948113441467285 22.798705995082855
v -12 4.6661763191223145 21.743214011192322
v -12 4.578944206237793 23.652693033218384
v -12 4.52487325668335 24
v -12.468399047851563 4.5574784278869629 24
v -12 4.5346341133117676 23.937304019927979
v -12.79078996181488 4.5803670883178711 24
vt 0 0
vt 0.21513000130653381 0.011323988437652588
vt 0 1.5974044799804688E-05
vt 0.20495100319385529 0
vt 0 0.50005701184272766
vt 0.1887660026550293 0.50997298955917358
vt 0 0.67980900406837463
vt 0 0.036238014698028564
vt 0.20192199945449829 0.26068598031997681
vt 0 0.2500770092010498
vt 0 0.300262987613678
vt 0.21573400497436523 0
vt 0.2277120053768158 0
vt 0.49160099029541016 0
vt 0.46447598934173584 0.024416029453277588
vt 0.46577799320220947 0
vt 0.71585500240325928 0
vt 0.71385997533798218 0.037452995777130127
vt 0.96598100662231445 0
vt 1 0.017370998859405518
vt 0.96329700946807861 0.050414979457855225
vt 0.9981200098991394 0
vt 1 0
vt 0.75546401739120483 0
vt 0.700652003288269 0.28681397438049316
vt 1 0.052314996719360352
vt 0.45127001404762268 0.27377402782440186
vt 0.43811801075935364 0.52305600047111511
vt 0.17564000189304352 0.75921599566936493
vt 0.6874960064888 0.53610101342201233
vt 0.95007902383804321 0.29978901147842407
vt 1 0.30237799882888794
vt 1 0.2548530101776123
vt 1 0.49231100082397461
vt 0.93691098690032959 0.54909300804138184
vt 0.67437100410461426 0.78534300625324249
vt 1 0.552370011806488
vt 0.923783004283905 0.79833999276161194
vt 1 0.72975099086761475
vt 0.42499101161956787 0.77230100333690643
vt 0 0.7499920129776001
vt 0 0.91723799705505371
vt 0.17191100120544434 1
vt 0.16296899318695068 1
vt 0.0017790000420063734 1
vt 0 0.99990699999762
vt 0.14747600257396698 1
vt 0 1
vt 0.41300800442695618 1
vt 0.66307401657104492 1
vt 0.6996769905090332 1
vt 0.43580299615859985 1
vt 0.91317301988601685 1
vt 1 1
vt 1 0.88289999961853027
vt 0.98432600498199463 1
vt 1 0.8023030012845993
vt 0 0
vt 0 1.5974044799804688E-05
vt 0.20495100319385529 0
vt 0 0.50005701184272766
vt 0 0.67980900406837463
vt 0 0.036238014698028564
vt 0 0.2500770092010498
vt 0 0.300262987613678
vt 0.2277120053768158 0
vt 0.21573400497436523 0
vt 0.49160099029541016 0
vt 0.46577799320220947 0
vt 0.71585500240325928 0
vt 0.9981200098991394 0
vt 0.96598100662231445 0
vt 1 0.017370998859405518
vt 1 0
vt 0.75546401739120483 0
vt 1 0.052314996719360352
vt 1 0.30237799882888794
vt 1 0.2548530101776123
vt 1 0.49231100082397461
vt 1 0.72975099086761475
vt 1 0.552370011806488
vt 0 0.7499920129776001
vt 0 0.91723799705505371
vt 0.16296899318695068 1
vt 0.17191100120544434 1
vt 0 0.99990699999762
vt 0.0017790000420063734 1
vt 0.14747600257396698 1
vt 0 1
vt 0.41300800442695618 1
vt 0.66307401657104492 1
vt 0.6996769905090332 1
vt 0.43580299615859985 1
vt 0.91317301988601685 1
vt 1 1
vt 1 0.88289999961853027
vt 0.98432600498199463 1
vt 1 0.8023030012845993
vn -0.2834010124206543 0.95810902118682861 -0.041352000087499619
vn -0.053020000457763672 0.99701899290084839 -0.056046001613140106
vn -0.0466339997947216 0.99733501672744751 -0.056099999696016312
vn -0.27534499764442444 0.959991991519928 -0.051003001630306244
vn 0.0063169999048113823 0.99848198890686035 -0.054715000092983246
vn 0.0092369997873902321 0.99833697080612183 -0.056894000619649887
vn 0.03332899883389473 0.99801898002624512 -0.053358998149633408
vn -0.045205000787973404 0.99731701612472534 -0.057571001350879669
vn -0.033165000379085541 0.99769097566604614 -0.059262998402118683
vn -0.03666599839925766 0.99752402305603027 -0.060010001063346863
vn -0.010982000268995762 0.99822902679443359 -0.058463998138904572
vn -0.10896500200033188 0.9856029748916626 -0.12928099930286408
vn -0.12737199664115906 0.990522027015686 -0.051403999328613281
vn -0.14705200493335724 0.987945020198822 -0.048367999494075775
vn -0.059590000659227371 0.99661397933959961 -0.056650999933481216
vn -0.12762300670146942 0.99058300256729126 -0.049573000520467758
vn -0.14850600063800812 0.98840999603271484 -0.031477998942136765
vn -0.057739999145269394 0.99809998273849487 0.021485999226570129
vn -0.12738800048828125 0.97691398859024048 0.17149899899959564
vn -0.12517499923706055 0.9722440242767334 0.19766999781131744
vn -0.058733999729156494 0.984736979007721 0.16383899748325348
vn -0.12534999847412109 0.9722520112991333 0.1975180059671402
vn -0.12535899877548218 0.97223097085952759 0.19761499762535095
vn -0.12843799591064453 0.97785800695419312 0.16521699726581574
vn -0.020592000335454941 0.99859702587127686 0.048783000558614731
vn -0.060984998941421509 0.978721022605896 0.19592499732971191
vn -0.027161000296473503 0.99788200855255127 -0.059115000069141388
vn 0.02005000039935112 0.99821102619171143 -0.056327998638153076
vn 0.042601000517606735 0.99767798185348511 -0.053130999207496643
vn 0.027636000886559486 0.99869698286056519 0.0428990013897419
vn -0.011421999894082546 0.98819500207901 0.15277199447155
vn -0.0085610002279281616 0.983502984046936 0.18069100379943848
vn -0.051410999149084091 0.97962599992752075 0.19414100050926209
vn 0.0031950001139193773 0.98400598764419556 0.17810900509357452
vn 0.033468998968601227 0.98975801467895508 0.13877899944782257
vn 0.052060998976230621 0.99780702590942383 0.040869001299142838
vn 0.043696999549865723 0.98566597700119019 0.16294799745082855
vn 0.058642998337745667 0.98866301774978638 0.1382250040769577
vn 0.04782399907708168 0.98596101999282837 0.15998099744319916
vn 0.045986998826265335 0.99751698970794678 -0.053332999348640442
vn 0.0458730012178421 0.997573971748352 -0.052361998707056046
vn 0.050889000296592712 0.997340977191925 -0.052159998565912247
vn 0.051481999456882477 0.99729001522064209 -0.052558999508619308
vn 0.051148999482393265 0.99732297658920288 -0.052260000258684158
vn 0.051167998462915421 0.99734002351760864 -0.051908001303672791
vn 0.0511230006814003 0.99734401702880859 -0.051885001361370087
vn 0.051167998462915421 0.99734002351760864 -0.051906999200582504
vn 0.011464999988675118 0.99869000911712646 -0.04986799880862236
vn 0.051874998956918716 0.99726599454879761 -0.052622999995946884
vn 0.057952001690864563 0.99712097644805908 0.048900000751018524
vn 0.0668959990143776 0.98880797624588013 0.1333560049533844
vn 0.052560999989509583 0.99724298715591431 -0.052374999970197678
vn 0.067989997565746307 0.98795801401138306 0.13898499310016632
vn 0.06861799955368042 0.98576802015304565 0.1534699946641922
vn 0.069179996848106384 0.98582398891448975 0.15285900235176086
vn 0.06861799955368042 0.98576802015304565 0.1534699946641922
vn 0.056127000600099564 0.98666000366210938 0.15281200408935547
vn -0.2834010124206543 0.95810902118682861 -0.041352000087499619
vn -0.0466339997947216 0.99733501672744751 -0.056099999696016312
vn -0.27534499764442444 0.959991991519928 -0.051003001630306244
vn 0.0063169999048113823 0.99848198890686035 -0.054715000092983246
vn 0.03332899883389473 0.99801898002624512 -0.053358998149633408
vn -0.045205000787973404 0.99731701612472534 -0.057571001350879669
vn -0.03666599839925766 0.99752402305603027 -0.060010001063346863
vn -0.010982000268995762 0.99822902679443359 -0.058463998138904572
vn -0.12737199664115906 0.990522027015686 -0.051403999328613281
vn -0.10896500200033188 0.9856029748916626 -0.12928099930286408
vn -0.14705200493335724 0.987945020198822 -0.048367999494075775
vn -0.12762300670146942 0.99058300256729126 -0.049573000520467758
vn -0.14850600063800812 0.98840999603271484 -0.031477998942136765
vn -0.12534999847412109 0.9722520112991333 0.1975180059671402
vn -0.12738800048828125 0.97691398859024048 0.17149899899959564
vn -0.12517499923706055 0.9722440242767334 0.19766999781131744
vn -0.12535899877548218 0.97223097085952759 0.19761499762535095
vn -0.12843799591064453 0.97785800695419312 0.16521699726581574
vn -0.060984998941421509 0.978721022605896 0.19592499732971191
vn -0.0085610002279281616 0.983502984046936 0.18069100379943848
vn -0.051410999149084091 0.97962599992752075 0.19414100050926209
vn 0.0031950001139193773 0.98400598764419556 0.17810900509357452
vn 0.04782399907708168 0.98596101999282837 0.15998099744319916
vn 0.043696999549865723 0.98566597700119019 0.16294799745082855
vn 0.0458730012178421 0.997573971748352 -0.052361998707056046
vn 0.050889000296592712 0.997340977191925 -0.052159998565912247
vn 0.051148999482393265 0.99732297658920288 -0.052260000258684158
vn 0.051481999456882477 0.99729001522064209 -0.052558999508619308
vn 0.0511230006814003 0.99734401702880859 -0.051885001361370087
vn 0.051167998462915421 0.99734002351760864 -0.051908001303672791
vn 0.051167998462915421 0.99734002351760864 -0.051906999200582504
vn 0.011464999988675118 0.99869000911712646 -0.04986799880862236
vn 0.051874998956918716 0.99726599454879761 -0.052622999995946884
vn 0.057952001690864563 0.99712097644805908 0.048900000751018524
vn 0.0668959990143776 0.98880797624588013 0.1333560049533844
vn 0.052560999989509583 0.99724298715591431 -0.052374999970197678
vn 0.067989997565746307 0.98795801401138306 0.13898499310016632
vn 0.06861799955368042 0.98576802015304565 0.1534699946641922
vn 0.069179996848106384 0.98582398891448975 0.15285900235176086
vn 0.06861799955368042 0.98576802015304565 0.1534699946641922
vn 0.056127000600099564 0.98666000366210938 0.15281200408935547
f 1/1/1 2/2/2 3/3/3
f 1/1/1 4/4/4 2/2/2
f 5/5/5 6/6/6 7/7/7
f 8/8/8 9/9/9 10/10/10
f 11/11/11 6/6/6 5/5/5
f 12/12/12 13/13/13 2/2/2
f 14/14/14 15/15/15 16/16/16
f 13/13/13 15/15/15 2/2/2
f 13/13/13 16/16/16 15/15/15
f 2/2/2 15/15/15 9/9/9
f 15/15/15 17/17/17 18/18/18
f 15/15/15 14/14/14 17/17/17
f 4/4/4 12/12/12 2/2/2
f 19/19/19 20/20/20 21/21/21
f 19/19/19 22/22/22 20/20/20
f 22/22/22 23/23/23 20/20/20
f 24/24/24 21/21/21 18/18/18
f 24/24/24 19/19/19 21/21/21
f 18/18/18 21/21/21 25/25/25
f 20/20/20 26/26/26 21/21/21
f 17/17/17 24/24/24 18/18/18
f 27/27/27 15/15/15 18/18/18
f 18/18/18 25/25/25 27/27/27
f 9/9/9 27/27/27 6/6/6
f 28/28/28 27/27/27 25/25/25
f 27/27/27 28/28/28 6/6/6
f 28/28/28 29/29/29 6/6/6
f 28/28/28 25/25/25 30/30/30
f 11/11/11 9/9/9 6/6/6
f 11/11/11 10/10/10 9/9/9
f 21/21/21 31/31/31 25/25/25
f 32/32/32 31/31/31 33/33/33
f 21/21/21 33/33/33 31/31/31
f 21/21/21 26/26/26 33/33/33
f 31/31/31 34/34/34 35/35/35
f 31/31/31 32/32/32 34/34/34
f 35/35/35 30/30/30 31/31/31
f 35/35/35 36/36/36 30/30/30
f 37/37/37 38/38/38 35/35/35
f 37/37/37 39/39/39 38/38/38
f 37/37/37 35/35/35 34/34/34
f 25/25/25 31/31/31 30/30/30
f 28/28/28 30/30/30 40/40/40
f 15/15/15 27/27/27 9/9/9
f 8/8/8 2/2/2 9/9/9
f 8/8/8 3/3/3 2/2/2
f 7/7/7 29/29/29 41/41/41
f 7/7/7 6/6/6 29/29/29
f 41/41/41 29/29/29 42/42/42
f 43/43/43 29/29/29 40/40/40
f 43/43/43 44/44/44 29/29/29
f 42/42/42 45/45/45 46/46/46
f 42/42/42 47/47/47 45/45/45
f 47/47/47 29/29/29 44/44/44
f 47/47/47 42/42/42 29/29/29
f 48/48/48 46/46/46 45/45/45
f 43/43/43 40/40/40 49/49/49
f 28/28/28 40/40/40 29/29/29
f 35/35/35 38/38/38 36/36/36
f 50/50/50 38/38/38 51/51/51
f 50/50/50 36/36/36 38/38/38
f 50/50/50 52/52/52 36/36/36
f 53/53/53 51/51/51 38/38/38
f 49/49/49 36/36/36 52/52/52
f 49/49/49 40/40/40 36/36/36
f 54/54/54 38/38/38 55/55/55
f 54/54/54 56/56/56 38/38/38
f 56/56/56 53/53/53 38/38/38
f 30/30/30 36/36/36 40/40/40
f 55/55/55 38/38/38 57/57/57
f 39/39/39 57/57/57 38/38/38
f 1/1/1 3/3/3 58/58/58
f 59/59/59 58/58/58 3/3/3
f 4/4/4 1/1/1 60/60/60
f 58/58/58 60/60/60 1/1/1
f 5/5/5 7/7/7 61/61/61
f 62/62/62 61/61/61 7/7/7
f 8/8/8 10/10/10 63/63/63
f 64/64/64 63/63/63 10/10/10
f 11/11/11 5/5/5 65/65/65
f 61/61/61 65/65/65 5/5/5
f 13/13/13 12/12/12 66/66/66
f 67/67/67 66/66/66 12/12/12
f 14/14/14 16/16/16 68/68/68
f 69/69/69 68/68/68 16/16/16
f 16/16/16 13/13/13 69/69/69
f 66/66/66 69/69/69 13/13/13
f 17/17/17 14/14/14 70/70/70
f 68/68/68 70/70/70 14/14/14
f 12/12/12 4/4/4 67/67/67
f 60/60/60 67/67/67 4/4/4
f 22/22/22 19/19/19 71/71/71
f 72/72/72 71/71/71 19/19/19
f 20/20/20 23/23/23 73/73/73
f 74/74/74 73/73/73 23/23/23
f 23/23/23 22/22/22 74/74/74
f 71/71/71 74/74/74 22/22/22
f 19/19/19 24/24/24 72/72/72
f 75/75/75 72/72/72 24/24/24
f 26/26/26 20/20/20 76/76/76
f 73/73/73 76/76/76 20/20/20
f 24/24/24 17/17/17 75/75/75
f 70/70/70 75/75/75 17/17/17
f 10/10/10 11/11/11 64/64/64
f 65/65/65 64/64/64 11/11/11
f 32/32/32 33/33/33 77/77/77
f 78/78/78 77/77/77 33/33/33
f 33/33/33 26/26/26 78/78/78
f 76/76/76 78/78/78 26/26/26
f 34/34/34 32/32/32 79/79/79
f 77/77/77 79/79/79 32/32/32
f 39/39/39 37/37/37 80/80/80
f 81/81/81 80/80/80 37/37/37
f 37/37/37 34/34/34 81/81/81
f 79/79/79 81/81/81 34/34/34
f 3/3/3 8/8/8 59/59/59
f 63/63/63 59/59/59 8/8/8
f 7/7/7 41/41/41 62/62/62
f 82/82/82 62/62/62 41/41/41
f 41/41/41 42/42/42 82/82/82
f 83/83/83 82/82/82 42/42/42
f 44/44/44 43/43/43 84/84/84
f 85/85/85 84/84/84 43/43/43
f 42/42/42 46/46/46 83/83/83
f 86/86/86 83/83/83 46/46/46
f 45/45/45 47/47/47 87/87/87
f 88/88/88 87/87/87 47/47/47
f 47/47/47 44/44/44 88/88/88
f 84/84/84 88/88/88 44/44/44
f 46/46/46 48/48/48 86/86/86
f 89/89/89 86/86/86 48/48/48
f 48/48/48 45/45/45 89/89/89
f 87/87/87 89/89/89 45/45/45
f 43/43/43 49/49/49 85/85/85
f 90/90/90 85/85/85 49/49/49
f 50/50/50 51/51/51 91/91/91
f 92/92/92 91/91/91 51/51/51
f 52/52/52 50/50/50 93/93/93
f 91/91/91 93/93/93 50/50/50
f 51/51/51 53/53/53 92/92/92
f 94/94/94 92/92/92 53/53/53
f 49/49/49 52/52/52 90/90/90
f 93/93/93 90/90/90 52/52/52
f 54/54/54 55/55/55 95/95/95
f 96/96/96 95/95/95 55/55/55
f 56/56/56 54/54/54 97/97/97
f 95/95/95 97/97/97 54/54/54
f 53/53/53 56/56/56 94/94/94
f 97/97/97 94/94/94 56/56/56
f 55/55/55 57/57/57 96/96/96
f 98/98/98 96/96/96 57/57/57
f 57/57/57 39/39/39 98/98/98
f 80/80/80 98/98/98 39/39/39
