mtllib m0333012.mtl
usemtl material0
v -192 7.2361559867858887 192
v -189.79786682128906 7.1237931251525879 194.02894592285156
v -189.9051513671875 7.0885128974914551 192
v -192 7.2626538276672363 193.25492858886719
v -192 7.2814431190490723 194.14474487304688
v -175.16639697551727 6.5449361801147461 192
v -173.84500098228455 6.6542658805847168 193.18798828125
v -173.90794396400452 6.6077179908752441 192
v -183.61357116699219 6.3867659568786621 192
v -181.82466077804565 6.2247438430786133 193.6107177734375
v -181.90995788574219 6.17110013961792 192
v -166.72044372558594 6.5609631538391113 192
v -165.86775207519531 6.5857319831848145 192.76695346832275
v -165.908447265625 6.5465240478515625 192
v -192 7.02546501159668 202.14530897140503
v -192 6.85683012008667 204.92163109779358
v -189.37802124023438 6.8552632331848145 202.00736999511719
v -188.95838928222656 6.5447230339050293 209.98594701290131
v -181.40425109863281 6.0748639106750488 201.5887451171875
v -192 7.196415901184082 196.47671508789063
v -192 6.6648669242858887 210.14617896080017
v -192 5.8247179985046387 218.1485595703125
v -192 5.55349588394165 221.81021118164063
v -188.54122924804688 5.7268481254577637 217.96621704101563
v -192 6.3064532279968262 213.36613512039185
v -180.98182678222656 6.3390212059021 209.56536900997162
v -188.22499084472656 5.2719531059265137 224
v -180.56452894210815 5.5460481643676758 217.54556274414063
v -186.37220764160156 5.2227277755737305 224
v -192 5.3920559883117676 224
v -173.42334008216858 6.7621951103210449 201.16514587402344
v -165.44529724121094 6.8577189445495605 200.74356079101563
v -160 6.4167690277099609 192.45762634277344
v -160 6.4960899353027344 194.69050598144531
v -165.02500915527344 6.6809649467468262 208.72166401147842
v -173.00364708900452 6.4638609886169434 209.14367699623108
v -172.58634901046753 5.6713762283325195 217.12387084960938
v -164.60697937011719 6.0417990684509277 216.70133972167969
v -160 6.6017937660217285 208.45655798912048
v -160 6.35475492477417 211.58143591880798
v -172.22648596763611 5.0482401847839355 224
v -173.39486694335938 5.0355181694030762 224
v -180.2274169921875 4.8284797668457031 224
v -160 6.7600560188293457 203.13665819168091
v -160 6.8182568550109863 200.45613098144531
v -164.94320678710938 5.71472692489624 224
v -164.22315979003906 5.7465219497680664 224
v -165.17782592773438 6.5331292152404785 192
v -160 6.4072952270507812 192.24620056152344
v -160 6.3962631225585938 192
v -160 6.2257790565490723 216.45748901367188
v -160 5.8754839897155762 220.71212768554688
v -160 5.86433219909668 220.84757995605469
v -160 5.73716402053833 224
vt 0.00092100002802908421 0.03793799877166748
vt 0.069250002503395081 0.096460998058319092
vt 0.063932999968528748 0.035681009292602539
vt 0.0022140000946819782 0.075603008270263672
vt 0.003131000092253089 0.10230898857116699
vt 0.50808101892471313 0.020546019077301025
vt 0.54876899719238281 0.052872002124786377
vt 0.54468202590942383 0.01735997200012207
vt 0.25387498736381531 0.028707027435302734
vt 0.30953198671340942 0.075070023536682129
vt 0.30539700388908386 0.026791989803314209
vt 0.76007002592086792 0.00399702787399292
vt 0.787568986415863 0.030434012413024902
vt 0.78711098432540894 0.0073490142822265625
vt 0.012798000127077103 0.34258401393890381
vt 0.016312999650835991 0.42602002620697021
vt 0.091471001505851746 0.33544200658798218
vt 0.11378700286149979 0.57446399331092834
vt 0.33139100670814514 0.31397998332977295
vt 0.005824000108987093 0.17231899499893189
vt 0.022714000195264816 0.58285701274871826
vt 0.0322830006480217 0.8239160031080246
vt 0.036577999591827393 0.934070996940136
vt 0.13590000569820404 0.814629003405571
vt 0.026993000879883766 0.6800369918346405
vt 0.35272499918937683 0.55298700928688049
vt 0.15249399840831757 0.99579200008884072
vt 0.37445101141929626 0.79310999810695648
vt 0.20810200273990631 0.99368399986997247
vt 0.03917200118303299 0.99996000000101048
vt 0.57119899988174438 0.29168397188186646
vt 0.81004101037979126 0.26934397220611572
vt 0.96327298879623413 0.013777017593383789
vt 0.96601498126983643 0.080802977085113525
vt 0.83154100179672241 0.509128987789154
vt 0.59254401922225952 0.53077900409698486
vt 0.613510012626648 0.77096900343894958
vt 0.8526579737663269 0.748878002166748
vt 0.98207002878189087 0.49600499868392944
vt 0.98542600870132446 0.59005901217460632
vt 0.63207501173019409 0.97771400026977062
vt 0.59701997041702271 0.97909400053322315
vt 0.3928619921207428 0.987278999760747
vt 0.97614502906799316 0.33599501848220825
vt 0.97351300716400146 0.25553798675537109
vt 0.85074698925018311 0.96845800057053566
vt 0.87237000465393066 0.96760899946093559
vt 0.80904000997543335 0.0080540180206298828
vt 0.9629560112953186 0.0074309706687927246
vt 0.96258300542831421 4.100799560546875E-05
vt 0.99072098731994629 0.736413985490799
vt 0.9950910210609436 0.86451299488544464
vt 0.99553900957107544 0.86822299659252167
vt 0.99907898902893066 0.96288200095295906
vn 0.0702890008687973 0.99730402231216431 -0.02105800062417984
vn 0.091104000806808472 0.99583297967910767 0.004120000172406435
vn 0.089914999902248383 0.9957050085067749 -0.022067999467253685
vn 0.0702890008687973 0.99730402231216431 -0.02105800062417984
vn 0.071854002773761749 0.99737799167633057 0.0085920002311468124
vn -0.05403900146484375 0.99803400039672852 -0.031741999089717865
vn -0.026941999793052673 0.99943399429321289 -0.020147999748587608
vn -0.022617999464273453 0.999023973941803 -0.03794499859213829
vn 0.11424200236797333 0.99308598041534424 -0.026985999196767807
vn 0.029152000322937965 0.99956297874450684 -0.0049609998241066933
vn 0.0382080003619194 0.99864697456359863 -0.035282999277114868
vn 0.0091279996559023857 0.99905902147293091 -0.042412001639604568
vn 0.014611000195145607 0.99915897846221924 -0.0383169986307621
vn 0.018021000549197197 0.9984850287437439 -0.052000001072883606
vn 0.067106999456882477 0.99669599533081055 0.045768000185489655
vn 0.047561999410390854 0.9979739785194397 0.042256001383066177
vn 0.081478998064994812 0.99612200260162354 0.0331839993596077
vn 0.043366000056266785 0.99722200632095337 0.060568999499082565
vn 0.0099659999832510948 0.99993199110031128 0.006058999802917242
vn 0.067946001887321472 0.997189998626709 0.03154199942946434
vn 0.043294001370668411 0.99625700712203979 0.074816003441810608
vn 0.032738998532295227 0.99570602178573608 0.086588002741336823
vn 0.031803000718355179 0.99678301811218262 0.073567003011703491
vn 0.030280999839305878 0.99578100442886353 0.08661700040102005
vn 0.036127999424934387 0.99406802654266357 0.10258100181818008
vn 0.0064210002310574055 0.99943298101425171 0.033045999705791473
vn 0.029009999707341194 0.99686300754547119 0.07363399863243103
vn 0.010494999587535858 0.99521201848983765 0.097176000475883484
vn 0.036469001322984695 0.9959070086479187 0.082702003419399261
vn 0.031713001430034637 0.9967920184135437 0.073486998677253723
vn -0.047694999724626541 0.9988129734992981 0.009933999739587307
vn -0.00012799999967683107 0.99996298551559448 -0.00865000020712614
vn 0.026637999340891838 0.99883300065994263 -0.040277000516653061
vn 0.021632000803947449 0.99895697832107544 -0.040220998227596283
vn -0.0042590000666677952 0.99839001893997192 0.056559998542070389
vn -0.026993999257683754 0.99778801202774048 0.060756001621484756
vn -0.030183000490069389 0.99570900201797485 0.087476000189781189
vn -0.028002999722957611 0.997825026512146 0.059668999165296555
vn 0.018550999462604523 0.99839699268341064 0.053470999002456665
vn 0.0062609999440610409 0.99775898456573486 0.066621996462345123
vn -0.05203000083565712 0.99432098865509033 0.092831999063491821
vn -0.015359999611973763 0.99528300762176514 0.095787003636360168
vn 0.015190999954938889 0.993848979473114 0.10969699919223785
vn 0.010471999645233154 0.99966698884963989 0.023578999564051628
vn 0.0062770000658929348 0.99981200695037842 -0.018357999622821808
vn -0.055025000125169754 0.99697601795196533 0.054877001792192459
vn -0.02017500065267086 0.9989359974861145 0.041473999619483948
vn 0.024238999933004379 0.998615026473999 -0.046686999499797821
vn 0.026396999135613441 0.99865001440048218 -0.044748000800609589
vn 0.026397999376058578 0.99865001440048218 -0.0447469986975193
vn -0.037032000720500946 0.99789398908615112 0.053261000663042068
vn -0.035433001816272736 0.99600201845169067 0.082001000642776489
vn -0.0078309997916221619 0.998645007610321 0.051444999873638153
vn 0.0022140000946819782 0.99918502569198608 0.040307000279426575
f 1/1/1 2/2/2 3/3/3
f 1/1/1 4/4/4 2/2/2
f 4/4/4 5/5/5 2/2/2
f 6/6/6 7/7/7 8/8/8
f 9/9/9 10/10/10 11/11/11
f 12/12/12 13/13/13 14/14/14
f 15/15/15 16/16/16 17/17/17
f 10/10/10 2/2/2 17/17/17
f 3/3/3 10/10/10 9/9/9
f 3/3/3 2/2/2 10/10/10
f 17/17/17 18/18/18 19/19/19
f 15/15/15 2/2/2 20/20/20
f 15/15/15 17/17/17 2/2/2
f 5/5/5 20/20/20 2/2/2
f 17/17/17 21/21/21 18/18/18
f 17/17/17 16/16/16 21/21/21
f 22/22/22 23/23/23 24/24/24
f 22/22/22 18/18/18 25/25/25
f 22/22/22 24/24/24 18/18/18
f 24/24/24 26/26/26 18/18/18
f 27/27/27 28/28/28 24/24/24
f 27/27/27 29/29/29 28/28/28
f 30/30/30 24/24/24 23/23/23
f 30/30/30 27/27/27 24/24/24
f 21/21/21 25/25/25 18/18/18
f 19/19/19 10/10/10 17/17/17
f 7/7/7 19/19/19 31/31/31
f 19/19/19 7/7/7 10/10/10
f 13/13/13 31/31/31 32/32/32
f 31/31/31 13/13/13 7/7/7
f 33/33/33 32/32/32 34/34/34
f 33/33/33 13/13/13 32/32/32
f 32/32/32 31/31/31 35/35/35
f 12/12/12 7/7/7 13/13/13
f 12/12/12 8/8/8 7/7/7
f 31/31/31 19/19/19 36/36/36
f 36/36/36 26/26/26 28/28/28
f 26/26/26 36/36/36 19/19/19
f 36/36/36 28/28/28 37/37/37
f 28/28/28 26/26/26 24/24/24
f 35/35/35 37/37/37 38/38/38
f 37/37/37 35/35/35 36/36/36
f 39/39/39 38/38/38 40/40/40
f 39/39/39 35/35/35 38/38/38
f 28/28/28 41/41/41 37/37/37
f 28/28/28 42/42/42 41/41/41
f 31/31/31 36/36/36 35/35/35
f 43/43/43 28/28/28 29/29/29
f 44/44/44 32/32/32 35/35/35
f 44/44/44 45/45/45 32/32/32
f 26/26/26 19/19/19 18/18/18
f 6/6/6 10/10/10 7/7/7
f 6/6/6 11/11/11 10/10/10
f 46/46/46 38/38/38 37/37/37
f 46/46/46 47/47/47 38/38/38
f 48/48/48 14/14/14 13/13/13
f 33/33/33 48/48/48 13/13/13
f 33/33/33 49/49/49 48/48/48
f 49/49/49 50/50/50 48/48/48
f 45/45/45 34/34/34 32/32/32
f 51/51/51 40/40/40 38/38/38
f 51/51/51 38/38/38 52/52/52
f 52/52/52 38/38/38 53/53/53
f 39/39/39 44/44/44 35/35/35
f 46/46/46 37/37/37 41/41/41
f 42/42/42 28/28/28 43/43/43
f 54/54/54 38/38/38 47/47/47
f 54/54/54 53/53/53 38/38/38
