mtllib m03333030.mtl
usemtl material0
v -95.8364028930664 3.8623290061950684 80
v -96 3.8005900382995605 81.089508056640625
v -95.7798228263855 3.7985849380493164 81.077888011932373
v -96 3.8611879348754883 80.053604125976562
v -96 3.8643240928649902 80
v -94.810066223144531 3.7870330810546875 80
v -91.792197942733765 3.5615880489349365 80.8680567741394
v -91.837806940078735 3.6033639907836914 80
v -88.533080995082855 3.6827518939971924 80
v -87.802886992692947 3.667841911315918 80.657059192657471
v -87.837509006261826 3.6819329261779785 80
v -96 3.4795629978179932 84.681595087051392
v -95.571006774902344 3.4391119480133057 85.06787109375
v -96 3.4385530948638916 85.09052300453186
v -91.582153081893921 3.4535748958587646 84.857184886932373
v -96 3.2241759300231934 88.4828949868679
v -95.361670970916748 3.1865649223327637 89.057487010955811
v -87.593048006296158 3.5183260440826416 84.646323919296265
v -83.813217163085938 3.850261926651001 80.44580078125
v -87.38373601436615 3.2618730068206787 88.635955989360809
v -91.372864007949829 3.19126296043396 88.846840023994446
v -87.211616992950439 3.7293078899383545 80
v -83.836631774902344 3.8737890720367432 80
v -83.412086009979248 3.8712410926818848 80
v -80 3.8383469581604004 80.018288135528564
v -80 3.8257989883422852 80.244513988494873
v -80 3.8393609523773193 80
v -80 3.8094470500946045 80.430229187011719
v -83.6043701171875 3.4966480731964111 84.435767889022827
v -80 3.5794069766998291 84.245171070098877
v -80 3.3723111152648926 87.679558008909225
v -83.395133972167969 3.2240819931030273 88.425453007221222
v -96 3.1341309547424316 89.766868948936462
v -96 3.1888599395751953 89.091187000274658
v -96 2.993980884552002 93.091681957244873
v -95.151885986328125 3.0258090496063232 93.046791076660156
v -96 2.9518709182739258 93.989304065704346
v -94.997002124786377 2.8244080543518066 96
v -96 2.8136110305786133 96
v -91.162743091583252 3.0993540287017822 92.835906982421875
v -94.009963989257812 2.8390059471130371 96
v -87.174224972724915 3.0449659824371338 92.625457763671875
v -83.185370922088623 3.0589320659637451 92.4147720336914
v -86.996055960655212 3.0489959716796875 96
v -87.64623299241066 3.0577960014343262 96
v -90.99639892578125 2.9621670246124268 96
v -82.996231079101562 3.0338089466094971 96
v -86.411033987998962 3.0510749816894531 96
v -80 3.0303070545196533 92.246651172637939
v -82.611793994903564 3.0302228927612305 96
v -80 3.0247669219970703 93.0970458984375
v -80 3.3057610988616943 88.87480902671814
v -80 3.3327839374542236 88.245827004313469
v -80 2.9219310283660889 96
vt 0 0.010224997997283936
vt 0.068094000220298767 0
vt 0.067368000745773315 0.013760983943939209
vt 0.0033499998971819878 0
vt 0 0
vt 0 0.074370980262756348
vt 0.054253999143838882 0.26298797130584717
vt 0 0.26013702154159546
vt 0 0.46668201684951782
vt 0.0410659983754158 0.51232001185417175
vt 0 0.51015600562095642
vt 0.29260000586509705 0
vt 0.31674200296401978 0.02681201696395874
vt 0.31815800070762634 0
vt 0.30357399582862854 0.27611500024795532
vt 0.53018099069595337 0
vt 0.56609302759170532 0.039896011352539062
vt 0.29039499163627625 0.5254339873790741
vt 0.027862999588251114 0.76167400181293488
vt 0.53974699974060059 0.53851699829101562
vt 0.55292701721191406 0.28919601440429688
vt 0 0.54927399754524231
vt 0 0.76021100580692291
vt 0 0.78674499690532684
vt 0.001142999972216785 1
vt 0.015282000415027142 1
vt 0 1
vt 0.026889000087976456 1
vt 0.27723601460456848 0.774727001786232
vt 0.26532301306724548 1
vt 0.47997200489044189 1
vt 0.52659100294113159 0.78780399262905121
vt 0.61042898893356323 0
vt 0.56819897890090942 0
vt 0.81822997331619263 0
vt 0.81542402505874634 0.053007006645202637
vt 0.874330997467041 0
vt 1 0.0626869797706604
vt 1 0
vt 0.80224400758743286 0.30232900381088257
vt 1 0.12437701225280762
vt 0.78909099102020264 0.55161100625991821
vt 0.77592301368713379 0.800914004445076
vt 1 0.56274700164794922
vt 1 0.5221099853515625
vt 1 0.3127250075340271
vt 1 0.81273600459098816
vt 1 0.5993100106716156
vt 0.76541602611541748 1
vt 1 0.83676299452781677
vt 0.8185650110244751 1
vt 0.55467599630355835 1
vt 0.51536399126052856 1
vt 1 1
vn 0.05646200105547905 0.99683398008346558 0.055987000465393066
vn 0.013226999901235104 0.99681699275970459 0.0786219984292984
vn 0.058157999068498611 0.99527901411056519 0.077701002359390259
vn 0.012171000242233276 0.99821901321411133 0.058393999934196472
vn 0.012172999791800976 0.99821901321411133 0.058402001857757568
vn 0.06324400007724762 0.99692702293396 0.046215999871492386
vn 0.014302999712526798 0.99877899885177612 0.047283001244068146
vn 0.016591999679803848 0.99874800443649292 0.047194000333547592
vn -0.022105000913143158 0.99864000082015991 0.04722600057721138
vn -0.028258999809622765 0.9989209771156311 0.036851000040769577
vn -0.035199001431465149 0.99910902976989746 0.023281000554561615
vn 0.013104000128805637 0.99587899446487427 0.089736998081207275
vn 0.015064000152051449 0.997992992401123 0.0615059994161129
vn 0.0022400000598281622 0.99774801731109619 0.067033000290393829
vn -0.01143100019544363 0.998760998249054 0.0484439991414547
vn 0.0024510000366717577 0.9980350136756897 0.06260400265455246
vn -0.0032939999364316463 0.9986720085144043 0.051408000290393829
vn -0.0064380001276731491 0.99815899133682251 0.060304999351501465
vn -0.00954199954867363 0.997534990310669 0.069526001811027527
vn -0.00030399998649954796 0.99852597713470459 0.054283998906612396
vn -0.0074649997986853123 0.99885702133178711 0.04720199853181839
vn -0.045763999223709106 0.99759101867675781 0.0521400012075901
vn -0.03727399930357933 0.99781101942062378 0.054616998881101608
vn 0.0089739998802542686 0.99844300746917725 0.055059999227523804
vn 0.0093280002474784851 0.99842202663421631 0.055378001183271408
vn 0.010932999663054943 0.99623101949691772 0.08604700118303299
vn 0.0093289995566010475 0.99842298030853271 0.055358998477458954
vn -0.018302999436855316 0.99794197082519531 0.061461001634597778
vn -0.00532200001180172 0.99731898307800293 0.072988003492355347
vn -0.019732000306248665 0.99799197912216187 0.060178998857736588
vn -0.020937999710440636 0.99788600206375122 0.061514999717473984
vn -0.0034799999557435513 0.99841398000717163 0.056194998323917389
vn -0.027961999177932739 0.99842500686645508 0.048636998981237412
vn 0.0072800000198185444 0.99752300977706909 0.069955997169017792
vn -0.035213001072406769 0.99846899509429932 0.042665001004934311
vn -0.012031000107526779 0.99898099899291992 0.043494001030921936
vn -0.014136999845504761 0.9977489709854126 0.065549999475479126
vn -0.013797000050544739 0.99753797054290771 0.068752996623516083
vn -0.010738999582827091 0.99758702516555786 0.0685959979891777
vn -0.00990500021725893 0.99931001663208008 0.035785999149084091
vn -0.034368999302387238 0.9980970025062561 0.051197998225688934
vn 0.0076480000279843807 0.99948501586914062 0.031151000410318375
vn -0.0018710000440478325 0.99960500001907349 0.028028000146150589
vn 0.0049789999611675739 0.999987006187439 -0.0014570000348612666
vn -0.021685000509023666 0.99907201528549194 0.037223000079393387
vn -0.034325998276472092 0.99839299917221069 0.045092001557350159
vn 0.0054879998788237572 0.9999619722366333 0.0067179999314248562
vn 0.003797000041231513 0.9999769926071167 0.005607999861240387
vn 0.011061999946832657 0.99915999174118042 0.039468001574277878
vn 0.02005700021982193 0.99966800212860107 0.016165999695658684
vn 0.034148000180721283 0.99900001287460327 0.028845999389886856
vn -0.012161999940872192 0.99820399284362793 0.058658000081777573
vn -0.028419999405741692 0.99738800525665283 0.066402003169059753
vn 0.041400998830795288 0.9985160231590271 0.035372000187635422
f 1/1/1 2/2/2 3/3/3
f 1/1/1 4/4/4 2/2/2
f 4/4/4 1/1/1 5/5/5
f 6/6/6 7/7/7 8/8/8
f 6/6/6 3/3/3 7/7/7
f 1/1/1 3/3/3 6/6/6
f 9/9/9 10/10/10 11/11/11
f 3/3/3 12/12/12 13/13/13
f 3/3/3 2/2/2 12/12/12
f 14/14/14 13/13/13 12/12/12
f 3/3/3 13/13/13 7/7/7
f 7/7/7 13/13/13 15/15/15
f 13/13/13 16/16/16 17/17/17
f 13/13/13 14/14/14 16/16/16
f 10/10/10 15/15/15 18/18/18
f 15/15/15 10/10/10 7/7/7
f 18/18/18 19/19/19 10/10/10
f 18/18/18 15/15/15 20/20/20
f 9/9/9 7/7/7 10/10/10
f 9/9/9 8/8/8 7/7/7
f 15/15/15 13/13/13 21/21/21
f 11/11/11 10/10/10 22/22/22
f 19/19/19 22/22/22 10/10/10
f 19/19/19 23/23/23 22/22/22
f 23/23/23 19/19/19 24/24/24
f 25/25/25 19/19/19 26/26/26
f 25/25/25 24/24/24 19/19/19
f 25/25/25 27/27/27 24/24/24
f 28/28/28 29/29/29 30/30/30
f 29/29/29 26/26/26 19/19/19
f 29/29/29 28/28/28 26/26/26
f 30/30/30 29/29/29 31/31/31
f 29/29/29 19/19/19 18/18/18
f 29/29/29 18/18/18 32/32/32
f 33/33/33 17/17/17 34/34/34
f 16/16/16 34/34/34 17/17/17
f 17/17/17 35/35/35 36/36/36
f 17/17/17 33/33/33 35/35/35
f 37/37/37 38/38/38 36/36/36
f 37/37/37 39/39/39 38/38/38
f 37/37/37 36/36/36 35/35/35
f 21/21/21 17/17/17 36/36/36
f 38/38/38 40/40/40 36/36/36
f 38/38/38 41/41/41 40/40/40
f 21/21/21 40/40/40 20/20/20
f 32/32/32 20/20/20 42/42/42
f 18/18/18 20/20/20 32/32/32
f 32/32/32 42/42/42 43/43/43
f 42/42/42 20/20/20 40/40/40
f 20/20/20 15/15/15 21/21/21
f 44/44/44 40/40/40 45/45/45
f 44/44/44 42/42/42 40/40/40
f 46/46/46 40/40/40 41/41/41
f 47/47/47 43/43/43 48/48/48
f 46/46/46 45/45/45 40/40/40
f 49/49/49 50/50/50 51/51/51
f 49/49/49 43/43/43 50/50/50
f 43/43/43 47/47/47 50/50/50
f 44/44/44 43/43/43 42/42/42
f 44/44/44 48/48/48 43/43/43
f 52/52/52 32/32/32 43/43/43
f 52/52/52 53/53/53 32/32/32
f 36/36/36 40/40/40 21/21/21
f 21/21/21 13/13/13 17/17/17
f 51/51/51 50/50/50 54/54/54
f 52/52/52 43/43/43 49/49/49
f 53/53/53 29/29/29 32/32/32
f 53/53/53 31/31/31 29/29/29
