mtllib m033333131.mtl
usemtl material0
v -8 1.0022870302200317 42.452393054962158
v -8 0.99126702547073364 42.626281976699829
v -7.8357429504394531 0.99887597560882568 42.4437290430069
v -8 0.85989099740982056 44.45278200507164
v -8 0.850534975528717 44.737396001815796
v -7.73117995262146 0.85187399387359619 44.43860998749733
v -8 1.1600309610366821 40.515223979949951
v -7.9402179718017578 1.1639430522918701 40.448787927627563
v -8 1.1699730157852173 40.451926946640015
v -8 0.75493299961090088 46.848598003387451
v -7.6263749599456787 0.75418698787689209 46.433322906494141
v -8 0.77072799205780029 46.452999114990234
v -5.9464830160140991 1.0302560329437256 40.343929052352905
v -5.8417860269546509 0.91059798002243042 42.338714957237244
v -7.5364589691162109 1.154263973236084 40
v -7.9635770320892334 1.2292920351028442 40
v -8 1.2332340478897095 40
v -8 1.1729240417480469 40.430846929550171
v -5.9645620584487915 1.0454989671707153 40
v -5.6370489597320557 1.0308370590209961 40
v -3.9527239985764027 0.901449978351593 40.239052057266235
v -5.7371389865875244 0.78068602085113525 44.333537995815277
v -7.1364049911499023 0.68901097774505615 48
v -5.6320359706878662 0.74354398250579834 46.328041076660156
v -7.5439848899841309 0.692031979560852 48
v -8 0.71188998222351074 48
v -1.9585990905761719 0.84734898805618286 40.13391900062561
v -3.9652630016207695 0.91731101274490356 40
v -2.1073329448699951 0.86056298017501831 40
v -3.8478329926729202 0.82134300470352173 42.233703970909119
v -1.9656200408935547 0.85682398080825806 40
v -1.8381109237670898 0.84754401445388794 40
v -3.7428619861602783 0.7573469877243042 44.228297993540764
v -5.2368459701538086 0.64658701419830322 48
v -5.5441989898681641 0.65961599349975586 48
v -3.638034999370575 0.66405397653579712 46.22299599647522
v -1.7495810985565186 0.53137397766113281 44.123755998909473
v -3.3373860120773315 0.55084401369094849 48
v -1.64467191696167 0.45468199253082275 46.118396997451782
v -3.5446879863739014 0.57311302423477173 48
v -1.853769063949585 0.75454699993133545 42.128612995147705
v 0 0.6267470121383667 40.03118896484375
v 0 0.62525898218154907 40.067931890487671
v 0 0.37761899828910828 44.031853001564741
v 0 0.3689039945602417 44.290206998586655
v -1.5460770130157471 0.31003999710083008 48
v 0 0.14967499673366547 46.032509088516235
v 0 0.12646499276161194 46.379086017608643
v -1.4382278919219971 0.28966200351715088 48
v 0 0.12499000132083893 46.401112079620361
v 0 0.50440102815628052 42.031512975692749
v 0 0.4889799952507019 42.179054021835327
v 0 0.3689039945602417 44.290206998586655
v 0 0.13372200727462769 48
v 0 0.62700200080871582 40.028827905654907
v 0 0.63011199235916138 40
vt 0.66683501005172729 0.01178199052810669
vt 0.64593499898910522 0.012534022331237793
vt 0.66855597496032715 0.03145301342010498
vt 0.42628398537635803 0.020500004291534424
vt 0.39212501049041748 0.02169501781463623
vt 0.42908000946044922 0.052703976631164551
vt 0.89996200799942017 0.003282010555267334
vt 0.90820401906967163 0.010164022445678711
vt 0.90764600038528442 0.002964019775390625
vt 0.13862299919128418 0.03068697452545166
vt 0.18996700644493103 0.07373201847076416
vt 0.18611299991607666 0.029013991355895996
vt 0.92830300331115723 0.24936902523040772
vt 0.6890450119972229 0.27047097682952881
vt 0.96359699964523315 0.056755006313323975
vt 0.96237802505493164 0.0047190189361572266
vt 0.9623749852180481 0.0007960200309753418
vt 0.910198986530304 0.0028629899024963379
vt 0.96952599287033081 0.24578297138214111
vt 0.97081798315048218 0.28509002923965454
vt 0.94850802421569824 0.48865097761154175
vt 0.44971001148223877 0.29163801670074463
vt 0.0039189998060464859 0.13904798030853272
vt 0.21085500717163086 0.31253200769424438
vt 0.0022330000065267086 0.09015500545501709
vt 0.00041499998769722879 0.035637974739074707
vt 0.969169020652771 0.72752800583839416
vt 0.97719097137451172 0.48610997200012207
vt 0.98466801643371582 0.70910599827766418
vt 0.70953500270843506 0.50949400663375854
vt 0.985243022441864 0.7261120080947876
vt 0.98575097322463989 0.74140399694442749
vt 0.47059199213981628 0.530443012714386
vt 0.011660999618470669 0.36711901426315308
vt 0.010412000119686127 0.33007800579071045
vt 0.23149499297142029 0.55149701237678528
vt 0.49074101448059082 0.77070599794387817
vt 0.019286999478936195 0.59562098979949951
vt 0.25175398588180542 0.791822999715805
vt 0.018462000414729118 0.57030099630355835
vt 0.73007398843765259 0.748420000076294
vt 0.98854100704193115 0.96362699940800667
vt 0.98412799835205078 0.96378200128674507
vt 0.50860202312469482 0.98104400001466274
vt 0.4775950014591217 0.98214299976825714
vt 0.025738999247550964 0.81246499717235565
vt 0.26706600189208984 0.99227500008419156
vt 0.22540999948978424 0.99386100005358458
vt 0.026074999943375587 0.82563400268554688
vt 0.2227649986743927 0.9939580000936985
vt 0.74854898452758789 0.972469000145793
vt 0.73123002052307129 0.97262899950146675
vt 0.4775950014591217 0.98214299976825714
vt 0.030923999845981598 0.99920399999246
vt 0.98882597684860229 0.96361500024795532
vt 0.99230301380157471 0.963468998670578
vn 0.024492999538779259 0.997111976146698 0.071892999112606049
vn 0.031302999705076218 0.99707502126693726 0.069725997745990753
vn 0.040157001465559006 0.99660497903823853 0.071872003376483917
vn 0.032490000128746033 0.99813699722290039 0.051649000495672226
vn 0.043099001049995422 0.99813401699066162 0.043249998241662979
vn 0.038524001836776733 0.99767100811004639 0.056283999234437943
vn 0.044270001351833344 0.994163990020752 0.0983780026435852
vn 0.09124399721622467 0.9902229905128479 0.10550999641418457
vn 0.10687799751758575 0.98345702886581421 0.14624999463558197
vn 0.04413200169801712 0.99830597639083862 0.0379129983484745
vn 0.030282000079751015 0.9987720251083374 0.039216000586748123
vn 0.046448998153209686 0.997992992401123 0.043030001223087311
vn 0.062862001359462738 0.99654597043991089 0.054260998964309692
vn 0.048872001469135284 0.99709600210189819 0.058402001857757568
vn 0.0967470034956932 0.99314302206039429 0.06562100350856781
vn 0.13761399686336517 0.981145977973938 0.13570399582386017
vn 0.10655800253152847 0.98470598459243774 0.13783900439739227
vn 0.10655900090932846 0.98470598459243774 0.13783499598503113
vn 0.057257000356912613 0.99750900268554688 0.041200999170541763
vn 0.061496999114751816 0.99647802114486694 0.05701100081205368
vn 0.046052999794483185 0.99752300977706909 0.053162001073360443
vn 0.026108000427484512 0.99885499477386475 0.04008999839425087
vn 0.010351000353693962 0.999068021774292 0.041898999363183975
vn 0.022230999544262886 0.99912601709365845 0.035399001091718674
vn 0.024829000234603882 0.99895697832107544 0.038325998932123184
vn 0.043476000428199768 0.99835699796676636 0.037321999669075012
vn 0.067432999610900879 0.99598199129104614 0.058928001672029495
vn 0.049706000834703445 0.99674201011657715 0.063524000346660614
vn 0.029495999217033386 0.997406005859375 0.065652996301651
vn 0.046597998589277267 0.99773800373077393 0.0484439991414547
vn 0.048562999814748764 0.9965059757232666 0.06795799732208252
vn 0.10495200008153915 0.98984599113464355 0.095866002142429352
vn 0.066327996551990509 0.99730801582336426 0.03127099946141243
vn 0.042578000575304031 0.99793398380279541 0.048117998987436295
vn 0.030782999470829964 0.99834901094436646 0.0484980009496212
vn 0.074570998549461365 0.99621099233627319 0.044744998216629028
vn 0.098783001303672791 0.99365699291229248 0.053730998188257217
vn 0.11371999979019165 0.9921720027923584 0.051598001271486282
vn 0.13852000236511231 0.988569974899292 0.059509001672267914
vn 0.076182000339031219 0.99598699808120728 0.046969000250101089
vn 0.084629997611045837 0.9934459924697876 0.076833002269268036
vn 0.11546300351619721 0.99052298069000244 0.074377000331878662
vn 0.11926800012588501 0.99183899164199829 0.04506399855017662
vn 0.089900001883506775 0.99483799934387207 0.047070000320672989
vn 0.08924499899148941 0.99544298648834229 0.033580001443624496
vn 0.16020500659942627 0.98478597402572632 0.067308001220226288
vn 0.18630500137805939 0.97790801525115967 0.094800002872943878
vn 0.18526099622249603 0.98049300909042358 0.06566300243139267
vn 0.16483700275421143 0.98521000146865845 0.0468050017952919
vn 0.16723500192165375 0.98469799757003784 0.049015000462532043
vn 0.13746799528598785 0.98715698719024658 0.081382997334003448
vn 0.12713600695133209 0.987529993057251 0.092851996421813965
vn 0.18715399503707886 0.97464501857757568 0.12263700366020203
vn 0.10779199749231339 0.99415898323059082 -0.005429999902844429
vn 0.11680199950933456 0.98742002248764038 0.10657499730587006
vn 0.11680400371551514 0.98742598295211792 0.10651899874210358
f 1/1/1 2/2/2 3/3/3
f 4/4/4 5/5/5 6/6/6
f 7/7/7 8/8/8 9/9/9
f 10/10/10 11/11/11 12/12/12
f 7/7/7 3/3/3 8/8/8
f 7/7/7 1/1/1 3/3/3
f 8/8/8 3/3/3 13/13/13
f 3/3/3 6/6/6 14/14/14
f 2/2/2 6/6/6 3/3/3
f 2/2/2 4/4/4 6/6/6
f 15/15/15 16/16/16 8/8/8
f 17/17/17 8/8/8 16/16/16
f 17/17/17 18/18/18 8/8/8
f 18/18/18 9/9/9 8/8/8
f 12/12/12 6/6/6 5/5/5
f 12/12/12 11/11/11 6/6/6
f 15/15/15 13/13/13 19/19/19
f 15/15/15 8/8/8 13/13/13
f 3/3/3 14/14/14 13/13/13
f 19/19/19 13/13/13 20/20/20
f 13/13/13 14/14/14 21/21/21
f 22/22/22 6/6/6 11/11/11
f 11/11/11 23/23/23 24/24/24
f 11/11/11 25/25/25 23/23/23
f 26/26/26 11/11/11 10/10/10
f 26/26/26 25/25/25 11/11/11
f 6/6/6 22/22/22 14/14/14
f 27/27/27 28/28/28 21/21/21
f 27/27/27 29/29/29 28/28/28
f 20/20/20 21/21/21 28/28/28
f 20/20/20 13/13/13 21/21/21
f 30/30/30 21/21/21 14/14/14
f 31/31/31 27/27/27 32/32/32
f 29/29/29 27/27/27 31/31/31
f 24/24/24 22/22/22 11/11/11
f 22/22/22 24/24/24 33/33/33
f 34/34/34 24/24/24 35/35/35
f 34/34/34 36/36/36 24/24/24
f 35/35/35 24/24/24 23/23/23
f 24/24/24 36/36/36 33/33/33
f 30/30/30 33/33/33 37/37/37
f 36/36/36 38/38/38 39/39/39
f 36/36/36 40/40/40 38/38/38
f 39/39/39 33/33/33 36/36/36
f 34/34/34 40/40/40 36/36/36
f 41/41/41 27/27/27 30/30/30
f 41/41/41 42/42/42 27/27/27
f 41/41/41 43/43/43 42/42/42
f 39/39/39 37/37/37 33/33/33
f 39/39/39 44/44/44 37/37/37
f 39/39/39 45/45/45 44/44/44
f 46/46/46 47/47/47 39/39/39
f 46/46/46 48/48/48 47/47/47
f 48/48/48 49/49/49 50/50/50
f 48/48/48 46/46/46 49/49/49
f 46/46/46 39/39/39 38/38/38
f 51/51/51 37/37/37 52/52/52
f 51/51/51 41/41/41 37/37/37
f 37/37/37 41/41/41 30/30/30
f 21/21/21 30/30/30 27/27/27
f 22/22/22 33/33/33 30/30/30
f 30/30/30 14/14/14 22/22/22
f 44/44/44 52/52/52 37/37/37
f 47/47/47 53/53/53 39/39/39
f 54/54/54 50/50/50 49/49/49
f 51/51/51 43/43/43 41/41/41
f 42/42/42 32/32/32 27/27/27
f 42/42/42 55/55/55 32/32/32
f 55/55/55 56/56/56 32/32/32
