mtllib m033101.mtl
usemtl material0
v -184.41574096679688 2.0610148906707764 448
v -192 2.5443480014801025 450.4359130859375
v -183.90080261230469 2.3793609142303467 457.72396850585938
v -192 2.4578509330749512 448
v -192 2.6585900783538818 458.15078735351562
v -192 2.0617179870605469 466.725341796875
v -192 1.6357020139694214 474.15341186523438
v -192 1.3360999822616577 483.6150209903717
v -183.06306457519531 1.4435850381851196 473.68206787109375
v -167.9482421875 1.85371994972229 456.8831787109375
v -182.22555541992188 0.46037200093269348 489.64028930664062
v -167.11192321777344 0.62595701217651367 472.84222412109375
v -192 0.9514700174331665 490.15496826171875
v -192 0.55953299999237061 496.04275512695312
v -181.38865661621094 -0.6469380259513855 505.59893798828125
v -175.15415954589844 1.2855839729309082 448
v -192 -0.088123999536037445 506.1575927734375
v -187.14768981933594 -0.62862700223922729 512
v -192 -0.23742300271987915 509.35232543945312
v -192 -0.36115598678588867 512
v -181.05171203613281 -0.8416290283203125 512
v -166.27468919754028 -0.41145399212837219 488.80062866210938
v -168.42100524902344 1.094588041305542 448
v -159.9566650018096 1.5031869411468506 448
v -165.43368482589722 -0.67600500583648682 504.75650024414062
v -171.95108032226563 -0.87273699045181274 512
v -150.31988525390625 -0.47379899024963379 487.95831298828125
v -165.052490234375 -0.91094601154327393 512
v -149.4788818359375 -0.73688501119613647 503.9141845703125
v -156.75416588783264 -0.95669299364089966 512
v -151.15725708007813 0.5338280200958252 472
v -151.99520874023438 1.4227290153503418 456.04205322265625
v -136.4237060546875 0.72014200687408447 448
v -144.04757690429688 0.80624997615814209 448
v -136.0447998046875 0.456028014421463 455.20272827148438
v -135.20649719238281 -0.36158600449562073 471.160400390625
v -128 0.13246700167655945 454.77890014648438
v -128 -0.27765300869941711 463.1507568359375
v -134.36671447753906 -0.87361598014831543 487.11709594726562
v -152.42034912109375 1.3059060573577881 448
v -149.05377197265625 -1.0835069417953491 512
v -141.55770874023438 -1.2792860269546509 512
v -133.525634765625 -1.1186360120773315 503.07290649414062
v -128 -1.1343619823455811 486.78167676925659
v -128 -1.267935037612915 496.93096923828125
v -128 -1.4110840559005737 502.781982421875
v -128 -1.7592949867248535 509.95867919921875
v -133.05667114257813 -1.5777930021286011 512
v -128 -1.8583379983901978 512
v -128 -0.94794601202011108 480.04049700126052
v -128 -0.67261099815368652 470.78082275390625
v -128 0.34258699417114258 448.68093872070312
v -128 0.36605000495910645 448
vt 0.11591699719429016 0.031041979789733887
vt 0.003103999886661768 0.071783006191253662
vt 0.12868000566959381 0.17691600322723389
vt 0.0018469999777153134 0.035170018672943115
vt 0.0071859997697174549 0.18767499923706055
vt 0.012122999876737595 0.31676501035690308
vt 0.016355000436306 0.42851001024246216
vt 0.021650999784469604 0.57068699598312378
vt 0.14992700517177582 0.416562020778656
vt 0.36800101399421692 0.15610998868942261
vt 0.17117199301719666 0.65625301003456116
vt 0.3894369900226593 0.39604997634887695
vt 0.025567999109625816 0.66907200217247009
vt 0.02900099940598011 0.75769199430942535
vt 0.1925169974565506 0.89606299996376038
vt 0.25550499558448792 0.025833010673522949
vt 0.034033998847007751 0.90994299948215485
vt 0.11031100153923035 0.99524699989706278
vt 0.035828001797199249 0.95797700062394142
vt 0.03731599822640419 0.997785999905318
vt 0.20094199478626251 0.992077000439167
vt 0.410724014043808 0.635791003704071
vt 0.35668501257896423 0.02240300178527832
vt 0.48400101065635681 0.018912017345428467
vt 0.43172800540924072 0.87504799664020538
vt 0.33763900399208069 0.98731100000441074
vt 0.64990901947021484 0.61449798941612244
vt 0.44132998585700989 0.98369999974966049
vt 0.67092502117156982 0.85389900207519531
vt 0.56597399711608887 0.97928299941122532
vt 0.628620982170105 0.374750018119812
vt 0.60727399587631226 0.13515502214431763
vt 0.83753001689910889 0.0065180063247680664
vt 0.72275501489639282 0.010145008563995361
vt 0.84689199924468994 0.11458998918533325
vt 0.86817800998687744 0.35412901639938354
vt 0.96761298179626465 0.10409402847290039
vt 0.97216701507568359 0.2299879789352417
vt 0.88917499780654907 0.59358701109886169
vt 0.59676897525787354 0.014562010765075684
vt 0.68165302276611328 0.97523199953138828
vt 0.79430699348449707 0.97131099924445152
vt 0.9101790189743042 0.83291099965572357
vt 0.98472100496292114 0.58533000946044922
vt 0.99003398418426514 0.73779800534248352
vt 0.99314701557159424 0.82570700347423553
vt 0.99704498052597046 0.93367999792099
vt 0.922078013420105 0.9669170007109642
vt 0.99815201759338379 0.96437700092792511
vt 0.9811980128288269 0.48403501510620117
vt 0.97633302211761475 0.344743013381958
vt 0.96435302495956421 0.012446999549865723
vt 0.96399098634719849 0.0022130012512207031
vn 0.067304998636245728 0.99707502126693726 -0.036207001656293869
vn 0.0472709983587265 0.99843400716781616 -0.029929999262094498
vn 0.041540998965501785 0.99910300970077515 0.0082590002566576
vn 0.052218999713659286 0.99800699949264526 -0.035438001155853271
vn 0.035952001810073853 0.99894100427627563 0.028706999495625496
vn 0.027636000886559486 0.99781101942062378 0.0600770004093647
vn 0.023792000487446785 0.99874699115753174 0.044022999703884125
vn 0.04617299884557724 0.997560977935791 0.052338000386953354
vn 0.0405610017478466 0.99757599830627441 0.056545000523328781
vn 0.023462999612092972 0.99972397089004517 0.0010689999908208847
vn 0.05514800176024437 0.99650102853775024 0.062799997627735138
vn 0.034956999123096466 0.99721699953079224 0.065853998064994812
vn 0.053369000554084778 0.99661099910736084 0.062597997486591339
vn 0.054157998412847519 0.99637198448181152 0.065654002130031586
vn 0.033351998776197433 0.99849498271942139 0.043542001396417618
vn 0.042943000793457031 0.99637401103973389 -0.073448002338409424
vn 0.0553940013051033 0.99695199728012085 0.054937001317739487
vn 0.049623001366853714 0.99789297580718994 0.041790999472141266
vn 0.054979000240564346 0.9973989725112915 0.0466109998524189
vn 0.054979000240564346 0.9973989725112915 0.046611998230218887
vn 0.018631000071763992 0.9993939995765686 0.029416000470519066
vn 0.025252999737858772 0.9986339807510376 0.045736998319625854
vn -0.0085990000516176224 0.99637001752853394 -0.084688998758792877
vn 0.0063140001147985458 0.99940997362136841 -0.033755999058485031
vn 0.0043489998206496239 0.999701976776123 0.02400599978864193
vn 0.0039820000529289246 0.99952000379562378 0.030729999765753746
vn 0.020176999270915985 0.999189019203186 0.034839000552892685
vn 0.0055220001377165318 0.999468982219696 0.032127000391483307
vn 0.016749000176787376 0.99948602914810181 0.027327999472618103
vn 0.00843099970370531 0.99936002492904663 0.034752998501062393
vn 0.034205000847578049 0.99777901172637939 0.0571650005877018
vn 0.042190998792648315 0.9988899827003479 0.02096099965274334
vn 0.026110000908374786 0.99903702735900879 0.035259999334812164
vn 0.048323001712560654 0.99881899356842041 -0.0051239999011158943
vn 0.045258000493049622 0.998337984085083 0.0356689989566803
vn 0.047573000192642212 0.99792802333831787 0.043315999209880829
vn 0.042330998927354813 0.9982450008392334 0.041411999613046646
vn 0.043425999581813812 0.99782800674438477 0.049527999013662338
vn 0.034260999411344528 0.999176025390625 0.021764000877738
vn 0.042314998805522919 0.99896401166915894 -0.016749000176787376
vn 0.021432999521493912 0.99890100955963135 0.041694000363349915
vn 0.028480999171733856 0.99864298105239868 0.043597001582384109
vn 0.039606999605894089 0.99871301651000977 0.03167400136590004
vn 0.041995998471975327 0.9989050030708313 0.020622000098228455
vn 0.044530998915433884 0.99888300895690918 0.015782000496983528
vn 0.054708998650312424 0.99785202741622925 0.036022000014781952
vn 0.055330000817775726 0.99729502201080322 0.048388000577688217
vn 0.045545000582933426 0.99776297807693481 0.048927001655101776
vn 0.055330000817775726 0.99729502201080322 0.048388000577688217
vn 0.044123001396656036 0.99859899282455444 0.029208000749349594
vn 0.045239001512527466 0.99813300371170044 0.041023001074790955
vn 0.041972998529672623 0.99852597713470459 0.034405998885631561
vn 0.041972998529672623 0.99852597713470459 0.034405998885631561
f 1/1/1 2/2/2 3/3/3
f 1/1/1 4/4/4 2/2/2
f 5/5/5 6/6/6 3/3/3
f 7/7/7 8/8/8 9/9/9
f 7/7/7 3/3/3 6/6/6
f 7/7/7 9/9/9 3/3/3
f 3/3/3 9/9/9 10/10/10
f 9/9/9 11/11/11 12/12/12
f 13/13/13 9/9/9 8/8/8
f 13/13/13 11/11/11 9/9/9
f 2/2/2 5/5/5 3/3/3
f 11/11/11 14/14/14 15/15/15
f 11/11/11 13/13/13 14/14/14
f 16/16/16 1/1/1 3/3/3
f 17/17/17 18/18/18 15/15/15
f 17/17/17 19/19/19 18/18/18
f 19/19/19 20/20/20 18/18/18
f 21/21/21 15/15/15 18/18/18
f 14/14/14 17/17/17 15/15/15
f 22/22/22 11/11/11 15/15/15
f 16/16/16 10/10/10 23/23/23
f 16/16/16 3/3/3 10/10/10
f 23/23/23 10/10/10 24/24/24
f 9/9/9 12/12/12 10/10/10
f 25/25/25 22/22/22 15/15/15
f 12/12/12 11/11/11 22/22/22
f 21/21/21 25/25/25 15/15/15
f 21/21/21 26/26/26 25/25/25
f 25/25/25 27/27/27 22/22/22
f 28/28/28 29/29/29 25/25/25
f 28/28/28 30/30/30 29/29/29
f 28/28/28 25/25/25 26/26/26
f 12/12/12 22/22/22 31/31/31
f 10/10/10 12/12/12 32/32/32
f 33/33/33 34/34/34 35/35/35
f 31/31/31 32/32/32 12/12/12
f 32/32/32 31/31/31 35/35/35
f 36/36/36 31/31/31 27/27/27
f 31/31/31 36/36/36 35/35/35
f 37/37/37 36/36/36 38/38/38
f 37/37/37 35/35/35 36/36/36
f 36/36/36 27/27/27 39/39/39
f 34/34/34 32/32/32 35/35/35
f 34/34/34 40/40/40 32/32/32
f 27/27/27 31/31/31 22/22/22
f 41/41/41 29/29/29 30/30/30
f 29/29/29 42/42/42 43/43/43
f 29/29/29 41/41/41 42/42/42
f 43/43/43 39/39/39 29/29/29
f 44/44/44 43/43/43 45/45/45
f 44/44/44 39/39/39 43/43/43
f 46/46/46 43/43/43 47/47/47
f 47/47/47 48/48/48 49/49/49
f 47/47/47 43/43/43 48/48/48
f 48/48/48 43/43/43 42/42/42
f 27/27/27 29/29/29 39/39/39
f 50/50/50 36/36/36 39/39/39
f 50/50/50 51/51/51 36/36/36
f 29/29/29 27/27/27 25/25/25
f 50/50/50 39/39/39 44/44/44
f 45/45/45 43/43/43 46/46/46
f 38/38/38 36/36/36 51/51/51
f 52/52/52 35/35/35 37/37/37
f 52/52/52 33/33/33 35/35/35
f 52/52/52 53/53/53 33/33/33
f 32/32/32 24/24/24 10/10/10
f 32/32/32 40/40/40 24/24/24
