mtllib m0333333230.mtl
usemtl material0
v -24 3.2980248928070068 4
v -23.838040947914124 3.3434619903564453 4.2825380563735962
v -23.853163003921509 3.3029780387878418 4
v -24 3.3174118995666504 4.1370300054550171
v -23.096415996551514 3.3362629413604736 4
v -22.840665996074677 3.3798930644989014 4.2297539710998535
v -22.852998971939087 3.3396511077880859 4
v -20.984894037246704 3.2158830165863037 4
v -20.846326947212219 3.2294399738311768 4.124474048614502
v -20.853034973144531 3.2067749500274658 4
v -22.040564998984337 3.2860300540924072 4
v -21.843448996543884 3.3046638965606689 4.1770809888839722
v -21.852980002760887 3.2730278968811035 4
v -24 3.4300220012664795 5.0859730243682861
v -24 3.3340590000152588 4.2911210060119629
v -23.7847900390625 3.4672350883483887 5.2793020009994507
v -24 3.3282630443573 4.2374720573425293
v -21.789892002940178 3.5455279350280762 5.1736299991607666
v -20.792631030082703 3.555156946182251 5.1209260225296021
v -22.78725802898407 3.535891056060791 5.2264080047607422
v -20 3.29134202003479 4.0797799825668335
v -20 3.4877970218658447 4.884431004524231
v -20 3.277169942855835 4
v -20 3.28800892829895 4.0610200166702271
v -24 3.4477899074554443 5.2907289862632751
v -22.733931005001068 3.6752879619598389 6.223118007183075
v -21.736400991678238 3.7210190296173096 6.1702239960432053
v -20 3.5512750148773193 5.0790219902992249
v -20 3.7381858825683594 5.8324880003929138
v -20.738960027694702 3.7666349411010742 6.1173940002918243
v -23.731606006622314 3.5778241157531738 6.2761119902133942
v -24 3.526555061340332 6.0350419990718365
v -24 3.5451710224151611 6.2903890013694763
v -23.678518056869507 3.6683940887451172 7.2729899883270264
v -24 3.6035521030426025 6.9842650294303894
v -22.680719017982483 3.791248083114624 7.2199089527130127
v -21.683023005723953 3.8264040946960449 7.1668989658355713
v -20.685379028320312 3.8615100383758545 7.1139270067214966
v -20 3.7897799015045166 6.0782449990510941
v -20 3.8609209060668945 6.7806829810142517
v -24 3.6349871158599854 7.6302410364151
v -24 3.6218938827514648 7.2901140451431274
v -22.639208018779755 3.8560070991516113 8
v -22.869069993495941 3.8267719745635986 8
v -20.637954950332642 3.9652390480041504 8
v -20.755231976509094 3.9603970050811768 8
v -20 3.8884758949279785 7.0775389671325684
v -20 3.9668869972229004 7.6933829784393311
v -20 3.9714479446411133 7.7292040586471558
v -21.638572990894318 3.9097599983215332 8
v -21.812120005488396 3.9027419090270996 8
v -23.639907956123352 3.7137870788574219 8
v -20 4.0023069381713867 8
v -24 3.6548609733581543 8
vt 0 0
vt 0.07063400000333786 0.04048997163772583
vt 0 0.0367090106010437
vt 0.034258000552654266 0
vt 0 0.22589600086212158
vt 0.057438001036643982 0.28983402252197266
vt 0 0.28675001859664917
vt 0 0.75377699732780457
vt 0.031119000166654587 0.7884179949760437
vt 0 0.78674100339412689
vt 0 0.48985898494720459
vt 0.044270001351833344 0.539137989282608
vt 0 0.53675499558448792
vt 0.27149298787117004 0
vt 0.072779998183250427 0
vt 0.31982600688934326 0.0538020133972168
vt 0.05936799943447113 0
vt 0.29340800642967224 0.55252701044082642
vt 0.28023099899291992 0.80184200406074524
vt 0.30660200119018555 0.30318498611450195
vt 0.019944999366998672 1
vt 0.22110800445079804 1
vt 0 1
vt 0.015255000442266464 1
vt 0.32268199324607849 0
vt 0.555778980255127 0.31651699542999268
vt 0.54255598783493042 0.56589999794960022
vt 0.26975500583648682 1
vt 0.45812198519706726 1
vt 0.52934801578521729 0.81525999307632446
vt 0.56902801990509033 0.06709897518157959
vt 0.50875997543334961 0
vt 0.57259702682495117 0
vt 0.81824797391891479 0.080370008945465088
vt 0.74606597423553467 0
vt 0.80497699975967407 0.32981997728347778
vt 0.79172497987747192 0.5792439877986908
vt 0.77848201990127563 0.82865500450134277
vt 0.51956099271774292 1
vt 0.69517099857330322 1
vt 0.90755999088287354 0
vt 0.82252800464630127 0
vt 1 0.34019798040390015
vt 1 0.28273200988769531
vt 1 0.84051099419593811
vt 1 0.81119200587272644
vt 0.76938498020172119 1
vt 0.92334598302841187 1
vt 0.93230098485946655 1
vt 1 0.59035700559616089
vt 1 0.546970009803772
vt 1 0.0900229811668396
vt 1 1
vt 1 0
vn -0.033381998538970947 0.98958802223205566 -0.14000800251960754
vn -0.0576229989528656 0.98931801319122314 -0.1339000016450882
vn -0.042670000344514847 0.98930597305297852 -0.13947300612926483
vn -0.046023998409509659 0.99093902111053467 -0.12617999315261841
vn -0.036242000758647919 0.98841899633407593 -0.14735700190067291
vn -0.0015269999857991934 0.98435497283935547 -0.17619200050830841
vn 0.054652001708745956 0.98303002119064331 -0.17511400580406189
vn 0.065039999783039093 0.98163902759552 -0.17931799590587616
vn -0.00085399998351931572 0.96066701412200928 -0.27770298719406128
vn -0.067029997706413269 0.98224198818206787 -0.1752379983663559
vn 0.0654349997639656 0.98217898607254028 -0.17619100213050842
vn 0.036952998489141464 0.9679030179977417 -0.24859100580215454
vn 0.064981997013092041 0.98172199726104736 -0.17888499796390533
vn -0.067409999668598175 0.99099302291870117 -0.11571100354194641
vn -0.06382499635219574 0.99086099863052368 -0.11883199959993362
vn -0.083571001887321472 0.98950499296188354 -0.11788299679756165
vn -0.063286997377872467 0.992222011089325 -0.10719399899244309
vn -0.011834999546408653 0.9804990291595459 -0.19616800546646118
vn -0.0059960000216960907 0.96737802028656006 -0.25326800346374512
vn -0.047088000923395157 0.98837101459503174 -0.14458499848842621
vn -0.08324199914932251 0.96842998266220093 -0.23497499525547028
vn -0.0692100003361702 0.96547102928161621 -0.251147985458374
vn -0.080983996391296387 0.9813539981842041 -0.17431800067424774
vn -0.080983996391296387 0.98135197162628174 -0.17432700097560883
vn -0.094930998980998993 0.99014401435852051 -0.10296899825334549
vn -0.070768997073173523 0.99065500497817993 -0.11659199744462967
vn -0.044505000114440918 0.99058300256729126 -0.12947799265384674
vn -0.0103169996291399 0.9587780237197876 -0.28396999835968018
vn -0.028367999941110611 0.975255012512207 -0.21925599873065949
vn -0.041402999311685562 0.9875980019569397 -0.15144500136375427
vn -0.10986600071191788 0.98910200595855713 -0.098010003566741943
vn -0.10249400138854981 0.99004697799682617 -0.0964450016617775
vn -0.12465199828147888 0.98882001638412476 -0.081836998462677
vn -0.13365699350833893 0.98845899105072021 -0.071307003498077393
vn -0.13123899698257446 0.98844397068023682 -0.0758569985628128
vn -0.082266002893447876 0.99210101366043091 -0.094695001840591431
vn -0.044690001755952835 0.99347299337387085 -0.10495100170373917
vn -0.046239998191595078 0.99345797300338745 -0.10441400110721588
vn -0.037836000323295593 0.9910159707069397 -0.12827800214290619
vn -0.041281998157501221 0.99458402395248413 -0.095386996865272522
vn -0.15351399779319763 0.98708301782608032 -0.045839998871088028
vn -0.14549599587917328 0.9881889820098877 -0.048087999224662781
vn -0.097787000238895416 0.9922109842300415 -0.077164001762866974
vn -0.1404619961977005 0.98833197355270386 -0.058917000889778137
vn -0.047061998397111893 0.9924049973487854 -0.11365800350904465
vn -0.055091001093387604 0.99361497163772583 -0.098457001149654388
vn -0.045159000903367996 0.99231398105621338 -0.11520899832248688
vn -0.0456870011985302 0.99095600843429565 -0.12617200613021851
vn -0.056237999349832535 0.9918220043182373 -0.11457400023937225
vn -0.047449000179767609 0.99415898323059082 -0.096938997507095337
vn -0.053458001464605331 0.99513900279998779 -0.0827070027589798
vn -0.15006600320339203 0.98721802234649658 -0.0536700002849102
vn -0.057633999735116959 0.99191802740097046 -0.11303500086069107
vn -0.16126799583435059 0.98548799753189087 -0.052967000752687454
f 1/1/1 2/2/2 3/3/3
f 1/1/1 4/4/4 2/2/2
f 5/5/5 6/6/6 7/7/7
f 8/8/8 9/9/9 10/10/10
f 11/11/11 12/12/12 13/13/13
f 14/14/14 2/2/2 15/15/15
f 14/14/14 16/16/16 2/2/2
f 15/15/15 2/2/2 17/17/17
f 17/17/17 2/2/2 4/4/4
f 6/6/6 18/18/18 12/12/12
f 12/12/12 7/7/7 6/6/6
f 12/12/12 11/11/11 7/7/7
f 9/9/9 13/13/13 12/12/12
f 9/9/9 8/8/8 13/13/13
f 12/12/12 19/19/19 9/9/9
f 3/3/3 6/6/6 5/5/5
f 3/3/3 2/2/2 6/6/6
f 20/20/20 6/6/6 2/2/2
f 21/21/21 9/9/9 22/22/22
f 23/23/23 10/10/10 24/24/24
f 24/24/24 9/9/9 21/21/21
f 24/24/24 10/10/10 9/9/9
f 14/14/14 25/25/25 16/16/16
f 16/16/16 26/26/26 20/20/20
f 6/6/6 20/20/20 18/18/18
f 12/12/12 18/18/18 19/19/19
f 20/20/20 27/27/27 18/18/18
f 28/28/28 19/19/19 29/29/29
f 28/28/28 9/9/9 19/19/19
f 28/28/28 22/22/22 9/9/9
f 18/18/18 30/30/30 19/19/19
f 20/20/20 2/2/2 16/16/16
f 25/25/25 31/31/31 16/16/16
f 25/25/25 32/32/32 31/31/31
f 33/33/33 31/31/31 32/32/32
f 31/31/31 26/26/26 16/16/16
f 33/33/33 34/34/34 31/31/31
f 33/33/33 35/35/35 34/34/34
f 36/36/36 26/26/26 31/31/31
f 37/37/37 27/27/27 26/26/26
f 27/27/27 38/38/38 30/30/30
f 30/30/30 29/29/29 19/19/19
f 30/30/30 39/39/39 29/29/29
f 39/39/39 30/30/30 40/40/40
f 18/18/18 27/27/27 30/30/30
f 20/20/20 26/26/26 27/27/27
f 41/41/41 34/34/34 42/42/42
f 43/43/43 34/34/34 44/44/44
f 43/43/43 36/36/36 34/34/34
f 34/34/34 36/36/36 31/31/31
f 45/45/45 37/37/37 46/46/46
f 45/45/45 38/38/38 37/37/37
f 37/37/37 38/38/38 27/27/27
f 38/38/38 40/40/40 30/30/30
f 38/38/38 47/47/47 40/40/40
f 48/48/48 38/38/38 49/49/49
f 48/48/48 47/47/47 38/38/38
f 26/26/26 36/36/36 37/37/37
f 50/50/50 36/36/36 51/51/51
f 50/50/50 37/37/37 36/36/36
f 44/44/44 34/34/34 52/52/52
f 51/51/51 36/36/36 43/43/43
f 53/53/53 38/38/38 45/45/45
f 53/53/53 49/49/49 38/38/38
f 50/50/50 46/46/46 37/37/37
f 54/54/54 34/34/34 41/41/41
f 54/54/54 52/52/52 34/34/34
f 35/35/35 42/42/42 34/34/34
