mtllib m033333030.mtl
usemtl material0
v -46.43414306640625 2.430433988571167 40
v -45.933032989501953 2.3693580627441406 40.451320886611938
v -45.956676006317139 2.4055960178375244 40
v -48 2.5191800594329834 40
v -47.926913976669312 2.4742128849029541 40.556277990341187
v -47.956065893173218 2.5162930488586426 40
v -48 2.4837679862976074 40.490447998046875
v -45.526970028877258 2.3739030361175537 40
v -48 2.4749441146850586 40.637516021728516
v -48 2.478809118270874 40.560122966766357
v -48 2.4805090427398682 40.536236047744751
v -48 2.3513400554656982 42.560467004776
v -48 2.3459980487823486 42.748653054237366
v -47.822295904159546 2.3374679088592529 42.551125049591064
v -48 2.259174108505249 44.859879016876221
v -47.717472076416016 2.2432000637054443 44.5458260178566
v -48 2.2694098949432373 44.560661017894745
v -45.828498959541321 2.2160110473632812 42.446223974227905
v -43.834610000252724 2.1135950088500977 42.3412549495697
v -43.93911400064826 2.2732899188995361 40.346333026885986
v -41.94547700881958 2.1191160678863525 40.241543054580688
v -43.729770988225937 2.0227460861206055 44.335945010185242
v -43.957293998450041 2.2936398983001709 40
v -45.723662972450256 2.1241850852966309 44.440917998552322
v -47.612606048583984 2.1582090854644775 46.540497064590454
v -45.618911981582642 2.0157558917999268 46.435664892196655
v -48 2.1954760551452637 46.560837030410767
v -43.625 1.9177349805831909 46.330684900283813
v -41.735912084579468 1.9134939908981323 44.231003001332283
v -45.536952972412109 1.8928250074386597 48
v -45.9923859834671 1.9271529912948608 48
v -47.535999059677124 2.0710160732269287 48
v -48 2.1335439682006836 47.696311950683594
v -48 2.116981029510498 48
v -41.840717077255249 2.011667013168335 42.236289978027344
v -43.6275250017643 2.2675149440765381 40
v -45.126976013183594 1.8710340261459351 48
v -43.227535009384155 1.7628469467163086 48
v -43.537562996149063 1.7824690341949463 48
v -41.631186962127686 1.7996939420700073 46.22576904296875
v -41.958153009414673 2.1335461139678955 40
v -41.72816801071167 2.1133480072021484 40
v -40 1.9734330177307129 40.139266967773438
v -40 1.9737169742584229 40.133025884628296
v -40 1.9797890186309815 40
v -40 1.8661390542984009 41.993850946426392
v -40 1.8589450120925903 42.139567971229553
v -40 1.8517030477523804 42.301452994346619
v -40 1.7614539861679077 44.412669986486435
v -40 1.7758469581604004 44.139770999550819
v -40 1.6835399866104126 46.139998912811279
v -40 1.573868989944458 48
v -40 1.6609770059585571 46.523864984512329
v -41.32806396484375 1.6728839874267578 48
v -41.538089990615845 1.6884889602661133 48
vt 0.18943500518798828 0.022976994514465332
vt 0.25187700986862183 0.075697004795074463
vt 0.24710799753665924 0.021188020706176758
vt 0.00024699998903088272 0.028779983520507812
vt 0.01141900010406971 0.095781981945037842
vt 0.0055579999461770058 0.028620004653930664
vt 0.002308000111952424 0.088087022304534912
vt 0.29908499121665955 0.019662976264953613
vt 0.0029100000392645597 0.10585802793502808
vt 0.0026000000070780516 0.096512019634246826
vt 0.0024999999441206455 0.093622982501983643
vt 0.010879999957978725 0.33827000856399536
vt 0.011593000032007694 0.36097902059555054
vt 0.032349001616239548 0.33651602268218994
vt 0.019942000508308411 0.61585500836372375
vt 0.052960000932216644 0.57696300745010376
vt 0.018782999366521835 0.57974100112915039
vt 0.27292200922966003 0.31657201051712036
vt 0.51330399513244629 0.29652500152587891
vt 0.49228399991989136 0.055585980415344238
vt 0.73313999176025391 0.0360180139541626
vt 0.533955991268158 0.53695499897003174
vt 0.48867699503898621 0.013814985752105713
vt 0.29351499676704407 0.55700600147247314
vt 0.073505997657775879 0.81736199557781219
vt 0.31424298882484436 0.79753600060939789
vt 0.026628000661730766 0.82117299735546112
vt 0.55462902784347534 0.77746599912643433
vt 0.77444601058959961 0.51695200800895691
vt 0.33082398772239685 0.98644000012427568
vt 0.27584099769592285 0.98793900012969971
vt 0.088823996484279633 0.99339199997484684
vt 0.0313199982047081 0.95833100005984306
vt 0.032575000077486038 0.99501400021836162
vt 0.75375401973724365 0.2765510082244873
vt 0.52858299016952515 0.01264500617980957
vt 0.38022100925445557 0.98493499960750341
vt 0.60973900556564331 0.9779640007764101
vt 0.5722460150718689 0.979075999930501
vt 0.79517799615859985 0.757520005106926
vt 0.73064297437667847 0.0068830251693725586
vt 0.75849497318267822 0.00609898567199707
vt 0.96813398599624634 0.016924023628234863
vt 0.96811002492904663 0.016170978546142578
vt 0.96759301424026489 0.00010800361633300781
vt 0.97565501928329468 0.24087399244308472
vt 0.97623497247695923 0.25847101211547852
vt 0.97697597742080688 0.27788698673248291
vt 0.98529201745986938 0.53277501463890076
vt 0.98418998718261719 0.499813973903656
vt 0.99214202165603638 0.74133598804473877
vt 0.99975299835205078 0.96606900170445442
vt 0.99371200799942017 0.78771600127220154
vt 0.839102029800415 0.97080600075423718
vt 0.81372499465942383 0.97155299969017506
vn 0.055155999958515167 0.99576801061630249 0.073513999581336975
vn 0.057468999177217484 0.99579602479934692 0.071327000856399536
vn 0.06218000128865242 0.99511802196502686 0.076645001769065857
vn 0.065385997295379639 0.99526900053024292 0.071860998868942261
vn 0.062761999666690826 0.99581098556518555 0.06648699939250946
vn 0.060949001461267471 0.99553197622299194 0.072113998234272
vn 0.065632998943328857 0.99527299404144287 0.071588002145290375
vn 0.056976001709699631 0.99649202823638916 0.061298001557588577
vn 0.077338002622127533 0.99515998363494873 0.060623001307249069
vn 0.0657849982380867 0.99602901935577393 0.0599839985370636
vn 0.066311001777648926 0.99528098106384277 0.070840001106262207
vn 0.0801289975643158 0.99574202299118042 0.045566000044345856
vn 0.090921998023986816 0.99510097503662109 0.038823001086711884
vn 0.072628997266292572 0.99595499038696289 0.052903998643159866
vn 0.09679800271987915 0.99463498592376709 0.0364920012652874
vn 0.07845199853181839 0.99610698223114014 0.040206998586654663
vn 0.0942780002951622 0.99482399225234985 0.037916000932455063
vn 0.058940000832080841 0.99657100439071655 0.058070000261068344
vn 0.056894998997449875 0.99681198596954346 0.055929001420736313
vn 0.065802998840808868 0.99566298723220825 0.065760999917984009
vn 0.07766299694776535 0.99543499946594238 0.055484998971223831
vn 0.054753001779317856 0.99741101264953613 0.046608999371528625
vn 0.064430996775627136 0.996396005153656 0.055165998637676239
vn 0.058928001672029495 0.99722802639007568 0.045432999730110168
vn 0.086903996765613556 0.994953989982605 0.0501520000398159
vn 0.063371002674102783 0.99600702524185181 0.062876999378204346
vn 0.098047003149986267 0.99411898851394653 0.045979999005794525
vn 0.057316001504659653 0.996300995349884 0.064025998115539551
vn 0.070334002375602722 0.9963570237159729 0.048234999179840088
vn 0.06354299932718277 0.995166003704071 0.074874997138977051
vn 0.0790729969739914 0.99443298578262329 0.069649003446102142
vn 0.095440998673439026 0.99394899606704712 0.054370000958442688
vn 0.098434001207351685 0.99366700649261475 0.054196998476982117
vn 0.098434001207351685 0.99366700649261475 0.054196000099182129
vn 0.069733999669551849 0.99644702672958374 0.047237999737262726
vn 0.0796009972691536 0.99530702829360962 0.055020000785589218
vn 0.053605999797582626 0.9956589937210083 0.076086997985839844
vn 0.057875998318195343 0.99566900730133057 0.072751998901367188
vn 0.059358000755310059 0.99522101879119873 0.0775350034236908
vn 0.066688999533653259 0.99612098932266235 0.057415001094341278
vn 0.083479002118110657 0.99498701095581055 0.055059000849723816
vn 0.079750001430511475 0.99566000699996948 0.047968998551368713
vn 0.077258996665477753 0.99568802118301392 0.051339998841285706
vn 0.076972998678684235 0.99599599838256836 0.045465998351573944
vn 0.076972998678684235 0.99599599838256836 0.045462001115083694
vn 0.083131000399589539 0.995212972164154 0.051382001489400864
vn 0.085041001439094543 0.99527299404144287 0.046902000904083252
vn 0.084036000072956085 0.9955030083656311 0.043724000453948975
vn 0.079719997942447662 0.9955260157585144 0.050725001841783524
vn 0.0813940018415451 0.99559098482131958 0.046617001295089722
vn 0.0736289992928505 0.99595397710800171 0.0515189990401268
vn 0.074221998453140259 0.99550998210906982 0.05874599888920784
vn 0.074027001857757568 0.99553501605987549 0.058570999652147293
vn 0.074034996330738068 0.99553400278091431 0.058579001575708389
vn 0.059470999985933304 0.99646502733230591 0.059335999190807343
f 1/1/1 2/2/2 3/3/3
f 4/4/4 5/5/5 6/6/6
f 4/4/4 7/7/7 5/5/5
f 3/3/3 2/2/2 8/8/8
f 9/9/9 5/5/5 10/10/10
f 11/11/11 5/5/5 7/7/7
f 11/11/11 10/10/10 5/5/5
f 12/12/12 13/13/13 14/14/14
f 15/15/15 16/16/16 17/17/17
f 9/9/9 14/14/14 5/5/5
f 9/9/9 12/12/12 14/14/14
f 2/2/2 14/14/14 18/18/18
f 14/14/14 2/2/2 5/5/5
f 19/19/19 2/2/2 18/18/18
f 2/2/2 19/19/19 20/20/20
f 19/19/19 21/21/21 20/20/20
f 19/19/19 18/18/18 22/22/22
f 23/23/23 2/2/2 20/20/20
f 23/23/23 8/8/8 2/2/2
f 18/18/18 14/14/14 24/24/24
f 24/24/24 16/16/16 25/25/25
f 16/16/16 24/24/24 14/14/14
f 24/24/24 25/25/25 26/26/26
f 27/27/27 16/16/16 15/15/15
f 27/27/27 25/25/25 16/16/16
f 28/28/28 24/24/24 26/26/26
f 24/24/24 28/28/28 22/22/22
f 28/28/28 29/29/29 22/22/22
f 25/25/25 30/30/30 26/26/26
f 25/25/25 31/31/31 30/30/30
f 18/18/18 24/24/24 22/22/22
f 27/27/27 32/32/32 25/25/25
f 27/27/27 33/33/33 32/32/32
f 33/33/33 34/34/34 32/32/32
f 19/19/19 22/22/22 35/35/35
f 17/17/17 14/14/14 13/13/13
f 17/17/17 16/16/16 14/14/14
f 1/1/1 5/5/5 2/2/2
f 1/1/1 6/6/6 5/5/5
f 23/23/23 20/20/20 36/36/36
f 26/26/26 37/37/37 28/28/28
f 26/26/26 30/30/30 37/37/37
f 38/38/38 28/28/28 39/39/39
f 38/38/38 40/40/40 28/28/28
f 37/37/37 39/39/39 28/28/28
f 31/31/31 25/25/25 32/32/32
f 21/21/21 36/36/36 20/20/20
f 21/21/21 41/41/41 36/36/36
f 41/41/41 21/21/21 42/42/42
f 43/43/43 42/42/42 21/21/21
f 43/43/43 44/44/44 42/42/42
f 44/44/44 45/45/45 42/42/42
f 43/43/43 21/21/21 46/46/46
f 29/29/29 35/35/35 22/22/22
f 47/47/47 29/29/29 48/48/48
f 47/47/47 35/35/35 29/29/29
f 49/49/49 29/29/29 40/40/40
f 49/49/49 50/50/50 29/29/29
f 48/48/48 29/29/29 50/50/50
f 49/49/49 40/40/40 51/51/51
f 47/47/47 21/21/21 35/35/35
f 47/47/47 46/46/46 21/21/21
f 40/40/40 29/29/29 28/28/28
f 52/52/52 53/53/53 54/54/54
f 51/51/51 54/54/54 53/53/53
f 51/51/51 40/40/40 54/54/54
f 40/40/40 55/55/55 54/54/54
f 55/55/55 40/40/40 38/38/38
f 35/35/35 21/21/21 19/19/19
