mtllib m03333003.mtl
usemtl material0
v -112 2.6424520015716553 101.93744707107544
v -112 2.6012449264526367 103.32660698890686
v -110.68831586837769 2.5257790088653564 101.86855292320252
v -112 2.539496898651123 105.93765294551849
v -112 2.5686919689178467 107.54933905601502
v -110.47829389572144 2.4138360023498535 105.85768902301788
v -112 2.7790770530700684 99.104164123535156
v -110.89785814285278 2.7373249530792236 97.879074096679688
v -112 2.8086268901824951 97.937049865722656
v -109.20709991455078 2.8161649703979492 96
v -110.99628400802612 2.89007306098938 96
v -106.99723100662231 2.7220389842987061 96
v -106.90982103347778 2.5843288898468018 97.668961048126221
v -112 2.889448881149292 96.896683216094971
v -112 2.95910906791687 96
v -106.70071411132813 2.2844059467315674 101.65873694419861
v -110.26795196533203 2.3673169612884521 109.84660291671753
v -106.49044799804688 2.2217791080474854 105.64770495891571
v -112 2.5544900894165039 109.93747711181641
v -102.92112696170807 2.5656039714813232 97.4583888053894
v -102.71134197711945 2.4058160781860352 101.44769310951233
v -106.28033399581909 2.1278979778289795 109.63677978515625
v -105.40807294845581 2.6789889335632324 96
v -112 2.6230909824371338 112
v -110.15396881103516 2.4268219470977783 112
v -112 2.5939788818359375 111.12474822998047
v -106.15551805496216 2.1408340930938721 112
v -108.40618085861206 2.3247089385986328 112
v -104.60723900794983 2.1393239498138428 112
v -102.29157996177673 2.1228439807891846 109.42616319656372
v -102.50149500370026 2.2567639350891113 105.43695104122162
v -102.997642993927 2.6595311164855957 96
v -98.997269153594971 2.7525029182434082 96
v -100.31771898269653 2.7379679679870605 96
v -98.931708812713623 2.6962859630584717 97.247306823730469
v -96 2.7384979724884033 97.092360973358154
v -98.722075939178467 2.5037829875946045 101.23671698570252
v -96 2.68379807472229 98.211563110351562
v -96 2.8136110305786133 96
v -97.809319019317627 2.7941350936889648 96
v -96 2.7686278820037842 96.6541748046875
v -98.512259960174561 2.3493599891662598 105.22599804401398
v -96 2.5449759960174561 101.09284210205078
v -102.15594494342804 2.075498104095459 112
v -96 2.4921410083770752 102.43397498130798
v -96 2.3390979766845703 105.0933690071106
v -98.302299022674561 2.2247180938720703 109.21517896652222
v -96 2.3970749378204346 107.48588609695435
v -98.155556201934814 2.171104907989502 112
v -100.80802202224731 2.1085159778594971 112
v -96 2.2599940299987793 112
v -96 2.3035750389099121 110.87918901443481
v -97.008536815643311 2.228538990020752 112
v -96 2.34266996383667 109.09323120117188
v -96 2.3158268928527832 110.31946611404419
vt 0.37108999490737915 0
vt 0.45791301131248474 0
vt 0.36678498983383179 0.081979990005493164
vt 0.62110298871994019 0
vt 0.72183400392532349 0
vt 0.61610597372055054 0.095107018947601318
vt 0.19401000440120697 0
vt 0.11744199693202972 0.068884015083312988
vt 0.12106599658727646 0
vt 0 0.17455601692199707
vt 0 0.06273198127746582
vt 0 0.31267297267913818
vt 0.10430999845266342 0.31813597679138184
vt 0.056042999029159546 0
vt 0 0
vt 0.35367101430892944 0.33120501041412354
vt 0.86541301012039185 0.10825300216674805
vt 0.60298198461532593 0.34434700012207031
vt 0.87109202146530151 0
vt 0.091149002313613892 0.56742998957633972
vt 0.34048101305961609 0.58054101467132568
vt 0.85229897499084473 0.35747897624969482
vt 0 0.411994993686676
vt 1 0
vt 1 0.11537700891494751
vt 0.9452970027923584 0
vt 1 0.36527997255325317
vt 1 0.22461402416229248
vt 1 0.4620479941368103
vt 0.83913499116897583 0.60677599906921387
vt 0.589809000492096 0.593656986951828
vt 0 0.5626470148563385
vt 0 0.8126710057258606
vt 0 0.73014301061630249
vt 0.077956996858119965 0.816768005490303
vt 0.068273000419139862 1
vt 0.32729500532150269 0.82987000048160553
vt 0.13822300732135773 1
vt 0 1
vt 0 0.88691800087690353
vt 0.040885999798774719 1
vt 0.57662498950958252 0.84298400580883026
vt 0.31830298900604248 1
vt 1 0.61525300145149231
vt 0.40212300419807434 1
vt 0.568336009979248 1
vt 0.82594901323318481 0.8561059981584549
vt 0.71786797046661377 1
vt 1 0.86527800559997559
vt 1 0.69949901103973389
vt 1 1
vt 0.92994898557662964 1
vt 1 0.93696600198745728
vt 0.818327009677887 1
vt 0.89496701955795288 1
vn 0.090838998556137085 0.994862973690033 0.044672999531030655
vn 0.08579699695110321 0.99598300457000732 0.025634000077843666
vn 0.063578002154827118 0.99697798490524292 0.044631998986005783
vn 0.083074003458023071 0.996429979801178 0.015034000389277935
vn 0.097134999930858612 0.99526399374008179 -0.0037310000043362379
vn 0.06551700085401535 0.99775898456573486 0.013597999699413776
vn 0.083688996732234955 0.99563300609588623 0.041358001530170441
vn 0.053877998143434525 0.99668502807617188 0.060966998338699341
vn 0.067088998854160309 0.99650198221206665 0.049823999404907227
vn 0.041848998516798019 0.99596101045608521 0.07944200187921524
vn 0.053727000951766968 0.99549597501754761 0.0781090036034584
vn 0.039384998381137848 0.99600702524185181 0.080119997262954712
vn 0.034935001283884048 0.99710202217102051 0.067579999566078186
vn 0.068412996828556061 0.99466001987457275 0.0772709995508194
vn 0.068412996828556061 0.99466001987457275 0.077271997928619385
vn 0.020950999110937119 0.998960018157959 0.040500998497009277
vn 0.067951999604702 0.99768799543380737 0.00090699997963383794
vn 0.019119000062346458 0.99961298704147339 0.020233999937772751
vn 0.10741599649190903 0.99421399831771851 -0.0004400000034365803
vn -0.014001999981701374 0.99835902452468872 0.055527001619338989
vn -0.022928999736905098 0.99901598691940308 0.037955999374389648
vn 0.026393000036478043 0.99961000680923462 0.009084000252187252
vn 0.01207599975168705 0.99764901399612427 0.067451000213623047
vn 0.10566599667072296 0.99385201930999756 -0.033057000488042831
vn 0.072621002793312073 0.99686598777771 -0.0313900001347065
vn 0.10566599667072296 0.99385201930999756 -0.033055998384952545
vn 0.048739999532699585 0.99877899885177612 -0.0080409999936819077
vn 0.0713300034403801 0.99727398157119751 -0.01888900063931942
vn 0.0089819999411702156 0.99995797872543335 0.0016789999790489674
vn -0.010112999938428402 0.99963498115539551 0.02505899965763092
vn -0.010754999704658985 0.99937701225280762 0.033626001328229904
vn -0.01888200081884861 0.99769002199172974 0.065246999263763428
vn -0.0223619993776083 0.99868202209472656 0.04618699848651886
vn -0.023194000124931335 0.99798101186752319 0.059122998267412186
vn -0.022563999518752098 0.99844902753829956 0.050900999456644058
vn -0.011715999804437161 0.99866098165512085 0.050397001206874847
vn -0.016955999657511711 0.99885100126266479 0.044819001108407974
vn -0.012354999780654907 0.99875599145889282 0.04831400141119957
vn -0.010738000273704529 0.99758702516555786 0.068596996366977692
vn -0.017087999731302261 0.99787300825119019 0.062904998660087585
vn -0.010738000273704529 0.99758702516555786 0.0685959979891777
vn -0.020292000845074654 0.99921101331710815 0.034134998917579651
vn -0.012719999998807907 0.99889099597930908 0.045340001583099365
vn -0.0088339997455477715 0.9997829794883728 0.018857000395655632
vn -0.0066069997847080231 0.9989590048789978 0.045141000300645828
vn 0.00507699977606535 0.999809980392456 0.018813999369740486
vn -0.032832000404596329 0.9990990161895752 0.026884999126195908
vn -0.033112000674009323 0.99932801723480225 0.015709999948740005
vn -0.039397001266479492 0.99899601936340332 0.021308999508619308
vn -0.023887999355793 0.99950999021530151 0.020213000476360321
vn -0.031150000169873238 0.99875998497009277 0.038835000246763229
vn -0.037432000041007996 0.99874800443649292 0.033181998878717422
vn -0.044121000915765762 0.9986569881439209 0.027155999094247818
vn -0.049810998141765594 0.99843800067901611 0.025314999744296074
vn -0.049998000264167786 0.99851000308990479 0.021857999265193939
f 1/1/1 2/2/2 3/3/3
f 4/4/4 5/5/5 6/6/6
f 7/7/7 8/8/8 9/9/9
f 10/10/10 11/11/11 8/8/8
f 12/12/12 8/8/8 13/13/13
f 12/12/12 10/10/10 8/8/8
f 9/9/9 8/8/8 14/14/14
f 14/14/14 11/11/11 15/15/15
f 14/14/14 8/8/8 11/11/11
f 4/4/4 3/3/3 2/2/2
f 4/4/4 6/6/6 3/3/3
f 3/3/3 6/6/6 16/16/16
f 6/6/6 17/17/17 18/18/18
f 19/19/19 6/6/6 5/5/5
f 19/19/19 17/17/17 6/6/6
f 16/16/16 13/13/13 3/3/3
f 13/13/13 16/16/16 20/20/20
f 16/16/16 18/18/18 21/21/21
f 18/18/18 16/16/16 6/6/6
f 8/8/8 3/3/3 13/13/13
f 18/18/18 17/17/17 22/22/22
f 23/23/23 12/12/12 13/13/13
f 1/1/1 8/8/8 7/7/7
f 1/1/1 3/3/3 8/8/8
f 24/24/24 25/25/25 26/26/26
f 26/26/26 17/17/17 19/19/19
f 26/26/26 25/25/25 17/17/17
f 27/27/27 22/22/22 28/28/28
f 22/22/22 29/29/29 30/30/30
f 22/22/22 27/27/27 29/29/29
f 25/25/25 22/22/22 17/17/17
f 25/25/25 28/28/28 22/22/22
f 31/31/31 18/18/18 22/22/22
f 23/23/23 20/20/20 32/32/32
f 23/23/23 13/13/13 20/20/20
f 33/33/33 34/34/34 35/35/35
f 18/18/18 31/31/31 21/21/21
f 20/20/20 21/21/21 35/35/35
f 36/36/36 37/37/37 38/38/38
f 36/36/36 35/35/35 37/37/37
f 32/32/32 35/35/35 34/34/34
f 32/32/32 20/20/20 35/35/35
f 39/39/39 40/40/40 41/41/41
f 41/41/41 35/35/35 36/36/36
f 41/41/41 40/40/40 35/35/35
f 37/37/37 35/35/35 21/21/21
f 40/40/40 33/33/33 35/35/35
f 37/37/37 21/21/21 42/42/42
f 16/16/16 21/21/21 20/20/20
f 38/38/38 37/37/37 43/43/43
f 29/29/29 44/44/44 30/30/30
f 31/31/31 30/30/30 42/42/42
f 45/45/45 42/42/42 46/46/46
f 31/31/31 42/42/42 21/21/21
f 42/42/42 30/30/30 47/47/47
f 45/45/45 37/37/37 42/42/42
f 45/45/45 43/43/43 37/37/37
f 46/46/46 42/42/42 48/48/48
f 49/49/49 47/47/47 50/50/50
f 44/44/44 47/47/47 30/30/30
f 44/44/44 50/50/50 47/47/47
f 51/51/51 52/52/52 53/53/53
f 49/49/49 54/54/54 47/47/47
f 49/49/49 55/55/55 54/54/54
f 55/55/55 53/53/53 52/52/52
f 55/55/55 49/49/49 53/53/53
f 48/48/48 47/47/47 54/54/54
f 48/48/48 42/42/42 47/47/47
f 22/22/22 30/30/30 31/31/31
