mtllib m0333002.mtl
usemtl material0
v -256 6.8118557929992676 192
v -245.64170789718628 6.9528560638427734 196.97842407226563
v -245.90205383300781 7.445991039276123 192
v -256 6.7641191482543945 192.46646118164063
v -241.16140699386597 7.6199421882629395 192
v -256 6.6392569541931152 193.80792236328125
v -256 5.796654224395752 202.86048889160156
v -256 5.4321460723876953 205.5299220085144
v -245.22576904296875 5.8772110939025879 204.95957899093628
v -256 4.2752079963684082 224
v -255.21099853515625 4.2712907791137695 224
v -256 4.2913131713867188 223.6561279296875
v -244.80514478683472 5.7722330093383789 212.93743896484375
v -256 5.3934202194213867 208.06204200163484
v -256 4.7848758697509766 219.29440307617188
v -256 4.546806812286377 221.53218078613281
v -244.38804578781128 4.9348268508911133 220.91778564453125
v -236.82435607910156 6.434812068939209 212.5139307975769
v -244.2271728515625 4.5684118270874023 224
v -236.40670800209045 5.7136149406433105 220.49388122558594
v -239.56248500943184 4.9929451942443848 224
v -237.24162292480469 7.2355780601501465 204.53370690345764
v -237.65963697433472 7.8820309638977051 196.55401611328125
v -237.89949011802673 7.99432897567749 192
v -233.56233215332031 7.9055590629577637 192
v -229.90025329589844 7.87743616104126 192
v -229.68234252929688 7.8258538246154785 196.1329345703125
v -225.96363830566406 7.9817299842834473 192
v -229.26419067382813 7.2057671546936035 204.11254906654358
v -224 7.8432111740112305 195.83280944824219
v -224 7.9210968017578125 193.71124267578125
v -224 7.9839200973510742 192
v -224 7.6384968757629395 201.2467188835144
v -224 7.3036651611328125 206.7073210477829
v -228.84469604492188 6.8659310340881348 212.09121704101563
v -224 7.4321961402893066 203.83384704589844
v -224 7.035189151763916 211.83485388755798
v -228.42607116699219 6.3483428955078125 220.07048034667969
v -236.22283911705017 5.4698748588562012 224
v -231.96249389648438 5.7921061515808105 224
v -224 6.5533437728881836 219.83610534667969
v -224.36328125 6.1567378044128418 224
v -224 6.2087898254394531 223.59632873535156
v -228.22038269042969 5.9968042373657227 224
v -224 6.8145527839660645 215.15194702148438
v -224 6.1655960083007812 224
vt 0.00228599994443357 0.042815029621124268
vt 0.31535199284553528 0.17848801612854004
vt 0.302390992641449 0.030337989330291748
vt 0.0027759999502450228 0.056725978851318359
vt 0.44311198592185974 0.024857997894287109
vt 0.0042039998807013035 0.096696019172668457
vt 0.013845000416040421 0.36642497777938843
vt 0.015201999805867672 0.44485801458358765
vt 0.33456900715827942 0.41710901260375977
vt 0.037957001477479935 0.99618800007738173
vt 0.061200998723506927 0.99509199988096952
vt 0.037501998245716095 0.9859790001064539
vt 0.35818400979042053 0.65311500430107117
vt 0.018066000193357468 0.51998201012611389
vt 0.02973799966275692 0.85371699929237366
vt 0.0352340005338192 0.9225120022892952
vt 0.37916100025177 0.89072199910879135
vt 0.59503400325775146 0.629958987236023
vt 0.38715499639511108 0.98264399915933609
vt 0.61638802289962769 0.867139995098114
vt 0.52605897188186646 0.97626700066030025
vt 0.57406401634216309 0.39246600866317749
vt 0.55312597751617432 0.15539997816085815
vt 0.54048800468444824 0.020569980144500732
vt 0.66916602849960327 0.015372991561889648
vt 0.7777940034866333 0.010960996150970459
vt 0.789247989654541 0.13329899311065674
vt 0.89460098743438721 0.0061659812927246094
vt 0.81029599905014038 0.37157702445983887
vt 0.95744001865386963 0.11757898330688477
vt 0.95489799976348877 0.054605007171630859
vt 0.95284700393676758 0.0038120150566101074
vt 0.96350997686386108 0.28019499778747559
vt 0.96945399045944214 0.44251900911331177
vt 0.83158499002456665 0.60802099108695984
vt 0.96627300977706909 0.35719197988510132
vt 0.97509199380874634 0.59484198689460754
vt 0.85259097814559937 0.8447909951210022
vt 0.62559598684310913 0.9712119996547699
vt 0.7523229718208313 0.96596800163388252
vt 0.98375397920608521 0.83270299434661865
vt 0.97731798887252808 0.957175001502037
vt 0.98768198490142822 0.9447299987077713
vt 0.86347699165344238 0.96119000017642975
vt 0.978663980960846 0.69352400302886963
vt 0.98809897899627686 0.9567749984562397
vn -0.062350999563932419 0.99286901950836182 0.1016089990735054
vn -0.0713760033249855 0.99174398183822632 0.10653500258922577
vn -0.049809001386165619 0.99363601207733154 0.10102900117635727
vn -0.060892000794410706 0.9932979941368103 0.098242998123168945
vn -0.093433000147342682 0.99441099166870117 0.049162998795509338
vn -0.05841200053691864 0.9939960241317749 0.092519998550415039
vn -0.0419900007545948 0.99176400899887085 0.12099999934434891
vn -0.037291001528501511 0.996616005897522 0.073251001536846161
vn -0.094039000570774078 0.99299699068069458 0.0715159997344017
vn 0.0049589998088777065 0.99889302253723145 0.046783000230789185
vn -0.0226879995316267 0.99368202686309814 0.10991200059652329
vn -0.015119999647140503 0.99558299779891968 0.09265899658203125
vn -0.070256002247333527 0.99492502212524414 0.0720290020108223
vn -0.046682000160217285 0.99847102165222168 0.029611000791192055
vn -0.037551999092102051 0.99537098407745361 0.088468998670578
vn -0.027220999822020531 0.99324297904968262 0.1128150001168251
vn -0.057190001010894775 0.992035984992981 0.11221899837255478
vn -0.061163000762462616 0.9941139817237854 0.089428000152111053
vn -0.059331998229026794 0.9908909797668457 0.12089399993419647
vn -0.089128002524375916 0.99194198846817017 0.09003700315952301
vn -0.10347700119018555 0.98852497339248657 0.1100509986281395
vn -0.067123003304004669 0.99428701400756836 0.082990996539592743
vn -0.056446999311447144 0.99659401178359985 0.060114998370409012
vn -0.049065999686717987 0.99842500686645508 0.0272039994597435
vn 0.011088999919593334 0.99982398748397827 0.015142999589443207
vn -0.008830999955534935 0.99987697601318359 0.01294500008225441
vn -0.0037279999814927578 0.99905800819396973 0.043242998421192169
vn -0.00788199994713068 0.99949997663497925 0.030604999512434006
vn -0.02273000031709671 0.99737298488616943 0.068782001733779907
vn -0.0010870000114664435 0.99930697679519653 0.037218000739812851
vn -0.0011149999918416143 0.99932599067687988 0.036687001585960388
vn -0.0011149999918416143 0.99932599067687988 0.036687001585960388
vn -0.028624000027775764 0.99725097417831421 0.068343997001647949
vn -0.038600001484155655 0.9981759786605835 0.046422000974416733
vn -0.042362000793218613 0.99748599529266357 0.056816998869180679
vn -0.039576999843120575 0.9972500205039978 0.062661997973918915
vn -0.031732998788356781 0.99774998426437378 0.059053998440504074
vn -0.051383998245000839 0.99556601047515869 0.078794002532958984
vn -0.10722199827432632 0.99143600463867188 0.074546001851558685
vn -0.069679997861385345 0.9945099949836731 0.078066997230052948
vn -0.042298998683691025 0.99645102024078369 0.072774998843669891
vn -0.036713998764753342 0.99477797746658325 0.0952330008149147
vn -0.037307001650333405 0.99480599164962769 0.094701997935771942
vn -0.047623999416828156 0.99466800689697266 0.091476999223232269
vn -0.034109000116586685 0.99737697839736938 0.063844002783298492
vn -0.024235999211668968 0.99403202533721924 0.10636500269174576
f 1/1/1 2/2/2 3/3/3
f 1/1/1 4/4/4 2/2/2
f 3/3/3 2/2/2 5/5/5
f 6/6/6 2/2/2 4/4/4
f 6/6/6 7/7/7 2/2/2
f 2/2/2 8/8/8 9/9/9
f 2/2/2 7/7/7 8/8/8
f 10/10/10 11/11/11 12/12/12
f 8/8/8 13/13/13 9/9/9
f 8/8/8 14/14/14 13/13/13
f 14/14/14 15/15/15 13/13/13
f 16/16/16 13/13/13 15/15/15
f 16/16/16 17/17/17 13/13/13
f 17/17/17 18/18/18 13/13/13
f 19/19/19 20/20/20 17/17/17
f 19/19/19 21/21/21 20/20/20
f 12/12/12 17/17/17 16/16/16
f 12/12/12 11/11/11 17/17/17
f 11/11/11 19/19/19 17/17/17
f 9/9/9 13/13/13 22/22/22
f 2/2/2 9/9/9 23/23/23
f 23/23/23 5/5/5 2/2/2
f 23/23/23 24/24/24 5/5/5
f 24/24/24 23/23/23 25/25/25
f 26/26/26 27/27/27 28/28/28
f 27/27/27 25/25/25 23/23/23
f 27/27/27 26/26/26 25/25/25
f 27/27/27 23/23/23 29/29/29
f 30/30/30 28/28/28 27/27/27
f 30/30/30 31/31/31 28/28/28
f 31/31/31 32/32/32 28/28/28
f 30/30/30 27/27/27 33/33/33
f 18/18/18 22/22/22 13/13/13
f 22/22/22 18/18/18 29/29/29
f 34/34/34 29/29/29 35/35/35
f 34/34/34 36/36/36 29/29/29
f 33/33/33 29/29/29 36/36/36
f 33/33/33 27/27/27 29/29/29
f 34/34/34 35/35/35 37/37/37
f 35/35/35 29/29/29 18/18/18
f 29/29/29 23/23/23 22/22/22
f 35/35/35 18/18/18 38/38/38
f 39/39/39 20/20/20 21/21/21
f 20/20/20 40/40/40 38/38/38
f 20/20/20 39/39/39 40/40/40
f 41/41/41 42/42/42 43/43/43
f 41/41/41 38/38/38 42/42/42
f 38/38/38 44/44/44 42/42/42
f 20/20/20 38/38/38 18/18/18
f 45/45/45 38/38/38 41/41/41
f 44/44/44 38/38/38 40/40/40
f 45/45/45 35/35/35 38/38/38
f 45/45/45 37/37/37 35/35/35
f 20/20/20 18/18/18 17/17/17
f 46/46/46 43/43/43 42/42/42
f 22/22/22 23/23/23 9/9/9
