mtllib m033333231.mtl
usemtl material0
v -39.758846044540405 4.0388212203979492 8
v -39.631886005401611 4.0307650566101074 8.1142890453338623
v -39.637890100479126 4.0369482040405273 8
v -40 4.0378627777099609 8.1337060928344727
v -40 4.0427470207214355 8.0283451080322266
v -40 4.0440611839294434 8
v -37.6389080286026 3.7418251037597656 8.0099649429321289
v -37.53485095500946 3.4913299083709717 10.00520396232605
v -37.639430999755859 3.7427120208740234 8
v -39.529072046279907 4.0247111320495605 8
v -37.448017001152039 3.705348014831543 8
v -35.641463994979858 3.3520419597625732 8
v -35.54203799366951 3.1691861152648926 9.90099310874939
v -32 3.0181789398193359 8
v -33.197902917861938 3.0879209041595459 8
v -32 3.0060939788818359 8.5223689079284668
v -33.642745971679688 3.1089589595794678 8
v -35.541999995708466 3.3440148830413818 8
v -33.548386096954346 3.0179359912872314 9.7961940765380859
v -40 4.00867223739624 8.52339506149292
v -39.527637004852295 3.8193318843841553 10.109395027160645
v -37.430964946746826 3.2056789398193359 12.000564999994822
v -35.437533974647522 3.0095090866088867 11.895920000970364
v -40 3.8425540924072266 10.134266018867493
v -40 3.5844759941101074 11.585911989212036
v -39.424122095108032 3.4584870338439941 12.105013996362686
v -32 2.9615309238433838 9.7146079540252686
v -32 2.9258430004119873 10.471323013305664
v -32 2.9870738983154297 8.9170548915863037
v -33.4436149597168 2.9129459857940674 11.79093399643898
v -40 3.5083839893341064 12.135266005992889
v -40 3.1940760612487793 14.136203050613403
v -39.32033896446228 3.151839017868042 14.100445985794067
v -40 3.3071858882904053 13.487740993499756
v -35.333099007606506 2.8366479873657227 13.890892028808594
v -32 2.9005110263824463 10.971269965171814
v -32 2.8596510887145996 11.714868992567062
v -32 2.8164019584655762 12.42043998837471
v -33.339011907577515 2.7737751007080078 13.785789966583252
v -32 2.7753729820251465 13.02550995349884
v -37.326820015907288 2.973736047744751 13.995740056037903
v -37.222556948661804 2.7652299404144287 15.99083399772644
v -35.228740990161896 2.647183895111084 15.885921001434326
v -40 3.0910360813140869 14.855751037597656
v -32 2.7289330959320068 13.715222954750061
v -32 2.6848659515380859 14.369678974151611
v -33.234477996826172 2.6209321022033691 15.780693054199219
v -32 2.6317179203033447 15.079761981964111
v -40 2.9642260074615479 16
v -39.221146106719971 2.9379820823669434 16
v -37.396980047225952 2.7794029712677 16
v -37.222076058387756 2.7645750045776367 16
v -32 2.5874500274658203 15.715610980987549
v -35.222743988037109 2.64198899269104 16
v -37.212375998497009 2.7642168998718262 16
v -33.222965002059937 2.608475923538208 16
v -35.102015972137451 2.6387588977813721 16
v -32 2.5695950984954834 16
v -32.731494903564453 2.5918560028076172 16
v -32 2.5749120712280273 15.915307998657227
vt 0 0.030143976211547852
vt 0.014286000281572342 0.046014010906219482
vt 0 0.045264005661010742
vt 0.01671300083398819 0
vt 0.0035429999697953463 0
vt 0 0
vt 0.0012460000580176711 0.2951359748840332
vt 0.25065100193023682 0.3081439733505249
vt 0 0.295071005821228
vt 0 0.058866024017333984
vt 0 0.31899797916412354
vt 0 0.5448170006275177
vt 0.23762400448322296 0.55724498629570007
vt 0 1
vt 0 0.850262001156807
vt 0.0652960017323494 1
vt 0 0.79465700685977936
vt 0 0.55724999308586121
vt 0.22452400624752045 0.80645200610160828
vt 0.065424002707004547 0
vt 0.26367399096488953 0.059045016765594482
vt 0.50007098913192749 0.32112902402877808
vt 0.48699000477790833 0.57030799984931946
vt 0.26678299903869629 0
vt 0.44823899865150452 0
vt 0.51312702894210815 0.071985006332397461
vt 0.21432599425315857 1
vt 0.30891498923301697 1
vt 0.11463200300931931 1
vt 0.47386699914932251 0.81954799592494965
vt 0.51690798997879028 0
vt 0.76702499389648438 0
vt 0.76255601644515991 0.084958016872406
vt 0.68596798181533813 0
vt 0.73636198043823242 0.58336299657821655
vt 0.37140899896621704 1
vt 0.46435898542404175 1
vt 0.55255502462387085 1
vt 0.7232239842414856 0.83262300491333008
vt 0.62818902730941772 1
vt 0.74946701526641846 0.33414697647094727
vt 0.99885398149490356 0.34718000888824463
vt 0.98574000597000122 0.59640699625015259
vt 0.85696899890899658 0
vt 0.714402973651886 1
vt 0.796209990978241 1
vt 0.972586989402771 0.84568999707698822
vt 0.88497000932693481 1
vt 1 0
vt 1 0.097356975078582764
vt 1 0.32537698745727539
vt 1 0.34723997116088867
vt 0.964451014995575 1
vt 1 0.59715700149536133
vt 1 0.34845298528671265
vt 1 0.84712900221347809
vt 1 0.6122480034828186
vt 1 1
vt 1 0.90856300294399261
vt 0.98941302299499512 1
vn 0.020747000351548195 0.99866300821304321 0.047350000590085983
vn 0.14570200443267822 0.983879029750824 0.10369600355625153
vn 0.06121399998664856 0.99683499336242676 0.050714001059532166
vn 0.022684000432491302 0.99760198593139648 0.065392002463340759
vn 0.021700000390410423 0.998691976070404 0.04629800096154213
vn 0.021700000390410423 0.998691976070404 0.046301998198032379
vn 0.16772499680519104 0.98023200035095215 0.10494499653577805
vn 0.15242299437522888 0.98212301731109619 0.11046399921178818
vn 0.14748099446296692 0.98581600189208984 0.080099001526832581
vn 0.14521299302577972 0.98628997802734375 0.078387998044490814
vn 0.19123299419879913 0.97800499200820923 0.083286002278327942
vn 0.13514399528503418 0.9869229793548584 0.0878629982471466
vn 0.12181500345468521 0.98924297094345093 0.080991998314857483
vn 0.05810600146651268 0.9980430006980896 0.023089999333024025
vn 0.049006000161170959 0.99783200025558472 0.043924998492002487
vn 0.049102000892162323 0.99783700704574585 0.043705999851226807
vn 0.10849600285291672 0.99309498071670532 0.044626001268625259
vn 0.12060099840164185 0.99162697792053223 0.04616200178861618
vn 0.069735996425151825 0.996038019657135 0.055178999900817871
vn 0.051585998386144638 0.99364197254180908 0.10007599741220474
vn 0.13434599339962006 0.9817889928817749 0.13431799411773682
vn 0.11544699966907501 0.9852529764175415 0.12628699839115143
vn 0.094980001449584961 0.991445004940033 0.089525997638702393
vn 0.055833999067544937 0.98899799585342407 0.13698799908161163
vn 0.062813997268676758 0.9836050271987915 0.16904200613498688
vn 0.1170940026640892 0.98076498508453369 0.15616799890995026
vn 0.038446001708507538 0.9984859824180603 0.039335999637842178
vn 0.037675000727176666 0.99805200099945068 0.049736000597476959
vn 0.04109099879860878 0.99845802783966064 0.037319999188184738
vn 0.048673998564481735 0.99668502807617188 0.06519000232219696
vn 0.092914000153541565 0.98525702953338623 0.14365200698375702
vn 0.069426000118255615 0.98536300659179688 0.155689999461174
vn 0.092166997492313385 0.98867201805114746 0.11846199631690979
vn 0.08900199830532074 0.98453497886657715 0.15089499950408936
vn 0.062182001769542694 0.99419897794723511 0.087757997214794159
vn 0.0387520007789135 0.99783599376678467 0.053112998604774475
vn 0.039877001196146011 0.99752599000930786 0.057895999401807785
vn 0.0378200002014637 0.99708998203277588 0.066187001764774323
vn 0.032081998884677887 0.99666202068328857 0.075070001184940338
vn 0.037053998559713364 0.99704098701477051 0.067354999482631683
vn 0.079819999635219574 0.99155402183532715 0.10222200304269791
vn 0.078698001801967621 0.99204999208450317 0.098204001784324646
vn 0.046617999672889709 0.99504601955413818 0.087806001305580139
vn 0.0471780002117157 0.99137598276138306 0.12225999683141708
vn 0.036929000169038773 0.99706000089645386 0.067134998738765717
vn 0.034306999295949936 0.99673497676849365 0.073099002242088318
vn 0.025315999984741211 0.99702697992324829 0.072782002389431
vn 0.03225800022482872 0.99687200784683228 0.072152003645896912
vn 0.033472001552581787 0.99335801601409912 0.11008699983358383
vn 0.070410996675491333 0.99165797233581543 0.10796699672937393
vn 0.08610799908638 0.99052298069000244 0.10700199753046036
vn 0.081803001463413239 0.99440997838974 0.066765002906322479
vn 0.030621999874711037 0.99722898006439209 0.067798003554344177
vn 0.059436999261379242 0.99733597040176392 0.042289998382329941
vn 0.06114400178194046 0.99723201990127563 0.042298998683691025
vn 0.018592000007629395 0.99827301502227783 0.055723000317811966
vn 0.016730999574065208 0.998337984085083 0.055144000798463821
vn 0.030358999967575073 0.99757498502731323 0.062631003558635712
vn 0.031720001250505447 0.99772202968597412 0.059530001133680344
vn 0.030358999967575073 0.99757498502731323 0.062631003558635712
f 1/1/1 2/2/2 3/3/3
f 1/1/1 4/4/4 2/2/2
f 1/1/1 5/5/5 4/4/4
f 5/5/5 1/1/1 6/6/6
f 7/7/7 2/2/2 8/8/8
f 9/9/9 2/2/2 7/7/7
f 9/9/9 10/10/10 2/2/2
f 9/9/9 7/7/7 11/11/11
f 12/12/12 7/7/7 13/13/13
f 12/12/12 11/11/11 7/7/7
f 14/14/14 15/15/15 16/16/16
f 17/17/17 18/18/18 19/19/19
f 3/3/3 2/2/2 10/10/10
f 20/20/20 2/2/2 4/4/4
f 8/8/8 21/21/21 22/22/22
f 8/8/8 2/2/2 21/21/21
f 13/13/13 7/7/7 8/8/8
f 13/13/13 8/8/8 23/23/23
f 20/20/20 21/21/21 2/2/2
f 20/20/20 24/24/24 21/21/21
f 21/21/21 25/25/25 26/26/26
f 21/21/21 24/24/24 25/25/25
f 27/27/27 19/19/19 28/28/28
f 29/29/29 19/19/19 27/27/27
f 12/12/12 19/19/19 18/18/18
f 12/12/12 13/13/13 19/19/19
f 19/19/19 13/13/13 30/30/30
f 16/16/16 19/19/19 29/29/29
f 16/16/16 15/15/15 19/19/19
f 15/15/15 17/17/17 19/19/19
f 25/25/25 31/31/31 26/26/26
f 32/32/32 33/33/33 34/34/34
f 26/26/26 34/34/34 33/33/33
f 26/26/26 31/31/31 34/34/34
f 8/8/8 22/22/22 23/23/23
f 26/26/26 22/22/22 21/21/21
f 30/30/30 23/23/23 35/35/35
f 13/13/13 23/23/23 30/30/30
f 36/36/36 30/30/30 37/37/37
f 37/37/37 30/30/30 38/38/38
f 23/23/23 22/22/22 35/35/35
f 38/38/38 39/39/39 40/40/40
f 38/38/38 30/30/30 39/39/39
f 39/39/39 30/30/30 35/35/35
f 41/41/41 33/33/33 42/42/42
f 41/41/41 22/22/22 33/33/33
f 22/22/22 41/41/41 35/35/35
f 35/35/35 41/41/41 43/43/43
f 33/33/33 22/22/22 26/26/26
f 28/28/28 30/30/30 36/36/36
f 28/28/28 19/19/19 30/30/30
f 44/44/44 33/33/33 32/32/32
f 45/45/45 39/39/39 46/46/46
f 40/40/40 39/39/39 45/45/45
f 46/46/46 47/47/47 48/48/48
f 46/46/46 39/39/39 47/47/47
f 49/49/49 33/33/33 44/44/44
f 49/49/49 50/50/50 33/33/33
f 33/33/33 51/51/51 42/42/42
f 33/33/33 50/50/50 51/51/51
f 52/52/52 42/42/42 51/51/51
f 43/43/43 47/47/47 39/39/39
f 48/48/48 47/47/47 53/53/53
f 54/54/54 42/42/42 55/55/55
f 54/54/54 43/43/43 42/42/42
f 43/43/43 41/41/41 42/42/42
f 35/35/35 43/43/43 39/39/39
f 56/56/56 43/43/43 57/57/57
f 56/56/56 47/47/47 43/43/43
f 58/58/58 47/47/47 59/59/59
f 58/58/58 60/60/60 47/47/47
f 60/60/60 53/53/53 47/47/47
f 56/56/56 59/59/59 47/47/47
f 52/52/52 55/55/55 42/42/42
f 54/54/54 57/57/57 43/43/43
