mtllib m033220.mtl
usemtl material0
v -508.6771240234375 2.6258270740509033 64
v -512 2.800684928894043 73.157684326171875
v -508.10421752929688 2.5801479816436768 74.856239318847656
v -512 2.8121240139007568 64
v -492.67495727539062 3.1460180282592773 64
v -492.14755153656006 2.9050440788269043 74.012588500976562
v -498.3360595703125 3.038254976272583 64
v -483.13796997070312 3.6347310543060303 64
v -507.26190185546875 2.589108943939209 90.811225891113281
v -512 2.5931949615478516 77.068222045898438
v -512 2.7794730663299561 73.557464599609375
v -512 2.4729239940643311 104.33555603027344
v -512 2.2359321117401123 109.93498229980469
v -506.42037963867188 2.4295411109924316 106.76678466796875
v -512 2.6032280921936035 91.061386108398438
v -491.30645847320557 2.6561970710754395 89.968451976776123
v -505.58056640625 1.9085750579833984 122.72356414794922
v -490.46401977539062 2.6865670680999756 105.92336273193359
v -512 1.7964819669723511 123.06291198730469
v -512 1.7640559673309326 128
v -505.30215454101562 1.8786849975585938 128
v -512 1.7689609527587891 127.25316619873047
v -476.19073510169983 3.2645320892333984 73.168815612792969
v -476.67230200767517 3.7615110874176025 64
v -460.67288208007812 3.725985050201416 64
v -460.23504638671875 3.3837149143218994 72.32586669921875
v -467.9407958984375 3.6875879764556885 64
v -452.74380493164062 3.6311349868774414 64
v -475.35162401199341 2.5996770858764648 89.126105785369873
v -459.39370727539062 3.1866250038146973 88.28155517578125
v -474.50897216796875 2.6754560470581055 105.08085632324219
v -458.55307006835938 2.8385829925537109 104.23776245117188
v -448 3.2880640029907227 87.679573059082031
v -448 3.180757999420166 92.5089259147644
v -473.66696214675903 2.613955020904541 121.03607940673828
v -489.6234130859375 2.3389379978179932 121.87956237792969
v -448 3.5030059814453125 75.618339538574219
v -448 3.5544180870056152 71.679229736328125
v -457.71072387695312 2.85325288772583 120.19272613525391
v -495.13031005859375 2.1492159366607666 128
v -489.30142211914062 2.1074390411376953 128
v -479.93307500332594 2.2497799396514893 128
v -464.73544311523438 2.5595810413360596 128
v -473.3001708984375 2.4426000118255615 128
v -457.29888916015625 2.7832229137420654 128
v -448 3.0344951152801514 119.67935943603516
v -449.53775024414062 2.9240059852600098 128
v -448 2.968864917755127 126.29091644287109
v -448 2.8293750286102295 109.39945220947266
v -448 2.8237059116363525 103.68053388595581
v -448 3.6172370910644531 68.193267822265625
v -448 3.6928019523620605 64
v -448 2.994035005569458 128
vt 0.99808299541473389 0.053301990032196045
vt 0.85551798343658447 0.0014129877090454102
vt 0.82903701066970825 0.062156021595001221
vt 0.99811100959777832 0.0014809966087341309
vt 0.99800801277160645 0.3026130199432373
vt 0.84205001592636108 0.31067299842834473
vt 0.99805301427841187 0.21444898843765259
vt 0.99805599451065063 0.45130699872970581
vt 0.58061599731445312 0.07548600435256958
vt 0.79454201459884644 0.0015249848365783691
vt 0.84928399324417114 0.0014250278472900391
vt 0.36995700001716614 0.001896977424621582
vt 0.28269100189208984 0.0019649863243103027
vt 0.33217400312423706 0.0888109803199768
vt 0.5766569972038269 0.0017129778861999512
vt 0.59375101327896118 0.32392698526382446
vt 0.083581000566482544 0.10189902782440186
vt 0.345441997051239 0.33728998899459839
vt 0.0781639963388443 0.002147972583770752
vt 0.0012880000285804272 0.0022619962692260742
vt 0.0015360000543296337 0.10656797885894775
vt 0.012916999869048595 0.0022349953651428223
vt 0.85496699810028076 0.55920898914337158
vt 0.99795800447463989 0.55200201272964478
vt 0.99740898609161377 0.801133006811142
vt 0.86869299411773682 0.80746500194072723
vt 0.99761801958084106 0.687963992357254
vt 0.997992992401123 0.92455100268125534
vt 0.60661101341247559 0.57237198948860168
vt 0.62025302648544312 0.82099199295043945
vt 0.35850200057029724 0.58572599291801453
vt 0.37176498770713806 0.83417899906635284
vt 0.62974697351455688 0.99840200005564839
vt 0.55453097820281982 0.99843200005125254
vt 0.11006099730730057 0.59877899289131165
vt 0.096934996545314789 0.35044401884078979
vt 0.81778097152709961 0.99807900004088879
vt 0.87912100553512573 0.99797399993985891
vt 0.12315099686384201 0.84726199507713318
vt 0.0015600000042468309 0.26472997665405273
vt 0.0015689999563619494 0.35549300909042358
vt 0.0015579999890178442 0.50128799676895142
vt 0.0015660000499337912 0.73780599236488342
vt 0.0016789999790489674 0.60461199283599854
vt 0.0015790000325068831 0.85365200042724609
vt 0.13108700513839722 0.998494999948889
vt 0.0015770000172778964 0.97451899945735931
vt 0.028187999501824379 0.99847500002942979
vt 0.29118499159812927 0.998494999948889
vt 0.3802340030670166 0.99858699995093048
vt 0.93340897560119629 0.99797899997793138
vt 0.99871200323104858 0.99782399996183813
vt 0.0015729999868199229 0.99848800001200289
vn 0.009681999683380127 0.9999459981918335 0.003696999978274107
vn 0.047671001404523849 0.99865597486495972 0.020325999706983566
vn 0.0028780000284314156 0.99992400407791138 0.011970999650657177
vn 0.055977001786231995 0.99843102693557739 0.0012469999492168427
vn -0.034568000584840775 0.999068021774292 0.025865999981760979
vn -0.021973000839352608 0.99949997663497925 0.022718999534845352
vn -0.024581000208854675 0.99949699640274048 0.020059000700712204
vn -0.0279959999024868 0.99847501516342163 0.0475739985704422
vn -0.0022700000554323196 0.99997401237487793 0.0068589998409152031
vn 0.013179999776184559 0.999763011932373 0.017315000295639038
vn 0.033410001546144485 0.99803799390792847 0.052955001592636108
vn -0.001728000002913177 0.99976098537445068 0.021807000041007996
vn -0.013996000401675701 0.99923902750015259 0.036414999514818192
vn -0.0097829997539520264 0.99967902898788452 0.023359000682830811
vn 0.0032289999071508646 0.9999840259552002 0.0047260001301765442
vn -0.00445199990645051 0.99992001056671143 0.011826000176370144
vn -0.019853999838232994 0.999625027179718 0.01883699931204319
vn -0.010456999763846397 0.99990302324295044 0.0092479996383190155
vn -0.016421999782323837 0.99967402219772339 0.019556000828742981
vn -0.017111999914050102 0.99983197450637817 0.0065669999457895756
vn -0.022007999941706657 0.99973499774932861 0.0068239998072385788
vn -0.017110999673604965 0.99983197450637817 0.0065669999457895756
vn -0.011649999767541885 0.99913400411605835 0.0399480015039444
vn -0.0060259997844696045 0.99849897623062134 0.054437998682260513
vn 0.0030479999259114265 0.99915802478790283 0.040913999080657959
vn -0.0064659998752176762 0.999688982963562 0.024088000878691673
vn -0.0016120000509545207 0.99900197982788086 0.044643998146057129
vn -0.0063379998318850994 0.99969202280044556 0.024004999548196793
vn -0.015918999910354614 0.99968099594116211 0.019629999995231628
vn -0.015483999624848366 0.999701976776123 0.018871000036597252
vn -0.0085349995642900467 0.99996000528335571 0.0027260000351816416
vn -0.005061000119894743 0.99991500377655029 0.012000000104308128
vn -0.0078469999134540558 0.99976998567581177 0.019941000267863274
vn -0.0052040000446140766 0.99968701601028442 0.02448200061917305
vn -0.014522000215947628 0.99971598386764526 0.018881000578403473
vn -0.01666799932718277 0.99950599670410156 0.02665100060403347
vn -0.012024000287055969 0.99982702732086182 0.014161000028252602
vn -0.013124000281095505 0.99979197978973389 0.015616999939084053
vn -0.015417999587953091 0.99986898899078369 0.0048790001310408115
vn -0.017582999542355537 0.99972999095916748 0.015169000253081322
vn -0.0043819998390972614 0.99926698207855225 0.038026999682188034
vn -0.0188790000975132 0.99919998645782471 0.0352649986743927
vn -0.018029000610113144 0.99960899353027344 0.021378999575972557
vn -0.0210960004478693 0.99944698810577393 0.025704000145196915
vn -0.02389799989759922 0.99966198205947876 0.010227000340819359
vn -0.018952000886201859 0.99980497360229492 -0.0055129998363554478
vn -0.025435000658035278 0.99967098236083984 0.0033539999276399612
vn -0.024522999301552773 0.99969100952148438 0.0041749998927116394
vn -0.0035570000763982534 0.99997901916503906 -0.0054130000062286854
vn 0.0022559999488294125 0.99986898899078369 0.016031000763177872
vn -0.012996000237762928 0.99975299835205078 0.018015999346971512
vn -0.01299699954688549 0.99975299835205078 0.018015999346971512
vn -0.04548799991607666 0.99885702133178711 -0.014709999784827232
f 1/1/1 2/2/2 3/3/3
f 1/1/1 4/4/4 2/2/2
f 5/5/5 3/3/3 6/6/6
f 5/5/5 7/7/7 3/3/3
f 1/1/1 3/3/3 7/7/7
f 5/5/5 6/6/6 8/8/8
f 6/6/6 3/3/3 9/9/9
f 10/10/10 3/3/3 11/11/11
f 11/11/11 3/3/3 2/2/2
f 12/12/12 13/13/13 14/14/14
f 12/12/12 9/9/9 15/15/15
f 12/12/12 14/14/14 9/9/9
f 14/14/14 16/16/16 9/9/9
f 17/17/17 18/18/18 14/14/14
f 19/19/19 14/14/14 13/13/13
f 19/19/19 17/17/17 14/14/14
f 3/3/3 15/15/15 9/9/9
f 3/3/3 10/10/10 15/15/15
f 20/20/20 21/21/21 22/22/22
f 22/22/22 17/17/17 19/19/19
f 22/22/22 21/21/21 17/17/17
f 9/9/9 16/16/16 6/6/6
f 23/23/23 6/6/6 16/16/16
f 8/8/8 23/23/23 24/24/24
f 8/8/8 6/6/6 23/23/23
f 25/25/25 23/23/23 26/26/26
f 25/25/25 27/27/27 23/23/23
f 24/24/24 23/23/23 27/27/27
f 25/25/25 26/26/26 28/28/28
f 23/23/23 16/16/16 29/29/29
f 23/23/23 30/30/30 26/26/26
f 29/29/29 18/18/18 31/31/31
f 18/18/18 29/29/29 16/16/16
f 30/30/30 31/31/31 32/32/32
f 31/31/31 30/30/30 29/29/29
f 33/33/33 32/32/32 34/34/34
f 33/33/33 30/30/30 32/32/32
f 18/18/18 35/35/35 31/31/31
f 23/23/23 29/29/29 30/30/30
f 18/18/18 17/17/17 36/36/36
f 37/37/37 26/26/26 30/30/30
f 37/37/37 38/38/38 26/26/26
f 18/18/18 16/16/16 14/14/14
f 31/31/31 39/39/39 32/32/32
f 40/40/40 41/41/41 36/36/36
f 36/36/36 42/42/42 35/35/35
f 36/36/36 41/41/41 42/42/42
f 40/40/40 17/17/17 21/21/21
f 40/40/40 36/36/36 17/17/17
f 35/35/35 43/43/43 39/39/39
f 35/35/35 44/44/44 43/43/43
f 43/43/43 45/45/45 39/39/39
f 46/46/46 47/47/47 48/48/48
f 46/46/46 39/39/39 47/47/47
f 39/39/39 45/45/45 47/47/47
f 31/31/31 35/35/35 39/39/39
f 42/42/42 44/44/44 35/35/35
f 18/18/18 36/36/36 35/35/35
f 49/49/49 32/32/32 39/39/39
f 49/49/49 50/50/50 32/32/32
f 38/38/38 28/28/28 26/26/26
f 38/38/38 51/51/51 28/28/28
f 51/51/51 52/52/52 28/28/28
f 50/50/50 34/34/34 32/32/32
f 46/46/46 49/49/49 39/39/39
f 33/33/33 37/37/37 30/30/30
f 53/53/53 48/48/48 47/47/47
