mtllib m033020.mtl
usemtl material0
v -495.1578369140625 3.5705349445343018 320
v -512 5.33942985534668 322.552490234375
v -494.6273193359375 2.6427159309387207 330.13619995117188
v -512 5.5573129653930664 320
v -485.50711107254028 3.006364107131958 320
v -479.16284197568893 2.64119291305542 320
v -478.67623901367188 1.7981990575790405 329.29647827148438
v -512 3.2414770126342773 339.99984741210938
v -512 5.0788078308105469 324.71990966796875
v -463.16168212890625 2.9597740173339844 320
v -462.7188720703125 2.2724308967590332 328.45236206054688
v -470.3104248046875 2.7785758972167969 320
v -455.11325073242188 2.8369219303131104 320
v -461.88201904296875 1.133234977722168 344.41116285324097
v -448 3.150130033493042 327.67239379882812
v -448 3.1666109561920166 326.47686767578125
v -448 3.2558948993682861 320
v -448 2.2732770442962646 341.69479370117188
v -477.83566308021545 1.4397510290145874 345.25268602371216
v -493.786865234375 2.2622959613800049 346.09246778488159
v -492.94412231445312 2.3559141159057617 362.04714965820312
v -492.103759765625 1.9543470144271851 378.00350952148438
v -476.99465894699097 1.169605016708374 361.20858764648438
v -512 3.1458261013031006 353.74041700363159
v -512 3.090662956237793 347.05169677734375
v -512 3.2537760734558105 372.8663330078125
v -512 3.1175589561462402 379.05056762695312
v -491.7880859375 1.774785041809082 384
v -512 3.0575261116027832 381.291259765625
v -512 2.9849510192871094 384
v -476.1542661190033 0.77243298292160034 377.16488647460938
v -482.30334496498108 1.0589799880981445 384
v -461.04541015625 -0.056816998869180679 360.3701171875
v -448 1.9531480073928833 345.87442016601562
v -448 0.0589900016784668 359.68087816238403
v -448 2.1249139308929443 343.675048828125
v -448 -0.48210299015045166 372.1102294921875
v -460.204345703125 -0.31141400337219238 376.32595825195312
v -475.79510498046875 0.43517601490020752 384
v -467.10848999023438 -0.17596200108528137 384
v -451.91253662109375 -0.80102401971817017 384
v -459.80084228515625 -0.63888299465179443 384
v -448 -0.535493016242981 375.68218994140625
v -448 -0.70058399438858032 379.65151977539062
v -448 -0.78327202796936035 384
vt 0.25658199191093445 0.02483600378036499
vt 0.0021180000621825457 0.069830000400543213
vt 0.26998600363731384 0.17804199457168579
vt 0.00077199999941512942 0.031199991703033447
vt 0.40238299965858459 0.020466983318328857
vt 0.49822500348091125 0.017587006092071533
vt 0.51051199436187744 0.15808999538421631
vt 0.012350000441074371 0.33478802442550659
vt 0.0033889999613165855 0.10274499654769898
vt 0.73954898118972778 0.00866997241973877
vt 0.7508389949798584 0.13735699653625488
vt 0.63172399997711182 0.012705028057098389
vt 0.86102598905563354 0.0055750012397766113
vt 0.77099800109863281 0.37825697660446167
vt 0.97272402048110962 0.11723297834396362
vt 0.97206002473831177 0.09920501708984375
vt 0.96846598386764526 0.0015329718589782715
vt 0.9795219898223877 0.32958900928497314
vt 0.53074097633361816 0.39839398860931396
vt 0.29021498560905457 0.41835498809814453
vt 0.310122013092041 0.65860798954963684
vt 0.33048900961875916 0.89891800284385681
vt 0.550948977470398 0.63866901397705078
vt 0.018705999478697777 0.542046993970871
vt 0.015683000907301903 0.44116401672363281
vt 0.027372000738978386 0.83050799369812012
vt 0.030314000323414803 0.923796996474266
vt 0.33817499876022339 0.98923700023442507
vt 0.031392000615596771 0.95760099962353706
vt 0.032694000750780106 0.99846599996089935
vt 0.57131499052047729 0.87897499650716782
vt 0.48162901401519775 0.98490099981427193
vt 0.79185599088668823 0.61915498971939087
vt 0.98183101415634155 0.39240700006484985
vt 0.98827999830245972 0.60258200764656067
vt 0.98045402765274048 0.35953801870346069
vt 0.99387598037719727 0.79048599302768707
vt 0.81165099143981934 0.85945999622344971
vt 0.58002197742462158 0.98200899921357632
vt 0.71136200428009033 0.97825999930500984
vt 0.940218985080719 0.971645999699831
vt 0.82179498672485352 0.97486099973320961
vt 0.99546700716018677 0.84436500072479248
vt 0.99726802110672 0.90428200364112854
vt 0.99922800064086914 0.96987799927592278
vn 0.0885860025882721 0.99233198165893555 0.086197003722190857
vn 0.11116799712181091 0.98905301094055176 0.097038000822067261
vn 0.071509003639221191 0.99543297290802 0.063242003321647644
vn 0.11673299968242645 0.98956501483917236 0.0844699963927269
vn 0.0574829988181591 0.99451297521591187 0.087401002645492554
vn 0.0221560001373291 0.99577301740646362 0.089135996997356415
vn 0.022019999101758003 0.99794697761535645 0.060145001858472824
vn 0.0651789978146553 0.99639397859573364 0.054313000291585922
vn 0.10147500038146973 0.98772299289703369 0.11876899749040604
vn -0.0056880000047385693 0.99667000770568848 0.081347003579139709
vn -0.033659998327493668 0.9971429705619812 0.0676259994506836
vn -0.022636000066995621 0.99615097045898438 0.084680996835231781
vn -0.039057999849319458 0.99873900413513184 0.03155599907040596
vn -0.021671999245882034 0.99792498350143433 0.060630999505519867
vn -0.057519998401403427 0.99765098094940186 0.037195000797510147
vn -0.058793000876903534 0.99817502498626709 0.01375999953597784
vn -0.058793000876903534 0.99817502498626709 0.01375999953597784
vn -0.064181998372077942 0.995389997959137 0.07127399742603302
vn 0.039156001061201096 0.99912101030349731 0.014942999929189682
vn 0.048803001642227173 0.99878799915313721 0.006399999838322401
vn 0.059445999562740326 0.99820399284362793 0.0074180001392960548
vn 0.067400999367237091 0.997439980506897 0.023901000618934631
vn 0.068310998380184174 0.99738997220993042 0.023374000564217567
vn 0.044583000242710114 0.99897897243499756 -0.0072780000045895576
vn 0.045752998441457748 0.99893397092819214 0.0060689998790621758
vn 0.054258998483419418 0.998445987701416 0.01270699966698885
vn 0.059627998620271683 0.99792200326919556 0.024436000734567642
vn 0.0677580013871193 0.99735498428344727 0.026297999545931816
vn 0.059744998812675476 0.9978560209274292 0.026735000312328339
vn 0.059746000915765762 0.9978560209274292 0.026735000312328339
vn 0.0748319998383522 0.99672502279281616 0.030634000897407532
vn 0.080597996711730957 0.9962729811668396 0.030741000548005104
vn 0.032416000962257385 0.99798297882080078 0.054582998156547546
vn -0.051826000213623047 0.99447798728942871 0.091252997517585754
vn -0.0040119998157024384 0.995809018611908 0.09137299656867981
vn -0.0670349970459938 0.99484801292419434 0.076056003570556641
vn 0.01228800043463707 0.99967002868652344 0.022559000179171562
vn 0.044877000153064728 0.99857598543167114 0.028858000412583351
vn 0.082267001271247864 0.99560302495956421 0.044801998883485794
vn 0.068255998194217682 0.99670499563217163 0.04381600022315979
vn 0.013844000175595284 0.99927198886871338 0.0355370007455349
vn 0.041124999523162842 0.99833500385284424 0.040438998490571976
vn 0.01981700025498867 0.9994170069694519 0.027806000784039497
vn 0.014688000082969666 0.99923300743103027 0.036295998841524124
vn -0.0045360000804066658 0.99980902671813965 0.019012000411748886
f 1/1/1 2/2/2 3/3/3
f 1/1/1 4/4/4 2/2/2
f 5/5/5 1/1/1 3/3/3
f 6/6/6 3/3/3 7/7/7
f 6/6/6 5/5/5 3/3/3
f 8/8/8 3/3/3 9/9/9
f 9/9/9 3/3/3 2/2/2
f 10/10/10 7/7/7 11/11/11
f 10/10/10 12/12/12 7/7/7
f 6/6/6 7/7/7 12/12/12
f 10/10/10 11/11/11 13/13/13
f 11/11/11 7/7/7 14/14/14
f 15/15/15 13/13/13 11/11/11
f 15/15/15 16/16/16 13/13/13
f 16/16/16 17/17/17 13/13/13
f 15/15/15 11/11/11 18/18/18
f 7/7/7 3/3/3 19/19/19
f 19/19/19 20/20/20 21/21/21
f 3/3/3 20/20/20 19/19/19
f 21/21/21 22/22/22 23/23/23
f 24/24/24 20/20/20 25/25/25
f 24/24/24 21/21/21 20/20/20
f 25/25/25 3/3/3 8/8/8
f 25/25/25 20/20/20 3/3/3
f 24/24/24 26/26/26 21/21/21
f 27/27/27 28/28/28 22/22/22
f 27/27/27 29/29/29 28/28/28
f 29/29/29 30/30/30 28/28/28
f 28/28/28 31/31/31 22/22/22
f 28/28/28 32/32/32 31/31/31
f 21/21/21 27/27/27 22/22/22
f 21/21/21 26/26/26 27/27/27
f 21/21/21 23/23/23 19/19/19
f 14/14/14 23/23/23 33/33/33
f 23/23/23 14/14/14 19/19/19
f 34/34/34 33/33/33 35/35/35
f 33/33/33 36/36/36 14/14/14
f 33/33/33 34/34/34 36/36/36
f 35/35/35 33/33/33 37/37/37
f 36/36/36 11/11/11 14/14/14
f 36/36/36 18/18/18 11/11/11
f 33/33/33 23/23/23 38/38/38
f 39/39/39 31/31/31 32/32/32
f 31/31/31 40/40/40 38/38/38
f 31/31/31 39/39/39 40/40/40
f 41/41/41 38/38/38 42/42/42
f 41/41/41 43/43/43 38/38/38
f 41/41/41 44/44/44 43/43/43
f 38/38/38 37/37/37 33/33/33
f 38/38/38 43/43/43 37/37/37
f 42/42/42 38/38/38 40/40/40
f 23/23/23 31/31/31 38/38/38
f 31/31/31 23/23/23 22/22/22
f 14/14/14 7/7/7 19/19/19
f 44/44/44 41/41/41 45/45/45
