mtllib m033100.mtl
usemtl material0
v -256 1.5917550325393677 453.40286254882812
v -251.13934326171875 1.4157739877700806 448
v -256 1.6799999475479126 448
v -248.41815185546875 1.2613769769668579 448
v -256 1.4415479898452759 461.53411865234375
v -247.72805786132813 0.98025399446487427 461.09872436523438
v -256 1.5636390447616577 454.92486572265625
v -232.41487121582031 1.9953769445419312 448
v -231.7691798210144 1.7571380138397217 460.25363159179688
v -235.94148254394531 1.8277980089187622 448
v -220.74345397949219 2.33453106880188 448
v -246.88484191894531 1.172389030456543 477.05307006835938
v -256 1.5508999824523926 468.849365234375
v -230.93208312988281 0.6861109733581543 476.21215796470642
v -256 1.3849049806594849 477.53378295898438
v -256 0.60421097278594971 487.18316698074341
v -256 0.16658000648021698 509.53643798828125
v -247.93521118164063 -0.21040600538253784 512
v -245.20767211914063 -0.35662099719047546 508.96810913085938
v -256 0.17203700542449951 510.66323852539062
v -256 0.17851099371910095 512
v -256 0.29350298643112183 504.07369995117188
v -246.04795837402344 0.055877000093460083 493.01174926757812
v -256 0.16453799605369568 493.53695678710938
v -230.09318494796753 -0.013415999710559845 492.16946411132812
v -214.98045253753662 -0.030218999832868576 475.37197923660278
v -229.25654602050781 -1.1768770217895508 508.12826538085938
v -245.04766845703125 -0.36515399813652039 512
v -232.7396240234375 -0.99813598394393921 512
v -229.05168199539185 -1.0836160182952881 512
v -217.54142808914185 -0.40458899736404419 512
v -213.29696655273438 -0.2530980110168457 507.28271484375
v -214.13676452636719 0.25803101062774658 491.32601928710938
v -215.81100463867188 2.3864889144897461 459.40899658203125
v -216.41272020339966 2.5025238990783691 448
v -205.54583740234375 2.6140189170837402 448
v -199.01652526855469 1.7865359783172607 474.52346801757812
v -199.85325622558594 2.92933988571167 458.56466674804688
v -192 2.4578509330749512 448
v -194.70703125 2.5994930267333984 448
v -192 2.5443480014801025 450.4359130859375
v -192 2.6585900783538818 458.15078735351562
v -192 2.0617179870605469 466.725341796875
v -192 1.6357020139694214 474.15341186523438
v -198.17678833007813 1.2618110179901123 490.48019409179688
v -192 1.3360999822616577 483.6150209903717
v -192 0.9514700174331665 490.15496826171875
v -200.41166687011719 2.7917149066925049 448
v -192 0.55953299999237061 496.04275512695312
v -197.33969116210938 0.19307500123977661 506.438720703125
v -213.04904174804688 -0.47292500734329224 512
v -202.34396362304688 -0.20074799656867981 512
v -197.0474853515625 -0.082927003502845764 512
v -192 -0.088123999536037445 506.1575927734375
v -192 -0.23742300271987915 509.35232543945312
v -192 -0.36115598678588867 512
vt 0.909820020198822 0.00039702653884887695
vt 0.99340498447418213 0.07562100887298584
vt 0.99340498447418213 0.0003229975700378418
vt 0.993403971195221 0.11778098344802856
vt 0.78402101993560791 0.000523984432220459
vt 0.79075199365615845 0.12867701053619385
vt 0.88627302646636963 0.000420987606048584
vt 0.993930995464325 0.36558699607849121
vt 0.80427199602127075 0.37580400705337524
vt 0.99381297826766968 0.31097400188446045
vt 0.994159996509552 0.546205997467041
vt 0.54393500089645386 0.14152801036834717
vt 0.67085301876068115 0.0004259943962097168
vt 0.556846022605896 0.3884119987487793
vt 0.53649401664733887 0.00049197673797607422
vt 0.38674798607826233 0.00080198049545288086
vt 0.040823999792337418 0.001082003116607666
vt 0.0027139999438077211 0.12596702575683594
vt 0.049612998962402344 0.16821801662445068
vt 0.02339399978518486 0.0010769963264465332
vt 0.0027159999590367079 0.0010719895362854004
vt 0.12534700334072113 0.00098598003387451172
vt 0.29649999737739563 0.15492600202560425
vt 0.28823000192642212 0.00098198652267456055
vt 0.30979099869728088 0.40170997381210327
vt 0.56967997550964355 0.63541600108146667
vt 0.062313001602888107 0.41529899835586548
vt 0.002710999920964241 0.17064201831817627
vt 0.0024870000779628754 0.36127901077270508
vt 0.0023990001063793898 0.41834098100662231
vt 0.0031570000573992729 0.59714698791503906
vt 0.07641100138425827 0.66252601146698
vt 0.322860985994339 0.64856499433517456
vt 0.817628026008606 0.62282800674438477
vt 0.99410498142242432 0.613315999507904
vt 0.995872974395752 0.77968800067901611
vt 0.5824810266494751 0.88396400213241577
vt 0.83343297243118286 0.86967000365257263
vt 0.993573009967804 0.99447799986228347
vt 0.99781399965286255 0.94743400067090988
vt 0.95586997270584106 0.99467700021341443
vt 0.83656400442123413 0.99140700045973063
vt 0.70361000299453735 0.99201999977231026
vt 0.58768802881240845 0.99255000008270144
vt 0.33547100424766541 0.89595399796962738
vt 0.4412589967250824 0.99195499997586012
vt 0.33992201089859009 0.99164799973368645
vt 0.99675500392913818 0.85914899408817291
vt 0.24832099676132202 0.99111299961805344
vt 0.087990999221801758 0.90739800035953522
vt 0.0033780001103878021 0.66664499044418335
vt 0.0024059999268501997 0.83150400221347809
vt 0.0030110001098364592 0.91345000267028809
vt 0.091541998088359833 0.99014700017869472
vt 0.042072001844644547 0.98979500029236078
vt 0.0021860001143068075 0.99164099991321564
vn 0.056086000055074692 0.99826502799987793 0.017942000180482864
vn 0.056007001549005508 0.99826997518539429 0.017870999872684479
vn 0.054273001849651337 0.99839299917221069 0.016307000070810318
vn 0.0073680002242326736 0.99975097179412842 0.021068999543786049
vn 0.055743001401424408 0.99844402074813843 0.0012019999558106065
vn 0.014396999962627888 0.99980401992797852 0.013589000329375267
vn 0.056637998670339584 0.99822402000427246 0.018440000712871552
vn -0.038552001118659973 0.99902600049972534 0.021454999223351479
vn -0.040479999035596848 0.99820500612258911 0.044142000377178192
vn -0.046890001744031906 0.99864798784255981 0.0224239993840456
vn -0.036168001592159271 0.999239981174469 0.014541000127792358
vn 0.031114000827074051 0.99897599220275879 0.032846000045537949
vn 0.046741999685764313 0.9988899827003479 -0.0058470000512897968
vn 0.017066000029444695 0.99814897775650024 0.058373000472784042
vn 0.025960000231862068 0.99836701154708862 0.0508899986743927
vn 0.017551999539136887 0.99726998805999756 0.071727998554706573
vn 0.048877999186515808 0.99876701831817627 0.0087169995531439781
vn 0.0495930016040802 0.99876302480697632 -0.0035510000307112932
vn 0.045552998781204224 0.99881500005722046 0.017155999317765236
vn 0.04816799983382225 0.99882799386978149 -0.00483699981123209
vn 0.048167001456022263 0.99882799386978149 -0.00483699981123209
vn 0.04045800119638443 0.99906998872756958 0.014937000349164009
vn 0.017630999907851219 0.999085009098053 0.0389540009200573
vn 0.012342000380158424 0.9995570182800293 0.027062999084591866
vn 0.0096060000360012054 0.99897700548172 0.04418100044131279
vn -0.0286640003323555 0.9974520206451416 0.065333001315593719
vn -0.000307999987853691 0.9997439980506897 0.022601999342441559
vn 0.052400998771190643 0.9986259937286377 4.5000000682193786E-05
vn 0.043846998363733292 0.99901598691940308 -0.0066740000620484352
vn -0.019262000918388367 0.99954897165298462 -0.023057999089360237
vn -0.039140999317169189 0.99922901391983032 -0.0031290000770241022
vn -0.03235200047492981 0.9989590048789978 0.032161999493837357
vn -0.045648999512195587 0.99864000082015991 0.025182999670505524
vn -0.0197369996458292 0.99749600887298584 0.0679050013422966
vn -0.024986999109387398 0.99962198734283447 0.011483999900519848
vn -0.0281009990721941 0.99959099292755127 -0.0053480002097785473
vn -0.035544998943805695 0.998304009437561 0.046101000159978867
vn -0.0075240000151097775 0.999193012714386 0.0394430011510849
vn 0.052218999713659286 0.99800699949264526 -0.035438999533653259
vn 0.038003001362085342 0.999085009098053 -0.019616000354290009
vn 0.038630001246929169 0.99904698133468628 -0.020313000306487083
vn 0.035808999091386795 0.99902200698852539 0.0259380005300045
vn 0.034866001456975937 0.997173011302948 0.066559001803398132
vn 0.023835999891161919 0.99870902299880981 0.044865000993013382
vn -0.0067309997975826263 0.99851500988006592 0.054058000445365906
vn 0.030164999887347221 0.99882400035858154 0.037948999553918838
vn 0.053357001394033432 0.99662697315216064 0.062357001006603241
vn -0.0016049999976530671 0.99991500377655029 -0.012941000051796436
vn 0.055224999785423279 0.99638998508453369 0.06447099894285202
vn 0.011114000342786312 0.99853801727294922 0.052893001586198807
vn -0.0057729999534785748 0.99888497591018677 0.046852000057697296
vn -0.02454099990427494 0.99851500988006592 0.04862700030207634
vn 0.017703000456094742 0.99866002798080444 0.048631999641656876
vn 0.055420998483896255 0.99692100286483765 0.055479001253843307
vn 0.054979000240564346 0.9973989725112915 0.0466109998524189
vn 0.054979000240564346 0.9973989725112915 0.0466109998524189
f 1/1/1 2/2/2 3/3/3
f 4/4/4 5/5/5 6/6/6
f 4/4/4 7/7/7 5/5/5
f 7/7/7 2/2/2 1/1/1
f 7/7/7 4/4/4 2/2/2
f 8/8/8 6/6/6 9/9/9
f 8/8/8 10/10/10 6/6/6
f 4/4/4 6/6/6 10/10/10
f 8/8/8 9/9/9 11/11/11
f 5/5/5 12/12/12 6/6/6
f 5/5/5 13/13/13 12/12/12
f 6/6/6 14/14/14 9/9/9
f 15/15/15 16/16/16 12/12/12
f 17/17/17 18/18/18 19/19/19
f 17/17/17 20/20/20 18/18/18
f 20/20/20 21/21/21 18/18/18
f 22/22/22 23/23/23 24/24/24
f 22/22/22 19/19/19 23/23/23
f 22/22/22 17/17/17 19/19/19
f 12/12/12 23/23/23 14/14/14
f 25/25/25 23/23/23 19/19/19
f 23/23/23 25/25/25 14/14/14
f 25/25/25 26/26/26 14/14/14
f 25/25/25 19/19/19 27/27/27
f 6/6/6 12/12/12 14/14/14
f 18/18/18 28/28/28 19/19/19
f 28/28/28 27/27/27 19/19/19
f 28/28/28 29/29/29 27/27/27
f 29/29/29 30/30/30 27/27/27
f 27/27/27 31/31/31 32/32/32
f 27/27/27 30/30/30 31/31/31
f 25/25/25 27/27/27 33/33/33
f 16/16/16 23/23/23 12/12/12
f 16/16/16 24/24/24 23/23/23
f 13/13/13 15/15/15 12/12/12
f 9/9/9 14/14/14 34/34/34
f 11/11/11 34/34/34 35/35/35
f 11/11/11 9/9/9 34/34/34
f 35/35/35 34/34/34 36/36/36
f 26/26/26 33/33/33 37/37/37
f 38/38/38 34/34/34 26/26/26
f 25/25/25 33/33/33 26/26/26
f 14/14/14 26/26/26 34/34/34
f 39/39/39 40/40/40 41/41/41
f 37/37/37 38/38/38 26/26/26
f 42/42/42 37/37/37 43/43/43
f 42/42/42 38/38/38 37/37/37
f 44/44/44 45/45/45 46/46/46
f 44/44/44 37/37/37 45/45/45
f 45/45/45 37/37/37 33/33/33
f 44/44/44 43/43/43 37/37/37
f 47/47/47 46/46/46 45/45/45
f 41/41/41 38/38/38 42/42/42
f 41/41/41 40/40/40 38/38/38
f 40/40/40 48/48/48 38/38/38
f 47/47/47 45/45/45 49/49/49
f 38/38/38 36/36/36 34/34/34
f 38/38/38 48/48/48 36/36/36
f 45/45/45 33/33/33 50/50/50
f 31/31/31 51/51/51 32/32/32
f 32/32/32 52/52/52 50/50/50
f 32/32/32 51/51/51 52/52/52
f 53/53/53 50/50/50 52/52/52
f 54/54/54 50/50/50 55/55/55
f 55/55/55 53/53/53 56/56/56
f 55/55/55 50/50/50 53/53/53
f 33/33/33 32/32/32 50/50/50
f 49/49/49 50/50/50 54/54/54
f 49/49/49 45/45/45 50/50/50
f 27/27/27 32/32/32 33/33/33
