mtllib m1002.mtl
usemtl material0
v 0 -17.283349990844727 1553.894287109375
v 16.098594665527344 -17.742588043212891 1536
v 0 -17.262889862060547 1536.639892578125
v 0.5805206298828125 -17.279455184936523 1536
v 0 -17.262166976928711 1536.0306396484375
v 0 -14.917863845825195 1621.46435546875
v 20.249488830566406 -15.919379234313965 1598.9552001953125
v 0 -15.957780838012695 1600.0245361328125
v 0 -15.712615013122559 1756.5908203125
v 26.991386413574219 -15.168476104736328 1726.5921630859375
v 0 -14.609796524047852 1728.015869140625
v 0 -14.897771835327148 1689.0286865234375
v 23.62030029296875 -15.571401596069336 1662.7736819982529
v 0 -14.593700408935547 1664.0183109994978
v 28.932891845703125 -14.544192314147949 1792
v 30.363265991210938 -14.602207183837891 1790.4100341796875
v 0.2949981689453125 -15.443110466003418 1792
v 16.916786193847656 -17.73979377746582 1536
v 76.891517639160156 -15.58299732208252 1536
v 84.071640014648438 -15.508053779602051 1595.583984375
v 0 -17.260368347167969 1536
v 0 -15.712615013122559 1756.5908203125
v 0 -15.457478523254395 1791.1859130859375
v 0 -15.4514741897583 1792
v 90.805488586425781 -16.387006759643555 1723.2257080078125
v 89.7210922241211 -14.513373374938965 1792
v 30.447288513183594 -14.585720062255859 1792
v 94.1836166381836 -14.559039115905762 1787.0399169921875
v 87.438018798828125 -16.058010101318359 1659.4051508903503
v 80.925895690917969 -15.556894302368164 1536
v 151.24856567382813 -17.991111755371094 1656.0408940315247
v 154.61663818359375 -18.194133758544922 1719.8609619140625
v 147.87924194335938 -18.035871505737305 1592.221435546875
v 94.444671630859375 -14.713427543640137 1792
v 150.50411987304688 -16.7015438079834 1792
v 157.99302673339844 -16.723583221435547 1783.67626953125
v 137.67855834960938 -16.058500289916992 1536
v 211.70158386230469 -17.586915969848633 1588.85009765625
v 215.06831359863281 -18.061191558837891 1652.6710214614868
v 158.43263244628906 -16.686819076538086 1792
v 221.80903625488281 -17.547067642211914 1780.30859375
v 211.29067993164063 -17.354721069335938 1792
v 218.42965698242188 -19.614776611328125 1716.4951171875
v 144.91986083984375 -16.355949401855469 1536
v 198.46464538574219 -16.946557998657227 1536
v 256 -18.525850296020508 1536
v 256 -18.567459106445312 1539.6112060546875
v 208.91520690917969 -16.880605697631836 1536
v 256 -18.402858734130859 1650.5106201171875
v 256 -18.980348587036133 1674.738525390625
v 256 -19.006019592285156 1714.5096435546875
v 256 -18.131685256958008 1742.304931640625
v 256 -18.367847442626953 1586.5130615234375
v 256 -18.501808166503906 1607.175537109375
v 222.42938232421875 -16.934762954711914 1792
v 256 -18.394973754882812 1778.5054931640625
v 256 -17.872690200805664 1788.2607421875
v 256 -17.67249870300293 1792
vt 0.93259602785110474 0.035284996032714844
vt 0.99741798639297485 0.098460018634796143
vt 0.99741798639297485 0.037858009338378906
vt 0.99973499774932861 0.040135979652404785
vt 0.99970698356628418 0.037949025630950928
vt 0.67858600616455078 0.025107979774475098
vt 0.76018601655960083 0.1045680046081543
vt 0.75922501087188721 0.02833402156829834
vt 0.17082999646663666 0.0053560137748718262
vt 0.27966699004173279 0.11106300354003906
vt 0.27826699614524841 0.009449005126953125
vt 0.42473998665809631 0.015217006206512451
vt 0.51992702484130859 0.10782802104949951
vt 0.51871097087860107 0.018830001354217529
vt 0.033626001328229904 0.10883498191833496
vt 0.0394040010869503 0.11427497863769531
vt 0.0377580001950264 0.0011889934539794922
vt 0.997294008731842 0.10153299570083618
vt 0.98803001642227173 0.32697999477386475
vt 0.76343899965286255 0.34484201669692993
vt 0.99982202053070068 0.037953019142150879
vt 0.17082999646663666 0.0053560137748718262
vt 0.040858998894691467 0.00019699335098266602
vt 0.037799999117851257 8.1002712249755859E-05
vt 0.28290000557899475 0.35134601593017578
vt 0.024589000269770622 0.33703500032424927
vt 0.033417999744415283 0.11435401439666748
vt 0.042559999972581863 0.35453802347183228
vt 0.52316498756408691 0.34808701276779175
vt 0.98775601387023926 0.34210902452468872
vt 0.52633202075958252 0.58842200040817261
vt 0.28609201312065125 0.5916689932346344
vt 0.76659202575683594 0.58524399995803833
vt 0.023878000676631927 0.35479599237442017
vt 0.015479999594390392 0.565531998872757
vt 0.045855998992919922 0.59489500522613525
vt 0.97910600900650024 0.55531901121139526
vt 0.76977598667144775 0.82552100718021393
vt 0.52950400114059448 0.828684002161026
vt 0.014413000084459782 0.59532201290130615
vt 0.04897800087928772 0.83516299724578857
vt 0.00660800002515316 0.79391899704933166
vt 0.28921100497245789 0.83196400105953217
vt 0.97834098339080811 0.58249598741531372
vt 0.97030699253082275 0.78366400301456451
vt 0.961663007736206 0.99991900000168243
vt 0.948153018951416 0.99932200001785532
vt 0.96875697374343872 0.82292500138282776
vt 0.5316460132598877 0.98278200067579746
vt 0.4405980110168457 0.97923400066792965
vt 0.29113700985908508 0.97342300042510033
vt 0.18666300177574158 0.96928600035607815
vt 0.77195000648498535 0.99231600016355515
vt 0.69432300329208374 0.989245000295341
vt 0.0049069998785853386 0.83579300343990326
vt 0.050659999251365662 0.96392000094056129
vt 0.014245999976992607 0.96249699965119362
vt 0.00017800000205170363 0.96195299923419952
vn 0.0043420000001788139 0.999754011631012 -0.021750999614596367
vn 0.0054560001008212566 0.99976998567581177 -0.020748000591993332
vn 0.029830999672412872 0.99955397844314575 0.0011859999503940344
vn 0.029882000759243965 0.999550998210907 0.0021510000806301832
vn 0.0312809981405735 0.99909102916717529 0.028945000842213631
vn 0.03038099966943264 0.99939101934432983 -0.017134999856352806
vn -0.0032709999941289425 0.99981600046157837 -0.018905000761151314
vn -0.0039499998092651367 0.99923497438430786 -0.038917001336812973
vn 0.022711999714374542 0.99899798631668091 0.038554999977350235
vn 0.012338999658823013 0.99992400407791138 -0.00072800001362338662
vn 0.021553000435233116 0.9996340274810791 0.016355000436306
vn 0.025366999208927155 0.99967402219772339 -0.002827000105753541
vn 0.020015999674797058 0.99979597330093384 -0.0025959999766200781
vn 0.041492998600006104 0.99913501739501953 0.0025979999918490648
vn -0.015646999701857567 0.99860101938247681 -0.050512999296188354
vn -0.00583800021559 0.99980700016021729 -0.018782999366521835
vn -0.028395000845193863 0.99956202507019043 -0.0083360001444816589
vn -0.019119000062346458 0.99942797422409058 -0.027886999770998955
vn -0.014333000406622887 0.99986898899078369 -0.0075530000030994415
vn 0.014770000241696835 0.99987697601318359 0.00519599998369813
vn 0.032804001122713089 0.99774402379989624 0.058570001274347305
vn -0.02834399975836277 0.99957102537155151 -0.00737199978902936
vn -0.02834399975836277 0.99957102537155151 -0.00737199978902936
vn -0.028342999517917633 0.99957102537155151 -0.00737199978902936
vn 0.020917000249028206 0.99972498416900635 -0.010621000081300736
vn 0.010397999547421932 0.9999459981918335 0.00014800000644754618
vn 0.012616000138223171 0.99985998868942261 -0.01103499997407198
vn 0.020868999883532524 0.99977302551269531 -0.0043520000763237476
vn 0.021717000752687454 0.9997590184211731 0.003140999935567379
vn 0.00092700001550838351 0.99999898672103882 -0.00086899998132139444
vn 0.014519999735057354 0.99989300966262817 0.0017369999550282955
vn 0.022851999849081039 0.99969702959060669 -0.0091869998723268509
vn 0.0178459994494915 0.9997599720954895 0.0127379996702075
vn 0.038745000958442688 0.99882698059082031 0.029051000252366066
vn 0.025484999641776085 0.999468982219696 0.020282000303268433
vn 0.019525999203324318 0.99974298477172852 -0.011483999900519848
vn 0.032444000244140625 0.99927401542663574 0.019958000630140305
vn 0.0087609998881816864 0.99993801116943359 0.006831000093370676
vn 0.0091390004381537437 0.99989098310470581 0.011597000062465668
vn 0.0056320000439882278 0.99997299909591675 -0.0047140000388026237
vn 0.0060640000738203526 0.99948298931121826 -0.031564999371767044
vn -0.00079100002767518163 0.99985200166702271 -0.017161000519990921
vn 0.0046020001173019409 0.999970018863678 -0.0061679999344050884
vn 0.026537999510765076 0.99924302101135254 0.028460999950766563
vn -0.0016840000171214342 0.99983900785446167 0.017857000231742859
vn 0.034919001162052155 0.99932402372360229 0.011513999663293362
vn 0.030834000557661057 0.99949401617050171 0.00783700030297041
vn 0.01361399982124567 0.99982702732086182 0.012644000351428986
vn 0.0088919997215271 0.99990701675415039 0.010335999540984631
vn 0.0035920001100748777 0.99982398748397827 0.018423000350594521
vn -0.0169840008020401 0.99974501132965088 -0.014860999770462513
vn -0.0078189997002482414 0.99971801042556763 -0.022413000464439392
vn 0.017674999311566353 0.99984300136566162 0.00093400001060217619
vn 0.015696000307798386 0.9998670220375061 0.0044379997998476028
vn -0.0068359998986124992 0.99862700700759888 -0.051938001066446304
vn 0.023622000589966774 0.99947702884674072 -0.022071000188589096
vn 0.021939000114798546 0.99832999706268311 -0.053449001163244247
vn 0.021939000114798546 0.99832999706268311 -0.053447999060153961
f 1/1/1 2/2/2 3/3/3
f 3/3/3 4/4/4 5/5/5
f 3/3/3 2/2/2 4/4/4
f 6/6/6 7/7/7 8/8/8
f 9/9/9 10/10/10 11/11/11
f 12/12/12 13/13/13 14/14/14
f 15/15/15 16/16/16 17/17/17
f 2/2/2 7/7/7 18/18/18
f 2/2/2 8/8/8 7/7/7
f 2/2/2 1/1/1 8/8/8
f 19/19/19 18/18/18 7/7/7
f 20/20/20 7/7/7 13/13/13
f 6/6/6 13/13/13 7/7/7
f 6/6/6 14/14/14 13/13/13
f 21/21/21 5/5/5 4/4/4
f 22/22/22 16/16/16 10/10/10
f 22/22/22 23/23/23 16/16/16
f 23/23/23 17/17/17 16/16/16
f 23/23/23 24/24/24 17/17/17
f 25/25/25 10/10/10 16/16/16
f 26/26/26 16/16/16 27/27/27
f 26/26/26 28/28/28 16/16/16
f 15/15/15 27/27/27 16/16/16
f 10/10/10 29/29/29 13/13/13
f 12/12/12 10/10/10 13/13/13
f 12/12/12 11/11/11 10/10/10
f 19/19/19 20/20/20 30/30/30
f 19/19/19 7/7/7 20/20/20
f 20/20/20 13/13/13 29/29/29
f 31/31/31 29/29/29 25/25/25
f 25/25/25 28/28/28 32/32/32
f 29/29/29 10/10/10 25/25/25
f 33/33/33 20/20/20 29/29/29
f 34/34/34 28/28/28 26/26/26
f 35/35/35 28/28/28 34/34/34
f 35/35/35 36/36/36 28/28/28
f 25/25/25 16/16/16 28/28/28
f 37/37/37 30/30/30 20/20/20
f 29/29/29 31/31/31 33/33/33
f 31/31/31 38/38/38 33/33/33
f 32/32/32 39/39/39 31/31/31
f 25/25/25 32/32/32 31/31/31
f 35/35/35 40/40/40 36/36/36
f 40/40/40 41/41/41 36/36/36
f 40/40/40 42/42/42 41/41/41
f 32/32/32 36/36/36 43/43/43
f 28/28/28 36/36/36 32/32/32
f 44/44/44 33/33/33 45/45/45
f 37/37/37 33/33/33 44/44/44
f 37/37/37 20/20/20 33/33/33
f 46/46/46 38/38/38 47/47/47
f 46/46/46 48/48/48 38/38/38
f 45/45/45 38/38/38 48/48/48
f 45/45/45 33/33/33 38/38/38
f 39/39/39 32/32/32 43/43/43
f 43/43/43 49/49/49 39/39/39
f 43/43/43 50/50/50 49/49/49
f 41/41/41 51/51/51 43/43/43
f 41/41/41 52/52/52 51/51/51
f 43/43/43 36/36/36 41/41/41
f 53/53/53 39/39/39 54/54/54
f 53/53/53 38/38/38 39/39/39
f 31/31/31 39/39/39 38/38/38
f 42/42/42 55/55/55 41/41/41
f 56/56/56 41/41/41 57/57/57
f 57/57/57 55/55/55 58/58/58
f 57/57/57 41/41/41 55/55/55
f 47/47/47 38/38/38 53/53/53
f 50/50/50 43/43/43 51/51/51
f 52/52/52 41/41/41 56/56/56
f 54/54/54 39/39/39 49/49/49
