mtllib m1011.mtl
usemtl material0
v 768 -14.369853019714356 1848.8848876953125
v 799.58258056640625 -13.070798873901367 1813.785400390625
v 768 -13.812099456787109 1815.455078125
v 798.43304443359375 -12.974338531494141 1792
v 819.1810302734375 -13.90861701965332 1792
v 862.4190673828125 -15.271969795227051 1792
v 863.392333984375 -15.116754531860352 1810.42138671875
v 879.9649658203125 -15.623749732971191 1792
v 866.75689697265625 -15.989392280578613 1874.2435302734375
v 768 -14.768125534057617 1916.447998046875
v 802.94219970703125 -14.907286643981934 1877.6103515625
v 768 -15.263431549072266 1879.4564208984375
v 768 -15.634243011474609 1943.4549560546875
v 806.300048828125 -17.087259292602539 1941.436279296875
v 870.12884521484375 -15.426736831665039 1938.0615234375
v 930.57440185546875 -16.519977569580078 1870.8751220703125
v 809.67242431640625 -16.436452865600586 2005.2540283203125
v 768 -15.338560104370117 1967.75341796875
v 927.2039794921875 -16.781108856201172 1807.0562744140625
v 768 -13.679566383361816 1792
v 768 -13.708278656005859 1797.081298828125
v 873.4962158203125 -15.747105598449707 2001.882080078125
v 933.94482421875 -16.253213882446289 1934.6939697265625
v 768 -15.046731948852539 2048
v 791.15655517578125 -15.656546592712402 2048
v 768 -15.184402465820313 2027.8671875
v 768 -15.324007034301758 2007.45166015625
v 876.05291748046875 -15.441370010375977 2048
v 834.06439208984375 -15.908219337463379 2048
v 915.87725830078125 -15.628791809082031 2048
v 937.3148193359375 -16.070663452148438 1998.5130615234375
v 926.408935546875 -16.824682235717773 1792
v 940.750244140625 -16.775243759155273 1792
v 1001.5352172851563 -18.042720794677734 1792
v 990.40155029296875 -17.858413696289062 1792
v 991.017333984375 -18.105852127075195 1803.6900634765625
v 1024 -18.034744262695312 1797.6068115234375
v 1024 -18.052757263183594 1801.9483642578125
v 1024 -18.0114803314209 1792
v 994.39923095703125 -15.645541191101074 1867.5025634765625
v 1024 -16.107707977294922 1865.9407958984375
v 997.76348876953125 -16.566257476806641 1931.3248291015625
v 1024 -16.599090576171875 1902.1636962890625
v 1024 -16.800193786621094 1834.598876953125
v 1001.134033203125 -16.278726577758789 1995.1436767578125
v 1024 -17.117036819458008 1929.94091796875
v 1024 -16.1082706451416 1954.92626953125
v 1004.0641479492188 -15.946728706359863 2048
v 965.55078125 -15.834267616271973 2048
v 1024 -15.961508750915527 1993.9354248046875
v 1024 -15.765542030334473 2029.5916748046875
v 1024 -15.664369583129883 2048
vt 0.75217300653457642 0.0076109766960144043
vt 0.888824999332428 0.12236499786376953
vt 0.87840902805328369 0.0033069849014282227
vt 0.97092902660369873 0.11519801616668701
vt 0.97361201047897339 0.19361400604248047
vt 0.97894299030303955 0.35705602169036865
vt 0.90950500965118408 0.36299699544906616
vt 0.9811360239982605 0.42329299449920654
vt 0.668936014175415 0.38377702236175537
vt 0.49702000617980957 0.016318023204803467
vt 0.64817500114440918 0.14322197437286377
vt 0.636696994304657 0.011524975299835205
vt 0.39512699842453003 0.019630014896392822
vt 0.40748301148414612 0.16409701108932495
vt 0.42840999364852905 0.40473997592926025
vt 0.68990302085876465 0.62429898977279663
vt 0.16691599786281586 0.184611976146698
vt 0.30337300896644592 0.022589027881622314
vt 0.93020498752593994 0.60359299182891846
vt 0.966966986656189 0.00026601552963256836
vt 0.94778198003768921 0.00092399120330810547
vt 0.18787199258804321 0.42559999227523804
vt 0.44925498962402344 0.64527899026870728
vt 0.00037600001087412238 0.032510995864868164
vt 0.0031159999780356884 0.1202009916305542
vt 0.0763930007815361 0.029982984066009521
vt 0.15347999334335327 0.027481019496917725
vt 0.014035999774932861 0.44075000286102295
vt 0.00865000020712614 0.28220701217651367
vt 0.019142000004649162 0.59148800373077393
vt 0.2087240070104599 0.66613098978996277
vt 0.98695498704910278 0.59871101379394531
vt 0.98874497413635254 0.65286099910736084
vt 0.99685299396514893 0.88215699791908264
vt 0.99537402391433716 0.8401159942150116
vt 0.95131099224090576 0.84400999546051025
vt 0.97845399379730225 0.96777300164103508
vt 0.96206200122833252 0.96832200139760971
vt 0.99962401390075684 0.96707599982619286
vt 0.71062600612640381 0.864885002374649
vt 0.72037100791931152 0.97645499929785728
vt 0.4701249897480011 0.88580799847841263
vt 0.58359497785568237 0.98112300038337708
vt 0.83869302272796631 0.972469000145793
vt 0.22957600653171539 0.90666200220584869
vt 0.47870099544525146 0.98471300024539232
vt 0.38432899117469788 0.98788900021463633
vt 0.030378000810742378 0.924455001950264
vt 0.025471000000834465 0.77903999388217926
vt 0.23704299330711365 0.992852000053972
vt 0.10241500288248062 0.99739099992439151
vt 0.032910000532865524 0.9997340000118129
vn -0.011893999762833118 0.99958401918411255 0.02629300020635128
vn 0.0062580001540482044 0.99991899728775024 0.011113000102341175
vn -0.022864000871777534 0.99967402219772339 0.011350000277161598
vn 0.0097709996625781059 0.99994498491287231 0.003911999985575676
vn 0.035107001662254333 0.99936002492904663 -0.0068500000052154064
vn 0.025970999151468277 0.99961501359939575 -0.0097949998453259468
vn 0.028465000912547112 0.99959301948547363 0.0018110000528395176
vn 0.024300999939441681 0.999688982963562 -0.0056520001962780952
vn 0.011730000376701355 0.9999079704284668 0.0068459999747574329
vn 0.027814000844955444 0.99938297271728516 0.021443000063300133
vn 0.010703999549150467 0.99963301420211792 0.024873999878764153
vn -0.00981099996715784 0.999925971031189 0.0071990001015365124
vn 0.038392998278141022 0.99922001361846924 0.0092019997537136078
vn 0.013629999943077564 0.99987697601318359 0.0077809998765587807
vn -0.0071580000221729279 0.99997401237487793 -0.00094100000569596887
vn -0.0023560000117868185 0.999987006187439 -0.00459099980071187
vn 0.0087249996140599251 0.99992501735687256 -0.0085490001365542412
vn 0.034439001232385635 0.99936598539352417 -0.0090129999443888664
vn 0.013706999830901623 0.99990099668502808 -0.0032959999516606331
vn -0.023166999220848083 0.99971598386764526 0.0056489999406039715
vn -0.023166999220848083 0.99971598386764526 0.0056489999406039715
vn -0.0039719999767839909 0.99998599290847778 -0.0034779999405145645
vn 0.0053739999420940876 0.9999849796295166 -0.00069900002563372254
vn 0.026325000450015068 0.99962997436523438 -0.0068359998986124992
vn 0.018758999183773994 0.99977302551269531 -0.010115000419318676
vn 0.026325000450015068 0.99962997436523438 -0.0068359998986124992
vn 0.026489999145269394 0.999642014503479 -0.0037100000772625208
vn -0.0029269999358803034 0.99997502565383911 -0.0064670001156628132
vn -0.0054290001280605793 0.99994200468063354 -0.0092590004205703735
vn 0.0044950000010430813 0.999966025352478 -0.00698099983856082
vn 0.0039559998549520969 0.99997997283935547 -0.0049390001222491264
vn 0.011692999862134457 0.99992501735687256 -0.0035109999589622021
vn 0.015069999732077122 0.99978899955749512 0.013948000036180019
vn 0.0033960000146180391 0.99995899200439453 0.0084560001268982887
vn 0.019266000017523766 0.9996110200881958 0.020144000649452209
vn 0.011106000281870365 0.99987298250198364 -0.011407000012695789
vn -0.0013909999979659915 0.99998998641967773 0.0041490001603960991
vn -0.0024749999865889549 0.99986302852630615 -0.016383999958634377
vn -0.0013899999903514981 0.99998998641967773 0.0041499999351799488
vn 0.0050030001439154148 0.9999539852142334 -0.0081879999488592148
vn 0.015355000272393227 0.99987000226974487 -0.0048609999939799309
vn 0.0079629998654127121 0.99996799230575562 0.00085399998351931572
vn 0.017642000690102577 0.99973601102828979 0.014747000299394131
vn 0.00058100000023841858 0.99940299987792969 -0.034547999501228333
vn -0.0053519997745752335 0.99997401237487793 -0.0048980000428855419
vn 0.020468000322580338 0.99974197149276733 -0.0098590003326535225
vn -0.0052889999933540821 0.99989497661590576 -0.013523999601602554
vn -0.0059219999238848686 0.99996501207351685 -0.0059529999271035194
vn 0.0033269999548792839 0.99997198581695557 -0.0066749998368322849
vn -0.014113999903202057 0.9998900294303894 -0.0046000001020729542
vn -0.014162000268697739 0.99988502264022827 -0.0054950001649558544
vn -0.014162000268697739 0.99988502264022827 -0.0054959999397397041
f 1/1/1 2/2/2 3/3/3
f 4/4/4 2/2/2 5/5/5
f 6/6/6 7/7/7 8/8/8
f 7/7/7 5/5/5 2/2/2
f 7/7/7 6/6/6 5/5/5
f 7/7/7 2/2/2 9/9/9
f 10/10/10 11/11/11 12/12/12
f 1/1/1 11/11/11 2/2/2
f 1/1/1 12/12/12 11/11/11
f 11/11/11 13/13/13 14/14/14
f 11/11/11 10/10/10 13/13/13
f 9/9/9 14/14/14 15/15/15
f 14/14/14 9/9/9 11/11/11
f 15/15/15 16/16/16 9/9/9
f 13/13/13 17/17/17 14/14/14
f 13/13/13 18/18/18 17/17/17
f 2/2/2 11/11/11 9/9/9
f 7/7/7 9/9/9 19/19/19
f 20/20/20 2/2/2 4/4/4
f 20/20/20 21/21/21 2/2/2
f 21/21/21 3/3/3 2/2/2
f 14/14/14 22/22/22 15/15/15
f 23/23/23 15/15/15 22/22/22
f 24/24/24 25/25/25 26/26/26
f 26/26/26 17/17/17 27/27/27
f 26/26/26 25/25/25 17/17/17
f 28/28/28 17/17/17 29/29/29
f 28/28/28 22/22/22 17/17/17
f 17/17/17 22/22/22 14/14/14
f 22/22/22 30/30/30 31/31/31
f 22/22/22 28/28/28 30/30/30
f 25/25/25 29/29/29 17/17/17
f 18/18/18 27/27/27 17/17/17
f 19/19/19 8/8/8 7/7/7
f 19/19/19 32/32/32 8/8/8
f 32/32/32 19/19/19 33/33/33
f 34/34/34 35/35/35 36/36/36
f 37/37/37 36/36/36 38/38/38
f 37/37/37 34/34/34 36/36/36
f 37/37/37 39/39/39 34/34/34
f 36/36/36 33/33/33 19/19/19
f 36/36/36 35/35/35 33/33/33
f 36/36/36 19/19/19 40/40/40
f 23/23/23 16/16/16 15/15/15
f 16/16/16 23/23/23 40/40/40
f 41/41/41 42/42/42 43/43/43
f 41/41/41 40/40/40 42/42/42
f 16/16/16 40/40/40 19/19/19
f 44/44/44 40/40/40 41/41/41
f 42/42/42 40/40/40 23/23/23
f 44/44/44 36/36/36 40/40/40
f 44/44/44 38/38/38 36/36/36
f 42/42/42 23/23/23 45/45/45
f 16/16/16 19/19/19 9/9/9
f 46/46/46 43/43/43 42/42/42
f 46/46/46 42/42/42 47/47/47
f 48/48/48 31/31/31 49/49/49
f 48/48/48 45/45/45 31/31/31
f 23/23/23 31/31/31 45/45/45
f 48/48/48 50/50/50 45/45/45
f 48/48/48 51/51/51 50/50/50
f 51/51/51 48/48/48 52/52/52
f 50/50/50 42/42/42 45/45/45
f 50/50/50 47/47/47 42/42/42
f 49/49/49 31/31/31 30/30/30
f 31/31/31 23/23/23 22/22/22
