mtllib m1023.mtl
usemtl material0
v 256 -15.693878173828125 1266.9544677734375
v 258.68600463867188 -15.636922836303711 1266.376220703125
v 256 -15.713974952697754 1266.5181884765625
v 256 -15.582961082458496 1269.3616943359375
v 256 -10.4254789352417 1024
v 256 -11.678154945373535 1057.9176025390625
v 270.78274536132812 -10.426020622253418 1024
v 256 -14.617259979248047 1201.7998046875
v 315.76190185546875 -16.8653507232666 1135.37060546875
v 256 -13.706263542175293 1138.5174560546875
v 256 -14.802371978759766 1215.414306640625
v 319.13784790039062 -15.489429473876953 1199.18603515625
v 256 -14.601295471191406 1202.517578125
v 256 -12.543796539306641 1074.5164794921875
v 256 -13.550634384155273 1134.2381591796875
v 312.40533447265625 -14.360220909118652 1071.543212890625
v 256 -15.849502563476563 1280
v 259.40328979492188 -16.012653350830078 1280
v 322.50448608398438 -15.978938102722168 1263.0072021484375
v 307.21511840820312 -16.337591171264648 1280
v 285.43417358398438 -10.938117980957031 1024
v 333.12594604492188 -12.826597213745117 1024
v 309.91006469726562 -11.543863296508789 1024
v 376.22848510742188 -13.780116081237793 1068.1712646484375
v 351.15603637695312 -12.690306663513184 1024
v 373.90484619140625 -12.201026916503906 1024
v 395.4757080078125 -13.407496452331543 1024
v 379.57449293136597 -18.374076843261719 1132.0052490234375
v 440.03109741210938 -17.284152984619141 1064.812255859375
v 382.96054100990295 -14.995261192321777 1195.814453125
v 416.87664794921875 -14.620159149169922 1024
v 437.88729858398438 -15.229540824890137 1024
v 457.8194580078125 -15.624719619750977 1024
v 443.40426635742188 -16.470493316650391 1128.6292724609375
v 503.85696411132812 -16.161544799804688 1061.4385986328125
v 501.88442993164062 -15.422261238098145 1024
v 482.60617065429688 -15.233000755310059 1024
v 512 -15.78164005279541 1024
v 512 -16.116788864135742 1042.7498779296875
v 507.221923828125 -16.978227615356445 1125.2608642578125
v 446.76217651367188 -18.680934906005859 1192.455810546875
v 368.00567626953125 -15.270079612731934 1280
v 323.40032958984375 -16.216842651367188 1280
v 386.33175706863403 -14.573163986206055 1259.6328125
v 387.404541015625 -15.036087989807129 1280
v 428.79266357421875 -15.787410736083984 1280
v 450.14651489257812 -15.658296585083008 1256.26611328125
v 510.58627319335938 -17.911348342895508 1189.0833740234375
v 512 -16.937700271606445 1125.0084228515625
v 512 -17.876869201660156 1187.5120849609375
v 512 -17.869001388549805 1189.0086669921875
v 512 -16.51051139831543 1215.724853515625
v 512 -14.590252876281738 1252.9969482421875
v 512 -14.869203567504883 1280
v 476.52816772460938 -15.462339401245117 1280
v 512 -14.85642147064209 1278.7626953125
v 451.39785766601562 -15.962800025939941 1280
v 512 -16.970073699951172 1119.9501953125
v 512 -16.252590179443359 1061.0089111328125
vt 0.049410998821258545 0.032462000846862793
vt 0.051943998783826828 0.042523026466369629
vt 0.051058001816272736 0.032402992248535156
vt 0.040320001542568207 0.032787978649139404
vt 0.9661639928817749 5.0008296966552734E-05
vt 0.8381199836730957 0.0047230124473571777
vt 0.96819901466369629 0.05581897497177124
vt 0.29527199268341064 0.024101972579956055
vt 0.55357098579406738 0.24104398488998413
vt 0.53395897150039673 0.015661001205444336
vt 0.24390000104904175 0.025847971439361572
vt 0.31318101286888123 0.26200699806213379
vt 0.29256400465965271 0.024192988872528076
vt 0.77541500329971313 0.007026970386505127
vt 0.5501139760017395 0.015075981616973877
vt 0.79408502578735352 0.21955001354217529
vt 0.00017299999308306724 0.03425300121307373
vt 0.00062599999364465475 0.04710698127746582
vt 0.0728129968047142 0.28287798166275024
vt 0.0067540002055466175 0.22750097513198853
vt 0.97007602453231812 0.11103999614715576
vt 0.976406991481781 0.29113197326660156
vt 0.97340101003646851 0.20340800285339356
vt 0.81570601463317871 0.45986402034759521
vt 0.97891998291015625 0.35915297269821167
vt 0.982155978679657 0.44527697563171387
vt 0.98484402894973755 0.52679198980331421
vt 0.57473498582839966 0.48141402006149292
vt 0.83633297681808472 0.70053800940513611
vt 0.33408498764038086 0.50238001346588135
vt 0.98751002550125122 0.6076680123806
vt 0.99021399021148682 0.6869719922542572
vt 0.99275302886962891 0.76233899593353271
vt 0.59562700986862183 0.72220999002456665
vt 0.85751199722290039 0.94092899933457375
vt 0.9985319972038269 0.92860300093889236
vt 0.9960319995880127 0.8558650016784668
vt 0.99982702732086182 0.9667930006980896
vt 0.92787998914718628 0.97225500084459782
vt 0.61597800254821777 0.9631120003759861
vt 0.35510000586509705 0.74305599927902222
vt 0.014530000276863575 0.45674800872802734
vt 0.00889500044286251 0.288565993309021
vt 0.0937340036034584 0.52331799268722534
vt 0.01700500026345253 0.52994400262832642
vt 0.02222600020468235 0.68614798784255981
vt 0.11448600143194199 0.763701006770134
vt 0.375544011592865 0.98348399996757507
vt 0.61750799417495728 0.98111099936068058
vt 0.38164401054382324 0.988629000261426
vt 0.37599200010299683 0.9888110002502799
vt 0.27505901455879211 0.99211500026285648
vt 0.13424299657344818 0.99672799999825656
vt 0.032349001616239548 0.99995000000126311
vt 0.028310999274253845 0.86627200245857239
vt 0.037018001079559326 0.9998020000057295
vt 0.025090999901294708 0.77143900096416473
vt 0.63659399747848511 0.98049899935722351
vt 0.85895001888275146 0.97183199971914291
vn -0.031075000762939453 0.99845802783966064 -0.046000000089406967
vn -0.00055699999211356044 0.99993401765823364 0.011505999602377415
vn -0.029472000896930695 0.99945098161697388 -0.015154000371694565
vn 0.029474999755620956 0.999530017375946 0.0084520000964403152
vn 3.7000001611886546E-05 0.99931901693344116 0.036908000707626343
vn 0.030329000204801559 0.99828499555587769 0.050071999430656433
vn 0.02201399952173233 0.99867701530456543 0.046463001519441605
vn 0.022383000701665878 0.99965602159500122 -0.013693000189960003
vn 0.02601500041782856 0.99958401918411255 0.01245999988168478
vn 0.0540819987654686 0.99822402000427246 0.024976000189781189
vn 0.014171999879181385 0.99977701902389526 0.015625
vn 0.0017590000061318278 0.99998098611831665 -0.005948999896645546
vn 0.013922999612987042 0.99989902973175049 -0.0026889999862760305
vn 0.033952001482248306 0.99884897470474243 0.033876001834869385
vn 0.049623001366853714 0.99826300144195557 0.031753998249769211
vn 0.019933000206947327 0.99903100728988647 0.039232999086380005
vn 0.0478690005838871 0.99853998422622681 0.025018999353051186
vn 0.026639999821782112 0.99930298328399658 0.026156999170780182
vn -0.0076549998484551907 0.999908983707428 0.011149999685585499
vn 0.0029909999575465918 0.99971199035644531 0.023791000247001648
vn 0.031466998159885406 0.99804598093032837 0.05398700013756752
vn 0.015608999878168106 0.99911600351333618 0.039032001048326492
vn 0.039365999400615692 0.997596025466919 0.057029001414775848
vn 0.028284000232815742 0.99849599599838257 0.046964000910520554
vn -0.012236000038683415 0.999426007270813 0.031603001058101654
vn 0.015867000445723534 0.99926501512527466 0.034887999296188354
vn 0.056272998452186584 0.997871994972229 0.032937999814748764
vn 0.018892999738454819 0.9997820258140564 0.0088369995355606079
vn 0.0097300000488758087 0.99968200922012329 0.023274000734090805
vn 0.025750000029802322 0.99934601783752441 -0.025389000773429871
vn 0.047295998781919479 0.99814599752426147 0.038320001214742661
vn 0.024534000083804131 0.99849802255630493 0.048978999257087708
vn -0.0026469998992979527 0.99921697378158569 0.039475001394748688
vn -0.013333999551832676 0.999800980091095 0.014826999977231026
vn 0.0043540000915527344 0.999904990196228 0.013110999949276447
vn 0.022224999964237213 0.999580979347229 0.018566999584436417
vn -0.0071959998458623886 0.9995570182800293 0.02887599915266037
vn 0.035500001162290573 0.999210000038147 0.017860999330878258
vn 0.032370001077651978 0.9993399977684021 0.016497999429702759
vn 0.0004180000105407089 0.99990600347518921 0.013729000464081764
vn 0.0084969997406005859 0.99984902143478394 -0.015154000371694565
vn -0.018774999305605888 0.99967402219772339 0.017312999814748764
vn -0.014569000340998173 0.99978500604629517 0.014764999970793724
vn 0.0037609999999403954 0.9999920129776001 0.0016749999485909939
vn 0.0035510000307112932 0.99974000453948975 0.022536000236868858
vn 0.015374000184237957 0.99969601631164551 0.0192709993571043
vn -0.00203999993391335 0.99985402822494507 -0.0169840008020401
vn -0.020010000094771385 0.99960100650787354 -0.01991800032556057
vn -0.00827299989759922 0.99995797872543335 0.0039519998244941235
vn -0.012943999841809273 0.99986302852630615 0.010293999686837196
vn -0.031369000673294067 0.99913597106933594 -0.027261000126600266
vn -0.020177999511361122 0.99847298860549927 -0.051430001854896545
vn -0.018402000889182091 0.99959701299667358 -0.021598000079393387
vn -0.016718000173568726 0.99980700016021729 0.010328999720513821
vn -0.017462000250816345 0.99978500604629517 0.011156000196933746
vn -0.016718000173568726 0.99980700016021729 0.010328999720513821
vn -0.0065390001982450485 0.999891996383667 0.013172999955713749
vn 0.007007999811321497 0.99994498491287231 0.0078410003334283829
vn 0.011692999862134457 0.99988400936126709 0.0097249997779726982
f 1/1/1 2/2/2 3/3/3
f 1/1/1 4/4/4 2/2/2
f 5/5/5 6/6/6 7/7/7
f 8/8/8 9/9/9 10/10/10
f 11/11/11 12/12/12 13/13/13
f 11/11/11 2/2/2 12/12/12
f 3/3/3 2/2/2 11/11/11
f 14/14/14 15/15/15 16/16/16
f 17/17/17 2/2/2 4/4/4
f 17/17/17 18/18/18 2/2/2
f 18/18/18 19/19/19 2/2/2
f 18/18/18 20/20/20 19/19/19
f 7/7/7 16/16/16 21/21/21
f 7/7/7 14/14/14 16/16/16
f 7/7/7 6/6/6 14/14/14
f 22/22/22 23/23/23 16/16/16
f 15/15/15 9/9/9 16/16/16
f 15/15/15 10/10/10 9/9/9
f 16/16/16 9/9/9 24/24/24
f 22/22/22 24/24/24 25/25/25
f 22/22/22 16/16/16 24/24/24
f 26/26/26 24/24/24 27/27/27
f 24/24/24 28/28/28 29/29/29
f 28/28/28 24/24/24 9/9/9
f 26/26/26 25/25/25 24/24/24
f 28/28/28 9/9/9 30/30/30
f 21/21/21 16/16/16 23/23/23
f 31/31/31 29/29/29 32/32/32
f 32/32/32 29/29/29 33/33/33
f 29/29/29 34/34/34 35/35/35
f 28/28/28 34/34/34 29/29/29
f 36/36/36 37/37/37 35/35/35
f 38/38/38 35/35/35 39/39/39
f 38/38/38 36/36/36 35/35/35
f 35/35/35 33/33/33 29/29/29
f 35/35/35 37/37/37 33/33/33
f 35/35/35 34/34/34 40/40/40
f 27/27/27 29/29/29 31/31/31
f 27/27/27 24/24/24 29/29/29
f 34/34/34 28/28/28 41/41/41
f 2/2/2 19/19/19 12/12/12
f 12/12/12 19/19/19 30/30/30
f 42/42/42 19/19/19 43/43/43
f 42/42/42 44/44/44 19/19/19
f 19/19/19 44/44/44 30/30/30
f 30/30/30 44/44/44 41/41/41
f 45/45/45 44/44/44 42/42/42
f 30/30/30 9/9/9 12/12/12
f 20/20/20 43/43/43 19/19/19
f 46/46/46 44/44/44 45/45/45
f 46/46/46 47/47/47 44/44/44
f 47/47/47 41/41/41 44/44/44
f 41/41/41 47/47/47 48/48/48
f 48/48/48 40/40/40 41/41/41
f 49/49/49 48/48/48 50/50/50
f 49/49/49 40/40/40 48/48/48
f 51/51/51 48/48/48 52/52/52
f 53/53/53 48/48/48 47/47/47
f 53/53/53 52/52/52 48/48/48
f 28/28/28 30/30/30 41/41/41
f 54/54/54 47/47/47 55/55/55
f 54/54/54 56/56/56 47/47/47
f 56/56/56 53/53/53 47/47/47
f 55/55/55 47/47/47 57/57/57
f 57/57/57 47/47/47 46/46/46
f 41/41/41 40/40/40 34/34/34
f 58/58/58 35/35/35 40/40/40
f 58/58/58 59/59/59 35/35/35
f 8/8/8 12/12/12 9/9/9
f 8/8/8 13/13/13 12/12/12
f 49/49/49 58/58/58 40/40/40
f 50/50/50 48/48/48 51/51/51
f 59/59/59 39/39/39 35/35/35
