mtllib m1022.mtl
usemtl material0
v 0 -16.629951477050781 1216.07470703125
v 0.03139495849609375 -16.631683349609375 1216.039794921875
v 0 -16.630382537841797 1216.0413818359375
v 3.2835617065429688 -12.186775207519531 1280
v 3.42236328125 -12.1803560256958 1279.845703125
v 0.5037994384765625 -12.231550216674805 1280
v 0 -15.395302772521973 1148.5133059024811
v 57.146949768066406 -9.8109645843505859 1085.00927734375
v 0 -12.089471817016602 1088.033447265625
v 0 -12.252207756042481 1279.8543701171875
v 0 -12.242214202880859 1280
v 63.863319396972656 -14.237481117248535 1212.662353515625
v 64.066215515136719 -14.713227272033691 1280
v 3.4304733276367188 -12.187862396240234 1280
v 67.230232238769531 -14.68157958984375 1276.4833984375
v 0 -16.623186111450195 1215.4443359375
v 60.497581481933594 -13.555821418762207 1148.8405759334564
v 0 -15.607955932617188 1152.0410160012543
v 0.48551177978515625 -8.5619182586669922 1024
v 0 -11.425957679748535 1073.0501708984375
v 21.382148742675781 -8.451420783996582 1024
v 0 -8.8187875747680664 1028.359130859375
v 0 -8.8187875747680664 1028.359130859375
v 0 -8.5659818649292 1024.025634765625
v 0 -8.565216064453125 1024
v 22.516151428222656 -8.4088649749755859 1024
v 0 -11.45233154296875 1073.645751953125
v 53.939567565917969 -7.1884770393371582 1024
v 83.740562438964844 -6.63364315032959 1024
v 120.96434783935547 -10.391061782836914 1081.6409912109375
v 127.68363198637962 -14.211631774902344 1209.292236328125
v 124.84844994544983 -17.394378662109375 1280
v 67.415008544921875 -14.852940559387207 1280
v 131.03720092773438 -17.349044799804688 1273.1214599609375
v 124.31854200363159 -13.402532577514648 1145.4700927734375
v 184.78884887695313 -9.54025936126709 1078.268310546875
v 188.13230895996094 -14.701107025146484 1142.10400390625
v 146.08709716796875 -8.1473827362060547 1024
v 117.93691253662109 -7.3631558418273926 1024
v 88.261482238769531 -6.6884250640869141 1024
v 131.4007260799408 -17.267890930175781 1280
v 194.85673522949219 -17.467950820922852 1269.7518310546875
v 185.63667297363281 -17.334968566894531 1280
v 191.48600769042969 -17.797763824462891 1205.9332275390625
v 153.986083984375 -8.0562353134155273 1024
v 181.92826843261719 -8.705286979675293 1024
v 208.43302917480469 -9.81879711151123 1024
v 251.95854187011719 -13.492627143859863 1138.730224609375
v 195.40025329589844 -16.978855133056641 1280
v 256 -15.713974952697754 1266.5181884765625
v 256 -15.693878173828125 1266.9544677734375
v 246.42910766601563 -15.3906831741333 1280
v 256 -15.582961082458496 1269.3616943359375
v 255.3221435546875 -14.591760635375977 1202.5533447265625
v 248.59536743164063 -12.305344581604004 1074.9068603515625
v 256 -10.4254789352417 1024
v 256 -11.678154945373535 1057.9176025390625
v 245.91763305664063 -10.42510986328125 1024
v 219.70462036132813 -10.315611839294434 1024
v 256 -13.706263542175293 1138.5174560546875
v 256 -14.617259979248047 1201.7998046875
v 256 -14.802371978759766 1215.414306640625
v 256 -14.601295471191406 1202.517578125
v 256 -12.543796539306641 1074.5164794921875
v 256 -13.550634384155273 1134.2381591796875
v 256 -15.849502563476563 1280
vt 0.24254100024700165 0.027908027172088623
vt 0.2426770031452179 0.028020977973937988
vt 0.24266600608825684 0.02790302038192749
vt 0.0023320000618696213 0.04885101318359375
vt 0.0029299999587237835 0.04935300350189209
vt 0.0019729998894035816 0.0384100079536438
vt 0.49630698561668396 0.018438994884490967
vt 0.74334299564361572 0.22454500198364258
vt 0.72377198934555054 0.010215997695922852
vt 0.0024560000747442245 0.036498010158538818
vt 0.0019079999765381217 0.036517024040222168
vt 0.26330199837684631 0.26750999689102173
vt 0.010428000241518021 0.27732002735137939
vt 0.0023509999737143517 0.04940497875213623
vt 0.024070000275969505 0.28871798515319824
vt 0.24490800499916077 0.027818977832794189
vt 0.50366997718811035 0.24577099084854126
vt 0.48303300142288208 0.018917977809906006
vt 0.96467798948287964 0.0032939910888671875
vt 0.78009498119354248 0.0081560015678405762
vt 0.96754497289657593 0.081770002841949463
vt 0.94821298122406006 0.0020650029182434082
vt 0.94821298122406006 0.0020650029182434082
vt 0.964514970779419 0.0014749765396118164
vt 0.9646109938621521 0.0014709830284118652
vt 0.96770799160003662 0.086031019687652588
vt 0.77785599231719971 0.0082399845123291016
vt 0.97268801927566528 0.20577502250671387
vt 0.97612398862838745 0.31772899627685547
vt 0.76375001668930054 0.46463698148727417
vt 0.28452301025390625 0.50673198699951172
vt 0.018501000478863716 0.50580999255180359
vt 0.010874999687075615 0.28990697860717773
vt 0.044994998723268509 0.528124988079071
vt 0.52416098117828369 0.48506301641464233
vt 0.78437399864196777 0.70394900441169739
vt 0.5453069806098938 0.72431701421737671
vt 0.983493983745575 0.55190101265907288
vt 0.98017001152038574 0.44620001316070557
vt 0.97666698694229126 0.33471000194549561
vt 0.019303999841213226 0.53042399883270264
vt 0.066047996282577515 0.76735900342464447
vt 0.026365999132394791 0.73411300778388977
vt 0.30528199672698975 0.74630400538444519
vt 0.98447799682617188 0.58156999945640564
vt 0.987870991230011 0.68654599785804749
vt 0.99106597900390625 0.78618299961090088
vt 0.56696200370788574 0.96356699988245964
vt 0.027619000524282455 0.77080599963665009
vt 0.086157999932765961 0.99666299996897578
vt 0.084521003067493439 0.996743000112474
vt 0.03423599898815155 0.96254400163888931
vt 0.075470998883247375 0.99706800002604723
vt 0.326337993144989 0.98590600024908781
vt 0.80507498979568481 0.94338800013065338
vt 0.998091995716095 0.9563790000975132
vt 0.87092697620391846 0.96621000021696091
vt 0.996051013469696 0.92680200189352036
vt 0.99270600080490112 0.82835300266742706
vt 0.56690901517868042 0.97886599972844124
vt 0.32926800847053528 0.98834200017154217
vt 0.27811700105667114 0.990102999843657
vt 0.32655900716781616 0.988447000272572
vt 0.8086550235748291 0.97106299921870232
vt 0.58431202173233032 0.97821700014173985
vt 0.035507999360561371 0.99852899997495115
vn -0.0066949999891221523 0.99843400716781616 -0.055548999458551407
vn -0.0060109999030828476 0.99977302551269531 -0.020447999238967896
vn 0.041358999907970428 0.99914401769638062 -0.00084200000856071711
vn -0.0098289996385574341 0.99941599369049072 0.032737001776695251
vn 0.003831000067293644 0.9999849796295166 -0.00394099997356534
vn -0.021030999720096588 0.99754202365875244 -0.0668409988284111
vn -0.032113999128341675 0.997750997543335 0.058839999139308929
vn -0.014116000384092331 0.99848097562789917 0.053266998380422592
vn -0.037172000855207443 0.99807900190353394 0.049555998295545578
vn -0.021113000810146332 0.99743098020553589 -0.068453997373580933
vn -0.021113000810146332 0.99743098020553589 -0.068447001278400421
vn -0.0096159996464848518 0.9999539852142334 -9.9999997473787516E-06
vn 0.041586998850107193 0.99805700778961182 0.046399001032114029
vn 0.02506599947810173 0.99856799840927124 0.047262001782655716
vn 0.0368259996175766 0.99883699417114258 0.031123999506235123
vn -0.031791999936103821 0.99936699867248535 0.015937000513076782
vn -0.015341999940574169 0.999288022518158 0.034460999071598053
vn -0.031906001269817352 0.99879401922225952 0.037321999669075012
vn -0.005305000115185976 0.99831598997116089 0.057760998606681824
vn -0.033261001110076904 0.99838501214981079 0.046045999974012375
vn -0.025589000433683395 0.99845099449157715 0.049394000321626663
vn -0.0052800001576542854 0.99828898906707764 0.058237999677658081
vn -0.0052829999476671219 0.99828898906707764 0.058240000158548355
vn -0.0060100001282989979 0.998989999294281 0.04453200101852417
vn -0.0067889997735619545 0.99953097105026245 0.029859000816941261
vn -0.037902999669313431 0.99829202890396118 0.044458001852035522
vn -0.037464000284671783 0.99831998348236084 0.04420899972319603
vn -0.029013000428676605 0.99858999252319336 0.044449999928474426
vn 0.00076399999670684338 0.99862897396087646 0.052340999245643616
vn 0.0026539999525994062 0.99881201982498169 0.048666000366210938
vn 0.030135000124573708 0.99914002418518066 0.028485000133514404
vn 0.027241999283432961 0.999144971370697 0.031094999983906746
vn 0.042943000793457031 0.998000979423523 0.046374998986721039
vn 0.021989999338984489 0.99959099292755127 0.018261000514030457
vn 0.0067839999683201313 0.99941599369049072 0.033504001796245575
vn 0.024064000695943832 0.99865901470184326 0.04584600031375885
vn 0.015650000423192978 0.99855101108551025 0.051484998315572739
vn 0.0030050000641494989 0.99918699264526367 0.040203001350164413
vn 0.025169000029563904 0.99837499856948853 0.0511230006814003
vn 0.015656000003218651 0.99835002422332764 0.055247001349925995
vn -0.0086859995499253273 0.99989801645278931 -0.011338000185787678
vn -0.021533999592065811 0.9996039867401123 -0.018100999295711517
vn -0.0088200001046061516 0.99974298477172852 -0.020907999947667122
vn 0.0013719999697059393 0.99970000982284546 0.024452000856399536
vn 0.00013299999409355223 0.99962800741195679 0.027259999886155128
vn 0.032280001789331436 0.99938499927520752 0.013674999587237835
vn 0.043269999325275421 0.99896901845932007 0.013725000433623791
vn 0.011707999743521214 0.99964898824691772 0.023778000846505165
vn -0.033651001751422882 0.99838101863861084 -0.045862998813390732
vn -0.029360000044107437 0.99948400259017944 -0.013026000000536442
vn -0.031074000522494316 0.99845802783966064 -0.045997999608516693
vn -0.010011999867856503 0.99958300590515137 -0.027075000107288361
vn -0.012659000232815743 0.99948602914810181 -0.029454000294208527
vn -0.010005000047385693 0.99990200996398926 0.00978699978441
vn 0.026179999113082886 0.99909502267837524 0.0335329994559288
vn 3.600000127335079E-05 0.99931901693344116 0.036908000707626343
vn 0.0045960000716149807 0.99923300743103027 0.038892000913619995
vn 0.0021750000305473804 0.99931997060775757 0.0367950014770031
vn 0.030659999698400497 0.99929499626159668 0.021657999604940414
vn 0.054118998348712921 0.99820399284362793 0.025690000504255295
vn 0.044070001691579819 0.99901098012924194 0.00583800021559
vn -0.027014000341296196 0.99947702884674072 0.017790999263525009
vn 0.013856000266969204 0.99989598989486694 -0.0039590001106262207
vn 0.034012001007795334 0.99880701303482056 0.035029999911785126
vn 0.038114000111818314 0.99904400110244751 0.021390000358223915
vn 0.0478690005838871 0.99853998422622681 0.025018999353051186
f 1/1/1 2/2/2 3/3/3
f 4/4/4 5/5/5 6/6/6
f 7/7/7 8/8/8 9/9/9
f 1/1/1 5/5/5 2/2/2
f 1/1/1 10/10/10 5/5/5
f 10/10/10 6/6/6 5/5/5
f 10/10/10 11/11/11 6/6/6
f 12/12/12 2/2/2 5/5/5
f 13/13/13 5/5/5 14/14/14
f 13/13/13 15/15/15 5/5/5
f 4/4/4 14/14/14 5/5/5
f 16/16/16 17/17/17 18/18/18
f 16/16/16 2/2/2 17/17/17
f 3/3/3 2/2/2 16/16/16
f 19/19/19 20/20/20 21/21/21
f 19/19/19 22/22/22 20/20/20
f 23/23/23 19/19/19 24/24/24
f 24/24/24 19/19/19 25/25/25
f 26/26/26 9/9/9 8/8/8
f 26/26/26 27/27/27 9/9/9
f 27/27/27 21/21/21 20/20/20
f 27/27/27 26/26/26 21/21/21
f 28/28/28 26/26/26 8/8/8
f 29/29/29 28/28/28 8/8/8
f 30/30/30 8/8/8 17/17/17
f 8/8/8 18/18/18 17/17/17
f 8/8/8 7/7/7 18/18/18
f 12/12/12 5/5/5 15/15/15
f 31/31/31 12/12/12 15/15/15
f 32/32/32 15/15/15 33/33/33
f 32/32/32 34/34/34 15/15/15
f 33/33/33 15/15/15 13/13/13
f 12/12/12 35/35/35 17/17/17
f 17/17/17 2/2/2 12/12/12
f 17/17/17 35/35/35 30/30/30
f 35/35/35 36/36/36 30/30/30
f 31/31/31 37/37/37 35/35/35
f 12/12/12 31/31/31 35/35/35
f 38/38/38 39/39/39 30/30/30
f 40/40/40 30/30/30 39/39/39
f 32/32/32 41/41/41 34/34/34
f 41/41/41 42/42/42 34/34/34
f 41/41/41 43/43/43 42/42/42
f 31/31/31 34/34/34 44/44/44
f 15/15/15 34/34/34 31/31/31
f 45/45/45 30/30/30 36/36/36
f 45/45/45 38/38/38 30/30/30
f 30/30/30 29/29/29 8/8/8
f 30/30/30 40/40/40 29/29/29
f 46/46/46 36/36/36 47/47/47
f 45/45/45 36/36/36 46/46/46
f 31/31/31 44/44/44 37/37/37
f 44/44/44 48/48/48 37/37/37
f 43/43/43 49/49/49 42/42/42
f 49/49/49 50/50/50 42/42/42
f 49/49/49 51/51/51 50/50/50
f 51/51/51 52/52/52 53/53/53
f 51/51/51 49/49/49 52/52/52
f 44/44/44 42/42/42 54/54/54
f 34/34/34 42/42/42 44/44/44
f 36/36/36 37/37/37 55/55/55
f 35/35/35 37/37/37 36/36/36
f 56/56/56 55/55/55 57/57/57
f 56/56/56 58/58/58 55/55/55
f 59/59/59 55/55/55 58/58/58
f 44/44/44 54/54/54 48/48/48
f 54/54/54 60/60/60 48/48/48
f 54/54/54 61/61/61 60/60/60
f 62/62/62 63/63/63 54/54/54
f 42/42/42 62/62/62 54/54/54
f 42/42/42 50/50/50 62/62/62
f 64/64/64 48/48/48 65/65/65
f 64/64/64 55/55/55 48/48/48
f 37/37/37 48/48/48 55/55/55
f 66/66/66 53/53/53 52/52/52
f 55/55/55 47/47/47 36/36/36
f 55/55/55 59/59/59 47/47/47
f 57/57/57 55/55/55 64/64/64
f 65/65/65 48/48/48 60/60/60
f 61/61/61 54/54/54 63/63/63
