mtllib m1031.mtl
usemtl material0
v 768 -16.201257705688477 1308.36572265625
v 772.61474609375 -16.061586380004883 1303.23681640625
v 768 -16.249563217163086 1303.4810791015625
v 768 -16.178613662719727 1280
v 771.38818359375 -16.0411434173584 1280
v 768 -16.240701675415039 1300.54833984375
v 793.52197265625 -15.728296279907227 1280
v 768 -18.518217086791992 1367.48486328125
v 775.970703125 -18.607666015625 1367.0643310546875
v 836.43414306640625 -16.237945556640625 1299.867431640625
v 835.38720703125 -15.883042335510254 1280
v 899.37622094154358 -17.601943969726562 1280
v 900.24420213699341 -18.215770721435547 1296.50341796875
v 915.09234619140625 -18.246368408203125 1280
v 881.9080810546875 -17.364675521850586 1280
v 839.79644775390625 -17.545764923095703 1363.6910400390625
v 903.61206102371216 -18.445484161376953 1360.32373046875
v 964.05999755859375 -19.0683536529541 1293.135986328125
v 843.16534423828125 -17.568679809570312 1427.5107421875
v 779.3385009765625 -18.862020492553711 1430.8846435546875
v 768 -18.69822883605957 1420.6822509765625
v 1024 -18.736848831176758 1280
v 1017.0271606445313 -18.876070022583008 1280
v 1024 -18.9423828125 1286.27392578125
v 1024 -19.023197174072266 1294.078857421875
v 967.42596435546875 -19.663295745849609 1356.9573974609375
v 1024 -18.984704971313477 1289.9705810546875
v 963.36737060546875 -18.918514251708984 1280
v 1024 -18.97563362121582 1289.17822265625
v 1024 -18.20942497253418 1353.966064453125
v 1024 -18.378469467163086 1407.8466800004244
v 970.8070068359375 -17.355686187744141 1420.77001953125
v 906.9937744140625 -15.993345260620117 1424.135986328125
v 768 -19.200916290283203 1431.484375
v 768 -18.57392692565918 1443.48779296875
v 768 -16.922739028930664 1511.0565185546875
v 782.7237548828125 -15.706507682800293 1494.69482421875
v 768 -16.080142974853516 1495.4732666015625
v 846.54205322265625 -16.084524154663086 1491.325927734375
v 910.35736083984375 -17.048206329345703 1487.9588623046875
v 848.906005859375 -15.0333890914917 1536
v 828.64068603515625 -14.938785552978516 1536
v 784.90655517578125 -15.27476978302002 1536
v 867.13861083984375 -15.285382270812988 1536
v 768 -16.779325485229492 1536
v 912.9013671875 -15.569348335266113 1536
v 927.9246826171875 -16.1652889251709 1536
v 974.16387939453125 -19.689821243286133 1484.5966796875
v 1024 -18.410017013549805 1429.208984375
v 1024 -20.998788833618164 1481.96875
v 1024 -18.007112503051758 1417.9630126953125
v 976.87957763671875 -19.296480178833008 1536
v 988.70428466796875 -19.6014404296875 1536
v 1024 -20.865394592285156 1496.766357421875
v 1024 -19.854715347290039 1536
vt 0.85586899518966675 0.0060179829597473145
vt 0.87573701143264771 0.022700011730194092
vt 0.87422102689743042 0.005379021167755127
vt 0.96244198083877563 0.0023509860038757324
vt 0.96288102865219116 0.015091001987457275
vt 0.88524001836776733 0.0050010085105896
vt 0.96574002504348755 0.098258018493652344
vt 0.63358002901077271 0.013611972332000732
vt 0.63616901636123657 0.043507993221282959
vt 0.89655202627182007 0.26204800605773926
vt 0.97107398509979248 0.25557398796081543
vt 0.97919601202011108 0.49607497453689575
vt 0.91726201772689819 0.50148400664329529
vt 0.98115497827529907 0.55517399311065674
vt 0.97695600986480713 0.43043899536132812
vt 0.65714198350906372 0.28289997577667236
vt 0.67790597677230835 0.522260993719101
vt 0.938027024269104 0.7408440113067627
vt 0.41759601235389709 0.30367600917816162
vt 0.39680999517440796 0.0642470121383667
vt 0.43370699882507324 0.020350992679595947
vt 0.99505400657653809 0.96437299996614456
vt 0.9941520094871521 0.938170999288559
vt 0.971468985080719 0.9651699997484684
vt 0.94213700294494629 0.96616699919104576
vt 0.69866001605987549 0.76163700222969055
vt 0.95757299661636353 0.96564299985766411
vt 0.98729497194290161 0.73656299710273743
vt 0.96055698394775391 0.96554100140929222
vt 0.71711397171020508 0.9738829992711544
vt 0.51485699415206909 0.98070199973881245
vt 0.45938399434089661 0.78249700367450714
vt 0.438387006521225 0.54313400387763977
vt 0.39307799935340881 0.021706998348236084
vt 0.34792101383209229 0.023347973823547363
vt 0.0938040018081665 0.031987011432647705
vt 0.15722399950027466 0.085335016250610352
vt 0.15244099497795105 0.03009498119354248
vt 0.17821399867534638 0.32466697692871094
vt 0.19903099536895752 0.56402599811553955
vt 0.010631999932229519 0.33936202526092529
vt 0.007987000048160553 0.26322400569915771
vt 0.0023129999171942472 0.0989069938659668
vt 0.013026000000536442 0.40786898136138916
vt 9.2000002041459084E-05 0.035323977470397949
vt 0.018890999257564545 0.57980901002883911
vt 0.02091200090944767 0.63629400730133057
vt 0.21979600191116333 0.80353400111198425
vt 0.43449500203132629 0.98348600044846535
vt 0.23604099452495575 0.99050400033593178
vt 0.47677400708198547 0.98200199939310551
vt 0.027318999171257019 0.820595994591713
vt 0.028913000598549843 0.86503399908542633
vt 0.18087700009346008 0.992662999778986
vt 0.033420998603105545 0.99764900002628565
vn 0.00056299997959285975 0.99961501359939575 0.027728000655770302
vn -0.013725000433623791 0.99976599216461182 0.01673400029540062
vn -0.040892999619245529 0.99915701150894165 -0.0036470000632107258
vn -0.040539998561143875 0.99917298555374146 0.0030189999379217625
vn -0.027782000601291656 0.9996110200881958 0.0023459999356418848
vn -0.040541000664234161 0.99917298555374146 0.0030189999379217625
vn -0.0010610000463202596 0.99990999698638916 0.013388000428676605
vn 0.012310000136494637 0.99971002340316772 0.020677000284194946
vn 0.00026699999580159783 0.99981898069381714 0.019034000113606453
vn 0.015544000081717968 0.99966299533843994 0.020775999873876572
vn 0.01728999987244606 0.99970698356628418 0.016946999356150627
vn 0.026794999837875366 0.99900197982788086 0.03574800118803978
vn 0.021693000569939613 0.99964100122451782 0.015714000910520554
vn 0.02113799937069416 0.999629020690918 0.017163999378681183
vn 0.027572000399231911 0.99940097332000732 0.020905999466776848
vn -0.00381199992261827 0.99998599290847778 0.0036669999826699495
vn 0.015247000381350517 0.99973601102828979 -0.017209999263286591
vn 0.0071859997697174549 0.9999309778213501 0.00926900003105402
vn -0.019439000636339188 0.99972301721572876 -0.013237000443041325
vn -0.020267000421881676 0.99964898824691772 -0.017060000449419022
vn 0.0010499999625608325 0.99988901615142822 0.014886000193655491
vn -0.019951999187469482 0.99926501512527466 0.032735999673604965
vn -0.0052620000205934048 0.99985098838806152 0.016416000202298164
vn -0.005903999786823988 0.9998360276222229 0.017129000276327133
vn -0.0068509997799992561 0.99996799230575562 0.0040150000713765621
vn 0.0038419999182224274 0.999921977519989 -0.011909999884665012
vn -0.00084400002378970385 0.99994498491287231 0.010443000122904778
vn 0.0068120001815259457 0.99991601705551147 0.0110470000654459
vn -0.00079100002767518163 0.99993401765823364 0.011447999626398087
vn -0.025979999452829361 0.99964702129364014 -0.0055040000006556511
vn 0.00074099999619647861 0.99966001510620117 -0.026063000783324242
vn 0.018828999251127243 0.99981600046157837 -0.0035780000034719706
vn 0.0075449999421834946 0.99990600347518921 -0.011463999748229981
vn -0.030113000422716141 0.99953597784042358 -0.0044940002262592316
vn -0.028970999643206596 0.99838399887084961 -0.048886001110076904
vn -0.073269002139568329 0.99727898836135864 0.0081979995593428612
vn -0.023541999980807304 0.99953997135162354 -0.019138000905513763
vn -0.025117000564932823 0.99967300891876221 0.0047579999081790447
vn 0.0045529999770224094 0.99981600046157837 -0.01865600049495697
vn 0.024565000087022781 0.99968600273132324 -0.005007999949157238
vn 0.0093949995934963226 0.99966698884963989 -0.024018000811338425
vn 0.0017869999865069985 0.99978697299957275 -0.020570000633597374
vn -0.046829000115394592 0.99887102842330933 -0.0079659996554255486
vn 0.01178400032222271 0.99958997964859009 -0.026078000664711
vn -0.088641002774238586 0.99604701995849609 -0.005727000068873167
vn 0.02346700057387352 0.99921202659606934 -0.032001998275518417
vn 0.046069998294115067 0.99857300519943237 -0.027025999501347542
vn 0.035546001046895981 0.99930298328399658 0.011433999985456467
vn 0.017551999539136887 0.99909001588821411 0.038878001272678375
vn 0.027355000376701355 0.99940598011016846 0.020959999412298203
vn 0.012157999910414219 0.99992501735687256 -0.0016570000443607569
vn 0.044176999479532242 0.9989740252494812 -0.0099780000746250153
vn 0.020818000659346581 0.99969202280044556 -0.013477999716997147
vn 0.021443000063300133 0.99968701601028442 -0.012915000319480896
vn 0.0071729999035596848 0.99964302778244019 -0.025751000270247459
f 1/1/1 2/2/2 3/3/3
f 4/4/4 2/2/2 5/5/5
f 4/4/4 6/6/6 2/2/2
f 6/6/6 3/3/3 2/2/2
f 5/5/5 2/2/2 7/7/7
f 2/2/2 8/8/8 9/9/9
f 2/2/2 1/1/1 8/8/8
f 7/7/7 10/10/10 11/11/11
f 7/7/7 2/2/2 10/10/10
f 12/12/12 13/13/13 14/14/14
f 12/12/12 15/15/15 13/13/13
f 10/10/10 9/9/9 16/16/16
f 2/2/2 9/9/9 10/10/10
f 13/13/13 16/16/16 17/17/17
f 16/16/16 13/13/13 10/10/10
f 17/17/17 18/18/18 13/13/13
f 9/9/9 19/19/19 16/16/16
f 15/15/15 10/10/10 13/13/13
f 15/15/15 11/11/11 10/10/10
f 8/8/8 20/20/20 9/9/9
f 8/8/8 21/21/21 20/20/20
f 22/22/22 23/23/23 24/24/24
f 25/25/25 18/18/18 26/26/26
f 25/25/25 27/27/27 18/18/18
f 28/28/28 24/24/24 23/23/23
f 28/28/28 29/29/29 24/24/24
f 29/29/29 18/18/18 27/27/27
f 29/29/29 28/28/28 18/18/18
f 25/25/25 26/26/26 30/30/30
f 26/26/26 18/18/18 17/17/17
f 30/30/30 26/26/26 31/31/31
f 17/17/17 32/32/32 26/26/26
f 18/18/18 14/14/14 13/13/13
f 18/18/18 28/28/28 14/14/14
f 16/16/16 33/33/33 17/17/17
f 34/34/34 35/35/35 20/20/20
f 36/36/36 37/37/37 38/38/38
f 38/38/38 20/20/20 35/35/35
f 38/38/38 37/37/37 20/20/20
f 20/20/20 37/37/37 19/19/19
f 33/33/33 19/19/19 39/39/39
f 19/19/19 33/33/33 16/16/16
f 33/33/33 39/39/39 40/40/40
f 39/39/39 19/19/19 37/37/37
f 9/9/9 20/20/20 19/19/19
f 41/41/41 37/37/37 42/42/42
f 41/41/41 39/39/39 37/37/37
f 43/43/43 42/42/42 37/37/37
f 44/44/44 39/39/39 41/41/41
f 44/44/44 40/40/40 39/39/39
f 32/32/32 33/33/33 40/40/40
f 45/45/45 37/37/37 36/36/36
f 45/45/45 43/43/43 37/37/37
f 21/21/21 34/34/34 20/20/20
f 44/44/44 46/46/46 40/40/40
f 47/47/47 40/40/40 46/46/46
f 47/47/47 48/48/48 40/40/40
f 40/40/40 48/48/48 32/32/32
f 49/49/49 48/48/48 50/50/50
f 48/48/48 51/51/51 32/32/32
f 48/48/48 49/49/49 51/51/51
f 52/52/52 48/48/48 47/47/47
f 31/31/31 32/32/32 51/51/51
f 31/31/31 26/26/26 32/32/32
f 50/50/50 53/53/53 54/54/54
f 50/50/50 48/48/48 53/53/53
f 48/48/48 52/52/52 53/53/53
f 54/54/54 53/53/53 55/55/55
f 17/17/17 33/33/33 32/32/32
