mtllib m1113.mtl
usemtl material0
v 1792 -25.526899337768555 1589.0435791015625
v 1810.53076171875 -26.1546630859375 1568.4451904296875
v 1792 -25.591697692871094 1569.4222412109375
v 1792 -25.027008056640625 1656.609130859375
v 1813.900634765625 -26.003684997558594 1632.264404296875
v 1792 -25.352762222290039 1633.4190673828125
v 1792 -24.299421310424805 1724.175537109375
v 1817.273681640625 -25.268964767456055 1696.081787109375
v 1792 -24.492450714111328 1697.4141845703125
v 1792 -23.272529602050781 1761.408447265625
v 1792 -24.26988410949707 1791.73974609375
v 1820.652099609375 -23.534976959228516 1759.896240234375
v 1874.34521484375 -27.224784851074219 1565.0784912109375
v 1839.7239990234375 -25.506612777709961 1536
v 1872.81640625 -26.125816345214844 1536
v 1900.505615234375 -27.916425704956055 1536
v 1877.71826171875 -26.492277145385742 1628.8958740234375
v 1938.1734619140625 -25.774188995361328 1561.7041015625
v 1808.8150634765625 -26.696002960205078 1536
v 1881.0986328125 -24.40748405456543 1692.709228515625
v 1792 -25.956615447998047 1549.416259765625
v 1792 -26.201335906982422 1536
v 1936.8096923828125 -27.002229690551758 1536
v 1961.29638671875 -26.983711242675781 1536
v 1941.5313720703125 -27.8009033203125 1625.5296630859375
v 2001.98486328125 -27.389678955078125 1558.3389892578125
v 2000.8026123046875 -27.930765151977539 1536
v 2022.0838623046875 -27.265121459960938 1536
v 2005.3485107421875 -28.364168167114258 1622.161376953125
v 1944.9110107421875 -25.861127853393555 1689.343505859375
v 1852.552978515625 -24.654243469238281 1792
v 1822.3426513671875 -24.284360885620117 1792
v 1884.468505859375 -24.2398738861084 1756.5283203125
v 1886.3382568359375 -24.727859497070312 1792
v 1792 -24.275957107543945 1792
v 1913.3380131721497 -25.8371524810791 1792
v 1948.274658203125 -26.82240104675293 1753.1658935546875
v 2008.724365234375 -27.12164306640625 1685.977294921875
v 2048 -27.284887313842773 1619.9063720703125
v 2048 -26.879537582397461 1642.324462890625
v 2012.09814453125 -26.248481750488281 1749.7943115234375
v 2048 -26.314041137695312 1683.9012451171875
v 2048 -25.987600326538086 1709.8914794921875
v 2014.323974609375 -26.619232177734375 1792
v 1991.4385986328125 -26.813863754272461 1792
v 1950.3289794921875 -26.064184188842773 1792
v 2048 -26.628393173217773 1747.8995361328125
v 2034.91162109375 -26.846004486083984 1792
v 2048 -26.870832443237305 1777.45263671875
v 2048 -27.192554473876953 1555.9085693359375
v 2048 -27.483814239501953 1574.758544921875
v 2048 -27.17689323425293 1547.2431640625
v 2048 -27.156574249267578 1536
v 2048 -26.859279632568359 1792
vt 0.762857973575592 0.0091500282287597656
vt 0.84266799688339233 0.076138019561767578
vt 0.83658498525619507 0.0066050291061401367
vt 0.50897198915481567 0.017885982990264893
vt 0.60330700874328613 0.0970810055732727
vt 0.59611797332763672 0.014904022216796875
vt 0.25507599115371704 0.026597023010253906
vt 0.36393100023269653 0.11797201633453369
vt 0.35563400387763977 0.023136019706726074
vt 0.11512000113725662 0.031359970569610596
vt 0.0010900000343099237 0.035304009914398193
vt 0.12449900060892105 0.1389240026473999
vt 0.86361098289489746 0.31551402807235718
vt 0.96827298402786255 0.1817619800567627
vt 0.97274500131607056 0.30591100454330444
vt 0.97618198394775391 0.41017502546310425
vt 0.62423902750015259 0.33644402027130127
vt 0.88448899984359741 0.55497801303863525
vt 0.96437901258468628 0.065532982349395752
vt 0.38476899266242981 0.35737097263336182
vt 0.91176998615264893 0.00404202938079834
vt 0.96219098567962646 0.0023239850997924805
vt 0.98099601268768311 0.546422004699707
vt 0.98402500152587891 0.63870498538017273
vt 0.64497798681259155 0.57584899663925171
vt 0.90518897771835327 0.794406995177269
vt 0.98900997638702393 0.78719599545001984
vt 0.991707980632782 0.8670630007982254
vt 0.66577798128128052 0.81522400677204132
vt 0.40581300854682922 0.59675899147987366
vt 0.0079629998654127121 0.26298397779464722
vt 0.0040580001659691334 0.14946097135543823
vt 0.14541600644588471 0.37841200828552246
vt 0.012292999774217606 0.38993299007415771
vt 0.00011100000119768083 0.035337984561920166
vt 0.015920000150799751 0.49169701337814331
vt 0.16643199324607849 0.617913007736206
vt 0.42660200595855713 0.83615800738334656
vt 0.67991900444030762 0.97523299977183342
vt 0.59566998481750488 0.97813500091433525
vt 0.18739600479602814 0.85729800164699554
vt 0.43973198533058167 0.98347599990665913
vt 0.34206900000572205 0.986926999874413
vt 0.029092000797390938 0.87113499641418457
vt 0.026166999712586403 0.785181999206543
vt 0.020755000412464142 0.63069099187850952
vt 0.19923900067806244 0.991953999735415
vt 0.0317550003528595 0.94849700108170509
vt 0.088118001818656921 0.99578400002792478
vt 0.92022699117660522 0.966999001801014
vt 0.84938997030258179 0.96941399946808815
vt 0.95278799533843994 0.96588699892163277
vt 0.99503397941589355 0.964444000273943
vt 0.033456999808549881 0.99767599999904633
vn 0.029663000255823135 0.99955302476882935 -0.0037769998889416456
vn 0.016493000090122223 0.999858021736145 -0.0035029998980462551
vn 0.02981100045144558 0.99949997663497925 -0.010514000430703163
vn 0.029772000387310982 0.99946802854537964 -0.013314000330865383
vn 0.016683999449014664 0.99979197978973389 -0.011727999895811081
vn 0.029224999248981476 0.99953097105026245 -0.0091519998386502266
vn 0.012978999875485897 0.99965500831604 -0.022823000326752663
vn 0.0050229998305439949 0.9998440146446228 -0.016908999532461166
vn 0.030178999528288841 0.99949401617050171 -0.010052000172436237
vn 0.009352000430226326 0.99994999170303345 0.0036619999445974827
vn 0.0027580000460147858 0.99967002868652344 0.025552000850439072
vn 0.0058820000849664211 0.99998098611831665 0.0021069999784231186
vn 0.0067460001446306705 0.99997198581695557 0.0032389999832957983
vn 0.0034499999601393938 0.99972802400588989 0.023072000592947006
vn 0.040819000452756882 0.9985319972038269 0.035592000931501389
vn -0.0012140000471845269 0.99968999624252319 -0.024870000779628754
vn 0.0080709997564554214 0.99982601404190063 -0.016806000843644142
vn 0.0031989999115467072 0.99993801116943359 -0.010622999630868435
vn -0.0033829999156296253 0.999858021736145 -0.016504000872373581
vn 0.0093689998611807823 0.999783992767334 -0.01855899952352047
vn 0.029401000589132309 0.99940097332000732 -0.018230000510811806
vn 0.029401000589132309 0.99940198659896851 -0.018230000510811806
vn -0.013368000276386738 0.99880498647689819 -0.047010000795125961
vn 0.01736300066113472 0.9993559718132019 -0.031406000256538391
vn 0.016604999080300331 0.99985998868942261 -0.0022589999716728926
vn 0.0052559999749064445 0.99998599290847778 0.00053399999160319567
vn -0.002718999981880188 0.99970698356628418 -0.024071000516414642
vn -0.011412999592721462 0.99992400407791138 -0.0046930001117289066
vn -0.00455200020223856 0.99997299909591675 -0.00585100008174777
vn 0.021299999207258224 0.99972397089004517 -0.0099179996177554131
vn 0.0095549998804926872 0.99974900484085083 0.02027600072324276
vn 0.0064590000547468662 0.99971497058868408 0.022995999082922935
vn 0.022746000438928604 0.99971097707748413 0.007770999800413847
vn 0.022272000089287758 0.99967300891876221 0.012578000314533711
vn 0.00028099998598918319 0.99972802400588989 0.023324999958276749
vn 0.031741000711917877 0.99949097633361816 0.0031969998963177204
vn 0.018745999783277512 0.99982398748397827 0.000881000014487654
vn -0.0052290000021457672 0.99991297721862793 -0.012112000025808811
vn -0.025877000764012337 0.9996039867401123 -0.011009999550879002
vn -0.025087999179959297 0.99953997135162354 -0.017028000205755234
vn -0.0030139998998492956 0.99999397993087769 0.0016039999900385737
vn -0.021247999742627144 0.99968802928924561 -0.013093999586999416
vn -0.013597999699413776 0.99989098310470581 -0.0056969998404383659
vn 0.0015820000553503633 0.99996101856231689 0.0087010003626346588
vn -0.0022680000402033329 0.99999499320983887 0.0023020000662654638
vn 0.012384999543428421 0.99971997737884521 -0.020174000412225723
vn 0.011249000206589699 0.99985599517822266 0.0126740001142025
vn 0.0083459997549653053 0.99994802474975586 0.0058030001819133759
vn 0.0086820004507899284 0.99994397163391113 0.0061050001531839371
vn -0.0038399999029934406 0.99995702505111694 0.0083990003913640976
vn -0.00861399993300438 0.99990397691726685 0.010819000191986561
vn -0.0041880002245306969 0.99998998641967773 0.0018070000223815441
vn -0.0041880002245306969 0.99998998641967773 0.0018070000223815441
vn 0.0010140000376850367 0.99999898672103882 -0.00079399999231100082
f 1/1/1 2/2/2 3/3/3
f 4/4/4 5/5/5 6/6/6
f 7/7/7 8/8/8 9/9/9
f 10/10/10 11/11/11 12/12/12
f 6/6/6 2/2/2 1/1/1
f 6/6/6 5/5/5 2/2/2
f 2/2/2 5/5/5 13/13/13
f 13/13/13 14/14/14 2/2/2
f 13/13/13 15/15/15 14/14/14
f 15/15/15 13/13/13 16/16/16
f 13/13/13 17/17/17 18/18/18
f 17/17/17 13/13/13 5/5/5
f 19/19/19 2/2/2 14/14/14
f 17/17/17 5/5/5 20/20/20
f 3/3/3 2/2/2 21/21/21
f 21/21/21 19/19/19 22/22/22
f 21/21/21 2/2/2 19/19/19
f 18/18/18 16/16/16 13/13/13
f 18/18/18 23/23/23 16/16/16
f 23/23/23 18/18/18 24/24/24
f 18/18/18 25/25/25 26/26/26
f 25/25/25 18/18/18 17/17/17
f 27/27/27 26/26/26 28/28/28
f 26/26/26 24/24/24 18/18/18
f 26/26/26 27/27/27 24/24/24
f 26/26/26 25/25/25 29/29/29
f 25/25/25 17/17/17 30/30/30
f 10/10/10 8/8/8 7/7/7
f 10/10/10 12/12/12 8/8/8
f 8/8/8 12/12/12 20/20/20
f 31/31/31 12/12/12 32/32/32
f 31/31/31 33/33/33 12/12/12
f 12/12/12 33/33/33 20/20/20
f 20/20/20 33/33/33 30/30/30
f 34/34/34 33/33/33 31/31/31
f 20/20/20 5/5/5 8/8/8
f 35/35/35 12/12/12 11/11/11
f 35/35/35 32/32/32 12/12/12
f 36/36/36 33/33/33 34/34/34
f 36/36/36 37/37/37 33/33/33
f 37/37/37 30/30/30 33/33/33
f 30/30/30 37/37/37 38/38/38
f 38/38/38 29/29/29 30/30/30
f 38/38/38 39/39/39 29/29/29
f 38/38/38 40/40/40 39/39/39
f 41/41/41 42/42/42 38/38/38
f 41/41/41 43/43/43 42/42/42
f 41/41/41 38/38/38 37/37/37
f 17/17/17 20/20/20 30/30/30
f 44/44/44 37/37/37 45/45/45
f 44/44/44 41/41/41 37/37/37
f 45/45/45 37/37/37 46/46/46
f 47/47/47 48/48/48 49/49/49
f 47/47/47 41/41/41 48/48/48
f 41/41/41 44/44/44 48/48/48
f 46/46/46 37/37/37 36/36/36
f 30/30/30 29/29/29 25/25/25
f 50/50/50 29/29/29 51/51/51
f 50/50/50 26/26/26 29/29/29
f 9/9/9 5/5/5 4/4/4
f 9/9/9 8/8/8 5/5/5
f 50/50/50 28/28/28 26/26/26
f 50/50/50 52/52/52 28/28/28
f 52/52/52 53/53/53 28/28/28
f 42/42/42 40/40/40 38/38/38
f 39/39/39 51/51/51 29/29/29
f 54/54/54 49/49/49 48/48/48
f 47/47/47 43/43/43 41/41/41
