mtllib m1130.mtl
usemtl material0
v 1536 -21.882164001464844 1333.076904296875
v 1541.796630859375 -21.904516220092773 1326.634033203125
v 1536 -21.779203414916992 1326.9398193359375
v 1536 -22.321701049804688 1468.203857421875
v 1548.5322265625 -22.352418899536133 1454.274658203125
v 1536 -22.15226936340332 1454.9359130859375
v 1536 -22.684650421142578 1518.934814453125
v 1536 -22.782529830932617 1535.7667236328125
v 1551.8985595703125 -22.84404182434082 1518.095703125
v 1536 -23.354179382324219 1400.6367192268372
v 1545.1558837890625 -23.714994430541992 1390.4591064453125
v 1536 -23.421764373779297 1390.94189453125
v 1539.3330078125 -22.229036331176758 1280
v 1583.7510986328125 -22.949844360351562 1280
v 1603.323974609375 -23.529916763305664 1280
v 1605.6068115234375 -23.781330108642578 1323.269775390625
v 1644.5350341796875 -24.585973739624023 1280
v 1608.975341796875 -23.877973556518555 1387.089599609375
v 1536 -22.158401489257812 1280
v 1536 -21.897638320922852 1312.279052734375
v 1667.3121340274811 -25.354658126831055 1280
v 1669.4156489372253 -25.895183563232422 1319.9061279296875
v 1705.3199462890625 -25.825368881225586 1280
v 1731.3057861328125 -26.153873443603516 1280
v 1733.2318115234375 -26.65772819519043 1316.5384521484375
v 1766.1046142578125 -27.144918441772461 1280
v 1736.5966796875 -27.413537979125977 1380.3603515625
v 1672.7789306640625 -26.95518684387207 1383.72900390625
v 1792 -27.509651184082031 1281.9405517578125
v 1792 -27.490121841430664 1313.4375
v 1792 -27.510854721069336 1280
v 1612.33544921875 -25.531942367553711 1450.9141845703125
v 1615.7034912109375 -25.705699920654297 1514.734375
v 1552.8421630859375 -23.130777359008789 1536
v 1536 -22.786014556884766 1536
v 1616.828369140625 -25.28986930847168 1536
v 1596.572021484375 -25.123432159423828 1536
v 1657.3586430549622 -25.723546981811523 1536
v 1679.5196533203125 -26.456298828125 1511.3665771484375
v 1676.1453857421875 -27.433887481689453 1447.5499267578125
v 1792 -27.549247741699219 1318.781005859375
v 1792 -27.564943313598633 1377.4351806640625
v 1739.9586181640625 -28.716440200805664 1444.183837890625
v 1792 -27.745037078857422 1386.344482421875
v 1680.8211669921875 -26.26072883605957 1536
v 1718.142822265625 -27.1922607421875 1536
v 1743.3310546875 -28.080154418945312 1508.00146484375
v 1792 -28.124893188476562 1441.4342041015625
v 1792 -28.008344650268555 1453.9078369140625
v 1744.818603515625 -26.384645462036133 1536
v 1792 -27.42381477355957 1505.4296875
v 1792 -27.016464233398438 1512.256103515625
v 1778.9349365234375 -25.816984176635742 1536
v 1792 -26.466249465942383 1521.4765625
v 1792 -26.201335906982422 1536
vt 0.76471799612045288 0.0089020133018493652
vt 0.78968101739883423 0.029838979244232178
vt 0.78777897357940674 0.0080959796905517578
vt 0.25688299536705017 0.026796996593475342
vt 0.31088098883628845 0.072027981281280518
vt 0.30677199363708496 0.0250130295753479
vt 0.066285997629165649 0.033553004264831543
vt 0.00304899993352592 0.0357930064201355
vt 0.071552000939846039 0.093173980712890625
vt 0.51082098484039307 0.017808020114898682
vt 0.550242006778717 0.050918996334075928
vt 0.547245979309082 0.016565024852752686
vt 0.96457302570343018 0.014550983905792236
vt 0.97033900022506714 0.18145400285720825
vt 0.97293299436569214 0.25499802827835083
vt 0.81066501140594482 0.26923799514770508
vt 0.97830897569656372 0.40987998247146606
vt 0.57133400440216064 0.290241003036499
vt 0.964139997959137 0.0020260214805603027
vt 0.84286201000213623 0.0062000155448913574
vt 0.98133498430252075 0.49547100067138672
vt 0.83167499303817749 0.50865799188613892
vt 0.98634397983551025 0.63827601075172424
vt 0.98980700969696045 0.73589101433753967
vt 0.85277700424194336 0.74798300862312317
vt 0.9943850040435791 0.86668199300765991
vt 0.61343401670455933 0.76910899579524994
vt 0.59231197834014893 0.529790997505188
vt 0.99053597450256348 0.96421699970960617
vt 0.8722040057182312 0.96838299930095673
vt 0.99782699346542358 0.96395900100469589
vt 0.33193698525428772 0.31158798933029175
vt 0.092612996697425842 0.3326839804649353
vt 0.0044060000218451023 0.099128007888793945
vt 0.0021730000153183937 0.035825014114379883
vt 0.012849999591708183 0.33969497680664062
vt 0.01018499955534935 0.26358997821807861
vt 0.018188999965786934 0.49197399616241455
vt 0.11367399990558624 0.57201200723648071
vt 0.35303100943565369 0.55097898840904236
vt 0.85212802886962891 0.96909400075674057
vt 0.6319199800491333 0.97685500048100948
vt 0.37411400675773621 0.79032500088214874
vt 0.59844100475311279 0.97805500030517578
vt 0.021294999867677689 0.580145001411438
vt 0.026241999119520187 0.7204039990901947
vt 0.13477399945259094 0.811379000544548
vt 0.39124900102615356 0.98549799993634224
vt 0.34438401460647583 0.98713599983602762
vt 0.029588999226689339 0.82067599892616272
vt 0.15080499649047852 0.99390800017863512
vt 0.12508499622344971 0.994781999848783
vt 0.03402400016784668 0.94886999949812889
vt 0.090383000671863556 0.99601700017228723
vt 0.035810999572277069 0.99797399993985891
vn 0.030855000019073486 0.99922901391983032 0.024294000118970871
vn 0.02219800092279911 0.99973297119140625 0.0064690001308918
vn 0.021864000707864761 0.999750018119812 0.0047630001790821552
vn 0.011857000179588795 0.99989402294158936 0.0084629999473690987
vn 0.02614700049161911 0.99965697526931763 -0.0015569999814033508
vn 0.015752999112010002 0.9998670220375061 -0.0040939999744296074
vn 0.010366000235080719 0.99992501735687256 0.0064619998447597027
vn 0.018100999295711517 0.999754011631012 0.01280600018799305
vn 0.029690999537706375 0.99952298402786255 0.0084579996764659882
vn 0.018727000802755356 0.99965202808380127 -0.018593000248074532
vn 0.015522999688982964 0.99986797571182251 0.0046890000812709332
vn 0.032496001571416855 0.99942898750305176 0.00925000011920929
vn 0.018789000809192657 0.99979197978973389 -0.00795000046491623
vn 0.02604999952018261 0.99966001510620117 0.001028000027872622
vn 0.02768700011074543 0.99960702657699585 0.0043469998054206371
vn 0.032425999641418457 0.99946302175521851 0.004801000002771616
vn 0.031564000993967056 0.99945402145385742 0.00981099996715784
vn 0.035114999860525131 0.9993399977684021 0.0092979995533823967
vn 0.021186999976634979 0.99974298477172852 -0.008077000267803669
vn 0.021186999976634979 0.99974298477172852 -0.008076000027358532
vn 0.023415999487042427 0.99965000152587891 0.012306000106036663
vn 0.022603999823331833 0.99965602159500122 0.013314999639987946
vn 0.012570999562740326 0.9998360276222229 0.013059999793767929
vn 0.020286999642848969 0.99971300363540649 0.012715999968349934
vn 0.015305999666452408 0.99983000755310059 0.010298999957740307
vn 0.017954999580979347 0.99983501434326172 0.0028220000676810741
vn 0.0092909997329115868 0.99987000226974487 0.013189000077545643
vn 0.024088000878691673 0.99964702129364014 0.011195999570190907
vn 0.014130000025033951 0.99989998340606689 -0.00062000000616535544
vn 0.014427999965846539 0.99988299608230591 0.0050260000862181187
vn 0.014130000025033951 0.99989998340606689 -0.00062000000616535544
vn 0.042004000395536423 0.99906301498413086 0.010408000089228153
vn 0.025698000565171242 0.99964100122451782 -0.0075830002315342426
vn 0.033415999263525009 0.9993399977684021 0.014243000186979771
vn 0.020462999120354652 0.99967902898788452 0.014933000318706036
vn 0.0094980001449584961 0.999754011631012 -0.020052000880241394
vn 0.035572998225688934 0.9993559718132019 0.0046399999409914017
vn 0.013949000276625156 0.99975502490997314 -0.017190000042319298
vn 0.018675999715924263 0.99973601102828979 -0.013395999558269978
vn 0.021015999838709831 0.99977898597717285 -0.0011490000179037452
vn 0.011947000399231911 0.999891996383667 0.0085450001060962677
vn 0.0032560001127421856 0.9999459981918335 0.0099039999768137932
vn 0.0069229998625814915 0.99997299909591675 0.0024240000639110804
vn 0.00034800000139512122 0.99985402822494507 0.017105000093579292
vn 0.023954000324010849 0.99967098236083984 -0.0092019997537136078
vn 0.010219999589025974 0.99969398975372314 -0.022508999332785606
vn -0.001841000048443675 0.99958300590515137 -0.028814999386668205
vn -0.011416999623179436 0.99993401765823364 -0.00095100002363324165
vn -0.012377999722957611 0.999875009059906 -0.0098090004175901413
vn -0.023173000663518906 0.99797701835632324 -0.059202998876571655
vn -0.015306999906897545 0.99928200244903564 -0.034658998250961304
vn -0.016606999561190605 0.99808698892593384 -0.059558998793363571
vn -0.0043330001644790173 0.99881100654602051 -0.048549000173807144
vn -0.0058840001001954079 0.99873501062393188 -0.04994099959731102
vn 0.029401000589132309 0.99940198659896851 -0.018230000510811806
f 1/1/1 2/2/2 3/3/3
f 4/4/4 5/5/5 6/6/6
f 7/7/7 8/8/8 9/9/9
f 10/10/10 11/11/11 12/12/12
f 1/1/1 11/11/11 2/2/2
f 1/1/1 12/12/12 11/11/11
f 13/13/13 2/2/2 14/14/14
f 15/15/15 16/16/16 17/17/17
f 16/16/16 14/14/14 2/2/2
f 16/16/16 15/15/15 14/14/14
f 16/16/16 2/2/2 18/18/18
f 19/19/19 2/2/2 13/13/13
f 19/19/19 20/20/20 2/2/2
f 20/20/20 3/3/3 2/2/2
f 21/21/21 22/22/22 23/23/23
f 22/22/22 17/17/17 16/16/16
f 22/22/22 21/21/21 17/17/17
f 24/24/24 25/25/25 26/26/26
f 25/25/25 23/23/23 22/22/22
f 25/25/25 24/24/24 23/23/23
f 25/25/25 22/22/22 27/27/27
f 22/22/22 16/16/16 28/28/28
f 29/29/29 25/25/25 30/30/30
f 29/29/29 26/26/26 25/25/25
f 29/29/29 31/31/31 26/26/26
f 4/4/4 9/9/9 5/5/5
f 4/4/4 7/7/7 9/9/9
f 11/11/11 5/5/5 18/18/18
f 32/32/32 5/5/5 9/9/9
f 5/5/5 32/32/32 18/18/18
f 18/18/18 32/32/32 28/28/28
f 32/32/32 9/9/9 33/33/33
f 18/18/18 2/2/2 11/11/11
f 8/8/8 34/34/34 9/9/9
f 8/8/8 35/35/35 34/34/34
f 36/36/36 33/33/33 37/37/37
f 33/33/33 38/38/38 39/39/39
f 33/33/33 36/36/36 38/38/38
f 9/9/9 37/37/37 33/33/33
f 9/9/9 34/34/34 37/37/37
f 40/40/40 32/32/32 33/33/33
f 40/40/40 28/28/28 32/32/32
f 28/28/28 40/40/40 27/27/27
f 41/41/41 27/27/27 42/42/42
f 28/28/28 27/27/27 22/22/22
f 27/27/27 40/40/40 43/43/43
f 16/16/16 18/18/18 28/28/28
f 42/42/42 43/43/43 44/44/44
f 42/42/42 27/27/27 43/43/43
f 45/45/45 39/39/39 38/38/38
f 39/39/39 46/46/46 47/47/47
f 39/39/39 45/45/45 46/46/46
f 47/47/47 43/43/43 39/39/39
f 47/47/47 48/48/48 43/43/43
f 47/47/47 49/49/49 48/48/48
f 50/50/50 51/51/51 47/47/47
f 50/50/50 52/52/52 51/51/51
f 52/52/52 53/53/53 54/54/54
f 52/52/52 50/50/50 53/53/53
f 50/50/50 47/47/47 46/46/46
f 40/40/40 39/39/39 43/43/43
f 39/39/39 40/40/40 33/33/33
f 30/30/30 27/27/27 41/41/41
f 30/30/30 25/25/25 27/27/27
f 44/44/44 43/43/43 48/48/48
f 51/51/51 49/49/49 47/47/47
f 55/55/55 54/54/54 53/53/53
f 10/10/10 5/5/5 11/11/11
f 10/10/10 6/6/6 5/5/5
