mtllib m1133.mtl
usemtl material0
v 1792 -27.515911102294922 1250.17626953125
v 1793.67822265625 -27.553573608398438 1249.3516845703125
v 1792 -27.506864547729492 1249.4400634765625
v 1792 -27.52869987487793 1251.217041015625
v 1845.7806396484375 -27.481082916259766 1024
v 1813.474609375 -26.550920486450195 1024
v 1847.397705078125 -26.420328140258789 1054.519287109375
v 1792 -27.487997055053711 1057.4476318359375
v 1792 -25.128995895385742 1116.0958251953125
v 1909.77734375 -27.754615783691406 1024
v 1911.2171630859375 -26.583469390869141 1051.1497802734375
v 1874.852783203125 -27.744907379150391 1024
v 1792 -26.946414947509766 1024
v 1792 -27.023353576660156 1028.751708984375
v 1935.6376953125 -29.015073776245117 1024
v 1792 -25.158777236938477 1121.4385986328125
v 1850.7642822265625 -26.87542724609375 1118.34033203125
v 1792 -26.821420669555664 1217.4825439453125
v 1792 -26.121244430541992 1185.438720703125
v 1854.1304931640625 -27.374698638916016 1182.1614990234375
v 1792 -26.109235763549805 1183.6571044921875
v 1914.5765380859375 -28.342254638671875 1114.974853515625
v 1857.4837646484375 -30.2603816986084 1245.9898681640625
v 1917.9295649528503 -31.25407600402832 1178.803466796875
v 1792 -27.510854721069336 1280
v 1795.296142578125 -27.557432174682617 1280
v 1975.0185546875 -30.021675109863281 1047.79052734375
v 1973.75732421875 -30.982736587524414 1024
v 2037.7294921875 -35.550853729248047 1024
v 2038.818603515625 -33.700828552246094 1044.4320068359375
v 1996.4141845703125 -33.371368408203125 1024
v 2048 -34.374195098876953 1040.2705078125
v 2048 -34.0350227355957 1043.9481201171875
v 2048 -35.874771118164062 1024
v 1978.3885498046875 -29.845928192138672 1111.6094970703125
v 2042.203125 -30.87620735168457 1108.24267578125
v 1921.3052979707718 -30.016305923461914 1242.619140625
v 1981.75537109375 -30.241199493408203 1175.4302978515625
v 1985.1336669921875 -28.551288604736328 1239.24462890625
v 2045.572509765625 -30.812013626098633 1172.06201171875
v 2048 -29.29350471496582 1235.927001953125
v 2009.2540283203125 -28.448032379150391 1280
v 2048 -29.284221649169922 1236.9326171875
v 1987.287109375 -28.19938850402832 1280
v 1923.2821040153503 -29.402950286865234 1280
v 1895.2921142578125 -29.533884048461914 1280
v 2048 -31.36846923828125 1101.831787109375
v 1859.28564453125 -29.094661712646484 1280
v 1827.7413330078125 -27.816995620727539 1280
v 1962.864990234375 -28.769491195678711 1280
v 2048 -30.894733428955078 1113.4310302734375
v 2048 -29.728597640991211 1217.930908203125
v 2048 -30.822608947753906 1171.933837890625
v 2048 -28.642889022827148 1280
vt 0.11424600332975388 0.032051026821136475
vt 0.11756200343370438 0.038248002529144287
vt 0.11701100319623947 0.031953990459442139
vt 0.11033699661493301 0.032187998294830322
vt 0.97088801860809326 0.20421898365020752
vt 0.966497004032135 0.0828390121459961
vt 0.85640799999237061 0.21432399749755859
vt 0.83832401037216187 0.0065900087356567383
vt 0.617874026298523 0.014276981353759766
vt 0.97936797142028809 0.44458097219467163
vt 0.87749397754669189 0.45357197523117065
vt 0.97476100921630859 0.31341099739074707
vt 0.96396899223327637 0.0023509860038757324
vt 0.94611901044845581 0.0029529929161071777
vt 0.98269200325012207 0.54217299818992615
vt 0.59784001111984253 0.015004992485046387
vt 0.6171489953994751 0.23540401458740234
vt 0.23706400394439697 0.027716994285583496
vt 0.35744199156761169 0.023467004299163818
vt 0.37788501381874084 0.25643700361251831
vt 0.36413401365280151 0.023232996463775635
vt 0.63814002275466919 0.47469502687454224
vt 0.13837599754333496 0.27768099308013916
vt 0.39850598573684692 0.49608898162841797
vt 0.0022330000065267086 0.035946011543273926
vt 0.0026630000211298466 0.048327028751373291
vt 0.898281991481781 0.69312301278114319
vt 0.98756599426269531 0.68553799390792847
vt 0.99646300077438354 0.92613299936056137
vt 0.91952598094940186 0.932608000934124
vt 0.99067801237106323 0.7710999995470047
vt 0.93639099597930908 0.96662500128149986
vt 0.92254102230072021 0.96705200150609016
vt 0.99776697158813477 0.96472800150513649
vt 0.65916097164154053 0.71398499608039856
vt 0.68003702163696289 0.95326299965381622
vt 0.15920799970626831 0.51695999503135681
vt 0.41929399967193604 0.73541700839996338
vt 0.179966002702713 0.75633400678634644
vt 0.44022399187088013 0.97467800043523312
vt 0.20059899985790253 0.99203599989414215
vt 0.02996399998664856 0.8521219938993454
vt 0.19674299657344818 0.99209799990057945
vt 0.027158999815583229 0.76961000263690948
vt 0.019043000414967537 0.52918100357055664
vt 0.015251999720931053 0.42387700080871582
vt 0.70489597320556641 0.97425100021064281
vt 0.010777000337839127 0.28862500190734863
vt 0.0068999999202787876 0.17018997669219971
vt 0.024083999916911125 0.67787200212478638
vt 0.66075098514556885 0.97579500079154968
vt 0.2682110071182251 0.98971400037407875
vt 0.44103699922561646 0.98377699963748455
vt 0.034968998283147812 0.99764900002628565
vn 0.0284659992903471 0.9995189905166626 0.012281999923288822
vn 0.026867000386118889 0.99958598613739014 0.0103150000795722
vn 0.028697000816464424 0.99944800138473511 0.016706999391317368
vn 0.017475999891757965 0.9998440146446228 0.0023900000378489494
vn 0.0192440003156662 0.999176025390625 -0.03574800118803978
vn -0.0074069998227059841 0.99996501207351685 0.00395399983972311
vn 0.004207999911159277 0.99988001585006714 -0.014890000224113464
vn -0.019951999187469482 0.99971699714660645 -0.01294500008225441
vn 0.017635000869631767 0.99983102083206177 -0.0051020001992583275
vn 0.023663999512791634 0.99873602390289307 -0.044337000697851181
vn 0.029781000688672066 0.99949002265930176 -0.011560999788343906
vn 0.0026239999569952488 0.99915599822998047 -0.0410039983689785
vn -0.018410999327898026 0.99969899654388428 0.016186999157071114
vn -0.018410999327898026 0.99969899654388428 0.016186999157071114
vn 0.050737999379634857 0.99775397777557373 -0.043724998831748962
vn 0.029756000265479088 0.99950098991394043 0.010580999776721
vn 0.022933000698685646 0.99968802928924561 0.0099480003118515015
vn 0.021446000784635544 0.99953198432922363 0.0218339990824461
vn 0.020935000851750374 0.99967497587203979 0.014542000368237495
vn 0.039857998490333557 0.9988589882850647 0.026311000809073448
vn 0.02273700013756752 0.99970299005508423 0.0087289996445178986
vn 0.033153001219034195 0.99910402297973633 0.026296999305486679
vn 0.02947700023651123 0.999563992023468 -0.0019460000330582261
vn 0.020061999559402466 0.99968397617340088 0.015165000222623348
vn 0.014128999784588814 0.99989998340606689 -0.00062000000616535544
vn 0.010962000116705895 0.99993997812271118 -0.00045299998600967228
vn 0.051249999552965164 0.99817800521850586 -0.0318479984998703
vn 0.077307000756263733 0.99602097272872925 -0.044334001839160919
vn 0.042252998799085617 0.99483197927474976 -0.092330001294612885
vn 0.04321800172328949 0.99664902687072754 -0.069452002644538879
vn 0.066371001303195953 0.99455499649047852 -0.080343000590801239
vn 0.0313900001347065 0.99528300762176514 -0.091792002320289612
vn 0.0326169990003109 0.99703401327133179 -0.069710999727249146
vn 0.0313900001347065 0.99528300762176514 -0.091790996491909027
vn 0.015231000259518623 0.9998670220375061 0.0058439997956156731
vn 0.026731999590992928 0.99940198659896851 -0.021944999694824219
vn -0.012435000389814377 0.99977600574493408 -0.0171549990773201
vn -0.0039739999920129776 0.99994301795959473 -0.0099459998309612274
vn -0.0068160002119839191 0.99983501434326172 -0.016834000125527382
vn 0.0063249999657273293 0.99989598989486694 -0.013001999817788601
vn 0.010909000411629677 0.999796986579895 -0.016952000558376312
vn 0.0096399998292326927 0.99989598989486694 -0.010741000063717365
vn 0.009852999821305275 0.99989598989486694 -0.01054999977350235
vn -0.0054279998876154423 0.99994999170303345 -0.0083469999954104424
vn -0.010529999621212483 0.99981898069381714 -0.015848999843001366
vn -0.000742000003810972 0.99978899955749512 -0.020532000809907913
vn 0.0352649986743927 0.99837499856948853 -0.044773001223802567
vn 0.025852000340819359 0.99903100728988647 -0.035611998289823532
vn 0.032882999628782272 0.999068021774292 -0.027960000559687614
vn -0.021626999601721764 0.99972301721572876 -0.0093010002747178078
vn 0.013779999688267708 0.99983501434326172 -0.011826000176370144
vn 0.010401000268757343 0.99965399503707886 -0.024162000045180321
vn 0.0037239999510347843 0.99992001056671143 -0.012126999907195568
vn 0.0050280001014471054 0.99987697601318359 -0.014890000224113464
f 1/1/1 2/2/2 3/3/3
f 1/1/1 4/4/4 2/2/2
f 5/5/5 6/6/6 7/7/7
f 8/8/8 9/9/9 7/7/7
f 10/10/10 7/7/7 11/11/11
f 10/10/10 12/12/12 7/7/7
f 13/13/13 7/7/7 6/6/6
f 13/13/13 14/14/14 7/7/7
f 14/14/14 8/8/8 7/7/7
f 10/10/10 11/11/11 15/15/15
f 7/7/7 16/16/16 17/17/17
f 7/7/7 9/9/9 16/16/16
f 12/12/12 5/5/5 7/7/7
f 7/7/7 17/17/17 11/11/11
f 3/3/3 2/2/2 18/18/18
f 19/19/19 2/2/2 20/20/20
f 19/19/19 18/18/18 2/2/2
f 19/19/19 17/17/17 21/21/21
f 19/19/19 20/20/20 17/17/17
f 20/20/20 22/22/22 17/17/17
f 23/23/23 24/24/24 20/20/20
f 23/23/23 20/20/20 2/2/2
f 16/16/16 21/21/21 17/17/17
f 25/25/25 2/2/2 4/4/4
f 25/25/25 26/26/26 2/2/2
f 17/17/17 22/22/22 11/11/11
f 27/27/27 11/11/11 22/22/22
f 15/15/15 27/27/27 28/28/28
f 15/15/15 11/11/11 27/27/27
f 29/29/29 27/27/27 30/30/30
f 29/29/29 31/31/31 27/27/27
f 28/28/28 27/27/27 31/31/31
f 32/32/32 30/30/30 33/33/33
f 32/32/32 29/29/29 30/30/30
f 32/32/32 34/34/34 29/29/29
f 27/27/27 22/22/22 35/35/35
f 27/27/27 36/36/36 30/30/30
f 24/24/24 37/37/37 38/38/38
f 24/24/24 35/35/35 22/22/22
f 24/24/24 38/38/38 35/35/35
f 37/37/37 24/24/24 23/23/23
f 38/38/38 39/39/39 40/40/40
f 38/38/38 36/36/36 35/35/35
f 41/41/41 42/42/42 43/43/43
f 41/41/41 39/39/39 42/42/42
f 39/39/39 44/44/44 42/42/42
f 39/39/39 38/38/38 37/37/37
f 27/27/27 35/35/35 36/36/36
f 23/23/23 45/45/45 37/37/37
f 23/23/23 46/46/46 45/45/45
f 47/47/47 30/30/30 36/36/36
f 47/47/47 33/33/33 30/30/30
f 24/24/24 22/22/22 20/20/20
f 2/2/2 48/48/48 23/23/23
f 2/2/2 49/49/49 48/48/48
f 37/37/37 44/44/44 39/39/39
f 37/37/37 50/50/50 44/44/44
f 50/50/50 37/37/37 45/45/45
f 46/46/46 23/23/23 48/48/48
f 49/49/49 2/2/2 26/26/26
f 40/40/40 36/36/36 38/38/38
f 47/47/47 36/36/36 51/51/51
f 41/41/41 40/40/40 39/39/39
f 41/41/41 52/52/52 40/40/40
f 53/53/53 40/40/40 52/52/52
f 40/40/40 51/51/51 36/36/36
f 40/40/40 53/53/53 51/51/51
f 54/54/54 43/43/43 42/42/42
