mtllib m1132.mtl
usemtl material0
v 1536 -22.422021865844727 1262.9439697265625
v 1536 -22.275445938110352 1265.511474609375
v 1538.4251708984375 -22.348617553710938 1262.8157958984375
v 1589.825439453125 -20.726108551025391 1024
v 1543.262451171875 -20.662921905517578 1024
v 1592.1451416015625 -21.12169075012207 1067.98291015625
v 1653.8109130859375 -23.024909973144531 1024
v 1610.821533203125 -21.460748672485352 1024
v 1655.95361328125 -23.330268859863281 1064.6197509765625
v 1536 -20.955970764160156 1070.947265625
v 1536 -20.374408721923828 1130.3885498046875
v 1536 -21.904520034790039 1197.9483642578125
v 1595.508056640625 -22.2584171295166 1131.80615234375
v 1536 -20.448026657104492 1134.943359375
v 1536 -21.931026458740234 1198.945068359375
v 1598.8671875 -24.075046539306641 1195.6314697265625
v 1536 -20.684459686279297 1030.746337890625
v 1536 -20.638896942138672 1024
v 1536 -22.024667739868164 1216.840576171875
v 1583.7510986328125 -22.949844360351562 1280
v 1602.2398681640625 -23.410507202148438 1259.448974609375
v 1539.3330078125 -22.229036331176758 1280
v 1662.689208984375 -23.769514083862305 1192.2603759765625
v 1644.5350341796875 -24.585973739624023 1280
v 1666.0513920783997 -25.030717849731445 1256.083984375
v 1603.323974609375 -23.529916763305664 1280
v 1659.31787109375 -24.191610336303711 1128.442138671875
v 1536 -22.158401489257812 1280
v 1719.7572021484375 -26.4013614654541 1061.25927734375
v 1692.4952392578125 -25.015449523925781 1024
v 1717.791259765625 -26.235570907592773 1024
v 1753.279541015625 -26.555318832397461 1024
v 1723.131591796875 -25.422407150268555 1125.075927734375
v 1783.57080078125 -27.65045166015625 1057.8931884765625
v 1726.5081787109375 -24.017419815063477 1188.89111328125
v 1705.3199462890625 -25.825368881225586 1280
v 1729.86767578125 -25.777637481689453 1252.7161865234375
v 1667.3121340274811 -25.354658126831055 1280
v 1790.3172607421875 -26.087295532226562 1185.5274658203125
v 1731.3057861328125 -26.153873443603516 1280
v 1792 -27.506864547729492 1249.4400634765625
v 1792 -27.515911102294922 1250.17626953125
v 1766.1046142578125 -27.144918441772461 1280
v 1792 -27.52869987487793 1251.217041015625
v 1786.9541015625 -25.011375427246094 1121.70458984375
v 1792 -27.487997055053711 1057.4476318359375
v 1792 -25.128995895385742 1116.0958251953125
v 1792 -26.946414947509766 1024
v 1781.784423828125 -27.134553909301758 1024
v 1792 -27.023353576660156 1028.751708984375
v 1792 -25.158777236938477 1121.4385986328125
v 1792 -26.821420669555664 1217.4825439453125
v 1792 -26.121244430541992 1185.438720703125
v 1792 -26.109235763549805 1183.6571044921875
v 1792 -27.510854721069336 1280
vt 0.065796002745628357 0.033037006855010986
vt 0.056129001080989838 0.033388018608093262
vt 0.0665929988026619 0.04214102029800415
vt 0.97102200984954834 0.2044450044631958
vt 0.96500897407531738 0.029410004615783691
vt 0.80598002672195435 0.21884799003601074
vt 0.97922497987747192 0.44512999057769775
vt 0.97371399402618408 0.28342097997665405
vt 0.826803982257843 0.45842498540878296
vt 0.78761100769042969 0.0081729888916015625
vt 0.56415700912475586 0.015819013118743896
vt 0.31013199687004089 0.024667978286743164
vt 0.56646502017974854 0.2398110032081604
vt 0.54703301191329956 0.016412019729614258
vt 0.30638200044631958 0.024801015853881836
vt 0.32688999176025391 0.2608410120010376
vt 0.93873399496078491 0.0029960274696350098
vt 0.96407598257064819 0.0021100044250488281
vt 0.23910999298095703 0.027101993560791016
vt 0.008156999945640564 0.21486401557922363
vt 0.087921001017093658 0.28158700466156006
vt 0.0021210000850260258 0.047881007194519043
vt 0.34817901253700256 0.50028800964355469
vt 0.016428999602794647 0.44342499971389771
vt 0.10925400257110596 0.52106401324272156
vt 0.010820000432431698 0.28846800327301025
vt 0.587306022644043 0.479358971118927
vt 0.0016670000040903688 0.035350024700164795
vt 0.84758800268173218 0.69812101125717163
vt 0.98416799306869507 0.5907529890537262
vt 0.98739898204803467 0.6859549880027771
vt 0.99225097894668579 0.81900100409984589
vt 0.6090959906578064 0.71835601329803467
vt 0.86899799108505249 0.93757100030779839
vt 0.36962300539016724 0.7397100031375885
vt 0.024723000824451447 0.67196500301361084
vt 0.13003799319267273 0.76054799556732178
vt 0.019523000344634056 0.52908998727798462
vt 0.39026400446891785 0.979288000613451
vt 0.02797199971973896 0.76965999603271484
vt 0.15016399323940277 0.9937950000166893
vt 0.14756999909877777 0.99420899990946054
vt 0.03225800022482872 0.90053199976682663
vt 0.14365699887275696 0.99433899996802211
vt 0.63039302825927734 0.95780700072646141
vt 0.87274199724197388 0.96912200003862381
vt 0.65151399374008179 0.97677700035274029
vt 0.99833297729492188 0.961693998426199
vt 0.996163010597229 0.92616800218820572
vt 0.98046302795410156 0.96211099997162819
vt 0.631417989730835 0.97680499963462353
vt 0.2703239917755127 0.9897060003131628
vt 0.39081001281738281 0.98560400027781725
vt 0.39752298593521118 0.98535900004208088
vt 0.035454001277685165 0.9978899999987334
vn -0.031578999012708664 0.99918198585510254 -0.025274999439716339
vn 0.00850099977105856 0.99977397918701172 -0.019489999860525131
vn 0.0013970000436529517 0.99996101856231689 -0.0086979996412992477
vn 0.017598999664187431 0.9998130202293396 0.0080639999359846115
vn 0.002853000070899725 0.999970018863678 0.0072590000927448273
vn 0.022396000102162361 0.99971300363540649 0.0085249999538064
vn 0.043621998280286789 0.99903500080108643 0.0052089998498559
vn 0.035291999578475952 0.99935400485992432 0.0067830001935362816
vn 0.041815999895334244 0.99908798933029175 0.00863299984484911
vn 0.0028570001013576984 0.99999397993087769 -0.0017920000245794654
vn 0.024537000805139542 0.99964797496795654 0.010104999877512455
vn 0.034572001546621323 0.99906998872756958 0.025759000331163406
vn 0.032412998378276825 0.99926602840423584 0.020413000136613846
vn 0.031442001461982727 0.99931097030639648 0.019741000607609749
vn 0.034899000078439713 0.99927002191543579 0.015545999631285667
vn 0.017161000519990921 0.99983501434326172 0.0059090000577270985
vn 0.0033080000430345535 0.99997198581695557 0.0067540002055466175
vn 0.0033080000430345535 0.99997198581695557 0.0067529999651014805
vn 0.033282998949289322 0.9994320273399353 0.0052860002033412457
vn 0.019799999892711639 0.99979299306869507 -0.0045980000868439674
vn 0.018775999546051025 0.99982297420501709 -0.001117000007070601
vn 0.018623000010848045 0.99979501962661743 -0.0079410001635551453
vn 0.0034580000210553408 0.99999099969863892 0.0026189999189227819
vn 0.027781000360846519 0.99959301948547363 0.0064050001092255116
vn 0.019355000928044319 0.99968999624252319 0.015637999400496483
vn 0.027552999556064606 0.9996110200881958 0.0043549998663365841
vn 0.022137999534606934 0.999754011631012 0.0011259999591857195
vn 0.021186999976634979 0.99974298477172852 -0.008076000027358532
vn 0.028774000704288483 0.99958401918411255 -0.0020149999763816595
vn 0.0490339994430542 0.99879401922225952 0.0026740001048892736
vn 0.0292579997330904 0.999567985534668 0.0029039999935775995
vn 0.017299000173807144 0.99978500604629517 0.011432000435888767
vn 0.008491000160574913 0.99971401691436768 -0.022373000159859657
vn -0.0036039999686181545 0.99994701147079468 -0.0096129998564720154
vn 0.016602000221610069 0.99983298778533936 0.0077060000039637089
vn 0.012450999580323696 0.99983900785446167 0.01295199990272522
vn 0.0213639996945858 0.99959200620651245 0.018944000825285912
vn 0.022695999592542648 0.99966597557067871 0.012343999929726124
vn 0.027789000421762466 0.99945402145385742 0.017886999994516373
vn 0.020819999277591705 0.99970299005508423 0.012687999755144119
vn 0.028712999075651169 0.999442994594574 0.017010999843478203
vn 0.028465000912547112 0.9995189905166626 0.012281999923288822
vn 0.02464199997484684 0.99965697526931763 0.0088409995660185814
vn 0.025121999904513359 0.99964100122451782 0.0092730000615119934
vn 0.0095750000327825546 0.99988698959350586 -0.01154599990695715
vn -0.019852999597787857 0.99974197149276733 -0.01105900015681982
vn -0.0095149995759129524 0.9995189905166626 -0.029519999399781227
vn -0.018410999327898026 0.99969899654388428 0.016186999157071114
vn 0.0016009999671950936 0.99988400936126709 0.015135000459849834
vn -0.018410999327898026 0.99969899654388428 0.016186999157071114
vn 0.029738999903202057 0.99950498342514038 0.01025800034403801
vn 0.028813999146223068 0.9993550181388855 0.021440999582409859
vn 0.020909000188112259 0.99968302249908447 0.014038000255823135
vn 0.02779100090265274 0.99952602386474609 0.013278000056743622
vn 0.014130000025033951 0.99989998340606689 -0.00062000000616535544
f 1/1/1 2/2/2 3/3/3
f 4/4/4 5/5/5 6/6/6
f 7/7/7 8/8/8 9/9/9
f 10/10/10 11/11/11 6/6/6
f 12/12/12 13/13/13 14/14/14
f 11/11/11 13/13/13 6/6/6
f 11/11/11 14/14/14 13/13/13
f 6/6/6 13/13/13 9/9/9
f 13/13/13 15/15/15 16/16/16
f 13/13/13 12/12/12 15/15/15
f 10/10/10 6/6/6 17/17/17
f 17/17/17 5/5/5 18/18/18
f 17/17/17 6/6/6 5/5/5
f 1/1/1 3/3/3 19/19/19
f 3/3/3 20/20/20 21/21/21
f 3/3/3 22/22/22 20/20/20
f 21/21/21 16/16/16 3/3/3
f 16/16/16 21/21/21 23/23/23
f 21/21/21 24/24/24 25/25/25
f 21/21/21 26/26/26 24/24/24
f 26/26/26 21/21/21 20/20/20
f 15/15/15 3/3/3 16/16/16
f 15/15/15 19/19/19 3/3/3
f 27/27/27 13/13/13 16/16/16
f 2/2/2 22/22/22 3/3/3
f 2/2/2 28/28/28 22/22/22
f 27/27/27 9/9/9 13/13/13
f 9/9/9 27/27/27 29/29/29
f 29/29/29 30/30/30 9/9/9
f 29/29/29 31/31/31 30/30/30
f 31/31/31 29/29/29 32/32/32
f 33/33/33 34/34/34 29/29/29
f 33/33/33 29/29/29 27/27/27
f 8/8/8 6/6/6 9/9/9
f 8/8/8 4/4/4 6/6/6
f 33/33/33 27/27/27 35/35/35
f 25/25/25 23/23/23 21/21/21
f 23/23/23 25/25/25 35/35/35
f 25/25/25 36/36/36 37/37/37
f 25/25/25 38/38/38 36/36/36
f 38/38/38 25/25/25 24/24/24
f 37/37/37 35/35/35 25/25/25
f 37/37/37 39/39/39 35/35/35
f 40/40/40 41/41/41 37/37/37
f 40/40/40 42/42/42 41/41/41
f 42/42/42 43/43/43 44/44/44
f 42/42/42 40/40/40 43/43/43
f 40/40/40 37/37/37 36/36/36
f 27/27/27 23/23/23 35/35/35
f 33/33/33 35/35/35 45/45/45
f 23/23/23 27/27/27 16/16/16
f 7/7/7 9/9/9 30/30/30
f 45/45/45 34/34/34 33/33/33
f 46/46/46 45/45/45 47/47/47
f 46/46/46 34/34/34 45/45/45
f 48/48/48 49/49/49 50/50/50
f 50/50/50 34/34/34 46/46/46
f 50/50/50 49/49/49 34/34/34
f 47/47/47 45/45/45 51/51/51
f 41/41/41 39/39/39 37/37/37
f 41/41/41 52/52/52 39/39/39
f 53/53/53 39/39/39 52/52/52
f 53/53/53 54/54/54 39/39/39
f 51/51/51 39/39/39 54/54/54
f 51/51/51 45/45/45 39/39/39
f 55/55/55 44/44/44 43/43/43
f 39/39/39 45/45/45 35/35/35
f 34/34/34 32/32/32 29/29/29
f 34/34/34 49/49/49 32/32/32
