mtllib m12030.mtl
usemtl material0
v 256 -6.0953941345214844 658.51251220703125
v 256 -5.9731531143188477 661.304931640625
v 258.63699340820312 -6.1715021133422852 658.37353515625
v 256 -6.2582430839538574 690.51190185546875
v 256 -6.5681300163269043 695.0858154296875
v 260.31927490234375 -6.6277790069580078 690.284912109375
v 256 -5.8405961990356445 754.50848388671875
v 256 -5.76835823059082 762.6522216796875
v 263.694580078125 -5.3830728530883789 754.10076904296875
v 256 -7.0275368690490723 728.86700439453125
v 262.00213623046875 -6.9647321701049805 722.19598388671875
v 256 -6.8228268623352051 722.51251220703125
v 290.56085205078125 -3.4393908977508545 656.6795654296875
v 292.240478515625 -4.42837381362915 688.5927734375
v 257.66952514648438 -5.6927947998046875 640
v 275.17202758789062 -4.1178088188171387 640
v 256 -5.6424570083618164 640
v 256 -6.0064730644226074 654.878173828125
v 264.42660522460938 -5.7202129364013672 768
v 295.6143798828125 -3.4683310985565186 752.40960693359375
v 281.58493041992188 -4.7158060073852539 768
v 256 -5.9042239189147949 768
v 293.90875244140625 -7.6822671890258789 720.51324462890625
v 322.47528100013733 -2.6050100326538086 654.9918212890625
v 325.83923292160034 -3.6306569576263428 718.81512546539307
v 311.97976684570312 -4.4052400588989258 768
v 327.524169921875 -3.5514130592346191 750.72479248046875
v 296.4329833984375 -4.32014799118042 768
v 324.15972900390625 -2.6228179931640625 686.90185546875
v 305.56710815429688 -3.6821401119232178 640
v 289.68310546875 -2.9040238857269287 640
v 321.68063402175903 -3.2267959117889404 640
v 335.96401977539062 -2.3681550025939941 640
v 354.381103515625 -3.4837889671325684 653.30963134765625
v 357.73455810546875 -6.6026611328125 717.1396484375
v 342.37167358398438 -5.4737629890441895 768
v 359.41665649414062 -7.087371826171875 749.0511474609375
v 328.43426513671875 -3.9173169136047363 768
v 356.0634765625 -3.9205360412597656 685.22100830078125
v 384 -6.9158692359924316 651.75579833984375
v 384 -6.9340610504150391 654.16326904296875
v 384 -8.1200265884399414 715.75714111328125
v 384 -8.19229793548584 721.724853515625
v 384 -7.6740241050720215 747.75469970703125
v 372.763916015625 -6.3734111785888672 768
v 384 -7.2666301727294922 755.50927734375
v 360.42202758789062 -6.1130809783935547 768
v 384 -7.241858959197998 687.94482421875
v 384 -6.91417121887207 683.75469970703125
v 366.35479736328125 -3.9983220100402832 640
v 353.6815185546875 -2.8959419727325439 640
v 384 -6.1066727638244629 640
v 384 -6.8162641525268555 650.30877685546875
v 384 -6.584597110748291 768
vt 0.82473498582839966 0.005066990852355957
vt 0.80367898941040039 0.0057709813117980957
vt 0.8264700174331665 0.024902999401092529
vt 0.58367300033569336 0.013790011405944824
vt 0.54914897680282593 0.015222012996673584
vt 0.586546003818512 0.046383023262023926
vt 0.10166300088167191 0.030192971229553223
vt 0.0403049997985363 0.031969010829925537
vt 0.1063850000500679 0.0881810188293457
vt 0.2946699857711792 0.024609982967376709
vt 0.34663799405097961 0.06789398193359375
vt 0.34255599975585938 0.022772014141082764
vt 0.84841001033782959 0.26574200391769409
vt 0.60835397243499756 0.2869030237197876
vt 0.96465897560119629 0.012715995311737061
vt 0.96971398591995239 0.1450350284576416
vt 0.96422302722930908 0.00013399124145507813
vt 0.85211902856826782 0.0040990114212036133
vt 0.0017500000540167093 0.096158981323242188
vt 0.12515899538993835 0.32880699634552
vt 0.0049899998120963573 0.22566699981689453
vt 0.0002229999954579398 0.032648980617523193
vt 0.36709898710250854 0.30790698528289795
vt 0.86982297897338867 0.50575500726699829
vt 0.39044100046157837 0.54971998929977417
vt 0.012272000312805176 0.4565969705581665
vt 0.14704899489879608 0.56865999102592468
vt 0.0076410002075135708 0.33758997917175293
vt 0.62993299961090088 0.52724099159240723
vt 0.9779130220413208 0.37450999021530151
vt 0.97388297319412231 0.25471198558807373
vt 0.98261600732803345 0.49555301666259766
vt 0.98655897378921509 0.6031239926815033
vt 0.89129602909088135 0.74570399522781372
vt 0.41136598587036133 0.79058800637722015
vt 0.021038999781012535 0.68617299199104309
vt 0.16850100457668304 0.80989199876785278
vt 0.017177000641822815 0.58057698607444763
vt 0.65138298273086548 0.76728500425815582
vt 0.91104799509048462 0.969879999756813
vt 0.89291399717330933 0.97054599970579147
vt 0.429421991109848 0.98833900038152933
vt 0.38111200928688049 0.98771500028669834
vt 0.18500499427318573 0.99475800013169646
vt 0.029020000249147415 0.91521500051021576
vt 0.126242995262146 0.99663199996575713
vt 0.025821000337600708 0.82222500443458557
vt 0.63898497819900513 0.97986800037324429
vt 0.67001801729202271 0.97852299921214581
vt 0.9947199821472168 0.83246299624443054
vt 0.991441011428833 0.73663601279258728
vt 0.99977701902389526 0.96594300121068954
vt 0.921970009803772 0.96940100006759167
vt 0.032012000679969788 0.99986700000590645
vn 0.028279999271035194 0.9995419979095459 -0.01078800018876791
vn 0.07197900116443634 0.997402012348175 -0.002736999886110425
vn -0.021124999970197678 0.9996650218963623 0.014937999658286572
vn 0.087235003709793091 0.995406985282898 0.0394430011510849
vn 0.039234001189470291 0.99896800518035889 0.022887000814080238
vn -0.00034900000900961459 0.9997519850730896 0.022258000448346138
vn -0.060754001140594482 0.99778997898101807 -0.0269009992480278
vn -0.030703000724315643 0.99937701225280762 0.017400000244379044
vn -0.0461370013654232 0.99862200021743774 -0.02500700019299984
vn -0.0414620004594326 0.99874997138977051 -0.027900999411940575
vn 0.0013760000001639128 0.99999701976776123 0.0022370000369846821
vn 0.024744000285863876 0.99947100877761841 0.021116999909281731
vn -0.043274998664855957 0.99880999326705933 0.022512000054121017
vn -0.044606998562812805 0.99757498502731323 0.053429998457431793
vn -0.027808999642729759 0.99923497438430786 0.027498999610543251
vn -0.084968999028205872 0.99577397108078 0.034834999591112137
vn 0.030129000544548035 0.99924701452255249 0.024447999894618988
vn 0.030129000544548035 0.99924701452255249 0.024447999894618988
vn -0.040727999061346054 0.99882197380065918 0.026372000575065613
vn -0.0421690009534359 0.99883002042770386 -0.023661000654101372
vn -0.049943000078201294 0.99814099073410034 0.034924998879432678
vn -0.021825000643730164 0.999439001083374 0.025391999632120132
vn -0.05367099866271019 0.99850600957870483 -0.010215999558568
vn -0.014073999598622322 0.999888002872467 -0.0051919999532401562
vn -0.0068459999747574329 0.9999619722366333 0.0053179999813437462
vn -0.0038980001118034124 0.99893999099731445 0.045866001397371292
vn 0.050781998783349991 0.99862498044967651 0.013031999580562115
vn -0.010037999600172043 0.9984319806098938 0.055078998208045959
vn -0.016821999102830887 0.99948602914810181 0.027300000190734863
vn -0.0076410002075135708 0.99974101781845093 -0.021424999460577965
vn -0.019424000754952431 0.99926298856735229 0.033096000552177429
vn -0.043545998632907867 0.99828600883483887 -0.039096001535654068
vn 0.0058010001666843891 0.99976199865341187 0.021014999598264694
vn 0.0706150010228157 0.99712902307510376 0.02734299935400486
vn 0.085383996367454529 0.99567997455596924 0.036479000002145767
vn 0.090910002589225769 0.99585402011871338 -0.0030269999988377094
vn 0.061411000788211823 0.99797499179840088 -0.016550999134778976
vn 0.043159998953342438 0.9988899827003479 0.018883999437093735
vn 0.083036996424198151 0.9958760142326355 0.0365619994699955
vn 0.11702600121498108 0.99237102270126343 0.038786999881267548
vn 0.1133899986743927 0.99353498220443726 0.00559200020506978
vn 0.058820001780986786 0.99802398681640625 0.022113999351859093
vn 0.050034001469612122 0.99873697757720947 0.0046290000900626183
vn 0.021964000537991524 0.99912399053573608 -0.035627000033855438
vn 0.020447000861167908 0.99838501214981079 -0.053001999855041504
vn 0.020524999126791954 0.99838697910308838 -0.052932001650333405
vn 0.027969999238848686 0.998212993144989 -0.052809000015258789
vn 0.098370000720024109 0.99290800094604492 0.066761001944541931
vn 0.10840699821710587 0.99340802431106567 0.037250999361276627
vn 0.10989899933338165 0.99209898710250854 0.06051500141620636
vn 0.057197999209165573 0.99751901626586914 0.041051000356674194
vn 0.11836600303649902 0.99062597751617432 0.068189002573490143
vn 0.11836600303649902 0.99062597751617432 0.068189002573490143
vn 0.01876400038599968 0.99833697080612183 -0.054512999951839447
f 1/1/1 2/2/2 3/3/3
f 4/4/4 5/5/5 6/6/6
f 7/7/7 8/8/8 9/9/9
f 10/10/10 11/11/11 12/12/12
f 2/2/2 6/6/6 3/3/3
f 2/2/2 4/4/4 6/6/6
f 6/6/6 13/13/13 3/3/3
f 11/11/11 14/14/14 6/6/6
f 5/5/5 11/11/11 6/6/6
f 5/5/5 12/12/12 11/11/11
f 15/15/15 3/3/3 16/16/16
f 17/17/17 3/3/3 15/15/15
f 17/17/17 18/18/18 3/3/3
f 18/18/18 1/1/1 3/3/3
f 7/7/7 11/11/11 10/10/10
f 7/7/7 9/9/9 11/11/11
f 19/19/19 20/20/20 9/9/9
f 19/19/19 21/21/21 20/20/20
f 22/22/22 9/9/9 8/8/8
f 22/22/22 19/19/19 9/9/9
f 11/11/11 9/9/9 23/23/23
f 6/6/6 14/14/14 13/13/13
f 13/13/13 14/14/14 24/24/24
f 9/9/9 20/20/20 23/23/23
f 23/23/23 20/20/20 25/25/25
f 20/20/20 26/26/26 27/27/27
f 20/20/20 28/28/28 26/26/26
f 21/21/21 28/28/28 20/20/20
f 29/29/29 14/14/14 23/23/23
f 11/11/11 23/23/23 14/14/14
f 30/30/30 31/31/31 13/13/13
f 16/16/16 13/13/13 31/31/31
f 16/16/16 3/3/3 13/13/13
f 30/30/30 24/24/24 32/32/32
f 30/30/30 13/13/13 24/24/24
f 32/32/32 24/24/24 33/33/33
f 24/24/24 29/29/29 34/34/34
f 14/14/14 29/29/29 24/24/24
f 20/20/20 27/27/27 25/25/25
f 25/25/25 27/27/27 35/35/35
f 27/27/27 36/36/36 37/37/37
f 27/27/27 38/38/38 36/36/36
f 26/26/26 38/38/38 27/27/27
f 39/39/39 29/29/29 25/25/25
f 23/23/23 25/25/25 29/29/29
f 29/29/29 39/39/39 34/34/34
f 40/40/40 39/39/39 41/41/41
f 40/40/40 34/34/34 39/39/39
f 27/27/27 37/37/37 35/35/35
f 42/42/42 37/37/37 43/43/43
f 42/42/42 35/35/35 37/37/37
f 44/44/44 45/45/45 46/46/46
f 44/44/44 37/37/37 45/45/45
f 37/37/37 47/47/47 45/45/45
f 36/36/36 47/47/47 37/37/37
f 48/48/48 39/39/39 35/35/35
f 48/48/48 49/49/49 39/39/39
f 25/25/25 35/35/35 39/39/39
f 50/50/50 51/51/51 34/34/34
f 33/33/33 34/34/34 51/51/51
f 33/33/33 24/24/24 34/34/34
f 52/52/52 50/50/50 53/53/53
f 53/53/53 34/34/34 40/40/40
f 53/53/53 50/50/50 34/34/34
f 41/41/41 39/39/39 49/49/49
f 43/43/43 37/37/37 44/44/44
f 46/46/46 45/45/45 54/54/54
f 48/48/48 35/35/35 42/42/42
