mtllib m12021.mtl
usemtl material0
v 128 -5.4016242027282715 665.2696533203125
v 128 -5.5259881019592285 668.4454345703125
v 131.00070190429688 -5.2696681022644043 665.11077880859375
v 128 -6.2326431274414062 729.2698974609375
v 128 -6.4186968803405762 736.0079345703125
v 134.36618041992188 -6.0013751983642578 728.93304443359375
v 128 -6.3683061599731445 761.2691650390625
v 129.61250305175781 -5.5188479423522949 768
v 136.05160522460938 -5.8235011100769043 760.8424072265625
v 128 -5.674807071685791 767.65411376953125
v 128 -5.637239933013916 768
v 128 -7.12958288192749 702.22406005859375
v 132.67607116699219 -7.1238698959350586 697.02673292160034
v 128 -7.2306509017944336 697.27398681640625
v 129.68112182617188 -4.08991813659668 640
v 128 -4.2318520545959473 641.47247314453125
v 128 -4.1594710350036621 640
v 153.59642028808594 -3.6131720542907715 640
v 164.596923828125 -4.9725761413574219 695.334716796875
v 136.43081665039063 -5.560542106628418 768
v 167.96696472167969 -4.7820501327514648 759.15399169921875
v 160.00823974609375 -4.7476258277893066 768
v 166.28042602539063 -5.1825771331787109 727.245361328125
v 162.91818237304688 -3.7990260124206543 663.42095947265625
v 194.82846093177795 -3.7891080379486084 661.73590087890625
v 196.51159715652466 -4.0735139846801758 693.64678955078125
v 183.98896789550781 -4.401191234588623 640
v 161.68458557128906 -3.2515170574188232 640
v 168.43040466308594 -5.474815845489502 768
v 190.39769005775452 -7.0111970901489258 768
v 199.86669921875 -6.8878178596496582 757.4757080078125
v 198.19229078292847 -4.8484468460083008 725.5592041015625
v 226.73139953613281 -5.25065803527832 660.05560302734375
v 228.42266845703125 -3.8988618850708008 691.961181640625
v 214.38240051269531 -4.7535500526428223 640
v 193.67793297767639 -4.3842182159423828 640
v 200.42149353027344 -7.04165506362915 768
v 230.09571838378906 -6.21038818359375 723.8785400390625
v 256 -6.0953941345214844 658.51251220703125
v 256 -5.9731531143188477 661.304931640625
v 256 -6.2582430839538574 690.51190185546875
v 256 -6.5681300163269043 695.0858154296875
v 244.77542114257813 -5.3040199279785156 640
v 225.67254638671875 -5.2688078880310059 640
v 231.77493286132813 -7.2810268402099609 755.79193115234375
v 220.79121398925781 -7.3076448440551758 768
v 232.420166015625 -7.1340680122375488 768
v 256 -5.8405961990356445 754.50848388671875
v 251.18806457519531 -6.0093021392822266 768
v 256 -5.76835823059082 762.6522216796875
v 256 -7.0275368690490723 728.86700439453125
v 256 -6.8228268623352051 722.51251220703125
v 256 -5.6424570083618164 640
v 256 -6.0064730644226074 654.878173828125
v 256 -5.9042239189147949 768
vt 0.77262198925018311 0.0080130100250244141
vt 0.74874502420425415 0.0087950229644775391
vt 0.77459198236465454 0.030534982681274414
vt 0.29134300351142883 0.024879992008209229
vt 0.24070499837398529 0.026552975177764893
vt 0.29550400376319885 0.072679996490478516
vt 0.05095599964261055 0.033540010452270508
vt 0.00064899999415501952 0.047731995582580566
vt 0.056272998452186584 0.094080984592437744
vt 0.0027209999971091747 0.035516977310180664
vt 0.00011000000085914508 0.035651981830596924
vt 0.494594007730484 0.017027974128723145
vt 0.53481900691986084 0.050844013690948486
vt 0.53178799152374268 0.015767991542816162
vt 0.963126003742218 0.014505982398986816
vt 0.95161700248718262 0.0022249817848205566
vt 0.9626920223236084 0.0018659830093383789
vt 0.9691159725189209 0.1942020058631897
vt 0.55614399909973145 0.29071199893951416
vt 0.0025810000952333212 0.0989459753036499
vt 0.077660001814365387 0.3334839940071106
vt 0.0090060001239180565 0.27615600824356079
vt 0.3168950080871582 0.31202501058578491
vt 0.79563498497009277 0.27011197805404663
vt 0.81626999378204346 0.50941300392150879
vt 0.57696300745010376 0.53012698888778687
vt 0.97691100835800171 0.42254197597503662
vt 0.97131997346878052 0.25497400760650635
vt 0.01116000022739172 0.33965998888015747
vt 0.016728000715374947 0.50499299168586731
vt 0.098398000001907349 0.57321599125862122
vt 0.33791801333427429 0.55131798982620239
vt 0.8368840217590332 0.74891099333763123
vt 0.5973929762840271 0.76945500075817108
vt 0.98445802927017212 0.65104800462722778
vt 0.97933197021484375 0.49532997608184814
vt 0.019489999860525131 0.58028700947761536
vt 0.35805100202560425 0.79082700610160828
vt 0.855925977230072 0.96848199889063835
vt 0.83492797613143921 0.96916699968278408
vt 0.615522027015686 0.97699300013482571
vt 0.58091402053833008 0.97814900055527687
vt 0.99205201864242554 0.87946099787950516
vt 0.98728597164154053 0.7359519898891449
vt 0.11936800181865692 0.81249099969863892
vt 0.02478799968957901 0.73317399621009827
vt 0.027823999524116516 0.82053999602794647
vt 0.13568100333213806 0.9944259999319911
vt 0.033011998981237412 0.96198000013828278
vt 0.074509002268314362 0.99669800000265241
vt 0.32847300171852112 0.98682800028473139
vt 0.37487000226974487 0.98513600043952465
vt 0.99503600597381592 0.96370000019669533
vt 0.88323599100112915 0.96753700077533722
vt 0.034324001520872116 0.99813399999402463
vn -0.041570000350475311 0.99817097187042236 0.043901998549699783
vn -0.024834999814629555 0.99821102619171143 0.05437999963760376
vn -0.036784999072551727 0.99813097715377808 0.048796001821756363
vn -0.036396000534296036 0.99933600425720215 -0.0017509999452158809
vn -0.059978999197483063 0.99818801879882812 0.0049089998938143253
vn -0.0405769981443882 0.99913501739501953 -0.009083000011742115
vn -0.070385999977588654 0.99591398239135742 -0.056572999805212021
vn -0.051757998764514923 0.99469500780105591 -0.088899999856948853
vn -0.041296999901533127 0.9987180233001709 -0.029275000095367432
vn -0.0727979987859726 0.99151599407196045 -0.10769099742174149
vn -0.0727979987859726 0.99151599407196045 -0.10768699645996094
vn -0.034738000482320786 0.99894100427627563 -0.030155999585986137
vn -0.043379001319408417 0.99897700548172 0.012751000002026558
vn -0.021875999867916107 0.99959897994995117 0.017973000183701515
vn -0.030946999788284302 0.998341977596283 0.048530001193284988
vn -0.041287999600172043 0.99794197082519531 0.049054998904466629
vn -0.041287001222372055 0.99794197082519531 0.049054998904466629
vn -0.038058999925851822 0.99877500534057617 0.031638998538255692
vn -0.038247998803853989 0.99915599822998047 0.01498700026422739
vn -0.01485500019043684 0.999243974685669 -0.035923998802900314
vn 0.022801000624895096 0.99938201904296875 0.026735000312328339
vn -0.00227600010111928 0.99997997283935547 -0.0059389998205006123
vn -0.021080000326037407 0.99977701902389526 0.0012110000243410468
vn -0.018023999407887459 0.99946498870849609 0.027307000011205673
vn 0.015771999955177307 0.99987000226974487 -0.0032740000169724226
vn -0.0077539999037981033 0.99993497133255 0.0083830002695322037
vn 0.01245499961078167 0.99981701374053955 -0.014500999823212624
vn 0.0017960000550374389 0.99972701072692871 0.02327599935233593
vn 0.077385999262332916 0.99426501989364624 0.073810003697872162
vn 0.051848001778125763 0.99694997072219849 0.058336000889539719
vn 0.037064000964164734 0.99845600128173828 0.041370999068021774
vn 0.021668000146746635 0.99899101257324219 0.039344001561403275
vn 0.026839999482035637 0.99955201148986816 -0.013267000205814838
vn 0.039538998156785965 0.9991220235824585 0.01387299969792366
vn 0.038191001862287521 0.99922102689743042 -0.0099790003150701523
vn 0.0077109998092055321 0.99958401918411255 -0.027775999158620834
vn 0.0082149999216198921 0.99986600875854492 0.014182000420987606
vn 0.039494000375270844 0.99812102317810059 0.046851001679897308
vn 0.028401000425219536 0.99956101179122925 -0.00849200040102005
vn 0.040380999445915222 0.99869602918624878 -0.031248999759554863
vn 0.087146997451782227 0.99548399448394775 0.037647001445293427
vn 0.073564000427722931 0.9958379864692688 0.053810998797416687
vn 0.022585000842809677 0.99958902597427368 0.017659999430179596
vn 0.024455999955534935 0.99969899654388428 -0.0021959999576210976
vn -0.016248000785708427 0.999858021736145 0.0045699998736381531
vn 0.0055909999646246433 0.99995797872543335 0.0072110001929104328
vn -0.038141999393701553 0.99922198057174683 -0.01001300010830164
vn -0.060816001147031784 0.99775302410125732 -0.028116000816226006
vn -0.04970100149512291 0.99876397848129272 0.00027799999224953353
vn -0.050971001386642456 0.99870002269744873 -0.00086700002430006862
vn 0.0049870000220835209 0.99989098310470581 0.013900999911129475
vn 0.024703999981284142 0.99948799610137939 0.020356999710202217
vn 0.030129000544548035 0.99924701452255249 0.024447999894618988
vn 0.030129000544548035 0.99924701452255249 0.024447999894618988
vn -0.021825000643730164 0.999439001083374 0.025391999632120132
f 1/1/1 2/2/2 3/3/3
f 4/4/4 5/5/5 6/6/6
f 7/7/7 8/8/8 9/9/9
f 7/7/7 10/10/10 8/8/8
f 10/10/10 11/11/11 8/8/8
f 12/12/12 13/13/13 14/14/14
f 15/15/15 1/1/1 3/3/3
f 15/15/15 16/16/16 1/1/1
f 16/16/16 15/15/15 17/17/17
f 15/15/15 3/3/3 18/18/18
f 2/2/2 13/13/13 3/3/3
f 2/2/2 14/14/14 13/13/13
f 12/12/12 6/6/6 13/13/13
f 12/12/12 4/4/4 6/6/6
f 6/6/6 19/19/19 13/13/13
f 8/8/8 20/20/20 9/9/9
f 20/20/20 21/21/21 9/9/9
f 20/20/20 22/22/22 21/21/21
f 6/6/6 9/9/9 23/23/23
f 5/5/5 9/9/9 6/6/6
f 5/5/5 7/7/7 9/9/9
f 3/3/3 13/13/13 24/24/24
f 13/13/13 19/19/19 24/24/24
f 24/24/24 19/19/19 25/25/25
f 19/19/19 23/23/23 26/26/26
f 6/6/6 23/23/23 19/19/19
f 27/27/27 28/28/28 24/24/24
f 18/18/18 24/24/24 28/28/28
f 18/18/18 3/3/3 24/24/24
f 21/21/21 23/23/23 9/9/9
f 22/22/22 29/29/29 21/21/21
f 21/21/21 30/30/30 31/31/31
f 21/21/21 29/29/29 30/30/30
f 32/32/32 23/23/23 21/21/21
f 19/19/19 26/26/26 25/25/25
f 25/25/25 26/26/26 33/33/33
f 26/26/26 32/32/32 34/34/34
f 23/23/23 32/32/32 26/26/26
f 35/35/35 36/36/36 25/25/25
f 27/27/27 25/25/25 36/36/36
f 27/27/27 24/24/24 25/25/25
f 31/31/31 32/32/32 21/21/21
f 37/37/37 31/31/31 30/30/30
f 38/38/38 32/32/32 31/31/31
f 34/34/34 33/33/33 26/26/26
f 39/39/39 34/34/34 40/40/40
f 39/39/39 33/33/33 34/34/34
f 41/41/41 38/38/38 42/42/42
f 41/41/41 34/34/34 38/38/38
f 38/38/38 34/34/34 32/32/32
f 43/43/43 44/44/44 33/33/33
f 35/35/35 33/33/33 44/44/44
f 35/35/35 25/25/25 33/33/33
f 45/45/45 38/38/38 31/31/31
f 46/46/46 47/47/47 45/45/45
f 48/48/48 49/49/49 50/50/50
f 48/48/48 45/45/45 49/49/49
f 45/45/45 47/47/47 49/49/49
f 46/46/46 31/31/31 37/37/37
f 46/46/46 45/45/45 31/31/31
f 51/51/51 38/38/38 45/45/45
f 51/51/51 52/52/52 38/38/38
f 40/40/40 34/34/34 41/41/41
f 42/42/42 38/38/38 52/52/52
f 53/53/53 43/43/43 54/54/54
f 54/54/54 33/33/33 39/39/39
f 54/54/54 43/43/43 33/33/33
f 48/48/48 51/51/51 45/45/45
f 55/55/55 50/50/50 49/49/49
