mtllib m12010.mtl
usemtl material0
v 256 -6.0832548141479492 896
v 256 -6.1391448974609375 897.7803955078125
v 257.60189819335938 -6.1140232086181641 896
v 256 -6.8152790069580078 914.5057373046875
v 256 -6.8436150550842285 931.56097412109375
v 272.10800170898438 -7.2520751953125 913.65643310546875
v 256 -8.01525592803955 978.5069580078125
v 256 -9.1282024383544922 999.1199951171875
v 275.47512817382812 -7.64485502243042 977.4775390625
v 256 -9.9273033142089844 1010.5113525390625
v 270.78274536132812 -10.426020622253418 1024
v 277.14849853515625 -9.8868284225463867 1009.3944702148438
v 256 -10.149332046508789 1016.5230102539063
v 256 -10.4254789352417 1024
v 256 -7.8138508796691895 965.34094190597534
v 273.79287719726562 -7.1873331069946289 945.566162109375
v 256 -6.7960782051086426 946.50457763671875
v 271.17971801757812 -6.5111498832702637 896
v 256 -6.4502620697021484 905.4764404296875
v 305.69805908203125 -8.1851367950439453 943.88427734375
v 307.38134765625 -8.43953800201416 975.79498291015625
v 304.00537109375 -9.81625747680664 911.9794921875
v 287.99392700195312 -7.1172881126403809 896
v 285.43417358398438 -10.938117980957031 1024
v 335.167236328125 -8.591425895690918 896
v 335.9149169921875 -9.9340066909790039 910.29486083984375
v 318.38519299030304 -8.4466838836669922 896
v 303.16909790039062 -8.4041576385498047 896
v 348.77688598632812 -9.5754327774047852 896
v 367.8321533203125 -8.5266933441162109 908.6053466796875
v 367.16555786132812 -8.74971866607666 896
v 337.60565185546875 -8.7047348022460938 942.20086669921875
v 339.29220581054688 -8.3014326095581055 974.1094970703125
v 384 -9.2068252563476562 924.41583251953125
v 369.51898193359375 -8.0718221664428711 940.51385498046875
v 384 -9.4963626861572266 907.75439453125
v 384 -9.74093246459961 896
v 384 -9.62341594696045 901.64801025390625
v 384 -8.8146162033081055 939.75128173828125
v 371.19876098632812 -9.0220117568969727 972.4267578125
v 384 -9.779200553894043 953.55535888671875
v 309.05517578125 -10.578973770141602 1007.7116088867188
v 340.95697021484375 -12.246988296508789 1006.0317993164063
v 372.87088012695312 -11.4983549118042 1004.3444213867188
v 333.12594604492188 -12.826597213745117 1024
v 309.91006469726562 -11.543863296508789 1024
v 351.15603637695312 -12.690306663513184 1024
v 384 -12.101590156555176 1003.7584838867188
v 384 -12.438289642333984 1014.0215454101563
v 373.90484619140625 -12.201026916503906 1024
v 384 -12.765653610229492 1024
v 384 -11.694290161132813 991.9742431640625
v 384 -10.229463577270508 971.7542724609375
vt 0.99732297658920288 0.0014410018920898438
vt 0.98353898525238037 0.0014489889144897461
vt 0.99732297658920288 0.013837993144989014
vt 0.85401302576065063 0.001555025577545166
vt 0.72203999757766724 0.00151902437210083
vt 0.86054497957229614 0.12624698877334595
vt 0.35854700207710266 0.001694023609161377
vt 0.19881099462509155 0.0017200112342834473
vt 0.36663201451301575 0.15152502059936523
vt 0.11044900119304657 0.0019710063934326172
vt 0.0060129999183118343 0.11636900901794434
vt 0.11903499811887741 0.164156973361969
vt 0.063899002969264984 0.0019749999046325684
vt 0.0060029998421669006 0.0019810199737548828
vt 0.46043699979782104 0.0016109943389892578
vt 0.61362302303314209 0.13919097185134888
vt 0.60640597343444824 0.0014740228652954102
vt 0.997285008430481 0.11894798278808594
vt 0.92393898963928223 0.0014979839324951172
vt 0.62584900856018066 0.38623398542404175
vt 0.37887901067733765 0.39853101968765259
vt 0.87266802787780762 0.37390798330307007
vt 0.99720197916030884 0.24914097785949707
vt 0.0056349998340010643 0.22811299562454224
vt 0.99754202365875244 0.61459198594093323
vt 0.88541299104690552 0.62062901258468628
vt 0.99717199802398682 0.48472899198532104
vt 0.99677401781082153 0.36698698997497559
vt 0.99599099159240723 0.72023299336433411
vt 0.89755499362945557 0.86789199709892273
vt 0.99512702226638794 0.86306899785995483
vt 0.63831400871276855 0.63319599628448486
vt 0.39135399460792542 0.64563500881195068
vt 0.77528202533721924 0.99283399991691113
vt 0.65091800689697266 0.88021299988031387
vt 0.90422701835632324 0.99305299995467067
vt 0.99482601881027222 0.993559000082314
vt 0.95111197233200073 0.99340499984100461
vt 0.656578004360199 0.99242699984461069
vt 0.40383601188659668 0.89261800050735474
vt 0.54940998554229736 0.99250999977812171
vt 0.13132199645042419 0.41086500883102417
vt 0.14247299730777741 0.65875598788261414
vt 0.15612499415874481 0.90574099868536
vt 0.0036539998836815357 0.59682700037956238
vt 0.0050659999251365662 0.41756397485733032
vt 0.0024580000899732113 0.73634201288223267
vt 0.160288006067276 0.99200399965047836
vt 0.081175997853279114 0.9921059999614954
vt 0.0039459997788071632 0.9139849990606308
vt 0.0039209998212754726 0.99222300015389919
vt 0.25152799487113953 0.99222300015389919
vt 0.40854400396347046 0.99213800020515919
vn 0.019193999469280243 0.99932301044464111 0.031371001154184341
vn 0.026875000447034836 0.99890601634979248 0.038274999707937241
vn 0.026537999510765076 0.99892598390579224 0.037971999496221542
vn 0.028175000101327896 0.99939501285552979 0.020380999892950058
vn 0.023071000352501869 0.99973201751708984 -0.0020510000176727772
vn 0.048468999564647675 0.998540997505188 0.023819999769330025
vn -0.017140999436378479 0.99923098087310791 0.035262998193502426
vn -0.0023890000302344561 0.99780100584030151 0.066238000988960266
vn 0.007915000431239605 0.99921298027038574 0.038864001631736755
vn 0.00088200002210214734 0.99860000610351562 0.052894998341798782
vn 0.012916999869048595 0.99901300668716431 0.042509999126195908
vn 0.01664699986577034 0.99813997745513916 0.058644998818635941
vn 3.7000001611886546E-05 0.99931901693344116 0.036908000707626343
vn 3.7000001611886546E-05 0.99931901693344116 0.036908000707626343
vn -0.00817899964749813 0.99967098236083984 0.024312999099493027
vn 0.027821000665426254 0.99960601329803467 0.0036840001121163368
vn 0.023365000262856483 0.99937999248504639 0.026336999610066414
vn 0.032487999647855759 0.99866300821304321 0.040199000388383865
vn 0.029211999848484993 0.99875801801681519 0.040376000106334686
vn 0.019112000241875648 0.999521017074585 -0.024341000244021416
vn 0.011845000088214874 0.999235987663269 0.0372299998998642
vn 0.037946000695228577 0.99897098541259766 0.024833999574184418
vn 0.07134699821472168 0.99486500024795532 0.071786999702453613
vn 0.028116000816226006 0.99804097414016724 0.055888000875711441
vn 0.039101000875234604 0.995045006275177 0.09141000360250473
vn -0.0055320002138614655 0.99988698959350586 0.013962999917566776
vn 0.0070349997840821743 0.99576401710510254 0.091675996780395508
vn 0.044975001364946365 0.99531400203704834 0.08560200035572052
vn -0.013643000274896622 0.99982500076293945 0.012804999947547913
vn 0.0099200000986456871 0.9997599720954895 -0.019527999684214592
vn 0.0052290000021457672 0.99982500076293945 -0.017966000363230705
vn -0.0020669999066740274 0.99982297420501709 -0.01870499923825264
vn 0.021321000531315804 0.99854397773742676 0.049547001719474792
vn 0.056832998991012573 0.99819797277450562 -0.019254999235272408
vn 0.022700000554323196 0.99968397617340088 0.010815000161528587
vn 0.058853998780250549 0.99808400869369507 -0.019114000722765923
vn 0.058765999972820282 0.99805599451065063 -0.020765999332070351
vn 0.058765999972820282 0.99805599451065063 -0.020765999332070351
vn 0.052292998880147934 0.99842101335525513 0.020504999905824661
vn 0.04986799880862236 0.99743801355361938 0.05129300057888031
vn 0.0844390019774437 0.99575597047805786 0.036603998392820358
vn 0.033422000706195831 0.99710702896118164 0.068267002701759338
vn 0.020523000508546829 0.99693500995635986 0.075488999485969543
vn 0.022995999082922935 0.99846601486206055 0.050372999161481857
vn 0.03195599839091301 0.9984239935874939 0.046133998781442642
vn 0.040422998368740082 0.99755698442459106 0.056972000747919083
vn -0.016809999942779541 0.99927401542663574 0.034196000546216965
vn 0.055858999490737915 0.997871994972229 0.0336420014500618
vn 0.055812999606132507 0.99790400266647339 0.032738000154495239
vn 0.018481999635696411 0.99922502040863037 0.034749001264572144
vn 0.055812999606132507 0.99790400266647339 0.032738000154495239
vn 0.087725996971130371 0.99413901567459106 0.063178002834320068
vn 0.096276000142097473 0.99421799182891846 0.047563999891281128
f 1/1/1 2/2/2 3/3/3
f 4/4/4 5/5/5 6/6/6
f 7/7/7 8/8/8 9/9/9
f 10/10/10 11/11/11 12/12/12
f 10/10/10 13/13/13 11/11/11
f 13/13/13 14/14/14 11/11/11
f 15/15/15 16/16/16 17/17/17
f 18/18/18 4/4/4 6/6/6
f 18/18/18 19/19/19 4/4/4
f 19/19/19 3/3/3 2/2/2
f 19/19/19 18/18/18 3/3/3
f 6/6/6 17/17/17 16/16/16
f 6/6/6 5/5/5 17/17/17
f 7/7/7 16/16/16 15/15/15
f 7/7/7 9/9/9 16/16/16
f 10/10/10 9/9/9 8/8/8
f 10/10/10 12/12/12 9/9/9
f 9/9/9 20/20/20 16/16/16
f 12/12/12 21/21/21 9/9/9
f 6/6/6 16/16/16 22/22/22
f 18/18/18 6/6/6 23/23/23
f 11/11/11 24/24/24 12/12/12
f 25/25/25 22/22/22 26/26/26
f 25/25/25 27/27/27 22/22/22
f 28/28/28 22/22/22 27/27/27
f 29/29/29 30/30/30 31/31/31
f 29/29/29 26/26/26 30/30/30
f 25/25/25 26/26/26 29/29/29
f 26/26/26 22/22/22 32/32/32
f 32/32/32 20/20/20 33/33/33
f 22/22/22 20/20/20 32/32/32
f 34/34/34 30/30/30 35/35/35
f 34/34/34 36/36/36 30/30/30
f 37/37/37 31/31/31 38/38/38
f 38/38/38 30/30/30 36/36/36
f 38/38/38 31/31/31 30/30/30
f 34/34/34 35/35/35 39/39/39
f 35/35/35 30/30/30 32/32/32
f 30/30/30 26/26/26 32/32/32
f 35/35/35 32/32/32 40/40/40
f 16/16/16 20/20/20 22/22/22
f 39/39/39 35/35/35 41/41/41
f 23/23/23 22/22/22 28/28/28
f 23/23/23 6/6/6 22/22/22
f 12/12/12 42/42/42 21/21/21
f 21/21/21 42/42/42 33/33/33
f 40/40/40 33/33/33 43/43/43
f 32/32/32 33/33/33 40/40/40
f 40/40/40 43/43/43 44/44/44
f 43/43/43 33/33/33 42/42/42
f 33/33/33 20/20/20 21/21/21
f 45/45/45 42/42/42 46/46/46
f 45/45/45 43/43/43 42/42/42
f 45/45/45 47/47/47 43/43/43
f 48/48/48 44/44/44 49/49/49
f 49/49/49 50/50/50 51/51/51
f 49/49/49 44/44/44 50/50/50
f 50/50/50 43/43/43 47/47/47
f 50/50/50 44/44/44 43/43/43
f 52/52/52 40/40/40 44/44/44
f 52/52/52 53/53/53 40/40/40
f 12/12/12 46/46/46 42/42/42
f 12/12/12 24/24/24 46/46/46
f 48/48/48 52/52/52 44/44/44
f 53/53/53 35/35/35 40/40/40
f 53/53/53 41/41/41 35/35/35
f 9/9/9 21/21/21 20/20/20
