mtllib m12020.mtl
usemtl material0
v 0.59009933471679688 -5.8120107650756836 640
v 0 -5.8046951293945312 641.802001953125
v 1.6211509704589844 -5.8753437995910645 640
v 0 -5.7866668701171875 640.67913818359375
v 0 -5.7762618064880371 640.03106689453125
v 0 -5.7918210029602051 672.02996826171875
v 0 -5.7124319076538086 675.58453369140625
v 3.3566551208496094 -5.9365878105163574 671.8531494140625
v 0 -3.7268459796905518 743.15350341796875
v 6.7382431030273438 -3.3983330726623535 735.66485595703125
v 0 -3.4117379188537598 736.02069091796875
v 8.0380783081054688 -4.4724230766296387 768
v 8.4177093505859375 -4.4338159561157227 767.578125
v 0.4349365234375 -4.5434989929199219 768
v 0 -5.7761049270629883 640
v 5.0415077209472656 -5.8767619132995605 703.76293900609016
v 0 -5.5673279762268066 704.02819800004363
v 1.6753959655761719 -5.877683162689209 640
v 32.011131286621094 -7.9512119293212891 640
v 0 -5.4738011360168457 709.36731004714966
v 36.938213348388672 -8.6133384704589844 702.08673095703125
v 38.628261566162109 -7.4971909523010254 733.9930419921875
v 0 -4.5487160682678223 768
v 35.253280639648438 -8.6897659301757812 670.17706298828125
v 38.42962646484375 -5.7478861808776855 768
v 8.4398345947265625 -4.46284818649292 768
v 40.321720123291016 -5.6889729499816895 765.8970947265625
v 33.663238525390625 -8.09512710571289 640
v 62.405804038047791 -7.6720561981201172 640
v 68.852982044219971 -7.6779160499572754 700.39862108230591
v 70.537734985351562 -7.6369447708129883 732.30841064453125
v 67.164382934570312 -8.4989595413208 668.49139404296875
v 40.432590484619141 -5.7168478965759277 768
v 72.220413208007812 -8.0176544189453125 764.21954345703125
v 68.819564819335938 -7.8031702041625977 768
v 65.664589047431946 -7.6576929092407227 640
v 92.804718017578125 -5.2904648780822754 640
v 99.083564758300781 -6.6732292175292969 666.8004150390625
v 102.45025634765625 -7.1607999801635742 730.621826171875
v 99.213905334472656 -7.6932010650634766 768
v 104.13074493408203 -7.9833970069885254 762.534423828125
v 72.421089172363281 -7.80226993560791 768
v 100.76229095458984 -7.8526391983032227 698.71417188644409
v 97.677154541015625 -5.0283398628234863 640
v 123.20074462890625 -4.358029842376709 640
v 128 -5.4016242027282715 665.2696533203125
v 128 -5.5259881019592285 668.4454345703125
v 128 -6.2326431274414062 729.2698974609375
v 128 -6.4186968803405762 736.0079345703125
v 128 -6.3683061599731445 761.2691650390625
v 128 -5.674807071685791 767.65411376953125
v 104.42242431640625 -7.3683371543884277 768
v 128 -5.637239933013916 768
v 128 -7.12958288192749 702.22406005859375
v 128 -7.2306509017944336 697.27398681640625
v 128 -4.2318520545959473 641.47247314453125
v 128 -4.1594710350036621 640
vt 0.99785798788070679 0.0063030123710632324
vt 0.983843982219696 0.0017200112342834473
vt 0.99785798788070679 0.014334976673126221
vt 0.992576003074646 0.0017110109329223633
vt 0.9976159930229187 0.0017060041427612305
vt 0.74880200624465942 0.0017489790916442871
vt 0.72115600109100342 0.001726984977722168
vt 0.75018000602722168 0.027872979640960693
vt 0.19508099555969238 0.0010939836502075195
vt 0.25318101048469543 0.0526919960975647
vt 0.25059700012207031 0.0012390017509460449
vt 0.0016870000399649143 0.064520001411437988
vt 0.0049990001134574413 0.067451000213623047
vt 0.0012679999927058816 0.0053989887237548828
vt 0.99785798788070679 0.0017060041427612305
vt 0.502062976360321 0.041018009185791016
vt 0.499985009431839 0.0017439723014831543
vt 0.99785697460174561 0.014755010604858398
vt 0.99790000915527344 0.25118601322174072
vt 0.45846301317214966 0.0017160177230834961
vt 0.5152289867401123 0.2899399995803833
vt 0.26696199178695679 0.30265498161315918
vt 0.0017810000572353602 0.0022709965705871582
vt 0.76334601640701294 0.27680599689483643
vt 0.0020729999523609877 0.30104100704193115
vt 0.0017119999974966049 0.067637026309967041
vt 0.018482999876141548 0.31569498777389526
vt 0.99790102243423462 0.2640799880027771
vt 0.99843502044677734 0.48759001493453979
vt 0.52830898761749268 0.53820699453353882
vt 0.27984300255775452 0.55078598856925964
vt 0.77648299932479858 0.52493798732757568
vt 0.0021329999435693026 0.31661701202392578
vt 0.031787998974323273 0.56437399983406067
vt 0.0023670000955462456 0.53793999552726746
vt 0.99810397624969482 0.51299101114273071
vt 0.99896198511123657 0.724822998046875
vt 0.78942400217056274 0.77354699373245239
vt 0.29263401031494141 0.79897099733352661
vt 0.002340999897569418 0.774274006485939
vt 0.044906999915838242 0.8124970048666
vt 0.0023610000498592854 0.56594398617744446
vt 0.54109102487564087 0.78634299337863922
vt 0.99822497367858887 0.76295100152492523
vt 0.99822497367858887 0.96148199960589409
vt 0.80146098136901855 0.99860100005753338
vt 0.77674901485443115 0.99857399996835738
vt 0.3025670051574707 0.99779799999669194
vt 0.25118699669837952 0.99847300001420081
vt 0.054763998836278915 0.998520000022836
vt 0.0037440001033246517 0.99866799998562783
vt 0.002145000034943223 0.81485199928283691
vt 0.0010379999876022339 0.9986730000237003
vt 0.51298201084136963 0.9981510000070557
vt 0.55219697952270508 0.998193999985233
vt 0.986723005771637 0.99887899996247143
vt 0.99818599224090576 0.99890600005164742
vn 0.061292998492717743 0.99799400568008423 0.015838999301195145
vn 0.047327999025583267 0.9988740086555481 0.0034159999340772629
vn 0.047933001071214676 0.99884301424026489 0.0039610001258552074
vn 0.061301998794078827 0.99799102544784546 0.016023000702261925
vn 0.061027999967336655 0.99807900190353394 0.010712999850511551
vn 0.042468000203371048 0.99902898073196411 -0.011737000197172165
vn 0.056545000523328781 0.99835801124572754 -0.0091080004349350929
vn 0.064429998397827148 0.99791598320007324 -0.0034670000895857811
vn -0.00911100022494793 0.99932301044464111 0.03564000129699707
vn 0.055059999227523804 0.998308002948761 -0.0186769999563694
vn -0.0027550000231713057 0.99989098310470581 -0.014495000243186951
vn -0.013174000196158886 0.99675899744033813 0.0793600007891655
vn 0.024304000660777092 0.99890899658203125 0.039864998310804367
vn -0.011939999647438526 0.99935400485992432 0.033897001296281815
vn 0.060733001679182053 0.99814099073410034 0.0050400001928210258
vn 0.063712000846862793 0.99734699726104736 -0.035204000771045685
vn 0.060655001550912857 0.99809300899505615 -0.011497000232338905
vn 0.055213000625371933 0.99847400188446045 -0.0010679999832063913
vn 0.08182699978351593 0.9965900182723999 0.010577999986708164
vn 0.009430999867618084 0.99795198440551758 -0.063270002603530884
vn 0.034795001149177551 0.9989820122718811 -0.028703000396490097
vn 0.049070000648498535 0.99824798107147217 -0.0330669991672039
vn -0.011985000222921372 0.99938201904296875 0.033057000488042831
vn 0.039163000881671906 0.99920201301574707 0.0078710000962018967
vn 0.027194000780582428 0.99825400114059448 0.052432999014854431
vn 0.010596999898552895 0.9976230263710022 0.068095996975898743
vn 0.040146999061107636 0.99915897846221924 -0.0082999998703598976
vn 0.037795998156070709 0.99912899732589722 0.017696000635623932
vn -0.0071560000069439411 0.99960201978683472 0.027272999286651611
vn -0.01601099967956543 0.99983102083206177 -0.00902900006622076
vn 0.0055300001986324787 0.999966025352478 -0.00609100004658103
vn -0.037836000323295593 0.99922597408294678 0.010759999975562096
vn 0.030427999794483185 0.999468982219696 0.011644000187516213
vn 0.02470099925994873 0.99960601329803467 -0.013307999819517136
vn 0.05371600016951561 0.99852198362350464 -0.008329000324010849
vn -0.044321000576019287 0.998511016368866 0.031815998256206512
vn -0.062456998974084854 0.9964749813079834 0.056007999926805496
vn -0.038695000112056732 0.99838900566101074 0.041499000042676926
vn -0.022213000804185867 0.99975299835205078 -0.00019700000120792538
vn -0.019584000110626221 0.997314989566803 -0.070570997893810272
vn -0.039218999445438385 0.99851000308990479 -0.037939000874757767
vn -0.0022209999151527882 0.99838501214981079 -0.056763000786304474
vn -0.013144999742507935 0.99982202053070068 0.013504000380635262
vn -0.040344998240470886 0.99717801809310913 0.063318997621536255
vn -0.037266999483108521 0.99791598320007324 0.052671000361442566
vn -0.041551999747753143 0.99815601110458374 0.044248998165130615
vn -0.03667600080370903 0.99836999177932739 0.043738000094890594
vn -0.036502998322248459 0.99932599067687988 -0.0037889999803155661
vn -0.042493999004364014 0.99888300895690918 0.020682999864220619
vn -0.070225000381469727 0.99610799551010132 -0.053272999823093414
vn -0.0727979987859726 0.99151599407196045 -0.1076899990439415
vn -0.067552000284194946 0.99185198545455933 -0.10801199823617935
vn -0.0727979987859726 0.99151599407196045 -0.10768699645996094
vn -0.027202000841498375 0.99935698509216309 -0.023375000804662704
vn -0.021733000874519348 0.9995499849319458 0.020664999261498451
vn -0.041287999600172043 0.99794197082519531 0.049054998904466629
vn -0.041287999600172043 0.99794197082519531 0.049054998904466629
f 1/1/1 2/2/2 3/3/3
f 1/1/1 4/4/4 2/2/2
f 4/4/4 1/1/1 5/5/5
f 6/6/6 7/7/7 8/8/8
f 9/9/9 10/10/10 11/11/11
f 12/12/12 13/13/13 14/14/14
f 5/5/5 1/1/1 15/15/15
f 7/7/7 16/16/16 8/8/8
f 7/7/7 17/17/17 16/16/16
f 18/18/18 8/8/8 19/19/19
f 11/11/11 16/16/16 20/20/20
f 11/11/11 10/10/10 16/16/16
f 10/10/10 21/21/21 16/16/16
f 13/13/13 22/22/22 10/10/10
f 23/23/23 10/10/10 9/9/9
f 23/23/23 14/14/14 10/10/10
f 14/14/14 13/13/13 10/10/10
f 8/8/8 16/16/16 24/24/24
f 20/20/20 16/16/16 17/17/17
f 3/3/3 8/8/8 18/18/18
f 3/3/3 6/6/6 8/8/8
f 3/3/3 2/2/2 6/6/6
f 25/25/25 13/13/13 26/26/26
f 25/25/25 27/27/27 13/13/13
f 26/26/26 13/13/13 12/12/12
f 28/28/28 8/8/8 24/24/24
f 28/28/28 19/19/19 8/8/8
f 29/29/29 28/28/28 24/24/24
f 21/21/21 10/10/10 22/22/22
f 30/30/30 21/21/21 22/22/22
f 31/31/31 22/22/22 27/27/27
f 22/22/22 13/13/13 27/27/27
f 21/21/21 32/32/32 24/24/24
f 24/24/24 16/16/16 21/21/21
f 33/33/33 34/34/34 27/27/27
f 33/33/33 35/35/35 34/34/34
f 33/33/33 27/27/27 25/25/25
f 29/29/29 32/32/32 36/36/36
f 29/29/29 24/24/24 32/32/32
f 36/36/36 32/32/32 37/37/37
f 30/30/30 38/38/38 32/32/32
f 21/21/21 30/30/30 32/32/32
f 27/27/27 34/34/34 31/31/31
f 34/34/34 39/39/39 31/31/31
f 34/34/34 40/40/40 41/41/41
f 34/34/34 42/42/42 40/40/40
f 35/35/35 42/42/42 34/34/34
f 30/30/30 31/31/31 43/43/43
f 22/22/22 31/31/31 30/30/30
f 38/38/38 37/37/37 32/32/32
f 38/38/38 44/44/44 37/37/37
f 44/44/44 38/38/38 45/45/45
f 46/46/46 43/43/43 47/47/47
f 46/46/46 38/38/38 43/43/43
f 43/43/43 38/38/38 30/30/30
f 41/41/41 39/39/39 34/34/34
f 48/48/48 41/41/41 49/49/49
f 48/48/48 39/39/39 41/41/41
f 50/50/50 41/41/41 51/51/51
f 51/51/51 52/52/52 53/53/53
f 51/51/51 41/41/41 52/52/52
f 52/52/52 41/41/41 40/40/40
f 54/54/54 43/43/43 39/39/39
f 54/54/54 55/55/55 43/43/43
f 39/39/39 43/43/43 31/31/31
f 56/56/56 38/38/38 46/46/46
f 56/56/56 45/45/45 38/38/38
f 56/56/56 57/57/57 45/45/45
f 47/47/47 43/43/43 55/55/55
f 54/54/54 39/39/39 48/48/48
f 49/49/49 41/41/41 50/50/50
