mtllib m12000.mtl
usemtl material0
v 0 -7.7481470108032227 897.106201171875
v 0.52625274658203125 -7.7174639701843262 896
v 0 -7.726747989654541 896.02783203125
v 14.445980072021484 -7.4865031242370605 896
v 0 -8.0447912216186523 912.0550537109375
v 0 -7.7320389747619629 979.6202392578125
v 18.512500762939453 -6.9851350784301758 959.04583698511124
v 0 -7.0245118141174316 960.02349900081754
v 0 -8.2427167892456055 1013.008544921875
v 20.194812774658203 -7.4411931037902832 990.9571533203125
v 0 -7.92443323135376 992.02496337890625
v 0 -8.2486734390258789 1013.4012451171875
v 0 -8.2006340026855469 928.028076171875
v 0 -7.3505501747131348 945.8388671875
v 16.824310302734375 -7.72418212890625 927.13824462890625
v 0.48551177978515625 -8.5619182586669922 1024
v 21.382144927978516 -8.451420783996582 1024
v 21.874736785888672 -8.3828954696655273 1022.8699951171875
v 0 -7.725189208984375 896
v 15.181808471679688 -7.4660439491271973 896
v 44.838455200195312 -8.27988052368164 896
v 0 -8.0447912216186523 912.0550537109375
v 50.42041015625 -7.4419660568237305 957.36224389076233
v 52.105255126953125 -7.3828959465026855 989.27191162109375
v 0 -8.565216064453125 1024
v 48.729141235351562 -8.8055133819580078 925.45660400390625
v 22.516151428222656 -8.4088649749755859 1024
v 75.229141235351562 -9.9270963668823242 896
v 47.176361083984375 -8.36075496673584 896
v 82.329971313476562 -7.56316614151001 955.67755079269409
v 53.939571380615234 -7.1884770393371582 1024
v 53.791366577148438 -7.067296028137207 1021.1808471679688
v 83.740562438964844 -6.63364315032959 1024
v 85.704826354980469 -6.3989591598510742 1019.4937133789063
v 84.018486022949219 -6.7614331245422363 987.5849609375
v 80.634269714355469 -9.8226938247680664 923.77484130859375
v 79.1668472290039 -10.050588607788086 896
v 105.62629699707031 -8.4645328521728516 896
v 112.55983734130859 -6.7035279273986816 922.07989501953125
v 115.92156219482422 -8.1954116821289062 985.9044189453125
v 114.24055480957031 -7.4786162376403809 953.99224901199341
v 111.17688751220703 -7.9101600646972656 896
v 128 -6.2139320373535156 896
v 128 -5.84890079498291 904.92059326171875
v 128 -6.32944917678833 921.26348876953125
v 128 -6.7739748954772949 938.70068359375
v 117.61183929443359 -7.0380291938781738 1017.8106689453125
v 128 -7.9896249771118164 985.2659912109375
v 128 -7.248960018157959 1006.2640380859375
v 128 -7.6434998512268066 1024
v 117.93691253662109 -7.3631558418273926 1024
v 128 -7.4427361488342285 1020.0686645507813
v 128 -7.2994551658630371 1017.2628784179688
v 88.261482238769531 -6.6884250640869141 1024
v 128 -7.8156599998474121 972.48046875
v 128 -7.3778657913208008 953.265380859375
vt 0.95446902513504028 0.0024759769439697266
vt 0.96291899681091309 0.0061470270156860352
vt 0.96257299184799194 0.0021989941596984863
vt 0.96652102470397949 0.11075097322463989
vt 0.84212297201156616 0.0063080191612243652
vt 0.33418399095535278 0.024278998374938965
vt 0.49380999803543091 0.15788298845291138
vt 0.48152101039886475 0.019048988819122314
vt 0.083292998373508453 0.0332450270652771
vt 0.25445199012756348 0.17886298894882202
vt 0.24097099900245667 0.027608990669250488
vt 0.080342002213001251 0.033352971076965332
vt 0.72209799289703369 0.010429024696350098
vt 0.588126003742218 0.015254020690917969
vt 0.73316097259521484 0.13666200637817383
vt 0.00090599997201934457 0.039372026920318604
vt 0.0063649998046457767 0.19638597965240479
vt 0.014999000355601311 0.1997939944267273
vt 0.96278297901153564 0.0021920204162597656
vt 0.966713011264801 0.11628198623657227
vt 0.97432500123977661 0.33920198678970337
vt 0.84212297201156616 0.0063080191612243652
vt 0.51474899053573608 0.39721900224685669
vt 0.27542600035667419 0.41819101572036743
vt 0.000674000009894371 0.036240994930267334
vt 0.75397199392318726 0.37609899044036865
vt 0.006668000016361475 0.20490002632141113
vt 0.98206198215484619 0.56789600849151611
vt 0.97492498159408569 0.35677999258041382
vt 0.53531497716903687 0.63657799363136292
vt 0.014948000200092793 0.44118297100067139
vt 0.036113999783992767 0.43936198949813843
vt 0.022595999762415886 0.66514301300048828
vt 0.057038001716136932 0.67877200245857239
vt 0.29614201188087463 0.65760999917984009
vt 0.77472501993179321 0.61552798748016357
vt 0.98306399583816528 0.59749901294708252
vt 0.98966801166534424 0.79667599499225616
vt 0.79467099905014038 0.85620400309562683
vt 0.31646201014518738 0.89717999845743179
vt 0.55515897274017334 0.87600500136613846
vt 0.9904559850692749 0.8387569934129715
vt 0.99447101354599 0.96581599861383438
vt 0.92721301317214966 0.96842100098729134
vt 0.80434399843215942 0.97208099998533726
vt 0.67326200008392334 0.97599699907004833
vt 0.077592998743057251 0.91815800219774246
vt 0.32454600930213928 0.9877690002322197
vt 0.16702300310134888 0.99326300015673041
vt 0.033521998673677444 0.99780800007283688
vt 0.031098000705242157 0.92215999960899353
vt 0.063101001083850861 0.996820000000298
vt 0.084377996623516083 0.99609800009056926
vt 0.023722000420093536 0.69911700487136841
vt 0.420617014169693 0.98431199975311756
vt 0.56371498107910156 0.97924499958753586
vn -0.016587000340223312 0.99966597557067871 0.019836999475955963
vn -0.016553999856114388 0.99965399503707886 0.020445000380277634
vn -0.015656000003218651 0.99918299913406372 0.037259001284837723
vn -0.024802999570965767 0.99961501359939575 0.012442000210285187
vn -0.016587000340223312 0.99966597557067871 0.019836999475955963
vn -0.017766999080777168 0.99963599443435669 0.020302999764680862
vn 0.00558000011369586 0.99997502565383911 -0.0044490001164376736
vn -0.001728000002913177 0.999970018863678 0.0075460001826286316
vn -0.023118000477552414 0.99961799383163452 0.015162000432610512
vn -0.0079429997131228447 0.99980002641677856 0.018350999802350998
vn -0.02310900017619133 0.99961501359939575 0.015327000059187412
vn -0.010596999898552895 0.99959498643875122 0.026427999138832092
vn -0.0293550007045269 0.9993709921836853 -0.019912999123334885
vn -0.0097460001707077026 0.99953901767730713 -0.028737999498844147
vn 0.0046729999594390392 0.99993801116943359 -0.010104999877512455
vn -0.0067639998160302639 0.999517023563385 0.030330000445246696
vn -0.0171549990773201 0.99844300746917725 0.053068999201059341
vn -0.020230000838637352 0.99918597936630249 0.034914001822471619
vn -0.014654999598860741 0.99832898378372192 0.055895999073982239
vn -0.0011060000397264957 0.99996501207351685 0.00834800023585558
vn 0.03266499936580658 0.99940001964569092 0.011552000418305397
vn -0.02779100090265274 0.99956601858139038 0.0097519997507333755
vn 0.0092599997296929359 0.99966299533843994 -0.024255000054836273
vn -0.01283199992030859 0.99991297721862793 -0.0031769999768584967
vn -0.0067889997735619545 0.99953097105026245 0.029851999133825302
vn 0.032492998987436295 0.999343991279602 -0.015988999977707863
vn -0.038329999893903732 0.99826502799987793 0.044698998332023621
vn 0.037856001406908035 0.99927502870559692 -0.0039920001290738583
vn 0.04479999840259552 0.99891501665115356 0.012721000239253044
vn -0.01591699942946434 0.999351978302002 -0.032285001128911972
vn -0.028355000540614128 0.9986109733581543 0.044415999203920364
vn -0.029921000823378563 0.99939197301864624 0.017915999516844749
vn -0.0072619998827576637 0.9987800121307373 0.048849999904632568
vn 0.0049250000156462193 0.99985498189926147 0.016307000070810318
vn 0.005940999835729599 0.999904990196228 -0.012423000298440456
vn -0.033481001853942871 0.99868500232696533 -0.038828000426292419
vn -0.012725000269711018 0.99989098310470581 -0.0075320000760257244
vn -0.088802002370357513 0.99555999040603638 -0.031222999095916748
vn -0.058736000210046768 0.99822002649307251 -0.010336999781429768
vn 0.011745000258088112 0.99991500377655029 -0.0056239999830722809
vn -0.00011500000255182385 0.99980902671813965 0.01953900046646595
vn -0.09974999725818634 0.99417901039123535 -0.040708001703023911
vn -0.10023599863052368 0.99413198232650757 -0.040679998695850372
vn -0.082207001745700836 0.996317982673645 -0.024349000304937363
vn -0.02275799959897995 0.9993630051612854 0.027496999129652977
vn -0.018733000382781029 0.99939799308776855 0.029196999967098236
vn 0.017968999221920967 0.99976098537445068 0.012431999668478966
vn -0.017563000321388245 0.99979597330093384 -0.01000600028783083
vn -0.0085589997470378876 0.99962598085403442 -0.025961000472307205
vn 0.02781200036406517 0.99831199645996094 0.050981000065803528
vn 0.025343999266624451 0.99837100505828857 0.051114000380039215
vn 0.027811000123620033 0.99831199645996094 0.050981000065803528
vn 0.026573000475764275 0.99928098917007446 0.027025999501347542
vn 0.019142000004649162 0.99839597940444946 0.053272999823093414
vn -0.0084950001910328865 0.99975097179412842 0.020639000460505486
vn -0.0056059998460114 0.99945902824401855 0.032418001443147659
f 1/1/1 2/2/2 3/3/3
f 1/1/1 4/4/4 2/2/2
f 1/1/1 5/5/5 4/4/4
f 6/6/6 7/7/7 8/8/8
f 9/9/9 10/10/10 11/11/11
f 9/9/9 12/12/12 10/10/10
f 13/13/13 14/14/14 15/15/15
f 16/16/16 17/17/17 18/18/18
f 3/3/3 2/2/2 19/19/19
f 20/20/20 15/15/15 21/21/21
f 13/13/13 4/4/4 22/22/22
f 13/13/13 15/15/15 4/4/4
f 15/15/15 20/20/20 4/4/4
f 11/11/11 7/7/7 6/6/6
f 11/11/11 10/10/10 7/7/7
f 10/10/10 23/23/23 7/7/7
f 18/18/18 24/24/24 10/10/10
f 25/25/25 10/10/10 12/12/12
f 25/25/25 16/16/16 10/10/10
f 16/16/16 18/18/18 10/10/10
f 15/15/15 7/7/7 26/26/26
f 8/8/8 15/15/15 14/14/14
f 8/8/8 7/7/7 15/15/15
f 27/27/27 18/18/18 17/17/17
f 28/28/28 29/29/29 26/26/26
f 29/29/29 15/15/15 26/26/26
f 29/29/29 21/21/21 15/15/15
f 23/23/23 10/10/10 24/24/24
f 30/30/30 23/23/23 24/24/24
f 31/31/31 18/18/18 27/27/27
f 31/31/31 32/32/32 18/18/18
f 33/33/33 32/32/32 31/31/31
f 33/33/33 34/34/34 32/32/32
f 32/32/32 35/35/35 24/24/24
f 24/24/24 18/18/18 32/32/32
f 23/23/23 36/36/36 26/26/26
f 26/26/26 7/7/7 23/23/23
f 28/28/28 36/36/36 37/37/37
f 28/28/28 26/26/26 36/36/36
f 37/37/37 36/36/36 38/38/38
f 30/30/30 39/39/39 36/36/36
f 23/23/23 30/30/30 36/36/36
f 35/35/35 34/34/34 40/40/40
f 41/41/41 30/30/30 35/35/35
f 32/32/32 34/34/34 35/35/35
f 24/24/24 35/35/35 30/30/30
f 39/39/39 38/38/38 36/36/36
f 39/39/39 42/42/42 38/38/38
f 43/43/43 39/39/39 44/44/44
f 43/43/43 42/42/42 39/39/39
f 45/45/45 41/41/41 46/46/46
f 45/45/45 39/39/39 41/41/41
f 41/41/41 39/39/39 30/30/30
f 47/47/47 40/40/40 34/34/34
f 48/48/48 47/47/47 49/49/49
f 48/48/48 40/40/40 47/47/47
f 50/50/50 47/47/47 51/51/51
f 50/50/50 52/52/52 47/47/47
f 52/52/52 53/53/53 47/47/47
f 54/54/54 47/47/47 34/34/34
f 54/54/54 51/51/51 47/47/47
f 55/55/55 41/41/41 40/40/40
f 55/55/55 56/56/56 41/41/41
f 40/40/40 41/41/41 35/35/35
f 44/44/44 39/39/39 45/45/45
f 55/55/55 40/40/40 48/48/48
f 49/49/49 47/47/47 53/53/53
f 46/46/46 41/41/41 56/56/56
f 54/54/54 34/34/34 33/33/33
