mtllib m12023.mtl
usemtl material0
v 128 -3.809406042098999 633.2659912109375
v 128 -3.8973119258880615 634.66680908203125
v 129.32356262207031 -3.770251989364624 633.19598388671875
v 128 -1.7599819898605347 512
v 128 -2.3725059032440186 528.9163818359375
v 135.37321472167969 -1.6372469663619995 512
v 128 -2.88930606842041 567.10443115234375
v 156.1895751953125 -1.8621820211410523 535.7747802734375
v 128 -2.6410460472106934 537.26568603515625
v 128 -4.1594710350036621 640
v 129.68112182617188 -4.08991813659668 640
v 128 -3.3355579376220703 608.0819091796875
v 159.54779052734375 -4.05971622467041 599.60186767578125
v 128 -3.2273509502410889 601.26531982421875
v 161.23733520507813 -3.0530149936676025 631.50860595703125
v 153.59642028808594 -3.6131720542907715 640
v 128 -2.9353010654449463 569.2655029296875
v 128 -3.2096259593963623 600.88604736328125
v 157.87088012695313 -2.5198879241943359 567.6868896484375
v 154.93655395507813 -1.4611639976501465 512
v 166.5474853515625 -2.1373660564422607 512
v 142.69343566894531 -1.4474450349807739 512
v 189.77461194992065 -3.8253769874572754 566.00610446929932
v 191.44560199975967 -6.5565910339355469 597.92498779296875
v 183.98896789550781 -4.401191234588623 640
v 161.68458557128906 -3.2515170574188232 640
v 193.13955700397492 -4.6626977920532227 629.8287353515625
v 188.09005689620972 -3.825861930847168 534.09613037109375
v 175.5518798828125 -2.6990358829498291 512
v 186.92718505859375 -3.127953052520752 512
v 197.717041015625 -3.9687249660491943 512
v 221.67697143554688 -5.406552791595459 564.32623291015625
v 223.36674499511719 -4.3560948371887207 596.23272705078125
v 214.38240051269531 -4.7535500526428223 640
v 193.67793297767639 -4.3842182159423828 640
v 225.04669189453125 -5.27953577041626 628.14569091796875
v 219.99903869628906 -4.07503080368042 532.411865234375
v 128 -2.48175311088562 532.31304931640625
v 208.40962219238281 -4.0504508018493652 512
v 218.91978454589844 -4.40381383895874 512
v 228.89422607421875 -3.6429541110992432 512
v 253.59770202636719 -3.2952249050140381 562.63427734375
v 255.28053283691406 -3.6417140960693359 594.54534912109375
v 244.77542114257813 -5.3040199279785156 640
v 225.67254638671875 -5.2688078880310059 640
v 256 -5.3382301330566406 626.5113525390625
v 256 -5.33721399307251 627.52410888671875
v 251.92399597167969 -1.1224089860916138 530.7171630859375
v 241.28732299804688 -2.4838728904724121 512
v 256 -0.97592198848724365 512
v 256 -0.79303497076034546 521.36492919921875
v 250.93336486816406 -1.6123720407485962 512
v 256 -3.1942529678344727 562.507080078125
v 256 -3.6015450954437256 593.74578857421875
v 256 -4.3707389831542969 608.24542236328125
v 256 -3.6093499660491943 594.50726318359375
v 256 -5.6424570083618164 640
v 256 -1.0617619752883911 530.501708984375
v 256 -3.0848860740661621 559.96466064453125
vt 0.051137998700141907 0.036638975143432617
vt 0.040610000491142273 0.036984026432037354
vt 0.052005000412464142 0.04655301570892334
vt 0.95855700969696045 0.0013899803161621094
vt 0.83161401748657227 0.0063779950141906738
vt 0.96076297760009766 0.056689977645874023
vt 0.54744702577590942 0.019663989543914795
vt 0.78865897655487061 0.219868004322052
vt 0.76896899938583374 0.0088449716567993164
vt 0.00055799999972805381 0.038312017917633057
vt 0.0010019999463111162 0.050931990146636963
vt 0.24007000029087067 0.030232012271881104
vt 0.31161001324653625 0.26479697227478027
vt 0.29120498895645142 0.028497993946075439
vt 0.072855003178119659 0.28555399179458618
vt 0.0071299998089671135 0.23034799098968506
vt 0.5312340259552002 0.020219981670379639
vt 0.29405298829078674 0.028398990631103516
vt 0.55082798004150391 0.24387902021408081
vt 0.96652400493621826 0.20258498191833496
vt 0.97030502557754517 0.28979098796844482
vt 0.96297198534011841 0.11160200834274292
vt 0.57283002138137817 0.4811360239982605
vt 0.33319100737571716 0.50428301095962524
vt 0.014760999940335751 0.45859998464584351
vt 0.0092599997296929359 0.2910730242729187
vt 0.093864001333713531 0.5246950089931488
vt 0.8116220235824585 0.458965003490448
vt 0.97323399782180786 0.35743701457977295
vt 0.97692602872848511 0.44307398796081543
vt 0.9802359938621521 0.52423000335693359
vt 0.59497702121734619 0.72016501426696777
vt 0.3526340126991272 0.74396800994873047
vt 0.022199999541044235 0.68627899885177612
vt 0.017403999343514442 0.53126800060272217
vt 0.11350999772548676 0.76373100280761719
vt 0.833965003490448 0.69754600524902344
vt 0.806128978729248 0.0073819756507873535
vt 0.9834970235824585 0.60441499948501587
vt 0.986624002456665 0.682222992181778
vt 0.99008697271347046 0.75721900165081024
vt 0.614404022693634 0.95983799919486046
vt 0.37260401248931885 0.98304400034248829
vt 0.028970999643206596 0.91436699777841568
vt 0.02472200058400631 0.77106200158596039
vt 0.13262699544429779 0.99557300005108118
vt 0.12504599988460541 0.9958100002259016
vt 0.85770797729492188 0.93732900172472
vt 0.99437099695205688 0.8505370020866394
vt 0.999442994594574 0.96143300086259842
vt 0.92501097917556763 0.97414599917829037
vt 0.99770897626876831 0.9231489971280098
vt 0.61308497190475464 0.97811800055205822
vt 0.37877500057220459 0.98825700022280216
vt 0.26984399557113647 0.9914979999884963
vt 0.37306201457977295 0.98843699973076582
vt 0.031428001821041107 0.9986100000096485
vt 0.856669008731842 0.96819199994206429
vt 0.63203102350234985 0.98052999936044216
vn -0.027351999655365944 0.99876499176025391 0.041469000279903412
vn -0.037776999175548553 0.99792098999023438 0.052211999893188477
vn -0.02016800083220005 0.99937999248504639 0.028860999271273613
vn -0.01663300022482872 0.9992070198059082 0.036180999130010605
vn -0.024693999439477921 0.9991610050201416 0.032664000988006592
vn -0.022484000772237778 0.99918097257614136 0.033629000186920166
vn -0.016137000173330307 0.99970299005508423 0.018254999071359634
vn 0.021381000056862831 0.99959701299667358 0.018699999898672104
vn -0.026566000655293465 0.99945098161697388 0.019822999835014343
vn -0.041287999600172043 0.99794197082519531 0.049054998904466629
vn -0.030253000557422638 0.99836498498916626 0.04849499836564064
vn 0.026272999122738838 0.99952799081802368 0.015915999189019203
vn 0.042380999773740768 0.9989590048789978 0.016862999647855759
vn 0.027983000501990318 0.99913501739501953 0.030760999768972397
vn 0.0142000000923872 0.99988502264022827 -0.00534699996933341
vn -0.026506999507546425 0.99876499176025391 0.042034000158309937
vn -0.013124000281095505 0.99980497360229492 0.014763000421226025
vn 0.018955999985337257 0.99910497665405273 0.037813998758792877
vn 0.022439999505877495 0.99941998720169067 0.025603000074625015
vn 0.028674999251961708 0.99947100877761841 0.01534700021147728
vn 0.060729999095201492 0.9980430006980896 0.014906000345945358
vn -0.016834000125527382 0.99949401617050171 0.026992000639438629
vn 0.046725999563932419 0.99807798862457275 0.040706001222133636
vn 0.015960000455379486 0.99987202882766724 0.00085100001888349652
vn 0.037282999604940414 0.99927401542663574 0.0078499997034668922
vn 0.0050200000405311584 0.99971997737884521 0.023105999454855919
vn 0.016083000227808952 0.9995110034942627 -0.026819000020623207
vn 0.035677000880241394 0.99932998418807983 0.0081810001283884048
vn 0.054009001702070236 0.99833500385284424 0.0202649999409914
vn 0.05697999894618988 0.99796801805496216 0.028521999716758728
vn 0.033527001738548279 0.999405026435852 0.00814600009471178
vn -0.025069000199437141 0.99940198659896851 0.023799000307917595
vn -0.040318001061677933 0.99917197227478027 -0.0053799999877810478
vn 0.025234999135136604 0.99944698810577393 -0.021645000204443932
vn 0.00836700014770031 0.99957799911499023 -0.027811000123620033
vn 0.011582000181078911 0.99984699487686157 0.013123000040650368
vn -0.0332689993083477 0.9993939995765686 0.010215999558568
vn -0.025906000286340714 0.99914801120758057 0.032136000692844391
vn 0.016357000917196274 0.99983400106430054 -0.0080829998478293419
vn -0.019404999911785126 0.9996979832649231 -0.015076000243425369
vn -0.086813002824783325 0.99608397483825684 -0.016746999695897102
vn -0.043425001204013824 0.99851697683334351 0.032827999442815781
vn -0.028665000572800636 0.99913501739501953 0.030112000182271004
vn 0.0093930000439286232 0.99993902444839478 0.0057899998500943184
vn 0.022988000884652138 0.99973398447036743 -0.0021180000621825457
vn 0.0033140000887215137 0.9996340274810791 0.026858000084757805
vn 0.0084429997950792313 0.99995201826095581 0.0049359998665750027
vn -0.056430000811815262 0.99793899059295654 0.030540000647306442
vn -0.092051997780799866 0.99555099010467529 -0.020104000344872475
vn -0.12461300194263458 0.9920160174369812 -0.019372999668121338
vn -0.11013700067996979 0.99383097887039185 -0.013000000268220902
vn -0.10669299960136414 0.9940829873085022 -0.020375000312924385
vn -0.040470998734235764 0.998773992061615 0.028502000495791435
vn -0.042024999856948853 0.99904000759124756 0.012376000173389912
vn 0.0039079999551177025 0.99858999252319336 0.052933000028133392
vn -0.0432250015437603 0.99855297803878784 0.031993001699447632
vn 0.030129000544548035 0.99924701452255249 0.024447999894618988
vn -0.012307999655604363 0.998757004737854 0.048291999846696854
vn -0.017854999750852585 0.99788200855255127 0.062555998563766479
f 1/1/1 2/2/2 3/3/3
f 4/4/4 5/5/5 6/6/6
f 7/7/7 8/8/8 9/9/9
f 10/10/10 3/3/3 2/2/2
f 10/10/10 11/11/11 3/3/3
f 12/12/12 13/13/13 14/14/14
f 12/12/12 3/3/3 13/13/13
f 11/11/11 15/15/15 3/3/3
f 11/11/11 16/16/16 15/15/15
f 1/1/1 3/3/3 12/12/12
f 17/17/17 18/18/18 19/19/19
f 20/20/20 8/8/8 21/21/21
f 22/22/22 8/8/8 20/20/20
f 18/18/18 13/13/13 19/19/19
f 18/18/18 14/14/14 13/13/13
f 19/19/19 13/13/13 23/23/23
f 13/13/13 15/15/15 24/24/24
f 3/3/3 15/15/15 13/13/13
f 25/25/25 15/15/15 26/26/26
f 25/25/25 27/27/27 15/15/15
f 16/16/16 26/26/26 15/15/15
f 28/28/28 8/8/8 19/19/19
f 7/7/7 19/19/19 8/8/8
f 7/7/7 17/17/17 19/19/19
f 29/29/29 8/8/8 28/28/28
f 29/29/29 21/21/21 8/8/8
f 30/30/30 28/28/28 31/31/31
f 29/29/29 28/28/28 30/30/30
f 13/13/13 24/24/24 23/23/23
f 23/23/23 24/24/24 32/32/32
f 24/24/24 27/27/27 33/33/33
f 15/15/15 27/27/27 24/24/24
f 34/34/34 27/27/27 35/35/35
f 34/34/34 36/36/36 27/27/27
f 25/25/25 35/35/35 27/27/27
f 37/37/37 28/28/28 23/23/23
f 19/19/19 23/23/23 28/28/28
f 22/22/22 9/9/9 8/8/8
f 22/22/22 38/38/38 9/9/9
f 38/38/38 6/6/6 5/5/5
f 38/38/38 22/22/22 6/6/6
f 31/31/31 37/37/37 39/39/39
f 31/31/31 28/28/28 37/37/37
f 40/40/40 37/37/37 41/41/41
f 39/39/39 37/37/37 40/40/40
f 24/24/24 33/33/33 32/32/32
f 32/32/32 33/33/33 42/42/42
f 33/33/33 36/36/36 43/43/43
f 27/27/27 36/36/36 33/33/33
f 44/44/44 36/36/36 45/45/45
f 44/44/44 46/46/46 36/36/36
f 44/44/44 47/47/47 46/46/46
f 34/34/34 45/45/45 36/36/36
f 48/48/48 37/37/37 32/32/32
f 23/23/23 32/32/32 37/37/37
f 49/49/49 37/37/37 48/48/48
f 49/49/49 41/41/41 37/37/37
f 50/50/50 48/48/48 51/51/51
f 50/50/50 52/52/52 48/48/48
f 49/49/49 48/48/48 52/52/52
f 33/33/33 43/43/43 42/42/42
f 43/43/43 53/53/53 42/42/42
f 43/43/43 54/54/54 53/53/53
f 55/55/55 56/56/56 43/43/43
f 36/36/36 55/55/55 43/43/43
f 36/36/36 46/46/46 55/55/55
f 47/47/47 44/44/44 57/57/57
f 58/58/58 42/42/42 59/59/59
f 58/58/58 48/48/48 42/42/42
f 32/32/32 42/42/42 48/48/48
f 54/54/54 43/43/43 56/56/56
f 59/59/59 42/42/42 53/53/53
f 51/51/51 48/48/48 58/58/58
