mtllib m12100.mtl
usemtl material0
v 512 -12.395537376403809 917.2685546875
v 527.367919921875 -11.523275375366211 900.18963623046875
v 512 -11.376096725463867 901.000732421875
v 527.1475830078125 -11.368741035461426 896
v 512 -11.296534538269043 898.8077392578125
v 512 -11.194668769836426 896
v 559.1512451171875 -10.499476432800293 896
v 559.28289794921875 -10.57869815826416 898.50164794921875
v 531.137939453125 -11.279484748840332 896
v 561.53387546539307 -10.476698875427246 896
v 591.1925048828125 -10.691532135009766 896.81695556640625
v 591.1495361328125 -10.653575897216797 896
v 560.95599365234375 -12.834226608276367 930.41864013671875
v 529.0465087890625 -12.696304321289063 932.103271484375
v 562.62969970703125 -14.967012405395508 962.33526611328125
v 622.32122802734375 -10.886086463928223 896
v 592.87384033203125 -11.323554992675781 928.7288818359375
v 606.668212890625 -10.780264854431152 896
v 623.1474609375 -10.893091201782227 896
v 624.78277587890625 -11.558757781982422 927.0445556640625
v 594.53900146484375 -15.127208709716797 960.65075701475143
v 512 -12.986367225646973 933.0042724609375
v 640 -10.712162017822266 896
v 640 -11.023185729980469 910.13238525390625
v 640 -11.64405632019043 926.24127197265625
v 640 -11.440512657165527 940.73443603515625
v 626.4610595703125 -12.782868385314941 958.95831298828125
v 512 -13.17945671081543 947.16473388671875
v 530.72900390625 -13.104022979736328 964.01440382003784
v 512 -15.299177169799805 997.008544921875
v 520.169677734375 -16.071887969970703 1024
v 532.3988037109375 -16.004674911499023 995.93341064453125
v 512 -15.585811614990234 1013.0443115234375
v 512 -15.78164005279541 1024
v 512 -14.217320442199707 984.82843017578125
v 512 -13.297783851623535 965.00396680831909
v 564.30596923828125 -16.590831756591797 994.250244140625
v 596.22015380859375 -15.788641929626465 992.56268310546875
v 628.14263916015625 -13.371548652648926 990.87005615234375
v 548.3319091796875 -16.397819519042969 1024
v 565.87579345703125 -16.72332763671875 1024
v 582.52069091796875 -16.310018539428711 1024
v 629.89349365234375 -13.002769470214844 1024
v 614.0806884765625 -14.206038475036621 1024
v 640 -12.800045013427734 990.24224853515625
v 640 -12.593852043151856 1014.329833984375
v 640 -12.511074066162109 1024
v 640 -12.558272361755371 977.6929931640625
v 640 -12.152887344360352 958.24157702922821
vt 0.80361998081207275 0.0073999762535095215
vt 0.93609601259231567 0.1182829737663269
vt 0.92601799964904785 0.0030840039253234863
vt 0.96752101182937622 0.11552798748016357
vt 0.94249600172042847 0.002508997917175293
vt 0.96359401941299438 0.0017719864845275879
vt 0.97616302967071533 0.35593301057815552
vt 0.95740199089050293 0.35758101940155029
vt 0.96859300136566162 0.14549899101257324
vt 0.97679597139358521 0.37382501363754272
vt 0.97856199741363525 0.5967470109462738
vt 0.98469197750091553 0.59620401263237
vt 0.71779298782348633 0.37852400541305542
vt 0.69673401117324829 0.13934999704360962
vt 0.47803899645805359 0.399619996547699
vt 0.99378699064254761 0.83021500706672668
vt 0.74006199836730957 0.617920994758606
vt 0.98881798982620239 0.71274000406265259
vt 0.99400800466537476 0.83642099797725677
vt 0.76148802042007446 0.85706299543380737
vt 0.49908700585365295 0.63879400491714478
vt 0.68537402153015137 0.011572003364562988
vt 0.99879199266433716 0.96295399963855743
vt 0.89264601469039917 0.96676899865269661
vt 0.77186799049377441 0.97109200060367584
vt 0.66303598880767822 0.97522700019180775
vt 0.52214497327804565 0.87852799892425537
vt 0.57903200387954712 0.015363991260528565
vt 0.45754098892211914 0.16053098440170288
vt 0.20392000675201416 0.029330015182495117
vt 0.0033629999961704016 0.097963988780975342
vt 0.21737700700759888 0.18231701850891113
vt 0.083488002419471741 0.03363502025604248
vt 0.0012080000014975667 0.036576986312866211
vt 0.29604798555374146 0.025426983833312988
vt 0.44507300853729248 0.0201529860496521
vt 0.2388249933719635 0.42147701978683472
vt 0.25984498858451843 0.65984600782394409
vt 0.28141701221466064 0.89976199716329575
vt 0.011029000394046307 0.30973702669143677
vt 0.015873000025749207 0.44149297475814819
vt 0.020232999697327614 0.56611999869346619
vt 0.0331370010972023 0.92225199937820435
vt 0.028746999800205231 0.80317400395870209
vt 0.28936600685119629 0.98873000033199787
vt 0.10856600105762482 0.99550599977374077
vt 0.035953998565673828 0.99822800001129508
vt 0.38361799716949463 0.9853959996253252
vt 0.52973699569702148 0.98092200048267841
vn -0.0085230004042387 0.99902302026748657 0.043352998793125153
vn -0.0061050001531839371 0.99901199340820312 0.044015999883413315
vn 0.012195000424981117 0.998682975769043 0.049837000668048859
vn -0.0048690000548958778 0.99929898977279663 0.037115000188350677
vn 0.011482999660074711 0.99927699565887451 0.036253999918699265
vn 0.011482999660074711 0.99927699565887451 0.036253999918699265
vn -0.018989000469446182 0.99928700923919678 0.032644998282194138
vn -0.012023000046610832 0.9984930157661438 0.053543001413345337
vn -0.026358999311923981 0.99905997514724731 0.034414999186992645
vn 0.0018240000354126096 0.99910002946853638 0.042378000915050507
vn 0.00036400000681169331 0.99922198057174683 0.039439000189304352
vn 0.0070230001583695412 0.99891501665115356 0.046041000634431839
vn -0.0093849999830126762 0.997838020324707 0.065049998462200165
vn 0.0020620001014322042 0.99950498342514038 0.031399000436067581
vn 0.0189059991389513 0.9984549880027771 0.052250999957323074
vn 0.00801900029182434 0.99975597858428955 0.020578000694513321
vn -0.026923000812530518 0.99779599905014038 0.060642998665571213
vn 0.0067819999530911446 0.99977898597717285 0.019890999421477318
vn -0.00080699997488409281 0.99976897239685059 0.021479999646544456
vn -0.00086500000907108188 0.999671995639801 0.025604000315070152
vn -0.037360001355409622 0.99720901250839233 0.0646430030465126
vn -0.015677999705076218 0.99955999851226807 0.025172000750899315
vn -0.010731999762356281 0.99970000982284546 0.022001000121235847
vn -0.0064509999938309193 0.99964499473571777 0.025852000340819359
vn 0.0062970002181828022 0.99989402294158936 0.013120000250637531
vn -0.031192999333143234 0.99917399883270264 0.0260429996997118
vn -0.047603998333215714 0.99802702665328979 0.0409419983625412
vn -0.014611000195145607 0.99982398748397827 0.011765000410377979
vn 0.030989000573754311 0.9985700249671936 0.043565999716520309
vn 0.037257000803947449 0.99795001745224 0.052028000354766846
vn 0.026666000485420227 0.99954599142074585 0.014012999832630158
vn 0.031479999423027039 0.9985319972038269 0.044077999889850616
vn 0.035498999059200287 0.999210000038147 0.017860999330878258
vn 0.035498999059200287 0.999210000038147 0.017859999090433121
vn 0.028147000819444656 0.99650698900222778 0.078628003597259521
vn -0.0089060002937912941 0.99959099292755127 0.027157999575138092
vn -0.0019120000069960952 0.99961400032043457 0.0277319997549057
vn -0.048154998570680618 0.99875402450561523 0.013131000101566315
vn -0.060977000743150711 0.99811500310897827 0.0069450000301003456
vn 0.01620900072157383 0.99985700845718384 0.0048039997927844524
vn -0.0038640000857412815 0.99998199939727783 0.0046580000780522823
vn -0.040222000330686569 0.99918997287750244 -0.00095600000349804759
vn -0.061774998903274536 0.9980589747428894 -0.0078450003638863564
vn -0.072737999260425568 0.99731200933456421 -0.0088809998705983162
vn -0.047834001481533051 0.99883800745010376 0.005816000048071146
vn -0.04859200119972229 0.99878197908401489 -0.0085500003769993782
vn -0.04859200119972229 0.99878197908401489 -0.0085500003769993782
vn -0.045777998864650726 0.99874198436737061 0.020447999238967896
vn -0.044817999005317688 0.99851202964782715 0.031059000641107559
f 1/1/1 2/2/2 3/3/3
f 4/4/4 3/3/3 2/2/2
f 4/4/4 5/5/5 3/3/3
f 5/5/5 4/4/4 6/6/6
f 7/7/7 2/2/2 8/8/8
f 7/7/7 9/9/9 2/2/2
f 4/4/4 2/2/2 9/9/9
f 10/10/10 11/11/11 12/12/12
f 10/10/10 8/8/8 11/11/11
f 7/7/7 8/8/8 10/10/10
f 8/8/8 2/2/2 13/13/13
f 13/13/13 14/14/14 15/15/15
f 2/2/2 14/14/14 13/13/13
f 16/16/16 11/11/11 17/17/17
f 16/16/16 18/18/18 11/11/11
f 12/12/12 11/11/11 18/18/18
f 19/19/19 17/17/17 20/20/20
f 19/19/19 16/16/16 17/17/17
f 17/17/17 11/11/11 13/13/13
f 11/11/11 8/8/8 13/13/13
f 17/17/17 13/13/13 21/21/21
f 22/22/22 2/2/2 1/1/1
f 22/22/22 14/14/14 2/2/2
f 23/23/23 20/20/20 24/24/24
f 23/23/23 19/19/19 20/20/20
f 25/25/25 24/24/24 20/20/20
f 25/25/25 20/20/20 26/26/26
f 20/20/20 17/17/17 27/27/27
f 14/14/14 28/28/28 29/29/29
f 14/14/14 22/22/22 28/28/28
f 30/30/30 31/31/31 32/32/32
f 30/30/30 33/33/33 31/31/31
f 33/33/33 34/34/34 31/31/31
f 35/35/35 29/29/29 36/36/36
f 30/30/30 29/29/29 35/35/35
f 30/30/30 32/32/32 29/29/29
f 29/29/29 32/32/32 15/15/15
f 15/15/15 32/32/32 37/37/37
f 13/13/13 15/15/15 21/21/21
f 17/17/17 21/21/21 27/27/27
f 15/15/15 38/38/38 21/21/21
f 15/15/15 14/14/14 29/29/29
f 21/21/21 39/39/39 27/27/27
f 40/40/40 37/37/37 32/32/32
f 40/40/40 41/41/41 37/37/37
f 37/37/37 42/42/42 38/38/38
f 37/37/37 41/41/41 42/42/42
f 43/43/43 38/38/38 44/44/44
f 43/43/43 39/39/39 38/38/38
f 38/38/38 39/39/39 21/21/21
f 45/45/45 39/39/39 46/46/46
f 46/46/46 43/43/43 47/47/47
f 46/46/46 39/39/39 43/43/43
f 44/44/44 38/38/38 42/42/42
f 15/15/15 37/37/37 38/38/38
f 48/48/48 27/27/27 39/39/39
f 48/48/48 49/49/49 27/27/27
f 26/26/26 27/27/27 49/49/49
f 26/26/26 20/20/20 27/27/27
f 45/45/45 48/48/48 39/39/39
f 28/28/28 36/36/36 29/29/29
f 40/40/40 32/32/32 31/31/31
