mtllib m12101.mtl
usemtl material0
v 640 -10.712162017822266 896
v 640 -11.023185729980469 910.13238525390625
v 652.716064453125 -10.575642585754395 896
v 640 -11.64405632019043 926.24127197265625
v 656.69207763671875 -11.737622261047363 925.360107421875
v 655.14813232421875 -10.594223976135254 896
v 683.1082763671875 -11.439152717590332 896
v 687.142822265625 -11.446413040161133 896
v 688.60205078125 -11.775189399719238 923.6751708984375
v 640 -11.440512657165527 940.73443603515625
v 658.37884521484375 -11.297699928283691 957.26861596107483
v 713.50433254241943 -10.587614059448242 896
v 720.520263671875 -10.201757431030273 921.98516845703125
v 719.14794921875 -10.308953285217285 896
v 725.41943359375 -10.396038055419922 896
v 752.42816162109375 -10.653005599975586 920.301513671875
v 751.14410400390625 -10.875971794128418 896
v 690.28948974609375 -11.2063627243042 955.583251953125
v 640 -12.800045013427734 990.24224853515625
v 644.88763427734375 -12.273283004760742 1024
v 660.06060791015625 -11.833159446716309 989.18017578125
v 640 -12.593852043151856 1014.329833984375
v 640 -12.511074066162109 1024
v 640 -12.558272361755371 977.6929931640625
v 640 -12.152887344360352 958.24157702922821
v 691.974609375 -11.093396186828613 987.4927978515625
v 722.20263671875 -10.628519058227539 953.89642286300659
v 754.11407470703125 -10.383977890014648 952.21057081222534
v 723.87896728515625 -12.233293533325195 985.81134033203125
v 693.8900146484375 -13.334457397460938 1024
v 679.81854248046875 -13.614185333251953 1024
v 707.23370409011841 -13.852946281433106 1024
v 755.78857421875 -12.339333534240723 984.12664794921875
v 768 -10.770904541015625 951.47845458984375
v 768 -11.908611297607422 970.55511474609375
v 745.559814453125 -12.541576385498047 1024
v 757.8922119140625 -12.586468696594238 1024
v 768 -10.832407951354981 936.77569580078125
v 768 -10.998011589050293 919.48028564453125
v 768 -12.566908836364746 1024
v 768 -12.537960052490234 1019.4050903320313
v 768 -12.311639785766602 983.48175048828125
v 768 -11.384787559509277 902.9920654296875
v 768 -11.461779594421387 896
vt 0.99858099222183228 0.001958012580871582
vt 0.88856297731399536 0.0019320249557495117
vt 0.99858099222183228 0.10093098878860474
vt 0.76309597492218018 0.0018990039825439453
vt 0.76988697052001953 0.13181698322296143
vt 0.9985700249671936 0.11986100673675537
vt 0.99826300144195557 0.33757102489471436
vt 0.99823999404907227 0.36897099018096924
vt 0.78282397985458374 0.38017898797988892
vt 0.65028601884841919 0.0018330216407775879
vt 0.52151501178741455 0.14479899406433106
vt 0.99818199872970581 0.57424899935722351
vt 0.79566401243209839 0.62891298532485962
vt 0.99790799617767334 0.61829501390457153
vt 0.99796599149703979 0.66703701019287109
vt 0.80884897708892822 0.87726999819278717
vt 0.997992992401123 0.86728499829769135
vt 0.53447502851486206 0.3931649923324585
vt 0.2648090124130249 0.0014169812202453613
vt 0.002073999959975481 0.03966599702835083
vt 0.27310499548912048 0.15766900777816773
vt 0.077330999076366425 0.0015339851379394531
vt 0.0020659998990595341 0.0015810132026672363
vt 0.3624970018863678 0.0014870166778564453
vt 0.51391798257827759 0.0016049742698669434
vt 0.28611698746681213 0.406125009059906
vt 0.54779297113418579 0.64157301187515259
vt 0.56097197532653809 0.88994000107049942
vt 0.2990880012512207 0.65459799766540527
vt 0.0014240000164136291 0.42051601409912109
vt 0.0014880000380799174 0.31097698211669922
vt 0.0014189999783411622 0.52547100186347961
vt 0.31210601329803467 0.90295399725437164
vt 0.56647002696990967 0.9980650000507012
vt 0.41773501038551331 0.99805000005289912
vt 0.0021979999728500843 0.82393300533294678
vt 0.0023880000226199627 0.919914998114109
vt 0.68094199895858765 0.99824500002432615
vt 0.815555989742279 0.99823000002652407
vt 0.0025460000615566969 0.99858300003688782
vt 0.0383090004324913 0.99849599995650351
vt 0.31707900762557983 0.99799700011499226
vt 0.94361197948455811 0.99854699999559671
vt 0.99803298711776733 0.99855100002605468
vn -0.010733000002801418 0.99970000982284546 0.022001000121235847
vn 0.0033519999124109745 0.99939298629760742 0.034664999693632126
vn 0.0027340000960975885 0.99941402673721313 0.034109000116586685
vn 0.00620400020852685 0.99991601705551147 0.011358000338077545
vn 0.0067070000804960728 0.99994301795959473 0.008329000324010849
vn 0.018527999520301819 0.99910801649093628 0.037934999912977219
vn 0.0093790004029870033 0.9997829794883728 0.018602000549435616
vn -0.014806999824941158 0.999809980392456 0.012657999992370606
vn -0.022235000506043434 0.99974602460861206 -0.0037930000107735395
vn -0.0082689998671412468 0.999966025352478 0.0005549999768845737
vn -0.020549999549984932 0.99976599216461182 0.0067560002207756042
vn -0.044849999248981476 0.99899101257324219 0.002512000035494566
vn -0.013585000298917294 0.99990701675415039 0.0014459999511018395
vn -0.01878800056874752 0.99981898069381714 -0.0031320000998675823
vn 0.0149959996342659 0.99986898899078369 -0.0060939998365938663
vn 0.017274999991059303 0.99981898069381714 -0.0080030001699924469
vn 0.026424000039696693 0.99959498643875122 -0.010567000135779381
vn -0.00710600009188056 0.99997401237487793 0.00082499999552965164
vn -0.047883998602628708 0.99884098768234253 0.0048759998753666878
vn -0.016499999910593033 0.99984902143478394 0.00544800003990531
vn -0.02375200018286705 0.99945002794265747 0.023125000298023224
vn -0.04859200119972229 0.99878197908401489 -0.0085500003769993782
vn -0.04859200119972229 0.99878197908401489 -0.0085490001365542412
vn -0.046709999442100525 0.99871599674224854 0.019608000293374062
vn -0.044854998588562012 0.9985319972038269 0.030376000329852104
vn 0.010436000302433968 0.99946999549865723 0.03085000067949295
vn -0.0085909999907016754 0.9995269775390625 0.029525000602006912
vn 0.012070000171661377 0.99961298704147339 0.025072000920772552
vn 0.0051369997672736645 0.99936699867248535 0.035188999027013779
vn 0.010451000183820725 0.99809998273849487 0.060722000896930695
vn -0.00030700000934302807 0.99868500232696533 0.051256999373435974
vn 0.011832999996840954 0.99879997968673706 0.047518998384475708
vn 0.0058490000665187836 0.99954402446746826 0.029621999710798264
vn 0.029247000813484192 0.99921798706054688 0.026624999940395355
vn 0.023584000766277313 0.998320996761322 0.052903998643159866
vn -0.00906199961900711 0.99987202882766724 0.01321600005030632
vn 0.00075900001684203744 0.99998098611831665 0.0061579998582601547
vn 0.023042000830173492 0.99970000982284546 -0.0083149997517466545
vn 0.021263999864459038 0.9996340274810791 -0.016744000837206841
vn -0.001934999949298799 0.99997800588607788 0.0063000000081956387
vn -0.001934999949298799 0.99997800588607788 0.0063000000081956387
vn -0.001256000017747283 0.99981600046157837 0.019151000306010246
vn 0.031509000808000565 0.99940699338912964 -0.013904999941587448
vn 0.034731000661849976 0.99933600425720215 -0.011003999970853329
f 1/1/1 2/2/2 3/3/3
f 4/4/4 3/3/3 2/2/2
f 4/4/4 5/5/5 3/3/3
f 5/5/5 6/6/6 3/3/3
f 6/6/6 5/5/5 7/7/7
f 8/8/8 5/5/5 9/9/9
f 8/8/8 7/7/7 5/5/5
f 5/5/5 10/10/10 11/11/11
f 5/5/5 4/4/4 10/10/10
f 12/12/12 13/13/13 14/14/14
f 12/12/12 9/9/9 13/13/13
f 8/8/8 9/9/9 12/12/12
f 15/15/15 16/16/16 17/17/17
f 9/9/9 5/5/5 18/18/18
f 19/19/19 20/20/20 21/21/21
f 19/19/19 22/22/22 20/20/20
f 22/22/22 23/23/23 20/20/20
f 24/24/24 11/11/11 25/25/25
f 18/18/18 11/11/11 26/26/26
f 5/5/5 11/11/11 18/18/18
f 16/16/16 13/13/13 27/27/27
f 14/14/14 16/16/16 15/15/15
f 14/14/14 13/13/13 16/16/16
f 16/16/16 27/27/27 28/28/28
f 27/27/27 13/13/13 18/18/18
f 10/10/10 25/25/25 11/11/11
f 27/27/27 18/18/18 29/29/29
f 30/30/30 21/21/21 31/31/31
f 30/30/30 26/26/26 21/21/21
f 11/11/11 21/21/21 26/26/26
f 26/26/26 32/32/32 29/29/29
f 26/26/26 30/30/30 32/32/32
f 31/31/31 21/21/21 20/20/20
f 28/28/28 29/29/29 33/33/33
f 26/26/26 29/29/29 18/18/18
f 34/34/34 33/33/33 35/35/35
f 34/34/34 28/28/28 33/33/33
f 36/36/36 29/29/29 32/32/32
f 29/29/29 28/28/28 27/27/27
f 29/29/29 37/37/37 33/33/33
f 29/29/29 36/36/36 37/37/37
f 38/38/38 16/16/16 28/28/28
f 38/38/38 39/39/39 16/16/16
f 19/19/19 11/11/11 24/24/24
f 19/19/19 21/21/21 11/11/11
f 40/40/40 33/33/33 37/37/37
f 40/40/40 41/41/41 33/33/33
f 41/41/41 42/42/42 33/33/33
f 9/9/9 18/18/18 13/13/13
f 43/43/43 17/17/17 16/16/16
f 43/43/43 44/44/44 17/17/17
f 38/38/38 28/28/28 34/34/34
f 35/35/35 33/33/33 42/42/42
f 43/43/43 16/16/16 39/39/39
