mtllib m12122.mtl
usemtl material0
v 512 -4.4786419868469238 612.99041748046875
v 512 -4.455254077911377 613.2474365234375
v 512.24285888671875 -4.4511809349060059 612.9775390625
v 512 -0.54694199562072754 516.98175048828125
v 512 -1.3471970558166504 545.690185546875
v 539.12353515625 0.28818398714065552 515.54693603515625
v 512 -1.5901949405670166 548.98388671875
v 512 -5.5287718772888184 579.46264600753784
v 540.79595947265625 -2.1028890609741211 547.46478271484375
v 512 -4.6307129859924316 608.39453125
v 542.45703125 -6.7329921722412109 579.38995409011841
v 512 -5.7478761672973633 580.99529981613159
v 513.67254638671875 -3.8523509502410889 640
v 544.1417236328125 -6.6979532241821289 611.2998046875
v 518.3253173828125 -4.1737489700317383 640
v 512 -3.9177429676055908 640
v 537.10699462890625 -0.090980000793933868 512
v 512 -0.59775799512863159 516.39617919921875
v 512 -0.979278028011322 512
v 538.9339599609375 -0.15897800028324127 512
v 542.313720703125 -0.20243200659751892 512
v 570.9305419921875 -0.66511297225952148 512
v 571.03015089035034 -0.43596801161766052 513.8642578125
v 602.70806884765625 -4.2290492057800293 512
v 602.921142578125 -4.2282347679138184 512.191650390625
v 602.9110107421875 -4.2321701049804688 512
v 603.09356689453125 -4.2268218994140625 512
v 572.69891405105591 -3.5438239574432373 545.78448486328125
v 604.5936279296875 -6.5958700180053711 544.10943603515625
v 606.57366943359375 -4.630770206451416 512
v 633.4803466796875 -7.6923727989196777 512
v 606.272216796875 -7.7690048217773438 576.02319299988449
v 574.37390100955963 -5.4161639213562012 577.70056200027466
v 640 -7.7249259948730469 512
v 636.45989990234375 -7.8112611770629883 512
v 640 -7.95808219909668 515.1861572265625
v 640 -10.077153205871582 542.25018310546875
v 634.89111328125 -7.8567500114440918 512
v 636.48553466796875 -10.193617820739746 542.4361572265625
v 640 -8.0517826080322266 516.3828125
v 640 -9.8722972869873047 545.5955810546875
v 638.17205810546875 -9.7974452972412109 574.34478795528412
v 576.07269299775362 -2.6140859127044678 609.6014404296875
v 607.974365234375 -4.3087358474731445 607.921875
v 577.679015994072 -2.3218989372253418 640
v 548.7225341796875 -2.7646400928497314 640
v 545.67529296875 -3.1731159687042236 640
v 606.4993896484375 -4.74375581741333 640
v 609.65533447265625 -5.0112900733947754 639.83416748046875
v 579.11755394935608 -2.3973779678344727 640
v 639.86785888671875 -7.58715295791626 606.24749755859375
v 609.6639404296875 -5.030663013458252 640
v 640 -7.5851140022277832 606.10064697265625
v 640 -7.5777578353881836 606.240478515625
v 640 -9.6441774368286133 574.24780297279358
v 640 -7.5805301666259766 606.3663330078125
v 640 -7.5216350555419922 608.7437744140625
v 640 -6.6648678779602051 638.2366943359375
v 640 -6.9052329063415527 640
v 609.83935546875 -5.0452489852905273 640
v 640 -6.9040651321411133 639.991455078125
vt 0.22376200556755066 0.0021359920501708984
vt 0.22185300290584564 0.0021960139274597168
vt 0.2238990068435669 0.004082024097442627
vt 0.95925599336624146 0.01341402530670166
vt 0.74025100469589233 0.010568976402282715
vt 0.96632301807403564 0.21904802322387695
vt 0.71506398916244507 0.010161995887756348
vt 0.4804689884185791 0.006699979305267334
vt 0.72268998622894287 0.2302049994468689
vt 0.25905799865722656 0.0028460025787353516
vt 0.47731098532676697 0.24042797088623047
vt 0.46862399578094482 0.0065479874610900879
vt 0.01624700054526329 0.01303398609161377
vt 0.23319600522518158 0.24943000078201294
vt 0.015623999759554863 0.04865497350692749
vt 0.016471000388264656 0.00014901161193847656
vt 0.99510300159454346 0.20608001947402954
vt 0.96378499269485474 0.01348501443862915
vt 0.99761897325515747 0.013840019702911377
vt 0.9949759840965271 0.22015398740768433
vt 0.99244797229766846 0.24307399988174439
vt 0.991877019405365 0.4645569920539856
vt 0.97747397422790527 0.46495699882507324
vt 0.9871249794960022 0.70864900946617126
vt 0.98562699556350708 0.71024200320243835
vt 0.987093985080719 0.71019399166107178
vt 0.98707401752471924 0.71157899498939514
vt 0.733771026134491 0.47603899240493774
vt 0.74089199304580688 0.72076499462127686
vt 0.98659300804138184 0.738321989774704
vt 0.98316401243209839 0.94503799825906754
vt 0.49233099818229675 0.72437301278114319
vt 0.4917370080947876 0.48660999536514282
vt 0.98255598545074463 0.99489999981597066
vt 0.98280197381973267 0.96784599870443344
vt 0.95817297697067261 0.99467599997296929
vt 0.75071698427200317 0.99303699983283877
vt 0.98295098543167114 0.95585300028324127
vt 0.74965697526931763 0.966083999723196
vt 0.94901001453399658 0.99463299987837672
vt 0.72517198324203491 0.99261000007390976
vt 0.50534600019454956 0.97388499975204468
vt 0.23703299462795258 0.47098702192306519
vt 0.23406800627708435 0.6946989893913269
vt 0.007689999882131815 0.50403100252151489
vt 0.011006999760866165 0.28265899419784546
vt 0.011587000451982021 0.25914299488067627
vt 0.0077929999679327011 0.72569799423217773
vt 0.015731999650597572 0.7560880035161972
vt 0.0075530000030994415 0.51503700017929077
vt 0.26196101307868958 0.98357499949634075
vt 0.0077129998244345188 0.750671997666359
vt 0.262364000082016 0.98512899968773127
vt 0.26129698753356934 0.9851069999858737
vt 0.50637197494506836 0.98920600023120642
vt 0.26035198569297791 0.98507400043308735
vt 0.24214200675487518 0.98476700019091368
vt 0.016084000468254089 0.98168100044131279
vt 0.0023809999693185091 0.98154399916529655
vt 0.0051569999195635319 0.75053200125694275
vt 0.0024389999452978373 0.98155100084841251
vn -0.11539699882268906 0.99136501550674438 -0.062286000698804855
vn -0.057321999222040176 0.99768698215484619 -0.036527000367641449
vn -0.01829100027680397 0.99924498796463013 -0.0342629998922348
vn -0.0322129987180233 0.99910402297973633 -0.027437999844551086
vn 0.00976600032299757 0.99796998500823975 0.06293100118637085
vn 0.0058010001666843891 0.99967700242996216 -0.024733999744057655
vn 0.023074999451637268 0.99454200267791748 0.1017569974064827
vn 0.035955000668764114 0.9897339940071106 0.13832400739192963
vn 0.024836000055074692 0.99485301971435547 0.09824100136756897
vn 0.027718000113964081 0.998790979385376 -0.040594998747110367
vn 0.0038540000095963478 0.99778997898101807 0.066338002681732178
vn 0.034798000007867813 0.9982600212097168 0.047607000917196274
vn 0.016743000596761703 0.99959397315979 -0.023036999627947807
vn -0.032892998307943344 0.99778199195861816 -0.057881001383066177
vn 0.040780998766422272 0.99786198139190674 -0.051079001277685165
vn -0.039058998227119446 0.99903500080108643 -0.020073000341653824
vn -0.010947000235319138 0.99491399526596069 -0.10013200342655182
vn -0.0352259986102581 0.99563699960708618 -0.086404003202915192
vn -0.0352259986102581 0.99563699960708618 -0.086405999958515167
vn 0.0252080000936985 0.99166297912597656 -0.12636600434780121
vn 0.015162999741733074 0.99221497774124146 -0.12360700219869614
vn 0.062017001211643219 0.99021297693252563 -0.12502600252628326
vn 0.07203199714422226 0.99721801280975342 -0.019173000007867813
vn 0.088462002575397491 0.99078601598739624 -0.10255800187587738
vn 0.082617998123168945 0.99614101648330688 0.029629999771714211
vn -0.0061989999376237392 0.99977701902389526 -0.0201990008354187
vn 0.076403997838497162 0.99417102336883545 0.076064996421337128
vn 0.07381100207567215 0.99494200944900513 0.0681380033493042
vn 0.099500000476837158 0.99405902624130249 0.0441179983317852
vn 0.11282999813556671 0.99126100540161133 0.068338997662067413
vn 0.1147409975528717 0.99096900224685669 0.069384999573230743
vn 0.069259002804756165 0.99693000316619873 -0.036517001688480377
vn 0.013802000321447849 0.99989801645278931 0.0037720000836998224
vn -0.024315999820828438 0.99703800678253174 0.0729610025882721
vn -0.027824999764561653 0.99665498733520508 0.076843000948429108
vn -0.027676999568939209 0.99667197465896606 0.07667899876832962
vn -0.032545000314712524 0.99941200017929077 0.010842000134289265
vn 0.045929998159408569 0.99619400501251221 0.074081003665924072
vn 0.034437999129295349 0.9991220235824585 0.023863000795245171
vn -0.028896000236272812 0.99653202295303345 0.078028000891208649
vn -0.071292996406555176 0.99721002578735352 -0.022113999351859093
vn -0.0011559999547898769 0.999222993850708 -0.039393000304698944
vn -0.026032999157905579 0.99778997898101807 -0.061142001301050186
vn 0.076955996453762054 0.99608397483825684 -0.043519001454114914
vn 0.019696999341249466 0.99974900484085083 -0.010649999603629112
vn -0.10103199630975723 0.991159975528717 -0.0859920009970665
vn -0.086159996688365936 0.98939800262451172 -0.11691000312566757
vn 0.085444003343582153 0.99616199731826782 0.019003000110387802
vn 0.081358999013900757 0.99478799104690552 0.061462998390197754
vn 0.06119300052523613 0.99811601638793945 -0.0044249999336898327
vn 0.011834999546408653 0.99931001663208008 -0.035197999328374863
vn 0.08589799702167511 0.99007797241210938 0.11120600253343582
vn -0.083681002259254456 0.99459397792816162 -0.061487998813390732
vn -0.071783997118473053 0.99728399515151978 -0.016455000266432762
vn -0.085358001291751862 0.9957280158996582 -0.035222999751567841
vn -0.039048001170158386 0.99916201829910278 -0.012272000312805176
vn 0.051509000360965729 0.9982529878616333 -0.028927000239491463
vn 0.0569939985871315 0.99709600210189819 0.05051099881529808
vn 0.060986001044511795 0.98894697427749634 0.13514800369739533
vn 0.065967999398708344 0.989395022392273 0.12940299510955811
vn 0.060988001525402069 0.98896902799606323 0.13498200476169586
f 1/1/1 2/2/2 3/3/3
f 4/4/4 5/5/5 6/6/6
f 7/7/7 8/8/8 9/9/9
f 1/1/1 3/3/3 10/10/10
f 10/10/10 11/11/11 12/12/12
f 10/10/10 3/3/3 11/11/11
f 13/13/13 14/14/14 3/3/3
f 13/13/13 15/15/15 14/14/14
f 2/2/2 13/13/13 3/3/3
f 2/2/2 16/16/16 13/13/13
f 17/17/17 4/4/4 6/6/6
f 17/17/17 18/18/18 4/4/4
f 18/18/18 17/17/17 19/19/19
f 17/17/17 6/6/6 20/20/20
f 20/20/20 6/6/6 21/21/21
f 22/22/22 6/6/6 23/23/23
f 22/22/22 21/21/21 6/6/6
f 24/24/24 25/25/25 26/26/26
f 26/26/26 25/25/25 27/27/27
f 23/23/23 9/9/9 28/28/28
f 9/9/9 23/23/23 6/6/6
f 25/25/25 28/28/28 29/29/29
f 28/28/28 25/25/25 23/23/23
f 29/29/29 30/30/30 25/25/25
f 29/29/29 31/31/31 30/30/30
f 29/29/29 28/28/28 32/32/32
f 24/24/24 23/23/23 25/25/25
f 24/24/24 22/22/22 23/23/23
f 28/28/28 9/9/9 33/33/33
f 27/27/27 25/25/25 30/30/30
f 7/7/7 6/6/6 5/5/5
f 7/7/7 9/9/9 6/6/6
f 34/34/34 35/35/35 36/36/36
f 37/37/37 38/38/38 39/39/39
f 37/37/37 40/40/40 38/38/38
f 40/40/40 35/35/35 38/38/38
f 40/40/40 36/36/36 35/35/35
f 37/37/37 39/39/39 41/41/41
f 39/39/39 31/31/31 29/29/29
f 39/39/39 38/38/38 31/31/31
f 39/39/39 29/29/29 42/42/42
f 14/14/14 11/11/11 3/3/3
f 11/11/11 14/14/14 33/33/33
f 33/33/33 14/14/14 43/43/43
f 33/33/33 32/32/32 28/28/28
f 32/32/32 42/42/42 29/29/29
f 33/33/33 44/44/44 32/32/32
f 9/9/9 11/11/11 33/33/33
f 32/32/32 44/44/44 42/42/42
f 45/45/45 43/43/43 46/46/46
f 47/47/47 43/43/43 14/14/14
f 47/47/47 46/46/46 43/43/43
f 44/44/44 48/48/48 49/49/49
f 44/44/44 50/50/50 48/48/48
f 45/45/45 44/44/44 43/43/43
f 45/45/45 50/50/50 44/44/44
f 49/49/49 51/51/51 44/44/44
f 52/52/52 49/49/49 48/48/48
f 33/33/33 43/43/43 44/44/44
f 42/42/42 44/44/44 51/51/51
f 47/47/47 14/14/14 15/15/15
f 53/53/53 51/51/51 54/54/54
f 51/51/51 55/55/55 42/42/42
f 51/51/51 53/53/53 55/55/55
f 54/54/54 51/51/51 56/56/56
f 56/56/56 51/51/51 57/57/57
f 58/58/58 51/51/51 49/49/49
f 58/58/58 57/57/57 51/51/51
f 41/41/41 42/42/42 55/55/55
f 41/41/41 39/39/39 42/42/42
f 59/59/59 49/49/49 60/60/60
f 59/59/59 61/61/61 49/49/49
f 61/61/61 58/58/58 49/49/49
f 52/52/52 60/60/60 49/49/49
f 12/12/12 9/9/9 8/8/8
f 12/12/12 11/11/11 9/9/9
