mtllib m12132.mtl
usemtl material0
v 794.8896484375 -7.36279296875 512
v 768 -7.427854061126709 535.4830322265625
v 796.05120849609375 -7.3503389358520508 534.00152587890625
v 768 -7.4290142059326172 532.71380615234375
v 785.451904296875 -7.3890819549560547 512
v 768 -7.4295659065246582 531.39715576171875
v 768 -7.9243569374084473 512
v 826.89654493331909 -5.9235248565673828 512
v 827.96099901199341 -7.4309148788452148 532.31671142578125
v 815.84942626953125 -5.8525509834289551 512
v 846.2408447265625 -7.1266779899597168 512
v 829.66668701171875 -3.33119797706604 564.2132568359375
v 768 -6.9608430862426758 539.15545654296875
v 797.7567138671875 -3.2779660224914551 565.898193359375
v 890.89471435546875 -5.9750938415527344 512
v 872.96124267578125 -5.64133882522583 512
v 891.79925537109375 -4.00075101852417 528.93536376953125
v 858.892578125 -6.516693115234375 512
v 859.87896728515625 -5.9400439262390137 530.62677001953125
v 896 -5.5353531837463379 512
v 896 -4.16180419921875 524.2659912109375
v 896 -4.12278413772583 526.64788818359375
v 896 -4.0889410972595215 528.71380615234375
v 893.48406982421875 -3.95711088180542 560.84521484375
v 896 -4.0199527740478516 532.71484375
v 861.57684326171875 -3.3549470901489258 562.5283203125
v 768 -4.9544458389282227 632.75006103515625
v 769.20672607421875 -4.9813961982727051 631.40875244140625
v 768 -4.9493589401245117 631.472412109375
v 768 -3.7699389457702637 567.47100830078125
v 768 -3.68789005279541 598.97088623046875
v 768 -3.6632039546966553 599.4696044921875
v 799.449951171875 -1.5823129415512085 597.8026123046875
v 831.36004602909088 -1.6208980083465576 596.11773681640625
v 801.1309814453125 -2.2599649429321289 629.71484375
v 768 -4.0557980537414551 608.4566650390625
v 833.01580798625946 -7.2017779350280762 628.0458984375
v 863.25421142578125 -4.7446870803833008 594.44287109375
v 833.63842797279358 -8.7881660461425781 640
v 812.5355224609375 -5.3801388740539551 640
v 801.6671142578125 -3.5438849925994873 640
v 778.752685546875 -5.3405141830444336 640
v 895.17327880859375 -3.0466010570526123 592.75225830078125
v 896 -3.0769040584564209 591.83331298828125
v 896 -3.0640580654144287 592.7086181640625
v 896 -3.9726600646972656 560.71240234375
v 896 -5.4196000099182129 608.653076171875
v 896 -7.7350068092346191 623.92755126953125
v 896 -7.8858599662780762 624.72198486328125
v 864.9080810546875 -10.6761474609375 626.37213134765625
v 896 -10.823773384094238 640
v 880.04290771484375 -12.092955589294434 640
v 896 -10.693490982055664 639.322509765625
v 865.61834716796875 -12.396936416625977 640
v 846.27667236328125 -10.167770385742188 640
v 769.658447265625 -5.3217630386352539 640
v 768 -5.2177700996398926 640
vt 0.025096999481320381 0.7974729984998703
vt 0.2070779949426651 0.99189000017941
vt 0.18881599605083466 0.78315199911594391
vt 0.18643400073051453 0.99260200001299381
vt 0.027525000274181366 0.86782999336719513
vt 0.17661799490451813 0.99294199980795383
vt 0.031970001757144928 0.99799400009214878
vt 0.017071999609470367 0.55845201015472412
vt 0.16870500147342682 0.545644998550415
vt 0.019673999398946762 0.64081600308418274
vt 0.013088000006973743 0.41393297910690308
vt 0.40717199444770813 0.5245400071144104
vt 0.23467500507831574 0.99091599974781275
vt 0.42807599902153015 0.76197899878025055
vt 0.0024319998919963837 0.080682992935180664
vt 0.0071609998121857643 0.2143930196762085
vt 0.12931899726390839 0.069719016551971436
vt 0.010262999683618546 0.31949299573898315
vt 0.14897400140762329 0.30778402090072632
vt 0.0015360000543296337 0.042470991611480713
vt 0.093552999198436737 0.039433002471923828
vt 0.10985399782657623 0.040583014488220215
vt 0.12521499395370483 0.039331972599029541
vt 0.36534300446510315 0.049641013145446777
vt 0.15501600503921509 0.037620007991790771
vt 0.38629299402236938 0.28709697723388672
vt 0.93392300605773926 0.96845399960875511
vt 0.924796998500824 0.95848900079727173
vt 0.92443400621414185 0.96757400035858154
vt 0.44709599018096924 0.98346799984574318
vt 0.68193602561950684 0.97573800012469292
vt 0.68565797805786133 0.97560800053179264
vt 0.66580700874328613 0.74100598692893982
vt 0.64490902423858643 0.50356501340866089
vt 0.90331798791885376 0.7201249897480011
vt 0.75273197889328 0.97368000075221062
vt 0.88568800687789917 0.47842401266098022
vt 0.623885989189148 0.26511800289154053
vt 0.97547000646591187 0.47143101692199707
vt 0.97877699136734009 0.6308479905128479
vt 0.98049801588058472 0.71405801177024841
vt 0.9867749810218811 0.885393001139164
vt 0.60229498147964478 0.027332007884979248
vt 0.59518897533416748 0.021452009677886963
vt 0.60180401802062988 0.021175026893615723
vt 0.36314800381660461 0.030970990657806396
vt 0.72197401523590088 0.017524003982543945
vt 0.83057099580764771 0.00857698917388916
vt 0.83659398555755615 0.0082510113716125488
vt 0.865106999874115 0.23968201875686646
vt 0.95247501134872437 0.0020059943199157715
vt 0.961804986000061 0.12203902006149292
vt 0.94733798503875732 0.0022829771041870117
vt 0.96720099449157715 0.22952401638031006
vt 0.97431600093841553 0.37660497426986694
vt 0.98880201578140259 0.95319899916648865
vt 0.98779398202896118 0.97358799912035465
vn -0.0361890010535717 0.999343991279602 0.001344999996945262
vn -0.00621700007468462 0.9978330135345459 -0.065508998930454254
vn -0.012431999668478966 0.9984700083732605 -0.053874000906944275
vn -0.0027860000263899565 0.9999960064888 -0.00041899998905137181
vn -0.010222000069916248 0.999921977519989 -0.0071100001223385334
vn -0.0092869997024536133 0.99993699789047241 -0.0062690000049769878
vn -0.030647000297904015 0.99920499324798584 -0.025488000363111496
vn 0.033209998160600662 0.99683600664138794 0.072219997644424438
vn -0.0048050000332295895 0.99941599369049072 -0.033822998404502869
vn -0.014473999850451946 0.99838501214981079 0.054942000657320023
vn -0.01874300092458725 0.99982297420501709 -0.0018919999711215496
vn -0.0034600000362843275 0.99590998888015747 -0.090281002223491669
vn -0.012839999981224537 0.99239999055862427 -0.12238200008869171
vn -0.016264000907540321 0.99656301736831665 -0.081225000321865082
vn -0.03156299889087677 0.99297100305557251 -0.11407600343227387
vn -0.043281000107526779 0.99788397550582886 -0.04852600023150444
vn -0.025546999648213387 0.99902701377868652 -0.035946998745203018
vn -0.054866999387741089 0.998100996017456 -0.027993999421596527
vn -0.046013999730348587 0.997992992401123 -0.043501999229192734
vn -0.085288003087043762 0.99016797542572021 -0.11087899655103684
vn -0.060793999582529068 0.99417597055435181 -0.088982999324798584
vn 0.02012299932539463 0.99966299533843994 -0.01637599989771843
vn 0.020100999623537064 0.99965697526931763 -0.016791999340057373
vn -0.0072559998370707035 0.99985301494598389 -0.01550699956715107
vn 0.0098230000585317612 0.99993497133255 -0.00583800021559
vn 0.014090999960899353 0.99919897317886353 -0.037441998720169067
vn 0.054198998957872391 0.99811702966690063 0.028705999255180359
vn -0.009584999643266201 0.99896699190139771 0.04442799836397171
vn 0.027629999443888664 0.99940198659896851 0.020805999636650085
vn -0.019441999495029449 0.99826598167419434 -0.0555649995803833
vn -0.056460998952388763 0.99766498804092407 -0.038433998823165894
vn -0.066091001033782959 0.99781298637390137 -0.0013330000219866633
vn -0.035381998866796494 0.99930602312088013 -0.011673999950289726
vn 0.058667000383138657 0.99705600738525391 0.049369998276233673
vn 0.0206339992582798 0.99561101198196411 0.091284997761249542
vn -0.062121998518705368 0.99712097644805908 0.043476998805999756
vn 0.13468599319458008 0.98034101724624634 0.14419400691986084
vn 0.033101998269557953 0.99471497535705566 0.097195997834205627
vn 0.13188600540161133 0.98352301120758057 0.12365099787712097
vn 0.15991500020027161 0.97981899976730347 0.11992499977350235
vn 0.048700999468564987 0.99142998456954956 0.12122400104999542
vn -0.0589900016784668 0.99250400066375732 0.10703200101852417
vn -0.014525000005960465 0.99795401096343994 0.062265001237392426
vn 0.0083140004426240921 0.99964100122451782 -0.025483999401330948
vn 0.02440899983048439 0.99769598245620728 0.063304997980594635
vn 0.0053989998996257782 0.99987602233886719 -0.014775999821722508
vn -0.04341999813914299 0.98778200149536133 0.1496720016002655
vn -0.069138996303081512 0.981893002986908 0.17636899650096893
vn -0.077950000762939453 0.97924798727035522 0.18707700073719025
vn 0.025570999830961227 0.98678702116012573 0.15999199450016022
vn -0.07787100225687027 0.97902601957321167 0.18826699256896973
vn -0.064487002789974213 0.98267102241516113 0.17377999424934387
vn -0.077869996428489685 0.97902601957321167 0.18826599419116974
vn 0.044022999703884125 0.9914429783821106 0.12289500236511231
vn 0.11229000240564346 0.986382007598877 0.12017100304365158
vn 0.031279999762773514 0.998790979385376 0.037925001233816147
vn 0.062541000545024872 0.99738502502441406 0.036226000636816025
f 1/1/1 2/2/2 3/3/3
f 1/1/1 4/4/4 2/2/2
f 4/4/4 5/5/5 6/6/6
f 4/4/4 1/1/1 5/5/5
f 7/7/7 6/6/6 5/5/5
f 8/8/8 3/3/3 9/9/9
f 8/8/8 10/10/10 3/3/3
f 1/1/1 3/3/3 10/10/10
f 8/8/8 9/9/9 11/11/11
f 9/9/9 3/3/3 12/12/12
f 3/3/3 13/13/13 14/14/14
f 3/3/3 2/2/2 13/13/13
f 15/15/15 16/16/16 17/17/17
f 17/17/17 18/18/18 19/19/19
f 17/17/17 16/16/16 18/18/18
f 20/20/20 17/17/17 21/21/21
f 20/20/20 15/15/15 17/17/17
f 22/22/22 17/17/17 23/23/23
f 22/22/22 21/21/21 17/17/17
f 17/17/17 19/19/19 24/24/24
f 23/23/23 17/17/17 25/25/25
f 19/19/19 11/11/11 9/9/9
f 19/19/19 18/18/18 11/11/11
f 19/19/19 9/9/9 26/26/26
f 27/27/27 28/28/28 29/29/29
f 30/30/30 31/31/31 14/14/14
f 14/14/14 32/32/32 33/33/33
f 14/14/14 31/31/31 32/32/32
f 14/14/14 12/12/12 3/3/3
f 12/12/12 26/26/26 9/9/9
f 14/14/14 34/34/34 12/12/12
f 13/13/13 30/30/30 14/14/14
f 12/12/12 34/34/34 26/26/26
f 33/33/33 28/28/28 35/35/35
f 36/36/36 33/33/33 32/32/32
f 36/36/36 28/28/28 33/33/33
f 34/34/34 35/35/35 37/37/37
f 35/35/35 34/34/34 33/33/33
f 37/37/37 38/38/38 34/34/34
f 39/39/39 35/35/35 40/40/40
f 39/39/39 37/37/37 35/35/35
f 14/14/14 33/33/33 34/34/34
f 41/41/41 28/28/28 42/42/42
f 41/41/41 35/35/35 28/28/28
f 26/26/26 34/34/34 38/38/38
f 29/29/29 28/28/28 36/36/36
f 24/24/24 38/38/38 43/43/43
f 38/38/38 24/24/24 26/26/26
f 44/44/44 43/43/43 45/45/45
f 43/43/43 46/46/46 24/24/24
f 43/43/43 44/44/44 46/46/46
f 25/25/25 24/24/24 46/46/46
f 25/25/25 17/17/17 24/24/24
f 47/47/47 38/38/38 48/48/48
f 47/47/47 43/43/43 38/38/38
f 49/49/49 38/38/38 50/50/50
f 49/49/49 48/48/48 38/38/38
f 45/45/45 43/43/43 47/47/47
f 51/51/51 50/50/50 52/52/52
f 51/51/51 53/53/53 50/50/50
f 53/53/53 49/49/49 50/50/50
f 50/50/50 38/38/38 37/37/37
f 19/19/19 26/26/26 24/24/24
f 54/54/54 37/37/37 55/55/55
f 54/54/54 50/50/50 37/37/37
f 41/41/41 40/40/40 35/35/35
f 39/39/39 55/55/55 37/37/37
f 42/42/42 28/28/28 56/56/56
f 52/52/52 50/50/50 54/54/54
f 57/57/57 28/28/28 27/27/27
f 57/57/57 56/56/56 28/28/28
