mtllib m12121.mtl
usemtl material0
v 673.6561279296875 -6.2086582183837891 640
v 643.606689453125 -6.8668060302734375 640
v 675.14166259765625 -8.6683197021484375 668.3858642578125
v 737.66534423828125 -4.1716089248657227 640
v 711.20422410964966 -3.2885169982910156 640
v 738.9844970703125 -4.3064498901367188 665.0015869140625
v 705.66943395137787 -3.54190993309021 640
v 677.398193359375 -5.9048562049865723 640
v 707.06591796875 -5.9225468635559082 666.69189453125
v 641.65277099609375 -7.0071558952331543 640
v 640 -10.610111236572266 667.1788330078125
v 643.218505859375 -11.203948020935059 670.07916259765625
v 640 -6.9052329063415527 640
v 640 -10.61181640625 667.1939697265625
v 640 -10.955329895019531 670.24835205078125
v 640 -11.542484283447266 673.65557861328125
v 640 -15.293284416198731 707.42864990234375
v 644.88262939453125 -15.20831298828125 702.002014040947
v 640 -15.082309722900391 702.25945997238159
v 676.80084228515625 -13.627744674682617 700.31182909011841
v 708.72894287109375 -10.122709274291992 698.61547899246216
v 740.6641845703125 -5.24885892868042 696.9146728515625
v 678.494140625 -11.906929969787598 732.2161865234375
v 646.5640869140625 -15.803374290466309 733.91375732421875
v 710.41851806640625 -9.1357669830322266 730.522216796875
v 640 -15.789179801940918 734.2603759765625
v 648.2618408203125 -13.215688705444336 765.8153076171875
v 640 -13.834863662719727 758.3870849609375
v 742.341064453125 -6.7325749397277832 728.82940673828125
v 768 -7.02160120010376 695.47637939453125
v 768 -7.2292280197143555 700.30902099609375
v 712.10162353515625 -9.4181461334228516 762.43304443359375
v 680.18927001953125 -9.8353481292724609 764.11944580078125
v 768 -6.150601863861084 666.5294189453125
v 768 -6.0703902244567871 663.47467041015625
v 761.4775390625 -4.80878210067749 640
v 768 -7.4082789421081543 727.4764404296875
v 768 -8.8338479995727539 751.93096923828125
v 768 -5.8051080703735352 656.17083740234375
v 768 -5.2177700996398926 640
v 744.017578125 -8.3064346313476562 760.74444580078125
v 640 -13.396784782409668 766.25213623046875
v 646.296875 -12.937636375427246 768
v 640 -13.143179893493652 767.89544677734375
v 640 -13.127040863037109 768
v 648.3787841796875 -12.903385162353516 768
v 680.39599609375 -9.48888874053955 768
v 676.6982421875 -9.6991262435913086 768
v 707.0938720703125 -9.0152301788330078 768
v 712.397705078125 -9.0004730224609375 768
v 744.399169921875 -8.5710725784301758 768
v 718.2891845703125 -9.4277791976928711 768
v 767.88116455078125 -9.4793510437011719 768
v 768 -9.1905450820922852 759.4805908203125
v 768 -9.4793987274169922 767.867919921875
v 768 -9.486027717590332 768
vt 0.25292301177978516 0.031041979789733887
vt 0.028999000787734985 0.039348006248474121
vt 0.27146100997924805 0.24293601512908936
vt 0.7307320237159729 0.012274026870727539
vt 0.533473014831543 0.01924598217010498
vt 0.747173011302948 0.19820201396942139
vt 0.49219799041748047 0.020861029624938965
vt 0.28088700771331787 0.029856979846954346
vt 0.50958800315856934 0.22015798091888428
vt 0.014407999813556671 0.039973020553588867
vt 0.00874400045722723 0.24466198682785034
vt 0.033489000052213669 0.26588702201843262
vt 0.0020659998990595341 0.040273010730743408
vt 0.0087470002472400665 0.24477499723434448
vt 0.0094579998403787613 0.26769298315048218
vt 0.010397999547421932 0.29345202445983887
vt 0.018845999613404274 0.54675498604774475
vt 0.05398000031709671 0.50518798828125
vt 0.01764100044965744 0.50820401310920715
vt 0.29155299067497253 0.48328399658203125
vt 0.53015202283859253 0.45937502384185791
vt 0.7699589729309082 0.43373399972915649
vt 0.31411299109458923 0.72074800729751587
vt 0.074959002435207367 0.74254199862480164
vt 0.55225801467895508 0.69798099994659424
vt 0.025026999413967133 0.74672898650169373
vt 0.0938820019364357 0.98074300028383732
vt 0.030601000413298607 0.92710199952125549
vt 0.79007697105407715 0.67429700493812561
vt 0.9735490083694458 0.41443502902984619
vt 0.97256499528884888 0.45403802394866943
vt 0.57475900650024414 0.93506199866533279
vt 0.33762699365615845 0.95826699957251549
vt 0.96404701471328735 0.19874101877212524
vt 0.9628710150718689 0.17598998546600342
vt 0.90820902585983276 0.005997002124786377
vt 0.98125600814819336 0.65742900967597961
vt 0.98828798532485962 0.839916005730629
vt 0.96069598197937012 0.12154597043991089
vt 0.95552802085876465 0.0010200142860412598
vt 0.81209897994995117 0.9124239981174469
vt 0.032395001500844955 0.98580100014805794
vt 0.080142997205257416 0.997931000078097
vt 0.032756999135017395 0.99819099996238947
vt 0.032777998596429825 0.99898000003304332
vt 0.0956450030207634 0.99712399998679757
vt 0.34050500392913818 0.987211000174284
vt 0.31291699409484863 0.98834700044244528
vt 0.539376974105835 0.97834499925374985
vt 0.57887697219848633 0.97653600014746189
vt 0.81716001033782959 0.966389000415802
vt 0.622573971748352 0.97461199946701527
vt 0.99221599102020264 0.9594460017979145
vt 0.99052697420120239 0.89621900022029877
vt 0.99306201934814453 0.95842700079083443
vt 0.99310302734375 0.95941200107336044
vn -0.050335001200437546 0.9947739839553833 0.088831998407840729
vn -0.05943400040268898 0.98988097906112671 0.12885099649429321
vn -0.06497800350189209 0.98990201950073242 0.12598599493503571
vn 0.030162999406456947 0.999538004398346 0.0037990000564604998
vn -0.027160000056028366 0.99712198972702026 0.070776000618934631
vn 0.012927999719977379 0.99941998720169067 0.031516000628471375
vn -0.064799003303051 0.99364697933197021 0.092013001441955566
vn -0.0811379998922348 0.99255400896072388 0.090842001140117645
vn -0.078115001320838928 0.99157798290252686 0.10330499708652496
vn -0.0028580001089721918 0.99038201570510864 0.13833199441432953
vn 0.066600002348423 0.98944699764251709 0.1286810040473938
vn -0.0030950000509619713 0.99084097146987915 0.13499900698661804
vn 0.060988999903202057 0.98899197578430176 0.13481399416923523
vn 0.082235001027584076 0.99035400152206421 0.11151599884033203
vn 0.083618000149726868 0.98645597696304321 0.14111299812793732
vn 0.0443819984793663 0.99003398418426514 0.13365499675273895
vn 0.008921000175178051 0.99967998266220093 0.023679999634623528
vn -0.023762000724673271 0.99723601341247559 0.070395998656749725
vn 0.029955999925732613 0.9963030219078064 0.080513998866081238
vn -0.073513001203536987 0.99599599838256836 0.050873000174760818
vn -0.12407699972391129 0.99084997177124023 0.053118001669645309
vn -0.019379999488592148 0.99890398979187012 0.042610999196767807
vn -0.090345002710819244 0.995352029800415 -0.033362001180648804
vn -0.058848999440670013 0.99792999029159546 -0.025946000590920448
vn -0.084905996918678284 0.99635601043701172 0.0081599997356534
vn 0.00042699999175965786 0.99946099519729614 -0.032834999263286591
vn -0.064257003366947174 0.99227297306060791 -0.10614100098609924
vn -0.0081599997356534 0.99722099304199219 -0.074046999216079712
vn -0.01586499996483326 0.99885302782058716 0.04517500102519989
vn 0.066569998860359192 0.99712401628494263 0.036214999854564667
vn 0.057523999363183975 0.99775201082229614 0.034377999603748322
vn -0.019005000591278076 0.999396026134491 -0.029100000858306885
vn -0.058729000389575958 0.99487698078155518 -0.082282997667789459
vn 0.063020996749401093 0.99764400720596313 0.02708899974822998
vn 0.062295999377965927 0.99756401777267456 0.0313740000128746
vn 0.053001999855041504 0.99821197986602783 0.027628000825643539
vn 0.027974000200629234 0.999110996723175 0.031541001051664352
vn 0.036637000739574432 0.99807202816009521 0.050090998411178589
vn 0.062540002167224884 0.99738502502441406 0.036226000636816025
vn 0.062541000545024872 0.99738502502441406 0.036226000636816025
vn -0.00204299995675683 0.99927902221679688 0.037918001413345337
vn -0.027377000078558922 0.99402099847793579 -0.10569799691438675
vn -0.026102999225258827 0.98844999074935913 -0.14928099513053894
vn -0.029713999480009079 0.98786097764968872 -0.15246999263763428
vn -0.029713999480009079 0.98785901069641113 -0.15248699486255646
vn -0.065785996615886688 0.98827898502349854 -0.13775399327278137
vn -0.036421999335289 0.99554699659347534 -0.086943000555038452
vn -0.096727997064590454 0.98784297704696655 -0.12169499695301056
vn -0.013686999678611755 0.99633598327636719 -0.08442399650812149
vn 0.035898000001907349 0.99641001224517822 -0.076667003333568573
vn 0.0041260002180933952 0.999334990978241 0.036233000457286835
vn -0.0082510001957416534 0.99990701675415039 0.01090100035071373
vn 0.043278001248836517 0.99831801652908325 0.038577999919652939
vn 0.038966000080108643 0.99839997291564941 0.040984001010656357
vn 0.042693998664617538 0.99836301803588867 0.038052000105381012
vn 0.056024998426437378 0.99717402458190918 0.050046999007463455
f 1/1/1 2/2/2 3/3/3
f 4/4/4 5/5/5 6/6/6
f 7/7/7 8/8/8 9/9/9
f 10/10/10 11/11/11 12/12/12
f 10/10/10 13/13/13 11/11/11
f 14/14/14 12/12/12 11/11/11
f 14/14/14 15/15/15 12/12/12
f 15/15/15 16/16/16 12/12/12
f 17/17/17 18/18/18 19/19/19
f 12/12/12 19/19/19 18/18/18
f 12/12/12 16/16/16 19/19/19
f 3/3/3 18/18/18 20/20/20
f 18/18/18 3/3/3 12/12/12
f 20/20/20 21/21/21 9/9/9
f 20/20/20 9/9/9 3/3/3
f 7/7/7 6/6/6 5/5/5
f 7/7/7 9/9/9 6/6/6
f 9/9/9 22/22/22 6/6/6
f 8/8/8 3/3/3 9/9/9
f 8/8/8 1/1/1 3/3/3
f 20/20/20 18/18/18 23/23/23
f 23/23/23 18/18/18 24/24/24
f 20/20/20 23/23/23 21/21/21
f 21/21/21 23/23/23 25/25/25
f 26/26/26 27/27/27 24/24/24
f 26/26/26 28/28/28 27/27/27
f 22/22/22 25/25/25 29/29/29
f 25/25/25 22/22/22 21/21/21
f 30/30/30 29/29/29 31/31/31
f 30/30/30 22/22/22 29/29/29
f 23/23/23 32/32/32 25/25/25
f 9/9/9 21/21/21 22/22/22
f 24/24/24 33/33/33 23/23/23
f 34/34/34 6/6/6 22/22/22
f 34/34/34 35/35/35 6/6/6
f 26/26/26 18/18/18 17/17/17
f 26/26/26 24/24/24 18/18/18
f 2/2/2 12/12/12 3/3/3
f 2/2/2 10/10/10 12/12/12
f 36/36/36 4/4/4 6/6/6
f 30/30/30 34/34/34 22/22/22
f 37/37/37 29/29/29 38/38/38
f 37/37/37 31/31/31 29/29/29
f 35/35/35 36/36/36 6/6/6
f 35/35/35 39/39/39 36/36/36
f 39/39/39 40/40/40 36/36/36
f 25/25/25 41/41/41 29/29/29
f 42/42/42 27/27/27 28/28/28
f 42/42/42 43/43/43 27/27/27
f 42/42/42 44/44/44 43/43/43
f 44/44/44 45/45/45 43/43/43
f 46/46/46 27/27/27 43/43/43
f 47/47/47 33/33/33 48/48/48
f 46/46/46 33/33/33 27/27/27
f 46/46/46 48/48/48 33/33/33
f 49/49/49 50/50/50 32/32/32
f 47/47/47 32/32/32 33/33/33
f 47/47/47 49/49/49 32/32/32
f 32/32/32 41/41/41 25/25/25
f 32/32/32 51/51/51 41/41/41
f 32/32/32 52/52/52 51/51/51
f 23/23/23 33/33/33 32/32/32
f 52/52/52 32/32/32 50/50/50
f 53/53/53 41/41/41 51/51/51
f 53/53/53 54/54/54 41/41/41
f 53/53/53 55/55/55 54/54/54
f 24/24/24 27/27/27 33/33/33
f 55/55/55 53/53/53 56/56/56
f 38/38/38 41/41/41 54/54/54
f 38/38/38 29/29/29 41/41/41
