mtllib m1222300.mtl
usemtl material0
v 148.98671007156372 0.7849239706993103 96
v 148.81678819656372 0.80600202083587646 96
v 148.99519300460815 0.78378802537918091 96.160690307617188
v 140.99417090415955 2.2009859085083008 96
v 140.38355994224548 2.2448201179504395 96
v 141.02479600906372 2.2300031185150146 96.5770263671875
v 128 1.7014620304107666 98.384246826171875
v 129.05558776855469 1.6547119617462158 97.210891723632812
v 128 1.6824849843978882 97.266548156738281
v 128 1.7582290172576904 96
v 128.99203491210938 1.7289990186691284 96
v 128 1.7140250205993652 96.739151000976562
v 131.93968200683594 2.4657518863677979 96
v 133.04939270019531 2.6688940525054932 96.9968032836914
v 128 1.745061993598938 101.26622772216797
v 129.26641845703125 1.7092609405517578 101.199462890625
v 128 2.0878520011901855 105.26502180099487
v 128 2.1653730869293213 106.83081817626953
v 129.47880554199219 2.0748341083526611 105.1869740486145
v 128 1.8436369895935059 102.60734558105469
v 133.46968078613281 2.4977180957794189 104.97489881515503
v 129.69049072265625 2.3012459278106689 109.17495703697205
v 128 2.3032960891723633 109.26422095298767
v 141.44572401046753 2.1901729106903076 104.55467176437378
v 132.99661254882813 2.6382958889007568 96
v 152.06817626953125 0.27951100468635559 96
v 156.97984313964844 -0.515699028968811 96
v 157.38873291015625 -0.25746101140975952 103.72047424316406
v 149.41651916503906 0.82256901264190674 104.13806200027466
v 133.89149475097656 2.6321818828582764 112.95195001363754
v 141.86523389816284 1.8607779741287231 112.53330999612808
v 160 -0.34430798888206482 101.0646505355835
v 160 -0.3343450129032135 103.58282470703125
v 160 -0.34528499841690063 100.81793975830078
v 157.81001281738281 -0.22944000363349915 111.69788399338722
v 160 -0.50558197498321533 96
v 149.83657789230347 0.60352402925491333 112.11631800234318
v 128 2.2817060947418213 111.45349901914597
v 129.90086364746094 2.2615439891815186 113.16384899616242
v 160 -0.3419710099697113 106.07047319412231
v 128 2.2663910388946533 117.26409101486206
v 128 2.1353199481964111 119.49915313720703
v 130.11151123046875 2.2770121097564697 117.15255689620972
v 134.31071472167969 2.2471060752868652 120.93077945709229
v 128 2.2592310905456543 115.27661108970642
v 128 2.2668740749359131 113.26421403884888
v 128 2.0432150363922119 121.26467132568359
v 130.32106018066406 2.0707991123199463 121.14201354980469
v 128 2.1346170902252197 125.51821899414063
v 128 2.1550650596618652 126.46977996826172
v 134.21365356445313 1.8843050003051758 128
v 128 2.1506879329681396 128
v 134.68214416503906 1.9037489891052246 128
v 135.5482177734375 1.8089430332183838 128
v 142.28405797481537 1.3922070264816284 120.51241302490234
v 142.67681896686554 0.90209197998046875 128
v 143.14492797851563 0.83781999349594116 128
v 150.25631713867188 0.321960985660553 120.09478759765625
v 150.67034912109375 -0.31929400563240051 128
v 152.09428405761719 -0.4816020131111145 128
v 158.33821105957031 -1.1712009906768799 128
v 158.6474609375 -1.2027339935302734 127.65621185302734
v 150.74127197265625 -0.32702299952507019 128
v 158.229736328125 -0.51539802551269531 119.67636919021606
v 160 -0.31175300478935242 111.58249700069428
v 160 -0.518638014793396 117.7087550163269
v 160 -1.0249359607696533 126.15327453613281
v 160 -0.44736498594284058 119.58267211914063
v 160 -1.1004509925842285 127.58446502685547
v 158.66552734375 -1.2207579612731934 128
v 160 -1.1080729961395264 127.71999359130859
v 160 -1.1238219738006592 128
vt 0.63262897729873657 0.014074027538299561
vt 0.62755399942398071 0.014247000217437744
vt 0.6330450177192688 0.018828988075256348
vt 0.39202800393104553 0.022634983062744141
vt 0.37387898564338684 0.023173987865447998
vt 0.39337998628616333 0.039741992950439453
vt 0.0044740000739693642 0.10267698764801025
vt 0.034028999507427216 0.066348016262054443
vt 0.0028309999033808708 0.069562017917633057
vt 0.0032639999408274889 0.02983701229095459
vt 0.03269600123167038 0.030341029167175293
vt 0.0029269999358803034 0.051796972751617432
vt 0.12281200289726257 0.030246973037719727
vt 0.15706700086593628 0.060590028762817383
vt 0.00871300045400858 0.1880599856376648
vt 0.046746999025344849 0.19007402658462524
vt 0.015859000384807587 0.31304997205734253
vt 0.018409999087452888 0.35947799682617188
vt 0.059526998549699783 0.30831599235534668
vt 0.0044339997693896294 0.22771400213241577
vt 0.17815199494361877 0.296658992767334
vt 0.070294998586177826 0.42504501342773438
vt 0.020426999777555466 0.43105500936508179
vt 0.41429901123046875 0.27576202154159546
vt 0.15456600487232208 0.029510974884033203
vt 0.72519201040267944 0.010918974876403809
vt 0.87268102169036865 0.0058979988098144531
vt 0.891219973564148 0.23458200693130493
vt 0.65357202291488647 0.25487601757049561
vt 0.19906699657440186 0.532694011926651
vt 0.436616986989975 0.51188099384307861
vt 0.9664350152015686 0.15363401174545288
vt 0.96851801872253418 0.2278439998626709
vt 0.96622699499130249 0.14631998538970947
vt 0.91178798675537109 0.47062599658966064
vt 0.96222299337387085 0.0033990144729614258
vt 0.675366997718811 0.49092000722885132
vt 0.022443000227212906 0.49426597356796265
vt 0.080485999584198 0.5430850088596344
vt 0.97105497121810913 0.30158299207687378
vt 0.030122000724077225 0.66730800271034241
vt 0.03301599994301796 0.7349109947681427
vt 0.0926859974861145 0.66263800859451294
vt 0.2223840057849884 0.76970599591732025
vt 0.0272390004247427 0.60842999815940857
vt 0.024237999692559242 0.54794299602508545
vt 0.035200998187065125 0.78730100393295288
vt 0.10383299738168716 0.78075900673866272
vt 0.040562000125646591 0.91337399929761887
vt 0.041916001588106155 0.94163800030946732
vt 0.22860400378704071 0.97957899980247021
vt 0.043770000338554382 0.98698600009083748
vt 0.24249699711799622 0.97894700057804584
vt 0.26831901073455811 0.97795400023460388
vt 0.45957198739051819 0.74815800786018372
vt 0.48125100135803223 0.96995900012552738
vt 0.4952549934387207 0.96944399923086166
vt 0.69653999805450439 0.72708499431610107
vt 0.71903502941131592 0.96156400069594383
vt 0.76151502132415771 0.96009200066328049
vt 0.9477199912071228 0.95361100137233734
vt 0.95657998323440552 0.9430989995598793
vt 0.7211490273475647 0.96149000152945518
vt 0.93374502658843994 0.70631998777389526
vt 0.97663199901580811 0.46497499942779541
vt 0.983942985534668 0.64596500992774963
vt 0.99470502138137817 0.89650999754667282
vt 0.98614501953125 0.701541006565094
vt 0.9966539740562439 0.93897299841046333
vt 0.95753401517868042 0.9532799981534481
vt 0.99683797359466553 0.94299500063061714
vt 0.997169017791748 0.95131599903106689
vn 0.14184999465942383 0.98988801240921021 -0.0004889999981969595
vn 0.16323299705982208 0.9855620265007019 -0.0449800007045269
vn 0.15889100730419159 0.98713499307632446 -0.017831999808549881
vn 0.122018001973629 0.9909290075302124 -0.056306999176740646
vn 0.057447999715805054 0.9976159930229187 -0.038224998861551285
vn 0.11661499738693237 0.99279999732971191 -0.027363000437617302
vn 0.026978999376296997 0.99951499700546265 -0.015552000142633915
vn -0.10877499729394913 0.99364197254180908 0.029048999771475792
vn 0.027355000376701355 0.99942398071289062 0.020096000283956528
vn 0.029397999867796898 0.99778497219085693 0.059670001268386841
vn -0.10333099961280823 0.992434024810791 0.066307999193668365
vn 0.029397999867796898 0.99778497219085693 0.059670999646186829
vn -0.22354300320148468 0.97338497638702393 0.050494998693466187
vn -0.083066001534461975 0.99653297662734985 0.00459699984639883
vn 0.025847999379038811 0.99864298105239868 -0.04521699994802475
vn -0.08771900087594986 0.99577099084854126 -0.027305999770760536
vn 0.005098000168800354 0.99754899740219116 -0.069779001176357269
vn 7.6999996963422745E-05 0.99848997592926025 -0.054924998432397842
vn -0.05293000116944313 0.99612802267074585 -0.0701960027217865
vn 0.0086770001798868179 0.99614697694778442 -0.0872730016708374
vn -0.0356689989566803 0.99933600425720215 -0.0074860001914203167
vn -0.041749000549316406 0.99893701076507568 -0.019530000165104866
vn 3.7000001611886546E-05 0.9997519850730896 -0.022260000929236412
vn 0.10524900257587433 0.99428600072860718 0.01781499944627285
vn -0.0579800009727478 0.997937023639679 -0.027563000097870827
vn 0.1597210019826889 0.98631900548934937 -0.0408019982278347
vn 0.081036001443862915 0.99600100517272949 -0.037606000900268555
vn 0.081910997629165649 0.99653702974319458 -0.014318999834358692
vn 0.14917799830436707 0.98881000280380249 0.00070099998265504837
vn 0.01233300007879734 0.99985402822494507 0.011854999698698521
vn 0.12191300094127655 0.99193602800369263 0.034643001854419708
vn 0.029221000149846077 0.9995650053024292 -0.0039550000801682472
vn 0.029401000589132309 0.999567985534668 -0.00056299997959285975
vn 0.0042489999905228615 0.999642014503479 -0.026424000039696693
vn 0.075517997145652771 0.99701797962188721 0.015910999849438667
vn -0.0033480001147836447 0.99944102764129639 -0.033252999186515808
vn 0.13013899326324463 0.9910770058631897 0.028829000890254974
vn 0.0021349999587982893 0.99995297193527222 0.0094159999862313271
vn -0.045724999159574509 0.99893498420715332 0.0062279999256134033
vn 0.035222001373767853 0.99937397241592407 -0.0031989999115467072
vn -0.0035210000351071358 0.99958699941635132 0.028528999537229538
vn -0.0074410000815987587 0.99853497743606567 0.053598001599311829
vn -0.028952000662684441 0.99905800819396973 0.032331999391317368
vn 0.03295300155878067 0.9982870221138 0.048335999250411987
vn -0.0033019999973475933 0.99999302625656128 -0.0018759999657049775
vn 0.0031169999856501818 0.99997800588607788 0.0059210001491010189
vn -0.011138999834656715 0.99983900785446167 0.014076000079512596
vn -0.01586499996483326 0.999360978603363 0.032040998339653015
vn -0.013016000390052795 0.99968498945236206 -0.021482000127434731
vn 0.035533998161554337 0.99936801195144653 -0.00032600000849924982
vn -0.013143000192940235 0.99931401014328 0.034634999930858612
vn 0.042830999940633774 0.99907797574996948 0.0028580001089721918
vn 0.036322999745607376 0.99825400114059448 0.046576999127864838
vn 0.11333400011062622 0.99245798587799072 0.046718001365661621
vn 0.12722599506378174 0.99062097072601318 0.049832001328468323
vn 0.1310809999704361 0.98967897891998291 0.057906001806259155
vn 0.14002199470996857 0.98823797702789307 0.061471998691558838
vn 0.12304899841547012 0.99117302894592285 0.049339000135660172
vn 0.12897500395774841 0.98892301321029663 0.073463998734951019
vn 0.11309999972581863 0.99050098657608032 0.078207001090049744
vn 0.12039899826049805 0.99257498979568481 0.01726200059056282
vn 0.029512999579310417 0.9978790283203125 0.05801599845290184
vn 0.10940399765968323 0.99108797311782837 0.0759970024228096
vn 0.045731998980045319 0.99778300523757935 0.048340998589992523
vn 0.038265001028776169 0.99917697906494141 0.013477000407874584
vn 0.020729999989271164 0.99963998794555664 0.01700500026345253
vn -0.042695000767707825 0.99592798948287964 0.079396001994609833
vn -0.037195000797510147 0.99905097484588623 0.022667000070214272
vn -0.072437003254890442 0.99589800834655762 0.054216001182794571
vn 0.034991998225450516 0.99811100959777832 0.050489999353885651
vn -0.072334997355937958 0.9958069920539856 0.056007001549005508
vn -0.072336003184318542 0.9958069920539856 0.056007001549005508
f 1/1/1 2/2/2 3/3/3
f 4/4/4 5/5/5 6/6/6
f 7/7/7 8/8/8 9/9/9
f 10/10/10 8/8/8 11/11/11
f 10/10/10 12/12/12 8/8/8
f 12/12/12 9/9/9 8/8/8
f 13/13/13 8/8/8 14/14/14
f 13/13/13 11/11/11 8/8/8
f 8/8/8 15/15/15 16/16/16
f 8/8/8 7/7/7 15/15/15
f 17/17/17 18/18/18 19/19/19
f 17/17/17 16/16/16 20/20/20
f 17/17/17 19/19/19 16/16/16
f 16/16/16 19/19/19 21/21/21
f 19/19/19 22/22/22 21/21/21
f 23/23/23 19/19/19 18/18/18
f 23/23/23 22/22/22 19/19/19
f 15/15/15 20/20/20 16/16/16
f 14/14/14 8/8/8 16/16/16
f 6/6/6 14/14/14 24/24/24
f 25/25/25 13/13/13 14/14/14
f 26/26/26 1/1/1 3/3/3
f 4/4/4 3/3/3 2/2/2
f 4/4/4 6/6/6 3/3/3
f 27/27/27 3/3/3 28/28/28
f 27/27/27 26/26/26 3/3/3
f 25/25/25 6/6/6 5/5/5
f 25/25/25 14/14/14 6/6/6
f 3/3/3 6/6/6 29/29/29
f 21/21/21 22/22/22 30/30/30
f 14/14/14 21/21/21 24/24/24
f 6/6/6 24/24/24 29/29/29
f 21/21/21 31/31/31 24/24/24
f 32/32/32 28/28/28 33/33/33
f 32/32/32 34/34/34 28/28/28
f 29/29/29 28/28/28 3/3/3
f 28/28/28 29/29/29 35/35/35
f 36/36/36 28/28/28 34/34/34
f 36/36/36 27/27/27 28/28/28
f 24/24/24 37/37/37 29/29/29
f 21/21/21 14/14/14 16/16/16
f 38/38/38 22/22/22 23/23/23
f 38/38/38 39/39/39 22/22/22
f 33/33/33 28/28/28 40/40/40
f 41/41/41 42/42/42 43/43/43
f 30/30/30 39/39/39 43/43/43
f 39/39/39 30/30/30 22/22/22
f 30/30/30 43/43/43 44/44/44
f 41/41/41 39/39/39 45/45/45
f 41/41/41 43/43/43 39/39/39
f 46/46/46 45/45/45 39/39/39
f 43/43/43 47/47/47 48/48/48
f 43/43/43 42/42/42 47/47/47
f 49/49/49 48/48/48 47/47/47
f 49/49/49 50/50/50 48/48/48
f 50/50/50 51/51/51 48/48/48
f 50/50/50 52/52/52 51/51/51
f 51/51/51 44/44/44 48/48/48
f 51/51/51 53/53/53 44/44/44
f 44/44/44 54/54/54 55/55/55
f 44/44/44 53/53/53 54/54/54
f 43/43/43 48/48/48 44/44/44
f 31/31/31 30/30/30 44/44/44
f 38/38/38 46/46/46 39/39/39
f 54/54/54 56/56/56 55/55/55
f 31/31/31 55/55/55 37/37/37
f 57/57/57 55/55/55 56/56/56
f 57/57/57 58/58/58 55/55/55
f 55/55/55 58/58/58 37/37/37
f 37/37/37 58/58/58 35/35/35
f 59/59/59 58/58/58 57/57/57
f 24/24/24 31/31/31 37/37/37
f 60/60/60 61/61/61 62/62/62
f 63/63/63 58/58/58 59/59/59
f 63/63/63 64/64/64 58/58/58
f 63/63/63 62/62/62 64/64/64
f 63/63/63 60/60/60 62/62/62
f 65/65/65 64/64/64 66/66/66
f 65/65/65 35/35/35 64/64/64
f 67/67/67 64/64/64 62/62/62
f 67/67/67 68/68/68 64/64/64
f 66/66/66 64/64/64 68/68/68
f 67/67/67 62/62/62 69/69/69
f 40/40/40 35/35/35 65/65/65
f 40/40/40 28/28/28 35/35/35
f 61/61/61 70/70/70 62/62/62
f 69/69/69 62/62/62 71/71/71
f 71/71/71 70/70/70 72/72/72
f 71/71/71 62/62/62 70/70/70
f 58/58/58 64/64/64 35/35/35
f 29/29/29 37/37/37 35/35/35
f 44/44/44 55/55/55 31/31/31
f 21/21/21 30/30/30 31/31/31
