mtllib m1222012.mtl
usemtl material0
v 64 1.198322057723999 196.64469909667969
v 64 1.0616600513458252 199.07687377929688
v 66.296417236328125 0.94315099716186523 196.52423095703125
v 64 0.4115540087223053 212.64663696289063
v 64 0.43194800615310669 215.96673583984375
v 67.134284973144531 0.049068998545408249 212.48225402832031
v 64 0.34536400437355042 220.64659118652344
v 64.370376586914062 0.11593499779701233 224
v 67.554397583007812 -0.158501997590065 220.46046352386475
v 64 0.1821260005235672 223.75848388671875
v 64 0.16945700347423554 224
v 64 0.62229102849960327 207.52154499292374
v 66.715003967285156 0.42654100060462952 204.50347900390625
v 64 0.73521202802658081 204.64588904380798
v 64 1.3404660224914551 193.57846069335938
v 66.058783531188965 1.1798670291900635 192
v 64 1.413640022277832 192
v 70.3670654296875 1.0374319553375244 192
v 74.272118091583252 0.56546401977539062 196.10423278808594
v 74.056900024414062 0.84975999593734741 192
v 77.964644908905029 0.52810698747634888 192
v 74.689849853515625 -0.12497200071811676 204.08407592773438
v 75.107573986053467 -0.81737899780273438 212.06391906738281
v 71.9675521850586 -0.60815697908401489 224
v 75.528168201446533 -0.9268069863319397 220.04179382324219
v 67.741043090820312 -0.19947899878025055 224
v 82.664840936660767 -0.64622998237609863 203.66456604003906
v 83.084000110626221 -1.0461620092391968 211.64341688156128
v 75.737061023712158 -0.93968397378921509 224
v 82.245574951171875 -0.26633599400520325 195.68577575683594
v 79.5650329887867 -1.1664689779281616 224
v 83.503402948379517 -1.39923894405365 219.62211608886719
v 82.0527880191803 0.08254300057888031 192
v 90.221855163574219 -0.52638798952102661 195.265380859375
v 90.641853332519531 -0.75735801458358765 203.24366807937622
v 85.561913013458252 -0.14648200571537018 192
v 90.050591468811035 -0.30818799138069153 192
v 93.16009521484375 -0.34012401103973389 192
v 96 -0.39329901337623596 194.9598388671875
v 96 -0.46335199475288391 197.28884887695313
v 96 -0.81347298622131348 205.73368811607361
v 91.06170654296875 -1.0171560049057007 211.2220458984375
v 96 -0.7224770188331604 202.96061706542969
v 83.734282970428467 -1.4445619583129883 224
v 87.162926197052 -1.5062010288238525 224
v 91.480270385742188 -1.538686990737915 219.20130920410156
v 91.732368469238281 -1.7792390584945679 224
v 96 -1.0551300048828125 210.9613950252533
v 96 -1.2635170221328735 214.17832899093628
v 96 -1.4390079975128174 218.96232604980469
v 94.761062622070312 -1.7206339836120606 224
v 96 -1.6262420415878296 222.62315368652344
v 96 -0.34152901172637939 193.60215759277344
v 96 -0.28043800592422485 192
v 96 -1.713454008102417 224
vt 0.81495398283004761 0.00993800163269043
vt 0.742579996585846 0.012939989566802979
vt 0.8209499716758728 0.0784749984741211
vt 0.33893099427223206 0.029295980930328369
vt 0.24026300013065338 0.032676994800567627
vt 0.34710699319839478 0.1230120062828064
vt 0.10117600113153458 0.037795007228851318
vt 0.0017989999614655972 0.053125977516174316
vt 0.11042699962854385 0.14439600706100464
vt 0.0085979998111724854 0.041701972484588623
vt 0.0014130000490695238 0.042005002498626709
vt 0.49133598804473877 0.023239016532897949
vt 0.58392202854156494 0.10091298818588257
vt 0.5768439769744873 0.019860029220581055
vt 0.90615302324295044 0.0062569975852966309
vt 0.95526498556137085 0.065936028957366943
vt 0.95310097932815552 0.0043619871139526367
vt 0.96025997400283813 0.1940159797668457
vt 0.84268301725387573 0.31523299217224121
vt 0.96463698148727417 0.30367398262023926
vt 0.96891897916793823 0.42018699645996094
vt 0.60527700185775757 0.33798199892044067
vt 0.36788299679756165 0.36091500520706177
vt 0.0098789995536208153 0.27991902828216553
vt 0.13124500215053558 0.38201099634170532
vt 0.005439000204205513 0.15373498201370239
vt 0.6265299916267395 0.5750029981136322
vt 0.38989898562431335 0.59750199317932129
vt 0.013837999664247036 0.39236998558044434
vt 0.86336201429367065 0.553041011095047
vt 0.01810000091791153 0.5065540075302124
vt 0.15254999697208405 0.61894500255584717
vt 0.97308802604675293 0.54243999719619751
vt 0.88497602939605713 0.78968800604343414
vt 0.64831900596618652 0.81155399978160858
vt 0.97708702087402344 0.646930992603302
vt 0.98200398683547974 0.78066100180149078
vt 0.98557800054550171 0.87318100035190582
vt 0.90096402168273926 0.96104399859905243
vt 0.831732988357544 0.96378400176763535
vt 0.58144098520278931 0.97383099980652332
vt 0.412075012922287 0.83401599526405334
vt 0.663034975528717 0.97042500041425228
vt 0.022717000916600227 0.63071799278259277
vt 0.026727000251412392 0.73281300067901611
vt 0.17433799803256989 0.85550500452518463
vt 0.031893998384475708 0.868830993771553
vt 0.42596599459648132 0.980409000068903
vt 0.32920300960540771 0.98377900011837482
vt 0.18696999549865723 0.98952700011432171
vt 0.035661999136209488 0.95882799848914146
vt 0.078157000243663788 0.99397700000554323
vt 0.941332995891571 0.9594539999961853
vt 0.98897099494934082 0.95757700130343437
vt 0.037167001515626907 0.99563799984753132
vn 0.11293700337409973 0.99229097366333008 0.051020998507738113
vn 0.11516399681568146 0.99167698621749878 0.057564999908208847
vn 0.07992900162935257 0.99523401260375977 0.055863000452518463
vn 0.11572899669408798 0.99314200878143311 0.016609000042080879
vn 0.13503000140190125 0.99076199531555176 0.012593000195920467
vn 0.11141099780797958 0.99325102567672729 0.032242000102996826
vn 0.1420930027961731 0.98921298980712891 0.035585001111030579
vn 0.12965799868106842 0.990759015083313 0.0398159995675087
vn 0.11457400023937225 0.99326801300048828 0.017093999311327934
vn 0.14282800257205963 0.98838901519775391 0.051846999675035477
vn 0.14282900094985962 0.98838901519775391 0.051846001297235489
vn 0.11643099784851074 0.99237799644470215 0.040373999625444412
vn 0.091186001896858215 0.99440199136734009 0.053392000496387482
vn 0.11533100157976151 0.99215400218963623 0.048269998282194138
vn 0.11270499974489212 0.992563009262085 0.0460130013525486
vn 0.074331998825073242 0.99606698751449585 0.048211999237537384
vn 0.11270499974489212 0.992563009262085 0.0460130013525486
vn 0.045960001647472382 0.99700897932052612 0.062128998339176178
vn 0.078744001686573029 0.994163990020752 0.073738999664783478
vn 0.065718002617359161 0.99568498134613037 0.065523996949195862
vn 0.10096199810504913 0.99152100086212158 0.081808999180793762
vn 0.080438002943992615 0.9941449761390686 0.0721450001001358
vn 0.073554001748561859 0.99636298418045044 0.043026000261306763
vn 0.093947000801563263 0.99556797742843628 0.0043629999272525311
vn 0.073188997805118561 0.9972730278968811 0.0094489995390176773
vn 0.094757996499538422 0.99547898769378662 0.0065279998816549778
vn 0.039870999753475189 0.99800699949264526 0.048921998590230942
vn 0.02062699943780899 0.99898499250411987 0.040043000131845474
vn 0.072904996573925018 0.99733901023864746 -0.00060299999313429
vn 0.070208996534347534 0.99518400430679321 0.068402998149394989
vn 0.061115998774766922 0.99812901020050049 0.0019099999917671084
vn 0.037969999015331268 0.99891400337219238 0.027011999860405922
vn 0.0872339978814125 0.99217301607131958 0.089351996779441834
vn 0.0085739996284246445 0.99890601634979248 0.045967999845743179
vn 0.0012959999730810523 0.99938899278640747 0.034928999841213226
vn 0.043685000389814377 0.99646800756454468 0.0717099979519844
vn 0.023528000339865685 0.99757999181747437 0.065425999462604523
vn -0.012653999961912632 0.99888002872467041 0.045591998845338821
vn -0.021205000579357147 0.999189019203186 0.034214001148939133
vn -0.017388999462127686 0.99928098917007446 0.033691000193357468
vn -0.0013020000187680125 0.99935400485992432 0.035916000604629517
vn 0.0054029999300837517 0.99884498119354248 0.047745998948812485
vn -0.0044220001436769962 0.99921202659606934 0.039434999227523804
vn 0.041453998535871506 0.9991070032119751 0.008156999945640564
vn 0.0290949996560812 0.99938797950744629 0.0194109994918108
vn 0.0089520001783967018 0.99878299236297607 0.048510000109672546
vn 0.018803000450134277 0.99861800670623779 0.049072001129388809
vn 0.010586000047624111 0.99842500686645508 0.055101998150348663
vn 0.0038189999759197235 0.99830198287963867 0.058125000447034836
vn -0.019723000004887581 0.99885398149490356 0.043614000082015991
vn -0.015706999227404594 0.99839997291564941 0.054313000291585922
vn -0.016169000416994095 0.998416006565094 0.053899001330137253
vn -0.020997000858187675 0.99905300140380859 0.038093999028205872
vn -0.020997000858187675 0.99905401468276978 0.038093999028205872
vn -0.0057830000296235085 0.99798297882080078 0.063215002417564392
f 1/1/1 2/2/2 3/3/3
f 4/4/4 5/5/5 6/6/6
f 7/7/7 8/8/8 9/9/9
f 7/7/7 10/10/10 8/8/8
f 10/10/10 11/11/11 8/8/8
f 12/12/12 13/13/13 14/14/14
f 1/1/1 3/3/3 15/15/15
f 15/15/15 16/16/16 17/17/17
f 15/15/15 3/3/3 16/16/16
f 16/16/16 3/3/3 18/18/18
f 19/19/19 3/3/3 13/13/13
f 18/18/18 19/19/19 20/20/20
f 18/18/18 3/3/3 19/19/19
f 20/20/20 19/19/19 21/21/21
f 19/19/19 13/13/13 22/22/22
f 14/14/14 3/3/3 2/2/2
f 14/14/14 13/13/13 3/3/3
f 7/7/7 6/6/6 5/5/5
f 7/7/7 9/9/9 6/6/6
f 6/6/6 9/9/9 23/23/23
f 9/9/9 24/24/24 25/25/25
f 9/9/9 26/26/26 24/24/24
f 26/26/26 9/9/9 8/8/8
f 23/23/23 22/22/22 6/6/6
f 22/22/22 23/23/23 27/27/27
f 23/23/23 25/25/25 28/28/28
f 25/25/25 23/23/23 9/9/9
f 13/13/13 6/6/6 22/22/22
f 29/29/29 25/25/25 24/24/24
f 30/30/30 19/19/19 22/22/22
f 4/4/4 13/13/13 12/12/12
f 4/4/4 6/6/6 13/13/13
f 31/31/31 25/25/25 29/29/29
f 31/31/31 32/32/32 25/25/25
f 21/21/21 30/30/30 33/33/33
f 21/21/21 19/19/19 30/30/30
f 23/23/23 28/28/28 27/27/27
f 30/30/30 27/27/27 34/34/34
f 27/27/27 28/28/28 35/35/35
f 25/25/25 32/32/32 28/28/28
f 36/36/36 33/33/33 30/30/30
f 22/22/22 27/27/27 30/30/30
f 34/34/34 36/36/36 30/30/30
f 34/34/34 37/37/37 36/36/36
f 37/37/37 34/34/34 38/38/38
f 35/35/35 39/39/39 34/34/34
f 35/35/35 40/40/40 39/39/39
f 35/35/35 34/34/34 27/27/27
f 41/41/41 35/35/35 42/42/42
f 41/41/41 43/43/43 35/35/35
f 35/35/35 28/28/28 42/42/42
f 44/44/44 32/32/32 31/31/31
f 45/45/45 32/32/32 44/44/44
f 45/45/45 46/46/46 32/32/32
f 45/45/45 47/47/47 46/46/46
f 46/46/46 48/48/48 42/42/42
f 46/46/46 49/49/49 48/48/48
f 50/50/50 51/51/51 52/52/52
f 50/50/50 46/46/46 51/51/51
f 46/46/46 47/47/47 51/51/51
f 32/32/32 46/46/46 42/42/42
f 28/28/28 32/32/32 42/42/42
f 39/39/39 38/38/38 34/34/34
f 39/39/39 53/53/53 38/38/38
f 53/53/53 54/54/54 38/38/38
f 48/48/48 41/41/41 42/42/42
f 50/50/50 49/49/49 46/46/46
f 55/55/55 52/52/52 51/51/51
f 43/43/43 40/40/40 35/35/35
