mtllib m1222222110.mtl
usemtl material0
v 24.399333953857422 0.68075597286224365 28
v 24 0.72651398181915283 28.763818979263306
v 24.438616037368774 0.71611398458480835 28.740689992904663
v 24 0.70535498857498169 28.330736041069031
v 24.155143976211548 0.68591701984405518 28
v 24 0.69762200117111206 28.172461986541748
v 24 0.6738010048866272 28
v 25.398741006851196 0.56925702095031738 28
v 25.435275971889496 0.60751402378082275 28.688403964042664
v 25.104804992675781 0.60034197568893433 28
v 26.054581001400948 0.57744801044464111 28
v 25.488062024116516 0.63655400276184082 29.685492008924484
v 24 0.70599400997161865 29.295979022979736
v 24.491062045097351 0.67630797624588013 29.73801401257515
v 24 0.65749901533126831 30.283778995275497
v 24 0.68771100044250488 29.763909995555878
v 24 0.64225101470947266 30.764023005962372
v 24.543548941612244 0.64480197429656982 30.735311985015869
v 25.540773004293442 0.65045702457427979 30.682632029056549
v 26.485886007547379 0.76427698135375977 29.632394999265671
v 24 0.58305102586746216 31.9823340177536
v 26.432871013879776 0.68836301565170288 28.635468006134033
v 25.940797999501228 0.58086198568344116 32
v 25.610004007816315 0.589169979095459 32
v 26.537856996059418 0.62779200077056885 30.630052983760834
v 25.261232018470764 0.58805298805236816 32
v 24 0.582211971282959 32
v 27.430938959121704 0.8658900260925293 28.582198977470398
v 27.954707980155945 0.84506601095199585 28
v 27.39957594871521 0.74279797077178955 28
v 27.482555031776428 0.65714097023010254 29.580103009939194
v 27.004565954208374 0.66829502582550049 28
v 26.398910999298096 0.60759001970291138 28
v 28 0.81336498260498047 28.55231499671936
v 28 0.72105902433395386 29.005105972290039
v 27.534958004951477 0.60854500532150269 30.57745897769928
v 27.315783023834229 0.64072102308273315 32
v 27.610190987586975 0.6353449821472168 32
v 28 0.63963502645492554 30.552802979946136
v 28 0.65220397710800171 31.376405954360962
v 27.88955295085907 0.65424799919128418 32
v 28 0.65785300731658936 31.746539950370789
v 28 0.69882297515869141 29.552646994590759
v 28 0.67199301719665527 30.060704998672009
v 28 0.82884699106216431 28.240265011787415
v 28 0.8407670259475708 28
v 28 0.66409999132156372 32
vt 0.029632000252604485 0.90303000062704086
vt 0.217399001121521 0.99317800020799041
vt 0.20815899968147278 0.88755899667739868
vt 0.1128230020403862 0.996682999888435
vt 0.031667999923229218 0.96193499863147736
vt 0.074605002999305725 0.99796400009654462
vt 0.032618999481201172 0.99947600002633408
vt 0.0201409999281168 0.6605440080165863
vt 0.18614499270915985 0.64629799127578735
vt 0.022908000275492668 0.73181700706481934
vt 0.015080999583005905 0.50234699249267578
vt 0.42757099866867065 0.626130998134613
vt 0.34583300352096558 0.98861000034958124
vt 0.4484190046787262 0.866345003247261
vt 0.58434998989105225 0.98006200045347214
vt 0.45876699686050415 0.98459200002253056
vt 0.70022600889205933 0.97591800056397915
vt 0.68860900402069092 0.845208004117012
vt 0.66764098405838013 0.6051349937915802
vt 0.40673500299453735 0.38393098115921021
vt 0.99438399076461792 0.96541000157594681
vt 0.16775600612163544 0.40512901544570923
vt 0.98249799013137817 0.49776899814605713
vt 0.98513197898864746 0.57757601141929626
vt 0.64930099248886108 0.36482399702072144
vt 0.98801702260971069 0.66169199347496033
vt 0.998649001121521 0.96525600180029869
vt 0.14761599898338318 0.16100597381591797
vt 0.0013510000426322222 0.041230976581573486
vt 0.0047550001181662083 0.17740601301193237
vt 0.39111599326133728 0.14220798015594482
vt 0.010273999534547329 0.27181899547576904
vt 0.013550000265240669 0.41866999864578247
vt 0.13735899329185486 0.023312985897064209
vt 0.24883399903774262 0.020390987396240234
vt 0.631758987903595 0.12446701526641846
vt 0.971796989440918 0.16582000255584717
vt 0.96950900554656982 0.0947989821434021
vt 0.61727398633956909 0.012676000595092773
vt 0.81592702865600586 0.0057860016822814941
vt 0.96723699569702148 0.027267992496490479
vt 0.90520399808883667 0.0026900172233581543
vt 0.38134101033210754 0.017140984535217285
vt 0.504086971282959 0.014563024044036865
vt 0.061990000307559967 0.025327980518341064
vt 0.0040799998678267 0.029372990131378174
vt 0.96634799242019653 0.000523984432220459
vn 0.065719999372959137 0.99653100967407227 -0.051056001335382462
vn 0.023509999737143517 0.99971699714660645 -0.0036720000207424164
vn 0.057544000446796417 0.99820798635482788 -0.016442999243736267
vn 0.021104000508785248 0.99858599901199341 -0.048787999898195267
vn -0.0053229997865855694 0.99735599756240845 -0.072477996349334717
vn -0.0018360000103712082 0.99759000539779663 -0.0693570002913475
vn -0.077129997313022614 0.98764497041702271 -0.13641500473022461
vn 0.04821699857711792 0.99715298414230347 -0.057975001633167267
vn 0.020005000755190849 0.99843001365661621 -0.05231500044465065
vn 0.10712599754333496 0.99250602722167969 -0.058781001716852188
vn -0.0667940005660057 0.99239099025726318 -0.10343299806118012
vn -0.035558998584747314 0.999305009841919 -0.011137999594211578
vn 0.025592999532818794 0.998924970626831 0.038655001670122147
vn 0.030070999637246132 0.99883699417114258 0.037677999585866928
vn 0.0038069998845458031 0.99927598237991333 0.037863999605178833
vn 0.025760000571608543 0.99847501516342163 0.048826001584529877
vn -0.0025530001148581505 0.999180018901825 0.040419001132249832
vn 0.0020029998850077391 0.99943000078201294 0.03368699923157692
vn -0.0084300003945827484 0.99933302402496338 0.035539001226425171
vn -0.024841999635100365 0.99852198362350464 0.048349998891353607
vn -0.0042929998598992825 0.99885797500610352 0.04759100079536438
vn -0.12821799516677856 0.98688697814941406 -0.0980520024895668
vn -0.00023000000510364771 0.9994170069694519 0.034136001020669937
vn 0.011417999863624573 0.998881995677948 0.045869998633861542
vn 0.02553899958729744 0.99772202968597412 0.06243399903178215
vn -0.0036800000816583633 0.99889200925827026 0.046911001205444336
vn -0.0046239998191595078 0.99886298179626465 0.047446999698877335
vn -0.039459999650716782 0.99922102689743042 -0.00023499999952036887
vn 0.020673999562859535 0.99963897466659546 -0.0171549990773201
vn -0.17988699674606323 0.96432900428771973 -0.19419300556182861
vn 0.028991999104619026 0.99294501543045044 0.11497899889945984
vn -0.15962499380111694 0.97166997194290161 -0.17429199814796448
vn -0.092532001435756683 0.98836898803710938 -0.12068399786949158
vn 0.0975940003991127 0.98766100406646729 0.12247999757528305
vn 0.059080000966787338 0.98491299152374268 0.16265200078487396
vn -0.024445999413728714 0.99954098463058472 0.01788800023496151
vn -0.0024739999789744616 0.99996501207351685 -0.0080319996923208237
vn -0.026101000607013702 0.99950700998306274 -0.01744999922811985
vn -0.0652799978852272 0.997514009475708 0.02654699981212616
vn -0.067501001060009 0.99760299921035767 -0.015224000439047813
vn -0.07537899911403656 0.99698001146316528 -0.018666999414563179
vn -0.070303000509738922 0.99738997220993042 -0.016449000686407089
vn -0.07776699960231781 0.99589598178863525 0.04629800096154213
vn -0.074083998799324036 0.99570202827453613 0.055583000183105469
vn 0.094365999102592468 0.99431401491165161 0.049332000315189362
vn 0.094365999102592468 0.99431502819061279 0.049332000315189362
vn -0.088821001350879669 0.99574500322341919 -0.024542000144720078
f 1/1/1 2/2/2 3/3/3
f 1/1/1 4/4/4 2/2/2
f 4/4/4 5/5/5 6/6/6
f 4/4/4 1/1/1 5/5/5
f 7/7/7 6/6/6 5/5/5
f 8/8/8 3/3/3 9/9/9
f 8/8/8 10/10/10 3/3/3
f 1/1/1 3/3/3 10/10/10
f 8/8/8 9/9/9 11/11/11
f 9/9/9 3/3/3 12/12/12
f 3/3/3 13/13/13 14/14/14
f 3/3/3 2/2/2 13/13/13
f 15/15/15 14/14/14 16/16/16
f 16/16/16 14/14/14 13/13/13
f 14/14/14 17/17/17 18/18/18
f 14/14/14 15/15/15 17/17/17
f 12/12/12 18/18/18 19/19/19
f 18/18/18 12/12/12 14/14/14
f 19/19/19 20/20/20 12/12/12
f 17/17/17 21/21/21 18/18/18
f 3/3/3 14/14/14 12/12/12
f 9/9/9 12/12/12 22/22/22
f 23/23/23 19/19/19 24/24/24
f 23/23/23 25/25/25 19/19/19
f 18/18/18 24/24/24 19/19/19
f 18/18/18 26/26/26 24/24/24
f 27/27/27 18/18/18 21/21/21
f 27/27/27 26/26/26 18/18/18
f 20/20/20 22/22/22 12/12/12
f 22/22/22 20/20/20 28/28/28
f 29/29/29 30/30/30 28/28/28
f 28/28/28 20/20/20 31/31/31
f 28/28/28 32/32/32 22/22/22
f 28/28/28 30/30/30 32/32/32
f 33/33/33 22/22/22 32/32/32
f 31/31/31 34/34/34 28/28/28
f 31/31/31 35/35/35 34/34/34
f 31/31/31 25/25/25 36/36/36
f 25/25/25 31/31/31 20/20/20
f 37/37/37 36/36/36 25/25/25
f 37/37/37 38/38/38 36/36/36
f 38/38/38 39/39/39 36/36/36
f 38/38/38 40/40/40 39/39/39
f 40/40/40 41/41/41 42/42/42
f 40/40/40 38/38/38 41/41/41
f 43/43/43 36/36/36 44/44/44
f 43/43/43 31/31/31 36/36/36
f 45/45/45 28/28/28 34/34/34
f 45/45/45 29/29/29 28/28/28
f 45/45/45 46/46/46 29/29/29
f 25/25/25 20/20/20 19/19/19
f 39/39/39 44/44/44 36/36/36
f 42/42/42 41/41/41 47/47/47
f 43/43/43 35/35/35 31/31/31
f 22/22/22 11/11/11 9/9/9
f 22/22/22 33/33/33 11/11/11
f 37/37/37 25/25/25 23/23/23
