mtllib m122222332.mtl
usemtl material0
v 48 1.4055789709091187 1.4920570850372315
v 48.003201007843018 1.4049769639968872 1.4949400424957275
v 48 1.4034830331802368 1.43448805809021
v 48.453087091445923 1.4108099937438965 0
v 49.998374938964844 1.5642199516296387 1.3890740871429443
v 49.924324035644531 1.4230430126190186 0
v 52.675758004188538 1.3839370012283325 0
v 53.986423015594482 1.4144469499588013 1.1789529323577881
v 53.924067974090576 1.3916480541229248 0
v 51.924629002809525 1.4925220012664795 0
v 50.565121054649353 1.47701895236969 0
v 51.993546000216156 1.7219959497451782 1.2832129001617432
v 54.787281036376953 1.3923430442810059 0
v 55.980812072753906 1.4140210151672363 1.0736360549926758
v 55.923962116241455 1.3801130056381226 0
v 48 1.4038729667663574 1.4951119422912598
v 48.107639074325562 1.2335840463638306 3.4899070262908936
v 48 1.2070310115814209 3.3932740092277527
v 48 1.3741559982299805 0
v 48.453087091445923 1.4108099937438965 0
v 48 1.3751950263977051 0.050833940505981445
v 50.102221965789795 1.2727110385894775 3.3844540119171143
v 54.092212915420532 1.517462968826294 3.172976016998291
v 56 1.413362979888916 1.0726249217987061
v 56 1.4135969877243042 1.0909030437469482
v 56 1.4126490354537964 1.0511839389801025
v 56 1.3776429891586304 0
v 56 1.4060829877853394 1.4378790855407715
v 56 1.3723499774932861 2.9908820390701294
v 48 1.2303930521011353 3.4956009984016418
v 48.213435888290405 1.3375760316848755 5.4839270114898682
v 48 1.320999026298523 5.2920299768447876
v 50.2082439661026 1.4216239452362061 5.3783199787139893
v 52.097365997731686 1.4251170158386231 3.2786120176315308
v 54.196556091308594 1.3260500431060791 5.1680129766464233
v 56 1.3768830299377441 3.0726789832115173
v 56 1.4562760591506958 4.8898749947547913
v 48 1.337986946105957 5.495197057723999
v 48.319138050079346 1.4220349788665772 7.47801399230957
v 48 1.4097839593887329 7.1909859180450439
v 52.2026289999485 1.4207110404968262 5.27300500869751
v 50.3132129907608 1.3581370115280151 7.3729159832000732
v 54.302058935165405 1.3699820041656494 7.1622390747070312
v 56 1.4382179975509644 5.0724220275878906
v 56 1.341609001159668 6.790431022644043
v 52.307716012001038 1.3806610107421875 7.2675209045410156
v 48 1.4102280139923096 7.4949049949646
v 48.346663951873779 1.4160250425338745 8
v 48 1.4044049978256226 7.928617000579834
v 48 1.4034470319747925 8
v 51.64860200881958 1.3263119459152222 8
v 50.346104025840759 1.316230058670044 8
v 54.346072912216187 1.3285529613494873 8
v 53.121494054794312 1.3382799625396729 8
v 56 1.3480019569396973 7.072645902633667
v 56 1.3326139450073242 7.8581809997558594
v 55.232964038848877 1.3405580520629883 8
v 56 1.3298360109329224 8
v 48.898845911026 1.3675609827041626 8
v 52.346340000629425 1.3715109825134277 8
vt 0.99790400266647339 0.79992400109767914
vt 0.99750602245330811 0.799576997756958
vt 0.99790400266647339 0.80691899359226227
vt 0.9428979754447937 0.98111299984157085
vt 0.75445699691772461 0.81230199337005615
vt 0.76470500230789185 0.98177300021052361
vt 0.42111200094223022 0.98207199946045876
vt 0.26640400290489197 0.834075003862381
vt 0.26960000395774841 0.97742499969899654
vt 0.52152997255325317 0.98318899981677532
vt 0.68661797046661377 0.98170300014317036
vt 0.51142102479934692 0.82500000298023224
vt 0.16590599715709686 0.97561700083315372
vt 0.024017000570893288 0.84191800653934479
vt 0.027907999232411385 0.972478000447154
vt 0.9979100227355957 0.79949900507926941
vt 0.95856499671936035 0.559240996837616
vt 0.9734799861907959 0.5690619945526123
vt 0.99809598922729492 0.98114299960434437
vt 0.9428979754447937 0.98111299984157085
vt 0.9980890154838562 0.97496999986469746
vt 0.74469202756881714 0.56730300188064575
vt 0.25914499163627625 0.59138798713684082
vt 0.021683000028133392 0.84199300408363342
vt 0.021730000153183937 0.8397739976644516
vt 0.021626999601721764 0.84459699690341949
vt 0.018672000616788864 0.97227800078690052
vt 0.022588999941945076 0.79763999581336975
vt 0.026435000821948051 0.60905501246452332
vt 0.97136801481246948 0.55649399757385254
vt 0.94918900728225708 0.31662201881408691
vt 0.97456502914428711 0.33810102939605713
vt 0.70656698942184448 0.3254389762878418
vt 0.50170397758483887 0.57990199327468872
vt 0.24884800612926483 0.34790802001953125
vt 0.026769999414682388 0.60177499055862427
vt 0.029170999303460121 0.3809170126914978
vt 0.973779022693634 0.31335699558258057
vt 0.94059097766876221 0.074077010154724121
vt 0.97823500633239746 0.10730302333831787
vt 0.46545600891113281 0.35147702693939209
vt 0.69815397262573242 0.082925021648406982
vt 0.22694900631904602 0.10496097803115845
vt 0.029389999806880951 0.35864299535751343
vt 0.030931999906897545 0.14970302581787109
vt 0.43943700194358826 0.11030000448226929
vt 0.97790199518203735 0.070399999618530273
vt 0.9383469820022583 0.010640025138854981
vt 0.97880899906158447 0.017737984657287598
vt 0.97855901718139648 0.0090730190277099609
vt 0.53225201368331909 0.015220999717712402
vt 0.69522398710250854 0.006560981273651123
vt 0.19956199824810028 0.0022469758987426758
vt 0.34781500697135925 0.013823986053466797
vt 0.0213019996881485 0.12352699041366577
vt 0.017717000097036362 0.028190016746520996
vt 0.09419800341129303 0.024574995040893555
vt 0.0019039999460801482 0.011979997158050537
vt 0.87105000019073486 0.00941997766494751
vt 0.44741401076316833 0.011904001235961914
vn 0.087719999253749847 0.99014002084732056 0.10921400040388107
vn -0.12173599749803543 0.98611599206924438 0.11293900012969971
vn -0.075521998107433319 0.99693000316619873 -0.020649999380111694
vn -0.00827299989759922 0.99488502740859985 -0.10067199915647507
vn -0.067777000367641449 0.99709200859069824 0.034828998148441315
vn -0.044557999819517136 0.99412298202514648 -0.098660998046398163
vn 0.10674899816513062 0.98378300666809082 -0.14413399994373322
vn 0.06324700266122818 0.99677902460098267 -0.04931199923157692
vn -0.0035810000263154507 0.999809980392456 -0.019145000725984573
vn 0.062954001128673553 0.98184001445770264 -0.17896099388599396
vn -0.066661998629570007 0.99112498760223389 -0.11500900238752365
vn 0.020136000588536263 0.99931997060775757 -0.030890999361872673
vn 0.0018909999635070562 0.999750018119812 -0.022288000211119652
vn 0.014220000244677067 0.99986499547958374 -0.0082069998607039452
vn 0.021247999742627144 0.999239981174469 -0.032682999968528748
vn -0.30098900198936462 0.91423302888870239 0.27126500010490417
vn -0.067813001573085785 0.99746298789978027 -0.021665999665856361
vn -0.25008198618888855 0.96814298629760742 0.012531000189483166
vn -0.080618999898433685 0.99653702974319458 -0.020371999591588974
vn -0.0806180015206337 0.99653702974319458 -0.020374000072479248
vn -0.080618999898433685 0.99653702974319458 -0.020371999591588974
vn -0.053939998149871826 0.99806898832321167 0.030804000794887543
vn 0.023378999903798103 0.99930799007415771 0.028923999518156052
vn 0.032990999519824982 0.99918198585510254 -0.023370999842882156
vn 0.010851999744772911 0.99986302852630615 0.01246699970215559
vn 0.032460998743772507 0.99891901016235352 -0.033266998827457428
vn 0.032460998743772507 0.99891901016235352 -0.033266998827457428
vn 0.0013810000382363796 0.999763011932373 0.02171500027179718
vn 0.052090000361204147 0.99803900718688965 -0.034699000418186188
vn -0.036465998739004135 0.99027597904205322 -0.13425099849700928
vn -0.016929000616073608 0.99901598691940308 -0.040984001010656357
vn -0.024335000663995743 0.99795299768447876 -0.05914200097322464
vn -0.029539000242948532 0.99952399730682373 -0.00885200034826994
vn -0.035603001713752747 0.99625301361083984 0.078818999230861664
vn -0.0077039999887347221 0.9993630051612854 0.034839998930692673
vn 0.070804998278617859 0.996258020401001 -0.049573998898267746
vn -0.022505000233650208 0.9979100227355957 0.060570001602172852
vn -0.0013589999871328473 0.99806702136993408 -0.062137000262737274
vn 0.0090699996799230576 0.99994999170303345 -0.0041240002028644085
vn -0.010116999968886375 0.99945497512817383 -0.031410999596118927
vn 0.018945999443531036 0.99980902671813965 0.004883000161498785
vn 0.0032009999267756939 0.99920099973678589 0.039841998368501663
vn 0.011552999727427959 0.99982500076293945 0.014709999784827232
vn -0.057771001011133194 0.995281994342804 0.077955998480319977
vn -0.0071740001440048218 0.99997299909591675 -0.001614999957382679
vn -0.0021170000545680523 0.99957001209259033 0.029263999313116074
vn -0.036639001220464706 0.9993090033531189 0.0062279999256134033
vn 0.027720000594854355 0.9995650053024292 0.01004599966108799
vn -0.036256998777389526 0.99925202131271362 0.013415999710559845
vn -0.036256998777389526 0.99925202131271362 0.013416999951004982
vn -0.022902000695466995 0.9983069896697998 0.053465999662876129
vn 0.013097000308334827 0.997734010219574 0.06599000096321106
vn -0.0031500000040978193 0.99876600503921509 0.049557000398635864
vn 0.016072999686002731 0.99907201528549194 0.039948999881744385
vn 0.012826000340282917 0.99991500377655029 -0.0022390000522136688
vn 0.013975000008940697 0.99971097707748413 0.019582999870181084
vn 0.007557000033557415 0.99961501359939575 0.026711000129580498
vn 0.013975000008940697 0.99971097707748413 0.019582999870181084
vn 0.047515999525785446 0.99755102396011353 0.051332000643014908
vn -0.00912300031632185 0.99987399578094482 0.01297099981456995
f 1/1/1 2/2/2 3/3/3
f 4/4/4 5/5/5 6/6/6
f 7/7/7 8/8/8 9/9/9
f 10/10/10 11/11/11 12/12/12
f 13/13/13 14/14/14 15/15/15
f 16/16/16 17/17/17 2/2/2
f 16/16/16 18/18/18 17/17/17
f 19/19/19 5/5/5 20/20/20
f 19/19/19 21/21/21 5/5/5
f 21/21/21 2/2/2 5/5/5
f 21/21/21 3/3/3 2/2/2
f 6/6/6 12/12/12 11/11/11
f 6/6/6 5/5/5 12/12/12
f 2/2/2 22/22/22 5/5/5
f 1/1/1 16/16/16 2/2/2
f 12/12/12 23/23/23 8/8/8
f 9/9/9 14/14/14 13/13/13
f 9/9/9 8/8/8 14/14/14
f 24/24/24 14/14/14 25/25/25
f 26/26/26 14/14/14 24/24/24
f 26/26/26 15/15/15 14/14/14
f 26/26/26 27/27/27 15/15/15
f 8/8/8 28/28/28 14/14/14
f 8/8/8 29/29/29 28/28/28
f 7/7/7 12/12/12 8/8/8
f 7/7/7 10/10/10 12/12/12
f 5/5/5 22/22/22 12/12/12
f 30/30/30 31/31/31 17/17/17
f 30/30/30 32/32/32 31/31/31
f 18/18/18 30/30/30 17/17/17
f 2/2/2 17/17/17 22/22/22
f 17/17/17 33/33/33 22/22/22
f 34/34/34 35/35/35 23/23/23
f 12/12/12 34/34/34 23/23/23
f 29/29/29 23/23/23 36/36/36
f 29/29/29 8/8/8 23/23/23
f 36/36/36 23/23/23 37/37/37
f 34/34/34 12/12/12 22/22/22
f 22/22/22 33/33/33 34/34/34
f 25/25/25 14/14/14 28/28/28
f 38/38/38 39/39/39 31/31/31
f 38/38/38 40/40/40 39/39/39
f 31/31/31 33/33/33 17/17/17
f 33/33/33 41/41/41 34/34/34
f 31/31/31 42/42/42 33/33/33
f 32/32/32 38/38/38 31/31/31
f 41/41/41 43/43/43 35/35/35
f 35/35/35 37/37/37 23/23/23
f 35/35/35 44/44/44 37/37/37
f 44/44/44 35/35/35 45/45/45
f 34/34/34 41/41/41 35/35/35
f 33/33/33 46/46/46 41/41/41
f 40/40/40 47/47/47 39/39/39
f 47/47/47 48/48/48 39/39/39
f 47/47/47 49/49/49 48/48/48
f 49/49/49 50/50/50 48/48/48
f 42/42/42 51/51/51 46/46/46
f 42/42/42 52/52/52 51/51/51
f 33/33/33 42/42/42 46/46/46
f 41/41/41 46/46/46 43/43/43
f 46/46/46 53/53/53 43/43/43
f 46/46/46 54/54/54 53/53/53
f 55/55/55 35/35/35 43/43/43
f 55/55/55 45/45/45 35/35/35
f 55/55/55 43/43/43 56/56/56
f 56/56/56 57/57/57 58/58/58
f 56/56/56 43/43/43 57/57/57
f 42/42/42 31/31/31 39/39/39
f 39/39/39 52/52/52 42/42/42
f 39/39/39 59/59/59 52/52/52
f 59/59/59 39/39/39 48/48/48
f 51/51/51 60/60/60 46/46/46
f 54/54/54 46/46/46 60/60/60
f 57/57/57 43/43/43 53/53/53
