mtllib m1222312.mtl
usemtl material0
v 192 0.41250899434089661 64
v 192 0.40753600001335144 65.252326965332031
v 193.12689208984375 0.49803200364112854 64
v 192 0.45821699500083923 73.698029041290283
v 195.59608459472656 0.5602869987487793 69.7012939453125
v 192 0.33280399441719055 69.89190673828125
v 195.29548645019531 0.63336199522018433 64
v 203.2984471321106 1.2469379901885986 64
v 203.57638502120972 1.1104860305786133 69.27813720703125
v 200.72653198242188 1.0736279487609863 64
v 208.32647699117661 1.8104640245437622 64
v 192 0.26863500475883484 77.891860961914062
v 196.015380859375 0.19044099748134613 77.680068969726562
v 203.99566698074341 0.73770999908447266 77.256927013397217
v 192 0.1718830019235611 85.891913890838623
v 192 -0.17774300277233124 90.587875366210938
v 196.43515014648438 -0.084210999310016632 85.658515930175781
v 192 -0.40817898511886597 93.893486022949219
v 196.85340881347656 -0.66405200958251953 93.637999534606934
v 192 0.28921398520469666 82.143265008926392
v 204.41473388671875 0.32194700837135315 85.235855102539062
v 211.5584409236908 2.0107560157775879 68.853790283203125
v 196.97781372070313 -0.72080099582672119 96
v 194.7283935546875 -0.61728399991989136 96
v 204.83282494544983 -0.29304900765419006 93.215461730957031
v 202.32719421386719 -0.479559987783432 96
v 192 -0.44299998879432678 95.094032287597656
v 192 -0.46927699446678162 96
v 211.97611999511719 1.3181619644165039 76.833672046661377
v 211.30287194252014 2.1409909725189209 64
v 215.92639207839966 2.5272879600524902 64
v 219.54161071777344 3.1356139183044434 68.428672790527344
v 219.30715942382813 3.0075030326843262 64
v 223.5260009765625 3.08003306388855 64
v 219.958984375 2.3795440196990967 76.408775091171265
v 212.39367723464966 0.59723001718521118 84.813643932342529
v 212.81083679199219 -0.2028219997882843 92.79388427734375
v 220.37303161621094 0.95501101016998291 84.3911509513855
v 212.97866821289063 -0.479543000459671 96
v 207.92588800191879 -0.51354801654815674 96
v 224 2.8331570625305176 71.918243408203125
v 224 3.1873788833618164 68.193077087402344
v 224 2.5599861145019531 76.194808959960938
v 224 1.8087810277938843 80.36167100071907
v 224 0.28794801235198975 88.804046630859375
v 220.78794860839844 -0.29376301169395447 92.3729248046875
v 224 1.0099970102310181 84.1994481086731
v 224 -0.29952099919319153 92.203323364257812
v 224 -0.45264101028442383 93.795570373535156
v 224 -0.59396398067474365 95.26513671875
v 224 3.0861411094665527 64
v 224 3.0976240634918213 64.475593566894531
v 220.97752380371094 -0.66250300407409668 96
v 216.37106323242188 -0.58548802137374878 96
v 204.9787449836731 -0.50084900856018066 96
v 224 -0.668595016002655 96
vt 0.99321901798248291 0.0034540295600891113
vt 0.95451998710632324 0.0034419894218444824
vt 0.99321901798248291 0.038376986980438232
vt 0.69345098733901978 0.0035120248794555664
vt 0.81700599193573 0.11462700366973877
vt 0.81112998723983765 0.0032789707183837891
vt 0.99321001768112183 0.10552102327346802
vt 0.993228018283844 0.35355699062347412
vt 0.83005297183990479 0.36181902885437012
vt 0.99323898553848267 0.27389997243881226
vt 0.99341702461242676 0.50990399718284607
vt 0.56372201442718506 0.0035499930381774902
vt 0.57018798589706421 0.12765997648239136
vt 0.58413702249526978 0.37479597330093384
vt 0.31644800305366516 0.0035340189933776855
vt 0.17093400657176971 0.004011988639831543
vt 0.32350799441337585 0.14090198278427124
vt 0.068536996841430664 0.00429302453994751
vt 0.076266996562480927 0.15360897779464722
vt 0.43234500288963318 0.0034549832344055176
vt 0.337240993976593 0.3877679705619812
vt 0.8455049991607666 0.60991498827934265
vt 0.0032609999179840088 0.15754300355911255
vt 0.0032480000518262386 0.087958991527557373
vt 0.089911997318267822 0.40042102336883545
vt 0.0036520001012831926 0.32301598787307739
vt 0.031422998756170273 0.0043200254440307617
vt 0.0034149999264627695 0.0042300224304199219
vt 0.597944974899292 0.62201800942420959
vt 0.99551898241043091 0.60146000981330872
vt 0.99639797210693359 0.744828999042511
vt 0.86090701818466187 0.85891599953174591
vt 0.99772000312805176 0.85000200569629669
vt 0.99924600124359131 0.98038199916481972
vt 0.61315101385116577 0.87075500190258026
vt 0.35044300556182861 0.63446900248527527
vt 0.10268499702215195 0.64698499441146851
vt 0.36278301477432251 0.88132999837398529
vt 0.0032329999376088381 0.65199100971221924
vt 0.0034250000026077032 0.49584800004959106
vt 0.75208497047424316 0.99622699990868568
vt 0.867717981338501 0.99672099994495511
vt 0.61966300010681152 0.99575900007039309
vt 0.48897799849510193 0.99463200010359287
vt 0.22538900375366211 0.99308900022879243
vt 0.11385700106620789 0.89359799772500992
vt 0.36784800887107849 0.99346499983221292
vt 0.11878900229930878 0.99287200020626187
vt 0.069358997046947479 0.99273800011724234
vt 0.023406000807881355 0.99231200013309717
vt 0.99941897392272949 0.99502900009974837
vt 0.98471897840499878 0.99520799983292818
vt 0.0011630000080913305 0.89877600222826
vt 0.002764000091701746 0.75687199831008911
vt 0.0036269999109208584 0.40495598316192627
vt 0.00058100000023841858 0.99217399954795837
vn -0.075675003230571747 0.99712502956390381 0.00395999988541007
vn -0.065407000482082367 0.99777102470397949 0.013244999572634697
vn -0.065844997763633728 0.997747004032135 0.012849000282585621
vn 0.0015839999541640282 0.99963498115539551 0.026954000815749168
vn -0.055968001484870911 0.99814802408218384 0.023834999650716782
vn -0.063616000115871429 0.99793201684951782 -0.0092129996046423912
vn -0.071231000125408173 0.99732297658920288 0.016537999734282494
vn -0.088583000004291534 0.9956049919128418 0.030403999611735344
vn -0.088354997336864471 0.99524998664855957 0.040885001420974731
vn -0.070819996297359467 0.99714899063110352 0.026053000241518021
vn -0.11058100312948227 0.99334502220153809 0.032218001782894135
vn 0.020485000684857368 0.99960297346115112 0.019329000264406204
vn -0.017760999500751495 0.999176025390625 0.036494001746177673
vn -0.0702349990606308 0.99597901105880737 0.055622000247240067
vn 0.060362000018358231 0.996749997138977 0.053355000913143158
vn 0.057381998747587204 0.99585801362991333 0.070524998009204864
vn 0.0035480000078678131 0.99841701984405518 0.05612500011920929
vn 0.055133998394012451 0.997298002243042 0.048558998852968216
vn 0.00419300002977252 0.99876397848129272 0.049525998532772064
vn 0.049926001578569412 0.99849200248718262 0.022819999605417252
vn -0.043007999658584595 0.99656099081039429 0.070826001465320587
vn -0.11133400350809097 0.99250501394271851 0.050390999764204025
vn -0.0010620000539347529 0.99971002340316772 0.024074999615550041
vn 0.051961001008749008 0.99828499555587769 0.026980999857187271
vn -0.020002000033855438 0.997003972530365 0.074712999165058136
vn -0.030884999781847 0.99875801801681519 0.03910600021481514
vn 0.054145000874996185 0.99811297655105591 0.02894899994134903
vn 0.054145000874996185 0.99811297655105591 0.02894899994134903
vn -0.093386001884937286 0.99164897203445435 0.088945001363754272
vn -0.097203999757766724 0.99475598335266113 0.0318089984357357
vn -0.12542299926280975 0.99207699298858643 -0.0072940001264214516
vn -0.073127001523971558 0.99667298793792725 0.035990998148918152
vn -0.08120100200176239 0.996396005153656 -0.024524999782443047
vn -0.014030000194907188 0.999584972858429 -0.02516699954867363
vn -0.066409997642040253 0.99011600017547607 0.1235319972038269
vn -0.0418040007352829 0.99360597133636475 0.10487499833106995
vn 0.00036400000681169331 0.99481600522995 0.10169299691915512
vn -0.017689000815153122 0.986506998538971 0.16275900602340698
vn 0.012841000221669674 0.996271014213562 0.08531700074672699
vn -0.0041330000385642052 0.99649900197982788 0.083501003682613373
vn -0.014607000164687634 0.99606001377105713 0.087472997605800629
vn -0.0098430002108216286 0.999396026134491 0.033314000815153122
vn -0.03802499920129776 0.99221301078796387 0.11860699951648712
vn -0.027532000094652176 0.982649028301239 0.18342199921607971
vn -0.0027320000808686018 0.98735898733139038 0.15847599506378174
vn 0.010629000142216682 0.99161702394485474 0.12877100706100464
vn -0.005384999793022871 0.98360699415206909 0.1802469938993454
vn 0.0088689997792243958 0.99089598655700684 0.134334996342659
vn 0.006839000154286623 0.99538499116897583 0.095721997320652008
vn 0.0032899999059736729 0.99501901865005493 0.099624998867511749
vn -0.012880999594926834 0.99962598085403442 -0.024134999141097069
vn -0.012881999835371971 0.99962598085403442 -0.024134999141097069
vn 0.0090730004012584686 0.99487900733947754 0.10066899657249451
vn 0.020013000816106796 0.99512702226638794 0.096550002694129944
vn 0.0060899998061358929 0.99723201990127563 0.074101001024246216
vn 0.0020059999078512192 0.99488097429275513 0.10103800147771835
f 1/1/1 2/2/2 3/3/3
f 4/4/4 5/5/5 6/6/6
f 3/3/3 5/5/5 7/7/7
f 3/3/3 6/6/6 5/5/5
f 3/3/3 2/2/2 6/6/6
f 8/8/8 5/5/5 9/9/9
f 8/8/8 10/10/10 5/5/5
f 7/7/7 5/5/5 10/10/10
f 8/8/8 9/9/9 11/11/11
f 5/5/5 12/12/12 13/13/13
f 5/5/5 4/4/4 12/12/12
f 5/5/5 14/14/14 9/9/9
f 15/15/15 16/16/16 17/17/17
f 14/14/14 13/13/13 17/17/17
f 13/13/13 14/14/14 5/5/5
f 17/17/17 18/18/18 19/19/19
f 17/17/17 16/16/16 18/18/18
f 15/15/15 13/13/13 20/20/20
f 15/15/15 17/17/17 13/13/13
f 12/12/12 20/20/20 13/13/13
f 19/19/19 21/21/21 17/17/17
f 22/22/22 9/9/9 14/14/14
f 23/23/23 19/19/19 24/24/24
f 23/23/23 25/25/25 19/19/19
f 23/23/23 26/26/26 25/25/25
f 27/27/27 19/19/19 18/18/18
f 27/27/27 24/24/24 19/19/19
f 27/27/27 28/28/28 24/24/24
f 21/21/21 14/14/14 17/17/17
f 14/14/14 29/29/29 22/22/22
f 30/30/30 22/22/22 31/31/31
f 32/32/32 22/22/22 29/29/29
f 31/31/31 32/32/32 33/33/33
f 31/31/31 22/22/22 32/32/32
f 33/33/33 32/32/32 34/34/34
f 32/32/32 29/29/29 35/35/35
f 21/21/21 29/29/29 14/14/14
f 25/25/25 21/21/21 19/19/19
f 21/21/21 25/25/25 36/36/36
f 36/36/36 37/37/37 38/38/38
f 21/21/21 36/36/36 29/29/29
f 36/36/36 38/38/38 35/35/35
f 37/37/37 36/36/36 25/25/25
f 35/35/35 29/29/29 36/36/36
f 39/39/39 25/25/25 40/40/40
f 39/39/39 37/37/37 25/25/25
f 41/41/41 32/32/32 35/35/35
f 41/41/41 42/42/42 32/32/32
f 11/11/11 22/22/22 30/30/30
f 11/11/11 9/9/9 22/22/22
f 41/41/41 35/35/35 43/43/43
f 38/38/38 43/43/43 35/35/35
f 38/38/38 44/44/44 43/43/43
f 45/45/45 38/38/38 46/46/46
f 45/45/45 47/47/47 38/38/38
f 44/44/44 38/38/38 47/47/47
f 45/45/45 46/46/46 48/48/48
f 46/46/46 38/38/38 37/37/37
f 49/49/49 46/46/46 50/50/50
f 49/49/49 48/48/48 46/46/46
f 51/51/51 34/34/34 52/52/52
f 52/52/52 32/32/32 42/42/42
f 52/52/52 34/34/34 32/32/32
f 53/53/53 37/37/37 54/54/54
f 53/53/53 46/46/46 37/37/37
f 54/54/54 37/37/37 39/39/39
f 40/40/40 25/25/25 55/55/55
f 56/56/56 46/46/46 53/53/53
f 56/56/56 50/50/50 46/46/46
f 55/55/55 25/25/25 26/26/26
