mtllib m122003.mtl
usemtl material0
v 64 0.94218701124191284 396.63912963867188
v 64 0.78583502769470215 401.7705078125
v 68.846839904785156 0.84207999706268311 396.38348388671875
v 64 0.98340398073196411 412.63848900794983
v 64 0.841268002986908 418.66180396080017
v 69.690681457519531 1.1589490175247192 412.3374330997467
v 64 1.8424309492111206 384.881591796875
v 64.793266296386719 1.8903440237045288 384
v 64 1.8505350351333618 384
v 64 0.25241601467132568 444.63967895507812
v 67.997299194335938 0.26308101415634155 448
v 71.37176513671875 0.45410799980163574 444.24978637695312
v 64 0.18506999313831329 447.07675170898438
v 64 0.15955600142478943 448
v 64 0.27724900841712952 435.5517578125
v 70.529586791992188 0.47478500008583069 428.29470825195312
v 64 0.40941500663757324 428.63970947265625
v 68.198028564453125 1.806272029876709 384
v 79.990524291992188 1.9687459468841553 384
v 84.805213928222656 1.4988080263137817 395.53875732421875
v 85.647003173828125 1.4001580476760864 411.49411010742188
v 86.487190246582031 0.97624301910400391 427.45053100585938
v 83.1953353881836 0.74483102560043335 448
v 87.330009460449219 1.0859349966049194 443.4051513671875
v 71.569000244140625 0.30946201086044312 448
v 84.199295043945312 2.1293280124664307 384
v 95.1874470114708 1.8786959648132324 384
v 101.60298204421997 1.5714679956436157 410.6510009765625
v 87.571601867675781 0.896340012550354 448
v 98.393599987030029 1.3372999429702759 448
v 103.28853607177734 1.7728610038757324 442.56036376953125
v 102.44423723220825 1.3643460273742676 426.606689453125
v 100.76133012771606 1.698436975479126 394.695556640625
v 100.19791412353516 1.9353599548339844 384
v 110.38413238525391 1.6669050455093384 384
v 117.56031799316406 2.0166230201721191 409.80697584152222
v 113.59130859375 1.6474839448928833 448
v 119.24412536621094 1.864995002746582 441.717529296875
v 103.5748438835144 1.605991005897522 448
v 118.40530395507813 2.5643711090087891 425.76019287109375
v 116.71694183349609 1.7949659824371338 393.85272216796875
v 116.19635009765625 1.70477294921875 384
v 125.58256530761719 2.34773588180542 384
v 128 2.4898450374603271 409.25427198410034
v 128 2.6758780479431152 415.09619098901749
v 119.57558441162109 1.8268309831619263 448
v 128 2.006072998046875 441.25473022460938
v 128 1.986024022102356 444.15798950195312
v 128 1.9594939947128296 448
v 128 2.8272879123687744 425.25271606445312
v 128 2.5232830047607422 431.98703002929688
v 128 2.1638669967651367 393.25576782226562
v 128 2.2238938808441162 398.20401000976562
v 128 2.4231901168823242 384
v 128 2.3371579647064209 387.07064819335938
vt 0.77424699068069458 0.009028017520904541
vt 0.69712501764297485 0.011745989322662354
vt 0.78060698509216309 0.081723988056182861
vt 0.53383499383926392 0.01753997802734375
vt 0.44332098960876465 0.020636022090911865
vt 0.54134398698806763 0.1029130220413208
vt 0.9513850212097168 0.0025929808616638184
vt 0.96507799625396729 0.014030992984771729
vt 0.96462899446487427 0.0020999908447265625
vt 0.052889999002218246 0.033865988254547119
vt 0.00445100013166666 0.09563601016998291
vt 0.062591999769210815 0.14486998319625855
vt 0.016263000667095184 0.035098016262054443
vt 0.0023870000150054693 0.035565018653869629
vt 0.18941999971866608 0.029246985912322998
vt 0.3018290102481842 0.12373697757720947
vt 0.29328000545501709 0.025712013244628906
vt 0.96684002876281738 0.0651959776878357
vt 0.97346901893615723 0.24235200881958008
vt 0.80163002014160156 0.32122600078582764
vt 0.56237202882766724 0.34220600128173828
vt 0.32301300764083862 0.36312699317932129
vt 0.012497000396251679 0.32452297210693359
vt 0.083783999085426331 0.38433897495269775
vt 0.0063100000843405724 0.14974498748779297
vt 0.97491198778152466 0.30603700876235962
vt 0.98049700260162354 0.47115802764892578
vt 0.58338797092437744 0.581481009721756
vt 0.014817999675869942 0.39030498266220093
vt 0.020511999726295471 0.55297800898551941
vt 0.10488799959421158 0.62385499477386475
vt 0.3441149890422821 0.60246899724006653
vt 0.82265198230743408 0.56050699949264526
vt 0.98307400941848755 0.54646500945091248
vt 0.98830199241638184 0.69954600930213928
vt 0.60440200567245483 0.82085700333118439
vt 0.028338000178337097 0.78138099610805511
vt 0.12562599778175354 0.86313800513744354
vt 0.023274000734090805 0.6309179961681366
vt 0.36515098810195923 0.84248599410057068
vt 0.84365397691726685 0.79976899921894073
vt 0.99140399694442749 0.78681099414825439
vt 0.99623900651931763 0.92815099656581879
vt 0.618116021156311 0.97756700031459332
vt 0.53050899505615234 0.98089499957859516
vt 0.031410999596118927 0.87132300436496735
vt 0.13707199692726135 0.99445800017565489
vt 0.093450002372264862 0.995937000028789
vt 0.035728998482227325 0.99790000007487834
vt 0.37779700756073 0.98641400039196014
vt 0.27652201056480408 0.98981000017374754
vt 0.85850602388381958 0.96905099973082542
vt 0.78416502475738525 0.97165999934077263
vt 0.99761301279067993 0.96437299996614456
vt 0.951462984085083 0.96590999886393547
vn 0.023397000506520271 0.99833899736404419 0.052646998316049576
vn -0.019192000851035118 0.99979197978973389 -0.0068290000781416893
vn -0.012037999927997589 0.99937999248504639 0.033082000911235809
vn -0.030652999877929688 0.99952399730682373 0.0034099998883903027
vn -0.012814000248908997 0.99917000532150269 0.038658998906612396
vn -0.022919999435544014 0.99964797496795654 0.013358999975025654
vn 0.0071849999949336052 0.99812901020050049 0.060713000595569611
vn 0.0046819997951388359 0.998278021812439 0.05846799910068512
vn -0.050117999315261841 0.99870097637176514 0.009181000292301178
vn -0.026521999388933182 0.9995269775390625 0.015595999546349049
vn -0.02243800088763237 0.99927598237991333 0.03071100078523159
vn -0.029898999258875847 0.99937301874160767 0.018936999142169952
vn -0.0258799996227026 0.999284029006958 0.02761399932205677
vn -0.0258799996227026 0.999284029006958 0.027614999562501907
vn -0.022960999980568886 0.99971497058868408 0.0065529998391866684
vn -0.019610999152064323 0.999538004398346 0.023233000189065933
vn -0.0083799995481967926 0.99949097633361816 0.030773000791668892
vn 0.0060820002108812332 0.99698901176452637 0.077307999134063721
vn -0.031575001776218414 0.99755501747131348 0.062345001846551895
vn -0.01823900081217289 0.99954497814178467 0.024040000513195992
vn -0.014155999757349491 0.99971199035644531 0.0193719994276762
vn -0.026627000421285629 0.99958997964859009 0.010569999925792217
vn -0.03663799911737442 0.99848097562789917 0.041154999285936356
vn -0.037735000252723694 0.99915200471878052 0.016482999548316002
vn -0.025584999471902847 0.99887698888778687 0.039873000234365463
vn -0.0086580002680420876 0.99844801425933838 0.055013999342918396
vn -0.0022050000261515379 0.9995189905166626 0.030922999605536461
vn -0.017730999737977982 0.99978899955749512 0.010370000265538693
vn -0.037719998508691788 0.998354971408844 0.043177999556064606
vn -0.043627999722957611 0.99822002649307251 0.0406700000166893
vn -0.033619999885559082 0.9993320107460022 0.014302999712526798
vn -0.046482998877763748 0.99889200925827026 -0.0073910001665353775
vn -0.0045560002326965332 0.99992698431015015 0.011158999986946583
vn 0.00688599981367588 0.99973899126052856 0.021782999858260155
vn 0.0022529999259859324 0.99999701976776123 -0.00092100002802908421
vn -0.04183100163936615 0.99897098541259766 -0.017541000619530678
vn -0.011026999913156033 0.9996340274810791 0.024687999859452248
vn -0.013825999572873116 0.99945002794265747 0.030138999223709106
vn -0.027174999937415123 0.99911600351333618 0.032079998403787613
vn -0.044737000018358231 0.99899899959564209 0.00071599998045712709
vn -0.026684999465942383 0.99963998794555664 -0.002945000072941184
vn -0.036400001496076584 0.99931097030639648 -0.007224000059068203
vn -0.0410970002412796 0.99897301197052 0.019066000357270241
vn -0.046732999384403229 0.99852097034454346 -0.027786999940872192
vn -0.042562998831272125 0.99870598316192627 -0.027853000909090042
vn -0.022613000124692917 0.99971801042556763 0.0072659999132156372
vn -0.014402999542653561 0.99937897920608521 0.032147001475095749
vn -0.015745000913739204 0.99985200166702271 0.0069039999507367611
vn -0.015745000913739204 0.99985200166702271 0.0069039999507367611
vn -0.026644999161362648 0.99954599142074585 0.014081000350415707
vn -0.022223999723792076 0.99862098693847656 0.047561001032590866
vn -0.032221000641584396 0.99944400787353516 0.00861399993300438
vn -0.036403998732566833 0.99922597408294678 -0.014905000105500221
vn -0.031185999512672424 0.9991220235824585 0.02799299918115139
vn -0.031184999272227287 0.9991220235824585 0.02799299918115139
f 1/1/1 2/2/2 3/3/3
f 4/4/4 5/5/5 6/6/6
f 7/7/7 8/8/8 9/9/9
f 10/10/10 11/11/11 12/12/12
f 10/10/10 13/13/13 11/11/11
f 13/13/13 14/14/14 11/11/11
f 15/15/15 16/16/16 17/17/17
f 8/8/8 3/3/3 18/18/18
f 8/8/8 1/1/1 3/3/3
f 8/8/8 7/7/7 1/1/1
f 18/18/18 3/3/3 19/19/19
f 6/6/6 20/20/20 3/3/3
f 4/4/4 3/3/3 2/2/2
f 4/4/4 6/6/6 3/3/3
f 21/21/21 6/6/6 16/16/16
f 17/17/17 6/6/6 5/5/5
f 17/17/17 16/16/16 6/6/6
f 12/12/12 22/22/22 16/16/16
f 12/12/12 23/23/23 24/24/24
f 12/12/12 25/25/25 23/23/23
f 25/25/25 12/12/12 11/11/11
f 10/10/10 16/16/16 15/15/15
f 10/10/10 12/12/12 16/16/16
f 26/26/26 20/20/20 27/27/27
f 20/20/20 19/19/19 3/3/3
f 20/20/20 26/26/26 19/19/19
f 22/22/22 21/21/21 16/16/16
f 21/21/21 22/22/22 28/28/28
f 29/29/29 24/24/24 23/23/23
f 24/24/24 30/30/30 31/31/31
f 24/24/24 29/29/29 30/30/30
f 32/32/32 22/22/22 24/24/24
f 24/24/24 22/22/22 12/12/12
f 33/33/33 20/20/20 21/21/21
f 21/21/21 20/20/20 6/6/6
f 27/27/27 33/33/33 34/34/34
f 27/27/27 20/20/20 33/33/33
f 34/34/34 33/33/33 35/35/35
f 21/21/21 28/28/28 33/33/33
f 24/24/24 31/31/31 32/32/32
f 28/28/28 32/32/32 36/36/36
f 31/31/31 37/37/37 38/38/38
f 31/31/31 39/39/39 37/37/37
f 40/40/40 32/32/32 31/31/31
f 30/30/30 39/39/39 31/31/31
f 41/41/41 33/33/33 28/28/28
f 22/22/22 32/32/32 28/28/28
f 35/35/35 41/41/41 42/42/42
f 35/35/35 33/33/33 41/41/41
f 42/42/42 41/41/41 43/43/43
f 28/28/28 36/36/36 41/41/41
f 38/38/38 40/40/40 31/31/31
f 36/36/36 32/32/32 40/40/40
f 40/40/40 44/44/44 36/36/36
f 40/40/40 45/45/45 44/44/44
f 46/46/46 38/38/38 37/37/37
f 46/46/46 47/47/47 38/38/38
f 46/46/46 48/48/48 47/47/47
f 48/48/48 46/46/46 49/49/49
f 50/50/50 38/38/38 51/51/51
f 50/50/50 40/40/40 38/38/38
f 52/52/52 36/36/36 53/53/53
f 52/52/52 41/41/41 36/36/36
f 54/54/54 43/43/43 55/55/55
f 55/55/55 41/41/41 52/52/52
f 55/55/55 43/43/43 41/41/41
f 44/44/44 53/53/53 36/36/36
f 45/45/45 40/40/40 50/50/50
f 51/51/51 38/38/38 47/47/47
