mtllib m122031.mtl
usemtl material0
v 192 1.8196909427642822 325.87921142578125
v 192 2.0441689491271973 327.06927490234375
v 193.12376403808594 1.8441710472106934 325.81979370117188
v 192 3.1840989589691162 357.87402296066284
v 192 2.8488380908966064 360.85342407226562
v 194.81402587890625 2.9940540790557861 357.72601318359375
v 192 1.267056941986084 373.87939453125
v 192 0.88148099184036255 377.74029541015625
v 195.64633178710938 0.98640900850296021 373.68771362304688
v 192 4.8839001655578613 343.9666748046875
v 193.98175048828125 5.0065059661865234 341.76425170898438
v 192 4.947509765625 341.86907958984375
v 209.06532287597656 -0.88489598035812378 324.98638916015625
v 210.76568603515625 2.2922940254211426 356.88580322265625
v 201.56246948242188 -0.49219301342964172 384
v 211.60069274902344 0.830049991607666 372.845703125
v 196.18357849121094 -0.4015200138092041 384
v 192 0.076228000223636627 384
v 209.93305969238281 4.2315049171447754 340.92431640625
v 198.35653686523438 0.1455720067024231 320
v 192.80973815917969 0.52382498979568481 320
v 192 0.49654999375343323 320
v 192 1.6586029529571533 325.1634521484375
v 208.79859924316406 -1.5630079507827759 320
v 213.54997253417969 -1.7209880352020264 320
v 225.01272594928742 -2.4387660026550293 324.1490478515625
v 226.71423292160034 0.968887984752655 356.04766798019409
v 216.7582859992981 -1.142164945602417 384
v 227.55332899093628 0.32987099885940552 372.00482177734375
v 212.18031311035156 -0.96039199829101562 384
v 225.87187194824219 0.95159101486206055 340.09271240234375
v 240.96467590332031 -3.0752480030059814 323.30862426757812
v 242.66282653808594 -0.34580498933792114 355.20953392982483
v 231.95429992675781 -1.6785110235214233 384
v 243.50827026367188 0.2905460000038147 371.16241455078125
v 228.17643690109253 -1.6366130113601685 384
v 241.81228637695313 -2.0027201175689697 339.26004028320312
v 228.744873046875 -2.8302860260009766 320
v 224.79199200868607 -2.7667920589447021 320
v 240.78898620605469 -3.2718970775604248 320
v 243.94094848632813 -3.3419609069824219 320
v 256 -3.6453089714050293 322.51641845703125
v 256 -3.5782608985900879 323.4873046875
v 256 -0.81636500358581543 354.5066831111908
v 256 -0.70104300975799561 357.2760009765625
v 244.17802429199219 -1.2500209808349609 384
v 256 0.43515801429748535 370.5023193359375
v 256 0.084262996912002563 373.41973876953125
v 247.15228271484375 -1.2344930171966553 384
v 256 -0.0058229998685419559 374.168701171875
v 256 -2.7004919052124023 338.51299953460693
v 256 -2.502108097076416 340.380859375
v 256 -3.7681570053100586 320
v 256 -3.6561799049377441 322.29373168945312
v 256 -0.30704900622367859 384
vt 0.90913301706314087 0.03852999210357666
vt 0.89111697673797607 0.037667989730834961
vt 0.90913301706314087 0.055294990539550781
vt 0.42701399326324463 0.01733100414276123
vt 0.38241499662399292 0.015101015567779541
vt 0.42678600549697876 0.059472978115081787
vt 0.18712300062179565 0.0077260136604309082
vt 0.12940299510955811 0.0048999786376953125
vt 0.18688000738620758 0.062393009662628174
vt 0.63553702831268311 0.025254011154174805
vt 0.66670101881027222 0.056549012660980225
vt 0.66674500703811646 0.026979029178619385
vt 0.91791999340057373 0.29633802175521851
vt 0.428505003452301 0.29760599136352539
vt 0.028331000357866287 0.14425098896026611
vt 0.18949900567531586 0.30034101009368896
vt 0.031711000949144363 0.064198970794677734
vt 0.035473000258207321 0.0012969970703125
vt 0.66828298568725586 0.29472702741622925
vt 0.995419979095459 0.13764601945877075
vt 0.99813598394393921 0.05477297306060791
vt 0.99878901243209839 0.042724013328552246
vt 0.92004799842834473 0.039040982723236084
vt 0.99296700954437256 0.29521697759628296
vt 0.99030500650405884 0.36628299951553345
vt 0.92300498485565186 0.53525099158287048
vt 0.43461900949478149 0.536204993724823
vt 0.018682999536395073 0.37234401702880859
vt 0.19387499988079071 0.53834199905395508
vt 0.021033000200986862 0.30237597227096558
vt 0.6799049973487854 0.53712800145149231
vt 0.92653298377990723 0.77332800626754761
vt 0.44056901335716248 0.77479700744152069
vt 0.01080000028014183 0.59827300906181335
vt 0.19882500171661377 0.77625100314617157
vt 0.012645999900996685 0.5424560010433197
vt 0.688148021697998 0.77876199781894684
vt 0.98276001214981079 0.593317985534668
vt 0.985073983669281 0.53436100482940674
vt 0.97596299648284912 0.7726919949054718
vt 0.97414398193359375 0.81961299479007721
vt 0.93211597204208374 0.99766199989244342
vt 0.91762799024581909 0.99722500005736947
vt 0.44450700283050537 0.9737979993224144
vt 0.39956200122833252 0.96941399946808815
vt 0.006039000116288662 0.7803799957036972
vt 0.20196600258350372 0.96254599839448929
vt 0.15887400507926941 0.96168100088834763
vt 0.0045819999650120735 0.8246539980173111
vt 0.14764399826526642 0.96130400151014328
vt 0.6935570240020752 0.990548999980092
vt 0.65624397993087769 0.98155999928712845
vt 0.96962499618530273 0.99870300001930445
vt 0.93543499708175659 0.99775999994017184
vt 0.0012110000243410468 0.9571090005338192
vn -0.031998001039028168 0.978888988494873 -0.20187400281429291
vn -0.037477001547813416 0.98092901706695557 -0.19071799516677856
vn 0.050503000617027283 0.97876298427581787 -0.19867700338363648
vn 0.07300499826669693 0.99054801464080811 0.11612699925899506
vn 0.080202996730804443 0.98975497484207153 0.11812400072813034
vn 0.063280999660491943 0.990788996219635 0.11971999704837799
vn 0.081991001963615417 0.99062097072601318 0.10930299758911133
vn 0.10529500246047974 0.98713797330856323 0.12029799818992615
vn 0.057181000709533691 0.9913640022277832 0.11801999807357788
vn 0.049660999327898026 0.99374699592590332 0.10000599920749664
vn 0.032825998961925507 0.9974520206451416 -0.063340000808238983
vn -0.033787000924348831 0.99638199806213379 -0.077988997101783752
vn 0.098709002137184143 0.97391301393508911 -0.20432700216770172
vn 0.078826002776622772 0.99275600910186768 0.09067700058221817
vn 0.023932000622153282 0.99001801013946533 0.13889500498771668
vn 0.036026999354362488 0.99289202690124512 0.11343500018119812
vn 0.062856003642082214 0.9895319938659668 0.12990599870681763
vn 0.11254300177097321 0.98552602529525757 0.12677900493144989
vn 0.10661599785089493 0.99052101373672485 -0.086608998477458954
vn 0.13513800501823425 0.97720897197723389 -0.16370600461959839
vn 0.015221999958157539 0.97492700815200806 -0.22200499475002289
vn -0.032843999564647675 0.97507202625274658 -0.21944400668144226
vn -0.032846000045537949 0.97507202625274658 -0.21944500505924225
vn 0.098191998898983 0.98537600040435791 -0.13925600051879883
vn 0.076503001153469086 0.99228298664093018 -0.097575999796390533
vn 0.069407999515533447 0.98517197370529175 -0.15690000355243683
vn 0.089158996939659119 0.995980978012085 0.0084610003978014
vn 0.040137000381946564 0.986748993396759 0.15721400082111359
vn 0.031964998692274094 0.99550998210906982 0.089098997414112091
vn 0.041269998997449875 0.98685300350189209 0.15626099705696106
vn 0.15547500550746918 0.984591007232666 -0.080049999058246613
vn 0.050721999257802963 0.99533301591873169 -0.082098998129367828
vn 0.046946998685598373 0.99672597646713257 -0.0658319965004921
vn -0.0012910000514239073 0.98861300945281982 0.15047399699687958
vn -0.0020359999034553766 0.99921900033950806 0.039466999471187592
vn 0.026266999542713165 0.98670297861099243 0.16039499640464783
vn 0.097837001085281372 0.99228799343109131 -0.076110996305942535
vn 0.031085999682545662 0.99732500314712524 -0.066148996353149414
vn 0.055380001664161682 0.99512398242950439 -0.081620998680591583
vn 0.02961299940943718 0.99770599603652954 -0.060871001332998276
vn 0.031785998493433 0.99814802408218384 -0.051869001239538193
vn 0.034747999161481857 0.99768602848052979 -0.058444000780582428
vn 0.036922000348567963 0.99711000919342041 -0.066390000283718109
vn 0.03085700049996376 0.99620199203491211 -0.081427000463008881
vn 0.021617000922560692 0.99842101335525513 -0.051848001778125763
vn -0.019517000764608383 0.99256598949432373 0.12013000249862671
vn -0.010858999565243721 0.99984902143478394 0.013547999784350395
vn -0.0051830001175403595 0.99283099174499512 0.11941500008106232
vn -0.03158000111579895 0.99488800764083862 0.095916002988815308
vn -0.028318999335169792 0.99470198154449463 0.098826996982097626
vn 0.044702000916004181 0.99570602178573608 -0.0810609981417656
vn 0.039941001683473587 0.993291974067688 -0.10851600021123886
vn 0.03527899831533432 0.99818897247314453 -0.0487309992313385
vn 0.03527899831533432 0.99818897247314453 -0.048730000853538513
vn -0.104203000664711 0.99408900737762451 0.0304579995572567
f 1/1/1 2/2/2 3/3/3
f 4/4/4 5/5/5 6/6/6
f 7/7/7 8/8/8 9/9/9
f 10/10/10 11/11/11 12/12/12
f 2/2/2 11/11/11 3/3/3
f 2/2/2 12/12/12 11/11/11
f 3/3/3 11/11/11 13/13/13
f 5/5/5 9/9/9 6/6/6
f 5/5/5 7/7/7 9/9/9
f 6/6/6 9/9/9 14/14/14
f 9/9/9 15/15/15 16/16/16
f 9/9/9 17/17/17 15/15/15
f 8/8/8 17/17/17 9/9/9
f 8/8/8 18/18/18 17/17/17
f 19/19/19 11/11/11 6/6/6
f 10/10/10 6/6/6 11/11/11
f 10/10/10 4/4/4 6/6/6
f 20/20/20 21/21/21 3/3/3
f 22/22/22 3/3/3 21/21/21
f 22/22/22 23/23/23 3/3/3
f 23/23/23 1/1/1 3/3/3
f 20/20/20 13/13/13 24/24/24
f 20/20/20 3/3/3 13/13/13
f 24/24/24 13/13/13 25/25/25
f 13/13/13 19/19/19 26/26/26
f 11/11/11 19/19/19 13/13/13
f 9/9/9 16/16/16 14/14/14
f 14/14/14 16/16/16 27/27/27
f 16/16/16 28/28/28 29/29/29
f 16/16/16 30/30/30 28/28/28
f 15/15/15 30/30/30 16/16/16
f 31/31/31 19/19/19 14/14/14
f 6/6/6 14/14/14 19/19/19
f 19/19/19 31/31/31 26/26/26
f 26/26/26 31/31/31 32/32/32
f 16/16/16 29/29/29 27/27/27
f 27/27/27 29/29/29 33/33/33
f 29/29/29 34/34/34 35/35/35
f 29/29/29 36/36/36 34/34/34
f 28/28/28 36/36/36 29/29/29
f 37/37/37 31/31/31 27/27/27
f 14/14/14 27/27/27 31/31/31
f 38/38/38 39/39/39 26/26/26
f 25/25/25 26/26/26 39/39/39
f 25/25/25 13/13/13 26/26/26
f 38/38/38 32/32/32 40/40/40
f 38/38/38 26/26/26 32/32/32
f 40/40/40 32/32/32 41/41/41
f 37/37/37 42/42/42 32/32/32
f 37/37/37 43/43/43 42/42/42
f 31/31/31 37/37/37 32/32/32
f 29/29/29 35/35/35 33/33/33
f 35/35/35 44/44/44 33/33/33
f 35/35/35 45/45/45 44/44/44
f 46/46/46 47/47/47 35/35/35
f 46/46/46 48/48/48 47/47/47
f 48/48/48 49/49/49 50/50/50
f 48/48/48 46/46/46 49/49/49
f 34/34/34 46/46/46 35/35/35
f 51/51/51 33/33/33 52/52/52
f 51/51/51 37/37/37 33/33/33
f 27/27/27 33/33/33 37/37/37
f 53/53/53 41/41/41 54/54/54
f 54/54/54 32/32/32 42/42/42
f 54/54/54 41/41/41 32/32/32
f 52/52/52 33/33/33 44/44/44
f 45/45/45 35/35/35 47/47/47
f 50/50/50 49/49/49 55/55/55
f 43/43/43 37/37/37 51/51/51
