mtllib m12222100.mtl
usemtl material0
v 64 2.8188591003417969 114.62457990646362
v 65.872069835662842 2.7359919548034668 112.54364776611328
v 64 2.7343308925628662 112.64250898361206
v 64 3.3259890079498291 123.07123589515686
v 66.294968128204346 3.0911459922790527 120.51995098590851
v 64 3.1090559959411621 120.64108997583389
v 64 3.5206460952758789 126.80297899246216
v 66.506797790527344 3.3473269939422607 124.50783491134644
v 64 3.4291970729827881 124.63995409011841
v 64.98590087890625 3.5412518978118896 128
v 64 3.5712530612945557 128
v 64 2.9333391189575195 116.64176201820374
v 64 3.0523428916931152 118.84786999225617
v 66.0837779045105 2.9663040637969971 116.53162407875061
v 69.843132019042969 2.7076089382171631 112
v 69.860877990722656 2.7395250797271729 112.33300018310547
v 66.3611068725586 2.6869590282440186 112
v 65.843123912811279 2.6870160102844238 112
v 73.842322945594788 2.568289041519165 112
v 73.848891973495483 2.5838770866394043 112.12289381027222
v 70.160377979278564 2.6870529651641846 112
v 73.9594269990921 2.5643830299377441 112
v 74.060561895370483 2.8073530197143555 116.11089301109314
v 70.071998953819275 2.851186990737915 116.32138109207153
v 64 2.6978499889373779 112.23619794845581
v 64 2.6766419410705566 112
v 80 2.3492770195007324 112
v 77.933158874511719 2.349600076675415 112
v 80 2.4850709438323975 113.85845184326172
v 76.184546947479248 2.4429430961608887 112
v 77.841103076934814 2.348315954208374 112
v 78.0482029914856 2.5750420093536377 115.90104722976685
v 70.283607006073 3.0629410743713379 120.30941000580788
v 74.272072076797485 2.9976229667663574 120.09899900108576
v 70.495110034942627 3.2512528896331787 124.29753112792969
v 70.691383004188538 3.4104290008544922 128
v 68.490364074707031 3.4583261013031006 128
v 72.77947199344635 3.409351110458374 128
v 74.483840942382812 3.2401330471038818 124.0869288444519
v 78.2601170539856 2.8473410606384277 119.88887800276279
v 76.705429077148438 3.2117280960083008 128
v 80 2.5963540077209473 115.79791307449341
v 80 2.7419729232788086 117.95481896400452
v 80 2.8495149612426758 119.79698899388313
v 80 2.9209389686584473 121.4536509513855
v 80 3.1331660747528076 128
v 78.472396850585938 3.1933650970458984 123.87645697593689
v 78.690055847167969 3.1883959770202637 128
v 80 3.1320199966430664 126.87596893310547
v 80 3.1288769245147705 123.79598999023438
vt 0.80622798204422 0.007834017276763916
vt 0.93521600961685181 0.11595702171325684
vt 0.92539501190185547 0.0037109851837158203
vt 0.29783201217651367 0.025412023067474365
vt 0.456479012966156 0.15820401906967163
vt 0.4443880021572113 0.020385026931762695
vt 0.073354996740818024 0.0332149863243103
vt 0.21688899397850037 0.1793140172958374
vt 0.2033970057964325 0.0286179780960083
vt 0.0035850000567734241 0.095359981060028076
vt 0.0013980000512674451 0.035977005958557129
vt 0.68486601114273071 0.012053012847900391
vt 0.55215698480606079 0.016659021377563477
vt 0.69571000337600708 0.13701701164245606
vt 0.97619301080703735 0.35335499048233032
vt 0.95627200603485107 0.35510897636413574
vt 0.96902602910995483 0.14419102668762207
vt 0.967943012714386 0.11307698488235474
vt 0.98539799451828 0.5936950147151947
vt 0.97766900062561035 0.5943639874458313
vt 0.97711402177810669 0.37243497371673584
vt 0.98536300659179688 0.60075798630714417
vt 0.73817998170852661 0.61535200476646423
vt 0.71705299615859985 0.37620699405670166
vt 0.94989901781082153 0.0028570294380187988
vt 0.96414399147033691 0.0023620128631591797
vt 0.99860197305679321 0.96395900100469589
vt 0.99432098865509033 0.839808002114296
vt 0.88666999340057373 0.9678179994225502
vt 0.990746021270752 0.73458701372146606
vt 0.99413502216339111 0.83427800238132477
vt 0.75983697175979614 0.85478499531745911
vt 0.47761398553848267 0.39734399318695068
vt 0.49882900714874268 0.63649299740791321
vt 0.23824000358581543 0.41847902536392212
vt 0.016057999804615974 0.4381449818611145
vt 0.011253000237047672 0.30591100454330444
vt 0.020499000325798988 0.56356900930404663
vt 0.25929901003837585 0.65762698650360107
vt 0.52021497488021851 0.8757380023598671
vt 0.029201999306678772 0.79967300593853
vt 0.769993007183075 0.97182600013911724
vt 0.64013499021530151 0.97627599909901619
vt 0.52929002046585083 0.98006399907171726
vt 0.4298970103263855 0.98355799913406372
vt 0.036361001431941986 0.99763799994252622
vt 0.28031900525093079 0.89678200334310532
vt 0.0334790013730526 0.91888800263404846
vt 0.10365699976682663 0.99545300006866455
vt 0.2886430025100708 0.98842899966984987
vn -0.015138999558985233 0.99845999479293823 -0.053380001336336136
vn -0.0019509999547153711 0.99763202667236328 -0.068747997283935547
vn -0.0043310001492500305 0.997859001159668 -0.065251000225543976
vn 0.023064000532031059 0.99720597267150879 -0.071044996380805969
vn 0.012616000138223171 0.99856400489807129 -0.052057001739740372
vn 0.0045570000074803829 0.9981120228767395 -0.061255000531673431
vn 0.030389999970793724 0.99864602088928223 -0.042220998555421829
vn 0.025103000923991203 0.99819397926330566 -0.054581999778747559
vn 0.029776999726891518 0.99812299013137817 -0.053520001471042633
vn 0.027896000072360039 0.9986720085144043 -0.043308001011610031
vn 0.030389999970793724 0.99864602088928223 -0.042220998555421829
vn -0.018711000680923462 0.99830001592636108 -0.055206999182701111
vn 0.00035700001171790063 0.99932301044464111 -0.036800000816583633
vn 0.0069419997744262218 0.99883401393890381 -0.047782998532056808
vn 0.028118999674916267 0.99490100145339966 -0.096853002905845642
vn 0.015639999881386757 0.997435986995697 -0.0698390007019043
vn -0.0042949998751282692 0.99559497833251953 -0.093658000230789185
vn -0.0028440000023692846 0.99597597122192383 -0.0895719975233078
vn 0.032503999769687653 0.99130898714065552 -0.12747199833393097
vn 0.041891999542713165 0.994983971118927 -0.090843997895717621
vn 0.040608998388051987 0.99196898937225342 -0.11978299915790558
vn 0.048539001494646072 0.99232298135757446 -0.1137470006942749
vn 0.036026999354362488 0.99805599451065063 -0.050847999751567841
vn 0.011250999756157398 0.99905002117156982 -0.042096000164747238
vn -0.0056059998460114 0.99597799777984619 -0.0894249975681305
vn -0.0056059998460114 0.99597799777984619 -0.0894239991903305
vn 0.000155999994603917 0.997340977191925 -0.072874002158641815
vn -0.010639999993145466 0.99808597564697266 -0.060922000557184219
vn -0.010174999944865704 0.9980589747428894 -0.061436999589204788
vn 0.056878998875617981 0.99646997451782227 -0.061739999800920486
vn 0.022678999230265617 0.99798798561096191 -0.059206001460552216
vn 0.018074000254273415 0.99796199798583984 -0.0612029992043972
vn 0.0084060002118349075 0.99872100353240967 -0.049865998327732086
vn 0.024870000779628754 0.99810200929641724 -0.056345000863075256
vn 0.010383999906480312 0.99872398376464844 -0.049423001706600189
vn 0.010772000066936016 0.998993992805481 -0.0435199998319149
vn 0.02237199991941452 0.998760998249054 -0.044452998787164688
vn 0.018880000337958336 0.99920898675918579 -0.03498699888586998
vn 0.014654999598860741 0.99890297651290894 -0.044470999389886856
vn 0.015541000291705132 0.99754500389099121 -0.068278998136520386
vn 0.024687999859452248 0.999671995639801 -0.00675999978557229
vn -0.014181000180542469 0.99796599149703979 -0.062150001525878906
vn -0.012093000113964081 0.99779599905014038 -0.065240003168582916
vn -0.0039380001835525036 0.99869400262832642 -0.050932001322507858
vn 0.026468999683856964 0.99673300981521606 -0.076310999691486359
vn 0.042123999446630478 0.99911201000213623 -0.0010189999593421817
vn 0.024604000151157379 0.99873101711273193 -0.043935999274253845
vn 0.027452999725937843 0.99962300062179565 -0.00024399999529123306
vn 0.042123999446630478 0.99911201000213623 -0.0010189999593421817
vn 0.039700999855995178 0.99814099073410034 -0.0462459996342659
f 1/1/1 2/2/2 3/3/3
f 4/4/4 5/5/5 6/6/6
f 7/7/7 8/8/8 9/9/9
f 7/7/7 10/10/10 8/8/8
f 7/7/7 11/11/11 10/10/10
f 12/12/12 13/13/13 14/14/14
f 15/15/15 2/2/2 16/16/16
f 15/15/15 17/17/17 2/2/2
f 18/18/18 2/2/2 17/17/17
f 19/19/19 16/16/16 20/20/20
f 19/19/19 21/21/21 16/16/16
f 15/15/15 16/16/16 21/21/21
f 19/19/19 20/20/20 22/22/22
f 20/20/20 16/16/16 23/23/23
f 16/16/16 2/2/2 24/24/24
f 3/3/3 2/2/2 25/25/25
f 25/25/25 18/18/18 26/26/26
f 25/25/25 2/2/2 18/18/18
f 27/27/27 28/28/28 29/29/29
f 30/30/30 22/22/22 20/20/20
f 31/31/31 20/20/20 32/32/32
f 31/31/31 30/30/30 20/20/20
f 6/6/6 14/14/14 13/13/13
f 6/6/6 5/5/5 14/14/14
f 14/14/14 5/5/5 24/24/24
f 23/23/23 24/24/24 33/33/33
f 24/24/24 23/23/23 16/16/16
f 23/23/23 33/33/33 34/34/34
f 33/33/33 24/24/24 5/5/5
f 2/2/2 14/14/14 24/24/24
f 33/33/33 5/5/5 35/35/35
f 36/36/36 8/8/8 37/37/37
f 36/36/36 35/35/35 8/8/8
f 5/5/5 8/8/8 35/35/35
f 38/38/38 35/35/35 36/36/36
f 38/38/38 39/39/39 35/35/35
f 35/35/35 39/39/39 34/34/34
f 34/34/34 39/39/39 40/40/40
f 41/41/41 39/39/39 38/38/38
f 34/34/34 33/33/33 35/35/35
f 37/37/37 8/8/8 10/10/10
f 32/32/32 23/23/23 34/34/34
f 9/9/9 5/5/5 4/4/4
f 9/9/9 8/8/8 5/5/5
f 40/40/40 32/32/32 34/34/34
f 42/42/42 40/40/40 43/43/43
f 42/42/42 32/32/32 40/40/40
f 44/44/44 43/43/43 40/40/40
f 29/29/29 32/32/32 42/42/42
f 29/29/29 28/28/28 32/32/32
f 28/28/28 31/31/31 32/32/32
f 44/44/44 40/40/40 45/45/45
f 46/46/46 47/47/47 48/48/48
f 46/46/46 49/49/49 47/47/47
f 49/49/49 50/50/50 47/47/47
f 45/45/45 47/47/47 50/50/50
f 45/45/45 40/40/40 47/47/47
f 41/41/41 47/47/47 39/39/39
f 41/41/41 48/48/48 47/47/47
f 47/47/47 40/40/40 39/39/39
f 20/20/20 23/23/23 32/32/32
f 12/12/12 2/2/2 1/1/1
f 12/12/12 14/14/14 2/2/2
