mtllib m1222111.mtl
usemtl material0
v 224 -4.4810471534729 224
v 227.93089294433594 -3.5900909900665283 228.00166320800781
v 227.71743774414063 -4.01808500289917 224
v 224 -4.4741129875183105 224.06912231445313
v 224 -4.05866813659668 228.210693359375
v 224 -5.0225257873535156 236.21342492103577
v 228.34600830078125 -4.79867696762085 235.98323106765747
v 224 -4.4317121505737305 232.36891222000122
v 235.90852403640747 -3.5760719776153564 227.58033752441406
v 231.53047180175781 -3.9638528823852539 224
v 235.71766710281372 -3.9344429969787598 224
v 239.12982201576233 -3.5521640777587891 224
v 236.32951402664185 -3.6045029163360596 235.55793809890747
v 243.88679504394531 -3.4321908950805664 227.15858459472656
v 228.76483154296875 -5.2646188735961914 243.96229600906372
v 224 -5.2334499359130859 239.67517098784447
v 236.74455308914185 -4.8292207717895508 243.53955101966858
v 224 -5.2587141990661621 244.2138819694519
v 224 -5.4724059104919434 254.89642333984375
v 237.39872694015503 -5.5313630104064941 256
v 235.59719800949097 -5.6240239143371582 256
v 239.10768097639084 -5.3276009559631348 256
v 244.72699022293091 -3.8508830070495605 243.11498999595642
v 224 -5.4985799789428711 256
v 244.30833387374878 -3.352715015411377 235.13581800460815
v 251.86457824707031 -3.38647198677063 226.73716735839844
v 252.2850341796875 -3.5228118896484375 234.71511793136597
v 246.72905015945435 -3.1948521137237549 224
v 251.72113037109375 -3.1856200695037842 224
v 254.32785034179688 -3.0694870948791504 224
v 243.71986389160156 -3.4669539928436279 224
v 256 -3.1148219108581543 226.5179443359375
v 256 -3.1982090473175049 230.58674621582031
v 256 -2.9649219512939453 224
v 256 -3.0066790580749512 224.70140075683594
v 252.70578002929688 -3.6030189990997314 242.69288611412048
v 256 -3.3712739944458008 234.51847791671753
v 256 -3.4262070655822754 239.03183001279831
v 256 -3.3455240726470947 242.51812696456909
v 254.70039367675781 -3.9922850131988525 256
v 256 -3.7723391056060791 253.01902770996094
v 253.40574645996094 -4.0906891822814941 256
v 252.04098510742188 -4.1303300857543945 256
v 256 -3.9663290977478027 256
vt 0.0021379999816417694 0.039797008037567139
vt 0.12388499826192856 0.15671801567077637
vt 0.11344599723815918 0.037400007247924805
vt 0.002208000048995018 0.041860997676849365
vt 0.0063970000483095646 0.16549301147460938
vt 0.015453999862074852 0.40823900699615479
vt 0.14439399540424347 0.3960689902305603
vt 0.0078149996697902679 0.28956097364425659
vt 0.36041799187660217 0.13619798421859741
vt 0.2267179936170578 0.033686995506286621
vt 0.35109201073646545 0.0295180082321167
vt 0.45310598611831665 0.027126014232635498
vt 0.38347199559211731 0.37249797582626343
vt 0.597117006778717 0.1169700026512146
vt 0.16592399775981903 0.63295599818229675
vt 0.01939300075173378 0.51123499870300293
vt 0.4013960063457489 0.61212998628616333
vt 0.024721000343561172 0.64601999521255493
vt 0.03727399930357933 0.96331499889492989
vt 0.43425101041793823 0.98208599910140038
vt 0.38067299127578735 0.98397699929773808
vt 0.484825998544693 0.97999699972569942
vt 0.63966602087020874 0.58951100707054138
vt 0.036175001412630081 0.99524600012227893
vt 0.62010300159454346 0.35132598876953125
vt 0.83322501182556152 0.091880977153778076
vt 0.85642099380493164 0.32820898294448853
vt 0.67925000190734863 0.02078700065612793
vt 0.82423001527786255 0.010701000690460205
vt 0.9016299843788147 0.00593799352645874
vt 0.58948802947998047 0.02327197790145874
vt 0.95595800876617432 0.079657971858978271
vt 0.96140801906585693 0.20048302412033081
vt 0.95298200845718384 0.0047540068626403809
vt 0.95365399122238159 0.025624990463256836
vt 0.87620097398757935 0.56734499335289
vt 0.96689897775650024 0.32152998447418213
vt 0.97089600563049316 0.45561397075653076
vt 0.9742010235786438 0.5591999888420105
vt 0.94963997602462769 0.96158700063824654
vt 0.98521602153778076 0.8714900016784668
vt 0.91108101606369019 0.96306499838829041
vt 0.87053102254867554 0.9645560011267662
vt 0.98824697732925415 0.96021800115704536
vn -0.12297999858856201 0.98745399713516235 -0.099049001932144165
vn -0.0515809990465641 0.99852097034454346 0.017162000760436058
vn -0.070739001035690308 0.99222999811172485 -0.10234999656677246
vn -0.122980996966362 0.98745399713516235 -0.099046997725963593
vn -0.11847399920225143 0.99295502901077271 -0.0020649998914450407
vn -0.045625001192092896 0.99345898628234863 0.10467900335788727
vn -0.064295001327991486 0.992808997631073 0.10097700357437134
vn -0.059199001640081406 0.98876398801803589 0.1372620016336441
vn -0.040325000882148743 0.99905097484588623 -0.016462000086903572
vn -0.0089050000533461571 0.99485301971435547 -0.10093100368976593
vn -0.057050999253988266 0.99370402097702026 -0.09642300009727478
vn -0.043354000896215439 0.99853599071502686 -0.03233800083398819
vn -0.083443000912666321 0.99329602718353271 0.0799970030784607
vn -0.023950999602675438 0.99970901012420654 0.0030100001022219658
vn -0.02567099966108799 0.99883198738098145 0.040936999022960663
vn -0.034898001700639725 0.99832999706268311 0.046045001596212387
vn -0.083939999341964722 0.99281501770019531 0.085282996296882629
vn 0.0019270000047981739 0.99991297721862793 0.013026000000536442
vn 0.0097000002861022949 0.99968302249908447 0.023223999887704849
vn -0.085780002176761627 0.99447298049926758 0.060541998594999313
vn -0.030438000336289406 0.99842697381973267 0.0470849983394146
vn -0.10854899883270264 0.99187499284744263 0.066336996853351593
vn -0.0698079988360405 0.99605798721313477 0.054721999913454056
vn 0.010812999680638313 0.99966001510620117 0.023708999156951904
vn -0.01752300001680851 0.99897599220275879 0.041717998683452606
vn -0.027930999174714088 0.99876600503921509 0.04107699915766716
vn -0.01809299923479557 0.99954402446746826 0.024173000827431679
vn -0.025384999811649323 0.99831497669219971 0.052172001451253891
vn -0.022433999925851822 0.99698102474212646 0.074334003031253815
vn -0.057530999183654785 0.99631500244140625 0.063606999814510345
vn -0.053128000348806381 0.998553991317749 -0.0081820003688335419
vn -0.063352003693580627 0.9971659779548645 0.040571998804807663
vn -0.05838799849152565 0.99795699119567871 0.025925999507308006
vn -0.062302000820636749 0.99629300832748413 0.059312000870704651
vn -0.062300998717546463 0.99629300832748413 0.059312000870704651
vn -0.048735000193119049 0.99858599901199341 0.021226000040769577
vn -0.039229001849889755 0.99882102012634277 0.028601000085473061
vn -0.049244001507759094 0.99877899885177612 0.0039260000921785831
vn -0.077523000538349152 0.99696099758148193 0.00763599993661046
vn -0.055179998278617859 0.99724799394607544 0.0495229996740818
vn -0.068453997373580933 0.99669700860977173 0.043696001172065735
vn -0.053137000650167465 0.99781101942062378 0.039361998438835144
vn -0.050227001309394836 0.99747800827026367 0.050142999738454819
vn -0.019926000386476517 0.99769097566604614 0.064925998449325562
f 1/1/1 2/2/2 3/3/3
f 1/1/1 4/4/4 2/2/2
f 4/4/4 5/5/5 2/2/2
f 2/2/2 6/6/6 7/7/7
f 2/2/2 8/8/8 6/6/6
f 8/8/8 2/2/2 5/5/5
f 2/2/2 7/7/7 9/9/9
f 9/9/9 10/10/10 2/2/2
f 9/9/9 11/11/11 10/10/10
f 11/11/11 9/9/9 12/12/12
f 13/13/13 14/14/14 9/9/9
f 13/13/13 9/9/9 7/7/7
f 10/10/10 3/3/3 2/2/2
f 6/6/6 15/15/15 7/7/7
f 6/6/6 16/16/16 15/15/15
f 7/7/7 17/17/17 13/13/13
f 18/18/18 19/19/19 15/15/15
f 20/20/20 15/15/15 21/21/21
f 20/20/20 17/17/17 15/15/15
f 15/15/15 17/17/17 7/7/7
f 17/17/17 22/22/22 23/23/23
f 17/17/17 20/20/20 22/22/22
f 24/24/24 15/15/15 19/19/19
f 24/24/24 21/21/21 15/15/15
f 16/16/16 18/18/18 15/15/15
f 13/13/13 17/17/17 25/25/25
f 25/25/25 14/14/14 13/13/13
f 14/14/14 25/25/25 26/26/26
f 25/25/25 23/23/23 27/27/27
f 28/28/28 26/26/26 29/29/29
f 28/28/28 14/14/14 26/26/26
f 29/29/29 26/26/26 30/30/30
f 25/25/25 27/27/27 26/26/26
f 31/31/31 14/14/14 28/28/28
f 23/23/23 25/25/25 17/17/17
f 14/14/14 12/12/12 9/9/9
f 14/14/14 31/31/31 12/12/12
f 27/27/27 32/32/32 26/26/26
f 27/27/27 33/33/33 32/32/32
f 34/34/34 30/30/30 35/35/35
f 35/35/35 26/26/26 32/32/32
f 35/35/35 30/30/30 26/26/26
f 36/36/36 27/27/27 23/23/23
f 37/37/37 36/36/36 38/38/38
f 37/37/37 27/27/27 36/36/36
f 39/39/39 40/40/40 41/41/41
f 39/39/39 36/36/36 40/40/40
f 36/36/36 42/42/42 40/40/40
f 43/43/43 36/36/36 23/23/23
f 43/43/43 42/42/42 36/36/36
f 33/33/33 27/27/27 37/37/37
f 39/39/39 38/38/38 36/36/36
f 44/44/44 41/41/41 40/40/40
f 22/22/22 43/43/43 23/23/23
