mtllib m122222111.mtl
usemtl material0
v 56.880179882049561 1.3571059703826904 56
v 56 1.320654034614563 56.181595087051392
v 56.934119939804077 1.3575849533081055 57.021724939346313
v 56 1.3209619522094727 56
v 56 1.3216569423675537 57.0711669921875
v 56 1.3234959840774536 58.059906005859375
v 58.880164980888367 1.3635530471801758 56
v 58.928406000137329 1.33616304397583 56.916481018066406
v 57.8534049987793 1.3761659860610962 56
v 56 1.3210769891738892 56.557132959365845
v 59.753013998270035 1.3592220544815064 56
v 56 1.2666749954223633 59.071277976036072
v 57.038841009140015 1.2427979707717896 59.016494989395142
v 59.033313989639282 1.2594610452651978 58.911121010780334
v 62.916630029678345 1.2225149869918823 56.706233978271484
v 60.879912972450256 1.3237979412078857 56
v 60.922515988349915 1.2790950536727905 56.81135892868042
v 62.132198095321655 1.28473699092865 56
v 62.879683971405029 1.2883850336074829 56
v 63.552155017852783 1.2885479927062988 56
v 61.027591943740845 1.2365729808807373 58.8058819770813
v 64 1.2246689796447754 56.649017095565796
v 64 1.1932950019836426 57.681159973144531
v 64 1.2680929899215698 56.198035955429077
v 64 1.2871609926223755 56
v 57.144134998321533 1.2447079420089722 61.010867953300476
v 59.13884699344635 1.3097100257873535 60.905327022075653
v 56 1.2519550323486328 61.071262001991272
v 56 1.2507950067520142 60.171158000826836
v 56 1.4561949968338013 63.638451099395752
v 58.842403054237366 1.4021869897842407 64
v 56 1.4809340238571167 64
v 59.739353001117706 1.4194539785385132 64
v 61.133250951766968 1.3127000331878662 60.799998998641968
v 59.302769005298614 1.4179970026016235 64
v 63.021708965301514 1.18048095703125 58.700755953788757
v 64 1.2173210382461548 59.7248840034008
v 63.127392053604126 1.2614909410476685 60.694854974746704
v 64 1.1733239889144898 58.649116992950439
v 64 1.2318160533905029 60.648868978023529
v 63.302139043807983 1.3136110305786133 64
v 62.950237035751343 1.3223309516906738 64
v 64 1.2676069736480713 62.691886901855469
v 63.6359601020813 1.3025670051574707 64
v 64 1.2758820056915283 63.16427206993103
v 64 1.2771070003509522 64
vt 0 0.11002302169799805
vt 0.022699000313878059 0
vt 0.12771600484848023 0.11676502227783203
vt 0 0
vt 0.13389599323272705 0
vt 0.25748801231384277 0
vt 0 0.36002099514007568
vt 0.11456000059843063 0.36605101823806763
vt 0 0.23167598247528076
vt 0.069641999900341034 0
vt 0 0.46912699937820435
vt 0.38391000032424927 0
vt 0.37706199288368225 0.12985497713088989
vt 0.36388999223709106 0.37916398048400879
vt 0.088279001414775848 0.86457900702953339
vt 0 0.6099889874458313
vt 0.10142000019550324 0.61531400680541992
vt 0 0.766525000333786
vt 0 0.85996100306510925
vt 0 0.94401900097727776
vt 0.35073500871658325 0.62844899296760559
vt 0.081127002835273743 1
vt 0.21014499664306641 1
vt 0.024754999205470085 1
vt 0 1
vt 0.62635898590087891 0.1430169939994812
vt 0.61316597461700439 0.39235597848892212
vt 0.6339079737663269 0
vt 0.52139502763748169 0
vt 0.95480602979660034 0
vt 1 0.35530000925064087
vt 1 0
vt 1 0.46741902828216553
vt 0.60000002384185791 0.64165601134300232
vt 1 0.41284602880477905
vt 0.33759498596191406 0.87771400064229965
vt 0.46561101078987122 1
vt 0.58685702085495 0.89092399924993515
vt 0.33114001154899597 1
vt 0.58110898733139038 1
vt 1 0.91276700049638748
vt 1 0.86878000199794769
vt 0.83648598194122314 1
vt 1 0.95449500158429146
vt 0.8955339789390564 1
vt 1 1
vn -0.030697999522089958 0.99952799081802368 0.0011520000407472253
vn -0.040403001010417938 0.99918299913406372 0.0010000000474974513
vn 0.0010860000038519502 0.99934500455856323 0.036173999309539795
vn -0.041030000895261765 0.99915701150894165 0.0016939999768510461
vn -0.038518000394105911 0.99925702810287476 -0.0016080000204965472
vn -0.0059389998205006123 0.99960500001907349 0.027479000389575958
vn 0.010688000358641148 0.99951297044754028 0.029309000819921494
vn 0.018593000248074532 0.99926000833511353 0.033659998327493668
vn -0.003223000094294548 0.99987798929214478 0.015283999964594841
vn -0.038492999970912933 0.99925798177719116 -0.0011269999668002129
vn 0.025268999859690666 0.99853402376174927 0.047860000282526016
vn 0.025310000404715538 0.99868100881576538 0.044672001153230667
vn 0.0032349999528378248 0.99968701601028442 0.024795999750494957
vn -0.0018639999907463789 0.99990099668502808 0.013949999585747719
vn 0.021308999508619308 0.99917799234390259 0.034476000815629959
vn 0.031197000294923782 0.998088002204895 0.053353000432252884
vn 0.030138999223709106 0.99904900789260864 0.031491998583078384
vn 0.017664000391960144 0.99751102924346924 0.068264000117778778
vn -0.0026720000896602869 0.99566197395324707 0.093005001544952393
vn 0.0020260000601410866 0.99548500776290894 0.094902001321315765
vn 0.019191000610589981 0.99981498718261719 -0.00092199997743591666
vn 0.0011960000265389681 0.99818497896194458 0.060217998921871185
vn 0.0060200002044439316 0.99971097707748413 0.023273000493645668
vn 0.0030819999519735575 0.99539202451705933 0.095843002200126648
vn 0.0030829999595880508 0.99539202451705933 0.095841996371746063
vn -0.0065990001894533634 0.99921202659606934 -0.039142001420259476
vn -0.013450999744236469 0.99940598011016846 -0.031718000769615173
vn 0.0042929998598992825 0.99924600124359131 -0.038577001541852951
vn 0.015876000747084618 0.99984699487686157 0.00735899992287159
vn 0.021306000649929047 0.9972500205039978 -0.07098899781703949
vn 0.019361000508069992 0.99778997898101807 -0.063566997647285461
vn 0.027628999203443527 0.99728602170944214 -0.0682390034198761
vn 0.015975000336766243 0.99952399730682373 -0.026386000216007233
vn 0.018358999863266945 0.99942499399185181 -0.028506999835371971
vn -0.029614999890327454 0.99900400638580322 -0.033387999981641769
vn 0.019805999472737312 0.99966001510620117 -0.016964999958872795
vn 0.011253999546170235 0.99931001663208008 -0.035381998866796494
vn 0.024109000340104103 0.99937301874160767 -0.025916999205946922
vn 0.0066949999891221523 0.999908983707428 -0.011754999868571758
vn 0.033075999468564987 0.999305009841919 -0.017217999324202538
vn 0.027924999594688416 0.99946099519729614 -0.017237000167369843
vn 0.02968900091946125 0.99936199188232422 -0.019865000620484352
vn 0.03306100144982338 0.99930000305175781 -0.017505999654531479
vn 0.045317001640796661 0.998898983001709 -0.012155000120401382
vn 0.056538000702857971 0.99837398529052734 -0.00725100003182888
vn 0.069766998291015625 0.9975619912147522 -0.0014619999565184116
f 1/1/1 2/2/2 3/3/3
f 1/1/1 4/4/4 2/2/2
f 5/5/5 6/6/6 3/3/3
f 7/7/7 3/3/3 8/8/8
f 7/7/7 9/9/9 3/3/3
f 10/10/10 3/3/3 2/2/2
f 10/10/10 5/5/5 3/3/3
f 7/7/7 8/8/8 11/11/11
f 3/3/3 12/12/12 13/13/13
f 3/3/3 6/6/6 12/12/12
f 9/9/9 1/1/1 3/3/3
f 14/14/14 8/8/8 3/3/3
f 15/15/15 16/16/16 17/17/17
f 15/15/15 18/18/18 16/16/16
f 18/18/18 15/15/15 19/19/19
f 19/19/19 15/15/15 20/20/20
f 8/8/8 21/21/21 17/17/17
f 22/22/22 15/15/15 23/23/23
f 22/22/22 20/20/20 15/15/15
f 22/22/22 24/24/24 20/20/20
f 24/24/24 25/25/25 20/20/20
f 17/17/17 21/21/21 15/15/15
f 17/17/17 11/11/11 8/8/8
f 17/17/17 16/16/16 11/11/11
f 14/14/14 13/13/13 26/26/26
f 13/13/13 14/14/14 3/3/3
f 14/14/14 26/26/26 27/27/27
f 28/28/28 13/13/13 29/29/29
f 28/28/28 26/26/26 13/13/13
f 29/29/29 13/13/13 12/12/12
f 30/30/30 26/26/26 28/28/28
f 30/30/30 31/31/31 26/26/26
f 30/30/30 32/32/32 31/31/31
f 27/27/27 33/33/33 34/34/34
f 27/27/27 35/35/35 33/33/33
f 35/35/35 26/26/26 31/31/31
f 35/35/35 27/27/27 26/26/26
f 21/21/21 14/14/14 27/27/27
f 34/34/34 21/21/21 27/27/27
f 21/21/21 34/34/34 36/36/36
f 37/37/37 36/36/36 38/38/38
f 37/37/37 39/39/39 36/36/36
f 36/36/36 23/23/23 15/15/15
f 36/36/36 39/39/39 23/23/23
f 37/37/37 38/38/38 40/40/40
f 38/38/38 36/36/36 34/34/34
f 15/15/15 21/21/21 36/36/36
f 41/41/41 34/34/34 42/42/42
f 41/41/41 38/38/38 34/34/34
f 41/41/41 40/40/40 38/38/38
f 41/41/41 43/43/43 40/40/40
f 43/43/43 44/44/44 45/45/45
f 43/43/43 41/41/41 44/44/44
f 45/45/45 44/44/44 46/46/46
f 33/33/33 42/42/42 34/34/34
f 8/8/8 14/14/14 21/21/21
