mtllib m1222013.mtl
usemtl material0
v 96 -0.46335199475288391 197.28884887695313
v 98.200325012207031 -0.34261798858642578 194.84349060058594
v 96 -0.39329901337623596 194.9598388671875
v 96 -0.81347298622131348 205.73368811607361
v 98.619674682617188 -0.70542198419570923 202.82221984863281
v 96 -0.7224770188331604 202.96061706542969
v 96 -1.2635170221328735 214.17832899093628
v 99.0389633178711 -1.0784989595413208 210.80099511146545
v 96 -1.0551300048828125 210.9613950252533
v 96 -1.4390079975128174 218.96232604980469
v 96 -1.6262420415878296 222.62315368652344
v 99.458702087402344 -1.3627300262451172 218.77944946289063
v 98.050750732421875 -0.23733800649642944 192
v 100.75891876220703 -0.19331599771976471 192
v 96 -0.34152901172637939 193.60215759277344
v 96 -0.28043800592422485 192
v 106.05151414871216 -0.050161998718976974 192
v 106.17901611328125 -0.11492300033569336 194.42144775390625
v 108.35793304443359 0.055553998798131943 192
v 114.0544970035553 0.56947797536849976 192
v 114.16011810302734 0.60053801536560059 193.99777221679688
v 106.59877777099609 -0.392767995595932 202.39990186691284
v 107.01681518554688 -1.02121102809906 210.37953209877014
v 114.5819399356842 0.73772400617599487 201.97480821609497
v 107.43630981445313 -1.3528039455413818 218.358154296875
v 107.73364305496216 -1.451956033706665 224
v 102.35964965820313 -1.6972860097885132 224
v 99.732612609863281 -1.6918239593505859 224
v 115.00280809402466 0.68397802114486694 209.95249903202057
v 96 -1.713454008102417 224
v 122.14263153076172 1.6006419658660889 193.5731201171875
v 122.56399536132813 1.6455450057983398 201.55047607421875
v 109.95920610427856 -1.1645760536193848 224
v 115.41902208328247 -0.31166499853134155 217.93336486816406
v 115.95757293701172 0.63099402189254761 192
v 122.05870819091797 1.4286149740219116 192
v 123.55751037597656 1.3601030111312866 192
v 128 0.82368898391723633 193.2662353515625
v 128 0.851921021938324 195.50680541992188
v 128 0.80663901567459106 192.78276062011719
v 128 0.77903497219085693 192
v 128 0.4802129864692688 201.26704406738281
v 128 0.78847599029541016 206.44790601730347
v 122.98625183105469 1.8715790510177612 209.52722203731537
v 115.73577094078064 -0.99765098094940186 224
v 117.55864000320435 -0.70209801197052 224
v 123.40325164794922 1.0346239805221558 217.50755310058594
v 128 0.897009015083313 209.26548802852631
v 128 0.60115599632263184 212.3974609375
v 128 0.7056729793548584 217.26583862304688
v 125.15738677978516 -0.59527397155761719 224
v 128 -0.11124899983406067 220.84153747558594
v 123.73824310302734 -0.47666800022125244 224
v 128 -0.707027018070221 224
vt 0.80299299955368042 0.0099840164184570312
vt 0.87845402956008911 0.073352992534637451
vt 0.872704029083252 0.007628023624420166
vt 0.55011600255966187 0.018483996391296387
vt 0.6399189829826355 0.093927979469299316
vt 0.63312602043151855 0.015690982341766357
vt 0.2971000075340271 0.027027010917663574
vt 0.40136700868606567 0.11448997259140015
vt 0.39354598522186279 0.023759007453918457
vt 0.15395000576972961 0.03163599967956543
vt 0.044277999550104141 0.035233974456787109
vt 0.16292600333690643 0.13495397567749023
vt 0.96343398094177246 0.066015005111694336
vt 0.96620899438858032 0.14704698324203491
vt 0.91335302591323853 0.006260991096496582
vt 0.96132099628448486 0.0046479701995849609
vt 0.97168999910354614 0.30544501543045044
vt 0.89934802055358887 0.31171399354934692
vt 0.9741169810295105 0.37451797723770142
vt 0.98065602779388428 0.54547199606895447
vt 0.92101198434829712 0.5509440004825592
vt 0.66100001335144043 0.33237099647521973
vt 0.4219299852848053 0.35276198387145996
vt 0.68287599086761475 0.57307600975036621
vt 0.18342900276184082 0.37321698665618896
vt 0.014914999715983868 0.38787001371383667
vt 0.00928799994289875 0.22693002223968506
vt 0.0066949999891221523 0.14833199977874756
vt 0.44561201333999634 0.5963979959487915
vt 0.0030020000413060188 0.036580979824066162
vt 0.94289302825927734 0.79110999405384064
vt 0.70474702119827271 0.81290000677108765
vt 0.017357999458909035 0.45494502782821655
vt 0.20492100715637207 0.61358100175857544
vt 0.98283201456069946 0.60242900252342224
vt 0.99006801843643188 0.78611500561237335
vt 0.99264997243881226 0.83095400035381317
vt 0.95908701419830322 0.967484001070261
vt 0.89205801486968994 0.970032999292016
vt 0.97356200218200684 0.96704500168561935
vt 0.99699801206588745 0.96635900065302849
vt 0.71949297189712524 0.97888699918985367
vt 0.56884700059890747 0.98538600001484156
vt 0.46812599897384644 0.83729900419712067
vt 0.022469999268651009 0.62786400318145752
vt 0.024724999442696571 0.68249300122261047
vt 0.22783499956130981 0.85521499812603
vt 0.48454099893569946 0.98951399978250265
vt 0.38407400250434875 0.98972500022500753
vt 0.23834000527858734 0.99296100018545985
vt 0.028115000575780869 0.91019599884748459
vt 0.1251399964094162 0.99372299993410707
vt 0.02841700054705143 0.86756700277328491
vt 0.028937000781297684 0.99535199999809265
vn -0.0081329997628927231 0.9990839958190918 0.042008999735116959
vn -0.021755000576376915 0.99905300140380859 0.03767700120806694
vn -0.021220000460743904 0.99919897317886353 0.033939998596906662
vn 0.0066470000892877579 0.99905002117156982 0.043056998401880264
vn -0.018647000193595886 0.99880099296569824 0.045265998691320419
vn -0.0044439998455345631 0.99922901391983032 0.039000999182462692
vn -0.012833000160753727 0.99898499250411987 0.043179001659154892
vn -0.0048500001430511475 0.99878197908401489 0.049102000892162323
vn 0.010618000291287899 0.99839001893997192 0.055716000497341156
vn -0.019695999100804329 0.99883300065994263 0.04410799965262413
vn -0.0089360000565648079 0.998134970664978 0.060387998819351196
vn -0.0081869997084140778 0.998773992061615 0.048820000141859055
vn -0.01869799941778183 0.99910402297973633 0.037974998354911804
vn -0.024150999262928963 0.999235987663269 0.030734999105334282
vn -0.020997000858187675 0.99905300140380859 0.038093999028205872
vn -0.020997000858187675 0.99905401468276978 0.038093999028205872
vn -0.036091998219490051 0.99893897771835327 0.028617000207304955
vn -0.052184000611305237 0.99823898077011108 0.028224000707268715
vn -0.078130997717380524 0.99694299697875977 -0.00011800000356743112
vn -0.062084000557661057 0.99799597263336182 -0.01223399955779314
vn -0.10249999910593033 0.99460297822952271 -0.016063999384641647
vn -0.075370997190475464 0.99582701921463013 0.051449999213218689
vn -0.096052996814250946 0.99383699893951416 0.05532899871468544
vn -0.13612399995326996 0.99061697721481323 0.01220100000500679
vn -0.078464999794960022 0.99569398164749146 0.049366001039743423
vn -0.088221997022628784 0.99585497379302979 0.022151000797748566
vn -0.010639999993145466 0.99862098693847656 0.051399998366832733
vn -0.0017239999724552035 0.9980120062828064 0.063003003597259521
vn -0.1604979932308197 0.98528599739074707 0.058747000992298126
vn -0.0057830000296235085 0.99798297882080078 0.063215002417564392
vn -0.0073350002057850361 0.99881500005722046 -0.048105001449584961
vn 0.031911000609397888 0.99946802854537964 -0.0066749998368322849
vn -0.10172899812459946 0.99364697933197021 0.048144001513719559
vn -0.12726700305938721 0.98578298091888428 0.10970000177621841
vn -0.10330499708652496 0.991599977016449 -0.0778300017118454
vn -0.045125998556613922 0.99331897497177124 -0.10621599853038788
vn 0.10732299834489822 0.99268698692321777 -0.055261000990867615
vn 0.13021400570869446 0.99119299650192261 -0.024112999439239502
vn 0.15036599338054657 0.98861598968505859 0.0054270001128315926
vn 0.129613995552063 0.99094897508621216 -0.034945998340845108
vn 0.129613995552063 0.99094802141189575 -0.034945998340845108
vn 0.20982599258422852 0.97772902250289917 0.0043680001981556416
vn 0.19356100261211395 0.98013097047805786 -0.043320000171661377
vn 0.021711999550461769 0.99900102615356445 0.039051998406648636
vn -0.095710001885890961 0.98853600025177 0.1167759969830513
vn -0.12623199820518494 0.98078900575637817 0.14872400462627411
vn -0.010634000413119793 0.99057197570800781 0.13658000528812408
vn 0.19202400743961334 0.98106199502944946 0.025397999212145805
vn 0.16589599847793579 0.9839479923248291 0.065766997635364532
vn 0.076142996549606323 0.99230897426605225 0.097593002021312714
vn 0.06966400146484375 0.97476601600646973 0.21207800507545471
vn 0.071351997554302216 0.974327027797699 0.21353000402450562
vn 0.02494099922478199 0.97394102811813354 0.22542400658130646
vn 0.038603000342845917 0.98193800449371338 0.18522199988365173
f 1/1/1 2/2/2 3/3/3
f 4/4/4 5/5/5 6/6/6
f 7/7/7 8/8/8 9/9/9
f 10/10/10 11/11/11 12/12/12
f 13/13/13 2/2/2 14/14/14
f 3/3/3 2/2/2 15/15/15
f 15/15/15 13/13/13 16/16/16
f 15/15/15 2/2/2 13/13/13
f 17/17/17 18/18/18 19/19/19
f 18/18/18 14/14/14 2/2/2
f 18/18/18 17/17/17 14/14/14
f 20/20/20 18/18/18 21/21/21
f 20/20/20 19/19/19 18/18/18
f 18/18/18 2/2/2 22/22/22
f 9/9/9 5/5/5 4/4/4
f 9/9/9 8/8/8 5/5/5
f 5/5/5 8/8/8 22/22/22
f 23/23/23 8/8/8 12/12/12
f 8/8/8 23/23/23 22/22/22
f 22/22/22 23/23/23 24/24/24
f 23/23/23 12/12/12 25/25/25
f 22/22/22 2/2/2 5/5/5
f 10/10/10 8/8/8 7/7/7
f 10/10/10 12/12/12 8/8/8
f 26/26/26 25/25/25 27/27/27
f 12/12/12 27/27/27 25/25/25
f 12/12/12 28/28/28 27/27/27
f 29/29/29 23/23/23 25/25/25
f 30/30/30 12/12/12 11/11/11
f 30/30/30 28/28/28 12/12/12
f 23/23/23 29/29/29 24/24/24
f 21/21/21 24/24/24 31/31/31
f 24/24/24 29/29/29 32/32/32
f 33/33/33 25/25/25 26/26/26
f 33/33/33 34/34/34 25/25/25
f 21/21/21 22/22/22 24/24/24
f 21/21/21 18/18/18 22/22/22
f 35/35/35 20/20/20 21/21/21
f 6/6/6 2/2/2 1/1/1
f 6/6/6 5/5/5 2/2/2
f 34/34/34 29/29/29 25/25/25
f 31/31/31 35/35/35 21/21/21
f 31/31/31 36/36/36 35/35/35
f 36/36/36 31/31/31 37/37/37
f 32/32/32 38/38/38 31/31/31
f 32/32/32 39/39/39 38/38/38
f 32/32/32 31/31/31 24/24/24
f 38/38/38 37/37/37 31/31/31
f 38/38/38 40/40/40 37/37/37
f 40/40/40 41/41/41 37/37/37
f 42/42/42 39/39/39 32/32/32
f 42/42/42 32/32/32 43/43/43
f 44/44/44 32/32/32 29/29/29
f 45/45/45 34/34/34 33/33/33
f 34/34/34 46/46/46 47/47/47
f 34/34/34 45/45/45 46/46/46
f 47/47/47 44/44/44 34/34/34
f 48/48/48 47/47/47 49/49/49
f 48/48/48 44/44/44 47/47/47
f 50/50/50 51/51/51 52/52/52
f 50/50/50 47/47/47 51/51/51
f 47/47/47 53/53/53 51/51/51
f 53/53/53 47/47/47 46/46/46
f 44/44/44 29/29/29 34/34/34
f 50/50/50 49/49/49 47/47/47
f 54/54/54 52/52/52 51/51/51
f 43/43/43 44/44/44 48/48/48
f 43/43/43 32/32/32 44/44/44
