mtllib m122222333.mtl
usemtl material0
v 56.89835000038147 1.3484499454498291 0
v 57.974869012832642 1.345723032951355 0.96855306625366211
v 57.923607110977173 1.3201149702072144 0
v 59.009025990962982 1.2593619823455811 0
v 59.968692999333143 1.2310390472412109 0.86362910270690918
v 59.923015996813774 1.2139149904251099 0
v 61.119431018829346 1.1398090124130249 0
v 61.962463021278381 1.1051219701766968 0.7587440013885498
v 61.922333002090454 1.0897070169448853 0
v 56 1.413362979888916 1.0726249217987061
v 58.080260992050171 1.3676860332489014 2.9628549814224243
v 56 1.4135969877243042 1.0909030437469482
v 56 1.4126490354537964 1.0511839389801025
v 56 1.3776429891586304 0
v 56 1.3723499774932861 2.9908820390701294
v 56.085884094238281 1.37055504322052 3.0681639909744263
v 56 1.4060829877853394 1.4378790855407715
v 62.067832946777344 1.1217139959335327 2.75306499004364
v 63.955696105957031 0.86983197927474976 0.65423488616943359
v 63.229110956192017 0.937263011932373 0
v 63.921252965927124 0.88801300525665283 0
v 64 0.86702901124954224 0.65190505981445312
v 64 0.88271600008010864 0.00870203971862793
v 64 0.88292902708053589 0
v 64 0.86696302890777588 0.69411706924438477
v 56 1.3768830299377441 3.0726789832115173
v 56.191559076309204 1.4501329660415649 5.0622680187225342
v 56 1.4562760591506958 4.8898749947547913
v 60.074074000120163 1.2500720024108887 2.85794198513031
v 58.185428977012634 1.34375 4.9573150277137756
v 62.17289400100708 1.0767819881439209 4.7475969791412354
v 56 1.4382179975509644 5.0724220275878906
v 58.290451049804688 1.2905160188674927 6.9518759250640869
v 60.1791689991951 1.2119760513305664 4.8524500131607056
v 60.284411996603012 1.2031749486923218 6.8468589782714844
v 56.296322107315063 1.3441660404205322 7.0570099353790283
v 56 1.341609001159668 6.790431022644043
v 64 0.87991100549697876 4.6517379879951477
v 62.278320074081421 1.1050900220870972 6.7418780326843262
v 64 0.883404016494751 4.8278189897537231
v 64 0.868183970451355 1.493617057800293
v 64 0.88257300853729248 4.4933010041713715
v 58.345832943916321 1.3007739782333374 8
v 57.344299077987671 1.3271290063858032 8
v 59.247031986713409 1.2618720531463623 8
v 56 1.3480019569396973 7.072645902633667
v 56.346004009246826 1.3249989748001099 8
v 56 1.3326139450073242 7.8581809997558594
v 56 1.3298360109329224 8
v 62.344948053359985 1.1460529565811157 8
v 61.565945029258728 1.1829359531402588 8
v 60.345412999391556 1.2280130386352539 8
v 63.675658941268921 0.984512984752655 8
v 64 0.90351301431655884 5.7805219888687134
v 64 0.95036202669143677 8
vt 0 0.11229401826858521
vt 0.12106899917125702 0.24685901403427124
vt 0 0.24045097827911377
vt 0 0.37612801790237427
vt 0.1079540029168129 0.49608701467514038
vt 0 0.49037700891494751
vt 0 0.63992899656295776
vt 0.094843000173568726 0.74530801177024841
vt 0 0.7402920126914978
vt 0.13407799601554871 0
vt 0.37035700678825378 0.2600330114364624
vt 0.13636299967765808 0
vt 0.131398007273674 0
vt 0 0
vt 0.37386000156402588 0
vt 0.38352099061012268 0.010735988616943359
vt 0.179735004901886 0
vt 0.34413298964500427 0.75847899913787842
vt 0.081779003143310547 0.99446200020611286
vt 0 0.90363900363445282
vt 0 0.99015699978917837
vt 0.0814879983663559 1
vt 0.0010880000190809369 1
vt 0 1
vt 0.086764998733997345 1
vt 0.38408499956130981 0
vt 0.63278299570083618 0.023944973945617676
vt 0.61123400926589966 0
vt 0.35724300146102905 0.50925898551940918
vt 0.61966401338577271 0.27317899465560913
vt 0.59345000982284546 0.77161200344562531
vt 0.63405299186706543 0
vt 0.86898499727249146 0.28630602359771729
vt 0.6065559983253479 0.52239599823951721
vt 0.85585701465606689 0.53555199503898621
vt 0.882125973701477 0.037039995193481445
vt 0.84880399703979492 0
vt 0.58146697282791138 1
vt 0.84273499250411987 0.78478999435901642
vt 0.60347700119018555 1
vt 0.18670199811458588 1
vt 0.56166297197341919 1
vt 1 0.29322898387908936
vt 1 0.16803699731826782
vt 1 0.40587902069091797
vt 0.88408100605010986 0
vt 1 0.043250977993011475
vt 0.98227298259735107 0
vt 1 0
vt 1 0.79311800003051758
vt 1 0.69574299454689026
vt 1 0.54317700862884521
vt 1 0.95945699885487556
vt 0.72256499528884888 1
vt 1 1
vn 0.031252998858690262 0.99900197982788086 -0.031922999769449234
vn 0.043441001325845718 0.99885499477386475 -0.020026000216603279
vn 0.048618000000715256 0.99839699268341064 -0.028969999402761459
vn 0.053022999316453934 0.99825000762939453 -0.026180999353528023
vn 0.059374000877141953 0.998104989528656 -0.016191000118851662
vn 0.059004999697208405 0.99799501895904541 -0.022909000515937805
vn 0.061988998204469681 0.99780601263046265 -0.023259000852704048
vn 0.08756999671459198 0.99599999189376831 -0.017758000642061234
vn 0.095537997782230377 0.99510502815246582 -0.025270000100135803
vn 0.033185001462697983 0.99925500154495239 -0.019725000485777855
vn 0.035447999835014343 0.9993709921836853 0.00049399997806176543
vn 0.0041330000385642052 0.99979299306869507 0.019927000626921654
vn 0.032460998743772507 0.99891901016235352 -0.033264998346567154
vn 0.032460998743772507 0.99891901016235352 -0.03326600044965744
vn 0.0048259999603033066 0.9998289942741394 0.017858000472187996
vn 0.020205000415444374 0.999783992767334 -0.0049230000004172325
vn 0.0025420000310987234 0.99976199865341187 0.021653000265359879
vn 0.0950779989361763 0.995468020439148 -0.0019749999046325684
vn 0.11556000262498856 0.9932289719581604 -0.011939999647438526
vn 0.10869500041007996 0.99390697479248047 -0.018273999914526939
vn 0.069969996809959412 0.99725997447967529 0.024029999971389771
vn 0.064383000135421753 0.99764102697372437 0.023809999227523804
vn 0.0644180029630661 0.997626006603241 0.024331999942660332
vn 0.064407996833324432 0.99762499332427979 0.024421999230980873
vn 0.065848000347614288 0.997829020023346 -0.0013689999468624592
vn 0.071129001677036285 0.99651002883911133 -0.043692998588085175
vn 0.042755000293254852 0.99903202056884766 0.010301999747753143
vn 0.059537999331951141 0.99775701761245728 -0.030603000894188881
vn 0.063603997230529785 0.99795997142791748 0.0055680000223219395
vn 0.04927700012922287 0.99876600503921509 0.0061039999127388
vn 0.0825280025601387 0.99658399820327759 0.0031169999856501818
vn -0.058931998908519745 0.99659597873687744 0.057645998895168304
vn 0.041026998311281204 0.99896699190139771 0.019540999084711075
vn 0.0634400025010109 0.99798101186752319 0.0032069999724626541
vn 0.048716999590396881 0.99879997968673706 -0.0049680001102387905
vn 0.0160559993237257 0.99952000379562378 0.026510000228881836
vn -0.0490959994494915 0.99778002500534058 0.045003000646829605
vn 0.10621999949216843 0.99419301748275757 -0.01723800040781498
vn 0.081643998622894287 0.99648201465606689 -0.018900999799370766
vn 0.10477100312709808 0.99427598714828491 -0.020917000249028206
vn 0.12676399946212769 0.99192202091217041 -0.0047430000267922878
vn 0.1193310022354126 0.9928470253944397 0.0039440002292394638
vn 0.030293000862002373 0.99947601556777954 -0.011382999829947949
vn 0.012113000266253948 0.99991601705551147 0.0046040001325309277
vn 0.039579998701810837 0.99910002946853638 -0.015248999930918217
vn 0.013682999648153782 0.99980801343917847 0.014028999954462051
vn 0.0041439998894929886 0.99978899955749512 0.020103000104427338
vn 0.013975000008940697 0.99971097707748413 0.019582999870181084
vn 0.013976000249385834 0.99971097707748413 0.019581999629735947
vn 0.071479998528957367 0.99678301811218262 -0.036240000277757645
vn 0.040938999503850937 0.998769998550415 -0.027968000620603561
vn 0.034010998904705048 0.99914902448654175 -0.023320000618696213
vn 0.108194999396801 0.99381697177886963 -0.024921000003814697
vn 0.10469300299882889 0.99428302049636841 -0.020987000316381454
vn 0.10469099879264832 0.99428302049636841 -0.020987000316381454
f 1/1/1 2/2/2 3/3/3
f 4/4/4 5/5/5 6/6/6
f 7/7/7 8/8/8 9/9/9
f 10/10/10 11/11/11 2/2/2
f 10/10/10 12/12/12 11/11/11
f 3/3/3 5/5/5 4/4/4
f 3/3/3 2/2/2 5/5/5
f 6/6/6 8/8/8 7/7/7
f 6/6/6 5/5/5 8/8/8
f 2/2/2 11/11/11 5/5/5
f 1/1/1 10/10/10 2/2/2
f 1/1/1 13/13/13 10/10/10
f 13/13/13 1/1/1 14/14/14
f 15/15/15 16/16/16 17/17/17
f 8/8/8 18/18/18 19/19/19
f 20/20/20 19/19/19 21/21/21
f 22/22/22 21/21/21 19/19/19
f 22/22/22 23/23/23 21/21/21
f 23/23/23 24/24/24 21/21/21
f 22/22/22 19/19/19 25/25/25
f 20/20/20 8/8/8 19/19/19
f 20/20/20 9/9/9 8/8/8
f 5/5/5 18/18/18 8/8/8
f 15/15/15 26/26/26 16/16/16
f 26/26/26 27/27/27 16/16/16
f 26/26/26 28/28/28 27/27/27
f 5/5/5 11/11/11 29/29/29
f 30/30/30 29/29/29 11/11/11
f 18/18/18 29/29/29 31/31/31
f 30/30/30 11/11/11 16/16/16
f 11/11/11 17/17/17 16/16/16
f 11/11/11 12/12/12 17/17/17
f 32/32/32 27/27/27 28/28/28
f 27/27/27 33/33/33 30/30/30
f 30/30/30 34/34/34 29/29/29
f 34/34/34 31/31/31 29/29/29
f 30/30/30 35/35/35 34/34/34
f 16/16/16 27/27/27 30/30/30
f 32/32/32 36/36/36 27/27/27
f 32/32/32 37/37/37 36/36/36
f 38/38/38 39/39/39 40/40/40
f 38/38/38 31/31/31 39/39/39
f 18/18/18 41/41/41 19/19/19
f 18/18/18 42/42/42 41/41/41
f 25/25/25 19/19/19 41/41/41
f 42/42/42 31/31/31 38/38/38
f 42/42/42 18/18/18 31/31/31
f 34/34/34 39/39/39 31/31/31
f 29/29/29 18/18/18 5/5/5
f 36/36/36 43/43/43 33/33/33
f 36/36/36 44/44/44 43/43/43
f 27/27/27 36/36/36 33/33/33
f 30/30/30 33/33/33 35/35/35
f 33/33/33 45/45/45 35/35/35
f 33/33/33 43/43/43 45/45/45
f 46/46/46 36/36/36 37/37/37
f 46/46/46 47/47/47 36/36/36
f 46/46/46 48/48/48 47/47/47
f 48/48/48 49/49/49 47/47/47
f 35/35/35 50/50/50 39/39/39
f 35/35/35 51/51/51 50/50/50
f 35/35/35 39/39/39 34/34/34
f 44/44/44 36/36/36 47/47/47
f 52/52/52 35/35/35 45/45/45
f 53/53/53 39/39/39 50/50/50
f 53/53/53 40/40/40 39/39/39
f 53/53/53 54/54/54 40/40/40
f 54/54/54 53/53/53 55/55/55
f 51/51/51 35/35/35 52/52/52
