mtllib m12222110.mtl
usemtl material0
v 97.839859008789062 2.1974070072174072 112
v 96 2.209604024887085 113.058434009552
v 97.990395069122314 2.2234570980072021 114.84906816482544
v 96 2.1998519897460938 112
v 109.83893585205078 2.0737559795379639 112
v 107.49092888832092 2.0559220314025879 112
v 109.95563507080078 1.9971170425415039 114.21792602539063
v 105.83898901939392 2.0649559497833252 112
v 103.2685170173645 2.1119580268859863 112
v 105.96693396568298 2.0146269798278809 114.42850494384766
v 101.83945488929749 2.1372630596160889 112
v 99.045981884002686 2.1550099849700928 112
v 101.97847700119019 2.0809590816497803 114.638916015625
v 96 2.3393731117248535 117.06158399581909
v 96 2.2726380825042725 114.95401811599731
v 96 2.2237129211425781 113.48271894454956
v 96 2.403217077255249 118.95348405838013
v 98.201607227325439 2.3536689281463623 118.83737897872925
v 96 2.5284490585327148 128
v 96.158477783203125 2.5261449813842773 128
v 96 2.523123025894165 127.54644823074341
v 98.412567138671875 2.4326069355010986 122.82586693763733
v 96 2.4691810607910156 122.95314788818359
v 96 2.4349150657653809 121.28458404541016
v 102.18956005573273 2.1852920055389404 118.62731897830963
v 101.35005211830139 2.3859219551086426 128
v 106.17743706703186 2.0012869834899902 118.41730499267578
v 110.16632080078125 2.0208859443664551 118.20660400390625
v 106.38750505447388 1.899075984954834 122.40640997886658
v 103.95142399892211 2.2157340049743652 128
v 102.40053594112396 2.2671608924865723 122.6157910823822
v 102.68510401248932 2.3315269947052 128
v 109.56532287597656 2.1689920425415039 128
v 110.37606811523438 1.8547120094299316 122.19592308998108
v 112 2.0355050563812256 118.10972595214844
v 112 1.939782977104187 120.39114400744438
v 112 1.9201259613037109 122.10996198654175
v 111.74540710449219 2.205254077911377 128
v 112 2.1868090629577637 127.41552686691284
v 110.68402910232544 2.1596770286560059 128
v 112 2.0198080539703369 116.16850996017456
v 112 2.0081610679626465 114.10994005203247
v 111.95127105712891 2.0797429084777832 112
v 112 2.0799190998077393 112
v 112 2.0782499313354492 112.04907178878784
v 112 2.2077820301055908 128
vt 0 0.11499100923538208
vt 0.066151998937129974 0
vt 0.17806699872016907 0.12440001964569092
vt 0 0
vt 0 0.86493299901485443
vt 0 0.7181830108165741
vt 0.13862000405788422 0.87222699820995331
vt 0 0.61493700742721558
vt 0 0.45428198575973511
vt 0.15178200602531433 0.62293300032615662
vt 0 0.36496597528457642
vt 0 0.19037401676177979
vt 0.16493199765682221 0.37365502119064331
vt 0.31634899973869324 0
vt 0.18462599813938141 0
vt 0.0926700010895729 0
vt 0.43459299206733704 0
vt 0.42733600735664368 0.13760000467300415
vt 1 0
vt 1 0.0099049806594848633
vt 0.97165298461914062 0
vt 0.67661702632904053 0.15078502893447876
vt 0.68457198143005371 0
vt 0.580286979675293 0
vt 0.41420701146125793 0.38684701919555664
vt 1 0.33437800407409668
vt 0.40108200907707214 0.63609001040458679
vt 0.38791298866271973 0.885394997894764
vt 0.65040099620819092 0.64921900629997253
vt 1 0.4969639778137207
vt 0.6634870171546936 0.40003299713134766
vt 1 0.41781902313232422
vt 1 0.84783299267292023
vt 0.63724499940872192 0.89850399643182755
vt 0.38185799121856689 1
vt 0.52444601058959961 1
vt 0.63187301158905029 1
vt 1 0.9840879999101162
vt 0.9634699821472168 1
vt 1 0.91775199770927429
vt 0.26053199172019958 1
vt 0.13187099993228912 1
vt 0 0.99695400008931756
vt 0 1
vt 0.0030670000705868006 1
vt 1 1
vn 0.012103999964892864 0.999879002571106 -0.009782000444829464
vn 0.0035580000840127468 0.99992501735687256 -0.011691000312566757
vn 0.026622999459505081 0.99931997060775757 -0.025520000606775284
vn 0.0013289999915286899 0.99995702505111694 -0.0092129996046423912
vn -0.0053369998931884766 0.99937999248504639 0.034814000129699707
vn -0.0021989999804645777 0.99957901239395142 0.028945999220013618
vn -0.0010379999876022339 0.99995702505111694 0.0092169996351003647
vn 0.0095440000295639038 0.999750018119812 0.020215999335050583
vn 0.017878999933600426 0.99963599443435669 0.020198000594973564
vn 0.01891000010073185 0.99981898069381714 0.002225999953225255
vn 0.010192999616265297 0.99973201751708984 0.020793000236153603
vn 0.025471000000834465 0.999675989151001 -0.00025199999799951911
vn 0.026359999552369118 0.9995570182800293 -0.013836000114679337
vn 0.021927999332547188 0.999226987361908 -0.032623998820781708
vn 0.022987000644207 0.99921399354934692 -0.032292000949382782
vn 0.022936999797821045 0.99918502569198608 -0.033225998282432556
vn 0.021020999178290367 0.99939000606536865 -0.027888000011444092
vn 0.031916998326778412 0.9991300106048584 -0.026833999902009964
vn 0.014535999856889248 0.99982500076293945 -0.011741000227630138
vn 0.026171000674366951 0.99963498115539551 -0.0066700000315904617
vn 0.014538000337779522 0.99982500076293945 -0.0117419995367527
vn 0.030703999102115631 0.99941402673721313 -0.01510899979621172
vn 0.014414000324904919 0.999796986579895 -0.014084000140428543
vn 0.01621600054204464 0.99969601631164551 -0.018601000308990479
vn 0.045921001583337784 0.99884098768234253 -0.014440000057220459
vn 0.034051001071929932 0.99936699867248535 -0.010313999839127064
vn 0.017860999330878258 0.99979597330093384 0.0094510000199079514
vn -0.00066399999195709825 0.99983400106430054 0.018187999725341797
vn 0.03431599959731102 0.9992859959602356 -0.015825999900698662
vn 0.047864001244306564 0.998216986656189 -0.035665001720190048
vn 0.065823003649711609 0.99765998125076294 -0.018472999334335327
vn 0.065274998545646667 0.9977489709854126 -0.015378000214695931
vn 0.0083140004426240921 0.99856501817703247 -0.0529090017080307
vn -0.0052189999260008335 0.999858021736145 -0.016036000102758408
vn -0.0063979998230934143 0.99953699111938477 0.029743000864982605
vn -0.020317999646067619 0.9993780255317688 0.028824999928474426
vn -0.042208001017570496 0.99839997291564941 -0.037620000541210175
vn -0.042564000934362412 0.99783998727798462 -0.050032000988721848
vn -0.039590001106262207 0.99802601337432861 -0.048741001635789871
vn -0.016609000042080879 0.99853098392486572 -0.05158500000834465
vn -0.0063200001604855061 0.99996101856231689 -0.0062150000594556332
vn -0.0046520000323653221 0.99988901615142822 0.014185000211000443
vn -0.0028659999370574951 0.99939501285552979 0.03465300053358078
vn -0.0036140000447630882 0.99941599369049072 0.033994998782873154
vn -0.0036039999686181545 0.99941599369049072 0.03398900106549263
vn -0.0099229998886585236 0.99930799007415771 -0.035858999937772751
f 1/1/1 2/2/2 3/3/3
f 1/1/1 4/4/4 2/2/2
f 5/5/5 6/6/6 7/7/7
f 8/8/8 9/9/9 10/10/10
f 11/11/11 12/12/12 13/13/13
f 14/14/14 3/3/3 15/15/15
f 16/16/16 3/3/3 2/2/2
f 16/16/16 15/15/15 3/3/3
f 3/3/3 17/17/17 18/18/18
f 3/3/3 14/14/14 17/17/17
f 19/19/19 20/20/20 21/21/21
f 21/21/21 22/22/22 23/23/23
f 21/21/21 20/20/20 22/22/22
f 24/24/24 22/22/22 18/18/18
f 24/24/24 23/23/23 22/22/22
f 18/18/18 22/22/22 25/25/25
f 26/26/26 22/22/22 20/20/20
f 24/24/24 18/18/18 17/17/17
f 13/13/13 3/3/3 18/18/18
f 25/25/25 13/13/13 18/18/18
f 13/13/13 25/25/25 10/10/10
f 7/7/7 10/10/10 27/27/27
f 8/8/8 7/7/7 6/6/6
f 8/8/8 10/10/10 7/7/7
f 7/7/7 27/27/27 28/28/28
f 27/27/27 10/10/10 25/25/25
f 9/9/9 13/13/13 10/10/10
f 9/9/9 11/11/11 13/13/13
f 27/27/27 25/25/25 29/29/29
f 30/30/30 31/31/31 32/32/32
f 30/30/30 29/29/29 31/31/31
f 25/25/25 31/31/31 29/29/29
f 33/33/33 29/29/29 30/30/30
f 26/26/26 31/31/31 22/22/22
f 26/26/26 32/32/32 31/31/31
f 34/34/34 28/28/28 29/29/29
f 35/35/35 34/34/34 36/36/36
f 35/35/35 28/28/28 34/34/34
f 37/37/37 38/38/38 39/39/39
f 37/37/37 34/34/34 38/38/38
f 34/34/34 40/40/40 38/38/38
f 33/33/33 34/34/34 29/29/29
f 33/33/33 40/40/40 34/34/34
f 28/28/28 27/27/27 29/29/29
f 41/41/41 7/7/7 28/28/28
f 41/41/41 42/42/42 7/7/7
f 31/31/31 25/25/25 22/22/22
f 12/12/12 3/3/3 13/13/13
f 12/12/12 1/1/1 3/3/3
f 43/43/43 5/5/5 7/7/7
f 41/41/41 28/28/28 35/35/35
f 44/44/44 43/43/43 45/45/45
f 45/45/45 7/7/7 42/42/42
f 45/45/45 43/43/43 7/7/7
f 46/46/46 39/39/39 38/38/38
f 36/36/36 34/34/34 37/37/37
