mtllib m122222010.mtl
usemtl material0
v 16 0.58120602369308472 58.178017020225525
v 16.937494039535522 0.645218014717102 57.13614296913147
v 16 0.63691502809524536 57.185677051544189
v 16 0.52710002660751343 60.289303004741669
v 17.042537927627563 0.59586101770401 59.130692005157471
v 16 0.554220974445343 59.185874998569489
v 16 0.62933599948883057 56
v 16 0.63472801446914673 56.066726922988892
v 16.060035943984985 0.6351349949836731 56
v 16 0.39485099911689758 63.683926105499268
v 17.252774953842163 0.52839398384094238 63.119674921035767
v 16 0.41889199614524841 63.186176061630249
v 16.868953943252563 0.45330899953842163 64
v 16 0.37958401441574097 64
v 16 0.54527300596237183 61.185840964317322
v 16 0.46852600574493408 62.400580883026123
v 17.148066997528076 0.64562302827835083 61.124897003173828
v 17.959692001342773 0.64607900381088257 56
v 16.877501964569092 0.64245998859405518 56
v 19.03727000951767 0.66528201103210449 59.025134980678558
v 18.931931018829346 0.65409302711486816 57.030796051025391
v 19.143010973930359 0.758010983467102 61.019196033477783
v 17.752535104751587 0.51721400022506714 64
v 18.877495050430298 0.65032798051834106 56
v 19.859139993786812 0.544327974319458 56
v 21.137979984283447 0.87528002262115479 60.913474977016449
v 19.29976499080658 0.63903498649597168 64
v 19.247968971729279 0.6915619969367981 63.013797998428345
v 20.766855001449585 0.7144629955291748 64
v 21.242895007133484 0.800042986869812 62.908112049102783
v 21.031826019287109 0.69856798648834229 58.9197039604187
v 20.87696498632431 0.55614000558853149 56
v 20.926374018192291 0.66491901874542236 56.925441980361938
v 21.7588210105896 0.56831097602844238 56
v 23.026060104370117 0.66691398620605469 58.814491033554077
v 23.132095098495483 0.819212019443512 60.808350026607513
v 22.920047998428345 0.51900798082351685 56.820621013641357
v 21.862928032875061 0.81074899435043335 64
v 22.876574039459229 0.48888498544692993 56
v 23.658266067504883 0.46427500247955322 56
v 24 0.47938600182533264 56.763717889785767
v 24 0.45926100015640259 56.194716930389404
v 24 0.45237401127815247 56
v 24 0.55287700891494751 57.731750011444092
v 24 0.70533502101898193 58.762938976287842
v 24 0.78539001941680908 59.843623995780945
v 23.237549066543579 0.85334700345993042 62.802608013153076
v 23.300734996795654 0.84877598285675049 64
v 24 0.82089197635650635 62.762450933456421
v 24 0.81969201564788818 63.528309106826782
v 24 0.81895297765731812 64
v 24 0.84325498342514038 60.762444019317627
v 24 0.86187201738357544 61.955181002616882
vt 0.701554000377655 0.010407984256744385
vt 0.83079099655151367 0.11876100301742554
vt 0.82095497846603394 0.0063390135765075684
vt 0.44784098863601685 0.019231975078582764
vt 0.59154999256134033 0.13971400260925293
vt 0.58043599128723145 0.014614999294281006
vt 0.96341800689697266 0.0013890266418457031
vt 0.95537698268890381 0.001699984073638916
vt 0.96364200115203857 0.0086349844932556152
vt 0.039443999528884888 0.0325319766998291
vt 0.1127529963850975 0.18175101280212402
vt 0.099313996732234955 0.03063201904296875
vt 0.0050989999435842037 0.13847100734710693
vt 0.0014250000240281224 0.033710002899169922
vt 0.34012898802757263 0.02328801155090332
vt 0.19389000535011292 0.0277479887008667
vt 0.35241800546646118 0.16146397590637207
vt 0.9715149998664856 0.23684900999069214
vt 0.96702897548675537 0.10684299468994141
vt 0.6126670241355896 0.37903702259063721
vt 0.85180002450942993 0.35791397094726562
vt 0.3736099898815155 0.40104299783706665
vt 0.0090180002152919769 0.24536699056625366
vt 0.97540301084518433 0.34705901145935059
vt 0.979619026184082 0.4656670093536377
vt 0.39382100105285645 0.63985899090766907
vt 0.01583700068295002 0.43180000782012939
vt 0.13419699668884277 0.42074602842330933
vt 0.021246999502182007 0.60685399174690247
vt 0.15458999574184418 0.66210401058197021
vt 0.63378298282623291 0.61822700500488281
vt 0.98465001583099365 0.5870400071144104
vt 0.87293398380279541 0.5970579981803894
vt 0.98789101839065552 0.69352999329566956
vt 0.65555697679519653 0.85731500387191772
vt 0.41582900285720825 0.87897399812936783
vt 0.89437198638916016 0.83671799302101135
vt 0.02640100009739399 0.7417910099029541
vt 0.99284499883651733 0.82813499867916107
vt 0.99615597724914551 0.9220850020647049
vt 0.906781017780304 0.96572599932551384
vt 0.97518199682235718 0.96344799920916557
vt 0.99857497215271 0.96233100071549416
vt 0.79016602039337158 0.97006399929523468
vt 0.66573500633239746 0.9741980005055666
vt 0.53556698560714722 0.97902699932456017
vt 0.17678000032901764 0.90126100182533264
vt 0.033261999487876892 0.91454499959945679
vt 0.18505899608135223 0.99274600017815828
vt 0.093193002045154572 0.99640000006183982
vt 0.036536999046802521 0.998611000017263
vt 0.42497798800468445 0.983084000647068
vt 0.2821429967880249 0.98886999953538179
vn -0.03089199960231781 0.9989590048789978 0.03357899934053421
vn -0.00956599973142147 0.9998360276222229 0.015386000275611877
vn -0.00737199978902936 0.9995800256729126 0.028037000447511673
vn -0.0765950009226799 0.99701499938964844 -0.0097500002011656761
vn -0.039266999810934067 0.99922001361846924 0.0041140001267194748
vn -0.038543000817298889 0.99892902374267578 0.0256120003759861
vn -0.095831997692584991 0.9921640157699585 -0.080164000391960144
vn -0.029343999922275543 0.9993630051612854 -0.020299000665545464
vn -0.0322519987821579 0.99921697378158569 -0.022916000336408615
vn -0.084441997110843658 0.99526798725128174 0.0480710007250309
vn -0.076777003705501556 0.99555701017379761 0.054510999470949173
vn -0.0840350016951561 0.99493402242660522 0.055183000862598419
vn -0.079879000782966614 0.99554598331451416 0.050085000693798065
vn -0.084441997110843658 0.99526798725128174 0.0480710007250309
vn -0.085853002965450287 0.99604701995849609 0.022783000022172928
vn -0.083593003451824188 0.99451702833175659 0.06283300369977951
vn -0.068008996546268463 0.997527003288269 0.017717000097036362
vn -0.0042869998142123222 0.99998599290847778 -0.0030990000814199448
vn -0.006246000062674284 0.99997800588607788 -0.0020979999098926783
vn -0.035073999315500259 0.99902802705764771 -0.026716999709606171
vn 0.0031890000682324171 0.99985700845718384 -0.01662600040435791
vn -0.060637999325990677 0.99816000461578369 -0.00021600000036414713
vn -0.076233997941017151 0.99552100896835327 0.055920999497175217
vn 0.049571998417377472 0.99875098466873169 -0.0062649999745190144
vn 0.020191000774502754 0.995926022529602 -0.087889000773429871
vn -0.011997000314295292 0.99975699186325073 -0.018486000597476959
vn -0.064400002360343933 0.9963260293006897 0.056448999792337418
vn -0.0658859983086586 0.99671298265457153 0.047150000929832458
vn -0.064590997993946075 0.99666100740432739 0.049956001341342926
vn -0.0393729992210865 0.99879497289657593 0.029310999438166618
vn 0.0050490000285208225 0.99826699495315552 -0.058635998517274857
vn -0.012578000314533711 0.99316197633743286 -0.11606799811124802
vn 0.020705999806523323 0.99810600280761719 -0.057936001569032669
vn 0.048262998461723328 0.996990978717804 -0.060662999749183655
vn -0.0052689998410642147 0.99630200862884521 -0.085759997367858887
vn -0.010114000178873539 0.99923300743103027 -0.037831000983715057
vn 0.044631000608205795 0.99774402379989624 -0.050140999257564545
vn -0.046953998506069183 0.99875497817993164 0.016869999468326569
vn 0.051782000809907913 0.99788200855255127 -0.039374001324176788
vn 0.03389199823141098 0.9987720251083374 -0.0361270010471344
vn 0.03372500091791153 0.99792701005935669 -0.054802998900413513
vn 0.034782998263835907 0.998769998550415 -0.035326000303030014
vn 0.034782998263835907 0.998769998550415 -0.035326000303030014
vn 0.014150000177323818 0.99564599990844727 -0.092136003077030182
vn -0.045047998428344727 0.99278402328491211 -0.11113400012254715
vn -0.04035399854183197 0.996641993522644 -0.07124599814414978
vn -0.00075399997876957059 0.99999701976776123 0.0021750000305473804
vn 0.00925000011920929 0.99995201826095581 0.0033289999701082706
vn 0.043928001075983047 0.9986720085144043 0.026917999610304832
vn 0.042610999196767807 0.99909001588821411 0.0015650000423192978
vn 0.042610999196767807 0.99909102916717529 0.0015660000499337912
vn -0.029783999547362328 0.99875599145889282 -0.039999999105930328
vn -0.011328999884426594 0.99993598461151123 -0.00013499999477062374
f 1/1/1 2/2/2 3/3/3
f 4/4/4 5/5/5 6/6/6
f 7/7/7 8/8/8 9/9/9
f 10/10/10 11/11/11 12/12/12
f 10/10/10 13/13/13 11/11/11
f 10/10/10 14/14/14 13/13/13
f 15/15/15 16/16/16 17/17/17
f 18/18/18 19/19/19 2/2/2
f 3/3/3 9/9/9 8/8/8
f 3/3/3 2/2/2 9/9/9
f 2/2/2 19/19/19 9/9/9
f 2/2/2 6/6/6 5/5/5
f 2/2/2 1/1/1 6/6/6
f 15/15/15 5/5/5 4/4/4
f 15/15/15 17/17/17 5/5/5
f 17/17/17 20/20/20 5/5/5
f 21/21/21 2/2/2 5/5/5
f 22/22/22 17/17/17 11/11/11
f 12/12/12 17/17/17 16/16/16
f 12/12/12 11/11/11 17/17/17
f 23/23/23 11/11/11 13/13/13
f 24/24/24 21/21/21 25/25/25
f 18/18/18 21/21/21 24/24/24
f 18/18/18 2/2/2 21/21/21
f 17/17/17 22/22/22 20/20/20
f 20/20/20 22/22/22 26/26/26
f 11/11/11 27/27/27 28/28/28
f 11/11/11 23/23/23 27/27/27
f 28/28/28 29/29/29 30/30/30
f 28/28/28 27/27/27 29/29/29
f 26/26/26 22/22/22 28/28/28
f 11/11/11 28/28/28 22/22/22
f 31/31/31 21/21/21 20/20/20
f 5/5/5 20/20/20 21/21/21
f 32/32/32 33/33/33 34/34/34
f 33/33/33 25/25/25 21/21/21
f 33/33/33 32/32/32 25/25/25
f 26/26/26 31/31/31 20/20/20
f 26/26/26 35/35/35 31/31/31
f 30/30/30 36/36/36 26/26/26
f 30/30/30 26/26/26 28/28/28
f 33/33/33 31/31/31 37/37/37
f 31/31/31 33/33/33 21/21/21
f 29/29/29 38/38/38 30/30/30
f 37/37/37 34/34/34 33/33/33
f 37/37/37 39/39/39 34/34/34
f 39/39/39 37/37/37 40/40/40
f 41/41/41 40/40/40 37/37/37
f 41/41/41 42/42/42 40/40/40
f 42/42/42 43/43/43 40/40/40
f 44/44/44 37/37/37 35/35/35
f 44/44/44 41/41/41 37/37/37
f 36/36/36 35/35/35 26/26/26
f 36/36/36 45/45/45 35/35/35
f 36/36/36 46/46/46 45/45/45
f 38/38/38 47/47/47 30/30/30
f 38/38/38 48/48/48 47/47/47
f 48/48/48 49/49/49 47/47/47
f 48/48/48 50/50/50 49/49/49
f 50/50/50 48/48/48 51/51/51
f 52/52/52 47/47/47 53/53/53
f 52/52/52 36/36/36 47/47/47
f 47/47/47 36/36/36 30/30/30
f 44/44/44 35/35/35 45/45/45
f 35/35/35 37/37/37 31/31/31
f 49/49/49 53/53/53 47/47/47
f 52/52/52 46/46/46 36/36/36
