mtllib m1222310.mtl
usemtl material0
v 192 -0.61904501914978027 101.89389801025391
v 192 -0.358491986989975 107.47867584228516
v 197.27359008789063 -0.85573500394821167 101.61615753173828
v 194.7283935546875 -0.61728399991989136 96
v 192 -0.55723601579666138 99.032669067382812
v 196.97781372070313 -0.72080099582672119 96
v 202.32719421386719 -0.479559987783432 96
v 197.69464111328125 -0.87410002946853638 109.59372711181641
v 205.25099205970764 -0.88853299617767334 101.19499969482422
v 192 -0.35239300131797791 109.89280700683594
v 192 -0.37728500366210938 112.06500999629498
v 198.11512756347656 -1.0042979717254639 117.57167816162109
v 192 -0.47328901290893555 117.89292907714844
v 192 -1.2948780059814453 124.36787414550781
v 192 -1.4267159700393677 125.89566802978516
v 196.32977294921875 -1.7846510410308838 128
v 198.53274536132813 -1.7131179571151733 125.55159759521484
v 192 -1.4687399864196777 126.47870635986328
v 192 -1.5783920288085938 128
v 206.09178197383881 -1.1889499425888062 117.15103101730347
v 198.66041564941406 -2.0221009254455566 128
v 206.50990295410156 -1.7952330112457275 125.13059997558594
v 203.92768907546997 -2.1111559867858887 128
v 205.6714780330658 -1.0196900367736816 109.17295098304749
v 192 -0.46927699446678162 96
v 212.97866821289063 -0.479543000459671 96
v 207.92588800191879 -0.51354801654815674 96
v 213.22854614257813 -0.89156597852706909 100.77374267578125
v 220.97752380371094 -0.66250300407409668 96
v 216.37106323242188 -0.58548802137374878 96
v 221.20504760742188 -1.1050629615783691 100.35319519042969
v 213.64842176437378 -1.1462550163269043 108.75211310386658
v 221.62446594238281 -1.452523946762085 108.33188605308533
v 204.9787449836731 -0.50084900856018066 96
v 214.07260084152222 -0.53379100561141968 116.72753095626831
v 214.48945617675781 -1.3969060182571411 124.70797729492188
v 222.04843139648438 -0.88253998756408691 116.30744886398315
v 206.66015601158142 -2.03291392326355 128
v 224 -1.3349230289459229 105.69178819656372
v 224 -1.0957039594650269 100.20557403564453
v 224 -1.5665839910507202 108.2068018913269
v 224 -1.1288039684295654 114.13780999183655
v 224 -0.76851201057434082 96.983848571777344
v 224 -0.668595016002655 96
v 224 -1.4681739807128906 122.58267974853516
v 222.46723937988281 -1.3530830144882202 124.28656005859375
v 224 -1.1365629434585571 116.20519304275513
v 224 -1.4716429710388184 124.20598602294922
v 224 -1.5146290063858032 124.98141479492188
v 224 -1.5526419878005981 125.66714477539063
v 222.66201782226563 -1.5952539443969727 128
v 218.14669799804688 -1.6044770479202271 128
v 214.6612548828125 -1.7807420492172241 128
v 209.69744896888733 -1.9972770214080811 128
v 224 -1.6956009864807129 128
vt 0.787024974822998 0.00927799940109253
vt 0.61908102035522461 0.014766991138458252
vt 0.80087202787399292 0.16755098104476929
vt 0.96694302558898926 0.084996998310089111
vt 0.87298500537872314 0.006210029125213623
vt 0.969290018081665 0.15263497829437256
vt 0.97522300481796265 0.31346499919891357
vt 0.56171101331710815 0.18878799676895142
vt 0.82210999727249146 0.40670901536941528
vt 0.54656898975372314 0.01735001802444458
vt 0.4813230037689209 0.019757986068725586
vt 0.32253500819206238 0.210316002368927
vt 0.30626198649406433 0.026297986507415771
vt 0.1103150025010109 0.035556972026824951
vt 0.064272001385688782 0.037602007389068604
vt 0.0061699999496340752 0.1705470085144043
vt 0.0824119970202446 0.23210400342941284
vt 0.046720001846551895 0.03836899995803833
vt 0.00092199997743591666 0.040373027324676514
vt 0.34384199976921082 0.44950598478317261
vt 0.0084469998255372047 0.23882901668548584
vt 0.1037369966506958 0.46839398145675659
vt 0.014818999916315079 0.39703202247619629
vt 0.5829089879989624 0.42796897888183594
vt 0.96411198377609253 0.0029230117797851562
vt 0.987034022808075 0.63317599892616272
vt 0.98148000240325928 0.48141199350357056
vt 0.843388020992279 0.64586499333381653
vt 0.99563401937484741 0.87324599921703339
vt 0.99059098958969116 0.73486998677253723
vt 0.86448001861572266 0.88509099930524826
vt 0.60408699512481689 0.6671450138092041
vt 0.62507301568984985 0.90645699948072433
vt 0.978289008140564 0.39294701814651489
vt 0.36426299810409546 0.68819200992584229
vt 0.12422899901866913 0.70798099040985107
vt 0.38564199209213257 0.92751500010490417
vt 0.019437000155448914 0.47906100749969482
vt 0.70705497264862061 0.97490499913692474
vt 0.871990978717804 0.96887500025331974
vt 0.63120001554489136 0.97777299955487251
vt 0.45317399501800537 0.983967000618577
vt 0.96937799453735352 0.96515500172972679
vt 0.99907797574996948 0.96402199938893318
vt 0.1971919983625412 0.99218599963933229
vt 0.14491400122642517 0.94720000028610229
vt 0.39109000563621521 0.9864929998293519
vt 0.14841599762439728 0.9933360000140965
vt 0.12508399784564972 0.993983999826014
vt 0.10468199849128723 0.99475299986079335
vt 0.03332500159740448 0.9567670002579689
vt 0.028245000168681145 0.82066500186920166
vt 0.024792000651359558 0.71583300828933716
vt 0.019998999312520027 0.56657901406288147
vt 0.034474000334739685 0.99707700009457767
vn 0.04411499947309494 0.99893301725387573 -0.013651999644935131
vn 0.07976599782705307 0.99673199653625488 -0.012787000276148319
vn 0.02464199997484684 0.99962002038955688 0.01235399954020977
vn 0.048144999891519547 0.99856299161911011 0.023543000221252441
vn 0.047873001545667648 0.99858200550079346 0.023297000676393509
vn 0.0019859999883919954 0.99971199035644531 0.023915000259876251
vn -0.0061409999616444111 0.99809902906417847 0.061326999217271805
vn 0.053452000021934509 0.99853599071502686 0.008248000405728817
vn 0.0063009997829794884 0.99904000759124756 0.043349999934434891
vn 0.091473996639251709 0.99579697847366333 0.0046769999898970127
vn 0.0906279981136322 0.99580299854278564 0.012745000422000885
vn 0.052397001534700394 0.99704301357269287 0.056203000247478485
vn 0.09006500244140625 0.993287980556488 0.0725800022482872
vn 0.058518998324871063 0.99374198913574219 0.095144003629684448
vn 0.047795999795198441 0.99575799703598022 0.078625001013278961
vn 0.061785001307725906 0.99449402093887329 0.084646999835968018
vn 0.040029998868703842 0.99450200796127319 0.096762001514434814
vn 0.047460000962018967 0.996288001537323 0.0718109980225563
vn 0.047460000962018967 0.99628901481628418 0.0718109980225563
vn -0.028246000409126282 0.9982680082321167 0.0516120009124279
vn 0.057174999266862869 0.99087399244308472 0.12206500023603439
vn -0.019903000444173813 0.99540102481842041 0.09370800107717514
vn 0.0046709999442100525 0.99351698160171509 0.11359100043773651
vn 0.003894000081345439 0.99996298551559448 0.0077010001987218857
vn 0.054145000874996185 0.99811297655105591 0.02894899994134903
vn 0.011560999788343906 0.99628102779388428 0.085383996367454529
vn 0.0017239999724552035 0.99702697992324829 0.07703699916601181
vn 0.016915999352931976 0.99835902452468872 0.054708000272512436
vn 0.0095650004222989082 0.99487698078155518 0.10064200311899185
vn 0.027721000835299492 0.99572902917861938 0.088062003254890442
vn 0.014828000217676163 0.997560977935791 0.068205997347831726
vn 0.024497000500559807 0.99945300817489624 -0.022205999121069908
vn 0.036892000585794449 0.99926799535751343 -0.010095000267028809
vn 0.0062139998190104961 0.99723201990127563 0.074093997478485107
vn -0.0022350000217556953 0.9996979832649231 0.024457000195980072
vn -0.022481000050902367 0.99469602108001709 0.10037499666213989
vn 0.0704289972782135 0.997497022151947 0.0063200001604855061
vn -0.019836999475955963 0.996304988861084 0.083566002547740936
vn 0.011473000049591065 0.9984319806098938 0.054797999560832977
vn 0.00053199997637420893 0.99730998277664185 0.073297001421451569
vn 0.048576001077890396 0.99874997138977051 0.01180499978363514
vn 0.064007997512817383 0.99640399217605591 -0.055521998554468155
vn 0.0020049999002367258 0.99488097429275513 0.10103800147771835
vn 0.0020049999002367258 0.99488002061843872 0.10103800147771835
vn 0.11889799684286118 0.9921029806137085 0.039944998919963837
vn 0.044440999627113342 0.99764001369476318 0.052340999245643616
vn 0.1304129958152771 0.99109500646591187 0.0268740002065897
vn 0.0785439983010292 0.99652200937271118 0.027816999703645706
vn 0.079884998500347137 0.99527597427368164 0.055172998458147049
vn 0.076043002307415009 0.99533098936080933 0.059445999562740326
vn 0.037663999944925308 0.99729901552200317 0.063063003122806549
vn -0.013337999582290649 0.99689000844955444 0.077674999833107
vn -0.046817000955343246 0.99189800024032593 0.11809500306844711
vn -0.035886000841856 0.9933050274848938 0.10980699956417084
vn 0.074649997055530548 0.995343029499054 0.060995001345872879
f 1/1/1 2/2/2 3/3/3
f 1/1/1 4/4/4 5/5/5
f 1/1/1 3/3/3 4/4/4
f 3/3/3 6/6/6 4/4/4
f 6/6/6 3/3/3 7/7/7
f 8/8/8 9/9/9 3/3/3
f 10/10/10 3/3/3 2/2/2
f 10/10/10 8/8/8 3/3/3
f 8/8/8 11/11/11 12/12/12
f 8/8/8 10/10/10 11/11/11
f 13/13/13 14/14/14 12/12/12
f 15/15/15 16/16/16 17/17/17
f 15/15/15 18/18/18 16/16/16
f 18/18/18 19/19/19 16/16/16
f 15/15/15 12/12/12 14/14/14
f 15/15/15 17/17/17 12/12/12
f 17/17/17 20/20/20 12/12/12
f 21/21/21 22/22/22 17/17/17
f 21/21/21 23/23/23 22/22/22
f 21/21/21 17/17/17 16/16/16
f 11/11/11 13/13/13 12/12/12
f 8/8/8 12/12/12 24/24/24
f 25/25/25 5/5/5 4/4/4
f 26/26/26 27/27/27 28/28/28
f 29/29/29 30/30/30 31/31/31
f 24/24/24 9/9/9 8/8/8
f 9/9/9 24/24/24 28/28/28
f 31/31/31 28/28/28 32/32/32
f 30/30/30 28/28/28 31/31/31
f 30/30/30 26/26/26 28/28/28
f 31/31/31 32/32/32 33/33/33
f 32/32/32 28/28/28 24/24/24
f 28/28/28 34/34/34 9/9/9
f 28/28/28 27/27/27 34/34/34
f 32/32/32 24/24/24 35/35/35
f 22/22/22 20/20/20 17/17/17
f 20/20/20 22/22/22 35/35/35
f 35/35/35 36/36/36 37/37/37
f 20/20/20 35/35/35 24/24/24
f 35/35/35 37/37/37 33/33/33
f 36/36/36 35/35/35 22/22/22
f 33/33/33 32/32/32 35/35/35
f 38/38/38 22/22/22 23/23/23
f 39/39/39 31/31/31 33/33/33
f 39/39/39 40/40/40 31/31/31
f 20/20/20 24/24/24 12/12/12
f 37/37/37 41/41/41 33/33/33
f 37/37/37 42/42/42 41/41/41
f 43/43/43 31/31/31 40/40/40
f 43/43/43 29/29/29 31/31/31
f 43/43/43 44/44/44 29/29/29
f 45/45/45 37/37/37 46/46/46
f 45/45/45 47/47/47 37/37/37
f 42/42/42 37/37/37 47/47/47
f 45/45/45 46/46/46 48/48/48
f 46/46/46 37/37/37 36/36/36
f 48/48/48 46/46/46 49/49/49
f 49/49/49 46/46/46 50/50/50
f 36/36/36 51/51/51 46/46/46
f 36/36/36 52/52/52 51/51/51
f 39/39/39 33/33/33 41/41/41
f 22/22/22 53/53/53 36/36/36
f 22/22/22 54/54/54 53/53/53
f 9/9/9 7/7/7 3/3/3
f 9/9/9 34/34/34 7/7/7
f 52/52/52 36/36/36 53/53/53
f 55/55/55 46/46/46 51/51/51
f 55/55/55 50/50/50 46/46/46
f 54/54/54 22/22/22 38/38/38
