mtllib m1222222003.mtl
usemtl material0
v 4 1.3807400465011597 24
v 4 1.3812530040740967 24.010872006416321
v 4.00977897644043 1.3804700374603272 24
v 4 1.3633660078048706 24.818097949028015
v 4 1.3402730226516724 25.066488027572632
v 4.2345499992370605 1.3390740156173706 24.805788040161133
v 4 1.3342269659042358 26.122175000607967
v 4.2872179746627808 1.3441900014877319 25.802958995103836
v 4 1.3441070318222046 25.818127006292343
v 4 1.2750869989395142 27.877830982208252
v 4.3921329975128174 1.26897394657135 27.797595977783203
v 4 1.2746200561523438 27.81828498840332
v 4.210036039352417 1.2731050252914429 28
v 4 1.2760430574417114 28
v 4 1.3399349451065064 26.81810998916626
v 4 1.3290120363235474 27.177863955497742
v 4.3399109840393066 1.3546769618988037 26.80011397600174
v 4.1921249628067017 1.3613729476928711 24
v 4.9594869613647461 1.3200030326843262 24
v 5.2316439747810364 1.3183690309524536 24.753201007843018
v 5.3366310000419617 1.2578010559082031 26.747785985469818
v 4.4027509689331055 1.2558430433273315 28
v 5.3888000249862671 1.1613559722900391 27.745306015014648
v 5.1596689820289612 1.1717679500579834 28
v 5.2842199802398682 1.3049310445785523 25.750434994697571
v 5.1918659806251526 1.3152420520782471 24
v 5.9092110022902489 1.2683039903640747 24
v 6.2284740060567856 1.2439529895782471 24.700798034667969
v 6.3334980010986328 1.1907089948654175 26.695357978343964
v 6.1094760000705719 1.1652400493621826 28
v 5.4021570086479187 1.1440850496292114 28
v 6.3861599862575531 1.1948479413986206 27.692531943321228
v 6.2810769975185394 1.2358859777450562 25.698013007640839
v 6.1914950013160706 1.2472200393676758 24
v 6.85884702205658 1.16867196559906 24
v 7.277974009513855 1.1751409769058228 25.645563006401062
v 7.3306969404220581 1.1914869546890259 26.642696022987366
v 6.4022299945354462 1.1631649732589722 28
v 7.0592739582061768 1.1543370485305786 28
v 7.3833169937133789 1.1868369579315186 27.639899969100952
v 7.2253520488739014 1.1793019771575928 24.648358941078186
v 8 1.1613190174102783 24.607509970664978
v 8 1.1606260538101196 24.843019008636475
v 8 1.1505990028381348 25.607513010501862
v 8 1.1558810472488403 25.898709997534752
v 7.4021730422973633 1.1566029787063599 28
v 8 1.1956139802932739 26.6073380112648
v 8 1.1938869953155518 26.954487025737762
v 8 1.1541320085525513 28
v 8 1.1545699834823608 27.994768023490906
v 8 1.1870160102844238 27.6073340177536
v 7.1909650564193726 1.1480330228805542 24
v 7.8086429834365845 1.1564170122146606 24
v 8 1.1521270275115967 24
v 8 1.1562949419021606 24.27551794052124
vt 0.99247002601623535 0.00065398216247558594
vt 0.98977500200271606 0.00064998865127563477
vt 0.99247002601623535 0.003076016902923584
vt 0.78981399536132812 0.0013039708137512207
vt 0.72803699970245361 0.001967012882232666
vt 0.79291898012161255 0.059698998928070068
vt 0.46655300259590149 0.0034040212631225586
vt 0.54603701829910278 0.07409900426864624
vt 0.541890025138855 0.0029889941215515137
vt 0.031147999688982964 0.0062590241432189941
vt 0.051343001425266266 0.10377097129821777
vt 0.04589499905705452 0.0062159895896911621
vt 0.00097300001652911305 0.05893397331237793
vt 0.00089199998183175921 0.00645601749420166
vt 0.29419898986816406 0.0045019984245300293
vt 0.20506399869918823 0.0049239993095397949
vt 0.29912099242210388 0.088023006916046143
vt 0.99251401424407959 0.048482000827789307
vt 0.99292200803756714 0.23879897594451904
vt 0.80655300617218018 0.30665397644042969
vt 0.31286200881004333 0.33598601818084717
vt 0.0011370000429451466 0.10685098171234131
vt 0.064850002527236938 0.3520050048828125
vt 0.0015429999912157655 0.29545801877975464
vt 0.560030996799469 0.32114797830581665
vt 0.9930649995803833 0.29636001586914062
vt 0.993556022644043 0.47439301013946533
vt 0.820222020149231 0.55417400598526
vt 0.32680299878120422 0.58337199687957764
vt 0.0032870001159608364 0.53101399540901184
vt 0.0016629999736323953 0.35590100288391113
vt 0.0802529975771904 0.59901100397109985
vt 0.57381600141525269 0.568572998046875
vt 0.99375098943710327 0.544497013092041
vt 0.99421900510787964 0.71090999245643616
vt 0.58810800313949585 0.81584499776363373
vt 0.34119999408721924 0.830256998538971
vt 0.0037330000195652246 0.603516012430191
vt 0.004918999969959259 0.76637999713420868
vt 0.095142997801303864 0.84586399793624878
vt 0.83499801158905029 0.801474004983902
vt 0.84614002704620361 0.99331399984657764
vt 0.78781497478485107 0.99362900014966726
vt 0.59847098588943481 0.99470899999141693
vt 0.52644002437591553 0.995145000051707
vt 0.0056920000351965427 0.85129900276660919
vt 0.35067099332809448 0.99597699986770749
vt 0.26599499583244324 0.99735999992117286
vt 0.0069059999659657478 0.99934999999823049
vt 0.00802600011229515 0.99923700001090765
vt 0.10430999845266342 0.99852699995972216
vt 0.99573898315429688 0.79267899692058563
vt 0.99590498208999634 0.94566399976611137
vt 0.99660801887512207 0.9926889999769628
vt 0.928367018699646 0.99290300020948052
vn 0.027543999254703522 0.998507022857666 -0.047166001051664352
vn 0.086358003318309784 0.99624699354171753 0.0059000002220273018
vn 0.0838019996881485 0.99647599458694458 0.0035860000643879175
vn 0.1058569997549057 0.99268198013305664 0.058100998401641846
vn 0.024791000410914421 0.99953597784042358 0.017710000276565552
vn 0.053872998803853989 0.99839699268341064 0.017351999878883362
vn -0.03323499858379364 0.99944698810577393 0.0012919999426230788
vn 0.011785999871790409 0.99993002414703369 -0.0007350000087171793
vn 0.00046499999007210135 0.99989700317382812 0.014321000315248966
vn 0.013984000310301781 0.99987202882766724 -0.007826000452041626
vn 0.071776002645492554 0.9953879714012146 0.063643001019954681
vn 0.016333999112248421 0.99918502569198608 0.036901000887155533
vn 0.034079998731613159 0.99936598539352417 0.010262999683618546
vn 0.013984000310301781 0.99987202882766724 -0.007826000452041626
vn -0.042707998305559158 0.99901902675628662 0.011718999594449997
vn 0.0047070002183318138 0.997393012046814 0.072001002728939056
vn 0.028545999899506569 0.9989439845085144 0.035989999771118164
vn 0.079874999821186066 0.99653100967407227 0.023372000083327293
vn 0.029385000467300415 0.999563992023468 0.0027789999730885029
vn 0.04888400062918663 0.998803973197937 0.000846999988425523
vn 0.086785003542900085 0.99407899379730225 0.065381996333599091
vn 0.10003200173377991 0.99322199821472168 0.059188000857830048
vn 0.0532039999961853 0.996392011642456 0.066124998033046722
vn 0.11101099848747253 0.99204802513122559 0.059314999729394913
vn 0.0630820021033287 0.9978259801864624 0.019077999517321587
vn 0.042149998247623444 0.99909102916717529 -0.0063740001060068607
vn 0.07203499972820282 0.99740099906921387 -0.0014939999673515558
vn 0.0752979964017868 0.99715501070022583 -0.0035210000351071358
vn 0.029540000483393669 0.99927902221679688 0.023862000554800034
vn -0.019966999068856239 0.99675202369689941 0.078014999628067017
vn 0.039285998791456223 0.99707502126693726 0.065554000437259674
vn -0.0070349997840821743 0.99890202283859253 0.046323001384735107
vn 0.066388003528118134 0.99753201007843018 0.022879999130964279
vn 0.094995997846126556 0.99547797441482544 -0.00037200000951997936
vn 0.076590999960899353 0.99633300304412842 -0.038134001195430756
vn 0.038405999541282654 0.99926197528839111 0.00091300002532079816
vn 0.0020069999154657125 0.99992501735687256 -0.012089000083506107
vn 0.0103150000795722 0.9947350025177002 0.10196399688720703
vn 0.0080319996923208237 0.9952470064163208 0.097052000463008881
vn 0.0032480000518262386 0.99888300895690918 0.0471390001475811
vn 0.038199998438358307 0.999085009098053 -0.019252000376582146
vn 0.022871999070048332 0.99971801042556763 -0.0063970000483095646
vn 0.026000000536441803 0.99964797496795654 0.0053110001608729362
vn 0.0338670015335083 0.99942398071289062 -0.0019859999883919954
vn 0.023200999945402145 0.99936699867248535 -0.026955999433994293
vn -0.0010560000082477927 0.99648898839950562 0.083722002804279327
vn -0.007565000094473362 0.9996190071105957 -0.026535000652074814
vn -0.0044639999978244305 0.999970018863678 0.0062690000049769878
vn 0.0041220001876354218 0.996504008769989 0.083447001874446869
vn 0.0041220001876354218 0.996504008769989 0.083447001874446869
vn 0.0021289999131113291 0.99894899129867554 0.045795999467372894
vn 0.025454999879002571 0.998449981212616 -0.04950299859046936
vn 0.012810000218451023 0.99963599443435669 -0.023760000243782997
vn 0.022408999502658844 0.99963498115539551 -0.015124999918043613
vn 0.022408999502658844 0.9996340274810791 -0.015124999918043613
f 1/1/1 2/2/2 3/3/3
f 4/4/4 5/5/5 6/6/6
f 7/7/7 8/8/8 9/9/9
f 10/10/10 11/11/11 12/12/12
f 10/10/10 13/13/13 11/11/11
f 10/10/10 14/14/14 13/13/13
f 15/15/15 16/16/16 17/17/17
f 4/4/4 3/3/3 2/2/2
f 4/4/4 6/6/6 3/3/3
f 6/6/6 18/18/18 3/3/3
f 18/18/18 6/6/6 19/19/19
f 8/8/8 20/20/20 6/6/6
f 9/9/9 6/6/6 5/5/5
f 9/9/9 8/8/8 6/6/6
f 12/12/12 17/17/17 16/16/16
f 12/12/12 11/11/11 17/17/17
f 11/11/11 21/21/21 17/17/17
f 22/22/22 23/23/23 11/11/11
f 22/22/22 24/24/24 23/23/23
f 22/22/22 11/11/11 13/13/13
f 8/8/8 17/17/17 25/25/25
f 15/15/15 8/8/8 7/7/7
f 15/15/15 17/17/17 8/8/8
f 20/20/20 19/19/19 6/6/6
f 20/20/20 26/26/26 19/19/19
f 26/26/26 20/20/20 27/27/27
f 20/20/20 25/25/25 28/28/28
f 25/25/25 20/20/20 8/8/8
f 23/23/23 21/21/21 11/11/11
f 21/21/21 23/23/23 29/29/29
f 30/30/30 23/23/23 31/31/31
f 30/30/30 32/32/32 23/23/23
f 31/31/31 23/23/23 24/24/24
f 33/33/33 25/25/25 21/21/21
f 21/21/21 25/25/25 17/17/17
f 27/27/27 28/28/28 34/34/34
f 27/27/27 20/20/20 28/28/28
f 34/34/34 28/28/28 35/35/35
f 25/25/25 33/33/33 28/28/28
f 23/23/23 32/32/32 29/29/29
f 33/33/33 29/29/29 36/36/36
f 29/29/29 32/32/32 37/37/37
f 30/30/30 38/38/38 32/32/32
f 39/39/39 32/32/32 38/38/38
f 39/39/39 40/40/40 32/32/32
f 41/41/41 28/28/28 33/33/33
f 21/21/21 29/29/29 33/33/33
f 33/33/33 36/36/36 41/41/41
f 36/36/36 42/42/42 41/41/41
f 36/36/36 43/43/43 42/42/42
f 37/37/37 44/44/44 36/36/36
f 37/37/37 45/45/45 44/44/44
f 29/29/29 37/37/37 36/36/36
f 39/39/39 46/46/46 40/40/40
f 47/47/47 40/40/40 48/48/48
f 47/47/47 37/37/37 40/40/40
f 49/49/49 40/40/40 46/46/46
f 49/49/49 50/50/50 40/40/40
f 50/50/50 51/51/51 40/40/40
f 32/32/32 40/40/40 37/37/37
f 52/52/52 41/41/41 53/53/53
f 35/35/35 41/41/41 52/52/52
f 35/35/35 28/28/28 41/41/41
f 54/54/54 53/53/53 55/55/55
f 55/55/55 41/41/41 42/42/42
f 55/55/55 53/53/53 41/41/41
f 43/43/43 36/36/36 44/44/44
f 48/48/48 40/40/40 51/51/51
f 45/45/45 37/37/37 47/47/47
