mtllib m122222100.mtl
usemtl material0
v 32.875468969345093 0.32010900974273682 56
v 32.89099907875061 0.31433099508285522 56.294734954833984
v 33.156208038330078 0.33442398905754089 56
v 32 0.30426299571990967 56.341815948486328
v 32 0.30844798684120178 56.134068012237549
v 32 0.31114798784255981 56
v 32 0.30412900447845459 57.392844915390015
v 32.996288061141968 0.31526601314544678 58.289108037948608
v 32 0.42944398522377014 58.341357946395874
v 32 0.46724700927734375 59.396767020225525
v 32 0.59875202178955078 61.508434057235718
v 33.102778911590576 0.56033700704574585 60.282646000385284
v 32 0.58405500650405884 60.340804994106293
v 32 0.85220301151275635 64
v 32.458492040634155 0.89403700828552246 64
v 32 0.7953370213508606 63.403945922851562
v 33.209232091903687 0.79808199405670166 62.276211023330688
v 32 0.69387000799179077 62.34039306640625
v 34.992004036903381 0.58437997102737427 58.182868957519531
v 34.886847972869873 0.61127698421478271 56.188400030136108
v 34.8768310546875 0.59674698114395142 56
v 35.056339025497437 0.60291802883148193 56
v 36.881168007850647 0.596215009689331 56.083133935928345
v 35.098106026649475 0.75034999847412109 60.176678001880646
v 35.203934013843536 0.86114501953125 62.170676946640015
v 37.092499017715454 0.75091397762298584 60.071358002722263
v 36.355515003204346 0.8978080153465271 64
v 37.198115944862366 0.81874001026153564 62.065501928329468
v 35.300800025463104 0.91843599081039429 64
v 34.188549041748047 0.88153201341629028 64
v 36.986205995082855 0.545881986618042 58.077682018280029
v 36.876761972904205 0.592960000038147 56
v 36.955959022045136 0.59457600116729736 56
v 38.98020601272583 0.46636700630187988 57.972636938095093
v 39.087090015411377 0.791513979434967 59.965900000184774
v 38.46363091468811 0.45945501327514648 56
v 38.855282068252563 0.4251829981803894 56
v 38.296612024307251 0.83527100086212158 64
v 38.875854015350342 0.42438799142837524 56
v 40 0.65764898061752319 56.988982915878296
v 38.898757934570312 0.42892301082611084 56
v 40 0.65775299072265625 56.99854302406311
v 40 0.66769099235534668 57.918148040771484
v 40 0.54630398750305176 56
v 40 0.7975810170173645 59.917675003409386
v 40 0.63059598207473755 58.88884699344635
v 40 0.77008199691772461 60.787406980991364
v 40 0.80602800846099854 64
v 39.192387104034424 0.79391098022460938 61.960270047187805
v 39.300216913223267 0.82357901334762573 64
v 40 0.79832500219345093 63.5146369934082
v 40 0.7729799747467041 61.91769003868103
vt 0.99740898609161377 0.11111801862716675
vt 0.96091300249099731 0.11300098896026611
vt 0.99740898609161377 0.14591699838638306
vt 0.95517897605896 0.002687990665435791
vt 0.98090201616287231 0.002714991569519043
vt 0.99750298261642456 0.0027329921722412109
vt 0.8250659704208374 0.0025770068168640137
vt 0.71398401260375977 0.12534898519515991
vt 0.70662999153137207 0.0014920234680175781
vt 0.57589197158813477 0.0019119977951049805
vt 0.31169998645782471 0.007525026798248291
vt 0.46552899479866028 0.14177697896957398
vt 0.45624199509620667 0.0053529739379882812
vt 0.0024969999212771654 0.010001003742218018
vt 0.002718999981880188 0.066860020160675049
vt 0.0766180008649826 0.0092999935150146484
vt 0.21717299520969391 0.15810900926589966
vt 0.20887100696563721 0.007875978946685791
vt 0.726544976234436 0.374675989151001
vt 0.97353202104568481 0.36282598972320557
vt 0.99691200256347656 0.36138302087783813
vt 0.99704700708389282 0.38361799716949463
vt 0.9853699803352356 0.60978099703788757
vt 0.478985995054245 0.38988900184631348
vt 0.2317660003900528 0.40315800905227661
vt 0.49216800928115845 0.63677701354026794
vt 0.0054040001705288887 0.54594901204109192
vt 0.24517099559307098 0.65006399154663086
vt 0.0062750000506639481 0.41878700256347656
vt 0.0044929999858140945 0.28103101253509521
vt 0.73831802606582642 0.62165701389312744
vt 0.99567198753356934 0.60928800702095032
vt 0.99561399221420288 0.61909401416778564
vt 0.749688982963562 0.86878199875354767
vt 0.50302702188491821 0.88385599851608276
vt 0.99437302350997925 0.80647499859333038
vt 0.99405401945114136 0.85514399409294128
vt 0.0058619999326765537 0.78637200593948364
vt 0.9940369725227356 0.85769300162792206
vt 0.87009698152542114 0.99850800004787743
vt 0.994005024433136 0.86058199405670166
vt 0.868914008140564 0.9984979999717325
vt 0.75506901741027832 0.997529000043869
vt 0.99330002069473267 0.99768100003711879
vt 0.50972098112106323 0.99683200009167194
vt 0.63874101638793945 0.99514599982649088
vt 0.40200001001358032 0.99750200007110834
vt 0.0059230001643300056 0.99727900000289083
vt 0.25725901126861572 0.89701200276613235
vt 0.0057810000143945217 0.9106220006942749
vt 0.064447000622749329 0.99624100001528859
vt 0.26216500997543335 0.99704300006851554
vn -0.029905999079346657 0.99932897090911865 0.021167000755667686
vn -0.065615996718406677 0.9978410005569458 0.0027769999578595161
vn -0.12407399713993073 0.99129402637481689 -0.04406299814581871
vn -0.0107810003682971 0.99989402294158936 0.00979700032621622
vn -0.010232999920845032 0.99974501132965088 0.020138999447226524
vn -0.010232999920845032 0.99974501132965088 0.020138999447226524
vn 0.020275000482797623 0.99918299913406372 -0.034954000264406204
vn -0.035273000597953796 0.99765497446060181 -0.058648999780416489
vn 0.10928100347518921 0.99069297313690186 -0.081142999231815338
vn 0.037551000714302063 0.99401301145553589 -0.10261200368404388
vn -0.065229997038841248 0.993818998336792 -0.089830003678798676
vn -0.055309001356363297 0.9930570125579834 -0.10382200032472611
vn 0.017983000725507736 0.99766498804092407 -0.065890997648239136
vn -0.090458996593952179 0.99139899015426636 -0.094582997262477875
vn -0.054375000298023224 0.99538397789001465 -0.079089999198913574
vn -0.090458996593952179 0.99139899015426636 -0.094582997262477875
vn -0.060446999967098236 0.9950600266456604 -0.078757002949714661
vn -0.090856000781059265 0.990460991859436 -0.1035970002412796
vn -0.062314998358488083 0.99755197763442993 -0.031745001673698425
vn -0.075744003057479858 0.99686598777771 -0.022823000326752663
vn -0.094676002860069275 0.992933988571167 -0.071540996432304382
vn -0.0051580001600086689 0.99878799915313721 -0.04895399883389473
vn 0.035395998507738113 0.99936997890472412 0.002764000091701746
vn -0.046216998249292374 0.99557197093963623 -0.08185499906539917
vn -0.0099719995632767677 0.99914300441741943 -0.040169999003410339
vn -0.0042650001123547554 0.99693500995635986 -0.078112997114658356
vn 0.02421100065112114 0.99924802780151367 -0.030295999720692635
vn 0.013883000239729881 0.999580979347229 -0.025418000295758247
vn -0.0059130000881850719 0.99950200319290161 -0.030990000814199448
vn -0.019602999091148376 0.99911397695541382 -0.037230998277664185
vn 0.030641000717878342 0.99857801198959351 -0.0436209999024868
vn -0.0070250001735985279 0.99922400712966919 -0.038752999156713486
vn 0.059980999678373337 0.99760997295379639 0.034295998513698578
vn -0.064525999128818512 0.99628198146820068 -0.057082001119852066
vn -0.009522000327706337 0.99668097496032715 -0.080852001905441284
vn 0.0871879979968071 0.99596601724624634 0.021212000399827957
vn 0.051568001508712769 0.99860197305679321 -0.011618000455200672
vn 0.018546000123023987 0.999646008014679 -0.019074000418186188
vn -0.0743120014667511 0.99708497524261475 -0.017285000532865524
vn -0.17085400223731995 0.98458397388458252 -0.0374629981815815
vn -0.17397299408912659 0.98416697978973389 -0.03389199823141098
vn -0.19421100616455078 0.98090201616287231 -0.010602000169456005
vn -0.193014994263649 0.98111498355865479 0.01259899977594614
vn -0.10533100366592407 0.98819398880004883 -0.11125700175762177
vn -0.010211000218987465 0.99764800071716309 -0.067786000669002533
vn -0.063032001256942749 0.99218398332595825 -0.10768900066614151
vn 0.017575999721884727 0.99982398748397827 0.0065520000644028187
vn 0.025070000439882278 0.99955999851226807 -0.015863999724388123
vn 0.0187120009213686 0.99978601932525635 -0.0088600004091858864
vn 0.018583999946713448 0.99970698356628418 -0.015522999688982964
vn 0.025070000439882278 0.99955999851226807 -0.015863999724388123
vn 0.025435000658035278 0.99963599443435669 -0.0089900000020861626
f 1/1/1 2/2/2 3/3/3
f 4/4/4 2/2/2 5/5/5
f 5/5/5 1/1/1 6/6/6
f 5/5/5 2/2/2 1/1/1
f 2/2/2 7/7/7 8/8/8
f 2/2/2 4/4/4 7/7/7
f 9/9/9 10/10/10 8/8/8
f 11/11/11 12/12/12 13/13/13
f 14/14/14 15/15/15 16/16/16
f 16/16/16 17/17/17 18/18/18
f 16/16/16 15/15/15 17/17/17
f 8/8/8 13/13/13 12/12/12
f 8/8/8 10/10/10 13/13/13
f 7/7/7 9/9/9 8/8/8
f 19/19/19 2/2/2 8/8/8
f 2/2/2 19/19/19 20/20/20
f 21/21/21 20/20/20 22/22/22
f 20/20/20 19/19/19 23/23/23
f 8/8/8 24/24/24 19/19/19
f 3/3/3 20/20/20 21/21/21
f 3/3/3 2/2/2 20/20/20
f 18/18/18 12/12/12 11/11/11
f 18/18/18 17/17/17 12/12/12
f 12/12/12 17/17/17 24/24/24
f 25/25/25 24/24/24 17/17/17
f 24/24/24 25/25/25 26/26/26
f 25/25/25 27/27/27 28/28/28
f 25/25/25 29/29/29 27/27/27
f 30/30/30 25/25/25 17/17/17
f 30/30/30 29/29/29 25/25/25
f 24/24/24 8/8/8 12/12/12
f 31/31/31 19/19/19 24/24/24
f 31/31/31 23/23/23 19/19/19
f 32/32/32 20/20/20 23/23/23
f 32/32/32 22/22/22 20/20/20
f 32/32/32 23/23/23 33/33/33
f 26/26/26 31/31/31 24/24/24
f 25/25/25 28/28/28 26/26/26
f 26/26/26 34/34/34 31/31/31
f 28/28/28 35/35/35 26/26/26
f 36/36/36 31/31/31 37/37/37
f 36/36/36 23/23/23 31/31/31
f 27/27/27 38/38/38 28/28/28
f 15/15/15 30/30/30 17/17/17
f 34/34/34 37/37/37 31/31/31
f 34/34/34 39/39/39 37/37/37
f 39/39/39 40/40/40 41/41/41
f 39/39/39 42/42/42 40/40/40
f 42/42/42 34/34/34 43/43/43
f 42/42/42 39/39/39 34/34/34
f 44/44/44 41/41/41 40/40/40
f 45/45/45 34/34/34 35/35/35
f 45/45/45 46/46/46 34/34/34
f 43/43/43 34/34/34 46/46/46
f 45/45/45 35/35/35 47/47/47
f 35/35/35 34/34/34 26/26/26
f 48/48/48 49/49/49 50/50/50
f 48/48/48 51/51/51 49/49/49
f 51/51/51 52/52/52 49/49/49
f 47/47/47 49/49/49 52/52/52
f 47/47/47 35/35/35 49/49/49
f 38/38/38 49/49/49 28/28/28
f 38/38/38 50/50/50 49/49/49
f 49/49/49 35/35/35 28/28/28
f 36/36/36 33/33/33 23/23/23
