mtllib m122010.mtl
usemtl material0
v 128 1.9594939947128296 448
v 128 1.9534380435943604 448.87698364257812
v 128.78904724121094 1.9719189405441284 448
v 128 1.0979479551315308 465.76626586914062
v 136.04177856445313 1.9123769998550415 456.829833984375
v 128 1.8396470546722412 457.25473022460938
v 128 -1.67432701587677 509.63442993164062
v 138.55259704589844 -1.3201969861984253 504.70550537109375
v 128 -1.5160549879074097 505.26336669921875
v 135.37321472167969 -1.6372469663619995 512
v 128 -1.7599819898605347 512
v 128 -0.76347899436950684 489.2615966796875
v 128 -1.1073859930038452 499.54376220703125
v 137.71589660644531 -0.19230499863624573 488.74679565429688
v 128 0.6666330099105835 473.25778198242188
v 128 -0.24066400527954102 482.65451002120972
v 136.87965393066406 1.0248650312423706 472.78778076171875
v 151.99226379394531 0.97703498601913452 455.99038696289062
v 153.66937303543091 -0.52658301591873169 487.90536499023438
v 152.83143615722656 0.34782001376152039 471.94747924804688
v 151.57229614257813 1.3365639448165894 448
v 143.98580932617188 1.7981259822845459 448
v 135.57623291015625 2.0284318923950195 448
v 167.93974304199219 -0.5662810206413269 455.1529541015625
v 154.50768995285034 -1.3239150047302246 503.86300659179688
v 169.62002563476563 -1.4278210401535034 487.0657958984375
v 166.54748487472534 -2.1373660564422607 512
v 170.45826721191406 -2.2412660121917725 503.02349853515625
v 154.93655395507813 -1.4611639976501465 512
v 142.69343566894531 -1.4474450349807739 512
v 168.7802734375 -0.91766899824142456 471.109130859375
v 159.18009901046753 0.38083198666572571 448
v 167.56280517578125 -0.43615099787712097 448
v 183.88420104980469 -2.7141540050506592 454.31753540039062
v 185.56983947753906 -2.4966120719909668 486.22680711746216
v 184.72593688964844 -2.8248240947723389 470.27288818359375
v 183.55253601074219 -2.3549060821533203 448
v 174.374267578125 -1.0946229696273804 448
v 175.5518798828125 -2.6990358829498291 512
v 192 -4.0032200813293457 453.89288330078125
v 192 -3.991286039352417 462.18536376953125
v 186.4105224609375 -2.8178770542144775 502.182861328125
v 192 -3.1140279769897461 485.88913011550903
v 192 -3.2655720710754395 495.96929931640625
v 192 -3.2453460693359375 501.88897705078125
v 192 -3.3868091106414795 507.03604125976562
v 186.92718505859375 -3.127953052520752 512
v 192 -3.5232388973236084 512
v 192 -3.6255190372467041 479.07733201980591
v 192 -3.884552001953125 469.89199829101562
v 189.56661987304688 -3.4709680080413818 448
v 192 -3.9342060089111328 451.04220581054688
v 192 -3.8605539798736572 448
vt 0.99398398399353027 0.0025439858436584473
vt 0.98042500019073486 0.0025429725646972656
vt 0.99398398399353027 0.014744997024536133
vt 0.71880000829696655 0.0024309754371643066
vt 0.857450008392334 0.12685298919677734
vt 0.85088998079299927 0.002517998218536377
vt 0.039037000387907028 0.0027340054512023926
vt 0.11557699739933014 0.16597497463226318
vt 0.10665900260210037 0.0026590228080749512
vt 0.0027069998905062675 0.11679202318191528
vt 0.0024399999529123306 0.0027959942817687988
vt 0.35436698794364929 0.0022609829902648926
vt 0.19531199336051941 0.0025619864463806152
vt 0.36291399598121643 0.15293097496032715
vt 0.60278600454330444 0.0024260282516479492
vt 0.45683398842811584 0.0022159814834594727
vt 0.61035299301147461 0.13980501890182495
vt 0.86962699890136719 0.37391698360443115
vt 0.37563800811767578 0.39964699745178223
vt 0.62272202968597412 0.38667899370193481
vt 0.9937400221824646 0.36725097894668579
vt 0.99390697479248047 0.24974501132965088
vt 0.99397599697113037 0.11968100070953369
vt 0.88147401809692383 0.62167799472808838
vt 0.12862099707126617 0.41264599561691284
vt 0.38783100247383118 0.646683007478714
vt 0.0022559999488294125 0.598827987909317
vt 0.14086900651454926 0.65969198942184448
vt 0.0028029999230057 0.41928702592849731
vt 0.00279000005684793 0.23000401258468628
vt 0.63469499349594116 0.63407900929450989
vt 0.99280601739883423 0.48581898212432861
vt 0.992097020149231 0.61618098616600037
vt 0.89317500591278076 0.87047199904918671
vt 0.39961901307106018 0.893885999917984
vt 0.64644002914428711 0.882420003414154
vt 0.99099302291870117 0.865119993686676
vt 0.99162101745605469 0.72197899222373962
vt 0.0018339999951422215 0.73830899596214294
vt 0.899137020111084 0.99754799995571375
vt 0.77093297243118286 0.9969099999871105
vt 0.15310299396514893 0.90652000159025192
vt 0.40429699420928955 0.99378299992531538
vt 0.24884900450706482 0.993563000112772
vt 0.15732899308204651 0.993203999940306
vt 0.077789999544620514 0.99307999992743134
vt 0.0013030000263825059 0.91430000215768814
vt 0.0010160000529140234 0.99296399997547269
vt 0.50989800691604614 0.99509700015187263
vt 0.65177702903747559 0.99609500006772578
vt 0.99031299352645874 0.95968500152230263
vt 0.94302499294281006 0.99766699993051589
vt 0.99007201194763184 0.99778499989770353
vn -0.015745000913739204 0.99985200166702271 0.0069039999507367611
vn -0.010056000202894211 0.99987697601318359 0.012024000287055969
vn -0.01030499953776598 0.99987697601318359 0.011800000444054604
vn -0.029586000367999077 0.99749302864074707 0.064282998442649841
vn 0.01903500035405159 0.99896997213363647 0.041191998869180679
vn -0.0063129998743534088 0.99865502119064331 0.051468998193740845
vn -0.01663300022482872 0.9992070198059082 0.036180000752210617
vn -0.0068230000324547291 0.998881995677948 0.046783998608589172
vn -0.015722999349236488 0.99846398830413818 0.053128998726606369
vn -0.020054999738931656 0.99919700622558594 0.03468799963593483
vn -0.01663300022482872 0.9992070198059082 0.036180000752210617
vn -0.055677998811006546 0.99691802263259888 0.055273998528718948
vn -0.024573000147938728 0.99774599075317383 0.062449999153614044
vn -0.0076930001378059387 0.99778801202774048 0.066022001206874847
vn -0.036097001284360886 0.99634301662445068 0.07744300365447998
vn -0.049867000430822372 0.99531900882720947 0.082783997058868408
vn 0.0042710001580417156 0.99782299995422363 0.0658160001039505
vn 0.080619998276233673 0.99607598781585693 0.036499001085758209
vn 0.041529998183250427 0.99789398908615112 0.049828000366687775
vn 0.062512002885341644 0.997065007686615 0.044197998940944672
vn 0.091514997184276581 0.99500197172164917 0.039960000663995743
vn 0.051798000931739807 0.9980890154838562 0.03368699923157692
vn 0.0089260004460811615 0.99988001585006714 0.012671000324189663
vn 0.10908599942922592 0.993806004524231 0.021191999316215515
vn 0.030384000390768051 0.99902898073196411 0.031913001090288162
vn 0.069894000887870789 0.99707299470901489 0.031005000695586205
vn 0.059654001146554947 0.99811500310897827 0.014436000026762486
vn 0.054336000233888626 0.998071014881134 0.030019000172615051
vn 0.030603000894188881 0.99941498041152954 0.015244999900460243
vn -0.0079560000449419022 0.99972701072692871 0.021956000477075577
vn 0.099126003682613373 0.99481797218322754 0.022616000846028328
vn 0.10435099899768829 0.994346022605896 0.019677000120282173
vn 0.096616998314857483 0.99523699283599854 0.013013999909162521
vn 0.14745700359344482 0.98880898952484131 0.02263999916613102
vn 0.08314099907875061 0.99651402235031128 -0.00687299994751811
vn 0.12618599832057953 0.9919700026512146 -0.0085410000756382942
vn 0.15821400284767151 0.98624801635742188 0.047777000814676285
vn 0.12534099817276 0.9913259744644165 0.039528999477624893
vn 0.045910000801086426 0.99863600730896 0.024876000359654427
vn 0.15745100378990173 0.9874579906463623 0.011641999706625938
vn 0.15366800129413605 0.98811298608779907 -0.0043040001764893532
vn 0.059677001088857651 0.99801301956176758 0.020231999456882477
vn 0.0938979983329773 0.99508702754974365 -0.031396001577377319
vn 0.091614998877048492 0.99573701620101929 0.01066999975591898
vn 0.076849997043609619 0.99697601795196533 0.011489000171422958
vn 0.077657997608184814 0.99660402536392212 0.027390999719500542
vn 0.058363001793622971 0.99788999557495117 0.028447000309824944
vn 0.077657997608184814 0.99660402536392212 0.027390999719500542
vn 0.13080300390720367 0.9906499981880188 -0.038780998438596725
vn 0.1430789977312088 0.98949801921844482 -0.020555999130010605
vn 0.1644970029592514 0.98592597246170044 0.029850000515580177
vn 0.15804199874401093 0.98714298009872437 0.023899000138044357
vn 0.15804199874401093 0.98714298009872437 0.02389799989759922
f 1/1/1 2/2/2 3/3/3
f 4/4/4 5/5/5 6/6/6
f 7/7/7 8/8/8 9/9/9
f 7/7/7 10/10/10 8/8/8
f 7/7/7 11/11/11 10/10/10
f 12/12/12 13/13/13 14/14/14
f 15/15/15 16/16/16 17/17/17
f 4/4/4 17/17/17 5/5/5
f 4/4/4 15/15/15 17/17/17
f 17/17/17 18/18/18 5/5/5
f 14/14/14 8/8/8 19/19/19
f 20/20/20 17/17/17 14/14/14
f 21/21/21 5/5/5 18/18/18
f 21/21/21 22/22/22 5/5/5
f 13/13/13 8/8/8 14/14/14
f 13/13/13 9/9/9 8/8/8
f 23/23/23 5/5/5 22/22/22
f 16/16/16 14/14/14 17/17/17
f 16/16/16 12/12/12 14/14/14
f 3/3/3 5/5/5 23/23/23
f 3/3/3 6/6/6 5/5/5
f 3/3/3 2/2/2 6/6/6
f 20/20/20 18/18/18 17/17/17
f 18/18/18 20/20/20 24/24/24
f 25/25/25 19/19/19 8/8/8
f 19/19/19 25/25/25 26/26/26
f 25/25/25 27/27/27 28/28/28
f 25/25/25 29/29/29 27/27/27
f 30/30/30 25/25/25 8/8/8
f 30/30/30 29/29/29 25/25/25
f 31/31/31 20/20/20 19/19/19
f 19/19/19 20/20/20 14/14/14
f 32/32/32 21/21/21 18/18/18
f 32/32/32 24/24/24 33/33/33
f 32/32/32 18/18/18 24/24/24
f 19/19/19 26/26/26 31/31/31
f 31/31/31 34/34/34 24/24/24
f 26/26/26 28/28/28 35/35/35
f 36/36/36 31/31/31 26/26/26
f 37/37/37 24/24/24 34/34/34
f 37/37/37 38/38/38 24/24/24
f 39/39/39 28/28/28 27/27/27
f 33/33/33 24/24/24 38/38/38
f 25/25/25 28/28/28 26/26/26
f 20/20/20 31/31/31 24/24/24
f 36/36/36 34/34/34 31/31/31
f 40/40/40 36/36/36 41/41/41
f 40/40/40 34/34/34 36/36/36
f 42/42/42 35/35/35 28/28/28
f 43/43/43 42/42/42 44/44/44
f 43/43/43 35/35/35 42/42/42
f 45/45/45 42/42/42 46/46/46
f 46/46/46 47/47/47 48/48/48
f 46/46/46 42/42/42 47/47/47
f 39/39/39 42/42/42 28/28/28
f 39/39/39 47/47/47 42/42/42
f 49/49/49 36/36/36 35/35/35
f 49/49/49 50/50/50 36/36/36
f 35/35/35 36/36/36 26/26/26
f 51/51/51 37/37/37 34/34/34
f 30/30/30 8/8/8 10/10/10
f 52/52/52 34/34/34 40/40/40
f 52/52/52 51/51/51 34/34/34
f 52/52/52 53/53/53 51/51/51
f 49/49/49 35/35/35 43/43/43
f 44/44/44 42/42/42 45/45/45
f 41/41/41 36/36/36 50/50/50
