mtllib m1222333.mtl
usemtl material0
v 224 1.7030220031738281 4.0635900497436523
v 224.1429443359375 1.7030190229415894 4.1921901702880859
v 224 1.7146430015563965 1.4834070205688477
v 227.92726135253906 1.48745596408844 0
v 232.11819505691528 1.2385120391845703 3.7725143432617188
v 231.91961669921875 1.3502830266952515 0
v 236.37159705162048 1.3193260431289673 0
v 240.09555099904537 1.1953660249710083 3.3513898849487305
v 239.91973900049925 1.4086719751358032 0
v 247.92091417312622 1.672996997833252 0
v 244.82046508789063 1.6665860414505005 0
v 248.07536315917969 1.6434019804000855 2.9285774230957031
v 224 1.7041820287704468 4.119297981262207
v 224 1.7058559656143189 4.1997289657592773
v 224 1.7164440155029297 0
v 224 1.7164009809494019 0.036027908325195312
v 224.56285095214844 1.4578330516815186 12.170547008514404
v 224 1.4848819971084595 11.663936138153076
v 232.53813219070435 0.99576699733734131 11.750861167907715
v 224 1.4895459413528442 12.200169086456299
v 224.98223876953125 1.1042309999465942 20.149272918701172
v 224 1.1981819868087769 19.264823913574219
v 232.95655822753906 0.45320498943328857 19.730236053466797
v 224 1.1212639808654785 20.201087951660156
v 225.40364074707031 1.1592949628829956 28.126596450805664
v 224 1.1732109785079956 26.863637924194336
v 233.37780809402466 0.47506600618362427 27.707672119140625
v 224 1.1856110095977783 28.20063591003418
v 224 1.3822890520095825 32
v 225.60914611816406 1.3565139770507813 32
v 224 1.3471399545669556 31.320999145507812
v 240.93144202232361 -0.086515001952648163 19.310817956924438
v 240.513916015625 0.63670897483825684 11.330822944641113
v 233.60630798339844 0.84395897388458252 32
v 229.70890808105469 1.159898042678833 32
v 237.11480689048767 0.620631992816925 32
v 241.35266101360321 -0.070023998618125916 27.288270950317383
v 248.49327087402344 0.99441498517990112 10.908320903778076
v 256 2.0825049877166748 2.5087060928344727
v 256 2.0776040554046631 2.5670547485351562
v 248.91036987304688 0.18623200058937073 18.888608932495117
v 241.60334801673889 0.30778899788856506 32
v 249.32989501953125 -0.13809199631214142 26.867231369018555
v 244.71273803710938 0.29445499181747437 32
v 256 1.6767439842224121 18.509500980377197
v 256 1.6278760433197022 19.457305908203125
v 255.03944396972656 0.37527701258659363 32
v 249.60078430175781 -0.1516840010881424 32
v 256 1.7723029851913452 17.655899047851562
v 256 0.62338900566101074 31.00419807434082
v 256 0.53676301240921021 32
v 256 2.0831880569458008 2.4561939239501953
v 253.2689208984375 1.9656480550765991 0
v 256 2.1371591091156006 0.0079488754272460938
v 255.92312622070313 2.1377170085906982 0
v 256 2.1073460578918457 1.4591341018676758
v 256 2.1373229026794434 0
vt 0.99778902530670166 0.86795100569725037
vt 0.99337202310562134 0.86397700011730194
vt 0.99778902530670166 0.94767799973487854
vt 0.87623101472854614 0.99349100003018975
vt 0.74652099609375 0.87690400332212448
vt 0.75279700756073 0.99351700022816658
vt 0.61526799201965332 0.99369700020179152
vt 0.50003898143768311 0.89024899899959564
vt 0.50559800863265991 0.99400800000876188
vt 0.2583869993686676 0.99538599979132414
vt 0.35396099090576172 0.99471000023186207
vt 0.25316900014877319 0.90491499751806259
vt 0.99778902530670166 0.86622899770736694
vt 0.99778997898101807 0.86374400556087494
vt 0.99778801202774048 0.99350700015202165
vt 0.99778401851654053 0.992401999887079
vt 0.98019099235534668 0.617345005273819
vt 0.99759900569915771 0.63300299644470215
vt 0.73316699266433716 0.63028401136398315
vt 0.99760997295379639 0.61643299460411072
vt 0.966717004776001 0.37059199810028076
vt 0.99717402458190918 0.39795297384262085
vt 0.71947801113128662 0.38319802284240723
vt 0.99706697463989258 0.36892598867416382
vt 0.95422101020812988 0.12406402826309204
vt 0.99749600887298584 0.16305100917816162
vt 0.70690000057220459 0.13667500019073486
vt 0.99752801656723022 0.12173700332641602
vt 0.9976620078086853 0.004181981086730957
vt 0.94863897562026978 0.004185020923614502
vt 0.997518002986908 0.025189995765686035
vt 0.47246798872947693 0.39565902948379517
vt 0.48646301031112671 0.64311999082565308
vt 0.70099097490310669 0.0034999847412109375
vt 0.82181400060653687 0.0036879777908325195
vt 0.59220802783966064 0.0032939910888671875
vt 0.45988398790359497 0.14920401573181152
vt 0.2397339940071106 0.65755900740623474
vt 0.00801599957048893 0.91947899758815765
vt 0.0080150002613663673 0.91767299920320511
vt 0.22585900127887726 0.41013199090957642
vt 0.45317798852920532 0.0030949711799621582
vt 0.21339699625968933 0.16246598958969116
vt 0.35709899663925171 0.0029860138893127441
vt 0.0022100000642240047 0.42527800798416138
vt 0.0034090001136064529 0.39438199996948242
vt 0.035202000290155411 0.005057990550994873
vt 0.20543299615383148 0.003188014030456543
vt 0.0045090001076459885 0.45135301351547241
vt 0.004972000140696764 0.036244988441467285
vt 0.0051070000045001507 0.0053600072860717773
vt 0.0080249998718500137 0.92110200226306915
vt 0.092891998589038849 0.99630600004456937
vt 0.0084710000082850456 0.99676900007762015
vt 0.010847999714314938 0.996999999973923
vt 0.0081970002502202988 0.951919000595808
vt 0.0084720002487301826 0.99701400008052588
vn 0.0020490000024437904 0.99999499320983887 -0.002251999918371439
vn 0.036600999534130096 0.99925202131271362 0.012508999556303024
vn 0.057163000106811523 0.99836397171020508 0.0012679999927058816
vn 0.052646998316049576 0.99858599901199341 0.0074089998379349709
vn 0.029953999444842339 0.99923199415206909 0.025266999378800392
vn 0.021103000268340111 0.9993709921836853 0.028497999534010887
vn -0.00054400000954046845 0.9992939829826355 0.037565998733043671
vn -0.021487999707460403 0.99804902076721191 0.0586250014603138
vn -0.038350999355316162 0.99711698293685913 0.065476000308990479
vn -0.027484999969601631 0.99955600500106812 0.011549999937415123
vn -0.04070499911904335 0.99775701761245728 0.053139001131057739
vn -0.044727001339197159 0.99758297204971313 0.053181998431682587
vn 0.018744999542832375 0.99960798025131226 -0.020810000598430634
vn 0.020121000707149506 0.999783992767334 0.0052330000326037407
vn 0.058208998292684555 0.998304009437561 0.0012120000319555402
vn 0.058208998292684555 0.998304009437561 0.0012120000319555402
vn 0.05713300034403801 0.99782699346542358 0.032825998961925507
vn 0.030587000772356987 0.999343991279602 0.019375000149011612
vn 0.049150001257658005 0.99746400117874146 0.051477000117301941
vn 0.05714000016450882 0.99822098016738892 0.017051000148057938
vn 0.055874001234769821 0.99821501970291138 0.021104000508785248
vn 0.048597998917102814 0.99746501445770264 0.051984000951051712
vn 0.070170998573303223 0.99712198972702026 0.028697000816464424
vn 0.019204000011086464 0.99918198585510254 0.035585999488830566
vn 0.045719001442193985 0.99831199645996094 -0.035824999213218689
vn 0.017280999571084976 0.99981701374053955 -0.0081900004297494888
vn 0.073606997728347778 0.99611097574234009 -0.048418998718261719
vn 0.017090000212192535 0.99936699867248535 -0.031207000836730003
vn 0.015994999557733536 0.99853497743606567 -0.0516900010406971
vn 0.032439000904560089 0.998091995716095 -0.052540000528097153
vn 0.0159939993172884 0.99853497743606567 -0.0516900010406971
vn 0.0177800003439188 0.99885702133178711 0.044367998838424683
vn 0.0056610000319778919 0.99690800905227661 0.078372001647949219
vn 0.07162100076675415 0.99343597888946533 -0.0891909971833229
vn 0.072858996689319611 0.99403601884841919 -0.081137001514434814
vn 0.06487400084733963 0.99406200647354126 -0.087362997233867645
vn 0.031693998724222183 0.998773992061615 -0.038026999682188034
vn -0.080553002655506134 0.99396300315856934 0.074496001005172729
vn -0.052777998149394989 0.997497022151947 0.047065999358892441
vn -0.067166000604629517 0.99536597728729248 0.068810999393463135
vn -0.11088100075721741 0.99132299423217773 0.070598997175693512
vn 0.035767000168561935 0.99600899219512939 -0.081768997013568878
vn -0.064456000924110413 0.9975159764289856 0.028409000486135483
vn 0.027388999238610268 0.997855007648468 -0.059452999383211136
vn -0.2009119987487793 0.976252019405365 0.081038996577262878
vn -0.19414399564266205 0.97921997308731079 0.058612000197172165
vn -0.14933300018310547 0.98648399114608765 0.067447997629642487
vn -0.0059279999695718288 0.99997800588607788 0.0029609999619424343
vn -0.17812900245189667 0.98031598329544067 0.085156001150608063
vn -0.16518400609493256 0.98255199193954468 0.085473999381065369
vn -0.16518299281597138 0.98255199193954468 0.085473999381065369
vn -0.0573199987411499 0.99822801351547241 0.015967000275850296
vn -0.056976001709699631 0.99825400114059448 0.015581999905407429
vn 0.0051230001263320446 0.99977600574493408 0.02054000087082386
vn -0.030949000269174576 0.99926900863647461 0.022430000826716423
vn -0.063506998121738434 0.99769002199172974 0.024111999198794365
vn 0.0051230001263320446 0.99977600574493408 0.020540999248623848
f 1/1/1 2/2/2 3/3/3
f 4/4/4 5/5/5 6/6/6
f 7/7/7 8/8/8 9/9/9
f 10/10/10 11/11/11 12/12/12
f 13/13/13 2/2/2 1/1/1
f 13/13/13 14/14/14 2/2/2
f 15/15/15 5/5/5 4/4/4
f 15/15/15 16/16/16 5/5/5
f 16/16/16 2/2/2 5/5/5
f 16/16/16 3/3/3 2/2/2
f 14/14/14 17/17/17 2/2/2
f 14/14/14 18/18/18 17/17/17
f 2/2/2 19/19/19 5/5/5
f 18/18/18 20/20/20 17/17/17
f 20/20/20 21/21/21 17/17/17
f 20/20/20 22/22/22 21/21/21
f 19/19/19 2/2/2 17/17/17
f 17/17/17 23/23/23 19/19/19
f 8/8/8 5/5/5 19/19/19
f 22/22/22 24/24/24 21/21/21
f 24/24/24 25/25/25 21/21/21
f 24/24/24 26/26/26 25/25/25
f 23/23/23 17/17/17 21/21/21
f 21/21/21 27/27/27 23/23/23
f 26/26/26 28/28/28 25/25/25
f 29/29/29 30/30/30 31/31/31
f 31/31/31 25/25/25 28/28/28
f 31/31/31 30/30/30 25/25/25
f 27/27/27 21/21/21 25/25/25
f 32/32/32 23/23/23 27/27/27
f 33/33/33 19/19/19 23/23/23
f 25/25/25 34/34/34 27/27/27
f 25/25/25 35/35/35 34/34/34
f 35/35/35 25/25/25 30/30/30
f 36/36/36 27/27/27 34/34/34
f 36/36/36 37/37/37 27/27/27
f 23/23/23 32/32/32 33/33/33
f 8/8/8 33/33/33 12/12/12
f 38/38/38 33/33/33 32/32/32
f 33/33/33 38/38/38 12/12/12
f 39/39/39 38/38/38 40/40/40
f 39/39/39 12/12/12 38/38/38
f 32/32/32 37/37/37 41/41/41
f 11/11/11 8/8/8 12/12/12
f 11/11/11 9/9/9 8/8/8
f 27/27/27 37/37/37 32/32/32
f 42/42/42 43/43/43 37/37/37
f 42/42/42 44/44/44 43/43/43
f 32/32/32 41/41/41 38/38/38
f 36/36/36 42/42/42 37/37/37
f 43/43/43 41/41/41 37/37/37
f 45/45/45 43/43/43 46/46/46
f 45/45/45 41/41/41 43/43/43
f 47/47/47 43/43/43 48/48/48
f 49/49/49 41/41/41 45/45/45
f 49/49/49 38/38/38 41/41/41
f 46/46/46 43/43/43 50/50/50
f 50/50/50 47/47/47 51/51/51
f 50/50/50 43/43/43 47/47/47
f 40/40/40 38/38/38 49/49/49
f 48/48/48 43/43/43 44/44/44
f 52/52/52 12/12/12 39/39/39
f 52/52/52 53/53/53 12/12/12
f 53/53/53 10/10/10 12/12/12
f 54/54/54 55/55/55 56/56/56
f 54/54/54 57/57/57 55/55/55
f 56/56/56 53/53/53 52/52/52
f 56/56/56 55/55/55 53/53/53
f 19/19/19 33/33/33 8/8/8
f 7/7/7 5/5/5 8/8/8
f 7/7/7 6/6/6 5/5/5
