mtllib m122130.mtl
usemtl material0
v 384 -4.2255749702453613 320
v 385.399169921875 -3.8473069667816162 331.68338012695312
v 384.78005981445312 -4.2948641777038574 320
v 384 -3.7771990299224854 330.42401123046875
v 384 -3.7221379280090332 331.75689697265625
v 384 -3.6655399799346924 333.23895263671875
v 384 -3.4303629398345947 350.13061499595642
v 386.24053955078125 -4.0267839431762695 347.63897705078125
v 384 -3.7258520126342773 347.75637817382812
v 401.34677124023438 -5.3414602279663086 330.84585571289062
v 384 -2.6707088947296143 363.75262546539307
v 387.08642578125 -3.3098690509796143 363.59158325195312
v 384 0.65204399824142456 383.92218017578125
v 387.94879150390625 0.68816101551055908 379.53329467773438
v 384 0.62265998125076294 379.74200439453125
v 384 -2.5464799404144287 367.02377319335938
v 403.0313720703125 -5.3333091735839844 362.75579833984375
v 402.187255859375 -5.7001328468322754 346.80203199386597
v 395.9093017578125 -4.588386058807373 320
v 384 0.64785802364349365 384
v 388.18328857421875 0.4360010027885437 384
v 400.77572631835938 -5.0499229431152344 320
v 411.10635423660278 -4.6079368591308594 320
v 416.77645897865295 -4.8312468528747559 320
v 417.29916405677795 -5.8830680847167969 330.005126953125
v 423.08096313476562 -4.6437239646911621 320
v 433.25711059570312 -5.3183259963989258 329.16070556640625
v 432.77890014648438 -4.2900052070617676 320
v 448 -2.8406329154968262 320
v 439.98345947265625 -3.400299072265625 320
v 448 -3.2663109302520752 327.21136474609375
v 403.88653564453125 -2.767380952835083 378.70223999023438
v 418.1391909122467 -6.3271889686584473 345.96160888671875
v 418.98440599441528 -5.7430830001831055 361.91464233398438
v 434.09588623046875 -6.0153717994689941 345.11801099777222
v 404.173095703125 -1.4480379819869995 384
v 399.12176513671875 -1.9612629413604736 384
v 419.83306908607483 -4.4784021377563477 377.86541748046875
v 414.31796300411224 -2.40126895904541 384
v 434.93807983398438 -6.0318422317504883 361.07305908203125
v 448 -3.4045910835266113 328.37628173828125
v 448 -3.4697329998016357 329.66973876953125
v 448 -4.7056422233581543 346.55807495117188
v 448 -4.6924901008605957 344.37973022460938
v 448 -4.6628999710083008 360.37911987304688
v 420.16363477706909 -3.1873750686645508 384
v 429.51287841796875 -3.4667990207672119 384
v 435.78488159179688 -5.1333651542663574 377.02505493164062
v 448 -4.0962929725646973 376.3768310546875
v 444.70962524414062 -3.6430048942565918 384
v 448 -3.706212043762207 380.34268188476562
v 436.15682983398438 -4.413783073425293 384
v 448 -4.5074739456176758 363.44970703125
v 448 -3.1810948848724365 384
vt 0.0017979999538511038 0.039106011390686035
vt 0.028645999729633331 0.21234798431396484
vt 0.013450999744236469 0.038663983345031738
vt 0.0071029998362064362 0.19438201189041138
vt 0.0077849999070167542 0.21423500776290894
vt 0.0085479998961091042 0.23630702495574951
vt 0.017118999734520912 0.48796498775482178
vt 0.049917001277208328 0.44933301210403442
vt 0.016349999234080315 0.45234602689743042
vt 0.26655599474906921 0.19129598140716553
vt 0.023074999451637268 0.69094198942184448
vt 0.069871999323368073 0.686616986989975
vt 0.026357999071478844 0.99707999988459051
vt 0.084509998559951782 0.93125399947166443
vt 0.025844000279903412 0.93483400344848633
vt 0.024705000221729279 0.739659994840622
vt 0.30859100818634033 0.66538700461387634
vt 0.28808000683784485 0.42831200361251831
vt 0.17912900447845459 0.03279799222946167
vt 0.026370000094175339 0.99823999998625368
vt 0.092364996671676636 0.99750100006349385
vt 0.25187200307846069 0.0301780104637146
vt 0.40572500228881836 0.024097025394439697
vt 0.49017399549484253 0.021216988563537598
vt 0.503607988357544 0.16994398832321167
vt 0.58395498991012573 0.016665995121002197
vt 0.740710973739624 0.14807397127151489
vt 0.728663980960846 0.011150002479553223
vt 0.95706498622894287 0.0017600059509277344
vt 0.83662599325180054 0.0057489871978759766
vt 0.960860013961792 0.10926401615142822
vt 0.32630699872970581 0.90558300167322159
vt 0.52517497539520264 0.40699201822280884
vt 0.54563397169113159 0.64448100328445435
vt 0.7621690034866333 0.38527798652648926
vt 0.33445000648498535 0.98658400028944016
vt 0.25886499881744385 0.98836600035429
vt 0.56444799900054932 0.88368099927902222
vt 0.48605099320411682 0.9803059995174408
vt 0.7826160192489624 0.62322300672531128
vt 0.9613649845123291 0.12672501802444458
vt 0.96208500862121582 0.14599698781967163
vt 0.97080600261688232 0.40068602561950684
vt 0.969514012336731 0.36567097902297974
vt 0.97773200273513794 0.6063779890537262
vt 0.573727011680603 0.97508800029754639
vt 0.71124899387359619 0.97198699973523617
vt 0.80157899856567383 0.86259399354457855
vt 0.983739972114563 0.8472830057144165
vt 0.93907898664474487 0.96277099847793579
vt 0.98608702421188354 0.90657699853181839
vt 0.81104499101638794 0.96672600135207176
vt 0.97950202226638794 0.6521260142326355
vt 0.98854100704193115 0.96154100075364113
vn 0.088394999504089355 0.99516499042510986 -0.042805999517440796
vn 0.088054001331329346 0.99599701166152954 -0.01539899967610836
vn 0.05839800089597702 0.99743902683258057 -0.041303001344203949
vn 0.08799000084400177 0.99522101879119873 -0.042353998869657516
vn 0.086974002420902252 0.99542701244354248 -0.039512000977993011
vn 0.12256500124931335 0.99244397878646851 -0.0057239998131990433
vn 0.182778999209404 0.98063200712203979 -0.070373997092247009
vn 0.1245110034942627 0.99174302816390991 -0.030696000903844833
vn 0.12968599796295166 0.9896320104598999 -0.06171799823641777
vn 0.056843001395463943 0.99793201684951782 0.03002299927175045
vn 0.20029599964618683 0.978676974773407 -0.045533999800682068
vn 0.1280989944934845 0.98427098989486694 -0.12165799736976624
vn 0.034791000187397 0.99861299991607666 0.039519999176263809
vn 0.089855000376701355 0.99132198095321655 -0.095954000949859619
vn -0.022880999371409416 0.99232900142669678 -0.12148699909448624
vn 0.025048000738024712 0.98037797212600708 -0.19553099572658539
vn 0.081942997872829437 0.99085497856140137 -0.10719999670982361
vn 0.073545001447200775 0.9972730278968811 -0.0061789997853338718
vn 0.076311998069286346 0.99706900119781494 0.0054040001705288887
vn 0.050505999475717545 0.99728202819824219 0.053647998720407486
vn 0.13572099804878235 0.98954802751541138 0.048737999051809311
vn 0.028217000886797905 0.99927997589111328 0.0253749992698431
vn 0.017312999814748764 0.99640202522277832 0.082966998219490051
vn 0.0059380000457167625 0.99453401565551758 0.10424300283193588
vn 0.0034099998883903027 0.99785798788070679 0.065332002937793732
vn -0.03112499974668026 0.993690013885498 0.1077520027756691
vn -0.076564997434616089 0.9939730167388916 0.078460000455379486
vn -0.077878996729850769 0.99028098583221436 0.11522799730300903
vn -0.069523997604846954 0.99584698677062988 0.05878400057554245
vn -0.10956600308418274 0.9885830283164978 0.10343199968338013
vn -0.10779000073671341 0.98898398876190186 0.10145100206136704
vn 0.10365100204944611 0.98177599906921387 -0.15928499400615692
vn 0.0061409999616444111 0.99998098611831665 -0.0010319999419152737
vn 0.023817000910639763 0.99763697385787964 -0.064444996416568756
vn -0.055376000702381134 0.99815797805786133 0.024763999506831169
vn -0.0005329999839887023 0.97036802768707275 -0.24163000285625458
vn 0.13122199475765228 0.99081200361251831 -0.032744001597166061
vn 0.0669339969754219 0.98680299520492554 -0.14744499325752258
vn 0.1012049987912178 0.96641099452972412 -0.23623600602149963
vn -0.040585000067949295 0.99874097108840942 -0.029479000717401505
vn -0.12382200360298157 0.9886699914932251 0.084845997393131256
vn -0.11763100326061249 0.99139201641082764 0.057493001222610474
vn -0.096739001572132111 0.99530202150344849 0.0038840000052005053
vn -0.092212997376918793 0.994691014289856 0.045673001557588577
vn -0.10556100308895111 0.99407500028610229 -0.02592799998819828
vn 0.0787149965763092 0.97466498613357544 -0.2093610018491745
vn 0.058779001235961914 0.981598973274231 -0.18168400228023529
vn -0.015887999907135963 0.99588698148727417 -0.089203000068664551
vn -0.087777003645896912 0.9941059947013855 -0.063631996512413025
vn -0.10240700095891953 0.98872798681259155 -0.1092199981212616
vn -0.1007469967007637 0.98906201124191284 -0.10773199796676636
vn 0.021988999098539352 0.99436002969741821 -0.10375700145959854
vn -0.1019430011510849 0.99373000860214233 -0.0459120012819767
vn -0.13763499259948731 0.98042899370193481 -0.14077000319957733
f 1/1/1 2/2/2 3/3/3
f 1/1/1 4/4/4 2/2/2
f 5/5/5 6/6/6 2/2/2
f 7/7/7 8/8/8 9/9/9
f 6/6/6 8/8/8 2/2/2
f 6/6/6 9/9/9 8/8/8
f 2/2/2 8/8/8 10/10/10
f 8/8/8 11/11/11 12/12/12
f 8/8/8 7/7/7 11/11/11
f 4/4/4 5/5/5 2/2/2
f 13/13/13 14/14/14 15/15/15
f 16/16/16 14/14/14 12/12/12
f 16/16/16 15/15/15 14/14/14
f 12/12/12 14/14/14 17/17/17
f 16/16/16 12/12/12 11/11/11
f 18/18/18 8/8/8 12/12/12
f 19/19/19 3/3/3 2/2/2
f 20/20/20 14/14/14 13/13/13
f 20/20/20 21/21/21 14/14/14
f 19/19/19 10/10/10 22/22/22
f 19/19/19 2/2/2 10/10/10
f 22/22/22 10/10/10 23/23/23
f 8/8/8 18/18/18 10/10/10
f 24/24/24 10/10/10 25/25/25
f 24/24/24 23/23/23 10/10/10
f 26/26/26 27/27/27 28/28/28
f 29/29/29 30/30/30 31/31/31
f 14/14/14 32/32/32 17/17/17
f 18/18/18 17/17/17 33/33/33
f 33/33/33 25/25/25 18/18/18
f 25/25/25 33/33/33 27/27/27
f 33/33/33 34/34/34 35/35/35
f 34/34/34 33/33/33 17/17/17
f 10/10/10 18/18/18 25/25/25
f 34/34/34 17/17/17 32/32/32
f 36/36/36 32/32/32 37/37/37
f 36/36/36 38/38/38 32/32/32
f 36/36/36 39/39/39 38/38/38
f 37/37/37 14/14/14 21/21/21
f 37/37/37 32/32/32 14/14/14
f 32/32/32 38/38/38 34/34/34
f 18/18/18 12/12/12 17/17/17
f 34/34/34 40/40/40 35/35/35
f 41/41/41 35/35/35 42/42/42
f 41/41/41 27/27/27 35/35/35
f 43/43/43 35/35/35 40/40/40
f 43/43/43 44/44/44 35/35/35
f 42/42/42 35/35/35 44/44/44
f 43/43/43 40/40/40 45/45/45
f 31/31/31 27/27/27 41/41/41
f 31/31/31 30/30/30 27/27/27
f 30/30/30 28/28/28 27/27/27
f 38/38/38 40/40/40 34/34/34
f 46/46/46 38/38/38 39/39/39
f 38/38/38 47/47/47 48/48/48
f 38/38/38 46/46/46 47/47/47
f 49/49/49 50/50/50 51/51/51
f 49/49/49 48/48/48 50/50/50
f 48/48/48 52/52/52 50/50/50
f 38/38/38 48/48/48 40/40/40
f 53/53/53 48/48/48 49/49/49
f 52/52/52 48/48/48 47/47/47
f 53/53/53 40/40/40 48/48/48
f 53/53/53 45/45/45 40/40/40
f 33/33/33 35/35/35 27/27/27
f 26/26/26 25/25/25 27/27/27
f 26/26/26 24/24/24 25/25/25
f 54/54/54 51/51/51 50/50/50
