mtllib m122222320.mtl
usemtl material0
v 36.21977199614048 0.18275299668312073 8
v 36.346801996231079 0.20630800724029541 8.1141009330749512
v 36.340754985809326 0.20208999514579773 8
v 38.335227966308594 0.6409270167350769 8
v 38.343342065811157 0.64289599657058716 8.007282018661499
v 38.342952966690063 0.64195400476455688 8
v 34.107040047645569 0.0362589992582798 8
v 34.35172700881958 0.0680529996752739 8.21989393234253
v 34.339977025985718 0.040316998958587646 8
v 32 -0.062360998243093491 8.3444969654083252
v 32 -0.014863999560475349 8.722214937210083
v 32.356616973876953 -0.078502997756004334 8.3257160186767578
v 32 -0.090443998575210571 8
v 32.339317083358765 -0.099159002304077148 8
v 32 -0.090121999382972717 8.0049629211425781
v 34.45856499671936 0.38346400856971741 10.213186979293823
v 36.4541209936142 0.61937397718429565 10.107059001922607
v 40 0.82482200860977173 8
v 38.480391979217529 0.65718698501586914 8
v 40 0.99133598804473877 9.4654579162597656
v 40 0.99469202756881714 9.4949951171875
v 32 0.21086500585079193 10.343564987182617
v 32.46343207359314 0.23300200700759888 10.319022059440613
v 32 0.16987699270248413 9.9025719165802
v 32 0.22004500031471252 10.834090948104858
v 36.560387015342712 0.81906300783157349 12.100749999284744
v 38.449538946151733 0.8284270167350769 10.001021981239319
v 34.564628958702087 0.54164999723434448 12.207020998001099
v 40 1.0310510396957398 9.918503999710083
v 40 1.1281640529632568 11.393599987030029
v 32 0.35762301087379456 12.343037009239197
v 32 0.25962400436401367 12.945571005344391
v 32.568588018417358 0.20613299310207367 12.313492000102997
v 32 0.20637999475002289 11.801937997341156
v 36.665588021278381 0.80195802450180054 14.095185995101929
v 38.555522918701172 0.97049999237060547 11.994911999907345
v 38.661761999130249 1.1643279790878296 13.988623976707459
v 34.670132040977478 0.58606797456741333 14.2012460231781
v 40 1.1617460250854492 11.918026000261307
v 40 1.2074970006942749 13.29262900352478
v 32 0.48386898636817932 15.057425975799561
v 32.675491094589233 0.53521299362182617 14.306739091873169
v 32 0.38337498903274536 14.342891931533814
v 32 0.38079801201820374 13.700219035148621
v 34.766018033027649 0.76799297332763672 16
v 34.559520959854126 0.76164102554321289 16
v 36.851939976215363 1.0669709444046021 16
v 36.767418026924133 1.0510820150375366 16
v 40 1.2655760049819946 13.917634010314941
v 40 1.2234790325164795 15.192157030105591
v 36.67340499162674 1.040287971496582 16
v 32 0.48498401045799255 16
v 32.446307897567749 0.56021398305892944 16
v 32 0.49983701109886169 15.598937034606934
v 32.765186071395874 0.59490102529525757 16
v 32 0.497637003660202 15.524317026138306
v 40 1.2489210367202759 15.917623996734619
v 38.767399072647095 1.2355999946594238 15.982757091522217
v 40 1.2506120204925537 15.994036912918091
v 38.768311023712158 1.2359919548034668 16
v 40 1.2507439851760864 16
v 38.442553997039795 1.2074459791183472 16
vt 0.50005900859832764 0.014658987522125244
vt 0.515703022480011 0.027692973613739014
vt 0.51452600955963135 0.014236986637115479
vt 0.75567799806594849 0.0075650215148925781
vt 0.7566869854927063 0.0083979964256286621
vt 0.75659799575805664 0.007534027099609375
vt 0.25000301003456116 0.023706972599029541
vt 0.28005599975585938 0.048631012439727783
vt 0.27750000357627869 0.02253800630569458
vt 0.0023960000835359097 0.074585974216461182
vt 0.0047849998809397221 0.11949402093887329
vt 0.044364999979734421 0.069911003112792969
vt 0.00065399997401982546 0.033215999603271484
vt 0.040713001042604446 0.0314750075340271
vt 0.0006779999821446836 0.033802986145019531
vt 0.30603399872779846 0.28594702482223511
vt 0.54535597562789917 0.26662701368331909
vt 0.95340299606323242 0.00034797191619873047
vt 0.77292197942733765 0.00693899393081665
vt 0.96191602945327759 0.17436999082565308
vt 0.96316999197006226 0.17655801773071289
vt 0.014859000220894814 0.31268501281738281
vt 0.069473996758461 0.30724900960922241
vt 0.012191999703645706 0.26043397188186646
vt 0.016954999417066574 0.37004601955413818
vt 0.57047700881958008 0.50231900811195374
vt 0.781611979007721 0.24395501613616943
vt 0.32998400926589966 0.52133700251579285
vt 0.96577799320220947 0.2267029881477356
vt 0.97438400983810425 0.40112298727035522
vt 0.021299999207258224 0.55068498849868774
vt 0.026754999533295631 0.62023499608039856
vt 0.09038899838924408 0.5422770082950592
vt 0.021080000326037407 0.48431497812271118
vt 0.58580702543258667 0.7377839982509613
vt 0.80603700876235962 0.47915899753570557
vt 0.83099997043609619 0.71480199694633484
vt 0.3491159975528717 0.75652700662612915
vt 0.97763800621032715 0.46293902397155762
vt 0.98511600494384766 0.625216007232666
vt 0.037914998829364777 0.87141600251197815
vt 0.11481399834156036 0.780010998249054
vt 0.033156998455524445 0.786309003829956
vt 0.031207000836730003 0.71041500568389893
vt 0.36824199557304382 0.96954300068318844
vt 0.34588000178337097 0.97202200070023537
vt 0.622402012348175 0.96308000013232231
vt 0.60696500539779663 0.96404900029301643
vt 0.98899900913238525 0.69926398992538452
vt 0.99543201923370361 0.8497689962387085
vt 0.59578800201416016 0.9643389992415905
vt 0.041834000498056412 0.98282499983906746
vt 0.095266997814178467 0.98093399964272976
vt 0.040449000895023346 0.9354339987039566
vt 0.13313500583171845 0.979602999985218
vt 0.0401110015809536 0.92662200331687927
vt 0.99934601783752441 0.93543300032615662
vt 0.8493499755859375 0.95329400151968
vt 0.99474197626113892 0.94506099820137024
vt 0.84953099489212036 0.95532599836587906
vt 0.99472802877426147 0.9457710012793541
vt 0.8109239935874939 0.95664599910378456
vn -0.094236999750137329 0.99055701494216919 -0.099577002227306366
vn -0.15749500691890717 0.98005098104476929 -0.12122300267219544
vn -0.18530300259590149 0.98232400417327881 -0.026494000107049942
vn -0.1958020031452179 0.97953099012374878 -0.046700999140739441
vn -0.14211499691009522 0.98394399881362915 -0.10797499865293503
vn -0.1205810010433197 0.98530399799346924 -0.12097799777984619
vn -0.0625229999423027 0.99527102708816528 -0.07433599978685379
vn -0.075851999223232269 0.98799699544906616 -0.13456399738788605
vn -0.045081999152898788 0.99142599105834961 -0.12264300137758255
vn 0.039514001458883286 0.99380701780319214 -0.10385599732398987
vn 0.012232000008225441 0.98895299434661865 -0.14772699773311615
vn -0.025741999968886375 0.99406999349594116 -0.10565000027418137
vn 0.025626000016927719 0.99757999181747437 -0.0646279975771904
vn -0.023572999984025955 0.99779599905014038 -0.0620260015130043
vn 0.029675999656319618 0.99716699123382568 -0.069115996360778809
vn -0.104032002389431 0.98801702260971069 -0.1140189990401268
vn -0.1245419979095459 0.98441499471664429 -0.124160997569561
vn -0.10895700007677078 0.98769098520278931 -0.11222799867391586
vn -0.10896299779415131 0.987671971321106 -0.11238899827003479
vn -0.10895500332117081 0.98769098520278931 -0.11222899705171585
vn -0.12704800069332123 0.98761498928070068 -0.092063002288341522
vn -0.0505170002579689 0.99724000692367554 -0.054416999220848083
vn -0.065081000328063965 0.99500799179077148 -0.075649000704288483
vn -0.010700999759137631 0.99034601449966431 -0.13820600509643555
vn -0.020772000774741173 0.999763011932373 0.0064590000547468662
vn -0.12300900369882584 0.99135100841522217 -0.045745998620986938
vn -0.11733599752187729 0.98995399475097656 -0.078887999057769775
vn -0.13812699913978577 0.99002397060394287 -0.027822000905871391
vn -0.13315300643444061 0.98823797702789307 -0.0752130001783371
vn -0.13387900590896606 0.98894202709198 -0.063801996409893036
vn 0.25496500730514526 0.96587002277374268 -0.045685000717639923
vn -7.9999999798019417E-06 0.99643802642822266 -0.08433300256729126
vn -0.014015999622642994 0.99868601560592651 -0.0492900013923645
vn 0.056597001850605011 0.9964439868927002 -0.062424000352621078
vn -0.14943499863147736 0.98719197511672974 -0.055872999131679535
vn -0.10007700324058533 0.99242299795150757 -0.071286000311374664
vn -0.09721200168132782 0.99392902851104736 -0.051530998200178146
vn -0.091698996722698212 0.99275600910186768 -0.077633000910282135
vn -0.13364000618457794 0.98983800411224365 -0.048601001501083374
vn -0.094173997640609741 0.99261599779129028 -0.076453998684883118
vn -0.13616099953651428 0.9891660213470459 -0.054866999387741089
vn -0.103534996509552 0.98979699611663818 -0.097884997725486755
vn -0.22238899767398834 0.97233200073242188 -0.071510002017021179
vn -0.12024799734354019 0.98581802845001221 -0.11705999821424484
vn -0.087936997413635254 0.99152898788452148 -0.095595002174377441
vn -0.045007001608610153 0.99552899599075317 -0.083048000931739807
vn -0.15818400681018829 0.98285198211669922 -0.094757996499538422
vn -0.15002299845218658 0.98133301734924316 -0.12032599747180939
vn -0.077077999711036682 0.99651998281478882 -0.031734000891447067
vn -0.028989000245928764 0.99943697452545166 -0.016885999590158463
vn -0.11955700069665909 0.98604601621627808 -0.11584500223398209
vn -0.16610400378704071 0.98543298244476318 0.036495000123977661
vn -0.12162400037050247 0.99247699975967407 -0.014062999747693539
vn -0.12381800264120102 0.99223697185516357 -0.011586000211536884
vn -0.10001499950885773 0.9945409893989563 -0.029759999364614487
vn -0.10809600353240967 0.99370801448822021 -0.029302999377250671
vn -0.012323999777436256 0.99950897693634033 -0.028799999505281448
vn -0.049986999481916428 0.99839699268341064 -0.026551999151706696
vn -0.011973000131547451 0.99968397617340088 -0.02212199941277504
vn -0.048369999974966049 0.9986259937286377 -0.020169999450445175
vn -0.011973000131547451 0.99968397617340088 -0.02212199941277504
vn -0.087920002639293671 0.99565398693084717 -0.030710000544786453
f 1/1/1 2/2/2 3/3/3
f 4/4/4 5/5/5 6/6/6
f 7/7/7 8/8/8 9/9/9
f 10/10/10 11/11/11 12/12/12
f 13/13/13 12/12/12 14/14/14
f 13/13/13 15/15/15 12/12/12
f 7/7/7 12/12/12 8/8/8
f 7/7/7 14/14/14 12/12/12
f 12/12/12 16/16/16 8/8/8
f 15/15/15 10/10/10 12/12/12
f 9/9/9 2/2/2 1/1/1
f 9/9/9 8/8/8 2/2/2
f 4/4/4 2/2/2 5/5/5
f 4/4/4 3/3/3 2/2/2
f 17/17/17 5/5/5 2/2/2
f 8/8/8 17/17/17 2/2/2
f 18/18/18 19/19/19 20/20/20
f 20/20/20 5/5/5 21/21/21
f 20/20/20 19/19/19 5/5/5
f 19/19/19 6/6/6 5/5/5
f 22/22/22 23/23/23 24/24/24
f 25/25/25 23/23/23 22/22/22
f 11/11/11 23/23/23 12/12/12
f 11/11/11 24/24/24 23/23/23
f 17/17/17 16/16/16 26/26/26
f 8/8/8 16/16/16 17/17/17
f 5/5/5 17/17/17 27/27/27
f 27/27/27 17/17/17 26/26/26
f 16/16/16 12/12/12 23/23/23
f 16/16/16 23/23/23 28/28/28
f 29/29/29 5/5/5 27/27/27
f 29/29/29 21/21/21 5/5/5
f 29/29/29 27/27/27 30/30/30
f 31/31/31 32/32/32 33/33/33
f 25/25/25 33/33/33 23/23/23
f 25/25/25 34/34/34 33/33/33
f 28/28/28 35/35/35 26/26/26
f 16/16/16 28/28/28 26/26/26
f 27/27/27 26/26/26 36/36/36
f 26/26/26 37/37/37 36/36/36
f 28/28/28 23/23/23 33/33/33
f 33/33/33 38/38/38 28/28/28
f 34/34/34 31/31/31 33/33/33
f 39/39/39 27/27/27 36/36/36
f 39/39/39 30/30/30 27/27/27
f 39/39/39 36/36/36 40/40/40
f 41/41/41 42/42/42 43/43/43
f 43/43/43 42/42/42 44/44/44
f 32/32/32 42/42/42 33/33/33
f 32/32/32 44/44/44 42/42/42
f 45/45/45 42/42/42 46/46/46
f 45/45/45 38/38/38 42/42/42
f 42/42/42 38/38/38 33/33/33
f 47/47/47 35/35/35 48/48/48
f 47/47/47 37/37/37 35/35/35
f 28/28/28 38/38/38 35/35/35
f 40/40/40 37/37/37 49/49/49
f 40/40/40 36/36/36 37/37/37
f 37/37/37 26/26/26 35/35/35
f 49/49/49 37/37/37 50/50/50
f 48/48/48 38/38/38 51/51/51
f 48/48/48 35/35/35 38/38/38
f 52/52/52 53/53/53 54/54/54
f 46/46/46 42/42/42 55/55/55
f 55/55/55 54/54/54 53/53/53
f 55/55/55 56/56/56 54/54/54
f 56/56/56 42/42/42 41/41/41
f 56/56/56 55/55/55 42/42/42
f 45/45/45 51/51/51 38/38/38
f 57/57/57 58/58/58 59/59/59
f 59/59/59 60/60/60 61/61/61
f 59/59/59 58/58/58 60/60/60
f 57/57/57 37/37/37 58/58/58
f 57/57/57 50/50/50 37/37/37
f 47/47/47 58/58/58 37/37/37
f 47/47/47 62/62/62 58/58/58
f 62/62/62 60/60/60 58/58/58
