mtllib m1222133.mtl
usemtl material0
v 226.58999633789063 -1.8898470401763916 128
v 230.86048889160156 -2.4458448886871338 131.84651184082031
v 230.65861511230469 -2.2164111137390137 128
v 235.03201293945313 -2.3225889205932617 128
v 238.83721899986267 -2.6149470806121826 131.42581176757813
v 238.65716600418091 -2.4604930877685547 128
v 224 -1.9534239768981934 132.20724487304688
v 224 -2.3405430316925049 139.47200012207031
v 224 -2.8790140151977539 156.27198791503906
v 224.1441650390625 -2.882422924041748 156.20176696777344
v 224 -2.8797109127044678 156.20936584472656
v 224 -2.87801194190979 156.36201477050781
v 224 -2.8101990222930908 147.91657996177673
v 231.28033447265625 -2.7064690589904785 139.82489013671875
v 224 -2.3627030849456787 140.20826697349548
v 239.25814801454544 -2.6553599834442139 139.40345811843872
v 246.81642198562622 -2.2840769290924072 131.00341796875
v 224 -2.8342669010162354 148.20948791503906
v 231.69804382324219 -3.3943490982055664 147.80473303794861
v 239.67631500959396 -3.2504689693450928 147.38298010826111
v 228.32487487792969 -3.1624770164489746 160
v 232.117919921875 -3.64866304397583 155.78309631347656
v 224.34518432617188 -2.7863750457763672 160
v 224 -2.8590290546417236 153.46849060058594
v 224 -2.78556489944458 160
v 240.09402500092983 -3.9388570785522461 155.36280822753906
v 247.65641784667969 -2.7408909797668457 146.95997595787048
v 232.34176588058472 -3.4090690612792969 160
v 240.33995100855827 -3.7222299575805664 160
v 236.80537390708923 -3.6026680469512939 160
v 247.23724412918091 -2.3489029407501221 138.98114013671875
v 224 -1.8783810138702393 130.98268127441406
v 224 -1.6956009864807129 128
v 243.52110290527344 -3.6071081161499023 160
v 248.07293701171875 -3.6690199375152588 154.94062805175781
v 241.92001295089722 -2.3138289451599121 128
v 246.65866088867188 -2.1306569576263428 128
v 249.51905822753906 -2.0511560440063477 128
v 256 -2.4901940822601318 130.02371215820313
v 254.79286193847656 -2.5088789463043213 130.58291625976563
v 256 -2.5437159538269043 130.51927185058594
v 254.65797424316406 -2.22525691986084 128
v 256 -2.2716269493103027 128
v 255.2108154296875 -3.1488900184631348 138.56259202957153
v 256 -3.1061010360717773 137.68551588058472
v 256 -3.7885799407958984 154.52239990234375
v 251.11973571777344 -3.5606980323791504 160
v 256 -3.7870190143585205 154.57522583007813
v 248.34077453613281 -3.5231180191040039 160
v 255.6302490234375 -3.4891209602355957 146.5412449836731
v 256 -3.7536389827728271 153.57115173339844
v 256 -3.4873208999633789 146.52171301841736
v 256 -3.1772150993347168 139.2728419303894
v 256 -3.6345360279083252 160
vt 0.081229999661445618 0.033331990242004395
vt 0.21385599672794342 0.14505702257156372
vt 0.20375700294971466 0.02961498498916626
vt 0.33506399393081665 0.0252150297164917
vt 0.45291000604629517 0.12438398599624634
vt 0.44395598769187927 0.021642029285430908
vt 0.0077209998853504658 0.16223299503326416
vt 0.015282000415027142 0.38058799505233765
vt 0.031608998775482178 0.885284997522831
vt 0.036123998463153839 0.8835349977016449
vt 0.031762000173330307 0.88341099768877029
vt 0.031936001032590866 0.88847299665212631
vt 0.024033999070525169 0.634445995092392
vt 0.23467700183391571 0.38422000408172607
vt 0.016018999740481377 0.40269702672958374
vt 0.473702996969223 0.36340397596359253
vt 0.69217199087142944 0.10347801446914673
vt 0.024348000064492226 0.64326700568199158
vt 0.25531300902366638 0.62420299649238586
vt 0.49436599016189575 0.60315099358558655
vt 0.165460005402565 0.99362199986353517
vt 0.27617800235748291 0.86335499584674835
vt 0.045469000935554504 0.99741799989715219
vt 0.029133999720215797 0.80113600194454193
vt 0.035105999559164047 0.9977190000936389
vt 0.51478201150894165 0.84315299987792969
vt 0.73385602235794067 0.5813019871711731
vt 0.28626799583435059 0.98997899983078241
vt 0.526943027973175 0.982234999537468
vt 0.42078500986099243 0.9856120003387332
vt 0.7128869891166687 0.34197801351547241
vt 0.0064240000210702419 0.12541002035140991
vt 0.0032649999484419823 0.035721004009246826
vt 0.62281197309494019 0.9788610003888607
vt 0.7539520263671875 0.82208099961280823
vt 0.54198002815246582 0.01805800199508667
vt 0.684552013874054 0.013357996940612793
vt 0.770442008972168 0.010490000247955322
vt 0.96641099452972412 0.0633540153503418
vt 0.93089002370834351 0.081654012203216553
vt 0.96706098318099976 0.0783889889717102
vt 0.923488974571228 0.0038629770278930664
vt 0.96378600597381592 0.0022810101509094238
vt 0.95299899578094482 0.32138097286224365
vt 0.97564601898193359 0.29409801959991455
vt 0.99152100086212158 0.80188800394535065
vt 0.850229024887085 0.97108099982142448
vt 0.99156802892684937 0.80347199738025665
vt 0.76748800277709961 0.97369799949228764
vt 0.97385197877883911 0.56101301312446594
vt 0.99075102806091309 0.77331100404262543
vt 0.98492997884750366 0.56004399061203
vt 0.97745102643966675 0.342274010181427
vt 0.99673497676849365 0.96637199819087982
vn 0.075866997241973877 0.99533301591873169 0.0596419982612133
vn 0.046463001519441605 0.99779701232910156 0.047348000109195709
vn 0.053057000041007996 0.99698197841644287 0.056683000177145004
vn 0.027436999604105949 0.99812597036361694 0.054705001413822174
vn -0.010826000012457371 0.99944102764129639 0.031628001481294632
vn -0.0020639998838305473 0.99897801876068115 0.045148000121116638
vn 0.074453003704547882 0.99559897184371948 0.056908998638391495
vn 0.0547030009329319 0.99787402153015137 0.035436000674963
vn 0.018215000629425049 0.99977201223373413 -0.011129000224173069
vn 0.052175998687744141 0.99861800670623779 -0.0063140001147985458
vn 0.018693000078201294 0.99982297420501709 -0.0021039999555796385
vn 0.0060459999367594719 0.99973797798156738 -0.022075999528169632
vn 0.070416003465652466 0.9946100115776062 0.076105996966362
vn 0.028169000521302223 0.99836397171020508 0.049754999577999115
vn 0.0494530014693737 0.99778801202774048 0.044417001307010651
vn -0.020589999854564667 0.99893802404403687 0.041212998330593109
vn -0.0021959999576210976 0.99895501136779785 0.045644000172615051
vn 0.074697002768516541 0.99632102251052856 0.042002998292446136
vn 0.033006001263856888 0.99798500537872314 0.054187998175621033
vn -0.025560000911355019 0.99700301885604858 0.0730229988694191
vn 0.085312001407146454 0.99562698602676392 -0.038052998483181
vn 0.056386001408100128 0.998403012752533 -0.0034310000482946634
vn 0.049752000719308853 0.99837201833724976 -0.027878999710083008
vn 0.0719119980931282 0.99739998579025269 0.0047439998015761375
vn 0.0023449999280273914 0.99967402219772339 -0.02540300041437149
vn -0.0011909999884665012 0.99972498416900635 0.023428000509738922
vn 0.023351000621914864 0.99679899215698242 0.0764629989862442
vn 0.051927998661994934 0.996882975101471 -0.059397000819444656
vn -0.0023590000346302986 0.99891400337219238 -0.046539001166820526
vn 0.035985000431537628 0.99805599451065063 -0.050886999815702438
vn 0.029201000928878784 0.99911701679229736 0.030197000131011009
vn 0.07464899867773056 0.995343029499054 0.060995001345872879
vn 0.07464899867773056 0.995343029499054 0.060995001345872879
vn -0.031135000288486481 0.99870502948760986 -0.040233001112937927
vn 0.00432599987834692 0.99950098991394043 0.031275000423192978
vn -0.040245998650789261 0.99786198139190674 0.051492001861333847
vn -0.033333998173475266 0.99805200099945068 0.052733000367879868
vn 0.017273999750614166 0.99554002285003662 0.092749997973442078
vn 0.0343330018222332 0.99363201856613159 0.10731600224971771
vn 0.033273998647928238 0.99513000249862671 0.092782996594905853
vn 0.033631999045610428 0.99507701396942139 0.093226999044418335
vn 0.03398599848151207 0.99364197254180908 0.10733400285243988
vn 0.0343330018222332 0.99363201856613159 0.10731499642133713
vn 0.043930001556873322 0.99794697761535645 0.046601999551057816
vn 0.024188999086618423 0.997223973274231 0.070416003465652466
vn 0.015328999608755112 0.999871015548706 0.0046939998865127563
vn 0.013944000005722046 0.99947798252105713 -0.029153000563383102
vn 0.013891000300645828 0.99947702884674072 -0.029201000928878784
vn -0.0014290000544860959 0.99958598613739014 -0.028751000761985779
vn 0.036986000835895538 0.99816501140594482 0.047936998307704926
vn 0.016680000349879265 0.99918597936630249 0.036719001829624176
vn -0.0027350001037120819 0.99918299913406372 0.040330000221729279
vn -0.0030920000281184912 0.99905800819396973 0.043278001248836517
vn 0.015122000128030777 0.99949097633361816 -0.028093999251723289
f 1/1/1 2/2/2 3/3/3
f 4/4/4 5/5/5 6/6/6
f 7/7/7 8/8/8 2/2/2
f 9/9/9 10/10/10 11/11/11
f 9/9/9 12/12/12 10/10/10
f 13/13/13 14/14/14 15/15/15
f 8/8/8 14/14/14 2/2/2
f 8/8/8 15/15/15 14/14/14
f 5/5/5 14/14/14 16/16/16
f 14/14/14 5/5/5 2/2/2
f 5/5/5 16/16/16 17/17/17
f 14/14/14 18/18/18 19/19/19
f 14/14/14 13/13/13 18/18/18
f 4/4/4 2/2/2 5/5/5
f 4/4/4 3/3/3 2/2/2
f 14/14/14 20/20/20 16/16/16
f 10/10/10 21/21/21 22/22/22
f 10/10/10 23/23/23 21/21/21
f 24/24/24 19/19/19 18/18/18
f 24/24/24 10/10/10 19/19/19
f 10/10/10 22/22/22 19/19/19
f 25/25/25 10/10/10 12/12/12
f 25/25/25 23/23/23 10/10/10
f 20/20/20 22/22/22 26/26/26
f 22/22/22 20/20/20 19/19/19
f 20/20/20 26/26/26 27/27/27
f 28/28/28 22/22/22 21/21/21
f 14/14/14 19/19/19 20/20/20
f 22/22/22 29/29/29 26/26/26
f 22/22/22 30/30/30 29/29/29
f 31/31/31 16/16/16 20/20/20
f 11/11/11 10/10/10 24/24/24
f 1/1/1 7/7/7 2/2/2
f 1/1/1 32/32/32 7/7/7
f 32/32/32 1/1/1 33/33/33
f 30/30/30 22/22/22 28/28/28
f 34/34/34 26/26/26 29/29/29
f 34/34/34 35/35/35 26/26/26
f 36/36/36 6/6/6 5/5/5
f 36/36/36 17/17/17 37/37/37
f 36/36/36 5/5/5 17/17/17
f 37/37/37 17/17/17 38/38/38
f 16/16/16 31/31/31 17/17/17
f 39/39/39 40/40/40 41/41/41
f 39/39/39 42/42/42 40/40/40
f 39/39/39 43/43/43 42/42/42
f 40/40/40 38/38/38 17/17/17
f 40/40/40 42/42/42 38/38/38
f 40/40/40 17/17/17 44/44/44
f 45/45/45 40/40/40 44/44/44
f 45/45/45 41/41/41 40/40/40
f 26/26/26 35/35/35 27/27/27
f 31/31/31 27/27/27 44/44/44
f 46/46/46 47/47/47 48/48/48
f 46/46/46 35/35/35 47/47/47
f 35/35/35 49/49/49 47/47/47
f 50/50/50 27/27/27 35/35/35
f 44/44/44 17/17/17 31/31/31
f 34/34/34 49/49/49 35/35/35
f 50/50/50 44/44/44 27/27/27
f 31/31/31 20/20/20 27/27/27
f 46/46/46 50/50/50 35/35/35
f 46/46/46 51/51/51 50/50/50
f 52/52/52 50/50/50 51/51/51
f 53/53/53 50/50/50 52/52/52
f 53/53/53 44/44/44 50/50/50
f 54/54/54 48/48/48 47/47/47
f 53/53/53 45/45/45 44/44/44
