mtllib m122101.mtl
usemtl material0
v 320 -1.8595379590988159 448
v 320 -2.0450010299682617 455.05038452148438
v 326.34478759765625 -1.3067820072174072 448
v 320 -2.8248670101165771 463.12954711914062
v 320 -1.4682879447937012 471.94284057617188
v 328.32260131835938 -2.7067749500274658 462.689697265625
v 320 0.029180999845266342 512
v 322.435302734375 -0.012481000274419785 512
v 320 0.044996000826358795 507.178955078125
v 330.020263671875 -0.0851299986243248 494.591064453125
v 320 0.08455599844455719 495.11968994140625
v 320 -1.005545973777771 488.8350830078125
v 329.1641845703125 -2.8443748950958252 478.64517199993134
v 320 -1.4735449552536011 479.12493902444839
v 344.28387498855591 -1.4780199527740479 461.84310913085938
v 345.11947584152222 -2.80651593208313 477.80248999595642
v 341.54290771484375 -0.80478698015213013 448
v 343.55734252929688 -0.65646100044250488 448
v 356.74011182785034 -0.75301802158355713 448
v 327.55441284179688 -1.2957890033721924 448
v 360.23895263671875 -1.4900399446487427 461.0006103515625
v 359.55639600753784 -0.76342201232910156 448
v 361.07159423828125 -3.405440092086792 476.96194505691528
v 376.19253540039062 -1.7980279922485352 460.15911865234375
v 345.95590209960938 -3.9754230976104736 493.7613525390625
v 371.93780517578125 -0.46434399485588074 448
v 375.55709838867188 -0.55351001024246216 448
v 384 -1.1166520118713379 448
v 384 -1.4609160423278809 451.48208618164062
v 377.02130126953125 -4.4878277778625488 476.12298607826233
v 384 -1.9363640546798706 459.74725341796875
v 384 -3.3771710395812988 468.36886596679688
v 361.9073486328125 -4.7061800956726074 492.92123413085938
v 377.86578369140625 -4.0429940223693848 492.07650756835938
v 339.89334106445312 -1.7538449764251709 512
v 346.92144823074341 -3.4544410705566406 512
v 353.59799194335938 -3.7494349479675293 512
v 378.9200439453125 -3.5650539398193359 512
v 372.74606323242188 -3.8287279605865479 512
v 384 -3.8181281089782715 491.75189208984375
v 384 -3.4220890998840332 509.76397705078125
v 384 -3.3729240894317627 512
v 384 -4.4587678909301758 475.75436401367188
v 384 -4.1966009140014648 485.25814819335938
vt 0.99522501230239868 0.0041409730911254883
vt 0.88618499040603638 0.0038920044898986816
vt 0.99522501230239868 0.10260599851608276
vt 0.76069802045822144 0.0031840205192565918
vt 0.62283498048782349 0.0029429793357849121
vt 0.76691699028015137 0.13189899921417236
vt 0.0019229999743402004 0.00078302621841430664
vt 0.0013559999642893672 0.038435995578765869
vt 0.076451003551483154 0.0019009709358215332
vt 0.27019000053405762 0.1609569787979126
vt 0.26289099454879761 0.0031020045280456543
vt 0.361501008272171 0.0039569735527038574
vt 0.52034801244735718 0.14702898263931274
vt 0.51179999113082886 0.0038319826126098633
vt 0.78023701906204224 0.37938600778579712
vt 0.53377002477645874 0.39368599653244019
vt 0.99464899301528931 0.33771002292633057
vt 0.99467498064041138 0.36893898248672485
vt 0.99383997917175293 0.57275599241256714
vt 0.995136022567749 0.12130802869796753
vt 0.79568600654602051 0.62592300772666931
vt 0.996999979019165 0.61544299125671387
vt 0.547236979007721 0.64046299457550049
vt 0.80969500541687012 0.87256599962711334
vt 0.28690099716186523 0.41434001922607422
vt 0.99719297885894775 0.80692200362682343
vt 0.99864399433135986 0.86237600445747375
vt 0.99802500009536743 0.99319599987939
vt 0.94471102952957153 0.99241800000891089
vt 0.55953198671340942 0.88765600323677063
vt 0.81671899557113647 0.99325599987059832
vt 0.68158102035522461 0.99448300013318658
vt 0.2997480034828186 0.65464299917221069
vt 0.31486201286315918 0.90146499872207642
vt 0.0032110000029206276 0.31948399543762207
vt 0.004918999969959259 0.43126499652862549
vt 0.0048839999362826347 0.53245401382446289
vt 0.0069099999964237213 0.92062400281429291
vt 0.010107999667525291 0.82844999432563782
vt 0.32068100571632385 0.99632199993357062
vt 0.042148999869823456 0.998896999983117
vt 0.0075719999149441719 0.9992169999750331
vt 0.56762498617172241 0.99541699979454279
vt 0.42063599824905396 0.99593399977311492
vn -0.0867609977722168 0.99588501453399658 0.026196999475359917
vn -0.027195999398827553 0.99643498659133911 0.079857997596263886
vn -0.029766000807285309 0.99654299020767212 0.077556997537612915
vn -0.015891000628471375 0.99935001134872437 -0.032370001077651978
vn 0.10894399881362915 0.99343198537826538 -0.034977998584508896
vn -0.018983999267220497 0.99942302703857422 0.028165999799966812
vn 0.017105000093579292 0.99984800815582275 0.0032800000626593828
vn 0.04747999832034111 0.99873602390289307 0.016519000753760338
vn 0.017105000093579292 0.99984800815582275 0.0032800000626593828
vn 0.0902239978313446 0.99423599243164062 -0.057920001447200775
vn 0.012595999985933304 0.99662297964096069 -0.08113899827003479
vn 0.039857998490333557 0.98897498846054077 -0.14261999726295471
vn 0.0442579984664917 0.99733799695968628 -0.057946998625993729
vn 0.1466509997844696 0.98888999223709106 -0.024307999759912491
vn -0.024981999769806862 0.99771898984909058 0.062715001404285431
vn 0.0473719984292984 0.99759900569915771 0.050523001700639725
vn -0.0630749985575676 0.99540001153945923 0.072117000818252563
vn -0.03430899977684021 0.99754798412323 0.061002999544143677
vn 0.0046560000628232956 0.99839299917221069 0.056478999555110931
vn -0.021570000797510147 0.995078980922699 0.096707999706268311
vn 0.013391000218689442 0.99602800607681274 0.08803199976682663
vn -0.0097529999911785126 0.99836599826812744 0.056311998516321182
vn 0.037592001259326935 0.99517202377319336 0.090658001601696014
vn 0.036143001168966293 0.99201798439025879 0.12080600112676621
vn 0.14244100451469421 0.98969697952270508 0.01447600033134222
vn 0.011525999754667282 0.99596899747848511 0.088950000703334808
vn 0.044624999165534973 0.99404501914978027 0.0994110032916069
vn 0.066230997443199158 0.99296301603317261 0.09817100316286087
vn 0.055629998445510864 0.99450397491455078 0.088693000376224518
vn 0.037744998931884766 0.9971960186958313 0.0646120011806488
vn 0.023384999483823776 0.99370801448822021 0.10953699797391892
vn 0.020921999588608742 0.98686599731445312 0.16018299758434296
vn 0.002997000003233552 0.9997289776802063 0.023073999211192131
vn -0.022159000858664513 0.99963998794555664 -0.015142999589443207
vn 0.19012700021266937 0.98166298866271973 -0.013729999773204327
vn 0.13728000223636627 0.98989397287368774 -0.035544000566005707
vn 0.02936599962413311 0.99887299537658691 -0.037301000207662582
vn -0.040137998759746552 0.99895501136779785 -0.02184000052511692
vn -0.02696399949491024 0.99916702508926392 -0.030634000897407532
vn -0.038750998675823212 0.99842202663421631 -0.040649998933076859
vn -0.03778500109910965 0.99904400110244751 -0.021966999396681786
vn -0.03778500109910965 0.99904400110244751 -0.021966999396681786
vn -0.00089199998183175921 0.9980890154838562 0.061790000647306442
vn -0.013561000116169453 0.999305009841919 -0.034713000059127808
f 1/1/1 2/2/2 3/3/3
f 4/4/4 5/5/5 6/6/6
f 7/7/7 8/8/8 9/9/9
f 9/9/9 10/10/10 11/11/11
f 9/9/9 8/8/8 10/10/10
f 12/12/12 13/13/13 14/14/14
f 14/14/14 6/6/6 5/5/5
f 14/14/14 13/13/13 6/6/6
f 6/6/6 13/13/13 15/15/15
f 13/13/13 10/10/10 16/16/16
f 17/17/17 15/15/15 18/18/18
f 17/17/17 6/6/6 15/15/15
f 18/18/18 15/15/15 19/19/19
f 13/13/13 16/16/16 15/15/15
f 20/20/20 6/6/6 17/17/17
f 11/11/11 13/13/13 12/12/12
f 11/11/11 10/10/10 13/13/13
f 4/4/4 3/3/3 2/2/2
f 4/4/4 6/6/6 3/3/3
f 6/6/6 20/20/20 3/3/3
f 19/19/19 21/21/21 22/22/22
f 19/19/19 15/15/15 21/21/21
f 21/21/21 16/16/16 23/23/23
f 15/15/15 16/16/16 21/21/21
f 21/21/21 23/23/23 24/24/24
f 16/16/16 10/10/10 25/25/25
f 24/24/24 26/26/26 21/21/21
f 24/24/24 27/27/27 26/26/26
f 28/28/28 24/24/24 29/29/29
f 28/28/28 27/27/27 24/24/24
f 30/30/30 31/31/31 24/24/24
f 30/30/30 32/32/32 31/31/31
f 30/30/30 24/24/24 23/23/23
f 22/22/22 21/21/21 26/26/26
f 16/16/16 33/33/33 23/23/23
f 23/23/23 34/34/34 30/30/30
f 35/35/35 25/25/25 10/10/10
f 35/35/35 36/36/36 25/25/25
f 25/25/25 37/37/37 33/33/33
f 25/25/25 36/36/36 37/37/37
f 38/38/38 33/33/33 39/39/39
f 38/38/38 34/34/34 33/33/33
f 33/33/33 34/34/34 23/23/23
f 40/40/40 34/34/34 41/41/41
f 41/41/41 38/38/38 42/42/42
f 41/41/41 34/34/34 38/38/38
f 39/39/39 33/33/33 37/37/37
f 16/16/16 25/25/25 33/33/33
f 43/43/43 34/34/34 44/44/44
f 43/43/43 30/30/30 34/34/34
f 35/35/35 10/10/10 8/8/8
f 43/43/43 32/32/32 30/30/30
f 31/31/31 29/29/29 24/24/24
f 40/40/40 44/44/44 34/34/34
