mtllib m12222102.mtl
usemtl material0
v 64.9949722290039 2.0034899711608887 96
v 64 2.00085711479187 96.645317077636719
v 65.0262222290039 2.012444019317627 96.591086864471436
v 64 1.9944180250167847 96.201591014862061
v 64 1.9914929866790772 96
v 64 1.8617700338363648 100.6456298828125
v 64 1.8640450239181519 101.95420098304749
v 65.236000061035156 1.8516689538955689 100.58039093017578
v 64 1.9511779546737671 104.6452260017395
v 64 2.0743119716644287 106.17743706703186
v 65.447235107421875 1.9862949848175049 104.56868702173233
v 64 2.4889519214630127 110.0536961555481
v 65.65972900390625 2.37677001953125 108.55611419677734
v 64 2.3098909854888916 108.64397382736206
v 64 2.5330910682678223 110.40119218826294
v 64 1.9776339530944824 97.731644153594971
v 65.557975769042969 1.981889009475708 96
v 69.014091014862061 1.8260400295257568 96.381087779998779
v 68.993957996368408 1.823112964630127 96
v 72.992896974086761 1.6351449489593506 96
v 73.00196099281311 1.6406069993972778 96.171089172363281
v 73.1558530330658 1.6220690011978149 96
v 72.811859011650085 1.6476160287857056 96
v 69.224976062774658 1.889382004737854 100.36962890625
v 73.213263988494873 1.7903729677200317 100.15933203697205
v 76.247375011444092 1.5473200082778931 96
v 76.954947948455811 1.5284349918365479 96
v 73.424132943153381 1.8507809638977051 104.14788100123406
v 69.435883045196533 1.9585789442062378 104.35814699530602
v 80 1.4666500091552734 96.838172912597656
v 76.992249011993408 1.5273239612579346 96
v 77.2014307975769 1.6640169620513916 99.949127197265625
v 80 1.4362939596176148 96
v 80 1.4713430404663086 97.033126831054688
v 80 1.5379910469055176 99.8017430305481
v 80 1.6519520282745361 102.46707201004028
v 77.412284851074219 1.7219829559326172 103.93768300116062
v 69.648422002792358 2.3573551177978516 108.34554290771484
v 73.635825991630554 2.0781741142272949 108.13586378097534
v 69.843132019042969 2.7076089382171631 112
v 66.3611068725586 2.6869590282440186 112
v 65.843123912811279 2.6870160102844238 112
v 73.842322945594788 2.568289041519165 112
v 70.160377979278564 2.6870529651641846 112
v 77.623825073242188 1.9181259870529175 107.92577409744263
v 73.9594269990921 2.5643830299377441 112
v 64 2.6766419410705566 112
v 80 1.7468669414520264 105.28435504436493
v 80 1.9615219831466675 107.8001561164856
v 80 1.6726289987564087 103.80119299888611
v 80 2.1414439678192139 109.50797319412231
v 77.836493968963623 2.343264102935791 111.91307783126831
v 80 2.3345789909362793 111.79885911941528
v 80 2.3492770195007324 112
v 77.933158874511719 2.349600076675415 112
v 80 2.3463571071624756 111.96003723144531
v 76.184546947479248 2.4429430961608887 112
v 77.841103076934814 2.348315954208374 112
vt 0.032940000295639038 0.937060996890068
vt 0.0737610012292862 0.99547800002619624
vt 0.06837800145149231 0.93395300209522247
vt 0.047109000384807587 0.99640200007706881
vt 0.035000000149011612 0.996822000015527
vt 0.31417000293731689 0.98724200017750263
vt 0.39276200532913208 0.9845789996907115
vt 0.30773499608039856 0.9131380021572113
vt 0.55446797609329224 0.97905600070953369
vt 0.64678400754928589 0.97578299976885319
vt 0.54697197675704956 0.89226199686527252
vt 0.88092499971389771 0.96723100170493126
vt 0.78715699911117554 0.87119400501251221
vt 0.79558700323104858 0.97042500041425228
vt 0.90195900201797485 0.96640700101852417
vt 0.13901999592781067 0.99324300000444055
vt 0.031746000051498413 0.90322300046682358
vt 0.047281000763177872 0.69464001059532166
vt 0.024435000494122505 0.6966489851474762
vt 0.016596000641584396 0.45583701133728027
vt 0.026881000027060509 0.45526802539825439
vt 0.016545999795198441 0.44601297378540039
vt 0.016312999650835991 0.46711599826812744
vt 0.28680598735809326 0.67399200797080994
vt 0.26618298888206482 0.43479901552200317
vt 0.010072000324726105 0.26060998439788818
vt 0.0086489999666810036 0.218097984790802
vt 0.50489002466201782 0.41384702920913696
vt 0.52594602108001709 0.65301400423049927
vt 0.05218999832868576 0.033614993095397949
vt 0.0077069997787475586 0.21593797206878662
vt 0.24465499818325043 0.1958879828453064
vt 0.0018119999440386891 0.035202980041503906
vt 0.063290998339653015 0.033922970294952393
vt 0.22961099445819855 0.027979016304016113
vt 0.389831006526947 0.022382020950317383
vt 0.48376300930976868 0.174655020236969
vt 0.76625597476959229 0.63207098841667175
vt 0.74436897039413452 0.39304697513580322
vt 0.98638099431991577 0.61323699355125427
vt 0.99338901042938232 0.82196199893951416
vt 0.994454026222229 0.853071004152298
vt 0.97794097661972046 0.37333297729492188
vt 0.985621988773346 0.59414699673652649
vt 0.7231450080871582 0.15380501747131348
vt 0.97769099473953247 0.36629599332809448
vt 0.99818801879882812 0.9637719988822937
vt 0.55934000015258789 0.0164719820022583
vt 0.71098601818084717 0.011304974555969238
vt 0.47014999389648438 0.019500017166137695
vt 0.81439799070358276 0.0080590248107910156
vt 0.96358299255371094 0.13329601287841797
vt 0.95248299837112427 0.0035740137100219727
vt 0.96428197622299194 0.0031780004501342773
vt 0.96861499547958374 0.12730801105499268
vt 0.96218901872634888 0.0032579898834228516
vt 0.97260898351669312 0.23247700929641724
vt 0.96880298852920532 0.13283801078796387
vn 0.012299000285565853 0.99980002641677856 -0.015794999897480011
vn -0.011076999828219414 0.9999309778213501 0.0040359999984502792
vn 0.019725000485777855 0.99975502490997314 0.010017000138759613
vn -0.012055999599397183 0.99982202053070068 -0.014507999643683434
vn -0.012055999599397183 0.99982202053070068 -0.014507999643683434
vn 0.0091359997168183327 0.99979102611541748 0.01830499991774559
vn -0.01802000030875206 0.99952000379562378 -0.025216000154614449
vn 0.0044860001653432846 0.99998801946640015 0.0021160000469535589
vn -0.027231000363826752 0.99800199270248413 -0.057009000331163406
vn -0.041211001574993134 0.99495100975036621 -0.091508999466896057
vn -0.013962999917566776 0.99792098999023438 -0.062913998961448669
vn -0.046594001352787018 0.9909520149230957 -0.1258700042963028
vn -0.017621999606490135 0.99505198001861572 -0.09778200089931488
vn -0.045875001698732376 0.99277102947235107 -0.11091099679470062
vn -0.015154999680817127 0.99507701396942139 -0.097938001155853271
vn 0.0055010002106428146 0.9993559718132019 0.035450000315904617
vn 0.044073000550270081 0.998956024646759 -0.011989999562501907
vn 0.039200000464916229 0.99920797348022461 -0.0068239998072385788
vn 0.046041000634431839 0.99888801574707031 -0.010103999637067318
vn 0.074124999344348907 0.99660801887512207 -0.035739000886678696
vn 0.042544998228549957 0.99837702512741089 -0.037857998162508011
vn 0.038970999419689178 0.99657601118087769 -0.072922997176647186
vn 0.051231000572443008 0.998557984828949 -0.016016999259591103
vn 0.0096300002187490463 0.99976199865341187 -0.019551999866962433
vn 0.026504000648856163 0.99927598237991333 -0.027285000309348106
vn 0.026618000119924545 0.99885600805282593 -0.039719000458717346
vn 0.028920000419020653 0.99890100955963135 -0.036890000104904175
vn 0.027365000918507576 0.99891197681427 -0.037753000855445862
vn 0.017060000449419022 0.99829399585723877 -0.055833000689744949
vn 0.033374998718500137 0.998885989189148 -0.033348999917507172
vn 0.029977999627590179 0.99889600276947021 -0.036162998527288437
vn 0.032003000378608704 0.9990990161895752 -0.027879999950528145
vn 0.030231000855565071 0.99888801574707031 -0.036175999790430069
vn 0.043710000813007355 0.99875497817993164 -0.024042999371886253
vn 0.0432250015437603 0.99851900339126587 -0.033041998744010925
vn 0.024783000349998474 0.99943399429321289 -0.022755999118089676
vn 0.024755999445915222 0.99910902976989746 -0.034180998802185059
vn 0.031302999705076218 0.99466001987457275 -0.098347999155521393
vn 0.039659000933170319 0.99478298425674438 -0.093993999063968658
vn 0.030362000688910484 0.994825005531311 -0.0969650000333786
vn -0.0014979999978095293 0.99583500623703 -0.091164998710155487
vn -0.0026509999297559261 0.99597597122192383 -0.089582003653049469
vn 0.032538000494241714 0.99130797386169434 -0.12747299671173096
vn 0.055711999535560608 0.99276900291442871 -0.10632500052452087
vn 0.013527999632060528 0.996254026889801 -0.085405997931957245
vn 0.03869900107383728 0.9917140007019043 -0.12250000238418579
vn -0.0056059998460114 0.99597799777984619 -0.0894249975681305
vn 0.007304999977350235 0.99828100204467773 -0.058152999728918076
vn -0.02317499928176403 0.99524998664855957 -0.094552002847194672
vn 0.017364000901579857 0.9993320107460022 -0.032159000635147095
vn -0.018285000696778297 0.99482697248458862 -0.09992700070142746
vn 0.023071000352501869 0.9963340163230896 -0.0823730006814003
vn -0.00014899999951012433 0.99690401554107666 -0.0786300003528595
vn 0.000155999994603917 0.997340977191925 -0.072870999574661255
vn -0.0031300000846385956 0.99759501218795776 -0.069237001240253448
vn 0.000155999994603917 0.997340977191925 -0.07287299633026123
vn 0.054219998419284821 0.99267899990081787 -0.10792499780654907
vn 0.02034899964928627 0.99804598093032837 -0.059082001447677612
f 1/1/1 2/2/2 3/3/3
f 1/1/1 4/4/4 2/2/2
f 4/4/4 1/1/1 5/5/5
f 6/6/6 7/7/7 8/8/8
f 9/9/9 10/10/10 11/11/11
f 12/12/12 13/13/13 14/14/14
f 12/12/12 15/15/15 13/13/13
f 3/3/3 6/6/6 8/8/8
f 3/3/3 16/16/16 6/6/6
f 16/16/16 3/3/3 2/2/2
f 17/17/17 1/1/1 3/3/3
f 17/17/17 18/18/18 19/19/19
f 17/17/17 3/3/3 18/18/18
f 20/20/20 21/21/21 22/22/22
f 20/20/20 23/23/23 21/21/21
f 18/18/18 8/8/8 24/24/24
f 3/3/3 8/8/8 18/18/18
f 21/21/21 24/24/24 25/25/25
f 24/24/24 21/21/21 18/18/18
f 25/25/25 26/26/26 21/21/21
f 25/25/25 27/27/27 26/26/26
f 25/25/25 24/24/24 28/28/28
f 23/23/23 18/18/18 21/21/21
f 23/23/23 19/19/19 18/18/18
f 24/24/24 8/8/8 29/29/29
f 30/30/30 31/31/31 32/32/32
f 30/30/30 33/33/33 31/31/31
f 34/34/34 32/32/32 35/35/35
f 34/34/34 30/30/30 32/32/32
f 32/32/32 27/27/27 25/25/25
f 32/32/32 31/31/31 27/27/27
f 35/35/35 32/32/32 36/36/36
f 26/26/26 22/22/22 21/21/21
f 32/32/32 25/25/25 37/37/37
f 14/14/14 11/11/11 10/10/10
f 14/14/14 13/13/13 11/11/11
f 11/11/11 13/13/13 29/29/29
f 29/29/29 13/13/13 38/38/38
f 24/24/24 29/29/29 28/28/28
f 25/25/25 28/28/28 37/37/37
f 29/29/29 39/39/39 28/28/28
f 29/29/29 8/8/8 11/11/11
f 28/28/28 39/39/39 37/37/37
f 40/40/40 38/38/38 41/41/41
f 42/42/42 38/38/38 13/13/13
f 42/42/42 41/41/41 38/38/38
f 43/43/43 39/39/39 44/44/44
f 40/40/40 39/39/39 38/38/38
f 40/40/40 44/44/44 39/39/39
f 43/43/43 45/45/45 39/39/39
f 43/43/43 46/46/46 45/45/45
f 29/29/29 38/38/38 39/39/39
f 37/37/37 39/39/39 45/45/45
f 47/47/47 13/13/13 15/15/15
f 47/47/47 42/42/42 13/13/13
f 48/48/48 45/45/45 49/49/49
f 45/45/45 50/50/50 37/37/37
f 45/45/45 48/48/48 50/50/50
f 36/36/36 37/37/37 50/50/50
f 36/36/36 32/32/32 37/37/37
f 51/51/51 52/52/52 53/53/53
f 52/52/52 49/49/49 45/45/45
f 52/52/52 51/51/51 49/49/49
f 54/54/54 52/52/52 55/55/55
f 54/54/54 56/56/56 52/52/52
f 56/56/56 53/53/53 52/52/52
f 57/57/57 45/45/45 46/46/46
f 57/57/57 52/52/52 45/45/45
f 58/58/58 52/52/52 57/57/57
f 55/55/55 52/52/52 58/58/58
f 9/9/9 8/8/8 7/7/7
f 9/9/9 11/11/11 8/8/8
