mtllib m122222031.mtl
usemtl material0
v 24 0.29367101192474365 40.764811992645264
v 24 0.299452006816864 40.840042114257812
v 24.071084976196289 0.30063199996948242 40.761035919189453
v 24 0.25376299023628235 42.76487398147583
v 24 0.26099300384521484 42.95136296749115
v 24.176131963729858 0.25226101279258728 42.755576968193054
v 24 0.2431659996509552 46.7647819519043
v 24 0.26175001263618469 47.174164056777954
v 24.386850118637085 0.28246700763702393 46.744227886199951
v 24 0.27472299337387085 45.062790036201477
v 24.2816960811615 0.30886700749397278 44.749763011932373
v 24 0.31409800052642822 44.76462197303772
v 24 0.30247700214385986 40
v 24.030932903289795 0.3054879903793335 40
v 24 0.2942270040512085 40.7165150642395
v 24.755837917327881 0.32509198784828186 40
v 24.452935934066772 0.24155899882316589 48
v 24 0.23413600027561188 48
v 26.275910973548889 0.27330398559570312 44.644565999507904
v 25.781681060791016 0.17346900701522827 48
v 26.170848965644836 0.31825798749923706 42.650035977363586
v 26.065902948379517 0.38713699579238892 40.65542197227478
v 26.031268954277039 0.38088798522949219 40
v 26.655626058578491 0.40804898738861084 40
v 26.380818963050842 0.19661100208759308 46.639205932617188
v 28.165709003806114 0.41355100274086 42.544391989707947
v 26.452384948730469 0.1432889997959137 48
v 28.3754920065403 0.25381898880004883 46.533690929412842
v 27.056071996688843 0.15930700302124023 48
v 28.270507991313934 0.31488698720932007 44.539103984832764
v 28.060495000332594 0.42823100090026855 40.549961090087891
v 28.555406987667084 0.48617300391197205 40
v 28.031500000506639 0.43537500500679016 40
v 30.031759023666382 0.49581798911094666 40
v 30.055001974105835 0.45174598693847656 40.444565057754517
v 30.160540103912354 0.5029829740524292 42.438766002655029
v 28.95566201210022 0.13335399329662323 48
v 30.369607925415039 0.19774499535560608 46.428565979003906
v 28.45236799120903 0.14935199916362763 48
v 30.265244960784912 0.38527598977088928 44.433548003435135
v 30.455106973648071 0.52079099416732788 40
v 32 0.57511299848556519 40.341464996337891
v 32 0.57648301124572754 40.32818603515625
v 32 0.61033397912979126 40
v 32 0.57629299163818359 40.394402027130127
v 32 0.58274799585342407 42.3413770198822
v 32 0.63558000326156616 44.092670001089573
v 32 0.61920201778411865 44.341197997331619
v 32 0.591385006904602 44.617228984832764
v 32 0.36816099286079407 46.341929912567139
v 30.855669021606445 0.33524000644683838 48
v 32 0.3891260027885437 46.728214025497437
v 30.453044891357422 0.29199498891830444 48
v 32 0.30318701267242432 48
vt 0.8702399730682373 0.0038319826126098633
vt 0.86118000745773315 0.0042139887809753418
vt 0.87098902463912964 0.012395977973937988
vt 0.62994098663330078 0.012879014015197754
vt 0.60752701759338379 0.013706982135772705
vt 0.631846010684967 0.033990979194641113
vt 0.14932599663734436 0.03104698657989502
vt 0.10012300312519074 0.033255994319915771
vt 0.15367400646209717 0.07764202356338501
vt 0.35354000329971313 0.02324599027633667
vt 0.39273199439048767 0.055755972862243652
vt 0.38965699076652527 0.021784007549285889
vt 0.96211302280426025 0.00076997280120849609
vt 0.9622420072555542 0.0045030117034912109
vt 0.8760409951210022 0.0036389827728271484
vt 0.965565025806427 0.09115302562713623
vt 0.0030960000585764647 0.091488003730773926
vt 0.00089000002481043339 0.0371209979057312
vt 0.41456800699234009 0.29480600357055664
vt 0.0090979998931288719 0.25128000974655151
vt 0.65369802713394165 0.27319598197937012
vt 0.89293098449707031 0.25169897079467773
vt 0.97148400545120239 0.24447202682495117
vt 0.97433102130889893 0.31958597898483276
vt 0.17534899711608887 0.31686097383499146
vt 0.67565500736236572 0.51255199313163757
vt 0.012143000029027462 0.33191198110580444
vt 0.19741599261760712 0.55600801110267639
vt 0.01501499954611063 0.40443497896194458
vt 0.43625101447105408 0.53393200039863586
vt 0.914650022983551 0.49081999063491821
vt 0.98304200172424316 0.54807299375534058
vt 0.98057597875595093 0.48486000299453735
vt 0.99004000425338745 0.72508600354194641
vt 0.936489999294281 0.72988501191139221
vt 0.6976580023765564 0.75186699628829956
vt 0.023308999836444855 0.6322610080242157
vt 0.21841099858283997 0.79517799615859985
vt 0.021366000175476074 0.57213199138641357
vt 0.45811399817466736 0.773156002163887
vt 0.99224597215652466 0.77600599825382233
vt 0.95787298679351807 0.96346399933099747
vt 0.9594770073890686 0.96341399848461151
vt 0.99910998344421387 0.96217399835586548
vt 0.95151501893997192 0.9637099988758564
vt 0.71884799003601074 0.9724439997226
vt 0.50847899913787842 0.981759000569582
vt 0.47856399416923523 0.98283199965953827
vt 0.44650700688362122 0.98490700032562017
vt 0.23759999871253967 0.99153300002217293
vt 0.03153499960899353 0.8617510050535202
vt 0.18999600410461426 0.99293600022792816
vt 0.029795000329613686 0.81311400234699249
vt 0.036928001791238785 0.99923000001581386
vn -0.09917999804019928 0.9944949746131897 -0.033801998943090439
vn -0.0162579994648695 0.99986797571182251 0.00030700000934302807
vn -0.053704999387264252 0.99854797124862671 0.0041720001026988029
vn 0.008076000027358532 0.9999309778213501 -0.0085589997470378876
vn 0.014557000249624252 0.99939799308776855 -0.031477000564336777
vn -0.0044789998792111874 0.9999849796295166 0.003275000024586916
vn -0.10181699693202972 0.99469900131225586 -0.014380999840795994
vn -0.036791998893022537 0.999210000038147 0.015041000209748745
vn -0.020137999206781387 0.99964302778244019 0.017547000199556351
vn -0.071084000170230865 0.9964669942855835 0.044723000377416611
vn 0.003590000094845891 0.99996697902679443 0.0072309998795390129
vn 0.0213639996945858 0.99833399057388306 0.053605001419782639
vn -0.09685099869966507 0.99523299932479858 0.011459999717772007
vn -0.063141003251075745 0.99795800447463989 0.0096990000456571579
vn -0.0968480035662651 0.99523299932479858 0.011459999717772007
vn -0.039259999990463257 0.99922400712966919 -0.0032089999876916409
vn 0.018539000302553177 0.99932897090911865 0.031578000634908676
vn -0.016377000138163567 0.99930697679519653 0.033415000885725021
vn -0.0067710001021623611 0.999671995639801 0.024684999138116837
vn 0.046374000608921051 0.99830597639083862 0.035142000764608383
vn -0.036915000528097153 0.998986005783081 0.025776999071240425
vn -0.033863000571727753 0.99928098917007446 0.017083000391721725
vn -0.043586000800132751 0.999023973941803 -0.0072209998033940792
vn -0.026153000071644783 0.99962300062179565 0.0083640003576874733
vn 0.010116999968886375 0.99925398826599121 0.037278000265359879
vn -0.037558000534772873 0.99903297424316406 0.022867999970912933
vn 0.0080119995400309563 0.99921798706054688 0.038733001798391342
vn -0.0013229999458417296 0.99849498271942139 0.054818000644445419
vn -0.017527999356389046 0.9986649751663208 0.048597000539302826
vn -0.027885999530553818 0.99865901470184326 0.043614000082015991
vn -0.028954999521374702 0.99924701452255249 0.025824999436736107
vn -0.03049900010228157 0.99652200937271118 0.077545002102851868
vn -0.056951999664306641 0.99824899435043335 0.015969999134540558
vn -0.031746000051498413 0.99445599317550659 0.10024599730968475
vn -0.0394739992916584 0.99830299615859985 0.042817998677492142
vn -0.056281000375747681 0.99836999177932739 0.0094659999012947083
vn -0.0049029998481273651 0.99931997060775757 0.036536999046802521
vn -0.055854000151157379 0.99764102697372437 0.039902001619338989
vn 0.01982400007545948 0.99734902381896973 0.070015996694564819
vn -0.072713002562522888 0.99474799633026123 0.072033002972602844
vn -0.057831000536680222 0.99308300018310547 0.10218600183725357
vn -0.061005000025033951 0.99723798036575317 0.042366001754999161
vn -0.057557001709938049 0.99307501316070557 0.10242000222206116
vn -0.057558998465538025 0.99307399988174438 0.10243000090122223
vn -0.059569001197814941 0.99806499481201172 -0.017808999866247177
vn -0.044176999479532242 0.99889099597930908 -0.01627499982714653
vn -0.10736899822950363 0.99342399835586548 0.03976999968290329
vn -0.12892100214958191 0.9882889986038208 0.081639997661113739
vn -0.12053699791431427 0.98703300952911377 0.10600599646568298
vn -0.10175199806690216 0.99399101734161377 0.040346000343561172
vn -0.070891998708248138 0.99725198745727539 -0.021532999351620674
vn -0.075430996716022491 0.99682098627090454 -0.02563600055873394
vn -0.10594700276851654 0.99290800094604492 -0.053925998508930206
vn 0.027935000136494637 0.99733501672744751 0.067392997443676
f 1/1/1 2/2/2 3/3/3
f 4/4/4 5/5/5 6/6/6
f 7/7/7 8/8/8 9/9/9
f 10/10/10 11/11/11 12/12/12
f 13/13/13 3/3/3 14/14/14
f 13/13/13 15/15/15 3/3/3
f 15/15/15 1/1/1 3/3/3
f 14/14/14 3/3/3 16/16/16
f 2/2/2 6/6/6 3/3/3
f 2/2/2 4/4/4 6/6/6
f 7/7/7 11/11/11 10/10/10
f 7/7/7 9/9/9 11/11/11
f 6/6/6 12/12/12 11/11/11
f 6/6/6 5/5/5 12/12/12
f 8/8/8 17/17/17 9/9/9
f 8/8/8 18/18/18 17/17/17
f 11/11/11 9/9/9 19/19/19
f 20/20/20 9/9/9 17/17/17
f 19/19/19 6/6/6 11/11/11
f 21/21/21 3/3/3 6/6/6
f 16/16/16 22/22/22 23/23/23
f 16/16/16 3/3/3 22/22/22
f 23/23/23 22/22/22 24/24/24
f 3/3/3 21/21/21 22/22/22
f 25/25/25 19/19/19 9/9/9
f 21/21/21 6/6/6 19/19/19
f 19/19/19 26/26/26 21/21/21
f 20/20/20 25/25/25 9/9/9
f 20/20/20 27/27/27 25/25/25
f 27/27/27 28/28/28 25/25/25
f 27/27/27 29/29/29 28/28/28
f 19/19/19 25/25/25 30/30/30
f 22/22/22 21/21/21 31/31/31
f 32/32/32 33/33/33 31/31/31
f 34/34/34 31/31/31 35/35/35
f 34/34/34 32/32/32 31/31/31
f 24/24/24 31/31/31 33/33/33
f 24/24/24 22/22/22 31/31/31
f 19/19/19 30/30/30 26/26/26
f 30/30/30 36/36/36 26/26/26
f 28/28/28 37/37/37 38/38/38
f 28/28/28 39/39/39 37/37/37
f 40/40/40 30/30/30 28/28/28
f 35/35/35 26/26/26 36/36/36
f 29/29/29 39/39/39 28/28/28
f 31/31/31 26/26/26 35/35/35
f 25/25/25 28/28/28 30/30/30
f 41/41/41 34/34/34 35/35/35
f 21/21/21 26/26/26 31/31/31
f 42/42/42 41/41/41 35/35/35
f 42/42/42 43/43/43 41/41/41
f 43/43/43 44/44/44 41/41/41
f 36/36/36 42/42/42 35/35/35
f 36/36/36 45/45/45 42/42/42
f 46/46/46 45/45/45 36/36/36
f 46/46/46 36/36/36 47/47/47
f 38/38/38 40/40/40 28/28/28
f 48/48/48 38/38/38 49/49/49
f 48/48/48 40/40/40 38/38/38
f 50/50/50 51/51/51 52/52/52
f 50/50/50 38/38/38 51/51/51
f 38/38/38 53/53/53 51/51/51
f 53/53/53 38/38/38 37/37/37
f 50/50/50 49/49/49 38/38/38
f 54/54/54 52/52/52 51/51/51
f 47/47/47 40/40/40 48/48/48
f 47/47/47 36/36/36 40/40/40
f 40/40/40 36/36/36 30/30/30
