mtllib m122123.mtl
usemtl material0
v 333.41305541992188 -2.2935869693756104 256
v 320 -1.3396199941635132 257.62744140625
v 334.16998291015625 -2.794064998626709 270.38748168945312
v 320 -1.2894190549850464 256
v 320 -1.9844570159912109 271.13323974609375
v 320 0.563601016998291 286.14446997642517
v 320 0.45209199190139771 304.72674560546875
v 320 0.02452399954199791 319.12548828125
v 320.75604248046875 0.074106000363826752 319.08541870117188
v 320 0.48319900035858154 303.12460327148438
v 335.860595703125 -1.5817209482192993 302.29342746734619
v 320 0.0077809998765587807 320
v 320.80426025390625 0.059709001332521439 320
v 320 0.0078469999134540558 319.99655151367188
v 320 0.47699299454689026 303.03546142578125
v 335.0133056640625 -2.5850648880004883 286.341765999794
v 320 0.58732700347900391 287.12478601932526
v 335.12982177734375 -0.15960100293159485 320
v 336.71002197265625 -0.15756100416183472 318.24365234375
v 350.12420701980591 -2.9755160808563232 269.54556274414062
v 347.11538696289062 -2.3431971073150635 256
v 349.41223096847534 -2.3746089935302734 256
v 362.31356811523438 -1.7989480495452881 256
v 350.96530199050903 -3.2108440399169922 285.50134301185608
v 366.08075046539307 -2.6951360702514648 268.70208740234375
v 351.80871599912643 -2.9804339408874512 301.45556640625
v 336.80230712890625 -0.24238699674606323 320
v 350.3251039981842 -1.0686990022659302 320
v 352.66046100854874 -1.0943690538406372 317.40426635742188
v 367.76205444335938 -3.3406679630279541 300.61422729492188
v 352.79769897460938 -1.0542850494384766 320
v 366.92007446289062 -3.2795779705047607 284.65902709960938
v 365.41506958007812 -1.7566800117492676 256
v 377.51190185546875 -1.1834410429000855 256
v 382.03915405273438 -2.0413029193878174 267.85733032226562
v 381.41839599609375 -1.0412219762802124 256
v 384 -1.160863995552063 256
v 384 -1.9536609649658203 265.6781005859375
v 382.87460327148438 -3.3967280387878418 283.81689500808716
v 365.51919555664062 -2.5647881031036377 320
v 368.60598754882812 -3.0058441162109375 316.568115234375
v 383.71234130859375 -4.300574779510498 299.77493286132812
v 368.78781127929688 -2.8799459934234619 320
v 384 -3.402069091796875 283.75747680664062
v 384 -4.2848172187805176 299.45523071289062
v 384 -4.3026800155639648 299.75973510742188
v 384 -4.3545331954956055 305.22927856445312
v 384 -4.4079737663269043 315.759521484375
v 384 -4.23269510269165 319.83447265625
v 372.41885375976562 -3.1968960762023926 320
v 384 -4.2255749702453613 320
v 384 -3.3252720832824707 282.56622314453125
v 384 -2.0899200439453125 267.75393676757812
vt 0.20111300051212311 0.032719016075134277
vt 0.0010710000060498714 0.063521981239318848
vt 0.21988700330257416 0.24731302261352539
vt 0.00023000000510364771 0.039206981658935547
vt 0.00828699953854084 0.26543599367141724
vt 0.013776999898254871 0.4928860068321228
vt 0.027210000902414322 0.7702459990978241
vt 0.037512000650167465 0.985249999910593
vt 0.048790000379085541 0.9840879999101162
vt 0.026071999222040176 0.74632900953292847
vt 0.26427000761032104 0.72316399216651916
vt 0.038146998733282089 0.99830500001553446
vt 0.050073001533746719 0.99771500006318092
vt 0.038143999874591827 0.99825299996882677
vt 0.026023000478744507 0.74499401450157166
vt 0.24287800490856171 0.48495602607727051
vt 0.014399000443518162 0.5075249969959259
vt 0.26398101449012756 0.98894099984318018
vt 0.28492701053619385 0.96189599856734276
vt 0.4577299952507019 0.22657197713851929
vt 0.40574100613594055 0.025632977485656738
vt 0.44004499912261963 0.024459004402160645
vt 0.63288599252700806 0.01735001802444458
vt 0.48075500130653381 0.4630969762802124
vt 0.695609986782074 0.20560199022293091
vt 0.50251197814941406 0.700859010219574
vt 0.28738999366760254 0.98809100035578012
vt 0.48968398571014404 0.98030100017786026
vt 0.523019015789032 0.94016199931502342
vt 0.74031198024749756 0.679282009601593
vt 0.52660298347473145 0.9788419995456934
vt 0.71853697299957275 0.44172197580337524
vt 0.67920601367950439 0.015730023384094238
vt 0.86004102230072021 0.008943021297454834
vt 0.93327897787094116 0.18037998676300049
vt 0.91696000099182129 0.0030789971351623535
vt 0.95555299520492554 0.0016949772834777832
vt 0.96129900217056274 0.1466829776763916
vt 0.956188976764679 0.41894501447677612
vt 0.7179030179977417 0.97059799917042255
vt 0.76223301887512207 0.91734699904918671
vt 0.97841501235961914 0.657478004693985
vt 0.76692801713943481 0.968520000576973
vt 0.97295200824737549 0.41733801364898682
vt 0.98251599073410034 0.65252399444580078
vt 0.98270100355148315 0.65707799792289734
vt 0.98607301712036133 0.73870599269866943
vt 0.99253398180007935 0.89592500030994415
vt 0.99476701021194458 0.95683100074529648
vt 0.82134300470352173 0.96623500064015388
vt 0.99493902921676636 0.95930200070142746
vt 0.97218102216720581 0.3995169997215271
vt 0.96249997615814209 0.17762500047683716
vn 0.04036099836230278 0.998652994632721 0.032614998519420624
vn 0.070589996874332428 0.996882975101471 0.035238999873399734
vn 0.053649000823497772 0.99852901697158813 -0.007815999910235405
vn 0.074620999395847321 0.9967380166053772 0.03074599988758564
vn 0.053571999073028564 0.99651598930358887 -0.063929997384548187
vn 0.16963699460029602 0.98385101556777954 -0.057096999138593674
vn 0.1268559992313385 0.99173098802566528 0.019426999613642693
vn -0.0641459971666336 0.99764800071716309 0.024180000647902489
vn -0.010673999786376953 0.99991697072982788 0.0071519999764859676
vn 0.1278659999370575 0.99151802062988281 -0.023298999294638634
vn 0.090410001575946808 0.993707001209259 -0.066122002899646759
vn -0.064419999718666077 0.9977409839630127 0.019073000177741051
vn -0.0232510007917881 0.99958598613739014 0.016961000859737396
vn -0.064419999718666077 0.99773997068405151 0.019088000059127808
vn 0.14470900595188141 0.98815298080444336 -0.051107998937368393
vn 0.11476899683475494 0.99309301376342773 -0.024383999407291412
vn 0.20633800327777863 0.97844898700714111 -0.0079359998926520348
vn 0.024413000792264938 0.99943399429321289 0.023125000298023224
vn 0.042591001838445663 0.99863499402999878 -0.030246999114751816
vn -0.0017130000051110983 0.99955397844314575 0.029818000271916389
vn 0.010981000028550625 0.99909102916717529 0.041189998388290405
vn -0.014480999670922756 0.99887901544570923 0.045072998851537704
vn -0.02184000052511692 0.99751502275466919 0.06699100136756897
vn 0.019120000302791595 0.99981498718261719 0.0018779999809339643
vn -0.024862000718712807 0.99817699193954468 0.054992999881505966
vn 0.039367001503705978 0.99689602851867676 -0.0681840032339096
vn 0.055360998958349228 0.997439980506897 0.045263998210430145
vn 0.04314500093460083 0.998649001121521 0.02894200012087822
vn 0.066229000687599182 0.9965519905090332 -0.04997900128364563
vn 0.045979999005794525 0.99880599975585938 -0.016497999429702759
vn 0.058177001774311066 0.998134970664978 -0.018489999696612358
vn 0.003338000038638711 0.99971199035644531 0.023785000666975975
vn -0.029864000156521797 0.99672102928161621 0.075204998254776
vn -0.039165999740362167 0.99575799703598022 0.083259999752044678
vn 0.0040910001844167709 0.997098982334137 0.075999997556209564
vn 0.0035699999425560236 0.99647098779678345 0.083857998251914978
vn 0.046140000224113464 0.99559998512268066 0.08155599981546402
vn 0.041953999549150467 0.996084988117218 0.07780899852514267
vn 0.018317999318242073 0.99799597263336182 0.060559999197721481
vn 0.11205299943685532 0.99333900213241577 -0.026876000687479973
vn 0.096764996647834778 0.99492597579956055 -0.027544999495148659
vn 0.038669999688863754 0.99887001514434814 0.027635000646114349
vn 0.091247998178005219 0.99497002363204956 -0.041333999484777451
vn 0.0079250000417232513 0.99814397096633911 0.060375001281499863
vn 0.0083330003544688225 0.99835598468780518 0.056706000119447708
vn 0.0091530000790953636 0.99935102462768555 0.034848999232053757
vn 0.089579001069068909 0.99596697092056274 0.0051279999315738678
vn 0.08975200355052948 0.99580001831054688 -0.018058000132441521
vn 0.088394001126289368 0.99516499042510986 -0.042805001139640808
vn 0.0880419984459877 0.995212972164154 -0.042413000017404556
vn 0.088394001126289368 0.99516499042510986 -0.042803999036550522
vn 0.024198999628424644 0.99660301208496094 0.0787149965763092
vn 0.028617000207304955 0.99684798717498779 0.073994003236293793
f 1/1/1 2/2/2 3/3/3
f 1/1/1 4/4/4 2/2/2
f 5/5/5 6/6/6 3/3/3
f 7/7/7 8/8/8 9/9/9
f 10/10/10 9/9/9 11/11/11
f 10/10/10 7/7/7 9/9/9
f 12/12/12 13/13/13 14/14/14
f 14/14/14 9/9/9 8/8/8
f 14/14/14 13/13/13 9/9/9
f 15/15/15 16/16/16 17/17/17
f 18/18/18 9/9/9 13/13/13
f 18/18/18 19/19/19 9/9/9
f 15/15/15 11/11/11 16/16/16
f 15/15/15 10/10/10 11/11/11
f 3/3/3 16/16/16 20/20/20
f 20/20/20 21/21/21 3/3/3
f 20/20/20 22/22/22 21/21/21
f 22/22/22 20/20/20 23/23/23
f 20/20/20 24/24/24 25/25/25
f 24/24/24 20/20/20 16/16/16
f 2/2/2 5/5/5 3/3/3
f 24/24/24 16/16/16 26/26/26
f 18/18/18 27/27/27 19/19/19
f 11/11/11 19/19/19 26/26/26
f 28/28/28 19/19/19 27/27/27
f 28/28/28 29/29/29 19/19/19
f 19/19/19 29/29/29 26/26/26
f 26/26/26 29/29/29 30/30/30
f 31/31/31 29/29/29 28/28/28
f 16/16/16 11/11/11 26/26/26
f 32/32/32 24/24/24 26/26/26
f 9/9/9 19/19/19 11/11/11
f 24/24/24 32/32/32 25/25/25
f 33/33/33 25/25/25 34/34/34
f 35/35/35 25/25/25 32/32/32
f 34/34/34 35/35/35 36/36/36
f 34/34/34 25/25/25 35/35/35
f 37/37/37 35/35/35 38/38/38
f 37/37/37 36/36/36 35/35/35
f 35/35/35 32/32/32 39/39/39
f 26/26/26 30/30/30 32/32/32
f 40/40/40 29/29/29 31/31/31
f 40/40/40 41/41/41 29/29/29
f 30/30/30 29/29/29 41/41/41
f 30/30/30 41/41/41 42/42/42
f 40/40/40 43/43/43 41/41/41
f 42/42/42 39/39/39 30/30/30
f 44/44/44 42/42/42 45/45/45
f 44/44/44 39/39/39 42/42/42
f 46/46/46 42/42/42 47/47/47
f 48/48/48 42/42/42 41/41/41
f 48/48/48 47/47/47 42/42/42
f 32/32/32 30/30/30 39/39/39
f 48/48/48 41/41/41 49/49/49
f 49/49/49 50/50/50 51/51/51
f 49/49/49 41/41/41 50/50/50
f 52/52/52 35/35/35 39/39/39
f 52/52/52 53/53/53 35/35/35
f 23/23/23 25/25/25 33/33/33
f 23/23/23 20/20/20 25/25/25
f 50/50/50 41/41/41 43/43/43
f 6/6/6 16/16/16 3/3/3
f 6/6/6 17/17/17 16/16/16
f 1/1/1 3/3/3 21/21/21
f 52/52/52 39/39/39 44/44/44
f 45/45/45 42/42/42 46/46/46
f 38/38/38 35/35/35 53/53/53
