mtllib m122122.mtl
usemtl material0
v 256 -4.42358922958374 306.57806396484375
v 256.07077026367188 -4.4289469718933105 306.515625
v 256 -4.42714786529541 306.51937866210938
v 256 -4.4226059913635254 306.59429931640625
v 268.47732543945312 -3.7171320915222168 256
v 256 -4.1303229331970215 258.52005004882812
v 269.50210571289062 -3.8141961097717285 257.80606079101562
v 256 -4.1104211807250977 258.21420288085938
v 256 -3.9663290977478027 256
v 269.40740966796875 -3.6926469802856445 256
v 271.12734985351562 -3.6594409942626953 256
v 286.32424902915955 -3.7541120052337646 256
v 285.40640306472778 -3.8057060241699219 256
v 285.45681810379028 -3.897691011428833 256.96380615234375
v 301.4122314453125 -2.6046741008758545 256
v 301.41836452484131 -2.6136109828948975 256.116943359375
v 286.29608201980591 -4.497683048248291 272.92080688476562
v 301.52359008789062 -2.6014740467071533 256
v 303.6204833984375 -2.4007790088653564 256
v 317.41958618164062 -1.1080019474029541 256
v 318.21942138671875 -1.8827229738235474 271.22695922851562
v 320 -1.2894190549850464 256
v 318.1927490234375 -1.1541179418563843 256
v 320 -1.3396199941635132 257.62744140625
v 302.25570678710938 -3.5978729724884033 272.07525634765625
v 256 -4.2455110549926758 260.85891723632812
v 270.34054565429688 -4.5826420783996582 273.76364135742188
v 256 -5.0662541389465332 274.52239990234375
v 256 -5.0954999923706055 289.70166003704071
v 271.18243408203125 -4.6646518707275391 289.71890294551849
v 287.13830602169037 -4.5113348960876465 288.87585401535034
v 256 -5.100944995880127 290.52197289466858
v 256 -5.082089900970459 291.25988793373108
v 272.02685546875 -4.23160982131958 305.67245483398438
v 256.785888671875 -3.7959330081939697 320
v 256 -3.7681570053100586 320
v 259.13720703125 -3.7611169815063477 320
v 274.33456420898438 -3.6197121143341064 320
v 287.98236100003123 -4.1554398536682129 304.82965087890625
v 272.78631591796875 -3.6305038928985596 320
v 256 -4.4870338439941406 305.18093872070312
v 303.1021728515625 -2.7604660987854004 288.02743499912322
v 319.07504272460938 0.78277599811553955 287.17303502559662
v 320 -1.9844570159912109 271.13323974609375
v 320 0.563601016998291 286.14446997642517
v 303.94900512695312 -1.85282301902771 303.97940063476562
v 319.91586303710938 0.49415099620819092 303.12899780273438
v 303.50942993164062 -1.1726729869842529 320
v 304.79568481445312 -0.97259902954101562 319.93145751953125
v 289.53210401535034 -3.3817069530487061 320
v 288.78665202856064 -3.4906470775604248 320
v 320 0.45209199190139771 304.72674560546875
v 320 0.02452399954199791 319.12548828125
v 320 0.48319900035858154 303.12460327148438
v 320 0.0077809998765587807 320
v 304.87188720703125 -0.9689900279045105 320
v 320 0.0078469999134540558 319.99655151367188
v 304.79931640625 -0.96750801801681519 320
v 320 0.47699299454689026 303.03546142578125
v 320 0.58732700347900391 287.12478601932526
vt 0.2606239914894104 0.023827016353607178
vt 0.26153498888015747 0.024789988994598389
vt 0.26144799590110779 0.023799002170562744
vt 0.26039600372314453 0.0238339900970459
vt 0.97559702396392822 0.17559397220611572
vt 0.9342610239982605 0.0018470287322998047
vt 0.95071899890899658 0.19078797101974487
vt 0.93855702877044678 0.0017070174217224121
vt 0.96965599060058594 0.00069099664688110352
vt 0.97627997398376465 0.18901997804641724
vt 0.97690600156784058 0.2131350040435791
vt 0.9837070107460022 0.42624801397323608
vt 0.98328697681427 0.41327899694442749
vt 0.96974098682403564 0.41443198919296265
vt 0.99087697267532349 0.6383189857006073
vt 0.989234983921051 0.63845100998878479
vt 0.74628198146820068 0.43303298950195312
vt 0.99092400074005127 0.63988000154495239
vt 0.99190598726272583 0.66940298676490784
vt 0.99775302410125732 0.86422300338745117
vt 0.78434199094772339 0.881352998316288
vt 0.99907898902893066 0.896467998623848
vt 0.99802201986312866 0.87508100271224976
vt 0.97644501924514771 0.89346300065517426
vt 0.7654610276222229 0.65668299794197083
vt 0.90144097805023193 0.002929985523223877
vt 0.72719597816467285 0.20992898941040039
vt 0.71010297536849976 0.00916200876235962
vt 0.49735400080680847 0.015981018543243408
vt 0.50394302606582642 0.22886699438095093
vt 0.52304798364639282 0.45212298631668091
vt 0.48585599660873413 0.016346991062164307
vt 0.47551101446151733 0.016686975955963135
vt 0.28065401315689087 0.24805402755737305
vt 0.072673000395298 0.041100025177001953
vt 0.072287999093532562 0.030079007148742676
vt 0.073747999966144562 0.074068009853363037
vt 0.0807420015335083 0.2870749831199646
vt 0.29984098672866821 0.47128897905349731
vt 0.080026999115943909 0.265375018119812
vt 0.28022500872612 0.023176014423370361
vt 0.54190999269485474 0.67684999108314514
vt 0.55865097045898438 0.90598399937152863
vt 0.78726798295974731 0.90622600167989731
vt 0.57408601045608521 0.91812799870967865
vt 0.31797599792480469 0.69709300994873047
vt 0.336557000875473 0.92295300215482712
vt 0.09303700178861618 0.69855999946594238
vt 0.094530999660491943 0.71723300218582153
vt 0.0876849964261055 0.50019600987434387
vt 0.087394997477531433 0.48963499069213867
vt 0.31418600678443909 0.92476700246334076
vt 0.1122639998793602 0.93046300113201141
vt 0.33664798736572266 0.92414099723100662
vt 0.00092100002802908421 0.90934699773788452
vt 0.093137003481388092 0.71780601143836975
vt 0.10005199909210205 0.93081600219011307
vt 0.093534000217914581 0.71686899662017822
vt 0.337893009185791 0.92412900179624557
vt 0.56095802783966064 0.919113002717495
vn 0.022208999842405319 0.99792397022247314 -0.060456998646259308
vn 0.0055840001441538334 0.998878002166748 -0.047037001699209213
vn 0.022575000301003456 0.99834597110748291 -0.052875000983476639
vn 0.032232001423835754 0.99815499782562256 -0.051456000655889511
vn -0.022055000066757202 0.99756699800491333 0.0661270022392273
vn -0.020368000492453575 0.998179018497467 0.05678199976682663
vn -0.011214000172913075 0.99814599752426147 0.059824001044034958
vn -0.019926000386476517 0.99769097566604614 0.064924001693725586
vn -0.019926000386476517 0.99769097566604614 0.064925998449325562
vn -0.02286900021135807 0.99740099906921387 0.0683249980211258
vn 0.0023310000542551279 0.99616599082946777 0.087456002831459045
vn -0.070437997579574585 0.99391597509384155 0.084669999778270721
vn -0.021795999258756638 0.99513202905654907 0.096115000545978546
vn -0.028440000489354134 0.99725401401519775 0.06837800145149231
vn -0.052914001047611237 0.995481014251709 0.078849002718925476
vn -0.078155003488063812 0.99491298198699951 0.063552998006343842
vn -0.028824999928474426 0.99932998418807983 0.02257700078189373
vn -0.077564001083374023 0.99642097949981689 0.033615998923778534
vn -0.093170002102851868 0.99413901567459106 0.054829001426696777
vn -0.019388999789953232 0.99846798181533813 0.051819000393152237
vn -0.040151998400688171 0.99839597940444946 -0.039928000420331955
vn 0.074620999395847321 0.9967380166053772 0.03074599988758564
vn 0.063001997768878937 0.99705702066421509 0.043685000389814377
vn 0.06351500004529953 0.99704897403717041 0.043115001171827316
vn -0.090438999235630035 0.99581700563430786 0.012982999905943871
vn -0.023367000743746758 0.99837100505828857 0.052048999816179276
vn -0.016116000711917877 0.99947398900985718 0.028140999376773834
vn -0.032106000930070877 0.99903601408004761 0.029946999624371529
vn -0.029594000428915024 0.999547004699707 0.0055359997786581516
vn -0.019189000129699707 0.99976098537445068 -0.010518000461161137
vn -0.05294099822640419 0.99848300218582153 -0.015131999738514423
vn -0.029250999912619591 0.99952197074890137 -0.0099879996851086617
vn -0.025946000590920448 0.999210000038147 -0.030112000182271004
vn -0.012488000094890595 0.99927598237991333 -0.035925999283790588
vn 0.0094119999557733536 0.99883198738098145 -0.047389000654220581
vn 0.035277999937534332 0.99818897247314453 -0.048730000853538513
vn -0.013392999768257141 0.99890398979187012 -0.044851001352071762
vn -0.0074869999662041664 0.99908900260925293 -0.042017001658678055
vn -0.071569003164768219 0.996882975101471 -0.033190000802278519
vn -0.0082179997116327286 0.99910497665405273 -0.041480999439954758
vn -0.013976999558508396 0.99898898601531982 -0.0427360013127327
vn -0.1467600017786026 0.988057017326355 -0.046946998685598373
vn -0.025826999917626381 0.9982680082321167 -0.052850000560283661
vn 0.053998000919818878 0.996953010559082 -0.0562950000166893
vn 0.084859997034072876 0.987330973148346 -0.13407699763774872
vn -0.14772099256515503 0.98795300722122192 -0.04612400010228157
vn 0.0022179998923093081 0.999970018863678 -0.0073699997738003731
vn -0.15595300495624542 0.98667001724243164 -0.04648200049996376
vn -0.11051499843597412 0.99318301677703857 -0.037071000784635544
vn -0.14755700528621674 0.98830497264862061 -0.038470000028610229
vn -0.079311996698379517 0.99606901407241821 -0.039446000009775162
vn -0.060593999922275543 0.99772799015045166 0.029455000534653664
vn -0.064125999808311462 0.99764001369476318 0.024544000625610352
vn 0.12768800556659699 0.99146300554275513 -0.02638700045645237
vn -0.064420998096466064 0.9977409839630127 0.019073000177741051
vn -0.0446770004928112 0.99899697303771973 -0.0029239999130368233
vn -0.064420998096466064 0.99773997068405151 0.019086999818682671
vn -0.0651950016617775 0.99538099765777588 -0.070477001368999481
vn 0.18814200162887573 0.98208099603652954 -0.010917999781668186
vn 0.20628499984741211 0.97845101356506348 -0.0089589999988675117
f 1/1/1 2/2/2 3/3/3
f 1/1/1 4/4/4 2/2/2
f 5/5/5 6/6/6 7/7/7
f 5/5/5 8/8/8 6/6/6
f 8/8/8 5/5/5 9/9/9
f 5/5/5 7/7/7 10/10/10
f 10/10/10 7/7/7 11/11/11
f 12/12/12 13/13/13 14/14/14
f 15/15/15 14/14/14 16/16/16
f 15/15/15 12/12/12 14/14/14
f 14/14/14 11/11/11 7/7/7
f 14/14/14 13/13/13 11/11/11
f 14/14/14 7/7/7 17/17/17
f 18/18/18 16/16/16 19/19/19
f 15/15/15 16/16/16 18/18/18
f 20/20/20 16/16/16 21/21/21
f 20/20/20 19/19/19 16/16/16
f 22/22/22 23/23/23 24/24/24
f 16/16/16 14/14/14 25/25/25
f 7/7/7 26/26/26 27/27/27
f 7/7/7 6/6/6 26/26/26
f 28/28/28 29/29/29 27/27/27
f 17/17/17 27/27/27 30/30/30
f 7/7/7 27/27/27 17/17/17
f 17/17/17 30/30/30 31/31/31
f 32/32/32 27/27/27 29/29/29
f 32/32/32 30/30/30 27/27/27
f 28/28/28 27/27/27 26/26/26
f 30/30/30 33/33/33 34/34/34
f 30/30/30 32/32/32 33/33/33
f 4/4/4 35/35/35 2/2/2
f 4/4/4 36/36/36 35/35/35
f 2/2/2 37/37/37 34/34/34
f 2/2/2 35/35/35 37/37/37
f 34/34/34 38/38/38 39/39/39
f 34/34/34 40/40/40 38/38/38
f 41/41/41 34/34/34 33/33/33
f 41/41/41 2/2/2 34/34/34
f 34/34/34 39/39/39 31/31/31
f 40/40/40 34/34/34 37/37/37
f 31/31/31 30/30/30 34/34/34
f 25/25/25 17/17/17 31/31/31
f 3/3/3 2/2/2 41/41/41
f 42/42/42 31/31/31 39/39/39
f 31/31/31 42/42/42 25/25/25
f 21/21/21 42/42/42 43/43/43
f 42/42/42 21/21/21 25/25/25
f 44/44/44 43/43/43 45/45/45
f 44/44/44 21/21/21 43/43/43
f 42/42/42 39/39/39 46/46/46
f 21/21/21 16/16/16 25/25/25
f 42/42/42 47/47/47 43/43/43
f 46/46/46 48/48/48 49/49/49
f 46/46/46 50/50/50 48/48/48
f 51/51/51 46/46/46 39/39/39
f 51/51/51 50/50/50 46/46/46
f 52/52/52 49/49/49 53/53/53
f 52/52/52 47/47/47 49/49/49
f 49/49/49 47/47/47 46/46/46
f 54/54/54 47/47/47 52/52/52
f 55/55/55 49/49/49 56/56/56
f 55/55/55 57/57/57 49/49/49
f 57/57/57 53/53/53 49/49/49
f 42/42/42 46/46/46 47/47/47
f 58/58/58 49/49/49 48/48/48
f 59/59/59 43/43/43 47/47/47
f 59/59/59 60/60/60 43/43/43
f 51/51/51 39/39/39 38/38/38
f 25/25/25 14/14/14 17/17/17
f 58/58/58 56/56/56 49/49/49
f 59/59/59 47/47/47 54/54/54
f 24/24/24 21/21/21 44/44/44
f 24/24/24 23/23/23 21/21/21
f 23/23/23 20/20/20 21/21/21
f 45/45/45 43/43/43 60/60/60
