mtllib m1222222321.mtl
usemtl material0
v 20 -0.20759500563144684 4.8078709840774536
v 20.179332971572876 -0.1672080010175705 4.9691270589828491
v 20 -0.22386999428272247 4.6703380346298218
v 20.128121972084045 -0.28797298669815063 4
v 20 -0.30319398641586304 4
v 20.157803058624268 -0.28482699394226074 4
v 21.176667988300323 -0.067781999707221985 4.9163689613342285
v 21.128509998321533 -0.16837400197982788 4
v 22.270159006118774 -0.05843999981880188 4
v 23.171550989151 -0.024877000600099564 4.8107089996337891
v 23.128703951835632 -0.034201998263597488 4
v 24 -0.11862699687480927 4
v 23.325878024101257 -0.059172000735998154 4
v 24 -0.1334960013628006 4.6070849895477295
v 21.214341998100281 -0.15923400223255158 4
v 22.174639001488686 0.0329429991543293 4.8631689548492432
v 22.128643006086349 -0.05097699910402298 4
v 20 -0.21999500691890717 5.7575400024652481
v 20.232013940811157 -0.20696799457073212 5.96628800034523
v 20 -0.18495999276638031 4.97859001159668
v 21.229290008544922 -0.12947100400924683 5.9135719984769821
v 23.224231958389282 -0.016826000064611435 5.8078690022230148
v 24 -0.13058100640773773 4.7672970294952393
v 24 -0.047586001455783844 5.5562359988689423
v 22.226870000362396 -0.050801001489162445 5.8606449961662292
v 24 -0.13297399878501892 4.63580596446991
v 21.281956017017365 -0.14249299466609955 6.9107450246810913
v 20 -0.22499600052833557 5.9785539992153645
v 23.276936054229736 -0.0043799998238682747 6.8050159811973572
v 24 -0.045478999614715576 5.7669939994812012
v 24 -0.042107000946998596 6.0012710000155494
v 22.279370993375778 -0.079370997846126556 6.8579319715499878
v 20.2847820520401 -0.2053380012512207 6.9633880257606506
v 20 -0.20250000059604645 7.65707802772522
v 20.337399959564209 -0.1714169979095459 7.9605940580368042
v 20 -0.22327099740505219 6.9784460067749023
v 20 -0.22199399769306183 6.2241680026054382
v 22.332138001918793 -0.054230999201536179 7.8550339937210083
v 23.329645037651062 0.00904100015759468 7.802157998085022
v 21.334177017211914 -0.1138869971036911 7.9082280397415161
v 24 -0.033566001802682877 6.7669249773025513
v 24 1.4999999621068128E-05 7.4555150270462036
v 20 -0.19081799685955048 8
v 20 -0.19113300740718842 7.9783949851989746
v 20.339465975761414 -0.17071999609470367 8
v 22.339789986610413 -0.054124999791383743 8
v 21.436313986778259 -0.10801699757575989 8
v 20 -0.19129100441932678 7.9739179611206055
v 23.340114951133728 0.014125999994575977 8
v 22.49338498711586 -0.040582001209259033 8
v 24 0.0043089999817311764 7.766772985458374
v 24 0.013106999918818474 8
v 23.549600958824158 0.015390000306069851 8
v 24 0.010595000348985195 7.933413028717041
v 21.339034974575043 -0.11301500350236893 8
v 20.381180047988892 -0.16862200200557709 8
v 20 -0.2642633318901062 4.8078709840774536
v 20 -0.28053832054138184 4.6703380346298218
v 20 -0.35986232757568359 4
v 20.128121972084045 -0.34464132785797119 4
v 20.157803058624268 -0.3414953351020813 4
v 21.128509998321533 -0.22504232823848724 4
v 22.270159006118774 -0.11510832607746124 4
v 23.128703951835632 -0.090870320796966553 4
v 23.325878024101257 -0.11584032326936722 4
v 24 -0.17529532313346863 4
v 24 -0.19016432762145996 4.6070849895477295
v 21.214341998100281 -0.21590232849121094 4
v 22.128643006086349 -0.10764532536268234 4
v 20 -0.27666333317756653 5.7575400024652481
v 20 -0.24162831902503967 4.97859001159668
v 24 -0.1872493177652359 4.7672970294952393
v 24 -0.10425432026386261 5.5562359988689423
v 24 -0.18964232504367828 4.63580596446991
v 20 -0.28166431188583374 5.9785539992153645
v 24 -0.10214732587337494 5.7669939994812012
v 24 -0.098775319755077362 6.0012710000155494
v 20 -0.25916832685470581 7.65707802772522
v 20 -0.27993932366371155 6.9784460067749023
v 20 -0.27866232395172119 6.2241680026054382
v 24 -0.090234324336051941 6.7669249773025513
v 24 -0.056653324514627457 7.4555150270462036
v 20 -0.24748632311820984 8
v 20 -0.24780131876468658 7.9783949851989746
v 20.339465975761414 -0.22738832235336304 8
v 22.339789986610413 -0.11079332232475281 8
v 21.436313986778259 -0.16468532383441925 8
v 20 -0.24795931577682495 7.9739179611206055
v 23.340114951133728 -0.042542323470115662 8
v 22.49338498711586 -0.0972503200173378 8
v 24 -0.05235932394862175 7.766772985458374
v 24 -0.04356132447719574 8
v 23.549600958824158 -0.041278321295976639 8
v 24 -0.046073321253061295 7.933413028717041
v 21.339034974575043 -0.16968332231044769 8
v 20.381180047988892 -0.22529032826423645 8
vt 0.9899749755859375 0.79737299680709839
vt 0.94564199447631836 0.75689199566841125
vt 0.9899749755859375 0.831375002861023
vt 0.95830202102661133 0.9966599999461323
vt 0.9899749755859375 0.99709900002926588
vt 0.95097500085830688 0.99656899995170534
vt 0.69943201541900635 0.76688799262046814
vt 0.71096897125244141 0.99323400016874075
vt 0.42903700470924377 0.99010900035500526
vt 0.20765699446201325 0.78482499718666077
vt 0.21514900028705597 0.98401400074362755
vt 0.00022499999613501132 0.98116699978709221
vt 0.16635799407958984 0.98336300067603588
vt 0.0018749999580904841 0.83208400011062622
vt 0.68977797031402588 0.99296800000593066
vt 0.45303800702095032 0.77706800401210785
vt 0.46382901072502136 0.9900110000744462
vt 0.99301397800445557 0.56368300318717957
vt 0.9366229772567749 0.51170700788497925
vt 0.98991000652313232 0.75509299337863922
vt 0.69099897146224976 0.52139899134635925
vt 0.19997400045394898 0.539781004190445
vt 0.0024699999485164881 0.7922080010175705
vt 0.00810300000011921 0.59752699732780457
vt 0.44516900181770325 0.53110501170158386
vt 0.0019849999807775021 0.82503299415111542
vt 0.68148297071456909 0.27640402317047119
vt 0.99378997087478638 0.50941300392150879
vt 0.19038400053977966 0.29566097259521484
vt 0.0092139998450875282 0.54579201340675354
vt 0.010083000175654888 0.49067401885986328
vt 0.43614199757575989 0.28598600625991821
vt 0.92693698406219482 0.26675599813461304
vt 0.99879401922225952 0.097263991832733154
vt 0.91679000854492188 0.021658003330230713
vt 0.99701398611068726 0.26394397020339966
vt 0.99449002742767334 0.44911199808120728
vt 0.42600798606872559 0.040974974632263184
vt 0.18053799867630005 0.050684988498687744
vt 0.67151397466659546 0.031277000904083252
vt 0.012612000107765198 0.30270200967788696
vt 0.014891999773681164 0.13372600078582764
vt 0.9997749924659729 0.013028025627136231
vt 0.99971300363540649 0.018333017826080322
vt 0.91640198230743408 0.011976003646850586
vt 0.42451900243759155 0.00536501407623291
vt 0.64669597148895264 0.0084170103073120117
vt 0.99970102310180664 0.019432008266448975
vt 0.17846700549125671 0.0020719766616821289
vt 0.38666599988937378 0.00495600700378418
vt 0.01585800014436245 0.057307004928588867
vt 0.016464000567793846 0.00041902065277099609
vt 0.12703800201416016 0.0015349984169006348
vt 0.016380000859498978 0.016368985176086426
vt 0.67060798406600952 0.00873100757598877
vt 0.90614801645278931 0.011842012405395508
vt 0.9899749755859375 0.79737299680709839
vt 0.9899749755859375 0.831375002861023
vt 0.9899749755859375 0.99709900002926588
vt 0.95830202102661133 0.9966599999461323
vt 0.95097500085830688 0.99656899995170534
vt 0.71096897125244141 0.99323400016874075
vt 0.42903700470924377 0.99010900035500526
vt 0.21514900028705597 0.98401400074362755
vt 0.16635799407958984 0.98336300067603588
vt 0.00022499999613501132 0.98116699978709221
vt 0.0018749999580904841 0.83208400011062622
vt 0.68977797031402588 0.99296800000593066
vt 0.46382901072502136 0.9900110000744462
vt 0.99301397800445557 0.56368300318717957
vt 0.98991000652313232 0.75509299337863922
vt 0.0024699999485164881 0.7922080010175705
vt 0.00810300000011921 0.59752699732780457
vt 0.0019849999807775021 0.82503299415111542
vt 0.99378997087478638 0.50941300392150879
vt 0.0092139998450875282 0.54579201340675354
vt 0.010083000175654888 0.49067401885986328
vt 0.99879401922225952 0.097263991832733154
vt 0.99701398611068726 0.26394397020339966
vt 0.99449002742767334 0.44911199808120728
vt 0.012612000107765198 0.30270200967788696
vt 0.014891999773681164 0.13372600078582764
vt 0.9997749924659729 0.013028025627136231
vt 0.99971300363540649 0.018333017826080322
vt 0.91640198230743408 0.011976003646850586
vt 0.42451900243759155 0.00536501407623291
vt 0.64669597148895264 0.0084170103073120117
vt 0.99970102310180664 0.019432008266448975
vt 0.17846700549125671 0.0020719766616821289
vt 0.38666599988937378 0.00495600700378418
vt 0.01585800014436245 0.057307004928588867
vt 0.016464000567793846 0.00041902065277099609
vt 0.12703800201416016 0.0015349984169006348
vt 0.016380000859498978 0.016368985176086426
vt 0.67060798406600952 0.00873100757598877
vt 0.90614801645278931 0.011842012405395508
vn -0.11382599920034409 0.98617702722549438 -0.12040899693965912
vn -0.0995670035481453 0.99439799785614014 -0.035471998155117035
vn -0.11716900020837784 0.98623102903366089 -0.11670500040054321
vn -0.11118199676275253 0.98687702417373657 -0.11710099875926971
vn -0.11716800183057785 0.98623102903366089 -0.11670400202274323
vn -0.10786800086498261 0.98760902881622314 -0.11398400366306305
vn -0.099779002368450165 0.99485701322555542 -0.017423000186681747
vn -0.11217699944972992 0.98837697505950928 -0.10260000079870224
vn 0.033629000186920166 0.99633598327636719 -0.0786380022764206
vn 0.068520002067089081 0.99702298641204834 -0.03535199910402298
vn 0.04629100114107132 0.99883097410202026 -0.013934999704360962
vn 0.087828002870082855 0.99583697319030762 0.024390999227762222
vn 0.11686400324106216 0.99311399459838867 -0.0081839999184012413
vn 0.11555500328540802 0.99327802658081055 -0.0067099998705089092
vn -0.10804899781942368 0.98910301923751831 -0.10000800341367722
vn -0.035153999924659729 0.99922502040863037 -0.017734000459313393
vn -0.035482000559568405 0.99486100673675537 -0.094833001494407654
vn -0.090778999030590057 0.99511498212814331 0.03879300132393837
vn -0.075375996530056 0.99694699048995972 0.020372999832034111
vn -0.10054399818181992 0.99410802125930786 -0.040490999817848206
vn -0.076641000807285309 0.99623399972915649 0.0405380018055439
vn 0.012965000234544277 0.99991601705551147 0.00054500001715496182
vn 0.12328100204467773 0.99059402942657471 -0.059376001358032227
vn 0.059080000966787338 0.99763000011444092 -0.035264000296592712
vn -0.06144699826836586 0.996783971786499 0.051444999873638153
vn 0.12561500072479248 0.99191498756408691 -0.0180479995906353
vn -0.06472499668598175 0.99788600206375122 -0.0057839998044073582
vn -0.077225998044013977 0.99700301885604858 0.0045989998616278172
vn -0.017376000061631203 0.99979197978973389 -0.010657999664545059
vn 0.036270000040531158 0.99926900863647461 -0.012112000025808811
vn 0.036986999213695526 0.999222993850708 -0.013627000153064728
vn -0.069277003407478333 0.99758601188659668 0.0048799999058246613
vn -0.062933996319770813 0.99792200326919556 -0.013798000290989876
vn -0.063288003206253052 0.99748802185058594 -0.031798999756574631
vn -0.058674998581409454 0.99802899360656738 -0.022249000146985054
vn -0.063629999756813049 0.99786198139190674 -0.014953999780118465
vn -0.066348999738693237 0.9977949857711792 -0.0015529999509453774
vn -0.065710000693798065 0.99775397777557373 -0.013012999668717384
vn -0.032166998833417892 0.99926602840423584 -0.020800000056624413
vn -0.059025999158620834 0.99813598394393921 -0.01551199983805418
vn 0.038773998618125916 0.99881899356842041 -0.029272999614477158
vn 0.014715000055730343 0.999625027179718 -0.023111000657081604
vn -0.059094998985528946 0.99814599752426147 -0.014542999677360058
vn -0.0596110001206398 0.99791902303695679 -0.0245789997279644
vn -0.054515998810529709 0.998403012752533 -0.014787999913096428
vn -0.074170000851154327 0.99724102020263672 0.0031890000682324171
vn -0.057627998292446136 0.998337984085083 0.00027700001373887062
vn -0.060155000537633896 0.997564971446991 -0.03528900071978569
vn -0.034260999411344528 0.999127984046936 -0.023866999894380569
vn -0.069903001189231873 0.997422993183136 -0.016154000535607338
vn 0.00571999978274107 0.99966198205947876 -0.025344999507069588
vn 0.0050650001503527164 0.99927598237991333 -0.03769800066947937
vn 0.0024770000018179417 0.99939000606536865 -0.034825000911951065
vn 0.0050650001503527164 0.99927598237991333 -0.03769800066947937
vn -0.054519999772310257 0.99849098920822144 -0.0066030002199113369
vn -0.056157000362873077 0.998386025428772 -0.0084220003336668015
vn -0.11382599920034409 0.98617702722549438 -0.12040899693965912
vn -0.11716900020837784 0.98623102903366089 -0.11670500040054321
vn -0.11716800183057785 0.98623102903366089 -0.11670400202274323
vn -0.11118199676275253 0.98687702417373657 -0.11710099875926971
vn -0.10786800086498261 0.98760902881622314 -0.11398400366306305
vn -0.11217699944972992 0.98837697505950928 -0.10260000079870224
vn 0.033629000186920166 0.99633598327636719 -0.0786380022764206
vn 0.04629100114107132 0.99883097410202026 -0.013934999704360962
vn 0.11686400324106216 0.99311399459838867 -0.0081839999184012413
vn 0.087828002870082855 0.99583697319030762 0.024390999227762222
vn 0.11555500328540802 0.99327802658081055 -0.0067099998705089092
vn -0.10804899781942368 0.98910301923751831 -0.10000800341367722
vn -0.035482000559568405 0.99486100673675537 -0.094833001494407654
vn -0.090778999030590057 0.99511498212814331 0.03879300132393837
vn -0.10054399818181992 0.99410802125930786 -0.040490999817848206
vn 0.12328100204467773 0.99059402942657471 -0.059376001358032227
vn 0.059080000966787338 0.99763000011444092 -0.035264000296592712
vn 0.12561500072479248 0.99191498756408691 -0.0180479995906353
vn -0.077225998044013977 0.99700301885604858 0.0045989998616278172
vn 0.036270000040531158 0.99926900863647461 -0.012112000025808811
vn 0.036986999213695526 0.999222993850708 -0.013627000153064728
vn -0.063288003206253052 0.99748802185058594 -0.031798999756574631
vn -0.063629999756813049 0.99786198139190674 -0.014953999780118465
vn -0.066348999738693237 0.9977949857711792 -0.0015529999509453774
vn 0.038773998618125916 0.99881899356842041 -0.029272999614477158
vn 0.014715000055730343 0.999625027179718 -0.023111000657081604
vn -0.059094998985528946 0.99814599752426147 -0.014542999677360058
vn -0.0596110001206398 0.99791902303695679 -0.0245789997279644
vn -0.054515998810529709 0.998403012752533 -0.014787999913096428
vn -0.074170000851154327 0.99724102020263672 0.0031890000682324171
vn -0.057627998292446136 0.998337984085083 0.00027700001373887062
vn -0.060155000537633896 0.997564971446991 -0.03528900071978569
vn -0.034260999411344528 0.999127984046936 -0.023866999894380569
vn -0.069903001189231873 0.997422993183136 -0.016154000535607338
vn 0.00571999978274107 0.99966198205947876 -0.025344999507069588
vn 0.0050650001503527164 0.99927598237991333 -0.03769800066947937
vn 0.0024770000018179417 0.99939000606536865 -0.034825000911951065
vn 0.0050650001503527164 0.99927598237991333 -0.03769800066947937
vn -0.054519999772310257 0.99849098920822144 -0.0066030002199113369
vn -0.056157000362873077 0.998386025428772 -0.0084220003336668015
f 1/1/1 2/2/2 3/3/3
f 3/3/3 4/4/4 5/5/5
f 3/3/3 2/2/2 4/4/4
f 6/6/6 7/7/7 8/8/8
f 9/9/9 10/10/10 11/11/11
f 12/12/12 13/13/13 14/14/14
f 15/15/15 16/16/16 17/17/17
f 2/2/2 18/18/18 19/19/19
f 2/2/2 20/20/20 18/18/18
f 1/1/1 20/20/20 2/2/2
f 7/7/7 2/2/2 21/21/21
f 10/10/10 16/16/16 22/22/22
f 15/15/15 7/7/7 16/16/16
f 15/15/15 8/8/8 7/7/7
f 9/9/9 16/16/16 10/10/10
f 9/9/9 17/17/17 16/16/16
f 23/23/23 10/10/10 24/24/24
f 7/7/7 4/4/4 2/2/2
f 7/7/7 6/6/6 4/4/4
f 16/16/16 7/7/7 25/25/25
f 11/11/11 14/14/14 13/13/13
f 11/11/11 26/26/26 14/14/14
f 26/26/26 10/10/10 23/23/23
f 26/26/26 11/11/11 10/10/10
f 21/21/21 19/19/19 27/27/27
f 28/28/28 19/19/19 18/18/18
f 22/22/22 25/25/25 29/29/29
f 22/22/22 16/16/16 25/25/25
f 30/30/30 10/10/10 22/22/22
f 30/30/30 24/24/24 10/10/10
f 31/31/31 22/22/22 29/29/29
f 31/31/31 30/30/30 22/22/22
f 21/21/21 25/25/25 7/7/7
f 25/25/25 21/21/21 32/32/32
f 33/33/33 34/34/34 35/35/35
f 33/33/33 36/36/36 34/34/34
f 37/37/37 33/33/33 19/19/19
f 37/37/37 36/36/36 33/33/33
f 32/32/32 27/27/27 38/38/38
f 27/27/27 32/32/32 21/21/21
f 32/32/32 29/29/29 25/25/25
f 29/29/29 32/32/32 39/39/39
f 19/19/19 33/33/33 27/27/27
f 27/27/27 33/33/33 40/40/40
f 41/41/41 31/31/31 29/29/29
f 37/37/37 19/19/19 28/28/28
f 41/41/41 29/29/29 42/42/42
f 21/21/21 2/2/2 19/19/19
f 40/40/40 33/33/33 35/35/35
f 43/43/43 35/35/35 44/44/44
f 43/43/43 45/45/45 35/35/35
f 46/46/46 40/40/40 47/47/47
f 46/46/46 38/38/38 40/40/40
f 48/48/48 35/35/35 34/34/34
f 48/48/48 44/44/44 35/35/35
f 49/49/49 38/38/38 50/50/50
f 49/49/49 39/39/39 38/38/38
f 38/38/38 39/39/39 32/32/32
f 39/39/39 42/42/42 29/29/29
f 39/39/39 51/51/51 42/42/42
f 27/27/27 40/40/40 38/38/38
f 52/52/52 39/39/39 53/53/53
f 52/52/52 54/54/54 39/39/39
f 54/54/54 51/51/51 39/39/39
f 55/55/55 35/35/35 56/56/56
f 55/55/55 40/40/40 35/35/35
f 45/45/45 56/56/56 35/35/35
f 50/50/50 38/38/38 46/46/46
f 47/47/47 40/40/40 55/55/55
f 53/53/53 39/39/39 49/49/49
f 1/1/1 3/3/3 57/57/57
f 58/58/58 57/57/57 3/3/3
f 5/5/5 4/4/4 59/59/59
f 60/60/60 59/59/59 4/4/4
f 3/3/3 5/5/5 58/58/58
f 59/59/59 58/58/58 5/5/5
f 6/6/6 8/8/8 61/61/61
f 62/62/62 61/61/61 8/8/8
f 9/9/9 11/11/11 63/63/63
f 64/64/64 63/63/63 11/11/11
f 13/13/13 12/12/12 65/65/65
f 66/66/66 65/65/65 12/12/12
f 12/12/12 14/14/14 66/66/66
f 67/67/67 66/66/66 14/14/14
f 15/15/15 17/17/17 68/68/68
f 69/69/69 68/68/68 17/17/17
f 18/18/18 20/20/20 70/70/70
f 71/71/71 70/70/70 20/20/20
f 20/20/20 1/1/1 71/71/71
f 57/57/57 71/71/71 1/1/1
f 8/8/8 15/15/15 62/62/62
f 68/68/68 62/62/62 15/15/15
f 17/17/17 9/9/9 69/69/69
f 63/63/63 69/69/69 9/9/9
f 23/23/23 24/24/24 72/72/72
f 73/73/73 72/72/72 24/24/24
f 4/4/4 6/6/6 60/60/60
f 61/61/61 60/60/60 6/6/6
f 11/11/11 13/13/13 64/64/64
f 65/65/65 64/64/64 13/13/13
f 14/14/14 26/26/26 67/67/67
f 74/74/74 67/67/67 26/26/26
f 26/26/26 23/23/23 74/74/74
f 72/72/72 74/74/74 23/23/23
f 28/28/28 18/18/18 75/75/75
f 70/70/70 75/75/75 18/18/18
f 24/24/24 30/30/30 73/73/73
f 76/76/76 73/73/73 30/30/30
f 30/30/30 31/31/31 76/76/76
f 77/77/77 76/76/76 31/31/31
f 34/34/34 36/36/36 78/78/78
f 79/79/79 78/78/78 36/36/36
f 36/36/36 37/37/37 79/79/79
f 80/80/80 79/79/79 37/37/37
f 31/31/31 41/41/41 77/77/77
f 81/81/81 77/77/77 41/41/41
f 37/37/37 28/28/28 80/80/80
f 75/75/75 80/80/80 28/28/28
f 41/41/41 42/42/42 81/81/81
f 82/82/82 81/81/81 42/42/42
f 43/43/43 44/44/44 83/83/83
f 84/84/84 83/83/83 44/44/44
f 45/45/45 43/43/43 85/85/85
f 83/83/83 85/85/85 43/43/43
f 46/46/46 47/47/47 86/86/86
f 87/87/87 86/86/86 47/47/47
f 48/48/48 34/34/34 88/88/88
f 78/78/78 88/88/88 34/34/34
f 44/44/44 48/48/48 84/84/84
f 88/88/88 84/84/84 48/48/48
f 49/49/49 50/50/50 89/89/89
f 90/90/90 89/89/89 50/50/50
f 42/42/42 51/51/51 82/82/82
f 91/91/91 82/82/82 51/51/51
f 52/52/52 53/53/53 92/92/92
f 93/93/93 92/92/92 53/53/53
f 54/54/54 52/52/52 94/94/94
f 92/92/92 94/94/94 52/52/52
f 51/51/51 54/54/54 91/91/91
f 94/94/94 91/91/91 54/54/54
f 55/55/55 56/56/56 95/95/95
f 96/96/96 95/95/95 56/56/56
f 56/56/56 45/45/45 96/96/96
f 85/85/85 96/96/96 45/45/45
f 50/50/50 46/46/46 90/90/90
f 86/86/86 90/90/90 46/46/46
f 47/47/47 55/55/55 87/87/87
f 95/95/95 87/87/87 55/55/55
f 53/53/53 49/49/49 93/93/93
f 89/89/89 93/93/93 49/49/49
