mtllib m1222023.mtl
usemtl material0
v 32 2.7170999050140381 132.14723205566406
v 33.8073616027832 2.8271450996398926 128
v 32 2.7787210941314697 128
v 35.619392395019531 2.8874950408935547 128
v 32 2.69084095954895 134.33184814453125
v 39.004375457763672 2.9285778999328613 133.96122741699219
v 32 2.70649790763855 133.02926635742188
v 38.689117431640625 2.819364070892334 128
v 41.601025104522705 2.7241530418395996 128
v 32 2.7040359973907471 135.25982666015625
v 39.426143646240234 3.05663800239563 141.93830895423889
v 46.689102053642273 2.8535940647125244 128
v 43.835608959198 2.8080310821533203 128
v 46.983314990997314 3.2066969871520996 133.53900146484375
v 49.396060943603516 3.0193870067596436 128
v 52.054787158966064 3.1600770950317383 128
v 54.962849140167236 3.6049120426177979 133.11637878417969
v 57.191490173339844 3.4282259941101074 128
v 54.691188812255859 3.2988009452819824 128
v 60.273963928222656 3.5119040012359619 128
v 62.9413948059082 3.8019399642944336 132.69444274902344
v 64 3.5712530612945557 128
v 64 3.6669609546661377 130.26374816894531
v 62.692592620849609 3.61103892326355 128
v 63.363433837890625 3.984199047088623 140.67134094238281
v 55.3846321105957 3.7354140281677246 141.09346008300781
v 47.405128002166748 3.3430581092834473 141.51605200767517
v 64 3.7743659019470215 132.63862609863281
v 64 3.8357689380645752 133.64659118652344
v 32 2.8191258907318115 142.33119201660156
v 32 3.2431309223175049 150.19265699386597
v 32 3.3569200038909912 152.77601623535156
v 32 3.5861051082611084 158.32829284667969
v 32.2935676574707 3.6077959537506104 158.31272888183594
v 32 3.6442070007324219 160
v 32 3.5985119342803955 158.63900756835938
v 32.382961273193359 3.6706089973449707 160
v 38.374469757080078 3.8186240196228027 160
v 40.272034168243408 3.7897439002990723 157.89083862304688
v 39.8491096496582 3.4273509979248047 149.91455078125
v 32 3.2493131160736084 150.32960510253906
v 47.828167006373405 3.7289071083068848 149.49226379394531
v 48.249706000089645 3.8095669746398926 157.46949768066406
v 48.383231997489929 3.797511100769043 160
v 45.973098993301392 3.8593769073486328 160
v 53.571620941162109 3.8432509899139404 160
v 56.227634429931641 3.88210391998291 157.04798889160156
v 40.383628845214844 3.8386950492858887 160
v 55.806510925292969 3.8854269981384277 149.07046508789063
v 64 3.6863338947296143 156.63816833496094
v 61.169696807861328 3.589169979095459 160
v 64 3.6749980449676514 156.8543701171875
v 56.382663726806641 3.7229809761047363 160
v 63.784347534179688 3.9389030933380127 148.64900207519531
v 64 3.8065381050109863 152.746826171875
v 64 3.9396491050720215 148.63761901855469
v 64 3.942655086517334 148.40933179855347
v 64 3.9910740852355957 140.63769507408142
v 64 3.3911008834838867 160
vt 0.86715197563171387 0.0037239789962768555
vt 0.99560701847076416 0.059768974781036377
vt 0.99560701847076416 0.00377500057220459
vt 0.99561202526092529 0.11592000722885132
vt 0.79948902130126953 0.003702998161315918
vt 0.81098699569702148 0.22075402736663818
vt 0.83983302116394043 0.0037149786949157715
vt 0.995639979839325 0.21101301908493042
vt 0.99568498134613037 0.30124402046203613
vt 0.77074599266052246 0.0037189722061157227
vt 0.56391102075576782 0.23396700620651245
vt 0.995481014251709 0.45888298749923706
vt 0.99554800987243652 0.37049800157546997
vt 0.82359099388122559 0.46803802251815796
vt 0.99518400430679321 0.54287499189376831
vt 0.9956740140914917 0.62425899505615234
vt 0.83712399005889893 0.71520400047302246
vt 0.99596202373504639 0.78355999290943146
vt 0.99581998586654663 0.7060219943523407
vt 0.995943009853363 0.87936399877071381
vt 0.85049700736999512 0.96236100047826767
vt 0.99612802267074585 0.99484199983999133
vt 0.92595100402832031 0.99500800017267466
vt 0.99598699808120728 0.95433299988508224
vt 0.60340899229049683 0.975874999538064
vt 0.59005898237228394 0.72866401076316834
vt 0.57700401544570923 0.48123699426651
vt 0.852325975894928 0.99515199987217784
vt 0.82105100154876709 0.99520100001245737
vt 0.55171501636505127 0.0038610100746154785
vt 0.30788999795913696 0.0043290257453918457
vt 0.2278050035238266 0.0044599771499633789
vt 0.05570400133728981 0.004749000072479248
vt 0.056159000843763351 0.013867020606994629
vt 0.0038829999975860119 0.0048249959945678711
vt 0.046073000878095627 0.004749000072479248
vt 0.0038719999138265848 0.016713976860046387
vt 0.0039829998277127743 0.20232897996902466
vt 0.0693809986114502 0.26101797819137573
vt 0.31664100289344788 0.24749797582626343
vt 0.30364400148391724 0.0043359994888305664
vt 0.32971400022506714 0.4947890043258667
vt 0.082657001912593842 0.5080769956111908
vt 0.0042909998446702957 0.51231399178504944
vt 0.0042019998654723167 0.43764698505401611
vt 0.0044040000066161156 0.67295700311660767
vt 0.095888003706932068 0.75515599548816681
vt 0.0040460000745952129 0.26455599069595337
vt 0.34292501211166382 0.741919994354248
vt 0.1086530014872551 0.995941000059247
vt 0.0043730000033974648 0.90842799842357636
vt 0.10194800049066544 0.99595300015062094
vt 0.0043390002101659775 0.7600959986448288
vt 0.3561980128288269 0.98898900020867586
vt 0.22922599315643311 0.99580899998545647
vt 0.35655298829078674 0.99566800007596612
vt 0.3636229932308197 0.99566600006073713
vt 0.60431802272796631 0.99559800000861287
vt 0.0041319997981190681 0.99629699997603893
vn -0.032432999461889267 0.99939697980880737 0.012384000234305859
vn -0.030883999541401863 0.99943798780441284 0.013059999793767929
vn -0.026779999956488609 0.99953097105026245 0.014851000159978867
vn -0.014670999720692635 0.99989098310470581 0.0014400000218302012
vn -0.03400300070643425 0.99942100048065186 -0.001538999960757792
vn -0.026130000129342079 0.99951499700546265 -0.016937000676989555
vn -0.033284001052379608 0.99937397241592407 0.012012000195682049
vn 0.027255000546574593 0.99943298101425171 -0.019751999527215958
vn -0.011567999608814716 0.99915999174118042 -0.0393030010163784
vn -0.034175999462604523 0.99930697679519653 -0.014758000150322914
vn -0.03461499884724617 0.99892598390579224 -0.030797999352216721
vn -0.037691999226808548 0.99738997220993042 -0.061579998582601547
vn -0.030244000256061554 0.99804800748825073 -0.054646998643875122
vn -0.043060000985860825 0.99844902753829956 -0.03530300036072731
vn -0.055817000567913055 0.996753990650177 -0.058019999414682388
vn -0.052657999098300934 0.99699902534484863 -0.056752000004053116
vn -0.041616998612880707 0.99853897094726562 -0.034476000815629959
vn -0.036173999309539795 0.99808299541473389 -0.050223998725414276
vn -0.05205100029706955 0.99702298641204834 -0.056887999176979065
vn -0.0317390002310276 0.99854201078414917 -0.043657999485731125
vn -0.006490000057965517 0.99926298856735229 -0.037826001644134521
vn 0.030389999970793724 0.99864602088928223 -0.042220998555421829
vn 0.029506999999284744 0.99865597486495972 -0.042605999857187271
vn -0.00647500017657876 0.99916702508926392 -0.040288001298904419
vn -0.017636999487876892 0.99979501962661743 -0.0098970001563429832
vn -0.037560001015663147 0.9991070032119751 -0.019363999366760254
vn -0.044162001460790634 0.99857497215271 -0.029972000047564507
vn 0.023225000128149986 0.99834001064300537 -0.052710998803377151
vn -0.0026980000548064709 0.99946802854537964 -0.032510001212358475
vn -0.033831000328063965 0.998790979385376 -0.03566800057888031
vn -0.027303999289870262 0.9985160231590271 -0.047123998403549194
vn -0.025834999978542328 0.9987030029296875 -0.043882999569177628
vn -0.075759999454021454 0.99630600214004517 -0.040433000773191452
vn -0.049447000026702881 0.99799901247024536 -0.039416998624801636
vn -0.068738996982574463 0.99707299470901489 -0.033475998789072037
vn -0.070376001298427582 0.99690800905227661 -0.034952998161315918
vn -0.045956000685691833 0.99834001064300537 -0.034731000661849976
vn -0.020759999752044678 0.99926102161407471 -0.032359998673200607
vn -0.01691799983382225 0.99938398599624634 -0.030734999105334282
vn -0.032317999750375748 0.99849098920822144 -0.044394001364707947
vn -0.025004999712109566 0.99869698286056519 -0.044488999992609024
vn -0.029455000534653664 0.99916398525238037 -0.028362000361084938
vn -0.0038540000095963478 0.99998199939727783 -0.0046500000171363354
vn 0.0078450003638863564 0.99996000528335571 0.0043500000610947609
vn 0.0041339998133480549 0.99986398220062256 -0.015961999073624611
vn 0.00494399992749095 0.99983298778533936 0.017607999965548515
vn 0.011471999809145927 0.99963700771331787 0.024368999525904655
vn -0.0067369998432695866 0.99971598386764526 -0.022846000269055367
vn -0.01525299996137619 0.999862015247345 -0.0066410000436007977
vn 0.027332000434398651 0.99877500534057617 0.041253000497817993
vn 0.039067000150680542 0.99728900194168091 0.062360998243093491
vn 0.037643000483512878 0.997422993183136 0.061083998531103134
vn 0.035041999071836472 0.99803400039672852 0.05195700004696846
vn -0.0011699999449774623 0.99987202882766724 0.015979999676346779
vn 0.026316000148653984 0.999176025390625 0.030889999121427536
vn -0.002271000063046813 0.99974501132965088 0.022450000047683716
vn -0.0086740003898739815 0.99993199110031128 0.0078480001538991928
vn -0.011247999966144562 0.99990099668502808 -0.0084669999778270721
vn 0.069530002772808075 0.99354201555252075 0.089667998254299164
f 1/1/1 2/2/2 3/3/3
f 4/4/4 5/5/5 6/6/6
f 4/4/4 7/7/7 5/5/5
f 7/7/7 2/2/2 1/1/1
f 7/7/7 4/4/4 2/2/2
f 8/8/8 6/6/6 9/9/9
f 4/4/4 6/6/6 8/8/8
f 6/6/6 10/10/10 11/11/11
f 6/6/6 5/5/5 10/10/10
f 12/12/12 13/13/13 14/14/14
f 15/15/15 12/12/12 14/14/14
f 16/16/16 14/14/14 17/17/17
f 16/16/16 15/15/15 14/14/14
f 14/14/14 9/9/9 6/6/6
f 14/14/14 13/13/13 9/9/9
f 18/18/18 19/19/19 17/17/17
f 20/20/20 17/17/17 21/21/21
f 20/20/20 18/18/18 17/17/17
f 16/16/16 17/17/17 19/19/19
f 22/22/22 21/21/21 23/23/23
f 22/22/22 24/24/24 21/21/21
f 20/20/20 21/21/21 24/24/24
f 21/21/21 17/17/17 25/25/25
f 17/17/17 14/14/14 26/26/26
f 14/14/14 6/6/6 27/27/27
f 28/28/28 23/23/23 21/21/21
f 28/28/28 21/21/21 29/29/29
f 30/30/30 31/31/31 11/11/11
f 32/32/32 33/33/33 34/34/34
f 35/35/35 34/34/34 36/36/36
f 35/35/35 37/37/37 34/34/34
f 34/34/34 38/38/38 39/39/39
f 34/34/34 37/37/37 38/38/38
f 33/33/33 36/36/36 34/34/34
f 40/40/40 32/32/32 34/34/34
f 40/40/40 41/41/41 32/32/32
f 41/41/41 11/11/11 31/31/31
f 41/41/41 40/40/40 11/11/11
f 11/11/11 40/40/40 27/27/27
f 42/42/42 40/40/40 39/39/39
f 40/40/40 42/42/42 27/27/27
f 27/27/27 42/42/42 26/26/26
f 42/42/42 39/39/39 43/43/43
f 6/6/6 11/11/11 27/27/27
f 39/39/39 40/40/40 34/34/34
f 44/44/44 43/43/43 45/45/45
f 43/43/43 46/46/46 47/47/47
f 43/43/43 44/44/44 46/46/46
f 39/39/39 45/45/45 43/43/43
f 39/39/39 48/48/48 45/45/45
f 49/49/49 42/42/42 43/43/43
f 48/48/48 39/39/39 38/38/38
f 10/10/10 30/30/30 11/11/11
f 43/43/43 47/47/47 49/49/49
f 26/26/26 49/49/49 25/25/25
f 50/50/50 51/51/51 52/52/52
f 50/50/50 47/47/47 51/51/51
f 47/47/47 53/53/53 51/51/51
f 54/54/54 49/49/49 47/47/47
f 17/17/17 26/26/26 25/25/25
f 46/46/46 53/53/53 47/47/47
f 49/49/49 54/54/54 25/25/25
f 42/42/42 49/49/49 26/26/26
f 50/50/50 54/54/54 47/47/47
f 50/50/50 55/55/55 54/54/54
f 56/56/56 54/54/54 55/55/55
f 56/56/56 57/57/57 54/54/54
f 58/58/58 54/54/54 57/57/57
f 58/58/58 25/25/25 54/54/54
f 59/59/59 52/52/52 51/51/51
f 29/29/29 25/25/25 58/58/58
f 29/29/29 21/21/21 25/25/25
f 14/14/14 27/27/27 26/26/26
