mtllib m1222222311.mtl
usemtl material0
v 29.052106976509094 0.10789699852466583 12
v 29.576707988977432 0.14669300615787506 12.471673011779785
v 29.55171599984169 0.12879499793052673 12
v 30.108295001089573 0.16076900064945221 12
v 30.574177026748657 0.20215000212192535 12.418823003768921
v 30.551994025707245 0.18810400366783142 12
v 28.551852941513062 0.15087300539016724 12
v 28 0.11603900045156479 12.003191947937012
v 28.579978942871094 0.24162299931049347 12.524006009101868
v 28 0.11549700051546097 12
v 31.165711998939514 0.35426801443099976 12
v 31.572697043418884 0.47147101163864136 12.365239024162293
v 31.552919030189514 0.37436500191688538 12
v 28 0.14477699995040894 12.228518962860107
v 28 0.18639199435710907 12.554808974266052
v 29.630134999752045 0.30610701441764832 13.468313992023468
v 30.626811981201172 0.20092199742794037 13.41601699590683
v 28.632380962371826 0.19303299486637116 13.521360993385315
v 28 0.16507899761199951 12.952633023262024
v 32 0.35762301087379456 12.343037009239197
v 31.62447202205658 0.29495298862457275 13.363034009933472
v 32 0.25962400436401367 12.945570945739746
v 32 0.29645299911499023 12.12418794631958
v 32 0.26174101233482361 12
v 28 0.22766199707984924 14.224308997392654
v 28.685367941856384 0.2626039981842041 14.518311023712158
v 28 0.25032898783683777 14.554543018341065
v 28 0.18913799524307251 13.554767996072769
v 29.68250098824501 0.25019198656082153 14.465694010257721
v 30.679960012435913 0.30369600653648376 14.412851989269257
v 31.677191019058228 0.31081399321556091 14.360168009996414
v 29.735592007637024 0.34124600887298584 15.462569952011108
v 30.73294997215271 0.37424299120903015 15.4097980260849
v 32 0.48386898636817932 15.057425975799561
v 31.730584979057312 0.4633910059928894 15.356832981109619
v 32 0.38337498903274536 14.342891991138458
v 32 0.38079801201820374 13.700219005346298
v 28 0.28172299265861511 14.851369023323059
v 28.738535046577454 0.369282990694046 15.515133023262024
v 29.764246001839638 0.39665499329566956 16
v 29.277795970439911 0.40765899419784546 16
v 30.764692008495331 0.48890000581741333 16
v 30.33406800031662 0.47027900815010071 16
v 28.764127969741821 0.36868599057197571 16
v 28 0.26800599694252014 15.801303029060364
v 28.221094012260437 0.29596498608589172 16
v 28 0.26903200149536133 15.677649021148682
v 28 0.27005499601364136 15.554448008537293
v 31.764446020126343 0.44527900218963623 16
v 31.389289975166321 0.41240799427032471 16
v 32 0.49983701109886169 15.598937034606934
v 32 0.48498401045799255 16
v 32 0.497637003660202 15.524317026138306
v 28 0.25227901339530945 16
vt 0.25543400645256042 0.026453971862792969
vt 0.385329008102417 0.13557702302932739
vt 0.37543699145317078 0.022512972354888916
vt 0.50923001766204834 0.01819300651550293
vt 0.62467002868652344 0.11514401435852051
vt 0.61591601371765137 0.014761984348297119
vt 0.135002002120018 0.032034993171691895
vt 0.0022750000935047865 0.035561025142669678
vt 0.14577600359916687 0.15945297479629517
vt 0.0022509999107569456 0.034780979156494141
vt 0.76651102304458618 0.0072479844093322754
vt 0.87208002805709839 0.090242981910705566
vt 0.85934799909591675 0.00026899576187133789
vt 0.0038040000945329666 0.090081989765167236
vt 0.0062270001508295536 0.17171299457550049
vt 0.40605100989341736 0.37738001346588135
vt 0.645002007484436 0.35405397415161133
vt 0.16555200517177582 0.398730993270874
vt 0.0090779997408390045 0.26733100414276123
vt 0.97839099168777466 0.089318990707397461
vt 0.88507497310638428 0.33351802825927734
vt 0.97845900058746338 0.2358970046043396
vt 0.98433202505111694 0.035081028938293457
vt 0.98620200157165527 0.0041750073432922363
vt 0.019776999950408936 0.57298499345779419
vt 0.18680199980735779 0.63809001445770264
vt 0.022602999582886696 0.652415007352829
vt 0.014069000259041786 0.41194099187850952
vt 0.42563000321388245 0.616771012544632
vt 0.66691899299621582 0.59400999546051025
vt 0.90581202507019043 0.572409987449646
vt 0.44687700271606445 0.85652999579906464
vt 0.68826502561569214 0.83337700366973877
vt 0.99592697620391846 0.73867499828338623
vt 0.92800098657608032 0.81383399665355682
vt 0.985086977481842 0.56575599312782288
vt 0.9800800085067749 0.41152101755142212
vt 0.025103999301791191 0.72383800148963928
vt 0.20802399516105652 0.878210999071598
vt 0.45832499861717224 0.98593499977141619
vt 0.34157401323318481 0.99032600037753582
vt 0.70055598020553589 0.97742499969899654
vt 0.597150981426239 0.98175200074911118
vt 0.21794700622558594 0.99437300022691488
vt 0.031052999198436737 0.95187800005078316
vt 0.085910998284816742 0.99803199991583824
vt 0.030220000073313713 0.92219799757003784
vt 0.029430000111460686 0.89262499660253525
vt 0.94042301177978516 0.96804200112819672
vt 0.85003399848937988 0.97061700001358986
vt 0.99514198303222656 0.86980600655078888
vt 0.9977489709854126 0.96613800153136253
vt 0.99315297603607178 0.85414500534534454
vt 0.031824000179767609 0.99973099998896942
vn 0.05497799813747406 0.98827600479125977 -0.14243400096893311
vn 0.017364000901579857 0.99525701999664307 -0.095715999603271484
vn -0.049272000789642334 0.99816298484802246 -0.0352649986743927
vn -0.058281999081373215 0.997730016708374 -0.033748999238014221
vn -0.13788600265979767 0.99037402868270874 0.012097000144422054
vn -0.15854300558567047 0.987043023109436 -0.024706000462174416
vn 0.0082599995657801628 0.98522400856018066 -0.17107099294662476
vn -0.073023997247219086 0.985023021697998 -0.15619400143623352
vn -0.025627000257372856 0.99639898538589478 -0.08082599937915802
vn -0.063073001801967621 0.98393601179122925 -0.16700799763202667
vn -0.2138579934835434 0.97403800487518311 -0.074262000620365143
vn 0.024281999096274376 0.999584972858429 -0.015514000318944454
vn 0.091392002999782562 0.96114200353622437 -0.26048800349235535
vn -0.10067100077867508 0.98692500591278076 -0.12587100267410278
vn -0.096519000828266144 0.99476200342178345 -0.033651001751422882
vn -0.00053700001444667578 0.99898099899291992 -0.04512299969792366
vn -0.0070420000702142715 0.998199999332428 -0.059565998613834381
vn -0.056453000754117966 0.99840402603149414 -0.0016410000389441848
vn -0.069642998278141022 0.99716699123382568 0.028425000607967377
vn 0.25389701128005981 0.96519100666046143 -0.062789000570774078
vn -0.08254600316286087 0.9965860247612 0.0015999999595806003
vn 0.18415699899196625 0.9794049859046936 0.082773998379707336
vn 0.23577100038528442 0.93593597412109375 -0.26160299777984619
vn 0.23577100038528442 0.93593597412109375 -0.26160299777984619
vn -0.018617000430822372 0.99765300750732422 -0.065895996987819672
vn -0.0053070001304149628 0.9962959885597229 -0.085822001099586487
vn -0.022458000108599663 0.99591898918151855 -0.087416999042034149
vn -0.00873900018632412 0.99876201152801514 -0.048976000398397446
vn -0.035250000655651093 0.99896198511123657 -0.028852999210357666
vn -0.024703999981284142 0.99682497978210449 -0.075698003172874451
vn -0.128370001912117 0.98790901899337769 -0.08692999929189682
vn -0.021279999986290932 0.99384802579879761 -0.10868500173091888
vn -0.041581001132726669 0.99370300769805908 -0.10404299944639206
vn -0.19725500047206879 0.97406202554702759 -0.1108739972114563
vn -0.11214099824428558 0.99293100833892822 -0.038887001574039459
vn -0.22227999567985535 0.97257602214813232 -0.068465001881122589
vn -0.18406899273395538 0.98188400268554688 -0.0449800007045269
vn -0.052682001143693924 0.99595701694488525 -0.072764001786708832
vn -0.053883999586105347 0.99737197160720825 -0.048431999981403351
vn -0.055456999689340591 0.99349397420883179 -0.099471002817153931
vn -0.00038300000596791506 0.99691599607467651 -0.078475996851921082
vn 0.040869001299142838 0.98041397333145142 -0.19266000390052795
vn -0.062222998589277267 0.98399800062179565 -0.16696000099182129
vn -0.10328300297260284 0.994629979133606 0.0066780000925064087
vn -0.14927199482917786 0.98842698335647583 0.027016999199986458
vn -0.14690999686717987 0.988851010799408 0.024328000843524933
vn -0.1327269971370697 0.99111902713775635 0.00822800025343895
vn -0.13251399993896484 0.99110597372055054 0.012195000424981117
vn -0.12799300253391266 0.99116998910903931 0.034650001674890518
vn -0.038598001003265381 0.999019980430603 -0.021678000688552856
vn -0.15067000687122345 0.98840397596359253 0.018872000277042389
vn -0.1661050021648407 0.98543298244476318 0.036495000123977661
vn -0.10809600353240967 0.99370801448822021 -0.029302999377250671
vn -0.19325800240039825 0.97808897495269775 0.077414996922016144
f 1/1/1 2/2/2 3/3/3
f 4/4/4 5/5/5 6/6/6
f 7/7/7 8/8/8 9/9/9
f 7/7/7 10/10/10 8/8/8
f 11/11/11 12/12/12 13/13/13
f 14/14/14 9/9/9 8/8/8
f 14/14/14 15/15/15 9/9/9
f 9/9/9 16/16/16 2/2/2
f 3/3/3 5/5/5 4/4/4
f 3/3/3 2/2/2 5/5/5
f 6/6/6 12/12/12 11/11/11
f 6/6/6 5/5/5 12/12/12
f 2/2/2 17/17/17 5/5/5
f 1/1/1 9/9/9 2/2/2
f 1/1/1 7/7/7 9/9/9
f 15/15/15 18/18/18 9/9/9
f 15/15/15 19/19/19 18/18/18
f 20/20/20 21/21/21 22/22/22
f 20/20/20 12/12/12 21/21/21
f 23/23/23 12/12/12 20/20/20
f 23/23/23 13/13/13 12/12/12
f 23/23/23 24/24/24 13/13/13
f 5/5/5 21/21/21 12/12/12
f 25/25/25 26/26/26 18/18/18
f 25/25/25 27/27/27 26/26/26
f 25/25/25 18/18/18 28/28/28
f 18/18/18 29/29/29 16/16/16
f 9/9/9 18/18/18 16/16/16
f 2/2/2 16/16/16 17/17/17
f 16/16/16 30/30/30 17/17/17
f 28/28/28 18/18/18 19/19/19
f 17/17/17 31/31/31 21/21/21
f 29/29/29 26/26/26 32/32/32
f 26/26/26 29/29/29 18/18/18
f 29/29/29 30/30/30 16/16/16
f 30/30/30 29/29/29 33/33/33
f 34/34/34 31/31/31 35/35/35
f 34/34/34 36/36/36 31/31/31
f 31/31/31 37/37/37 21/21/21
f 31/31/31 36/36/36 37/37/37
f 22/22/22 21/21/21 37/37/37
f 17/17/17 30/30/30 31/31/31
f 31/31/31 30/30/30 35/35/35
f 26/26/26 38/38/38 39/39/39
f 26/26/26 27/27/27 38/38/38
f 21/21/21 5/5/5 17/17/17
f 39/39/39 40/40/40 32/32/32
f 39/39/39 41/41/41 40/40/40
f 26/26/26 39/39/39 32/32/32
f 29/29/29 32/32/32 33/33/33
f 32/32/32 42/42/42 33/33/33
f 32/32/32 43/43/43 42/42/42
f 44/44/44 45/45/45 46/46/46
f 44/44/44 47/47/47 45/45/45
f 47/47/47 39/39/39 48/48/48
f 47/47/47 44/44/44 39/39/39
f 33/33/33 49/49/49 35/35/35
f 33/33/33 50/50/50 49/49/49
f 48/48/48 39/39/39 38/38/38
f 44/44/44 41/41/41 39/39/39
f 42/42/42 50/50/50 33/33/33
f 49/49/49 51/51/51 35/35/35
f 49/49/49 52/52/52 51/51/51
f 43/43/43 32/32/32 40/40/40
f 53/53/53 35/35/35 51/51/51
f 53/53/53 34/34/34 35/35/35
f 54/54/54 46/46/46 45/45/45
f 33/33/33 35/35/35 30/30/30
