mtllib m1222222101.mtl
usemtl material0
v 20.400086998939514 0.80936598777771 28
v 20 0.72787302732467651 28.97504198551178
v 20.449440002441406 0.63636201620101929 28.95159900188446
v 20 0.82197201251983643 28.424052953720093
v 20.356114983558655 0.81871098279953 28
v 20 0.82679200172424316 28.395828008651733
v 20 0.77299100160598755 28
v 21.305684983730316 0.68331599235534668 28
v 20 0.78909498453140259 29.495868980884552
v 20.502606987953186 0.7430379986763 29.948421001434326
v 20 0.57734400033950806 30.97545599937439
v 20.09521496295929 0.55956900119781494 32
v 20.554589986801147 0.6089940071105957 30.94607001543045
v 20 0.55824202299118042 31.822862982749939
v 20 0.55424898862838745 32
v 20 0.64152199029922485 30.506851017475128
v 20 0.70156598091125488 29.975093999877572
v 21.448226988315582 0.959883987903595 28.897830963134766
v 21.500131994485855 0.80972802639007568 29.895534999668598
v 21.399582028388977 0.71501702070236206 28
v 22.25543001294136 0.64344602823257446 28
v 23.205199956893921 0.617127001285553 28
v 22.399001985788345 0.60644799470901489 28
v 22.4441300034523 0.69699102640151978 28.846073031425476
v 22.49693500995636 0.72993701696395874 29.84314900636673
v 23.441535949707031 0.73975497484207153 28.793267965316772
v 21.552044004201889 0.66152501106262207 30.893230020999908
v 22.549196004867554 0.65253299474716187 30.840602993965149
v 23.493980050086975 0.69946002960205078 29.79059399664402
v 21.610058009624481 0.58051300048828125 32
v 21.152648985385895 0.55825901031494141 32
v 23.399081945419312 0.62687301635742188 28
v 24 0.70535498857498169 28.330736041069031
v 24 0.72651398181915283 28.763818979263306
v 24 0.69762200117111206 28.172461986541748
v 24 0.6738010048866272 28
v 24 0.70599400997161865 29.295979022979736
v 24 0.65749901533126831 30.283778995275497
v 23.54633104801178 0.64012300968170166 30.787986993789673
v 24 0.68771100044250488 29.763909995555878
v 24 0.64225101470947266 30.764023005962372
v 23.992300033569336 0.58217698335647583 32
v 24 0.58305102586746216 31.9823340177536
v 23.610013961791992 0.5813639760017395 32
v 23.207038998603821 0.58739399909973145 32
v 22.043772000819445 0.57494097948074341 32
v 24 0.582211971282959 32
vt 0.055050000548362732 0.8543190062046051
vt 0.28304100036621094 0.9315359964966774
vt 0.27392598986625671 0.82735399901866913
vt 0.15607300400733948 0.94050100073218346
vt 0.055413000285625458 0.864548996090889
vt 0.14956900477409363 0.94096000120043755
vt 0.0587569996714592 0.946238998323679
vt 0.0451820008456707 0.64634799957275391
vt 0.402446985244751 0.92995499819517136
vt 0.50201702117919922 0.8119949996471405
vt 0.74273598194122314 0.91816700249910355
vt 0.97497802972793579 0.886854000389576
vt 0.73067700862884521 0.79207199811935425
vt 0.935588002204895 0.91021200269460678
vt 0.97589999437332153 0.908550001680851
vt 0.63509899377822876 0.92196299880743027
vt 0.51332300901412964 0.926437996327877
vt 0.26554998755455017 0.588115006685257
vt 0.49556899070739746 0.58410999178886414
vt 0.044468000531196594 0.62379100918769836
vt 0.030727999284863472 0.42799901962280273
vt 0.00096099998336285353 0.2127000093460083
vt 0.025268999859690666 0.39468199014663696
vt 0.21591499447822571 0.35857397317886353
vt 0.49418199062347412 0.3560900092124939
vt 0.26499301195144653 0.13047701120376587
vt 0.725521981716156 0.58013901114463806
vt 0.72228598594665527 0.35277098417282104
vt 0.49133801460266113 0.12864500284194946
vt 0.97813397645950317 0.55932700634002686
vt 0.96523201465606689 0.64625799655914307
vt 0.082703001797199249 0.14292699098587036
vt 0.16411499679088593 0.00014799833297729492
vt 0.26278600096702576 0.0037369728088378906
vt 0.12173400074243546 0.0050749778747558594
vt 0.0820930004119873 0.0056740045547485352
vt 0.38396298885345459 0.0084940195083618164
vt 0.60831797122955322 0.017754018306732178
vt 0.71914899349212646 0.12539702653884888
vt 0.4904940128326416 0.013229012489318848
vt 0.71765100955963135 0.021956026554107666
vt 0.99897301197052 0.03434300422668457
vt 0.995015025138855 0.032438993453979492
vt 0.99569797515869141 0.1213340163230896
vt 0.99216902256011963 0.21303898096084595
vt 0.98235601186752319 0.47776502370834351
vt 0.99903899431228638 0.032590985298156738
vn 0.172325998544693 0.970687985420227 0.16753700375556946
vn 0.20054000616073608 0.97945302724838257 0.021347999572753906
vn -0.0020020001102238894 0.99982398748397827 -0.01866300031542778
vn 0.20503200590610504 0.96478700637817383 0.16476599872112274
vn 0.11779200285673142 0.98932701349258423 0.085776999592781067
vn 0.129054993391037 0.9869840145111084 0.095958001911640167
vn -0.12619900703430176 0.98296701908111572 -0.13360500335693359
vn -0.19617000222206116 0.972108006477356 -0.12854699790477753
vn 0.12355200201272965 0.99167400598526 -0.036292999982833862
vn -0.063179999589920044 0.994700014591217 0.081124000251293182
vn -0.052735999226570129 0.99562901258468628 0.077077999711036682
vn -0.034747999161481857 0.99889302253723145 0.031697999686002731
vn -0.043439000844955444 0.9946330189704895 0.093902997672557831
vn -0.05577399954199791 0.99818998575210571 0.022500999271869659
vn -0.05577399954199791 0.99818998575210571 0.022500999271869659
vn -0.055436000227928162 0.98995399475097656 0.13006700575351715
vn -0.0737679973244667 0.98678702116012573 0.1442520022392273
vn -0.040628001093864441 0.99537402391433716 -0.08706200122833252
vn 0.01587199978530407 0.98925399780273438 0.14534300565719605
vn -0.12771299481391907 0.95859700441360474 -0.25452101230621338
vn 0.20440299808979034 0.96625000238418579 -0.15678299963474274
vn -0.039925001561641693 0.99078398942947388 -0.12943699955940247
vn 0.1217230036854744 0.98622101545333862 -0.11203400045633316
vn 0.10771600157022476 0.99098300933837891 -0.0796860009431839
vn 0.062944002449512482 0.99623399972915649 0.059625998139381409
vn -0.014588999561965466 0.99878400564193726 -0.047099001705646515
vn -0.0075249997898936272 0.99477797746658325 0.10178700089454651
vn 0.012823999859392643 0.99772101640701294 0.066248998045921326
vn 0.02726300060749054 0.998341977596283 0.050691999495029449
vn -0.016839999705553055 0.99712598323822021 0.0738689973950386
vn -0.031762000173330307 0.99731200933456421 0.0660339966416359
vn -0.062891997396945953 0.98853099346160889 -0.13730199635028839
vn 0.021104000508785248 0.99858599901199341 -0.048787999898195267
vn 0.023353999480605125 0.99970501661300659 -0.0066060000099241734
vn -0.054319001734256744 0.99174302816390991 -0.11617299914360046
vn -0.077129997313022614 0.98764497041702271 -0.13641500473022461
vn 0.025376999750733376 0.9989209771156311 0.038894001394510269
vn 0.019416000694036484 0.99846500158309937 0.051879998296499252
vn 0.0099849998950958252 0.99870401620864868 0.049903001636266708
vn 0.025727000087499619 0.99850600957870483 0.048204999417066574
vn -0.0025830001104623079 0.99920201301574707 0.039852999150753021
vn -0.0030469999182969332 0.9988359808921814 0.048133999109268188
vn -0.0024540000595152378 0.99882501363754272 0.048392999917268753
vn 0.0061240000650286674 0.99882400035858154 0.048101000487804413
vn 0.0063339998014271259 0.99860000610351562 0.052510999143123627
vn 0.0041330000385642052 0.99763798713684082 0.068567998707294464
vn -0.0046239998191595078 0.99886298179626465 0.047448001801967621
f 1/1/1 2/2/2 3/3/3
f 1/1/1 4/4/4 2/2/2
f 4/4/4 5/5/5 6/6/6
f 4/4/4 1/1/1 5/5/5
f 6/6/6 5/5/5 7/7/7
f 1/1/1 3/3/3 8/8/8
f 3/3/3 9/9/9 10/10/10
f 3/3/3 2/2/2 9/9/9
f 11/11/11 12/12/12 13/13/13
f 11/11/11 14/14/14 12/12/12
f 14/14/14 15/15/15 12/12/12
f 16/16/16 10/10/10 17/17/17
f 16/16/16 13/13/13 10/10/10
f 16/16/16 11/11/11 13/13/13
f 9/9/9 17/17/17 10/10/10
f 18/18/18 3/3/3 10/10/10
f 10/10/10 19/19/19 18/18/18
f 20/20/20 18/18/18 21/21/21
f 22/22/22 23/23/23 24/24/24
f 24/24/24 25/25/25 26/26/26
f 24/24/24 21/21/21 18/18/18
f 24/24/24 23/23/23 21/21/21
f 24/24/24 18/18/18 25/25/25
f 19/19/19 13/13/13 27/27/27
f 10/10/10 13/13/13 19/19/19
f 25/25/25 27/27/27 28/28/28
f 27/27/27 25/25/25 19/19/19
f 28/28/28 29/29/29 25/25/25
f 13/13/13 30/30/30 27/27/27
f 13/13/13 31/31/31 30/30/30
f 18/18/18 19/19/19 25/25/25
f 31/31/31 13/13/13 12/12/12
f 22/22/22 26/26/26 32/32/32
f 22/22/22 24/24/24 26/26/26
f 20/20/20 3/3/3 18/18/18
f 20/20/20 8/8/8 3/3/3
f 33/33/33 26/26/26 34/34/34
f 33/33/33 35/35/35 26/26/26
f 36/36/36 26/26/26 35/35/35
f 36/36/36 32/32/32 26/26/26
f 34/34/34 26/26/26 37/37/37
f 38/38/38 29/29/29 39/39/39
f 38/38/38 40/40/40 29/29/29
f 29/29/29 37/37/37 26/26/26
f 29/29/29 40/40/40 37/37/37
f 38/38/38 39/39/39 41/41/41
f 39/39/39 29/29/29 28/28/28
f 41/41/41 42/42/42 43/43/43
f 41/41/41 39/39/39 42/42/42
f 39/39/39 44/44/44 42/42/42
f 28/28/28 44/44/44 39/39/39
f 28/28/28 45/45/45 44/44/44
f 29/29/29 26/26/26 25/25/25
f 27/27/27 46/46/46 28/28/28
f 27/27/27 30/30/30 46/46/46
f 47/47/47 43/43/43 42/42/42
f 45/45/45 28/28/28 46/46/46
