mtllib m1222222100.mtl
usemtl material0
v 16 0.76157701015472412 29.674499988555908
v 16.461660027503967 0.84029197692871094 29.161535024642944
v 16 0.766975998878479 29.18614798784256
v 16 0.58709597587585449 32
v 16.198269009590149 0.57720702886581421 32
v 16 0.60199600458145142 31.750900030136108
v 16.565809011459351 0.60931402444839478 31.156705975532532
v 16 0.63575398921966553 31.186501026153564
v 16 0.65392100811004639 30.729978978633881
v 16.513373970985413 0.651561975479126 30.159372001886368
v 16 0.66574501991271973 30.186435997486115
v 16 0.61858898401260376 28.61850905418396
v 16.407691955566406 0.57053297758102417 28.165271997451782
v 16 0.68095499277114868 28.186450958251953
v 17.39919900894165 0.620809018611908 28
v 17.280189990997314 0.624550998210907 28
v 17.405191004276276 0.63234198093414307 28.112401962280273
v 19.399533987045288 0.696349024772644 28
v 19.392263054847717 0.695792019367218 28
v 19.399899005889893 0.69687902927398682 28.006862998008728
v 18.399040013551712 0.59446901082992554 28
v 18.335642009973526 0.59320002794265747 28
v 18.402213990688324 0.59747302532196045 28.059862017631531
v 17.458298027515411 0.7268109917640686 29.109265983104706
v 17.510518997907639 0.64110702276229858 30.106748998165131
v 18.455992013216019 0.82817000150680542 29.056258976459503
v 16.398964047431946 0.569927990436554 28
v 17.563394993543625 0.68870097398757935 31.10377299785614
v 18.507741987705231 0.64676398038864136 30.054069999605417
v 17.610307991504669 0.610381007194519 32
v 18.56012898683548 0.59475100040435791 31.051437020301819
v 18.146705999970436 0.55750501155853271 32
v 17.04433798789978 0.56808298826217651 32
v 19.453240990638733 0.83919799327850342 29.003562986850739
v 20 0.82197201251983643 28.424052953720093
v 20 0.72787302732467651 28.97504198551178
v 20 0.82679200172424316 28.395828008651733
v 19.528903961181641 0.71250802278518677 28
v 20 0.77299100160598755 28
v 20 0.78909498453140259 29.495868980884552
v 19.505007028579712 0.660722017288208 30.001364000025205
v 19.557116031646729 0.55206900835037231 30.998924016952515
v 20 0.57734400033950806 30.97545599937439
v 20 0.55824202299118042 31.822862982749939
v 19.609863042831421 0.53245002031326294 32
v 20 0.55424898862838745 32
v 20 0.70156598091125488 29.975093999877572
v 20 0.64152199029922485 30.506851017475128
v 19.098435997962952 0.55481100082397461 32
v 16 0.67761498689651489 28
v 16 0.67906802892684937 28.081122994422913
vt 0.56097602844238281 0.027225017547607422
vt 0.68790000677108765 0.13526701927185059
vt 0.67811000347137451 0.023365974426269531
vt 0.00042799999937415123 0.037962019443511963
vt 0.0015679999487474561 0.085187017917633057
vt 0.060302998870611191 0.03697502613067627
vt 0.2052990049123764 0.17053502798080444
vt 0.19596099853515625 0.034421026706695557
vt 0.30557799339294434 0.032249987125396729
vt 0.44454300403594971 0.15314501523971558
vt 0.436024010181427 0.030026018619537354
vt 0.81849700212478638 0.012674987316131592
vt 0.93386101722717285 0.10336798429489136
vt 0.92275702953338623 0.002490997314453125
vt 0.98761802911758423 0.33895999193191528
vt 0.98579698801040649 0.31044501066207886
vt 0.960640013217926 0.34203499555587769
vt 0.99223697185516357 0.82273000478744507
vt 0.99219399690628052 0.82097999751567841
vt 0.99058902263641357 0.8228670060634613
vt 0.98661601543426514 0.581620991230011
vt 0.986723005771637 0.56640401482582092
vt 0.97222799062728882 0.58229601383209229
vt 0.701882004737854 0.37589699029922485
vt 0.46185699105262756 0.39214998483657837
vt 0.72042101621627808 0.61616799235343933
vt 0.97332900762557983 0.09893798828125
vt 0.22268599271774292 0.4103890061378479
vt 0.47996500134468079 0.63110598921775818
vt 0.0069590001367032528 0.42438101768493652
vt 0.24073900282382965 0.6502859890460968
vt 0.0088369995355606079 0.55371099710464478
vt 0.0043299999088048935 0.28821200132369995
vt 0.7386549711227417 0.85375800728797913
vt 0.8822600245475769 0.98004600033164024
vt 0.74832999706268311 0.98748099990189075
vt 0.89229601621627808 0.9757700003683567
vt 0.98206400871276855 0.85536900162696838
vt 0.9879310131072998 0.96919500082731247
vt 0.62248700857162476 0.98725499957799912
vt 0.49565398693084717 0.87026399374008179
vt 0.25716900825500488 0.88951999694108963
vt 0.26644799113273621 0.99571700021624565
vt 0.061337999999523163 0.99925300001632422
vt 0.017140999436378479 0.9062110036611557
vt 0.018826000392436981 0.99996299999838811
vt 0.50827199220657349 0.988982000388205
vt 0.3799079954624176 0.99264599988237023
vt 0.015177000313997269 0.783381998538971
vt 0.96743899583816528 3.7014484405517578E-05
vt 0.94799798727035522 0.0011039972305297852
vn -0.0084400000050663948 0.98950600624084473 0.14424499869346619
vn -0.034926999360322952 0.99814397096633911 -0.049883000552654266
vn -0.16186800599098206 0.97978001832962036 -0.11760400235652924
vn 0.049727998673915863 0.99698102474212646 0.059633001685142517
vn 0.035337001085281372 0.99794799089431763 0.053396999835968018
vn 0.049727998673915863 0.99698102474212646 0.059631999582052231
vn 0.00077199999941512942 0.99908900260925293 0.042665001004934311
vn 0.04924599826335907 0.997534990310669 0.049993999302387238
vn 0.044068999588489532 0.99839699268341064 0.035521999001502991
vn 0.027148999273777008 0.99350202083587646 0.11053299903869629
vn 0.032774001359939575 0.99438697099685669 0.1005999967455864
vn -0.06288599967956543 0.984948992729187 -0.16099700331687927
vn 0.045414999127388 0.99541401863098145 -0.084195002913475037
vn 0.26392599940299988 0.96254301071166992 0.062086001038551331
vn 0.030313000082969666 0.99415498971939087 -0.10362199693918228
vn -0.040144998580217361 0.99889099597930908 -0.024597000330686569
vn 0.01485500019043684 0.99399197101593018 -0.10843600332736969
vn -0.099027998745441437 0.99252700805664062 -0.071292996406555176
vn -0.095550000667572021 0.99411499500274658 -0.051054000854492188
vn -0.1007390022277832 0.98871201276779175 -0.11090400069952011
vn -0.059291999787092209 0.99713802337646484 -0.046897999942302704
vn 0.017812000587582588 0.99570202827453613 -0.090891003608703613
vn -0.061395999044179916 0.99033302068710327 -0.12438099831342697
vn 0.021935999393463135 0.999504029750824 -0.02258400060236454
vn -0.0050809998065233231 0.99846601486206055 0.055142000317573547
vn -0.05640299990773201 0.99817401170730591 -0.021614000201225281
vn 0.10602899640798569 0.99431997537612915 -0.0092390002682805061
vn -0.0034880000166594982 0.999472975730896 0.0322830006480217
vn 0.0081759998574852943 0.99466001987457275 0.1028830036520958
vn 0.014715000055730343 0.99616199731826782 0.086282998323440552
vn 0.054092001169919968 0.99701899290084839 0.055027998983860016
vn 0.062724001705646515 0.99581700563430786 0.066439002752304077
vn -0.045683000236749649 0.99616402387619019 0.074628002941608429
vn 0.020754000172019005 0.99955397844314575 0.021454999223351479
vn 0.20502699911594391 0.96478897333145142 0.16475999355316162
vn 0.20090599358081818 0.97916597127914429 0.02950499951839447
vn -0.048080999404191971 0.99681597948074341 -0.063606001436710358
vn -0.12616099417209625 0.98311698436737061 -0.132533997297287
vn -0.12619900703430176 0.98296701908111572 -0.13360500335693359
vn 7.8999997640494257E-05 0.99487000703811646 0.10116200149059296
vn -0.032972998917102814 0.99000400304794312 0.13712899386882782
vn -0.0066300001926720142 0.99770599603652954 0.0673689991235733
vn -0.052499998360872269 0.99531501531600952 0.081193998456001282
vn -0.05577399954199791 0.99818998575210571 0.022500999271869659
vn -0.0077209998853504658 0.99976998567581177 0.019999999552965164
vn -0.05577399954199791 0.99818998575210571 0.022500999271869659
vn -0.07358899712562561 0.98639398813247681 0.14700800180435181
vn -0.069696001708507538 0.99064099788665771 0.11735799908638
vn 0.02997099980711937 0.999235987663269 0.025064999237656593
vn 0.26054999232292175 0.965304970741272 -0.017293000593781471
vn 0.26055100560188293 0.965304970741272 -0.017293000593781471
f 1/1/1 2/2/2 3/3/3
f 4/4/4 5/5/5 6/6/6
f 6/6/6 7/7/7 8/8/8
f 6/6/6 5/5/5 7/7/7
f 9/9/9 10/10/10 11/11/11
f 12/12/12 13/13/13 14/14/14
f 15/15/15 16/16/16 17/17/17
f 18/18/18 19/19/19 20/20/20
f 21/21/21 22/22/22 23/23/23
f 12/12/12 2/2/2 13/13/13
f 12/12/12 3/3/3 2/2/2
f 13/13/13 2/2/2 17/17/17
f 23/23/23 17/17/17 24/24/24
f 15/15/15 23/23/23 22/22/22
f 15/15/15 17/17/17 23/23/23
f 24/24/24 25/25/25 26/26/26
f 24/24/24 17/17/17 2/2/2
f 16/16/16 13/13/13 17/17/17
f 16/16/16 27/27/27 13/13/13
f 24/24/24 2/2/2 25/25/25
f 9/9/9 7/7/7 10/10/10
f 9/9/9 8/8/8 7/7/7
f 10/10/10 7/7/7 25/25/25
f 28/28/28 25/25/25 7/7/7
f 28/28/28 29/29/29 25/25/25
f 30/30/30 31/31/31 28/28/28
f 30/30/30 32/32/32 31/31/31
f 33/33/33 28/28/28 7/7/7
f 33/33/33 30/30/30 28/28/28
f 2/2/2 10/10/10 25/25/25
f 26/26/26 23/23/23 24/24/24
f 1/1/1 10/10/10 2/2/2
f 1/1/1 11/11/11 10/10/10
f 20/20/20 26/26/26 34/34/34
f 26/26/26 20/20/20 23/23/23
f 35/35/35 34/34/34 36/36/36
f 35/35/35 37/37/37 34/34/34
f 34/34/34 38/38/38 20/20/20
f 34/34/34 39/39/39 38/38/38
f 34/34/34 37/37/37 39/39/39
f 36/36/36 34/34/34 40/40/40
f 18/18/18 20/20/20 38/38/38
f 34/34/34 26/26/26 41/41/41
f 41/41/41 29/29/29 31/31/31
f 29/29/29 41/41/41 26/26/26
f 41/41/41 31/31/31 42/42/42
f 31/31/31 29/29/29 28/28/28
f 43/43/43 42/42/42 44/44/44
f 44/44/44 45/45/45 46/46/46
f 44/44/44 42/42/42 45/45/45
f 42/42/42 47/47/47 41/41/41
f 42/42/42 48/48/48 47/47/47
f 48/48/48 42/42/42 43/43/43
f 49/49/49 42/42/42 31/31/31
f 49/49/49 45/45/45 42/42/42
f 40/40/40 41/41/41 47/47/47
f 40/40/40 34/34/34 41/41/41
f 49/49/49 31/31/31 32/32/32
f 29/29/29 26/26/26 25/25/25
f 19/19/19 23/23/23 20/20/20
f 19/19/19 21/21/21 23/23/23
f 50/50/50 13/13/13 27/27/27
f 50/50/50 51/51/51 13/13/13
f 51/51/51 14/14/14 13/13/13
f 5/5/5 33/33/33 7/7/7
