mtllib m1222121.mtl
usemtl material0
v 160 -2.9771199226379395 167.58905029296875
v 160.74400329589844 -3.0484170913696289 167.54998779296875
v 160 -2.4991250038146973 160.56893920898438
v 160.34828186035156 -2.4950060844421387 160
v 160 -2.4603850841522217 160
v 160 -2.95119309425354 168.37713623046875
v 167.53648376464844 -3.1959490776062012 160
v 161.16572570800781 -2.9302160739898682 175.52708399295807
v 168.71905517578125 -3.55328106880188 167.13043212890625
v 160 -2.8032209873199463 175.58825701475143
v 160 -2.6325020790100098 182.07455396652222
v 161.58767700195313 -2.7656490802764893 183.50402784347534
v 160 -2.6782701015472412 183.58760118484497
v 160 -2.7660648822784424 185.26869201660156
v 160 -2.9809939861297607 191.58828735351563
v 161.54180908203125 -3.0475199222564697 192
v 162.00740146636963 -3.0527520179748535 191.48249816894531
v 160 -2.9900619983673096 191.98004245758057
v 160 -2.9905240535736084 192
v 169.56281995773315 -3.2529349327087402 183.08441209793091
v 162.03465270996094 -3.0641870498657227 192
v 169.98315382003784 -3.4145519733428955 191.06245422363281
v 169.13969421386719 -3.3938419818878174 192
v 169.14155578613281 -3.2798099517822266 175.1070100069046
v 168.34420776367188 -3.2487499713897705 160
v 175.13580298423767 -2.7916960716247559 160
v 176.34625199437141 -2.8105289936065674 160
v 176.69625902175903 -3.6265308856964111 166.70941162109375
v 182.73374891281128 -3.105226993560791 160
v 177.11802697181702 -3.4980769157409668 174.68647801876068
v 190.33116054534912 -3.6943299770355225 160
v 184.34454345703125 -3.1045138835906982 160
v 184.67399597167969 -3.5904269218444824 166.28800964355469
v 192 -3.6717870235443115 160.27998447418213
v 192 -3.5317320823669434 165.90097045898438
v 192 -3.6787629127502441 160
v 192 -3.6462299823760986 172.87959289550781
v 185.09454345703125 -3.7070848941802979 174.26591503620148
v 177.53900098800659 -3.5317480564117432 182.66407823562622
v 185.51515197753906 -3.8135089874267578 182.24377393722534
v 177.95832800865173 -3.8959980010986328 190.642822265625
v 170.03268384933472 -3.4086439609527588 192
v 176.73742699623108 -3.8100569248199463 192
v 184.33528137207031 -4.1631112098693848 192
v 185.93374633789063 -4.3281469345092773 190.22300720214844
v 178.03027296066284 -3.8368480205535889 192
v 192 -3.6769759654998779 175.03633099794388
v 192 -3.6614809036254883 173.90110802650452
v 192 -4.0973992347717285 181.90220594406128
v 192 -4.1953182220458984 183.48080396652222
v 191.93278503417969 -4.7072272300720215 192
v 186.02784729003906 -4.268977165222168 192
v 192 -4.7902421951293945 189.90411376953125
v 192 -4.7149977684021 191.92526245117188
v 192 -4.7141871452331543 192
vt 0.99374902248382568 0.76407699286937714
vt 0.97061902284622192 0.76513299345970154
vt 0.99374902248382568 0.98175599984824657
vt 0.98292100429534912 0.99932499998249114
vt 0.99374902248382568 0.9993980000144802
vt 0.99398601055145264 0.73968499898910522
vt 0.75949501991271973 0.9978519999422133
vt 0.9595869779586792 0.51822599768638611
vt 0.723347008228302 0.77691400051116943
vt 0.99587500095367432 0.51655998826026917
vt 0.99769902229309082 0.315837025642395
vt 0.94870197772979736 0.27129101753234863
vt 0.99790799617767334 0.26900798082351685
vt 0.998075008392334 0.21693098545074463
vt 0.99887198209762573 0.02131497859954834
vt 0.951200008392334 0.0083199739456176758
vt 0.93673902750015259 0.024255990982055664
vt 0.99892699718475342 0.00919198989868164
vt 0.99892902374267578 0.00857400894165039
vt 0.701557993888855 0.28271901607513428
vt 0.93597102165222168 0.0082380175590515137
vt 0.68967598676681519 0.035857975482940674
vt 0.71593499183654785 0.0069959759712219238
vt 0.71252799034118652 0.52961200475692749
vt 0.73445397615432739 0.99772899993695319
vt 0.5238720178604126 0.99789100000634789
vt 0.48642098903656006 0.99766199989244342
vt 0.47648099064826965 0.78852400183677673
vt 0.28861498832702637 0.99573299987241626
vt 0.46557500958442688 0.540585994720459
vt 0.052698001265525818 0.99313900014385581
vt 0.23878400027751923 0.99547300022095442
vt 0.22961400449275971 0.80031499266624451
vt 0.0011549999471753836 0.98395700007677078
vt 0.0018629999831318855 0.80851000547409058
vt 0.0010710000060498714 0.99262099992483854
vt 0.0046339998953044415 0.59260600805282593
vt 0.21862499415874481 0.55151700973510742
vt 0.45455500483512878 0.29368901252746582
vt 0.20754900574684143 0.30462098121643066
vt 0.44321998953819275 0.046518981456756592
vt 0.68842601776123047 0.0068399906158447266
vt 0.48064300417900085 0.0049179792404174805
vt 0.24617899954319 0.0026419758796691895
vt 0.19601799547672272 0.057206988334655762
vt 0.44063898921012878 0.0049229860305786133
vt 0.005185999907553196 0.52605101466178894
vt 0.0049040000885725021 0.5610019862651825
vt 0.0066470000892877579 0.31325298547744751
vt 0.00684799998998642 0.26446497440338135
vt 0.010544000193476677 0.00061899423599243164
vt 0.19371700286865234 0.0021740198135375977
vt 0.0077060000039637089 0.064903020858764648
vt 0.0084319999441504478 0.0029129981994628906
vt 0.0084539996460080147 0.00060099363327026367
vn 0.096205003559589386 0.995235025882721 0.015845000743865967
vn 0.085667997598648071 0.99614101648330688 0.019106000661849976
vn 0.0986889973282814 0.99282002449035645 0.067601002752780914
vn 0.097795002162456512 0.992904007434845 0.067653998732566833
vn 0.098690003156661987 0.99281901121139526 0.0676020011305809
vn 0.10405199974775314 0.99429899454116821 -0.023277999833226204
vn 0.073657996952533722 0.99618500471115112 0.046803001314401627
vn 0.0772169977426529 0.99672102928161621 -0.024178000167012215
vn 0.02710999920964241 0.99948298931121826 0.017308000475168228
vn 0.10705800354480743 0.99397802352905273 -0.023378999903798103
vn 0.093506000936031342 0.99555701017379761 -0.011125000193715096
vn 0.060942001640796661 0.99801701307296753 0.015720000490546227
vn 0.057082001119852066 0.99750697612762451 0.041478998959064484
vn 0.042194001376628876 0.99837899208068848 0.038198001682758331
vn 0.037202998995780945 0.9989050030708313 0.028369000181555748
vn 0.036093998700380325 0.999098002910614 0.02237199991941452
vn 0.043418001383543015 0.99874097108840942 0.025127999484539032
vn 0.036931999027729034 0.99905002117156982 0.023121999576687813
vn 0.036931999027729034 0.99905002117156982 0.023117000237107277
vn 0.048849999904632568 0.99873501062393188 0.01193500030785799
vn 0.040279000997543335 0.99898898601531982 0.019952999427914619
vn 0.049662001430988312 0.99873501062393188 0.0078940000385046
vn 0.03840399906039238 0.9991840124130249 0.012477999553084374
vn 0.036513999104499817 0.99907100200653076 -0.022893000394105911
vn 0.0012550000101327896 0.99909102916717529 0.042603999376297
vn -0.0065629999153316021 0.99493002891540527 0.10035999864339829
vn 0.030071999877691269 0.99242299795150757 0.11913000047206879
vn 0.014313000254333019 0.99864602088928223 0.050014998763799667
vn 0.011958999559283257 0.99603497982025146 0.0881510004401207
vn 0.024898000061511993 0.99963498115539551 -0.010474000126123428
vn 0.019365999847650528 0.99981200695037842 0.000901999999769032
vn 0.046985000371932983 0.99611198902130127 0.0745140016078949
vn 0.0084579996764659882 0.999426007270813 0.032790001481771469
vn -0.0093250004574656487 0.999646008014679 -0.024907000362873077
vn -0.00827299989759922 0.9999539852142334 -0.0049459999427199364
vn -0.0093250004574656487 0.999646008014679 -0.024907000362873077
vn -0.0061690001748502254 0.99986398220062256 0.015320999547839165
vn 0.0075509999878704548 0.99993401765823364 0.0086019998416304588
vn 0.035241998732089996 0.99908602237701416 0.024186000227928162
vn 0.037691999226808548 0.99845701456069946 0.040787998586893082
vn 0.04715299978852272 0.99888497591018677 0.0023799999617040157
vn 0.038897000253200531 0.99920797348022461 -0.0083520002663135529
vn 0.049355998635292053 0.99860399961471558 -0.018834000453352928
vn 0.054489001631736755 0.997560977935791 -0.043632999062538147
vn 0.06308399885892868 0.99789601564407349 0.014979000203311443
vn 0.03666900098323822 0.99829298257827759 -0.04545300081372261
vn 0.0064329998567700386 0.99967402219772339 0.024724999442696571
vn -0.0058470000512897968 0.99988102912902832 0.014309000223875046
vn 0.04688199982047081 0.99700897932052612 0.061434000730514526
vn 0.05475899949669838 0.99611997604370117 0.068893998861312866
vn 0.081693001091480255 0.99620300531387329 -0.030110999941825867
vn 0.068360999226570129 0.99698102474212646 -0.036816999316215515
vn 0.0774649977684021 0.99655699729919434 0.029540000483393669
vn 0.0807579979300499 0.99625301361083984 -0.030959000810980797
vn 0.10299000144004822 0.99462401866912842 -0.010793999768793583
f 1/1/1 2/2/2 3/3/3
f 3/3/3 4/4/4 5/5/5
f 3/3/3 2/2/2 4/4/4
f 6/6/6 2/2/2 1/1/1
f 4/4/4 2/2/2 7/7/7
f 8/8/8 9/9/9 2/2/2
f 10/10/10 2/2/2 6/6/6
f 10/10/10 8/8/8 2/2/2
f 8/8/8 11/11/11 12/12/12
f 8/8/8 10/10/10 11/11/11
f 13/13/13 14/14/14 12/12/12
f 15/15/15 16/16/16 17/17/17
f 15/15/15 18/18/18 16/16/16
f 18/18/18 19/19/19 16/16/16
f 15/15/15 12/12/12 14/14/14
f 15/15/15 17/17/17 12/12/12
f 17/17/17 20/20/20 12/12/12
f 21/21/21 22/22/22 17/17/17
f 21/21/21 23/23/23 22/22/22
f 21/21/21 17/17/17 16/16/16
f 11/11/11 13/13/13 12/12/12
f 8/8/8 12/12/12 24/24/24
f 9/9/9 7/7/7 2/2/2
f 9/9/9 25/25/25 7/7/7
f 25/25/25 9/9/9 26/26/26
f 27/27/27 28/28/28 29/29/29
f 28/28/28 26/26/26 9/9/9
f 28/28/28 27/27/27 26/26/26
f 28/28/28 9/9/9 30/30/30
f 31/31/31 32/32/32 33/33/33
f 34/34/34 33/33/33 35/35/35
f 34/34/34 31/31/31 33/33/33
f 34/34/34 36/36/36 31/31/31
f 33/33/33 29/29/29 28/28/28
f 33/33/33 32/32/32 29/29/29
f 35/35/35 33/33/33 37/37/37
f 33/33/33 28/28/28 38/38/38
f 20/20/20 24/24/24 12/12/12
f 24/24/24 20/20/20 30/30/30
f 38/38/38 30/30/30 39/39/39
f 28/28/28 30/30/30 38/38/38
f 38/38/38 39/39/39 40/40/40
f 39/39/39 30/30/30 20/20/20
f 30/30/30 9/9/9 24/24/24
f 39/39/39 20/20/20 41/41/41
f 42/42/42 22/22/22 23/23/23
f 22/22/22 43/43/43 41/41/41
f 22/22/22 42/42/42 43/43/43
f 41/41/41 44/44/44 45/45/45
f 41/41/41 46/46/46 44/44/44
f 22/22/22 41/41/41 20/20/20
f 41/41/41 45/45/45 40/40/40
f 46/46/46 41/41/41 43/43/43
f 40/40/40 39/39/39 41/41/41
f 47/47/47 38/38/38 40/40/40
f 47/47/47 48/48/48 38/38/38
f 22/22/22 20/20/20 17/17/17
f 45/45/45 49/49/49 40/40/40
f 45/45/45 50/50/50 49/49/49
f 37/37/37 38/38/38 48/48/48
f 37/37/37 33/33/33 38/38/38
f 51/51/51 45/45/45 52/52/52
f 51/51/51 53/53/53 45/45/45
f 51/51/51 54/54/54 53/53/53
f 50/50/50 45/45/45 53/53/53
f 55/55/55 54/54/54 51/51/51
f 52/52/52 45/45/45 44/44/44
f 47/47/47 40/40/40 49/49/49
f 24/24/24 9/9/9 8/8/8
