mtllib m12222310.mtl
usemtl material0
v 102.45462799072266 0.943477988243103 48
v 99.689949035644531 1.0274039506912231 48
v 102.59153699874878 0.74454301595687866 50.612754821777344
v 106.45487189292908 1.0097310543060303 48
v 103.91231500357389 0.96558600664138794 48
v 106.58070397377014 0.82126998901367188 50.401858806610107
v 98.455451965332031 1.0852969884872437 48
v 96 1.16054105758667 48.478443145751953
v 98.603621959686279 0.91975998878479 50.822792053222656
v 96 1.1875519752502441 48
v 96 1.025223970413208 50.959949016571045
v 96 0.94376802444458008 52.279457092285156
v 98.812926769256592 0.66431200504302979 54.812420010566711
v 110.455078125 1.0681979656219482 48
v 110.56993913650513 0.91264098882675171 50.190909862518311
v 108.74206495285034 1.0354850292205811 48
v 106.79019904136658 0.60439598560333252 54.3913539648056
v 102.80151402950287 0.62434697151184082 54.601920962333679
v 112 0.99657297134399414 48.601603984832764
v 112 0.9144129753112793 50.115386962890625
v 112 1.0386849641799927 48
v 112 0.77139401435852051 51.478633880615234
v 110.77859497070313 0.52633601427078247 54.180984020233154
v 103.01149702072144 0.505611002445221 58.591084003448486
v 107.00004601478577 0.45734000205993652 58.380610942840576
v 96 0.77653300762176514 54.960608959198
v 96 0.72294402122497559 56.08050200343132
v 99.022513866424561 0.46452298760414124 58.801861047744751
v 96 0.48185399174690247 58.961414098739624
v 96 0.46963998675346375 59.881802082061768
v 99.2328109741211 0.4102340042591095 62.790798187255859
v 110.98848676681519 0.38953399658203125 58.170207977294922
v 107.21026611328125 0.38693800568580627 62.369609832763672
v 103.22157299518585 0.40493598580360413 62.580181121826172
v 96 0.36743399500846863 62.961650848388672
v 103.29645502567291 0.39117199182510376 64
v 100.57670593261719 0.3961620032787323 64
v 99.2966079711914 0.40250799059867859 64
v 96 0.36234301328659058 63.681952953338623
v 96.353530883789062 0.36464399099349976 64
v 96 0.36583501100540161 63.187908172607422
v 96 0.36046299338340759 64
v 107.29627990722656 0.37672099471092224 64
v 105.74337804317474 0.37891298532485962 64
v 111.19920301437378 0.41922798752784729 62.158863067626953
v 109.54267883300781 0.3941119909286499 64
v 112 0.41858899593353271 57.046000957489014
v 112 0.51768201589584351 54.11651599407196
v 112 0.406015008687973 58.116740942001343
v 112 0.42671000957489014 61.268814086914062
v 112 0.4334309995174408 62.5186882019043
v 112 0.44817298650741577 62.879100799560547
v 112 0.41698500514030457 62.116580963134766
v 111.29650115966797 0.43924298882484436 64
v 112 0.45871898531913757 64
vt 0 0.40341401100158691
vt 0 0.23062199354171753
vt 0.16329699754714966 0.41197097301483154
vt 0 0.65343001484870911
vt 0 0.49452000856399536
vt 0.15011599659919739 0.661294013261795
vt 0 0.15346598625183106
vt 0.029903000220656395 0
vt 0.17642499506473541 0.16272598505020142
vt 0 0
vt 0.18499700725078583 0
vt 0.26746600866317749 0
vt 0.42577600479125977 0.17580801248550415
vt 0 0.90344200283288956
vt 0.13693200051784515 0.91062100231647491
vt 0 0.79637899994850159
vt 0.39945998787879944 0.67438700795173645
vt 0.41262000799179077 0.42509502172470093
vt 0.037599999457597733 1
vt 0.13221199810504913 1
vt 0 1
vt 0.21741500496864319 1
vt 0.38631200790405273 0.92366199940443039
vt 0.66194301843643188 0.43821901082992554
vt 0.6487879753112793 0.68750301003456116
vt 0.4350380003452301 0
vt 0.50503098964691162 0
vt 0.67511600255966187 0.18890702724456787
vt 0.68508797883987427 0
vt 0.74261301755905151 0
vt 0.92442500591278076 0.20205098390579224
vt 0.63563799858093262 0.93677999824285507
vt 0.89810097217559814 0.70064198970794678
vt 0.91126102209091187 0.45134800672531128
vt 0.93510299921035767 0
vt 1 0.45602798461914062
vt 1 0.28604400157928467
vt 1 0.20603799819946289
vt 0.98012202978134155 0
vt 1 0.022095978260040283
vt 0.94924402236938477 0
vt 1 0
vt 1 0.70601698756217957
vt 1 0.60896098613739014
vt 0.88492900133132935 0.949949998408556
vt 1 0.84641699492931366
vt 0.56537497043609619 1
vt 0.38228198885917664 1
vt 0.63229602575302124 1
vt 0.82930099964141846 1
vt 0.90741801261901855 1
vt 0.92994397878646851 1
vt 0.882286012172699 1
vt 1 0.95603099837899208
vt 1 1
vn 0.00036100001307204366 0.99711501598358154 0.075901001691818237
vn 0.035356000065803528 0.99701297283172607 0.0686739981174469
vn 0.016342999413609505 0.99864697456359863 0.049361001700162888
vn -0.014426000416278839 0.99677300453186035 0.078966997563838959
vn -0.016509000211954117 0.99679797887802124 0.078234001994133
vn -0.00938200019299984 0.99737799167633057 0.071759998798370361
vn 0.0448869988322258 0.9974139928817749 0.056134998798370361
vn 0.042307000607252121 0.99756401777267456 0.055470999330282211
vn 0.0374549999833107 0.99793100357055664 0.052258998155593872
vn 0.041542001068592072 0.99754798412323 0.056317001581192017
vn 0.04339899867773056 0.9974370002746582 0.056883998215198517
vn 0.043432999402284622 0.99714398384094238 0.061778999865055084
vn 0.020902000367641449 0.99848699569702148 0.050852999091148376
vn -0.011117000132799149 0.99738597869873047 0.071397997438907623
vn -0.0075340000912547112 0.99624902009963989 0.086204998195171356
vn -0.014572000131011009 0.99701601266860962 0.075808003544807434
vn 0.0081960000097751617 0.99908202886581421 0.042045999318361282
vn 0.016228999942541122 0.99922400712966919 0.035898998379707336
vn 0.006585999857634306 0.99825698137283325 0.058644000440835953
vn 0.0028850000817328691 0.99694699048995972 0.078028999269008636
vn 0.019052999094128609 0.99737799167633057 0.069816000759601593
vn 0.010665999725461006 0.99519598484039307 0.0973149985074997
vn 0.01106599997729063 0.99829697608947754 0.057270001620054245
vn 0.00457100011408329 0.9995579719543457 0.029369000345468521
vn 0.015267999842762947 0.99949002265930176 0.028029000386595726
vn 0.042844001203775406 0.99739998579025269 0.057944998145103455
vn 0.030310999602079391 0.997672975063324 0.061073999851942062
vn 0.0052979998290538788 0.99937397241592407 0.034977998584508896
vn 0.00923100020736456 0.99774497747421265 0.066486001014709473
vn -0.00069600000279024243 0.9997749924659729 0.02119000069797039
vn -0.00072399998316541314 0.99987697601318359 0.015685999765992165
vn 0.0070389998145401478 0.99987399578094482 0.0142639996483922
vn 0.0054979999549686909 0.99991399049758911 0.011900000274181366
vn 0.00066000001970678568 0.9998289942741394 0.018490999937057495
vn -0.011572999879717827 0.99944001436233521 0.031380001455545425
vn 0.0027209999971091747 0.99995100498199463 0.0095499996095895767
vn 0.0028339999262243509 0.99996000528335571 0.00848700013011694
vn -0.0094370003789663315 0.99993199110031128 0.0068870000541210175
vn -0.012821000069379807 0.99989300966262817 0.0070179998874664307
vn -0.012752999551594257 0.99989497661590576 0.0069419997744262218
vn -0.012864000163972378 0.999891996383667 0.0070670000277459621
vn -0.011824999935925007 0.99991297721862793 0.0059110000729560852
vn -0.0059850001707673073 0.99996000528335571 0.0065819998271763325
vn 0.0042630000971257687 0.99995297193527222 0.00875800009816885
vn -0.011408000253140926 0.99992799758911133 -0.0037010000087320805
vn -0.015628000721335411 0.99987798929214478 -0.00042100000428035855
vn 0.0058920001611113548 0.99949800968170166 0.031132999807596207
vn 0.01040900032967329 0.99794399738311768 0.063239999115467072
vn -0.01650100015103817 0.99985599517822266 -0.0039739999920129776
vn -0.012391000054776669 0.99991899728775024 -0.0027419999241828918
vn 0.00064199999906122684 0.99916398525238037 -0.040867000818252563
vn -0.024380000308156013 0.99961698055267334 -0.013066000305116177
vn 0.0025170000735670328 0.99998199939727783 -0.0053770001977682114
vn -0.02651200070977211 0.9996039867401123 -0.0094659999012947083
vn -0.02767300046980381 0.9995729923248291 -0.0094039998948574066
f 1/1/1 2/2/2 3/3/3
f 4/4/4 5/5/5 6/6/6
f 7/7/7 8/8/8 9/9/9
f 7/7/7 10/10/10 8/8/8
f 8/8/8 11/11/11 9/9/9
f 9/9/9 12/12/12 13/13/13
f 9/9/9 11/11/11 12/12/12
f 6/6/6 1/1/1 3/3/3
f 6/6/6 5/5/5 1/1/1
f 7/7/7 3/3/3 2/2/2
f 7/7/7 9/9/9 3/3/3
f 14/14/14 6/6/6 15/15/15
f 14/14/14 16/16/16 6/6/6
f 6/6/6 3/3/3 17/17/17
f 16/16/16 4/4/4 6/6/6
f 3/3/3 9/9/9 18/18/18
f 19/19/19 15/15/15 20/20/20
f 21/21/21 15/15/15 19/19/19
f 21/21/21 14/14/14 15/15/15
f 20/20/20 15/15/15 22/22/22
f 15/15/15 6/6/6 23/23/23
f 18/18/18 13/13/13 24/24/24
f 9/9/9 13/13/13 18/18/18
f 3/3/3 18/18/18 17/17/17
f 17/17/17 18/18/18 25/25/25
f 26/26/26 13/13/13 12/12/12
f 13/13/13 27/27/27 28/28/28
f 13/13/13 26/26/26 27/27/27
f 27/27/27 29/29/29 28/28/28
f 28/28/28 30/30/30 31/31/31
f 28/28/28 29/29/29 30/30/30
f 25/25/25 18/18/18 24/24/24
f 28/28/28 24/24/24 13/13/13
f 23/23/23 25/25/25 32/32/32
f 25/25/25 24/24/24 33/33/33
f 23/23/23 17/17/17 25/25/25
f 24/24/24 28/28/28 34/34/34
f 23/23/23 6/6/6 17/17/17
f 34/34/34 28/28/28 31/31/31
f 35/35/35 31/31/31 30/30/30
f 33/33/33 24/24/24 34/34/34
f 36/36/36 31/31/31 37/37/37
f 36/36/36 34/34/34 31/31/31
f 38/38/38 39/39/39 40/40/40
f 38/38/38 41/41/41 39/39/39
f 41/41/41 31/31/31 35/35/35
f 41/41/41 38/38/38 31/31/31
f 42/42/42 40/40/40 39/39/39
f 43/43/43 33/33/33 44/44/44
f 38/38/38 37/37/37 31/31/31
f 43/43/43 45/45/45 33/33/33
f 43/43/43 46/46/46 45/45/45
f 34/34/34 44/44/44 33/33/33
f 34/34/34 36/36/36 44/44/44
f 32/32/32 33/33/33 45/45/45
f 25/25/25 33/33/33 32/32/32
f 47/47/47 23/23/23 32/32/32
f 47/47/47 48/48/48 23/23/23
f 45/45/45 49/49/49 32/32/32
f 45/45/45 50/50/50 49/49/49
f 22/22/22 23/23/23 48/48/48
f 22/22/22 15/15/15 23/23/23
f 51/51/51 45/45/45 52/52/52
f 51/51/51 53/53/53 45/45/45
f 50/50/50 45/45/45 53/53/53
f 54/54/54 52/52/52 45/45/45
f 54/54/54 55/55/55 52/52/52
f 54/54/54 45/45/45 46/46/46
f 47/47/47 32/32/32 49/49/49
