mtllib m12222121.mtl
usemtl material0
v 80.143004894256592 0.64861702919006348 80
v 80 0.66931599378585815 83.804976940155029
v 80.342964172363281 0.65731602907180786 83.7869029045105
v 80 0.654213011264801 80.150894165039062
v 80 0.65358901023864746 80
v 84.143326044082642 0.73002898693084717 80
v 84.331619024276733 0.63055801391601562 83.576363086700439
v 83.750205993652344 0.73323500156402588 80
v 87.549331992864609 0.65401899814605713 80
v 84.542335987091064 0.66022300720214844 87.565017998218536
v 80 0.71418899297714233 87.277206003665924
v 80.553757190704346 0.70162999629974365 87.775512993335724
v 80 1.0454100370407105 91.803543090820312
v 80.765853881835938 1.0120470523834229 91.763206005096436
v 80 0.77263301610946655 88.391135990619659
v 80 0.73694300651550293 87.804642006754875
v 84.753983020782471 0.8793339729309082 91.553024053573608
v 88.53125 0.68717002868652344 87.354286015033722
v 84.966094970703125 1.1916999816894531 95.540709972381592
v 80 1.348304033279419 94.870841979980469
v 80.978332996368408 1.3976540565490723 95.750640869140625
v 80 1.4362939596176148 96
v 80.754013061523438 1.4134739637374878 96
v 80 1.4360100030899048 95.992156982421875
v 80 1.429131031036377 95.802207946777344
v 80.991524219512939 1.4030799865722656 96
v 84.990425109863281 1.207429051399231 96
v 84.552932977676392 1.2237240076065064 96
v 88.3519130051136 1.0686709880828857 96
v 88.954024970531464 1.0194309949874878 95.330666065216064
v 88.742461979389191 0.81692701578140259 91.342597961425781
v 88.32022899389267 0.595982015132904 83.365845203399658
v 88.142814993858337 0.64840197563171387 80
v 91.348548889160156 0.62471199035644531 80
v 92.142852783203125 0.67569297552108765 80
v 92.310225963592529 0.84166997671127319 83.154373168945312
v 95.147994995117188 0.715632975101471 80
v 92.519713878631592 0.62231701612472534 87.143875002861023
v 96 0.63437199592590332 82.960175037384033
v 96 0.64302301406860352 82.181678771972656
v 96 0.66726797819137573 80
v 96 0.70604199171066284 86.475090026855469
v 96 0.67904597520828247 86.959908008575439
v 92.731674194335938 0.90441501140594482 91.131668090820312
v 96 1.0517740249633789 90.271682977676392
v 92.943091869354248 1.0766459703445435 95.119834899902344
v 96 1.1285649538040161 91.722266912460327
v 96 1.1451809406280518 94.95819091796875
v 96 1.0980639457702637 90.958466053009033
v 92.98980712890625 1.1250029802322388 96
v 89.698418021202087 1.0683959722518921 96
v 88.989593982696533 1.0642379522323608 96
v 96 1.1980550289154053 95.784636974334717
v 93.922111988067627 1.1582189798355103 96
v 96 1.2118339538574219 96
vt 0 0.0089380145072937012
vt 0.23781099915504456 0
vt 0.23668099939823151 0.021435022354125977
vt 0.009430999867618084 0
vt 0 0
vt 0 0.25895798206329346
vt 0.22352300584316254 0.27072602510452271
vt 0 0.23438799381256104
vt 0 0.4718329906463623
vt 0.47281399369239807 0.28389602899551392
vt 0.4548250138759613 0
vt 0.48596999049186707 0.034609973430633545
vt 0.7377210259437561 0
vt 0.73519998788833618 0.047865986824035645
vt 0.52444601058959961 0
vt 0.48778998851776123 0
vt 0.72206401824951172 0.29712402820587158
vt 0.45964300632476807 0.53320300579071045
vt 0.97129398584365845 0.31038099527359009
vt 0.929427981376648 0
vt 0.98441499471664429 0.061146020889282227
vt 1 0
vt 1 0.04712599515914917
vt 0.99950999021530151 0
vt 0.987637996673584 0
vt 1 0.061969995498657227
vt 1 0.31190198659896851
vt 1 0.2845579981803894
vt 1 0.52199500799179077
vt 0.95816701650619507 0.5596269965171814
vt 0.70891201496124268 0.54640400409698486
vt 0.21036499738693237 0.52001398801803589
vt 0 0.50892600417137146
vt 0 0.70928400754928589
vt 0 0.75892800092697144
vt 0.19714799523353577 0.76938900351524353
vt 0 0.94675000011920929
vt 0.44649198651313782 0.78248199820518494
vt 0.18501099944114685 1
vt 0.13635499775409699 1
vt 0 1
vt 0.40469300746917725 1
vt 0.43499401211738586 1
vt 0.69572901725769043 0.79572999477386475
vt 0.641979992389679 1
vt 0.94498997926712036 0.8089430034160614
vt 0.73264199495315552 1
vt 0.93488699197769165 1
vt 0.68490397930145264 1
vt 1 0.8118630051612854
vt 1 0.60615101456642151
vt 1 0.56185001134872437
vt 0.98654001951217651 1
vt 1 0.87013199925422668
vt 1 1
vn -0.0165219996124506 0.999862015247345 -0.0014240000164136291
vn 0.0345660001039505 0.99937397241592407 -0.0075989998877048492
vn 0.0033799998927861452 0.99999397993087769 0.00091900001280009747
vn 0.034749001264572144 0.99938797950744629 -0.0041310000233352184
vn 0.034745998680591583 0.99938797950744629 -0.0041330000385642052
vn 0.014313999563455582 0.99953198432922363 0.027047000825405121
vn 0.010408000089228153 0.99990200996398926 0.0093280002474784851
vn -0.020346999168395996 0.99979197978973389 0.0017359999474138022
vn 0.015097999945282936 0.99968302249908447 0.020142000168561935
vn 0.0061809998005628586 0.99939900636672974 -0.034100998193025589
vn 0.036494001746177673 0.99921602010726929 -0.015371999703347683
vn 0.014139999635517597 0.99876397848129272 -0.047642000019550323
vn 0.038860999047756195 0.99557101726531982 -0.085608996450901031
vn 0.02924099937081337 0.99637299776077271 -0.079905003309249878
vn 0.0423009991645813 0.996146023273468 -0.076840996742248535
vn 0.060812998563051224 0.99677801132202148 -0.052296999841928482
vn 0.014991000294685364 0.99805599451065063 -0.060495998710393906
vn 0.0051640002056956291 0.99942898750305176 -0.033401999622583389
vn 0.032988999038934708 0.99678599834442139 -0.07300499826669693
vn 0.036756999790668488 0.99463802576065063 -0.096665002405643463
vn 0.043944001197814941 0.9946560263633728 -0.093427002429962158
vn 0.030231000855565071 0.99888801574707031 -0.036164999008178711
vn 0.033362999558448792 0.99888700246810913 -0.033358000218868256
vn 0.030231000855565071 0.99888801574707031 -0.036175001412630081
vn 0.027954999357461929 0.99656498432159424 -0.077947996556758881
vn 0.050138000398874283 0.99844497442245483 -0.024376999586820602
vn 0.040752999484539032 0.99850797653198242 -0.036354001611471176
vn 0.048852000385522842 0.99847602844238281 -0.0256740003824234
vn 0.03797600045800209 0.99850600957870483 -0.039294000715017319
vn -8.6000000010244548E-05 0.99882197380065918 -0.048528000712394714
vn 0.0050139999948441982 0.99859201908111572 -0.052806999534368515
vn -0.012457000091671944 0.99992102384567261 -0.001601999974809587
vn 0.0077129998244345188 0.99985498189926147 0.015165000222623348
vn -0.034547999501228333 0.99914801120758057 -0.022554999217391014
vn -0.023892000317573547 0.998399019241333 -0.051265999674797058
vn -0.011268000118434429 0.9999229907989502 0.0051620001904666424
vn 0.027990000322461128 0.99949902296066284 -0.014755000360310078
vn -0.020909000188112259 0.99948400259017944 -0.02439500018954277
vn 0.055808998644351959 0.99842697381973267 -0.0054060001857578754
vn 0.056671999394893646 0.99833101034164429 0.011094000190496445
vn 0.056671001017093658 0.99833101034164429 0.011094000190496445
vn 0.046755999326705933 0.99884402751922607 -0.011156000196933746
vn -0.017115000635385513 0.99973297119140625 -0.01549999974668026
vn -0.03706900030374527 0.99785202741622925 -0.054014001041650772
vn -0.045276999473571777 0.99524199962615967 -0.08626999706029892
vn -0.032694999128580093 0.998773992061615 -0.037172000855207443
vn -0.030060999095439911 0.99947899580001831 -0.011773999780416489
vn -0.023313999176025391 0.99958199262619019 -0.017099000513553619
vn -0.061377998441457748 0.99717497825622559 -0.043303001672029495
vn -0.019477000460028648 0.99836099147796631 -0.053817000240087509
vn -0.015165000222623348 0.99830597639083862 -0.056166000664234161
vn 0.00020399999630171806 0.99776601791381836 -0.066803999245166779
vn -0.025740999728441238 0.99762898683547974 -0.063827000558376312
vn -0.028176000341773033 0.99773198366165161 -0.061129000037908554
vn -0.025740999728441238 0.99762898683547974 -0.0638279989361763
f 1/1/1 2/2/2 3/3/3
f 1/1/1 4/4/4 2/2/2
f 4/4/4 1/1/1 5/5/5
f 6/6/6 3/3/3 7/7/7
f 6/6/6 8/8/8 3/3/3
f 1/1/1 3/3/3 8/8/8
f 6/6/6 7/7/7 9/9/9
f 7/7/7 3/3/3 10/10/10
f 3/3/3 11/11/11 12/12/12
f 3/3/3 2/2/2 11/11/11
f 12/12/12 13/13/13 14/14/14
f 12/12/12 15/15/15 13/13/13
f 15/15/15 12/12/12 16/16/16
f 10/10/10 14/14/14 17/17/17
f 14/14/14 10/10/10 12/12/12
f 10/10/10 17/17/17 18/18/18
f 17/17/17 14/14/14 19/19/19
f 3/3/3 12/12/12 10/10/10
f 14/14/14 20/20/20 21/21/21
f 14/14/14 13/13/13 20/20/20
f 22/22/22 23/23/23 24/24/24
f 24/24/24 21/21/21 25/25/25
f 24/24/24 23/23/23 21/21/21
f 25/25/25 21/21/21 20/20/20
f 26/26/26 21/21/21 23/23/23
f 27/27/27 19/19/19 28/28/28
f 26/26/26 19/19/19 21/21/21
f 26/26/26 28/28/28 19/19/19
f 19/19/19 29/29/29 30/30/30
f 19/19/19 27/27/27 29/29/29
f 14/14/14 21/21/21 19/19/19
f 31/31/31 17/17/17 19/19/19
f 11/11/11 16/16/16 12/12/12
f 32/32/32 7/7/7 10/10/10
f 32/32/32 9/9/9 7/7/7
f 32/32/32 33/33/33 9/9/9
f 33/33/33 32/32/32 34/34/34
f 35/35/35 36/36/36 37/37/37
f 36/36/36 34/34/34 32/32/32
f 36/36/36 35/35/35 34/34/34
f 36/36/36 32/32/32 38/38/38
f 39/39/39 37/37/37 36/36/36
f 39/39/39 40/40/40 37/37/37
f 40/40/40 41/41/41 37/37/37
f 39/39/39 36/36/36 42/42/42
f 31/31/31 18/18/18 17/17/17
f 18/18/18 31/31/31 38/38/38
f 43/43/43 36/36/36 38/38/38
f 43/43/43 42/42/42 36/36/36
f 18/18/18 38/38/38 32/32/32
f 38/38/38 31/31/31 44/44/44
f 43/43/43 38/38/38 45/45/45
f 44/44/44 30/30/30 46/46/46
f 30/30/30 44/44/44 31/31/31
f 47/47/47 46/46/46 48/48/48
f 46/46/46 49/49/49 44/44/44
f 46/46/46 47/47/47 49/49/49
f 30/30/30 50/50/50 46/46/46
f 30/30/30 51/51/51 50/50/50
f 45/45/45 44/44/44 49/49/49
f 45/45/45 38/38/38 44/44/44
f 52/52/52 30/30/30 29/29/29
f 30/30/30 31/31/31 19/19/19
f 48/48/48 46/46/46 53/53/53
f 53/53/53 54/54/54 55/55/55
f 53/53/53 46/46/46 54/54/54
f 18/18/18 32/32/32 10/10/10
f 54/54/54 46/46/46 50/50/50
f 51/51/51 30/30/30 52/52/52
