mtllib m122313.mtl
usemtl material0
v 462.28652954101562 2.0453159809112549 128
v 454.67623901367188 2.2013731002807617 128
v 455.09695434570312 1.988008975982666 135.99087524414063
v 455.93106079101562 0.36610299348831177 151.951416015625
v 471.0526123046875 2.0872011184692383 135.14799499511719
v 448 1.7705730199813843 136.36631774902344
v 448 1.9811389446258545 128.9088134765625
v 448 2.0067989826202393 128
v 448 0.90123999118804932 144.81166076660156
v 448 -0.10299400240182877 152.37168884277344
v 448 -0.64646297693252563 160.76432800292969
v 448 -2.5380508899688721 177.65130615234375
v 456.76205444335938 -1.8701260089874268 167.91401720046997
v 448 -1.7023329734802246 168.37619018554688
v 471.88687133789062 0.49703198671340942 151.10842895507813
v 457.59805297851562 -3.112307071685791 183.87322998046875
v 448 -3.0583488941192627 184.37989807128906
v 470.67532253265381 2.0967330932617188 128
v 486.67123413085938 1.3843109607696533 128
v 487.00427198410034 1.3938519954681397 134.30781555175781
v 477.48312401771545 1.7818410396575928 128
v 502.67440795898438 2.0573830604553223 128
v 502.96542358398438 2.5753929615020752 133.46124267578125
v 492.67919921875 1.2694209814071655 128
v 512 2.6334919929504395 128
v 512 2.8760058879852295 130.64869689941406
v 512 3.0896940231323242 132.9825439453125
v 503.80355834960938 1.7571829557418823 149.4190673828125
v 487.83859300613403 -0.17971499264240265 150.26817321777344
v 472.71615600585938 -2.0736620426177979 167.07215881347656
v 488.66986083984375 -2.3588159084320068 166.2305908203125
v 504.63418579101562 -0.54154402017593384 165.38188219070435
v 512 2.4942049980163574 156.78747606277466
v 512 1.2151700258255005 164.98744201660156
v 489.50918579101562 -2.9418299198150635 182.18757629394531
v 473.55606079101562 -2.5414440631866455 183.02874755859375
v 512 2.6931319236755371 140.31100463867188
v 505.47177124023438 -1.4683020114898682 181.34004211425781
v 465.4825439453125 -3.5573899745941162 192
v 458.02352905273438 -3.7906279563903809 192
v 450.28598022460938 -3.2902910709381104 192
v 448 -3.2194900512695312 190.07322692871094
v 448 -3.27402400970459 192
v 474.02734422683716 -2.9864630699157715 192
v 490.027587890625 -2.8653099536895752 192
v 480.68041998147964 -3.1703319549560547 192
v 506.0323486328125 -1.8806610107421875 192
v 495.87921142578125 -2.3242340087890625 192
v 512 -0.093502998352050781 187.2025146484375
v 512 -0.34404599666595459 192
v 512 0.57449698448181152 174.08865356445313
vt 0.9981759786605835 0.22309297323226929
vt 0.9981759786605835 0.10507398843765259
vt 0.87424099445343018 0.11166298389434815
vt 0.62550598382949829 0.12459701299667358
vt 0.88739901781082153 0.35904800891876221
vt 0.868270993232727 0.0015850067138671875
vt 0.98394197225570679 0.0015249848365783691
vt 0.99803799390792847 0.0015180110931396484
vt 0.73663800954818726 0.0013870000839233398
vt 0.61839300394058228 0.0012630224227905273
vt 0.48801499605178833 0.0015760064125061035
vt 0.22447800636291504 0.0013809800148010254
vt 0.37559500336647034 0.13746500015258789
vt 0.36886599659919739 0.0015659928321838379
vt 0.63871502876281738 0.37198501825332642
vt 0.12737500667572022 0.14978998899459839
vt 0.11984299868345261 0.0011320114135742188
vt 0.99822402000427246 0.35315901041030884
vt 0.99830901622772217 0.6014150083065033
vt 0.89931297302246094 0.60666099190711975
vt 0.9982600212097168 0.45882397890090942
vt 0.99646598100662231 0.85009600222110748
vt 0.914463996887207 0.85469299554824829
vt 0.99713397026062012 0.69464600086212158
vt 0.9990990161895752 0.99399900017306209
vt 0.95787101984024048 0.99490900011733174
vt 0.9229009747505188 0.99493899988010526
vt 0.66677898168563843 0.86875699460506439
vt 0.65065497159957886 0.6195870041847229
vt 0.38805499672889709 0.38558197021484375
vt 0.40089699625968933 0.63298699259758
vt 0.41753500699996948 0.88189700245857239
vt 0.55643701553344727 0.99903000000631437
vt 0.42276298999786377 0.9993360000080429
vt 0.15332399308681488 0.64596098661422729
vt 0.14048700034618378 0.39736902713775635
vt 0.80911099910736084 0.9954220000654459
vt 0.16730399429798126 0.89446000009775162
vt 0.00090400001499801874 0.27174597978591919
vt 0.00091699999757111073 0.15604102611541748
vt 0.0018779999809339643 0.035826981067657471
vt 0.031536001712083817 0.00066602230072021484
vt 0.0016509999986737967 0.00066399574279785156
vt 0.0012219999916851521 0.40470600128173828
vt 0.0012150000547990203 0.6545880138874054
vt 0.00089999998454004526 0.5078980028629303
vt 0.0019089999841526151 0.903269998729229
vt 0.0015219999477267265 0.74570098519325256
vt 0.077716998755931854 0.99903200002154335
vt 0.0030910000205039978 0.99880699999630451
vt 0.2813040018081665 0.99882600002456456
vn 0.00097599998116493225 0.99996697902679443 0.0080500002950429916
vn -0.0051429998129606247 0.99962300062179565 0.026962000876665115
vn -0.01196299958974123 0.9980430006980896 0.061376001685857773
vn -0.013976999558508396 0.99334502220153809 0.11432500183582306
vn 0.02113799937069416 0.99857997894287109 0.0489020012319088
vn -0.027033999562263489 0.99741202592849731 0.066623002290725708
vn -0.029120000079274178 0.99917799234390259 0.02821199968457222
vn -0.029120000079274178 0.99917799234390259 0.02821199968457222
vn -0.032131999731063843 0.993395984172821 0.11014900356531143
vn -0.05365300178527832 0.99385499954223633 0.096821002662181854
vn 0.0072079999372363091 0.99268198013305664 0.12054199725389481
vn 0.012965000234544277 0.9967079758644104 0.080035001039505
vn 0.011136000044643879 0.99431800842285156 0.1058650016784668
vn 0.024971999228000641 0.99330300092697144 0.11280500143766403
vn 0.026111999526619911 0.99179798364639282 0.125123992562294
vn -0.004290000069886446 0.99726301431655884 0.073807999491691589
vn 0.0083539998158812523 0.99861800670623779 0.051895000040531158
vn 0.019166000187397003 0.99981600046157837 0.00032200000714510679
vn 0.031578000634908676 0.9994959831237793 -0.0031789999920874834
vn -0.0078640002757310867 0.99947899580001831 0.03131600096821785
vn 0.044020000845193863 0.99902600049972534 -0.0030769999139010906
vn -0.070159003138542175 0.9934229850769043 -0.090489998459815979
vn -0.066248998045921326 0.997639000415802 -0.0181099995970726
vn -0.0523420013487339 0.996396005153656 -0.066745996475219727
vn -0.061404000967741013 0.99395501613616943 -0.091006003320217133
vn -0.061404000967741013 0.99395501613616943 -0.09100700169801712
vn -0.057929001748561859 0.99809998273849487 -0.020971000194549561
vn -0.11045700311660767 0.99027299880981445 0.0846090018749237
vn -0.035402998328208923 0.99193298816680908 0.12171900272369385
vn 0.02397100068628788 0.99556499719619751 0.09097599983215332
vn -0.040793001651763916 0.99497699737548828 0.091413997113704681
vn -0.16602900624275208 0.98025602102279663 0.10738900303840637
vn -0.18959900736808777 0.97529697418212891 0.1133510023355484
vn -0.22489400207996368 0.967989981174469 0.11143500357866287
vn -0.040309000760316849 0.9989280104637146 0.022745000198483467
vn -0.00082999997539445758 0.99876302480697632 0.049722999334335327
vn -0.064754001796245575 0.99692302942276 0.044172000139951706
vn -0.164000004529953 0.9854239821434021 0.045205000787973404
vn -0.040582999587059021 0.99625897407531738 0.076298996806144714
vn 0.01498000044375658 0.99648797512054443 0.082390002906322479
vn 0.022436000406742096 0.99886298179626465 0.042063001543283463
vn 0.00711299991235137 0.99957400560379028 0.028291000053286552
vn 0.00711299991235137 0.99957400560379028 0.028292000293731689
vn -0.017971999943256378 0.99856299161911011 0.050478000193834305
vn -0.0633779987692833 0.997979998588562 -0.0044339997693896294
vn 0.011536000296473503 0.99936699867248535 0.033651001751422882
vn -0.1501539945602417 0.98758697509765625 0.046098999679088593
vn -0.079198002815246582 0.99681997299194336 0.0087710004299879074
vn -0.24875600636005402 0.9672660231590271 0.050172999501228333
vn -0.24903899431228638 0.96717500686645508 0.050508998334407806
vn -0.23272199928760529 0.97044402360916138 0.063872002065181732
f 1/1/1 2/2/2 3/3/3
f 3/3/3 4/4/4 5/5/5
f 6/6/6 3/3/3 7/7/7
f 7/7/7 2/2/2 8/8/8
f 7/7/7 3/3/3 2/2/2
f 3/3/3 9/9/9 4/4/4
f 3/3/3 6/6/6 9/9/9
f 10/10/10 11/11/11 4/4/4
f 12/12/12 13/13/13 14/14/14
f 11/11/11 13/13/13 4/4/4
f 11/11/11 14/14/14 13/13/13
f 13/13/13 15/15/15 4/4/4
f 12/12/12 16/16/16 13/13/13
f 12/12/12 17/17/17 16/16/16
f 9/9/9 10/10/10 4/4/4
f 1/1/1 5/5/5 18/18/18
f 1/1/1 3/3/3 5/5/5
f 19/19/19 5/5/5 20/20/20
f 19/19/19 21/21/21 5/5/5
f 18/18/18 5/5/5 21/21/21
f 22/22/22 20/20/20 23/23/23
f 22/22/22 24/24/24 20/20/20
f 19/19/19 20/20/20 24/24/24
f 25/25/25 22/22/22 26/26/26
f 26/26/26 23/23/23 27/27/27
f 26/26/26 22/22/22 23/23/23
f 23/23/23 20/20/20 28/28/28
f 20/20/20 5/5/5 29/29/29
f 29/29/29 15/15/15 30/30/30
f 15/15/15 29/29/29 5/5/5
f 29/29/29 30/30/30 31/31/31
f 30/30/30 15/15/15 13/13/13
f 28/28/28 31/31/31 32/32/32
f 31/31/31 28/28/28 29/29/29
f 32/32/32 33/33/33 28/28/28
f 32/32/32 34/34/34 33/33/33
f 30/30/30 35/35/35 31/31/31
f 20/20/20 29/29/29 28/28/28
f 13/13/13 36/36/36 30/30/30
f 27/27/27 28/28/28 37/37/37
f 27/27/27 23/23/23 28/28/28
f 15/15/15 5/5/5 4/4/4
f 31/31/31 38/38/38 32/32/32
f 39/39/39 16/16/16 40/40/40
f 39/39/39 36/36/36 16/16/16
f 16/16/16 36/36/36 13/13/13
f 40/40/40 16/16/16 41/41/41
f 17/17/17 41/41/41 16/16/16
f 17/17/17 42/42/42 41/41/41
f 42/42/42 43/43/43 41/41/41
f 39/39/39 44/44/44 36/36/36
f 45/45/45 35/35/35 46/46/46
f 44/44/44 35/35/35 36/36/36
f 44/44/44 46/46/46 35/35/35
f 47/47/47 38/38/38 48/48/48
f 45/45/45 38/38/38 35/35/35
f 45/45/45 48/48/48 38/38/38
f 47/47/47 49/49/49 38/38/38
f 47/47/47 50/50/50 49/49/49
f 31/31/31 35/35/35 38/38/38
f 30/30/30 36/36/36 35/35/35
f 34/34/34 38/38/38 51/51/51
f 34/34/34 32/32/32 38/38/38
f 49/49/49 51/51/51 38/38/38
f 33/33/33 37/37/37 28/28/28
