mtllib m122222133.mtl
usemtl material0
v 56 2.082319974899292 33.069508075714111
v 56.652107000350952 2.1466519832611084 32
v 56 2.1023080348968506 32.724711894989014
v 57.668720006942749 2.0934019088745117 32.981349945068359
v 57.617202997207642 2.1501059532165527 32
v 56 2.0806510448455811 32
v 58.690006017684937 2.1617999076843262 32
v 59.663249999284744 2.1212949752807617 32.875937938690186
v 59.616961985826492 2.1120851039886475 32
v 60.801346004009247 2.1489160060882568 32
v 61.657943964004517 2.1823880672454834 32.7704119682312
v 61.617058038711548 2.1401410102844238 32
v 62.350990056991577 2.1308109760284424 32
v 56 2.0865631103515625 35.069431006908417
v 56 2.1184749603271484 36.9475439786911
v 57.774188995361328 2.1304829120635986 34.975600957870483
v 56 2.0825409889221191 34.8360710144043
v 56 2.0594069957733154 39.058823108673096
v 57.879432916641235 2.1221530437469482 36.970009028911591
v 56 2.1179530620574951 37.069270968437195
v 59.768555000424385 2.1251730918884277 34.870303988456726
v 61.762931942939758 2.1218140125274658 34.76499605178833
v 63.652133941650391 2.1414320468902588 32.665234088897705
v 59.873549997806549 2.0665500164031982 36.864883005619049
v 57.984427928924561 2.0635290145874023 38.964587926864624
v 59.978382000699639 1.9747240543365479 38.859572887420654
v 56 2.0590949058532715 39.069392919540405
v 61.867382049560547 1.9528419971466065 36.759953022003174
v 61.972224950790405 1.8634580373764038 38.754638910293579
v 63.861298084259033 1.8562229871749878 36.654968023300171
v 60.038421999663115 1.9426009654998779 40
v 59.134585976600647 1.9840810298919678 40
v 58.038848996162415 2.0163700580596924 40
v 56 2.0588650703430176 39.07445502281189
v 57.023417949676514 2.0165441036224365 40
v 56 2.058661937713623 39.0789110660553
v 63.756968975067139 2.0500960350036621 34.659924030303955
v 56 2.0113780498504639 39.984318017959595
v 56.0388720035553 2.0121591091156006 40
v 56 2.0494840145111084 39.260020971298218
v 56 2.0105528831481934 40
v 60.851830005645752 1.8961319923400879 40
v 63.616847991943359 2.1082100868225098 32
v 64 2.1203579902648926 32.496483087539673
v 64 2.1281530857086182 32.646903991699219
v 64 2.0946309566497803 32
v 64 2.0520539283752441 34.38980495929718
v 64 2.032120943069458 34.878718972206116
v 64 1.858909010887146 36.647633016109467
v 64 1.8004080057144165 38.671509027481079
v 63.966300964355469 1.799064040184021 38.649539947509766
v 64 1.8003569841384888 38.679847955703735
v 64 1.800771951675415 38.61208701133728
v 64 1.8345960378646851 40
v 63.356358051300049 1.8544620275497437 40
v 64 1.8339790105819702 39.977230072021484
v 64 1.8152689933776856 39.286319971084595
v 62.03795599937439 1.8609989881515503 40
vt 0.13368800282478333 0
vt 0 0.081512987613677979
vt 0.0905890017747879 0
vt 0.12266899645328522 0.20858997106552124
vt 0 0.20214998722076416
vt 0 0
vt 0 0.33625102043151855
vt 0.1094919964671135 0.45790600776672363
vt 0 0.45212000608444214
vt 0 0.600167989730835
vt 0.096302002668380737 0.70724299550056458
vt 0 0.702131986618042
vt 0 0.79387399554252625
vt 0.38367900252342224 0
vt 0.61844301223754883 0
vt 0.37195000052452087 0.22177398204803467
vt 0.35450899600982666 0
vt 0.88235300779342651 0
vt 0.62125098705291748 0.23492902517318726
vt 0.6336590051651001 0
vt 0.35878801345825195 0.47106897830963135
vt 0.34562399983406067 0.72036600112915039
vt 0.083154000341892242 0.95651699975132942
vt 0.60811001062393188 0.48419398069381714
vt 0.87057399749755859 0.24805402755737305
vt 0.85744702816009521 0.497298002243042
vt 0.8836740255355835 0
vt 0.59499400854110718 0.73342299461364746
vt 0.84433001279830933 0.74652799963951111
vt 0.581870973110199 0.98266199976205826
vt 1 0.50480300188064575
vt 1 0.39182299375534058
vt 1 0.25485599040985107
vt 0.88430702686309814 0
vt 1 0.12792700529098511
vt 0.88486397266387939 0
vt 0.33248999714851379 0.96962100081145763
vt 0.99804002046585083 0
vt 1 0.0048589706420898438
vt 0.90750300884246826 0
vt 1 0
vt 1 0.6064789891242981
vt 0 0.95210599899291992
vt 0.062059998512268066 1
vt 0.080862998962402344 1
vt 0 1
vt 0.29872599244117737 1
vt 0.35984000563621521 1
vt 0.58095401525497437 1
vt 0.83393901586532593 1
vt 0.8311920166015625 0.99578800005838275
vt 0.83498102426528931 1
vt 0.826511025428772 1
vt 1 1
vt 1 0.9195450022816658
vt 0.99715399742126465 1
vt 0.91079002618789673 1
vt 1 0.7547450065612793
vn -0.0054230000823736191 0.9997209906578064 0.023011999204754829
vn -0.017241999506950378 0.99881100654602051 0.045602001249790192
vn -0.069565996527671814 0.99757599830627441 -0.0015569999814033508
vn -0.013140999712049961 0.99984198808670044 0.011988000012934208
vn -0.0074200001545250416 0.99828499555587769 0.058072000741958618
vn -0.10065300017595291 0.99447798728942871 -0.029719000682234764
vn 0.0032029999420046806 0.999085009098053 0.042640998959541321
vn -0.010243000462651253 0.99993300437927246 0.0053229997865855694
vn 0.0061019998975098133 0.9999229907989502 -0.010835999622941017
vn -0.023099999874830246 0.99957597255706787 -0.0177449993789196
vn -0.0030930000357329845 0.9999690055847168 0.0072269998490810394
vn 0.011664999648928642 0.99839800596237183 -0.055367998778820038
vn 0.016815999522805214 0.998520016670227 -0.0517209991812706
vn -0.02564300037920475 0.99952602386474609 -0.017009999603033066
vn -0.02420400083065033 0.99958401918411255 -0.015690000727772713
vn -0.0042409999296069145 0.99998897314071655 -0.0021929999347776175
vn -0.0175199992954731 0.999796986579895 -0.0099080000072717667
vn -0.00067999999737367034 0.99956697225570679 0.029415000230073929
vn 0.011096999980509281 0.99976199865341187 0.018766000866889954
vn -0.0013640000252053142 0.99986302852630615 0.016468999907374382
vn 0.0028899998869746923 0.99990397691726685 0.013570999726653099
vn 0.019670000299811363 0.9989129900932312 0.042261000722646713
vn 0.028845999389886856 0.999426007270813 0.017750000581145287
vn 0.033135998994112015 0.99877798557281494 0.036658000200986862
vn 0.026262000203132629 0.99906998872756958 0.034189999103546143
vn 0.0537090003490448 0.99783700704574585 0.037895999848842621
vn -0.00038899999344721436 0.99939000606536865 0.034910999238491058
vn 0.05364999920129776 0.99650698900222778 0.063992999494075775
vn 0.041822999715805054 0.99892902374267578 0.019789999350905418
vn 0.040888998657464981 0.99759101867675781 0.056042000651359558
vn 0.051492001861333847 0.99835002422332764 0.0254100002348423
vn 0.036844000220298767 0.998682975769043 0.03570299968123436
vn 0.0081810001283884048 0.99895000457763672 0.045067999511957169
vn 0.0001720000000204891 0.99896502494812012 0.04548799991607666
vn -0.0021009999327361584 0.99884498119354248 0.048007998615503311
vn -0.0043390002101659775 0.99871498346328735 0.050489000976085663
vn 0.041600000113248825 0.99648499488830566 0.072714999318122864
vn -0.041225999593734741 0.99777001142501831 0.052494000643491745
vn -0.00584599981084466 0.99869799613952637 0.050682000815868378
vn -0.0055490001104772091 0.99870002269744873 0.050666999071836472
vn -0.041228998452425 0.99776899814605713 0.052501000463962555
vn 0.040773998945951462 0.99911397695541382 0.010470000095665455
vn 0.023739000782370567 0.99840998649597168 -0.051120001822710037
vn 0.035372000187635422 0.9980350136756897 -0.051718000322580338
vn 0.040015000849962234 0.99854999780654907 0.036024000495672226
vn 0.035371001809835434 0.9980350136756897 -0.051716998219490051
vn 0.040095001459121704 0.99825698137283325 0.043308999389410019
vn -0.0067639998160302639 0.99597799777984619 0.089340001344680786
vn -0.016054999083280563 0.99795699119567871 0.061840999871492386
vn -0.0438309982419014 0.999019980430603 0.0061180000193417072
vn 0.031847000122070312 0.99947798252105713 0.005386000033468008
vn -0.016620999202132225 0.99957001209259033 -0.024160999804735184
vn -0.017938999459147453 0.99940598011016846 0.029441000893712044
vn 0.030840000137686729 0.99915802478790283 -0.027058999985456467
vn 0.013454999774694443 0.99988001585006714 -0.0077320002019405365
vn 0.030838999897241592 0.99915802478790283 -0.02705799974501133
vn 0.0088210003450512886 0.99962598085403442 -0.025906000286340714
vn 0.016635999083518982 0.99986100196838379 0.001095999963581562
f 1/1/1 2/2/2 3/3/3
f 1/1/1 4/4/4 2/2/2
f 4/4/4 5/5/5 2/2/2
f 6/6/6 3/3/3 2/2/2
f 7/7/7 8/8/8 9/9/9
f 10/10/10 11/11/11 12/12/12
f 13/13/13 12/12/12 11/11/11
f 14/14/14 15/15/15 16/16/16
f 17/17/17 4/4/4 1/1/1
f 18/18/18 19/19/19 20/20/20
f 17/17/17 16/16/16 4/4/4
f 17/17/17 14/14/14 16/16/16
f 8/8/8 16/16/16 21/21/21
f 16/16/16 8/8/8 4/4/4
f 22/22/22 8/8/8 21/21/21
f 8/8/8 22/22/22 11/11/11
f 22/22/22 23/23/23 11/11/11
f 22/22/22 21/21/21 24/24/24
f 10/10/10 8/8/8 11/11/11
f 10/10/10 9/9/9 8/8/8
f 21/21/21 16/16/16 24/24/24
f 24/24/24 19/19/19 25/25/25
f 19/19/19 24/24/24 16/16/16
f 24/24/24 25/25/25 26/26/26
f 27/27/27 19/19/19 18/18/18
f 27/27/27 25/25/25 19/19/19
f 28/28/28 26/26/26 29/29/29
f 26/26/26 28/28/28 24/24/24
f 29/29/29 30/30/30 28/28/28
f 25/25/25 31/31/31 26/26/26
f 25/25/25 32/32/32 31/31/31
f 22/22/22 24/24/24 28/28/28
f 27/27/27 33/33/33 25/25/25
f 27/27/27 34/34/34 33/33/33
f 34/34/34 35/35/35 33/33/33
f 34/34/34 36/36/36 35/35/35
f 22/22/22 28/28/28 37/37/37
f 20/20/20 16/16/16 15/15/15
f 20/20/20 19/19/19 16/16/16
f 7/7/7 4/4/4 8/8/8
f 7/7/7 5/5/5 4/4/4
f 38/38/38 39/39/39 40/40/40
f 38/38/38 41/41/41 39/39/39
f 31/31/31 29/29/29 26/26/26
f 31/31/31 42/42/42 29/29/29
f 23/23/23 13/13/13 11/11/11
f 23/23/23 43/43/43 13/13/13
f 44/44/44 23/23/23 45/45/45
f 44/44/44 43/43/43 23/23/23
f 44/44/44 46/46/46 43/43/43
f 47/47/47 23/23/23 37/37/37
f 47/47/47 45/45/45 23/23/23
f 30/30/30 37/37/37 28/28/28
f 48/48/48 30/30/30 49/49/49
f 48/48/48 37/37/37 30/30/30
f 48/48/48 47/47/47 37/37/37
f 50/50/50 51/51/51 52/52/52
f 50/50/50 53/53/53 51/51/51
f 53/53/53 30/30/30 51/51/51
f 53/53/53 49/49/49 30/30/30
f 51/51/51 30/30/30 29/29/29
f 37/37/37 23/23/23 22/22/22
f 54/54/54 29/29/29 55/55/55
f 54/54/54 56/56/56 29/29/29
f 56/56/56 51/51/51 29/29/29
f 56/56/56 57/57/57 51/51/51
f 40/40/40 35/35/35 36/36/36
f 40/40/40 39/39/39 35/35/35
f 33/33/33 32/32/32 25/25/25
f 57/57/57 52/52/52 51/51/51
f 55/55/55 29/29/29 58/58/58
f 58/58/58 29/29/29 42/42/42
