mtllib m122222001.mtl
usemtl material0
v 8 0.24762000143527985 58.62354302406311
v 8.9582209587097168 0.29770401120185852 57.558604955673218
v 8 0.27490699291229248 57.609276056289673
v 8 0.078773997724056244 60.734596014022827
v 9.063093900680542 0.2136790007352829 59.553267985582352
v 8 0.20582300424575806 59.609432011842728
v 8 0.35045400261878967 56
v 8 0.34029000997543335 56.512332916259766
v 8.461021900177002 0.38034200668334961 56
v 8 -0.19436800479888916 63.837241888046265
v 9.2717928886413574 -0.16677099466323853 63.543323993682861
v 8 -0.18955700099468231 63.610553979873657
v 9.0727710723876953 -0.17980700731277466 64
v 8 -0.19782300293445587 64
v 8 -0.01076900027692318 61.610054016113281
v 8 -0.12086199969053268 62.845585107803345
v 9.1673820018768311 0.011003999970853329 61.54833996295929
v 8.8764069080352783 0.38891500234603882 56
v 8 0.32538199424743652 56.762447118759155
v 10.360874056816101 0.4981440007686615 56
v 10.953336000442505 0.44476398825645447 57.4527850151062
v 11.058063983917236 0.33144301176071167 59.4475479722023
v 11.162311971187592 0.12046699970960617 61.442646026611328
v 9.5311429500579834 -0.15873199701309204 64
v 10.87709903717041 0.53440397977828979 56
v 12.260609000921249 0.5515819787979126 56
v 11.266875982284546 -0.026057999581098557 63.437526941299438
v 13.157691955566406 0.321723997592926 61.336639046669006
v 12.970845997333527 0.13216699659824371 64
v 13.262266039848328 0.17715199291706085 63.331511974334717
v 11.296517014503479 -0.036260999739170074 64
v 13.053379058837891 0.51951700448989868 59.341587007045746
v 12.948065996170044 0.5136989951133728 57.34722900390625
v 12.877237975597382 0.57143902778625488 56
v 14.94301700592041 0.62755399942398071 57.24152398109436
v 15.047754049301148 0.51618701219558716 59.236281991004944
v 14.160108089447022 0.47680899500846863 56
v 15.152818918228149 0.47122299671173096 61.230811953544617
v 13.641826987266541 0.17748700082302094 64
v 14.87693190574646 0.5208590030670166 56
v 16 0.63691502809524536 57.185677051544189
v 16 0.58120602369308472 58.178017020225525
v 16 0.554220974445343 59.185874998569489
v 16 0.52710002660751343 60.289303004741669
v 15.25752592086792 0.35399401187896729 63.225589990615845
v 16 0.62933599948883057 56
v 16 0.63472801446914673 56.066726922988892
v 15.298235893249512 0.32004401087760925 64
v 16 0.41889199614524841 63.186176061630249
v 16 0.39485099911689758 63.683926105499268
v 16 0.37958401441574097 64
v 16 0.54527300596237183 61.185840964317322
v 16 0.46852600574493408 62.400580883026123
vt 0.32794299721717834 0
vt 0.19482600688934326 0.11977797746658325
vt 0.20115900039672852 0
vt 0.591825008392334 0
vt 0.44415900111198425 0.13288700580596924
vt 0.45117899775505066 0
vt 0 0
vt 0.064042001962661743 0
vt 0 0.057627975940704346
vt 0.97965502738952637 0
vt 0.94291502237319946 0.15897399187088013
vt 0.95131897926330566 0
vt 1 0.13409602642059326
vt 1 0
vt 0.70125699043273926 0
vt 0.85569798946380615 0
vt 0.6935420036315918 0.14592301845550537
vt 0 0.10955101251602173
vt 0.095306001603603363 0
vt 0 0.29510897397994995
vt 0.1815979927778244 0.36916697025299072
vt 0.43094301223754883 0.38225799798965454
vt 0.68033099174499512 0.39528900384902954
vt 1 0.19139301776885986
vt 0 0.35963702201843262
vt 0 0.53257599472999573
vt 0.92969101667404175 0.40836000442504883
vt 0.66707998514175415 0.64471098780632019
vt 1 0.62135601043701172
vt 0.9164389967918396 0.65778300166130066
vt 1 0.41206502914428711
vt 0.41769799590110779 0.63167199492454529
vt 0.1684039980173111 0.61850801110267639
vt 0 0.6096549928188324
vt 0.15519000589847565 0.86787700653076172
vt 0.40453499555587769 0.88096900284290314
vt 0 0.77001300454139709
vt 0.65385198593139648 0.89410199970006943
vt 1 0.70522800087928772
vt 0 0.85961699485778809
vt 0.14821000397205353 1
vt 0.27225199341773987 1
vt 0.39823400974273682 1
vt 0.53616297245025635 1
vt 0.90319901704788208 0.90719100087881088
vt 0 1
vt 0.00834100041538477 1
vt 1 0.91227900236845016
vt 0.89827197790145874 1
vt 0.96049100160598755 1
vt 1 1
vt 0.64823001623153687 1
vt 0.80007302761077881 1
vn -0.013872000388801098 0.99930799007415771 0.034515000879764557
vn -0.04925600066781044 0.99744999408721924 0.051646001636981964
vn -0.021130999550223351 0.99854397773742676 0.049635998904705048
vn -0.0065569998696446419 0.99416899681091309 0.10763099789619446
vn -0.041696999222040176 0.9963110089302063 0.07500699907541275
vn -0.0040980000048875809 0.99806499481201172 0.062043000012636185
vn -0.064681001007556915 0.99770998954772949 0.019793000072240829
vn -0.050241999328136444 0.99819701910018921 0.032823998481035233
vn -0.036198001354932785 0.99831002950668335 0.045471001416444778
vn -0.016788000240921974 0.9996340274810791 0.02121799997985363
vn -0.048457998782396317 0.99628698825836182 0.071162998676300049
vn -0.013400999829173088 0.99636000394821167 0.084186002612113953
vn -0.023523999378085136 0.99955600500106812 0.018280999734997749
vn -0.016788000240921974 0.9996340274810791 0.021220000460743904
vn -0.013391000218689442 0.99511897563934326 0.0977649986743927
vn -0.013589999638497829 0.9959380030632019 0.089009001851081848
vn -0.036566000431776047 0.99451297521591187 0.098012000322341919
vn -0.045657999813556671 0.997107982635498 0.06074799969792366
vn -0.020596999675035477 0.99801701307296753 0.05948600172996521
vn -0.071195997297763824 0.9954109787940979 0.063940003514289856
vn -0.056432999670505524 0.99729597568511963 0.047079998999834061
vn -0.0717179998755455 0.9932829737663269 0.0908069983124733
vn -0.070967003703117371 0.993170976638794 0.092605002224445343
vn -0.064406000077724457 0.99774301052093506 0.019013000652194023
vn -0.028062000870704651 0.99761700630187988 0.0630280002951622
vn -0.025061000138521194 0.99839097261428833 0.050857998430728912
vn -0.087139002978801727 0.994055986404419 0.065257996320724487
vn -0.07323099672794342 0.99400198459625244 0.081225000321865082
vn -0.094631999731063843 0.99518001079559326 0.02571599930524826
vn -0.085138998925685883 0.99427598714828491 0.06454399973154068
vn -0.0793360024690628 0.996599018573761 0.022258000448346138
vn -0.043226998299360275 0.99765801429748535 0.053006000816822052
vn -0.03221999853849411 0.99948102235794067 0.00074300001142546535
vn 0.039301000535488129 0.99839699268341064 0.040722999721765518
vn -0.036159999668598175 0.99933797121047974 -0.0040119998157024384
vn -0.020988000556826591 0.99832701683044434 0.053872000426054
vn -0.016301000490784645 0.99898397922515869 -0.042020000517368317
vn -0.071324996650218964 0.99632102251052856 0.04751100018620491
vn -0.0830100029706955 0.9954569935798645 0.046633001416921616
vn -0.082345001399517059 0.99330800771713257 -0.080981001257896423
vn -0.00674000009894371 0.99918097257614136 0.0399090014398098
vn -0.022308999672532082 0.99889802932739258 0.041296999901533127
vn -0.038570001721382141 0.99893999099731445 0.025107000023126602
vn -0.06086999922990799 0.99813598394393921 0.0044660000130534172
vn -0.084628000855445862 0.99470597505569458 0.058286998420953751
vn -0.095834001898765564 0.9921640157699585 -0.080164998769760132
vn -0.013890000060200691 0.99988299608230591 -0.0063910000026226044
vn -0.085078999400138855 0.99521201848983765 0.0481019988656044
vn -0.084115996956825256 0.99500399827957153 0.053780999034643173
vn -0.084443002939224243 0.99526798725128174 0.048071999102830887
vn -0.084441997110843658 0.99526798725128174 0.048073001205921173
vn -0.084668003022670746 0.99543297290802 0.044091999530792236
vn -0.083593003451824188 0.99451702833175659 0.06283300369977951
f 1/1/1 2/2/2 3/3/3
f 4/4/4 5/5/5 6/6/6
f 7/7/7 8/8/8 9/9/9
f 10/10/10 11/11/11 12/12/12
f 10/10/10 13/13/13 11/11/11
f 10/10/10 14/14/14 13/13/13
f 15/15/15 16/16/16 17/17/17
f 18/18/18 3/3/3 2/2/2
f 18/18/18 19/19/19 3/3/3
f 19/19/19 9/9/9 8/8/8
f 19/19/19 18/18/18 9/9/9
f 5/5/5 15/15/15 17/17/17
f 5/5/5 4/4/4 15/15/15
f 18/18/18 2/2/2 20/20/20
f 17/17/17 12/12/12 11/11/11
f 17/17/17 16/16/16 12/12/12
f 2/2/2 6/6/6 5/5/5
f 2/2/2 1/1/1 6/6/6
f 2/2/2 5/5/5 21/21/21
f 17/17/17 22/22/22 5/5/5
f 23/23/23 17/17/17 11/11/11
f 24/24/24 11/11/11 13/13/13
f 20/20/20 21/21/21 25/25/25
f 20/20/20 2/2/2 21/21/21
f 25/25/25 21/21/21 26/26/26
f 5/5/5 22/22/22 21/21/21
f 11/11/11 27/27/27 23/23/23
f 22/22/22 23/23/23 28/28/28
f 27/27/27 29/29/29 30/30/30
f 27/27/27 31/31/31 29/29/29
f 28/28/28 23/23/23 27/27/27
f 11/11/11 31/31/31 27/27/27
f 11/11/11 24/24/24 31/31/31
f 32/32/32 21/21/21 22/22/22
f 17/17/17 23/23/23 22/22/22
f 26/26/26 33/33/33 34/34/34
f 26/26/26 21/21/21 33/33/33
f 22/22/22 28/28/28 32/32/32
f 33/33/33 32/32/32 35/35/35
f 32/32/32 28/28/28 36/36/36
f 27/27/27 30/30/30 28/28/28
f 37/37/37 34/34/34 33/33/33
f 21/21/21 32/32/32 33/33/33
f 38/38/38 28/28/28 30/30/30
f 29/29/29 39/39/39 30/30/30
f 35/35/35 37/37/37 33/33/33
f 35/35/35 40/40/40 37/37/37
f 38/38/38 36/36/36 28/28/28
f 36/36/36 41/41/41 35/35/35
f 36/36/36 42/42/42 41/41/41
f 38/38/38 43/43/43 36/36/36
f 38/38/38 44/44/44 43/43/43
f 45/45/45 38/38/38 30/30/30
f 46/46/46 35/35/35 47/47/47
f 46/46/46 40/40/40 35/35/35
f 36/36/36 35/35/35 32/32/32
f 48/48/48 49/49/49 45/45/45
f 48/48/48 50/50/50 49/49/49
f 50/50/50 48/48/48 51/51/51
f 52/52/52 45/45/45 53/53/53
f 52/52/52 38/38/38 45/45/45
f 39/39/39 45/45/45 30/30/30
f 39/39/39 48/48/48 45/45/45
f 41/41/41 47/47/47 35/35/35
f 42/42/42 36/36/36 43/43/43
f 52/52/52 44/44/44 38/38/38
f 49/49/49 53/53/53 45/45/45
