mtllib m1222010.mtl
usemtl material0
v 64 0.16945700347423554 224
v 64 0.14785900712013245 224.41172790527344
v 64.370376586914062 0.11593499779701233 224
v 67.741043090820312 -0.19947899878025055 224
v 67.975082397460938 -0.25086000561714172 228.43827819824219
v 71.9675521850586 -0.60815697908401489 224
v 64 0.11972600221633911 228.64703369140625
v 75.737061023712158 -0.93968397378921509 224
v 75.9491810798645 -0.95275998115539551 228.01937866210938
v 64 0.15374000370502472 232.45738220214844
v 68.396377563476562 -0.2187269926071167 236.41567993164063
v 64 0.15208399295806885 236.64668297767639
v 64 0.14937999844551086 241.30291700363159
v 64 0.46643701195716858 252.64518737792969
v 67.659599304199219 0.43408301472663879 256
v 69.241828918457031 0.42457398772239685 252.36851501464844
v 64 0.46509900689125061 254.16281127929688
v 64 0.46347999572753906 256
v 64 0.32045501470565796 249.74887084960938
v 68.818717956542969 0.02480899915099144 244.39236497879028
v 64 0.25977399945259094 244.64608812332153
v 76.371619939804077 -0.6891859769821167 235.99598693847656
v 76.794136047363281 -0.41098299622535706 243.9725649356842
v 83.924133062362671 -1.4818309545516968 227.59989929199219
v 71.303459167480469 0.38460400700569153 256
v 79.5650329887867 -1.1664689779281616 224
v 84.346672058105469 -1.1982380151748657 235.5764307975769
v 83.734282970428467 -1.4445619583129883 224
v 91.8994369506836 -1.9386559724807739 227.18016147613525
v 84.769248962402344 -0.90733897686004639 243.55296301841736
v 92.322769165039062 -1.4944210052490234 235.15617418289185
v 87.162926197052 -1.5062010288238525 224
v 77.217323064804077 0.0039180000312626362 251.94866943359375
v 77.431519031524658 0.067319996654987335 256
v 85.191535949707031 -0.6735879778862 251.52967834472656
v 83.244658946990967 -0.42044100165367126 256
v 91.732368469238281 -1.7792390584945679 224
v 92.745223999023438 -1.2279369831085205 243.13276696205139
v 96 -1.901170015335083 226.96351623535156
v 96 -1.6751550436019898 231.06863403320313
v 96 -1.7106920480728149 234.96266222000122
v 96 -1.5449060201644898 239.514495998621
v 94.761062622070312 -1.7206339836120606 224
v 93.426567077636719 -0.82262700796127319 256
v 87.730414867401123 -0.57300502061843872 256
v 93.167274475097656 -1.0430120229721069 251.10964965820313
v 96 -1.0914989709854126 250.96022033691406
v 96 -0.94164299964904785 254.22898864746094
v 96 -0.86045199632644653 256
v 96 -1.35418701171875 242.96128797531128
v 96 -1.2283769845962524 247.96075391769409
v 96 -1.7557690143585205 224.66801452636719
v 96 -1.713454008102417 224
vt 0.99478298425674438 0.0032789707183837891
vt 0.98202300071716309 0.0033749938011169434
vt 0.99478298425674438 0.014860987663269043
vt 0.994937002658844 0.11963397264480591
vt 0.85758602619171143 0.12719601392745972
vt 0.99512702226638794 0.2510489821434021
vt 0.85094398260116577 0.0036489963531494141
vt 0.99529898166656494 0.36816102266311646
vt 0.87090301513671875 0.37491899728775024
vt 0.73301398754119873 0.0037249922752380371
vt 0.61070501804351807 0.14044898748397827
vt 0.60335999727249146 0.0039150118827819824
vt 0.45925599336624146 0.0041279792785644531
vt 0.1080470010638237 0.003961026668548584
vt 0.0041709998622536659 0.11718100309371948
vt 0.11652799695730209 0.1659809947013855
vt 0.06107800081372261 0.0039409995079040527
vt 0.0042200000025331974 0.00391697883605957
vt 0.1977979987859726 0.0040979981422424316
vt 0.36371400952339172 0.15335702896118164
vt 0.35573300719261169 0.0040529966354370117
vt 0.62388700246810913 0.38769102096557617
vt 0.376911997795105 0.4005429744720459
vt 0.88414400815963745 0.62226200103759766
vt 0.0041660000570118427 0.22984600067138672
vt 0.99545997381210327 0.48684000968933105
vt 0.63710701465606689 0.634999006986618
vt 0.99564498662948608 0.61615899205207825
vt 0.89730697870254517 0.86948299407958984
vt 0.39014700055122375 0.64782598614692688
vt 0.650048017501831 0.882022000849247
vt 0.99574297666549683 0.72229298949241638
vt 0.12970300018787384 0.41314601898193359
vt 0.0043029999360442162 0.41975498199462891
vt 0.14319799840450287 0.66079801321029663
vt 0.0046569998376071453 0.60029599070549011
vt 0.99583399295806885 0.86396400630474091
vt 0.40314999222755432 0.89487200230360031
vt 0.9036489725112915 0.99641399993561208
vt 0.77640897035598755 0.99612400005571544
vt 0.65588897466659546 0.996032000053674
vt 0.51525497436523438 0.99594199983403087
vt 0.99566298723220825 0.95837600156664848
vt 0.0048079998232424259 0.915682002902031
vt 0.004668000154197216 0.739205002784729
vt 0.15632399916648865 0.90789499878883362
vt 0.16087399423122406 0.99558100011199713
vt 0.059604000300168991 0.99542099982500076
vt 0.0047360002063214779 0.99533500010147691
vt 0.40841799974441528 0.99568000016734
vt 0.25384700298309326 0.99567400012165308
vt 0.97483402490615845 0.99665100011043251
vt 0.99554902315139771 0.99671999993734062
vn 0.14282800257205963 0.98838901519775391 0.051848001778125763
vn 0.10489500313997269 0.99433398246765137 0.017263000831007957
vn 0.10645300149917603 0.99414199590682983 0.018680000677704811
vn 0.094653002917766571 0.99548900127410889 0.0065330001525580883
vn 0.091176003217697144 0.99583297967910767 -0.0020890000741928816
vn 0.089910000562667847 0.99594998359680176 0.00070199999026954174
vn 0.09275200217962265 0.99568802118301392 -0.0013960000360384584
vn 0.0738620012998581 0.99726802110672 -0.00065399997401982546
vn 0.071708999574184418 0.99732500314712524 -0.014152999967336655
vn 0.090143002569675446 0.99590802192687988 -0.0064070001244544983
vn 0.070753000676631927 0.99731200933456421 -0.019065000116825104
vn 0.084072001278400421 0.99646002054214478 0.0004889999981969595
vn 0.055631000548601151 0.998134970664978 -0.025135999545454979
vn 0.0067239999771118164 0.99969202280044556 -0.023873999714851379
vn 0.010080000385642052 0.99994802474975586 0.0017729999963194132
vn 0.026544999331235886 0.99923902750015259 -0.028589000925421715
vn 0.00803299993276596 0.99996697902679443 0.000881000014487654
vn 0.00803299993276596 0.99996697902679443 0.000881000014487654
vn 0.015294999815523624 0.99902600049972534 -0.041381001472473145
vn 0.045060001313686371 0.99825799465179443 -0.03809799998998642
vn 0.04753199964761734 0.9986259937286377 -0.022063000127673149
vn 0.059096001088619232 0.99757498502731323 -0.036779001355171204
vn 0.055814001709222794 0.99736899137496948 -0.046252001076936722
vn 0.055877000093460083 0.99838501214981079 -0.010239999741315842
vn 0.038910999894142151 0.99918097257614136 -0.011092999950051308
vn 0.064576998353004456 0.99790000915527344 0.0050360001623630524
vn 0.050528001040220261 0.99788397550582886 -0.040924999862909317
vn 0.043095998466014862 0.9990379810333252 0.008070000447332859
vn 0.019913999363780022 0.99980199337005615 0.00028700000257231295
vn 0.051552001386880875 0.99794697761535645 -0.037994001060724258
vn 0.037783000618219376 0.99854797124862671 -0.038392998278141022
vn 0.048491001129150391 0.99814301729202271 0.036869999021291733
vn 0.064015001058578491 0.99735897779464722 -0.034302998334169388
vn 0.068180002272129059 0.99748802185058594 -0.019215000793337822
vn 0.058605000376701355 0.99771797657012939 -0.033537000417709351
vn 0.065316997468471527 0.99747097492218018 -0.028039000928401947
vn 0.021485999226570129 0.99857097864151 0.048928000032901764
vn 0.040924001485109329 0.99859398603439331 -0.033681001514196396
vn -0.0088179996237158775 0.99994200468063354 0.0061160000041127205
vn 0.00459699984639883 0.99918699264526367 -0.040045000612735748
vn 0.05803300067782402 0.99823200702667236 -0.012846999801695347
vn 0.051888998597860336 0.99782198667526245 -0.04073600098490715
vn -0.00939599983394146 0.99815601110458374 0.0599760003387928
vn 0.028733000159263611 0.99850398302078247 -0.046521000564098358
vn 0.040449000895023346 0.99814802408218384 -0.045430999249219894
vn 0.032347001135349274 0.99873501062393188 -0.038495000451803207
vn 0.014686999842524529 0.998848021030426 -0.045683000236749649
vn 0.014681000262498856 0.99884301424026489 -0.045791998505592346
vn 0.014681000262498856 0.99884301424026489 -0.045791998505592346
vn 0.036586999893188477 0.9985010027885437 -0.04069799929857254
vn 0.032131999731063843 0.99903601408004761 -0.029905000701546669
vn -0.0057830000296235085 0.99798297882080078 0.063213996589183807
vn -0.0057830000296235085 0.99798297882080078 0.063215002417564392
f 1/1/1 2/2/2 3/3/3
f 4/4/4 5/5/5 6/6/6
f 7/7/7 3/3/3 2/2/2
f 7/7/7 5/5/5 3/3/3
f 5/5/5 4/4/4 3/3/3
f 8/8/8 5/5/5 9/9/9
f 8/8/8 6/6/6 5/5/5
f 5/5/5 10/10/10 11/11/11
f 5/5/5 7/7/7 10/10/10
f 12/12/12 13/13/13 11/11/11
f 14/14/14 15/15/15 16/16/16
f 14/14/14 17/17/17 15/15/15
f 17/17/17 18/18/18 15/15/15
f 19/19/19 20/20/20 21/21/21
f 19/19/19 16/16/16 20/20/20
f 19/19/19 14/14/14 16/16/16
f 11/11/11 20/20/20 22/22/22
f 20/20/20 16/16/16 23/23/23
f 11/11/11 22/22/22 9/9/9
f 9/9/9 22/22/22 24/24/24
f 10/10/10 12/12/12 11/11/11
f 15/15/15 25/25/25 16/16/16
f 13/13/13 20/20/20 11/11/11
f 13/13/13 21/21/21 20/20/20
f 22/22/22 20/20/20 23/23/23
f 11/11/11 9/9/9 5/5/5
f 26/26/26 8/8/8 9/9/9
f 27/27/27 24/24/24 22/22/22
f 28/28/28 9/9/9 24/24/24
f 28/28/28 26/26/26 9/9/9
f 23/23/23 27/27/27 22/22/22
f 24/24/24 27/27/27 29/29/29
f 27/27/27 30/30/30 31/31/31
f 30/30/30 27/27/27 23/23/23
f 32/32/32 28/28/28 24/24/24
f 30/30/30 23/23/23 33/33/33
f 25/25/25 33/33/33 16/16/16
f 25/25/25 34/34/34 33/33/33
f 34/34/34 35/35/35 33/33/33
f 34/34/34 36/36/36 35/35/35
f 30/30/30 33/33/33 35/35/35
f 33/33/33 23/23/23 16/16/16
f 32/32/32 29/29/29 37/37/37
f 32/32/32 24/24/24 29/29/29
f 30/30/30 38/38/38 31/31/31
f 31/31/31 39/39/39 29/29/29
f 31/31/31 40/40/40 39/39/39
f 38/38/38 41/41/41 31/31/31
f 38/38/38 42/42/42 41/41/41
f 35/35/35 38/38/38 30/30/30
f 37/37/37 29/29/29 43/43/43
f 27/27/27 31/31/31 29/29/29
f 44/44/44 35/35/35 45/45/45
f 44/44/44 46/46/46 35/35/35
f 35/35/35 46/46/46 38/38/38
f 44/44/44 47/47/47 46/46/46
f 44/44/44 48/48/48 47/47/47
f 48/48/48 44/44/44 49/49/49
f 45/45/45 35/35/35 36/36/36
f 50/50/50 46/46/46 51/51/51
f 50/50/50 38/38/38 46/46/46
f 41/41/41 40/40/40 31/31/31
f 47/47/47 51/51/51 46/46/46
f 50/50/50 42/42/42 38/38/38
f 39/39/39 43/43/43 29/29/29
f 39/39/39 52/52/52 43/43/43
f 52/52/52 53/53/53 43/43/43
