mtllib m122222003.mtl
usemtl material0
v 8 0.17087599635124207 48
v 8 0.17027600109577179 48.066390991210938
v 8.05971908569336 0.1627890020608902 48
v 8 0.41677901148796082 50.178290963172913
v 8.53761601448059 0.40625301003456116 49.580727100372314
v 8 0.39188399910926819 49.609160900115967
v 8 0.45850300788879395 54.401175975799561
v 8.7490079402923584 0.57365602254867554 53.568904995918274
v 8 0.55510401725769043 53.6085170507431
v 8 0.3582099974155426 55.609076976776123
v 8.461021900177002 0.38034200668334961 56
v 8.8535110950469971 0.41444098949432373 55.563827991485596
v 8 0.35234001278877258 55.904948949813843
v 8 0.35045400261878967 56
v 8 0.36387398838996887 51.609187990427017
v 8 0.39355400204658508 52.289645999670029
v 8.6425070762634277 0.32613998651504517 51.575378000736237
v 8.45299506187439 0.17628900706768036 48
v 9.95966100692749 0.32914099097251892 48
v 10.53146505355835 0.29599401354789734 49.475784063339233
v 8.8764069080352783 0.38891500234603882 56
v 10.743445038795471 0.58302402496337891 53.463557958602905
v 10.848656058311462 0.56784802675247192 55.457984924316406
v 10.360874056816101 0.4981440007686615 56
v 10.637133955955505 0.37408098578453064 51.469893991947174
v 8 0.21818399429321289 48.399918079376221
v 10.453585982322693 0.30180099606513977 48
v 12.526395976543427 0.40594398975372314 49.370090007781982
v 10.87709903717041 0.53440397977828979 56
v 12.843200981616974 0.59918701648712158 55.352561950683594
v 12.260609000921249 0.5515819787979126 56
v 12.736459016799927 0.30284398794174194 53.359195947647095
v 11.002903997898102 0.33187800645828247 48
v 12.453680992126465 0.33014601469039917 48
v 13.759122014045715 0.4324670135974884 48
v 12.631519973278046 0.37319299578666687 51.364578008651733
v 14.62639594078064 0.47191199660301208 51.25892299413681
v 14.731570959091187 0.44941401481628418 53.253379940986633
v 12.877237975597382 0.57143902778625488 56
v 14.160108089447022 0.47680899500846863 56
v 14.836889028549194 0.45620998740196228 55.247730016708374
v 14.520507097244263 0.348904013633728 49.264969110488892
v 14.454042911529541 0.4108549952507019 48
v 15.658353090286255 0.21155300736427307 48
v 16 0.35041698813438416 49.1868360042572
v 16 0.38392600417137146 49.732017993927
v 16 0.40818199515342712 51.843467995524406
v 16 0.41411799192428589 51.186568975448608
v 14.87693190574646 0.5208590030670166 56
v 16 0.45940500497817993 53.186362981796265
v 16 0.46169900894165039 53.954975008964539
v 16 0.56356501579284668 55.185970067977905
v 16 0.62635302543640137 55.963078022003174
v 16 0.62933599948883057 56
v 16 0.26715001463890076 48.462536096572876
v 16 0.21397599577903748 48
vt 0.99473702907562256 0.015739977359771729
vt 0.98660802841186523 0.015749990940093994
vt 0.99473702907562256 0.023118972778320312
vt 0.72601097822189331 0.013849020004272461
vt 0.79853397607803345 0.080404996871948242
vt 0.79576301574707031 0.014517009258270264
vt 0.20684899389743805 0.0070869922637939453
vt 0.30793601274490356 0.102603018283844
vt 0.30460798740386963 0.00903099775314331
vt 0.058490000665187836 0.003032982349395752
vt 0.0098299998790025711 0.058869004249572754
vt 0.062788002192974091 0.11339002847671509
vt 0.022258000448346138 0.002481997013092041
vt 0.010618999600410461 0.0023040175437927246
vt 0.55068600177764893 0.0123940110206604
vt 0.46729299426078796 0.011309027671813965
vt 0.55399799346923828 0.091242015361785889
vt 0.99419099092483521 0.071300983428955078
vt 0.99035400152206421 0.25669699907302856
vt 0.80896002054214478 0.32503700256347656
vt 0.00926399976015091 0.11569899320602417
vt 0.3188839852809906 0.34691601991653442
vt 0.074596002697944641 0.35847097635269165
vt 0.0083889998495578766 0.29795902967453003
vt 0.564428985118866 0.33566999435424805
vt 0.94534999132156372 0.015483975410461426
vt 0.98975402116775513 0.31726700067520142
vt 0.81901901960372925 0.56981900334358215
vt 0.0080490000545978546 0.36076498031616211
vt 0.083247996866703033 0.60007300972938538
vt 0.0051509998738765717 0.53016200661659241
vt 0.33012199401855469 0.59017899632453918
vt 0.98911499977111816 0.38462698459625244
vt 0.98711901903152466 0.56255900859832764
vt 0.98488497734069824 0.72288298606872559
vt 0.57463699579238892 0.58000698685646057
vt 0.58435600996017456 0.82472400367259979
vt 0.3404960036277771 0.83525800704956055
vt 0.0053880000486969948 0.60570600628852844
vt 0.0028510000556707382 0.76146900653839111
vt 0.094489999115467072 0.84490300714969635
vt 0.82909500598907471 0.81422600150108337
vt 0.98425298929214478 0.807765007019043
vt 0.98154699802398682 0.95721200108528137
vt 0.836804986000061 0.99547600001096725
vt 0.76992601156234741 0.994801000226289
vt 0.51159101724624634 0.99235800001770258
vt 0.59178799390792847 0.99313700012862682
vt 0.0020159999839961529 0.84940400719642639
vt 0.34704399108886719 0.990659000352025
vt 0.25139400362968445 0.98885800037533045
vt 0.10014799982309341 0.9880170002579689
vt 0.0048480001278221607 0.987572000361979
vt 0.000311999989207834 0.987550999969244
vt 0.92606097459793091 0.99726499989628792
vt 0.98306900262832642 0.99769599991850555
vn 0.13418500125408173 0.99091601371765137 0.0089560002088546753
vn 0.0054509998299181461 0.99422097206115723 -0.10721399635076523
vn 0.010919000022113323 0.99468898773193359 -0.1023470014333725
vn 0.039678998291492462 0.99904900789260864 0.018100999295711517
vn 0.0041049998253583908 0.999002993106842 -0.044452998787164688
vn -0.031438998878002167 0.99531400203704834 -0.091436997056007385
vn -0.051205001771450043 0.99448597431182861 0.091514997184276581
vn -0.022933000698685646 0.99965000152587891 -0.01322999969124794
vn -0.02456199936568737 0.99969100952148438 0.0037809999193996191
vn -0.063011996448040009 0.99675500392913818 0.050094000995159149
vn -0.052944999188184738 0.998134970664978 0.03038799948990345
vn -0.053899001330137253 0.99688601493835449 0.057562999427318573
vn -0.0646819993853569 0.99770998954772949 0.019794000312685966
vn -0.064681001007556915 0.99770998954772949 0.019794000312685966
vn 0.058382000774145126 0.9982830286026001 -0.0046620001085102558
vn -0.010688000358641148 0.99457401037216187 -0.10348399728536606
vn 0.014677000232040882 0.99901098012924194 -0.041972000151872635
vn -0.065681003034114838 0.98794102668762207 -0.14021000266075134
vn 0.013555999845266342 0.999239981174469 -0.036550998687744141
vn -0.01017799973487854 0.9999229907989502 -0.0071399998851120472
vn -0.047766998410224915 0.99700301885604858 0.060853000730276108
vn 0.035516001284122467 0.99753701686859131 -0.060479998588562012
vn -0.0438309982419014 0.99837297201156616 0.036467999219894409
vn -0.072357997298240662 0.99539399147033691 0.062891997396945953
vn -0.0014769999543204904 0.99876201152801514 -0.049717999994754791
vn -0.033957000821828842 0.98926901817321777 -0.14210100471973419
vn 0.002145000034943223 0.99998998641967773 0.0038219999987632036
vn -0.012210000306367874 0.99991101026535034 -0.0052880002185702324
vn -0.040263000875711441 0.997160017490387 0.063639998435974121
vn 0.026243999600410461 0.9995570182800293 -0.014010000042617321
vn -0.01766199991106987 0.99818897247314453 0.057500999420881271
vn 0.014372999779880047 0.99693697690963745 -0.076872996985912323
vn -0.0416640006005764 0.999101996421814 -0.007681999821215868
vn -0.037064000964164734 0.99789398908615112 -0.053238999098539352
vn 0.0019069999689236283 0.99977600574493408 0.021069999784231186
vn -0.013863000087440014 0.999763011932373 0.016813000664114952
vn -0.012895000167191029 0.99978697299957275 -0.016096999868750572
vn -0.017281999811530113 0.99966001510620117 -0.019530000165104866
vn 0.022499000653624535 0.99888002872467041 0.041627001017332077
vn 0.037590000778436661 0.99927198886871338 0.0064559997990727425
vn -0.01762700080871582 0.9991220235824585 -0.038005001842975616
vn 0.023586999624967575 0.99955302476882935 -0.018362000584602356
vn 0.094912000000476837 0.99452501535415649 0.043719001114368439
vn 0.038506999611854553 0.99654597043991089 -0.073568001389503479
vn -0.0057029998861253262 0.99604302644729614 -0.088691003620624542
vn 0.0062779998406767845 0.99863302707672119 -0.051897000521421432
vn 0.030305000022053719 0.99953901767730713 -0.0019670000765472651
vn 0.041703000664711 0.99910998344421387 -0.00635500019416213
vn -0.0791499987244606 0.993552029132843 -0.081170998513698578
vn -0.008991999551653862 0.99973601102828979 -0.021141000092029572
vn -0.028656000271439552 0.99935698509216309 -0.021539999172091484
vn -0.0958779975771904 0.99207901954650879 -0.0811539962887764
vn -0.095833003520965576 0.9921640157699585 -0.080164000391960144
vn -0.095833003520965576 0.9921640157699585 -0.080164998769760132
vn -0.0070480001159012318 0.99343198537826538 -0.11420600116252899
vn -0.0070469998754560947 0.99343198537826538 -0.11420699954032898
f 1/1/1 2/2/2 3/3/3
f 4/4/4 5/5/5 6/6/6
f 7/7/7 8/8/8 9/9/9
f 10/10/10 11/11/11 12/12/12
f 10/10/10 13/13/13 11/11/11
f 13/13/13 14/14/14 11/11/11
f 15/15/15 16/16/16 17/17/17
f 5/5/5 15/15/15 17/17/17
f 5/5/5 4/4/4 15/15/15
f 18/18/18 5/5/5 19/19/19
f 8/8/8 10/10/10 12/12/12
f 8/8/8 7/7/7 10/10/10
f 20/20/20 5/5/5 17/17/17
f 21/21/21 12/12/12 11/11/11
f 12/12/12 22/22/22 8/8/8
f 21/21/21 23/23/23 12/12/12
f 21/21/21 24/24/24 23/23/23
f 17/17/17 8/8/8 25/25/25
f 17/17/17 9/9/9 8/8/8
f 17/17/17 16/16/16 9/9/9
f 18/18/18 6/6/6 5/5/5
f 18/18/18 26/26/26 6/6/6
f 26/26/26 3/3/3 2/2/2
f 26/26/26 18/18/18 3/3/3
f 19/19/19 20/20/20 27/27/27
f 19/19/19 5/5/5 20/20/20
f 25/25/25 20/20/20 17/17/17
f 8/8/8 22/22/22 25/25/25
f 20/20/20 25/25/25 28/28/28
f 24/24/24 29/29/29 23/23/23
f 22/22/22 23/23/23 30/30/30
f 23/23/23 31/31/31 30/30/30
f 23/23/23 29/29/29 31/31/31
f 32/32/32 25/25/25 22/22/22
f 12/12/12 23/23/23 22/22/22
f 33/33/33 20/20/20 28/28/28
f 33/33/33 27/27/27 20/20/20
f 33/33/33 28/28/28 34/34/34
f 34/34/34 28/28/28 35/35/35
f 25/25/25 36/36/36 28/28/28
f 22/22/22 30/30/30 32/32/32
f 36/36/36 32/32/32 37/37/37
f 32/32/32 30/30/30 38/38/38
f 31/31/31 39/39/39 30/30/30
f 40/40/40 30/30/30 39/39/39
f 40/40/40 41/41/41 30/30/30
f 42/42/42 28/28/28 36/36/36
f 25/25/25 32/32/32 36/36/36
f 37/37/37 42/42/42 36/36/36
f 43/43/43 42/42/42 44/44/44
f 38/38/38 37/37/37 32/32/32
f 45/45/45 37/37/37 46/46/46
f 45/45/45 42/42/42 37/37/37
f 47/47/47 37/37/37 38/38/38
f 47/47/47 48/48/48 37/37/37
f 42/42/42 35/35/35 28/28/28
f 42/42/42 43/43/43 35/35/35
f 49/49/49 41/41/41 40/40/40
f 41/41/41 50/50/50 38/38/38
f 41/41/41 51/51/51 50/50/50
f 52/52/52 41/41/41 53/53/53
f 53/53/53 49/49/49 54/54/54
f 53/53/53 41/41/41 49/49/49
f 41/41/41 38/38/38 30/30/30
f 45/45/45 44/44/44 42/42/42
f 45/45/45 55/55/55 44/44/44
f 55/55/55 56/56/56 44/44/44
f 48/48/48 46/46/46 37/37/37
f 52/52/52 51/51/51 41/41/41
f 50/50/50 47/47/47 38/38/38
