mtllib m122301.mtl
usemtl material0
v 320 -2.2952139377593994 192
v 320 -1.9386160373687744 201.68307495117188
v 328.70986938476562 -2.9869840145111084 192
v 320 -0.8932340145111084 218.5765380859375
v 330.80404663085938 -2.1635611057281494 206.56533813476563
v 320 -1.5915889739990234 207.13407897949219
v 330.030517578125 -3.0524740219116211 192
v 343.90542602539062 -3.7562639713287354 192
v 320 -0.58791100978851318 223.1304469704628
v 331.6514892578125 -1.1305439472198486 222.51686096191406
v 320 -0.93436300754547119 239.13101196289063
v 320 -1.0875580310821533 252.35845947265625
v 332.49359130859375 -1.1674070358276367 238.47200012207031
v 320 -0.92952001094818115 235.46763610839844
v 347.60339403152466 -1.7743879556655884 221.67649793624878
v 333.33050537109375 -2.23899507522583 254.43060302734375
v 348.44888305664062 -1.135970950126648 237.62934875488281
v 320 -1.2626290321350098 255.13153076171875
v 320 -1.2894190549850464 256
v 333.41305541992188 -2.2935869693756104 256
v 320 -1.2705589532852173 255.38859558105469
v 346.75399780273438 -3.1965579986572266 205.72628784179688
v 362.0238037109375 -4.190587043762207 192
v 362.70706176757812 -3.6085491180419922 204.88514709472656
v 359.10180711746216 -4.1222758293151855 192
v 346.02578687667847 -3.8876059055328369 192
v 378.0257568359375 -3.7428410053253174 192
v 378.66238403320312 -3.5704269409179688 204.04248046875
v 374.29962158203125 -3.7545289993286133 192
v 384 -3.8278820514678955 192
v 384 -3.735814094543457 198.10946655273438
v 379.50918579101562 -2.6692440509796143 219.99443101882935
v 363.555908203125 -2.2981929779052734 220.8357241153717
v 364.4031982421875 -1.298941969871521 236.78736877441406
v 380.35763549804688 -1.4380639791488648 235.94529724121094
v 349.28549194335938 -2.2676160335540771 253.58816528320313
v 384 -3.2017190456390381 215.00181579589844
v 384 -3.8681409358978271 203.76153564453125
v 384 -2.7374269962310791 219.75750684738159
v 384 -1.7933440208435059 231.89610290527344
v 384 -1.5198990106582642 235.75320434570313
v 381.20364379882812 -0.695231020450592 251.89779663085938
v 384 -1.4223660230636597 239.22216796875
v 365.244384765625 -1.5160529613494873 252.74310302734375
v 349.41223096847534 -2.3746089935302734 256
v 347.11538696289062 -2.3431971073150635 256
v 362.31356811523438 -1.7989480495452881 256
v 377.51190185546875 -1.1834410429000855 256
v 365.41506958007812 -1.7566800117492676 256
v 381.41839599609375 -1.0412219762802124 256
v 384 -0.81275999546051025 251.75050354003906
v 384 -0.90650498867034912 252.8948974609375
v 384 -1.160863995552063 256
vt 0.9976469874382019 0.002884984016418457
vt 0.84766697883605957 0.0024480223655700684
vt 0.9976469874382019 0.13812500238418579
vt 0.58568602800369263 0.0012570023536682129
vt 0.77169597148895264 0.16953200101852417
vt 0.76312398910522461 0.0020570158958435059
vt 0.9976159930229187 0.15859097242355347
vt 0.99731200933456421 0.37362897396087646
vt 0.51504099369049072 0.00091898441314697266
vt 0.5242149829864502 0.18147802352905273
vt 0.267304003238678 0.00075101852416992188
vt 0.062550999224185944 0.00051200389862060547
vt 0.27723699808120728 0.1941789984703064
vt 0.32400700449943542 0.00082802772521972656
vt 0.53659200668334961 0.42862200736999512
vt 0.029624000191688538 0.20629000663757324
vt 0.28941300511360168 0.44060397148132324
vt 0.019542999565601349 0.00056797266006469727
vt 0.0060939998365938663 0.00054699182510375977
vt 0.00531500019133091 0.20750999450683594
vt 0.015561999753117561 0.00056302547454833984
vt 0.78451400995254517 0.41693800687789917
vt 0.99654102325439453 0.65417900681495667
vt 0.79661297798156738 0.66398799419403076
vt 0.99666798114776611 0.608938992023468
vt 0.99728697538375854 0.40651202201843262
vt 0.99499601125717163 0.90199299901723862
vt 0.80823701620101929 0.91102299839258194
vt 0.99525797367095947 0.84431900084018707
vt 0.99430000782012939 0.9944879999384284
vt 0.89972597360610962 0.99406199995428324
vt 0.56086397171020508 0.92276299744844437
vt 0.548820972442627 0.67571499943733215
vt 0.30136999487876892 0.68761900067329407
vt 0.31322500109672546 0.93463700264692307
vt 0.042052999138832092 0.453279972076416
vt 0.63810300827026367 0.99280299991369247
vt 0.81238698959350586 0.99377899989485741
vt 0.56430202722549438 0.99229300022125244
vt 0.37585100531578064 0.99133700039237738
vt 0.31665599346160889 0.99072800017893314
vt 0.0665540024638176 0.94699199870228767
vt 0.26294100284576416 0.9908830001950264
vt 0.054324999451637268 0.69959801435470581
vt 0.004674999974668026 0.45504897832870483
vt 0.0047829998657107353 0.41960102319717407
vt 0.0040509998798370361 0.65493899583816528
vt 0.0030819999519735575 0.88932699710130692
vt 0.0037579999770969152 0.701878011226654
vt 0.0028099999763071537 0.9498319998383522
vt 0.068792998790740967 0.9903159998357296
vt 0.050574000924825668 0.99020100012421608
vt 0.0023529999889433384 0.98983199987560511
vn 0.079121001064777374 0.99619001150131226 -0.036687001585960388
vn 0.056354999542236328 0.9967690110206604 -0.0572270005941391
vn 0.057337000966072083 0.99676400423049927 -0.056343000382184982
vn 0.044456999748945236 0.99686598777771 -0.06544099748134613
vn 0.053192999213933945 0.99657100439071655 -0.063382998108863831
vn 0.049504000693559647 0.99684101343154907 -0.0621040016412735
vn 0.049975000321865082 0.9967309832572937 -0.06348399817943573
vn 0.058761000633239746 0.99669301509857178 -0.056132998317480087
vn 0.04556800052523613 0.99879902601242065 -0.01800600066781044
vn 0.041219998151063919 0.99860900640487671 -0.032866001129150391
vn 0.018998000770807266 0.9997979998588562 0.0066220001317560673
vn 0.06293100118637085 0.996720016002655 0.050887998193502426
vn 0.021575000137090683 0.99953699111938477 0.021445000544190407
vn 0.025547999888658524 0.999646008014679 0.0074689998291432858
vn 0.028037000447511673 0.997767984867096 -0.0606050007045269
vn 0.039510000497102737 0.99800598621368408 0.049226999282836914
vn 0.00052100000903010368 0.99998801946640015 0.004925999790430069
vn 0.075390003621578217 0.99607902765274048 0.046293001621961594
vn 0.074620999395847321 0.9967380166053772 0.030747000128030777
vn 0.037925999611616135 0.998744010925293 0.032747000455856323
vn 0.074620999395847321 0.9967380166053772 0.030747000128030777
vn 0.038809999823570251 0.99699699878692627 -0.067018002271652222
vn -0.0050659999251365662 0.99898099899291992 -0.044856999069452286
vn 0.0080270003527402878 0.99834799766540527 -0.056889001280069351
vn 0.021898999810218811 0.99862402677536011 -0.047648999840021133
vn 0.040548000484704971 0.9978029727935791 -0.052386000752449036
vn 0.0052559999749064445 0.99988001585006714 -0.014592999592423439
vn 0.019922999665141106 0.99931001663208008 -0.031341001391410828
vn -0.011772000230848789 0.99968999624252319 -0.021917000412940979
vn 0.014232000336050987 0.99978500604629517 -0.015065999701619148
vn 0.024202000349760056 0.999688982963562 -0.0060939998365938663
vn 0.015312000177800655 0.99714702367782593 -0.073913998901844025
vn 0.020517999306321144 0.99724102020263672 -0.07133299857378006
vn 0.0019600000232458115 0.99942302703857422 -0.033907998353242874
vn 0.013981999829411507 0.99815201759338379 -0.059131000190973282
vn -0.018363999202847481 0.99818897247314453 0.057275000959634781
vn 0.042626000940799713 0.9967769980430603 -0.0679669976234436
vn 0.054818000644445419 0.99835997819900513 -0.016476999968290329
vn 0.010497000068426132 0.99609202146530151 -0.087690003216266632
vn 0.012821000069379807 0.99702900648117065 -0.075947999954223633
vn 0.019789999350905418 0.99854600429534912 -0.050140999257564545
vn 0.0054410002194345 0.99968099594116211 0.0246799997985363
vn 0.034474998712539673 0.99847602844238281 -0.043104000389575958
vn -0.035746000707149506 0.99815899133682251 0.04899900034070015
vn -0.016398999840021133 0.99884498119354248 0.04517199844121933
vn 0.0063000000081956387 0.99929600954055786 0.036984000355005264
vn -0.036277998238801956 0.99787998199462891 0.054030001163482666
vn -0.044279001653194427 0.99591600894927979 0.078676998615264893
vn -0.030931999906897545 0.99668401479721069 0.075258001685142517
vn 0.0063249999657273293 0.99646997451782227 0.083714000880718231
vn 0.042743999511003494 0.9989820122718811 0.014387000352144241
vn 0.046140000224113464 0.99559998512268066 0.08155599981546402
vn 0.046140000224113464 0.99559998512268066 0.08155599981546402
f 1/1/1 2/2/2 3/3/3
f 4/4/4 5/5/5 6/6/6
f 3/3/3 5/5/5 7/7/7
f 3/3/3 6/6/6 5/5/5
f 3/3/3 2/2/2 6/6/6
f 7/7/7 5/5/5 8/8/8
f 5/5/5 9/9/9 10/10/10
f 5/5/5 4/4/4 9/9/9
f 11/11/11 12/12/12 13/13/13
f 11/11/11 10/10/10 14/14/14
f 11/11/11 13/13/13 10/10/10
f 13/13/13 15/15/15 10/10/10
f 16/16/16 17/17/17 13/13/13
f 18/18/18 13/13/13 12/12/12
f 18/18/18 16/16/16 13/13/13
f 9/9/9 14/14/14 10/10/10
f 19/19/19 20/20/20 21/21/21
f 21/21/21 16/16/16 18/18/18
f 21/21/21 20/20/20 16/16/16
f 5/5/5 10/10/10 22/22/22
f 23/23/23 22/22/22 24/24/24
f 23/23/23 25/25/25 22/22/22
f 26/26/26 22/22/22 25/25/25
f 27/27/27 24/24/24 28/28/28
f 27/27/27 29/29/29 24/24/24
f 23/23/23 24/24/24 29/29/29
f 30/30/30 28/28/28 31/31/31
f 30/30/30 27/27/27 28/28/28
f 28/28/28 24/24/24 32/32/32
f 24/24/24 22/22/22 33/33/33
f 17/17/17 15/15/15 13/13/13
f 15/15/15 17/17/17 33/33/33
f 32/32/32 33/33/33 34/34/34
f 33/33/33 32/32/32 24/24/24
f 32/32/32 34/34/34 35/35/35
f 34/34/34 33/33/33 17/17/17
f 22/22/22 15/15/15 33/33/33
f 17/17/17 16/16/16 36/36/36
f 37/37/37 28/28/28 32/32/32
f 37/37/37 38/38/38 28/28/28
f 15/15/15 22/22/22 10/10/10
f 37/37/37 32/32/32 39/39/39
f 40/40/40 35/35/35 41/41/41
f 39/39/39 35/35/35 40/40/40
f 39/39/39 32/32/32 35/35/35
f 34/34/34 42/42/42 35/35/35
f 41/41/41 35/35/35 43/43/43
f 31/31/31 28/28/28 38/38/38
f 17/17/17 44/44/44 34/34/34
f 22/22/22 8/8/8 5/5/5
f 22/22/22 26/26/26 8/8/8
f 45/45/45 36/36/36 46/46/46
f 36/36/36 47/47/47 44/44/44
f 36/36/36 45/45/45 47/47/47
f 44/44/44 48/48/48 42/42/42
f 44/44/44 49/49/49 48/48/48
f 48/48/48 50/50/50 42/42/42
f 51/51/51 42/42/42 52/52/52
f 52/52/52 50/50/50 53/53/53
f 52/52/52 42/42/42 50/50/50
f 34/34/34 44/44/44 42/42/42
f 47/47/47 49/49/49 44/44/44
f 17/17/17 36/36/36 44/44/44
f 20/20/20 36/36/36 16/16/16
f 20/20/20 46/46/46 36/36/36
f 43/43/43 42/42/42 51/51/51
f 43/43/43 35/35/35 42/42/42
