mtllib m12222330.mtl
usemtl material0
v 97.893730163574219 -0.30617800354957581 16
v 100.90251207351685 -0.15925599634647369 18.705820083618164
v 100.75890398025513 -0.3096340000629425 16
v 102.1168440580368 -0.28209701180458069 16
v 104.89164000749588 -0.089853003621101379 18.494946002960205
v 104.75914800167084 -0.24317699670791626 16
v 96 -0.32724100351333618 16
v 96.913497924804688 -0.207178995013237 18.916619777679443
v 96.7589340209961 -0.3221299946308136 16
v 96 -0.24541699886322022 18.095057964324951
v 106.34050798416138 -0.19498500227928162 16
v 108.88095903396606 0.019096000120043755 18.283936023712158
v 108.75995588302612 -0.0664450004696846 16
v 96 0.031143000349402428 21.892187118530273
v 97.125679016113281 0.1189429983496666 22.904255032539368
v 96 -0.20753300189971924 18.964860916137695
v 96 -0.23756599426269531 18.275323867797852
v 105.10379004478455 0.22943399846553803 22.482602953910828
v 109.09297180175781 0.3100619912147522 22.271690011024475
v 101.11454010009766 0.13561700284481049 22.693562030792236
v 96 0.12057399749755859 22.963693976402283
v 96 0.30977699160575867 25.689298987388611
v 97.337615966796875 0.39623299241065979 26.892056941986084
v 105.31577301025391 0.51502501964569092 26.470376968383789
v 109.30461120605469 0.52631902694702148 26.259702920913696
v 101.32655310630798 0.42706701159477234 26.681315898895264
v 112 0.12223800271749497 19.040213108062744
v 112 0.055792998522520065 18.119112014770508
v 110.9357762336731 -0.012187999673187733 16
v 112 0.29729399085044861 22.118219017982483
v 112 0.030848000198602676 17.140670776367188
v 112 0.001766999950632453 16
v 112 0.37665000557899475 24.886592984199524
v 96 0.43485501408576965 26.962569952011108
v 101.53853607177734 0.7126539945602417 30.669089794158936
v 105.52761101722717 0.77229100465774536 30.458250045776367
v 96 0.60507798194885254 29.486279010772705
v 97.549483776092529 0.65984702110290527 30.879908084869385
v 109.51603698730469 0.70008999109268188 30.247861862182617
v 96 0.73422598838806152 32
v 97.608832836151123 0.70124399662017822 32
v 96 0.72046899795532227 31.638397216796875
v 96 0.694720983505249 30.96162223815918
v 105.60915398597717 0.80171197652816772 32
v 103.01824998855591 0.76047998666763306 32
v 109.60874891281128 0.74232202768325806 32
v 107.24134111404419 0.782056987285614 32
v 101.60906195640564 0.76461297273635864 32
v 98.795005798339844 0.72167497873306274 32
v 111.73883104324341 0.66000699996948242 32
v 112 0.600678026676178 30.117005825042725
v 112 0.64232301712036133 31.709679126739502
v 112 0.50684100389480591 27.486601114273071
v 112 0.44517898559570312 26.117624044418335
v 112 0.65270102024078369 32
vt 0 0.11835801601409912
vt 0.16911399364471436 0.30640697479248047
vt 0 0.29743099212646484
vt 0 0.38230299949645996
vt 0.15593400597572327 0.55572700500488281
vt 0 0.547446995973587
vt 0 0
vt 0.1822890043258667 0.057093977928161621
vt 0 0.047433018684387207
vt 0.1309410035610199 0
vt 0 0.64628198742866516
vt 0.14274600148200989 0.8050599992275238
vt 0 0.79749700427055359
vt 0.36826199293136597 0
vt 0.43151599168777466 0.070354998111724854
vt 0.18530400097370148 0
vt 0.14220799505710602 0
vt 0.4051629900932312 0.56898701190948486
vt 0.39198100566864014 0.81831100583076477
vt 0.41834801435470581 0.31965899467468262
vt 0.43523100018501282 0
vt 0.60558098554611206 0
vt 0.68075400590896606 0.083600997924804688
vt 0.65439897775650024 0.58223599195480347
vt 0.6412310004234314 0.83153800666332245
vt 0.66758197546005249 0.33291000127792358
vt 0.19001300632953644 1
vt 0.13244499266147614 1
vt 0 0.93348599970340729
vt 0.38238900899887085 1
vt 0.071291998028755188 1
vt 0 1
vt 0.55541199445724487 1
vt 0.68516099452972412 0
vt 0.91681802272796631 0.34615898132324219
vt 0.9036409854888916 0.59547600150108337
vt 0.84289199113845825 0
vt 0.92999398708343506 0.09684300422668457
vt 0.89049100875854492 0.8447519987821579
vt 1 0
vt 1 0.1005520224571228
vt 0.977400004863739 0
vt 0.9351009726524353 0
vt 1 0.60057199001312256
vt 1 0.4386410117149353
vt 1 0.85054700076580048
vt 1 0.70258399844169617
vt 1 0.350566029548645
vt 1 0.17468798160552979
vt 1 0.98367699980735779
vt 0.88231301307678223 1
vt 0.98185497522354126 1
vt 0.71791297197341919 1
vt 0.63235199451446533 1
vt 1 1
vn -0.0087869996204972267 0.99897199869155884 -0.044472001492977142
vn -0.017997000366449356 0.99774599075317383 -0.064644001424312592
vn -0.012675000354647636 0.998416006565094 -0.054815001785755157
vn -0.016582999378442764 0.99815100431442261 -0.05846799910068512
vn -0.024327000603079796 0.99733400344848633 -0.0687979981303215
vn -0.025279000401496887 0.9978790283203125 -0.059980999678373337
vn -0.00672899978235364 0.99921602010726929 -0.039025001227855682
vn -0.011223999783396721 0.99783998727798462 -0.064730003476142883
vn -0.011113000102341175 0.99918597936630249 -0.038791000843048096
vn -0.006407999899238348 0.99920397996902466 -0.0393810011446476
vn -0.0440870001912117 0.99803602695465088 -0.044509999454021454
vn -0.0266100000590086 0.99797499179840088 -0.057773001492023468
vn -0.039723001420497894 0.99858701229095459 -0.0352960005402565
vn -0.0044209999032318592 0.99665999412536621 -0.081546001136302948
vn -0.0078859999775886536 0.99721699953079224 -0.074133999645709991
vn -0.0042989999055862427 0.99724197387695312 -0.074088998138904572
vn -0.0026849999558180571 0.99904900789260864 -0.043513000011444092
vn -0.021630000323057175 0.99727201461791992 -0.070577003061771393
vn -0.012536999769508839 0.99799597263336182 -0.062022998929023743
vn -0.018744999542832375 0.99712902307510376 -0.07336600124835968
vn -0.0024190000258386135 0.99731600284576416 -0.073183998465538025
vn 0.0022579999640583992 0.99724102020263672 -0.074193999171257019
vn -0.00573199987411499 0.99760299921035767 -0.068961001932621
vn -0.012559999711811543 0.99787002801895142 -0.0640140026807785
vn 0.002997000003233552 0.99855101108551025 -0.053736001253128052
vn -0.016754999756813049 0.99744099378585815 -0.069504000246524811
vn -0.0092569999396801 0.99775600433349609 -0.06632000207901001
vn -0.013763000257313252 0.99918299913406372 -0.037987999618053436
vn -0.01729699969291687 0.999422013759613 -0.029250999912619591
vn 0.0020930001046508551 0.99905198812484741 -0.043474998325109482
vn -0.013106999918818474 0.99958902597427368 -0.025483999401330948
vn -0.013106999918818474 0.99958902597427368 -0.025483999401330948
vn 0.018422000110149384 0.99877601861953735 -0.045912999659776688
vn 0.024692000821232796 0.99668502807617188 -0.077514998614788055
vn -0.015065999701619148 0.99820798635482788 -0.057914000004529953
vn -0.0053229997865855694 0.99855101108551025 -0.053557001054286957
vn 0.024067999795079231 0.99753201007843018 -0.06596200168132782
vn -0.0045440001413226128 0.998429000377655 -0.055840998888015747
vn 0.017605999484658241 0.99887698888778687 -0.043985001742839813
vn 0.02048099972307682 0.99906700849533081 -0.038008999079465866
vn 0.0069160000421106815 0.99927997589111328 -0.037298001348972321
vn 0.02048099972307682 0.99906700849533081 -0.038008999079465866
vn 0.019647000357508659 0.99837297201156616 -0.053530000150203705
vn -0.010112999938428402 0.99977701902389526 -0.018543999642133713
vn -0.00927099958062172 0.999629020690918 -0.025614000856876373
vn 0.022440999746322632 0.99942898750305176 -0.025276999920606613
vn 0.01484300009906292 0.999629020690918 -0.02283100038766861
vn -0.011952999979257584 0.9991919994354248 -0.038375001400709152
vn -0.015828000381588936 0.9991689920425415 -0.037551999092102051
vn 0.0385110005736351 0.99891501665115356 -0.026202000677585602
vn 0.038313999772071838 0.998769998550415 -0.031477998942136765
vn 0.036959998309612274 0.9989359974861145 -0.027597999200224876
vn 0.030970999971032143 0.99863600730896 -0.042029999196529388
vn 0.027419000864028931 0.99837297201156616 -0.049991998821496964
vn 0.027945000678300858 0.99897098541259766 -0.03570999950170517
f 1/1/1 2/2/2 3/3/3
f 4/4/4 5/5/5 6/6/6
f 7/7/7 8/8/8 9/9/9
f 7/7/7 10/10/10 8/8/8
f 11/11/11 12/12/12 13/13/13
f 8/8/8 14/14/14 15/15/15
f 8/8/8 16/16/16 14/14/14
f 17/17/17 8/8/8 10/10/10
f 17/17/17 16/16/16 8/8/8
f 5/5/5 2/2/2 18/18/18
f 3/3/3 5/5/5 4/4/4
f 3/3/3 2/2/2 5/5/5
f 6/6/6 12/12/12 11/11/11
f 6/6/6 5/5/5 12/12/12
f 12/12/12 5/5/5 19/19/19
f 1/1/1 8/8/8 2/2/2
f 1/1/1 9/9/9 8/8/8
f 2/2/2 8/8/8 20/20/20
f 21/21/21 15/15/15 14/14/14
f 15/15/15 22/22/22 23/23/23
f 15/15/15 21/21/21 22/22/22
f 18/18/18 20/20/20 24/24/24
f 20/20/20 18/18/18 2/2/2
f 18/18/18 19/19/19 5/5/5
f 19/19/19 18/18/18 25/25/25
f 8/8/8 15/15/15 20/20/20
f 20/20/20 15/15/15 26/26/26
f 27/27/27 12/12/12 19/19/19
f 27/27/27 28/28/28 12/12/12
f 29/29/29 13/13/13 12/12/12
f 30/30/30 27/27/27 19/19/19
f 28/28/28 29/29/29 12/12/12
f 28/28/28 31/31/31 29/29/29
f 31/31/31 32/32/32 29/29/29
f 30/30/30 19/19/19 33/33/33
f 22/22/22 34/34/34 23/23/23
f 23/23/23 35/35/35 26/26/26
f 20/20/20 26/26/26 24/24/24
f 18/18/18 24/24/24 25/25/25
f 26/26/26 36/36/36 24/24/24
f 23/23/23 37/37/37 38/38/38
f 23/23/23 34/34/34 37/37/37
f 24/24/24 39/39/39 25/25/25
f 26/26/26 15/15/15 23/23/23
f 40/40/40 41/41/41 42/42/42
f 42/42/42 38/38/38 43/43/43
f 42/42/42 41/41/41 38/38/38
f 43/43/43 38/38/38 37/37/37
f 44/44/44 35/35/35 45/45/45
f 44/44/44 36/36/36 35/35/35
f 35/35/35 36/36/36 26/26/26
f 36/36/36 39/39/39 24/24/24
f 46/46/46 36/36/36 47/47/47
f 46/46/46 39/39/39 36/36/36
f 23/23/23 38/38/38 35/35/35
f 48/48/48 38/38/38 49/49/49
f 48/48/48 35/35/35 38/38/38
f 48/48/48 45/45/45 35/35/35
f 44/44/44 47/47/47 36/36/36
f 49/49/49 38/38/38 41/41/41
f 50/50/50 39/39/39 46/46/46
f 50/50/50 51/51/51 39/39/39
f 50/50/50 52/52/52 51/51/51
f 53/53/53 25/25/25 39/39/39
f 53/53/53 54/54/54 25/25/25
f 33/33/33 25/25/25 54/54/54
f 33/33/33 19/19/19 25/25/25
f 51/51/51 53/53/53 39/39/39
f 55/55/55 52/52/52 50/50/50
