mtllib m1222222112.mtl
usemtl material0
v 24 0.60905998945236206 25.00518399477005
v 24.2275470495224 0.61460000276565552 24.752282977104187
v 24 0.60050100088119507 24.764343023300171
v 24.187741994857788 0.59710997343063354 24
v 24.904469966888428 0.66465801000595093 24
v 25.854359000921249 0.70231002569198608 24
v 25.188175022602081 0.686585009098053 24
v 25.225121021270752 0.69154298305511475 24.699360013008118
v 25.277800023555756 0.69910001754760742 25.696523994207382
v 26.222378000617027 0.70403397083282471 24.646657943725586
v 24 0.56614798307418823 26.060795001685619
v 24.280032992362976 0.5830950140953064 25.74957999587059
v 24 0.58548301458358765 25.764359995722771
v 24 0.58272099494934082 26.76433801651001
v 24.332813024520874 0.61115902662277222 26.746671974658966
v 25.33015102148056 0.63976401090621948 26.693913996219635
v 26.275162011384964 0.73307502269744873 25.643747001886368
v 25.382362008094788 0.55210697650909424 27.6914039850235
v 24 0.61615800857543945 27.397029995918274
v 24.385738015174866 0.66851997375488281 27.743664026260376
v 26.327670991420746 0.70596402883529663 26.641029000282288
v 24 0.58527898788452148 24
v 24 0.58777499198913574 24.125355005264282
v 24.399333953857422 0.68075597286224365 28
v 24.155143976211548 0.68591701984405518 28
v 24 0.65223801136016846 27.8438800573349
v 24 0.64122098684310913 27.764119982719421
v 24 0.6738010048866272 28
v 25.398741006851196 0.56925702095031738 28
v 25.104804992675781 0.60034197568893433 28
v 26.379604011774063 0.56166797876358032 27.638712048530579
v 26.054581001400948 0.57744801044464111 28
v 26.188251003623009 0.70641499757766724 24
v 27.188519954681396 0.76391899585723877 24
v 27.22035801410675 0.86349397897720337 24.593451976776123
v 26.804171025753021 0.69925302267074585 24
v 28 0.76166397333145142 24.115476965904236
v 28 0.70283699035644531 24.552791953086853
v 27.754227042198181 0.829567015171051 24
v 28 0.777197003364563 24
v 28 0.64186602830886841 24.782145977020264
v 27.271638989448547 0.58687698841094971 25.591591000556946
v 27.325116991996765 0.75654000043869019 26.588195979595184
v 28 0.77870702743530273 25.552518993616104
v 28 0.8231779932975769 25.838217005133629
v 27.377259969711304 0.65521198511123657 27.58573305606842
v 28 0.7061539888381958 26.552716970443726
v 28 0.80268299579620361 27.195021033287048
v 27.954707980155945 0.84506601095199585 28
v 27.39957594871521 0.74279797077178955 28
v 28 0.76323902606964111 27.552505016326904
v 28 0.84326499700546265 27.949656009674072
v 27.004565954208374 0.66829502582550049 28
v 26.398910999298096 0.60759001970291138 28
v 28 0.8407670259475708 28
vt 0.75671899318695068 0.038152992725372314
vt 0.813759982585907 0.095149993896484375
vt 0.813759982585907 0.041042983531951904
vt 0.99234598875045776 0.094909012317657471
vt 0.98323100805282593 0.26528102159500122
vt 0.97293102741241455 0.48965299129486084
vt 0.98063099384307861 0.33228802680969238
vt 0.81464999914169312 0.33260399103164673
vt 0.57799100875854492 0.3335760235786438
vt 0.81560397148132324 0.56929698586463928
vt 0.50664901733398438 0.025062978267669678
vt 0.57695901393890381 0.095185995101928711
vt 0.57695698738098145 0.028724014759063721
vt 0.33983001112937927 0.017647981643676758
vt 0.34023401141166687 0.096921026706695557
vt 0.34086999297142029 0.33371400833129883
vt 0.57870697975158691 0.57041400671005249
vt 0.10323499888181686 0.33362597227096558
vt 0.18981499969959259 0.011165976524353027
vt 0.10323099792003632 0.095502018928527832
vt 0.34231299161911011 0.57096999883651733
vt 0.99470198154449463 0.050388991832733154
vt 0.96502697467803955 0.048856973648071289
vt 0.042327001690864563 0.0952029824256897
vt 0.045614000409841537 0.037410974502563477
vt 0.083723001182079315 0.0048750042915344238
vt 0.10279099643230438 0.0055959820747375488
vt 0.046456001698970795 0.002369999885559082
vt 0.029882999137043953 0.33363801240921021
vt 0.0335640013217926 0.26325201988220215
vt 0.10308899730443955 0.57030999660491943
vt 0.021573999896645546 0.48885899782180786
vt 0.96907299757003784 0.5686970055103302
vt 0.96891802549362183 0.79874999821186066
vt 0.82647299766540527 0.80897800624370575
vt 0.96194499731063843 0.71450299024581909
vt 0.9416159987449646 0.99417399987578392
vt 0.81679099798202515 0.99763000011444092
vt 0.96893000602722168 0.93372000008821487
vt 0.96921497583389282 0.993274999782443
vt 0.76061302423477173 0.99488699994981289
vt 0.58070099353790283 0.80941599607467651
vt 0.34358701109886169 0.80799199640750885
vt 0.57481402158737183 0.98796700034290552
vt 0.50641602277755737 0.9838079996407032
vt 0.10563600063323975 0.808107003569603
vt 0.34738698601722717 0.96855799853801727
vt 0.193571999669075 0.96252499893307686
vt 0.00064400001429021358 0.94728000089526176
vt 0.0052049998193979263 0.81152300536632538
vt 0.1084510013461113 0.95807899907231331
vt 0.012435999698936939 0.95817599818110466
vt 0.010549000464379787 0.716405987739563
vt 0.016656000167131424 0.57062900066375732
vt 0.00049000000581145287 0.95806200057268143
vn -0.0070949997752904892 0.99985402822494507 0.015519999898970127
vn -0.0676949992775917 0.99769800901412964 -0.0039099999703466892
vn -0.063291996717453 0.99760502576828 -0.027912000194191933
vn -0.077820003032684326 0.99678498506546021 -0.019057000055909157
vn -0.081527002155780792 0.996645987033844 -0.0070420000702142715
vn -0.015310999937355518 0.99988102912902832 0.0016179999802261591
vn -0.051249001175165176 0.99867600202560425 -0.0043730000033974648
vn -0.046268001198768616 0.99892300367355347 -0.0035349999088793993
vn -0.055351000279188156 0.99826401472091675 0.020107999444007874
vn -0.02848299965262413 0.99955898523330688 0.0083510000258684158
vn -0.063520997762680054 0.99797701835632324 -0.0028119999915361404
vn -0.064355000853538513 0.99778401851654053 0.016884999349713326
vn 0.011084999889135361 0.99875497817993164 0.04863400012254715
vn -0.0871020033955574 0.99545598030090332 -0.0384799987077713
vn -0.050308998674154282 0.99867302179336548 -0.011001000180840492
vn -0.039560999721288681 0.99665701389312744 0.071487002074718475
vn 0.051709000021219254 0.998661994934082 0.00034100000630132854
vn 0.0274640005081892 0.99961197376251221 0.0045880000106990337
vn -0.08412499725818634 0.9948430061340332 -0.056662999093532562
vn 0.029214000329375267 0.99727797508239746 -0.067697003483772278
vn -0.023792000487446785 0.99820500612258911 0.054967001080513
vn -0.0628810003399849 0.99782299995422363 -0.019871000200510025
vn -0.0628800019621849 0.99782299995422363 -0.019872000440955162
vn 0.068623997271060944 0.99632799625396729 -0.051201000809669495
vn -0.050932999700307846 0.99226999282836914 -0.11316200345754623
vn -0.077129997313022614 0.98764497041702271 -0.13641400635242462
vn -0.075662001967430115 0.9917759895324707 -0.10322300344705582
vn -0.077129997313022614 0.98764497041702271 -0.13641400635242462
vn 0.044456001371145248 0.99733901023864746 -0.057785000652074814
vn 0.11094199866056442 0.99228602647781372 -0.05531499907374382
vn -0.054170001298189163 0.99841701984405518 0.015150999650359154
vn -0.032409001141786575 0.996828019618988 -0.072692997753620148
vn -0.0007350000087171793 0.99999302625656128 0.0037219999358057976
vn -0.14011499285697937 0.97768402099609375 -0.15652899444103241
vn -0.01234699971973896 0.99589598178863525 0.089659996330738068
vn -0.11753199994564056 0.986615002155304 -0.11303699761629105
vn 0.20662200450897217 0.96968698501586914 0.13044099509716034
vn 0.20765300095081329 0.95940899848937988 0.19082799553871155
vn 0.12216500192880631 0.99108099937438965 0.053240001201629639
vn 0.20662100613117218 0.96968698501586914 0.13044099509716034
vn 0.098321996629238129 0.98296999931335449 0.15525099635124207
vn -0.060355000197887421 0.99807298183441162 -0.014426000416278839
vn -0.067184001207351685 0.9976469874382019 -0.013636000454425812
vn -0.25941199064254761 0.95262300968170166 -0.15879200398921967
vn -0.18239599466323853 0.98020297288894653 -0.0770379975438118
vn -0.14372999966144562 0.98900800943374634 -0.034708000719547272
vn 0.07505500316619873 0.997111976146698 0.011622999794781208
vn -0.10376600176095963 0.99380397796630859 0.039834000170230865
vn -0.10597299784421921 0.985755980014801 -0.13059499859809876
vn -0.17965300381183624 0.96436798572540283 -0.19421400129795075
vn -0.17282399535179138 0.98416602611541748 -0.03935600072145462
vn -0.11512999981641769 0.98361200094223022 -0.13875600695610046
vn -0.12172400206327438 0.98256397247314453 -0.14053900539875031
vn -0.0930429995059967 0.98832499980926514 -0.1206509992480278
vn 0.094365999102592468 0.99431502819061279 0.049332000315189362
f 1/1/1 2/2/2 3/3/3
f 4/4/4 2/2/2 5/5/5
f 6/6/6 7/7/7 8/8/8
f 8/8/8 9/9/9 10/10/10
f 8/8/8 5/5/5 2/2/2
f 8/8/8 7/7/7 5/5/5
f 8/8/8 2/2/2 9/9/9
f 11/11/11 12/12/12 13/13/13
f 1/1/1 12/12/12 2/2/2
f 1/1/1 13/13/13 12/12/12
f 12/12/12 14/14/14 15/15/15
f 12/12/12 11/11/11 14/14/14
f 9/9/9 15/15/15 16/16/16
f 15/15/15 9/9/9 12/12/12
f 16/16/16 17/17/17 9/9/9
f 16/16/16 15/15/15 18/18/18
f 2/2/2 12/12/12 9/9/9
f 15/15/15 19/19/19 20/20/20
f 15/15/15 14/14/14 19/19/19
f 21/21/21 16/16/16 18/18/18
f 22/22/22 2/2/2 4/4/4
f 22/22/22 23/23/23 2/2/2
f 23/23/23 3/3/3 2/2/2
f 24/24/24 20/20/20 25/25/25
f 26/26/26 20/20/20 27/27/27
f 26/26/26 25/25/25 20/20/20
f 26/26/26 28/28/28 25/25/25
f 29/29/29 18/18/18 30/30/30
f 24/24/24 18/18/18 20/20/20
f 24/24/24 30/30/30 18/18/18
f 29/29/29 31/31/31 18/18/18
f 29/29/29 32/32/32 31/31/31
f 15/15/15 20/20/20 18/18/18
f 19/19/19 27/27/27 20/20/20
f 10/10/10 6/6/6 8/8/8
f 10/10/10 33/33/33 6/6/6
f 34/34/34 10/10/10 35/35/35
f 34/34/34 36/36/36 10/10/10
f 33/33/33 10/10/10 36/36/36
f 37/37/37 35/35/35 38/38/38
f 37/37/37 39/39/39 35/35/35
f 37/37/37 40/40/40 39/39/39
f 34/34/34 35/35/35 39/39/39
f 41/41/41 35/35/35 42/42/42
f 41/41/41 38/38/38 35/35/35
f 35/35/35 10/10/10 42/42/42
f 21/21/21 17/17/17 16/16/16
f 17/17/17 21/21/21 42/42/42
f 43/43/43 21/21/21 31/31/31
f 21/21/21 43/43/43 42/42/42
f 43/43/43 44/44/44 42/42/42
f 43/43/43 45/45/45 44/44/44
f 31/31/31 46/46/46 43/43/43
f 10/10/10 17/17/17 42/42/42
f 31/31/31 21/21/21 18/18/18
f 41/41/41 42/42/42 44/44/44
f 17/17/17 10/10/10 9/9/9
f 47/47/47 45/45/45 43/43/43
f 47/47/47 43/43/43 48/48/48
f 49/49/49 46/46/46 50/50/50
f 49/49/49 51/51/51 46/46/46
f 49/49/49 52/52/52 51/51/51
f 46/46/46 48/48/48 43/43/43
f 46/46/46 51/51/51 48/48/48
f 50/50/50 46/46/46 53/53/53
f 31/31/31 53/53/53 46/46/46
f 31/31/31 54/54/54 53/53/53
f 55/55/55 52/52/52 49/49/49
f 54/54/54 31/31/31 32/32/32
