mtllib m122222113.mtl
usemtl material0
v 56 1.6347320079803467 48
v 56.514317035675049 1.6282459497451782 49.043288946151733
v 56.459502935409546 1.6798510551452637 48
v 56 1.6082420349121094 48.484966039657593
v 56 1.5762519836425781 49.070610046386719
v 57.467087030410767 1.7345499992370606 48
v 58.509269952774048 1.7420749664306641 48.937580108642578
v 58.460041046142578 1.7946469783782959 48
v 56.618935108184814 1.4934450387954712 51.038128018379211
v 58.613728046417236 1.5745600461959839 50.932533025741577
v 56 1.430420994758606 51.071011006832123
v 56 1.5363090038299561 49.61474609375
v 59.352900981903076 1.7894229888916016 48
v 60.503612995147705 1.7323700189590454 48.83229398727417
v 60.4599229991436 1.7806680202484131 48
v 61.252486944198608 1.7624039649963379 48
v 63.152091979980469 1.7438470125198364 48
v 62.459721088409424 1.7507189512252808 48
v 62.497931957244873 1.7177809476852417 48.727027893066406
v 64 1.7481310367584229 48.170363903045654
v 64 1.735476016998291 48.64765191078186
v 64 1.7526479959487915 48
v 60.608196020126343 1.5902450084686279 50.827160000801086
v 58.718371987342834 1.4451290369033814 52.927353024482727
v 62.602894067764282 1.6523150205612183 50.721629977226257
v 60.712939977645874 1.4803450107574463 52.821914970874786
v 64 1.685871958732605 50.647747039794922
v 64 1.7180919647216797 49.1689190864563
v 56.7236750125885 1.3825680017471314 53.032883048057556
v 56 1.3507599830627441 52.38205298781395
v 64 1.6130110025405884 51.97890100069344
v 56 1.3164900541305542 53.071308016777039
v 56 1.341202974319458 53.837142944335938
v 56.82883095741272 1.3566499948501587 55.027350902557373
v 58.823413968086243 1.3957730531692505 54.921897888183594
v 56 1.3225400447845459 55.07122802734375
v 56 1.3209619522094727 56
v 56.880179882049561 1.3571059703826904 56
v 56 1.3215960264205933 55.627026081085205
v 58.880164980888367 1.3635530471801758 56
v 57.8534049987793 1.3761659860610962 56
v 59.753013998270035 1.3592220544815064 56
v 60.817776024341583 1.3889980316162109 54.816605091094971
v 62.707714080810547 1.5580400228500366 52.716331005096436
v 62.812263011932373 1.4085880517959595 54.711220026016235
v 64 1.5808550119400024 52.648018002510071
v 64 1.4723759889602661 53.879662036895752
v 62.132198095321655 1.28473699092865 56
v 60.879912972450256 1.3237979412078857 56
v 62.879683971405029 1.2883850336074829 56
v 64 1.4147289991378784 54.648478984832764
v 63.552155017852783 1.2885479927062988 56
v 64 1.3350809812545776 55.502326965332031
v 64 1.2871609926223755 56
vt 0 0
vt 0.13041099905967712 0.064289987087249756
vt 0 0.057438015937805176
vt 0.060621000826358795 0
vt 0.13382600247859955 0
vt 0 0.18338602781295776
vt 0.11719799786806107 0.31365901231765747
vt 0 0.30750501155853271
vt 0.37976598739624023 0.077367007732391357
vt 0.3665669858455658 0.32671600580215454
vt 0.38387599587440491 0
vt 0.20184299349784851 0
vt 0 0.41911298036575317
vt 0.10403700172901154 0.56295201182365417
vt 0 0.55748999118804932
vt 0 0.6565609872341156
vt 0 0.8940109983086586
vt 0 0.80746500194072723
vt 0.090878002345561981 0.81224200129508972
vt 0.021296000108122826 1
vt 0.080955997109413147 1
vt 0 1
vt 0.35339498519897461 0.57602500915527344
vt 0.61591899394989014 0.33979701995849609
vt 0.34020400047302246 0.82536199688911438
vt 0.60273897647857666 0.58911800384521484
vt 0.33096799254417419 1
vt 0.1461150050163269 1
vt 0.62910997867584229 0.090458989143371582
vt 0.54775702953338623 0
vt 0.49736300110816956 1
vt 0.63391399383544922 0
vt 0.72964298725128174 0
vt 0.87841898202896118 0.1036040186882019
vt 0.86523699760437012 0.352927029132843
vt 0.883903980255127 0
vt 1 0
vt 1 0.11002302169799805
vt 0.95337802171707153 0
vt 1 0.36002099514007568
vt 1 0.23167598247528076
vt 1 0.46912699937820435
vt 0.85207599401474 0.60222199559211731
vt 0.58954101800918579 0.83846400678157806
vt 0.83890199661254883 0.85153299570083618
vt 0.58100199699401855 1
vt 0.7349579930305481 1
vt 1 0.766525000333786
vt 1 0.6099889874458313
vt 1 0.85996100306510925
vt 0.831059992313385 1
vt 1 0.94401900097727776
vt 0.93779098987579346 1
vt 1 1
vn -0.097576998174190521 0.99374699592590332 0.054281000047922134
vn -0.06893099844455719 0.995507001876831 0.0649150013923645
vn -0.060088999569416046 0.99681299924850464 0.052464000880718231
vn -0.097576998174190521 0.99374699592590332 0.054281998425722122
vn -0.097052998840808868 0.99326801300048828 0.063240997493267059
vn -0.057199999690055847 0.99681401252746582 0.055580999702215195
vn -0.028049999848008156 0.99708700180053711 0.070923998951911926
vn -0.029037000611424446 0.99792397022247314 0.057479999959468842
vn -0.046564001590013504 0.9965050220489502 0.06934799998998642
vn -0.014494000002741814 0.99735301733016968 0.071248002350330353
vn -0.097612001001834869 0.9930340051651001 0.065987996757030487
vn -0.097037002444267273 0.99264699220657349 0.07236500084400177
vn 0.0074089998379349709 0.998341977596283 0.057082999497652054
vn 0.00687999976798892 0.9976159930229187 0.068668998777866364
vn 0.014198999851942062 0.99826300144195557 0.057183999568223953
vn 0.012492000125348568 0.99880301952362061 0.047283001244068146
vn -0.0029490001033991575 0.99944502115249634 0.033179998397827148
vn 0.0097589995712041855 0.9989510178565979 0.044744998216629028
vn -0.0057850000448524952 0.99897897243499756 0.04479999840259552
vn -0.010374999605119228 0.99959498643875122 0.026503000408411026
vn -0.010069999843835831 0.99943000078201294 0.032228998839855194
vn -0.010374999605119228 0.99959498643875122 0.026503000408411026
vn -0.011063000187277794 0.99827897548675537 0.057583998888731
vn -0.024105999618768692 0.99880498647689819 0.0425259992480278
vn -0.024122999981045723 0.998786985874176 0.042934998869895935
vn -0.018621999770402908 0.9986109733581543 0.049293000251054764
vn -0.02202099934220314 0.99905902147293091 0.037360001355409622
vn -0.0195080004632473 0.99950200319290161 0.024788999930024147
vn -0.047086000442504883 0.99832302331924438 0.03366599977016449
vn -0.0945969969034195 0.99390500783920288 0.056609999388456345
vn -0.017168000340461731 0.99858701229095459 0.050294999033212662
vn -0.090584002435207367 0.99586701393127441 0.0065410002134740353
vn -0.0604109987616539 0.99816900491714478 -0.0030199999455362558
vn -0.026816999539732933 0.99954801797866821 0.013620000332593918
vn -0.0068459999747574329 0.99958300590515137 0.02806599996984005
vn -0.040426000952720642 0.99909698963165283 0.013057000003755093
vn -0.041030000895261765 0.99915701150894165 0.0016990000149235129
vn -0.03142099827528 0.99950599670410156 0.0011899999808520079
vn -0.041030000895261765 0.99915701150894165 0.0016980000073090196
vn 0.0089149996638298035 0.99952799081802368 0.029402000829577446
vn -0.010982999578118324 0.999904990196228 0.0083029996603727341
vn 0.012757999822497368 0.99924802780151367 0.036621000617742538
vn -0.0030749998986721039 0.99824899435043335 0.0590750016272068
vn -0.019949000328779221 0.99798202514648438 0.060284998267889023
vn -0.0032659999560564756 0.99660599231719971 0.082252003252506256
vn -0.013705000281333923 0.99717998504638672 0.07378000020980835
vn -0.0049760001711547375 0.99686700105667114 0.078933998942375183
vn 0.017664000391960144 0.99751102924346924 0.068264000117778778
vn 0.031246999278664589 0.99808698892593384 0.053350001573562622
vn -0.00393499992787838 0.99565201997756958 0.093069002032279968
vn -0.000547999981790781 0.996196985244751 0.087131999433040619
vn 9.9999999747524271E-07 0.99565702676773071 0.093094997107982636
vn 0.00098200002685189247 0.99557399749755859 0.093970999121665955
vn 0.0030829999595880508 0.99539202451705933 0.095844000577926636
f 1/1/1 2/2/2 3/3/3
f 1/1/1 4/4/4 2/2/2
f 4/4/4 5/5/5 2/2/2
f 6/6/6 7/7/7 8/8/8
f 7/7/7 2/2/2 9/9/9
f 3/3/3 7/7/7 6/6/6
f 3/3/3 2/2/2 7/7/7
f 7/7/7 9/9/9 10/10/10
f 11/11/11 2/2/2 12/12/12
f 11/11/11 9/9/9 2/2/2
f 12/12/12 2/2/2 5/5/5
f 13/13/13 8/8/8 7/7/7
f 10/10/10 14/14/14 7/7/7
f 15/15/15 14/14/14 16/16/16
f 17/17/17 18/18/18 19/19/19
f 20/20/20 19/19/19 21/21/21
f 20/20/20 17/17/17 19/19/19
f 20/20/20 22/22/22 17/17/17
f 19/19/19 16/16/16 14/14/14
f 19/19/19 18/18/18 16/16/16
f 19/19/19 14/14/14 23/23/23
f 9/9/9 24/24/24 10/10/10
f 14/14/14 10/10/10 23/23/23
f 19/19/19 23/23/23 25/25/25
f 10/10/10 26/26/26 23/23/23
f 27/27/27 28/28/28 25/25/25
f 25/25/25 21/21/21 19/19/19
f 25/25/25 28/28/28 21/21/21
f 23/23/23 26/26/26 25/25/25
f 13/13/13 14/14/14 15/15/15
f 13/13/13 7/7/7 14/14/14
f 11/11/11 29/29/29 9/9/9
f 11/11/11 30/30/30 29/29/29
f 27/27/27 25/25/25 31/31/31
f 32/32/32 33/33/33 29/29/29
f 24/24/24 29/29/29 34/34/34
f 29/29/29 24/24/24 9/9/9
f 24/24/24 34/34/34 35/35/35
f 36/36/36 29/29/29 33/33/33
f 36/36/36 34/34/34 29/29/29
f 30/30/30 32/32/32 29/29/29
f 37/37/37 38/38/38 39/39/39
f 39/39/39 34/34/34 36/36/36
f 39/39/39 38/38/38 34/34/34
f 40/40/40 35/35/35 41/41/41
f 35/35/35 42/42/42 43/43/43
f 35/35/35 40/40/40 42/42/42
f 41/41/41 34/34/34 38/38/38
f 41/41/41 35/35/35 34/34/34
f 26/26/26 24/24/24 35/35/35
f 43/43/43 26/26/26 35/35/35
f 26/26/26 43/43/43 44/44/44
f 44/44/44 43/43/43 45/45/45
f 44/44/44 31/31/31 25/25/25
f 44/44/44 46/46/46 31/31/31
f 46/46/46 44/44/44 47/47/47
f 25/25/25 26/26/26 44/44/44
f 48/48/48 43/43/43 49/49/49
f 43/43/43 50/50/50 45/45/45
f 43/43/43 48/48/48 50/50/50
f 51/51/51 52/52/52 53/53/53
f 51/51/51 45/45/45 52/52/52
f 45/45/45 50/50/50 52/52/52
f 54/54/54 53/53/53 52/52/52
f 47/47/47 45/45/45 51/51/51
f 47/47/47 44/44/44 45/45/45
f 49/49/49 43/43/43 42/42/42
f 10/10/10 24/24/24 26/26/26
