mtllib m1222131.mtl
usemtl material0
v 224.34518432617188 -2.7863750457763672 160
v 224.56631469726563 -2.6807088851928711 164.1785888671875
v 228.32487487792969 -3.1624770164489746 160
v 224 -2.6786210536956787 164.20848083496094
v 224 -2.6950430870056152 163.56221008300781
v 224 -2.78556489944458 160
v 232.34176588058472 -3.4090690612792969 160
v 232.54130601882935 -3.1954889297485352 163.75906372070313
v 236.80537390708923 -3.6026680469512939 160
v 240.51702898740768 -3.56624698638916 163.33905029296875
v 240.33995100855827 -3.7222299575805664 160
v 224 -3.0909678936004639 171.27090501785278
v 224.98512268066406 -3.1494119167327881 172.15766906738281
v 224 -3.2343370914459229 173.25242590904236
v 224 -3.1492159366607666 172.2096860408783
v 224 -3.7843139171600342 180.2114109992981
v 225.40310668945313 -3.7807281017303467 180.13731384277344
v 224 -4.54020881652832 188.21351623535156
v 224 -4.736720085144043 190.14036560058594
v 225.82014465332031 -4.6054201126098633 188.11759853363037
v 224 -3.8807640075683594 181.69662523269653
v 232.96354722976685 -2.9752399921417236 171.73580884933472
v 233.38102722167969 -3.7095808982849121 179.71580505371094
v 240.94148302078247 -2.90020489692688 171.31428480148315
v 248.49522399902344 -3.4389870166778564 162.91734313964844
v 241.3621369600296 -2.99783992767334 179.29211401939392
v 229.92529296875 -4.7976908683776855 192
v 226.02357482910156 -4.9019098281860352 192
v 233.79892015457153 -4.3594708442687988 187.69549560546875
v 234.02627611160278 -4.3378758430480957 192
v 224 -4.8775639533996582 192
v 237.52543592453003 -3.9651749134063721 192
v 241.78071594238281 -3.5090599060058594 187.27134704589844
v 249.34223937988281 -2.48728609085083 178.86912488937378
v 248.92054653167725 -2.5981431007385254 170.89199781417847
v 243.52110290527344 -3.6071081161499023 160
v 242.03149390220642 -3.2884960174560547 192
v 248.34077453613281 -3.5231180191040039 160
v 251.11973571777344 -3.5606980323791504 160
v 256 -3.5636630058288574 162.52142333984375
v 256 -3.5106520652770996 163.02140808105469
v 249.76104736328125 -2.9555380344390869 186.84820556640625
v 245.12573194503784 -3.0668470859527588 192
v 256 -2.3036959171295166 178.51696801185608
v 256 -2.3875300884246826 179.91499304771423
v 250.03363037109375 -2.8350870609283447 192
v 256 -2.4495511054992676 186.51716613769531
v 256 -2.4273281097412109 187.68460083007813
v 252.72514343261719 -2.6140830516815186 192
v 256 -2.4144608974456787 188.36051940917969
v 256 -2.4146220684051514 170.517578125
v 256 -2.4027318954467773 171.46937608718872
v 256 -3.5705530643463135 162.27630615234375
v 256 -3.6345360279083252 160
v 256 -2.42868709564209 192
vt 0.996504008769989 0.014461994171142578
vt 0.86715799570083618 0.020965993404388428
vt 0.996504008769989 0.13814401626586914
vt 0.86627799272537231 0.0034419894218444824
vt 0.88628000020980835 0.0034940242767333984
vt 0.99653100967407227 0.0037819743156433105
vt 0.9963189959526062 0.26266199350357056
vt 0.87979501485824585 0.26824599504470825
vt 0.99596697092056274 0.40089702606201172
vt 0.89218401908874512 0.51531600952148438
vt 0.995631992816925 0.51032000780105591
vt 0.64739197492599487 0.0029529929161071777
vt 0.61988800764083862 0.034507989883422852
vt 0.58592402935028076 0.0034080147743225098
vt 0.61829400062561035 0.0034499764442443848
vt 0.36998200416564941 0.003600001335144043
vt 0.37220200896263123 0.047016024589538574
vt 0.12126799672842026 0.0030949711799621582
vt 0.061342000961303711 0.0030260086059570312
vt 0.12394999712705612 0.059449970722198486
vt 0.3239319920539856 0.0035200119018554688
vt 0.63290399312973022 0.28142398595809937
vt 0.38493400812149048 0.29388201236724854
vt 0.64508599042892456 0.52831900119781494
vt 0.90528202056884766 0.76219199597835541
vt 0.39853501319885254 0.54177400469779968
vt 0.0035429999697953463 0.18633401393890381
vt 0.0034690001048147678 0.065571010112762451
vt 0.13720199465751648 0.30642300844192505
vt 0.0040480000898242 0.3140140175819397
vt 0.0036390000022947788 0.0029249787330627441
vt 0.0046169999986886978 0.42304998636245728
vt 0.15160199999809265 0.55470898747444153
vt 0.41129499673843384 0.78920300304889679
vt 0.65718001127243042 0.77542099356651306
vt 0.99501001834869385 0.6088080108165741
vt 0.0052280002273619175 0.56403100490570068
vt 0.995576024055481 0.7572689950466156
vt 0.995747983455658 0.84325799345970154
vt 0.917934000492096 0.9944029999896884
vt 0.90237802267074585 0.99440700002014637
vt 0.16489699482917786 0.80220599472522736
vt 0.0054680001921951771 0.66001299023628235
vt 0.42348301410675049 0.99520599981769919
vt 0.38014900684356689 0.99522199993953109
vt 0.0061160000041127205 0.81203199923038483
vt 0.17586800456047058 0.99583500018343329
vt 0.14027999341487885 0.99659699993208051
vt 0.0063959998078644276 0.89558900147676468
vt 0.11936400085687637 0.99670000001788139
vt 0.66797798871994019 0.99457499990239739
vt 0.63988298177719116 0.99561600014567375
vt 0.92552101612091064 0.9943940001539886
vt 0.99597901105880737 0.99430799996480346
vt 0.006756999995559454 0.99707500007934868
vn 0.046741001307964325 0.99852198362350464 -0.027723999693989754
vn 0.038529001176357269 0.99919998645782471 0.010724999941885471
vn 0.069917000830173492 0.99619799852371216 -0.051966998726129532
vn 0.004629999864846468 0.99983000755310059 0.017859000712633133
vn 0.0023459999356418848 0.99967497587203979 -0.02540300041437149
vn 0.0023449999280273914 0.99967402219772339 -0.02540300041437149
vn 0.052496999502182007 0.99685102701187134 -0.059425000101327896
vn 0.042870000004768372 0.99851500988006592 -0.033622998744249344
vn 0.041041001677513123 0.99755901098251343 -0.056501001119613647
vn 0.0017750000115484 0.99836599826812744 -0.057119999080896378
vn -1.9999999949504854E-06 0.99891102313995361 -0.046663999557495117
vn 0.0058820000849664211 0.99822598695755 0.059255998581647873
vn 0.0031679999083280563 0.99827498197555542 0.058621998876333237
vn 0.0022849999368190765 0.99684101343154907 0.079384997487068176
vn 0.0039989999495446682 0.9973989725112915 0.071973003447055817
vn 0.001230000052601099 0.99743497371673584 0.071561001241207123
vn 0.0020729999523609877 0.9961550235748291 0.087586000561714172
vn 0.040936000645160675 0.99404400587081909 0.10099499672651291
vn 0.018749000504612923 0.99649202823638916 0.081554003059864044
vn 0.0064690001308918 0.99593299627304077 0.089859999716281891
vn 0.031596001237630844 0.9952319860458374 0.092279002070426941
vn -0.0057560000568628311 0.99970000982284546 0.023791000247001648
vn -0.037363000214099884 0.99599999189376831 0.08117000013589859
vn -0.03226500004529953 0.99912500381469727 -0.026627000421285629
vn -0.0059529999271035194 0.99795198440551758 -0.063689000904560089
vn -0.073000997304916382 0.99650102853775024 0.04069799929857254
vn -0.049244999885559082 0.99714797735214233 0.057199001312255859
vn -0.00795000046491623 0.99703299999237061 0.076558001339435577
vn -0.073652997612953186 0.99603599309921265 0.049878999590873718
vn -0.10857599973678589 0.99408799409866333 0.00074799999129027128
vn 0.011996000073850155 0.99707198143005371 0.0755160003900528
vn -0.11725399643182755 0.99305397272109985 -0.0097279995679855347
vn -0.091165997087955475 0.99567300081253052 0.017981000244617462
vn -0.044808998703956604 0.998678982257843 0.025143999606370926
vn -0.032962001860141754 0.997672975063324 -0.059682000428438187
vn -0.022415999323129654 0.99922400712966919 -0.032395001500844955
vn -0.10855700075626373 0.993261992931366 -0.040573000907897949
vn -0.0024719999637454748 0.999584972858429 -0.02869500033557415
vn 0.014693999662995338 0.99948602914810181 -0.028480000793933868
vn 0.013121999800205231 0.99776697158813477 -0.0654899999499321
vn 0.00068599998485296965 0.99341601133346558 -0.11455900222063065
vn -0.064873002469539642 0.99782800674438477 0.011471999809145927
vn -0.064925998449325562 0.99720901250839233 -0.036871001124382019
vn -0.026413999497890472 0.9994170069694519 0.021655000746250153
vn -0.03744100034236908 0.99814099073410034 0.048082001507282257
vn -0.065098002552986145 0.99768102169036865 -0.019881999120116234
vn -0.081063002347946167 0.9966999888420105 -0.0043299999088048935
vn -0.0818210020661354 0.9964669942855835 -0.018967999145388603
vn -0.075087003409862518 0.99709397554397583 -0.012875000014901161
vn -0.0759200006723404 0.99702101945877075 -0.013628000393509865
vn -0.030101999640464783 0.99627202749252319 -0.080843999981880188
vn -0.026976000517606735 0.99955397844314575 -0.012849999591708183
vn 0.015123000368475914 0.99949097633361816 -0.028094999492168427
vn 0.015123000368475914 0.99949097633361816 -0.028093999251723289
vn -0.056520998477935791 0.99839401245117188 0.0039029999170452356
f 1/1/1 2/2/2 3/3/3
f 4/4/4 2/2/2 5/5/5
f 5/5/5 1/1/1 6/6/6
f 5/5/5 2/2/2 1/1/1
f 7/7/7 2/2/2 8/8/8
f 7/7/7 3/3/3 2/2/2
f 9/9/9 10/10/10 11/11/11
f 2/2/2 12/12/12 13/13/13
f 2/2/2 4/4/4 12/12/12
f 14/14/14 13/13/13 15/15/15
f 12/12/12 15/15/15 13/13/13
f 13/13/13 16/16/16 17/17/17
f 13/13/13 14/14/14 16/16/16
f 18/18/18 19/19/19 20/20/20
f 21/21/21 20/20/20 17/17/17
f 21/21/21 18/18/18 20/20/20
f 21/21/21 17/17/17 16/16/16
f 22/22/22 13/13/13 17/17/17
f 17/17/17 23/23/23 22/22/22
f 8/8/8 22/22/22 10/10/10
f 24/24/24 22/22/22 23/23/23
f 22/22/22 24/24/24 10/10/10
f 10/10/10 24/24/24 25/25/25
f 24/24/24 23/23/23 26/26/26
f 9/9/9 8/8/8 10/10/10
f 9/9/9 7/7/7 8/8/8
f 20/20/20 23/23/23 17/17/17
f 27/27/27 20/20/20 28/28/28
f 27/27/27 29/29/29 20/20/20
f 23/23/23 20/20/20 29/29/29
f 30/30/30 29/29/29 27/27/27
f 31/31/31 20/20/20 19/19/19
f 31/31/31 28/28/28 20/20/20
f 32/32/32 29/29/29 30/30/30
f 32/32/32 33/33/33 29/29/29
f 29/29/29 33/33/33 26/26/26
f 26/26/26 33/33/33 34/34/34
f 26/26/26 23/23/23 29/29/29
f 35/35/35 24/24/24 26/26/26
f 13/13/13 22/22/22 8/8/8
f 13/13/13 8/8/8 2/2/2
f 36/36/36 11/11/11 10/10/10
f 32/32/32 37/37/37 33/33/33
f 38/38/38 25/25/25 39/39/39
f 40/40/40 35/35/35 41/41/41
f 40/40/40 25/25/25 35/35/35
f 24/24/24 35/35/35 25/25/25
f 36/36/36 25/25/25 38/38/38
f 36/36/36 10/10/10 25/25/25
f 42/42/42 34/34/34 33/33/33
f 35/35/35 26/26/26 34/34/34
f 37/37/37 42/42/42 33/33/33
f 37/37/37 43/43/43 42/42/42
f 42/42/42 44/44/44 34/34/34
f 42/42/42 45/45/45 44/44/44
f 46/46/46 47/47/47 42/42/42
f 46/46/46 48/48/48 47/47/47
f 48/48/48 49/49/49 50/50/50
f 48/48/48 46/46/46 49/49/49
f 46/46/46 42/42/42 43/43/43
f 51/51/51 34/34/34 52/52/52
f 51/51/51 35/35/35 34/34/34
f 40/40/40 39/39/39 25/25/25
f 40/40/40 53/53/53 39/39/39
f 53/53/53 54/54/54 39/39/39
f 44/44/44 52/52/52 34/34/34
f 47/47/47 45/45/45 42/42/42
f 55/55/55 50/50/50 49/49/49
f 51/51/51 41/41/41 35/35/35
