mtllib m1222002.mtl
usemtl material0
v 0 1.2433509826660156 192.64376831054688
v 0.46164703369140625 1.2649799585342407 192
v 0 1.2294249534606934 192.02449035644531
v 1.9807901382446289 1.3837939500808716 192
v 0 1.2783780097961426 194.20138454437256
v 0 1.1696009635925293 202.64674377441406
v 2.4779014587402344 1.3522039651870728 199.89300537109375
v 0 1.2383569478988648 200.02419996261597
v 3.5821466445922852 0.18194299936294556 224
v 3.7356090545654297 0.18951700627803803 223.82945346832275
v 0.506953239440918 0.17077800631523132 224
v 0 0.56980597972869873 216.02578735351563
v 0 0.3720250129699707 219.53627014160156
v 3.3162441253662109 0.550894021987915 215.8507227897644
v 0 1.0861129760742188 208.0244290009141
v 0 1.0006769895553589 211.09199500083923
v 2.8985500335693359 1.2520899772644043 207.87084999680519
v 0 1.2303869724273682 192
v 0 1.2294249534606934 192.02449035644531
v 2.0614023208618164 1.3874690532684326 192
v 9.58031702041626 1.9072060585021973 192
v 10.878111839294434 1.6582299470901489 207.44821202754974
v 11.2963228225708 1.0625009536743164 215.42771911621094
v 0 0.1730709969997406 223.91163635253906
v 0 0.16905300319194794 224
v 11.18126106262207 0.485260009765625 224
v 11.714834213256836 0.52778702974319458 223.40704345703125
v 3.7445831298828125 0.18386800587177277 224
v 10.457322120666504 1.7295360565185547 199.470458984375
v 18.438561916351318 2.4764719009399414 199.04666137695313
v 18.857039928436279 1.9354480504989624 207.0260009765625
v 11.745952129364014 0.49131500720977783 224
v 19.693840026855469 0.82111799716949463 222.98477172851563
v 18.78026008605957 0.72636497020721436 224
v 19.276366949081421 1.5667660236358643 215.00476121902466
v 10.063968181610107 1.9293299913406372 192
v 17.179919958114624 2.4696669578552246 192
v 18.066946029663086 2.5519459247589111 192
v 24.77958869934082 3.0656960010528564 192
v 26.837430953979492 2.5090279579162598 206.6027979850769
v 27.255603790283203 1.9059749841690064 214.58233594894409
v 19.747168064117432 0.76848697662353516 224
v 26.379497528076172 1.0925920009613037 224
v 27.673437118530273 1.2340569496154785 222.56211853027344
v 26.4180850982666 2.8737859725952148 198.62405395507813
v 32 3.3182189464569092 192.42082214355469
v 26.069686889648438 3.127147912979126 192
v 32 3.3350911140441895 192
v 32 3.2644119262695312 193.79252624511719
v 32 3.0864799022674561 198.32862854003906
v 32 2.6305630207061768 206.32978796958923
v 32 2.4022829532623291 209.31010401248932
v 32 1.1592880487442017 222.33387756347656
v 32 1.0693260431289673 223.54890441894531
v 27.74879264831543 1.1259969472885132 224
v 32 1.0359259843826294 224
v 32 1.6922520399093628 217.75421142578125
v 32 1.9825359582901 214.33155822753906
v 32 2.965749979019165 200.86567687988281
vt 0.94476699829101562 0.00414198637008667
vt 0.96457397937774658 0.017342984676361084
vt 0.9633600115776062 0.003470003604888916
vt 0.9661480188369751 0.0630829930305481
vt 0.898002028465271 0.0058339834213256836
vt 0.64445900917053223 0.014478027820587158
vt 0.729731023311615 0.0861629843711853
vt 0.72321099042892456 0.011840999126434326
vt 0.0059340000152587891 0.14289200305938721
vt 0.011211000382900238 0.14732897281646729
vt 0.0030000000260770321 0.050468981266021729
vt 0.24220700562000275 0.027540028095245361
vt 0.13665300607681274 0.030871987342834473
vt 0.25055599212646484 0.12683498859405518
vt 0.48301100730895996 0.019972026348114014
vt 0.39089098572731018 0.023043990135192871
vt 0.490664005279541 0.1069599986076355
vt 0.96409600973129272 0.0034469962120056152
vt 0.9633600115776062 0.003470003604888916
vt 0.96623200178146362 0.065504014492034912
vt 0.97411799430847168 0.29173898696899414
vt 0.51169902086257935 0.34635299444198608
vt 0.27187299728393555 0.36640197038650513
vt 0.0051719998009502888 0.035166025161743164
vt 0.0025160000659525394 0.035250008106231689
vt 0.013829000294208527 0.37118202447891235
vt 0.032196000218391418 0.38661998510360718
vt 0.00609799986705184 0.14776802062988281
vt 0.75075000524520874 0.32551002502441406
vt 0.77197599411010742 0.5656769871711731
vt 0.53226101398468018 0.58560100197792053
vt 0.014391999691724777 0.38813400268554688
vt 0.0528779998421669 0.62587800621986389
vt 0.021428000181913376 0.59941300749778748
vt 0.29298499226570129 0.60597100853919983
vt 0.97469300031661987 0.30626100301742554
vt 0.98226499557495117 0.52047300338745117
vt 0.98313397169113159 0.54730299115180969
vt 0.99022698402404785 0.74938499927520752
vt 0.55343502759933472 0.825315997004509
vt 0.31370198726654053 0.84528699517250061
vt 0.0224239993840456 0.62846499681472778
vt 0.02928600087761879 0.82777599990367889
vt 0.07385600358247757 0.86528700590133667
vt 0.79280602931976318 0.80507299304008484
vt 0.98483997583389282 0.9666999988257885
vt 0.99155598878860474 0.78815500438213348
vt 0.997484028339386 0.96629700064659119
vt 0.94359302520751953 0.96807099878787994
vt 0.80731499195098877 0.97245699912309647
vt 0.56679302453994751 0.980061000213027
vt 0.477059006690979 0.98283400014042854
vt 0.084463000297546387 0.99500499991700053
vt 0.047979999333620071 0.99613199988380074
vt 0.030637999996542931 0.86889399588108063
vt 0.034400999546051025 0.99655400007031858
vt 0.22287599742412567 0.99067899957299232
vt 0.32578301429748535 0.98749299999326468
vt 0.73106598854064941 0.974889000877738
vn -0.07795400172472 0.99670499563217163 -0.022413000464439392
vn -0.077900998294353485 0.99673199653625488 -0.021376999095082283
vn -0.07795400172472 0.99670499563217163 -0.022413000464439392
vn -0.054186999797821045 0.99852997064590454 -0.00094100000569596887
vn -0.053121000528335571 0.99858802556991577 2.0999999833293259E-05
vn -0.053582001477479935 0.9984009861946106 0.017990000545978546
vn -0.0499349981546402 0.99863499402999878 0.015317000448703766
vn -0.044998999685049057 0.99884498119354248 0.016853999346494675
vn -0.0058209998533129692 0.99921697378158569 0.039138000458478928
vn -0.025398999452590942 0.99870097637176514 0.04416700080037117
vn -0.0034020000603049994 0.99896502494812012 0.0453529991209507
vn 0.0094429999589920044 0.997422993183136 0.0711200013756752
vn -0.00058799999533221126 0.99884998798370361 0.047947999089956284
vn -0.025318000465631485 0.9973989725112915 0.067479997873306274
vn -0.0560000017285347 0.99819099903106689 0.021859999746084213
vn -0.0051040002144873142 0.99730098247528076 0.0732479989528656
vn -0.043366000056266785 0.99808698892593384 0.04406299814581871
vn -0.074666999280452728 0.99643898010253906 0.0391709990799427
vn -0.07466600090265274 0.99643898010253906 0.0391709990799427
vn -0.056859001517295837 0.99835401773452759 0.0074609997682273388
vn -0.051881998777389526 0.99837601184844971 0.023515999317169189
vn -0.048866000026464462 0.99738800525665283 0.053192000836133957
vn -0.053626999258995056 0.996300995349884 0.0671520009636879
vn -0.0033980000298470259 0.99896198511123657 0.045425001531839371
vn -0.0033990000374615192 0.99896198511123657 0.045425001531839371
vn -0.032531999051570892 0.99857300519943237 0.042344000190496445
vn -0.035735998302698135 0.99719899892807007 0.065701000392436981
vn -0.026631999760866165 0.99905002117156982 0.034488998353481293
vn -0.067624002695083618 0.997514009475708 0.019821999594569206
vn -0.0655129998922348 0.99710100889205933 0.038708999752998352
vn -0.050735000520944595 0.99689102172851562 0.0602869987487793
vn -0.022383999079465866 0.99779099225997925 0.062547996640205383
vn -0.040206998586654663 0.996408998966217 0.074511997401714325
vn -0.036028999835252762 0.99750697612762451 0.060676999390125275
vn -0.049185000360012054 0.99615597724914551 0.0724790021777153
vn -0.060199998319149017 0.99773997068405151 0.029853999614715576
vn -0.087921001017093658 0.99593502283096313 0.019551999866962433
vn -0.084592998027801514 0.996300995349884 0.015131999738514423
vn -0.055204998701810837 0.99790400266647339 0.0337660014629364
vn -0.042500000447034836 0.99724102020263672 0.060862001031637192
vn -0.026875000447034836 0.99618202447891235 0.083057999610900879
vn -0.046181999146938324 0.99746501445770264 0.0541360005736351
vn -0.042229000478982925 0.997298002243042 0.060116998851299286
vn -0.014130000025033951 0.99658000469207764 0.0814180001616478
vn -0.044006001204252243 0.99793297052383423 0.046838000416755676
vn -0.035238999873399734 0.99858498573303223 0.039834000170230865
vn -0.041480999439954758 0.99832397699356079 0.040366001427173614
vn -0.03501499816775322 0.99858498573303223 0.040036000311374664
vn -0.035976998507976532 0.99858498573303223 0.0391709990799427
vn -0.035757999867200851 0.99842697381973267 0.043191999197006226
vn -0.019858000800013542 0.9974520206451416 0.068526998162269592
vn -0.017627999186515808 0.9968000054359436 0.077972002327442169
vn 0.022229999303817749 0.99519199132919312 0.095389999449253082
vn 0.021124999970197678 0.997048020362854 0.0738229975104332
vn -0.00084400002378970385 0.99718397855758667 0.074983999133110046
vn 0.021124999970197678 0.997048020362854 0.0738229975104332
vn -0.0035019998904317617 0.99577599763870239 0.0917460024356842
vn -0.01164500042796135 0.99640798568725586 0.083878003060817719
vn -0.031968999654054642 0.99820202589035034 0.050696998834609985
f 1/1/1 2/2/2 3/3/3
f 1/1/1 4/4/4 2/2/2
f 1/1/1 5/5/5 4/4/4
f 6/6/6 7/7/7 8/8/8
f 9/9/9 10/10/10 11/11/11
f 12/12/12 13/13/13 14/14/14
f 15/15/15 16/16/16 17/17/17
f 18/18/18 19/19/19 2/2/2
f 20/20/20 7/7/7 21/21/21
f 4/4/4 7/7/7 20/20/20
f 4/4/4 8/8/8 7/7/7
f 4/4/4 5/5/5 8/8/8
f 16/16/16 14/14/14 17/17/17
f 16/16/16 12/12/12 14/14/14
f 14/14/14 22/22/22 17/17/17
f 10/10/10 23/23/23 14/14/14
f 13/13/13 10/10/10 14/14/14
f 13/13/13 24/24/24 10/10/10
f 24/24/24 11/11/11 10/10/10
f 24/24/24 25/25/25 11/11/11
f 10/10/10 26/26/26 27/27/27
f 10/10/10 28/28/28 26/26/26
f 9/9/9 28/28/28 10/10/10
f 7/7/7 17/17/17 29/29/29
f 6/6/6 17/17/17 7/7/7
f 6/6/6 15/15/15 17/17/17
f 17/17/17 22/22/22 29/29/29
f 22/22/22 30/30/30 29/29/29
f 23/23/23 31/31/31 22/22/22
f 14/14/14 23/23/23 22/22/22
f 26/26/26 32/32/32 27/27/27
f 32/32/32 33/33/33 27/27/27
f 32/32/32 34/34/34 33/33/33
f 23/23/23 27/27/27 35/35/35
f 10/10/10 27/27/27 23/23/23
f 36/36/36 29/29/29 37/37/37
f 21/21/21 29/29/29 36/36/36
f 21/21/21 7/7/7 29/29/29
f 38/38/38 29/29/29 30/30/30
f 38/38/38 37/37/37 29/29/29
f 38/38/38 30/30/30 39/39/39
f 30/30/30 22/22/22 31/31/31
f 35/35/35 27/27/27 33/33/33
f 35/35/35 40/40/40 31/31/31
f 33/33/33 41/41/41 35/35/35
f 42/42/42 33/33/33 34/34/34
f 33/33/33 43/43/43 44/44/44
f 33/33/33 42/42/42 43/43/43
f 30/30/30 31/31/31 45/45/45
f 31/31/31 23/23/23 35/35/35
f 46/46/46 47/47/47 45/45/45
f 46/46/46 48/48/48 47/47/47
f 49/49/49 45/45/45 50/50/50
f 49/49/49 46/46/46 45/45/45
f 47/47/47 30/30/30 45/45/45
f 47/47/47 39/39/39 30/30/30
f 40/40/40 35/35/35 41/41/41
f 41/41/41 51/51/51 40/40/40
f 41/41/41 52/52/52 51/51/51
f 53/53/53 44/44/44 54/54/54
f 54/54/54 55/55/55 56/56/56
f 54/54/54 44/44/44 55/55/55
f 57/57/57 41/41/41 44/44/44
f 57/57/57 58/58/58 41/41/41
f 59/59/59 40/40/40 51/51/51
f 55/55/55 44/44/44 43/43/43
f 50/50/50 40/40/40 59/59/59
f 50/50/50 45/45/45 40/40/40
f 41/41/41 33/33/33 44/44/44
f 45/45/45 31/31/31 40/40/40
f 53/53/53 57/57/57 44/44/44
f 58/58/58 52/52/52 41/41/41
