mtllib m122222032.mtl
usemtl material0
v 16 0.55988699197769165 32.454914093017578
v 16.198268890380859 0.57720702886581421 32
v 16 0.58709597587585449 32
v 16 0.43323901295661926 34.952327966690063
v 17.667824029922485 0.51436197757720947 33.09874701499939
v 16 0.528581976890564 33.186774969100952
v 16 0.2921690046787262 39.174839019775391
v 17.877410888671875 0.31460300087928772 37.088188052177429
v 16 0.33612701296806335 37.187260031700134
v 16 0.29218798875808716 39.411593914031982
v 17.982364892959595 0.24719199538230896 39.082793951034546
v 16 0.29176199436187744 39.187335968017578
v 16.031064987182617 0.29261100292205811 40
v 17.157187938690186 0.26740500330924988 40
v 16 0.29136499762535095 40
v 16 0.34073498845100403 37.063537955284119
v 17.772496938705444 0.3903140127658844 35.093551993370056
v 16 0.41887998580932617 35.187061011791229
v 17.610307931900024 0.610381007194519 32
v 18.146705985069275 0.55750501155853271 32
v 17.04433798789978 0.56808298826217651 32
v 19.6098630130291 0.53245002031326294 32
v 19.662207007408142 0.51298099756240845 32.993434906005859
v 20.095215000212193 0.55956900119781494 32
v 19.098435997962952 0.55481100082397461 32
v 19.766803994774818 0.37281998991966248 34.988293051719666
v 21.15264904499054 0.55825901031494141 32
v 21.656610012054443 0.51550602912902832 32.888107061386108
v 21.610057950019836 0.58051300048828125 32
v 23.610013961791992 0.5813639760017395 32
v 23.651139974594116 0.5434190034866333 32.782696008682251
v 23.992300033569336 0.58217698335647583 32
v 23.20703911781311 0.58739399909973145 32
v 22.043771982192993 0.57494097948074341 32
v 19.871656000614166 0.28490200638771057 36.982971012592316
v 19.976677000522614 0.23116299510002136 38.977530956268311
v 21.760833978652954 0.29966199398040771 34.883224010467529
v 20.030670000240207 0.23440200090408325 40
v 19.056775987148285 0.24085600674152374 40
v 18.030791997909546 0.24897399544715881 40
v 21.866214990615845 0.31916499137878418 36.87753701210022
v 21.971194982528687 0.25712400674819946 38.872128009796143
v 23.755734920501709 0.40325701236724854 34.777554035186768
v 23.860830068588257 0.364656001329422 36.772063970565796
v 20.95642101764679 0.24657200276851654 40
v 22.030297994613647 0.17125299572944641 40
v 22.85595703125 0.19114899635314941 40
v 23.965862035751343 0.31335800886154175 38.766617059707642
v 24 0.54591000080108643 32.764266967773438
v 24 0.42321398854255676 34.5061000585556
v 24 0.30922898650169373 39.413661956787109
v 24 0.30247700214385986 40
v 24 0.36488598585128784 36.897270023822784
v 24 0.31429499387741089 38.764808893203735
v 24 0.31386500597000122 38.819911956787109
v 24 0.36718198657035828 36.764706015586853
v 24 0.40297999978065491 34.997318029403687
v 24 0.41361099481582642 34.76462197303772
v 24 0.55308997631073 32.613110065460205
v 24 0.582211971282959 32
vt 0.938730001449585 0.00086098909378051758
vt 0.99531102180480957 0.025340020656585693
vt 0.99531102180480957 0.0006930232048034668
vt 0.62825697660446167 0.0016520023345947266
vt 0.8591340184211731 0.2081419825553894
vt 0.84778100252151489 0.0010849833488464356
vt 0.10367599874734879 0.0028169751167297363
vt 0.36322700977325439 0.23539501428604126
vt 0.35050800442695618 0.0023080110549926758
vt 0.0742809996008873 0.00286102294921875
vt 0.11547199636697769 0.24899899959564209
vt 0.10212399810552597 0.0028200149536132812
vt 0.0012319999514147639 0.0068240165710449219
vt 0.0013839999446645379 0.1467519998550415
vt 0.0012260000221431255 0.002964019775390625
vt 0.36588001251220703 0.0022730231285095215
vt 0.61102300882339478 0.22180801630020142
vt 0.599058985710144 0.0017309784889221191
vt 0.99606400728225708 0.20085400342941284
vt 0.99558001756668091 0.26777297258377075
vt 0.99552100896835327 0.13039100170135498
vt 0.99525201320648193 0.44949501752853394
vt 0.871874988079071 0.45577597618103027
vt 0.9952160120010376 0.50984901189804077
vt 0.995415985584259 0.385936975479126
vt 0.62460201978683472 0.46939700841903687
vt 0.99657702445983887 0.63999900221824646
vt 0.88660502433776855 0.70330500602722168
vt 0.99712800979614258 0.69685399532318115
vt 0.99850797653198242 0.94523800164461136
vt 0.90124702453613281 0.95087800174951553
vt 0.998773992061615 0.99270100006833673
vt 0.99826997518539429 0.89520099759101868
vt 0.99740397930145264 0.75070600211620331
vt 0.37674099206924438 0.48303401470184326
vt 0.12904000282287598 0.49658799171447754
vt 0.63786202669143677 0.71712499856948853
vt 0.0021069999784231186 0.50355300307273865
vt 0.0018629999831318855 0.3826259970664978
vt 0.0016060000052675605 0.25524002313613892
vt 0.3902679979801178 0.7306860089302063
vt 0.14262799918651581 0.74421599507331848
vt 0.65135002136230469 0.96511999890208244
vt 0.40368300676345825 0.97837799973785877
vt 0.0023399998899549246 0.61850100755691528
vt 0.0022219999227672815 0.75215800106525421
vt 0.0023749999236315489 0.854090005159378
vt 0.15621599555015564 0.99194000009447336
vt 0.9020799994468689 0.994276000186801
vt 0.68528598546981812 0.9952890002168715
vt 0.075897999107837677 0.99651399999856949
vt 0.0030960000585764647 0.99680100008845329
vt 0.388155996799469 0.99567400012165308
vt 0.15645299851894379 0.99617900000885129
vt 0.14961099624633789 0.99619699991308153
vt 0.40461701154708862 0.995658999774605
vt 0.62409502267837524 0.99547499977052212
vt 0.6531670093536377 0.99546300014480948
vt 0.9208570122718811 0.99491199990734458
vt 0.99705600738525391 0.99370600003749132
vn 0.015875000506639481 0.99886298179626465 0.0449489988386631
vn 0.025183999910950661 0.99848198890686035 0.04899200052022934
vn 0.049727998673915863 0.99698102474212646 0.059631999582052231
vn 0.017451999709010124 0.99808299541473389 0.059385001659393311
vn 0.010022999718785286 0.99825400114059448 0.058203998953104019
vn 0.011075999587774277 0.998760998249054 0.048512998968362808
vn 0.021485000848770142 0.9993169903755188 0.030077999457716942
vn 0.015421999618411064 0.99934297800064087 0.032807998359203339
vn 0.013011000119149685 0.99948298931121826 0.029413999989628792
vn 0.02132900059223175 0.999770998954773 -0.0018449999624863267
vn 0.015906000509858131 0.99975699186325073 0.015231000259518623
vn 0.023251999169588089 0.99962097406387329 0.014731000177562237
vn -0.0078070000745356083 0.9999690055847168 -0.00030700000934302807
vn 0.022035000845789909 0.99975502490997314 -0.0022090000566095114
vn -0.04007900133728981 0.99919599294662476 0.0013970000436529517
vn 0.014557000249624252 0.99916201829910278 0.038242999464273453
vn 0.015275999903678894 0.99860501289367676 0.050537001341581345
vn 0.018783999606966972 0.99852198362350464 0.051004998385906219
vn 0.0088980002328753471 0.99620401859283447 0.086592003703117371
vn 0.038049999624490738 0.99771898984909058 0.05575999990105629
vn -0.0178810004144907 0.998100996017456 0.058947000652551651
vn -0.0043970001861453056 0.99979400634765625 0.019825000315904617
vn 0.0015239999629557133 0.99857300519943237 0.05338599905371666
vn -0.01980300061404705 0.99907302856445312 0.038221001625061035
vn 0.016536999493837357 0.99932897090911865 0.032692998647689819
vn 0.02009899914264679 0.9980120062828064 0.059725001454353333
vn -0.015488999895751476 0.99826300144195557 0.056844998151063919
vn -0.00080699997488409281 0.99686300754547119 0.079144001007080078
vn -0.018826000392436981 0.99708300828933716 0.0739699974656105
vn 0.0066970000043511391 0.99882102012634277 0.0480710007250309
vn -0.0096049997955560684 0.99773597717285156 0.066564999520778656
vn -0.0037010000087320805 0.998848021030426 0.04784800112247467
vn -0.0020769999828189611 0.99835699796676636 0.057270001620054245
vn -0.0020020001102238894 0.99782401323318481 0.06590600311756134
vn 0.0062779998406767845 0.99959701299667358 0.027667000889778137
vn -0.0015920000150799751 0.9999079704284668 0.013495000079274178
vn -0.0069400002248585224 0.99865901470184326 0.051306001842021942
vn -0.0035920001100748777 0.99998897314071655 -0.0029780000913888216
vn 0.0075690001249313354 0.99996799230575562 -0.0026690000668168068
vn 0.014282000251114368 0.99989402294158936 -0.0026970000471919775
vn -0.022315999493002892 0.99963897466659546 0.014952999539673328
vn -0.0077249999158084393 0.99902898073196411 0.043382000178098679
vn -0.033842001110315323 0.99856501817703247 0.041503001004457474
vn -0.021082000806927681 0.99950999021530151 0.023144999518990517
vn 0.0090450001880526543 0.9998059868812561 0.017492000013589859
vn 0.021293999627232552 0.99697202444076538 0.074790000915527344
vn -0.043439000844955444 0.99726897478103638 0.059723000973463058
vn -0.035089001059532166 0.99903100728988647 0.02657799981534481
vn -0.0040389997884631157 0.99828100204467773 0.058474000543355942
vn -0.012020999565720558 0.99796897172927856 0.062550000846385956
vn -0.095679998397827148 0.99534702301025391 0.011398999951779842
vn -0.0968480035662651 0.99523299932479858 0.011459999717772007
vn -0.023664999753236771 0.99941998720169067 0.024468999356031418
vn -0.026500999927520752 0.99949097633361816 0.01776600070297718
vn -0.027031999081373215 0.9996039867401123 0.0078039998188614845
vn -0.017154000699520111 0.999675989151001 0.018833000212907791
vn -0.023173000663518906 0.99936598539352417 0.027021000161767006
vn -0.04013499990105629 0.9983450174331665 0.041198998689651489
vn -0.0046250000596046448 0.99886298179626465 0.047446001321077347
vn -0.0046239998191595078 0.99886298179626465 0.047446001321077347
f 1/1/1 2/2/2 3/3/3
f 4/4/4 5/5/5 6/6/6
f 7/7/7 8/8/8 9/9/9
f 10/10/10 11/11/11 12/12/12
f 10/10/10 13/13/13 11/11/11
f 13/13/13 14/14/14 11/11/11
f 15/15/15 13/13/13 10/10/10
f 16/16/16 17/17/17 18/18/18
f 19/19/19 5/5/5 20/20/20
f 21/21/21 5/5/5 19/19/19
f 18/18/18 5/5/5 4/4/4
f 18/18/18 17/17/17 5/5/5
f 22/22/22 23/23/23 24/24/24
f 25/25/25 23/23/23 22/22/22
f 23/23/23 20/20/20 5/5/5
f 23/23/23 25/25/25 20/20/20
f 23/23/23 5/5/5 26/26/26
f 27/27/27 28/28/28 29/29/29
f 27/27/27 23/23/23 28/28/28
f 27/27/27 24/24/24 23/23/23
f 30/30/30 31/31/31 32/32/32
f 33/33/33 31/31/31 30/30/30
f 29/29/29 28/28/28 34/34/34
f 16/16/16 8/8/8 17/17/17
f 16/16/16 9/9/9 8/8/8
f 17/17/17 8/8/8 35/35/35
f 8/8/8 11/11/11 36/36/36
f 17/17/17 35/35/35 26/26/26
f 26/26/26 35/35/35 37/37/37
f 8/8/8 36/36/36 35/35/35
f 26/26/26 5/5/5 17/17/17
f 7/7/7 11/11/11 8/8/8
f 7/7/7 12/12/12 11/11/11
f 38/38/38 36/36/36 39/39/39
f 11/11/11 39/39/39 36/36/36
f 11/11/11 40/40/40 39/39/39
f 41/41/41 35/35/35 36/36/36
f 14/14/14 40/40/40 11/11/11
f 41/41/41 37/37/37 35/35/35
f 26/26/26 37/37/37 28/28/28
f 36/36/36 42/42/42 41/41/41
f 37/37/37 41/41/41 43/43/43
f 41/41/41 42/42/42 44/44/44
f 38/38/38 42/42/42 36/36/36
f 38/38/38 45/45/45 42/42/42
f 31/31/31 28/28/28 37/37/37
f 46/46/46 42/42/42 45/45/45
f 47/47/47 42/42/42 46/46/46
f 47/47/47 48/48/48 42/42/42
f 28/28/28 23/23/23 26/26/26
f 41/41/41 44/44/44 43/43/43
f 49/49/49 43/43/43 50/50/50
f 49/49/49 31/31/31 43/43/43
f 47/47/47 51/51/51 48/48/48
f 47/47/47 52/52/52 51/51/51
f 53/53/53 48/48/48 54/54/54
f 53/53/53 44/44/44 48/48/48
f 54/54/54 48/48/48 55/55/55
f 55/55/55 48/48/48 51/51/51
f 56/56/56 43/43/43 44/44/44
f 56/56/56 57/57/57 43/43/43
f 42/42/42 48/48/48 44/44/44
f 37/37/37 43/43/43 31/31/31
f 58/58/58 43/43/43 57/57/57
f 56/56/56 44/44/44 53/53/53
f 50/50/50 43/43/43 58/58/58
f 59/59/59 31/31/31 49/49/49
f 59/59/59 32/32/32 31/31/31
f 59/59/59 60/60/60 32/32/32
f 33/33/33 28/28/28 31/31/31
f 33/33/33 34/34/34 28/28/28
f 2/2/2 5/5/5 21/21/21
f 2/2/2 6/6/6 5/5/5
f 2/2/2 1/1/1 6/6/6
