mtllib m1222021.mtl
usemtl material0
v 32 3.8566429615020752 166.32720947265625
v 32 3.8595640659332275 167.08514404296875
v 32.716171264648438 3.9047420024871826 166.28923034667969
v 32 3.7774460315704346 163.9683837890625
v 32.382961273193359 3.6706089973449707 160
v 32 3.6442070007324219 160
v 38.374469757080078 3.8186240196228027 160
v 33.136287689208984 3.6967949867248535 174.2674560546875
v 40.694087982177734 3.9748759269714355 165.86772155761719
v 32 3.6585040092468262 174.32757604122162
v 32 3.5535130500793457 180.84489393234253
v 33.556861877441406 3.582089900970459 182.24536085128784
v 41.115177154541016 3.9646790027618408 173.84527611732483
v 48.670657992362976 3.7715580463409424 165.4471435546875
v 45.973098993301392 3.8593769073486328 160
v 48.383231997489929 3.797511100769043 160
v 53.571620941162109 3.8432509899139404 160
v 49.0912549495697 3.6612660884857178 173.4250340461731
v 56.646656036376953 3.4520130157470703 165.02696228027344
v 40.383628845214844 3.8386950492858887 160
v 41.536427021026611 3.9866900444030762 181.82272291183472
v 32 3.5379130840301514 182.32771301269531
v 32 3.4990530014038086 183.97560119628906
v 32 3.3350911140441895 192
v 32.378669738769531 3.3483688831329346 192
v 32 3.3383140563964844 191.91961669921875
v 33.97747802734375 3.4756660461425781 190.22323608398438
v 32 3.4021310806274414 190.327880859375
v 34.070938110351562 3.4093379974365234 192
v 39.977298736572266 3.3896660804748535 192
v 41.954994201660156 3.4647469520568848 189.802001953125
v 42.070498943328857 3.3605020046234131 192
v 49.9298130273819 2.9059669971466064 189.38261413574219
v 47.575046986341476 2.9621810913085938 192
v 49.511425018310547 3.4645299911499023 181.40321397781372
v 56.382663726806641 3.7229809761047363 160
v 61.169696807861328 3.589169979095459 160
v 64 2.9723219871520996 164.64015197753906
v 57.065250396728516 2.9354770183563232 173.00622606277466
v 64 2.9320731163024902 165.29841613769531
v 57.483974456787109 2.4452910423278809 180.98539686203003
v 64 2.2830219268798828 172.6420590877533
v 64 2.2210209369659424 173.7425229549408
v 57.902133941650391 1.8408290147781372 188.96495056152344
v 64 1.8098759651184082 180.64329481124878
v 64 1.7011239528656006 182.18702697753906
v 58.062332153320312 1.8363709449768066 192
v 52.835776805877686 2.5331380367279053 192
v 64 1.47366201877594 188.64408874511719
v 64 3.0501589775085449 163.77769470214844
v 64 3.3911008834838867 160
v 50.0672869682312 2.7688601016998291 192
v 64 1.413640022277832 192
v 64 1.4770510196685791 190.63215637207031
v 62.769489288330078 1.5533640384674072 192
vt 0.77397799491882324 0.00910097360610962
vt 0.75123697519302368 0.0098890066146850586
vt 0.775858998298645 0.030597984790802002
vt 0.84478497505187988 0.0065019726753234863
vt 0.96430498361587524 0.013647973537445068
vt 0.96390801668167114 0.002129971981048584
vt 0.97076398134231567 0.19345998764038086
vt 0.53680998086929321 0.051136970520019531
vt 0.79648798704147339 0.26955997943878174
vt 0.53384500741958618 0.017086029052734375
vt 0.33827099204063416 0.023634016513824463
vt 0.29783499240875244 0.071779012680053711
vt 0.55755198001861572 0.29024600982666016
vt 0.817156970500946 0.50854501128196716
vt 0.97787302732467651 0.42207002639770508
vt 0.980305016040802 0.49440902471542358
vt 0.98572498559951782 0.64989501237869263
vt 0.57819497585296631 0.52931299805641174
vt 0.83779400587081909 0.74763000011444092
vt 0.97225302457809448 0.25401800870895386
vt 0.31862100958824158 0.31096899509429932
vt 0.29377800226211548 0.02513200044631958
vt 0.24432000517845154 0.026777982711791992
vt 0.0034839999862015247 0.034702003002166748
vt 0.0038709999062120914 0.046070992946624756
vt 0.005898000206798315 0.034623980522155762
vt 0.05885700136423111 0.092325985431671143
vt 0.053697001188993454 0.033066987991333008
vt 0.0055959997698664665 0.0968400239944458
vt 0.011253999546170235 0.2740669846534729
vt 0.079147003591060638 0.33129501342773438
vt 0.013232000172138214 0.336883008480072
vt 0.099027998745441437 0.57080298662185669
vt 0.018242999911308289 0.5024929940700531
vt 0.33924299478530884 0.55034500360488892
vt 0.98855000734329224 0.73431599140167236
vt 0.9937019944190979 0.87771999835968018
vt 0.85675400495529175 0.96834800019860268
vt 0.59838300943374634 0.76917299628257751
vt 0.83696901798248291 0.96908699907362461
vt 0.35925900936126709 0.79113499820232391
vt 0.61654001474380493 0.97777899913489819
vt 0.58347600698471069 0.97906900011003017
vt 0.1184459999203682 0.81181299686431885
vt 0.37609899044036865 0.98722899984568357
vt 0.32804000377655029 0.98789899982512
vt 0.027502000331878662 0.8191940039396286
vt 0.022988999262452126 0.66096198558807373
vt 0.13419300317764282 0.99478700011968613
vt 0.882731020450592 0.96732600033283234
vt 0.99651497602462769 0.96285099908709526
vt 0.020461000502109528 0.57750499248504639
vt 0.032636001706123352 0.99787000007927418
vt 0.07371799647808075 0.99640100006945431
vt 0.031500998884439468 0.960707999765873
vn -0.0679590031504631 0.99752300977706909 -0.018177000805735588
vn -0.040383998304605484 0.99897700548172 0.0203660000115633
vn -0.035796999931335449 0.99934101104736328 -0.0060879997909069061
vn -0.068740002810955048 0.99707299470901489 -0.033477000892162323
vn -0.047485999763011932 0.99827098846435547 -0.034646999090909958
vn -0.068738996982574463 0.99707299470901489 -0.033477000892162323
vn -0.013910000212490559 0.99955999851226807 -0.026201000437140465
vn -0.031780000776052475 0.9993559718132019 0.016649000346660614
vn 0.0015190000412985683 0.99998897314071655 -0.0044499998912215233
vn -0.032524000853300095 0.99923497438430786 0.021718999370932579
vn -0.031484998762607574 0.99939697980880737 0.014608000405132771
vn -0.040394999086856842 0.99904900789260864 0.016410000622272491
vn 0.00070400000549852848 0.99999898672103882 0.00079100002767518163
vn 0.02883400022983551 0.99950802326202393 0.012342000380158424
vn 0.01782899908721447 0.99983400106430054 -0.0036400000099092722
vn 0.00900300033390522 0.99994999170303345 0.004288999829441309
vn 0.028955999761819839 0.99881201982498169 0.039198998361825943
vn 0.062403000891208649 0.99787300825119019 0.01882999949157238
vn 0.056720998138189316 0.99688601493835449 0.054790999740362167
vn -0.0069490000605583191 0.99971497058868408 -0.022833999246358871
vn 0.01409200020134449 0.99946302175521851 0.029569000005722046
vn -0.027448000386357307 0.99947398900985718 0.017263000831007957
vn -0.034196998924016953 0.99926698207855225 0.01718599908053875
vn -0.03501499816775322 0.998583972454071 0.040038000792264938
vn -0.035271000117063522 0.99858498573303223 0.039806000888347626
vn -0.03501499816775322 0.99858498573303223 0.040036998689174652
vn -0.022755000740289688 0.9991919994354248 0.033128000795841217
vn -0.035663001239299774 0.99896997213363647 0.028068000450730324
vn -0.015677999705076218 0.99914997816085815 0.038123998790979385
vn 0.006155999843031168 0.99919402599334717 0.039670001715421677
vn 0.039112001657485962 0.99779802560806274 0.053559999912977219
vn 0.044036000967025757 0.99801498651504517 0.0450190007686615
vn 0.09734799712896347 0.99401700496673584 0.0495310015976429
vn 0.073478996753692627 0.99629402160644531 0.044709000736474991
vn 0.094392001628875732 0.99447000026702881 0.046045999974012375
vn 0.035553000867366791 0.99801802635192871 0.05192900076508522
vn 0.0584149993956089 0.99510502815246582 0.079709999263286591
vn 0.06887499988079071 0.99474799633026123 0.07571999728679657
vn 0.095949001610279083 0.99377197027206421 0.05667399987578392
vn 0.07513900101184845 0.99490898847579956 0.067163996398448944
vn 0.11522000283002853 0.99142301082611084 0.061675999313592911
vn 0.097186997532844543 0.99263900518417358 0.0722690001130104
vn 0.097264997661113739 0.99364000558853149 0.05673699826002121
vn 0.10229899734258652 0.99435198307037354 0.028264999389648438
vn 0.10020200163125992 0.99288100004196167 0.064392000436782837
vn 0.0914589986205101 0.99388998746871948 0.061797000467777252
vn 0.094933003187179565 0.995477020740509 -0.0035490000154823065
vn 0.12118399888277054 0.9926069974899292 0.0068450001999735832
vn 0.061002999544143677 0.99798697233200073 0.017325000837445259
vn 0.069530002772808075 0.99354201555252075 0.089667998254299164
vn 0.069530002772808075 0.99354201555252075 0.089667998254299164
vn 0.081128999590873718 0.99555200338363647 0.047889001667499542
vn 0.11270499974489212 0.992563009262085 0.0460130013525486
vn 0.0724020004272461 0.99733000993728638 0.00949000008404255
vn 0.074107997119426727 0.9971889853477478 0.01103300042450428
f 1/1/1 2/2/2 3/3/3
f 1/1/1 3/3/3 4/4/4
f 4/4/4 5/5/5 6/6/6
f 4/4/4 3/3/3 5/5/5
f 5/5/5 3/3/3 7/7/7
f 3/3/3 8/8/8 9/9/9
f 10/10/10 3/3/3 2/2/2
f 10/10/10 8/8/8 3/3/3
f 8/8/8 11/11/11 12/12/12
f 8/8/8 10/10/10 11/11/11
f 13/13/13 9/9/9 8/8/8
f 9/9/9 13/13/13 14/14/14
f 14/14/14 15/15/15 9/9/9
f 14/14/14 16/16/16 15/15/15
f 16/16/16 14/14/14 17/17/17
f 14/14/14 18/18/18 19/19/19
f 18/18/18 14/14/14 13/13/13
f 20/20/20 9/9/9 15/15/15
f 18/18/18 13/13/13 21/21/21
f 9/9/9 7/7/7 3/3/3
f 9/9/9 20/20/20 7/7/7
f 13/13/13 8/8/8 21/21/21
f 22/22/22 23/23/23 12/12/12
f 24/24/24 25/25/25 26/26/26
f 26/26/26 27/27/27 28/28/28
f 26/26/26 25/25/25 27/27/27
f 23/23/23 27/27/27 12/12/12
f 23/23/23 28/28/28 27/27/27
f 12/12/12 27/27/27 21/21/21
f 29/29/29 27/27/27 25/25/25
f 11/11/11 22/22/22 12/12/12
f 30/30/30 27/27/27 29/29/29
f 30/30/30 31/31/31 27/27/27
f 32/32/32 31/31/31 30/30/30
f 27/27/27 31/31/31 21/21/21
f 32/32/32 33/33/33 31/31/31
f 32/32/32 34/34/34 33/33/33
f 21/21/21 31/31/31 35/35/35
f 8/8/8 12/12/12 21/21/21
f 35/35/35 18/18/18 21/21/21
f 36/36/36 19/19/19 37/37/37
f 38/38/38 39/39/39 40/40/40
f 38/38/38 19/19/19 39/39/39
f 18/18/18 39/39/39 19/19/19
f 17/17/17 19/19/19 36/36/36
f 17/17/17 14/14/14 19/19/19
f 33/33/33 35/35/35 31/31/31
f 35/35/35 33/33/33 41/41/41
f 41/41/41 39/39/39 35/35/35
f 41/41/41 42/42/42 39/39/39
f 41/41/41 43/43/43 42/42/42
f 44/44/44 45/45/45 41/41/41
f 44/44/44 46/46/46 45/45/45
f 44/44/44 41/41/41 33/33/33
f 39/39/39 18/18/18 35/35/35
f 47/47/47 33/33/33 48/48/48
f 47/47/47 44/44/44 33/33/33
f 42/42/42 40/40/40 39/39/39
f 45/45/45 43/43/43 41/41/41
f 46/46/46 44/44/44 49/49/49
f 38/38/38 37/37/37 19/19/19
f 38/38/38 50/50/50 37/37/37
f 50/50/50 51/51/51 37/37/37
f 48/48/48 33/33/33 52/52/52
f 53/53/53 54/54/54 55/55/55
f 55/55/55 44/44/44 47/47/47
f 55/55/55 49/49/49 44/44/44
f 55/55/55 54/54/54 49/49/49
f 52/52/52 33/33/33 34/34/34
