mtllib m1222011.mtl
usemtl material0
v 96 -1.6751550436019898 231.06863403320313
v 99.87735652923584 -1.865725040435791 226.75865173339844
v 96 -1.901170015335083 226.96351623535156
v 96 -1.5449060201644898 239.514495998621
v 100.29801177978516 -1.9634720087051392 234.73648118972778
v 96 -1.7106920480728149 234.96266222000122
v 96 -0.94164299964904785 254.22898864746094
v 101.1441650390625 -1.179548978805542 250.6888427734375
v 96 -1.0914989709854126 250.96022033691406
v 98.831008911132812 -0.90206301212310791 256
v 96 -0.86045199632644653 256
v 96 -1.35418701171875 242.96128797531128
v 96 -1.2283769845962524 247.96075391769409
v 100.72125244140625 -1.5373220443725586 242.71253991127014
v 107.85675811767578 -1.4930119514465332 226.33612060546875
v 108.69729590415955 -1.8452620506286621 242.29231309890747
v 108.27501702308655 -2.0756149291992188 234.31558179855347
v 107.73364305496216 -1.451956033706665 224
v 102.35964965820313 -1.6972860097885132 224
v 99.732612609863281 -1.6918239593505859 224
v 96 -1.7557690143585205 224.66801452636719
v 96 -1.713454008102417 224
v 115.83570098876953 -1.2140669822692871 225.91390991210938
v 109.95920610427856 -1.1645760536193848 224
v 116.25477600097656 -1.6301690340042114 233.89282178878784
v 109.12125396728516 -1.2741140127182007 250.26788330078125
v 116.67353820800781 -2.1117169857025146 241.87193298339844
v 109.42521691322327 -1.0096529722213745 256
v 117.09735918045044 -1.5698659420013428 249.84761047363281
v 114.4180600643158 -1.1821670532226563 256
v 104.16127014160156 -0.96020597219467163 256
v 115.73577094078064 -0.99765098094940186 224
v 117.55864000320435 -0.70209801197052 224
v 123.73824310302734 -0.47666800022125244 224
v 123.81519317626953 -0.8238149881362915 225.4913330078125
v 125.15738677978516 -0.59527397155761719 224
v 124.23187255859375 -1.72428297996521 233.47186279296875
v 124.64998626708984 -2.3361999988555908 241.45143103599548
v 128 -1.8785569667816162 233.27336120605469
v 128 -2.2097110748291016 237.72824096679688
v 125.07217407226563 -2.1244208812713623 249.42820739746094
v 128 -1.3922170400619507 229.28439331054688
v 128 -0.94672298431396484 225.27072143554688
v 128 -0.79357701539993286 224.45883178710938
v 128 -0.707027018070221 224
v 128 -2.453665018081665 241.27488696575165
v 128 -2.4287340641021729 244.46612501144409
v 120.59130859375 -1.4651210308074951 256
v 125.42082977294922 -1.7870190143585205 256
v 128 -2.2873198986053467 249.27410888671875
v 128 -2.0677111148834229 253.33030700683594
v 128 -1.9231699705123901 256
vt 0.74989700317382812 0.00987398624420166
vt 0.88344800472259521 0.121707022190094
vt 0.87328499555587769 0.0055459737777709961
vt 0.49632999300956726 0.01879197359085083
vt 0.64447999000549316 0.14311498403549194
vt 0.63303297758102417 0.01415097713470459
vt 0.0542990006506443 0.0336189866065979
vt 0.16598799824714661 0.18480902910232544
vt 0.15250800549983978 0.030317008495330811
vt 0.0040330002084374428 0.12074798345565796
vt 0.0010930000571534038 0.035517990589141846
vt 0.39272099733352661 0.022219002246856689
vt 0.24262699484825134 0.027348995208740234
vt 0.40518701076507568 0.16396701335906982
vt 0.90507197380065918 0.36094999313354492
vt 0.42635500431060791 0.40306401252746582
vt 0.66541397571563721 0.38210600614547729
vt 0.97472202777862549 0.35483002662658691
vt 0.96893101930618286 0.19338500499725342
vt 0.96625900268554688 0.1145399808883667
vt 0.942317008972168 0.003197014331817627
vt 0.9624059796333313 0.0025140047073364258
vt 0.92690902948379517 0.60004401206970215
vt 0.97760200500488281 0.42214101552963257
vt 0.68760001659393311 0.62142100930213928
vt 0.18679399788379669 0.42380702495574951
vt 0.44817599654197693 0.64282199740409851
vt 0.014879000373184681 0.43872302770614624
vt 0.20866699516773224 0.66348901391029358
vt 0.020277999341487885 0.58865100145339966
vt 0.009495999664068222 0.28073197603225708
vt 0.984604001045227 0.59495601058006287
vt 0.98763900995254517 0.65032899379730225
vt 0.99531298875808716 0.83542600274086
vt 0.949429988861084 0.83923199772834778
vt 0.99590498208999634 0.87818700075149536
vt 0.708856999874115 0.86037999391555786
vt 0.46915999054908752 0.881862998008728
vt 0.71865999698638916 0.97336399927735329
vt 0.58460301160812378 0.97834499925374985
vt 0.23012399673461914 0.90292199701070786
vt 0.83891302347183228 0.96901899948716164
vt 0.9601060152053833 0.96467699855566025
vt 0.98489701747894287 0.9636790007352829
vt 0.99890702962875366 0.96309499815106392
vt 0.47791901230812073 0.98228400014340878
vt 0.38232401013374329 0.98570699989795685
vt 0.027612000703811646 0.77472199499607086
vt 0.032972000539302826 0.91997600346803665
vt 0.23796600103378296 0.99075299967080355
vt 0.11604899913072586 0.9948530001565814
vt 0.035767998546361923 0.99748599994927645
vn 0.042615998536348343 0.99907398223876953 -0.0058369999751448631
vn -0.012465000152587891 0.99963200092315674 0.024093000218272209
vn -0.0090279998257756233 0.99995702505111694 0.0021420000120997429
vn 0.040685001760721207 0.9978790283203125 -0.050818998366594315
vn 0.025676000863313675 0.99959999322891235 -0.011819999665021896
vn 0.057950999587774277 0.99821597337722778 -0.014387999661266804
vn 0.014681000262498856 0.99884301424026489 -0.045791000127792358
vn 0.015033000148832798 0.99866098165512085 -0.049497999250888824
vn 0.014685999602079392 0.998848021030426 -0.045690000057220459
vn 0.013283000327646732 0.998835027217865 -0.046399999409914017
vn 0.014681000262498856 0.99884301424026489 -0.045791000127792358
vn 0.036642998456954956 0.998540997505188 -0.03966199979186058
vn 0.019992999732494354 0.99896597862243652 -0.040821000933647156
vn 0.030509000644087791 0.99852502346038818 -0.0449180006980896
vn -0.042325001209974289 0.997763991355896 0.051718998700380325
vn 0.01954600028693676 0.99913501739501953 -0.036715000867843628
vn -0.0142639996483922 0.9997519850730896 0.017076000571250916
vn -0.085550002753734589 0.99609100818634033 0.02201399952173233
vn -0.032882999628782272 0.99896597862243652 0.031406000256538391
vn -0.0019849999807775021 0.998009979724884 0.063017003238201141
vn -0.0057830000296235085 0.99798297882080078 0.063215002417564392
vn -0.0057830000296235085 0.99798297882080078 0.063215002417564392
vn -0.045423999428749084 0.99298900365829468 0.10913100093603134
vn -0.055167000740766525 0.99439901113510132 0.0901539996266365
vn -0.0084560001268982887 0.99892902374267578 0.045497998595237732
vn 0.02082500047981739 0.99801802635192871 -0.059390999376773834
vn 0.028978999704122543 0.9995729923248291 -0.0037209999281913042
vn 0.022353999316692352 0.99863201379776 -0.047258999198675156
vn 0.044394999742507935 0.99754297733306885 -0.054198998957872391
vn 0.038642000406980515 0.99818998575210571 -0.046073000878095627
vn 0.0098909996449947357 0.998852014541626 -0.046870000660419464
vn -0.092313997447490692 0.98887497186660767 0.11663699895143509
vn -0.0682860016822815 0.97741597890853882 0.19998499751091003
vn 0.020816000178456306 0.97398698329925537 0.22564700245857239
vn 0.004191999789327383 0.98633497953414917 0.16469700634479523
vn 0.05023999884724617 0.97945302724838257 0.19531400501728058
vn 0.023795999586582184 0.99610000848770142 0.084959998726844788
vn 0.041078999638557434 0.99896597862243652 0.019505999982357025
vn 0.045875001698732376 0.99410700798034668 0.098222002387046814
vn 0.043262001127004623 0.996408998966217 0.072777003049850464
vn 0.060201998800039291 0.99730098247528076 -0.042022000998258591
vn 0.037776999175548553 0.99290698766708374 0.11273200064897537
vn 0.036876000463962555 0.988152027130127 0.14898200333118439
vn 0.038603998720645905 0.98193800449371338 0.18522299826145172
vn 0.038603998720645905 0.98193800449371338 0.18522299826145172
vn 0.036690998822450638 0.99882501363754272 0.031658001244068146
vn 0.0488240011036396 0.998528003692627 -0.023605000227689743
vn 0.059464000165462494 0.996940016746521 -0.050742998719215393
vn 0.059305001050233841 0.9967610239982605 -0.05432099848985672
vn 0.053341001272201538 0.99772399663925171 -0.041246000677347183
vn 0.05263800173997879 0.99715298414230347 -0.05398700013756752
vn 0.05263800173997879 0.99715298414230347 -0.05398700013756752
f 1/1/1 2/2/2 3/3/3
f 4/4/4 5/5/5 6/6/6
f 7/7/7 8/8/8 9/9/9
f 7/7/7 10/10/10 8/8/8
f 7/7/7 11/11/11 10/10/10
f 12/12/12 13/13/13 14/14/14
f 6/6/6 2/2/2 1/1/1
f 6/6/6 5/5/5 2/2/2
f 5/5/5 15/15/15 2/2/2
f 14/14/14 8/8/8 16/16/16
f 17/17/17 5/5/5 14/14/14
f 18/18/18 2/2/2 15/15/15
f 18/18/18 19/19/19 2/2/2
f 9/9/9 14/14/14 13/13/13
f 9/9/9 8/8/8 14/14/14
f 20/20/20 2/2/2 19/19/19
f 12/12/12 5/5/5 4/4/4
f 12/12/12 14/14/14 5/5/5
f 3/3/3 2/2/2 21/21/21
f 21/21/21 20/20/20 22/22/22
f 21/21/21 2/2/2 20/20/20
f 17/17/17 15/15/15 5/5/5
f 17/17/17 23/23/23 15/15/15
f 24/24/24 18/18/18 15/15/15
f 17/17/17 16/16/16 25/25/25
f 26/26/26 16/16/16 8/8/8
f 26/26/26 27/27/27 16/16/16
f 28/28/28 29/29/29 26/26/26
f 28/28/28 30/30/30 29/29/29
f 31/31/31 26/26/26 8/8/8
f 31/31/31 28/28/28 26/26/26
f 16/16/16 17/17/17 14/14/14
f 31/31/31 8/8/8 10/10/10
f 23/23/23 24/24/24 15/15/15
f 23/23/23 32/32/32 24/24/24
f 32/32/32 23/23/23 33/33/33
f 34/34/34 35/35/35 36/36/36
f 35/35/35 33/33/33 23/23/23
f 35/35/35 34/34/34 33/33/33
f 35/35/35 23/23/23 37/37/37
f 27/27/27 25/25/25 16/16/16
f 25/25/25 27/27/27 37/37/37
f 38/38/38 27/27/27 29/29/29
f 27/27/27 38/38/38 37/37/37
f 39/39/39 38/38/38 40/40/40
f 39/39/39 37/37/37 38/38/38
f 29/29/29 41/41/41 38/38/38
f 23/23/23 25/25/25 37/37/37
f 29/29/29 27/27/27 26/26/26
f 42/42/42 35/35/35 37/37/37
f 42/42/42 43/43/43 35/35/35
f 25/25/25 23/23/23 17/17/17
f 43/43/43 36/36/36 35/35/35
f 43/43/43 44/44/44 36/36/36
f 44/44/44 45/45/45 36/36/36
f 46/46/46 40/40/40 38/38/38
f 46/46/46 38/38/38 47/47/47
f 39/39/39 42/42/42 37/37/37
f 48/48/48 41/41/41 29/29/29
f 48/48/48 49/49/49 41/41/41
f 50/50/50 41/41/41 51/51/51
f 51/51/51 49/49/49 52/52/52
f 51/51/51 41/41/41 49/49/49
f 47/47/47 41/41/41 50/50/50
f 47/47/47 38/38/38 41/41/41
f 30/30/30 48/48/48 29/29/29
