mtllib m122222301.mtl
usemtl material0
v 40 1.5880409479141235 24
v 40 1.707834005355835 25.170712947845459
v 41.053210973739624 1.6613270044326782 24
v 41.192729949951172 1.6551469564437866 24
v 40 1.7077440023422241 25.915857076644897
v 41.290260076522827 1.6506019830703735 25.847902059555054
v 40 1.7078269720077515 25.228260040283203
v 41.347866058349609 1.6605089902877808 24
v 43.2849959731102 1.7200069427490234 25.742346048355103
v 43.192790985107422 1.6765120029449463 24
v 40 1.6694389581680298 27.915916003286839
v 41.395092010498047 1.5587830543518066 27.842595994472504
v 40 1.6958999633789063 27.282087028026581
v 43.390232026576996 1.7102179527282715 27.736757010221481
v 45.279556035995483 1.7547429800033569 25.636909008026123
v 43.495346009731293 1.6760139465332031 29.731253027915955
v 40 1.71274995803833 28.485888004302979
v 41.501082897186279 1.7023099660873413 29.836480975151062
v 44.852550983428955 1.6973919868469238 24
v 46.752162933349609 1.6836199760437012 24
v 45.192883014678955 1.7038600444793701 24
v 45.384399056434631 1.6648770570755005 27.631595999002457
v 47.380122900009155 1.9349590539932251 27.525350987911224
v 47.192725896835327 1.6824320554733276 24
v 47.273902893066406 1.7450449466705322 25.53162407875061
v 48 1.8768030405044556 26.836254000663757
v 48 1.7496910095214844 25.493267059326172
v 48 1.7546499967575073 24.724603891372681
v 48 1.8540400266647339 27.492874026298523
v 48 1.7271560430526733 24
v 47.483891010284424 1.6268349885940552 29.520786046981812
v 45.489544034004211 1.6365319490432739 29.626070022583008
v 40 1.504302978515625 29.916375994682312
v 40 1.5374300479888916 31.504561901092529
v 41.605854034423828 1.5973060131072998 31.831218957901
v 43.600528985261917 1.6549919843673706 31.725703954696655
v 40 1.5147080421447754 31.91628098487854
v 40 1.5183429718017578 32
v 41.614803075790405 1.6051150560379028 32
v 40 1.5161349773406982 31.949141979217529
v 43.615016996860504 1.65619695186615 32
v 43.353752017021179 1.6595079898834229 32
v 45.2534099817276 1.670632004737854 32
v 45.595005035400391 1.6721500158309937 31.620326995849609
v 48 1.6248300075531006 29.493538022041321
v 48 1.6399309635162354 28.947167992591858
v 48 1.6357250213623047 29.985056042671204
v 47.153018951416016 1.6551870107650757 32
v 45.615051031112671 1.6729819774627686 32
v 47.589282989501953 1.6487809419631958 31.51508903503418
v 47.614933013916016 1.6588660478591919 32
v 48 1.6517109870910645 31.493391036987305
v 48 1.6596759557724 31.884552001953125
v 48 1.6620270013809204 32
vt 0.98627501726150513 0.000953972339630127
vt 0.84213197231292725 0.0019729733467102051
vt 0.98627501726150513 0.13027197122573853
vt 0.986374020576477 0.14737802743911743
vt 0.7508620023727417 0.0025010108947753906
vt 0.76010102033615112 0.16064697504043579
vt 0.8350830078125 0.0020139813423156738
vt 0.9864879846572876 0.16639101505279541
vt 0.77448797225952148 0.40504497289657593
vt 0.98789399862289429 0.39237701892852783
vt 0.50581097602844238 0.004176020622253418
vt 0.5156329870223999 0.1755489706993103
vt 0.583512008190155 0.0035349726676940918
vt 0.53083699941635132 0.42050397396087646
vt 0.79051798582077026 0.64920800924301147
vt 0.28660500049591064 0.43525999784469604
vt 0.43579500913619995 0.0041109919548034668
vt 0.27076399326324463 0.18834000825881958
vt 0.98913902044296265 0.59569001197814941
vt 0.99265497922897339 0.8279619961977005
vt 0.99102401733398438 0.63695999979972839
vt 0.546097993850708 0.66469100117683411
vt 0.56336301565170288 0.91111099720001221
vt 0.9930959939956665 0.88192400336265564
vt 0.80836600065231323 0.89318200200796127
vt 0.6495710015296936 0.98532900027930737
vt 0.81477302312850952 0.98201600089669228
vt 0.90779900550842285 0.98147599957883358
vt 0.56575798988342285 0.98775099962949753
vt 0.99659299850463867 0.97936099953949451
vt 0.31603199243545532 0.92365399748086929
vt 0.30128800868988037 0.67947199940681458
vt 0.25872999429702759 0.003014981746673584
vt 0.06417500227689743 0.0059069991111755371
vt 0.026267999783158302 0.20413601398468018
vt 0.042399998754262924 0.44999200105667114
vt 0.013670000247657299 0.0063109993934631348
vt 0.0034060000907629728 0.0064439773559570312
vt 0.0055049997754395008 0.20451200008392334
vt 0.00964100006967783 0.0063629746437072754
vt 0.0079330001026391983 0.45061302185058594
vt 0.0082839997485280037 0.41861099004745483
vt 0.010270999744534493 0.65269801020622253
vt 0.057078998535871506 0.69420099258422852
vt 0.31875801086425781 0.98690100014209747
vt 0.38570401072502136 0.98754000011831522
vt 0.25962099432945251 0.987296000123024
vt 0.012031000107526779 0.88539899885654449
vt 0.010592999868094921 0.69699400663375854
vt 0.071832999587059021 0.93838699907064438
vt 0.012450000271201134 0.94197800010442734
vt 0.074862003326416016 0.98867500014603138
vt 0.026941999793052673 0.98903799988329411
vt 0.01279900036752224 0.98914500046521425
vn -0.069057002663612366 0.99243098497390747 -0.10155099630355835
vn 0.017812000587582588 0.99956101179122925 -0.023684000596404076
vn 0.013915999792516232 0.99953299760818481 -0.027187999337911606
vn 0.0061780000105500221 0.99997901916503906 0.0021339999511837959
vn 0.044481001794338226 0.99900001287460327 0.004532999824732542
vn 0.010134000331163406 0.99976199865341187 0.019334999844431877
vn 0.0442500002682209 0.999019980430603 0.00012199999764561653
vn -0.028517000377178192 0.99958997964859009 -0.0024290001019835472
vn -0.027075000107288361 0.99963301420211792 -0.00080999999772757292
vn -0.01055699959397316 0.99964702129364014 -0.02439500018954277
vn 0.078061997890472412 0.996766984462738 -0.019016999751329422
vn 0.017464000731706619 0.99981701374053955 -0.00785099994391203
vn 0.072668999433517456 0.99677997827529907 0.033893998712301254
vn -0.030970999971032143 0.99936997890472412 0.017309000715613365
vn -0.018396999686956406 0.999705970287323 -0.015813000500202179
vn 0.00050999998347833753 0.99996799230575562 0.0079450001940131187
vn 0.022137999534606934 0.99961298704147339 -0.016877999529242516
vn -0.022278999909758568 0.9997209906578064 0.007825000211596489
vn -0.017280999571084976 0.99944400787353516 -0.028519000858068466
vn 0.0054370001889765263 0.99924302101135254 -0.038525000214576721
vn -0.0035500000230968 0.999517023563385 -0.030882000923156738
vn -0.0357309989631176 0.99816501140594482 0.048879001289606094
vn 0.0014309999532997608 0.99802201986312866 0.062853001058101654
vn -0.025304999202489853 0.998898983001709 -0.039494000375270844
vn -0.0098900003358721733 0.99805998802185059 -0.061471998691558838
vn 0.022143000736832619 0.99768602848052979 -0.064281001687049866
vn -0.0086249997839331627 0.9990689754486084 -0.042261000722646713
vn -0.043809998780488968 0.99866098165512085 -0.027532000094652176
vn 0.13347600400447846 0.98713099956512451 0.088072001934051514
vn -0.055275999009609222 0.99775302410125732 -0.0378590002655983
vn 0.0040170000866055489 0.99935698509216309 0.035620998591184616
vn 0.0092299999669194222 0.99995601177215576 0.0016049999976530671
vn -0.12750700116157532 0.99012601375579834 0.0582440011203289
vn -0.068025998771190643 0.99698501825332642 0.037330001592636108
vn -0.034915998578071594 0.99939000606536865 -0.00021899999410379678
vn -0.010250000283122063 0.99993401765823364 -0.0051679997704923153
vn -0.051144998520612717 0.99868202209472656 0.0042050001211464405
vn -0.053606998175382614 0.997622013092041 -0.043311998248100281
vn -0.042031999677419662 0.99814897775650024 -0.043951999396085739
vn -0.0536080002784729 0.997622013092041 -0.043311998248100281
vn 0.0015709999715909362 0.99998897314071655 -0.0044760000891983509
vn -0.019523000344634056 0.99923098087310791 -0.03401700034737587
vn -0.0081930002197623253 0.99996101856231689 -0.0033730000723153353
vn 0.00047599998652003706 0.99995499849319458 -0.0094670001417398453
vn 0.0040719998069107532 0.9999849796295166 0.0035699999425560236
vn 0.10537499934434891 0.98748397827148438 0.11735600233078003
vn -0.0049160001799464226 0.99989402294158936 -0.013682999648153782
vn 0.0063579999841749668 0.99995201826095581 -0.00749000022187829
vn 0.0028399999719113111 0.99999302625656128 -0.0023399998899549246
vn -0.00074799999129027128 0.9999079704284668 -0.013534000143408775
vn -0.00808900035917759 0.9997599720954895 -0.020364999771118164
vn -0.0079410001635551453 0.99985098838806152 -0.015314999967813492
vn -0.0082069998607039452 0.9997590184211731 -0.020359000191092491
vn -0.0082059996202588081 0.9997590184211731 -0.020359000191092491
f 1/1/1 2/2/2 3/3/3
f 4/4/4 5/5/5 6/6/6
f 4/4/4 7/7/7 5/5/5
f 7/7/7 3/3/3 2/2/2
f 7/7/7 4/4/4 3/3/3
f 8/8/8 9/9/9 10/10/10
f 6/6/6 11/11/11 12/12/12
f 6/6/6 13/13/13 11/11/11
f 13/13/13 6/6/6 5/5/5
f 9/9/9 12/12/12 14/14/14
f 12/12/12 9/9/9 6/6/6
f 9/9/9 14/14/14 15/15/15
f 14/14/14 12/12/12 16/16/16
f 8/8/8 6/6/6 9/9/9
f 8/8/8 4/4/4 6/6/6
f 12/12/12 17/17/17 18/18/18
f 12/12/12 11/11/11 17/17/17
f 19/19/19 10/10/10 9/9/9
f 20/20/20 21/21/21 15/15/15
f 15/15/15 22/22/22 23/23/23
f 24/24/24 15/15/15 25/25/25
f 24/24/24 20/20/20 15/15/15
f 15/15/15 23/23/23 25/25/25
f 22/22/22 15/15/15 14/14/14
f 26/26/26 25/25/25 23/23/23
f 26/26/26 27/27/27 25/25/25
f 28/28/28 25/25/25 27/27/27
f 26/26/26 23/23/23 29/29/29
f 28/28/28 24/24/24 25/25/25
f 28/28/28 30/30/30 24/24/24
f 23/23/23 22/22/22 31/31/31
f 15/15/15 19/19/19 9/9/9
f 15/15/15 21/21/21 19/19/19
f 22/22/22 14/14/14 32/32/32
f 33/33/33 34/34/34 18/18/18
f 16/16/16 18/18/18 35/35/35
f 12/12/12 18/18/18 16/16/16
f 16/16/16 35/35/35 36/36/36
f 37/37/37 18/18/18 34/34/34
f 37/37/37 35/35/35 18/18/18
f 33/33/33 18/18/18 17/17/17
f 38/38/38 39/39/39 40/40/40
f 40/40/40 35/35/35 37/37/37
f 40/40/40 39/39/39 35/35/35
f 41/41/41 36/36/36 42/42/42
f 36/36/36 43/43/43 44/44/44
f 36/36/36 41/41/41 43/43/43
f 42/42/42 35/35/35 39/39/39
f 42/42/42 36/36/36 35/35/35
f 32/32/32 16/16/16 36/36/36
f 31/31/31 32/32/32 44/44/44
f 22/22/22 32/32/32 31/31/31
f 45/45/45 46/46/46 31/31/31
f 14/14/14 16/16/16 32/32/32
f 45/45/45 31/31/31 47/47/47
f 48/48/48 44/44/44 49/49/49
f 48/48/48 50/50/50 44/44/44
f 44/44/44 50/50/50 31/31/31
f 51/51/51 50/50/50 48/48/48
f 49/49/49 44/44/44 43/43/43
f 51/51/51 52/52/52 50/50/50
f 51/51/51 53/53/53 52/52/52
f 53/53/53 51/51/51 54/54/54
f 47/47/47 50/50/50 52/52/52
f 47/47/47 31/31/31 50/50/50
f 44/44/44 32/32/32 36/36/36
f 46/46/46 23/23/23 31/31/31
f 46/46/46 29/29/29 23/23/23
