mtllib m122222302.mtl
usemtl material0
v 34.766018033027649 0.76799297332763672 16
v 34.559520959854126 0.76164102554321289 16
v 34.776409029960632 0.78770798444747925 16.194931030273438
v 36.851939976215363 1.0669709444046021 16
v 36.767418026924133 1.0510820150375366 16
v 36.772156000137329 1.0626790523529053 16.088669061660767
v 36.67340499162674 1.040287971496582 16
v 32 0.48498401045799255 16
v 32.781124114990234 0.6055070161819458 16.300874948501587
v 32.446307897567749 0.56021398305892944 16
v 32 0.48240199685096741 16.06971001625061
v 32 0.47229799628257751 16.342545986175537
v 34.881870031356812 0.8233339786529541 18.189185976982117
v 32.765186071395874 0.59490102529525757 16
v 36.877952992916107 1.1666630506515503 18.082689046859741
v 32 0.67333501577377319 17.169209957122803
v 32 0.83516097068786621 18.341331005096436
v 32.886913061141968 0.7085149884223938 18.294898986816406
v 32 0.69075500965118408 17.49708890914917
v 32 0.91318398714065552 19.281099021434784
v 34.98887300491333 1.1719419956207275 20.182366997003555
v 36.9833300113678 1.1851979494094849 20.077003002166748
v 32.993721008300781 1.0175729990005493 20.2882139980793
v 32 0.93115699291229248 19.394851982593536
v 32 0.98909801244735718 20.409451991319656
v 32.049133062362671 1.0106890201568604 21.338085055351257
v 32 0.98761498928070068 20.340786010026932
v 33.099051952362061 1.0268299579620361 22.282560110092163
v 32 1.0085400342941284 21.293897986412048
v 32 1.0097130537033081 21.340682983398438
v 32.101845026016235 1.0245950222015381 22.335226058959961
v 32 1.0213240385055542 22.243623971939087
v 35.0944020152092 1.2217249870300293 22.176573038101196
v 37.089290976524353 1.3228709697723389 22.070908069610596
v 38.872910022735596 1.2809909582138062 17.976978063583374
v 32 1.0133520364761353 22.340641021728516
v 32 1.0266959667205811 22.448429107666016
v 32 1.1127380132675171 23.504302978515625
v 32.154953002929688 1.1195529699325562 23.332089900970459
v 32 1.1078289747238159 23.340308904647827
v 32 1.0947970151901245 24
v 32.19008994102478 1.0955109596252441 24
v 32.898075103759766 1.2045470476150513 24
v 33.45388388633728 1.2373310327529907 24
v 33.190650939941406 1.210204005241394 24
v 35.353630006313324 1.2954210042953491 24
v 35.190994024276733 1.286890983581543 24
v 37.191939949989319 1.481112003326416 24
v 37.25360095500946 1.4785939455032349 24
v 39.083240985870361 1.23261296749115 21.96589994430542
v 38.978152990341187 1.2726720571517944 19.97138400003314
v 40 1.2507439851760864 16
v 40 1.2667690515518189 16.724215030670166
v 38.768311023712158 1.2359919548034668 16
v 40 1.2973109483718872 17.917407989501953
v 38.442553997039795 1.2074459791183472 16
v 40 1.3567409515380859 18.990417003631592
v 39.18997597694397 1.527508020401001 23.959264993667603
v 38.419543981552124 1.5116380453109741 24
v 40 1.3492319583892822 19.917181000113487
v 40 1.3245500326156616 20.947131991386414
v 40 1.3685590028762817 21.917057037353516
v 40 1.4170739650726318 22.789248943328857
v 40 1.5794789791107178 23.916326999664307
v 40 1.5856850147247315 23.976974010467529
v 39.1921501159668 1.5318280458450317 24
v 40 1.5880409479141235 24
vt 0.33627799153327942 0.014558970928192139
vt 0.31131100654602051 0.015338003635406494
vt 0.3383449912071228 0.038191020488739014
vt 0.59101599454879761 0.0093389749526977539
vt 0.58061897754669189 0.0094950199127197266
vt 0.58160197734832764 0.020277023315429688
vt 0.56918102502822876 0.0097640156745910645
vt 4.0999999328050762E-05 0.023777008056640625
vt 0.0965379998087883 0.057591021060943604
vt 0.054744001477956772 0.022301971912384033
vt 0.00021699999342672527 0.03220897912979126
vt 0.00075299997115507722 0.06300199031829834
vt 0.35799700021743774 0.27888202667236328
vt 0.093511998653411865 0.021265983581542969
vt 0.60102099180221558 0.26125097274780273
vt 0.0053869998082518578 0.16575902700424194
vt 0.00889500044286251 0.30896902084350586
vt 0.11685299873352051 0.29848498106002808
vt 0.0066249999217689037 0.20543801784515381
vt 0.014073999598622322 0.42404401302337646
vt 0.38042199611663818 0.52284100651741028
vt 0.62030398845672607 0.5019569993019104
vt 0.13887399435043335 0.541714996099472
vt 0.014592999592423439 0.43795901536941528
vt 0.019078999757766724 0.55935698747634888
vt 0.027884999290108681 0.67147600650787354
vt 0.018983999267220497 0.55244699120521545
vt 0.15766499936580658 0.78244900703430176
vt 0.021808000281453133 0.66628199815750122
vt 0.021952999755740166 0.67193800210952759
vt 0.03729499876499176 0.79184900224208832
vt 0.024702999740839005 0.78108300268650055
vt 0.39966699481010437 0.76359599828720093
vt 0.64216899871826172 0.74295699596405029
vt 0.84223300218582153 0.24255001544952393
vt 0.024925999343395233 0.79280300438404083
vt 0.025425000116229057 0.80592499673366547
vt 0.028459999710321426 0.93396999686956406
vt 0.048057999461889267 0.91376499831676483
vt 0.029068000614643097 0.91414300352334976
vt 0.031185999512672424 0.99498399998992682
vt 0.054163001477718353 0.99445200012996793
vt 0.14073500037193298 0.99193300027400255
vt 0.20808200538158417 0.98996900022029877
vt 0.17609700560569763 0.99075799994170666
vt 0.43847998976707458 0.98304799944162369
vt 0.4187999963760376 0.98367900028824806
vt 0.66023600101470947 0.97660999931395054
vt 0.66769498586654663 0.97640400007367134
vt 0.87997502088546753 0.72381600737571716
vt 0.86131501197814941 0.48300600051879883
vt 0.97241997718811035 0.00012600421905517578
vt 0.974636971950531 0.087680995464324951
vt 0.82353699207305908 0.0038570165634155273
vt 0.97810900211334229 0.2312309741973877
vt 0.78401100635528564 0.0047870278358459473
vt 0.9820370078086853 0.36110299825668335
vt 0.9016759991645813 0.96527900174260139
vt 0.80867201089859009 0.97270100004971027
vt 0.98498702049255371 0.47311902046203613
vt 0.98803597688674927 0.59770399332046509
vt 0.99184000492095947 0.71503299474716187
vt 0.99460297822952271 0.81986300647258759
vt 0.99963897466659546 0.95744900032877922
vt 0.99988698959350586 0.96481499820947647
vt 0.90208297967910767 0.97022099979221821
vt 0.99995899200439453 0.96761399880051613
vn -0.083627998828887939 0.99187600612640381 -0.095858998596668243
vn -0.078123003244400024 0.99586999416351318 -0.046248000115156174
vn -0.11236000061035156 0.99245202541351318 -0.049143999814987183
vn -0.11376199871301651 0.99202001094818115 -0.054347001016139984
vn -0.14681300520896912 0.98179000616073608 -0.12055999785661697
vn -0.11906500160694122 0.990755021572113 -0.065018996596336365
vn -0.13438999652862549 0.98594099283218384 -0.099298998713493347
vn -0.16610400378704071 0.98543298244476318 0.036495000123977661
vn -0.0956059992313385 0.99410402774810791 -0.051151998341083527
vn -0.15276800096035004 0.9880329966545105 0.0212629996240139
vn -0.1661050021648407 0.98543298244476318 0.036495000123977661
vn -0.17251899838447571 0.97970497608184814 -0.10205700248479843
vn -0.10141299664974213 0.99210202693939209 -0.073820002377033234
vn -0.10057300329208374 0.99448502063751221 -0.029728999361395836
vn -0.11036200076341629 0.99368000030517578 -0.020486999303102493
vn -0.02042900025844574 0.99516099691390991 -0.09611000120639801
vn 0.13398799300193787 0.98334598541259766 -0.12278900295495987
vn 0.010165000334382057 0.99393802881240845 -0.10946899652481079
vn 0.055585000663995743 0.99491900205612183 -0.083939999341964722
vn 0.073507003486156464 0.98758202791213989 -0.13884900510311127
vn -0.050005998462438583 0.99382197856903076 -0.099086001515388489
vn -0.03873400017619133 0.998242974281311 -0.044833999127149582
vn -0.045935001224279404 0.99648302793502808 -0.070083998143672943
vn 0.0310479998588562 0.99097597599029541 -0.13039499521255493
vn -0.031144000589847565 0.99928200244903564 -0.021586000919342041
vn -0.01799900084733963 0.99973297119140625 -0.014519000425934792
vn -0.03221999853849411 0.99868202209472656 -0.039946999400854111
vn -0.054972998797893524 0.99712598323822021 -0.052138000726699829
vn -0.023215999826788902 0.99947100877761841 -0.022793000563979149
vn -0.020851999521255493 0.99960702657699585 -0.018750999122858047
vn -0.042924001812934875 0.998054027557373 -0.045221999287605286
vn -0.043283000588417053 0.99898499250411987 0.012455999851226807
vn -0.064333997666835785 0.997376024723053 -0.033192001283168793
vn -0.0063919997774064541 0.99794399738311768 -0.063770003616809845
vn -0.045968998223543167 0.99873900413513184 -0.020191999152302742
vn -0.11094100028276444 0.99354398250579834 -0.023699000477790833
vn -0.0882359966635704 0.99128901958465576 -0.09777899831533432
vn -0.020890999585390091 0.99956601858139038 0.020759999752044678
vn -0.055045999586582184 0.99699801206588745 -0.054443001747131348
vn -0.078433997929096222 0.99516201019287109 -0.059168998152017593
vn -0.0037539999466389418 0.99933898448944092 0.036169998347759247
vn -0.080472998321056366 0.99595099687576294 0.04008299857378006
vn -0.050303000956773758 0.99622100591659546 -0.070804998278617859
vn -0.082420997321605682 0.99316400289535522 -0.082653999328613281
vn -0.06222200021147728 0.99276602268218994 -0.102681003510952
vn -0.065181002020835876 0.99688202142715454 -0.0444599986076355
vn -0.040839001536369324 0.99860298633575439 -0.033525001257658005
vn -0.027357999235391617 0.99639701843261719 -0.080277003347873688
vn 0.022231999784708023 0.99471002817153931 -0.10029199719429016
vn -0.053916998207569122 0.99661701917648315 -0.062029998749494553
vn -0.058463998138904572 0.99817401170730591 0.015189000405371189
vn -0.011973000131547451 0.99968397617340088 -0.022120999172329903
vn -0.012870999984443188 0.99965399503707886 -0.022928999736905098
vn -0.050953000783920288 0.99849998950958252 -0.020031999796628952
vn -0.016576999798417091 0.999064028263092 -0.039951000362634659
vn -0.08729100227355957 0.99601501226425171 -0.018270000815391541
vn -0.059147998690605164 0.99821001291275024 -0.008830999955534935
vn -0.048523999750614166 0.99118798971176147 -0.12325400114059448
vn -0.027997000142931938 0.98916298151016235 -0.14413100481033325
vn -0.073876000940799713 0.99714398384094238 0.015714999288320541
vn -0.091266997158527374 0.99579602479934692 0.007734999991953373
vn -0.14909599721431732 0.98757201433181763 -0.0497249998152256
vn -0.091899000108242035 0.98861300945281982 -0.11916100233793259
vn -0.070010997354984283 0.989995002746582 -0.12251199781894684
vn -0.069057002663612366 0.99243098497390747 -0.10155099630355835
vn -0.048324000090360641 0.9935309886932373 -0.10276799649000168
vn -0.069057002663612366 0.99243098497390747 -0.10154899954795837
f 1/1/1 2/2/2 3/3/3
f 4/4/4 5/5/5 6/6/6
f 5/5/5 7/7/7 6/6/6
f 8/8/8 9/9/9 10/10/10
f 8/8/8 11/11/11 9/9/9
f 11/11/11 12/12/12 9/9/9
f 13/13/13 3/3/3 9/9/9
f 2/2/2 9/9/9 3/3/3
f 2/2/2 14/14/14 9/9/9
f 3/3/3 15/15/15 6/6/6
f 16/16/16 9/9/9 12/12/12
f 14/14/14 10/10/10 9/9/9
f 1/1/1 6/6/6 7/7/7
f 1/1/1 3/3/3 6/6/6
f 17/17/17 18/18/18 19/19/19
f 9/9/9 19/19/19 18/18/18
f 9/9/9 16/16/16 19/19/19
f 20/20/20 18/18/18 17/17/17
f 21/21/21 13/13/13 18/18/18
f 9/9/9 18/18/18 13/13/13
f 13/13/13 22/22/22 15/15/15
f 20/20/20 23/23/23 18/18/18
f 20/20/20 24/24/24 23/23/23
f 15/15/15 3/3/3 13/13/13
f 23/23/23 25/25/25 26/26/26
f 23/23/23 27/27/27 25/25/25
f 27/27/27 23/23/23 24/24/24
f 23/23/23 21/21/21 18/18/18
f 23/23/23 26/26/26 28/28/28
f 25/25/25 29/29/29 26/26/26
f 30/30/30 26/26/26 29/29/29
f 30/30/30 31/31/31 26/26/26
f 30/30/30 32/32/32 31/31/31
f 33/33/33 21/21/21 23/23/23
f 34/34/34 22/22/22 21/21/21
f 13/13/13 21/21/21 22/22/22
f 35/35/35 15/15/15 22/22/22
f 35/35/35 6/6/6 15/15/15
f 36/36/36 37/37/37 31/31/31
f 38/38/38 39/39/39 40/40/40
f 37/37/37 39/39/39 31/31/31
f 37/37/37 40/40/40 39/39/39
f 31/31/31 39/39/39 28/28/28
f 41/41/41 39/39/39 38/38/38
f 41/41/41 42/42/42 39/39/39
f 32/32/32 36/36/36 31/31/31
f 43/43/43 39/39/39 42/42/42
f 28/28/28 44/44/44 33/33/33
f 28/28/28 45/45/45 44/44/44
f 46/46/46 33/33/33 47/47/47
f 46/46/46 34/34/34 33/33/33
f 33/33/33 34/34/34 21/21/21
f 48/48/48 34/34/34 46/46/46
f 47/47/47 33/33/33 44/44/44
f 23/23/23 28/28/28 33/33/33
f 49/49/49 34/34/34 48/48/48
f 49/49/49 50/50/50 34/34/34
f 39/39/39 45/45/45 28/28/28
f 39/39/39 43/43/43 45/45/45
f 26/26/26 31/31/31 28/28/28
f 50/50/50 22/22/22 34/34/34
f 22/22/22 51/51/51 35/35/35
f 52/52/52 35/35/35 53/53/53
f 52/52/52 54/54/54 35/35/35
f 55/55/55 53/53/53 35/35/35
f 4/4/4 6/6/6 56/56/56
f 55/55/55 35/35/35 57/57/57
f 49/49/49 58/58/58 50/50/50
f 49/49/49 59/59/59 58/58/58
f 60/60/60 50/50/50 61/61/61
f 60/60/60 51/51/51 50/50/50
f 51/51/51 57/57/57 35/35/35
f 51/51/51 60/60/60 57/57/57
f 62/62/62 61/61/61 50/50/50
f 62/62/62 50/50/50 63/63/63
f 22/22/22 50/50/50 51/51/51
f 64/64/64 58/58/58 65/65/65
f 65/65/65 66/66/66 67/67/67
f 65/65/65 58/58/58 66/66/66
f 58/58/58 63/63/63 50/50/50
f 58/58/58 64/64/64 63/63/63
f 59/59/59 66/66/66 58/58/58
f 56/56/56 35/35/35 54/54/54
f 56/56/56 6/6/6 35/35/35
