mtllib m122222130.mtl
usemtl material0
v 48 1.4271819591522217 41.405663013458252
v 48.114670038223267 1.4381879568099976 41.487700939178467
v 48 1.4289369583129883 41.384604930877686
v 48 1.4198379516601563 41.493813037872314
v 48 1.4234110116958618 40
v 48.036072015762329 1.426192045211792 40
v 48.572765111923218 1.4623279571533203 40
v 50.109722018241882 1.5720410346984863 41.381923913955688
v 50.036221027374268 1.4651230573654175 40
v 52.037647001445293 1.7532140016555786 40
v 52.10436999797821 1.6238629817962647 41.276427984237671
v 53.25316596031189 1.8348449468612671 40
v 50.684409976005554 1.4845609664916992 40
v 56 2.0105528831481934 40
v 54.911518096923828 1.9655940532684326 40
v 56 1.959028959274292 40.979346990585327
v 48 1.5243899822235107 43.726729989051819
v 48.220458984375 1.5406919717788696 43.48172801733017
v 48 1.493507981300354 43.493519008159637
v 50.214179992675781 1.4045310020446777 43.376873016357422
v 52.209965005517006 1.68681800365448 43.270587980747223
v 50.318740963935852 1.2575260400772095 45.371757984161377
v 48 1.114266037940979 45.494655966758728
v 48.323371887207031 1.0587329864501953 45.4777569770813
v 52.31309100985527 1.249290943145752 45.2664680480957
v 54.204288005828857 1.6732100248336792 43.165318012237549
v 50.424862027168274 1.4269219636917114 47.365555047988892
v 48 1.0919140577316284 45.837242007255554
v 48 1.4964380264282227 43.28372997045517
v 52.418902993202209 1.3561869859695435 47.260478973388672
v 48 1.2149800062179565 47.494273900985718
v 48 1.2027809619903565 47.948868036270142
v 48.4293749332428 1.2046910524368286 47.471633911132812
v 48 1.2024259567260742 48
v 48.45724892616272 1.2009299993515015 48
v 50.4580500125885 1.3675940036773682 48
v 49.016738891601562 1.214669942855835 48
v 51.75347900390625 1.3154020309448242 48
v 52.457599997520447 1.288843035697937 48
v 54.414402008056641 1.5803689956665039 47.154392004013062
v 54.309047937393188 1.5667320489883423 45.160061001777649
v 56 1.9516329765319824 41.069672107696533
v 56 1.9441529512405396 41.169986963272095
v 54.099700927734375 1.8148419857025147 41.170455932617188
v 56 1.8499130010604858 43.069930970668793
v 54.038379907608032 1.90653395652771 40
v 56 1.8375799655914307 43.281166017055511
v 56 1.773239016532898 45.0701140165329
v 56 1.6956839561462402 46.680377960205078
v 54.458709955215454 1.5151569843292236 48
v 53.653301000595093 1.4170269966125488 48
v 56 1.6618469953536987 47.503604888916016
v 55.553261041641235 1.5908670425415039 48
v 56 1.6347320079803467 48
v 56 1.6968339681625366 47.070292949676514
v 56 1.6824610233306885 47.24829888343811
vt 0.9963650107383728 0.80471800267696381
vt 0.982371985912323 0.79497000575065613
vt 0.9963650107383728 0.8072659969329834
vt 0.9963650107383728 0.794051006436348
vt 0.99804198741912842 0.97423000074923038
vt 0.9936789870262146 0.97427299991250038
vt 0.92881500720977783 0.974906999617815
vt 0.74138200283050537 0.81008200347423553
vt 0.75234901905059814 0.97710200026631355
vt 0.50779402256011963 0.9800879992544651
vt 0.50091099739074707 0.825317993760109
vt 0.36088401079177856 0.97999400086700916
vt 0.67415297031402588 0.97790800034999847
vt 0.035050000995397568 0.99707100004889071
vt 0.16062100231647492 0.98846700042486191
vt 0.031971998512744904 0.87884700298309326
vt 0.99072599411010742 0.52440300583839417
vt 0.96469497680664062 0.554502010345459
vt 0.99186301231384277 0.55274900794029236
vt 0.72386801242828369 0.56985101103782654
vt 0.4810740053653717 0.58709898591041565
vt 0.70734298229217529 0.32887101173400879
vt 0.98351198434829712 0.30566501617431641
vt 0.94393301010131836 0.30744200944900513
vt 0.46685600280761719 0.34185200929641724
vt 0.24106800556182861 0.60709699988365173
vt 0.67893397808074951 0.088824987411499023
vt 0.98332399129867554 0.26426500082015991
vt 0.99209797382354736 0.57804900407791138
vt 0.43972599506378174 0.11773300170898438
vt 0.98511499166488647 0.063899993896484375
vt 0.98520201444625854 0.0090600252151489258
vt 0.92042702436447144 0.067164003849029541
vt 0.98585999011993408 0.0029289722442626953
vt 0.91503500938415527 0.0035859942436218262
vt 0.67291200160980225 0.012115001678466797
vt 0.84758001565933228 0.00575101375579834
vt 0.51349097490310669 0.022997021675109863
vt 0.42871499061584473 0.028742015361785889
vt 0.19882699847221375 0.14546197652816773
vt 0.22379900515079498 0.3639180064201355
vt 0.0316540002822876 0.86792300641536713
vt 0.031293001025915146 0.85579699277877808
vt 0.26084300875663757 0.84778299927711487
vt 0.023630000650882721 0.62122800946235657
vt 0.26580101251602173 0.98014499992132187
vt 0.023164000362157822 0.59571599960327148
vt 0.018705999478697777 0.37989199161529541
vt 0.010932999663054943 0.21414601802825928
vt 0.18805399537086487 0.043615996837615967
vt 0.28570398688316345 0.037469029426574707
vt 0.0053550000302493572 0.11476999521255493
vt 0.055984999984502792 0.05156099796295166
vt 0.0019570000004023314 0.054916977882385254
vt 0.0080709997564554214 0.16721200942993164
vt 0.0070380000397562981 0.14561200141906738
vn -0.15321600437164307 0.98478102684021 0.0820470005273819
vn -0.1031859964132309 0.994566023349762 -0.013825000263750553
vn -0.097580000758171082 0.99504202604293823 0.0192440003156662
vn -0.1570650041103363 0.98742902278900146 0.017738999798893929
vn -0.076861999928951263 0.99703401327133179 -0.0039789997972548008
vn -0.072185002267360687 0.99738198518753052 -0.0042289998382329941
vn -0.051989998668432236 0.99841701984405518 -0.021443000063300133
vn -0.021167000755667686 0.99976897239685059 -0.0038270000368356705
vn -0.015414999797940254 0.99696499109268188 -0.076314002275466919
vn -0.1319269984960556 0.985493004322052 0.10676400363445282
vn -0.079412996768951416 0.99600702524185181 0.040786001831293106
vn -0.084247998893260956 0.99253100156784058 0.088233001530170441
vn -0.068536996841430664 0.99711698293685913 -0.032575998455286026
vn -0.041211999952793121 0.99777001142501831 0.052494000643491745
vn -0.061181999742984772 0.99532902240753174 0.074671998620033264
vn -0.060311000794172287 0.99545502662658691 0.073705002665519714
vn 0.085074000060558319 0.986178994178772 0.14217300713062286
vn -0.052390001714229584 0.99729102849960327 0.051640000194311142
vn -0.21195100247859955 0.9754830002784729 -0.059248998761177063
vn -0.018515000119805336 0.99769300222396851 0.065309002995491028
vn -0.04489000141620636 0.99605602025985718 0.076535001397132874
vn -0.038860000669956207 0.99847298860549927 0.039253998547792435
vn 0.17475299537181854 0.9742550253868103 0.14244000613689423
vn 0.020002000033855438 0.99514800310134888 0.096330001950263977
vn -0.046966001391410828 0.99651199579238892 0.068971998989582062
vn -0.071849003434181213 0.99494701623916626 0.070137001574039459
vn -0.035698998719453812 0.99933397769927979 0.0075289998203516006
vn 0.056090999394655228 0.99755799770355225 -0.041618999093770981
vn -0.1732649952173233 0.98450201749801636 -0.027125999331474304
vn -0.041650999337434769 0.99898302555084229 0.017272999510169029
vn 0.022793000563979149 0.99949997663497925 -0.021936999633908272
vn 0.0084239998832345009 0.99989700317382812 0.011582000181078911
vn -0.036361999809741974 0.99918299913406372 -0.017663000151515007
vn 0.0032699999865144491 0.99997097253799438 0.0069450000301003456
vn -0.011106000281870365 0.999908983707428 0.0077030002139508724
vn -0.030290000140666962 0.99505102634429932 0.094632998108863831
vn -0.086327999830245972 0.99326997995376587 0.0772090032696724
vn 0.039407998323440552 0.99513101577758789 0.090342000126838684
vn -0.036614999175071716 0.9950370192527771 0.092528998851776123
vn -0.097919002175331116 0.99454402923583984 0.035985998809337616
vn -0.12854599952697754 0.99115699529647827 0.032928001135587692
vn -0.067466996610164642 0.99467200040817261 0.077941000461578369
vn -0.074109002947807312 0.99490201473236084 0.068401999771595
vn -0.079158999025821686 0.99377799034118652 0.078354001045227051
vn -0.09497399628162384 0.99404102563858032 0.053509000688791275
vn -0.079282999038696289 0.99347501993179321 0.081981003284454346
vn -0.10045699775218964 0.99353897571563721 0.052813000977039337
vn -0.11894399672746658 0.99203300476074219 0.041505001485347748
vn -0.08557400107383728 0.996275007724762 0.01067500002682209
vn -0.093953996896743774 0.99224001169204712 0.081441998481750488
vn -0.10992400348186493 0.98965197801589966 0.092228002846241
vn -0.075496003031730652 0.99437797069549561 0.074244000017642975
vn -0.076436996459960938 0.99436897039413452 0.07339700311422348
vn -0.097576998174190521 0.99374699592590332 0.054281000047922134
vn -0.071239002048969269 0.99676400423049927 0.0372299998998642
vn -0.068782001733779907 0.99439597129821777 0.080288998782634735
f 1/1/1 2/2/2 3/3/3
f 1/1/1 4/4/4 2/2/2
f 5/5/5 2/2/2 6/6/6
f 5/5/5 3/3/3 2/2/2
f 7/7/7 8/8/8 9/9/9
f 10/10/10 11/11/11 12/12/12
f 13/13/13 11/11/11 10/10/10
f 14/14/14 15/15/15 16/16/16
f 17/17/17 18/18/18 19/19/19
f 2/2/2 18/18/18 8/8/8
f 11/11/11 8/8/8 20/20/20
f 9/9/9 11/11/11 13/13/13
f 9/9/9 8/8/8 11/11/11
f 11/11/11 20/20/20 21/21/21
f 20/20/20 8/8/8 18/18/18
f 7/7/7 2/2/2 8/8/8
f 7/7/7 6/6/6 2/2/2
f 20/20/20 18/18/18 22/22/22
f 18/18/18 23/23/23 24/24/24
f 18/18/18 17/17/17 23/23/23
f 21/21/21 22/22/22 25/25/25
f 24/24/24 22/22/22 18/18/18
f 21/21/21 25/25/25 26/26/26
f 24/24/24 27/27/27 22/22/22
f 22/22/22 21/21/21 20/20/20
f 23/23/23 28/28/28 24/24/24
f 26/26/26 11/11/11 21/21/21
f 29/29/29 19/19/19 18/18/18
f 2/2/2 29/29/29 18/18/18
f 2/2/2 4/4/4 29/29/29
f 22/22/22 30/30/30 25/25/25
f 31/31/31 32/32/32 33/33/33
f 34/34/34 33/33/33 32/32/32
f 34/34/34 35/35/35 33/33/33
f 33/33/33 27/27/27 24/24/24
f 27/27/27 30/30/30 22/22/22
f 33/33/33 36/36/36 27/27/27
f 33/33/33 37/37/37 36/36/36
f 24/24/24 31/31/31 33/33/33
f 24/24/24 28/28/28 31/31/31
f 27/27/27 38/38/38 30/30/30
f 27/27/27 36/36/36 38/38/38
f 37/37/37 33/33/33 35/35/35
f 39/39/39 30/30/30 38/38/38
f 40/40/40 25/25/25 30/30/30
f 25/25/25 41/41/41 26/26/26
f 42/42/42 26/26/26 43/43/43
f 42/42/42 44/44/44 26/26/26
f 43/43/43 26/26/26 45/45/45
f 16/16/16 44/44/44 42/42/42
f 16/16/16 15/15/15 44/44/44
f 15/15/15 46/46/46 44/44/44
f 47/47/47 41/41/41 48/48/48
f 41/41/41 45/45/45 26/26/26
f 41/41/41 47/47/47 45/45/45
f 48/48/48 41/41/41 49/49/49
f 25/25/25 40/40/40 41/41/41
f 50/50/50 40/40/40 51/51/51
f 30/30/30 51/51/51 40/40/40
f 30/30/30 39/39/39 51/51/51
f 52/52/52 53/53/53 54/54/54
f 50/50/50 55/55/55 40/40/40
f 50/50/50 56/56/56 55/55/55
f 56/56/56 53/53/53 52/52/52
f 56/56/56 50/50/50 53/53/53
f 49/49/49 40/40/40 55/55/55
f 49/49/49 41/41/41 40/40/40
f 11/11/11 26/26/26 44/44/44
f 46/46/46 11/11/11 44/44/44
f 46/46/46 12/12/12 11/11/11
