mtllib m1222222013.mtl
usemtl material0
v 12 0.59320002794265747 24.618762969970703
v 12.208273053169251 0.55722200870513916 24.3871990442276
v 12 0.56562799215316772 24.398169994354248
v 12 0.63153702020645142 25.674540013074875
v 12.261013031005859 0.57698601484298706 25.384320974349976
v 12 0.614512026309967 25.397984981536865
v 12 0.67012101411819458 26.730318009853363
v 12.313742995262146 0.59479701519012451 26.381449013948441
v 12 0.65128999948501587 26.39783701300621
v 12 0.78903102874755859 27.6144540309906
v 12.36684000492096 0.6873130202293396 27.378319025039673
v 12 0.73663598299026489 27.397534966468811
v 12 0.83054900169372559 27.7863450050354
v 12.187867045402527 0.56414598226547241 24
v 12.556694984436035 0.58802801370620728 24
v 13.205549001693726 0.57362300157547 24.334483981132507
v 12 0.57055401802062988 24.0845890045166
v 12 0.57188302278518677 24
v 13.258015990257263 0.53772401809692383 25.331797003746033
v 13.310922980308533 0.59166699647903442 26.328799992799759
v 12 0.83356797695159912 28
v 12.399641036987305 0.683804988861084 28
v 12.757305026054382 0.67454499006271362 28
v 13.363910019397736 0.66172301769256592 27.325747966766357
v 14.202647998929024 0.55389100313186646 24.281893014907837
v 14.255548000335693 0.60636997222900391 25.278901994228363
v 13.399618029594421 0.68400198221206665 28
v 14.360569000244141 0.552636981010437 27.273462057113647
v 13.707080006599426 0.65097498893737793 28
v 14.308398008346558 0.64859402179718018 26.275945991277695
v 13.188005983829498 0.59614098072052 24
v 13.506502002477646 0.58235102891922 24
v 14.187834993004799 0.56721198558807373 24
v 14.456301987171173 0.57186299562454224 24
v 15.200126051902771 0.61130601167678833 24.229035973548889
v 15.252815008163452 0.62081700563430786 25.226191997528076
v 15.305780053138733 0.68647801876068115 26.223156005144119
v 14.399928003549576 0.74971902370452881 28
v 14.657064020633698 0.74152499437332153 28
v 15.357537984848023 0.506538987159729 27.220963001251221
v 15.188045978546143 0.61349600553512573 24
v 16 0.60308998823165894 24.395678997039795
v 16 0.60096102952957153 24.186830997467041
v 16 0.55338597297668457 26.506977021694183
v 16 0.6091340184211731 26.186743006110191
v 15.606958985328674 0.7837030291557312 28
v 15.399994969367981 0.767553985118866 28
v 16 0.54540497064590454 27.186913013458252
v 16 0.6697850227355957 27.56291401386261
v 16 0.6309090256690979 25.186704993247986
v 16 0.64810901880264282 25.451470971107483
v 15.406131982803345 0.57849299907684326 24
v 16 0.59344398975372314 24.13243305683136
v 16 0.5751420259475708 24
v 16 0.67761498689651489 28
vt 0.813808023929596 0.0053460001945495605
vt 0.87140601873397827 0.053564012050628662
vt 0.8670470118522644 0.0037440061569213867
vt 0.56083601713180542 0.014792025089263916
vt 0.63313502073287964 0.075532019138336182
vt 0.62718302011489868 0.012548983097076416
vt 0.30786800384521484 0.024299025535583496
vt 0.39489099383354187 0.097714006900787354
vt 0.38760900497436523 0.02158200740814209
vt 0.093814000487327576 0.029295980930328369
vt 0.1556600034236908 0.11931699514389038
vt 0.14727799594402313 0.028732001781463623
vt 0.051447000354528427 0.029323995113372803
vt 0.96395999193191528 0.045396983623504639
vt 0.96720302104949951 0.13389098644256592
vt 0.89225798845291138 0.29195797443389893
vt 0.94214099645614624 0.00109100341796875
vt 0.9623979926109314 0.00037497282028198242
vt 0.6543620228767395 0.31397801637649536
vt 0.41636499762535095 0.335997998714447
vt 0.00031599999056197703 0.031899988651275635
vt 0.0071290000341832638 0.13299202919006348
vt 0.010468999855220318 0.21864902973175049
vt 0.17755700647830963 0.3576120138168335
vt 0.9146919846534729 0.53017899394035339
vt 0.67622900009155273 0.55287900567054749
vt 0.016379000619053841 0.37244397401809692
vt 0.19799299538135529 0.59728500247001648
vt 0.019043000414967537 0.44648498296737671
vt 0.43773901462554932 0.57475298643112183
vt 0.97239398956298828 0.28507000207901
vt 0.97473001480102539 0.36141502857208252
vt 0.979915976524353 0.524614006280899
vt 0.98430800437927246 0.5887179970741272
vt 0.93667399883270264 0.768885001540184
vt 0.69845801591873169 0.79113900661468506
vt 0.45945200324058533 0.81323599815368652
vt 0.019086999818682671 0.61416199803352356
vt 0.019648000597953796 0.67203900218009949
vt 0.21794700622558594 0.83590200543403625
vt 0.99139600992202759 0.76384100317955017
vt 0.90453499555587769 0.96199600026011467
vt 0.95453500747680664 0.959977999329567
vt 0.39479199051856995 0.98358000069856644
vt 0.47489601373672485 0.98010800033807755
vt 0.021155999973416328 0.89987599849700928
vt 0.021351000294089317 0.85013900697231293
vt 0.23198899626731873 0.98968799971044064
vt 0.1321990042924881 0.99069899972528219
vt 0.71504998207092285 0.96965499967336655
vt 0.65112000703811646 0.97197099961340427
vt 0.99342602491378784 0.81672200560569763
vt 0.96768099069595337 0.95942899957299232
vt 0.99968302249908447 0.958076998591423
vt 0.027662999927997589 0.99719800008460879
vn 0.11616499722003937 0.99198800325393677 -0.049644000828266144
vn 0.018163999542593956 0.9997979998588562 -0.0085960002616047859
vn 0.037280000746250153 0.99769598245620728 -0.0566909983754158
vn 0.16721299290657044 0.9853060245513916 -0.034818001091480255
vn 0.087332002818584442 0.99596101045608521 -0.020842999219894409
vn 0.13987599313259125 0.98916500806808472 -0.044589001685380936
vn 0.13846500217914581 0.98641002178192139 -0.088451996445655823
vn 0.0862089991569519 0.99455899000167847 -0.058476999402046204
vn 0.17493900656700134 0.98369097709655762 -0.04182099923491478
vn 0.11757399886846542 0.965304970741272 -0.23316000401973724
vn 0.10171700268983841 0.99198198318481445 -0.075000002980232239
vn 0.12261299788951874 0.97790801525115967 -0.169297993183136
vn 0.3000510036945343 0.9517509937286377 -0.064342997968196869
vn -0.0099790003150701523 0.99978101253509521 0.018403999507427216
vn -0.026629000902175903 0.99810600280761719 0.055447999387979507
vn 0.01333099976181984 0.99905300140380859 0.041418999433517456
vn 0.041147001087665558 0.99902999401092529 0.015696000307798386
vn 0.041147999465465546 0.99902999401092529 0.015696000307798386
vn -0.008902999572455883 0.99984699487686157 -0.015075000002980232
vn -0.028814999386668205 0.99766999483108521 -0.061845000833272934
vn 0.35088101029396057 0.93632698059082031 -0.01322999969124794
vn 0.18556100130081177 0.98262399435043335 -0.004246000200510025
vn 0.015052000060677528 0.99987202882766724 -0.005472999997437
vn 0.040290001779794693 0.99879199266433716 -0.028132999315857887
vn -0.024946000427007675 0.999675989151001 0.0050360001623630524
vn -0.047614999115467072 0.99802601337432861 -0.040947001427412033
vn 0.048076998442411423 0.99821197986602783 -0.035530000925064087
vn 0.035418000072240829 0.99825900793075562 -0.047157000750303268
vn 0.040550000965595245 0.99434900283813477 -0.098113000392913818
vn -0.023554999381303787 0.99971300363540649 0.0043930001556873322
vn 0.014227000065147877 0.99769002199172974 0.066419996321201324
vn 0.027800999581813812 0.998308002948761 0.051063999533653259
vn 0.0031049998942762613 0.99888801574707031 0.0470380000770092
vn -0.046278998255729675 0.99868601560592651 0.02202799916267395
vn 0.00019700000120792538 0.99971699714660645 -0.023768000304698944
vn -0.015579000115394592 0.99918699264526367 -0.037184000015258789
vn 0.034026000648736954 0.9976620078086853 0.059264000505208969
vn -0.049493998289108276 0.96461397409439087 -0.25898098945617676
vn 0.013120999559760094 0.96051198244094849 -0.27792799472808838
vn 0.00267999991774559 0.9963260293006897 -0.08559899777173996
vn 0.047494001686573029 0.99884700775146484 0.0070420000702142715
vn 0.0059239999391138554 0.99985402822494507 -0.016011999920010567
vn 0.0088929999619722366 0.99708002805709839 -0.075846999883651733
vn 0.076785996556282043 0.98801201581954956 0.13392199575901032
vn 0.11575999855995178 0.98714697360992432 0.11017999798059464
vn 0.015196999534964562 0.97081202268600464 -0.23935799300670624
vn -0.054455000907182693 0.94767802953720093 -0.3145500123500824
vn -0.067552000284194946 0.98661601543426514 -0.14841200411319733
vn 0.0050719999708235264 0.9687650203704834 -0.24793000519275665
vn -0.016104999929666519 0.998645007610321 -0.049492999911308289
vn 0.013659000396728516 0.9992070198059082 -0.037395000457763672
vn 0.046408001333475113 0.99383997917175293 -0.10064399987459183
vn 0.0055880001746118069 0.99057102203369141 -0.13688899576663971
vn 0.0055880001746118069 0.99057000875473022 -0.1368899941444397
vn 0.26055100560188293 0.965304970741272 -0.017293000593781471
f 1/1/1 2/2/2 3/3/3
f 4/4/4 5/5/5 6/6/6
f 7/7/7 8/8/8 9/9/9
f 10/10/10 11/11/11 12/12/12
f 10/10/10 13/13/13 11/11/11
f 14/14/14 2/2/2 15/15/15
f 2/2/2 5/5/5 16/16/16
f 2/2/2 6/6/6 5/5/5
f 2/2/2 1/1/1 6/6/6
f 14/14/14 3/3/3 2/2/2
f 14/14/14 17/17/17 3/3/3
f 17/17/17 14/14/14 18/18/18
f 12/12/12 8/8/8 7/7/7
f 12/12/12 11/11/11 8/8/8
f 8/8/8 19/19/19 5/5/5
f 11/11/11 20/20/20 8/8/8
f 21/21/21 11/11/11 13/13/13
f 21/21/21 22/22/22 11/11/11
f 11/11/11 23/23/23 24/24/24
f 11/11/11 22/22/22 23/23/23
f 9/9/9 5/5/5 4/4/4
f 9/9/9 8/8/8 5/5/5
f 5/5/5 19/19/19 16/16/16
f 19/19/19 25/25/25 16/16/16
f 20/20/20 26/26/26 19/19/19
f 8/8/8 20/20/20 19/19/19
f 27/27/27 24/24/24 23/23/23
f 27/27/27 28/28/28 24/24/24
f 27/27/27 29/29/29 28/28/28
f 20/20/20 24/24/24 30/30/30
f 11/11/11 24/24/24 20/20/20
f 31/31/31 16/16/16 32/32/32
f 15/15/15 16/16/16 31/31/31
f 15/15/15 2/2/2 16/16/16
f 33/33/33 16/16/16 25/25/25
f 33/33/33 32/32/32 16/16/16
f 34/34/34 33/33/33 25/25/25
f 35/35/35 25/25/25 26/26/26
f 25/25/25 19/19/19 26/26/26
f 30/30/30 24/24/24 28/28/28
f 26/26/26 30/30/30 36/36/36
f 30/30/30 28/28/28 37/37/37
f 38/38/38 28/28/28 29/29/29
f 39/39/39 28/28/28 38/38/38
f 39/39/39 40/40/40 28/28/28
f 26/26/26 20/20/20 30/30/30
f 34/34/34 35/35/35 41/41/41
f 34/34/34 25/25/25 35/35/35
f 35/35/35 26/26/26 36/36/36
f 42/42/42 35/35/35 36/36/36
f 42/42/42 43/43/43 35/35/35
f 37/37/37 28/28/28 40/40/40
f 44/44/44 37/37/37 40/40/40
f 44/44/44 45/45/45 37/37/37
f 46/46/46 40/40/40 47/47/47
f 46/46/46 48/48/48 40/40/40
f 46/46/46 49/49/49 48/48/48
f 47/47/47 40/40/40 39/39/39
f 37/37/37 50/50/50 36/36/36
f 37/37/37 51/51/51 50/50/50
f 36/36/36 30/30/30 37/37/37
f 41/41/41 35/35/35 52/52/52
f 43/43/43 52/52/52 35/35/35
f 43/43/43 53/53/53 52/52/52
f 53/53/53 54/54/54 52/52/52
f 42/42/42 36/36/36 50/50/50
f 44/44/44 40/40/40 48/48/48
f 51/51/51 37/37/37 45/45/45
f 49/49/49 46/46/46 55/55/55
