mtllib m12222000.mtl
usemtl material0
v 0 0.42976298928260803 116.02940392494202
v 0 0.59409499168396 118.18962097167969
v 2.0394811630249023 0.28726100921630859 115.9221568107605
v 0 0.75268101692199707 120.02826699987054
v 0 0.86980301141738892 122.41297888755798
v 2.251683235168457 0.619621992111206 119.90977499634028
v 0 0.23069800436496735 113.96607208251953
v 1.7683248519897461 -0.073568001389503479 112
v 0 0.0749880000948906 112.06488800048828
v 0.58353090286254883 0.022406000643968582 112
v 0 0.072185002267360687 112.03065490722656
v 0.49441099166870117 1.3579809665679932 128
v 2.6261239051818848 1.3224560022354126 128
v 2.6762552261352539 1.3180220127105713 127.88491106033325
v 0 1.2133569717407227 126.63648986816406
v 2.4635310173034668 0.87971502542495728 123.89764404296875
v 0 0.9782249927520752 124.027428150177
v 0 0.070254996418952942 112
v 1.8305678367614746 -0.077601000666618347 112
v 5.5674469470977783 -0.15449400246143341 112
v 0 0.23069800436496735 113.96607208251953
v 6.2408750057220459 0.70281898975372314 119.6988599896431
v 6.4523080587387085 0.8784409761428833 123.68701195716858
v 0 1.360152006149292 127.96382904052734
v 0 1.3641519546508789 128
v 6.0282299518585205 0.28061598539352417 115.71154022216797
v 2.7416448593139648 1.3243310451507568 128
v 5.830082893371582 -0.15331299602985382 112
v 9.3669359683990479 -0.037234999239444733 112
v 10.017584085464478 0.39700999855995178 115.50051116943359
v 6.6644749641418457 1.2034690380096436 127.67466020584106
v 10.44154691696167 0.97139900922775269 123.47606706619263
v 10.419912099838257 1.2563530206680298 128
v 10.653350114822388 1.2222089767456055 127.46396589279175
v 6.6817619800567627 1.2255040407180786 128
v 10.229752063751221 0.72204798460006714 119.48815900087357
v 14.007559776306152 0.63986301422119141 115.28904676437378
v 14.218454837799072 0.70611602067947388 119.27758002281189
v 9.8306599855422974 -0.020822999998927116 112
v 13.166847229003906 0.30814099311828613 112
v 14.430746078491211 1.0560510158538818 123.26513695716858
v 13.832458019256592 0.35162198543548584 112
v 16 0.98720699548721313 115.18273878097534
v 16 1.0028020143508911 117.2980420589447
v 16 1.0029779672622681 119.18256402015686
v 16 1.1869419813156128 121.52122497558594
v 14.642950057983398 1.388403058052063 127.25276184082031
v 16 0.83123898506164551 112
v 16 0.91279000043869019 113.07506608963013
v 14.682675838470459 1.4430389404296875 128
v 16 1.4827860593795776 127.18080902099609
v 16 1.517361044883728 127.68026685714722
v 16 1.5394949913024902 128
v 16 1.2573080062866211 123.18164110183716
v 16 1.4528729915618897 125.74456787109375
v 10.95805811882019 1.2739429473876953 128
vt 0.25183799862861633 0
vt 0.38685101270675659 0
vt 0.24513499438762665 0.12746798992156982
vt 0.50176697969436646 0
vt 0.65081101655960083 0
vt 0.494361013174057 0.14073002338409424
vt 0.1228799968957901 0
vt 0 0.11052000522613525
vt 0.0040560001507401466 0
vt 0 0.036471009254455566
vt 0.0019160000374540687 0
vt 1 0.030901014804840088
vt 1 0.16413301229476929
vt 0.99280697107315063 0.16726601123809815
vt 0.91478097438812256 0
vt 0.743602991104126 0.15397101640701294
vt 0.75171399116516113 0
vt 0 0
vt 0 0.11440998315811157
vt 0 0.34796500205993652
vt 0.1228799968957901 0
vt 0.48117899894714355 0.39005500078201294
vt 0.7304379940032959 0.40326899290084839
vt 0.99773901700973511 0
vt 1 0
vt 0.23197099566459656 0.37676399946212769
vt 1 0.17135298252105713
vt 0 0.36438000202178955
vt 0 0.58543300628662109
vt 0.21878199279308319 0.62609899044036865
vt 0.979665994644165 0.41653001308441162
vt 0.71725398302078247 0.65259701013565063
vt 1 0.65124499797821045
vt 0.96649801731109619 0.66583400964736938
vt 1 0.41760998964309692
vt 0.46801000833511353 0.6393589973449707
vt 0.20556500554084778 0.87547200173139572
vt 0.4548490047454834 0.888653002679348
vt 0 0.61441600322723389
vt 0 0.82292799651622772
vt 0.70407098531723022 0.90192200243473053
vt 0 0.86452899873256683
vt 0.19892099499702454 1
vt 0.33112800121307373 1
vt 0.44890999794006348 1
vt 0.59507697820663452 1
vt 0.95329797267913818 0.915183998644352
vt 0 1
vt 0.067192003130912781 1
vt 1 0.91766700148582458
vt 0.94880098104476929 1
vt 0.98001700639724731 1
vt 1 1
vt 0.6988530158996582 1
vt 0.85903501510620117 1
vt 1 0.68487900495529175
vn 0.064689002931118011 0.99380898475646973 -0.0903249979019165
vn 0.057165998965501785 0.99489098787307739 -0.08321099728345871
vn 0.0221599992364645 0.995307981967926 -0.094187997281551361
vn 0.05545400083065033 0.99634099006652832 -0.065043002367019653
vn 0.042043000459671021 0.99720001220703125 -0.061845999211072922
vn 0.006535000167787075 0.99681800603866577 -0.07944200187921524
vn 0.080471999943256378 0.99343001842498779 -0.081363998353481293
vn 0.067974001169204712 0.99338102340698242 -0.092597000300884247
vn 0.080471999943256378 0.9934309720993042 -0.0813629999756813
vn 0.080645002424716949 0.99365198612213135 -0.078431002795696259
vn 0.080991998314857483 0.99407398700714111 -0.072508998215198517
vn 0.015022999607026577 0.99798202514648438 -0.061693001538515091
vn 0.014964999631047249 0.99937599897384644 -0.031984001398086548
vn 0.010882999747991562 0.99506598711013794 -0.098612003028392792
vn 0.019547000527381897 0.9944310188293457 -0.10355799645185471
vn 0.0043640001676976681 0.99695497751235962 -0.077858000993728638
vn 0.035562001168727875 0.9960780143737793 -0.081023998558521271
vn 0.081564001739025116 0.99469900131225586 -0.062624998390674591
vn 0.021203000098466873 0.99537199735641479 -0.093725003302097321
vn 0.00749799981713295 0.99441701173782349 -0.10525699704885483
vn 0.064364999532699585 0.99331402778625488 -0.095831997692584991
vn -0.017204999923706055 0.99716097116470337 -0.073301002383232117
vn -0.0073680002242326736 0.997518002986908 -0.07002200186252594
vn 0.012404000386595726 0.99386399984359741 -0.10991399735212326
vn 0.012404999695718288 0.99386501312255859 -0.10990600287914276
vn -0.022064000368118286 0.99414998292922974 -0.1057329997420311
vn 0.023842999711632729 0.99738502502441406 -0.068222001194953918
vn -0.030643999576568604 0.99295598268508911 -0.1144540011882782
vn -0.03397199884057045 0.992717981338501 -0.11557400226593018
vn -0.048415001481771469 0.9942619800567627 -0.0953880026936531
vn -0.0032889998983591795 0.99723398685455322 -0.0742570012807846
vn -0.018559999763965607 0.99745398759841919 -0.068851999938488
vn -0.010189999826252461 0.99763399362564087 -0.067983999848365784
vn -0.02716200053691864 0.99729102849960327 -0.068361997604370117
vn 0.011408000253140926 0.9976080060005188 -0.068173997104167938
vn -0.017297999933362007 0.99821901321411133 -0.057096999138593674
vn -0.089332997798919678 0.99454498291015625 -0.053844001144170761
vn -0.059450998902320862 0.99713200330734253 -0.04682600125670433
vn -0.089934997260570526 0.98948198556900024 -0.113305002450943
vn -0.079011000692844391 0.992214024066925 -0.096272997558116913
vn -0.067018002271652222 0.99493002891540527 -0.074982002377510071
vn -0.18103699386119843 0.98051297664642334 -0.076291002333164215
vn -0.17247399687767029 0.98490697145462036 -0.014511000365018845
vn -0.16846999526023865 0.98569899797439575 -0.0038870000280439854
vn -0.16714300215244293 0.98416101932525635 -0.059071999043226242
vn -0.15198799967765808 0.98638999462127686 -0.062732003629207611
vn -0.074478000402450562 0.99447000026702881 -0.074037998914718628
vn -0.21545599400997162 0.97371602058410645 -0.073862999677658081
vn -0.1878030002117157 0.9810289740562439 -0.048075001686811447
vn -0.053424999117851257 0.99611598253250122 -0.069992996752262115
vn -0.071589000523090363 0.9965050220489502 -0.043044000864028931
vn -0.0728520005941391 0.99496197700500488 -0.068876996636390686
vn -0.0728520005941391 0.99496197700500488 -0.068878002464771271
vn -0.1304900050163269 0.98908698558807373 -0.068397998809814453
vn -0.10933399945497513 0.99242901802062988 -0.055954001843929291
vn -0.043641000986099243 0.99649500846862793 -0.071365997195243835
f 1/1/1 2/2/2 3/3/3
f 4/4/4 5/5/5 6/6/6
f 7/7/7 8/8/8 9/9/9
f 9/9/9 10/10/10 11/11/11
f 9/9/9 8/8/8 10/10/10
f 12/12/12 13/13/13 14/14/14
f 15/15/15 16/16/16 17/17/17
f 18/18/18 11/11/11 10/10/10
f 19/19/19 3/3/3 20/20/20
f 8/8/8 3/3/3 19/19/19
f 8/8/8 1/1/1 3/3/3
f 8/8/8 21/21/21 1/1/1
f 5/5/5 16/16/16 6/6/6
f 5/5/5 17/17/17 16/16/16
f 16/16/16 22/22/22 6/6/6
f 14/14/14 23/23/23 16/16/16
f 15/15/15 14/14/14 16/16/16
f 15/15/15 24/24/24 14/14/14
f 24/24/24 12/12/12 14/14/14
f 24/24/24 25/25/25 12/12/12
f 3/3/3 6/6/6 26/26/26
f 2/2/2 6/6/6 3/3/3
f 2/2/2 4/4/4 6/6/6
f 27/27/27 14/14/14 13/13/13
f 20/20/20 26/26/26 28/28/28
f 20/20/20 3/3/3 26/26/26
f 28/28/28 26/26/26 29/29/29
f 22/22/22 30/30/30 26/26/26
f 6/6/6 22/22/22 26/26/26
f 14/14/14 31/31/31 23/23/23
f 31/31/31 32/32/32 23/23/23
f 31/31/31 33/33/33 34/34/34
f 31/31/31 35/35/35 33/33/33
f 14/14/14 35/35/35 31/31/31
f 14/14/14 27/27/27 35/35/35
f 22/22/22 23/23/23 36/36/36
f 16/16/16 23/23/23 22/22/22
f 36/36/36 30/30/30 22/22/22
f 37/37/37 30/30/30 36/36/36
f 38/38/38 36/36/36 32/32/32
f 32/32/32 36/36/36 23/23/23
f 39/39/39 30/30/30 40/40/40
f 30/30/30 29/29/29 26/26/26
f 30/30/30 39/39/39 29/29/29
f 32/32/32 34/34/34 41/41/41
f 34/34/34 32/32/32 31/31/31
f 40/40/40 37/37/37 42/42/42
f 40/40/40 30/30/30 37/37/37
f 32/32/32 41/41/41 38/38/38
f 38/38/38 43/43/43 37/37/37
f 38/38/38 44/44/44 43/43/43
f 41/41/41 45/45/45 38/38/38
f 41/41/41 46/46/46 45/45/45
f 34/34/34 47/47/47 41/41/41
f 48/48/48 37/37/37 49/49/49
f 48/48/48 42/42/42 37/37/37
f 36/36/36 38/38/38 37/37/37
f 50/50/50 51/51/51 47/47/47
f 50/50/50 52/52/52 51/51/51
f 52/52/52 50/50/50 53/53/53
f 54/54/54 47/47/47 55/55/55
f 54/54/54 41/41/41 47/47/47
f 34/34/34 50/50/50 47/47/47
f 34/34/34 56/56/56 50/50/50
f 56/56/56 34/34/34 33/33/33
f 43/43/43 49/49/49 37/37/37
f 54/54/54 46/46/46 41/41/41
f 51/51/51 55/55/55 47/47/47
f 45/45/45 44/44/44 38/38/38
