mtllib m1222113.mtl
usemtl material0
v 229.92529296875 -4.7976908683776855 192
v 226.02357482910156 -4.9019098281860352 192
v 226.23825073242188 -5.2148008346557617 196.09715270996094
v 234.02627611160278 -4.3378758430480957 192
v 234.22026109695435 -4.319450855255127 195.6728515625
v 224 -5.19681978225708 196.21530246734619
v 224 -5.0103130340576172 193.75273132324219
v 224 -4.8775639533996582 192
v 237.52543592453003 -3.9651749134063721 192
v 234.64210510253906 -4.1774001121521 203.64987182617188
v 242.20372009277344 -3.1370151042938232 195.24758911132813
v 224 -5.030724048614502 201.68057298660278
v 226.66058254241943 -4.9750962257385254 204.07383704185486
v 224 -4.9180550575256348 204.21415710449219
v 224 -4.6101851463317871 207.03179901838303
v 224 -4.0389280319213867 220.21089172363281
v 224 -4.4887490272521973 223.9232177734375
v 227.50550842285156 -4.4430088996887207 220.02703857421875
v 224 -4.2517480850219727 215.47814893722534
v 227.08282470703125 -4.7539639472961426 212.05058288574219
v 224 -4.4390292167663574 212.21240186691284
v 235.06195116043091 -4.4386820793151855 211.62824988365173
v 242.62570190429688 -2.9681088924407959 203.22451782226563
v 235.48339796066284 -4.3743038177490234 219.60552978515625
v 227.71743774414063 -4.01808500289917 224
v 224 -4.4810471534729 224
v 235.71766710281372 -3.9344429969787598 224
v 231.53047180175781 -3.9638528823852539 224
v 243.46522498130798 -3.5199871063232422 219.18138122558594
v 239.12982201576233 -3.5521640777587891 224
v 243.04426598548889 -3.4832921028137207 211.2037661075592
v 242.03149390220642 -3.2884960174560547 192
v 245.12573194503784 -3.0668470859527588 192
v 250.03363037109375 -2.8350870609283447 192
v 250.18310546875 -2.7690360546112061 194.8250732421875
v 252.72514343261719 -2.6140830516815186 192
v 250.60533142089844 -2.5508151054382324 202.80183410644531
v 256 -2.4385240077972412 194.51687622070313
v 256 -2.4343409538269043 193.44674682617188
v 256 -2.42868709564209 192
v 256 -2.4530899524688721 200.05600023269653
v 251.02565002441406 -2.7163939476013184 210.77990698814392
v 256 -2.3898420333862305 202.51646423339844
v 256 -2.4507379531860352 205.25161695480347
v 251.44636535644531 -2.8009400367736816 218.7576904296875
v 246.72905015945435 -3.1948521137237549 224
v 251.72113037109375 -3.1856200695037842 224
v 256 -2.5798120498657227 218.51654052734375
v 254.32785034179688 -3.0694870948791504 224
v 256 -2.8543059825897217 222.14190673828125
v 243.71986389160156 -3.4669539928436279 224
v 256 -2.3901429176330566 213.69732713699341
v 256 -2.343998908996582 210.51606798171997
v 256 -2.9649219512939453 224
vt 0.99327397346496582 0.18560200929641724
vt 0.99327397346496582 0.065168023109436035
vt 0.866470992565155 0.071532011032104492
vt 0.99369901418685913 0.31293398141860962
vt 0.8803899884223938 0.31932401657104492
vt 0.86302000284194946 0.0024570226669311523
vt 0.939221978187561 0.0026130080223083496
vt 0.99345898628234863 0.0027250051498413086
vt 0.99406099319458008 0.42151397466659546
vt 0.6342809796333313 0.33357101678848267
vt 0.89424800872802734 0.56830900907516479
vt 0.69430601596832275 0.0019450187683105469
vt 0.6201930046081543 0.0838170051574707
vt 0.61605298519134521 0.001694023609161377
vt 0.52859598398208618 0.001314997673034668
vt 0.12154600024223328 0.0025399923324584961
vt 0.0061820000410079956 0.0047289729118347168
vt 0.12774400413036346 0.11139297485351563
vt 0.26772698760032654 0.0025789737701416016
vt 0.37405198812484741 0.098334014415740967
vt 0.36866000294685364 0.0024110078811645508
vt 0.38672199845314026 0.34474897384643555
vt 0.64813297986984253 0.58268299698829651
vt 0.14055800437927246 0.35757797956466675
vt 0.0044590001925826073 0.11798602342605591
vt 0.0038010000716894865 0.0047709941864013672
vt 0.0042880000546574593 0.36485499143600464
vt 0.00433199992403388 0.23565202951431274
vt 0.15534700453281403 0.61029300093650818
vt 0.003570999950170517 0.47079700231552124
vt 0.4014270007610321 0.595878005027771
vt 0.99451100826263428 0.562061995267868
vt 0.99509501457214355 0.65778100490570068
vt 0.995585024356842 0.80965100228786469
vt 0.90841597318649292 0.81472000479698181
vt 0.99587702751159668 0.89297900348901749
vt 0.66227298974990845 0.82917800545692444
vt 0.91876798868179321 0.9944489998742938
vt 0.95178800821304321 0.99429900012910366
vt 0.99642801284790039 0.99408499989658594
vt 0.74785399436950684 0.99522399995476007
vt 0.41610598564147949 0.84319600462913513
vt 0.67189300060272217 0.99566400004550815
vt 0.58747702836990356 0.996021999977529
vt 0.17000199854373932 0.857466995716095
vt 0.0073110000230371952 0.712444007396698
vt 0.0078389998525381088 0.86647899448871613
vt 0.1782120019197464 0.998096999945119
vt 0.0083699999377131462 0.9469899982213974
vt 0.066189996898174286 0.99846999999135733
vt 0.00671500014141202 0.61921599507331848
vt 0.32702699303627014 0.99756100005470216
vt 0.42500698566436768 0.9970720000565052
vt 0.0087559996172785759 0.9986849999986589
vn -0.088936001062393188 0.995809018611908 0.021344000473618507
vn -0.0066800001077353954 0.997048020362854 0.076491996645927429
vn -0.039283998310565948 0.99909001588821411 0.016581000760197639
vn -0.10876200348138809 0.99406802654266357 0.00075800000922754407
vn -0.12442100048065186 0.9921799898147583 -0.00986700039356947
vn 0.0091310003772377968 0.99974101781845093 0.020831000059843063
vn 0.011996000073850155 0.99707198143005371 0.0755160003900528
vn 0.011996000073850155 0.99707198143005371 0.0755160003900528
vn -0.13714499771595 0.99015802145004272 -0.027907000854611397
vn -0.11812199652194977 0.99299001693725586 0.0042420001700520515
vn -0.10175999999046326 0.99447500705718994 -0.025764999911189079
vn 0.0098010003566741943 0.99936997890472412 -0.034124001860618591
vn -0.032770000398159027 0.99870699644088745 -0.038871999830007553
vn 0.01727600023150444 0.99682998657226562 -0.077657997608184814
vn 0.080376997590065 0.99548399448394775 -0.050512000918388367
vn 0.11649200320243835 0.99238502979278564 0.040024001151323318
vn -0.066471002995967865 0.99662798643112183 -0.048106998205184937
vn 0.017924999818205833 0.99901300668716431 -0.040635999292135239
vn 0.10892599821090698 0.99291402101516724 -0.047513999044895172
vn 0.023690000176429749 0.9993090033531189 -0.02863599918782711
vn 0.099168002605438232 0.9940369725227356 -0.0453529991209507
vn -0.07835099846124649 0.99678999185562134 0.016445999965071678
vn -0.095891997218132019 0.99513298273086548 0.022708000615239143
vn -0.060780998319387436 0.99690800905227661 -0.049795001745224
vn -0.066568002104759216 0.99249297380447388 -0.10260000079870224
vn -0.12297499924898148 0.98745399713516235 -0.099055998027324677
vn -0.060940001159906387 0.993494987487793 -0.096194997429847717
vn -0.012226000428199768 0.994513988494873 -0.10388699918985367
vn -0.088269002735614777 0.99605697393417358 -0.00887100026011467
vn -0.086323000490665436 0.99373197555541992 -0.071030996739864349
vn -0.0985570028424263 0.99459797143936157 0.03258800134062767
vn -0.11138699948787689 0.99295502901077271 -0.040408998727798462
vn -0.053633000701665878 0.99820399284362793 -0.026689000427722931
vn -0.06390099972486496 0.99775701761245728 -0.019946999847888947
vn -0.051913999021053314 0.998520016670227 -0.0161920003592968
vn -0.063271999359130859 0.99799400568008423 -0.0021939999423921108
vn -0.045412998646497726 0.99895399808883667 0.0053079999051988125
vn -0.056554000824689865 0.99839401245117188 0.003286000108346343
vn -0.056520998477935791 0.99839401245117188 0.0039019999094307423
vn -0.056520998477935791 0.99839401245117188 0.0039019999094307423
vn -0.037966001778841019 0.999114990234375 -0.018126999959349632
vn -0.07811400294303894 0.99685400724411011 0.013395999558269978
vn -0.029959000647068024 0.99954801797866821 -0.0025239998940378428
vn -0.039655998349189758 0.99913698434829712 0.012330999597907066
vn -0.059909000992774963 0.99748700857162476 0.037822999060153961
vn -0.06660199910402298 0.99766600131988525 0.015033000148832798
vn -0.023801999166607857 0.996944010257721 0.074403002858161926
vn -0.04542899876832962 0.99735599756240845 0.056724000722169876
vn -0.049153000116348267 0.99625498056411743 0.071139998733997345
vn -0.048551999032497406 0.99624502658843994 0.0716790035367012
vn -0.055555000901222229 0.99842298030853271 -0.0080530000850558281
vn -0.067482002079486847 0.99751502275466919 0.020253000780940056
vn -0.074836000800132751 0.997189998626709 -0.003456000005826354
vn -0.062300998717546463 0.99629300832748413 0.059312000870704651
f 1/1/1 2/2/2 3/3/3
f 4/4/4 3/3/3 5/5/5
f 4/4/4 1/1/1 3/3/3
f 6/6/6 3/3/3 7/7/7
f 7/7/7 2/2/2 8/8/8
f 7/7/7 3/3/3 2/2/2
f 9/9/9 4/4/4 5/5/5
f 5/5/5 10/10/10 11/11/11
f 5/5/5 3/3/3 10/10/10
f 3/3/3 12/12/12 13/13/13
f 3/3/3 6/6/6 12/12/12
f 14/14/14 15/15/15 13/13/13
f 16/16/16 17/17/17 18/18/18
f 19/19/19 20/20/20 21/21/21
f 19/19/19 18/18/18 20/20/20
f 19/19/19 16/16/16 18/18/18
f 13/13/13 20/20/20 10/10/10
f 22/22/22 20/20/20 18/18/18
f 20/20/20 22/22/22 10/10/10
f 22/22/22 23/23/23 10/10/10
f 22/22/22 18/18/18 24/24/24
f 3/3/3 13/13/13 10/10/10
f 17/17/17 25/25/25 18/18/18
f 17/17/17 26/26/26 25/25/25
f 27/27/27 24/24/24 28/28/28
f 27/27/27 29/29/29 24/24/24
f 27/27/27 30/30/30 29/29/29
f 28/28/28 18/18/18 25/25/25
f 28/28/28 24/24/24 18/18/18
f 22/22/22 24/24/24 31/31/31
f 15/15/15 20/20/20 13/13/13
f 15/15/15 21/21/21 20/20/20
f 12/12/12 14/14/14 13/13/13
f 9/9/9 11/11/11 32/32/32
f 9/9/9 5/5/5 11/11/11
f 32/32/32 11/11/11 33/33/33
f 34/34/34 35/35/35 36/36/36
f 35/35/35 33/33/33 11/11/11
f 35/35/35 34/34/34 33/33/33
f 35/35/35 11/11/11 37/37/37
f 38/38/38 36/36/36 35/35/35
f 38/38/38 39/39/39 36/36/36
f 39/39/39 40/40/40 36/36/36
f 38/38/38 35/35/35 41/41/41
f 31/31/31 23/23/23 22/22/22
f 23/23/23 31/31/31 37/37/37
f 42/42/42 31/31/31 29/29/29
f 31/31/31 42/42/42 37/37/37
f 43/43/43 42/42/42 44/44/44
f 43/43/43 37/37/37 42/42/42
f 42/42/42 29/29/29 45/45/45
f 11/11/11 23/23/23 37/37/37
f 29/29/29 31/31/31 24/24/24
f 46/46/46 47/47/47 45/45/45
f 48/48/48 49/49/49 50/50/50
f 48/48/48 45/45/45 49/49/49
f 45/45/45 47/47/47 49/49/49
f 29/29/29 46/46/46 45/45/45
f 29/29/29 51/51/51 46/46/46
f 52/52/52 42/42/42 45/45/45
f 52/52/52 53/53/53 42/42/42
f 51/51/51 29/29/29 30/30/30
f 52/52/52 45/45/45 48/48/48
f 50/50/50 49/49/49 54/54/54
f 44/44/44 42/42/42 53/53/53
f 41/41/41 37/37/37 43/43/43
f 41/41/41 35/35/35 37/37/37
f 23/23/23 11/11/11 10/10/10
