mtllib m1222323.mtl
usemtl material0
v 160 1.1978499889373779 7.2763357162475586
v 160.31985473632813 1.1982580423355103 7.5641050338745117
v 160 1.1979800462722778 7.2708168029785156
v 160 1.3339420557022095 1.4919452667236328
v 168.80938720703125 1.8077130317687988 0
v 176.27348300814629 0.89451497793197632 6.7226037979125977
v 175.92054700106382 1.2738569974899292 0
v 177.25021398067474 1.2404400110244751 0
v 184.25018310546875 0.71722501516342163 6.30194091796875
v 183.91795301437378 0.80674999952316284 0
v 160.35971069335938 1.36866295337677 0
v 168.29759216308594 1.232915997505188 7.1427125930786133
v 167.9237060546875 1.849202036857605 0
v 185.69215393066406 0.80064398050308228 0
v 192 0.92274898290634155 1.5464305877685547
v 191.91877746582031 1.0037670135498047 0
v 192 0.69933199882507324 5.6759061813354492
v 160 1.1958689689636231 7.5810031890869141
v 168.71757507324219 0.99847197532653809 15.121030986309052
v 176.69509899616242 0.99063098430633545 14.699784994125366
v 160 1.367527961730957 0
v 160.74061584472656 1.1229900121688843 15.541875004768372
v 160 1.1243740320205689 14.875532984733582
v 192 0.69629001617431641 5.8927621841430664
v 192 0.9333299994468689 13.272672891616821
v 192 1.0067280530929565 0
v 192 1.0038230419158936 0.053490638732910156
v 184.67132568359375 0.7181280255317688 14.279448986053467
v 169.1402440071106 1.3064789772033691 23.097485065460205
v 177.1167140007019 1.0837990045547485 22.676977157592773
v 160 1.0667099952697754 15.581162989139557
v 161.16029357910156 0.82798200845718384 23.52039909362793
v 160 0.78496402502059937 22.476830005645752
v 192 0.93244701623916626 13.891762971878052
v 192 1.2384580373764038 20.868878841400146
v 185.09437561035156 1.1032830476760864 22.255638122558594
v 169.559326171875 0.89182502031326294 31.076419830322266
v 177.53808605670929 1.1310509443283081 30.654327392578125
v 160 0.76954799890518188 23.581855773925781
v 161.58078002929688 0.69554901123046875 31.49836540222168
v 160 0.64484602212905884 30.07655143737793
v 192 1.2862149477005005 21.890391826629639
v 192 1.4655699729919434 28.465702056884766
v 185.51722717285156 1.4474040269851685 30.231969833374023
v 169.60809278488159 0.89395797252655029 32
v 162.1384744644165 0.7098039984703064 32
v 177.60894799232483 1.0978389978408814 32
v 170.58592176437378 0.89699798822402954 32
v 160 0.68887102603912354 31.581860542297363
v 160 0.70474898815155029 32
v 161.60736083984375 0.71476298570632935 32
v 160 0.70413702726364136 31.983884811401367
v 192 1.4807349443435669 32
v 187.48223876953125 1.4311360120773315 32
v 192 1.4882659912109375 31.648153305053711
v 192 1.5259089469909668 29.889385223388672
v 185.61051940917969 1.4390430450439453 32
v 179.03422498703003 1.180677056312561 32
vt 0.99532502889633179 0.76992000639438629
vt 0.9854159951210022 0.76100899279117584
vt 0.99532502889633179 0.77009099721908569
vt 0.99532502889633179 0.94913300126791
vt 0.72196799516677856 0.99599999981001019
vt 0.49097999930381775 0.785642996430397
vt 0.50109702348709106 0.99423900013789535
vt 0.46180900931358337 0.99567400012165308
vt 0.24470600485801697 0.80012999475002289
vt 0.25485000014305115 0.99534999998286366
vt 0.984184980392456 0.99535600002855062
vt 0.738315999507904 0.77408599853515625
vt 0.74943000078201294 0.99616699991747737
vt 0.19989599287509918 0.99530600011348724
vt 0.0049049998633563519 0.948437999933958
vt 0.0075699998997151852 0.99639400001615286
vt 0.0047340001910924912 0.82034699618816376
vt 0.99532300233840942 0.76048299670219421
vt 0.72522300481796265 0.52695798873901367
vt 0.47813400626182556 0.54008299112319946
vt 0.99532598257064819 0.99535499978810549
vt 0.97232598066329956 0.51390200853347778
vt 0.99527102708816528 0.5345349907875061
vt 0.0047109997831285 0.81362900137901306
vt 0.0039369999431073666 0.58493098616600037
vt 0.005053000058978796 0.99640700011514127
vt 0.0050470000132918358 0.99474800005555153
vt 0.23093700408935547 0.55307701230049133
vt 0.7122499942779541 0.27970898151397705
vt 0.46510100364685059 0.29287499189376831
vt 0.99532800912857056 0.51260599493980408
vt 0.95986002683639526 0.26658201217651367
vt 0.99581402540206909 0.29884499311447144
vt 0.0039070001803338528 0.56476700305938721
vt 0.0039920001290738583 0.34845298528671265
vt 0.21800200641155243 0.30588597059249878
vt 0.70001399517059326 0.032200992107391357
vt 0.45195400714874268 0.045789003372192383
vt 0.9958069920539856 0.264614999294281
vt 0.94722801446914673 0.019421994686126709
vt 0.9961550235748291 0.063414990901947021
vt 0.0040130000561475754 0.31677800416946411
vt 0.0038709999062120914 0.11379802227020264
vt 0.20462000370025635 0.058920025825500488
vt 0.6985359787940979 0.0035930275917053223
vt 0.92996698617935181 0.003863990306854248
vt 0.45055499672889709 0.0040529966354370117
vt 0.66817200183868408 0.0036450028419494629
vt 0.99613398313522339 0.016770005226135254
vt 0.99620497226715088 0.0039269924163818359
vt 0.94641798734664917 0.0038719773292541504
vt 0.99620401859283447 0.0044260025024414062
vt 0.00381799996830523 0.0041750073432922363
vt 0.14375799894332886 0.0041540265083312988
vt 0.0037950000260025263 0.015173971652984619
vt 0.0038169999606907368 0.069661974906921387
vt 0.20173199474811554 0.0041570067405700684
vt 0.40558001399040222 0.0041170120239257812
vn -0.018345000222325325 0.99965202808380127 0.018975000828504562
vn -0.0045619998127222061 0.99985200166702271 0.016595000401139259
vn -0.022429000586271286 0.99947202205657959 0.023514000698924065
vn -0.0034769999329000711 0.99974000453948975 0.022523000836372375
vn 0.053183998912572861 0.99567300081253052 0.076201997697353363
vn 0.038819998502731323 0.99892598390579224 0.025288999080657959
vn 0.050808999687433243 0.99726897478103638 0.053605999797582626
vn 0.034373000264167786 0.99840801954269409 0.044711001217365265
vn 0.014136999845504761 0.999871015548706 0.0075759999454021454
vn 0.035227000713348389 0.99930298328399658 0.012338999658823013
vn -0.017211999744176865 0.99912500381469727 0.038116000592708588
vn 0.0081940004602074623 0.99899101257324219 0.044158000499010086
vn -0.010073999874293804 0.99620300531387329 0.0864809975028038
vn -0.0049669998697936535 0.99971497058868408 0.023364000022411346
vn -0.032620999962091446 0.99800801277160645 0.053998999297618866
vn -0.034409001469612122 0.99794298410415649 0.054088998585939407
vn -0.0061679999344050884 0.999675989151001 0.024698000401258469
vn -0.0070340000092983246 0.99994200468063354 0.0082069998607039452
vn 0.0089450003579258919 0.99995100498199463 -0.004207999911159277
vn 0.017526999115943909 0.99977201223373413 -0.012183000333607197
vn -0.0031540000345557928 0.99974197149276733 0.022505000233650208
vn -0.029713999480009079 0.99927401542663574 0.023835999891161919
vn -0.024165000766515732 0.99928897619247437 0.028934000059962273
vn 0.0022650000173598528 0.99996298551559448 -0.0082670003175735474
vn -0.021113000810146332 0.99974900484085083 -0.007521000225096941
vn -0.03638400137424469 0.997868001461029 0.054187998175621033
vn -0.03638400137424469 0.997868001461029 0.054189000278711319
vn -2.8000000384054147E-05 0.99967998266220093 -0.025315999984741211
vn -0.013252000324428082 0.9998670220375061 0.0095359999686479568
vn 0.0038189999759197235 0.99984800815582275 -0.01701899990439415
vn -0.0724560022354126 0.99554997682571411 0.060249000787734985
vn -0.052214998751878738 0.99816399812698364 0.030696999281644821
vn -0.067153997719287872 0.99717801809310913 0.033560000360012054
vn -0.030306000262498856 0.9993320107460022 -0.020439000800251961
vn -0.029611999168992043 0.99850600957870483 -0.0459120012819767
vn -0.010135999880731106 0.99919700622558594 -0.038770001381635666
vn -0.026984000578522682 0.99931901693344116 0.025165000930428505
vn -0.029224000871181488 0.99945002794265747 0.015656000003218651
vn -0.049410998821258545 0.99864000082015991 0.016643000766634941
vn -0.016276000067591667 0.99980401992797852 -0.011258999817073345
vn -0.0376800000667572 0.99927002191543579 0.0062589999288320541
vn -0.028434000909328461 0.99889999628067017 -0.037291001528501511
vn -0.017957000061869621 0.99910402297973633 -0.038318000733852386
vn -0.019812999293208122 0.99973797798156738 -0.011486999690532684
vn -0.013516999781131744 0.99990701675415039 -0.0015960000455379486
vn -0.0167239997535944 0.99981200695037842 -0.00981799978762865
vn -0.043774999678134918 0.99867802858352661 0.026953000575304031
vn -0.02263999916613102 0.99955201148986816 0.019565999507904053
vn -0.0060040000826120377 0.999413013458252 -0.033736001700162888
vn -0.0062250001356005669 0.99926102161407471 -0.037943001836538315
vn 0.0018139999592676759 0.99926197528839111 -0.038371998816728592
vn -0.0062259999103844166 0.99926000833511353 -0.0379440002143383
vn -0.010975999757647514 0.99971097707748413 0.021397000178694725
vn -0.007431000005453825 0.99981999397277832 0.017457999289035797
vn -0.010975999757647514 0.99971097707748413 0.021397000178694725
vn -0.012718000449240208 0.99985200166702271 -0.011544999666512013
vn -0.016791999340057373 0.99984300136566162 0.0056139999069273472
vn -0.043630000203847885 0.99897998571395874 0.011668000370264053
f 1/1/1 2/2/2 3/3/3
f 3/3/3 2/2/2 4/4/4
f 5/5/5 6/6/6 7/7/7
f 8/8/8 9/9/9 10/10/10
f 11/11/11 12/12/12 13/13/13
f 14/14/14 15/15/15 16/16/16
f 14/14/14 17/17/17 15/15/15
f 18/18/18 2/2/2 1/1/1
f 2/2/2 19/19/19 12/12/12
f 13/13/13 6/6/6 5/5/5
f 13/13/13 12/12/12 6/6/6
f 7/7/7 9/9/9 8/8/8
f 7/7/7 6/6/6 9/9/9
f 12/12/12 20/20/20 6/6/6
f 11/11/11 2/2/2 12/12/12
f 11/11/11 4/4/4 2/2/2
f 11/11/11 21/21/21 4/4/4
f 18/18/18 22/22/22 2/2/2
f 18/18/18 23/23/23 22/22/22
f 24/24/24 9/9/9 25/25/25
f 26/26/26 16/16/16 27/27/27
f 27/27/27 16/16/16 15/15/15
f 17/17/17 9/9/9 24/24/24
f 17/17/17 14/14/14 9/9/9
f 14/14/14 10/10/10 9/9/9
f 6/6/6 28/28/28 9/9/9
f 22/22/22 29/29/29 19/19/19
f 2/2/2 22/22/22 19/19/19
f 12/12/12 19/19/19 20/20/20
f 19/19/19 30/30/30 20/20/20
f 31/31/31 22/22/22 23/23/23
f 31/31/31 32/32/32 22/22/22
f 31/31/31 33/33/33 32/32/32
f 34/34/34 28/28/28 35/35/35
f 25/25/25 28/28/28 34/34/34
f 25/25/25 9/9/9 28/28/28
f 28/28/28 6/6/6 20/20/20
f 20/20/20 36/36/36 28/28/28
f 32/32/32 37/37/37 29/29/29
f 22/22/22 32/32/32 29/29/29
f 19/19/19 29/29/29 30/30/30
f 29/29/29 38/38/38 30/30/30
f 39/39/39 32/32/32 33/33/33
f 39/39/39 40/40/40 32/32/32
f 39/39/39 41/41/41 40/40/40
f 42/42/42 36/36/36 43/43/43
f 35/35/35 36/36/36 42/42/42
f 35/35/35 28/28/28 36/36/36
f 36/36/36 20/20/20 30/30/30
f 30/30/30 44/44/44 36/36/36
f 45/45/45 40/40/40 46/46/46
f 45/45/45 37/37/37 40/40/40
f 32/32/32 40/40/40 37/37/37
f 29/29/29 37/37/37 38/38/38
f 47/47/47 37/37/37 48/48/48
f 47/47/47 38/38/38 37/37/37
f 49/49/49 40/40/40 41/41/41
f 50/50/50 51/51/51 52/52/52
f 52/52/52 40/40/40 49/49/49
f 52/52/52 51/51/51 40/40/40
f 53/53/53 44/44/44 54/54/54
f 53/53/53 55/55/55 44/44/44
f 55/55/55 56/56/56 44/44/44
f 43/43/43 44/44/44 56/56/56
f 43/43/43 36/36/36 44/44/44
f 44/44/44 30/30/30 38/38/38
f 57/57/57 38/38/38 58/58/58
f 57/57/57 44/44/44 38/38/38
f 46/46/46 40/40/40 51/51/51
f 58/58/58 38/38/38 47/47/47
f 54/54/54 44/44/44 57/57/57
f 48/48/48 37/37/37 45/45/45
