mtllib m122011.mtl
usemtl material0
v 192 -4.0032200813293457 453.89288330078125
v 192 -3.991286039352417 462.18536376953125
v 199.82673645019531 -5.246373176574707 453.48336791992188
v 192 -3.1140279769897461 485.88913011550903
v 192 -3.2655720710754395 495.96929931640625
v 201.517333984375 -4.0278711318969727 485.38931322097778
v 192 -3.2453460693359375 501.88897705078125
v 197.717041015625 -3.9687249660491943 512
v 202.35957336425781 -4.0376191139221191 501.34432983398438
v 192 -3.3868091106414795 507.03604125976562
v 192 -3.5232388973236084 512
v 192 -3.6255190372467041 479.07733201980591
v 200.66949462890625 -5.1475729942321777 469.43801879882812
v 192 -3.884552001953125 469.89199829101562
v 199.53817749023438 -5.0674238204956055 448
v 192 -3.9342060089111328 451.04220581054688
v 192 -3.8605539798736572 448
v 215.77337646484375 -6.9456729888916016 452.64645385742188
v 217.46635389328003 -5.253058910369873 484.55081176757812
v 216.61769104003906 -6.5368208885192871 468.60006713867188
v 215.52890014648438 -6.7894878387451172 448
v 204.7593994140625 -5.6260862350463867 448
v 208.40962219238281 -4.0504508018493652 512
v 231.72537183761597 -7.5698728561401367 451.80599975585938
v 218.31193494796753 -4.5889911651611328 500.50360107421875
v 233.42686462402344 -4.16684103012085 483.7047119140625
v 228.89422607421875 -3.6429541110992432 512
v 234.27305603027344 -3.381680965423584 499.6571044921875
v 218.9197850227356 -4.40381383895874 512
v 232.57347106933594 -6.4012680053710938 467.75711059570312
v 219.95361280441284 -7.0507450103759766 448
v 231.52475023269653 -7.5115799903869629 448
v 247.68661499023438 -6.3357830047607422 450.95938110351562
v 249.388916015625 -2.7750380039215088 482.85760498046875
v 248.53811645507813 -4.4845728874206543 466.90823364257812
v 247.52955627441406 -6.49706506729126 448
v 235.14981079101563 -7.4872398376464844 448
v 241.28732299804688 -2.4838728904724121 512
v 256 -5.6089081764221191 450.51815795898438
v 256 -4.7095460891723633 458.61404418945312
v 250.23527526855469 -1.9576530456542969 498.80990600585938
v 256 -2.4444708824157715 482.5074770450592
v 256 -1.9650520086288452 492.40252685546875
v 250.93336486816406 -1.6123720407485962 512
v 256 -1.2394980192184448 498.5032958984375
v 256 -1.066910982131958 507.3408203125
v 256 -0.97592198848724365 512
v 256 -3.7650749683380127 466.51202392578125
v 256 -2.8495619297027588 475.50936889648438
v 250.3492431640625 -6.3037137985229492 448
v 256 -5.7882809638977051 448
v 256 -5.7243537902832031 448.8974609375
vt 0.875793993473053 0.0046020150184631348
vt 0.75092202425003052 0.0090249776840209961
vt 0.8862149715423584 0.12371701002120972
vt 0.39357000589370728 0.019958972930908203
vt 0.24175600707530975 0.025193989276885986
vt 0.40585500001907349 0.16369700431823731
vt 0.15260699391365051 0.028127014636993408
vt 0.0031540000345557928 0.11985701322555542
vt 0.16599699854850769 0.18432199954986572
vt 0.075070001184940338 0.030861973762512207
vt 0.00029200001154094934 0.033499002456665039
vt 0.49646401405334473 0.017280995845794678
vt 0.64638000726699829 0.14460402727127075
vt 0.63485300540924072 0.012920975685119629
vt 0.96864098310470581 0.11605697870254517
vt 0.91872698068618774 0.0029069781303405762
vt 0.96454399824142456 0.0010989904403686523
vt 0.90728598833084106 0.36476898193359375
vt 0.426364004611969 0.40418100357055664
vt 0.6673550009727478 0.38523799180984497
vt 0.9775879979133606 0.35823100805282593
vt 0.971563994884491 0.19512397050857544
vt 0.0084030004218220711 0.28051799535751343
vt 0.92794501781463623 0.604761004447937
vt 0.18633900582790375 0.42430597543716431
vt 0.44439700245857239 0.64489099383354187
vt 0.017078999429941177 0.58858400583267212
vt 0.20500800013542175 0.66510799527168274
vt 0.013461999595165253 0.43889302015304565
vt 0.68747597932815552 0.62515899538993835
vt 0.9796910285949707 0.42501199245452881
vt 0.98517000675201416 0.59986400604248047
vt 0.94697898626327515 0.8455670028924942
vt 0.462585985660553 0.88596999645233154
vt 0.70566898584365845 0.86709499359130859
vt 0.99154502153396606 0.8418550044298172
vt 0.98696297407150269 0.65445700287818909
vt 0.021630000323057175 0.776080995798111
vt 0.95687198638916016 0.97109699994325638
vt 0.8342130184173584 0.97548500075936317
vt 0.223361998796463 0.90621999651193619
vt 0.47011300921440125 0.98556500021368265
vt 0.32229098677635193 0.99035700038075447
vt 0.025076000019907951 0.92197799682617188
vt 0.22977599501609802 0.993640000000596
vt 0.097021996974945068 0.99713200004771352
vt 0.026827000081539154 0.998901000013575
vt 0.71443897485733032 0.97986800037324429
vt 0.57570099830627441 0.98286600038409233
vt 0.9926760196685791 0.88442700356245041
vt 0.994828999042511 0.96989800035953522
vt 0.98127901554107666 0.97032699920237064
vn 0.15741199254989624 0.98747402429580688 0.010838000103831291
vn 0.14658799767494202 0.98913800716400146 -0.010819000191986561
vn 0.13010199368000031 0.99146902561187744 0.00796900037676096
vn 0.094071000814437866 0.99516397714614868 -0.028257999569177628
vn 0.080825001001358032 0.99672800302505493 0.00089199998183175921
vn 0.082919001579284668 0.9958379864692688 -0.037836000323295593
vn 0.076902002096176147 0.99695998430252075 0.012497999705374241
vn 0.051835998892784119 0.99852502346038818 0.01612900011241436
vn 0.05337199941277504 0.99856001138687134 -0.0054689999669790268
vn 0.077657997608184814 0.99660402536392212 0.027390999719500542
vn 0.077657997608184814 0.99660402536392212 0.027390999719500542
vn 0.10345499962568283 0.992592990398407 -0.063684999942779541
vn 0.10965199768543243 0.993162989616394 -0.040043000131845474
vn 0.14305299520492554 0.98949098587036133 -0.02105100080370903
vn 0.1331699937582016 0.99076998233795166 0.025326000526547432
vn 0.15804199874401093 0.98714298009872437 0.02389799989759922
vn 0.15804299712181091 0.98714298009872437 0.02389799989759922
vn 0.072417996823787689 0.99737399816513062 0.00026699999580159783
vn 0.0032089999876916409 0.9979889988899231 -0.063300997018814087
vn 0.040642000734806061 0.997389018535614 -0.059689000248909
vn 0.084013000130653381 0.99604099988937378 0.02906000055372715
vn 0.10709299892187119 0.99386799335479736 0.027512999251484871
vn 0.024887999519705772 0.99960702657699585 -0.012927000410854816
vn -0.017808999866247177 0.9993709921836853 -0.030668999999761581
vn -0.021043999120593071 0.99936699867248535 -0.028689000755548477
vn -0.086570002138614655 0.99268501996994019 -0.084149003028869629
vn -0.082350999116897583 0.99649399518966675 -0.014794000424444675
vn -0.084981001913547516 0.99589097499847412 -0.031279999762773514
vn -0.023114999756217003 0.99962198734283447 -0.014879000373184681
vn -0.070817999541759491 0.99248898029327393 -0.099756002426147461
vn 0.044897999614477158 0.99883300065994263 0.017805999144911766
vn 0.017325999215245247 0.99974602460861206 0.014399000443518162
vn -0.0885239988565445 0.99307399988174438 -0.0772470012307167
vn -0.077848002314567566 0.994608998298645 -0.068506002426147461
vn -0.10755900293588638 0.98812001943588257 -0.10976999998092651
vn -0.074181996285915375 0.99597299098968506 -0.050342001020908356
vn -0.060226000845432281 0.99765497446060181 -0.032528001815080643
vn -0.091012001037597656 0.99563497304916382 -0.020701000466942787
vn -0.091479003429412842 0.99174898862838745 -0.089809998869895935
vn -0.094512000679969788 0.98921900987625122 -0.1118599995970726
vn -0.09920000284910202 0.99415898323059082 -0.042504999786615372
vn -0.052678000181913376 0.99719500541687012 -0.053167998790740967
vn -0.070483997464179993 0.99542099237442017 -0.064563997089862823
vn -0.10791400074958801 0.99395298957824707 -0.0203079991042614
vn -0.12697100639343262 0.989454984664917 -0.069701001048088074
vn -0.12461300194263458 0.9920160174369812 -0.019372999668121338
vn -0.12461300194263458 0.9920160174369812 -0.019372999668121338
vn -0.10116700083017349 0.98880797624588013 -0.10965699702501297
vn -0.089624002575874329 0.99183797836303711 -0.090691998600959778
vn -0.084659002721309662 0.9942619800567627 -0.065396003425121307
vn -0.090609997510910034 0.99336898326873779 -0.070758998394012451
vn -0.090609997510910034 0.99336898326873779 -0.070759996771812439
f 1/1/1 2/2/2 3/3/3
f 4/4/4 5/5/5 6/6/6
f 7/7/7 8/8/8 9/9/9
f 7/7/7 10/10/10 8/8/8
f 10/10/10 11/11/11 8/8/8
f 12/12/12 13/13/13 14/14/14
f 15/15/15 1/1/1 3/3/3
f 15/15/15 16/16/16 1/1/1
f 16/16/16 15/15/15 17/17/17
f 13/13/13 4/4/4 6/6/6
f 13/13/13 12/12/12 4/4/4
f 13/13/13 18/18/18 3/3/3
f 6/6/6 9/9/9 19/19/19
f 20/20/20 13/13/13 6/6/6
f 21/21/21 3/3/3 18/18/18
f 21/21/21 22/22/22 3/3/3
f 8/8/8 23/23/23 9/9/9
f 15/15/15 3/3/3 22/22/22
f 5/5/5 9/9/9 6/6/6
f 5/5/5 7/7/7 9/9/9
f 3/3/3 14/14/14 13/13/13
f 3/3/3 2/2/2 14/14/14
f 20/20/20 18/18/18 13/13/13
f 18/18/18 20/20/20 24/24/24
f 25/25/25 19/19/19 9/9/9
f 19/19/19 25/25/25 26/26/26
f 25/25/25 27/27/27 28/28/28
f 25/25/25 29/29/29 27/27/27
f 23/23/23 25/25/25 9/9/9
f 23/23/23 29/29/29 25/25/25
f 30/30/30 20/20/20 19/19/19
f 19/19/19 20/20/20 6/6/6
f 31/31/31 21/21/21 18/18/18
f 31/31/31 24/24/24 32/32/32
f 31/31/31 18/18/18 24/24/24
f 19/19/19 26/26/26 30/30/30
f 30/30/30 33/33/33 24/24/24
f 26/26/26 28/28/28 34/34/34
f 35/35/35 30/30/30 26/26/26
f 36/36/36 24/24/24 33/33/33
f 36/36/36 37/37/37 24/24/24
f 38/38/38 28/28/28 27/27/27
f 32/32/32 24/24/24 37/37/37
f 25/25/25 28/28/28 26/26/26
f 20/20/20 30/30/30 24/24/24
f 35/35/35 33/33/33 30/30/30
f 35/35/35 39/39/39 33/33/33
f 35/35/35 40/40/40 39/39/39
f 41/41/41 34/34/34 28/28/28
f 41/41/41 42/42/42 34/34/34
f 41/41/41 43/43/43 42/42/42
f 44/44/44 45/45/45 41/41/41
f 44/44/44 46/46/46 45/45/45
f 46/46/46 44/44/44 47/47/47
f 38/38/38 41/41/41 28/28/28
f 38/38/38 44/44/44 41/41/41
f 48/48/48 34/34/34 49/49/49
f 48/48/48 35/35/35 34/34/34
f 34/34/34 35/35/35 26/26/26
f 36/36/36 33/33/33 50/50/50
f 51/51/51 50/50/50 52/52/52
f 52/52/52 33/33/33 39/39/39
f 52/52/52 50/50/50 33/33/33
f 49/49/49 34/34/34 42/42/42
f 43/43/43 41/41/41 45/45/45
f 40/40/40 35/35/35 48/48/48
