mtllib m122131.mtl
usemtl material0
v 448 -2.8406329154968262 320
v 449.22268676757812 -3.2458748817443848 328.31124877929688
v 448.78634643554688 -2.7857348918914795 320
v 448 -3.2663109302520752 327.21136474609375
v 448 -3.4045910835266113 328.37628173828125
v 448 -3.4697329998016357 329.66973876953125
v 448 -4.7056422233581543 346.55807495117188
v 450.05865478515625 -4.4966220855712891 344.27041578292847
v 448 -4.6924901008605957 344.37973022460938
v 465.18255615234375 -2.3087329864501953 327.465576171875
v 448 -4.6628999710083008 360.37911987304688
v 450.90164184570312 -4.3587980270385742 360.22494506835938
v 448 -4.0962929725646973 376.3768310546875
v 448 -3.706212043762207 380.34268188476562
v 451.746826171875 -3.7781860828399658 376.17800903320312
v 448 -4.5074739456176758 363.44970703125
v 466.021240234375 -3.0204269886016846 343.42294311523438
v 456.70233154296875 -2.2857439517974854 320
v 464.7908935546875 -1.8390020132064819 320
v 471.89981079101562 -2.1044209003448486 320
v 480.79873698949814 -0.2683739960193634 320
v 481.15365600585938 0.85143798589706421 326.61248779296875
v 490.675537109375 -1.4307940006256104 320
v 497.09857177734375 -1.1719650030136108 325.77670288085938
v 496.79135131835938 -1.6083049774169922 320
v 512 -2.2578890323638916 320
v 507.56158447265625 -2.067317008972168 320
v 512 -1.9458739757537842 323.99224853515625
v 466.86306762695312 -3.1057429313659668 359.37823486328125
v 481.99200403690338 0.075781002640724182 342.570068359375
v 482.83087205886841 -0.60034501552581787 358.52734422683716
v 497.947509765625 0.14316000044345856 341.72732543945312
v 483.67675805091858 0.11454199999570847 374.47998046875
v 448 -3.1810948848724365 384
v 452.16592407226562 -2.5962760448455811 384
v 459.91046142578125 -1.8196829557418823 384
v 467.70941162109375 -2.3010139465332031 375.33056640625
v 475.11065721511841 -0.31575798988342285 384
v 468.17178344726562 -1.4007769823074341 384
v 484.18164110183716 0.5545240044593811 384
v 498.78887939453125 -0.036880999803543091 357.68295288085938
v 512 -1.8680969476699829 324.991943359375
v 512 -1.7739100456237793 326.10397338867188
v 512 -0.019564000889658928 342.99914646148682
v 512 0.0020290000829845667 340.98568725585938
v 512 -0.12104199826717377 356.98556518554688
v 499.63360595703125 0.44998300075531006 373.63632202148438
v 500.18441772460938 1.1605709791183472 384
v 490.30984497070312 0.69792300462722778 384
v 512 -0.50299900770187378 372.98623657226562
v 505.50711059570312 0.77066701650619507 384
v 512 -0.22803199291229248 376.78103637695312
v 512 -0.031665001064538956 359.89031982421875
v 512 -0.0655440017580986 384
vt 0.0011480000102892518 0.036872029304504395
vt 0.023741999641060829 0.16032302379608154
vt 0.012900999747216702 0.0364149808883667
vt 0.0048949997872114182 0.14460301399230957
vt 0.0054040001705288887 0.16210097074508667
vt 0.0061289998702704906 0.18141299486160278
vt 0.014800000004470348 0.43403100967407227
vt 0.044236999005079269 0.39864498376846313
vt 0.013473000377416611 0.40155202150344849
vt 0.26165398955345154 0.13862401247024536
vt 0.023121999576687813 0.64006701111793518
vt 0.066531002521514893 0.63601699471473694
vt 0.033429998904466629 0.87872099876403809
vt 0.036364998668432236 0.93811300024390221
vt 0.089360997080802917 0.87346699833869934
vt 0.025212999433279037 0.68589800596237183
vt 0.28274598717689514 0.3763740062713623
vt 0.13117200136184692 0.031861007213592529
vt 0.25196799635887146 0.02726900577545166
vt 0.35806700587272644 0.023858010768890381
vt 0.49362599849700928 0.021031975746154785
vt 0.50376397371292114 0.11483502388000488
vt 0.64098197221755981 0.0041270256042480469
vt 0.74313199520111084 0.095287024974823
vt 0.73820900917053223 0.0088589787483215332
vt 0.96219497919082642 0.002003014087677002
vt 0.89906597137451172 0.0077049732208251953
vt 0.96485000848770142 0.061698973178863525
vt 0.30474001169204712 0.61377900838851929
vt 0.52467399835586548 0.35264801979064941
vt 0.54517501592636108 0.59087398648262024
vt 0.76234197616577148 0.33367502689361572
vt 0.56938600540161133 0.82826299965381622
vt 0.039370998740196228 0.99316600011661649
vt 0.10195499658584595 0.99100499972701073
vt 0.21800999343395233 0.98645900003612041
vt 0.32788500189781189 0.85133400559425354
vt 0.4469819962978363 0.9763409998267889
vt 0.34132000803947449 0.980884000658989
vt 0.58284401893615723 0.97068100050091743
vt 0.78292602300643921 0.57065498828887939
vt 0.96526402235031128 0.076655983924865723
vt 0.965719997882843 0.093303024768829346
vt 0.97252202033996582 0.34498399496078491
vt 0.97166401147842407 0.31686699390411377
vt 0.97960197925567627 0.5535770058631897
vt 0.80685299634933472 0.80614100396633148
vt 0.82155400514602661 0.96067300066351891
vt 0.67415297031402588 0.96638400107622147
vt 0.99124801158905029 0.78750200569629669
vt 0.901291012763977 0.9568139985203743
vt 0.9936869740486145 0.84422500431537628
vt 0.98124599456787109 0.59221199154853821
vt 0.998852014541626 0.95185000076889992
vn -0.069523997604846954 0.99584698677062988 0.058782998472452164
vn -0.079209998250007629 0.99408102035522461 0.07435300201177597
vn -0.0663290023803711 0.99607402086257935 0.058628000319004059
vn -0.083614997565746307 0.9937099814414978 0.074487000703811646
vn -0.12399599701166153 0.98887699842453 0.0821399986743927
vn -0.098443999886512756 0.99231898784637451 0.074915997684001923
vn -0.10205800086259842 0.99477797746658325 -0.00095000001601874828
vn -0.088474996387958527 0.99541497230529785 0.036354001611471176
vn -0.092371001839637756 0.99479997158050537 0.042897999286651611
vn -0.10068800300359726 0.99432402849197388 0.034377001225948334
vn -0.10563500225543976 0.99402701854705811 -0.027428999543190002
vn -0.091484002768993378 0.99563801288604736 -0.018316999077796936
vn -0.087870001792907715 0.99396902322769165 -0.065610997378826141
vn -0.12634600698947907 0.98334300518035889 -0.13066400587558746
vn -0.096588999032974243 0.99183201789855957 -0.08330100029706955
vn -0.091041997075080872 0.99519497156143188 -0.036037001758813858
vn -0.13837699592113495 0.98990297317504883 0.030720999464392662
vn -0.057130999863147736 0.99633300304412842 0.063683003187179565
vn -0.010425999760627747 0.99793797731399536 0.063336998224258423
vn -0.1375029981136322 0.98576599359512329 -0.096743002533912659
vn -0.048719998449087143 0.98521798849105835 -0.16423000395298004
vn -0.036619998514652252 0.99767601490020752 -0.057454999536275864
vn 0.095054000616073608 0.98413902521133423 -0.14978499710559845
vn 0.05433100089430809 0.99555301666259766 -0.076954998075962067
vn 0.035473998636007309 0.9963880181312561 -0.077147997915744781
vn 0.0427669994533062 0.9960479736328125 -0.077846996486186981
vn 0.0425259992480278 0.99607902765274048 -0.077578999102115631
vn 0.042536001652479172 0.9960780143737793 -0.077590003609657288
vn -0.12265799939632416 0.99240899085998535 -0.0089250002056360245
vn -0.075392000377178192 0.99675101041793823 0.028347000479698181
vn -0.091635003685951233 0.99579298496246338 -0.00024399999529123306
vn 0.0016599999507889152 0.99934202432632446 -0.0362359993159771
vn -0.083204999566078186 0.99542701244354248 -0.046923000365495682
vn -0.13763399422168732 0.98042899370193481 -0.14076900482177734
vn -0.11733800172805786 0.98285502195358276 -0.14222300052642822
vn -0.085778996348381042 0.98753201961517334 -0.13199500739574432
vn -0.11869300156831741 0.9900280237197876 -0.075866997241973877
vn -0.13829199969768524 0.98716998100280762 -0.079815998673439026
vn -0.10431300103664398 0.98978197574615479 -0.097216002643108368
vn -0.0581590011715889 0.99738001823425293 -0.043010998517274857
vn -0.012811999768018723 0.99985498189926147 -0.01118099968880415
vn 0.042266998440027237 0.99583500623703 -0.080788001418113708
vn 0.033176999539136887 0.99518102407455444 -0.09227299690246582
vn 0.0097089996561408043 0.99990397691726685 0.0099149998277425766
vn 0.0070620002225041389 0.99839502573013306 -0.056187000125646591
vn 0.0057830000296235085 0.999921977519989 -0.011113000102341175
vn 0.014309000223875046 0.99915099143981934 -0.038644999265670776
vn 0.015093999914824963 0.99748897552490234 -0.069195002317428589
vn -0.029611000791192055 0.9982839822769165 -0.050523001700639725
vn 0.075972996652126312 0.99697697162628174 -0.016285000368952751
vn 0.087461002171039581 0.99442499876022339 -0.058908000588417053
vn 0.0857200026512146 0.99448198080062866 -0.0604810006916523
vn 0.022043999284505844 0.999642014503479 -0.015194999985396862
vn 0.127701997756958 0.99156099557876587 -0.022319000214338303
f 1/1/1 2/2/2 3/3/3
f 1/1/1 4/4/4 2/2/2
f 5/5/5 6/6/6 2/2/2
f 7/7/7 8/8/8 9/9/9
f 6/6/6 8/8/8 2/2/2
f 6/6/6 9/9/9 8/8/8
f 2/2/2 8/8/8 10/10/10
f 8/8/8 11/11/11 12/12/12
f 8/8/8 7/7/7 11/11/11
f 4/4/4 5/5/5 2/2/2
f 13/13/13 14/14/14 15/15/15
f 16/16/16 15/15/15 12/12/12
f 16/16/16 13/13/13 15/15/15
f 16/16/16 12/12/12 11/11/11
f 17/17/17 8/8/8 12/12/12
f 18/18/18 3/3/3 2/2/2
f 18/18/18 10/10/10 19/19/19
f 18/18/18 2/2/2 10/10/10
f 19/19/19 10/10/10 20/20/20
f 8/8/8 17/17/17 10/10/10
f 21/21/21 10/10/10 22/22/22
f 21/21/21 20/20/20 10/10/10
f 23/23/23 24/24/24 25/25/25
f 26/26/26 27/27/27 28/28/28
f 15/15/15 29/29/29 12/12/12
f 17/17/17 29/29/29 30/30/30
f 30/30/30 22/22/22 17/17/17
f 22/22/22 30/30/30 24/24/24
f 30/30/30 31/31/31 32/32/32
f 31/31/31 30/30/30 29/29/29
f 10/10/10 17/17/17 22/22/22
f 31/31/31 29/29/29 33/33/33
f 34/34/34 15/15/15 14/14/14
f 34/34/34 35/35/35 15/15/15
f 15/15/15 36/36/36 37/37/37
f 15/15/15 35/35/35 36/36/36
f 38/38/38 37/37/37 39/39/39
f 38/38/38 33/33/33 37/37/37
f 37/37/37 33/33/33 29/29/29
f 40/40/40 33/33/33 38/38/38
f 39/39/39 37/37/37 36/36/36
f 29/29/29 15/15/15 37/37/37
f 41/41/41 31/31/31 33/33/33
f 17/17/17 12/12/12 29/29/29
f 31/31/31 41/41/41 32/32/32
f 42/42/42 32/32/32 43/43/43
f 42/42/42 24/24/24 32/32/32
f 44/44/44 32/32/32 41/41/41
f 44/44/44 45/45/45 32/32/32
f 43/43/43 32/32/32 45/45/45
f 44/44/44 41/41/41 46/46/46
f 28/28/28 24/24/24 42/42/42
f 28/28/28 27/27/27 24/24/24
f 27/27/27 25/25/25 24/24/24
f 33/33/33 47/47/47 41/41/41
f 48/48/48 47/47/47 49/49/49
f 49/49/49 33/33/33 40/40/40
f 49/49/49 47/47/47 33/33/33
f 50/50/50 51/51/51 52/52/52
f 50/50/50 47/47/47 51/51/51
f 47/47/47 48/48/48 51/51/51
f 50/50/50 53/53/53 47/47/47
f 54/54/54 52/52/52 51/51/51
f 53/53/53 41/41/41 47/47/47
f 53/53/53 46/46/46 41/41/41
f 30/30/30 32/32/32 24/24/24
f 23/23/23 22/22/22 24/24/24
f 23/23/23 21/21/21 22/22/22
