mtllib m1222033.mtl
usemtl material0
v 96 2.5327210426330566 128.36376953125
v 96.158477783203125 2.5261449813842773 128
v 96 2.5284490585327148 128
v 101.35005187988281 2.3859219551086426 128
v 96 2.5490601062774658 130.95265197753906
v 102.8221435546875 2.36252498626709 130.59298706054688
v 96 2.5460689067840576 130.47869873046875
v 103.95142364501953 2.2157340049743652 128
v 102.68510437011719 2.3315269947052 128
v 109.56532311439514 2.1689920425415039 128
v 110.79927802085877 2.27380108833313 130.17201232910156
v 110.68402898311615 2.1596770286560059 128
v 111.7454069852829 2.205254077911377 128
v 111.22132897377014 2.4575240612030029 138.14889478683472
v 96 2.5692539215087891 132.05215454101563
v 103.24395847320557 2.4979100227355957 138.57003784179688
v 96 2.5891039371490479 138.95228576660156
v 96 2.6074039936065674 146.62173509597778
v 96 2.2935779094696045 154.95271301269531
v 96 2.2874259948730469 155.06666564941406
v 96.107620239257812 2.287024974822998 154.94705200195313
v 96 2.370419979095459 152.90029907226563
v 96 2.2436089515686035 160
v 96.3741226196289 2.2385189533233643 160
v 99.160018920898438 2.2976920604705811 160
v 104.08605194091797 2.4610099792480469 154.52517700195313
v 103.66518402099609 2.5160889625549316 146.54748511314392
v 96 2.6083641052246094 146.95196509361267
v 111.64346298575401 2.659782886505127 146.12573194503784
v 104.37374114990234 2.2010719776153564 160
v 106.75832414627075 2.1672101020812988 160
v 112.06316400319338 2.3674030303955078 154.10423278808594
v 112.37319201231003 2.1307690143585205 160
v 119.62036085128784 2.5236780643463135 145.70491003990173
v 114.35671997070313 2.083266019821167 160
v 120.03986358642578 2.1927239894866943 153.68354797363281
v 119.19861602783203 2.4005188941955566 137.72782897949219
v 118.77716779708862 2.33788800239563 129.75051879882813
v 117.78274488449097 2.2651979923248291 128
v 118.68444776535034 2.2777400016784668 128
v 119.53964996337891 2.2702150344848633 128
v 127.17632293701172 2.4279661178588867 137.30645799636841
v 126.75405883789063 2.2002980709075928 129.32972717285156
v 125.99884796142578 2.169666051864624 128
v 128 2.1470720767974854 129.26409912109375
v 128 2.3659861087799072 136.39083909988403
v 126.68370819091797 2.1708090305328369 128
v 127.33335113525391 2.1792669296264648 128
v 128 2.1506879329681396 128
v 128 2.1504530906677246 128.08198547363281
v 128 2.3254709243774414 137.26328992843628
v 127.59524536132813 1.9798460006713867 145.28549194335938
v 128 2.273169994354248 138.0487208366394
v 120.37192535400391 1.9218130111694336 160
v 128 1.5655499696731567 153.26516723632813
v 121.95471954345703 1.7938920259475708 160
v 128 1.5649629831314087 153.28033447265625
v 128 1.5786230564117432 152.99163818359375
v 128 1.9225339889526367 145.2642970085144
v 128 1.4316079616546631 160
vt 0.98480898141860962 0.0043619871139526367
vt 0.99607598781585693 0.0092719793319702148
vt 0.99607598781585693 0.004364013671875
vt 0.9960939884185791 0.17011100053787231
vt 0.90463101863861084 0.0043569803237915039
vt 0.9157940149307251 0.2157130241394043
vt 0.91930997371673584 0.0043579936027526855
vt 0.99614500999450684 0.25087201595306396
vt 0.99610400199890137 0.21149098873138428
vt 0.995822012424469 0.42473697662353516
vt 0.92879199981689453 0.46277797222137451
vt 0.99615097045898438 0.4592059850692749
vt 0.99607902765274048 0.49210697412490845
vt 0.68168097734451294 0.47574800252914429
vt 0.87057399749755859 0.0043439865112304688
vt 0.66870898008346558 0.22868698835372925
vt 0.65688002109527588 0.0043269991874694824
vt 0.41936099529266357 0.0043100118637084961
vt 0.16116499900817871 0.0040360093116760254
vt 0.15764600038528442 0.0043650269508361816
vt 0.16164100170135498 0.007360994815826416
vt 0.22476999461650848 0.004396975040435791
vt 0.0051509998738765717 0.0039049983024597168
vt 0.005140999797731638 0.015492022037506104
vt 0.0050920001231133938 0.10178899765014648
vt 0.17456699907779694 0.25451397895812988
vt 0.42164701223373413 0.24165898561477661
vt 0.40913400053977966 0.0043089985847473145
vt 0.43456199765205383 0.48878997564315796
vt 0.0048190001398324966 0.26331698894500732
vt 0.0047220000997185707 0.3371729850769043
vt 0.18729700148105621 0.50159400701522827
vt 0.0045540002174675465 0.51106598973274231
vt 0.44765499234199524 0.73586300015449524
vt 0.0045119998976588249 0.5726650059223175
vt 0.20013299584388733 0.74869701266288757
vt 0.69473099708557129 0.72280600666999817
vt 0.94169700145721436 0.70986399054527283
vt 0.995963990688324 0.679080992937088
vt 0.99594199657440186 0.70700898766517639
vt 0.99594199657440186 0.73349499702453613
vt 0.70776098966598511 0.96987400017678738
vt 0.95475900173187256 0.95693900063633919
vt 0.99595797061920166 0.93356399983167648
vt 0.95696300268173218 0.99555099988356233
vt 0.73614799976348877 0.99542099982500076
vt 0.99594998359680176 0.95477399975061417
vt 0.9959380030632019 0.97489500045776367
vt 0.99611097574234009 0.99536600010469556
vt 0.99357199668884277 0.99538399977609515
vt 0.70899301767349243 0.9955850001424551
vt 0.46029698848724365 0.983432000502944
vt 0.68461501598358154 0.995688000228256
vt 0.0043379999697208405 0.75902000069618225
vt 0.21248699724674225 0.99601300014182925
vt 0.0042220000177621841 0.80831700563430786
vt 0.211994007229805 0.99603800009936094
vt 0.22096699476242065 0.9960139999166131
vt 0.46088901162147522 0.99609500006772578
vt 0.003848999971523881 0.99587099999189377
vn 0.025369999930262566 0.99965399503707886 -0.0070190001279115677
vn 0.022399000823497772 0.99971401691436768 -0.0083140004426240921
vn 0.014538000337779522 0.99982500076293945 -0.0117419995367527
vn 0.03160100057721138 0.99946099519729614 -0.008922000415623188
vn 0.026669999584555626 0.99956601858139038 -0.012536000460386276
vn 0.024311000481247902 0.99945402145385742 -0.022397000342607498
vn 0.026999000459909439 0.99961602687835693 -0.0063089998438954353
vn 0.038855999708175659 0.99845999479293823 -0.039600998163223267
vn 0.065066002309322357 0.99776297807693481 -0.015367000363767147
vn 0.0083149997517466545 0.99856501817703247 -0.0529090017080307
vn -0.0026710000820457935 0.99939197301864624 -0.034777000546455383
vn -0.016395000740885735 0.99853301048278809 -0.051596000790596008
vn -0.022097000852227211 0.99890899658203125 -0.04114999994635582
vn 0.0010920000495389104 0.99982398748397827 -0.018707999959588051
vn 0.022646000608801842 0.999642014503479 -0.014227000065147877
vn 0.010165000334382057 0.99991399049758911 -0.008248000405728817
vn 0.012450000271201134 0.99991899728775024 -0.0026229999493807554
vn 0.012019000016152859 0.99992400407791138 -0.0027850000187754631
vn 0.063120998442173 0.996953010559082 0.045830998569726944
vn 0.025275999680161476 0.99949300289154053 0.019384000450372696
vn 0.019112000241875648 0.99948298931121826 0.025872999802231789
vn 0.01494900044053793 0.99909102916717529 0.039921998977661133
vn 0.013605000451207161 0.99986797571182251 0.0088809998705983162
vn -0.0043990002013742924 0.99994200468063354 0.0098310001194477081
vn -0.010626999661326408 0.99973797798156738 0.020261999219655991
vn -0.0026370000559836626 0.99965101480484009 0.026296000927686691
vn -0.0041279997676610947 0.9999840259552002 0.0038769999518990517
vn 0.01305100042372942 0.99972999095916748 0.019251000136137009
vn 0.00216299993917346 0.99999302625656128 0.00304899993352592
vn 0.016272999346256256 0.99878299236297607 0.04656599834561348
vn 0.012128000147640705 0.9989209771156311 0.044831998646259308
vn 0.017335999757051468 0.99909001588821411 0.038966000080108643
vn 0.01549999974668026 0.99910801649093628 0.039285000413656235
vn 0.035227999091148376 0.99918997287750244 0.019463000819087029
vn 0.024693999439477921 0.9989129900932312 0.039528999477624893
vn 0.05134199932217598 0.99786502122879028 0.04037100076675415
vn 0.0048469998873770237 0.99986499547958374 -0.015724999830126762
vn 0.0044999998062849045 0.99972498416900635 -0.023009000346064568
vn -0.011257000267505646 0.99931997060775757 -0.0351019985973835
vn -0.0029360000044107437 0.99941098690032959 -0.034184001386165619
vn 0.013059999793767929 0.99937200546264648 -0.032944999635219574
vn 0.061657000333070755 0.99800300598144531 0.013718999922275543
vn 0.020957000553607941 0.999567985534668 -0.020627999678254128
vn 0.0097759999334812164 0.99954402446746826 -0.028578000143170357
vn 0.041976001113653183 0.99902999401092529 -0.013344000093638897
vn 0.060988999903202057 0.998058021068573 -0.012695999816060066
vn -0.0071510002017021179 0.999737024307251 -0.021793000400066376
vn 0.02221900038421154 0.99973398447036743 -0.0061320001259446144
vn 0.042830999940633774 0.99907797574996948 0.0028589998837560415
vn 0.042830999940633774 0.99907797574996948 0.0028580001089721918
vn 0.1261650025844574 0.99044501781463623 0.055681999772787094
vn 0.10781300067901611 0.99307101964950562 0.046757999807596207
vn 0.13828100264072418 0.988985002040863 0.052799999713897705
vn 0.054607000201940536 0.99770998954772949 0.039921000599861145
vn 0.080730997025966644 0.99580001831054688 0.04318000003695488
vn 0.074983999133110046 0.99662202596664429 0.033505000174045563
vn 0.0756789967417717 0.99654799699783325 0.034132998436689377
vn 0.081981003284454346 0.99550002813339233 0.04752499982714653
vn 0.14241400361061096 0.98873400688171387 0.046084001660346985
vn 0.059808999300003052 0.99801301956176758 0.019805999472737312
f 1/1/1 2/2/2 3/3/3
f 4/4/4 5/5/5 6/6/6
f 4/4/4 7/7/7 5/5/5
f 7/7/7 2/2/2 1/1/1
f 7/7/7 4/4/4 2/2/2
f 8/8/8 9/9/9 6/6/6
f 10/10/10 6/6/6 11/11/11
f 10/10/10 8/8/8 6/6/6
f 4/4/4 6/6/6 9/9/9
f 12/12/12 11/11/11 13/13/13
f 10/10/10 11/11/11 12/12/12
f 11/11/11 6/6/6 14/14/14
f 6/6/6 15/15/15 16/16/16
f 6/6/6 5/5/5 15/15/15
f 17/17/17 18/18/18 16/16/16
f 19/19/19 20/20/20 21/21/21
f 22/22/22 19/19/19 21/21/21
f 23/23/23 21/21/21 20/20/20
f 23/23/23 24/24/24 21/21/21
f 21/21/21 25/25/25 26/26/26
f 21/21/21 24/24/24 25/25/25
f 22/22/22 27/27/27 28/28/28
f 22/22/22 21/21/21 27/27/27
f 16/16/16 27/27/27 14/14/14
f 27/27/27 26/26/26 29/29/29
f 26/26/26 27/27/27 21/21/21
f 16/16/16 28/28/28 27/27/27
f 16/16/16 18/18/18 28/28/28
f 30/30/30 26/26/26 25/25/25
f 31/31/31 26/26/26 30/30/30
f 31/31/31 32/32/32 26/26/26
f 32/32/32 29/29/29 26/26/26
f 27/27/27 29/29/29 14/14/14
f 31/31/31 33/33/33 32/32/32
f 29/29/29 32/32/32 34/34/34
f 32/32/32 35/35/35 36/36/36
f 32/32/32 33/33/33 35/35/35
f 37/37/37 14/14/14 29/29/29
f 6/6/6 16/16/16 14/14/14
f 15/15/15 17/17/17 16/16/16
f 38/38/38 11/11/11 14/14/14
f 39/39/39 11/11/11 38/38/38
f 39/39/39 13/13/13 11/11/11
f 39/39/39 38/38/38 40/40/40
f 40/40/40 38/38/38 41/41/41
f 37/37/37 34/34/34 42/42/42
f 43/43/43 38/38/38 37/37/37
f 44/44/44 38/38/38 43/43/43
f 44/44/44 41/41/41 38/38/38
f 29/29/29 34/34/34 37/37/37
f 14/14/14 37/37/37 38/38/38
f 36/36/36 34/34/34 32/32/32
f 45/45/45 42/42/42 46/46/46
f 45/45/45 43/43/43 42/42/42
f 47/47/47 43/43/43 48/48/48
f 49/49/49 48/48/48 50/50/50
f 50/50/50 43/43/43 45/45/45
f 50/50/50 48/48/48 43/43/43
f 42/42/42 43/43/43 37/37/37
f 51/51/51 46/46/46 42/42/42
f 42/42/42 34/34/34 52/52/52
f 44/44/44 43/43/43 47/47/47
f 51/51/51 42/42/42 53/53/53
f 35/35/35 54/54/54 36/36/36
f 55/55/55 56/56/56 57/57/57
f 55/55/55 36/36/36 56/56/56
f 36/36/36 54/54/54 56/56/56
f 55/55/55 52/52/52 36/36/36
f 55/55/55 58/58/58 52/52/52
f 59/59/59 52/52/52 58/58/58
f 60/60/60 57/57/57 56/56/56
f 34/34/34 36/36/36 52/52/52
f 53/53/53 52/52/52 59/59/59
f 53/53/53 42/42/42 52/52/52
