mtllib m1222302.mtl
usemtl material0
v 139.29336500167847 -0.039069999009370804 64
v 138.57920789718628 -0.019422000274062157 64
v 139.32896423339844 -0.0444130003452301 64.674751281738281
v 147.29289197921753 -0.094509996473789215 64
v 147.02432298660278 -0.096984997391700745 64
v 147.30624389648438 -0.10100500285625458 64.253677368164062
v 128 0.396602988243103 65.2716064453125
v 131.35255432128906 0.18891499936580658 65.095222473144531
v 128 0.35928899049758911 64.190093994140625
v 130.13552856445313 0.22431300580501556 64
v 128 0.35273098945617676 64
v 131.29476928710938 0.19530899822711945 64
v 147.72843909263611 0.11021199822425842 72.230461120605469
v 155.29202270507813 -0.22638699412345886 64
v 155.70469665527344 -0.15440399944782257 71.810089111328125
v 152.11460876464844 -0.17751200497150421 64
v 160 -0.58827602863311768 64
v 155.4688720703125 -0.24063199758529663 64
v 160 -0.55062901973724365 68.079048156738281
v 139.75309801101685 0.56084001064300537 72.650191783905029
v 128 0.688277006149292 68.822547912597656
v 128 1.6304680109024048 77.267333984375
v 128 1.6305500268936157 77.270102977752686
v 128.00260925292969 1.6304290294647217 77.267196893692017
v 128 1.9197419881820679 81.266304016113281
v 128 1.9256709814071655 81.493523001670837
v 128.21464538574219 1.9262080192565918 81.25494396686554
v 128 1.6241860389709473 77.218261957168579
v 128 0.74112802743911743 69.673233032226562
v 128 1.09688401222229 73.2691421508789
v 131.77598571777344 0.65061599016189575 73.071158885955811
v 132.20181274414063 1.5976400375366211 81.0454330444336
v 128.42573547363281 2.03106689453125 85.243340015411377
v 128 2.0188689231872559 85.265861988067627
v 128 2.09249210357666 89.265510559082031
v 128.63671875 2.1134610176086426 89.231819152832031
v 128 2.0255470275878906 85.7165298461914
v 132.62704467773438 2.4240429401397705 89.020126342773438
v 140.17767310142517 1.2539629936218262 80.6253359913826
v 128.84622192382813 1.8994699716567993 93.221305847167969
v 128 1.9161169528961182 92.459831237792969
v 148.15191698074341 0.58117002248764038 80.2063599973917
v 160 -0.54968798160552979 68.148887634277344
v 160 -0.50340402126312256 71.5843734741211
v 156.12638854980469 -0.043301001191139221 79.7872239947319
v 160 -0.37506800889968872 75.676277160644531
v 140.60166907310486 1.8289049863815308 88.6008825302124
v 148.5743260383606 0.84020000696182251 88.1829833984375
v 148.98671007156372 0.7849239706993103 96
v 148.81678819656372 0.80600202083587646 96
v 160 -0.43508100509643555 83.926558971405029
v 156.54620361328125 -0.30818799138069153 87.765633106231689
v 160 -0.30678999423980713 79.583496004343033
v 160 -0.45344001054763794 87.583710193634033
v 156.96627807617188 -0.52426600456237793 95.743881225585938
v 140.99417090415955 2.2009859085083008 96
v 140.38355994224548 2.2448201179504395 96
v 128 1.8925199508666992 93.2660140991211
v 128 1.8681579828262329 94.161796569824219
v 128.99203491210938 1.7289990186691284 96
v 128 1.7582290172576904 96
v 131.93968200683594 2.4657518863677979 96
v 132.99661254882813 2.6382958889007568 96
v 152.06817626953125 0.27951100468635559 96
v 160 -0.57218801975250244 92.371864318847656
v 160 -0.51943397521972656 95.583663940429688
v 156.97984313964844 -0.515699028968811 96
v 160 -0.51059502363204956 95.849334716796875
v 160 -0.50558197498321533 96
vt 0.97570902109146118 0.38314998149871826
vt 0.9765470027923584 0.36190897226333618
vt 0.95559501647949219 0.38343298435211182
vt 0.965474009513855 0.62054601311683655
vt 0.96574801206588745 0.6125819981098175
vt 0.95778697729110718 0.62065500020980835
vt 0.952331006526947 0.045938014984130859
vt 0.95218700170516968 0.14647597074508667
vt 0.98446100950241089 0.04730302095413208
vt 0.98750102519989014 0.11108797788619995
vt 0.99007999897003174 0.047603011131286621
vt 0.98414397239685059 0.14708399772644043
vt 0.72038102149963379 0.62299001216888428
vt 0.95556497573852539 0.85793200135231018
vt 0.72319197654724121 0.86025099456310272
vt 0.95935302972793579 0.76358799636363983
vt 0.94995498657226562 0.99798900005407631
vt 0.95534002780914307 0.86320400238037109
vt 0.828607976436615 0.99283199990168214
vt 0.71754801273345947 0.38526302576065063
vt 0.84658598899841309 0.040901005268096924
vt 0.59389400482177734 0.029085993766784668
vt 0.59380799531936646 0.029085993766784668
vt 0.59389597177505493 0.029205024242401123
vt 0.4750789999961853 0.023862004280090332
vt 0.46835801005363464 0.023626983165740967
vt 0.47513899207115173 0.030278980731964111
vt 0.59534502029418945 0.029199004173278809
vt 0.82125300168991089 0.039792001247406006
vt 0.71364599466323853 0.034883975982666016
vt 0.715732991695404 0.14788001775741577
vt 0.47673898935317993 0.14944899082183838
vt 0.3565869927406311 0.031620025634765625
vt 0.35650599002838135 0.019002020359039307
vt 0.23792000114917755 0.013100028038024902
vt 0.23791800439357758 0.0320659875869751
vt 0.3431439995765686 0.018189013004302979
vt 0.23819699883460999 0.15116399526596069
vt 0.47925499081611633 0.38709700107574463
vt 0.11890999972820282 0.031907975673675537
vt 0.14286999404430389 0.0079519748687744141
vt 0.48260098695755005 0.625205010175705
vt 0.826462984085083 0.992684000171721
vt 0.72468900680541992 0.98861599992960691
vt 0.48581200838088989 0.86321599781513214
vt 0.60329902172088623 0.98346900008618832
vt 0.24121099710464478 0.38906002044677734
vt 0.24508200585842133 0.62808498740196228
vt 0.012535000219941139 0.63183599710464478
vt 0.012721000239253044 0.62677100300788879
vt 0.35863101482391357 0.9743259996175766
vt 0.24839699268341065 0.86773699522018433
vt 0.48743000626564026 0.97887600027024746
vt 0.25010201334953308 0.97049300000071526
vt 0.011212999932467938 0.872067004442215
vt 0.020676000043749809 0.39098900556564331
vt 0.021432999521493912 0.37282097339630127
vt 0.1189429983496666 0.0066869854927062988
vt 0.092377997934818268 0.0050619840621948242
vt 0.036081999540328979 0.031264007091522217
vt 0.038035999983549118 0.0020099878311157227
vt 0.031970001757144928 0.12155300378799439
vt 0.030419999733567238 0.15323299169540405
vt 0.00913500040769577 0.72444599866867065
vt 0.10778599977493286 0.965744998306036
vt 0.012632999569177628 0.96218200027942657
vt 0.0035610001068562269 0.87214800715446472
vt 0.0047659999690949917 0.96188399940729141
vt 0.00030499999411404133 0.9617139995098114
vn 0.017833000048995018 0.99981701374053955 0.0069760000333189964
vn 0.029007000848650932 0.999567985534668 0.0047900001518428326
vn 0.02251799963414669 0.99932098388671875 -0.029178999364376068
vn 0.0035550000611692667 0.99967098236083984 0.025408999994397163
vn 0.0035949999000877142 0.9999229907989502 0.011853000149130821
vn 0.011390999890863895 0.99993401765823364 -0.0010900000343099237
vn 0.058634001761674881 0.99653899669647217 -0.058933001011610031
vn 0.039269998669624329 0.99852299690246582 -0.037535000592470169
vn 0.059989999979734421 0.99760502576828 -0.034419000148773193
vn 0.0518449991941452 0.99833399057388306 -0.025343999266624451
vn 0.059989999979734421 0.99760502576828 -0.034419000148773193
vn 0.027163999155163765 0.99962097406387329 0.0044030002318322659
vn 0.04506399855017662 0.99778002500534058 -0.049029998481273651
vn 0.0467739999294281 0.99883699417114258 -0.0116779999807477
vn 0.052331000566482544 0.99846500158309937 -0.018124999478459358
vn 0.015410000458359718 0.99983698129653931 -0.0094450004398822784
vn 0.076495997607707977 0.99702697992324829 -0.0092019997537136078
vn 0.0793989971280098 0.99676501750946045 -0.012446999549865723
vn 0.079265996813774109 0.99677801132202148 -0.012298000045120716
vn 0.035456001758575439 0.99577897787094116 -0.08466300368309021
vn 0.07433599978685379 0.99501699209213257 -0.066444002091884613
vn 0.011130999773740768 0.99699199199676514 -0.076705001294612885
vn -0.022843999788165092 0.99779897928237915 -0.062245000153779984
vn 0.052705001085996628 0.99342399835586548 -0.1016400009393692
vn -0.032628998160362244 0.99829697608947754 -0.048365000635385513
vn -0.030294999480247498 0.99922800064086914 -0.025010000914335251
vn 0.023468999192118645 0.99839699268341064 -0.051511999219655991
vn 0.10786200314760208 0.98543399572372437 -0.1314769983291626
vn 0.088161997497081757 0.99353599548339844 -0.071506001055240631
vn 0.11061500012874603 0.9871399998664856 -0.11541000008583069
vn 0.05572199821472168 0.993818998336792 -0.096010997891426086
vn 0.049465999007225037 0.99433600902557373 -0.09406600147485733
vn -0.015256999991834164 0.99899601936340332 -0.042114000767469406
vn -0.029668999835848808 0.99936801195144653 -0.019584000110626221
vn -0.031885001808404922 0.99930298328399658 0.019398000091314316
vn -0.054273001849651337 0.99833899736404419 0.019311999902129173
vn -0.032859999686479568 0.99929898977279663 -0.017906000837683678
vn -0.010515999980270863 0.99897098541259766 -0.044112998992204666
vn 0.059494998306035995 0.99479597806930542 -0.082713998854160309
vn -0.082370996475219727 0.99607002735137939 0.032545998692512512
vn -0.023742999881505966 0.99855500459671021 0.048216000199317932
vn 0.0829790011048317 0.995041012763977 -0.054839998483657837
vn 0.0802759975194931 0.99668198823928833 -0.013427999801933765
vn 0.079815000295639038 0.99656599760055542 -0.0220320001244545
vn 0.075089998543262482 0.9971429705619812 -0.0081650000065565109
vn 0.070252999663352966 0.99730497598648071 -0.021128999069333076
vn 0.0980369970202446 0.99371498823165894 -0.054033000022172928
vn 0.12676499783992767 0.991894006729126 -0.0087559996172785759
vn 0.14316000044345856 0.98969900608062744 -0.00055599998449906707
vn 0.13530600070953369 0.99071502685546875 -0.013265999965369701
vn 0.063057996332645416 0.99772697687149048 0.02375200018286705
vn 0.096739001572132111 0.99507397413253784 0.021653000265359879
vn 0.0681380033493042 0.9976620078086853 0.0052370000630617142
vn 0.04278000071644783 0.99897801876068115 0.014566999860107899
vn 0.08250100165605545 0.99647098779678345 -0.015448000282049179
vn 0.1250779926776886 0.9905400276184082 -0.056446999311447144
vn 0.067221999168396 0.9965280294418335 -0.049114000052213669
vn -0.0067199999466538429 0.9995800256729126 0.028186000883579254
vn 0.020968999713659286 0.99842101335525513 0.052106998860836029
vn -0.11117900162935257 0.991562008857727 0.066665001213550568
vn 0.029399000108242035 0.99778497219085693 0.059670001268386841
vn -0.17998400330543518 0.98366999626159668 -9.40000027185306E-05
vn -0.050551999360322952 0.99832999706268311 -0.027968000620603561
vn 0.16182099282741547 0.98681801557540894 -0.002216000109910965
vn 0.03264399990439415 0.999351978302002 0.015166000463068485
vn -0.0028890001121908426 0.99969398975372314 -0.024555999785661697
vn 0.075836002826690674 0.99642097949981689 -0.037346001714468
vn -0.0033480001147836447 0.99944102764129639 -0.033252999186515808
vn -0.0033480001147836447 0.99944102764129639 -0.033252999186515808
f 1/1/1 2/2/2 3/3/3
f 4/4/4 5/5/5 6/6/6
f 7/7/7 8/8/8 9/9/9
f 9/9/9 10/10/10 11/11/11
f 9/9/9 8/8/8 10/10/10
f 12/12/12 10/10/10 8/8/8
f 6/6/6 3/3/3 13/13/13
f 3/3/3 12/12/12 8/8/8
f 3/3/3 2/2/2 12/12/12
f 6/6/6 1/1/1 3/3/3
f 6/6/6 5/5/5 1/1/1
f 14/14/14 6/6/6 15/15/15
f 14/14/14 16/16/16 6/6/6
f 4/4/4 6/6/6 16/16/16
f 17/17/17 18/18/18 19/19/19
f 3/3/3 8/8/8 20/20/20
f 21/21/21 8/8/8 7/7/7
f 22/22/22 23/23/23 24/24/24
f 25/25/25 26/26/26 27/27/27
f 22/22/22 24/24/24 28/28/28
f 29/29/29 30/30/30 31/31/31
f 24/24/24 27/27/27 32/32/32
f 28/28/28 31/31/31 30/30/30
f 28/28/28 24/24/24 31/31/31
f 24/24/24 32/32/32 31/31/31
f 26/26/26 33/33/33 27/27/27
f 26/26/26 34/34/34 33/33/33
f 29/29/29 8/8/8 21/21/21
f 29/29/29 31/31/31 8/8/8
f 23/23/23 27/27/27 24/24/24
f 23/23/23 25/25/25 27/27/27
f 33/33/33 35/35/35 36/36/36
f 33/33/33 37/37/37 35/35/35
f 34/34/34 37/37/37 33/33/33
f 38/38/38 33/33/33 36/36/36
f 33/33/33 38/38/38 32/32/32
f 32/32/32 38/38/38 39/39/39
f 38/38/38 36/36/36 40/40/40
f 27/27/27 33/33/33 32/32/32
f 36/36/36 41/41/41 40/40/40
f 36/36/36 35/35/35 41/41/41
f 20/20/20 31/31/31 32/32/32
f 39/39/39 20/20/20 32/32/32
f 20/20/20 39/39/39 13/13/13
f 13/13/13 39/39/39 42/42/42
f 3/3/3 20/20/20 13/13/13
f 14/14/14 19/19/19 18/18/18
f 14/14/14 43/43/43 19/19/19
f 43/43/43 15/15/15 44/44/44
f 43/43/43 14/14/14 15/15/15
f 13/13/13 45/45/45 15/15/15
f 20/20/20 8/8/8 31/31/31
f 44/44/44 15/15/15 46/46/46
f 42/42/42 47/47/47 48/48/48
f 47/47/47 42/42/42 39/39/39
f 42/42/42 48/48/48 45/45/45
f 49/49/49 47/47/47 50/50/50
f 49/49/49 48/48/48 47/47/47
f 51/51/51 45/45/45 52/52/52
f 51/51/51 53/53/53 45/45/45
f 45/45/45 46/46/46 15/15/15
f 45/45/45 53/53/53 46/46/46
f 51/51/51 52/52/52 54/54/54
f 52/52/52 45/45/45 48/48/48
f 13/13/13 42/42/42 45/45/45
f 52/52/52 48/48/48 55/55/55
f 47/47/47 39/39/39 38/38/38
f 15/15/15 6/6/6 13/13/13
f 56/56/56 38/38/38 57/57/57
f 56/56/56 47/47/47 38/38/38
f 58/58/58 59/59/59 40/40/40
f 59/59/59 60/60/60 40/40/40
f 59/59/59 61/61/61 60/60/60
f 62/62/62 40/40/40 60/60/60
f 58/58/58 40/40/40 41/41/41
f 63/63/63 40/40/40 62/62/62
f 63/63/63 38/38/38 40/40/40
f 64/64/64 48/48/48 49/49/49
f 64/64/64 55/55/55 48/48/48
f 56/56/56 50/50/50 47/47/47
f 65/65/65 55/55/55 66/66/66
f 67/67/67 55/55/55 64/64/64
f 63/63/63 57/57/57 38/38/38
f 66/66/66 55/55/55 68/68/68
f 68/68/68 67/67/67 69/69/69
f 68/68/68 55/55/55 67/67/67
f 65/65/65 52/52/52 55/55/55
f 65/65/65 54/54/54 52/52/52
