mtllib m122000.mtl
usemtl material0
v 0.47337722778320312 -1.6194499731063843 448
v 0 -2.4741179943084717 456.00665283203125
v 7.2066211700439453 -0.93058598041534424 448
v 0 -1.7650949954986572 448.96542358398438
v 0 -1.6704130172729492 448.025146484375
v 0 -3.2601959705352783 464.02944946289062
v 0 -3.4980010986328125 472.89559888839722
v 8.3798408508300781 -2.3339560031890869 463.58413696289062
v 0 -1.6689540147781372 448
v 7.5644721984863281 -0.892894983291626 448
v 22.403970718383789 -0.79465097188949585 448
v 0 -2.4741179943084717 456.00665283203125
v 0 -3.9378080368041992 480.03097499907017
v 9.2175731658935547 -3.2585759162902832 479.54217499494553
v 0 -3.2912681102752686 496.02847290039062
v 0 -2.5192968845367432 506.68002319335938
v 10.068368911743164 -1.5260909795761108 495.491455078125
v 10.668582916259766 -1.778203010559082 512
v 10.909402847290039 -1.7794870138168335 511.447265625
v 0.48882293701171875 -2.5878369808197021 512
v 0 -2.6218829154968262 511.8314208984375
v 0 -2.6252400875091553 512
v 25.183069229125977 -1.146981954574585 478.69268798828125
v 26.026484966278076 -0.91593599319458008 494.64691162109375
v 0 -3.9092299938201904 489.78585815429688
v 24.3378849029541 -1.7374720573425293 462.7396240234375
v 11.223072052001953 -1.80280601978302 512
v 37.601474761962891 -0.57967698574066162 448
v 23.564767837524414 -0.75546401739120483 448
v 41.139324188232422 -0.915802001953125 477.8493959903717
v 41.982021331787109 -0.830748975276947 493.80410766601562
v 26.858666896820068 -2.9676399230957031 510.608642578125
v 26.932091236114502 -2.972991943359375 512
v 42.8160400390625 -2.5074601173400879 509.76461791992188
v 41.841922760009766 -2.5472431182861328 512
v 40.298306465148926 -0.66011500358581543 461.8935546875
v 39.565926074981689 -0.44902101159095764 448
v 52.79949951171875 -0.099708996713161469 448
v 57.095973968505859 -0.60510802268981934 477.00582909584045
v 57.939678192138672 -0.31547001004219055 492.95986938476562
v 56.254695892333984 -0.40166699886322021 461.05014038085938
v 55.5675163269043 -0.058832000941038132 448
v 64 0.15955600142478943 448
v 64 0.036793999373912811 452.44241333007812
v 64 -0.28501999378204346 460.64080810546875
v 64 -0.40241900086402893 469.33261108398438
v 58.780487060546875 -0.613785982131958 508.91586303710938
v 64 -0.415228009223938 492.64013671875
v 64 -0.60145598649978638 503.11453247070312
v 64 -0.75849801301956177 508.64065551757812
v 64 -0.80357402563095093 510.04611206054688
v 58.942771911621094 -0.71747499704360962 512
v 64 -0.86623901128768921 512
v 44.085666656494141 -2.4484000205993652 512
v 64 -0.30255299806594849 486.2239990234375
v 64 -0.4658530056476593 476.64083909988403
v 64 -0.042008999735116959 454.449951171875
vt 0.99831497669219971 0.011444985866546631
vt 0.873947024345398 0.0028229951858520508
vt 0.99831497669219971 0.11605501174926758
vt 0.9833189845085144 0.0039380192756652832
vt 0.99792397022247314 0.0040869712829589844
vt 0.74936199188232422 0.0015869736671447754
vt 0.61228102445602417 0.0012599825859069824
vt 0.75631600618362427 0.13188797235488892
vt 0.9983140230178833 0.0040889978408813477
vt 0.99831700325012207 0.12161701917648315
vt 0.99624598026275635 0.35096698999404907
vt 0.873947024345398 0.0028229951858520508
vt 0.50179100036621094 0.00065398216247558594
vt 0.509194016456604 0.14351201057434082
vt 0.25407299399375916 0.0016099810600280762
vt 0.089018002152442932 0.0026900172233581543
vt 0.26141300797462463 0.15964400768280029
vt 0.0061780000105500221 0.16767597198486328
vt 0.014712999574840069 0.17141497135162354
vt 0.0067520001903176308 0.00984501838684082
vt 0.0093849999830126762 0.0022810101509094238
vt 0.0067790001630783081 0.0022680163383483887
vt 0.52143299579620361 0.39246302843093872
vt 0.27508100867271423 0.40643501281738281
vt 0.35102298855781555 0.00052601099014282227
vt 0.76770699024200439 0.37878400087356567
vt 0.0061269998550415039 0.1762009859085083
vt 0.99432498216629028 0.585875004529953
vt 0.99612301588058472 0.3689190149307251
vt 0.53462201356887817 0.6390950083732605
vt 0.28855100274086 0.65301799774169922
vt 0.025479000061750412 0.41870999336242676
vt 0.0039659999310970306 0.41965699195861816
vt 0.036400001496076584 0.66554799675941467
vt 0.0019809999503195286 0.65018400549888611
vt 0.78125697374343872 0.62599799036979675
vt 0.994143009185791 0.61630299687385559
vt 0.99471402168273926 0.82081499695777893
vt 0.54783499240875244 0.88575399667024612
vt 0.30186700820922852 0.89976800233125687
vt 0.79445499181747437 0.872639000415802
vt 0.99627900123596191 0.86313800513744354
vt 0.99564599990844727 0.99350999994203448
vt 0.92695999145507812 0.99312799982726574
vt 0.80085897445678711 0.99235699977725744
vt 0.66650897264480591 0.99241800000891089
vt 0.053169000893831253 0.91379900276660919
vt 0.3071570098400116 0.99342799978330731
vt 0.14334799349308014 0.99389400007203221
vt 0.057906001806259155 0.99447399983182549
vt 0.035023000091314316 0.99441100005060434
vt 0.0053240000270307064 0.91604600101709366
vt 0.0048090000636875629 0.99424100015312433
vt 0.0016830000095069408 0.68489500880241394
vt 0.40633699297904968 0.993030000012368
vt 0.55355101823806763 0.99247800000011921
vt 0.89661598205566406 0.99234799994155765
vn -0.10131499916315079 0.98991900682449341 0.098967999219894409
vn -0.10126999765634537 0.989853024482727 0.0996749997138977
vn -0.10346200317144394 0.98982399702072144 0.0976950004696846
vn -0.10127100348472595 0.989853024482727 0.099674001336097717
vn -0.10252700001001358 0.9915500283241272 0.079475998878479
vn -0.10648400336503983 0.99247097969055176 0.060520999133586884
vn -0.07907799631357193 0.99544399976730347 0.053277000784873962
vn -0.062061000615358353 0.995589017868042 0.070358000695705414
vn -0.10383599996566773 0.99292498826980591 0.057610001415014267
vn -0.056949000805616379 0.9938579797744751 0.094880998134613037
vn -0.026433000341057777 0.99685698747634888 0.074675999581813812
vn -0.10425099730491638 0.9898110032081604 0.096982002258300781
vn -0.071978002786636353 0.9970099925994873 0.028113000094890594
vn -0.10405699908733368 0.99440199136734009 -0.018379999324679375
vn -0.17641100287437439 0.98074698448181152 -0.083755999803543091
vn -0.099991001188755035 0.99498701095581055 -0.0016550000291317701
vn -0.10706499963998795 0.99343597888946533 -0.040265001356601715
vn -0.033654000610113144 0.99928897619247437 -0.0169840008020401
vn -0.0080049997195601463 0.99979197978973389 0.018745999783277512
vn -0.076329998672008514 0.99690401554107666 0.018897000700235367
vn -0.076278001070022583 0.99688899517059326 0.01985199935734272
vn -0.076278001070022583 0.99688899517059326 0.019850999116897583
vn -0.069246001541614532 0.997232973575592 -0.0270370002835989
vn -0.006587000098079443 0.99900197982788086 0.04417400062084198
vn -0.15293900668621063 0.98538297414779663 -0.075029999017715454
vn -0.056552000343799591 0.99813002347946167 0.023212000727653503
vn 0.06424500048160553 0.99791800975799561 0.0056429998949170113
vn -0.052012000232934952 0.99814599752426147 0.03160100057721138
vn -0.023421000689268112 0.99743199348449707 0.067680999636650085
vn -0.015181000344455242 0.99987399578094482 0.004594000056385994
vn -0.017358999699354172 0.99850302934646606 0.05187699943780899
vn 0.02879600040614605 0.9977080225944519 0.061230998486280441
vn 0.021173000335693359 0.99977201223373413 0.0027280000504106283
vn -0.055603001266717911 0.99717402458190918 0.05051099881529808
vn -0.03425300121307373 0.999409019947052 0.0028599998913705349
vn -0.035914000123739243 0.99927997589111328 0.012264000251889229
vn -0.0470380000770092 0.99873697757720947 0.017653999850153923
vn -0.017860999330878258 0.99954599142074585 0.024246999993920326
vn -0.020813999697566032 0.9997829794883728 -0.00063700001919642091
vn -0.022336000576615334 0.99961000680923462 0.016764000058174133
vn -0.016388000920414925 0.99961698055267334 0.022309999912977219
vn -0.020136000588536263 0.99942398071289062 0.027316000312566757
vn -0.0258799996227026 0.999284029006958 0.027614999562501907
vn -0.022872999310493469 0.99927800893783569 0.030319999903440475
vn -0.013636999763548374 0.99954801797866821 0.026799000799655914
vn -0.015593999996781349 0.99980199337005615 0.012378999963402748
vn -0.044950999319553375 0.99854201078414917 0.0298870000988245
vn 0.017387999221682549 0.999692976474762 0.017660999670624733
vn 0.020148999989032745 0.99959200620651245 0.020252000540494919
vn 0.029291000217199326 0.99911600351333618 0.030158000066876411
vn 0.029387999325990677 0.99905401468276978 0.0320420004427433
vn -0.040883999317884445 0.99852502346038818 0.035721998661756516
vn 0.029387999325990677 0.99905401468276978 0.032040998339653015
vn -0.091666996479034424 0.99545598030090332 0.025762999430298805
vn -0.012098999693989754 0.99988698959350586 -0.0089680003002285957
vn -0.020363999530673027 0.99978601932525635 -0.0037469998933374882
vn -0.012973999604582787 0.9991459846496582 0.039220001548528671
f 1/1/1 2/2/2 3/3/3
f 1/1/1 4/4/4 2/2/2
f 4/4/4 1/1/1 5/5/5
f 6/6/6 7/7/7 8/8/8
f 5/5/5 1/1/1 9/9/9
f 10/10/10 8/8/8 11/11/11
f 6/6/6 3/3/3 12/12/12
f 6/6/6 8/8/8 3/3/3
f 8/8/8 10/10/10 3/3/3
f 8/8/8 13/13/13 14/14/14
f 8/8/8 7/7/7 13/13/13
f 15/15/15 16/16/16 17/17/17
f 18/18/18 19/19/19 20/20/20
f 16/16/16 19/19/19 17/17/17
f 16/16/16 21/21/21 19/19/19
f 21/21/21 20/20/20 19/19/19
f 21/21/21 22/22/22 20/20/20
f 17/17/17 23/23/23 14/14/14
f 19/19/19 24/24/24 17/17/17
f 14/14/14 15/15/15 17/17/17
f 14/14/14 25/25/25 15/15/15
f 13/13/13 25/25/25 14/14/14
f 8/8/8 14/14/14 26/26/26
f 18/18/18 27/27/27 19/19/19
f 28/28/28 29/29/29 26/26/26
f 29/29/29 8/8/8 26/26/26
f 29/29/29 11/11/11 8/8/8
f 23/23/23 17/17/17 24/24/24
f 30/30/30 23/23/23 24/24/24
f 31/31/31 24/24/24 32/32/32
f 24/24/24 19/19/19 32/32/32
f 33/33/33 34/34/34 32/32/32
f 33/33/33 35/35/35 34/34/34
f 33/33/33 19/19/19 27/27/27
f 33/33/33 32/32/32 19/19/19
f 23/23/23 36/36/36 26/26/26
f 26/26/26 14/14/14 23/23/23
f 37/37/37 26/26/26 36/36/36
f 37/37/37 28/28/28 26/26/26
f 37/37/37 36/36/36 38/38/38
f 30/30/30 24/24/24 31/31/31
f 30/30/30 31/31/31 39/39/39
f 31/31/31 34/34/34 40/40/40
f 31/31/31 32/32/32 34/34/34
f 41/41/41 36/36/36 30/30/30
f 36/36/36 23/23/23 30/30/30
f 41/41/41 38/38/38 36/36/36
f 41/41/41 42/42/42 38/38/38
f 43/43/43 41/41/41 44/44/44
f 43/43/43 42/42/42 41/41/41
f 45/45/45 39/39/39 46/46/46
f 45/45/45 41/41/41 39/39/39
f 39/39/39 41/41/41 30/30/30
f 47/47/47 40/40/40 34/34/34
f 48/48/48 47/47/47 49/49/49
f 48/48/48 40/40/40 47/47/47
f 50/50/50 47/47/47 51/51/51
f 51/51/51 52/52/52 53/53/53
f 51/51/51 47/47/47 52/52/52
f 54/54/54 47/47/47 34/34/34
f 54/54/54 52/52/52 47/47/47
f 55/55/55 39/39/39 40/40/40
f 55/55/55 56/56/56 39/39/39
f 40/40/40 39/39/39 31/31/31
f 46/46/46 39/39/39 56/56/56
f 49/49/49 47/47/47 50/50/50
f 55/55/55 40/40/40 48/48/48
f 57/57/57 41/41/41 45/45/45
f 57/57/57 44/44/44 41/41/41
f 54/54/54 34/34/34 35/35/35
