mtllib m1222103.mtl
usemtl material0
v 160 -2.9905240535736084 192
v 160 -3.0301930904388428 193.71371459960938
v 161.54180908203125 -3.0475199222564697 192
v 162.03465270996094 -3.0641870498657227 192
v 162.42765808105469 -3.2290360927581787 199.46060180664063
v 169.13969421386719 -3.3938419818878174 192
v 160 -3.1495380401611328 199.58854675292969
v 160 -3.2621119022369385 204.87531995773315
v 162.84788513183594 -3.4131519794464111 207.43872100114822
v 170.4045557975769 -3.3642780780792236 199.03977966308594
v 170.03268384933472 -3.4086439609527588 192
v 176.73742699623108 -3.8100569248199463 192
v 178.03027296066284 -3.8368480205535889 192
v 178.38119506835938 -3.5483660697937012 198.619140625
v 184.33528137207031 -4.1631112098693848 192
v 178.80108594894409 -3.7988870143890381 206.59748804569244
v 191.93278503417969 -4.7072272300720215 192
v 186.02784729003906 -4.268977165222168 192
v 186.356201171875 -4.0625448226928711 198.19960021972656
v 192 -4.6964249610900879 193.63661193847656
v 192 -4.6501178741455078 197.90341186523438
v 192 -4.7141871452331543 192
v 192 -3.5965449810028076 203.27362108230591
v 186.77932739257813 -3.6617100238800049 206.17575097084045
v 170.82344102859497 -3.8174319267272949 207.01881402730942
v 160 -3.1801929473876953 207.58837899565697
v 160 -3.2001910209655762 210.6045229434967
v 160 -3.0171298980712891 223.58734130859375
v 163.14506530761719 -3.2160971164703369 224
v 163.6907958984375 -3.2853538990020752 223.39328002929688
v 160 -3.0000629425048828 223.92066955566406
v 160 -2.9960010051727295 224
v 160 -3.036107063293457 219.05046081542969
v 163.26963806152344 -3.2882099151611328 215.41578722000122
v 160 -3.1078629493713379 215.58789110183716
v 171.2427830696106 -4.17880916595459 214.99752807617188
v 171.66531419754028 -3.8976380825042725 222.97407531738281
v 163.72311401367188 -3.2299759387969971 224
v 171.7200779914856 -3.7817540168762207 224
v 170.74259901046753 -3.7338418960571289 224
v 178.34050011634827 -4.0694718360900879 224
v 179.64091491699219 -4.2926602363586426 222.55413818359375
v 179.2183690071106 -4.5748071670532227 214.57760620117188
v 187.19778442382813 -4.2003297805786133 214.15505981445313
v 192 -3.4700539112091064 205.89946007728577
v 192 -3.6721649169921875 208.81866502761841
v 187.61630153656006 -4.7296919822692871 222.13435363769531
v 179.71757507324219 -4.2266488075256348 224
v 185.9381103515625 -4.5516629219055176 224
v 187.71485900878906 -4.7152109146118164 224
v 192 -4.7442059516906738 221.90290832519531
v 192 -4.7314410209655762 223.51585388183594
v 192 -4.7276091575622559 224
v 192 -4.12334680557251 217.26327514648438
v 192 -3.8894879817962646 213.90051317214966
vt 0.99381601810455322 0.0038290023803710938
vt 0.94076699018478394 0.0038740038871765137
vt 0.99381601810455322 0.051576018333435059
vt 0.99381697177886963 0.066837012767791748
vt 0.76288402080535889 0.0791810154914856
vt 0.99377697706222534 0.28695499897003174
vt 0.75891900062561035 0.0040109753608703613
vt 0.59526997804641724 0.004140019416809082
vt 0.51592797040939331 0.092387974262237549
vt 0.77590900659561157 0.32608002424240112
vt 0.99377697706222534 0.31459498405456543
vt 0.993852972984314 0.522460013628006
vt 0.99382501840591431 0.56247898936271667
vt 0.788769006729126 0.57300999760627747
vt 0.9939650297164917 0.75786399841308594
vt 0.54240000247955322 0.58639100193977356
vt 0.995386004447937 0.99323400016874075
vt 0.99511802196502686 0.80998900532722473
vt 0.80313897132873535 0.81993100047111511
vt 0.94718897342681885 0.993371999822557
vt 0.81515002250671387 0.99536400008946657
vt 0.9978029727935791 0.99531600018963218
vt 0.64578801393508911 0.99489599978551269
vt 0.55600100755691528 0.83330300450325012
vt 0.5288500189781189 0.33953100442886353
vt 0.51126998662948608 0.0039600133895874023
vt 0.41792601346969604 0.0040379762649536133
vt 0.016092000529170036 0.0034919977188110352
vt 0.0033189998939633369 0.10101801156997681
vt 0.02211499959230423 0.11787301301956177
vt 0.0057629998773336411 0.0034570097923278809
vt 0.0033050000201910734 0.0034490227699279785
vt 0.15649800002574921 0.00372999906539917
vt 0.269012987613678 0.10515701770782471
vt 0.26367801427841187 0.003840029239654541
vt 0.28172799944877625 0.35345101356506348
vt 0.034664999693632126 0.36541098356246948
vt 0.0032520000822842121 0.11871099472045898
vt 0.0026990000624209642 0.36678999662399292
vt 0.0028289998881518841 0.33650398254394531
vt 0.00228299992159009 0.571960985660553
vt 0.047242000699043274 0.6125589907169342
vt 0.29456400871276855 0.600587010383606
vt 0.30924099683761597 0.8477109968662262
vt 0.56657099723815918 0.9948619999922812
vt 0.47601500153541565 0.99540700018405914
vt 0.060019999742507935 0.85975800454616547
vt 0.0024449999909847975 0.61485400795936584
vt 0.0022640000097453594 0.80755199491977692
vt 0.0022799998987466097 0.86277000606060028
vt 0.066288001835346222 0.99546700017526746
vt 0.017179999500513077 0.99539399985224009
vt 0.0021959999576210976 0.99538399977609515
vt 0.21114900708198547 0.996290999930352
vt 0.31860500574111938 0.9965510000474751
vn 0.036931000649929047 0.99905002117156982 0.023126000538468361
vn 0.034524001181125641 0.9991840124130249 0.020958999171853065
vn 0.034630000591278076 0.99917799234390259 0.021052999421954155
vn 0.039852000772953033 0.99900597333908081 0.019974999129772186
vn 0.033720999956130981 0.99920099973678589 0.021453000605106354
vn 0.024517999961972237 0.99969899654388428 -2.4999999368446879E-05
vn 0.033817999064922333 0.99921101331710815 0.020803999155759811
vn 0.046181999146938324 0.9989050030708313 0.0075500002130866051
vn 0.056563001126050949 0.99839699268341064 -0.0020729999523609877
vn 0.022353999316692352 0.9996190071105957 0.016211999580264091
vn 0.037454001605510712 0.99926400184631348 -0.0082759996876120567
vn 0.031116999685764313 0.99889397621154785 -0.035261001437902451
vn 0.035659000277519226 0.99833202362060547 -0.045400999486446381
vn 0.031355999410152435 0.99936997890472412 -0.01663300022482872
vn 0.059519000351428986 0.99746102094650269 -0.03909900039434433
vn 0.0030980000738054514 0.99815201759338379 0.060681000351905823
vn 0.095283001661300659 0.995290994644165 -0.01779399998486042
vn 0.06798899918794632 0.99700701236724854 -0.036798998713493347
vn 0.05984799936413765 0.99646800756454468 -0.058899000287055969
vn 0.10298400372266769 0.99462401866912842 -0.010793999768793583
vn 0.0979589968919754 0.99034798145294189 -0.098056003451347351
vn 0.10299000144004822 0.99462401866912842 -0.01079500000923872
vn -0.004209000151604414 0.99621599912643433 -0.08681199699640274
vn -0.019192000851035118 0.99953997135162354 0.023489000275731087
vn 0.029542999342083931 0.99885600805282593 0.037613000720739365
vn 0.080943003296852112 0.99665701389312744 -0.011117000132799149
vn 0.060591999441385269 0.99808299541473389 -0.012632000260055065
vn 0.070967003703117371 0.99707400798797607 -0.028409000486135483
vn 0.057516999542713165 0.99641698598861694 -0.062006000429391861
vn 0.070840001106262207 0.99632000923156738 -0.048259999603033066
vn 0.069720000028610229 0.99626100063323975 -0.051011998206377029
vn 0.069720000028610229 0.99626100063323975 -0.0510139986872673
vn 0.068001002073287964 0.99765300750732422 -0.00802600011229515
vn 0.077342003583908081 0.99698197841644287 -0.0066860001534223557
vn 0.054033998399972916 0.99834597110748291 -0.019629999995231628
vn 0.070134997367858887 0.99746400117874146 0.012105000205338001
vn 0.056304000318050385 0.99566799402236938 -0.07398899644613266
vn 0.048335999250411987 0.99445998668670654 -0.093344002962112427
vn 0.045800000429153442 0.99236202239990234 -0.11453899741172791
vn 0.065247997641563416 0.9928629994392395 -0.099832996726036072
vn 0.061802998185157776 0.99329102039337158 -0.09774199873209
vn 0.045683000236749649 0.9982140064239502 -0.038493998348712921
vn 0.0064360001124441624 0.99962198734283447 0.026711000129580498
vn -0.036749999970197678 0.99794298410415649 0.052526999264955521
vn -0.036235000938177109 0.99930697679519653 0.00850799959152937
vn -0.039788998663425446 0.9972270131111145 0.062894001603126526
vn 0.026946999132633209 0.99913901090621948 0.031537998467683792
vn 0.081771999597549438 0.995406985282898 -0.049780998378992081
vn 0.062654003500938416 0.997281014919281 -0.03880700096487999
vn 0.0458419993519783 0.9988970160484314 -0.010174999944865704
vn 0.00672800000756979 0.997871994972229 0.064857997000217438
vn 0.0028929999098181725 0.99996399879455566 -0.0079140001907944679
vn 0.0028929999098181725 0.99996399879455566 -0.0079140001907944679
vn -0.044319000095129013 0.995477020740509 0.084031000733375549
vn -0.061565998941659927 0.99655997753143311 0.0554720014333725
f 1/1/1 2/2/2 3/3/3
f 4/4/4 5/5/5 6/6/6
f 7/7/7 3/3/3 2/2/2
f 7/7/7 5/5/5 3/3/3
f 5/5/5 4/4/4 3/3/3
f 5/5/5 8/8/8 9/9/9
f 5/5/5 7/7/7 8/8/8
f 10/10/10 6/6/6 5/5/5
f 10/10/10 11/11/11 6/6/6
f 11/11/11 10/10/10 12/12/12
f 13/13/13 14/14/14 15/15/15
f 14/14/14 12/12/12 10/10/10
f 14/14/14 13/13/13 12/12/12
f 14/14/14 10/10/10 16/16/16
f 17/17/17 18/18/18 19/19/19
f 20/20/20 19/19/19 21/21/21
f 20/20/20 17/17/17 19/19/19
f 20/20/20 22/22/22 17/17/17
f 19/19/19 15/15/15 14/14/14
f 19/19/19 18/18/18 15/15/15
f 21/21/21 19/19/19 23/23/23
f 19/19/19 14/14/14 24/24/24
f 10/10/10 5/5/5 25/25/25
f 26/26/26 27/27/27 9/9/9
f 28/28/28 29/29/29 30/30/30
f 28/28/28 31/31/31 29/29/29
f 31/31/31 32/32/32 29/29/29
f 33/33/33 34/34/34 35/35/35
f 33/33/33 30/30/30 34/34/34
f 33/33/33 28/28/28 30/30/30
f 9/9/9 34/34/34 25/25/25
f 36/36/36 34/34/34 30/30/30
f 34/34/34 36/36/36 25/25/25
f 25/25/25 36/36/36 16/16/16
f 36/36/36 30/30/30 37/37/37
f 5/5/5 9/9/9 25/25/25
f 29/29/29 38/38/38 30/30/30
f 39/39/39 37/37/37 40/40/40
f 37/37/37 41/41/41 42/42/42
f 37/37/37 39/39/39 41/41/41
f 30/30/30 40/40/40 37/37/37
f 30/30/30 38/38/38 40/40/40
f 43/43/43 36/36/36 37/37/37
f 27/27/27 34/34/34 9/9/9
f 27/27/27 35/35/35 34/34/34
f 8/8/8 26/26/26 9/9/9
f 37/37/37 42/42/42 43/43/43
f 16/16/16 43/43/43 24/24/24
f 44/44/44 43/43/43 42/42/42
f 43/43/43 44/44/44 24/24/24
f 45/45/45 44/44/44 46/46/46
f 45/45/45 24/24/24 44/44/44
f 44/44/44 42/42/42 47/47/47
f 14/14/14 16/16/16 24/24/24
f 41/41/41 48/48/48 42/42/42
f 49/49/49 50/50/50 47/47/47
f 51/51/51 47/47/47 52/52/52
f 52/52/52 50/50/50 53/53/53
f 52/52/52 47/47/47 50/50/50
f 42/42/42 49/49/49 47/47/47
f 42/42/42 48/48/48 49/49/49
f 54/54/54 44/44/44 47/47/47
f 54/54/54 55/55/55 44/44/44
f 54/54/54 47/47/47 51/51/51
f 46/46/46 44/44/44 55/55/55
f 23/23/23 24/24/24 45/45/45
f 23/23/23 19/19/19 24/24/24
f 36/36/36 43/43/43 16/16/16
f 10/10/10 25/25/25 16/16/16
