mtllib m122303.mtl
usemtl material0
v 326.6689453125 0.23008100688457489 128
v 320 -0.77258801460266113 143.13357543945313
v 327.44406127929688 -0.34385201334953308 142.7391357421875
v 320 -0.42568498849868774 134.84469604492188
v 325.50885009765625 0.16583800315856934 128
v 320 -0.39542698860168457 134.12171936035156
v 320 -0.06315399706363678 128
v 342.6768798828125 1.8314210176467896 128
v 343.40130615234375 0.078689999878406525 141.89515686035156
v 340.7091064453125 1.7925499677658081 128
v 355.90512108802795 1.2294139862060547 128
v 344.2344970703125 -1.7385259866714478 157.85633897781372
v 320 -1.6726139783859253 151.24949645996094
v 328.27767944335938 -2.0707380771636963 158.69999694824219
v 320 -1.9906140565872192 167.90060377120972
v 320 -2.2502059936523438 159.13767999410629
v 320 -2.3712449073791504 175.13754272460938
v 329.115478515625 -2.9671480655670166 174.65805053710938
v 345.06771898269653 -3.5416569709777832 173.81745910644531
v 360.19186401367188 -1.293599009513855 157.01228308677673
v 329.95687866210938 -3.1370840072631836 190.61363220214844
v 320 -2.4180240631103516 181.64982604980469
v 359.35821485519409 0.42889198660850525 141.05142211914063
v 320 -2.3269999027252197 191.13688659667969
v 328.70986938476562 -2.9869840145111084 192
v 320 -2.3071749210357666 191.67520141601563
v 320 -2.2952139377593994 192
v 330.030517578125 -3.0524740219116211 192
v 345.90768384933472 -3.9996740818023682 189.77400207519531
v 343.90542602539062 -3.7562639713287354 192
v 358.67364501953125 1.2804809808731079 128
v 371.10281372070312 1.5282629728317261 128
v 384 1.2812219858169556 130.55577087402344
v 374.67404174804688 1.4245250225067139 128
v 375.31149291992188 0.058329999446868896 140.21014404296875
v 384 1.5692590475082398 128
v 384 -0.43852201104164124 139.75288391113281
v 376.14483642578125 -1.7183589935302734 156.17118811607361
v 384 -1.2691210508346558 147.44137573242188
v 361.02484130859375 -3.141650915145874 172.973557472229
v 376.98202514648438 -2.7353720664978027 172.129638671875
v 384 -2.2421228885650635 155.75802612304688
v 384 -2.7569580078125 164.32928514480591
v 361.86117553710938 -4.3291459083557129 188.93258666992188
v 377.81893920898438 -3.7988460063934326 188.08824157714844
v 384 -2.6866381168365479 171.75889587402344
v 384 -3.2800869941711426 178.44796752929688
v 362.0238037109375 -4.190587043762207 192
v 359.10180711746216 -4.1222758293151855 192
v 346.02578687667847 -3.8876059055328369 192
v 378.0257568359375 -3.7428410053253174 192
v 374.29962158203125 -3.7545289993286133 192
v 384 -3.8917450904846191 187.76213073730469
v 384 -3.85562801361084 190.15879821777344
v 384 -3.8278820514678955 192
vt 0.027718000113964081 0.89380700141191483
vt 0.25954499840736389 0.98717600014060736
vt 0.24972799420356751 0.87497200071811676
vt 0.13446600735187531 0.99118699971586466
vt 0.028319999575614929 0.91132300347089767
vt 0.12355600297451019 0.991538000293076
vt 0.031122999265789986 0.994446000084281
vt 0.019026000052690506 0.6511789858341217
vt 0.22992399334907532 0.63465899229049683
vt 0.019884999841451645 0.680855005979538
vt 0.014860000461339951 0.45147401094436646
vt 0.47139900922775269 0.61525401473045349
vt 0.38266998529434204 0.98367900028824806
vt 0.49143901467323303 0.85550899803638458
vt 0.63410097360610962 0.97593200020492077
vt 0.501924991607666 0.98013699986040592
vt 0.74335497617721558 0.9722559992223978
vt 0.73206299543380737 0.83581000566482544
vt 0.71320998668670654 0.595427006483078
vt 0.450778990983963 0.37499898672103882
vt 0.97234702110290527 0.81686200201511383
vt 0.84156501293182373 0.969930000603199
vt 0.20946399867534638 0.39443099498748779
vt 0.984637975692749 0.96651199832558632
vt 0.9937710165977478 0.83522899448871613
vt 0.99276101589202881 0.96629900112748146
vt 0.9976620078086853 0.966168999671936
vt 0.99326902627944946 0.81528900563716888
vt 0.95357900857925415 0.57629901170730591
vt 0.98798000812530518 0.60579100251197815
vt 0.013736000284552574 0.4097210168838501
vt 0.0074430000968277454 0.22236102819442749
vt 0.041120998561382294 0.026836991310119629
vt 0.0062219998799264431 0.16848200559616089
vt 0.19124400615692139 0.15407401323318481
vt 0.0023380001075565815 0.027840971946716309
vt 0.18041400611400604 0.02306598424911499
vt 0.43199700117111206 0.13467001914978027
vt 0.29701900482177734 0.019743978977203369
vt 0.69266998767852783 0.35518598556518555
vt 0.67258298397064209 0.11490398645401001
vt 0.42259800434112549 0.016125023365020752
vt 0.55206698179245 0.012299001216888428
vt 0.93423497676849365 0.33604097366333008
vt 0.914467990398407 0.0956680178642273
vt 0.66510498523712158 0.0086240172386169434
vt 0.76637798547744751 0.0063899755477905273
vt 0.98045498132705688 0.332165002822876
vt 0.98172402381896973 0.3765529990196228
vt 0.987151026725769 0.57375600934028625
vt 0.973360002040863 0.090771019458770752
vt 0.97505098581314087 0.14695298671722412
vt 0.90712898969650269 0.0025789737701416016
vt 0.94327300786972046 0.0016480088233947754
vt 0.97096002101898193 0.00067597627639770508
vn -0.082038000226020813 0.995697021484375 0.04308599978685379
vn -0.05324999988079071 0.99559301137924194 0.077197998762130737
vn -0.0473410002887249 0.99506902694702148 0.087159998714923859
vn -0.055243998765945435 0.9976000189781189 0.04175100103020668
vn -0.051577001810073853 0.997651994228363 0.045054998248815536
vn -0.052037999033927917 0.9976469874382019 0.044640000909566879
vn -0.041471000760793686 0.99767100811004639 0.054152000695466995
vn 0.011669999919831753 0.99214601516723633 0.12454099953174591
vn -0.010591000318527222 0.99362999200820923 0.11219300329685211
vn -0.043809998780488968 0.99355101585388184 0.10458400100469589
vn -0.0013620000099763274 0.99668800830841064 0.081313997507095337
vn -0.011594999581575394 0.99441999197006226 0.10485199838876724
vn -0.042392000555992126 0.99406200647354126 0.10021699965000153
vn -0.011243999935686588 0.99768000841140747 0.067147001624107361
vn 0.046682000160217285 0.99835401773452759 0.033305000513792038
vn -0.020615000277757645 0.9995880126953125 0.019993999972939491
vn 0.066728003323078156 0.99734801054000854 0.029066000133752823
vn 0.045506998896598816 0.99823999404907227 0.038029000163078308
vn 0.01095999963581562 0.99762499332427979 0.067998997867107391
vn 0.0055590001866221428 0.99385899305343628 0.11051499843597412
vn 0.058481000363826752 0.99799001216888428 -0.024404000490903854
vn 0.0696140006184578 0.9975699782371521 0.0026970000471919775
vn -0.00056999997468665242 0.99564999341964722 0.09316600114107132
vn 0.079837001860141754 0.9965289831161499 -0.023594999685883522
vn 0.071226000785827637 0.99649697542190552 -0.0438230000436306
vn 0.079121001064777374 0.99619001150131226 -0.0366859994828701
vn 0.079121001064777374 0.99619001150131226 -0.0366859994828701
vn 0.050011001527309418 0.99672901630401611 -0.0634860023856163
vn 0.0325080007314682 0.99943798780441284 -0.0081230001524090767
vn 0.053534001111984253 0.996711015701294 -0.060835998505353928
vn -0.019121000543236732 0.99763000011444092 0.066096998751163483
vn 0.015840999782085419 0.9950529932975769 0.098071999847888947
vn 0.0034519999753683805 0.99167501926422119 0.12871900200843811
vn 0.0074620000086724758 0.99381399154663086 0.11080899834632874
vn 0.036410000175237656 0.992268979549408 0.11864200234413147
vn -0.015420000068843365 0.99359101057052612 0.11197800189256668
vn 0.064157001674175262 0.98713302612304688 0.14646899700164795
vn 0.043179001659154892 0.99481701850891113 0.092059999704360962
vn 0.064667999744415283 0.99190998077392578 0.10923299938440323
vn -0.009665999561548233 0.99658000469207764 0.082071997225284576
vn -0.0011470000026747584 0.99827700853347778 0.058674000203609467
vn 0.070913001894950867 0.99352902173995972 0.088719002902507782
vn 0.051626000553369522 0.99771100282669067 0.043687000870704651
vn -0.0048779998905956745 0.999888002872467 0.014159999787807465
vn -0.00303900009021163 0.99972200393676758 0.023401999846100807
vn -0.0049399998970329762 0.9992709755897522 0.037849999964237213
vn 0.012943999841809273 0.99734902381896973 0.071606002748012543
vn -0.0070569999516010284 0.99897301197052 -0.04475099965929985
vn 0.019368000328540802 0.99856501817703247 -0.049922000616788864
vn 0.039129000157117844 0.9978640079498291 -0.052312999963760376
vn 0.00583899999037385 0.99987602233886719 -0.01462399959564209
vn -0.026841999962925911 0.99901002645492554 -0.035468000918626785
vn 0.016425000503659248 0.9995110034942627 0.026588000357151031
vn 0.01423100009560585 0.99978500604629517 -0.015065999701619148
vn 0.014232000336050987 0.99978500604629517 -0.015065999701619148
f 1/1/1 2/2/2 3/3/3
f 1/1/1 4/4/4 2/2/2
f 4/4/4 5/5/5 6/6/6
f 4/4/4 1/1/1 5/5/5
f 7/7/7 6/6/6 5/5/5
f 8/8/8 3/3/3 9/9/9
f 8/8/8 10/10/10 3/3/3
f 1/1/1 3/3/3 10/10/10
f 8/8/8 9/9/9 11/11/11
f 9/9/9 3/3/3 12/12/12
f 3/3/3 13/13/13 14/14/14
f 3/3/3 2/2/2 13/13/13
f 15/15/15 14/14/14 16/16/16
f 16/16/16 14/14/14 13/13/13
f 14/14/14 17/17/17 18/18/18
f 14/14/14 15/15/15 17/17/17
f 12/12/12 18/18/18 19/19/19
f 18/18/18 12/12/12 14/14/14
f 12/12/12 19/19/19 20/20/20
f 17/17/17 21/21/21 18/18/18
f 17/17/17 22/22/22 21/21/21
f 3/3/3 14/14/14 12/12/12
f 23/23/23 9/9/9 12/12/12
f 18/18/18 21/21/21 19/19/19
f 24/24/24 25/25/25 21/21/21
f 24/24/24 26/26/26 25/25/25
f 26/26/26 27/27/27 25/25/25
f 25/25/25 28/28/28 21/21/21
f 28/28/28 29/29/29 21/21/21
f 28/28/28 30/30/30 29/29/29
f 22/22/22 24/24/24 21/21/21
f 19/19/19 21/21/21 29/29/29
f 12/12/12 20/20/20 23/23/23
f 31/31/31 23/23/23 32/32/32
f 33/33/33 34/34/34 35/35/35
f 33/33/33 36/36/36 34/34/34
f 37/37/37 38/38/38 39/39/39
f 37/37/37 35/35/35 38/38/38
f 35/35/35 32/32/32 23/23/23
f 35/35/35 34/34/34 32/32/32
f 35/35/35 23/23/23 38/38/38
f 40/40/40 19/19/19 29/29/29
f 20/20/20 19/19/19 40/40/40
f 38/38/38 40/40/40 41/41/41
f 40/40/40 38/38/38 20/20/20
f 41/41/41 42/42/42 38/38/38
f 41/41/41 43/43/43 42/42/42
f 40/40/40 29/29/29 44/44/44
f 23/23/23 20/20/20 38/38/38
f 45/45/45 41/41/41 40/40/40
f 33/33/33 35/35/35 37/37/37
f 31/31/31 9/9/9 23/23/23
f 31/31/31 11/11/11 9/9/9
f 46/46/46 43/43/43 41/41/41
f 46/46/46 41/41/41 47/47/47
f 42/42/42 39/39/39 38/38/38
f 48/48/48 44/44/44 49/49/49
f 50/50/50 44/44/44 29/29/29
f 50/50/50 49/49/49 44/44/44
f 51/51/51 45/45/45 52/52/52
f 48/48/48 45/45/45 44/44/44
f 48/48/48 52/52/52 45/45/45
f 53/53/53 45/45/45 54/54/54
f 54/54/54 51/51/51 55/55/55
f 54/54/54 45/45/45 51/51/51
f 40/40/40 44/44/44 45/45/45
f 47/47/47 45/45/45 53/53/53
f 47/47/47 41/41/41 45/45/45
f 50/50/50 29/29/29 30/30/30
