mtllib m1222122.mtl
usemtl material0
v 128 2.1470720767974854 129.26409912109375
v 128 2.3659861087799072 136.39083909988403
v 134.72993469238281 1.8595689535140991 128.90960693359375
v 128 2.1506879329681396 128
v 134.21365356445313 1.8843050003051758 128
v 128 2.1504530906677246 128.08198547363281
v 134.68214416503906 1.9037489891052246 128
v 135.5482177734375 1.8089430332183838 128
v 135.14898681640625 1.4358810186386108 136.88856506347656
v 142.7026059627533 0.869907021522522 128.49169921875
v 128 2.3254709243774414 137.26328992843628
v 135.56723022460938 0.85104501247406006 144.86805701255798
v 128 2.273169994354248 138.0487208366394
v 128 1.5655499696731567 153.26516723632813
v 128 1.5649629831314087 153.28033447265625
v 128.01432800292969 1.5644210577011108 153.26441955566406
v 128 1.5786230564117432 152.99163818359375
v 128 1.9225339889526367 145.2642970085144
v 129.55224609375 1.2564009428024292 160
v 135.98681640625 0.53962200880050659 152.84661865234375
v 128.36911010742188 1.4094879627227783 160
v 128 1.4316079616546631 160
v 136.36276197433472 0.21136799454689026 160
v 137.14869689941406 0.15137000381946564 160
v 143.9614560008049 -0.051610000431537628 152.42735290527344
v 143.54101601243019 0.088917002081871033 144.44937101006508
v 143.12213099002838 0.54240900278091431 136.4703221321106
v 142.67681896686554 0.90209197998046875 128
v 143.14492797851563 0.83781999349594116 128
v 150.67034912109375 -0.31929400563240051 128
v 150.67425489425659 -0.3253369927406311 128.07449340820313
v 151.09486389160156 -0.43262401223182678 136.0523681640625
v 151.51438903808594 -0.75721102952957153 144.03097499907017
v 152.09428405761719 -0.4816020131111145 128
v 158.33821105957031 -1.1712009906768799 128
v 144.35902398824692 -0.48018598556518555 160
v 150.74127197265625 -0.32702299952507019 128
v 159.0665283203125 -1.6210509538650513 135.6351318359375
v 158.66552734375 -1.2207579612731934 128
v 151.93427991867065 -1.0085769891738892 152.00933837890625
v 159.48713684082031 -1.7268919944763184 143.61300700902939
v 160 -1.7085429430007935 143.04301500320435
v 160 -1.6017969846725464 135.58578491210938
v 160 -1.4949049949645996 134.59786987304688
v 159.90692138671875 -2.0012059211730957 151.59143114089966
v 160 -1.1238219738006592 128
v 160 -1.7491830587387085 143.58598300814629
v 160 -2.0020968914031982 151.48797607421875
v 152.35256958007813 -1.5822210311889648 159.98878479003906
v 152.13848876953125 -1.553244948387146 160
v 152.34248447418213 -1.5815049409866333 160
v 152.35316467285156 -1.5832070112228394 160
v 160 -2.427515983581543 159.58760070800781
v 159.93936157226563 -2.4543581008911133 160
v 160 -2.4557960033416748 159.93260192871094
v 160 -2.4603850841522217 160
v 160 -2.1039459705352783 153.36460876464844
v 160 -2.0057990550994873 151.5865330696106
vt 0.93241798877716064 0.0038340091705322266
vt 0.73388302326202393 0.010468006134033203
vt 0.94879698753356934 0.19104701280593872
vt 0.96761602163314819 0.0026080012321472168
vt 0.97362500429153442 0.17577701807022095
vt 0.96533197164535522 0.002687990665435791
vt 0.974107027053833 0.18883097171783447
vt 0.97494202852249146 0.21296399831771851
vt 0.726839005947113 0.21167397499084473
vt 0.96806001663208008 0.41434502601623535
vt 0.709568977355957 0.01143801212310791
vt 0.50463598966598511 0.23285400867462158
vt 0.68765801191329956 0.012367010116577148
vt 0.26359999179840088 0.029197990894317627
vt 0.26317799091339111 0.029214978218078613
vt 0.26363599300384521 0.029597997665405273
vt 0.27122399210929871 0.028891026973724365
vt 0.48655501008033752 0.020408987998962402
vt 0.0775270015001297 0.079469978809356689
vt 0.28281098604202271 0.25324898958206177
vt 0.07641100138425827 0.046250998973846436
vt 0.076052002608776093 0.03595501184463501
vt 0.083738997578620911 0.2713320255279541
vt 0.084669001400470734 0.29353302717208862
vt 0.30254301428794861 0.47546499967575073
vt 0.52425301074981689 0.45546001195907593
vt 0.74620801210403442 0.43466097116470337
vt 0.98174601793289185 0.41305297613143921
vt 0.98218601942062378 0.42620998620986938
vt 0.98922997713088989 0.63820499181747437
vt 0.98715400695800781 0.63840800523757935
vt 0.76541697978973389 0.65791600942611694
vt 0.5436670184135437 0.67830699682235718
vt 0.99057900905609131 0.67811501026153564
vt 0.99651497602462769 0.85302899777889252
vt 0.091848999261856079 0.49505597352981567
vt 0.98930197954177856 0.64019200205802917
vt 0.78470402956008911 0.88193400204181671
vt 0.99709200859069824 0.86221000552177429
vt 0.32201400399208069 0.69863900542259216
vt 0.56297600269317627 0.90153499692678452
vt 0.57935899496078491 0.91525399684906006
vt 0.78700900077819824 0.907880000770092
vt 0.81477600336074829 0.90682400017976761
vt 0.34138301014900208 0.921936996281147
vt 0.99873602390289307 0.899449996650219
vt 0.56419897079467773 0.915803998708725
vt 0.3443630039691925 0.92441900074481964
vt 0.099844999611377716 0.71992999315261841
vt 0.099092997610569 0.71372500061988831
vt 0.099486000835895538 0.71944901347160339
vt 0.0994269996881485 0.719745010137558
vt 0.11861100047826767 0.93375500291585922
vt 0.0013879999751225114 0.908550001680851
vt 0.0031419999431818724 0.91036900132894516
vt 0.0012639999622479081 0.91024299710989
vt 0.29207101464271545 0.92660199850797653
vt 0.34164100885391235 0.92452500015497208
vn 0.041914999485015869 0.99901598691940308 -0.014479000121355057
vn 0.10607600212097168 0.99396002292633057 0.028139999136328697
vn 0.086207002401351929 0.9958149790763855 0.030338000506162643
vn 0.042830999940633774 0.99907797574996948 0.0028589998837560415
vn 0.014539999887347221 0.99971497058868408 0.018934000283479691
vn 0.042830999940633774 0.99907797574996948 0.0028580001089721918
vn 0.031158000230789185 0.998416006565094 0.046856999397277832
vn 0.1213809996843338 0.991133987903595 0.054030999541282654
vn 0.12157099694013596 0.99107098579406738 0.054754000157117844
vn 0.1347150057554245 0.98966902494430542 0.049058999866247177
vn 0.12619100511074066 0.9904099702835083 0.056249998509883881
vn 0.11831899732351303 0.99186599254608154 0.046930000185966492
vn 0.13085700571537018 0.98951399326324463 0.06114799901843071
vn 0.080700002610683441 0.9958149790763855 0.042902000248432159
vn 0.064644001424312592 0.99761497974395752 0.024182999506592751
vn 0.10385300219058991 0.99405497312545776 0.032712001353502274
vn 0.14127899706363678 0.98898798227310181 0.044071000069379807
vn 0.14240799844264984 0.98874002695083618 0.045967001467943192
vn 0.1345050036907196 0.99067497253417969 0.02172200009226799
vn 0.10779699683189392 0.99368900060653687 0.03102399967610836
vn 0.095301002264022827 0.99528801441192627 0.01787400059401989
vn 0.059808999300003052 0.99801301956176758 0.019805999472737312
vn 0.11251000314950943 0.99285900592803955 0.039647001773118973
vn 0.079016000032424927 0.9958840012550354 0.044392999261617661
vn 0.099739000201225281 0.99443602561950684 0.03388499841094017
vn 0.10131700336933136 0.99432897567749023 0.032326001673936844
vn 0.11976300179958344 0.99195998907089233 0.040885001420974731
vn 0.13070300221443176 0.98972797393798828 0.057930000126361847
vn 0.14737200736999512 0.9867280125617981 0.068182997405529022
vn 0.13070100545883179 0.98870497941970825 0.073352999985218048
vn 0.12694999575614929 0.99092698097229 0.044128000736236572
vn 0.12898600101470947 0.99128299951553345 0.026845000684261322
vn 0.11945900321006775 0.99253898859024048 0.024421999230980873
vn 0.10983400046825409 0.9939110279083252 0.0087740002200007439
vn 0.13900899887084961 0.98969799280166626 0.034267999231815338
vn 0.11275900155305862 0.9923509955406189 0.050241999328136444
vn 0.11178199946880341 0.99065601825714111 0.0781409963965416
vn 0.055449999868869781 0.99765700101852417 0.040063999593257904
vn 0.042677998542785645 0.9978330135345459 0.050073001533746719
vn 0.12321099638938904 0.99135500192642212 0.045113001018762588
vn 0.075953997671604156 0.99673497676849365 0.027406999841332436
vn -0.004207999911159277 0.9995880126953125 0.028392000123858452
vn -0.017271999269723892 0.99788898229599 0.062602996826171875
vn -0.059006001800298691 0.9959380030632019 0.068019002676010132
vn 0.0862480029463768 0.99530702829360962 0.043887000530958176
vn -0.072334997355937958 0.9958069920539856 0.056007001549005508
vn 0.046195998787879944 0.99747401475906372 0.053950000554323196
vn 0.046516001224517822 0.99836397171020508 0.033247999846935272
vn 0.12746599316596985 0.9896240234375 0.066311001777648926
vn 0.1364859938621521 0.98942798376083374 0.049019999802112579
vn 0.14230999350547791 0.98768699169158936 0.064980998635292053
vn 0.13444499671459198 0.98770600557327271 0.079760998487472534
vn 0.11304300278425217 0.99139797687530518 0.065970003604888916
vn 0.10968899726867676 0.9909369945526123 0.07754100114107132
vn 0.11017999798059464 0.99084699153900146 0.077987000346183777
vn 0.098682001233100891 0.99282002449035645 0.06759999692440033
vn 0.11138799786567688 0.99243301153182983 0.05165499821305275
vn 0.051646001636981964 0.99760597944259644 0.0459819994866848
f 1/1/1 2/2/2 3/3/3
f 4/4/4 3/3/3 5/5/5
f 4/4/4 6/6/6 3/3/3
f 6/6/6 1/1/1 3/3/3
f 5/5/5 3/3/3 7/7/7
f 7/7/7 3/3/3 8/8/8
f 3/3/3 9/9/9 10/10/10
f 11/11/11 3/3/3 2/2/2
f 11/11/11 9/9/9 3/3/3
f 11/11/11 12/12/12 9/9/9
f 11/11/11 13/13/13 12/12/12
f 14/14/14 15/15/15 16/16/16
f 14/14/14 16/16/16 17/17/17
f 18/18/18 16/16/16 12/12/12
f 18/18/18 17/17/17 16/16/16
f 16/16/16 19/19/19 20/20/20
f 16/16/16 21/21/21 19/19/19
f 22/22/22 16/16/16 15/15/15
f 22/22/22 21/21/21 16/16/16
f 23/23/23 20/20/20 19/19/19
f 16/16/16 20/20/20 12/12/12
f 20/20/20 24/24/24 25/25/25
f 20/20/20 23/23/23 24/24/24
f 26/26/26 12/12/12 20/20/20
f 13/13/13 18/18/18 12/12/12
f 27/27/27 9/9/9 12/12/12
f 8/8/8 10/10/10 28/28/28
f 8/8/8 3/3/3 10/10/10
f 29/29/29 28/28/28 10/10/10
f 30/30/30 10/10/10 31/31/31
f 30/30/30 29/29/29 10/10/10
f 9/9/9 27/27/27 10/10/10
f 20/20/20 25/25/25 26/26/26
f 27/27/27 26/26/26 32/32/32
f 26/26/26 25/25/25 33/33/33
f 27/27/27 32/32/32 31/31/31
f 34/34/34 32/32/32 35/35/35
f 34/34/34 31/31/31 32/32/32
f 26/26/26 33/33/33 32/32/32
f 10/10/10 27/27/27 31/31/31
f 24/24/24 36/36/36 25/25/25
f 37/37/37 30/30/30 31/31/31
f 12/12/12 26/26/26 27/27/27
f 37/37/37 31/31/31 34/34/34
f 35/35/35 38/38/38 39/39/39
f 35/35/35 32/32/32 38/38/38
f 33/33/33 40/40/40 41/41/41
f 32/32/32 33/33/33 38/38/38
f 33/33/33 41/41/41 38/38/38
f 40/40/40 33/33/33 25/25/25
f 42/42/42 38/38/38 41/41/41
f 42/42/42 43/43/43 38/38/38
f 44/44/44 38/38/38 43/43/43
f 41/41/41 40/40/40 45/45/45
f 46/46/46 38/38/38 44/44/44
f 46/46/46 39/39/39 38/38/38
f 45/45/45 47/47/47 41/41/41
f 45/45/45 48/48/48 47/47/47
f 40/40/40 25/25/25 49/49/49
f 50/50/50 51/51/51 49/49/49
f 51/51/51 52/52/52 49/49/49
f 53/53/53 54/54/54 55/55/55
f 53/53/53 49/49/49 54/54/54
f 49/49/49 52/52/52 54/54/54
f 50/50/50 25/25/25 36/36/36
f 50/50/50 49/49/49 25/25/25
f 56/56/56 55/55/55 54/54/54
f 49/49/49 57/57/57 45/45/45
f 49/49/49 53/53/53 57/57/57
f 58/58/58 45/45/45 57/57/57
f 45/45/45 40/40/40 49/49/49
f 42/42/42 41/41/41 47/47/47
f 58/58/58 48/48/48 45/45/45
