mtllib m12222031.mtl
usemtl material0
v 48.148197174072266 1.5124809741973877 80
v 48 1.5013099908828735 81.276763916015625
v 48.226317882537842 1.5075470209121704 81.480330944061279
v 48 1.5077259540557861 80
v 48 1.5021100044250488 81.492301940917969
v 48 1.4812819957733154 81.731826782226562
v 48.435969829559326 1.3214010000228882 85.469727039337158
v 52.215099096298218 1.5071929693222046 81.269699096679688
v 48 1.5017609596252441 81.398192882537842
v 49.558163166046143 1.495756983757019 80
v 52.148017883300781 1.4966590404510498 80
v 48 1.2938029766082764 85.492835998535156
v 48 1.2250139713287354 88.877547979354858
v 48.646205902099609 1.2534120082855225 89.458709955215454
v 53.357449054718018 1.5038700103759766 80
v 60.148490905761719 1.6264519691467285 80
v 59.250416040420532 1.5954240560531616 80
v 60.193244934082031 1.6241450309753418 80.848030090332031
v 56.2044979929924 1.6313439607620239 81.058640003204346
v 52.426048040390015 1.5837379693984985 85.258193969726562
v 56.148425996303558 1.595471978187561 80
v 56.415381997823715 1.6956820487976074 85.047173023223877
v 64 1.5590720176696777 80.031745910644531
v 64 1.571599006652832 80.647171020507812
v 60.956172943115234 1.5971709489822388 80
v 64 1.5584249496459961 80
v 60.404574871063232 1.7778359651565552 84.836257934570312
v 64 1.6861120462417603 84.272445917129517
v 52.636313915252686 1.5220960378646851 89.247161984443665
v 48 1.2129809856414795 89.492966055870056
v 48 1.2340790033340454 90.176909923553467
v 48.857250213623047 1.349478006362915 93.447135925292969
v 52.846988916397095 1.5429680347442627 93.23583984375
v 48 1.3045469522476196 93.492546081542969
v 48 1.3584480285644531 96
v 48.9923357963562 1.4115890264511108 96
v 48 1.3463389873504639 95.436698913574219
v 52.992901086807251 1.5411880016326904 96
v 50.35994291305542 1.4794859886169434 96
v 54.159549951553345 1.6594710350036621 96
v 56.8377720117569 1.9488519430160523 93.023818969726562
v 56.626312017440796 1.7683149576187134 89.035683035850525
v 64 1.7135119438171387 85.062697887420654
v 60.615718841552734 1.894413948059082 88.824615001678467
v 64 1.7009149789810181 84.646636962890625
v 64 1.8294689655303955 88.646111011505127
v 60.827023029327393 2.0437018871307373 92.8128662109375
v 57.959045052528381 1.7786240577697754 96
v 56.993915975093842 1.7589869499206543 96
v 60.994965076446533 1.9827409982681274 96
v 61.7586669921875 1.9644670486450195 96
v 64 1.9707679748535156 92.645537853240967
v 64 1.9553450345993042 93.508797168731689
v 64 1.8539949655532837 89.285789012908936
v 64 1.9914929866790772 96
vt 0.96689701080322266 0.01323699951171875
vt 0.88990098237991333 0.00650101900100708
vt 0.87805300951004028 0.020457983016967773
vt 0.96664297580718994 0.0043249726295471191
vt 0.876945972442627 0.0068719983100891113
vt 0.86249399185180664 0.0072559714317321777
vt 0.63836401700973511 0.039870023727416992
vt 0.89750099182128906 0.25984901189804077
vt 0.88260197639465332 0.0067099928855896
vt 0.96929901838302612 0.097989976406097412
vt 0.97370600700378418 0.25365602970123291
vt 0.636152982711792 0.013616979122161865
vt 0.43268001079559326 0.019702017307281494
vt 0.39892199635505676 0.0592460036277771
vt 0.97576099634170532 0.32635098695755005
vt 0.98781901597976685 0.734510987997055
vt 0.98618298768997192 0.68050199747085571
vt 0.9369320273399353 0.738739013671875
vt 0.91735899448394775 0.49936097860336304
vt 0.65812700986862183 0.27983498573303223
vt 0.98041397333145142 0.4941980242729187
vt 0.67799299955368042 0.519320011138916
vt 0.99355399608612061 0.96570400148630142
vt 0.95656001567840576 0.96691900119185448
vt 0.98928302526474 0.78308700025081635
vt 0.99546200037002563 0.96564000099897385
vt 0.69787800312042236 0.7587520033121109
vt 0.73857402801513672 0.97384000010788441
vt 0.41869300603866577 0.29923701286315918
vt 0.39567801356315613 0.020601987838745117
vt 0.35455501079559326 0.021951973438262939
vt 0.15953400731086731 0.079330980777740479
vt 0.17933399975299835 0.31903600692749023
vt 0.15527400374412537 0.027818024158477783
vt 0.0045380000956356525 0.032454013824462891
vt 0.0063069998286664486 0.092163026332855225
vt 0.038401000201702118 0.031418025493621826
vt 0.013460000045597553 0.33275502920150757
vt 0.0087400004267692566 0.17446202039718628
vt 0.015456999652087688 0.40298599004745483
vt 0.19897699356079102 0.55977600812911987
vt 0.43845298886299133 0.53913599252700806
vt 0.69071501493453979 0.9753079991787672
vt 0.458283007144928 0.77865399420261383
vt 0.71606701612472534 0.97452899999916554
vt 0.47522801160812378 0.98176500014960766
vt 0.21881000697612763 0.798782005906105
vt 0.021730000153183937 0.6322999894618988
vt 0.01993199996650219 0.57346200942993164
vt 0.02779100090265274 0.81516200304031372
vt 0.029016999527812004 0.86096200346946716
vt 0.23493100702762604 0.98920799978077412
vt 0.1830420047044754 0.99087900016456842
vt 0.43697801232337952 0.9829379990696907
vt 0.0333079993724823 0.99567499989643693
vn -0.010840999893844128 0.99993401765823364 0.003903999924659729
vn -0.029968999326229095 0.999547004699707 0.0026920000091195107
vn -0.014941000379621983 0.99949198961257935 0.028146000578999519
vn -0.032062999904155731 0.999472975730896 0.0050229998305439949
vn -0.021720999851822853 0.99883699417114258 0.043037001043558121
vn -0.050923999398946762 0.996999979019165 0.058295998722314835
vn -0.054997000843286514 0.99813997745513916 0.026288999244570732
vn -0.020943000912666321 0.9997519850730896 -0.0076000001281499863
vn -0.0242139995098114 0.99970000982284546 -0.0037110000848770142
vn 0.0029090000316500664 0.99998098611831665 -0.0053480002097785473
vn -0.0030610000248998404 0.9999619722366333 -0.0081350002437829971
vn -0.061317998915910721 0.99752300977706909 0.034476000815629959
vn -0.061907999217510223 0.99787998199462891 0.020075000822544098
vn -0.063720002770423889 0.997967004776001 -0.0015069999499246478
vn -0.025631999596953392 0.99934202432632446 -0.025676999241113663
vn -0.00033700000494718552 0.9999960064888 0.0027379998937249184
vn -0.00803999975323677 0.99965697526931763 -0.024917999282479286
vn 0.0056759999133646488 0.99968099594116211 -0.024623999372124672
vn -0.018498999997973442 0.99945902824401855 -0.027194000780582428
vn -0.047153998166322708 0.99888700246810913 0.0010059999767690897
vn -0.016945000737905502 0.99931299686431885 -0.03296399861574173
vn -0.029124999418854713 0.9995110034942627 -0.01141900010406971
vn 0.01272599957883358 0.99971199035644531 -0.020349999889731407
vn 0.012438000179827213 0.99958997964859009 -0.025769999250769615
vn 0.018996000289916992 0.99971097707748413 -0.014708000235259533
vn 0.01272599957883358 0.99971199035644531 -0.020349999889731407
vn 0.00024900000425986946 0.99955898523330688 -0.02970300056040287
vn 0.017379000782966614 0.99914902448654175 -0.037399999797344208
vn -0.057564999908208847 0.99834001064300537 0.0017950000474229455
vn -0.062785997986793518 0.99800598621368408 -0.0064719999209046364
vn -0.055927000939846039 0.99815899133682251 -0.023451000452041626
vn -0.053732998669147491 0.99837499856948853 -0.018974000588059425
vn -0.067130997776985168 0.99772101640701294 -0.0068339998833835125
vn -0.053456999361515045 0.998341977596283 -0.02134300023317337
vn -0.053463000804185867 0.99833899736404419 -0.0214610006660223
vn -0.051451001316308975 0.99844300746917725 -0.02156900055706501
vn -0.053463000804185867 0.99833899736404419 -0.021460000425577164
vn -0.063492000102996826 0.9979739785194397 0.003994000144302845
vn -0.042603999376297 0.99897301197052 -0.015390999615192413
vn -0.083388999104499817 0.99627798795700073 0.0218299999833107
vn -0.054409999400377274 0.9985089898109436 0.0042960001155734062
vn -0.050515998154878616 0.99842500686645508 -0.024421999230980873
vn 0.019245000556111336 0.99934202432632446 -0.030742000788450241
vn -0.0076799998059868813 0.99941998720169067 -0.033181000500917435
vn 0.019528999924659729 0.99919497966766357 -0.035046998411417007
vn 0.0173179991543293 0.99922901391983032 -0.035220999270677567
vn -0.0076089999638497829 0.99996399879455566 -0.0036750000435858965
vn -0.032767999917268753 0.99802899360656738 0.053520001471042633
vn -0.027420999482274055 0.99750399589538574 0.065073996782302856
vn -0.02008499950170517 0.99959498643875122 0.020177999511361122
vn 0.014321999624371529 0.99985498189926147 0.00922400038689375
vn 0.02248699963092804 0.99970400333404541 -0.0093219997361302376
vn 0.015530000440776348 0.99982601404190063 0.010311000049114227
vn 0.018081000074744225 0.99913400411605835 -0.037473998963832855
vn -0.012055999599397183 0.99982202053070068 -0.014507999643683434
f 1/1/1 2/2/2 3/3/3
f 1/1/1 4/4/4 2/2/2
f 5/5/5 6/6/6 3/3/3
f 3/3/3 7/7/7 8/8/8
f 9/9/9 3/3/3 2/2/2
f 9/9/9 5/5/5 3/3/3
f 10/10/10 8/8/8 11/11/11
f 10/10/10 3/3/3 8/8/8
f 12/12/12 3/3/3 6/6/6
f 12/12/12 7/7/7 3/3/3
f 10/10/10 1/1/1 3/3/3
f 7/7/7 13/13/13 14/14/14
f 7/7/7 12/12/12 13/13/13
f 11/11/11 8/8/8 15/15/15
f 16/16/16 17/17/17 18/18/18
f 19/19/19 8/8/8 20/20/20
f 21/21/21 8/8/8 19/19/19
f 21/21/21 15/15/15 8/8/8
f 20/20/20 22/22/22 19/19/19
f 20/20/20 8/8/8 7/7/7
f 23/23/23 18/18/18 24/24/24
f 23/23/23 25/25/25 18/18/18
f 23/23/23 26/26/26 25/25/25
f 21/21/21 18/18/18 17/17/17
f 21/21/21 19/19/19 18/18/18
f 19/19/19 27/27/27 18/18/18
f 16/16/16 18/18/18 25/25/25
f 24/24/24 18/18/18 28/28/28
f 20/20/20 7/7/7 29/29/29
f 30/30/30 31/31/31 14/14/14
f 29/29/29 14/14/14 32/32/32
f 7/7/7 14/14/14 29/29/29
f 29/29/29 32/32/32 33/33/33
f 34/34/34 14/14/14 31/31/31
f 34/34/34 32/32/32 14/14/14
f 30/30/30 14/14/14 13/13/13
f 35/35/35 36/36/36 37/37/37
f 37/37/37 32/32/32 34/34/34
f 37/37/37 36/36/36 32/32/32
f 38/38/38 33/33/33 39/39/39
f 33/33/33 40/40/40 41/41/41
f 33/33/33 38/38/38 40/40/40
f 36/36/36 33/33/33 32/32/32
f 36/36/36 39/39/39 33/33/33
f 42/42/42 29/29/29 33/33/33
f 42/42/42 22/22/22 29/29/29
f 22/22/22 42/42/42 27/27/27
f 43/43/43 27/27/27 44/44/44
f 43/43/43 45/45/45 27/27/27
f 27/27/27 28/28/28 18/18/18
f 27/27/27 45/45/45 28/28/28
f 43/43/43 44/44/44 46/46/46
f 44/44/44 27/27/27 42/42/42
f 19/19/19 22/22/22 27/27/27
f 44/44/44 42/42/42 47/47/47
f 48/48/48 41/41/41 49/49/49
f 48/48/48 47/47/47 41/41/41
f 42/42/42 41/41/41 47/47/47
f 50/50/50 47/47/47 48/48/48
f 49/49/49 41/41/41 40/40/40
f 51/51/51 47/47/47 50/50/50
f 51/51/51 52/52/52 47/47/47
f 51/51/51 53/53/53 52/52/52
f 54/54/54 47/47/47 52/52/52
f 55/55/55 53/53/53 51/51/51
f 54/54/54 44/44/44 47/47/47
f 54/54/54 46/46/46 44/44/44
f 41/41/41 42/42/42 33/33/33
f 29/29/29 22/22/22 20/20/20
