mtllib m12222331.mtl
usemtl material0
v 112 0.12223800271749497 19.040213108062744
v 112.86997985839844 0.066028997302055359 18.073136806488037
v 112 0.055792998522520065 18.119112014770508
v 116.75975799560547 -0.0658160001039505 16
v 114.78766584396362 -0.040642000734806061 16
v 116.85822296142578 -0.042801998555660248 17.862874984741211
v 120.75880402326584 -0.23299500346183777 16
v 119.00942999124527 -0.17090700566768646 16
v 120.84606897830963 -0.23220199346542358 17.652888774871826
v 117.06950402259827 0.10070700198411942 21.851136922836304
v 112.76025390625 0.011735999956727028 16
v 124.75826978683472 -0.3192409873008728 16
v 124.83449602127075 -0.30442100763320923 17.442501068115234
v 122.33309888839722 -0.27676001191139221 16
v 128 -0.3410780131816864 16.4914608001709
v 128 -0.33267799019813538 17.275431156158447
v 127.45373487472534 -0.34177699685096741 16
v 121.057373046875 -0.083323001861572266 21.641132116317749
v 113.0816650390625 0.29254299402236938 22.061115026474
v 117.28068494796753 0.22467899322509766 25.839465975761414
v 125.04558610916138 -0.19899800419807434 21.430892944335938
v 128 -0.30929601192474365 18.146907806396484
v 128 -0.30527898669242859 16
v 112 0.29729399085044861 22.118219017982483
v 112 0.030848000198602676 17.140670776367188
v 112 0.001766999950632453 16
v 112 0.37665000557899475 24.886592984199524
v 113.29280090332031 0.40626201033592224 26.049479007720947
v 112 0.64232301712036133 31.709679126739502
v 113.50403594970703 0.54048401117324829 30.037773132324219
v 112 0.600678026676178 30.117005825042725
v 112 0.50684100389480591 27.486601114273071
v 112 0.44517898559570312 26.117624044418335
v 121.26901197433472 0.13195699453353882 25.629148006439209
v 125.25669097900391 -0.0901620015501976 25.419275045394897
v 117.49201989173889 0.37940898537635803 29.827690124511719
v 125.46777296066284 0.013299000449478626 29.407672882080078
v 121.47972905635834 0.162664994597435 29.6177978515625
v 128 -0.16939699649810791 25.274659991264343
v 128 -0.13328799605369568 26.592864990234375
v 128 -0.20347000658512116 24.088988997042179
v 117.60707092285156 0.45251300930976868 32
v 115.53786516189575 0.53346097469329834 32
v 113.60796403884888 0.6077200174331665 32
v 119.33682298660278 0.3618130087852478 32
v 121.60623896121979 0.30817499756813049 32
v 125.60558319091797 0.19926400482654572 32
v 124.12828779220581 0.24887099862098694 32
v 128 -0.053948000073432922 30.994726181030273
v 128 -0.041482001543045044 31.686325073242188
v 128 -0.017471000552177429 32
v 112 0.65270102024078369 32
vt 0.19001300632953644 0
vt 0.12957100570201874 0.054373979568481445
vt 0.13244499266147614 0
vt 0 0.29748499393463135
vt 0 0.17422902584075928
vt 0.11642999947071075 0.3036389946937561
vt 0 0.54742500185966492
vt 0 0.43808901309967041
vt 0.10330600291490555 0.55287900567054749
vt 0.3656960129737854 0.31684398651123047
vt 0 0.047515988349914551
vt 0 0.79739199578762054
vt 0.090155996382236481 0.802156001329422
vt 0 0.64581900835037231
vt 0.030716000124812126 1
vt 0.079714000225067139 1
vt 0 0.96585800126194954
vt 0.35257101058959961 0.56608599424362183
vt 0.37882000207901 0.067604005336761475
vt 0.6149669885635376 0.33004301786422729
vt 0.33943098783493042 0.81534899771213531
vt 0.13418200612068176 1
vt 0 1
vt 0.38238900899887085 0
vt 0.071291998028755188 0
vt 0 0
vt 0.55541199445724487 0
vt 0.62809199094772339 0.080799996852874756
vt 0.98185497522354126 0
vt 0.877360999584198 0.094002008438110352
vt 0.88231301307678223 0
vt 0.71791297197341919 0
vt 0.63235199451446533 0
vt 0.601822018623352 0.5793130099773407
vt 0.58870500326156616 0.82854300737380981
vt 0.86423099040985107 0.34325098991394043
vt 0.83797997236251831 0.84173600375652313
vt 0.8511120080947876 0.59248301386833191
vt 0.579666018486023 1
vt 0.66205400228500366 1
vt 0.50556200742721558 1
vt 1 0.35044199228286743
vt 1 0.22111701965332031
vt 1 0.1004980206489563
vt 1 0.45855098962783813
vt 1 0.6003899872303009
vt 1 0.85034899413585663
vt 1 0.75801800191402435
vt 0.93717002868652344 1
vt 0.98039501905441284 1
vt 1 1
vt 1 0
vn -0.0025140000507235527 0.99817800521850586 -0.0602790005505085
vn 0.025681000202894211 0.99870198965072632 -0.043992999941110611
vn -0.014290000312030315 0.99874299764633179 -0.048050999641418457
vn 0.038279000669717789 0.99916398525238037 -0.014367000199854374
vn 0.02277199923992157 0.99944901466369629 -0.0241519995033741
vn 0.033904999494552612 0.99894201755523682 -0.031067999079823494
vn 0.031831998378038406 0.99949097633361816 -0.00215999991632998
vn 0.041765999048948288 0.9990839958190918 -0.0093599995598196983
vn 0.033121999353170395 0.99904102087020874 -0.028627000749111176
vn 0.041691001504659653 0.9983220100402832 -0.040189001709222794
vn 0.011056999675929546 0.999580979347229 -0.026762999594211578
vn 0.014909000135958195 0.99982798099517822 -0.011060000397264957
vn 0.012431999668478966 0.99968701601028442 -0.021719999611377716
vn 0.021559000015258789 0.99973899126052856 -0.0075550000183284283
vn 0.0041780001483857632 0.99997299909591675 -0.0060660000890493393
vn 0.0076270001009106636 0.99966901540756226 -0.024565000087022781
vn 0.0051219998858869076 0.99996101856231689 -0.0071160001680254936
vn 0.032317999750375748 0.99849098920822144 -0.0443900004029274
vn 0.036327000707387924 0.99851500988006592 -0.040608000010252
vn 0.038922000676393509 0.99862998723983765 -0.034967001527547836
vn 0.025064000859856606 0.99917101860046387 -0.032081998884677887
vn 0.016248999163508415 0.99968802928924561 -0.018957000225782394
vn -0.066490001976490021 0.99515002965927124 0.072489000856876373
vn 0.0018329999875277281 0.99882799386978149 -0.048367999494075775
vn -0.013108000159263611 0.99958902597427368 -0.025483999401330948
vn -0.013106999918818474 0.99958902597427368 -0.025483999401330948
vn 0.0069459998048841953 0.999426007270813 -0.033171001821756363
vn 0.037500999867916107 0.9987030029296875 -0.034448999911546707
vn 0.036959998309612274 0.9989359974861145 -0.027597999200224876
vn 0.039177998900413513 0.99854898452758789 -0.036956999450922012
vn 0.038194999098777771 0.99870198965072632 -0.033698000013828278
vn 0.034531001001596451 0.998649001121521 -0.038828000426292419
vn 0.027419000864028931 0.99837297201156616 -0.049991998821496964
vn 0.035700999200344086 0.99887299537658691 -0.031286999583244324
vn 0.04222400113940239 0.99869102239608765 -0.02885499969124794
vn 0.044328998774290085 0.99825799465179443 -0.038938999176025391
vn 0.043299000710248947 0.99851298332214355 -0.033112000674009323
vn 0.037078000605106354 0.99863898754119873 -0.0366859994828701
vn 0.027404999360442162 0.99924302101135254 -0.02762099914252758
vn 0.035424001514911652 0.9991689920425415 -0.020166000351309776
vn 0.02196899987757206 0.99949997663497925 -0.022735999897122383
vn 0.048886001110076904 0.99814897775650024 -0.036180000752210617
vn 0.038756001740694046 0.99860197305679321 -0.03595300018787384
vn 0.036249000579118729 0.99868899583816528 -0.036139998584985733
vn 0.036022000014781952 0.99804699420928955 -0.051031999289989471
vn 0.0235190000385046 0.9977869987487793 -0.062196001410484314
vn 0.050960998982191086 0.99594402313232422 -0.07415500283241272
vn 0.02716200053691864 0.99743002653121948 -0.066293999552726746
vn 0.0378200002014637 0.9991220235824585 -0.018007999286055565
vn 0.054170001298189163 0.99787497520446777 -0.036208998411893845
vn 0.089887000620365143 0.99304699897766113 -0.076016001403331757
vn 0.027945000678300858 0.99897098541259766 -0.03570999950170517
f 1/1/1 2/2/2 3/3/3
f 4/4/4 5/5/5 6/6/6
f 7/7/7 8/8/8 9/9/9
f 6/6/6 2/2/2 10/10/10
f 5/5/5 2/2/2 6/6/6
f 5/5/5 11/11/11 2/2/2
f 12/12/12 9/9/9 13/13/13
f 12/12/12 14/14/14 9/9/9
f 4/4/4 9/9/9 8/8/8
f 4/4/4 6/6/6 9/9/9
f 15/15/15 13/13/13 16/16/16
f 15/15/15 17/17/17 13/13/13
f 17/17/17 12/12/12 13/13/13
f 9/9/9 10/10/10 18/18/18
f 7/7/7 9/9/9 14/14/14
f 9/9/9 6/6/6 10/10/10
f 10/10/10 19/19/19 20/20/20
f 2/2/2 19/19/19 10/10/10
f 16/16/16 21/21/21 22/22/22
f 16/16/16 13/13/13 21/21/21
f 23/23/23 17/17/17 15/15/15
f 9/9/9 21/21/21 13/13/13
f 24/24/24 2/2/2 1/1/1
f 24/24/24 19/19/19 2/2/2
f 3/3/3 2/2/2 25/25/25
f 25/25/25 11/11/11 26/26/26
f 25/25/25 2/2/2 11/11/11
f 19/19/19 27/27/27 28/28/28
f 19/19/19 24/24/24 27/27/27
f 29/29/29 30/30/30 31/31/31
f 32/32/32 28/28/28 33/33/33
f 20/20/20 28/28/28 30/30/30
f 19/19/19 28/28/28 20/20/20
f 21/21/21 18/18/18 34/34/34
f 18/18/18 21/21/21 9/9/9
f 21/21/21 34/34/34 35/35/35
f 34/34/34 18/18/18 20/20/20
f 27/27/27 33/33/33 28/28/28
f 20/20/20 30/30/30 36/36/36
f 37/37/37 35/35/35 34/34/34
f 34/34/34 20/20/20 38/38/38
f 39/39/39 37/37/37 40/40/40
f 39/39/39 35/35/35 37/37/37
f 22/22/22 21/21/21 41/41/41
f 41/41/41 35/35/35 39/39/39
f 41/41/41 21/21/21 35/35/35
f 31/31/31 28/28/28 32/32/32
f 31/31/31 30/30/30 28/28/28
f 42/42/42 36/36/36 43/43/43
f 44/44/44 36/36/36 30/30/30
f 44/44/44 43/43/43 36/36/36
f 45/45/45 46/46/46 38/38/38
f 42/42/42 38/38/38 36/36/36
f 42/42/42 45/45/45 38/38/38
f 38/38/38 37/37/37 34/34/34
f 38/38/38 47/47/47 37/37/37
f 38/38/38 48/48/48 47/47/47
f 20/20/20 36/36/36 38/38/38
f 46/46/46 48/48/48 38/38/38
f 40/40/40 37/37/37 49/49/49
f 49/49/49 37/37/37 50/50/50
f 51/51/51 37/37/37 47/47/47
f 51/51/51 50/50/50 37/37/37
f 52/52/52 30/30/30 29/29/29
f 52/52/52 44/44/44 30/30/30
f 20/20/20 18/18/18 10/10/10
