mtllib m1222022.mtl
usemtl material0
v 0.49441146850585938 1.3579809665679932 128
v 0 1.5547070503234863 134.02908325195313
v 2.626124382019043 1.3224560022354126 128
v 0 1.4563529491424561 130.883056640625
v 0 1.4563529491424561 130.883056640625
v 0 1.367035984992981 128.02607727050781
v 0 1.1940579414367676 151.97323608398438
v 7.5105867385864258 1.9830360412597656 143.6270290017128
v 0 1.6480909585952759 144.0246890000999
v 0 1.2212660312652588 152.96762084960938
v 7.9300069808959961 1.633059024810791 151.60572814941406
v 0 1.1916019916534424 152.02587890625
v 0.3724822998046875 1.4641380310058594 160
v 0.37732410430908203 1.4644160270690918 160
v 0 1.4488480091094971 160
v 0 1.6456990242004395 136.02494812011719
v 0 1.6344109773635864 143.52854898571968
v 7.08827018737793 1.743649959564209 135.65032958984375
v 0.46871662139892578 1.468940019607544 160
v 7.9765701293945312 1.8395379781723023 160
v 8.352208137512207 1.8489700555801392 159.58250427246094
v 0 1.3641519546508789 128
v 2.7416448593139648 1.3243310451507568 128
v 0 1.5576690435409546 134.09407043457031
v 0 1.5547070503234863 134.02908325195313
v 15.066956996917725 1.9715520143508911 135.22828674316406
v 15.489803016185761 2.3183579444885254 143.20462000370026
v 6.6817617416381836 1.2255040407180786 128
v 10.419911861419678 1.2563530206680298 128
v 8.3742928504943848 1.8578929901123047 160
v 16.33347499370575 2.6012771129608154 159.15869140625
v 15.5764299929142 2.5430090427398682 160
v 15.910713002085686 2.2715981006622314 151.18229722976685
v 14.682675957679749 1.4430389404296875 128
v 18.215457916259766 1.7017120122909546 128
v 23.468790054321289 2.6067869663238525 142.78237903118134
v 23.891272068023682 2.8793570995330811 150.75895690917969
v 16.378149002790451 2.6522738933563232 160
v 23.046105861663818 2.2926959991455078 134.80592346191406
v 10.958057880401611 1.2739429473876953 128
v 23.175886154174805 3.0281479358673096 160
v 24.313095092773438 3.0181219577789307 158.73600769042969
v 19.178031921386719 1.7433149814605713 128
v 22.686063766479492 2.1455080509185791 128
v 26.012134552001953 2.4757289886474609 128
v 27.400239944458008 2.5387139320373535 128
v 31.025470733642578 2.6577639579772949 134.3834228515625
v 30.688922882080078 2.74359393119812 128
v 32 2.7170999050140381 132.14723205566406
v 32 2.7787210941314697 128
v 32 2.70649790763855 133.02926635742188
v 32 2.69084095954895 134.33184814453125
v 32 2.7040359973907471 135.25982666015625
v 31.447319030761719 2.8014490604400635 142.36044299602509
v 31.870649337768555 3.2463788986206055 150.33644104003906
v 32 2.8191258907318115 142.33119201660156
v 32 3.2431309223175049 150.19265699386597
v 32 3.3569200038909912 152.77601623535156
v 32 3.5861051082611084 158.32829284667969
v 32 3.6442070007324219 160
v 32 3.5985119342803955 158.63900756835938
v 30.775430679321289 3.5597829818725586 160
v 24.380105972290039 3.0736899375915527 160
v 32 3.2493131160736084 150.32960510253906
vt 0.99837499856948853 0.017623007297515869
vt 0.81073600053787231 0.0021439790725708008
vt 0.99837499856948853 0.083944022655487061
vt 0.90864801406860352 0.0021950006484985352
vt 0.90864801406860352 0.0021950006484985352
vt 0.99756401777267456 0.0022410154342651367
vt 0.25207200646400452 0.00081098079681396484
vt 0.511722981929779 0.2357029914855957
vt 0.49972999095916748 0.0018180012702941895
vt 0.22112399339675903 0.00082600116729736328
vt 0.26324599981307983 0.24788999557495117
vt 0.25043299794197083 0.00080502033233642578
vt 0.002245000097900629 0.012592017650604248
vt 0.0020089999306946993 0.013015985488891602
vt 0.002251999918371439 0.00099599361419677734
vt 0.74858599901199341 0.0021110177040100098
vt 0.51516997814178467 0.0018230080604553223
vt 0.7599719762802124 0.22264200448989868
vt 0.0020099999383091927 0.015861988067626953
vt 0.0020520000252872705 0.24968999624252319
vt 0.015039999969303608 0.26137799024581909
vt 0.99838000535964966 0.0022420287132263184
vt 0.99837100505828857 0.087539017200469971
vt 0.80871200561523438 0.0021430253982543945
vt 0.81073600053787231 0.0021439790725708008
vt 0.77281099557876587 0.47095298767089844
vt 0.52445799112319946 0.48415398597717285
vt 0.99850499629974365 0.21014302968978882
vt 0.99836897850036621 0.32643002271652222
vt 0.0020500000100582838 0.26207500696182251
vt 0.027977000921964645 0.51076599955558777
vt 0.0018260000506415963 0.4871249794960022
vt 0.27627500891685486 0.4969480037689209
vt 0.99826198816299438 0.4589729905128479
vt 0.9978560209274292 0.568809986114502
vt 0.5372459888458252 0.73253801465034485
vt 0.28903999924659729 0.74594101309776306
vt 0.0017659999430179596 0.51229500770568848
vt 0.78556299209594727 0.71938300132751465
vt 0.9986259937286377 0.34299200773239136
vt 0.0016659999964758754 0.72401100397109985
vt 0.0410350002348423 0.759332999587059
vt 0.99780702590942383 0.59878000617027283
vt 0.99734801054000854 0.70861899852752686
vt 0.99693900346755981 0.81259199976921082
vt 0.99707400798797607 0.85535900294780731
vt 0.79832601547241211 0.96787799894809723
vt 0.99693799018859863 0.95785899832844734
vt 0.86783802509307861 0.99836299999151379
vt 0.99686098098754883 0.99865700001828372
vt 0.840412974357605 0.99828299996443093
vt 0.79988998174667358 0.99821200000587851
vt 0.77102100849151611 0.99818800005596131
vt 0.550134003162384 0.9808140005916357
vt 0.30183398723602295 0.99443699978291988
vt 0.5512160062789917 0.99800499994307756
vt 0.30631300806999207 0.99845499999355525
vt 0.22619199752807617 0.99887000001035631
vt 0.05333000048995018 0.99912300001597032
vt 0.001373999984934926 0.99919499998213723
vt 0.043735001236200333 0.999186999979429
vt 0.0014550000196322799 0.96101199835538864
vt 0.0016820000018924475 0.76149800419807434
vt 0.30204901099205017 0.9984620000468567
vn 0.0165839996188879 0.9993320107460022 -0.032572001218795776
vn 0.01665399968624115 0.99937301874160767 -0.03124300017952919
vn -0.00407300004735589 0.99918097257614136 -0.040263999253511429
vn 0.016654999926686287 0.99937301874160767 -0.03124300017952919
vn 0.016652999445796013 0.99937301874160767 -0.03124300017952919
vn 0.014613999985158444 0.99748897552490234 -0.069289997220039368
vn -0.050365999341011047 0.99752897024154663 0.048973001539707184
vn -0.0424950011074543 0.99905699491500854 0.0088430000469088554
vn -0.043692000210285187 0.99891400337219238 0.016173999756574631
vn -0.056942999362945557 0.99788200855255127 -0.031447000801563263
vn -0.061698000878095627 0.99807697534561157 0.0059850001707673073
vn -0.055252999067306519 0.99845302104949951 0.00623599998652935
vn -0.049380999058485031 0.99827200174331665 -0.03185499832034111
vn -0.055117998272180557 0.9980430006980896 -0.029542999342083931
vn -0.040993999689817429 0.99863702058792114 -0.032317999750375748
vn -0.014937000349164009 0.99966299533843994 -0.021237000823020935
vn -0.038472000509500504 0.99904400110244751 -0.020762000232934952
vn -0.022357000038027763 0.99886202812194824 -0.042128000408411026
vn -0.049423001706600189 0.99848097562789917 -0.024362999945878983
vn -0.048436999320983887 0.99860501289367676 -0.021020000800490379
vn -0.070042997598648071 0.99728798866271973 -0.022603999823331833
vn 0.012404000386595726 0.993861973285675 -0.10992600023746491
vn -0.0023590000346302986 0.99857097864151 -0.053392000496387482
vn -0.01620900072157383 0.99883097410202026 -0.04553699865937233
vn -0.016206000000238419 0.99883097410202026 -0.045536000281572342
vn -0.041923999786376953 0.99772399663925171 -0.052813000977039337
vn -0.044888000935316086 0.99892997741699219 -0.011160999536514282
vn 0.0089469999074935913 0.99764198064804077 -0.068043999373912811
vn -0.023569999262690544 0.99699699878692627 -0.073770001530647278
vn -0.071249000728130341 0.99730402231216431 -0.017544999718666077
vn -0.082846999168396 0.995818018913269 -0.038506999611854553
vn -0.10542900115251541 0.99408602714538574 -0.026018999516963959
vn -0.075526997447013855 0.99700099229812622 -0.016877999529242516
vn -0.058549001812934875 0.99584800004959106 -0.069701001048088074
vn -0.054133001714944839 0.99668198823928833 -0.06078600138425827
vn -0.036814998835325241 0.998878002166748 -0.0297860000282526
vn -0.056751001626253128 0.997983992099762 -0.028403999283909798
vn -0.093575000762939453 0.99407601356506348 -0.055289000272750854
vn -0.050514001399278641 0.99834597110748291 -0.027457000687718391
vn -0.036816000938415527 0.99648499488830566 -0.0752440020442009
vn -0.050482999533414841 0.99730002880096436 -0.05333000048995018
vn -0.059091001749038696 0.99770599603652954 -0.033027000725269318
vn -0.066834002733230591 0.99685901403427124 -0.042482998222112656
vn -0.1066029965877533 0.9941750168800354 -0.015861000865697861
vn -0.065080001950263977 0.9978790283203125 -0.0015259999781847
vn -0.050981000065803528 0.99864602088928223 0.010328000411391258
vn -0.04049300029873848 0.99917799234390259 -0.001993000041693449
vn -0.045067999511957169 0.9988589882850647 0.015807000920176506
vn -0.0276309996843338 0.99951297044754028 0.014480000361800194
vn -0.026779999956488609 0.99953097105026245 0.014851000159978867
vn -0.033284001052379608 0.99937397241592407 0.012013000436127186
vn -0.033957000821828842 0.99942302703857422 -0.00065800000447779894
vn -0.033316001296043396 0.99932098388671875 -0.015715999528765678
vn -0.035367999225854874 0.99876397848129272 -0.034933000802993774
vn -0.041227001696825027 0.99819701910018921 -0.043618999421596527
vn -0.033769000321626663 0.9988359808921814 -0.034432001411914825
vn -0.03249799832701683 0.99812901020050049 -0.051786001771688461
vn -0.0749410018324852 0.99633800983428955 -0.041172001510858536
vn -0.075763002038002014 0.9963039755821228 -0.0404760017991066
vn -0.068740002810955048 0.99707299470901489 -0.033477000892162323
vn -0.07409299910068512 0.99651497602462769 -0.0383090004324913
vn -0.073863998055458069 0.99654000997543335 -0.038102000951766968
vn -0.057422000914812088 0.9975159764289856 -0.04080900177359581
vn -0.025005999952554703 0.9986950159072876 -0.044525999575853348
f 1/1/1 2/2/2 3/3/3
f 1/1/1 4/4/4 2/2/2
f 5/5/5 1/1/1 6/6/6
f 7/7/7 8/8/8 9/9/9
f 10/10/10 11/11/11 12/12/12
f 10/10/10 13/13/13 11/11/11
f 13/13/13 14/14/14 11/11/11
f 15/15/15 13/13/13 10/10/10
f 16/16/16 17/17/17 18/18/18
f 19/19/19 20/20/20 21/21/21
f 22/22/22 6/6/6 1/1/1
f 23/23/23 16/16/16 18/18/18
f 23/23/23 24/24/24 16/16/16
f 24/24/24 3/3/3 25/25/25
f 24/24/24 23/23/23 3/3/3
f 17/17/17 8/8/8 18/18/18
f 17/17/17 9/9/9 8/8/8
f 8/8/8 26/26/26 18/18/18
f 11/11/11 27/27/27 8/8/8
f 7/7/7 11/11/11 8/8/8
f 7/7/7 12/12/12 11/11/11
f 28/28/28 18/18/18 29/29/29
f 23/23/23 18/18/18 28/28/28
f 20/20/20 30/30/30 21/21/21
f 30/30/30 31/31/31 21/21/21
f 30/30/30 32/32/32 31/31/31
f 11/11/11 21/21/21 33/33/33
f 14/14/14 21/21/21 11/11/11
f 14/14/14 19/19/19 21/21/21
f 26/26/26 8/8/8 27/27/27
f 34/34/34 26/26/26 35/35/35
f 33/33/33 21/21/21 31/31/31
f 33/33/33 36/36/36 27/27/27
f 31/31/31 37/37/37 33/33/33
f 38/38/38 31/31/31 32/32/32
f 26/26/26 27/27/27 39/39/39
f 27/27/27 11/11/11 33/33/33
f 40/40/40 26/26/26 34/34/34
f 31/31/31 41/41/41 42/42/42
f 31/31/31 38/38/38 41/41/41
f 26/26/26 29/29/29 18/18/18
f 26/26/26 40/40/40 29/29/29
f 35/35/35 39/39/39 43/43/43
f 35/35/35 26/26/26 39/39/39
f 43/43/43 39/39/39 44/44/44
f 44/44/44 39/39/39 45/45/45
f 46/46/46 39/39/39 47/47/47
f 46/46/46 45/45/45 39/39/39
f 46/46/46 47/47/47 48/48/48
f 49/49/49 48/48/48 47/47/47
f 49/49/49 50/50/50 48/48/48
f 51/51/51 47/47/47 52/52/52
f 51/51/51 49/49/49 47/47/47
f 52/52/52 47/47/47 53/53/53
f 47/47/47 39/39/39 54/54/54
f 36/36/36 33/33/33 37/37/37
f 36/36/36 37/37/37 54/54/54
f 55/55/55 37/37/37 42/42/42
f 37/37/37 55/55/55 54/54/54
f 56/56/56 55/55/55 57/57/57
f 56/56/56 54/54/54 55/55/55
f 58/58/58 42/42/42 59/59/59
f 58/58/58 55/55/55 42/42/42
f 39/39/39 36/36/36 54/54/54
f 37/37/37 31/31/31 42/42/42
f 60/60/60 61/61/61 62/62/62
f 59/59/59 62/62/62 61/61/61
f 59/59/59 42/42/42 62/62/62
f 42/42/42 63/63/63 62/62/62
f 64/64/64 55/55/55 58/58/58
f 63/63/63 42/42/42 41/41/41
f 64/64/64 57/57/57 55/55/55
f 53/53/53 54/54/54 56/56/56
f 53/53/53 47/47/47 54/54/54
f 39/39/39 27/27/27 36/36/36
