mtllib m1222031.mtl
usemtl material0
v 96 2.1707069873809814 163.51202392578125
v 96.52838134765625 2.210442066192627 162.92481994628906
v 96 2.2173840999603271 162.95269775390625
v 96 1.3541549444198608 171.95590209960938
v 96.94580078125 1.4566069841384888 170.90487718582153
v 96 1.478585958480835 170.95475816726685
v 96 -0.10733000189065933 188.0478515625
v 97.780647277832031 -0.047214001417160034 186.864990234375
v 96 -0.03515600040555 186.958984375
v 96 -0.1600939929485321 188.84388732910156
v 96 0.38915398716926575 178.95791602134705
v 96 0.2783539891242981 180.39923095703125
v 97.361412048339844 0.33801299333572388 178.88618493080139
v 96 2.2203950881958008 162.61367797851563
v 96.3741226196289 2.2385189533233643 160
v 96 2.2436089515686035 160
v 99.160018920898438 2.2976920604705811 160
v 104.37374114990234 2.2010719776153564 160
v 104.50531816482544 2.0821859836578369 162.50398254394531
v 104.92272901535034 1.3283510208129883 170.48403882980347
v 100.75891876220703 -0.19331599771976471 192
v 105.75893402099609 0.098451003432273865 186.44322204589844
v 98.050750732421875 -0.23733800649642944 192
v 105.33930206298828 0.4036020040512085 178.4646909236908
v 96 -0.28043800592422485 192
v 106.75832414627075 2.1672101020812988 160
v 112.48271900415421 2.0471720695495605 162.08282470703125
v 112.37319201231003 2.1307690143585205 160
v 114.35671997070313 2.083266019821167 160
v 112.90020000934601 1.3074970245361328 170.06285095214844
v 113.31727600097656 0.48626101016998291 178.04313707351685
v 108.35793304443359 0.055553998798131943 192
v 113.73836505413055 0.476514995098114 186.02067565917969
v 106.05151414871216 -0.050161998718976974 192
v 120.87783813476563 1.3217790126800537 169.64152479171753
v 121.29561614990234 0.64263099431991577 177.62133800983429
v 114.0544970035553 0.56947797536849976 192
v 120.45931243896484 1.8505209684371948 161.6622314453125
v 115.95757293701172 0.63099402189254761 192
v 121.71717834472656 0.72858697175979614 185.598557472229
v 120.37192535400391 1.9218130111694336 160
v 121.95471954345703 1.7938920259475708 160
v 128 1.4064949750900269 161.26541137695313
v 128 1.4086029529571533 161.15922546386719
v 128 1.4316079616546631 160
v 128 1.3775060176849365 161.72554016113281
v 128 0.92289698123931885 169.26667785644531
v 128 0.84886801242828369 170.17001295089722
v 122.05870819091797 1.4286149740219116 192
v 128 0.40441501140594482 185.26779174804688
v 128 0.5635409951210022 186.69119262695313
v 123.55751037597656 1.3601030111312866 192
v 128 0.60484898090362549 187.06068420410156
v 128 0.45064899325370789 177.26789903640747
v 128 0.46715399622917175 178.61480689048767
v 128 0.77903497219085693 192
vt 0.86034500598907471 0.004284977912902832
vt 0.87857300043106079 0.019510984420776367
vt 0.87718802690505981 0.0036810040473937988
vt 0.60575199127197266 0.013494014739990234
vt 0.638480007648468 0.040718019008636475
vt 0.63602697849273682 0.012374997138977051
vt 0.12042900174856186 0.031036972999572754
vt 0.15784800052642822 0.0836300253868103
vt 0.15317900478839874 0.029905974864959717
vt 0.0964839980006218 0.031791985034942627
vt 0.39364799857139587 0.021438002586364746
vt 0.35026499629020691 0.02294999361038208
vt 0.3970940113067627 0.062157988548278809
vt 0.8873630166053772 0.0033280253410339355
vt 0.96619397401809692 0.011834979057312012
vt 0.96580600738525391 0.00060600042343139648
vt 0.96911400556564331 0.095462024211883545
vt 0.974399983882904 0.25196301937103271
vt 0.89942800998687744 0.25850802659988403
vt 0.65933501720428467 0.27971500158309937
vt 0.0070250001735985279 0.17875099182128906
vt 0.17957200109958649 0.32260102033615112
vt 0.0039510000497102737 0.097473978996276855
vt 0.41870200634002686 0.30109500885009766
vt 0.0016840000171214342 0.034699976444244385
vt 0.976954996585846 0.32352602481842041
vt 0.92055201530456543 0.49746698141098022
vt 0.982990026473999 0.49193602800369263
vt 0.98507100343704224 0.5514799952507019
vt 0.68049901723861694 0.518671989440918
vt 0.44028401374816895 0.54004201292991638
vt 0.0157299991697073 0.40682101249694824
vt 0.20141200721263886 0.56182700395584106
vt 0.013092000037431717 0.33762598037719727
vt 0.70168197154998779 0.75763100385665894
vt 0.46197500824928284 0.77902400493621826
vt 0.022354999557137489 0.578451007604599
vt 0.9412199854850769 0.73651200532913208
vt 0.02449600026011467 0.63533300161361694
vt 0.22315500676631928 0.80089199542999268
vt 0.99106097221374512 0.73217099905014038
vt 0.99254500865936279 0.77983300387859344
vt 0.96033000946044922 0.96285299956798553
vt 0.96351802349090576 0.96274799853563309
vt 0.99831598997116089 0.96160199865698814
vt 0.94649398326873779 0.9633449986577034
vt 0.71977001428604126 0.9713710006326437
vt 0.69268399477005 0.97244600020349026
vt 0.030453000217676163 0.82000799477100372
vt 0.23997800052165985 0.98932300042361021
vt 0.19855199754238129 0.992238000035286
vt 0.032421998679637909 0.86502000689506531
vt 0.18739500641822815 0.99267000006511807
vt 0.47933700680732727 0.97996499948203564
vt 0.4396350085735321 0.98193099908530712
vt 0.039131999015808105 0.99939399998402223
vn 0.025558000430464745 0.99558001756668091 0.090368002653121948
vn 0.013983000069856644 0.99840998649597168 0.054604001343250275
vn 0.015615999698638916 0.99875998497009277 0.047277998179197311
vn 0.040920000523328781 0.99022400379180908 0.1333480030298233
vn 0.0272659994661808 0.99319201707839966 0.11325100064277649
vn 0.028810000047087669 0.9936869740486145 0.10842200368642807
vn 0.010246999561786652 0.99775797128677368 0.0661349967122078
vn -0.0058079999871551991 0.99895298480987549 0.045382000505924225
vn 0.009782000444829464 0.99831199645996094 0.057243999093770981
vn -0.013718999922275543 0.99890899658203125 0.044635001569986343
vn 0.042885001748800278 0.99348199367523193 0.10561700165271759
vn 0.016791999340057373 0.99837398529052734 0.054474998265504837
vn 0.018655000254511833 0.99545401334762573 0.0934009999036789
vn 0.013605000451207161 0.99986797571182251 0.0088809998705983162
vn -0.0032319999299943447 0.99994701147079468 0.0097690001130104065
vn 0.013604000210762024 0.99986797571182251 0.0088809998705983162
vn 0.007907000370323658 0.99928700923919678 0.036924000829458237
vn 0.016419000923633575 0.99878102540969849 0.046558000147342682
vn 0.014770000241696835 0.99750298261642456 0.069068998098373413
vn 0.012141999788582325 0.99421501159667969 0.10672199726104736
vn -0.019117999821901321 0.99919497966766357 0.035261999815702438
vn -0.027831999585032463 0.99914401769638062 0.030597999691963196
vn -0.018541000783443451 0.9991070032119751 0.037967000156641006
vn -0.0048639997839927673 0.99704897403717041 0.076618999242782593
vn -0.020997000858187675 0.99905401468276978 0.038093999028205872
vn 0.0085410000756382942 0.99909698963165283 0.041609000414609909
vn 0.017395000904798508 0.99767798185348511 0.065856002271175385
vn 0.014910000376403332 0.99911600351333618 0.039317000657320023
vn 0.026038000360131264 0.99883097410202026 0.04073600098490715
vn 0.0071200001984834671 0.99542397260665894 0.095292001962661743
vn -0.014468999579548836 0.99838000535964966 0.0550290010869503
vn -0.057528000324964523 0.99817198514938354 0.018508000299334526
vn -0.043285999447107315 0.99906200170516968 -0.0010949999559670687
vn -0.036706998944282532 0.99891501665115356 0.028648000210523605
vn 0.029140999540686607 0.99670100212097168 0.075750000774860382
vn 0.0082599995657801628 0.99936199188232422 0.034742999821901321
vn -0.060118000954389572 0.99811500310897827 -0.01233999989926815
vn 0.043639000505208969 0.997642993927002 0.052960999310016632
vn -0.058318000286817551 0.99760198593139648 -0.037262000143527985
vn -0.0069670001976192 0.99896299839019775 -0.044982001185417175
vn 0.052737001329660416 0.99780601263046265 0.040022999048233032
vn 0.065335996448993683 0.99755501747131348 0.024793999269604683
vn 0.06086299940943718 0.99731999635696411 0.040608000010252
vn 0.059808999300003052 0.99801301956176758 0.019806999713182449
vn 0.059808999300003052 0.99801301956176758 0.019805999472737312
vn 0.061259001493453979 0.9961860179901123 0.06212799996137619
vn 0.05947599932551384 0.99573898315429688 0.070473000407218933
vn 0.053369000554084778 0.99571102857589722 0.075579002499580383
vn -0.038741998374462128 0.99354898929595947 -0.10658200085163117
vn 0.048905998468399048 0.99761199951171875 -0.0487620010972023
vn 0.045380998402833939 0.99278497695922852 -0.11098700016736984
vn 0.06781499832868576 0.9935460090637207 -0.090925998985767364
vn 0.065100997686386108 0.99350202083587646 -0.093359999358654022
vn 0.02982800081372261 0.99928998947143555 0.023012999445199966
vn 0.033590998500585556 0.99940997362136841 -0.0071919998154044151
vn 0.129613995552063 0.99094897508621216 -0.034945998340845108
f 1/1/1 2/2/2 3/3/3
f 4/4/4 5/5/5 6/6/6
f 7/7/7 8/8/8 9/9/9
f 7/7/7 10/10/10 8/8/8
f 11/11/11 12/12/12 13/13/13
f 3/3/3 2/2/2 14/14/14
f 14/14/14 15/15/15 16/16/16
f 14/14/14 2/2/2 15/15/15
f 15/15/15 2/2/2 17/17/17
f 18/18/18 2/2/2 19/19/19
f 18/18/18 17/17/17 2/2/2
f 11/11/11 5/5/5 4/4/4
f 11/11/11 13/13/13 5/5/5
f 13/13/13 20/20/20 5/5/5
f 8/8/8 21/21/21 22/22/22
f 8/8/8 23/23/23 21/21/21
f 24/24/24 13/13/13 8/8/8
f 19/19/19 5/5/5 20/20/20
f 25/25/25 8/8/8 10/10/10
f 25/25/25 23/23/23 8/8/8
f 2/2/2 5/5/5 19/19/19
f 9/9/9 13/13/13 12/12/12
f 9/9/9 8/8/8 13/13/13
f 26/26/26 18/18/18 19/19/19
f 6/6/6 2/2/2 1/1/1
f 6/6/6 5/5/5 2/2/2
f 26/26/26 27/27/27 28/28/28
f 26/26/26 19/19/19 27/27/27
f 28/28/28 27/27/27 29/29/29
f 20/20/20 27/27/27 19/19/19
f 27/27/27 20/20/20 30/30/30
f 22/22/22 24/24/24 8/8/8
f 24/24/24 22/22/22 31/31/31
f 22/22/22 32/32/32 33/33/33
f 22/22/22 34/34/34 32/32/32
f 34/34/34 22/22/22 21/21/21
f 31/31/31 30/30/30 24/24/24
f 30/30/30 31/31/31 35/35/35
f 31/31/31 33/33/33 36/36/36
f 33/33/33 31/31/31 22/22/22
f 20/20/20 24/24/24 30/30/30
f 37/37/37 33/33/33 32/32/32
f 38/38/38 27/27/27 30/30/30
f 24/24/24 20/20/20 13/13/13
f 39/39/39 33/33/33 37/37/37
f 39/39/39 40/40/40 33/33/33
f 29/29/29 38/38/38 41/41/41
f 29/29/29 27/27/27 38/38/38
f 41/41/41 38/38/38 42/42/42
f 43/43/43 42/42/42 38/38/38
f 43/43/43 44/44/44 42/42/42
f 44/44/44 45/45/45 42/42/42
f 46/46/46 38/38/38 35/35/35
f 46/46/46 43/43/43 38/38/38
f 36/36/36 35/35/35 31/31/31
f 36/36/36 47/47/47 35/35/35
f 36/36/36 48/48/48 47/47/47
f 49/49/49 40/40/40 39/39/39
f 49/49/49 50/50/50 40/40/40
f 49/49/49 51/51/51 50/50/50
f 51/51/51 52/52/52 53/53/53
f 51/51/51 49/49/49 52/52/52
f 54/54/54 40/40/40 55/55/55
f 54/54/54 36/36/36 40/40/40
f 40/40/40 36/36/36 33/33/33
f 46/46/46 35/35/35 47/47/47
f 30/30/30 35/35/35 38/38/38
f 50/50/50 55/55/55 40/40/40
f 56/56/56 53/53/53 52/52/52
f 54/54/54 48/48/48 36/36/36
