mtllib m1222222313.mtl
usemtl material0
v 28 -0.11607400327920914 8.5558960437774658
v 28.367642998695374 -0.11722999811172485 8.536484956741333
v 28 -0.12185899913311005 8.1142760515213013
v 28.339287042617798 -0.12418799847364426 8
v 28 -0.12335599958896637 8
v 28.850247979164124 -0.15688900649547577 8
v 29.339147984981537 -0.14669600129127502 8
v 29.364917993545532 -0.1013220027089119 8.4837709665298462
v 29.882711000740528 -0.12686899304389954 8
v 30.362268000841141 -0.069789998233318329 8.4310040473937988
v 30.339267998933792 -0.11802899837493897 8
v 30.938736021518707 -0.0926629975438118 8
v 31.359642028808594 -0.033376000821590424 8.3782199621200562
v 31.339521050453186 -0.063476003706455231 8
v 29.417954981327057 -0.021007999777793884 9.4806830286979675
v 30.415376991033554 0.025172999128699303 9.4278659820556641
v 32 -0.062360998243093491 8.3444969654083252
v 31.412891030311584 0.089906997978687286 9.3749849796295166
v 32 -0.014863999560475349 8.7222150564193726
v 32 -0.090443998575210571 8
v 31.994482040405273 -0.0903019979596138 8
v 32 -0.090121999382972717 8.0049630403518677
v 28.420619964599609 -0.049121998250484467 9.5334399938583374
v 28 -0.075145997107028961 9.15521502494812
v 28 0.056671999394893646 10.104005999863148
v 28.47406804561615 0.11419899761676788 10.530066013336182
v 28 -0.033998001366853714 9.5556029975414276
v 30.468382000923157 0.098650999367237091 10.424802005290985
v 31.466002941131592 0.185357004404068 10.371845006942749
v 29.471216022968292 0.10471600294113159 10.477439999580383
v 28 0.12613600492477417 10.555063009262085
v 29.523878008127213 0.10885900259017944 11.474614024162293
v 30.5213680267334 0.16871100664138794 11.421749949455261
v 28.526486992836 0.069026000797748566 11.527410984039307
v 28 0.10428299754858017 11.053457021713257
v 32 0.21086500585079193 10.343564987182617
v 32 0.16987699270248413 9.9025719985365868
v 32 0.22004500031471252 10.834091007709503
v 31.51875102519989 0.20658999681472778 11.368960022926331
v 29.55171599984169 0.12879499793052673 12
v 29.052106976509094 0.10789699852466583 12
v 28 0.040011998265981674 11.555305004119873
v 30.551994025707245 0.18810400366783142 12
v 30.108295001089573 0.16076900064945221 12
v 28 0.11549700051546097 12
v 28.551852941513062 0.15087300539016724 12
v 28 0.077055998146533966 11.773535013198853
v 31.552919030189514 0.37436500191688538 12
v 31.165711998939514 0.35426801443099976 12
v 32 0.2083439975976944 11.662858963012695
v 32 0.20637999475002289 11.8019380569458
v 32 0.26174101233482361 12
vt 0.99738401174545288 0.86126700043678284
vt 0.90647399425506592 0.86607100069522858
vt 0.99738401174545288 0.97047900035977364
vt 0.91348600387573242 0.99874199996702373
vt 0.99738401174545288 0.99873899994418025
vt 0.78687798976898193 0.99886099994182587
vt 0.66595900058746338 0.998416000045836
vt 0.659824013710022 0.87881399691104889
vt 0.531686007976532 0.99807199998758733
vt 0.41301798820495605 0.89065700024366379
vt 0.41876900196075439 0.99789700005203485
vt 0.27104100584983826 0.99795700004324317
vt 0.16654700040817261 0.90374600142240524
vt 0.17167399823665619 0.99755900003947318
vt 0.64664500951766968 0.631505012512207
vt 0.3996959924697876 0.64368700981140137
vt 0.00812000036239624 0.913502000272274
vt 0.15244799852371216 0.6554419994354248
vt 0.007770999800413847 0.819365993142128
vt 0.0085850004106760025 0.99896999995689839
vt 0.0099499998614192009 0.99895899998955429
vt 0.008577999658882618 0.99774000002071261
vt 0.89338797330856323 0.61897099018096924
vt 0.99739199876785278 0.7127240002155304
vt 0.997767984867096 0.47574800252914429
vt 0.87955701351165771 0.36927402019500732
vt 0.99744898080825806 0.6131959855556488
vt 0.38646599650382996 0.39665699005126953
vt 0.13877600431442261 0.40832501649856567
vt 0.63301801681518555 0.38310199975967407
vt 0.997402012348175 0.36289697885513306
vt 0.61919200420379639 0.13656502962112427
vt 0.37289699912071228 0.14955097436904907
vt 0.86596101522445679 0.12243497371673584
vt 0.99684697389602661 0.23953902721405029
vt 0.0065640001557767391 0.41499698162078857
vt 0.0068939998745918274 0.52451398968696594
vt 0.0067610000260174274 0.29441201686859131
vt 0.12607799470424652 0.16239398717880249
vt 0.611545979976654 0.0065979957580566406
vt 0.735194981098175 0.006063997745513916
vt 0.9964519739151001 0.1144300103187561
vt 0.36426401138305664 0.0065389871597290039
vt 0.47418901324272156 0.006560981273651123
vt 0.994683027267456 0.0029090046882629395
vt 0.85933202505111694 0.0038539767265319824
vt 0.99544697999954224 0.0597040057182312
vt 0.11591800302267075 0.0010300278663635254
vt 0.20704199373722076 0.0066159963607788086
vt 0.0072360001504421234 0.08945697546005249
vt 0.002693000016734004 0.060410976409912109
vt 0.0022309999912977219 0.00955897569656372
vn 0.00094699999317526817 0.99913597106933594 -0.041556000709533691
vn -0.00057500001275911927 0.99863898754119873 -0.052147001028060913
vn 0.0024520000442862511 0.99991101026535034 -0.013098999857902527
vn 0.032148998230695724 0.99937599897384644 -0.014662000350654125
vn 0.0024520000442862511 0.99991101026535034 -0.013098999857902527
vn 0.0018149999668821693 0.99739599227905273 -0.072099998593330383
vn -0.028253000229597092 0.99537199735641479 -0.091853000223636627
vn -0.030104000121355057 0.9957510232925415 -0.087033003568649292
vn -0.03231700137257576 0.99487602710723877 -0.09579700231552124
vn -0.040525000542402267 0.99395102262496948 -0.10207600146532059
vn -0.030225999653339386 0.99351799488067627 -0.10958299785852432
vn -0.049100998789072037 0.99366199970245361 -0.10111699998378754
vn -0.0051730000413954258 0.99447602033615112 -0.1048320010304451
vn -0.017792999744415283 0.99676501750946045 -0.078380003571510315
vn -0.033987000584602356 0.99509197473526 -0.092937000095844269
vn -0.060541000217199326 0.99481397867202759 -0.081727996468544
vn 0.039604000747203827 0.99396598339080811 -0.10228800028562546
vn -0.0320109985768795 0.99282002449035645 -0.1152539998292923
vn 0.030472999438643456 0.99083101749420166 -0.13162299990653992
vn 0.025624999776482582 0.99757999181747437 -0.064630001783370972
vn 0.037243999540805817 0.9962959885597229 -0.077501997351646423
vn 0.03674200177192688 0.99635797739028931 -0.076944999396801
vn -0.0016809999942779541 0.99343997240066528 -0.11433800309896469
vn 0.0077599999494850636 0.996982991695404 -0.077226996421813965
vn 0.02421100065112114 0.98679101467132568 -0.16017599403858185
vn 0.0090680001303553581 0.99791598320007324 -0.063895002007484436
vn 0.028568999841809273 0.99059802293777466 -0.13378700613975525
vn -0.044376000761985779 0.99656999111175537 -0.069844998419284821
vn -0.067078001797199249 0.99639499187469482 -0.051936998963356018
vn -0.0092219999060034752 0.99697500467300415 -0.0771699994802475
vn 0.022446999326348305 0.99844199419021606 -0.0510919988155365
vn -0.043806999921798706 0.99896800518035889 -0.011970999650657177
vn -0.072644002735614777 0.99503099918365479 -0.068081997334957123
vn -0.022570999339222908 0.9991229772567749 -0.035275999456644058
vn 0.0073810000903904438 0.99779099225997925 0.066023997962474823
vn -0.050634998828172684 0.99710202217102051 -0.056768998503685
vn -0.037354998290538788 0.993340015411377 -0.10899899899959564
vn -0.040203001350164413 0.99913102388381958 -0.011039000004529953
vn -0.0072770002298057079 0.99413502216339111 -0.10790300369262695
vn -0.049814000725746155 0.99813699722290039 -0.035234998911619186
vn -0.012040000408887863 0.99756699800491333 -0.068659000098705292
vn -0.05633699893951416 0.99809497594833374 -0.025151999667286873
vn -0.16587300598621368 0.98584800958633423 -0.024277999997138977
vn -0.06049799919128418 0.99767798185348511 -0.03127799928188324
vn -0.063073001801967621 0.98393398523330688 -0.16701899468898773
vn 0.013043000362813473 0.985131025314331 -0.17131200432777405
vn -0.063073001801967621 0.98393398523330688 -0.16701899468898773
vn 0.096317999064922333 0.96062600612640381 -0.26061698794364929
vn -0.099307999014854431 0.97433799505233765 -0.20200000703334808
vn -0.012264000251889229 0.99982500076293945 0.014116000384092331
vn 0.17129999399185181 0.9667389988899231 -0.18992899358272553
vn 0.23577100038528442 0.93593597412109375 -0.26160401105880737
f 1/1/1 2/2/2 3/3/3
f 3/3/3 4/4/4 5/5/5
f 3/3/3 2/2/2 4/4/4
f 4/4/4 2/2/2 6/6/6
f 7/7/7 2/2/2 8/8/8
f 7/7/7 6/6/6 2/2/2
f 9/9/9 10/10/10 11/11/11
f 12/12/12 13/13/13 14/14/14
f 2/2/2 15/15/15 8/8/8
f 7/7/7 10/10/10 9/9/9
f 7/7/7 8/8/8 10/10/10
f 11/11/11 13/13/13 12/12/12
f 11/11/11 10/10/10 13/13/13
f 8/8/8 16/16/16 10/10/10
f 17/17/17 18/18/18 19/19/19
f 17/17/17 13/13/13 18/18/18
f 20/20/20 21/21/21 22/22/22
f 22/22/22 13/13/13 17/17/17
f 22/22/22 21/21/21 13/13/13
f 21/21/21 14/14/14 13/13/13
f 10/10/10 18/18/18 13/13/13
f 1/1/1 23/23/23 2/2/2
f 1/1/1 24/24/24 23/23/23
f 23/23/23 25/25/25 26/26/26
f 23/23/23 27/27/27 25/25/25
f 27/27/27 23/23/23 24/24/24
f 16/16/16 15/15/15 28/28/28
f 15/15/15 16/16/16 8/8/8
f 16/16/16 18/18/18 10/10/10
f 18/18/18 16/16/16 29/29/29
f 2/2/2 23/23/23 15/15/15
f 15/15/15 23/23/23 30/30/30
f 31/31/31 26/26/26 25/25/25
f 26/26/26 32/32/32 30/30/30
f 30/30/30 28/28/28 15/15/15
f 28/28/28 29/29/29 16/16/16
f 30/30/30 33/33/33 28/28/28
f 23/23/23 26/26/26 30/30/30
f 31/31/31 34/34/34 26/26/26
f 31/31/31 35/35/35 34/34/34
f 36/36/36 18/18/18 29/29/29
f 36/36/36 37/37/37 18/18/18
f 38/38/38 29/29/29 39/39/39
f 38/38/38 36/36/36 29/29/29
f 19/19/19 18/18/18 37/37/37
f 28/28/28 39/39/39 29/29/29
f 34/34/34 40/40/40 32/32/32
f 34/34/34 41/41/41 40/40/40
f 42/42/42 34/34/34 35/35/35
f 32/32/32 26/26/26 34/34/34
f 32/32/32 43/43/43 33/33/33
f 32/32/32 44/44/44 43/43/43
f 45/45/45 46/46/46 47/47/47
f 47/47/47 34/34/34 42/42/42
f 47/47/47 46/46/46 34/34/34
f 33/33/33 48/48/48 39/39/39
f 33/33/33 49/49/49 48/48/48
f 40/40/40 44/44/44 32/32/32
f 43/43/43 49/49/49 33/33/33
f 41/41/41 34/34/34 46/46/46
f 38/38/38 39/39/39 50/50/50
f 50/50/50 39/39/39 51/51/51
f 52/52/52 39/39/39 48/48/48
f 52/52/52 51/51/51 39/39/39
f 30/30/30 32/32/32 33/33/33
f 39/39/39 28/28/28 33/33/33
