mtllib m122222022.mtl
usemtl material0
v 0 0.96137797832489014 35.845817998051643
v 1.7153670787811279 1.0585579872131348 33.939425945281982
v 0 1.1756850481033325 34.029639959335327
v 0 0.85421502590179443 37.9569970369339
v 1.8201379776000977 0.9540410041809082 35.934161998331547
v 0 0.95172601938247681 36.030285000801086
v 0.56157207489013672 1.190418004989624 32
v 0 1.1925050020217896 33.405402898788452
v 0.61232900619506836 1.1876950263977051 32
v 0 1.1932749748229981 33.3667950630188
v 0 1.2199579477310181 32.029560089111328
v 0.06111907958984375 0.625531017780304 40
v 0 0.69862300157547 39.364940881729126
v 0.033155918121337891 0.62619000673294067 40
v 0 0.73077201843261719 39.080013036727905
v 1.9247419834136963 0.81534302234649658 37.92901599407196
v 0 0.84918302297592163 38.030548095703125
v 0.59000897407531738 0.63713902235031128 40
v 1.9608321189880371 0.66736698150634766 40
v 2.0293329954147339 0.67420297861099243 39.923877954483032
v 0 0.63011199235916138 40
v 0 1.2213560342788696 32
v 0.61507201194763184 1.1875029802322388 32
v 1.6136500835418701 1.1896029710769653 32
v 2.5607559680938721 1.1652380228042603 32
v 3.9174129962921143 0.46534499526023865 37.82489800453186
v 4.02165500074625 0.25291699171066284 39.820003986358643
v 3.7098090052604675 1.0689059495925903 33.834072113037109
v 3.8596999943256378 0.24809400737285614 40
v 2.0332590341567993 0.65599000453948975 40
v 2.6691099405288696 1.165490984916687 32
v 3.8145470023155212 0.95755201578140259 35.8288310021162
v 5.7042779922485352 1.0846229791641235 33.728703022003174
v 5.8085689544677734 0.88245099782943726 35.723769992589951
v 4.5091819763183594 1.1426750421524048 32
v 3.6133120059967041 1.1326839923858643 32
v 4.0310769993811846 0.23731899261474609 40
v 6.0154049396514893 0.12264099717140198 39.7151300907135
v 5.7590960264205933 0.1168610006570816 40
v 5.9114309549331665 0.38926699757575989 37.719841003417969
v 4.7231519818305969 1.143934965133667 32
v 5.6129729747772217 1.0757570266723633 32
v 6.4574699401855469 1.0795290470123291 32
v 7.80351996421814 0.99630999565124512 35.618064999580383
v 7.9062900543212891 0.48457199335098267 37.614197015762329
v 7.6991860866546631 1.1896929740905762 33.623023986816406
v 8 0.14993900060653687 39.610244989395142
v 7.6587619781494141 0.13299299776554108 40
v 8 0.14959199726581574 39.62075400352478
v 6.0303969383239746 0.11343199759721756 40
v 6.7770190238952637 1.0968079566955566 32
v 8 1.1975380182266235 32.932682037353516
v 7.6133229732513428 1.1539490222930908 32
v 8 1.1803690195083618 32
v 8 0.11297299712896347 40
v 8 0.4982529878616333 37.510066986083984
v 8 0.97307097911834717 35.60776099562645
v 8 0.18212799727916718 39.418503046035767
v 8 0.47757598757743835 37.609267950057983
v 8 1.1735730171203613 33.607188940048218
v 8 1.0053080320358276 35.399699985980988
v 8 1.1883260011672974 33.1919629573822
vt 0.49896100163459778 0.018621981143951416
vt 0.73528701066970825 0.2141990065574646
vt 0.71735101938247681 0.00918501615524292
vt 0.24649700522422791 0.028910994529724121
vt 0.49723801016807556 0.23643398284912109
vt 0.47690001130104065 0.019520998001098633
vt 0.9622189998626709 0.067533016204833984
vt 0.7919430136680603 0.0064460039138793945
vt 0.96243298053741455 0.0736050009727478
vt 0.79655599594116211 0.0062770247459411621
vt 0.95632201433181763 0.00048100948333740234
vt 0.0012860000133514404 0.046498000621795654
vt 0.077321998775005341 0.035996019840240479
vt 0.0011549999471753836 0.043157994747161865
vt 0.111565001308918 0.034560024738311768
vt 0.25892999768257141 0.25871002674102783
vt 0.23769299685955048 0.02927100658416748
vt 0.0040290001779794693 0.10967200994491577
vt 0.010751999914646149 0.26943099498748779
vt 0.020275000482797623 0.2771649956703186
vt 0.0010389999952167273 0.039169013500213623
vt 0.95985698699951172 0.00034797191619873047
vt 0.96246200799942017 0.073961973190307617
vt 0.96700698137283325 0.19323498010635376
vt 0.97110801935195923 0.30640602111816406
vt 0.27452200651168823 0.49668198823928833
vt 0.035456001758575439 0.52041599154472351
vt 0.75762498378753662 0.451882004737854
vt 0.013228000141680241 0.50187298655509949
vt 0.010963999666273594 0.27819198369979858
vt 0.97190797328948975 0.31865197420120239
vt 0.51952797174453735 0.47411501407623291
vt 0.78000098466873169 0.68956899642944336
vt 0.54103600978851318 0.71198898553848267
vt 0.98070698976516724 0.53849399089813232
vt 0.97633802890777588 0.43149399757385254
vt 0.013926000334322453 0.52243301272392273
vt 0.056481998413801193 0.75863899290561676
vt 0.021255999803543091 0.72935399413108826
vt 0.29524299502372742 0.73462998867034912
vt 0.981793999671936 0.56395301222801208
vt 0.98604702949523926 0.670538991689682
vt 0.9900130033493042 0.77140499651432037
vt 0.56490600109100342 0.94997299835085869
vt 0.3197689950466156 0.972418999299407
vt 0.80375999212265015 0.92750100046396255
vt 0.079708002507686615 0.99507299996912479
vt 0.031302999705076218 0.95640600100159645
vt 0.078452996909618378 0.99512899992987514
vt 0.022509999573230743 0.76176099479198456
vt 0.99288797378540039 0.80859099328517914
vt 0.88757997751235962 0.960317999124527
vt 0.9971659779548645 0.9086960032582283
vt 0.99896097183227539 0.955120000988245
vt 0.032958999276161194 0.99723100010305643
vt 0.33269500732421875 0.98318899981677532
vt 0.56681400537490845 0.97357599996030331
vt 0.10292600095272064 0.99405999993905425
vt 0.320591002702713 0.983636999502778
vt 0.80696499347686768 0.96341599896550179
vt 0.59195202589035034 0.97238899953663349
vt 0.85659199953079224 0.96150900050997734
vn 0.01839200034737587 0.99755597114562988 0.067400999367237091
vn 0.022439999505877495 0.99803698062896729 0.058465998619794846
vn 0.071776002645492554 0.99472397565841675 0.073301002383232117
vn 0.016536999493837357 0.99780499935150146 0.064121000468730927
vn 0.026405999436974525 0.99649602174758911 0.079360999166965485
vn 0.0014430000446736813 0.998678982257843 0.051368001848459244
vn 0.053587999194860458 0.998354971408844 0.020377000793814659
vn 0.067417003214359283 0.99738699197769165 0.025960000231862068
vn 0.063624002039432526 0.99767798185348511 0.024300999939441681
vn 0.053562000393867493 0.99836599826812744 0.019920000806450844
vn 0.054239999502897263 0.99797898530960083 0.033112000674009323
vn 0.01128700003027916 0.9947890043258667 0.10133200138807297
vn 0.024917999282479286 0.99339497089385986 0.11200399696826935
vn 0.0683870017528534 0.99162799119949341 0.10953299701213837
vn 0.023377999663352966 0.9934229850769043 0.11208800226449966
vn 0.098117999732494354 0.99240398406982422 0.074207998812198639
vn 0.022298999130725861 0.99561101198196411 0.090896002948284149
vn -0.021888000890612602 0.99718797206878662 0.071670003235340118
vn 0.025436000898480415 0.99337202310562134 0.11209099739789963
vn 0.11675000190734863 0.98544597625732422 0.12355200201272965
vn 0.11680400371551514 0.98742598295211792 0.1065249964594841
vn 0.054947998374700546 0.99737399816513062 0.047175999730825424
vn 0.045510001480579376 0.99814099073410034 0.040543001145124435
vn 0.011314000003039837 0.99770098924636841 0.066820003092288971
vn 0.00801599957048893 0.9982609748840332 0.058403998613357544
vn 0.091436997056007385 0.98493099212646484 0.14680099487304688
vn 0.11491099745035172 0.98756402730941772 0.10729599744081497
vn -0.0010930000571534038 0.99881398677825928 0.04868600144982338
vn 0.17293000221252441 0.9680590033531189 0.18153899908065796
vn 0.18392500281333923 0.958063006401062 0.21974299848079681
vn 0.010099999606609345 0.99884998798370361 0.046870000660419464
vn 0.020059000700712204 0.988083004951477 0.15260900557041168
vn -0.01229500025510788 0.9988589882850647 0.046154998242855072
vn 3.7999998312443495E-05 0.985351026058197 0.17053799331188202
vn -0.0078269997611641884 0.99929302930831909 0.036781001836061478
vn 0.012555999681353569 0.9993399977684021 0.034090001136064529
vn 0.066041000187397 0.99438297748565674 0.082713998854160309
vn 0.019515000283718109 0.99554198980331421 0.09227299690246582
vn 0.054191999137401581 0.996146023273468 0.0689689964056015
vn 0.0072920001111924648 0.98298001289367676 0.18356899917125702
vn 0.021747000515460968 0.99952197074890137 0.021951999515295029
vn 0.037346001714468 0.99927699565887451 -0.0070969997905194759
vn -0.035704001784324646 0.99919098615646362 -0.018500000238418579
vn 0.032076001167297363 0.98363602161407471 0.17728899419307709
vn 0.0329039990901947 0.97997802495956421 0.196369007229805
vn -0.007592999842017889 0.99884098768234253 0.047527000308036804
vn -0.0083029996603727341 0.99477601051330566 0.10174699872732163
vn 0.006829999852925539 0.99873298406600952 0.049860000610351562
vn 0.0044180001132190228 0.998852014541626 0.047694999724626541
vn -9.7999996796716E-05 0.99947798252105713 0.03231700137257576
vn -0.058726999908685684 0.99799197912216187 -0.023747000843286514
vn -0.052028000354766846 0.99858099222183228 -0.011323000304400921
vn -0.068154998123645782 0.99750602245330811 -0.018362000584602356
vn -0.068154998123645782 0.99750602245330811 -0.018363000825047493
vn 0.058295998722314835 0.99367797374725342 0.095946997404098511
vn 0.11645899713039398 0.96579200029373169 0.23169399797916412
vn 0.12529300153255463 0.97266697883605957 0.19550199806690216
vn -0.0033990000374615192 0.98620599508285522 0.16548700630664825
vn 0.082739003002643585 0.97971099615097046 0.18253800272941589
vn 0.056733999401330948 0.99636799097061157 0.06350400298833847
vn 0.0736749991774559 0.99150902032852173 0.10715100169181824
vn 0.05533599853515625 0.997838020324707 0.035452000796794891
f 1/1/1 2/2/2 3/3/3
f 4/4/4 5/5/5 6/6/6
f 7/7/7 8/8/8 9/9/9
f 7/7/7 10/10/10 8/8/8
f 10/10/10 7/7/7 11/11/11
f 12/12/12 13/13/13 14/14/14
f 12/12/12 15/15/15 13/13/13
f 15/15/15 16/16/16 17/17/17
f 15/15/15 12/12/12 16/16/16
f 18/18/18 19/19/19 20/20/20
f 21/21/21 14/14/14 13/13/13
f 11/11/11 7/7/7 22/22/22
f 23/23/23 2/2/2 24/24/24
f 24/24/24 2/2/2 25/25/25
f 4/4/4 16/16/16 5/5/5
f 4/4/4 17/17/17 16/16/16
f 5/5/5 16/16/16 26/26/26
f 16/16/16 20/20/20 27/27/27
f 12/12/12 20/20/20 16/16/16
f 12/12/12 18/18/18 20/20/20
f 28/28/28 2/2/2 5/5/5
f 1/1/1 5/5/5 2/2/2
f 1/1/1 6/6/6 5/5/5
f 29/29/29 20/20/20 30/30/30
f 29/29/29 27/27/27 20/20/20
f 19/19/19 30/30/30 20/20/20
f 3/3/3 9/9/9 8/8/8
f 3/3/3 2/2/2 9/9/9
f 2/2/2 23/23/23 9/9/9
f 31/31/31 2/2/2 28/28/28
f 31/31/31 25/25/25 2/2/2
f 5/5/5 32/32/32 28/28/28
f 32/32/32 33/33/33 28/28/28
f 26/26/26 34/34/34 32/32/32
f 5/5/5 26/26/26 32/32/32
f 35/35/35 36/36/36 28/28/28
f 31/31/31 28/28/28 36/36/36
f 29/29/29 37/37/37 27/27/27
f 37/37/37 38/38/38 27/27/27
f 37/37/37 39/39/39 38/38/38
f 26/26/26 27/27/27 40/40/40
f 16/16/16 27/27/27 26/26/26
f 41/41/41 28/28/28 33/33/33
f 41/41/41 35/35/35 28/28/28
f 41/41/41 33/33/33 42/42/42
f 42/42/42 33/33/33 43/43/43
f 40/40/40 34/34/34 26/26/26
f 40/40/40 44/44/44 34/34/34
f 38/38/38 45/45/45 40/40/40
f 38/38/38 40/40/40 27/27/27
f 33/33/33 34/34/34 46/46/46
f 34/34/34 33/33/33 32/32/32
f 47/47/47 48/48/48 49/49/49
f 47/47/47 38/38/38 48/48/48
f 38/38/38 50/50/50 48/48/48
f 50/50/50 38/38/38 39/39/39
f 43/43/43 46/46/46 51/51/51
f 43/43/43 33/33/33 46/46/46
f 34/34/34 44/44/44 46/46/46
f 52/52/52 53/53/53 46/46/46
f 52/52/52 54/54/54 53/53/53
f 40/40/40 45/45/45 44/44/44
f 51/51/51 46/46/46 53/53/53
f 49/49/49 48/48/48 55/55/55
f 56/56/56 44/44/44 45/45/45
f 56/56/56 57/57/57 44/44/44
f 58/58/58 59/59/59 45/45/45
f 44/44/44 60/60/60 46/46/46
f 44/44/44 61/61/61 60/60/60
f 38/38/38 58/58/58 45/45/45
f 38/38/38 47/47/47 58/58/58
f 61/61/61 44/44/44 57/57/57
f 56/56/56 45/45/45 59/59/59
f 62/62/62 46/46/46 60/60/60
f 62/62/62 52/52/52 46/46/46
