mtllib m12222332.mtl
usemtl material0
v 96 -0.25996801257133484 2.8979477882385254
v 96.070938110351562 -0.26271501183509827 2.9617948532104492
v 96 -0.15931999683380127 1.6079387664794922
v 97.004074096679688 -0.0068810000084340572 0
v 100.06034088134766 -0.13764399290084839 2.7507290840148926
v 99.916175842285156 0.067382000386714935 0
v 105.45168304443359 0.19876900315284729 0
v 108.03891801834106 0.06609799712896347 2.3287558555603027
v 107.91684007644653 0.23425799608230591 0
v 109.67539215087891 0.29025501012802124 0
v 112 0.24645799398422241 1.57590913772583
v 111.91736602783203 0.35620599985122681 0
v 112 0.20971600711345673 2.0920658111572266
v 101.227942943573 0.10355299711227417 0
v 104.04975099861622 -0.011601000092923641 2.5396590232849121
v 103.9166340008378 0.1748960018157959 0
v 96 -0.26433101296424866 2.9655461311340332
v 96.279732227325439 -0.622107982635498 6.9517840147018433
v 96 -0.604216992855072 6.69996702671051
v 96 -0.034226998686790466 0
v 100.26911211013794 -0.50143200159072876 6.7407330274581909
v 108.24846601486206 -0.13997800648212433 6.3182189464569092
v 112 0.36017900705337524 0
v 112 0.20771700143814087 2.1191329956054688
v 112 0.20890900492668152 2.1030001640319824
v 112 0.010858000256121159 5.892941951751709
v 104.25878900289536 -0.32119101285934448 6.5294779539108276
v 100.47953009605408 -0.53271102905273438 10.729593992233276
v 104.46864300966263 -0.46526101231575012 10.518726110458374
v 112 -0.0012610000558197498 6.119670033454895
v 112 -0.0723470002412796 9.692903995513916
v 108.45876312255859 -0.19469399750232697 10.307159900665283
v 96 -0.61796998977661133 6.9665429592132568
v 96.490554809570312 -0.571357011795044 10.940362930297852
v 96 -0.57039302587509155 10.499006986618042
v 96 -0.39391899108886719 14.296923160552979
v 96.702147960662842 -0.36436399817466736 14.92840576171875
v 96 -0.56764400005340576 10.966255903244019
v 104.67985498905182 -0.33492600917816162 14.507031917572022
v 108.66965484619141 -0.13027699291706085 14.295692920684815
v 100.69084906578064 -0.38089200854301453 14.717826843261719
v 96 -0.36764401197433472 14.965494155883789
v 100.75890398025513 -0.3096340000629425 16
v 97.893730163574219 -0.30617800354957581 16
v 104.75914800167084 -0.24317699670791626 16
v 102.1168440580368 -0.28209701180458069 16
v 96.7589340209961 -0.3221299946308136 16
v 96 -0.33354800939559937 15.838502883911133
v 96 -0.32724100351333618 16
v 112 -0.072095997631549835 10.594216108322144
v 112 -0.078919999301433563 10.119791030883789
v 108.75995588302612 -0.0664450004696846 16
v 106.34050798416138 -0.19498500227928162 16
v 110.9357762336731 -0.012187999673187733 16
v 112 -0.053594000637531281 14.119584083557129
v 112 -0.028390999883413315 14.817102909088135
v 112 0.001766999950632453 16
vt 0.18112200498580933 0
vt 0.18511199951171875 0.0044339895248413086
vt 0.10049600154161453 0
vt 0 0.062754988670349121
vt 0.17192099988460541 0.25377100706100464
vt 0 0.24476099014282227
vt 0 0.59073001146316528
vt 0.14554700255393982 0.75243200361728668
vt 0 0.74480199813842773
vt 0 0.85471199452877045
vt 0.098494000732898712 1
vt 0 0.99483500001952052
vt 0.13075399398803711 1
vt 0 0.32674598693847656
vt 0.15872900187969208 0.50310900807380676
vt 0 0.49479001760482788
vt 0.18534700572490692 0
vt 0.434486985206604 0.017482995986938477
vt 0.41874799132347107 0
vt 0 0
vt 0.42129600048065186 0.26681900024414062
vt 0.39488899707794189 0.76552900671958923
vt 0 1
vt 0.13244600594043732 1
vt 0.13143700361251831 1
vt 0.36830899119377136 1
vt 0.40809199213981628 0.51617398858070374
vt 0.67059999704360962 0.27997100353240967
vt 0.65741997957229614 0.52928999066352844
vt 0.38247901201248169 1
vt 0.60580700635910034 1
vt 0.64419800043106079 0.778672993183136
vt 0.43540900945663452 0
vt 0.6837729811668396 0.030659973621368408
vt 0.65618801116943359 0
vt 0.89355802536010742 0
vt 0.93302500247955322 0.043883979320526123
vt 0.68539100885391235 0
vt 0.90669000148773193 0.54249098896980286
vt 0.89348101615905762 0.79185299575328827
vt 0.9198639988899231 0.2931780219078064
vt 0.93534302711486816 0
vt 1 0.29743099212646484
vt 1 0.11835801601409912
vt 1 0.547446995973587
vt 1 0.38230299949645996
vt 1 0.047433018684387207
vt 0.98990601301193237 0
vt 1 0
vt 0.66213899850845337 1
vt 0.63248699903488159 1
vt 1 0.79749700427055359
vt 1 0.64628198742866516
vt 1 0.93348599970340729
vt 0.88247400522232056 1
vt 0.92606902122497559 1
vt 1 1
vn -0.030788000673055649 0.99654901027679443 0.077082999050617218
vn -0.026159999892115593 0.995822012424469 0.087486997246742249
vn -0.027264999225735664 0.996616005897522 0.07754100114107132
vn -0.026535000652074814 0.99668800830841064 0.076862998306751251
vn -0.029510000720620155 0.9960780143737793 0.083416998386383057
vn -0.02674500085413456 0.99677199125289917 0.075695998966693878
vn -0.015168000012636185 0.99716800451278687 0.073660999536514282
vn -0.02553199976682663 0.99787700176239014 0.059907000511884689
vn -0.026421999558806419 0.99695402383804321 0.073375001549720764
vn -0.030391000211238861 0.99693101644515991 0.072148002684116364
vn -0.029827000573277473 0.99703001976013184 0.070997998118400574
vn -0.029990000650286674 0.9970250129699707 0.07100600004196167
vn -0.029378000646829605 0.99704200029373169 0.0710270032286644
vn -0.02679000049829483 0.99682599306106567 0.074965000152587891
vn -0.025916999205946922 0.99705499410629272 0.072180002927780151
vn -0.022475000470876694 0.99697601795196533 0.0743900015950203
vn -0.017900999635457993 0.99573302268981934 0.090530999004840851
vn -0.020862000063061714 0.9993249773979187 0.030230000615119934
vn -0.015546999871730804 0.99599599838256836 0.0880339965224266
vn -0.027142999693751335 0.99661999940872192 0.077533997595310211
vn -0.030182000249624252 0.998000979423523 0.055518999695777893
vn -0.03401000052690506 0.99860799312591553 0.040321998298168182
vn -0.0478999987244606 0.99626201391220093 0.071892000734806061
vn -0.032474000006914139 0.99764800071716309 0.060359001159667969
vn -0.031739998608827591 0.99677997827529907 0.073641002178192139
vn -0.03299500048160553 0.99809497594833374 0.052138000726699829
vn -0.0435979999601841 0.9973909854888916 0.057532999664545059
vn -0.016708999872207642 0.99971997737884521 -0.016752000898122787
vn -0.044165000319480896 0.99902200698852539 0.0020949998870491982
vn -0.034912999719381332 0.998665988445282 0.038052000105381012
vn -0.033713001757860184 0.99927902221679688 0.017450999468564987
vn -0.048840999603271484 0.99876701831817627 0.0088619999587535858
vn 0.014167999848723412 0.99983000755310059 -0.011808999814093113
vn -0.0048139998689293861 0.99940699338912964 -0.034100998193025589
vn 0.013283000327646732 0.99983298778533936 -0.01257999986410141
vn 0.0036740000359714031 0.99870097637176514 -0.050827000290155411
vn 0.00067300000227987766 0.99865400791168213 -0.0518609993159771
vn 0.0051110000349581242 0.99890899658203125 -0.046415001153945923
vn -0.031027000397443771 0.99884700775146484 -0.036626998335123062
vn -0.044171001762151718 0.99881201982498169 -0.020565999671816826
vn -0.0085119996219873428 0.99889099597930908 -0.046300001442432404
vn -0.0067320000380277634 0.99921298027038574 -0.0390859991312027
vn -0.0025530001148581505 0.998462975025177 -0.055355001240968704
vn -0.0031200000084936619 0.99870598316192627 -0.050758998841047287
vn -0.017865000292658806 0.99801498651504517 -0.06038299947977066
vn -0.016582999378442764 0.99815201759338379 -0.05846799910068512
vn -0.0099579999223351479 0.99919497966766357 -0.0388530008494854
vn -0.00672899978235364 0.99921602010726929 -0.039025001227855682
vn -0.00672899978235364 0.99921602010726929 -0.039023000746965408
vn -0.029103999957442284 0.999521017074585 -0.010475000366568565
vn -0.032689999788999557 0.99946498870849609 -0.00027799999224953353
vn -0.045657999813556671 0.9983450174331665 -0.034972000867128372
vn -0.0440870001912117 0.99803602695465088 -0.044509999454021454
vn -0.023652000352740288 0.99910902976989746 -0.034965001046657562
vn -0.023893000558018684 0.999576985836029 -0.016587000340223312
vn -0.01748800091445446 0.99941402673721313 -0.029424000531435013
vn -0.013106999918818474 0.99958902597427368 -0.025484999641776085
f 1/1/1 2/2/2 3/3/3
f 4/4/4 5/5/5 6/6/6
f 7/7/7 8/8/8 9/9/9
f 10/10/10 11/11/11 12/12/12
f 10/10/10 13/13/13 11/11/11
f 14/14/14 15/15/15 16/16/16
f 17/17/17 18/18/18 2/2/2
f 17/17/17 19/19/19 18/18/18
f 1/1/1 17/17/17 2/2/2
f 4/4/4 2/2/2 5/5/5
f 4/4/4 3/3/3 2/2/2
f 4/4/4 20/20/20 3/3/3
f 2/2/2 21/21/21 5/5/5
f 15/15/15 22/22/22 8/8/8
f 7/7/7 15/15/15 8/8/8
f 7/7/7 16/16/16 15/15/15
f 23/23/23 12/12/12 11/11/11
f 24/24/24 9/9/9 8/8/8
f 24/24/24 25/25/25 9/9/9
f 25/25/25 10/10/10 9/9/9
f 25/25/25 13/13/13 10/10/10
f 24/24/24 8/8/8 26/26/26
f 15/15/15 6/6/6 5/5/5
f 15/15/15 14/14/14 6/6/6
f 5/5/5 27/27/27 15/15/15
f 18/18/18 28/28/28 21/21/21
f 21/21/21 2/2/2 18/18/18
f 27/27/27 5/5/5 21/21/21
f 21/21/21 29/29/29 27/27/27
f 30/30/30 22/22/22 31/31/31
f 30/30/30 8/8/8 22/22/22
f 30/30/30 26/26/26 8/8/8
f 27/27/27 22/22/22 15/15/15
f 27/27/27 32/32/32 22/22/22
f 33/33/33 18/18/18 19/19/19
f 33/33/33 34/34/34 18/18/18
f 33/33/33 35/35/35 34/34/34
f 34/34/34 36/36/36 37/37/37
f 34/34/34 38/38/38 36/36/36
f 38/38/38 34/34/34 35/35/35
f 29/29/29 28/28/28 39/39/39
f 28/28/28 29/29/29 21/21/21
f 29/29/29 32/32/32 27/27/27
f 32/32/32 29/29/29 40/40/40
f 18/18/18 34/34/34 28/28/28
f 28/28/28 34/34/34 41/41/41
f 42/42/42 37/37/37 36/36/36
f 37/37/37 43/43/43 41/41/41
f 37/37/37 44/44/44 43/43/43
f 41/41/41 39/39/39 28/28/28
f 39/39/39 40/40/40 29/29/29
f 41/41/41 45/45/45 39/39/39
f 41/41/41 46/46/46 45/45/45
f 34/34/34 37/37/37 41/41/41
f 42/42/42 47/47/47 37/37/37
f 42/42/42 48/48/48 47/47/47
f 48/48/48 49/49/49 47/47/47
f 50/50/50 32/32/32 40/40/40
f 50/50/50 51/51/51 32/32/32
f 39/39/39 52/52/52 40/40/40
f 39/39/39 53/53/53 52/52/52
f 43/43/43 46/46/46 41/41/41
f 45/45/45 53/53/53 39/39/39
f 44/44/44 37/37/37 47/47/47
f 54/54/54 40/40/40 52/52/52
f 54/54/54 55/55/55 40/40/40
f 54/54/54 56/56/56 55/55/55
f 55/55/55 50/50/50 40/40/40
f 57/57/57 56/56/56 54/54/54
f 31/31/31 32/32/32 51/51/51
f 31/31/31 22/22/22 32/32/32
