mtllib m1222101.mtl
usemtl material0
v 160 -2.9960010051727295 224
v 160 -2.8169670104980469 227.49650573730469
v 163.14506530761719 -3.2160971164703369 224
v 164.11555480957031 -2.5574328899383545 231.36833190917969
v 163.72311401367188 -3.2299759387969971 224
v 160 -2.4385359287261963 231.58528137207031
v 160 -2.3792769908905029 239.58483898639679
v 164.53726196289063 -2.4403600692749023 239.34542798995972
v 160 -2.43516206741333 235.94291687011719
v 172.09092688560486 -2.9968690872192383 230.94853210449219
v 170.74259901046753 -3.7338418960571289 224
v 171.7200779914856 -3.7817540168762207 224
v 178.34050011634827 -4.0694718360900879 224
v 172.51307702064514 -2.7943480014801025 238.92535400390625
v 180.06385803222656 -3.928502082824707 230.53041076660156
v 164.95832824707031 -2.4551389217376709 247.32298278808594
v 160 -2.3830080032348633 242.86144995689392
v 172.9352719783783 -2.5796380043029785 246.90213012695313
v 160 -2.2751619815826416 247.58425903320313
v 161.17868041992188 -2.1696720123291016 256
v 160 -2.1685349941253662 253.680908203125
v 160 -2.1279749870300293 256
v 173.41546607017517 -2.5968039035797119 256
v 169.88442993164063 -2.5414960384368896 256
v 176.76467901468277 -2.746196985244751 256
v 180.91107177734375 -2.9355978965759277 246.48205614089966
v 180.48870801925659 -3.1800920963287354 238.50538599491119
v 179.71757507324219 -4.2266488075256348 224
v 188.03775024414063 -4.6677742004394531 230.11163330078125
v 188.46182346343994 -4.0770759582519531 238.08714294433594
v 185.9381103515625 -4.5516629219055176 224
v 187.71485900878906 -4.7152109146118164 224
v 192 -4.7276091575622559 224
v 192 -4.7140941619873047 225.70758056640625
v 186.31248474121094 -3.3327639102935791 256
v 192 -4.8126039505004883 229.90284729003906
v 192 -4.4904141426086426 234.15365600585938
v 192 -4.2794189453125 237.90092492103577
v 188.88571166992188 -3.5220420360565186 246.06277513504028
v 192 -4.0035190582275391 241.26983594894409
v 189.41011047363281 -3.5605568885803223 256
v 192 -3.6705820560455322 245.89877319335938
v 192 -3.6829121112823486 254.99769592285156
v 192 -3.684269905090332 256
vt 0.99661499261856079 0.0053619742393493652
vt 0.88834297657012939 0.0049759745597839355
vt 0.99661499261856079 0.10286200046539307
vt 0.76767802238464355 0.13162499666213989
vt 0.99655598402023315 0.12074297666549683
vt 0.76135802268981934 0.0042780041694641113
vt 0.51395797729492188 0.0034809708595275879
vt 0.52091497182846069 0.1438329815864563
vt 0.62659800052642822 0.00386202335357666
vt 0.78044801950454712 0.37865102291107178
vt 0.99680900573730469 0.33838099241256714
vt 0.99677199125289917 0.36864602565765381
vt 0.99639397859573364 0.57357698678970337
vt 0.5334320068359375 0.39075398445129395
vt 0.79302197694778442 0.62691101431846619
vt 0.274167001247406 0.15607398748397827
vt 0.41262799501419067 0.0031599998474121094
vt 0.28639599680900574 0.40283298492431641
vt 0.26653701066970825 0.002611994743347168
vt 0.0061329999007284641 0.038159012794494629
vt 0.077968999743461609 0.0019400119781494141
vt 0.0062400000169873238 0.001685023307800293
vt 0.0049959998577833176 0.41679298877716064
vt 0.0053429999388754368 0.30758202075958252
vt 0.0046640001237392426 0.5204710066318512
vt 0.2987000048160553 0.64976799488067627
vt 0.54554897546768188 0.63773500919342041
vt 0.99521702527999878 0.61677899956703186
vt 0.80615401268005371 0.8745570033788681
vt 0.55837202072143555 0.88586699962615967
vt 0.995140016078949 0.80941300094127655
vt 0.99516499042510986 0.86459800601005554
vt 0.99515002965927124 0.99711799994111061
vt 0.94142401218414307 0.99831499997526407
vt 0.0037459998857229948 0.81629499793052673
vt 0.81165099143981934 0.99740400002337992
vt 0.67982202768325806 0.99624500004574656
vt 0.563755989074707 0.9954840000718832
vt 0.31103399395942688 0.89708399772644043
vt 0.459196001291275 0.99463000008836389
vt 0.0034529999829828739 0.91234800219535828
vt 0.31567999720573425 0.99352499982342124
vt 0.034187000244855881 0.99263100000098348
vt 0.0031910000834614038 0.99253199994564056
vn 0.069720000028610229 0.99626100063323975 -0.051011998206377029
vn 0.034575998783111572 0.99598300457000732 -0.082592003047466278
vn 0.036116000264883041 0.996042013168335 -0.081212997436523438
vn 0.039694000035524368 0.99766302108764648 -0.055610001087188721
vn 0.046870999038219452 0.99453699588775635 -0.093272000551223755
vn 0.026481999084353447 0.99863898754119873 -0.044932998716831207
vn 0.013101000338792801 0.99989098310470581 -0.0068250000476837158
vn 0.025973999872803688 0.99958199262619019 -0.012710000388324261
vn 0.016426000744104385 0.99979400634765625 -0.011944999918341637
vn 0.072512000799179077 0.9953799843788147 -0.062936000525951386
vn 0.05466499924659729 0.99250501394271851 -0.10929500311613083
vn 0.045967001467943192 0.99235397577285767 -0.11454600095748901
vn 0.0946580022573471 0.99317300319671631 -0.068173997104167938
vn 0.052825998514890671 0.99790298938751221 -0.03740299865603447
vn 0.087760999798774719 0.99428302049636841 -0.060818001627922058
vn 0.025276999920606613 0.99965298175811768 -0.0074539999477565289
vn 0.019274000078439713 0.99980002641677856 -0.0052550002001225948
vn 0.03356499969959259 0.99937397241592407 -0.011145999655127525
vn 0.035211000591516495 0.99917900562286377 -0.020054999738931656
vn 0.03804900124669075 0.99914300441741943 -0.016296999529004097
vn 0.035349000245332718 0.99922198057174683 -0.017475999891757965
vn 0.035349000245332718 0.99922198057174683 -0.017475999891757965
vn 0.03060000017285347 0.99953198432922363 0.00027099999715574086
vn 0.024729000404477119 0.99968600273132324 -0.0040899999439716339
vn 0.050748001784086227 0.99870902299880981 0.002234000014141202
vn 0.062967002391815186 0.99779599905014038 -0.020935999229550362
vn 0.07372400164604187 0.99529397487640381 -0.0628810003399849
vn 0.083677001297473907 0.995244026184082 -0.04987499862909317
vn 0.060423001646995544 0.99728000164031982 -0.042204000055789948
vn 0.072158001363277435 0.99499601125717163 -0.0691090002655983
vn 0.081150002777576447 0.99645698070526123 -0.022089999169111252
vn 0.048799999058246613 0.99875497817993164 -0.010329999960958958
vn 0.0028929999098181725 0.99996399879455566 -0.007915000431239605
vn 0.011029999703168869 0.99993902444839478 -0.00059399998281151056
vn 0.069310002028942108 0.9975929856300354 0.0022940000053495169
vn 0.0352340005338192 0.99908202886581421 -0.024382999166846275
vn 0.037480000406503677 0.99677002429962158 -0.071028999984264374
vn 0.0533749982714653 0.99623101949691772 -0.068373002111911774
vn 0.058595001697540283 0.99763798713684082 -0.035847999155521393
vn 0.046126000583171844 0.99616801738739014 -0.074300996959209442
vn 0.060100998729467392 0.99819201231002808 0.0006970000104047358
vn 0.045696001499891281 0.998291015625 -0.036440998315811157
vn 0.047713000327348709 0.99886000156402588 0.0013530000578612089
vn 0.047713000327348709 0.99886000156402588 0.0013539999490603805
f 1/1/1 2/2/2 3/3/3
f 3/3/3 4/4/4 5/5/5
f 3/3/3 6/6/6 4/4/4
f 3/3/3 2/2/2 6/6/6
f 4/4/4 7/7/7 8/8/8
f 4/4/4 9/9/9 7/7/7
f 6/6/6 9/9/9 4/4/4
f 4/4/4 8/8/8 10/10/10
f 10/10/10 11/11/11 4/4/4
f 10/10/10 12/12/12 11/11/11
f 12/12/12 10/10/10 13/13/13
f 10/10/10 14/14/14 15/15/15
f 14/14/14 10/10/10 8/8/8
f 5/5/5 4/4/4 11/11/11
f 7/7/7 16/16/16 8/8/8
f 7/7/7 17/17/17 16/16/16
f 8/8/8 18/18/18 14/14/14
f 19/19/19 20/20/20 16/16/16
f 19/19/19 21/21/21 20/20/20
f 21/21/21 22/22/22 20/20/20
f 23/23/23 16/16/16 24/24/24
f 23/23/23 18/18/18 16/16/16
f 16/16/16 18/18/18 8/8/8
f 25/25/25 18/18/18 23/23/23
f 25/25/25 26/26/26 18/18/18
f 24/24/24 16/16/16 20/20/20
f 17/17/17 19/19/19 16/16/16
f 27/27/27 14/14/14 18/18/18
f 13/13/13 15/15/15 28/28/28
f 13/13/13 10/10/10 15/15/15
f 18/18/18 26/26/26 27/27/27
f 15/15/15 27/27/27 29/29/29
f 27/27/27 26/26/26 30/30/30
f 31/31/31 29/29/29 32/32/32
f 31/31/31 15/15/15 29/29/29
f 33/33/33 29/29/29 34/34/34
f 33/33/33 32/32/32 29/29/29
f 27/27/27 30/30/30 29/29/29
f 28/28/28 15/15/15 31/31/31
f 35/35/35 26/26/26 25/25/25
f 14/14/14 27/27/27 15/15/15
f 34/34/34 29/29/29 36/36/36
f 37/37/37 30/30/30 38/38/38
f 37/37/37 29/29/29 30/30/30
f 37/37/37 36/36/36 29/29/29
f 30/30/30 26/26/26 39/39/39
f 38/38/38 30/30/30 40/40/40
f 35/35/35 39/39/39 26/26/26
f 35/35/35 41/41/41 39/39/39
f 42/42/42 39/39/39 43/43/43
f 43/43/43 41/41/41 44/44/44
f 43/43/43 39/39/39 41/41/41
f 40/40/40 39/39/39 42/42/42
f 40/40/40 30/30/30 39/39/39
