mtllib m12222301.mtl
usemtl material0
v 82.457572937011719 1.4249190092086792 48
v 80 1.4517019987106323 49.278336048126221
v 82.64959716796875 1.1450029611587524 51.664566040039062
v 80 1.5460460186004639 48
v 86.4569319486618 1.318047046661377 48
v 82.8017201423645 1.4145950078964233 48
v 86.6378710269928 1.0410929918289185 51.454285144805908
v 80 1.2495019435882568 53.079231023788452
v 82.8590087890625 0.90957397222518921 55.65412500500679
v 80 1.32014000415802 51.803927898406982
v 80 1.4480869770050049 49.347733020782471
v 86.847977042198181 0.947750985622406 55.443359017372131
v 89.746284008026123 1.3503930568695068 48
v 94.456412792205811 1.2535899877548218 48
v 91.246970891952515 1.3508820533752441 48
v 94.615639209747314 1.0813000202178955 51.032875061035156
v 96 1.1875519752502441 48
v 95.468643188476562 1.2096799612045288 48
v 96 1.16054105758667 48.478443145751953
v 90.627480030059814 1.2091449499130249 51.243072986602783
v 94.824927806854248 0.82341098785400391 55.02251398563385
v 90.457145929336548 1.3782960176467896 48
v 96 1.025223970413208 50.959949016571045
v 96 0.94376802444458008 52.279457092285156
v 90.83685302734375 0.966392993927002 55.2326580286026
v 80 0.90258902311325073 56.88126802444458
v 83.068068981170654 0.60529398918151855 59.6439208984375
v 80 0.9830089807510376 55.804870992898941
v 87.057013988494873 0.637611985206604 59.4331738948822
v 80 0.54445397853851318 60.68339204788208
v 83.2773060798645 0.33518901467323303 63.633597850799561
v 80 0.60371798276901245 59.805943012237549
v 87.265983998775482 0.3133080005645752 63.423038005828857
v 95.033843994140625 0.48739400506019592 59.012417078018188
v 96 0.77653300762176514 54.960608959198
v 96 0.72294402122497559 56.08050200343132
v 91.045600891113281 0.59717297554016113 59.222678899765015
v 95.243766784667969 0.35742300748825073 63.001616954803467
v 96 0.48185399174690247 58.961414098739624
v 96 0.46963998675346375 59.881802082061768
v 91.254477977752686 0.25431498885154724 63.212604999542236
v 80 0.3753649890422821 64
v 83.296585083007812 0.32298201322555542 64
v 80 0.37953200936317444 63.871716022491455
v 80 0.38165000081062317 63.806519031524658
v 87.296310007572174 0.287308007478714 64
v 83.68438720703125 0.31563600897789 64
v 90.546013116836548 0.23166899383068085 64
v 95.296448230743408 0.35214400291442871 64
v 92.129806995391846 0.27140900492668152 64
v 96 0.36743399500846863 62.961650848388672
v 96 0.36583501100540161 63.187908172607422
v 96 0.36234301328659058 63.681952953338623
v 91.296058893203735 0.25738000869750977 64
v 96 0.36046299338340759 64
vt 0 0.15359801054000855
vt 0.0798960030078888 0
vt 0.22903500497341156 0.1656000018119812
vt 0 0
vt 0 0.40355801582336426
vt 0 0.17510700225830078
vt 0.21589300036430359 0.41486698389053345
vt 0.31745201349258423 0
vt 0.47838300466537476 0.17868798971176148
vt 0.237746000289917 0
vt 0.084233000874519348 0
vt 0.46520999073982239 0.42799901962280273
vt 0 0.60914298892021179
vt 0 0.90352600067853928
vt 0 0.70293599367141724
vt 0.18955500423908234 0.91347700357437134
vt 0 1
vt 0 0.96679000183939934
vt 0.029903000220656395 1
vt 0.20269200205802918 0.66421699523925781
vt 0.43890699744224548 0.9265580028295517
vt 0 0.65357199311256409
vt 0.18499700725078583 1
vt 0.26746600866317749 1
vt 0.45204100012779236 0.67730298638343811
vt 0.55507898330688477 0
vt 0.727744996547699 0.19175398349761963
vt 0.48780399560928345 0
vt 0.71457302570343018 0.44106298685073853
vt 0.79271197319030762 0
vt 0.97710001468658447 0.20483201742172241
vt 0.737870991230011 0
vt 0.96394002437591553 0.45412397384643555
vt 0.68827599287033081 0.93961500003933907
vt 0.4350380003452301 1
vt 0.50503098964691162 1
vt 0.70141702890396118 0.6903499960899353
vt 0.93760097026824951 0.952734999358654
vt 0.68508797883987427 1
vt 0.74261301755905151 1
vt 0.95078802108764648 0.7034049928188324
vt 1 0
vt 1 0.20603698492050171
vt 0.99198198318481445 0
vt 0.98790699243545532 0
vt 1 0.45601898431777954
vt 1 0.2302740216255188
vt 1 0.65912601351737976
vt 1 0.95602799952030182
vt 1 0.75811299681663513
vt 0.93510299921035767 1
vt 0.94924402236938477 1
vt 0.98012202978134155 1
vt 1 0.70600399374961853
vt 1 1
vn 0.038329999893903732 0.9965130090713501 0.0741100013256073
vn 0.049378998577594757 0.9960939884185791 0.073197998106479645
vn 0.034722998738288879 0.99789398908615112 0.05479000136256218
vn 0.049093998968601227 0.996084988117218 0.073513001203536987
vn 0.0092150000855326653 0.99679702520370483 0.0794370025396347
vn 0.026630999520421028 0.99658298492431641 0.078183002769947052
vn -0.00057299999753013253 0.998494029045105 0.054852001368999481
vn 0.05529399961233139 0.99600702524185181 0.070093996822834015
vn 0.014387000352144241 0.99729198217391968 0.072122998535633087
vn 0.068639002740383148 0.99623197317123413 0.0530179999768734
vn 0.068584002554416656 0.99629402160644531 0.051899001002311707
vn 0.0022630000021308661 0.99864101409912109 0.052067000418901443
vn -0.026708999648690224 0.99750900268554688 0.065283000469207764
vn 0.0333780013024807 0.99793201684951782 0.054937999695539474
vn 0.032942000776529312 0.9980970025062561 0.052127998322248459
vn 0.036883000284433365 0.99767798185348511 0.0572579987347126
vn 0.041542001068592072 0.99754798412323 0.056317001581192017
vn 0.043191999197006226 0.99757999181747437 0.054489001631736755
vn 0.043196998536586761 0.99757999181747437 0.054483998566865921
vn 0.0062710000202059746 0.99830901622772217 0.057787001132965088
vn 0.036410998553037643 0.99702000617980957 0.068007998168468475
vn -0.00032500000088475645 0.99864202737808228 0.052104000002145767
vn 0.043400000780820847 0.9974370002746582 0.056883998215198517
vn 0.043246999382972717 0.99713999032974243 0.061985000967979431
vn 0.01191600039601326 0.99751001596450806 0.069504000246524811
vn 0.020185999572277069 0.99619501829147339 0.084784999489784241
vn 0.0054150000214576721 0.99706697463989258 0.076335996389389038
vn 0.030355999246239662 0.99540400505065918 0.090824998915195465
vn 0.00494999997317791 0.99667799472808838 0.081292003393173218
vn 0.0086300000548362732 0.998088002204895 0.061209000647068024
vn 0.0093149999156594276 0.9981200098991394 0.060570001602172852
vn 0.0044410000555217266 0.99558299779891968 0.093777000904083252
vn 0.0088529996573925018 0.9973679780960083 0.071970000863075256
vn 0.027729000896215439 0.9973829984664917 0.066775999963283539
vn 0.042957998812198639 0.99725902080535889 0.060244001448154449
vn 0.015060000121593475 0.996845006942749 0.077933996915817261
vn 0.013925000093877316 0.99693900346755981 0.0769369974732399
vn -0.0014430000446736813 0.99880802631378174 0.048785001039505005
vn 0.00923100020736456 0.99774497747421265 0.066486001014709473
vn -0.0091669997200369835 0.99949002265930176 0.030598999932408333
vn 0.00089500000467523932 0.99743902683258057 0.071511000394821167
vn 0.015879999846220016 0.99934697151184082 0.032460998743772507
vn 0.016124999150633812 0.99934297800064087 0.0324460007250309
vn 0.015879999846220016 0.99934697151184082 0.032460000365972519
vn 0.016881000250577927 0.99852299690246582 0.051649998873472214
vn 0.010990999639034271 0.99895197153091431 0.044438999146223068
vn 0.0089100003242492676 0.99901700019836426 0.04341299831867218
vn 0.011548999696969986 0.99916797876358032 0.03912699967622757
vn -0.0241519995033741 0.99968701601028442 0.0065600001253187656
vn -0.0236820001155138 0.99970901012420654 0.004623000044375658
vn -0.01157199963927269 0.99944102764129639 0.031380001455545425
vn -0.012862999923527241 0.999891996383667 0.0070670000277459621
vn -0.012455999851226807 0.99990099668502808 0.00661400007084012
vn -0.0250840000808239 0.99968200922012329 -0.002566999988630414
vn -0.011823000386357307 0.99991297721862793 0.0059110000729560852
f 1/1/1 2/2/2 3/3/3
f 1/1/1 4/4/4 2/2/2
f 5/5/5 6/6/6 7/7/7
f 3/3/3 8/8/8 9/9/9
f 3/3/3 10/10/10 8/8/8
f 11/11/11 3/3/3 2/2/2
f 11/11/11 10/10/10 3/3/3
f 1/1/1 7/7/7 6/6/6
f 1/1/1 3/3/3 7/7/7
f 7/7/7 3/3/3 12/12/12
f 13/13/13 5/5/5 7/7/7
f 14/14/14 15/15/15 16/16/16
f 17/17/17 18/18/18 19/19/19
f 16/16/16 20/20/20 21/21/21
f 15/15/15 20/20/20 16/16/16
f 15/15/15 22/22/22 20/20/20
f 19/19/19 16/16/16 23/23/23
f 19/19/19 18/18/18 16/16/16
f 18/18/18 14/14/14 16/16/16
f 23/23/23 16/16/16 24/24/24
f 20/20/20 13/13/13 7/7/7
f 20/20/20 22/22/22 13/13/13
f 20/20/20 7/7/7 25/25/25
f 9/9/9 26/26/26 27/27/27
f 9/9/9 28/28/28 26/26/26
f 8/8/8 28/28/28 9/9/9
f 3/3/3 9/9/9 12/12/12
f 12/12/12 9/9/9 29/29/29
f 27/27/27 30/30/30 31/31/31
f 27/27/27 32/32/32 30/30/30
f 32/32/32 27/27/27 26/26/26
f 27/27/27 29/29/29 9/9/9
f 29/29/29 27/27/27 33/33/33
f 25/25/25 12/12/12 29/29/29
f 21/21/21 25/25/25 34/34/34
f 20/20/20 25/25/25 21/21/21
f 35/35/35 16/16/16 21/21/21
f 35/35/35 24/24/24 16/16/16
f 35/35/35 21/21/21 36/36/36
f 34/34/34 37/37/37 38/38/38
f 25/25/25 37/37/37 34/34/34
f 36/36/36 34/34/34 39/39/39
f 36/36/36 21/21/21 34/34/34
f 39/39/39 34/34/34 40/40/40
f 37/37/37 25/25/25 29/29/29
f 25/25/25 7/7/7 12/12/12
f 37/37/37 29/29/29 41/41/41
f 42/42/42 43/43/43 44/44/44
f 44/44/44 31/31/31 45/45/45
f 44/44/44 43/43/43 31/31/31
f 30/30/30 45/45/45 31/31/31
f 27/27/27 31/31/31 33/33/33
f 46/46/46 31/31/31 47/47/47
f 46/46/46 33/33/33 31/31/31
f 43/43/43 47/47/47 31/31/31
f 48/48/48 33/33/33 46/46/46
f 48/48/48 41/41/41 33/33/33
f 49/49/49 41/41/41 50/50/50
f 49/49/49 38/38/38 41/41/41
f 37/37/37 41/41/41 38/38/38
f 38/38/38 40/40/40 34/34/34
f 38/38/38 51/51/51 40/40/40
f 29/29/29 33/33/33 41/41/41
f 52/52/52 38/38/38 53/53/53
f 52/52/52 51/51/51 38/38/38
f 50/50/50 41/41/41 54/54/54
f 55/55/55 38/38/38 49/49/49
f 55/55/55 53/53/53 38/38/38
f 54/54/54 41/41/41 48/48/48
