mtllib m122322.mtl
usemtl material0
v 270.16143798828125 2.0647549629211426 0
v 272.00997924804688 2.0211079120635986 1.6634616851806641
v 271.92190551757812 1.9725979566574097 0
v 287.06491100788116 3.4065630435943604 0
v 287.97256500087678 3.5122160911560059 0.81578826904296875
v 287.92913799732924 3.4389989376068115 0
v 256 2.0825049877166748 2.5087051391601562
v 256 2.0776040554046631 2.5670547485351562
v 256.05514526367188 2.0855610370635986 2.5057849884033203
v 256 1.6767439842224121 18.509501457214355
v 256 1.6278760433197022 19.457305908203125
v 256.89633178710938 1.86518394947052 18.461572647094727
v 256 0.46164399385452271 32.863514006137848
v 256 0.44884198904037476 34.512893915176392
v 257.73236083984375 0.61740797758102417 34.420878887176514
v 256 1.7723029851913452 17.655899047851562
v 256 0.82350802421569824 48.057884216308594
v 256 1.0351250171661377 50.510540008544922
v 258.5767822265625 1.0453070402145386 50.374435424804688
v 256 1.2798600196838379 53.238964080810547
v 256 0.54971301555633545 36.346221923828125
v 273.69140625 1.3957129716873169 33.575667977333069
v 259.29791259765625 1.3961039781570435 64
v 256 1.5688029527664185 63.249225616455078
v 256.834228515625 1.5413060188293457 64
v 256 1.5303139686584473 61.915771484375
v 272.85293579101562 2.1576590538024902 17.618022918701172
v 256 2.0831880569458008 2.4561939239501953
v 256 1.6135540008544922 64
v 261.51641845703125 1.8459999561309815 64
v 274.54803466796875 4.2713208198547363 49.520847320556641
v 303.90234375 2.8280529975891113 0
v 288.81329298019409 3.2034618854522705 16.771886825561523
v 303.46099853515625 2.8473939895629883 0
v 289.64746105670929 1.5758099555969238 32.732505977153778
v 304.76705932617188 2.9215779304504395 15.930309295654297
v 256 2.1073460578918457 1.4591331481933594
v 256 2.1371591091156006 0.0079498291015625
v 256 2.1373229026794434 0
v 275.3006591796875 2.000823974609375 64
v 276.71337890625 1.7663910388946533 64
v 290.49060106277466 1.7493189573287964 48.686939239501953
v 305.60781860351562 2.6200730800628662 31.88637900352478
v 291.29742407798767 1.4476369619369507 64
v 303.90234375 2.8280529975891113 0
v 303.92559814453125 2.8276510238647461 0
v 320 1.8327610492706299 1.5141792297363281
v 320 1.9887340068817139 15.128860473632813
v 319.92001342773438 1.8202650547027588 0
v 319.09762573242188 1.8701299428939819 0
v 320 1.8248649835586548 0
v 320 2.9964280128479004 29.634654998779297
v 320 2.9252049922943115 32.781692981719971
v 306.44821166992188 2.2418339252471924 47.842708587646484
v 320 2.966454029083252 31.125275015830994
v 320 1.8903260231018066 47.128189086914062
v 320 1.6909079551696777 60.039497375488281
v 307.2872314453125 1.595458984375 63.799949645996094
v 307.10726928710938 1.5962460041046143 64
v 303.50119018554688 1.5573780536651611 64
v 307.2978515625 1.6030759811401367 64
v 320 1.5664889812469482 63.128719329833984
v 320 1.5680429935455322 63.169509887695312
v 320 1.5996769666671753 64
vt 0.24391500651836395 0.0080350041389465332
vt 0.27116799354553223 0.03398597240447998
vt 0.27051600813865662 0.0086709856986999512
vt 0.50045400857925415 0.015040993690490723
vt 0.51396399736404419 0.02779698371887207
vt 0.51361697912216187 0.015380978584289551
vt 0.028922000899910927 0.039663970470428467
vt 0.028917999938130379 0.04059302806854248
vt 0.029783999547362328 0.039689004421234131
vt 0.021640999242663383 0.28143399953842163
vt 0.021345000714063644 0.29569298028945923
vt 0.035636000335216522 0.28092402219772339
vt 0.013685000129044056 0.49794000387191772
vt 0.012862999923527241 0.52264198660850525
vt 0.039388000965118408 0.52207300066947937
vt 0.022231999784708023 0.2684289813041687
vt 0.0063100000843405724 0.72751998901367188
vt 0.0053900000639259815 0.76527400314807892
vt 0.044064000248909 0.76492699980735779
vt 0.0041029998101294041 0.807339996099472
vt 0.012014999985694885 0.55012598633766174
vt 0.28214100003242493 0.51737299561500549
vt 0.049908000975847244 0.97497699968516827
vt 0.00027799999224953353 0.961752001196146
vt 0.012667999602854252 0.973709000274539
vt 0.00065499998163431883 0.94116000086069107
vt 0.27758800983428955 0.275846004486084
vt 0.028975000604987144 0.03891301155090332
vt 4.6000001020729542E-05 0.97330600023269653
vt 0.084270000457763672 0.97650700062513351
vt 0.28964999318122864 0.76278400421142578
vt 0.75593799352645874 0.022239983081817627
vt 0.52010399103164673 0.26915597915649414
vt 0.74926501512527466 0.022091984748840332
vt 0.52531701326370239 0.51202398538589478
vt 0.76218599081039429 0.26352399587631226
vt 0.029441999271512032 0.023787021636962891
vt 0.030129000544548035 0.0019779801368713379
vt 0.030132999643683434 0.0018579959869384766
vt 0.29788699746131897 0.98401100002229214
vt 0.32005101442337036 0.98494799993932247
vt 0.533037006855011 0.75494399666786194
vt 0.76779401302337646 0.505378007888794
vt 0.54112899303436279 0.98847999982535839
vt 0.75593799352645874 0.022239983081817627
vt 0.7562900185585022 0.022249996662139893
vt 0.99925702810287476 0.051472008228302
vt 0.99383997917175293 0.25680899620056152
vt 0.9986879825592041 0.028578996658325195
vt 0.98628097772598267 0.028195023536682129
vt 0.9999539852142334 0.028550028800964355
vt 0.98708802461624146 0.477154016494751
vt 0.98574000597000122 0.52487298846244812
vt 0.77461898326873779 0.7476310133934021
vt 0.98646998405456543 0.49976098537445068
vt 0.98005402088165283 0.742464005947113
vt 0.97461700439453125 0.93799300119280815
vt 0.7814679741859436 0.98973700031638145
vt 0.778626024723053 0.99308399995788932
vt 0.7243649959564209 0.99162499979138374
vt 0.781453013420105 0.99315800005570054
vt 0.97333502769470215 0.9848410002887249
vt 0.97332102060317993 0.98546500038355589
vt 0.9730370044708252 0.99814100004732609
vn 0.016125999391078949 0.99983501434326172 0.0083140004426240921
vn -0.041503999382257462 0.99910902976989746 -0.0075989998877048492
vn -0.018557999283075333 0.99943101406097412 -0.0281629990786314
vn -0.0810530036687851 0.99595397710800171 -0.038803998380899429
vn -0.01570500060915947 0.999422013759613 -0.030156999826431274
vn -0.00099500000942498446 0.99600100517272949 -0.089337997138500214
vn -0.05263499915599823 0.9973829984664917 0.049559000879526138
vn -0.10463699698448181 0.99389797449111938 0.034889999777078629
vn -0.033976998180150986 0.999081015586853 0.026141000911593437
vn -0.20108300447463989 0.97642600536346436 0.07846900075674057
vn -0.17406399548053742 0.98169797658920288 0.077275000512599945
vn -0.091411001980304718 0.99436002969741821 0.0537789985537529
vn -0.14687299728393555 0.98703998327255249 0.064654998481273651
vn -0.09810599684715271 0.99487501382827759 -0.024485999718308449
vn -0.073654003441333771 0.99721097946166992 0.012093000113964081
vn -0.14231100678443909 0.98882901668548584 0.044328998774290085
vn -0.04990600049495697 0.9979509711265564 -0.040036000311374664
vn -0.0085680000483989716 0.99611002206802368 -0.087704002857208252
vn -0.084945999085903168 0.99480301141738892 -0.056143000721931458
vn 0.04313800111413002 0.99814701080322266 -0.042925000190734863
vn -0.073045000433921814 0.99685698747634888 -0.030673999339342117
vn -0.0513870008289814 0.99772799015045166 -0.043570999056100845
vn -0.075011998414993286 0.99694699048995972 -0.021696999669075012
vn 0.066137000918388367 0.99712502956390381 -0.036968998610973358
vn 0.065201997756958008 0.99722498655319214 -0.035925999283790588
vn 0.0588110014796257 0.99785399436950684 -0.028803000226616859
vn -0.040474001318216324 0.998540997505188 0.035734999924898148
vn -0.061985000967979431 0.99785202741622925 0.021178999915719032
vn 0.086129002273082733 0.99451899528503418 -0.059278000146150589
vn -0.1495320051908493 0.98827201128005981 0.030957000330090523
vn -0.01984499953687191 0.999737024307251 -0.011473000049591065
vn 0.043772000819444656 0.99889600276947021 0.017023999243974686
vn -0.017572000622749329 0.99815398454666138 0.058139000087976456
vn 0.043678998947143555 0.99892997741699219 0.01522000040858984
vn -0.013209999538958073 0.99988198280334473 0.0078760003671050072
vn 0.018945999443531036 0.99980801343917847 0.0049299998208880424
vn 0.0039519998244941235 0.999779999256134 0.020601000636816025
vn 0.0051230001263320446 0.99977600574493408 0.020540999248623848
vn 0.0051230001263320446 0.99977600574493408 0.020540999248623848
vn 0.0791739970445633 0.98544800281524658 0.15041400492191315
vn 0.124890998005867 0.985912024974823 0.11126600205898285
vn 0.045658998191356659 0.99861800670623779 0.026020999997854233
vn -0.039367001503705978 0.99904298782348633 0.019046999514102936
vn 0.0059119998477399349 0.99979501962661743 0.019385000690817833
vn 0.017297999933362007 0.99982702732086182 -0.0068089999258518219
vn 0.039384998381137848 0.9991919994354248 -0.0079720001667737961
vn 0.058543000370264053 0.99822098016738892 -0.011331000365316868
vn 0.059016000479459763 0.99748200178146362 -0.03931799903512001
vn 0.0035379999317228794 0.99995797872543335 -0.0084400000050663948
vn 0.06117599830031395 0.99806797504425049 -0.010843000374734402
vn -0.057411998510360718 0.99833697080612183 -0.0052060000598430634
vn -0.0015239999629557133 0.9999920129776001 -0.0037680000532418489
vn -0.010525999590754509 0.999301016330719 0.035870000720024109
vn -0.00976100005209446 0.99930799007415771 0.035886000841856
vn -0.022870000451803207 0.99948698282241821 0.022412000223994255
vn 0.028255000710487366 0.99860399961471558 0.044619999825954437
vn 0.010359999723732472 0.99938100576400757 0.03363100066781044
vn -0.0093660000711679459 0.9999539852142334 0.0020930001046508551
vn -0.017457000911235809 0.99965500831604 -0.019638000056147575
vn -0.0090199997648596764 0.999767005443573 0.019602000713348389
vn -0.017148999497294426 0.99916297197341919 -0.037133999168872833
vn 0.0024059999268501997 0.99999397993087769 0.0024029999040067196
vn 0.00026699999580159783 0.99927502870559692 -0.038065001368522644
vn 0.00026699999580159783 0.99927502870559692 -0.03806300088763237
f 1/1/1 2/2/2 3/3/3
f 4/4/4 5/5/5 6/6/6
f 7/7/7 8/8/8 9/9/9
f 10/10/10 11/11/11 12/12/12
f 13/13/13 14/14/14 15/15/15
f 16/16/16 10/10/10 12/12/12
f 9/9/9 12/12/12 2/2/2
f 11/11/11 15/15/15 12/12/12
f 11/11/11 13/13/13 15/15/15
f 9/9/9 16/16/16 12/12/12
f 9/9/9 8/8/8 16/16/16
f 17/17/17 18/18/18 19/19/19
f 20/20/20 19/19/19 18/18/18
f 21/21/21 19/19/19 15/15/15
f 21/21/21 17/17/17 19/19/19
f 15/15/15 19/19/19 22/22/22
f 23/23/23 24/24/24 25/25/25
f 23/23/23 26/26/26 24/24/24
f 26/26/26 19/19/19 20/20/20
f 26/26/26 23/23/23 19/19/19
f 14/14/14 21/21/21 15/15/15
f 27/27/27 12/12/12 15/15/15
f 28/28/28 7/7/7 9/9/9
f 29/29/29 25/25/25 24/24/24
f 30/30/30 19/19/19 23/23/23
f 30/30/30 31/31/31 19/19/19
f 15/15/15 22/22/22 27/27/27
f 2/2/2 27/27/27 5/5/5
f 32/32/32 5/5/5 33/33/33
f 32/32/32 34/34/34 5/5/5
f 4/4/4 2/2/2 5/5/5
f 4/4/4 3/3/3 2/2/2
f 33/33/33 35/35/35 36/36/36
f 33/33/33 5/5/5 27/27/27
f 2/2/2 37/37/37 9/9/9
f 2/2/2 38/38/38 37/37/37
f 38/38/38 1/1/1 39/39/39
f 38/38/38 2/2/2 1/1/1
f 33/33/33 27/27/27 35/35/35
f 30/30/30 40/40/40 31/31/31
f 22/22/22 31/31/31 35/35/35
f 41/41/41 31/31/31 40/40/40
f 41/41/41 42/42/42 31/31/31
f 31/31/31 42/42/42 35/35/35
f 42/42/42 43/43/43 35/35/35
f 41/41/41 44/44/44 42/42/42
f 27/27/27 22/22/22 35/35/35
f 45/45/45 36/36/36 46/46/46
f 45/45/45 33/33/33 36/36/36
f 19/19/19 31/31/31 22/22/22
f 47/47/47 36/36/36 48/48/48
f 47/47/47 49/49/49 36/36/36
f 49/49/49 50/50/50 36/36/36
f 46/46/46 36/36/36 50/50/50
f 51/51/51 49/49/49 47/47/47
f 48/48/48 36/36/36 52/52/52
f 53/53/53 43/43/43 54/54/54
f 53/53/53 55/55/55 43/43/43
f 43/43/43 52/52/52 36/36/36
f 43/43/43 55/55/55 52/52/52
f 53/53/53 54/54/54 56/56/56
f 54/54/54 43/43/43 42/42/42
f 56/56/56 54/54/54 57/57/57
f 42/42/42 58/58/58 54/54/54
f 43/43/43 36/36/36 35/35/35
f 34/34/34 6/6/6 5/5/5
f 59/59/59 58/58/58 60/60/60
f 44/44/44 58/58/58 42/42/42
f 44/44/44 60/60/60 58/58/58
f 59/59/59 61/61/61 58/58/58
f 61/61/61 62/62/62 58/58/58
f 61/61/61 63/63/63 62/62/62
f 63/63/63 61/61/61 64/64/64
f 57/57/57 58/58/58 62/62/62
f 57/57/57 54/54/54 58/58/58
f 12/12/12 27/27/27 2/2/2
f 37/37/37 28/28/28 9/9/9
