mtllib m1222130.mtl
usemtl material0
v 192.34140014648438 -3.6755781173706055 160
v 192 -3.5317320823669434 165.90097045898438
v 192.65187072753906 -3.5265100002288818 165.86653137207031
v 192 -3.6717870235443115 160.27998447418213
v 192 -3.6787629127502441 160
v 197.92994689941406 -3.5644540786743164 160
v 200.34170484542847 -3.5761630535125732 160
v 200.62922716140747 -3.56612491607666 165.44538879394531
v 192 -3.6462299823760986 172.87959289550781
v 193.07237243652344 -3.6543979644775391 173.84446692466736
v 205.5292661190033 -3.1544589996337891 160
v 192 -3.6769759654998779 175.03633099794388
v 192 -3.6614809036254883 173.90110802650452
v 192 -4.1953182220458984 183.48080396652222
v 193.49098205566406 -4.1626710891723633 181.82368516921997
v 192 -4.0973992347717285 181.90220594406128
v 201.05038499832153 -3.562669038772583 173.42288208007813
v 208.60820001363754 -3.2810590267181396 165.02316284179688
v 201.46798706054688 -4.2740621566772461 181.40278577804565
v 209.02923595905304 -3.302016019821167 173.00073194503784
v 201.88546800613403 -5.0089111328125 189.38276672363281
v 192 -4.7149977684021 191.92526245117188
v 193.90827941894531 -4.9356050491333008 189.80378723144531
v 192 -4.7902421951293945 189.90411376953125
v 192 -4.7141871452331543 192
v 194.02427673339844 -4.9237799644470215 192
v 202.02331495285034 -5.0713858604431152 192
v 199.53080654144287 -4.972681999206543 192
v 209.86660802364349 -4.2873291969299316 188.95906066894531
v 207.13002002239227 -4.6174249649047852 192
v 209.44671595096588 -4.0383110046386719 180.98072814941406
v 208.34416198730469 -3.0606870651245117 160
v 213.12820386886597 -2.9529891014099121 160
v 216.34584045410156 -2.6980600357055664 160
v 216.58889770507813 -2.6512899398803711 164.59974670410156
v 220.72708129882813 -2.777885913848877 160
v 217.007568359375 -3.1478250026702881 172.57893395423889
v 224 -2.6786210536956787 164.20848083496094
v 224 -2.6950430870056152 163.56221008300781
v 224 -2.78556489944458 160
v 224 -3.0909678936004639 171.27090501785278
v 224 -3.2343370914459229 173.25242590904236
v 217.42544555664063 -3.8011140823364258 180.55865478515625
v 224 -3.1492159366607666 172.2096860408783
v 224 -3.7843139171600342 180.2114109992981
v 217.84400939941406 -4.3196578025817871 188.53790283203125
v 210.02526903152466 -4.6508760452270508 192
v 214.72840881347656 -4.6994857788085938 192
v 224 -4.54020881652832 188.21351623535156
v 222.32662963867188 -4.8574318885803223 192
v 224 -4.736720085144043 190.14036560058594
v 218.02491760253906 -4.6801958084106445 192
v 224 -3.8807640075683594 181.69662523269653
v 224 -4.8775639533996582 192
vt 0.034669000655412674 0.98680699989199638
vt 0.21232299506664276 0.99090700037777424
vt 0.21061299741268158 0.97136200033128262
vt 0.043434999883174896 0.99677000008523464
vt 0.035022001713514328 0.99706199998036027
vt 0.028922999277710915 0.81890900433063507
vt 0.026419999077916145 0.7464660108089447
vt 0.18974700570106506 0.73217499256134033
vt 0.42196899652481079 0.98369999974966049
vt 0.44984400272369385 0.95049199834465981
vt 0.021077999845147133 0.59012898802757263
vt 0.48675799369812012 0.98147200047969818
vt 0.45265600085258484 0.98264499939978123
vt 0.74087399244308472 0.97248299978673458
vt 0.68954801559448242 0.92941199988126755
vt 0.69336801767349243 0.97416500002145767
vt 0.42893201112747192 0.71127599477767944
vt 0.16880500316619873 0.4927939772605896
vt 0.66892498731613159 0.69019401073455811
vt 0.40799498558044434 0.47192400693893433
vt 0.90919399261474609 0.669279009103775
vt 0.99538201093673706 0.96358900144696236
vt 0.92987197637557983 0.90784599632024765
vt 0.93461698293685913 0.96524799987673759
vt 0.99783599376678467 0.9632669985294342
vt 0.99572497606277466 0.90213900059461594
vt 0.98766201734542847 0.66213300824165344
vt 0.99003100395202637 0.736732006072998
vt 0.88670802116394043 0.42914199829101562
vt 0.981419026851654 0.50817298889160156
vt 0.64831000566482544 0.45148301124572754
vt 0.01802700012922287 0.50564199686050415
vt 0.0132039999589324 0.36190301179885864
vt 0.009432000108063221 0.2651829719543457
vt 0.14732399582862854 0.25281298160552979
vt 0.0045779999345541 0.13357299566268921
vt 0.38708499073982239 0.23266899585723877
vt 0.1286270022392273 0.030547022819519043
vt 0.10920699685811997 0.031172990798950195
vt 0.0021639999467879534 0.034563004970550537
vt 0.34114301204681396 0.02385401725769043
vt 0.40052399039268494 0.021951973438262939
vt 0.627170979976654 0.21217399835586548
vt 0.36939799785614014 0.022964000701904297
vt 0.61021298170089722 0.015029013156890869
vt 0.866936981678009 0.19156497716903687
vt 0.97855997085571289 0.42151099443435669
vt 0.97433298826217651 0.28021401166915894
vt 0.85157901048660278 0.0068100094795227051
vt 0.96741700172424316 0.053207993507385254
vt 0.90975600481033325 0.00481802225112915
vt 0.97033601999282837 0.1812170147895813
vt 0.65482997894287109 0.013540983200073242
vt 0.96577602624893188 0.0029379725456237793
vn -0.014421000145375729 0.99959200620651245 -0.024636000394821167
vn -0.0081989997997879982 0.99996000528335571 -0.00355900009162724
vn -0.0045469999313354492 0.99998897314071655 -0.0015020000282675028
vn -0.0093259997665882111 0.999646008014679 -0.024907000362873077
vn -0.0093250004574656487 0.999646008014679 -0.024908000603318214
vn -0.0017450000159442425 0.999966025352478 -0.0080369999632239342
vn -0.036676999181509018 0.99932700395584106 9.40000027185306E-05
vn -0.022717000916600227 0.99971097707748413 0.0078199999406933784
vn -0.0067900000140070915 0.99984902143478394 0.016009999439120293
vn 0.000770999991800636 0.9995110034942627 0.031261999160051346
vn -0.045997999608516693 0.99835997819900513 0.034083001315593719
vn 0.034575000405311584 0.99814999103546143 0.050016999244689941
vn -0.0058499998413026333 0.99988102912902832 0.014266000129282475
vn 0.072614997625350952 0.99373900890350342 0.084913000464439392
vn 0.033089000731706619 0.99649697542190552 0.076802000403404236
vn 0.0468829981982708 0.99700802564620972 0.061459001153707504
vn -0.017040999606251717 0.99895697832107544 0.042351998388767242
vn -0.041297998279333115 0.99881601333618164 0.025714000687003136
vn -0.0033440000843256712 0.99586302042007446 0.0908069983124733
vn -0.023022999987006187 0.99857699871063232 0.048099998384714127
vn -0.026078000664711 0.99848097562789917 0.04853999987244606
vn 0.0962269976735115 0.99521499872207642 -0.016932999715209007
vn 0.048076000064611435 0.99806302785873413 0.039485998451709747
vn 0.077257998287677765 0.99668699502944946 0.025412000715732574
vn 0.10298299789428711 0.99462401866912842 -0.01079500000923872
vn 0.05442500114440918 0.99848401546478271 -0.0082499999552965164
vn -0.026647999882698059 0.99932599067687988 0.025257999077439308
vn 0.017069999128580093 0.99985301494598389 0.0015160000184550881
vn -0.027745999395847321 0.99752497673034668 0.064612999558448792
vn -0.06187799945473671 0.99670201539993286 0.052508000284433365
vn -0.027728000655770302 0.99691098928451538 0.073477998375892639
vn -0.028047999367117882 0.99857997894287109 0.0452830009162426
vn -0.063952997326850891 0.99792397022247314 0.00762900011613965
vn -0.032058998942375183 0.99945002794265747 -0.00846800021827221
vn -0.034667998552322388 0.99907499551773071 0.025442000478506088
vn 0.006579000037163496 0.99974501132965088 -0.021595999598503113
vn -0.014763000421226025 0.99767798185348511 0.06648699939250946
vn 0.0044820001348853111 0.99987697601318359 0.015052000060677528
vn 0.0023449999280273914 0.99967497587203979 -0.02540300041437149
vn 0.0023449999280273914 0.99967497587203979 -0.02540300041437149
vn 0.00434499979019165 0.99813097715377808 0.060956999659538269
vn 0.0038240000139921904 0.99672597646713257 0.080761000514030457
vn -0.011868000030517578 0.997223973274231 0.073503002524375916
vn 0.0039650001563131809 0.99744600057601929 0.071322001516819
vn 0.001256000017747283 0.997402012348175 0.07203199714422226
vn 0.013481000438332558 0.99620598554611206 0.08597700297832489
vn 0.010847000405192375 0.99293798208236694 0.11814100295305252
vn 0.00595899997279048 0.9934229850769043 0.11435099691152573
vn 0.0409340001642704 0.99404698610305786 0.10097099840641022
vn 0.033209998160600662 0.99497401714324951 0.09446900337934494
vn 0.034212000668048859 0.99485498666763306 0.09536299854516983
vn 0.01837100088596344 0.99455201625823975 0.1026109978556633
vn 0.010208999738097191 0.99726802110672 0.073164999485015869
vn 0.011996000073850155 0.99707198143005371 0.0755160003900528
f 1/1/1 2/2/2 3/3/3
f 1/1/1 4/4/4 2/2/2
f 4/4/4 1/1/1 5/5/5
f 6/6/6 1/1/1 3/3/3
f 7/7/7 3/3/3 8/8/8
f 7/7/7 6/6/6 3/3/3
f 3/3/3 9/9/9 10/10/10
f 3/3/3 2/2/2 9/9/9
f 11/11/11 7/7/7 8/8/8
f 12/12/12 10/10/10 13/13/13
f 14/14/14 15/15/15 16/16/16
f 10/10/10 15/15/15 17/17/17
f 17/17/17 8/8/8 10/10/10
f 17/17/17 18/18/18 8/8/8
f 19/19/19 20/20/20 17/17/17
f 19/19/19 17/17/17 15/15/15
f 9/9/9 13/13/13 10/10/10
f 19/19/19 15/15/15 21/21/21
f 22/22/22 23/23/23 24/24/24
f 14/14/14 23/23/23 15/15/15
f 14/14/14 24/24/24 23/23/23
f 25/25/25 23/23/23 22/22/22
f 25/25/25 26/26/26 23/23/23
f 27/27/27 21/21/21 28/28/28
f 26/26/26 21/21/21 23/23/23
f 26/26/26 28/28/28 21/21/21
f 27/27/27 29/29/29 21/21/21
f 27/27/27 30/30/30 29/29/29
f 15/15/15 23/23/23 21/21/21
f 19/19/19 21/21/21 31/31/31
f 12/12/12 15/15/15 10/10/10
f 12/12/12 16/16/16 15/15/15
f 3/3/3 10/10/10 8/8/8
f 18/18/18 11/11/11 8/8/8
f 18/18/18 32/32/32 11/11/11
f 32/32/32 18/18/18 33/33/33
f 34/34/34 35/35/35 36/36/36
f 35/35/35 33/33/33 18/18/18
f 35/35/35 34/34/34 33/33/33
f 35/35/35 18/18/18 37/37/37
f 38/38/38 36/36/36 35/35/35
f 38/38/38 39/39/39 36/36/36
f 39/39/39 40/40/40 36/36/36
f 38/38/38 35/35/35 41/41/41
f 31/31/31 20/20/20 19/19/19
f 20/20/20 31/31/31 37/37/37
f 42/42/42 37/37/37 43/43/43
f 42/42/42 44/44/44 37/37/37
f 41/41/41 37/37/37 44/44/44
f 41/41/41 35/35/35 37/37/37
f 42/42/42 43/43/43 45/45/45
f 43/43/43 37/37/37 31/31/31
f 37/37/37 18/18/18 20/20/20
f 43/43/43 31/31/31 46/46/46
f 47/47/47 29/29/29 30/30/30
f 29/29/29 48/48/48 46/46/46
f 29/29/29 47/47/47 48/48/48
f 49/49/49 50/50/50 51/51/51
f 49/49/49 46/46/46 50/50/50
f 46/46/46 52/52/52 50/50/50
f 29/29/29 46/46/46 31/31/31
f 53/53/53 46/46/46 49/49/49
f 52/52/52 46/46/46 48/48/48
f 53/53/53 43/43/43 46/46/46
f 53/53/53 45/45/45 43/43/43
f 29/29/29 31/31/31 21/21/21
f 54/54/54 51/51/51 50/50/50
f 20/20/20 18/18/18 17/17/17
