mtllib m12332.mtl
usemtl material0
v 768 -1.0783849954605103 1.9982147216796875
v 768 -1.5825740098953247 23.481616973876953
v 769.12835693359375 -1.5710999965667725 23.421993255615234
v 790.2039794921875 -0.24131700396537781 0
v 801.0426025390625 -0.80501198768615723 21.734279632568359
v 799.8994140625 -0.027519999071955681 0
v 768 -1.0286970138549805 0
v 810.6822509765625 0.74110698699951172 0
v 832.965026974678 1.53740394115448 20.041145324707031
v 831.90448000282049 1.0571789741516113 0
v 768 0.71518498659133911 52.782924652099609
v 770.82586669921875 0.95485001802444458 55.323398590087891
v 768 0.67108398675918579 83.177787780761719
v 772.51025390625 0.93074202537536621 87.233551025390625
v 768 0.7814440131187439 55.473171234130859
v 802.7396240234375 1.6135170459747315 53.636058807373047
v 834.65045189857483 1.7093950510025024 51.950641632080078
v 804.423095703125 1.4160729646682739 85.54681396484375
v 850.99822998046875 2.5301671028137207 0
v 864.87371826171875 1.2189249992370606 18.357147216796875
v 863.9107666015625 2.359421968460083 0
v 881.3916015625 2.0955660343170166 0
v 896 1.2941290140151978 1.8118400573730469
v 896 -0.0081470003351569176 16.717338562011719
v 895.90521240234375 1.4565999507904053 0
v 866.55157470703125 -0.068039998412132263 50.271636962890625
v 896 -0.039553001523017883 17.540611267089844
v 896 3.2802619934082031 48.706005096435547
v 868.243408203125 1.341418981552124 82.176887512207031
v 896 1.4616390466690064 0
v 896 2.8309760093688965 76.742668151855469
v 836.33056592941284 0.8537600040435791 83.863639831542969
v 768 0.76040899753570557 87.472259521484375
v 768 1.1281939744949341 92.247062683105469
v 768 4.0950279235839844 119.46083831787109
v 774.21337890625 4.5400528907775879 119.13134002685547
v 806.113037109375 2.46635103225708 117.45330810546875
v 768 4.093818187713623 128
v 768 4.0949478149414062 126.03630828857422
v 774.68170166015625 4.5681982040405273 128
v 768 4.0950112342834473 120.87828826904297
v 806.67547607421875 3.5304350852966309 128
v 796.62554931640625 3.1492989063262939 128
v 838.018798828125 1.571524977684021 115.77127075195313
v 827.01965284347534 3.0693700313568115 128
v 869.93731689453125 3.1524240970611572 114.08080291748047
v 896 3.2286760807037354 85.113029479980469
v 896 2.7572379112243652 112.70574951171875
v 896 2.9930980205535889 80.705963134765625
v 870.6641845703125 1.671949028968811 128
v 851.6043701171875 0.83760601282119751 128
v 838.67083692550659 2.784904956817627 128
v 887.80450439453125 1.3168460130691528 128
v 896 2.1058640480041504 118.89279937744141
v 896 0.83177697658538818 128
vt 0.046663999557495117 0.99868600000627339
vt 0.20878799259662628 0.99312999984249473
vt 0.20804500579833984 0.98463299963623285
vt 0.025698000565171242 0.83158500492572784
vt 0.18726299703121185 0.7442069947719574
vt 0.02346700057387352 0.75828100740909576
vt 0.0315839983522892 0.99920100002782419
vt 0.021285999566316605 0.67599698901176453
vt 0.16728200018405914 0.50307101011276245
vt 0.016279000788927078 0.515854001045227
vt 0.43051901459693909 0.9852700000628829
vt 0.44901201128959656 0.96326600015163422
vt 0.65985697507858276 0.97798199951648712
vt 0.68937200307846069 0.94292100146412849
vt 0.45082199573516846 0.98459200002253056
vt 0.42817199230194092 0.72286799550056458
vt 0.4076240062713623 0.48251801729202271
vt 0.66850501298904419 0.70209398865699768
vt 0.011370000429451466 0.372048020362854
vt 0.14672699570655823 0.26272702217102051
vt 0.0082029998302459717 0.274616003036499
vt 0.0039309998974204063 0.14270997047424316
vt 0.01384199969470501 0.0321810245513916
vt 0.1267160028219223 0.028102993965148926
vt 0.000615999975707382 0.033092975616455078
vt 0.387268990278244 0.24185401201248169
vt 0.13293400406837463 0.027889013290405273
vt 0.36797800660133362 0.019141018390655518
vt 0.626820981502533 0.22139102220535278
vt 0.00010800000018207356 0.032410025596618652
vt 0.57955700159072876 0.012876987457275391
vt 0.64775699377059937 0.46175098419189453
vt 0.692264974117279 0.97691800072789192
vt 0.72839397192001343 0.97564899921417236
vt 0.93490302562713623 0.96800800040364265
vt 0.93115502595901489 0.92219799757003784
vt 0.90895700454711914 0.68157398700714111
vt 0.999891996383667 0.96656699851155281
vt 0.984512984752655 0.96637900173664093
vt 0.99791300296783447 0.91604000329971313
vt 0.94559800624847412 0.96770000085234642
vt 0.98880702257156372 0.67486199736595154
vt 0.991349995136261 0.75017300248146057
vt 0.88821697235107422 0.44118601083755493
vt 0.98371797800064087 0.52133199572563171
vt 0.86775302886962891 0.20047402381896973
vt 0.64293497800827026 0.010782003402709961
vt 0.8524399995803833 0.0040299892425537109
vt 0.609637975692749 0.011898994445800781
vt 0.97323298454284668 0.19213801622390747
vt 0.97779101133346558 0.33608400821685791
vt 0.98078697919845581 0.43340098857879639
vt 0.9700239896774292 0.062761008739471436
vt 0.89938598871231079 0.0027639865875244141
vt 0.96877598762512207 0.00079900026321411133
vn -0.034984000027179718 0.99908000230789185 0.024819999933242798
vn -0.011700999923050404 0.99950802326202393 -0.029089000076055527
vn -0.020007999613881111 0.99947798252105713 -0.025344999507069588
vn -0.025604000315070152 0.99910402297973633 0.033686000853776932
vn -0.049068000167608261 0.99863797426223755 -0.017741000279784203
vn -0.045761000365018845 0.99822497367858887 0.038116000592708588
vn -0.0354279987514019 0.99906301498413086 0.0248429998755455
vn -0.057989001274108887 0.99800902605056763 0.024821000173687935
vn -0.026365999132394791 0.99964499473571777 -0.0038499999791383743
vn -0.04485199972987175 0.998760998249054 -0.021559000015258789
vn -0.027153000235557556 0.99758601188659668 -0.063906997442245483
vn -0.035872001200914383 0.99891400337219238 -0.02973799966275692
vn -0.055116001516580582 0.99847698211669922 -0.0026320000179111958
vn -0.025942999869585037 0.99872297048568726 -0.043354000896215439
vn -0.061764001846313477 0.99804198741912842 -0.0098259998485445976
vn -0.01920199953019619 0.99956601858139038 -0.022337999194860458
vn 0.012117000296711922 0.99990302324295044 0.0069129997864365578
vn -0.00021300000662449747 0.99990200996398926 -0.014027999714016914
vn -0.010852999985218048 0.99915200471878052 0.03972800076007843
vn 0.029430000111460686 0.998445987701416 0.047325998544692993
vn 0.0140990000218153 0.99802201986312866 0.061266001313924789
vn 0.036132998764514923 0.996133029460907 0.080082997679710388
vn 0.042215000838041306 0.99531000852584839 0.087043002247810364
vn 0.042642999440431595 0.997081995010376 0.063317999243736267
vn -0.0029400000348687172 0.99598598480224609 0.089465998113155365
vn -0.0037070000544190407 0.99989402294158936 -0.014069999568164349
vn 0.003992999903857708 0.99998199939727783 0.0044630002230405807
vn -0.11529300361871719 0.99224001169204712 -0.04655899852514267
vn -0.034598000347614288 0.998773992061615 -0.035399999469518662
vn -0.0528549998998642 0.9943619966506958 0.091931000351905823
vn -0.0751039981842041 0.99684602022171021 -0.025620000436902046
vn -0.0001939999929163605 0.99999898672103882 -0.0017130000051110983
vn -0.040318001061677933 0.9979509711265564 -0.049683000892400742
vn -0.068556003272533417 0.99254500865936279 -0.10076499730348587
vn -0.074107997119426727 0.99587100744247437 -0.052425000816583633
vn -0.00622900016605854 0.99832600355148315 -0.057505000382661819
vn 0.019557999446988106 0.9977409839630127 -0.064274996519088745
vn -0.070818997919559479 0.99748897552490234 0.0005740000051446259
vn -0.07096400111913681 0.99747902154922485 0.00044299999717622995
vn -0.000881000014487654 0.99999499320983887 -0.0031270000617951155
vn -0.071439996361732483 0.99744498729705811 1.2000000424450263E-05
vn -0.0065569998696446419 0.99496197700500488 -0.10003499686717987
vn 0.037227001041173935 0.99882000684738159 -0.031189000234007835
vn 0.017250999808311462 0.99903398752212524 -0.040415998548269272
vn 0.023006999865174294 0.99460697174072266 -0.10113199800252914
vn -0.024608999490737915 0.99907702207565308 0.035215001553297043
vn -0.043926000595092773 0.99835300445556641 -0.036892998963594437
vn 0.018272999674081802 0.99806100130081177 0.059498999267816544
vn -0.0618089996278286 0.99698799848556519 -0.04683699831366539
vn -0.010413999669253826 0.99427998065948486 0.10629799962043762
vn 0.0014819999923929572 0.99830001592636108 0.058267999440431595
vn 0.088086999952793121 0.99077302217483521 -0.10300499945878983
vn 0.030809000134468079 0.99303102493286133 0.11375799775123596
vn 0.029441999271512032 0.99321097135543823 0.11254300177097321
vn 0.0585159994661808 0.98865801095962524 0.13831199705600739
f 1/1/1 2/2/2 3/3/3
f 4/4/4 5/5/5 6/6/6
f 4/4/4 3/3/3 5/5/5
f 7/7/7 3/3/3 4/4/4
f 7/7/7 1/1/1 3/3/3
f 8/8/8 9/9/9 10/10/10
f 3/3/3 11/11/11 12/12/12
f 3/3/3 2/2/2 11/11/11
f 12/12/12 13/13/13 14/14/14
f 12/12/12 15/15/15 13/13/13
f 11/11/11 15/15/15 12/12/12
f 9/9/9 5/5/5 16/16/16
f 6/6/6 9/9/9 8/8/8
f 6/6/6 5/5/5 9/9/9
f 9/9/9 16/16/16 17/17/17
f 16/16/16 5/5/5 12/12/12
f 5/5/5 3/3/3 12/12/12
f 16/16/16 12/12/12 18/18/18
f 19/19/19 10/10/10 9/9/9
f 17/17/17 20/20/20 9/9/9
f 21/21/21 20/20/20 22/22/22
f 23/23/23 20/20/20 24/24/24
f 23/23/23 25/25/25 20/20/20
f 25/25/25 22/22/22 20/20/20
f 26/26/26 20/20/20 17/17/17
f 24/24/24 26/26/26 27/27/27
f 24/24/24 20/20/20 26/26/26
f 27/27/27 26/26/26 28/28/28
f 26/26/26 17/17/17 29/29/29
f 30/30/30 25/25/25 23/23/23
f 28/28/28 26/26/26 31/31/31
f 19/19/19 20/20/20 21/21/21
f 19/19/19 9/9/9 20/20/20
f 17/17/17 16/16/16 32/32/32
f 33/33/33 34/34/34 14/14/14
f 14/14/14 35/35/35 36/36/36
f 14/14/14 34/34/34 35/35/35
f 14/14/14 18/18/18 12/12/12
f 18/18/18 32/32/32 16/16/16
f 14/14/14 37/37/37 18/18/18
f 13/13/13 33/33/33 14/14/14
f 18/18/18 37/37/37 32/32/32
f 38/38/38 36/36/36 39/39/39
f 38/38/38 40/40/40 36/36/36
f 41/41/41 36/36/36 35/35/35
f 41/41/41 39/39/39 36/36/36
f 42/42/42 37/37/37 43/43/43
f 40/40/40 37/37/37 36/36/36
f 40/40/40 43/43/43 37/37/37
f 42/42/42 44/44/44 37/37/37
f 42/42/42 45/45/45 44/44/44
f 14/14/14 36/36/36 37/37/37
f 32/32/32 37/37/37 44/44/44
f 29/29/29 44/44/44 46/46/46
f 44/44/44 29/29/29 32/32/32
f 47/47/47 46/46/46 48/48/48
f 46/46/46 49/49/49 29/29/29
f 46/46/46 47/47/47 49/49/49
f 31/31/31 29/29/29 49/49/49
f 31/31/31 26/26/26 29/29/29
f 50/50/50 44/44/44 51/51/51
f 50/50/50 46/46/46 44/44/44
f 51/51/51 44/44/44 52/52/52
f 48/48/48 53/53/53 54/54/54
f 48/48/48 46/46/46 53/53/53
f 46/46/46 50/50/50 53/53/53
f 55/55/55 54/54/54 53/53/53
f 52/52/52 44/44/44 45/45/45
f 17/17/17 32/32/32 29/29/29
