mtllib m12301.mtl
usemtl material0
v 640 -5.5217652320861816 403.411865234375
v 657.46734619140625 -4.4149980545043945 384
v 640 -5.1323838233947754 384
v 640 -5.5640192031860352 437.19406127929688
v 661.68438720703125 -4.9440131187438965 413.09393310546875
v 640 -5.77702522277832 414.24154663085938
v 660.15179443359375 -4.315220832824707 384
v 687.86138916015625 -4.4860939979553223 384
v 718.25610446929932 -4.2518119812011719 384
v 692.15216064453125 -4.1034789085388184 384
v 693.608642578125 -2.2065420150756836 411.3997802734375
v 724.1512451171875 -4.1263628005981445 384
v 725.5216064453125 -1.6856399774551392 409.71298217773438
v 695.293212890625 -2.2056419849395752 443.30978393554688
v 663.377685546875 -3.2243950366973877 444.99822998046875
v 640 -4.9299111366271973 454.37344408035278
v 665.06671142578125 -2.3532071113586426 476.90536499023438
v 640 -5.1166467666625977 446.23846399784088
v 727.2001953125 -2.8414568901062012 441.6268310546875
v 757.43096923828125 -1.8730340003967285 408.02853393554688
v 728.87384033203125 -4.9721660614013672 473.54388427734375
v 696.97973585128784 -1.8173550367355347 475.21853637695312
v 748.65191650390625 -3.4814701080322266 384
v 640 -7.596412181854248 510.24383544921875
v 666.72833251953125 -6.84110689163208 508.83013916015625
v 640 -6.8189678192138672 504.75567626953125
v 640 -3.631289005279541 478.23291015625
v 698.65539598464966 -3.5465168952941895 507.13424682617188
v 730.55401611328125 -5.8234148025512695 505.4566650390625
v 640 -7.7249259948730469 512
v 666.8944091796875 -7.0690221786499023 512
v 640 -7.6340179443359375 510.75772094726562
v 694.27587890625 -4.3556308746337891 512
v 698.9112548828125 -3.7363510131835938 512
v 730.8984375 -6.0068240165710449 512
v 724.6673583984375 -5.6224298477172852 512
v 755.05657958984375 -7.9160189628601074 512
v 762.4515380859375 -8.3042221069335938 503.77975463867188
v 760.776123046875 -6.5306267738342285 471.86395263671875
v 759.113037109375 -2.3545470237731934 439.94015502929688
v 756.15380859375 -3.4986848831176758 384
v 768 -3.5455090999603271 384
v 768 -2.7121710777282715 396.27932739257812
v 768 -2.7474479675292969 399.76089477539062
v 768 -2.8255939483642578 407.47332763671875
v 768 -3.0584659576416016 430.06082153320312
v 768 -3.7402958869934082 439.47506713867188
v 768 -3.7304949760437012 447.94659399986267
v 768 -6.7618408203125 471.48318481445312
v 768 -8.1661195755004883 497.61309814453125
v 768 -8.1415281295776367 503.48626708984375
v 762.88665771484375 -8.0811910629272461 512
v 768 -7.9654111862182617 510.39056396484375
v 768 -7.9243569374084473 512
vt 0.84343999624252319 0.003081977367401123
vt 0.99362099170684814 0.13842999935150147
vt 0.99362099170684814 0.0032050013542175293
vt 0.58210200071334839 0.0030530095100402832
vt 0.768513023853302 0.17085498571395874
vt 0.75964802503585815 0.0030009746551513672
vt 0.993619978427887 0.15920901298522949
vt 0.99339300394058228 0.37354797124862671
vt 0.99394100904464722 0.60878598690032959
vt 0.9932900071144104 0.40686798095703125
vt 0.78087699413299561 0.41873502731323242
vt 0.99398797750473022 0.65439501404762268
vt 0.79456502199172974 0.66558301448822021
vt 0.53476101160049438 0.43165397644042969
vt 0.52141302824020386 0.18467599153518677
vt 0.44911700487136841 0.0032789707183837891
vt 0.27452799677848816 0.19792097806930542
vt 0.51205801963806152 0.0032439827919006348
vt 0.54754501581192017 0.67851701378822327
vt 0.807483971118927 0.91241300106048584
vt 0.30163699388504028 0.69294300675392151
vt 0.28794699907302856 0.44507598876953125
vt 0.99442398548126221 0.84395599365234375
vt 0.014789000153541565 0.002285003662109375
vt 0.025155000388622284 0.21067798137664795
vt 0.057663001120090485 0.00256502628326416
vt 0.26429000496864319 0.0037760138511657715
vt 0.040612000972032547 0.45881199836730957
vt 0.05477600172162056 0.70726099610328674
vt 0.0011680000461637974 0.0022240281105041504
vt 0.00057600002037361264 0.21201002597808838
vt 0.010803000070154667 0.0022649765014648438
vt 0.0025480000767856836 0.42483597993850708
vt 0.0029619999695569277 0.461063027381897
vt 0.0041570002213120461 0.71018099784851074
vt 0.0037249999586492777 0.66081899404525757
vt 0.004720000084489584 0.89762700349092484
vt 0.068493001163005829 0.954695001244545
vt 0.31564399600028992 0.93994700163602829
vt 0.56380897760391235 0.92520900070667267
vt 0.9937559962272644 0.90226300060749054
vt 0.993914008140564 0.99389400007203221
vt 0.89871501922607422 0.99403299996629357
vt 0.87447702884674072 0.99204100016504526
vt 0.81486201286315918 0.99433499993756413
vt 0.64013797044754028 0.9942629998549819
vt 0.56784898042678833 0.99436999997124076
vt 0.50232100486755371 0.9944349997676909
vt 0.31889200210571289 0.99583599995821714
vt 0.11648900061845779 0.99729399988427758
vt 0.071061000227928162 0.997613999992609
vt 0.0048940000124275684 0.95820600166916847
vt 0.017472999170422554 0.9977269999217242
vt 0.0050200000405311584 0.99777600006200373
vn -0.038040000945329666 0.99901801347732544 0.022729000076651573
vn -0.038171000778675079 0.99901497364044189 0.02261199988424778
vn -0.041026998311281204 0.99895697832107544 0.020037999376654625
vn -0.0728520005941391 0.9965440034866333 -0.039912000298500061
vn -0.049899999052286148 0.99867302179336548 -0.012756999582052231
vn -0.038038000464439392 0.99925500154495239 0.0065830000676214695
vn -0.016208000481128693 0.99961602687835693 0.022458000108599663
vn -0.06342499703168869 0.99712902307510376 -0.041370999068021774
vn -0.014007000252604485 0.99611401557922363 -0.0869550034403801
vn -0.043202001601457596 0.99683600664138794 -0.066716000437736511
vn -0.049499001353979111 0.99815797805786133 -0.035087998956441879
vn -0.023601999506354332 0.99536502361297607 -0.093223996460437775
vn -0.0056610000319778919 0.99953299760818481 -0.030032999813556671
vn -0.0072880000807344913 0.99997198581695557 0.0019620000384747982
vn -0.056253999471664429 0.997780978679657 -0.03562299907207489
vn -0.074371002614498138 0.996740996837616 -0.031246999278664589
vn -0.032026000320911407 0.99817097187042236 0.051270000636577606
vn -0.082506000995635986 0.9959530234336853 -0.03563699871301651
vn 0.0075219999998807907 0.99879997968673706 0.048386000096797943
vn 0.034136999398469925 0.99930298328399658 -0.015112999826669693
vn 0.058044001460075378 0.99744200706481934 0.04173000156879425
vn 0.02617499977350235 0.99934500455856323 0.02500700019299984
vn -0.0053369998931884766 0.99721097946166992 -0.074446998536586761
vn -0.022515999153256416 0.9941679835319519 0.10546799749135971
vn -0.049490999430418015 0.99401497840881348 0.097388997673988342
vn -0.026046000421047211 0.990451991558075 0.13537499308586121
vn -0.049008000642061234 0.99816399812698364 0.035594001412391663
vn -0.017082000151276588 0.99852597713470459 0.051511000841856
vn 0.074441000819206238 0.996720016002655 0.031736001372337341
vn -0.024315999820828438 0.99703800678253174 0.072962000966072083
vn -0.062488000839948654 0.99523597955703735 0.0748319998383522
vn -0.024315999820828438 0.99703800678253174 0.072962000966072083
vn -0.10733199864625931 0.99187201261520386 0.068328998982906342
vn -0.026461999863386154 0.998835027217865 0.040359999984502792
vn 0.070458002388477325 0.997219979763031 0.024243000894784927
vn 0.069937996566295624 0.99702799320220947 0.032294999808073044
vn 0.063413999974727631 0.99793797731399536 0.0099200000986456871
vn 0.025519000366330147 0.99960201978683472 0.012035000137984753
vn 0.048388998955488205 0.99508100748062134 0.0864420011639595
vn 0.05698699876666069 0.99689400196075439 0.054359998553991318
vn 0.0030890000052750111 0.99770301580429077 -0.0676639974117279
vn 0.0039429999887943268 0.99769699573516846 -0.067708998918533325
vn 0.024149000644683838 0.9984779953956604 -0.049589000642299652
vn 0.090285003185272217 0.995864987373352 0.010091000236570835
vn 0.090288996696472168 0.99586397409439087 0.010176000185310841
vn 0.10617999732494354 0.99404001235961914 0.024686999619007111
vn 0.15581600368022919 0.98712301254272461 0.0361890010535717
vn 0.06955999881029129 0.99318897724151611 0.093474999070167542
vn 0.036692000925540924 0.99509501457214355 0.091867998242378235
vn 0.019780000671744347 0.99899697303771973 0.040169999003410339
vn -0.030071999877691269 0.999442994594574 -0.014481999911367893
vn -0.0056570000015199184 0.99962401390075684 -0.026822000741958618
vn -0.030647000297904015 0.99920499324798584 -0.025488000363111496
vn -0.030647000297904015 0.99920499324798584 -0.025488000363111496
f 1/1/1 2/2/2 3/3/3
f 4/4/4 5/5/5 6/6/6
f 7/7/7 5/5/5 8/8/8
f 9/9/9 10/10/10 11/11/11
f 12/12/12 11/11/11 13/13/13
f 12/12/12 9/9/9 11/11/11
f 11/11/11 8/8/8 5/5/5
f 11/11/11 10/10/10 8/8/8
f 11/11/11 5/5/5 14/14/14
f 15/15/15 16/16/16 17/17/17
f 15/15/15 18/18/18 16/16/16
f 5/5/5 18/18/18 15/15/15
f 5/5/5 4/4/4 18/18/18
f 13/13/13 14/14/14 19/19/19
f 15/15/15 14/14/14 5/5/5
f 13/13/13 19/19/19 20/20/20
f 19/19/19 14/14/14 21/21/21
f 14/14/14 13/13/13 11/11/11
f 14/14/14 15/15/15 22/22/22
f 23/23/23 12/12/12 13/13/13
f 2/2/2 5/5/5 7/7/7
f 2/2/2 6/6/6 5/5/5
f 2/2/2 1/1/1 6/6/6
f 17/17/17 24/24/24 25/25/25
f 17/17/17 26/26/26 24/24/24
f 26/26/26 17/17/17 27/27/27
f 25/25/25 28/28/28 22/22/22
f 25/25/25 22/22/22 17/17/17
f 22/22/22 21/21/21 14/14/14
f 22/22/22 29/29/29 21/21/21
f 15/15/15 17/17/17 22/22/22
f 30/30/30 31/31/31 32/32/32
f 32/32/32 25/25/25 24/24/24
f 32/32/32 31/31/31 25/25/25
f 25/25/25 33/33/33 28/28/28
f 25/25/25 31/31/31 33/33/33
f 34/34/34 28/28/28 33/33/33
f 35/35/35 29/29/29 36/36/36
f 34/34/34 29/29/29 28/28/28
f 34/34/34 36/36/36 29/29/29
f 29/29/29 37/37/37 38/38/38
f 29/29/29 35/35/35 37/37/37
f 22/22/22 28/28/28 29/29/29
f 39/39/39 21/21/21 29/29/29
f 16/16/16 27/27/27 17/17/17
f 40/40/40 19/19/19 21/21/21
f 20/20/20 23/23/23 13/13/13
f 20/20/20 41/41/41 23/23/23
f 42/42/42 20/20/20 43/43/43
f 42/42/42 41/41/41 20/20/20
f 44/44/44 20/20/20 45/45/45
f 44/44/44 43/43/43 20/20/20
f 46/46/46 40/40/40 47/47/47
f 40/40/40 45/45/45 20/20/20
f 40/40/40 46/46/46 45/45/45
f 47/47/47 40/40/40 48/48/48
f 40/40/40 20/20/20 19/19/19
f 38/38/38 39/39/39 29/29/29
f 49/49/49 38/38/38 50/50/50
f 49/49/49 39/39/39 38/38/38
f 50/50/50 38/38/38 51/51/51
f 48/48/48 39/39/39 49/49/49
f 48/48/48 40/40/40 39/39/39
f 52/52/52 51/51/51 38/38/38
f 52/52/52 53/53/53 51/51/51
f 53/53/53 52/52/52 54/54/54
f 52/52/52 38/38/38 37/37/37
f 39/39/39 40/40/40 21/21/21
