mtllib m12310.mtl
usemtl material0
v 768 -3.5455090999603271 384
v 768 -2.7121710777282715 396.27932739257812
v 779.0458984375 -3.5891690254211426 384
v 788.148193359375 -4.4143791198730469 384
v 768 -2.8255939483642578 407.47332763671875
v 789.32647705078125 -4.7476902008056641 406.35299682617188
v 768 -2.7474479675292969 399.76089477539062
v 798.27252197265625 -3.8356480598449707 384
v 821.24627685546875 -2.8927550315856934 404.66177368164062
v 820.15423583984375 -3.1363511085510254 384
v 839.83801317214966 -1.9010560512542725 384
v 768 -3.7402958869934082 439.47506713867188
v 790.99774169921875 -7.32633113861084 438.27154541015625
v 768 -3.0584659576416016 430.06082153320312
v 822.9256591796875 -3.8996479511260986 436.57513427734375
v 853.15203857421875 -3.7783041000366211 402.97964477539062
v 824.59234619140625 -7.361386775970459 468.49655151367188
v 768 -3.7304949760437012 447.94659399986267
v 792.68109130859375 -7.5518021583557129 470.1822509765625
v 852.15802001953125 -2.2927570343017578 384
v 884.16162109375 -1.4799619913101196 384
v 885.0723876953125 -1.8321770429611206 401.28811645507812
v 870.2313232421875 -2.3119039535522461 384
v 896 -1.680433988571167 389.14273071289062
v 896 -1.9048930406570435 400.7113037109375
v 896 -1.5779010057449341 384
v 886.7550048828125 -2.1979689598083496 433.19937133789062
v 854.82281494140625 -6.4419050216674805 434.89849853515625
v 896 -2.1510329246520996 422.9239501953125
v 896 -2.3266899585723877 432.71157836914062
v 888.43157958984375 -3.7422630786895752 465.114501953125
v 896 -2.8281950950622559 441.52200317382812
v 856.50048828125 -7.7684288024902344 466.81283569335938
v 768 -6.7618408203125 471.48318481445312
v 768 -8.1661195755004883 497.61309814453125
v 768 -8.1415281295776367 503.48626708984375
v 794.3665771484375 -7.3684020042419434 502.09161376953125
v 826.28869581222534 -5.06279182434082 500.39898681640625
v 794.8896484375 -7.36279296875 512
v 785.451904296875 -7.3890819549560547 512
v 768 -7.9654111862182617 510.39056396484375
v 768 -7.9243569374084473 512
v 826.89654493331909 -5.9235248565673828 512
v 815.84942626953125 -5.8525509834289551 512
v 858.1893310546875 -6.9278149604797363 498.72006225585938
v 846.2408447265625 -7.1266779899597168 512
v 890.09552001953125 -7.7194290161132812 497.03759765625
v 896 -7.0883941650390625 490.47647094726562
v 896 -7.24592399597168 496.724365234375
v 896 -3.9189920425415039 464.71536254882812
v 890.89471435546875 -5.9750938415527344 512
v 872.96124267578125 -5.64133882522583 512
v 858.892578125 -6.516693115234375 512
v 896 -6.6268267631530762 502.25299072265625
v 896 -5.5353531837463379 512
vt 0.98621100187301636 0.0019980072975158691
vt 0.89165300130844116 0.0019729733467102051
vt 0.98621100187301636 0.086863994598388672
vt 0.9863860011100769 0.15708297491073608
vt 0.80564600229263306 0.0022659897804260254
vt 0.81466400623321533 0.16675901412963867
vt 0.86490297317504883 0.0020639896392822266
vt 0.98674201965332031 0.23499399423599243
vt 0.828781008720398 0.41234898567199707
vt 0.98749297857284546 0.40319401025772095
vt 0.98812699317932129 0.554720014333725
vt 0.55958402156829834 0.003666996955871582
vt 0.56880402565002441 0.18249398469924927
vt 0.63209801912307739 0.00286102294921875
vt 0.58514302968978882 0.42900699377059937
vt 0.84678202867507935 0.65725699067115784
vt 0.33847999572753906 0.4422910213470459
vt 0.49449801445007324 0.0036450028419494629
vt 0.32363399863243103 0.19550299644470215
vt 0.98821800947189331 0.64942198991775513
vt 0.9941139817237854 0.895226001739502
vt 0.86619299650192261 0.90253199636936188
vt 0.99345201253890991 0.78801199793815613
vt 0.9616129994392395 0.98409299924969673
vt 0.87274402379989624 0.98635100014507771
vt 0.99939900636672974 0.985903000459075
vt 0.62141001224517822 0.92166700214147568
vt 0.60097998380661011 0.67467600107192993
vt 0.70212900638580322 0.99067499954253435
vt 0.61449599266052246 0.99802799988538027
vt 0.36558100581169128 0.93466600030660629
vt 0.54687297344207764 0.99313700012862682
vt 0.35148099064826965 0.68745601177215576
vt 0.31218698620796204 0.0058640241622924805
vt 0.11115100234746933 0.0077630281448364258
vt 0.066028997302055359 0.0081819891929626465
vt 0.078541003167629242 0.20971798896789551
vt 0.09274599701166153 0.45554602146148682
vt 0.0024349999148398638 0.21410101652145386
vt 0.0020880000665783882 0.14159202575683594
vt 0.012969000265002251 0.008710026741027832
vt 0.00060099997790530324 0.008845984935760498
vt 0.0034099998883903027 0.46090197563171387
vt 0.0032240001019090414 0.37554997205734253
vt 0.10645800083875656 0.70101198554039
vt 0.0038829999975860119 0.6098099946975708
vt 0.1178629994392395 0.946297001093626
vt 0.16830199956893921 0.991886000148952
vt 0.11944399774074554 0.99184300005435944
vt 0.36848300695419312 0.99283900018781424
vt 0.0020800000056624413 0.95142700150609016
vt 0.0029849999118596315 0.81362399458885193
vt 0.0044200001284480095 0.70712399482727051
vt 0.0767040029168129 0.99146199971437454
vt 0.0013530000578612089 0.99078899994492531
vn 0.0039440002292394638 0.99769699573516846 -0.067708998918533325
vn 0.070247001945972443 0.997497022151947 -0.008050999604165554
vn 0.067327998578548431 0.99767398834228516 -0.010689999908208847
vn 0.019137000665068626 0.99971997737884521 0.013898000121116638
vn 0.090288996696472168 0.99586397409439087 0.010181999765336514
vn 0.026141999289393425 0.99892598390579224 0.038254000246524811
vn 0.090285003185272217 0.995864987373352 0.010089999996125698
vn -0.05121299996972084 0.99862301349639893 0.011371999979019165
vn -0.027471000328660011 0.99910998344421387 0.032010000199079514
vn -0.046771001070737839 0.99886202812194824 -0.0093040000647306442
vn 0.0065290001221001148 0.99852997064590454 0.053801000118255615
vn 0.15571899712085724 0.98721402883529663 0.034058999270200729
vn 0.045014999806880951 0.997838020324707 0.047878000885248184
vn 0.14170600473880768 0.98826301097869873 0.057057000696659088
vn -0.024670999497175217 0.99730801582336426 0.069044999778270721
vn -0.0087890001013875 0.99825000762939453 0.0584850013256073
vn -0.0089600002393126488 0.99994200468063354 0.0058949999511241913
vn 0.1236800029873848 0.9917680025100708 0.033158000558614731
vn 0.013229000382125378 0.99980401992797852 0.014751000329852104
vn 0.016892999410629272 0.99687701463699341 0.07714100182056427
vn -0.026805000379681587 0.99940401315689087 0.021772999316453934
vn -0.026133999228477478 0.99950999021530151 0.017217999324202538
vn -0.043432999402284622 0.99833202362060547 0.03804900124669075
vn 0.0081329997628927231 0.999770998954773 0.019807999953627586
vn 0.0074649997986853123 0.99985402822494507 0.015379000455141068
vn 0.00827100034803152 0.999767005443573 0.019933000206947327
vn -0.04747999832034111 0.99793100357055664 0.043343000113964081
vn -0.021952999755740166 0.99769300222396851 0.064244002103805542
vn 0.0090180002152919769 0.999879002571106 0.012680999934673309
vn 0.01585100032389164 0.99919897317886353 0.036743998527526855
vn -0.029647000133991241 0.99723798036575317 0.068103000521659851
vn 0.023424999788403511 0.99849498271942139 0.049589000642299652
vn -0.041547998785972595 0.99905902147293091 0.012409999966621399
vn 0.036575999110937119 0.995311975479126 0.089534997940063477
vn -0.014537000097334385 0.99985098838806152 0.0093120001256465912
vn -0.030108999460935593 0.99943101406097412 -0.015193000435829163
vn -0.047582000494003296 0.9988589882850647 -0.00395999988541007
vn 0.0052899997681379318 0.99997097253799438 0.0054060001857578754
vn -0.038509000092744827 0.99925702810287476 0.0014669999945908785
vn -0.023215999826788902 0.99955397844314575 -0.01880200020968914
vn -0.030647000297904015 0.99920499324798584 -0.025488000363111496
vn -0.030647000297904015 0.99920499324798584 -0.025488000363111496
vn 0.035142999142408371 0.9967769980430603 0.072113998234272
vn -0.0510220006108284 0.99845397472381592 0.022058000788092613
vn -0.0014550000196322799 0.99997299909591675 -0.0072539998218417168
vn 0.03259500116109848 0.99848699569702148 0.044279001653194427
vn -0.015091000124812126 0.99985402822494507 -0.0080040004104375839
vn 0.0043779998086392879 0.9950140118598938 0.099638000130653381
vn -0.0820240005850792 0.99579298496246338 -0.040848001837730408
vn 0.027657000347971916 0.99613499641418457 0.083362996578216553
vn -0.035319998860359192 0.99286800622940063 -0.11386299878358841
vn -0.00029200001154094934 0.99537199735641479 -0.096100002527236938
vn -0.05534999817609787 0.998075008392334 -0.027967000380158424
vn -0.085288003087043762 0.99016797542572021 -0.11087899655103684
vn -0.085288003087043762 0.99016797542572021 -0.11087899655103684
f 1/1/1 2/2/2 3/3/3
f 4/4/4 5/5/5 6/6/6
f 4/4/4 7/7/7 5/5/5
f 7/7/7 3/3/3 2/2/2
f 7/7/7 4/4/4 3/3/3
f 8/8/8 9/9/9 10/10/10
f 10/10/10 9/9/9 11/11/11
f 6/6/6 12/12/12 13/13/13
f 6/6/6 14/14/14 12/12/12
f 14/14/14 6/6/6 5/5/5
f 9/9/9 13/13/13 15/15/15
f 13/13/13 9/9/9 6/6/6
f 15/15/15 16/16/16 9/9/9
f 15/15/15 13/13/13 17/17/17
f 8/8/8 6/6/6 9/9/9
f 8/8/8 4/4/4 6/6/6
f 13/13/13 18/18/18 19/19/19
f 13/13/13 12/12/12 18/18/18
f 20/20/20 9/9/9 16/16/16
f 20/20/20 11/11/11 9/9/9
f 21/21/21 16/16/16 22/22/22
f 21/21/21 23/23/23 16/16/16
f 20/20/20 16/16/16 23/23/23
f 24/24/24 22/22/22 25/25/25
f 26/26/26 22/22/22 24/24/24
f 26/26/26 21/21/21 22/22/22
f 22/22/22 16/16/16 27/27/27
f 27/27/27 16/16/16 28/28/28
f 25/25/25 27/27/27 29/29/29
f 25/25/25 22/22/22 27/27/27
f 29/29/29 27/27/27 30/30/30
f 27/27/27 28/28/28 31/31/31
f 30/30/30 27/27/27 32/32/32
f 28/28/28 16/16/16 15/15/15
f 28/28/28 15/15/15 33/33/33
f 34/34/34 35/35/35 19/19/19
f 19/19/19 36/36/36 37/37/37
f 19/19/19 35/35/35 36/36/36
f 19/19/19 17/17/17 13/13/13
f 17/17/17 33/33/33 15/15/15
f 19/19/19 38/38/38 17/17/17
f 18/18/18 34/34/34 19/19/19
f 17/17/17 38/38/38 33/33/33
f 39/39/39 37/37/37 40/40/40
f 41/41/41 37/37/37 36/36/36
f 41/41/41 40/40/40 37/37/37
f 41/41/41 42/42/42 40/40/40
f 43/43/43 38/38/38 44/44/44
f 39/39/39 38/38/38 37/37/37
f 39/39/39 44/44/44 38/38/38
f 43/43/43 45/45/45 38/38/38
f 43/43/43 46/46/46 45/45/45
f 19/19/19 37/37/37 38/38/38
f 33/33/33 38/38/38 45/45/45
f 31/31/31 45/45/45 47/47/47
f 45/45/45 31/31/31 33/33/33
f 48/48/48 47/47/47 49/49/49
f 47/47/47 50/50/50 31/31/31
f 47/47/47 48/48/48 50/50/50
f 32/32/32 31/31/31 50/50/50
f 32/32/32 27/27/27 31/31/31
f 51/51/51 45/45/45 52/52/52
f 51/51/51 47/47/47 45/45/45
f 52/52/52 45/45/45 53/53/53
f 49/49/49 47/47/47 54/54/54
f 54/54/54 51/51/51 55/55/55
f 54/54/54 47/47/47 51/51/51
f 53/53/53 45/45/45 46/46/46
f 28/28/28 33/33/33 31/31/31
