mtllib m12300.mtl
usemtl material0
v 516.1748046875 -0.60321402549743652 384
v 532.36749267578125 -3.2362339496612549 387.91854858398438
v 528.01763916015625 -2.5994589328765869 384
v 516.42608642578125 -0.52861201763153076 388.7520751953125
v 512 0.046638999134302139 388.98403930664062
v 512 -0.0019399999873712659 386.82577514648438
v 512 -0.0655440017580986 384
v 517.2711181640625 0.024994999170303345 404.70523071289062
v 512 0.50179100036621094 399.95907592773438
v 512 0.39164999127388 404.98248291015625
v 512 0.013894000090658665 410.56396484375
v 512 -1.54647696018219 427.45150756835938
v 518.1063232421875 -1.3809100389480591 420.6649169921875
v 512 -0.85479897260665894 420.98577880859375
v 534.04510498046875 -4.5973129272460938 419.83303833007812
v 512 -2.326056957244873 436.98974609375
v 518.94171142578125 -2.7385520935058594 436.62442016601562
v 512 -3.3933639526367188 452.99246215820312
v 512 -3.7811019420623779 461.22866821289062
v 519.779541015625 -3.6153209209442139 452.58230590820312
v 512 -2.9321849346160889 444.33947801589966
v 535.7283935546875 -4.8439669609069824 451.74383497238159
v 520.622314453125 -3.5165970325469971 468.5369873046875
v 512 -3.7439780235290527 468.99298095703125
v 512 -3.5420300960540771 475.97702026367188
v 521.467041015625 -3.0317249298095703 484.49038696289062
v 512 -1.778784990310669 502.40530395507812
v 512 -3.1391580104827881 484.99063110351562
v 512 -1.4799220561981201 506.23114013671875
v 512 -0.979278028011322 512
v 537.10699462890625 -0.090980000793933868 512
v 537.4185791015625 -3.733036994934082 483.65017700195312
v 532.1605224609375 -3.2550070285797119 384
v 535.89227294921875 -3.5892829895019531 384
v 564.13934326171875 -7.1372189521789551 384
v 564.25762939453125 -7.2034897804260254 386.24664306640625
v 595.54736328125 -6.7780828475952148 384
v 596.169921875 -6.7878270149230957 384.56021118164062
v 596.14068603515625 -6.732384204864502 384
v 565.94287109375 -7.0597128868103027 418.15615844726562
v 597.8509521484375 -7.4770421981811523 416.47247314453125
v 606.75579833984375 -6.3935351371765137 384
v 629.76788330078125 -6.1700949668884277 414.78305053710938
v 628.145751953125 -5.6192412376403809 384
v 567.63128662109375 -6.2966198921203613 450.06359910964966
v 569.32568407058716 -4.3566040992736816 481.9671630859375
v 599.54437255859375 -5.7374048233032227 448.37667798995972
v 631.45428466796875 -5.8083620071411133 446.69183301925659
v 601.2332763671875 -4.88330602645874 480.28384399414062
v 640 -5.5217652320861816 403.411865234375
v 640 -5.1323838233947754 384
v 640 -5.77702522277832 414.24154663085938
v 640 -5.5640192031860352 437.19406127929688
v 640 -5.1166467666625977 446.23846399784088
v 640 -4.9299111366271973 454.37344408035278
v 633.14813232421875 -3.9806480407714844 478.59579467773438
v 538.9339599609375 -0.15897800028324127 512
v 542.313720703125 -0.20243200659751892 512
v 570.9305419921875 -0.66511297225952148 512
v 602.9110107421875 -4.2321701049804688 512
v 602.70806884765625 -4.2290492057800293 512
v 603.09356689453125 -4.2268218994140625 512
v 633.4803466796875 -7.6923727989196777 512
v 634.8134765625 -7.742976188659668 510.51815795898438
v 606.57366943359375 -4.630770206451416 512
v 640 -6.8189678192138672 504.75567626953125
v 640 -7.596412181854248 510.24383544921875
v 640 -3.631289005279541 478.23291015625
v 640 -7.7249259948730469 512
v 636.45989990234375 -7.8112611770629883 512
v 640 -7.6340179443359375 510.75772094726562
v 634.89111328125 -7.8567500114440918 512
vt 0.032717000693082809 0.031310021877288818
vt 0.1567469984292984 0.057020008563995361
vt 0.12286800146102905 0.02859199047088623
vt 0.0355600006878376 0.06693798303604126
vt 0.0021049999631941319 0.069634974002838135
vt 0.0016799999866634607 0.053453028202056885
vt 0.0011200000299140811 0.032235026359558105
vt 0.044739000499248505 0.18663102388381958
vt 0.0040199998766183853 0.15210402011871338
vt 0.0051330002024769783 0.18982100486755371
vt 0.0071999998763203621 0.23238599300384522
vt 0.013532999902963638 0.35956698656082153
vt 0.056949000805616379 0.30649197101593018
vt 0.011063000187277794 0.31082797050476074
vt 0.17878599464893341 0.29622501134872437
vt 0.01703299954533577 0.4313499927520752
vt 0.0690860003232956 0.42632699012756348
vt 0.022021999582648277 0.5513710081577301
vt 0.024551000446081162 0.61324000358581543
vt 0.080301001667976379 0.545987993478775
vt 0.019733000546693802 0.48666602373123169
vt 0.20011299848556519 0.53525799512863159
vt 0.09097599983215332 0.66549700498580933
vt 0.0263689998537302 0.6712619960308075
vt 0.028307000175118446 0.72369599342346191
vt 0.10094200074672699 0.78511199355125427
vt 0.035344000905752182 0.92250700294971466
vt 0.030427999794483185 0.79142099618911743
vt 0.034912001341581345 0.95090299844741821
vt 0.036260001361370087 0.99436799995601177
vt 0.22485199570655823 0.98909400030970573
vt 0.22000700235366821 0.77452200651168823
vt 0.15435299277305603 0.027648985385894775
vt 0.18247699737548828 0.026826977729797363
vt 0.39618301391601562 0.020636022090911865
vt 0.397614985704422 0.037478029727935791
vt 0.63194000720977783 0.012955009937286377
vt 0.6367490291595459 0.01700901985168457
vt 0.63640600442886353 0.012790024280548096
vt 0.41850998997688293 0.27586501836776733
vt 0.65765100717544556 0.25587302446365356
vt 0.71612197160720825 0.010209977626800537
vt 0.89693701267242432 0.23466002941131592
vt 0.87649601697921753 0.0040330290794372559
vt 0.43846601247787476 0.51505398750305176
vt 0.45916599035263062 0.75452800095081329
vt 0.67768400907516479 0.49532198905944824
vt 0.91676598787307739 0.47469997406005859
vt 0.69824498891830444 0.7337070107460022
vt 0.97074097394943237 0.14649301767349243
vt 0.965533971786499 0.00077801942825317383
vt 0.97375500202178955 0.22922599315643311
vt 0.97885400056838989 0.40152597427368164
vt 0.98051899671554565 0.46855300664901733
vt 0.98286998271942139 0.52961501479148865
vt 0.93747597932815552 0.71326500177383423
vt 0.23753699660301209 0.988692999817431
vt 0.262908011674881 0.987924000248313
vt 0.47773998975753784 0.98132500052452087
vt 0.71889597177505493 0.9713749997317791
vt 0.71737402677536011 0.97142600081861019
vt 0.72026699781417847 0.97133000008761883
vt 0.9498639702796936 0.96527199819684029
vt 0.959555983543396 0.95385900139808655
vt 0.74656802415847778 0.9706410001963377
vt 0.99680799245834351 0.90857899934053421
vt 0.9984009861946106 0.95017499849200249
vt 0.98889100551605225 0.70895799994468689
vt 0.99888002872467041 0.96358300000429153
vt 0.97230398654937744 0.96455699950456619
vt 0.99855500459671021 0.9540410004556179
vt 0.9605259895324707 0.96499200165271759
vn 0.14635099470615387 0.988959014415741 -0.023264000192284584
vn 0.14961400628089905 0.988735020160675 0.0042610000818967819
vn 0.16387900710105896 0.98624300956726074 -0.02164899930357933
vn 0.14646099507808685 0.98867702484130859 -0.032666999846696854
vn 0.12716600298881531 0.9913640022277832 -0.032046001404523849
vn 0.127701997756958 0.99156099557876587 -0.022319000214338303
vn 0.127702996134758 0.99156099557876587 -0.022319000214338303
vn 0.15114499628543854 0.98812597990036011 0.027615999802947044
vn 0.11173100024461746 0.99344199895858765 -0.024289000779390335
vn 0.071693003177642822 0.996396005153656 0.045331999659538269
vn 0.085862003266811371 0.99316000938415527 0.079131998121738434
vn 0.069833002984523773 0.99375098943710327 0.087076999247074127
vn 0.14250199496746063 0.98645102977752686 0.081290997564792633
vn 0.090391002595424652 0.99139702320098877 0.094659999012947083
vn 0.13659200072288513 0.99036598205566406 0.022776000201702118
vn 0.063401997089385986 0.9946410059928894 0.081671997904777527
vn 0.093993000686168671 0.99415498971939087 0.053105998784303665
vn 0.031116999685764313 0.99826401472091675 0.049998998641967773
vn -0.013186999596655369 0.99988597631454468 0.007306000217795372
vn 0.047338001430034637 0.99846702814102173 0.028699999675154686
vn 0.038796000182628632 0.99744802713394165 0.059941999614238739
vn 0.059652999043464661 0.99816399812698364 -0.010502000339329243
vn 0.012791000306606293 0.99965202808380127 -0.023088999092578888
vn -0.027269000187516212 0.99947899580001831 -0.017239000648260117
vn -0.024096999317407608 0.99916201829910278 -0.033094998449087143
vn 0.0039760000072419643 0.99778997898101807 -0.06632100045681
vn -0.015428000129759312 0.99684399366378784 -0.077869996428489685
vn -0.014592000283300877 0.99798101186752319 -0.061817001551389694
vn -0.03264399990439415 0.99582099914550781 -0.085294000804424286
vn -0.0352259986102581 0.99563699960708618 -0.086405001580715179
vn 0.012672999873757362 0.99346798658370972 -0.11340600252151489
vn 0.027914000675082207 0.99633198976516724 -0.080889001488685608
vn 0.12392199784517288 0.99222797155380249 -0.01129900012165308
vn 0.11520499736070633 0.993241012096405 0.014140999875962734
vn 0.059055998921394348 0.99790698289871216 0.026326000690460205
vn 0.050275001674890518 0.99861299991607666 0.015664000064134598
vn -0.02667899988591671 0.99853801727294922 0.0470150001347065
vn -0.028333000838756561 0.99838900566101074 0.049157001078128815
vn -0.054744001477956772 0.99336200952529907 0.10116700083017349
vn 0.041085001081228256 0.99906998872756958 -0.013100000098347664
vn -0.018343999981880188 0.99976402521133423 -0.011633999645709992
vn -0.036095000803470612 0.99912500381469727 0.021144000813364983
vn -0.034230999648571014 0.99941402673721313 0.0006120000034570694
vn -0.038518000394105911 0.99905997514724731 0.019906999543309212
vn 0.023926999419927597 0.99894499778747559 -0.039186000823974609
vn 0.030240999534726143 0.99653899669647217 -0.077428996562957764
vn -0.018851000815629959 0.9990990161895752 -0.03801799938082695
vn -0.032005000859498978 0.9989050030708313 -0.034127999097108841
vn -0.0115769999101758 0.99956101179122925 -0.027279999107122421
vn -0.040118999779224396 0.99897700548172 0.020856000483036041
vn -0.041026998311281204 0.99895697832107544 0.020037999376654625
vn -0.037978999316692352 0.99924898147583008 0.0076930001378059387
vn -0.049256999045610428 0.99861198663711548 -0.018628999590873718
vn -0.082547999918460846 0.99591898918151855 -0.036474000662565231
vn -0.061236999928951263 0.99706697463989258 -0.045896999537944794
vn -0.017640000209212303 0.999688982963562 0.017613999545574188
vn 0.024443000555038452 0.991686999797821 -0.1263280063867569
vn 0.013635000213980675 0.99206799268722534 -0.1249610036611557
vn 0.064730003476142883 0.99002397060394287 -0.1251479983329773
vn -0.0077039999887347221 0.99976801872253418 -0.020116999745368958
vn 0.037810001522302628 0.998212993144989 -0.046266999095678329
vn 0.0093759996816515923 0.99983102083206177 0.015806000679731369
vn 0.11350700259208679 0.99118900299072266 0.068268001079559326
vn 0.042534999549388886 0.99444198608398438 0.096308998763561249
vn 0.11456699669361115 0.98734301328659058 0.1096699982881546
vn -0.03877900168299675 0.99151402711868286 0.12408500164747238
vn -0.022383000701665878 0.99391597509384155 0.1078450009226799
vn -0.04933600127696991 0.99834400415420532 0.02957800030708313
vn -0.024315999820828438 0.99703800678253174 0.0729610025882721
vn -0.025388000532984734 0.99692398309707642 0.074147000908851624
vn -0.024315999820828438 0.99703800678253174 0.072962000966072083
vn 0.0408330000936985 0.99639499187469482 0.074363000690937042
f 1/1/1 2/2/2 3/3/3
f 1/1/1 4/4/4 2/2/2
f 5/5/5 4/4/4 6/6/6
f 6/6/6 1/1/1 7/7/7
f 6/6/6 4/4/4 1/1/1
f 5/5/5 8/8/8 4/4/4
f 5/5/5 9/9/9 8/8/8
f 10/10/10 11/11/11 8/8/8
f 12/12/12 13/13/13 14/14/14
f 11/11/11 13/13/13 8/8/8
f 11/11/11 14/14/14 13/13/13
f 13/13/13 15/15/15 8/8/8
f 13/13/13 16/16/16 17/17/17
f 13/13/13 12/12/12 16/16/16
f 9/9/9 10/10/10 8/8/8
f 18/18/18 19/19/19 20/20/20
f 18/18/18 17/17/17 21/21/21
f 18/18/18 20/20/20 17/17/17
f 20/20/20 22/22/22 17/17/17
f 23/23/23 22/22/22 20/20/20
f 24/24/24 20/20/20 19/19/19
f 24/24/24 23/23/23 20/20/20
f 21/21/21 17/17/17 16/16/16
f 23/23/23 25/25/25 26/26/26
f 23/23/23 24/24/24 25/25/25
f 13/13/13 17/17/17 15/15/15
f 27/27/27 26/26/26 28/28/28
f 27/27/27 29/29/29 26/26/26
f 25/25/25 28/28/28 26/26/26
f 30/30/30 26/26/26 29/29/29
f 30/30/30 31/31/31 26/26/26
f 23/23/23 26/26/26 32/32/32
f 4/4/4 8/8/8 2/2/2
f 3/3/3 2/2/2 33/33/33
f 33/33/33 2/2/2 34/34/34
f 35/35/35 2/2/2 36/36/36
f 35/35/35 34/34/34 2/2/2
f 37/37/37 38/38/38 39/39/39
f 36/36/36 15/15/15 40/40/40
f 15/15/15 36/36/36 2/2/2
f 40/40/40 41/41/41 38/38/38
f 40/40/40 38/38/38 36/36/36
f 39/39/39 38/38/38 42/42/42
f 42/42/42 43/43/43 44/44/44
f 42/42/42 38/38/38 43/43/43
f 37/37/37 36/36/36 38/38/38
f 37/37/37 35/35/35 36/36/36
f 40/40/40 15/15/15 45/45/45
f 45/45/45 22/22/22 46/46/46
f 15/15/15 22/22/22 45/45/45
f 43/43/43 41/41/41 47/47/47
f 41/41/41 43/43/43 38/38/38
f 43/43/43 47/47/47 48/48/48
f 47/47/47 41/41/41 45/45/45
f 41/41/41 40/40/40 45/45/45
f 47/47/47 45/45/45 49/49/49
f 50/50/50 44/44/44 43/43/43
f 50/50/50 51/51/51 44/44/44
f 22/22/22 15/15/15 17/17/17
f 48/48/48 52/52/52 43/43/43
f 48/48/48 53/53/53 52/52/52
f 54/54/54 48/48/48 55/55/55
f 53/53/53 48/48/48 54/54/54
f 50/50/50 43/43/43 52/52/52
f 48/48/48 47/47/47 56/56/56
f 31/31/31 32/32/32 26/26/26
f 31/31/31 57/57/57 32/32/32
f 32/32/32 58/58/58 46/46/46
f 32/32/32 57/57/57 58/58/58
f 59/59/59 46/46/46 58/58/58
f 46/46/46 49/49/49 45/45/45
f 49/49/49 56/56/56 47/47/47
f 46/46/46 60/60/60 49/49/49
f 46/46/46 61/61/61 60/60/60
f 22/22/22 32/32/32 46/46/46
f 49/49/49 62/62/62 56/56/56
f 49/49/49 60/60/60 62/62/62
f 63/63/63 64/64/64 65/65/65
f 61/61/61 46/46/46 59/59/59
f 56/56/56 65/65/65 64/64/64
f 56/56/56 62/62/62 65/65/65
f 66/66/66 64/64/64 67/67/67
f 64/64/64 68/68/68 56/56/56
f 64/64/64 66/66/66 68/68/68
f 69/69/69 64/64/64 70/70/70
f 69/69/69 71/71/71 64/64/64
f 71/71/71 67/67/67 64/64/64
f 70/70/70 64/64/64 72/72/72
f 72/72/72 64/64/64 63/63/63
f 55/55/55 56/56/56 68/68/68
f 55/55/55 48/48/48 56/56/56
f 32/32/32 22/22/22 23/23/23
f 15/15/15 2/2/2 8/8/8
