mtllib m1300.mtl
usemtl material0
v 1123.6639404296875 -12.038169860839844 768
v 1128.6046142578125 -12.186291694641113 772.4462890625
v 1128.37060546875 -12.065089225769043 768
v 1191.21337890625 -13.952920913696289 768
v 1192.4154052734375 -14.016819000244141 769.08203125
v 1192.3585205078125 -13.975875854492188 768
v 1032.3753662109375 -11.631431579589844 768
v 1024 -11.8314208984375 777.96893310546875
v 1032.87841796875 -11.326023101806641 777.4986572265625
v 1024 -12.034407615661621 770.9830322265625
v 1024 -12.12108325958252 768
v 1024 -11.215854644775391 809.96600341796875
v 1024 -11.446360588073731 821.148681640625
v 1034.5682373046875 -10.326801300048828 809.4053955078125
v 1024 -11.821244239807129 787.36553955078125
v 1064.791259765625 -10.840356826782227 775.81201171875
v 1056.104736328125 -11.231101989746094 768
v 1131.95556640625 -15.647520065307617 836.27716064453125
v 1064.3792724609375 -10.758581161499023 768
v 1195.79150390625 -12.677845001220703 832.8975830078125
v 1212.916748046875 -14.197276115417481 768
v 1259.6092529296875 -13.189290046691895 829.5291748046875
v 1256.3538818359375 -14.528783798217773 768
v 1068.1492919921875 -12.949071884155273 839.63861083984375
v 1036.24951171875 -10.949920654296875 841.3172607421875
v 1037.926025390625 -12.486899375915527 873.23211669921875
v 1024 -11.94014835357666 841.967041015625
v 1280 -14.755405426025391 768
v 1258.7734375 -14.655509948730469 768
v 1280 -15.298497200012207 787.1025390625
v 1135.330078125 -14.589529991149902 900.09356689453125
v 1024 -12.919463157653809 860.7064208984375
v 1024 -11.738615989685059 888.71240186691284
v 1024 -12.892402648925781 873.9686279296875
v 1024 -11.129922866821289 905.96240234375
v 1039.6162109375 -11.385555267333984 905.13848876953125
v 1024 -11.08464527130127 922.496337890625
v 1041.3023681640625 -11.08772087097168 937.0474853515625
v 1024 -10.933437347412109 937.960693359375
v 1071.50537109375 -15.414454460144043 903.46624803543091
v 1262.9678955078125 -15.168351173400879 893.35528588294983
v 1280 -14.283640861511231 828.45556640625
v 1280 -14.091941833496094 847.88165283203125
v 1138.7027587890625 -13.899925231933594 963.91119384765625
v 1199.1378173828125 -17.006959915161133 896.73120099306107
v 1202.5172119140625 -15.045895576477051 960.54473876953125
v 1280 -15.43380069732666 892.4566650390625
v 1280 -15.614814758300781 908.68243408203125
v 1266.325439453125 -17.340997695922852 957.181884765625
v 1074.8846435546875 -13.477801322937012 967.2799072265625
v 1042.9864501953125 -11.173480033874512 968.95770263671875
v 1077.8782958984375 -13.577232360839844 1024
v 1074.2236328125 -13.313616752624512 1024
v 1024 -11.134631156921387 969.96014404296875
v 1024 -11.099436759948731 956.27850341796875
v 1024 -12.159152984619141 1012.5247192382813
v 1024 -12.49980640411377 1024
v 1084.6409912109375 -13.622463226318359 1024
v 1141.875732421875 -13.745055198669434 1024
v 1145.4288330078125 -13.808202743530273 1024
v 1206.218505859375 -13.282634735107422 1024
v 1205.8765869140625 -13.270874977111816 1024
v 1212.707275390625 -13.536654472351074 1024
v 1269.702392578125 -15.84450626373291 1020.9969482421875
v 1267.0006103515625 -15.780736923217773 1024
v 1269.8604736328125 -15.916267395019531 1024
v 1280 -16.029321670532227 1009.5509643554688
v 1280 -17.252798080444336 956.45953369140625
v 1280 -15.890748023986816 1020.4533081054688
v 1280 -15.950482368469238 1022.9850463867188
v 1280 -15.9744291305542 1024
vt 0.37608501315116882 0.022976994514465332
vt 0.39521300792694092 0.039034008979797363
vt 0.3937549889087677 0.022365987300872803
vt 0.62978798151016235 0.014358997344970703
vt 0.63444298505783081 0.018270015716552734
vt 0.63408797979354858 0.01421201229095459
vt 0.033259999006986618 0.034866988658905029
vt 0.0031109999399632216 0.073386013507843018
vt 0.036435000598430634 0.070474982261657715
vt 0.0021669999696314335 0.047150015830993652
vt 0.0017640000442042947 0.035947024822235107
vt 0.0072200000286102295 0.19353902339935303
vt 0.008488999679684639 0.23534798622131348
vt 0.046794001013040543 0.18982601165771484
vt 0.0043230000883340836 0.10866200923919678
vt 0.15602500736713409 0.0598829984664917
vt 0.12235300242900848 0.031701982021331787
vt 0.41632199287414551 0.278560996055603
vt 0.15346699953079224 0.030606985092163086
vt 0.65577900409698486 0.257423996925354
vt 0.71127098798751831 0.011546015739440918
vt 0.89489501714706421 0.23608100414276123
vt 0.87426400184631348 0.0054960250854492188
vt 0.17697399854660034 0.29918801784515381
vt 0.057183001190423965 0.30943799018859863
vt 0.067759998142719269 0.429144024848938
vt 0.011136000044643879 0.31352698802948
vt 0.963038980960846 0.0021499991416931152
vt 0.88335901498794556 0.0051540136337280273
vt 0.96575301885604858 0.0738840103149414
vt 0.43760201334953308 0.51770401000976562
vt 0.013364000245928764 0.38398098945617676
vt 0.01713000051677227 0.48882997035980225
vt 0.015325999818742275 0.43375998735427856
vt 0.018984999507665634 0.55364099144935608
vt 0.077537998557090759 0.54883700609207153
vt 0.021297000348567963 0.61614799499511719
vt 0.08829999715089798 0.66897401213645935
vt 0.02312999963760376 0.6742120087146759
vt 0.19800299406051636 0.538538008928299
vt 0.91627097129821777 0.47533100843429565
vt 0.97140800952911377 0.22931498289108276
vt 0.97397202253341675 0.30224502086639404
vt 0.45803698897361755 0.75690500438213348
vt 0.67691302299499512 0.4971579909324646
vt 0.69724100828170776 0.73645401000976562
vt 0.9800950288772583 0.46964997053146362
vt 0.98230302333831787 0.53056401014328
vt 0.93764001131057739 0.71460700035095215
vt 0.21888099610805512 0.77778400480747223
vt 0.0990620031952858 0.78852500021457672
vt 0.23743799328804016 0.99033499974757433
vt 0.22383800148963928 0.99104399979114532
vt 0.0279300007969141 0.79492999613285065
vt 0.026025999337434769 0.74357199668884277
vt 0.03386399894952774 0.954755000770092
vt 0.035466000437736511 0.99784999992698431
vt 0.26282700896263123 0.98946299962699413
vt 0.47729301452636719 0.982116000726819
vt 0.49063500761985779 0.98168100044131279
vt 0.71995502710342407 0.97423199936747551
vt 0.71866798400878906 0.97428099997341633
vt 0.74433201551437378 0.97336399927735329
vt 0.95916199684143066 0.95375600084662437
vt 0.9483029842376709 0.96552500128746033
vt 0.960174024105072 0.96500999853014946
vt 0.99623298645019531 0.90935800224542618
vt 0.98887401819229126 0.71000900864601135
vt 0.99774301052093506 0.95028699934482574
vt 0.99809497594833374 0.95979399979114532
vt 0.99823600053787231 0.96360500156879425
vn 0.017878999933600426 0.999750018119812 0.013438000343739986
vn 0.024731000885367393 0.99899798631668091 0.037292998284101486
vn 0.017457999289035797 0.99950098991394043 0.026327000930905342
vn 0.027688000351190567 0.99921697378158569 0.028248999267816544
vn 0.0087550003081560135 0.99983501434326172 0.015938999131321907
vn 0.015550999902188778 0.99919497966766357 0.036991000175476074
vn -0.038320999592542648 0.99881201982498169 -0.030084999278187752
vn -0.057596001774072647 0.99823397397995 -0.014577999711036682
vn -0.040794998407363892 0.99882501363754272 -0.026142999529838562
vn -0.05833899974822998 0.997875988483429 -0.028994999825954437
vn -0.05833899974822998 0.997875988483429 -0.0289939995855093
vn -0.0839489996433258 0.9964669942855835 -0.00228299992159009
vn -0.080105997622013092 0.99652302265167236 0.022913999855518341
vn -0.023082999512553215 0.99972301721572876 0.0046649998985230923
vn -0.078599996864795685 0.99669098854064941 -0.020702000707387924
vn 0.0088499998673796654 0.999904990196228 0.01055500004440546
vn -0.026224000379443169 0.999439001083374 -0.020829999819397926
vn 0.0049729999154806137 0.999966025352478 0.0065000001341104507
vn -0.0190420001745224 0.99975299835205078 0.011470000259578228
vn -0.012826000340282917 0.99987798929214478 0.0089279999956488609
vn 0.007683000061661005 0.99974602460861206 -0.021170999854803085
vn 0.026079000905156136 0.99965900182724 -0.0014120000414550304
vn 0.029224999248981476 0.999301016330719 -0.023300999775528908
vn 0.044002998620271683 0.99869102239608765 0.026083000004291534
vn -0.0072169997729361057 0.99939000606536865 0.034171000123023987
vn 0.021606000140309334 0.99976599216461182 0.0014669999945908785
vn -0.078495003283023834 0.99617701768875122 0.038341999053955078
vn 0.00470399996265769 0.999584972858429 0.028418999165296555
vn 0.041207000613212585 0.99907702207565308 -0.012160000391304493
vn 0.0396139994263649 0.9991610050201416 -0.010386999696493149
vn 0.0063840001821517944 0.99997901916503906 0.00093300000298768282
vn -0.064799003303051 0.997189998626709 0.037606000900268555
vn 0.003392999991774559 0.99897098541259766 -0.045235000550746918
vn -0.031263001263141632 0.99865800142288208 -0.041283998638391495
vn 0.015390999615192413 0.99971097707748413 -0.018453000113368034
vn 0.068697996437549591 0.99733501672744751 -0.024557000026106834
vn 0.010224999859929085 0.99991500377655029 -0.00813599955290556
vn 0.053885001689195633 0.99847501516342163 -0.012012000195682049
vn 0.0089149996638298035 0.99996000528335571 -4.1999999666586518E-05
vn 0.046953998506069183 0.99889397621154785 -0.0023650000803172588
vn -0.00292899995110929 0.99940001964569092 0.034504998475313187
vn 0.052668999880552292 0.99845999479293823 -0.017426999285817146
vn 0.026755999773740768 0.99945300817489624 0.019430000334978104
vn 0.008822999894618988 0.99992001056671143 -0.0090579995885491371
vn 0.014000999741256237 0.999567985534668 0.025828000158071518
vn 0.024941999465227127 0.99937701225280762 -0.024988999590277672
vn 0.016683999449014664 0.999642014503479 0.020935999229550362
vn 0.00091399997472763062 0.99960500001907349 0.028101999312639236
vn 0.0070239999331533909 0.99996799230575562 -0.0037370000500231981
vn 0.042824000120162964 0.9990050196647644 -0.012428999878466129
vn 0.034212999045848846 0.99937701225280762 0.0086270002648234367
vn 0.038242001086473465 0.99926799535751343 -0.00026699999580159783
vn 0.053263001143932343 0.99854397773742676 0.0085979998111724854
vn 0.0027679998893290758 0.99990302324295044 0.013678999617695808
vn 0.0038640000857412815 0.9999840259552002 0.00408599991351366
vn 0.014510000124573708 0.99947601556777954 0.028936000540852547
vn 0.016194000840187073 0.99942898750305176 0.029668999835848808
vn 0.005475000012665987 0.9999849796295166 0.00030899999546818435
vn 0.010218000039458275 0.99994301795959473 -0.0031169999856501818
vn 0.010657999664545059 0.99989402294158936 -0.0099149998277425766
vn 0.035624999552965164 0.99895501136779785 -0.0286250002682209
vn 0.013461999595165253 0.99949800968170166 -0.028671000152826309
vn 0.039142001420259476 0.99892598390579224 -0.024800999090075493
vn 0.021820999681949615 0.99976199865341187 -0.00028199999360367656
vn 0.042902000248432159 0.9989280104637146 0.017386000603437424
vn 0.025831999257206917 0.999413013458252 0.022522000595927238
vn -0.0049870000220835209 0.9997749924659729 -0.0206300001591444
vn -0.0061019998975098133 0.99996000528335571 0.006577999796718359
vn 0.0047459998168051243 0.9999769926071167 0.0048310002312064171
vn 0.005733999889343977 0.99970501661300659 0.023586999624967575
vn 0.005735000129789114 0.99970501661300659 0.023586999624967575
f 1/1/1 2/2/2 3/3/3
f 4/4/4 5/5/5 6/6/6
f 7/7/7 8/8/8 9/9/9
f 7/7/7 10/10/10 8/8/8
f 10/10/10 7/7/7 11/11/11
f 12/12/12 13/13/13 14/14/14
f 15/15/15 14/14/14 9/9/9
f 15/15/15 12/12/12 14/14/14
f 15/15/15 9/9/9 8/8/8
f 16/16/16 7/7/7 9/9/9
f 16/16/16 17/17/17 7/7/7
f 2/2/2 16/16/16 18/18/18
f 17/17/17 16/16/16 19/19/19
f 5/5/5 18/18/18 20/20/20
f 4/4/4 2/2/2 5/5/5
f 4/4/4 3/3/3 2/2/2
f 6/6/6 5/5/5 21/21/21
f 21/21/21 22/22/22 23/23/23
f 21/21/21 5/5/5 22/22/22
f 2/2/2 19/19/19 16/16/16
f 2/2/2 1/1/1 19/19/19
f 5/5/5 2/2/2 18/18/18
f 24/24/24 14/14/14 25/25/25
f 16/16/16 14/14/14 24/24/24
f 24/24/24 25/25/25 26/26/26
f 27/27/27 14/14/14 13/13/13
f 27/27/27 25/25/25 14/14/14
f 16/16/16 24/24/24 18/18/18
f 28/28/28 29/29/29 30/30/30
f 18/18/18 24/24/24 31/31/31
f 14/14/14 16/16/16 9/9/9
f 25/25/25 32/32/32 26/26/26
f 25/25/25 27/27/27 32/32/32
f 33/33/33 26/26/26 34/34/34
f 32/32/32 34/34/34 26/26/26
f 26/26/26 35/35/35 36/36/36
f 26/26/26 33/33/33 35/35/35
f 37/37/37 38/38/38 36/36/36
f 37/37/37 39/39/39 38/38/38
f 36/36/36 40/40/40 26/26/26
f 38/38/38 40/40/40 36/36/36
f 37/37/37 36/36/36 35/35/35
f 40/40/40 24/24/24 26/26/26
f 22/22/22 20/20/20 41/41/41
f 20/20/20 22/22/22 5/5/5
f 30/30/30 22/22/22 42/42/42
f 30/30/30 29/29/29 22/22/22
f 29/29/29 23/23/23 22/22/22
f 42/42/42 22/22/22 43/43/43
f 40/40/40 44/44/44 31/31/31
f 31/31/31 45/45/45 20/20/20
f 45/45/45 41/41/41 20/20/20
f 31/31/31 46/46/46 45/45/45
f 47/47/47 41/41/41 48/48/48
f 43/43/43 41/41/41 47/47/47
f 43/43/43 22/22/22 41/41/41
f 45/45/45 49/49/49 41/41/41
f 24/24/24 40/40/40 31/31/31
f 18/18/18 31/31/31 20/20/20
f 50/50/50 38/38/38 51/51/51
f 40/40/40 38/38/38 50/50/50
f 52/52/52 51/51/51 53/53/53
f 52/52/52 50/50/50 51/51/51
f 54/54/54 38/38/38 55/55/55
f 54/54/54 51/51/51 38/38/38
f 56/56/56 51/51/51 54/54/54
f 57/57/57 51/51/51 56/56/56
f 57/57/57 53/53/53 51/51/51
f 58/58/58 50/50/50 52/52/52
f 58/58/58 44/44/44 50/50/50
f 55/55/55 38/38/38 39/39/39
f 59/59/59 44/44/44 58/58/58
f 44/44/44 60/60/60 46/46/46
f 44/44/44 59/59/59 60/60/60
f 61/61/61 46/46/46 62/62/62
f 61/61/61 49/49/49 46/46/46
f 31/31/31 44/44/44 46/46/46
f 49/49/49 63/63/63 64/64/64
f 49/49/49 61/61/61 63/63/63
f 62/62/62 46/46/46 60/60/60
f 44/44/44 40/40/40 50/50/50
f 65/65/65 66/66/66 64/64/64
f 65/65/65 64/64/64 63/63/63
f 67/67/67 49/49/49 64/64/64
f 67/67/67 68/68/68 49/49/49
f 66/66/66 69/69/69 64/64/64
f 66/66/66 70/70/70 69/69/69
f 70/70/70 66/66/66 71/71/71
f 68/68/68 41/41/41 49/49/49
f 68/68/68 48/48/48 41/41/41
f 67/67/67 64/64/64 69/69/69
f 49/49/49 45/45/45 46/46/46
