mtllib m1301.mtl
usemtl material0
v 1326.3380126953125 -14.840577125549316 768
v 1387.238525390625 -15.397409439086914 822.7960205078125
v 1384.34814453125 -14.980396270751953 768
v 1393.9012451171875 -15.186270713806152 768
v 1451.0517578125 -16.750829696655273 819.4302978515625
v 1448.3199462890625 -19.799036026000977 768
v 1280 -14.755405426025391 768
v 1323.41162109375 -16.613504409790039 826.16998291015625
v 1320.3499755859375 -14.945298194885254 768
v 1280 -15.298497200012207 787.1025390625
v 1390.5931396484375 -18.097648620605469 886.6243896484375
v 1454.4124755859375 -18.301187515258789 883.2550048828125
v 1280 -14.283640861511231 828.45556640625
v 1280 -14.091941833496094 847.88165283203125
v 1326.7830810546875 -16.162923812866211 889.98834180831909
v 1280 -15.43380069732666 892.4566650390625
v 1330.14794921875 -16.929346084594727 953.810546875
v 1280 -15.614814758300781 908.68243408203125
v 1393.96826171875 -16.961763381958008 950.4405517578125
v 1457.769775390625 -20.498735427856445 947.0816650390625
v 1518.2135009765625 -21.9077205657959 879.8963623046875
v 1514.8427734375 -22.227931976318359 816.07769775390625
v 1280 -16.029321670532227 1009.5509643554688
v 1280 -17.252798080444336 956.45953369140625
v 1280 -15.950482368469238 1022.9850463867188
v 1333.521240234375 -16.131084442138672 1017.6278076171875
v 1280 -15.890748023986816 1020.4533081054688
v 1327.787841796875 -16.248544692993164 1024
v 1280 -15.9744291305542 1024
v 1397.336669921875 -17.068269729614258 1014.2606811523438
v 1461.146240234375 -19.098434448242188 1010.89697265625
v 1397.8498544692993 -17.233352661132812 1024
v 1340.60205078125 -16.343893051147461 1024
v 1333.856201171875 -16.404481887817383 1024
v 1461.8385009765625 -18.99824333190918 1024
v 1449.3577880859375 -18.913482666015625 1024
v 1510.1431884765625 -20.030132293701172 1024
v 1524.9591064453125 -20.491144180297852 1007.5313110351563
v 1521.592529296875 -20.0413818359375 943.710205078125
v 1497.304443359375 -24.720298767089844 768
v 1536 -24.107969284057617 768
v 1536 -22.311508178710938 792.5618896484375
v 1512.2843017578125 -25.942228317260742 768
v 1536 -21.308551788330078 860.12890625
v 1536 -21.44671630859375 814.95819091796875
v 1536 -21.199550628662109 878.95513916015625
v 1525.827880859375 -20.605245590209961 1024
v 1536 -20.689212799072266 942.95123291015625
v 1536 -20.933086395263672 995.25848388671875
v 1536 -19.880466461181641 927.69720458984375
v 1536 -20.500925064086914 1006.9483032226563
v 1536 -20.531135559082031 1010.3344116210938
v 1536 -20.594762802124023 1017.4655151367188
v 1536 -20.638896942138672 1024
vt 0.17508199810981751 0.027010977268218994
vt 0.4120660126209259 0.22586697340011597
vt 0.39400601387023926 0.019443988800048828
vt 0.43006700277328491 0.018203020095825195
vt 0.652508020401001 0.20487099885940552
vt 0.63616198301315308 0.010735988616943359
vt 0.0002010000025620684 0.033021986484527588
vt 0.1715950071811676 0.24702197313308716
vt 0.15248000621795654 0.027800977230072021
vt 0.0026829999405890703 0.10514301061630249
vt 0.433212012052536 0.46651297807693481
vt 0.67361199855804443 0.44536298513412476
vt 0.0078210001811385155 0.26125997304916382
vt 0.010343999601900578 0.33467698097229004
vt 0.19259700179100037 0.48743599653244019
vt 0.016352999955415726 0.50296801328659058
vt 0.21355399489402771 0.72787800431251526
vt 0.018476000055670738 0.56420600414276123
vt 0.45404601097106934 0.70696601271629333
vt 0.69475501775741577 0.685930997133255
vt 0.91436398029327393 0.42467498779296875
vt 0.89372897148132324 0.1842309832572937
vt 0.031635001301765442 0.94485700130462646
vt 0.024645000696182251 0.74444401264190674
vt 0.033369001001119614 0.9955620002001524
vt 0.23469200730323792 0.96843000128865242
vt 0.033041000366210938 0.98600499983876944
vt 0.21388900279998779 0.99323200015351176
vt 0.033500999212265015 0.99939399998402223
vt 0.47510999441146851 0.94737499952316284
vt 0.71556800603866577 0.92640300095081329
vt 0.47832998633384705 0.9840680006891489
vt 0.26225700974464417 0.99155499972403049
vt 0.23679900169372559 0.99245599983260036
vt 0.71983098983764648 0.97576799988746643
vt 0.672819972038269 0.97737899981439114
vt 0.902176022529602 0.969650000333786
vt 0.956030011177063 0.90561699867248535
vt 0.9352080225944519 0.66517800092697144
vt 0.82253497838974 0.0043259859085083008
vt 0.969061017036438 0.00060600042343139648
vt 0.97060400247573853 0.092806994915008545
vt 0.87925899028778076 0.0024610161781311035
vt 0.97908997535705566 0.34787297248840332
vt 0.9734950065612793 0.17739301919937134
vt 0.98142999410629272 0.41892600059509277
vt 0.96140998601913452 0.96766100078821182
vt 0.98955100774765015 0.66060701012611389
vt 0.99618798494338989 0.85790899395942688
vt 0.98760199546813965 0.60295799374580383
vt 0.99762797355651855 0.90205799788236618
vt 0.998045027256012 0.91483800113201141
vt 0.99896597862243652 0.94170200079679489
vt 0.99979901313781738 0.966363999992609
vn -0.012839999981224537 0.9996190071105957 0.024429000914096832
vn 0.0027950000949203968 0.99967902898788452 0.025172999128699303
vn 0.011656999588012695 0.9999079704284668 0.0069949999451637268
vn 0.036233000457286835 0.99929499626159668 -0.0098639996722340584
vn 0.063147000968456268 0.99789702892303467 -0.01459799986332655
vn 0.091793999075889587 0.99373400211334229 -0.063772998750209808
vn 0.00470399996265769 0.999584972858429 0.028418999165296555
vn 0.017672000452876091 0.99979597330093384 0.0097439996898174286
vn -0.0060169999487698078 0.99956202507019043 0.028982000425457954
vn 0.0174189992249012 0.99974602460861206 0.014295999892055988
vn 0.017728999257087708 0.9997749924659729 0.011669999919831753
vn 0.037089001387357712 0.9989740252494812 0.025970999151468277
vn 0.052696000784635544 0.99846702814102173 -0.016928000375628471
vn 0.04350699856877327 0.99905300140380859 0.00079899997217580676
vn 0.024095000699162483 0.99970698356628418 0.0022350000217556953
vn 0.016651000827550888 0.99965500831604 0.020305000245571136
vn 0.0012069999938830733 0.99999898672103882 0.0010730000212788582
vn 0.010622999630868435 0.99979400634765625 0.017318999394774437
vn 0.033018000423908234 0.99942398071289062 -0.00784900039434433
vn 0.022251000627875328 0.99973100423812866 -0.0064679998904466629
vn 0.00024699998903088272 0.9999539852142334 -0.00954199954867363
vn 0.014390000142157078 0.99932998418807983 -0.03363800048828125
vn 0.0011409999569877982 0.99988502264022827 -0.015118000097572804
vn -0.00620400020852685 0.999970018863678 0.0046520000323653221
vn 0.005733999889343977 0.99970501661300659 0.023586999624967575
vn 0.0075249997898936272 0.99991202354431152 0.010944000445306301
vn 0.0048099998384714127 0.999970018863678 0.0060490001924335957
vn 0.011056999675929546 0.99953597784042358 0.028372999280691147
vn 0.005733999889343977 0.99970501661300659 0.023586999624967575
vn 0.026451999321579933 0.999638020992279 0.00496200006455183
vn 0.019633999094367027 0.99976599216461182 -0.0091310003772377968
vn 0.0243539996445179 0.999580979347229 0.01565999910235405
vn 0.0098149999976158142 0.99969899654388428 0.02247999981045723
vn 0.0077650002203881741 0.999068021774292 0.04245699942111969
vn 0.014317999593913555 0.999862015247345 -0.0084020001813769341
vn 0.02571599930524826 0.999629020690918 0.0090260002762079239
vn 0.025435000658035278 0.99966299533843994 -0.0051020001992583275
vn 0.018883999437093735 0.9998210072517395 -0.0010809999657794833
vn 0.01166400033980608 0.99992102384567261 -0.0047419997863471508
vn 0.0860079973936081 0.99334698915481567 -0.076576001942157745
vn -0.076908998191356659 0.99438202381134033 -0.072728998959064484
vn -0.068048998713493347 0.99557799100875854 -0.064762003719806671
vn 0.0047360002063214779 0.99699801206588745 -0.077275998890399933
vn -0.037767000496387482 0.99927997589111328 -0.0036929999478161335
vn -0.038020998239517212 0.99904799461364746 -0.021398000419139862
vn -0.040626998990774155 0.99904501438140869 -0.0160559993237257
vn 0.019416999071836472 0.99979400634765625 0.0059030000120401382
vn 0.046454001218080521 0.99848300218582153 0.029566999524831772
vn 0.034396998584270477 0.999396026134491 -0.0050440002232789993
vn -0.020478999242186546 0.99975502490997314 -0.00837900023907423
vn 0.0001049999991664663 0.99989098310470581 -0.014785000123083592
vn 0.0013569999719038606 0.99995899200439453 0.008922000415623188
vn 0.00278700003400445 0.9999690055847168 0.0073319999501109123
vn 0.0033080000430345535 0.99997198581695557 0.0067540002055466175
f 1/1/1 2/2/2 3/3/3
f 4/4/4 5/5/5 6/6/6
f 7/7/7 8/8/8 9/9/9
f 7/7/7 10/10/10 8/8/8
f 2/2/2 8/8/8 11/11/11
f 9/9/9 2/2/2 1/1/1
f 9/9/9 8/8/8 2/2/2
f 3/3/3 5/5/5 4/4/4
f 3/3/3 2/2/2 5/5/5
f 5/5/5 2/2/2 12/12/12
f 10/10/10 13/13/13 8/8/8
f 8/8/8 14/14/14 15/15/15
f 8/8/8 13/13/13 14/14/14
f 16/16/16 17/17/17 15/15/15
f 16/16/16 18/18/18 17/17/17
f 15/15/15 11/11/11 8/8/8
f 11/11/11 12/12/12 2/2/2
f 15/15/15 19/19/19 11/11/11
f 14/14/14 16/16/16 15/15/15
f 12/12/12 20/20/20 21/21/21
f 11/11/11 20/20/20 12/12/12
f 5/5/5 12/12/12 22/22/22
f 23/23/23 17/17/17 24/24/24
f 25/25/25 26/26/26 27/27/27
f 25/25/25 28/28/28 26/26/26
f 25/25/25 29/29/29 28/28/28
f 17/17/17 26/26/26 19/19/19
f 20/20/20 19/19/19 30/30/30
f 15/15/15 17/17/17 19/19/19
f 20/20/20 30/30/30 31/31/31
f 30/30/30 19/19/19 26/26/26
f 24/24/24 17/17/17 18/18/18
f 32/32/32 26/26/26 33/33/33
f 32/32/32 30/30/30 26/26/26
f 34/34/34 26/26/26 28/28/28
f 35/35/35 31/31/31 36/36/36
f 34/34/34 33/33/33 26/26/26
f 32/32/32 31/31/31 30/30/30
f 32/32/32 36/36/36 31/31/31
f 31/31/31 37/37/37 38/38/38
f 31/31/31 35/35/35 37/37/37
f 23/23/23 26/26/26 17/17/17
f 23/23/23 27/27/27 26/26/26
f 20/20/20 11/11/11 19/19/19
f 20/20/20 31/31/31 39/39/39
f 6/6/6 5/5/5 40/40/40
f 12/12/12 21/21/21 22/22/22
f 41/41/41 22/22/22 42/42/42
f 41/41/41 43/43/43 22/22/22
f 44/44/44 22/22/22 21/21/21
f 44/44/44 45/45/45 22/22/22
f 42/42/42 22/22/22 45/45/45
f 44/44/44 21/21/21 46/46/46
f 20/20/20 39/39/39 21/21/21
f 37/37/37 47/47/47 38/38/38
f 48/48/48 38/38/38 49/49/49
f 48/48/48 39/39/39 38/38/38
f 48/48/48 50/50/50 39/39/39
f 51/51/51 49/49/49 38/38/38
f 46/46/46 39/39/39 50/50/50
f 46/46/46 21/21/21 39/39/39
f 52/52/52 38/38/38 53/53/53
f 52/52/52 51/51/51 38/38/38
f 31/31/31 38/38/38 39/39/39
f 54/54/54 38/38/38 47/47/47
f 54/54/54 53/53/53 38/38/38
f 40/40/40 22/22/22 43/43/43
f 40/40/40 5/5/5 22/22/22
