mtllib m1310.mtl
usemtl material0
v 1536 -24.107969284057617 768
v 1536 -22.311508178710938 792.5618896484375
v 1558.098388671875 -22.3988037109375 768
v 1536 -21.308551788330078 860.12890625
v 1578.67578125 -19.870941162109375 812.7000732421875
v 1536 -21.44671630859375 814.95819091796875
v 1576.3060302734375 -21.689296722412109 768
v 1618.8883056640625 -21.720335006713867 768
v 1536 -21.199550628662109 878.95513916015625
v 1582.0474853515625 -19.366165161132812 876.51824951171875
v 1536 -20.689212799072266 942.95123291015625
v 1536 -20.933086395263672 995.25848388671875
v 1585.3974609375 -22.910364151000977 940.34918212890625
v 1536 -19.880466461181641 927.69720458984375
v 1645.8447265625 -23.6728458404541 873.161865234375
v 1588.7791748046875 -20.547679901123047 1004.1614379882813
v 1649.216796875 -23.088220596313477 936.97967529296875
v 1536 -20.500925064086914 1006.9483032226563
v 1589.825439453125 -20.726108551025391 1024
v 1536 -20.594762802124023 1017.4655151367188
v 1543.262451171875 -20.662921905517578 1024
v 1536 -20.531135559082031 1010.3344116210938
v 1642.4749755859375 -23.812883377075195 809.3426513671875
v 1640.296630859375 -23.059892654418945 768
v 1679.666748046875 -25.64161491394043 768
v 1740.4512939453125 -27.086294174194336 768
v 1704.2781982421875 -26.062858581542969 768
v 1706.288818359375 -25.002178192138672 805.97637939453125
v 1709.6695556640625 -22.827512741088867 869.78912353515625
v 1770.092041015625 -28.163827896118164 802.61639404296875
v 1713.029052734375 -24.599773406982422 933.6143798828125
v 1652.587158203125 -22.850494384765625 1000.798583984375
v 1773.468994140625 -26.68641471862793 866.43133544921875
v 1716.3897705078125 -26.11738395690918 997.4388427734375
v 1776.8370361328125 -26.864957809448242 930.25152587890625
v 1653.8109130859375 -23.024909973144531 1024
v 1610.821533203125 -21.460748672485352 1024
v 1536 -20.638896942138672 1024
v 1717.791259765625 -26.235570907592773 1024
v 1692.4952392578125 -25.015449523925781 1024
v 1780.20703125 -26.678989410400391 994.070556640625
v 1753.279541015625 -26.555318832397461 1024
v 1768.2630615234375 -28.4486141204834 768
v 1792 -27.392734527587891 801.45733642578125
v 1792 -26.45060920715332 845.83538818359375
v 1792 -28.038536071777344 778.2667236328125
v 1792 -28.115383148193359 768
v 1792 -26.606264114379883 865.45257568359375
v 1792 -26.994155883789062 929.451171875
v 1792 -26.821355819702148 980.962646484375
v 1792 -26.750938415527344 913.398681640625
v 1792 -27.04109001159668 993.4488525390625
v 1792 -26.823240280151367 999.453125
v 1792 -26.633590698242188 1004.68017578125
v 1781.784423828125 -27.134553909301758 1024
v 1792 -26.946414947509766 1024
vt 0.99647998809814453 0.00022900104522705078
vt 0.900704026222229 0.00076699256896972656
vt 0.99647998809814453 0.086426973342895508
vt 0.63786798715591431 0.001484990119934082
vt 0.8226810097694397 0.16714602708816528
vt 0.81353902816772461 0.0010840296745300293
vt 0.99663001298904419 0.1572909951210022
vt 0.99724298715591431 0.32289397716522217
vt 0.5646510124206543 0.0016589760780334473
vt 0.57451397180557251 0.18086099624633789
vt 0.31561601161956787 0.0024840235710144043
vt 0.11218799650669098 0.0027419924736022949
vt 0.32593798637390137 0.19477701187133789
vt 0.37502199411392212 0.002276003360748291
vt 0.588513970375061 0.429485023021698
vt 0.077670000493526459 0.209197998046875
vt 0.34035199880599976 0.44331598281860352
vt 0.066694997251033783 0.002758026123046875
vt 0.00037699998938478529 0.21209299564361572
vt 0.025792000815272331 0.0027629733085632324
vt 0.00037799999699927866 0.031006991863250732
vt 0.053525999188423157 0.0027629733085632324
vt 0.83685797452926636 0.41567498445510864
vt 0.99761897325515747 0.40631401538848877
vt 0.99830198287963867 0.55975300073623657
vt 0.99931997060775757 0.7962149977684021
vt 0.99869602918624878 0.65548199415206909
vt 0.85097599029541016 0.66383698582649231
vt 0.60231900215148926 0.67768698930740356
vt 0.86477100849151611 0.91223499923944473
vt 0.35404598712921143 0.69152200222015381
vt 0.092187002301216125 0.45700401067733765
vt 0.61575102806091309 0.92623899877071381
vt 0.10580500215291977 0.70543000102043152
vt 0.367576003074646 0.93980599939823151
vt 0.0020089999306946993 0.46274298429489136
vt 0.0010229999898001552 0.29544699192047119
vt 0.00037799999699927866 0.0027629733085632324
vt 0.0025200000964105129 0.71113601326942444
vt 0.0024890000931918621 0.61338600516319275
vt 0.11950799822807312 0.95359500125050545
vt 0.0028560000937432051 0.84915600717067719
vt 0.99937999248504639 0.90475399792194366
vt 0.86867499351501465 0.99752400000579655
vt 0.69604897499084473 0.99809100001584738
vt 0.95889800786972046 0.99807199998758733
vt 0.99962300062179565 0.99707600008696318
vt 0.61969500780105591 0.998299999977462
vt 0.37079399824142456 0.99877199996262789
vt 0.17060799896717072 0.99932599999010563
vt 0.43323001265525818 0.99865199998021126
vt 0.1220410019159317 0.99947400001110509
vt 0.098674997687339783 0.99950699997134507
vt 0.078374996781349182 0.999573999986751
vt 0.0031139999628067017 0.96003599837422371
vt 0.003229999914765358 0.99977100000251085
vn -0.076908998191356659 0.99438202381134033 -0.072728998959064484
vn -0.047809001058340073 0.99777102470397949 -0.046560000628232956
vn -0.049088999629020691 0.9976540207862854 -0.047710999846458435
vn -0.039381999522447586 0.99921101331710815 -0.0051489998586475849
vn 0.00381199992261827 0.99985200166702271 -0.016764000058174133
vn -0.0379600003361702 0.99907499551773071 -0.020221000537276268
vn -0.019771000370383263 0.999019980430603 -0.039590999484062195
vn 0.046004001051187515 0.99894100427627563 5.6000000768108293E-05
vn -0.040663998574018478 0.99903202056884766 -0.016760999336838722
vn 0.024307999759912491 0.999625027179718 0.012593000195920467
vn 0.046372998505830765 0.9985319972038269 0.02799299918115139
vn 0.0097239995375275612 0.999580979347229 -0.027247000485658646
vn 0.026698000729084015 0.99962997436523438 0.005224000196903944
vn 0.026931000873446465 0.99905002117156982 0.034269999712705612
vn 0.019075000658631325 0.99981701374053955 0.0013960000360384584
vn 0.013566999696195126 0.99984997510910034 -0.010749000124633312
vn 0.012430000118911266 0.99990099668502808 -0.0066439998336136341
vn 0.00018699999782256782 0.99991202354431152 -0.013244999572634697
vn 0.018729999661445618 0.99979299306869507 0.0080040004104375839
vn 0.0018769999733194709 0.99996298551559448 0.0083440002053976059
vn 0.0018119999440386891 0.99996298551559448 0.0084159998223185539
vn 0.0013569999719038606 0.99995899200439453 0.008922000415623188
vn 0.04240100085735321 0.99909001588821411 -0.00470399996265769
vn 0.063885003328323364 0.99784702062606812 0.014808000065386295
vn 0.030005000531673431 0.99940198659896851 -0.017214000225067139
vn 0.043418999761343 0.99893301725387573 -0.015761999413371086
vn 0.022502999752759933 0.99932301044464111 -0.02910199947655201
vn 0.030012000352144241 0.99909597635269165 -0.030107000842690468
vn 0.030587999150156975 0.99952399730682373 -0.004038000013679266
vn 0.010149000212550163 0.99974298477172852 -0.020276999101042747
vn 0.037037000060081482 0.99916499853134155 0.017245000228285789
vn 0.040337998420000076 0.99918097257614136 0.0031989999115467072
vn 0.020842999219894409 0.99977397918701172 -0.0042960001155734062
vn 0.033415000885725021 0.99939697980880737 0.0093860002234578133
vn 0.017270000651478767 0.99984300136566162 0.0039719999767839909
vn 0.044128000736236572 0.99901199340820312 0.0051819998770952225
vn 0.036035001277923584 0.99933302402496338 0.0059560001827776432
vn 0.0033080000430345535 0.99997198581695557 0.0067540002055466175
vn 0.027940999716520309 0.99960500001907349 0.0029740000609308481
vn 0.05053199827671051 0.998714029788971 0.0040250001475214958
vn 0.012113000266253948 0.999925971031189 0.00069299997994676232
vn 0.012025999836623669 0.999904990196228 0.0066880001686513424
vn 0.018505999818444252 0.99978601932525635 -0.0092029999941587448
vn -0.036465998739004135 0.99903100728988647 -0.024623999372124672
vn -0.028739999979734421 0.99948298931121826 -0.014414999634027481
vn -0.019310999661684036 0.99973899126052856 -0.012230000458657742
vn -0.014037000015377998 0.99987399578094482 -0.00748400017619133
vn -0.004031000193208456 0.99997597932815552 0.0055590001866221428
vn 0.0088480003178119659 0.99994200468063354 0.0062079997733235359
vn 0.013772999867796898 0.99990397691726685 0.0015310000162571669
vn -0.0010209999745711684 0.99998199939727783 0.0058470000512897968
vn 0.030245000496506691 0.99950700998306274 -0.0084239998832345009
vn 0.028760999441146851 0.99892902374267578 -0.036242999136447906
vn -0.0058229998685419559 0.99998098611831665 0.0021929999347776175
vn 0.00030300000798888505 0.99988400936126709 0.015204000286757946
vn -0.018410999327898026 0.99969899654388428 0.016186999157071114
f 1/1/1 2/2/2 3/3/3
f 4/4/4 5/5/5 6/6/6
f 3/3/3 5/5/5 7/7/7
f 3/3/3 6/6/6 5/5/5
f 3/3/3 2/2/2 6/6/6
f 7/7/7 5/5/5 8/8/8
f 5/5/5 9/9/9 10/10/10
f 5/5/5 4/4/4 9/9/9
f 11/11/11 12/12/12 13/13/13
f 11/11/11 10/10/10 14/14/14
f 11/11/11 13/13/13 10/10/10
f 10/10/10 13/13/13 15/15/15
f 13/13/13 16/16/16 17/17/17
f 18/18/18 13/13/13 12/12/12
f 18/18/18 16/16/16 13/13/13
f 9/9/9 14/14/14 10/10/10
f 19/19/19 20/20/20 21/21/21
f 19/19/19 22/22/22 20/20/20
f 22/22/22 16/16/16 18/18/18
f 22/22/22 19/19/19 16/16/16
f 23/23/23 5/5/5 10/10/10
f 23/23/23 8/8/8 5/5/5
f 23/23/23 24/24/24 8/8/8
f 24/24/24 23/23/23 25/25/25
f 26/26/26 27/27/27 28/28/28
f 28/28/28 29/29/29 30/30/30
f 28/28/28 25/25/25 23/23/23
f 28/28/28 27/27/27 25/25/25
f 28/28/28 23/23/23 29/29/29
f 17/17/17 15/15/15 13/13/13
f 15/15/15 17/17/17 29/29/29
f 31/31/31 17/17/17 32/32/32
f 17/17/17 31/31/31 29/29/29
f 31/31/31 33/33/33 29/29/29
f 31/31/31 32/32/32 34/34/34
f 23/23/23 15/15/15 29/29/29
f 32/32/32 17/17/17 16/16/16
f 35/35/35 31/31/31 34/34/34
f 15/15/15 23/23/23 10/10/10
f 36/36/36 16/16/16 37/37/37
f 36/36/36 32/32/32 16/16/16
f 38/38/38 21/21/21 20/20/20
f 39/39/39 34/34/34 40/40/40
f 39/39/39 41/41/41 34/34/34
f 39/39/39 42/42/42 41/41/41
f 37/37/37 16/16/16 19/19/19
f 36/36/36 34/34/34 32/32/32
f 36/36/36 40/40/40 34/34/34
f 26/26/26 30/30/30 43/43/43
f 26/26/26 28/28/28 30/30/30
f 33/33/33 30/30/30 29/29/29
f 44/44/44 33/33/33 45/45/45
f 44/44/44 30/30/30 33/33/33
f 44/44/44 46/46/46 30/30/30
f 47/47/47 30/30/30 46/46/46
f 47/47/47 43/43/43 30/30/30
f 45/45/45 33/33/33 48/48/48
f 41/41/41 35/35/35 34/34/34
f 49/49/49 41/41/41 50/50/50
f 49/49/49 35/35/35 41/41/41
f 49/49/49 51/51/51 35/35/35
f 52/52/52 50/50/50 41/41/41
f 48/48/48 35/35/35 51/51/51
f 48/48/48 33/33/33 35/35/35
f 53/53/53 41/41/41 54/54/54
f 53/53/53 52/52/52 41/41/41
f 35/35/35 33/33/33 31/31/31
f 55/55/55 54/54/54 41/41/41
f 55/55/55 56/56/56 54/54/54
f 55/55/55 41/41/41 42/42/42
