mtllib m1312.mtl
usemtl material0
v 1582.3067626953125 -16.997413635253906 512
v 1629.029541015625 -18.142528533935547 554.0452880859375
v 1626.83544921875 -13.553855895996094 512
v 1536 -20.577083587646484 512
v 1565.1700439453125 -25.401535034179688 557.439208984375
v 1562.8065185546875 -19.063777923583984 512
v 1536 -23.308334350585938 531.17822265625
v 1717.4332275390625 -17.684097290039062 512
v 1756.6552734375 -20.931491851806641 547.314208984375
v 1754.793701171875 -20.456300735473633 512
v 1792 -22.575717926025391 512
v 1784.95751953125 -22.310009002685547 512
v 1792 -22.807580947875977 518.34014892578125
v 1649.8997802734375 -14.043503761291504 512
v 1692.8446044921875 -19.133584976196289 550.678466796875
v 1690.8155517578125 -16.853704452514648 512
v 1536 -26.237241744995117 589.8585205078125
v 1536 -25.011672973632812 558.9783935546875
v 1536 -23.693838119506836 537.47003173828125
v 1536 -27.356294631958008 622.98291015625
v 1568.52734375 -27.587688446044922 621.2659912109375
v 1696.2017822265625 -21.311923980712891 614.50531005859375
v 1792 -22.92780876159668 530.108154296875
v 1792 -23.084592819213867 545.45428466796875
v 1760.0103759765625 -23.499961853027344 611.14239501953125
v 1632.3995361328125 -17.944450378417969 617.86444091796875
v 1792 -22.595039367675781 579.1270751953125
v 1635.7562255859375 -20.233367919921875 681.69171142578125
v 1763.3687744140625 -25.442205429077148 674.9683837890625
v 1792 -23.797256469726562 609.4539794921875
v 1792 -24.803287506103516 643.1474609375
v 1699.5623779296875 -22.880641937255859 678.33013916015625
v 1536 -28.257833480834961 657.417236328125
v 1571.8956298828125 -27.719423294067383 685.08599853515625
v 1536 -28.345848083496094 686.98333740234375
v 1639.1121826171875 -22.650440216064453 745.51922607421875
v 1702.91015625 -26.784500122070312 742.1624755859375
v 1575.2928466796875 -22.466726303100586 748.88873291015625
v 1536 -26.188041687011719 713.56732177734375
v 1792 -25.268648147583008 673.45599365234375
v 1792 -26.454832077026367 700.73583984375
v 1766.7200927734375 -28.688852310180664 738.79852294921875
v 1536 -25.3533935546875 750.9720458984375
v 1558.098388671875 -22.3988037109375 768
v 1536 -24.65281867980957 760.55059814453125
v 1536 -24.107969284057617 768
v 1576.3060302734375 -21.689296722412109 768
v 1618.8883056640625 -21.720335006713867 768
v 1640.296630859375 -23.059892654418945 768
v 1679.666748046875 -25.64161491394043 768
v 1740.4512939453125 -27.086294174194336 768
v 1704.2781982421875 -26.062858581542969 768
v 1768.2630615234375 -28.4486141204834 768
v 1792 -28.343961715698242 737.46258544921875
v 1792 -28.173877716064453 760.185302734375
v 1792 -28.115383148193359 768
vt 0.17505800724029541 0.0270959734916687
vt 0.35582101345062256 0.17761898040771484
vt 0.34200900793075562 0.019752979278564453
vt 0.0013879999751225114 0.034663021564483643
vt 0.11622600257396698 0.20187097787857056
vt 0.10176800191402435 0.030584990978240967
vt 0.0037549999542534351 0.10710799694061279
vt 0.68126797676086426 0.0092689990997314453
vt 0.83241599798202515 0.13694101572036743
vt 0.82138198614120483 0.0050699710845947266
vt 0.96076697111129761 0.00085997581481933594
vt 0.93440902233123779 0.0016679763793945313
vt 0.96152698993682861 0.024586975574493408
vt 0.4282819926738739 0.016892015933990479
vt 0.59407299757003784 0.15704101324081421
vt 0.58167201280593872 0.01239699125289917
vt 0.01242700032889843 0.32782101631164551
vt 0.0073219998739659786 0.21126300096511841
vt 0.0045619998127222061 0.13068097829818726
vt 0.017792999744415283 0.45171797275543213
vt 0.13911600410938263 0.44006597995758057
vt 0.61475199460983276 0.395438015460968
vt 0.9628790020942688 0.068601012229919434
vt 0.96438699960708618 0.1252250075340271
vt 0.85310500860214233 0.37501800060272217
vt 0.37990498542785645 0.4155309796333313
vt 0.968641996383667 0.25116097927093506
vt 0.40273699164390564 0.65374699234962463
vt 0.87375599145889282 0.61338499188423157
vt 0.97252500057220459 0.36465901136398315
vt 0.97679901123046875 0.490742027759552
vt 0.63912898302078247 0.63344401121139526
vt 0.023360999301075935 0.580485999584198
vt 0.16303999722003937 0.67799699306488037
vt 0.028573000803589821 0.690991997718811
vt 0.42564401030540466 0.891975000500679
vt 0.66219198703765869 0.87196299433708191
vt 0.18778699636459351 0.916594997048378
vt 0.033647999167442322 0.79065999388694763
vt 0.98063498735427856 0.60409700870513916
vt 0.985634982585907 0.704367995262146
vt 0.89836901426315308 0.85162700712680817
vt 0.0402039997279644 0.93050000071525574
vt 0.12707400321960449 0.99120599962770939
vt 0.041999001055955887 0.96639100089669228
vt 0.043292000889778137 0.99430900020524859
vt 0.19517199695110321 0.98788200039416552
vt 0.35430198907852173 0.9798629991710186
vt 0.43285098671913147 0.9759139996021986
vt 0.58040499687194824 0.97120000049471855
vt 0.80577200651168823 0.96396299824118614
vt 0.67044198513031006 0.96846099942922592
vt 0.90985900163650513 0.95937399938702583
vt 0.992588996887207 0.84179499745368958
vt 0.99694699048995972 0.926707997918129
vt 0.99861198663711548 0.9557499997317791
vn -0.097800001502037048 0.98593401908874512 0.13553200662136078
vn -0.037080001085996628 0.99730998277664185 0.063230000436306
vn -0.029312999919056892 0.993503987789154 0.10995700210332871
vn -0.055801998823881149 0.9884679913520813 0.14077199995517731
vn -0.060571998357772827 0.99528700113296509 0.075728997588157654
vn -0.079455003142356873 0.98670798540115356 0.14175699651241303
vn -0.036566998809576035 0.99213701486587524 0.11969900131225586
vn 0.04112900048494339 0.99809002876281738 0.046101000159978867
vn 0.044969998300075531 0.99870699644088745 0.023687999695539474
vn 0.0678820013999939 0.99764502048492432 0.009846000000834465
vn 0.037677999585866928 0.99862200021743774 0.036520000547170639
vn 0.055828001350164413 0.9983069896697998 0.016333999112248421
vn 0.055036000907421112 0.99833601713180542 0.017216000705957413
vn 0.032141000032424927 0.99493497610092163 0.095247998833656311
vn 0.03155200183391571 0.99815899133682251 0.051803998649120331
vn 0.050436999648809433 0.99714899063110352 0.056129999458789825
vn 0.010420000180602074 0.99932801723480225 0.035135999321937561
vn 0.015987999737262726 0.998619019985199 0.050046999007463455
vn 0.016565000638365746 0.99799102544784546 0.06114799901843071
vn 0.0086859995499253273 0.999517023563385 0.029841000214219093
vn -0.068594001233577728 0.99722498655319214 0.028943000361323357
vn 0.04079199954867363 0.9988970160484314 0.023259000852704048
vn 0.061335999518632889 0.99806499481201172 0.01019699964672327
vn 0.060713000595569611 0.99815398454666138 -0.0017430000007152557
vn 0.022766999900341034 0.99918502569198608 0.033344000577926636
vn -0.044098999351263046 0.99878799915313721 0.021848000586032867
vn 0.024380000308156013 0.9993860125541687 0.025172000750899315
vn -0.036901999264955521 0.99861598014831543 0.037475001066923141
vn 0.01916000060737133 0.99916797876358032 0.036010999232530594
vn 0.011129000224173069 0.99932897090911865 0.034889001399278641
vn 0.00710600009188056 0.99962401390075684 0.026465000584721565
vn 0.043014001101255417 0.99824702739715576 0.0406470000743866
vn -0.011278999969363213 0.99990099668502808 0.0083870002999901772
vn -0.053286999464035034 0.99832999706268311 -0.022297000512480736
vn -0.019567999988794327 0.99899297952651978 -0.040378998965024948
vn 0.0263689998537302 0.99964302778244019 0.0042619998566806316
vn 0.039494998753070831 0.9990689754486084 0.017333000898361206
vn -0.026698000729084015 0.99798697233200073 -0.057518001645803452
vn -0.035762999206781387 0.99722599983215332 -0.0652799978852272
vn -0.0045309998095035553 0.99957102537155151 0.028925999999046326
vn -0.0090039996430277824 0.99874597787857056 0.049254000186920166
vn 0.012864000163972378 0.9997289776802063 0.019429000094532967
vn -0.075728997588157654 0.99595797061920166 -0.0482960008084774
vn -0.066771000623703 0.99573802947998047 -0.063612997531890869
vn -0.076908998191356659 0.99438202381134033 -0.072728998959064484
vn -0.076908998191356659 0.99438202381134033 -0.072728998959064484
vn -0.018416000530123711 0.99904298782348633 -0.039664000272750854
vn 0.017201999202370644 0.999517023563385 -0.025877999141812325
vn 0.063986003398895264 0.9978410005569458 0.014802999794483185
vn 0.052560999989509583 0.99861299991607666 0.0031109999399632216
vn 0.033776998519897461 0.9991300106048584 -0.024445999413728714
vn 0.022873999550938606 0.99931401014328 -0.029122000560164452
vn 0.016396999359130859 0.99982398748397827 -0.009092000313103199
vn -0.012426000088453293 0.99966001510620117 0.022944999858736992
vn -0.014037000015377998 0.99987399578094482 -0.00748400017619133
vn -0.014035999774932861 0.99987298250198364 -0.00748400017619133
f 1/1/1 2/2/2 3/3/3
f 4/4/4 5/5/5 6/6/6
f 4/4/4 7/7/7 5/5/5
f 8/8/8 9/9/9 10/10/10
f 11/11/11 12/12/12 13/13/13
f 14/14/14 15/15/15 16/16/16
f 17/17/17 5/5/5 18/18/18
f 19/19/19 5/5/5 7/7/7
f 19/19/19 18/18/18 5/5/5
f 6/6/6 2/2/2 1/1/1
f 6/6/6 5/5/5 2/2/2
f 5/5/5 20/20/20 21/21/21
f 5/5/5 17/17/17 20/20/20
f 2/2/2 22/22/22 15/15/15
f 16/16/16 9/9/9 8/8/8
f 16/16/16 15/15/15 9/9/9
f 10/10/10 13/13/13 12/12/12
f 10/10/10 23/23/23 13/13/13
f 23/23/23 9/9/9 24/24/24
f 23/23/23 10/10/10 9/9/9
f 15/15/15 25/25/25 9/9/9
f 2/2/2 5/5/5 26/26/26
f 24/24/24 9/9/9 27/27/27
f 14/14/14 2/2/2 15/15/15
f 14/14/14 3/3/3 2/2/2
f 26/26/26 21/21/21 28/28/28
f 21/21/21 26/26/26 5/5/5
f 25/25/25 22/22/22 29/29/29
f 22/22/22 25/25/25 15/15/15
f 25/25/25 27/27/27 9/9/9
f 25/25/25 30/30/30 27/27/27
f 31/31/31 25/25/25 29/29/29
f 31/31/31 30/30/30 25/25/25
f 2/2/2 26/26/26 22/22/22
f 22/22/22 26/26/26 32/32/32
f 33/33/33 34/34/34 21/21/21
f 33/33/33 35/35/35 34/34/34
f 34/34/34 36/36/36 28/28/28
f 28/28/28 32/32/32 26/26/26
f 32/32/32 29/29/29 22/22/22
f 28/28/28 37/37/37 32/32/32
f 21/21/21 34/34/34 28/28/28
f 35/35/35 38/38/38 34/34/34
f 35/35/35 39/39/39 38/38/38
f 40/40/40 31/31/31 29/29/29
f 20/20/20 33/33/33 21/21/21
f 40/40/40 29/29/29 41/41/41
f 32/32/32 42/42/42 29/29/29
f 43/43/43 44/44/44 38/38/38
f 43/43/43 45/45/45 44/44/44
f 45/45/45 46/46/46 44/44/44
f 44/44/44 47/47/47 38/38/38
f 38/38/38 48/48/48 36/36/36
f 38/38/38 47/47/47 48/48/48
f 49/49/49 36/36/36 48/48/48
f 36/36/36 50/50/50 37/37/37
f 36/36/36 49/49/49 50/50/50
f 51/51/51 37/37/37 52/52/52
f 51/51/51 42/42/42 37/37/37
f 28/28/28 36/36/36 37/37/37
f 52/52/52 37/37/37 50/50/50
f 36/36/36 34/34/34 38/38/38
f 43/43/43 38/38/38 39/39/39
f 51/51/51 53/53/53 42/42/42
f 41/41/41 42/42/42 54/54/54
f 41/41/41 29/29/29 42/42/42
f 54/54/54 42/42/42 55/55/55
f 55/55/55 53/53/53 56/56/56
f 55/55/55 42/42/42 53/53/53
f 42/42/42 32/32/32 37/37/37
