mtllib m1323.mtl
usemtl material0
v 1337.282958984375 -8.2954254150390625 0
v 1280 -7.0880460739135742 2.8331756591796875
v 1283.0302734375 -7.7264909744262695 60.301765441894531
v 1280 -7.0597929954528809 0
v 1343.8436279296875 -8.0555734634399414 0
v 1346.862548828125 -5.53580904006958 56.924095153808594
v 1280 -7.64883279800415 57.574836730957031
v 1280 -7.5864300727844238 60.461341857910156
v 1280 -7.6486902236938477 57.581451416015625
v 1407.85314899683 -6.0648961067199707 0
v 1410.66650390625 -8.66312026977539 53.564628601074219
v 1458.8626708984375 -7.0689740180969238 0
v 1280 -12.0624418258667 118.39980316162109
v 1286.372314453125 -12.826291084289551 124.13914489746094
v 1351.1322021484375 -8.3948812484741211 0
v 1280 -12.630667686462402 124.47502899169922
v 1414.0487060546875 -6.2054519653320312 117.37628173828125
v 1280 -10.270968437194824 188.46554565429688
v 1289.75390625 -10.453810691833496 187.95103454589844
v 1280 -12.44998836517334 131.22271704673767
v 1350.2213134765625 -7.4711198806762695 120.75075483322144
v 1353.61279296875 -3.2417430877685547 184.55647277832031
v 1417.4317626953125 -3.5761411190032959 181.18743896484375
v 1474.47216796875 -11.454727172851563 50.204017639160156
v 1471.8427734375 -7.6864891052246094 0
v 1536 -12.052487373352051 46.956802368164062
v 1536 -10.786039352416992 105.55443572998047
v 1519.643798828125 -10.319332122802734 0
v 1536 -10.615711212158203 3.312713623046875
v 1535.82568359375 -10.504659652709961 0
v 1536 -11.859188079833984 41.085052490234375
v 1536 -10.504593849182129 0
v 1519.643798828125 -10.319332122802734 0
v 1481.2210693359375 -9.4355583190917969 177.83712768554688
v 1477.8509521484375 -9.6498794555664062 114.01784515380859
v 1536 -10.629056930541992 110.95023345947266
v 1536 -13.068245887756348 166.36210632324219
v 1280 -8.927515983581543 198.79603576660156
v 1293.1448974609375 -6.3047370910644531 251.75703430175781
v 1280 -5.2121009826660156 252.44779968261719
v 1280 -5.2974672317504883 256
v 1293.3682861328125 -6.4255480766296387 256
v 1280 -5.292996883392334 255.81401062011719
v 1420.758056640625 -11.579170227050781 245.03450012207031
v 1536 -13.255247116088867 184.50669860839844
v 1484.580078125 -11.298572540283203 241.66340637207031
v 1536 -13.00993824005127 174.95552062988281
v 1536 -10.519234657287598 238.94569396972656
v 1421.32958984375 -12.915483474731445 256
v 1356.9404296875 -11.020655632019043 248.40275573730469
v 1365.375244140625 -12.068220138549805 256
v 1485.3291015625 -12.727633476257324 256
v 1432.9361572265625 -12.682253837585449 256
v 1357.3380126953125 -11.65589714050293 256
v 1297.8546142578125 -7.0100111961364746 256
v 1536 -11.834704399108887 252.07489013671875
v 1532.467529296875 -12.262810707092285 256
v 1536 -11.885242462158203 256
vt 0.96786701679229736 0.21615499258041382
vt 0.949184000492096 0.0025969743728637695
vt 0.73500001430511475 0.022090017795562744
vt 0.95976400375366211 0.0021939873695373535
vt 0.96877199411392212 0.24067199230194092
vt 0.75643301010131836 0.26014000177383423
vt 0.74475401639938354 0.010385990142822266
vt 0.73397201299667358 0.010785996913909912
vt 0.74472898244857788 0.010387003421783447
vt 0.97852802276611328 0.47988200187683105
vt 0.77868199348449707 0.49815100431442261
vt 0.98573398590087891 0.670403003692627
vt 0.51700299978256226 0.019860029220581055
vt 0.49625301361083984 0.0427970290184021
vt 0.96987897157669067 0.26791602373123169
vt 0.49420100450515747 0.019892990589141846
vt 0.54071301221847534 0.52002799510955811
vt 0.25522500276565552 0.032145023345947266
vt 0.25837498903274536 0.065526008605957031
vt 0.46899300813674927 0.020798981189727783
vt 0.51843702793121338 0.28154200315475464
vt 0.28029200434684753 0.30501502752304077
vt 0.30271598696708679 0.54186201095581055
vt 0.80088198184967041 0.73611500859260559
vt 0.98840898275375366 0.71805799007415771
vt 0.82209199666976929 0.96539299935102463
vt 0.60323399305343628 0.97400400042533875
vt 0.99552297592163086 0.896817997097969
vt 0.9857180118560791 0.95841600000858307
vt 0.99806499481201172 0.95723899826407433
vt 0.84461498260498047 0.96440700069069862
vt 0.99809300899505615 0.95789000019431114
vt 0.99552297592163086 0.896817997097969
vt 0.32539400458335876 0.78049600124359131
vt 0.562995970249176 0.758091002702713
vt 0.58307701349258423 0.974796000868082
vt 0.37676900625228882 0.98369099944829941
vt 0.21593399345874786 0.030849993228912354
vt 0.020254999399185181 0.089060008525848389
vt 0.015166999772191048 0.039964020252227783
vt 0.0019069999689236283 0.04066699743270874
vt 0.004459999967366457 0.090735971927642822
vt 0.0026010000146925449 0.040629982948303223
vt 0.063091002404689789 0.56546100974082947
vt 0.30933400988578796 0.98658199980854988
vt 0.087581001222133636 0.80376000702381134
vt 0.3446820080280304 0.98501200042665
vt 0.10582900047302246 0.99533700011670589
vt 0.021939000114798546 0.56935599446296692
vt 0.040686000138521194 0.3276900053024292
vt 0.013402000069618225 0.36040699481964111
vt 0.033872000873088837 0.80850200355052948
vt 0.023894999176263809 0.61269399523735046
vt 0.012265999801456928 0.33016800880432129
vt 0.0049419999122619629 0.10732501745223999
vt 0.055674999952316284 0.99714899994432926
vt 0.040408000349998474 0.98454399965703487
vt 0.041021000593900681 0.99780600005760789
vn -0.021018000319600105 0.99937701225280762 -0.028338000178337097
vn 0.021477999165654182 0.99971997737884521 0.0099740000441670418
vn 0.010869000107049942 0.99935698509216309 0.034162998199462891
vn 0.021564999595284462 0.99971801042556763 0.0099689997732639313
vn 0.0035890000872313976 0.999006986618042 -0.044411998242139816
vn -0.0079100001603364944 0.99992799758911133 -0.0089779999107122421
vn 0.024051999673247337 0.99970901012420654 0.0017419999931007624
vn 0.047692000865936279 0.9984319806098938 0.029311999678611755
vn 0.045030999928712845 0.99875199794769287 -0.02159699983894825
vn -0.011673999950289726 0.99872797727584839 0.049058001488447189
vn 0.031183000653982162 0.99950200319290161 -0.0049109999090433121
vn 0.03998899832367897 0.99704098701477051 0.065654002130031586
vn 0.046195998787879944 0.99562501907348633 0.081216998398303986
vn -0.022622000426054 0.99961400032043457 0.016127999871969223
vn 0.026069000363349915 0.99937301874160767 -0.023969000205397606
vn 0.032315000891685486 0.99898898601531982 0.03125
vn 0.027684999629855156 0.99926000833511353 -0.026689000427722931
vn 0.014183999970555306 0.99626797437667847 -0.085143998265266418
vn -0.041792001575231552 0.99751299619674683 -0.056749999523162842
vn 0.019647000357508659 0.999180018901825 -0.035406000912189484
vn -0.049300998449325562 0.99870902299880981 -0.012203999795019627
vn -0.025806000456213951 0.9996190071105957 0.0098019996657967567
vn 0.034630000591278076 0.99909102916717529 0.02486800029873848
vn 0.034882999956607819 0.99926501512527466 0.0158890001475811
vn 0.050992000848054886 0.9960939884185791 0.072094999253749847
vn 0.010060999542474747 0.99992799758911133 0.0065629999153316021
vn 0.013501999899744988 0.9995419979095459 -0.027085000649094582
vn 0.011446000076830387 0.99939298629760742 0.03290100023150444
vn 0.011247999966144562 0.99939501285552979 0.032910998910665512
vn 0.0057330001145601273 0.9994320273399353 0.033201999962329865
vn 0.011446000076830387 0.99939298629760742 0.032900001853704453
vn -0.00037799999699927866 0.99943798780441284 0.033523999154567719
vn 0.054852999746799469 0.99590402841567993 0.071878001093864441
vn 0.073833003640174866 0.99726200103759766 0.0042699999175965786
vn 0.040794998407363892 0.99909597635269165 -0.011920000426471233
vn 0.01716499961912632 0.99983298778533936 0.0062279999256134033
vn 0.052618000656366348 0.99859201908111572 0.00675999978557229
vn 0.063499003648757935 0.99453598260879517 -0.082858003675937653
vn 0.062309999018907547 0.9980199933052063 0.0086089996621012688
vn 0.081729002296924591 0.99643599987030029 -0.020883999764919281
vn 0.084062002599239349 0.99617302417755127 0.023941000923514366
vn 0.10743000358343124 0.99395501613616943 0.022645000368356705
vn 0.084062002599239349 0.99617302417755127 0.023940000683069229
vn 0.005276000127196312 0.992851972579956 0.1192379966378212
vn 0.046838998794555664 0.99887102842330933 0.0079429997131228447
vn 0.01573600061237812 0.99773800373077393 0.065361000597476959
vn 0.06557600200176239 0.99780797958374023 0.0088910004124045372
vn -0.013973000459372997 0.99965399503707886 0.022283999249339104
vn -0.0030280000064522028 0.99263298511505127 0.1211249977350235
vn 0.05124799907207489 0.99325001239776611 0.10406100004911423
vn 0.023446999490261078 0.99354797601699829 0.11096599698066711
vn -0.0046500000171363354 0.99503397941589355 0.0994269996881485
vn -0.0040199998766183853 0.99451601505279541 0.10450900346040726
vn 0.063865996897220612 0.99475997686386108 0.0798339992761612
vn 0.089621998369693756 0.993806004524231 0.065710999071598053
vn -0.032389998435974121 0.99630701541900635 0.079516001045703888
vn -0.035535998642444611 0.99642097949981689 0.076696999371051788
vn -0.10627099871635437 0.994255006313324 0.012800999917089939
f 1/1/1 2/2/2 3/3/3
f 1/1/1 4/4/4 2/2/2
f 5/5/5 3/3/3 6/6/6
f 5/5/5 1/1/1 3/3/3
f 2/2/2 7/7/7 3/3/3
f 8/8/8 3/3/3 9/9/9
f 9/9/9 3/3/3 7/7/7
f 10/10/10 11/11/11 12/12/12
f 3/3/3 13/13/13 14/14/14
f 3/3/3 8/8/8 13/13/13
f 15/15/15 11/11/11 10/10/10
f 13/13/13 16/16/16 14/14/14
f 5/5/5 11/11/11 15/15/15
f 5/5/5 6/6/6 11/11/11
f 6/6/6 17/17/17 11/11/11
f 14/14/14 18/18/18 19/19/19
f 14/14/14 20/20/20 18/18/18
f 14/14/14 21/21/21 6/6/6
f 21/21/21 17/17/17 6/6/6
f 14/14/14 22/22/22 21/21/21
f 20/20/20 14/14/14 16/16/16
f 23/23/23 17/17/17 21/21/21
f 11/11/11 17/17/17 24/24/24
f 6/6/6 3/3/3 14/14/14
f 25/25/25 11/11/11 24/24/24
f 25/25/25 12/12/12 11/11/11
f 26/26/26 24/24/24 27/27/27
f 28/28/28 29/29/29 30/30/30
f 28/28/28 31/31/31 29/29/29
f 31/31/31 24/24/24 26/26/26
f 31/31/31 28/28/28 24/24/24
f 32/32/32 30/30/30 29/29/29
f 25/25/25 24/24/24 33/33/33
f 17/17/17 34/34/34 35/35/35
f 27/27/27 35/35/35 36/36/36
f 27/27/27 24/24/24 35/35/35
f 36/36/36 35/35/35 37/37/37
f 35/35/35 24/24/24 17/17/17
f 38/38/38 19/19/19 18/18/18
f 38/38/38 39/39/39 19/19/19
f 38/38/38 40/40/40 39/39/39
f 41/41/41 42/42/42 43/43/43
f 43/43/43 39/39/39 40/40/40
f 43/43/43 42/42/42 39/39/39
f 22/22/22 19/19/19 39/39/39
f 23/23/23 22/22/22 44/44/44
f 22/22/22 23/23/23 21/21/21
f 45/45/45 34/34/34 46/46/46
f 45/45/45 47/47/47 34/34/34
f 34/34/34 37/37/37 35/35/35
f 34/34/34 47/47/47 37/37/37
f 45/45/45 46/46/46 48/48/48
f 17/17/17 23/23/23 34/34/34
f 34/34/34 23/23/23 46/46/46
f 49/49/49 50/50/50 51/51/51
f 49/49/49 44/44/44 50/50/50
f 22/22/22 50/50/50 44/44/44
f 23/23/23 44/44/44 46/46/46
f 52/52/52 44/44/44 53/53/53
f 52/52/52 46/46/46 44/44/44
f 50/50/50 22/22/22 39/39/39
f 14/14/14 19/19/19 22/22/22
f 54/54/54 39/39/39 55/55/55
f 54/54/54 50/50/50 39/39/39
f 42/42/42 55/55/55 39/39/39
f 53/53/53 44/44/44 49/49/49
f 56/56/56 57/57/57 58/58/58
f 54/54/54 51/51/51 50/50/50
f 48/48/48 57/57/57 56/56/56
f 48/48/48 46/46/46 57/57/57
f 46/46/46 52/52/52 57/57/57
