mtllib m1322.mtl
usemtl material0
v 1148.47900390625 -3.2890009880065918 0
v 1152.0424799993634 -3.4440960884094238 3.2073593139648438
v 1151.8730469942093 -3.4667050838470459 0
v 1080.9493408203125 0.79389297962188721 0
v 1088.244140625 0.826324999332428 6.5628585815429688
v 1087.89697265625 0.68781697750091553 0
v 1024 -0.921563982963562 10.399581909179688
v 1024.4144287109375 -0.89506202936172485 9.9389572143554688
v 1024 -0.93580001592636108 9.9609756469726562
v 1024 -0.93070697784423828 9.8123550415039062
v 1024 -0.92227298021316528 9.5662765502929688
v 1024 -0.719651997089386 2.069488525390625
v 1027.787841796875 -0.070923000574111938 73.756278991699219
v 1024 -0.67071998119354248 0
v 1024 -0.67098301649093628 0.01111602783203125
v 1024 -0.20603899657726288 73.95672607421875
v 1024 -0.38168999552726746 70.350914001464844
v 1024 0.013120999559760094 77.966560363769531
v 1091.608154296875 -0.13953900337219238 70.386337280273438
v 1215.8577880859375 -6.00185489654541 0
v 1219.2252197265625 -4.7773661613464355 63.661842346191406
v 1212.926025390625 -5.8874869346618652 0
v 1280 -7.0597929954528809 0
v 1279.8505859375 -7.0565710067749023 0
v 1280 -7.0880460739135742 2.8331756591796875
v 1216.0208740234375 -6.0092039108276367 0
v 1280 -7.64883279800415 57.574836730957031
v 1155.4139399528503 -2.9934849739074707 67.025917053222656
v 1158.76220703125 -6.9497528076171875 130.85948204994202
v 1280 -7.5864300727844238 60.461341857910156
v 1280 -7.6486902236938477 57.581451416015625
v 1280 -12.0624418258667 118.39980316162109
v 1222.5621337890625 -10.867381095886231 127.50264000892639
v 1094.9608154296875 -3.2891829013824463 134.21719408035278
v 1024 -3.5607330799102783 137.96525573730469
v 1031.13623046875 -4.0437932014465332 137.58992004394531
v 1024 -3.0567278861999512 131.16159105300903
v 1024 -4.0932331085205078 145.52146911621094
v 1024 -5.4861421585083008 201.96920776367188
v 1034.492919921875 -6.4090127944946289 201.41798400878906
v 1024 -5.7354488372802734 191.97218322753906
v 1024 -5.1807360649108887 213.08351135253906
v 1162.1678466796875 0.011017999611794949 194.65596008300781
v 1280 -12.630667686462402 124.47502899169922
v 1225.939697265625 -9.2575807571411133 191.317138671875
v 1165.4157705307007 1.7901639938354492 256
v 1098.341064453125 -1.1515599489212036 198.03004455566406
v 1162.80029296875 1.7386560440063477 256
v 1229.352294921875 -1.0021419525146484 255.10935974121094
v 1280 -12.44998836517334 131.22271704673767
v 1280 -10.270968437194824 188.46554565429688
v 1101.388427734375 -3.5109639167785645 256
v 1095.1820068359375 -4.0072340965271 256
v 1024 -4.2405462265014648 256
v 1027.607666015625 -4.8793730735778809 256
v 1024 -4.5690088272094727 252.75169372558594
v 1037.3773193359375 -5.8554849624633789 256
v 1280 -8.927515983581543 198.79603576660156
v 1024 -4.6498231887817383 247.51124572753906
v 1229.399169921875 -1.0221259593963623 256
v 1212.4417724609375 -0.24310700595378876 256
v 1280 -5.2121009826660156 252.44779968261719
v 1280 -5.2974672317504883 256
v 1230.34130859375 -1.1070029735565186 256
v 1280 -5.292996883392334 255.81401062011719
vt 0.48595800995826721 0.0020430088043212891
vt 0.49979099631309509 0.01448899507522583
vt 0.499099999666214 0.0019739866256713867
vt 0.22314700484275818 0.0022680163383483887
vt 0.25159400701522827 0.02770000696182251
vt 0.25036600232124329 0.0021399855613708496
vt 0.0021540001034736633 0.042711973190307617
vt 0.0037730000913143158 0.040933012962341309
vt 0.0021470000501722097 0.041001021862030029
vt 0.00215000007301569 0.040419995784759521
vt 0.0021569998934865 0.039463996887207031
vt 0.0022249999456107616 0.010325014591217041
vt 0.01742199994623661 0.28893601894378662
vt 0.0022120000794529915 0.0023090243339538574
vt 0.0022229999303817749 0.0023530125617980957
vt 0.0026589999906718731 0.28972601890563965
vt 0.0026090000756084919 0.27571302652359009
vt 0.0026589999906718731 0.30530798435211182
vt 0.26511400938034058 0.27571099996566772
vt 0.747759997844696 0.0015149712562561035
vt 0.76127898693084717 0.24868500232696533
vt 0.73635601997375488 0.001555025577545166
vt 0.99732398986816406 0.0011529922485351563
vt 0.99679797887802124 0.0010830163955688477
vt 0.99743902683258057 0.012050986289978027
vt 0.7484089732170105 0.0014979839324951172
vt 0.99793499708175659 0.22466301918029785
vt 0.51318502426147461 0.262440025806427
vt 0.527167022228241 0.51091399788856506
vt 0.997937023639679 0.23586499691009522
vt 0.99793601036071777 0.22468698024749756
vt 0.99915099143981934 0.46149200201034546
vt 0.77574902772903442 0.49738800525665283
vt 0.27870801091194153 0.52412998676300049
vt 0.0026690000668168068 0.53832700848579407
vt 0.030538000166416168 0.53703099489212036
vt 0.0027240000199526548 0.51189899444580078
vt 0.0027149999514222145 0.56769400835037231
vt 0.0019020000472664833 0.786870002746582
vt 0.042785000056028366 0.78490099310874939
vt 0.0021879998967051506 0.74801599979400635
vt 0.0015269999857991934 0.83018699288368225
vt 0.53892898559570312 0.76031599938869476
vt 0.99928098917007446 0.48517799377441406
vt 0.78923702239990234 0.74511700868606567
vt 0.55089998245239258 0.99882199999410659
vt 0.29121598601341248 0.77258999645709991
vt 0.54072099924087524 0.9987970000365749
vt 0.80011099576950073 0.99531800020486116
vt 0.99930799007415771 0.51142200827598572
vt 0.99935102462768555 0.73422199487686157
vt 0.30143499374389648 0.99830900004599243
vt 0.27727800607681274 0.99824500002432615
vt 0.00064899999415501952 0.9972210000269115
vt 0.014767000451683998 0.99718399997800589
vt 0.00080199999501928687 0.9845789996907115
vt 0.052930999547243118 0.99734800006262958
vt 0.99920499324798584 0.77485999464988708
vt 0.00087899999925866723 0.96415000036358833
vt 0.80029398202896118 0.99878799996804446
vt 0.73416000604629517 0.99891700001899153
vt 0.9982680082321167 0.984463999979198
vt 0.99826902151107788 0.9982750000199303
vt 0.80398201942443848 0.99878100003115833
vt 0.99833899736404419 0.99763099988922477
vn 0.062408000230789185 0.99782800674438477 -0.02108599990606308
vn 0.046884998679161072 0.99884998798370361 -0.010029000230133534
vn 0.046163000166416168 0.99888902902603149 -0.0094799995422363281
vn -0.016152000054717064 0.99978500604629517 0.013012000359594822
vn 0.028714999556541443 0.99958401918411255 -0.0025800000876188278
vn 0.039554998278617859 0.99894899129867554 -0.02317499928176403
vn -0.079784996807575226 0.996707022190094 -0.014438999816775322
vn -0.058228000998497009 0.99828797578811646 0.0055229999125003815
vn -0.097838997840881348 0.99520200490951538 -0.00021300000662449747
vn -0.095977000892162323 0.994799017906189 0.034093998372554779
vn -0.0912880003452301 0.995406985282898 0.028835000470280647
vn -0.026779999956488609 0.999360978603363 0.0236859992146492
vn -0.011869999580085278 0.99990099668502808 0.0075909998267889023
vn -0.025702999904751778 0.99939000606536865 0.023638000711798668
vn -0.025702999904751778 0.99939000606536865 0.023634999990463257
vn -0.038332000374794006 0.99792802333831787 -0.051672998815774918
vn -0.064274996519088745 0.9977409839630127 -0.019557999446988106
vn 0.056968998163938522 0.99788397550582886 0.031332999467849731
vn 0.028767999261617661 0.99915099143981934 0.029480999335646629
vn 0.041893001645803452 0.99889200925827026 -0.02142300084233284
vn 0.038495000451803207 0.99862897396087646 0.035471998155117035
vn 0.038982998579740524 0.99901801347732544 -0.021075999364256859
vn 0.021561000496149063 0.99971801042556763 0.0099689997732639313
vn 0.018897000700235367 0.99976998567581177 0.010110000148415566
vn 0.016491999849677086 0.99981200695037842 0.010238000191748142
vn 0.038339998573064804 0.99916499853134155 -0.014151000417768955
vn 0.03738899901509285 0.99921500682830811 -0.013105999678373337
vn 0.042002998292446136 0.9986870288848877 0.029337000101804733
vn 0.067207001149654388 0.9975770115852356 -0.017983999103307724
vn 0.047527000308036804 0.99852901697158813 0.026096999645233154
vn 0.045024000108242035 0.998753011226654 -0.021593999117612839
vn 0.039338000118732452 0.995274007320404 0.088784001767635345
vn 0.043313998728990555 0.99865502119064331 0.028481999412178993
vn 0.0065609999001026154 0.99994200468063354 0.0085610002279281616
vn 0.07112400233745575 0.99487602710723877 0.071851000189781189
vn 0.027991000562906265 0.99811398983001709 0.05463699996471405
vn 0.081978999078273773 0.9947199821472168 0.061732001602649689
vn 0.041390001773834229 0.99819701910018921 0.043462000787258148
vn 0.086221002042293549 0.99593299627304077 -0.026146000251173973
vn 0.012422000057995319 0.999921977519989 0.0015910000074654818
vn 0.046785000711679459 0.99871999025344849 0.019246000796556473
vn 0.096316002309322357 0.99518501758575439 -0.018149999901652336
vn 0.055670000612735748 0.9956660270690918 -0.074500001966953278
vn 0.032517999410629272 0.998852014541626 0.035186000168323517
vn 0.067235998809337616 0.99349302053451538 -0.091931000351905823
vn 0.012804999947547913 0.99947798252105713 -0.029665000736713409
vn -0.058926001191139221 0.9982600212097168 -0.0020250000525265932
vn -0.03496599942445755 0.99932897090911865 -0.010943000204861164
vn 0.067207999527454376 0.99711102247238159 -0.035394001752138138
vn 0.026342999190092087 0.99922102689743042 -0.029384000226855278
vn 0.014353999868035317 0.9965280294418335 -0.082015000283718109
vn -0.082441002130508423 0.99558597803115845 0.044854998588562012
vn -0.068545997142791748 0.99712401628494263 0.032338999211788177
vn 0.17350399494171143 0.97983700037002563 -0.09907899796962738
vn 0.11686699837446213 0.99253201484680176 -0.034963000565767288
vn 0.1195949986577034 0.99209398031234741 -0.038033999502658844
vn 0.031606998294591904 0.99943101406097412 -0.011806000024080277
vn 0.027429999783635139 0.99297797679901123 -0.11507900059223175
vn 0.09940599650144577 0.99492901563644409 -0.015343000181019306
vn 0.068566001951694489 0.99747002124786377 0.018773000687360764
vn 0.043221998959779739 0.99860298633575439 -0.030391000211238861
vn 0.081555001437664032 0.99637800455093384 -0.024085000157356262
vn 0.084062002599239349 0.99617302417755127 0.023941999301314354
vn 0.085377000272274017 0.99609500169754028 0.022469999268651009
vn 0.084062002599239349 0.99617302417755127 0.023941000923514366
f 1/1/1 2/2/2 3/3/3
f 4/4/4 5/5/5 6/6/6
f 7/7/7 8/8/8 9/9/9
f 10/10/10 8/8/8 11/11/11
f 10/10/10 9/9/9 8/8/8
f 11/11/11 8/8/8 12/12/12
f 5/5/5 8/8/8 13/13/13
f 14/14/14 5/5/5 4/4/4
f 14/14/14 15/15/15 5/5/5
f 15/15/15 8/8/8 5/5/5
f 15/15/15 12/12/12 8/8/8
f 16/16/16 13/13/13 17/17/17
f 7/7/7 13/13/13 8/8/8
f 7/7/7 17/17/17 13/13/13
f 18/18/18 13/13/13 16/16/16
f 19/19/19 5/5/5 13/13/13
f 20/20/20 2/2/2 21/21/21
f 20/20/20 22/22/22 2/2/2
f 1/1/1 5/5/5 2/2/2
f 1/1/1 6/6/6 5/5/5
f 23/23/23 24/24/24 25/25/25
f 22/22/22 3/3/3 2/2/2
f 25/25/25 26/26/26 27/27/27
f 25/25/25 24/24/24 26/26/26
f 28/28/28 19/19/19 29/29/29
f 2/2/2 19/19/19 28/28/28
f 30/30/30 20/20/20 21/21/21
f 30/30/30 31/31/31 20/20/20
f 31/31/31 26/26/26 20/20/20
f 31/31/31 27/27/27 26/26/26
f 28/28/28 21/21/21 2/2/2
f 30/30/30 21/21/21 32/32/32
f 21/21/21 28/28/28 33/33/33
f 19/19/19 2/2/2 5/5/5
f 19/19/19 13/13/13 34/34/34
f 35/35/35 36/36/36 37/37/37
f 13/13/13 37/37/37 36/36/36
f 13/13/13 18/18/18 37/37/37
f 38/38/38 36/36/36 35/35/35
f 39/39/39 40/40/40 41/41/41
f 38/38/38 40/40/40 36/36/36
f 38/38/38 41/41/41 40/40/40
f 42/42/42 40/40/40 39/39/39
f 34/34/34 36/36/36 40/40/40
f 29/29/29 34/34/34 43/43/43
f 34/34/34 13/13/13 36/36/36
f 32/32/32 33/33/33 44/44/44
f 32/32/32 21/21/21 33/33/33
f 29/29/29 33/33/33 28/28/28
f 34/34/34 29/29/29 19/19/19
f 33/33/33 29/29/29 45/45/45
f 46/46/46 47/47/47 48/48/48
f 46/46/46 43/43/43 47/47/47
f 34/34/34 47/47/47 43/43/43
f 29/29/29 43/43/43 45/45/45
f 45/45/45 43/43/43 49/49/49
f 50/50/50 45/45/45 51/51/51
f 45/45/45 44/44/44 33/33/33
f 45/45/45 50/50/50 44/44/44
f 47/47/47 34/34/34 40/40/40
f 52/52/52 40/40/40 53/53/53
f 52/52/52 47/47/47 40/40/40
f 54/54/54 55/55/55 56/56/56
f 53/53/53 40/40/40 57/57/57
f 58/58/58 45/45/45 49/49/49
f 58/58/58 51/51/51 45/45/45
f 42/42/42 57/57/57 40/40/40
f 42/42/42 59/59/59 57/57/57
f 59/59/59 55/55/55 57/57/57
f 59/59/59 56/56/56 55/55/55
f 60/60/60 49/49/49 61/61/61
f 43/43/43 61/61/61 49/49/49
f 43/43/43 46/46/46 61/61/61
f 58/58/58 49/49/49 62/62/62
f 63/63/63 49/49/49 64/64/64
f 63/63/63 65/65/65 49/49/49
f 65/65/65 62/62/62 49/49/49
f 48/48/48 47/47/47 52/52/52
f 60/60/60 64/64/64 49/49/49
