mtllib m1333.mtl
usemtl material0
v 1792 -17.387195587158203 33.454986572265625
v 1793.542724609375 -17.430007934570312 33.3736572265625
v 1792 -17.381118774414062 31.69976806640625
v 1792 -17.285688400268555 4.1331100463867188
v 1855.7684326171875 -19.38787841796875 0
v 1857.3502197265625 -19.825527191162109 30.011703491210938
v 1823.567626953125 -18.157642364501953 0
v 1792 -17.27140998840332 0
v 1884.349609375 -20.870866775512695 0
v 1921.1721190214157 -19.576309204101562 26.64068603515625
v 1919.7596440017223 -20.65730094909668 0
v 1959.1297607421875 -19.348358154296875 0
v 1985.0035400390625 -17.585168838500977 23.263687133789062
v 1983.7611083984375 -20.114904403686523 0
v 1860.7139892578125 -20.7813663482666 93.834831237792969
v 1988.3536376953125 -21.03314208984375 87.095375061035156
v 2048 -22.6872501373291 18.883544921875
v 2026.8956298828125 -23.270517349243164 0
v 2048 -22.612184524536133 19.549911499023438
v 2048 -22.566812515258789 19.95269775390625
v 2048 -22.625921249389648 21.141319274902344
v 2048 -22.568979263305664 0
v 2048 -25.783409118652344 140.51850891113281
v 1924.5394291877747 -19.889095306396484 90.461631774902344
v 1792 -17.508573532104492 92.775131225585938
v 1796.9105224609375 -17.654417037963867 97.194320678710938
v 1792 -17.489131927490234 97.453117370605469
v 1864.0782470703125 -21.655891418457031 157.65763854980469
v 1927.8839111328125 -24.347530364990234 154.29661560058594
v 1800.2750244140625 -18.484020233154297 161.01702880859375
v 1792 -18.117244720458984 153.56901550292969
v 1991.6956787109375 -25.927602767944336 150.93183898925781
v 1792 -18.348230361938477 161.45358276367188
v 1803.6373291015625 -19.720582962036133 224.841064453125
v 1792 -19.324962615966797 214.36781311035156
v 1792 -19.428810119628906 225.45468139648438
v 1792 -19.573970794677734 237.77597045898438
v 1792 -19.491268157958984 256
v 1805.282958984375 -19.591611862182617 256
v 1931.2550048828125 -23.981096267700195 218.11514282226563
v 1995.08447265625 -22.331256866455078 214.73944091796875
v 2048 -26.349470138549805 147.95989990234375
v 2048 -25.881811141967773 156.22219848632813
v 1933.2542724609375 -24.092107772827148 256
v 1867.451416015625 -20.892982482910156 221.47486877441406
v 1905.80859375 -22.7631893157959 256
v 1836.390625 -20.154764175415039 256
v 1869.272705078125 -21.109046936035156 256
v 1997.2535400390625 -23.930889129638672 256
v 1957.9591064453125 -23.459138870239258 256
v 2041.1585693359375 -25.2490291595459 256
v 2048 -25.709692001342773 247.5784912109375
v 2048 -25.693826675415039 256
vt 0.99875098466873169 0.86753499507904053
vt 0.99274700880050659 0.86785100400447845
vt 0.99875098466873169 0.8743630051612854
vt 0.99875098466873169 0.98159199953079224
vt 0.75056397914886475 0.99763099988922477
vt 0.74437499046325684 0.88091599941253662
vt 0.87590998411178589 0.99765500007197261
vt 0.9987490177154541 0.99766899994574487
vt 0.63924199342727661 0.997626000083983
vt 0.49612799286842346 0.8941740021109581
vt 0.50172001123428345 0.99787999992258847
vt 0.34869998693466187 0.99819299997761846
vt 0.24774299561977387 0.90779200196266174
vt 0.25284600257873535 0.998801999958232
vt 0.73117101192474365 0.63263699412345886
vt 0.23463299870491028 0.65914401412010193
vt 0.0018420000560581684 0.92391300201416016
vt 0.083370000123977661 0.99802500009536743
vt 0.0018690000288188458 0.92130500078201294
vt 0.0018889999482780695 0.91972900182008743
vt 0.001888000057078898 0.91509900242090225
vt 0.0012359999818727374 0.99736499995924532
vt 0.002297000028192997 0.45117700099945068
vt 0.48289000988006592 0.6459290087223053
vt 0.99875998497009277 0.63679298758506775
vt 0.97965198755264282 0.61960101127624512
vt 0.99876397848129272 0.61859598755836487
vt 0.71796500682830811 0.38436400890350342
vt 0.46955400705337524 0.39742499589920044
vt 0.96648597717285156 0.37132900953292847
vt 0.99870097637176514 0.40030401945114136
vt 0.22125899791717529 0.4104040265083313
vt 0.99867701530456543 0.36962199211120605
vt 0.953216016292572 0.12303102016448975
vt 0.99852198362350464 0.16376197338104248
vt 0.99849998950958252 0.12063497304916382
vt 0.99847602844238281 0.0727049708366394
vt 0.998511016368866 0.0018370151519775391
vt 0.9468420147895813 0.0018270015716552734
vt 0.45652499794960022 0.14917600154876709
vt 0.20813600718975067 0.1618419885635376
vt 0.0022440000902861357 0.42202001810073853
vt 0.002251999918371439 0.38982999324798584
vt 0.44867798686027527 0.0018159747123718262
vt 0.70494997501373291 0.1360899806022644
vt 0.55556100606918335 0.0018069744110107422
vt 0.82582002878189087 0.0018100142478942871
vt 0.697862982749939 0.0017920136451721191
vt 0.1996929943561554 0.0014399886131286621
vt 0.35254999995231628 0.0016970038414001465
vt 0.028835000470280647 0.0012630224227905273
vt 0.0016589999431744218 0.034474015235900879
vt 0.0021679999772459269 0.0011979937553405762
vn 0.027884000912308693 0.99960702657699585 0.0027290000580251217
vn 0.033123001456260681 0.99943798780441284 0.0051119998097419739
vn 0.027922999113798141 0.9996039867401123 0.0034610000438988209
vn 0.028055999428033829 0.99959999322891235 0.0034529999829828739
vn 0.044764000922441483 0.99892300367355347 0.012206999585032463
vn 0.022727999836206436 0.99972701072692871 0.0054230000823736191
vn 0.035477999597787857 0.99931901693344116 0.010130000300705433
vn 0.028062999248504639 0.99959999322891235 0.0034529999829828739
vn 0.0094100004062056541 0.99960798025131226 -0.026351999491453171
vn -0.011992000043392181 0.9998670220375061 -0.011052999645471573
vn -0.019152000546455383 0.99903500080108643 -0.039521999657154083
vn -0.018206000328063965 0.99829798936843872 -0.055413000285625458
vn 0.031191999092698097 0.99930799007415771 -0.020273000001907349
vn 0.051098000258207321 0.99254399538040161 -0.11066000163555145
vn 0.024064000695943832 0.99953597784042358 0.018652999773621559
vn 0.02979700081050396 0.99837499856948853 0.048578999936580658
vn 0.044282998889684677 0.99579101800918579 -0.080247998237609863
vn 0.048011001199483871 0.99527502059936523 -0.084398999810218811
vn 0.072507001459598541 0.99109899997711182 -0.11164499819278717
vn 0.077012002468109131 0.99645102024078369 -0.033971000462770462
vn 0.0753529965877533 0.99618202447891235 0.044087998569011688
vn -0.033222999423742294 0.99942797422409058 0.0062589999288320541
vn 0.023344000801444054 0.99776202440261841 0.062656000256538391
vn 0.0061460002325475216 0.99921697378158569 0.0390780009329319
vn 0.029334999620914459 0.99956899881362915 0.00039100000867620111
vn 0.040931999683380127 0.99914699792861938 0.0054410002194345
vn 0.033838998526334763 0.99941998720169067 0.0037730000913143158
vn 0.04284600168466568 0.99907600879669189 0.0032099999953061342
vn 0.02768700011074543 0.9993399977684021 0.023530999198555946
vn 0.036047998815774918 0.99921500682830811 0.01642799936234951
vn 0.0298870000988245 0.99942499399185181 0.01601099967956543
vn 0.00973500031977892 0.99983900785446167 0.015057999640703201
vn 0.017651999369263649 0.999563992023468 0.0236859992146492
vn 0.022579999640583992 0.99973899126052856 0.0035850000567734241
vn 0.01955999992787838 0.99967998266220093 0.016029000282287598
vn 0.02562200091779232 0.99961501359939575 0.010610000230371952
vn 0.01178400032222271 0.99993002414703369 -0.00073199998587369919
vn 0.0075539997778832912 0.99996101856231689 -0.0045380000956356525
vn 0.013004000298678875 0.99990397691726685 -0.0048250001855194569
vn 0.016316000372171402 0.99982297420501709 -0.0093710003420710564
vn 0.011628000065684319 0.99986898899078369 -0.011291000060737133
vn 0.00812000036239624 0.99989598989486694 0.011908000335097313
vn 0.01864900067448616 0.998869001865387 -0.04374299943447113
vn 0.010141000151634216 0.9999459981918335 0.0023950000759214163
vn 0.0339060015976429 0.999405026435852 -0.0063519999384880066
vn 0.04763299971818924 0.99886399507522583 0.0011889999732375145
vn 0.021011000499129295 0.99977600574493408 -0.0024749999865889549
vn 0.0373929999768734 0.99929201602935791 0.004280999768525362
vn 0.0212980005890131 0.99906498193740845 0.037613000720739365
vn -0.015579000115394592 0.9997900128364563 0.013311999849975109
vn 0.056786999106407166 0.99835997819900513 0.0071879997849464417
vn 0.064878001809120178 0.99789100885391235 -0.001879999996162951
vn 0.064878001809120178 0.99789100885391235 -0.001879999996162951
f 1/1/1 2/2/2 3/3/3
f 3/3/3 2/2/2 4/4/4
f 5/5/5 2/2/2 6/6/6
f 5/5/5 7/7/7 2/2/2
f 8/8/8 2/2/2 7/7/7
f 8/8/8 4/4/4 2/2/2
f 9/9/9 10/10/10 11/11/11
f 9/9/9 6/6/6 10/10/10
f 5/5/5 6/6/6 9/9/9
f 12/12/12 13/13/13 14/14/14
f 6/6/6 2/2/2 15/15/15
f 13/13/13 10/10/10 16/16/16
f 11/11/11 13/13/13 12/12/12
f 11/11/11 10/10/10 13/13/13
f 14/14/14 17/17/17 18/18/18
f 14/14/14 19/19/19 17/17/17
f 19/19/19 13/13/13 20/20/20
f 19/19/19 14/14/14 13/13/13
f 21/21/21 13/13/13 16/16/16
f 21/21/21 20/20/20 13/13/13
f 22/22/22 18/18/18 17/17/17
f 21/21/21 16/16/16 23/23/23
f 10/10/10 6/6/6 24/24/24
f 2/2/2 25/25/25 26/26/26
f 2/2/2 1/1/1 25/25/25
f 25/25/25 27/27/27 26/26/26
f 26/26/26 28/28/28 15/15/15
f 6/6/6 15/15/15 24/24/24
f 10/10/10 24/24/24 16/16/16
f 15/15/15 29/29/29 24/24/24
f 15/15/15 2/2/2 26/26/26
f 27/27/27 30/30/30 26/26/26
f 27/27/27 31/31/31 30/30/30
f 16/16/16 24/24/24 32/32/32
f 33/33/33 30/30/30 31/31/31
f 33/33/33 34/34/34 30/30/30
f 33/33/33 35/35/35 34/34/34
f 36/36/36 34/34/34 35/35/35
f 37/37/37 34/34/34 36/36/36
f 38/38/38 34/34/34 37/37/37
f 38/38/38 39/39/39 34/34/34
f 28/28/28 30/30/30 34/34/34
f 29/29/29 28/28/28 40/40/40
f 28/28/28 29/29/29 15/15/15
f 32/32/32 40/40/40 41/41/41
f 32/32/32 23/23/23 16/16/16
f 32/32/32 42/42/42 23/23/23
f 42/42/42 41/41/41 43/43/43
f 42/42/42 32/32/32 41/41/41
f 24/24/24 29/29/29 32/32/32
f 32/32/32 29/29/29 40/40/40
f 44/44/44 45/45/45 46/46/46
f 44/44/44 40/40/40 45/45/45
f 28/28/28 45/45/45 40/40/40
f 39/39/39 45/45/45 34/34/34
f 39/39/39 47/47/47 45/45/45
f 48/48/48 45/45/45 47/47/47
f 49/49/49 41/41/41 50/50/50
f 48/48/48 46/46/46 45/45/45
f 51/51/51 41/41/41 49/49/49
f 44/44/44 41/41/41 40/40/40
f 44/44/44 50/50/50 41/41/41
f 43/43/43 41/41/41 52/52/52
f 52/52/52 51/51/51 53/53/53
f 52/52/52 41/41/41 51/51/51
f 34/34/34 45/45/45 28/28/28
f 26/26/26 30/30/30 28/28/28
