mtllib m1331.mtl
usemtl material0
v 1792 -19.339458465576172 289.4521484375
v 1807.0078125 -19.4564266204834 288.66000366210938
v 1792 -19.413885116577148 273.05181884765625
v 1805.282958984375 -19.591611862182617 256
v 1792 -19.491268157958984 256
v 1933.2542724609375 -24.092107772827148 256
v 1905.80859375 -22.7631893157959 256
v 1934.6229248046875 -24.16810417175293 281.935546875
v 1836.390625 -20.154764175415039 256
v 1810.370849609375 -20.538661956787109 352.48345947265625
v 1792 -20.106710433959961 335.95181274414062
v 1869.272705078125 -21.109046936035156 256
v 1870.8182373046875 -21.292387008666992 285.2960205078125
v 1997.2535400390625 -23.930889129638672 256
v 1998.4398193359375 -24.805812835693359 278.56756591796875
v 1957.9591064453125 -23.459138870239258 256
v 2048 -25.682283401489258 262.126708984375
v 2048 -26.196559906005859 275.9547119140625
v 2041.1585693359375 -25.2490291595459 256
v 1937.9813232421875 -26.100908279418945 345.76174926757812
v 1874.1771240234375 -23.135837554931641 349.12197875976562
v 2001.78955078125 -28.301572799682617 342.39898681640625
v 2048 -27.012554168701172 291.30862426757812
v 2048 -25.693826675415039 256
v 1792 -20.121250152587891 372.90322875976562
v 1792 -20.124599456787109 353.4522705078125
v 1792 -20.770448684692383 417.45196533203125
v 1813.734130859375 -21.599641799926758 416.3067626953125
v 1877.5419921875 -23.886276245117188 412.94424438476562
v 1941.3447265625 -27.123313903808594 409.58486938476562
v 2005.142333984375 -31.254602432250977 406.22845458984375
v 1880.898681640625 -26.144235610961914 476.77142333984375
v 2008.513916015625 -30.774826049804688 470.04647827148438
v 2048 -29.931041717529297 383.77081300318241
v 2048 -30.872127532958984 403.96414184570312
v 2048 -30.714561462402344 426.38775634765625
v 2048 -30.025375366210938 494.93746948242188
v 2048 -29.920392990112305 505.3795166015625
v 1944.7091064453125 -27.955522537231445 473.40728759765625
v 1792 -21.164501190185547 457.53799438476562
v 1817.0989990234375 -22.357143402099609 480.12905883789062
v 1792 -21.458551406860352 481.45172119140625
v 1882.751708984375 -27.325942993164062 512
v 1852.494873046875 -25.481616973876953 512
v 1946.7421875 -28.687397003173828 512
v 1920.0389400012791 -27.904888153076172 512
v 1818.7745361328125 -23.585897445678711 512
v 1792 -22.149440765380859 500.34368896484375
v 1792 -22.575717926025391 512
v 2010.7296142578125 -30.590217590332031 512
v 1987.58984375 -29.575937271118164 512
v 2048 -29.897756576538086 512
vt 0.99848902225494385 0.868138998746872
vt 0.94010299444198608 0.87122200429439545
vt 0.99848902225494385 0.93194100260734558
vt 0.94681298732757568 0.99827900005038828
vt 0.99848902225494385 0.99827800004277378
vt 0.4485970139503479 0.99822700000368059
vt 0.55549299716949463 0.99825399997644126
vt 0.44328999519348145 0.89733000099658966
vt 0.825776994228363 0.99829000001773238
vt 0.92697697877883911 0.62289899587631226
vt 0.99845802783966064 0.68721801042556763
vt 0.69780302047729492 0.99830099998507649
vt 0.69175797700881958 0.88425199687480927
vt 0.19957700371742249 0.99828399997204542
vt 0.19492800533771515 0.91042599827051163
vt 0.35245800018310547 0.99821899994276464
vt 0.0020659998990595341 0.97429399937391281
vt 0.0020439999643713236 0.9204619973897934
vt 0.028697999194264412 0.99815400002989918
vt 0.43005099892616272 0.64875501394271851
vt 0.678542971611023 0.6358569860458374
vt 0.1816679984331131 0.661745011806488
vt 0.0019900000188499689 0.86064699292182922
vt 0.00203399988822639 0.99812799994833767
vt 0.99847102165222168 0.54346799850463867
vt 0.998462975025177 0.6191369891166687
vt 0.99846899509429932 0.37015998363494873
vt 0.91385400295257568 0.37457799911499023
vt 0.66545999050140381 0.38755500316619873
vt 0.41692298650741577 0.40045899152755737
vt 0.16820399463176727 0.41333001852035522
vt 0.65219199657440186 0.13910597562789917
vt 0.15542200207710266 0.16503697633743286
vt 0.0016250000335276127 0.50112798810005188
vt 0.0014890000456944108 0.42248600721359253
vt 0.001576000009663403 0.33466798067092896
vt 0.0019259999971836805 0.067978978157043457
vt 0.0018889999482780695 0.027454972267150879
vt 0.40385100245475769 0.15215098857879639
vt 0.99847900867462158 0.21420800685882568
vt 0.90083801746368408 0.12627202272415161
vt 0.99851000308990479 0.12116998434066773
vt 0.64484602212905884 0.0019879937171936035
vt 0.76277101039886475 0.0020989775657653809
vt 0.395889014005661 0.0019919872283935547
vt 0.49977201223373413 0.0020599961280822754
vt 0.89416801929473877 0.0022010207176208496
vt 0.99844402074813843 0.047626018524169922
vt 0.99840199947357178 0.0022500157356262207
vt 0.14692500233650208 0.0018190145492553711
vt 0.23694300651550293 0.0019840002059936523
vt 0.0019089999841526151 0.0016989707946777344
vn 0.0081280004233121872 0.99994701147079468 0.0063330000266432762
vn 0.018897999078035355 0.99978798627853394 0.0081970002502202988
vn 0.0075539997778832912 0.99996101856231689 -0.0045380000956356525
vn 0.012649999931454659 0.9999079704284668 -0.0048070000484585762
vn 0.0075539997778832912 0.99996101856231689 -0.0045380000956356525
vn 0.012625000439584255 0.99991798400878906 0.0022640000097453594
vn 0.045958999544382095 0.99893897771835327 0.0030519999563694
vn 0.02772199921309948 0.99934899806976318 0.023088999092578888
vn 0.026099000126123428 0.99965697526931763 0.0021059999708086252
vn 0.03230300173163414 0.99941402673721313 0.011284999549388886
vn 0.012377999722957611 0.99984699487686157 0.012369000352919102
vn 0.036846000701189041 0.99931198358535767 0.0043100002221763134
vn 0.0378899984061718 0.99915802478790283 0.0157299991697073
vn 0.020687999203801155 0.99907702207565308 0.03764599934220314
vn 0.021405000239610672 0.99873101711273193 0.0455779992043972
vn 0.0019630000460892916 0.99957501888275146 0.0290910005569458
vn 0.039340000599622726 0.998869001865387 0.02670699916779995
vn 0.030384000390768051 0.9985319972038269 0.044838998466730118
vn 0.038098998367786407 0.99887901544570923 0.0280930008739233
vn 0.045811999589204788 0.99866700172424316 0.023775000125169754
vn 0.042350001633167267 0.99895501136779785 0.017186999320983887
vn 0.02009199932217598 0.99892699718475342 0.041717000305652618
vn 0.025235999375581741 0.998528003692627 0.048018999397754669
vn 0.064878001809120178 0.99789100885391235 -0.001879999996162951
vn 0.03507100045681 0.99932301044464111 0.011123999953269959
vn 0.022554999217391014 0.99974602460861206 0.00040499999886378646
vn 0.038757998496294022 0.99917501211166382 0.012113000266253948
vn 0.041260998696088791 0.99904501438140869 0.01438399963080883
vn 0.040924999862909317 0.99897897243499756 0.019130999222397804
vn 0.055558998137712479 0.99841499328613281 0.00901500042527914
vn 0.0248429998755455 0.99958997964859009 0.014266000129282475
vn 0.0405069999396801 0.99879997968673706 0.027535999193787575
vn 0.01790899969637394 0.99982398748397827 -0.0055240001529455185
vn -0.0028570001013576984 0.99909102916717529 0.042541000992059708
vn -0.0078299995511770248 0.99975597858428955 0.020672999322414398
vn -0.010077999904751778 0.99991899728775024 -0.007734999991953373
vn -0.012640999630093575 0.99987000226974487 -0.010053000412881374
vn -0.0169879999011755 0.99984198808670044 -0.0051939999684691429
vn 0.036862000823020935 0.999222993850708 0.013918999582529068
vn 0.038047999143600464 0.99922102689743042 0.010479999706149101
vn 0.048346001654863358 0.99858200550079346 0.022292999550700188
vn 0.037073999643325806 0.9990050196647644 0.024805000051856041
vn 0.037399999797344208 0.99880301952362061 0.031537000089883804
vn 0.059716001152992249 0.99771898984909058 0.0314910002052784
vn 0.025388000532984734 0.99952197074890137 0.0176170002669096
vn 0.026076000183820724 0.99944001436233521 0.020979000255465508
vn 0.047205999493598938 0.99823600053787231 0.036003999412059784
vn 0.03767700120806694 0.99862200021743774 0.036520000547170639
vn 0.03767700120806694 0.99862200021743774 0.036520000547170639
vn 0.011567000299692154 0.99992102384567261 -0.0050110002048313618
vn 0.038653001189231873 0.99925202131271362 -0.000990999978967011
vn -0.0185759998857975 0.99982202053070068 -0.003418999956920743
f 1/1/1 2/2/2 3/3/3
f 3/3/3 4/4/4 5/5/5
f 3/3/3 2/2/2 4/4/4
f 6/6/6 7/7/7 8/8/8
f 4/4/4 2/2/2 9/9/9
f 1/1/1 10/10/10 2/2/2
f 1/1/1 11/11/11 10/10/10
f 12/12/12 2/2/2 13/13/13
f 12/12/12 9/9/9 2/2/2
f 14/14/14 8/8/8 15/15/15
f 14/14/14 16/16/16 8/8/8
f 12/12/12 8/8/8 7/7/7
f 12/12/12 13/13/13 8/8/8
f 17/17/17 15/15/15 18/18/18
f 17/17/17 19/19/19 15/15/15
f 19/19/19 14/14/14 15/15/15
f 13/13/13 20/20/20 8/8/8
f 6/6/6 8/8/8 16/16/16
f 2/2/2 21/21/21 13/13/13
f 18/18/18 22/22/22 23/23/23
f 18/18/18 15/15/15 22/22/22
f 24/24/24 19/19/19 17/17/17
f 8/8/8 22/22/22 15/15/15
f 25/25/25 10/10/10 26/26/26
f 27/27/27 10/10/10 25/25/25
f 27/27/27 28/28/28 10/10/10
f 21/21/21 28/28/28 29/29/29
f 28/28/28 21/21/21 10/10/10
f 29/29/29 30/30/30 20/20/20
f 29/29/29 20/20/20 21/21/21
f 13/13/13 21/21/21 20/20/20
f 20/20/20 31/31/31 22/22/22
f 21/21/21 2/2/2 10/10/10
f 29/29/29 28/28/28 32/32/32
f 31/31/31 30/30/30 33/33/33
f 30/30/30 31/31/31 20/20/20
f 31/31/31 34/34/34 22/22/22
f 31/31/31 35/35/35 34/34/34
f 36/36/36 31/31/31 33/33/33
f 36/36/36 35/35/35 31/31/31
f 23/23/23 22/22/22 34/34/34
f 37/37/37 33/33/33 38/38/38
f 37/37/37 36/36/36 33/33/33
f 30/30/30 29/29/29 39/39/39
f 26/26/26 10/10/10 11/11/11
f 28/28/28 40/40/40 41/41/41
f 28/28/28 27/27/27 40/40/40
f 40/40/40 42/42/42 41/41/41
f 41/41/41 43/43/43 32/32/32
f 41/41/41 44/44/44 43/43/43
f 29/29/29 32/32/32 39/39/39
f 30/30/30 39/39/39 33/33/33
f 32/32/32 45/45/45 39/39/39
f 32/32/32 46/46/46 45/45/45
f 32/32/32 28/28/28 41/41/41
f 42/42/42 47/47/47 41/41/41
f 42/42/42 48/48/48 47/47/47
f 48/48/48 49/49/49 47/47/47
f 50/50/50 39/39/39 51/51/51
f 50/50/50 33/33/33 39/39/39
f 22/22/22 8/8/8 20/20/20
f 43/43/43 46/46/46 32/32/32
f 50/50/50 38/38/38 33/33/33
f 50/50/50 52/52/52 38/38/38
f 51/51/51 39/39/39 45/45/45
f 44/44/44 41/41/41 47/47/47
