mtllib m2003.mtl
usemtl material0
v -1690.999267578125 14.631277084350586 -512
v -1717.7130126953125 14.463993072509766 -512
v -1689.669677734375 14.080540657043457 -486.766845703125
v -1626.99267578125 16.399456024169922 -512
v -1650.1358642578125 15.722986221313477 -512
v -1625.84130859375 15.864234924316406 -490.14346313476562
v -1754.9969482421875 14.810322761535645 -512
v -1785.2791748046875 14.490592956542969 -512
v -1753.4876708984375 14.656931877136231 -483.398681640625
v -1686.3013916015625 13.880610466003418 -422.94589233398438
v -1622.482177734375 13.590118408203125 -426.3150634765625
v -1792 14.474254608154297 -481.36431884765625
v -1792 14.46197509765625 -505.29132080078125
v -1792 14.458532333374023 -512
v -1792 13.818106651306152 -457.25259399414062
v -1750.1259765625 12.931146621704102 -419.57229614257812
v -1606.1761474609375 16.542304992675781 -512
v -1536 17.394432067871094 -494.89291381835938
v -1562.0157470703125 16.974861145019531 -493.51766967773438
v -1536 16.82014274597168 -470.11032104492188
v -1536 17.6693058013916 -512
v -1562.990234375 17.25694465637207 -512
v -1536 17.568191528320312 -505.70706176757812
v -1558.65234375 15.685103416442871 -429.6927490234375
v -1792 11.616892814636231 -353.35855102539062
v -1792 11.871298789978027 -373.03155517578125
v -1746.76025390625 12.142617225646973 -355.74929809570312
v -1792 13.342835426330566 -417.36236572265625
v -1619.1060791015625 15.130166053771973 -362.50030517578125
v -1536 16.001045227050781 -430.89004516601562
v -1555.2862548828125 14.975187301635742 -365.86996459960938
v -1536 16.14091682434082 -409.31613159179688
v -1682.9293212890625 14.511491775512695 -359.12789916992188
v -1679.56298828125 13.868729591369629 -295.30538940429688
v -1551.9150390625 15.420785903930664 -302.05130004882812
v -1536 15.598236083984375 -366.8905029296875
v -1536 15.511595726013184 -348.52236938476562
v -1615.737548828125 14.976164817810059 -298.67950439453125
v -1792 11.487442970275879 -335.65725708007812
v -1743.3929443359375 11.713718414306641 -291.9276123046875
v -1677.4908447265625 13.231587409973145 -256
v -1703.4541015625 12.379671096801758 -256
v -1613.4896240234375 13.845211029052734 -256
v -1635.87841796875 13.489097595214844 -256
v -1792 11.483158111572266 -289.36001586914062
v -1741.498046875 11.317952156066895 -256
v -1792 11.320337295532227 -274.86712646484375
v -1771.0303955078125 11.195395469665527 -256
v -1792 11.389449119567871 -281.01889038085938
v -1792 10.975341796875 -256
v -1593.349365234375 13.957013130187988 -256
v -1536 15.298286437988281 -291.01803588867188
v -1536 15.16612434387207 -287.73074340820312
v -1536 15.775702476501465 -302.89291381835938
v -1549.4898681640625 14.134964942932129 -256
v -1536 14.264151573181152 -256
vt 0.38188698887825012 0.022635996341705322
vt 0.28151699900627136 0.026127994060516357
vt 0.39016899466514587 0.11729097366333008
vt 0.62245899438858032 0.014150023460388184
vt 0.53547102212905884 0.017221987247467041
vt 0.62962502241134644 0.096144974231719971
vt 0.14142799377441406 0.030970990657806396
vt 0.027644999325275421 0.034918010234832764
vt 0.15081900358200073 0.13823699951171875
vt 0.41112199425697327 0.35664302110671997
vt 0.65047401189804077 0.33568298816680908
vt 0.0063840001821517944 0.15089797973632813
vt 0.003266999963670969 0.060998976230621338
vt 0.0023930000606924295 0.0357930064201355
vt 0.00951599981635809 0.24152302742004395
vt 0.17173899710178375 0.37769800424575806
vt 0.70067298412323 0.011433005332946777
vt 0.96659702062606812 0.066488027572631836
vt 0.86901998519897461 0.0750730037689209
vt 0.96982097625732422 0.15962600708007813
vt 0.96436399221420288 0.0022029876708984375
vt 0.86294597387313843 0.00575101375579834
vt 0.96518599987030029 0.025849997997283936
vt 0.88996797800064087 0.31448698043823242
vt 0.023048000410199165 0.631985992193222
vt 0.020479999482631683 0.55806499719619751
vt 0.19271999597549439 0.6170710027217865
vt 0.014685999602079392 0.39140999317169189
vt 0.6714320182800293 0.5750809907913208
vt 0.97492802143096924 0.30701601505279541
vt 0.91102200746536255 0.553849995136261
vt 0.97779899835586548 0.38803398609161377
vt 0.43205800652503967 0.59599599242210388
vt 0.45320600271224976 0.83534699678421021
vt 0.93196600675582886 0.79319900274276733
vt 0.98338401317596436 0.54744601249694824
vt 0.98575198650360107 0.61653798818588257
vt 0.692326009273529 0.81443600356578827
vt 0.025364000350236893 0.69849398732185364
vt 0.2136940062046051 0.85642699897289276
vt 0.46607199311256409 0.98277799971401691
vt 0.36847200989723206 0.98618900030851364
vt 0.70651000738143921 0.97454000078141689
vt 0.62237900495529175 0.97743500024080276
vt 0.031417001038789749 0.87244099378585815
vt 0.22547799348831177 0.991177000105381
vt 0.033309999853372574 0.92689699679613113
vt 0.11455900222063065 0.995048999786377
vt 0.0325080007314682 0.90378200262784958
vt 0.035769000649452209 0.997795999981463
vt 0.78212898969650269 0.97185000032186508
vt 0.99316602945327759 0.83263500034809113
vt 0.99359101057052612 0.84514899551868439
vt 0.99166899919509888 0.78798100352287292
vt 0.9469190239906311 0.96613999828696251
vt 0.99760597944259644 0.96441999822855
vn -0.016140999272465706 0.99961298704147339 0.022668000310659409
vn 0.0056619998067617416 0.99994397163391113 0.008902999572455883
vn -0.0066619999706745148 0.99986797571182251 0.014829999767243862
vn -0.01840599998831749 0.99950700998306274 0.025445999577641487
vn -0.027284000068902969 0.99934297800064087 0.023870000615715981
vn -0.022293999791145325 0.999364972114563 0.027798999100923538
vn -0.0009679999784566462 0.9999849796295166 0.0054139997810125351
vn -0.006120000034570694 0.99998098611831665 0.00098699994850903749
vn -0.00094900000840425491 0.999921977519989 0.012493000365793705
vn -0.0066829998977482319 0.9999769926071167 0.00096400000620633364
vn -0.013419000431895256 0.99988698959350586 0.0067850002087652683
vn -0.0040130000561475754 0.99989700317382812 0.013811999931931496
vn -0.0047699999995529652 0.99998897314071655 -0.00051300000632181764
vn -0.0047699999995529652 0.99998897314071655 -0.00051300000632181764
vn 0.00036700000055134296 0.99973201751708984 0.023125000298023224
vn -0.0059210001491010189 0.99976497888565063 0.020862000063061714
vn -0.01396000012755394 0.99973201751708984 0.018455000594258308
vn -0.015092000365257263 0.99969601631164551 0.019494000822305679
vn -0.015491999685764313 0.99970299005508423 0.018819000571966171
vn -0.013388999737799168 0.99967902898788452 0.021487999707460403
vn -0.015274000354111195 0.999754011631012 0.016063999384641647
vn -0.015930000692605972 0.99974298477172852 0.016098000109195709
vn -0.015274000354111195 0.999754011631012 0.016063999384641647
vn -0.02286900021135807 0.99960201978683472 0.016497999429702759
vn -0.011090000160038471 0.999888002872467 0.010026999749243259
vn -0.0056870002299547195 0.99982798099517822 0.017651999369263649
vn -0.020723000168800354 0.99975097179412842 0.0082700001075863838
vn 0.011037000454962254 0.99967700242996216 0.022900000214576721
vn -0.0035580000840127468 0.99994301795959473 -0.010064000263810158
vn -0.013540999963879585 0.999879002571106 0.0076589998789131641
vn -0.018093999475240707 0.9998360276222229 -0.00013299999409355223
vn -0.026988999918103218 0.99960601329803467 0.0076430002227425575
vn -0.024323999881744385 0.99970400333404541 0.00041899998905137181
vn -0.023870000615715981 0.99959897994995117 0.015261000022292137
vn -0.011165999807417393 0.99984699487686157 0.01345400046557188
vn -0.031817998737096786 0.99945402145385742 0.0088860001415014267
vn -0.025119999423623085 0.99967998266220093 -0.0029839999042451382
vn -0.010355000384151936 0.99981898069381714 0.015954000875353813
vn -0.0095009999349713326 0.99993997812271118 0.005386000033468008
vn -0.0189449992030859 0.99977397918701172 0.00965499971061945
vn -0.019046999514102936 0.99967098236083984 0.017209000885486603
vn -0.031647998839616776 0.99936002492904663 0.016658000648021698
vn -0.010551000013947487 0.99957901239395142 0.027042999863624573
vn -0.0136329997330904 0.99959897994995117 0.024806000292301178
vn -0.0044339997693896294 0.99997299909591675 0.00585100008174777
vn -0.016419999301433563 0.99979501962661743 0.011878999881446362
vn -0.0058419997803866863 0.99989700317382812 0.013113999739289284
vn -0.0056289997883141041 0.99990099668502808 0.012877999804913998
vn -0.0041490001603960991 0.99992799758911133 0.011234000325202942
vn -0.010491999797523022 0.99977797269821167 0.018281999975442886
vn -0.0051509998738765717 0.99961799383163452 0.027139000594615936
vn -0.020153999328613281 0.998989999294281 0.040162999182939529
vn -0.012396000325679779 0.99942499399185181 0.03154899924993515
vn -0.021423999220132828 0.99963599443435669 0.016414999961853027
vn -0.0069059999659657478 0.99957597255706787 0.028272999450564384
vn -0.0095720002427697182 0.9995499849319458 0.028412999585270882
f 1/1/1 2/2/2 3/3/3
f 4/4/4 5/5/5 6/6/6
f 7/7/7 8/8/8 9/9/9
f 3/3/3 9/9/9 10/10/10
f 7/7/7 3/3/3 2/2/2
f 7/7/7 9/9/9 3/3/3
f 1/1/1 6/6/6 5/5/5
f 1/1/1 3/3/3 6/6/6
f 6/6/6 3/3/3 11/11/11
f 8/8/8 12/12/12 9/9/9
f 8/8/8 13/13/13 12/12/12
f 13/13/13 8/8/8 14/14/14
f 9/9/9 15/15/15 16/16/16
f 9/9/9 12/12/12 15/15/15
f 4/4/4 6/6/6 17/17/17
f 18/18/18 19/19/19 20/20/20
f 21/21/21 22/22/22 23/23/23
f 23/23/23 19/19/19 18/18/18
f 23/23/23 22/22/22 19/19/19
f 19/19/19 17/17/17 6/6/6
f 19/19/19 22/22/22 17/17/17
f 19/19/19 6/6/6 24/24/24
f 25/25/25 16/16/16 26/26/26
f 25/25/25 27/27/27 16/16/16
f 28/28/28 26/26/26 16/16/16
f 28/28/28 16/16/16 15/15/15
f 11/11/11 10/10/10 29/29/29
f 3/3/3 10/10/10 11/11/11
f 20/20/20 24/24/24 30/30/30
f 20/20/20 19/19/19 24/24/24
f 11/11/11 24/24/24 6/6/6
f 9/9/9 16/16/16 10/10/10
f 24/24/24 11/11/11 31/31/31
f 30/30/30 24/24/24 32/32/32
f 33/33/33 27/27/27 34/34/34
f 10/10/10 27/27/27 33/33/33
f 29/29/29 35/35/35 31/31/31
f 11/11/11 29/29/29 31/31/31
f 32/32/32 31/31/31 36/36/36
f 32/32/32 24/24/24 31/31/31
f 36/36/36 31/31/31 37/37/37
f 29/29/29 10/10/10 33/33/33
f 29/29/29 33/33/33 38/38/38
f 27/27/27 39/39/39 40/40/40
f 27/27/27 25/25/25 39/39/39
f 27/27/27 10/10/10 16/16/16
f 41/41/41 40/40/40 42/42/42
f 41/41/41 34/34/34 40/40/40
f 40/40/40 34/34/34 27/27/27
f 34/34/34 38/38/38 33/33/33
f 43/43/43 34/34/34 44/44/44
f 43/43/43 38/38/38 34/34/34
f 39/39/39 45/45/45 40/40/40
f 46/46/46 47/47/47 48/48/48
f 46/46/46 49/49/49 47/47/47
f 49/49/49 40/40/40 45/45/45
f 49/49/49 46/46/46 40/40/40
f 46/46/46 42/42/42 40/40/40
f 41/41/41 44/44/44 34/34/34
f 50/50/50 48/48/48 47/47/47
f 51/51/51 38/38/38 43/43/43
f 51/51/51 35/35/35 38/38/38
f 52/52/52 35/35/35 53/53/53
f 52/52/52 54/54/54 35/35/35
f 35/35/35 37/37/37 31/31/31
f 35/35/35 54/54/54 37/37/37
f 55/55/55 53/53/53 35/35/35
f 55/55/55 56/56/56 53/53/53
f 55/55/55 35/35/35 51/51/51
f 29/29/29 38/38/38 35/35/35
