mtllib m2002.mtl
usemtl material0
v -2048 16.508621215820312 -512
v -2048 17.237329483032227 -493.8758544921875
v -2031.6944580078125 16.542850494384766 -512
v -1970.9111328125 12.020389556884766 -512
v -2010.9871826171875 15.558883666992188 -512
v -2008.7669677734375 15.266887664794922 -469.91995239257812
v -1947.0072021484375 11.476424217224121 -512
v -1944.95361328125 13.624040603637695 -473.2843017578125
v -2048 17.122003555297852 -467.85433959960938
v -2048 17.086404800415039 -444.44216918945312
v -2005.3988037109375 15.010315895080566 -406.09881591796875
v -1818.99755859375 14.329740524291992 -512
v -1852.850341796875 13.92923641204834 -512
v -1817.3094482421875 14.354203224182129 -480.02737426757812
v -1881.129638671875 14.440401077270508 -476.65744018554688
v -1877.7730712890625 11.527133941650391 -412.82684326171875
v -1910.1212158203125 13.581819534301758 -512
v -1882.9976806640625 13.947711944580078 -512
v -1813.9437255859375 13.558577537536621 -416.20428466796875
v -1792 14.46197509765625 -505.29132080078125
v -1792 14.474254608154297 -481.36431884765625
v -1792 14.458532333374023 -512
v -1792 13.818106651306152 -457.25259399414062
v -1941.5849609375 13.497838973999023 -409.46365356445312
v -2048 16.319469451904297 -403.85348510742188
v -2048 16.923032760620117 -383.65197798609734
v -2002.021728515625 16.818426132202148 -342.28500366210938
v -1874.403564453125 11.575993537902832 -349.00686645507812
v -1810.583984375 11.400930404663086 -352.37643432617188
v -1938.21826171875 12.899736404418945 -345.64132690429688
v -2048 16.107952117919922 -339.85464477539062
v -1934.8519287109375 12.225235939025879 -281.81878662109375
v -1998.6591796875 15.285540580749512 -278.4593505859375
v -2048 15.686979293823242 -322.85385131835938
v -1807.2147216796875 11.410989761352539 -288.55633544921875
v -1871.03076171875 12.408305168151856 -285.18963623046875
v -1792 11.616892814636231 -353.35855102539062
v -1792 11.871298789978027 -373.03155517578125
v -1792 13.342835426330566 -417.36236572265625
v -1792 11.487442970275879 -335.65725708007812
v -2018.8663330078125 14.811650276184082 -256
v -1997.4736328125 15.258930206298828 -256
v -2048 15.060007095336914 -260.81735229492188
v -2048 15.436591148376465 -275.85427856445312
v -2048 14.939361572265625 -256
v -1933.4852285385132 13.032276153564453 -256
v -1973.698974609375 14.889640808105469 -256
v -1897.291748046875 13.195393562316895 -256
v -1805.49853515625 10.833688735961914 -256
v -1838.59521484375 11.380363464355469 -256
v -1792 11.483158111572266 -289.36001586914062
v -1792 11.389449119567871 -281.01889038085938
v -1792 11.320337295532227 -274.86712646484375
v -1869.48486328125 13.486903190612793 -256
v -1792 10.975341796875 -256
vt 0.99844801425933838 0.000926971435546875
vt 0.92781400680541992 0.00093299150466918945
vt 0.99844801425933838 0.064423024654388428
vt 0.99863797426223755 0.30181699991226196
vt 0.998520016670227 0.14515000581741333
vt 0.83466202020645142 0.15398502349853516
vt 0.99854201078414917 0.39492499828338623
vt 0.84753000736236572 0.40257501602172852
vt 0.82648301124572754 0.0010439753532409668
vt 0.7353140115737915 0.0011320114135742188
vt 0.58614802360534668 0.16735398769378662
vt 0.99640697240829468 0.893655002117157
vt 0.99691301584243774 0.76182000339031219
vt 0.871878981590271 0.89975100010633469
vt 0.859686017036438 0.65118199586868286
vt 0.61281299591064453 0.66450399160385132
vt 0.99777001142501831 0.53879401087760925
vt 0.99735301733016968 0.64442500472068787
vt 0.62667399644851685 0.91314899921417236
vt 0.96987998485565186 0.99868600000627339
vt 0.8801109790802002 0.9964109999127686
vt 0.99600398540496826 0.99878599995281547
vt 0.78619301319122314 0.99777700006961823
vt 0.59948402643203735 0.41590899229049683
vt 0.57722902297973633 0.0013920068740844727
vt 0.49852800369262695 0.0014050006866455078
vt 0.337554007768631 0.18055099248886108
vt 0.36430299282073975 0.67784500122070312
vt 0.37764498591423035 0.92635399848222733
vt 0.350957989692688 0.42930400371551514
vt 0.3279469907283783 0.0014929771423339844
vt 0.1024480015039444 0.44304502010345459
vt 0.088945001363754272 0.19375300407409668
vt 0.26172399520874023 0.0015220046043395996
vt 0.12911300361156464 0.93967400118708611
vt 0.11578100174665451 0.6911500096321106
vt 0.3815079927444458 0.9987350000301376
vt 0.45812401175498962 0.99869299994315952
vt 0.6308479905128479 0.9986219999846071
vt 0.31257501244544983 0.99877599999308586
vt 0.0014189999783411622 0.11511701345443726
vt 0.0014909999445080757 0.19846099615097046
vt 0.020127000287175179 0.0016549825668334961
vt 0.078700996935367584 0.0016189813613891602
vt 0.0013620000099763274 0.001667022705078125
vt 0.0018279999494552612 0.44781601428985596
vt 0.0015859999693930149 0.29105299711227417
vt 0.0019900000188499689 0.58941400051116943
vt 0.0023229999933391809 0.94650499895215034
vt 0.0022090000566095114 0.81760600209236145
vt 0.13229000568389893 0.998920000041835
vt 0.099806003272533417 0.99894399999175221
vt 0.075877003371715546 0.99898699996992946
vt 0.002271000063046813 0.69770199060440063
vt 0.0023940000683069229 0.99907199997687712
vn -0.0020979999098926783 0.99919098615646362 -0.040173999965190887
vn 0.03592199832201004 0.99933701753616333 -0.0059750000946223736
vn 0.03425300121307373 0.99938499927520752 -0.0074789999052882195
vn 0.040121998637914658 0.99835598468780518 -0.040929000824689865
vn 0.067037999629974365 0.99774497747421265 0.0033859999384731054
vn 0.0437610000371933 0.99902999401092529 -0.0048790001310408115
vn -0.015744000673294067 0.99838697910308838 -0.054547000676393509
vn 0.0058800000697374344 0.99984800815582275 -0.016390999779105186
vn 0.047384999692440033 0.99887198209762573 0.0029249999206513166
vn 0.043150998651981354 0.99905002117156982 0.0061499997973442078
vn 0.0336030013859272 0.99940997362136841 -0.0071439999155700207
vn -0.00841899961233139 0.99996399879455566 -0.00032099999953061342
vn -0.00228899996727705 0.99993997812271118 -0.010746000334620476
vn -0.0012000000569969416 0.99998098611831665 0.0060890000313520432
vn -0.0092190001159906387 0.99988299608230591 0.012172999791800976
vn -0.00046599999768659472 0.99977302551269531 0.0213019996881485
vn -0.025095999240875244 0.999405026435852 -0.023669000715017319
vn -0.0066749998368322849 0.99988502264022827 -0.013585999608039856
vn -0.0053829997777938843 0.99960601329803467 0.027550000697374344
vn -0.0047709997743368149 0.99998801946640015 -0.00051300000632181764
vn -0.0040620001964271069 0.999908983707428 0.012880000285804272
vn -0.0047699999995529652 0.99998897314071655 -0.00051300000632181764
vn 0.0067879999987781048 0.99984902143478394 0.015992000699043274
vn 0.026443000882864 0.99964499473571777 0.0032659999560564756
vn 0.030383000150322914 0.99951797723770142 -0.0063049998134374619
vn 0.017503999173641205 0.99970299005508423 -0.016927000135183334
vn 0.027054000645875931 0.9996340274810791 0.00051500002155080438
vn 0.014365999959409237 0.99988502264022827 -0.0047840001061558723
vn -0.0046419999562203884 0.99993002414703369 0.010920999571681023
vn 0.0334089994430542 0.99944198131561279 0.00054600002476945519
vn -0.014295999892055988 0.99966001510620117 0.021781999617815018
vn 0.023675000295042992 0.99967098236083984 -0.0099090002477169037
vn 0.01655999943614006 0.99982798099517822 0.0083699999377131462
vn -0.0094750002026557922 0.99976402521133423 0.019571000710129738
vn 0.0033170001115649939 0.99997597932815552 0.0061619998887181282
vn 0.014646000228822231 0.99977600574493408 -0.01526699960231781
vn -0.01107999961823225 0.99988597631454468 0.010215999558568
vn 0.006326999980956316 0.99957501888275146 0.028455000370740891
vn 0.010999999940395355 0.999692976474762 0.022190000861883163
vn -0.0064710001461207867 0.9999769926071167 0.002019000006839633
vn -0.0023640000727027655 0.99981701374053955 0.01896899938583374
vn -0.0020749999675899744 0.99999701976776123 0.0012939999578520656
vn 0.0043819998390972614 0.99967700242996216 0.025035999715328217
vn 0.0038799999747425318 0.99987202882766724 0.015513000078499317
vn 0.0043819998390972614 0.99967700242996216 0.025035999715328217
vn 0.01996999979019165 0.99927902221679688 -0.032292000949382782
vn 0.038986999541521072 0.99890899658203125 -0.025720000267028809
vn -0.00609799986705184 0.99945497512817383 -0.032437000423669815
vn 0.0025579999200999737 0.99984198808670044 0.017595000565052032
vn 0.028539000079035759 0.99958699941635132 0.0034890000242739916
vn -0.0044539999216794968 0.99997502565383911 0.0054759997874498367
vn -0.0041490001603960991 0.99992799758911133 0.011234000325202942
vn -0.0087999999523162842 0.99982702732086182 0.016401000320911407
vn 0.030069999396800995 0.99880599975585938 -0.038499999791383743
vn -0.010490999557077885 0.99977797269821167 0.018280999734997749
f 1/1/1 2/2/2 3/3/3
f 4/4/4 5/5/5 6/6/6
f 7/7/7 6/6/6 8/8/8
f 7/7/7 4/4/4 6/6/6
f 9/9/9 3/3/3 2/2/2
f 9/9/9 6/6/6 3/3/3
f 6/6/6 5/5/5 3/3/3
f 6/6/6 10/10/10 11/11/11
f 6/6/6 9/9/9 10/10/10
f 12/12/12 13/13/13 14/14/14
f 15/15/15 8/8/8 16/16/16
f 17/17/17 15/15/15 18/18/18
f 17/17/17 8/8/8 15/15/15
f 18/18/18 14/14/14 13/13/13
f 18/18/18 15/15/15 14/14/14
f 14/14/14 15/15/15 19/19/19
f 20/20/20 14/14/14 21/21/21
f 20/20/20 12/12/12 14/14/14
f 20/20/20 22/22/22 12/12/12
f 21/21/21 14/14/14 23/23/23
f 7/7/7 8/8/8 17/17/17
f 8/8/8 6/6/6 24/24/24
f 10/10/10 25/25/25 11/11/11
f 11/11/11 26/26/26 27/27/27
f 11/11/11 25/25/25 26/26/26
f 16/16/16 24/24/24 28/28/28
f 8/8/8 24/24/24 16/16/16
f 15/15/15 16/16/16 19/19/19
f 19/19/19 16/16/16 29/29/29
f 24/24/24 6/6/6 11/11/11
f 24/24/24 11/11/11 30/30/30
f 26/26/26 31/31/31 27/27/27
f 28/28/28 24/24/24 30/30/30
f 27/27/27 30/30/30 11/11/11
f 29/29/29 16/16/16 28/28/28
f 27/27/27 32/32/32 30/30/30
f 31/31/31 33/33/33 27/27/27
f 31/31/31 34/34/34 33/33/33
f 35/35/35 29/29/29 28/28/28
f 30/30/30 36/36/36 28/28/28
f 37/37/37 38/38/38 29/29/29
f 39/39/39 29/29/29 38/38/38
f 39/39/39 19/19/19 29/29/29
f 39/39/39 14/14/14 19/19/19
f 39/39/39 23/23/23 14/14/14
f 37/37/37 29/29/29 40/40/40
f 41/41/41 42/42/42 33/33/33
f 43/43/43 33/33/33 44/44/44
f 43/43/43 41/41/41 33/33/33
f 43/43/43 45/45/45 41/41/41
f 33/33/33 32/32/32 27/27/27
f 33/33/33 46/46/46 32/32/32
f 33/33/33 47/47/47 46/46/46
f 34/34/34 44/44/44 33/33/33
f 42/42/42 47/47/47 33/33/33
f 48/48/48 32/32/32 46/46/46
f 48/48/48 36/36/36 32/32/32
f 49/49/49 36/36/36 50/50/50
f 49/49/49 35/35/35 36/36/36
f 36/36/36 35/35/35 28/28/28
f 40/40/40 35/35/35 51/51/51
f 40/40/40 29/29/29 35/35/35
f 52/52/52 35/35/35 53/53/53
f 52/52/52 51/51/51 35/35/35
f 54/54/54 50/50/50 36/36/36
f 55/55/55 35/35/35 49/49/49
f 55/55/55 53/53/53 35/35/35
f 54/54/54 36/36/36 48/48/48
f 30/30/30 32/32/32 36/36/36
