mtllib m2010.mtl
usemtl material0
v -1485.48779296875 14.909488677978516 -256
v -1500.7362060546875 14.601858139038086 -256
v -1484.7301025390625 14.345738410949707 -241.59748840332031
v -1357.4832763671875 16.515903472900391 -256
v -1365.5870361328125 16.525066375732422 -256
v -1357.0802001953125 16.291440963745117 -248.34474182128906
v -1293.4779052734375 17.985799789428711 -256
v -1298.00634765625 18.201433181762695 -256
v -1293.2509765625 18.204364776611328 -251.72166442871094
v -1421.48388671875 16.082208633422852 -256
v -1433.1590576171875 15.870426177978516 -256
v -1420.9036865234375 15.653171539306641 -244.9722900390625
v -1536 13.916766166687012 -226.932373046875
v -1481.357421875 15.127302169799805 -177.77998352050781
v -1536 13.77773380279541 -238.88818359375
v -1536 14.264151573181152 -256
v -1536 14.17887020111084 -252.99986267089844
v -1353.711181640625 16.249288558959961 -184.52430725097656
v -1289.88330078125 17.868759155273438 -187.90017700195313
v -1417.53076171875 16.467937469482422 -181.15487670898438
v -1289.4017333984375 18.177164077758789 -256
v -1280 18.338813781738281 -252.42185974121094
v -1280 18.28294563293457 -255.85800170898438
v -1280 18.280635833740234 -256
v -1536 13.059056282043457 -174.88771057128906
v -1477.9940185546875 13.815898895263672 -113.9552001953125
v -1536 12.862317085266113 -166.13551330566406
v -1280 18.029489517211914 -198.88499450683594
v -1350.351806640625 14.077547073364258 -120.69650316238403
v -1280 17.727598190307617 -188.421630859375
v -1280 17.428647994995117 -179.00494384765625
v -1286.528564453125 14.678969383239746 -124.06878709793091
v -1414.16845703125 14.927045822143555 -117.32925415039063
v -1536 8.8636035919189453 0
v -1535.99951171875 8.8635702133178711 0
v -1536 8.8643093109130859 -0.00998687744140625
v -1536 12.385003089904785 -49.484878540039062
v -1536 12.993108749389648 -110.88939666748047
v -1410.810791015625 12.373734474182129 -53.500205993652344
v -1283.162841796875 13.894673347473145 -60.245841979980469
v -1280 14.699260711669922 -124.4136049747467
v -1280 14.470805168151856 -118.19355010986328
v -1346.98974609375 12.49590015411377 -56.870819091796875
v -1407.994262999855 10.6990966796875 0
v -1474.635986328125 11.30994987487793 -50.126350402832031
v -1418.9273681640625 10.535417556762695 0
v -1280 10.975238800048828 0
v -1283.7916259765625 10.902064323425293 0
v -1280 10.9753999710083 -0.00327301025390625
v -1280 10.978866577148438 -0.073333740234375
v -1280 13.827377319335938 -60.412643432617188
v -1280 13.790228843688965 -57.408935546875
v -1280 13.790111541748047 -57.399436950683594
v -1343.99072265625 11.7820405960083 0
v -1351.3507080078125 11.772856712341309 0
v -1536 12.285534858703613 -46.889015197753906
v -1519.738525390625 8.5424423217773438 0
v -1471.988525390625 11.562787055969238 0
v -1519.738525390625 8.5424423217773438 0
vt 0.19192400574684143 0.029524028301239014
vt 0.13465599715709686 0.031561017036437988
vt 0.19664999842643738 0.083548009395599365
vt 0.67261898517608643 0.01257401704788208
vt 0.64218902587890625 0.013631999492645264
vt 0.67513298988342285 0.041279971599578857
vt 0.91295701265335083 0.0038170218467712402
vt 0.89593499898910522 0.0044509768486022949
vt 0.91436702013015747 0.019873976707458496
vt 0.43229201436042786 0.020994007587432861
vt 0.38844600319862366 0.022549986839294434
vt 0.43591201305389404 0.062358975410461426
vt 0.0060689998790621758 0.14539802074432373
vt 0.21788699924945831 0.32273900508880615
vt 0.0044820001348853111 0.10050201416015625
vt 0.0022370000369846821 0.036221027374267578
vt 0.002630000002682209 0.047491014003753662
vt 0.69633299112319946 0.28031402826309204
vt 0.935621976852417 0.25906199216842651
vt 0.45715200901031494 0.30154997110366821
vt 0.92824101448059082 0.0032870173454284668
vt 0.96403002738952637 0.015453994274139404
vt 0.96356397867202759 0.0025510191917419434
vt 0.963545024394989 0.0020170211791992188
vt 0.012895000167191029 0.34085100889205933
vt 0.23892800509929657 0.56200501322746277
vt 0.014042999595403671 0.37372297048568726
vt 0.97125202417373657 0.21648001670837402
vt 0.73207002878189087 0.61011400818824768
vt 0.97250199317932129 0.25552600622177124
vt 0.97390300035476685 0.290897011756897
vt 0.9567679762840271 0.49830901622772217
vt 0.541716992855072 0.60458698868751526
vt 0.036097001284360886 0.99798300000838935
vt 0.03609900176525116 0.99798300000838935
vt 0.036095000803470612 0.99794499995186925
vt 0.029502000659704208 0.81169599294662476
vt 0.021412000060081482 0.58116701245307922
vt 0.5412909984588623 0.8217570036649704
vt 0.97738200426101685 0.72503399848937988
vt 0.98123401403427124 0.49611997604370117
vt 0.98208498954772949 0.51949000358581543
vt 0.74363702535629272 0.89007899910211563
vt 0.51671701669692993 0.9808920007199049
vt 0.25988200306892395 0.80142800509929657
vt 0.47565999627113342 0.98234499990940094
vt 0.99776297807693481 0.96358900144696236
vt 0.983331024646759 0.9643470011651516
vt 0.997759997844696 0.96358099952340126
vt 0.997750997543335 0.96331800147891045
vt 0.98992502689361572 0.73646000027656555
vt 0.99033302068710327 0.74773898720741272
vt 0.9903150200843811 0.74779799580574036
vt 0.74766701459884644 0.97858799993991852
vt 0.72962099313735962 0.97312900051474571
vt 0.02984200045466423 0.82145099341869354
vt 0.09671899676322937 0.99552700016647577
vt 0.27637898921966553 0.98930700030177832
vt 0.09671899676322937 0.99552700016647577
vn -0.019279999658465385 0.99900901317596436 0.040118001401424408
vn -0.012041999958455563 0.99944198131561279 0.031155999749898911
vn -0.016564000397920609 0.999779999256134 0.012841000221669674
vn -0.013105000369250774 0.99946397542953491 0.029996000230312347
vn -0.0058059999719262123 0.99930000305175781 0.036949001252651215
vn -0.01726900041103363 0.99969500303268433 0.017664000391960144
vn 0.0019189999438822269 0.99869102239608765 -0.051121000200510025
vn -0.010621000081300736 0.99988198280334473 0.011119999922811985
vn -0.014698999933898449 0.999862015247345 -0.0077979997731745243
vn -0.013187999837100506 0.9991300106048584 0.039565000683069229
vn -0.018293000757694244 0.99903202056884766 0.040011998265981674
vn -0.012715999968349934 0.99980002641677856 0.015437000431120396
vn -0.01843699999153614 0.99982202053070068 -0.0041279997676610947
vn -0.025126999244093895 0.99964100122451782 0.00926399976015091
vn -0.01066999975591898 0.99991297721862793 0.0077200001105666161
vn -0.0095720002427697182 0.9995499849319458 0.028412999585270882
vn -0.0095720002427697182 0.9995499849319458 0.028412999585270882
vn -0.0096969995647668838 0.99978798627853394 0.018162999302148819
vn -0.0098350001499056816 0.99954801797866821 0.028409000486135483
vn -0.0070969997905194759 0.99994802474975586 0.00735899992287159
vn -0.020579999312758446 0.99947899580001831 -0.024870000779628754
vn -0.010441999882459641 0.99993002414703369 -0.005609000101685524
vn -0.011003999970853329 0.99980700016021729 -0.016259999945759773
vn -0.011002999730408192 0.99980700016021729 -0.016263000667095184
vn -0.036782000213861465 0.999131977558136 0.019564999267458916
vn -0.0136329997330904 0.9996190071105957 0.023986000567674637
vn -0.030673999339342117 0.99940401315689087 0.015833999961614609
vn -0.0038620000705122948 0.99993002414703369 0.011157000437378883
vn 0.00055100000463426113 0.99964702129364014 0.026565000414848328
vn 0.015869999304413795 0.9994170069694519 0.030233999714255333
vn 0.0039090001955628395 0.99897599220275879 0.045083001255989075
vn -0.0034990001004189253 0.99947100877761841 0.032343998551368713
vn -0.002819000044837594 0.9995499849319458 0.029850000515580177
vn 0.068030998110771179 0.99520301818847656 0.070307999849319458
vn 0.043079998344182968 0.99650198221206665 0.0716089978814125
vn 0.020455000922083855 0.99713999032974243 0.072751998901367188
vn 0.010545000433921814 0.999442994594574 0.031670000404119492
vn -0.013973000459372997 0.99989402294158936 0.0039739999920129776
vn -0.00993799977004528 0.99938201904296875 0.033716000616550446
vn -0.0016530000139027834 0.99961698055267334 0.027628999203443527
vn -0.000805000017862767 0.99905097484588623 0.043542999774217606
vn 0.015719000250101089 0.99971497058868408 0.01795399934053421
vn -0.0041840001940727234 0.999671995639801 0.025270000100135803
vn -0.017017999663949013 0.99933701753616333 0.032177001237869263
vn -0.0040449998341500759 0.99948799610137939 0.031729001551866531
vn -0.0069579998962581158 0.99970698356628418 0.023180000483989716
vn -0.019164999946951866 0.99860000610351562 0.049295000731945038
vn -0.011369000189006329 0.99910902976989746 0.040633998811244965
vn -0.019135000184178352 0.99860298633575439 0.049261000007390976
vn -0.01931999996304512 0.99859201908111572 0.049403999000787735
vn 0.02188899926841259 0.99969202280044556 0.011726999655365944
vn 0.021937999874353409 0.99968302249908447 0.01234699971973896
vn -0.0022579999640583992 0.99922800064086914 0.039216000586748123
vn 0.0069499998353421688 0.99990200996398926 0.012184999883174896
vn -0.0053770001977682114 0.99983799457550049 0.017204999923706055
vn 0.01882999949157238 0.99824702739715576 0.05610400065779686
vn 0.01969200000166893 0.99715399742126465 0.072772003710269928
vn -0.020515000447630882 0.9997820258140564 -0.0039590001106262207
vn -0.063127003610134125 0.99800401926040649 -0.0017000000225380063
f 1/1/1 2/2/2 3/3/3
f 4/4/4 5/5/5 6/6/6
f 7/7/7 8/8/8 9/9/9
f 10/10/10 11/11/11 12/12/12
f 3/3/3 13/13/13 14/14/14
f 3/3/3 15/15/15 13/13/13
f 16/16/16 3/3/3 2/2/2
f 16/16/16 17/17/17 3/3/3
f 17/17/17 15/15/15 3/3/3
f 6/6/6 12/12/12 18/18/18
f 10/10/10 6/6/6 5/5/5
f 10/10/10 12/12/12 6/6/6
f 4/4/4 9/9/9 8/8/8
f 4/4/4 6/6/6 9/9/9
f 9/9/9 6/6/6 19/19/19
f 11/11/11 3/3/3 12/12/12
f 11/11/11 1/1/1 3/3/3
f 12/12/12 3/3/3 20/20/20
f 21/21/21 7/7/7 9/9/9
f 22/22/22 21/21/21 9/9/9
f 22/22/22 23/23/23 21/21/21
f 23/23/23 24/24/24 21/21/21
f 25/25/25 26/26/26 14/14/14
f 25/25/25 27/27/27 26/26/26
f 13/13/13 25/25/25 14/14/14
f 20/20/20 3/3/3 14/14/14
f 28/28/28 9/9/9 19/19/19
f 28/28/28 22/22/22 9/9/9
f 20/20/20 29/29/29 18/18/18
f 12/12/12 20/20/20 18/18/18
f 30/30/30 19/19/19 31/31/31
f 28/28/28 19/19/19 30/30/30
f 19/19/19 6/6/6 18/18/18
f 18/18/18 32/32/32 19/19/19
f 14/14/14 33/33/33 20/20/20
f 34/34/34 35/35/35 36/36/36
f 37/37/37 26/26/26 38/38/38
f 33/33/33 26/26/26 39/39/39
f 14/14/14 26/26/26 33/33/33
f 32/32/32 29/29/29 40/40/40
f 18/18/18 29/29/29 32/32/32
f 31/31/31 32/32/32 41/41/41
f 31/31/31 19/19/19 32/32/32
f 41/41/41 32/32/32 42/42/42
f 29/29/29 20/20/20 33/33/33
f 29/29/29 33/33/33 43/43/43
f 44/44/44 45/45/45 46/46/46
f 44/44/44 39/39/39 45/45/45
f 45/45/45 39/39/39 26/26/26
f 47/47/47 43/43/43 48/48/48
f 47/47/47 49/49/49 43/43/43
f 49/49/49 40/40/40 43/43/43
f 49/49/49 50/50/50 40/40/40
f 43/43/43 40/40/40 29/29/29
f 40/40/40 42/42/42 32/32/32
f 40/40/40 51/51/51 42/42/42
f 52/52/52 40/40/40 53/53/53
f 52/52/52 51/51/51 40/40/40
f 33/33/33 39/39/39 43/43/43
f 54/54/54 39/39/39 55/55/55
f 54/54/54 43/43/43 39/39/39
f 36/36/36 45/45/45 56/56/56
f 36/36/36 35/35/35 45/45/45
f 35/35/35 57/57/57 45/45/45
f 27/27/27 38/38/38 26/26/26
f 58/58/58 45/45/45 59/59/59
f 55/55/55 39/39/39 44/44/44
f 58/58/58 46/46/46 45/45/45
f 48/48/48 43/43/43 54/54/54
f 53/53/53 40/40/40 50/50/50
f 37/37/37 45/45/45 26/26/26
f 37/37/37 56/56/56 45/45/45
