mtllib m2013.mtl
usemtl material0
v -1280 21.190799713134766 -508.4244384765625
v -1242.890380859375 21.889812469482422 -510.386474609375
v -1280 21.157865524291992 -511.39556884765625
v -1242.9757080078125 21.870269775390625 -512
v -1280 21.151165008544922 -512
v -1212.2806396484375 21.019886016845703 -512
v -1239.5306396484375 19.815401077270508 -446.55865478515625
v -1180.652587890625 20.069473266601562 -512
v -1280 20.926948547363281 -469.14129638671875
v -1280 20.136096954345703 -444.422607421875
v -1280 20.471342086791992 -422.1844482421875
v -1236.1571044921875 20.753408432006836 -382.74160802364349
v -1175.7060546875 20.659038543701172 -449.931884765625
v -1178.9854736328125 20.092250823974609 -512
v -1051.03466796875 10.40659236907959 -512
v -1103.60205078125 12.489993095397949 -512
v -1049.794921875 10.731588363647461 -488.5469970703125
v -1024 10.804132461547852 -512
v -1028.6942138671875 10.750994682312012 -512
v -1024 10.892566680908203 -502.54891967773438
v -1024 11.010828018188477 -489.91009521484375
v -1115.0205078125 13.051417350769043 -512
v -1111.9107666015625 15.119743347167969 -453.2823486328125
v -1108.5462646484375 14.094891548156738 -389.45840501785278
v -1119.873046875 13.462644577026367 -512
v -1048.1060791015625 11.665635108947754 -456.64022827148438
v -1046.4244384765625 11.004192352294922 -424.72775268554688
v -1024 11.364450454711914 -457.91220092773438
v -1024 11.196172714233398 -483.43429565429688
v -1024 11.816933631896973 -434.95339965820312
v -1172.337158203125 20.609756469726562 -386.11132788658142
v -1280 20.939821243286133 -380.42697095870972
v -1232.801513671875 17.777189254760742 -318.91070556640625
v -1280 20.058992385864258 -361.39218139648438
v -1168.973388671875 19.413293838500977 -322.28671264648438
v -1044.736572265625 11.727190971374512 -392.8201904296875
v -1024 11.61711311340332 -425.91397094726562
v -1024 10.651922225952148 -404.5499267578125
v -1024 11.622374534606934 -382.08612096309662
v -1043.04345703125 13.576333999633789 -360.9166259765625
v -1024 10.914284706115723 -393.91256713867188
v -1024 14.044694900512695 -361.923828125
v -1024 15.078149795532227 -343.79498291015625
v -1105.158203125 18.202051162719727 -325.65264892578125
v -1280 18.110725402832031 -266.44998168945312
v -1280 15.682761192321777 -316.41134643554688
v -1165.6072998046875 18.724895477294922 -258.46392822265625
v -1041.3482666015625 15.868039131164551 -329.01461791992188
v -1039.6580810546875 17.084754943847656 -297.10873413085938
v -1024 16.063007354736328 -329.93136596679688
v -1024 16.598703384399414 -313.412109375
v -1101.79541015625 16.810050964355469 -261.827392578125
v -1024 17.182147979736328 -297.93594360351562
v -1024 16.568708419799805 -283.017333984375
v -1280 18.280635833740234 -256
v -1229.4752197265625 18.836688995361328 -256
v -1212.2716064453125 18.817790985107422 -256
v -1165.4774169921875 18.672769546508789 -256
v -1107.0382080078125 16.859020233154297 -256
v -1101.487548828125 16.849893569946289 -256
v -1088.423583984375 16.545743942260742 -256
v -1024 15.754802703857422 -265.93212890625
v -1037.98046875 15.581001281738281 -265.19329833984375
v -1024 15.737092971801758 -259.38375854492188
v -1037.4952392578125 15.562101364135742 -256
v -1024 15.72794246673584 -256
vt 0.95926797389984131 0.0018650293350219727
vt 0.97053998708724976 0.14246702194213867
vt 0.97053998708724976 0.0015559792518615723
vt 0.976652979850769 0.141975998878479
vt 0.97283399105072021 0.0014929771423339844
vt 0.97988700866699219 0.258463978767395
vt 0.72861599922180176 0.16174399852752686
vt 0.98287701606750488 0.37843900918960571
vt 0.81023901700973511 0.0058990120887756348
vt 0.71641802787780762 0.0084279775619506836
vt 0.63204401731491089 0.01066899299621582
vt 0.48682901263237 0.18097299337387085
vt 0.74790900945663452 0.40354901552200317
vt 0.9830470085144043 0.38476502895355225
vt 0.99612301588058472 0.87189200520515442
vt 0.991038978099823 0.67230600118637085
vt 0.90725398063659668 0.87880899757146835
vt 0.99889099597930908 0.97434199973940849
vt 0.9982140064239502 0.95665900036692619
vt 0.96303302049636841 0.9752229992300272
vt 0.91508400440216064 0.97653100080788136
vt 0.98993897438049316 0.62888801097869873
vt 0.767192006111145 0.6461310088634491
vt 0.52540498971939087 0.66573598980903625
vt 0.9894300103187561 0.61041301488876343
vt 0.78658699989318848 0.88818400353193283
vt 0.66568297147750854 0.89801599830389023
vt 0.79406702518463135 0.97949600033462048
vt 0.89050602912902832 0.9771369993686676
vt 0.706957995891571 0.98200500011444092
vt 0.506138026714325 0.42282098531723022
vt 0.47361999750137329 0.014880001544952393
vt 0.24475699663162231 0.20021897554397583
vt 0.40133100748062134 0.016822993755340576
vt 0.26430699229240417 0.44203299283981323
vt 0.54477399587631226 0.90762200206518173
vt 0.67265897989273071 0.982982000336051
vt 0.59144002199172974 0.985168999992311
vt 0.50463199615478516 0.987270999699831
vt 0.42252498865127563 0.91662599891424179
vt 0.55107301473617554 0.986235000193119
vt 0.42758101224899292 0.98884200025349855
vt 0.35877001285552979 0.99019800033420324
vt 0.28307199478149414 0.68352198600769043
vt 0.040151998400688171 0.02742302417755127
vt 0.22988100349903107 0.021290004253387451
vt 0.02253199927508831 0.46152001619338989
vt 0.30129799246788025 0.92549300193786621
vt 0.18135400116443634 0.93490699678659439
vt 0.30603501200675964 0.99125599954277277
vt 0.24332399666309357 0.9924800000153482
vt 0.041223000735044479 0.7027449905872345
vt 0.18598699569702148 0.99423300009220839
vt 0.12947200238704681 0.99575900007039309
vt 0.001108999946154654 0.027814984321594238
vt 0.0064210002310574055 0.21949499845504761
vt 0.00824199989438057 0.28475797176361084
vt 0.013194000348448753 0.46224898099899292
vt 0.018671000376343727 0.68406599760055542
vt 0.01953200064599514 0.7051129937171936
vt 0.02231300063431263 0.75462600588798523
vt 0.064584001898765564 0.99751499993726611
vt 0.060316998511552811 0.94455299898982048
vt 0.039664998650550842 0.99817100004293025
vt 0.025488000363111496 0.94730599969625473
vt 0.026828000321984291 0.99850600003264844
vn -0.018933000043034554 0.99981898069381714 -0.0018850000342354178
vn 0.0084669999778270721 0.99994397163391113 0.0063959998078644276
vn -0.019417999312281609 0.999750018119812 -0.011082000099122524
vn 0.0033470001071691513 0.99991899728775024 -0.01228800043463707
vn -0.019417999312281609 0.999750018119812 -0.011083000339567661
vn 0.029983000829815865 0.99909597635269165 0.030145000666379929
vn 0.0047729997895658016 0.99997401237487793 0.0053750001825392246
vn -0.0020020001102238894 0.9999960064888 0.0020810000132769346
vn 0.0030580000020563602 0.99965500831604 0.026088999584317207
vn 0.008329000324010849 0.99993598461151123 0.0076649999246001244
vn 0.006202000193297863 0.99988198280334473 -0.014045000076293945
vn 0.00090699997963383794 0.99991697072982788 0.012876999564468861
vn 0.041416000574827194 0.99911201000213623 -0.0077039999887347221
vn 0.0469059981405735 0.99883198738098145 -0.011598999612033367
vn 0.013019000180065632 0.99980902671813965 -0.014542999677360058
vn 0.047835998237133026 0.9982450008392334 -0.034903001040220261
vn 0.017024999484419823 0.999567985534668 -0.02397800050675869
vn -0.01131800003349781 0.999891996383667 -0.0093560004606843
vn -0.012411000207066536 0.99987000226974487 -0.010339000262320042
vn -0.011319000273942947 0.999891996383667 -0.0093560004606843
vn -0.011808999814093113 0.99975597858428955 -0.018659999594092369
vn 0.067302003502845764 0.99698197841644287 -0.038683000952005386
vn 0.069537997245788574 0.99750202894210815 -0.012449000030755997
vn 0.069684997200965881 0.99705600738525391 -0.031996000558137894
vn 0.091577000916004181 0.99525099992752075 -0.033015001565217972
vn 0.024996999651193619 0.99965798854827881 -0.0076540000736713409
vn 0.019503999501466751 0.999770998954773 0.0088280001655220985
vn 0.01181000005453825 0.99984699487686157 -0.012927999719977379
vn -0.006624000146985054 0.999701976776123 -0.023476000875234604
vn -0.016119999811053276 0.999809980392456 0.010943000204861164
vn 0.039475999772548676 0.999210000038147 -0.0046149999834597111
vn 0.0052260002121329308 0.99981600046157837 0.018472999334335327
vn -0.020066000521183014 0.99957400560379028 0.021176999434828758
vn -0.0055019999854266644 0.9981989860534668 0.059728998690843582
vn 0.002566999988630414 0.99980700016021729 0.019492000341415405
vn 0.035875998437404633 0.99846702814102173 -0.04213700070977211
vn -0.025552000850439072 0.9991220235824585 0.03321399912238121
vn 0.021128000691533089 0.9997590184211731 -0.0060259997844696045
vn 0.020462000742554665 0.99707597494125366 -0.073623001575469971
vn 0.012450000271201134 0.99735498428344727 -0.071607001125812531
vn 0.0369499996304512 0.99845099449157715 -0.041583999991416931
vn -0.02919900044798851 0.99559402465820312 -0.089103996753692627
vn -0.018310999497771263 0.99757599830627441 -0.0671359971165657
vn 0.032586999237537384 0.99931502342224121 -0.01752300001680851
vn -0.019373999908566475 0.99952900409698486 -0.023785000666975975
vn -0.043173998594284058 0.99883198738098145 0.021703999489545822
vn 0.013162000104784966 0.99984300136566162 0.011819000355899334
vn 0.010378000326454639 0.99844199419021606 -0.054820001125335693
vn 0.0072369999252259731 0.99995702505111694 0.0058840001001954079
vn -0.013984999619424343 0.99853497743606567 -0.052278000861406326
vn -0.0094689996913075447 0.999297022819519 -0.036267999559640884
vn 0.018890000879764557 0.9997599720954895 0.011130999773740768
vn -0.0061989999376237392 0.99998098611831665 0.00038400001358240843
vn -0.00834100041538477 0.99891400337219238 0.045848999172449112
vn -0.011002999730408192 0.99980700016021729 -0.016256000846624374
vn -0.004749000072479248 0.99985098838806152 -0.016588000580668449
vn 0.0011320000048726797 0.9998670220375061 -0.016258999705314636
vn 0.01752999983727932 0.999642014503479 0.02022399939596653
vn 0.023182999342679977 0.99965399503707886 0.012457000091671944
vn 0.012822999618947506 0.9998900294303894 -0.0075139999389648438
vn 0.019828999415040016 0.99980300664901733 -0.00015399999392684549
vn -0.011057999916374683 0.99960297346115112 0.025908000767230988
vn 0.0046959999017417431 0.999692976474762 0.024312999099493027
vn -0.01228800043463707 0.99992102384567261 0.0027040001004934311
vn 0.0029810001142323017 0.99999397993087769 0.0018980000168085098
vn -0.01228800043463707 0.99992102384567261 0.0027040001004934311
f 1/1/1 2/2/2 3/3/3
f 3/3/3 4/4/4 5/5/5
f 3/3/3 2/2/2 4/4/4
f 4/4/4 2/2/2 6/6/6
f 6/6/6 7/7/7 8/8/8
f 6/6/6 2/2/2 7/7/7
f 9/9/9 7/7/7 2/2/2
f 9/9/9 10/10/10 7/7/7
f 7/7/7 11/11/11 12/12/12
f 7/7/7 10/10/10 11/11/11
f 13/13/13 8/8/8 7/7/7
f 13/13/13 14/14/14 8/8/8
f 15/15/15 16/16/16 17/17/17
f 18/18/18 19/19/19 20/20/20
f 20/20/20 17/17/17 21/21/21
f 20/20/20 19/19/19 17/17/17
f 15/15/15 17/17/17 19/19/19
f 17/17/17 22/22/22 23/23/23
f 17/17/17 16/16/16 22/22/22
f 23/23/23 13/13/13 24/24/24
f 22/22/22 13/13/13 23/23/23
f 22/22/22 25/25/25 13/13/13
f 17/17/17 23/23/23 26/26/26
f 26/26/26 23/23/23 27/27/27
f 28/28/28 29/29/29 26/26/26
f 26/26/26 21/21/21 17/17/17
f 26/26/26 29/29/29 21/21/21
f 28/28/28 26/26/26 30/30/30
f 14/14/14 13/13/13 25/25/25
f 13/13/13 7/7/7 31/31/31
f 32/32/32 33/33/33 12/12/12
f 32/32/32 34/34/34 33/33/33
f 11/11/11 32/32/32 12/12/12
f 7/7/7 12/12/12 31/31/31
f 12/12/12 35/35/35 31/31/31
f 24/24/24 36/36/36 27/27/27
f 31/31/31 24/24/24 13/13/13
f 27/27/27 30/30/30 26/26/26
f 27/27/27 37/37/37 30/30/30
f 37/37/37 27/27/27 38/38/38
f 24/24/24 27/27/27 23/23/23
f 39/39/39 36/36/36 40/40/40
f 39/39/39 41/41/41 36/36/36
f 36/36/36 38/38/38 27/27/27
f 36/36/36 41/41/41 38/38/38
f 39/39/39 40/40/40 42/42/42
f 40/40/40 36/36/36 24/24/24
f 43/43/43 42/42/42 40/40/40
f 40/40/40 24/24/24 44/44/44
f 24/24/24 31/31/31 44/44/44
f 9/9/9 2/2/2 1/1/1
f 45/45/45 33/33/33 46/46/46
f 33/33/33 47/47/47 35/35/35
f 33/33/33 35/35/35 12/12/12
f 48/48/48 44/44/44 49/49/49
f 44/44/44 48/48/48 40/40/40
f 48/48/48 43/43/43 40/40/40
f 48/48/48 50/50/50 43/43/43
f 50/50/50 48/48/48 51/51/51
f 31/31/31 35/35/35 44/44/44
f 35/35/35 52/52/52 44/44/44
f 53/53/53 48/48/48 49/49/49
f 53/53/53 51/51/51 48/48/48
f 52/52/52 49/49/49 44/44/44
f 53/53/53 49/49/49 54/54/54
f 55/55/55 33/33/33 45/45/45
f 55/55/55 56/56/56 33/33/33
f 34/34/34 46/46/46 33/33/33
f 56/56/56 47/47/47 33/33/33
f 56/56/56 57/57/57 47/47/47
f 47/47/47 52/52/52 35/35/35
f 57/57/57 58/58/58 47/47/47
f 47/47/47 59/59/59 52/52/52
f 47/47/47 58/58/58 59/59/59
f 60/60/60 52/52/52 59/59/59
f 60/60/60 61/61/61 52/52/52
f 62/62/62 63/63/63 64/64/64
f 64/64/64 65/65/65 66/66/66
f 64/64/64 63/63/63 65/65/65
f 54/54/54 63/63/63 62/62/62
f 54/54/54 49/49/49 63/63/63
f 52/52/52 65/65/65 63/63/63
f 52/52/52 61/61/61 65/65/65
f 49/49/49 52/52/52 63/63/63
