mtllib m2030.mtl
usemtl material0
v -1536 19.595394134521484 -725.12579345703125
v -1511.6583251953125 20.050651550292969 -752.18048095703125
v -1536 20.371149063110352 -750.8961181640625
v -1448.4876708984375 21.596609115600586 -768
v -1461.6629638671875 21.452121734619141 -768
v -1447.8309326171875 21.56022834777832 -755.5562744140625
v -1320.4937744140625 20.879638671875 -768
v -1326.53173828125 21.193634033203125 -768
v -1320.191650390625 21.082662582397461 -762.2950439453125
v -1384.4852294921875 22.399307250976562 -768
v -1394.0887451171875 22.321208953857422 -768
v -1384.00634765625 22.422615051269531 -758.9296875
v -1444.462646484375 21.343631744384766 -691.73504638671875
v -1512.492431640625 20.294652938842773 -768
v -1316.8345947265625 18.407121658325195 -698.46484375
v -1280 17.86558723449707 -766.04266357421875
v -1280 17.930421829223633 -764.40667724609375
v -1280 17.788015365600586 -768
v -1280 17.058279037475586 -726.10382080078125
v -1380.64453125 20.78221321105957 -695.103271484375
v -1508.2880859375 20.287172317504883 -688.36090087890625
v -1441.1044921875 18.88953971862793 -627.90570068359375
v -1313.4688720703125 17.6126708984375 -634.64160203933716
v -1280 16.06947135925293 -700.40203857421875
v -1280 18.180444717407227 -665.3233642578125
v -1377.2767333984375 20.456502914428711 -631.2816162109375
v -1536 19.693557739257812 -686.8955078125
v -1536 20.62238883972168 -768
v -1536 20.511514663696289 -760.451904296875
v -1536 18.878231048583984 -652.49322509765625
v -1504.92529296875 18.842340469360352 -624.5352783203125
v -1437.7318115234375 19.653915405273438 -564.088134765625
v -1536 18.630962371826172 -622.89361572265625
v -1373.9056396484375 20.88592529296875 -567.4627685546875
v -1280 17.812459945678711 -636.40966796875
v -1280 19.357786178588867 -604.5433349609375
v -1310.0855712890625 20.735893249511719 -570.83251953125
v -1498.9873046875 18.2052059173584 -512
v -1536 17.973119735717773 -530.90814208984375
v -1514.983642578125 17.990398406982422 -512
v -1536 18.062358856201172 -537.27679443359375
v -1501.5560302734375 18.853311538696289 -560.7149658203125
v -1536 18.365266799926758 -558.8944091796875
v -1536 18.383136749267578 -589.99700927734375
v -1370.986572265625 18.973701477050781 -512
v -1379.8433837890625 18.819316864013672 -512
v -1306.9798583984375 20.691333770751953 -512
v -1312.2606201171875 20.703924179077148 -512
v -1434.9842529296875 19.1569881439209 -512
v -1447.4083251953125 19.007820129394531 -512
v -1536 17.6693058013916 -512
v -1302.228759765625 20.719427108764648 -512
v -1280 20.915485382080078 -572.421875
v -1280 20.877286911010742 -536.70660400390625
v -1280 21.151165008544922 -512
vt 0.80289602279663086 0.0078030228614807129
vt 0.90773999691009521 0.095703005790710449
vt 0.899753987789154 0.0044140219688415527
vt 0.97549599409103394 0.33101600408554077
vt 0.97378098964691162 0.2815060019493103
vt 0.9288330078125 0.33511000871658325
vt 0.99229401350021362 0.81196700036525726
vt 0.99149501323699951 0.78925299644470215
vt 0.97088497877120972 0.81381499767303467
vt 0.98397499322891235 0.57145598530769348
vt 0.98270297050476074 0.53537699580192566
vt 0.94996297359466553 0.57445698976516724
vt 0.68951201438903809 0.35614901781082153
vt 0.96706897020339966 0.090502023696899414
vt 0.73132902383804321 0.83493100106716156
vt 0.99044501781463623 0.96477299928665161
vt 0.98372501134872437 0.96502599865198135
vt 0.99780499935150146 0.964529000222683
vt 0.839788019657135 0.96994699910283089
vt 0.71054297685623169 0.59546598792076111
vt 0.66842800378799438 0.1167830228805542
vt 0.449972003698349 0.377032995223999
vt 0.49204200506210327 0.8559579998254776
vt 0.74375200271606445 0.97327799908816814
vt 0.611723005771637 0.97766299918293953
vt 0.47113901376724243 0.61643999814987183
vt 0.65927398204803467 0.012844979763031006
vt 0.96401602029800415 0.0021799802780151367
vt 0.93565702438354492 0.0031660199165344238
vt 0.529994010925293 0.017311990261077881
vt 0.42902201414108276 0.13770699501037598
vt 0.21064099669456482 0.39799600839614868
vt 0.41879001259803772 0.021176993846893311
vt 0.23183499276638031 0.63762199878692627
vt 0.50352102518081665 0.98115199990570545
vt 0.38367301225662231 0.98557099979370832
vt 0.25301501154899597 0.8769259974360466
vt 0.0069949999451637268 0.17456799745559692
vt 0.0732399970293045 0.033066987991333008
vt 0.0049220002256333828 0.11446702480316162
vt 0.097167998552322388 0.032245993614196777
vt 0.18969599902629852 0.15863698720932007
vt 0.1783909946680069 0.029458999633789062
vt 0.295199990272522 0.02547299861907959
vt 0.023708000779151917 0.655584990978241
vt 0.022531000897288322 0.62230798602104187
vt 0.032414000481367111 0.89644800126552582
vt 0.031344000250101089 0.87630400061607361
vt 0.015300000086426735 0.41504597663879395
vt 0.013689000159502029 0.36836802959442139
vt 0.0021949999500066042 0.035502016544342041
vt 0.033048000186681747 0.91429699957370758
vt 0.26285699009895325 0.98975099995732307
vt 0.1288129985332489 0.994529000017792
vt 0.035990998148918152 0.99781999993138015
vn -0.013089000247418881 0.99990200996398926 0.0050499998033046722
vn -0.008069000206887722 0.99990099668502808 0.011494000442326069
vn 0.014356999658048153 0.99963998794555664 0.022642999887466431
vn -0.012102999724447727 0.99992001056671143 0.0035620001144707203
vn -0.020012000575661659 0.99970799684524536 0.013559999875724316
vn -0.013791999779641628 0.999871015548706 0.008236999623477459
vn 0.063597999513149261 0.9972190260887146 -0.038855999708175659
vn 0.028062000870704651 0.99953699111938477 -0.011742999777197838
vn 0.051987998187541962 0.99864399433135986 0.0026859999634325504
vn 0.0058490000665187836 0.99997901916503906 -0.0028780000284314156
vn -0.012109999544918537 0.99992400407791138 0.0022809999063611031
vn 0.0071849999949336052 0.99987798929214478 0.013891999609768391
vn -0.008066999725997448 0.99983501434326172 0.016279000788927078
vn -0.0037980000488460064 0.999871015548706 0.015622000209987164
vn 0.040348000824451447 0.99908298254013062 0.014334999956190586
vn 0.0760670006275177 0.99632102251052856 -0.03948500007390976
vn 0.077693000435829163 0.9969329833984375 -0.0094469999894499779
vn 0.0760670006275177 0.99632102251052856 -0.039485998451709747
vn 0.069049999117851257 0.99702697992324829 0.034184001386165619
vn 0.021779999136924744 0.99968600273132324 0.012378999963402748
vn -0.016356000676751137 0.99979102611541748 0.012300999835133553
vn -0.013291000388562679 0.99983197450637817 0.012601999565958977
vn 0.017299000173807144 0.99964898824691772 -0.020049000158905983
vn 0.062853999435901642 0.99798101186752319 -0.0091469995677471161
vn 0.01218700036406517 0.99990302324295044 -0.0067059998400509357
vn 0.0087670003995299339 0.99995899200439453 -0.0023819999769330025
vn -0.020833000540733337 0.99972200393676758 0.011005000211298466
vn 0.013938999734818935 0.99979501962661743 0.014685999602079392
vn 0.013938999734818935 0.99979501962661743 0.014685999602079392
vn -0.016476999968290329 0.999671995639801 0.019597999751567841
vn -0.0075059998780488968 0.99992901086807251 0.009244999848306179
vn -0.011119999922811985 0.99993002414703369 0.0039610001258552074
vn -0.0063829999417066574 0.99994802474975586 0.0079290000721812248
vn -0.012830000370740891 0.999871015548706 0.0096709998324513435
vn -0.0068580000661313534 0.99983501434326172 -0.016837999224662781
vn -0.0085209999233484268 0.99879002571105957 -0.048434998840093613
vn 0.0024639999028295279 0.99981802701950073 -0.018933000043034554
vn -0.014526999555528164 0.99979597330093384 0.014066999778151512
vn -0.013918999582529068 0.999796986579895 0.014557999558746815
vn -0.013856999576091766 0.99979901313781738 0.014488999731838703
vn -0.013426000252366066 0.99981200695037842 0.014008999802172184
vn -0.013465999625623226 0.99988597631454468 0.0068049998953938484
vn -0.013770000077784061 0.99987697601318359 0.0075179999694228172
vn -0.012334000319242477 0.999921977519989 0.0021969999652355909
vn -0.023623000830411911 0.9990839958190918 0.03568900004029274
vn -0.011927999556064606 0.99949997663497925 0.029270999133586884
vn -0.0019039999460801482 0.99999797344207764 0.0008580000139772892
vn -0.0050409999676048756 0.99994802474975586 0.0088839996606111526
vn -0.0026370000559836626 0.99994999170303345 0.00967899989336729
vn -0.012833000160753727 0.99985599517822266 0.011092999950051308
vn -0.015274000354111195 0.999754011631012 0.016063999384641647
vn -0.00951599981635809 0.99995201826095581 -0.0021730000153183937
vn -0.0072630001232028008 0.99967300891876221 -0.024520000442862511
vn -0.0090629998594522476 0.99995702505111694 -0.0017650000518187881
vn -0.019417999312281609 0.999750018119812 -0.011083000339567661
f 1/1/1 2/2/2 3/3/3
f 4/4/4 5/5/5 6/6/6
f 7/7/7 8/8/8 9/9/9
f 10/10/10 11/11/11 12/12/12
f 6/6/6 2/2/2 13/13/13
f 5/5/5 2/2/2 6/6/6
f 5/5/5 14/14/14 2/2/2
f 9/9/9 12/12/12 15/15/15
f 8/8/8 12/12/12 9/9/9
f 8/8/8 10/10/10 12/12/12
f 16/16/16 9/9/9 17/17/17
f 16/16/16 7/7/7 9/9/9
f 16/16/16 18/18/18 7/7/7
f 17/17/17 9/9/9 19/19/19
f 12/12/12 4/4/4 6/6/6
f 12/12/12 11/11/11 4/4/4
f 12/12/12 6/6/6 20/20/20
f 13/13/13 21/21/21 22/22/22
f 21/21/21 13/13/13 2/2/2
f 15/15/15 20/20/20 23/23/23
f 20/20/20 15/15/15 12/12/12
f 15/15/15 19/19/19 9/9/9
f 15/15/15 24/24/24 19/19/19
f 24/24/24 15/15/15 25/25/25
f 6/6/6 13/13/13 20/20/20
f 20/20/20 13/13/13 26/26/26
f 1/1/1 21/21/21 2/2/2
f 1/1/1 27/27/27 21/21/21
f 28/28/28 2/2/2 14/14/14
f 28/28/28 29/29/29 2/2/2
f 29/29/29 3/3/3 2/2/2
f 21/21/21 30/30/30 31/31/31
f 21/21/21 27/27/27 30/30/30
f 31/31/31 32/32/32 22/22/22
f 21/21/21 31/31/31 22/22/22
f 20/20/20 26/26/26 23/23/23
f 22/22/22 26/26/26 13/13/13
f 30/30/30 33/33/33 31/31/31
f 22/22/22 34/34/34 26/26/26
f 35/35/35 23/23/23 36/36/36
f 25/25/25 23/23/23 35/35/35
f 25/25/25 15/15/15 23/23/23
f 26/26/26 37/37/37 23/23/23
f 38/38/38 39/39/39 40/40/40
f 38/38/38 41/41/41 39/39/39
f 41/41/41 42/42/42 43/43/43
f 41/41/41 38/38/38 42/42/42
f 31/31/31 43/43/43 42/42/42
f 31/31/31 44/44/44 43/43/43
f 45/45/45 32/32/32 46/46/46
f 45/45/45 34/34/34 32/32/32
f 22/22/22 32/32/32 34/34/34
f 26/26/26 34/34/34 37/37/37
f 47/47/47 34/34/34 48/48/48
f 47/47/47 37/37/37 34/34/34
f 32/32/32 31/31/31 42/42/42
f 49/49/49 42/42/42 50/50/50
f 49/49/49 32/32/32 42/42/42
f 51/51/51 40/40/40 39/39/39
f 49/49/49 46/46/46 32/32/32
f 45/45/45 48/48/48 34/34/34
f 50/50/50 42/42/42 38/38/38
f 52/52/52 37/37/37 47/47/47
f 52/52/52 53/53/53 37/37/37
f 52/52/52 54/54/54 53/53/53
f 36/36/36 37/37/37 53/53/53
f 36/36/36 23/23/23 37/37/37
f 55/55/55 54/54/54 52/52/52
f 44/44/44 31/31/31 33/33/33
