mtllib m2033.mtl
usemtl material0
v -1270.0155029296875 19.689918518066406 -1024
v -1273.2528076171875 19.726482391357422 -1024
v -1269.8548583984375 19.526044845581055 -1020.9412841796875
v -1280 19.840669631958008 -1009.6647338867188
v -1280 19.806179046630859 -1020.4065551757813
v -1280 19.924501419067383 -1024
v -1280 19.8397159576416 -1021.425048828125
v -1280 18.242332458496094 -956.4027099609375
v -1266.495361328125 17.394374847412109 -957.1129150390625
v -1206.017578125 19.558591842651367 -1024
v -1202.681640625 15.864029884338379 -960.4775390625
v -1206.314453125 19.566598892211914 -1024
v -1211.937744140625 19.572036743164062 -1024
v -1145.5252690315247 20.110326766967773 -1024
v -1199.3226318359375 13.628619194030762 -896.64886498451233
v -1263.126708984375 17.2653751373291 -893.29205298423767
v -1280 18.304119110107422 -908.48089599609375
v -1084.73876953125 18.471487045288086 -1024
v -1142.0167236328125 20.019199371337891 -1024
v -1138.8671884536743 14.510210990905762 -963.8427734375
v -1135.5130615234375 11.219155311584473 -900.01019287109375
v -1078.025390625 18.468250274658203 -1024
v -1073.3707275390625 12.586451530456543 -935.29571533203125
v -1024 15.132972717285156 -992.3875732421875
v -1041.4482421875 15.232650756835938 -936.99066162109375
v -1024 15.376786231994629 -937.91259765625
v -1024 15.097640037536621 -1000.2817993164063
v -1075.6260986328125 18.658164978027344 -1024
v -1024 15.222375869750977 -921.29254150390625
v -1024 15.452995300292969 -1024
v -1039.7764892578125 12.437578201293945 -905.07012939453125
v -1280 18.301855087280273 -892.40460205078125
v -1280 17.802639007568359 -847.6878662109375
v -1259.76171875 16.344165802001953 -829.46826171875
v -1280 17.126811981201172 -828.4022216796875
v -1256.517822265625 16.088747024536133 -768
v -1280 17.039281845092773 -786.892822265625
v -1259.0081787109375 16.185327529907227 -768
v -1280 17.042354583740234 -788.34918212890625
v -1132.149169921875 10.051369667053223 -836.18560791015625
v -1071.685546875 12.715645790100098 -903.38604688644409
v -1038.0863037109375 13.654341697692871 -873.16448974609375
v -1024 13.809137344360352 -905.90802001953125
v -1024 13.198189735412598 -890.882080078125
v -1070.0001220703125 12.887993812561035 -871.47650146484375
v -1195.958251953125 12.559953689575195 -832.8245849609375
v -1068.32373046875 11.109878540039063 -839.559814453125
v -1128.7879638671875 8.297429084777832 -772.35894775390625
v -1036.4073486328125 12.445553779602051 -841.24981689453125
v -1024 13.832345008850098 -873.908935546875
v -1024 13.107117652893066 -855.03936767578125
v -1066.6361083984375 11.761597633361816 -807.65203857421875
v -1192.5928955078125 11.722500801086426 -769.001220703125
v -1280 17.788015365600586 -768
v -1193.49365234375 11.76177978515625 -768
v -1211.63720703125 13.022891998291016 -768
v -1128.5576171875 8.36447811126709 -768
v -1191.4803466796875 11.682035446166992 -768
v -1034.7218017578125 12.629995346069336 -809.34039306640625
v -1024 13.129766464233398 -841.90740966796875
v -1024 13.188813209533691 -821.2567138671875
v -1064.9608154296875 9.7382564544677734 -775.7344970703125
v -1033.0482177734375 10.247284889221191 -777.42144775390625
v -1192.5400390625 11.729842185974121 -768
v -1064.5523681640625 9.7628154754638672 -768
v -1118.7802734375 8.53300952911377 -768
v -1032.551513671875 10.106951713562012 -768
v -1041.52490234375 10.132952690124512 -768
v -1024 10.767568588256836 -777.90106201171875
v -1024 10.644639015197754 -771.02447509765625
v -1024 10.590571403503418 -768
v -1024 13.05022144317627 -809.90802001953125
v -1024 11.334424018859863 -787.476806640625
vt 0.03804599866271019 0.032324016094207764
vt 0.025831999257206917 0.032742977142333984
vt 0.039055000990629196 0.043859004974365234
vt 0.002188999904319644 0.087686002254486084
vt 0.00083400000585243106 0.047160029411315918
vt 0.00036599999293684959 0.0335959792137146
vt 0.00070099998265504837 0.043316006660461426
vt 0.009163999930024147 0.28870201110839844
vt 0.06012599915266037 0.28434598445892334
vt 0.27947399020195007 0.023921012878417969
vt 0.30051600933074951 0.2635200023651123
vt 0.27836200594902039 0.023966014385223389
vt 0.25714799761772156 0.0247039794921875
vt 0.50768500566482544 0.015758991241455078
vt 0.32144299149513245 0.50413098931312561
vt 0.080748997628688812 0.52471199631690979
vt 0.015087000094354153 0.46950197219848633
vt 0.73710101842880249 0.00817197561264038
vt 0.52092599868774414 0.015320003032684326
vt 0.54090100526809692 0.24278801679611206
vt 0.56193697452545166 0.483519971370697
vt 0.762561023235321 0.0073990225791931152
vt 0.79174900054931641 0.34216701984405518
vt 0.97201800346374512 0.1198989748954773
vt 0.912310004234314 0.33091801404953003
vt 0.97821801900863647 0.32544100284576416
vt 0.96991199254989624 0.089878976345062256
vt 0.77164101600646973 0.007034003734588623
vt 0.98027098178863525 0.38814800977706909
vt 0.96678298711776733 0.00039201974868774414
vt 0.922523021697998 0.45196300745010376
vt 0.017078999429941177 0.53015398979187012
vt 0.022725999355316162 0.69886499643325806
vt 0.10152900218963623 0.76509900391101837
vt 0.025251999497413635 0.77166600525379181
vt 0.12151899933815002 0.996593999909237
vt 0.030480999499559402 0.92826999723911285
vt 0.11211699992418289 0.996906999964267
vt 0.030296999961137772 0.922775000333786
vt 0.5827140212059021 0.723924994468689
vt 0.80236601829528809 0.46255898475646973
vt 0.93306702375411987 0.57226899266242981
vt 0.9822009801864624 0.44683301448822021
vt 0.983905017375946 0.503574013710022
vt 0.81284898519515991 0.58272498846054077
vt 0.34225401282310486 0.74452498555183411
vt 0.82311499118804932 0.7031210064888
vt 0.60361897945404053 0.9643779993057251
vt 0.9433709979057312 0.6921750009059906
vt 0.9860879778862 0.56729501485824585
vt 0.98845398426055908 0.63853800296783447
vt 0.83372098207473755 0.82289999723434448
vt 0.36301600933074951 0.98490799963474274
vt 0.032692000269889832 0.9996089999913238
vt 0.35973900556564331 0.98879799991846085
vt 0.29112198948860168 0.99104500003159046
vt 0.60506397485733032 0.98079299926757812
vt 0.36733898520469666 0.9885489996522665
vt 0.95394200086593628 0.81233300268650055
vt 0.99016302824020386 0.68806499242782593
vt 0.992883026599884 0.76597100496292114
vt 0.84403502941131592 0.94334999844431877
vt 0.96422898769378662 0.932889997959137
vt 0.36333900690078735 0.98867900017648935
vt 0.84658300876617432 0.97247499972581863
vt 0.64195501804351807 0.979508999735117
vt 0.96732199192047119 0.96836600080132484
vt 0.93346798419952393 0.9695190005004406
vt 0.99835598468780518 0.92986900359392166
vt 0.99924302101135254 0.95581499859690666
vt 0.9996340274810791 0.96722700074315071
vt 0.99434399604797363 0.80875299870967865
vt 0.99713397026062012 0.89362800121307373
vn 0.0068080001510679722 0.99856400489807129 0.053141001611948013
vn 0.025110999122262 0.99897897243499756 0.037567000836133957
vn 0.01729699969291687 0.99921101331710815 0.03575500100851059
vn 0.055636998265981674 0.99820399284362793 0.022204000502824783
vn 0.028348999097943306 0.99949699640274048 0.014245999976992607
vn 0.029319999739527702 0.99902898073196411 0.032894998788833618
vn 0.029319999739527702 0.99902898073196411 0.032894998788833618
vn 0.063383996486663818 0.99789398908615112 0.013813000172376633
vn 0.04552600160241127 0.99870997667312622 0.022500000894069672
vn 0.0095149995759129524 0.99829697608947754 0.057562001049518585
vn 0.023179000243544579 0.99840199947357178 0.051530998200178146
vn 0.019991999492049217 0.998528003692627 0.050416000187397
vn 0.00098400004208087921 0.99943298101425171 0.0336650013923645
vn 0.016520999372005463 0.996537983417511 0.081481002271175385
vn 0.044697999954223633 0.99881398677825928 0.019286999478936195
vn 0.059553001075983047 0.99821102619171143 0.0052410000935196877
vn 0.062256999313831329 0.99805998802185059 -0.00090599997201934457
vn 0.0075530000030994415 0.99734199047088623 0.07246900349855423
vn 0.026363000273704529 0.99561101198196411 0.08979400247335434
vn 0.017118999734520912 0.99751198291778564 0.068389996886253357
vn 0.0092839999124407768 0.99960601329803467 0.026494000107049942
vn -0.037896998226642609 0.99695897102355957 0.068094998598098755
vn -0.031353998929262161 0.99839800596237183 0.04710099846124649
vn -0.0084969997406005859 0.9999539852142334 -0.0044749998487532139
vn -0.041588000953197479 0.99788498878479 0.049961000680923462
vn -0.0081449998542666435 0.99996399879455566 0.0021760000381618738
vn 0.055936001241207123 0.99834597110748291 0.013291000388562679
vn -0.02516699954867363 0.99847197532653809 0.049194999039173126
vn -0.061836998909711838 0.99567198753356934 0.069383002817630768
vn 0.061958000063896179 0.997967004776001 0.014952000230550766
vn -0.03976299986243248 0.99891102313995361 0.024404000490903854
vn 0.061615999788045883 0.99808299541473389 0.005824000108987093
vn 0.056184001266956329 0.99826699495315552 0.01750200055539608
vn 0.053151000291109085 0.99852901697158813 0.010719999670982361
vn 0.039583999663591385 0.99905401468276978 0.018009999766945839
vn 0.053952999413013458 0.99854302406311035 0.0013020000187680125
vn 0.048744998872280121 0.99877101182937622 -0.0090159997344017029
vn 0.047472000122070312 0.99884402751922607 -0.0075980001129209995
vn 0.038752999156713486 0.99924701452255249 0.0021069999784231186
vn 0.0047920001670718193 0.999754011631012 0.0216630008071661
vn -0.011886999942362309 0.99989598989486694 -0.0081879999488592148
vn -0.016081999987363815 0.99984598159790039 0.0070230001583695412
vn -0.082896001636981964 0.99431800842285156 0.066789999604225159
vn -0.033312998712062836 0.99930799007415771 -0.01652899943292141
vn -0.022918000817298889 0.9994170069694519 0.025317000225186348
vn 0.051766000688076019 0.99856197834014893 0.01397399976849556
vn -0.02608099952340126 0.9995189905166626 0.016760999336838722
vn 0.012031000107526779 0.99990200996398926 0.0071620000526309013
vn -0.040727999061346054 0.99910902976989746 0.011049999855458736
vn -0.012675000354647636 0.99991899728775024 -0.0007379999733529985
vn -0.021002000197768211 0.99935698509216309 0.029047999531030655
vn -0.025472000241279602 0.99931401014328 0.02689800038933754
vn 0.054586000740528107 0.998507022857666 0.00216299993917346
vn 0.0760670006275177 0.99632102251052856 -0.039484001696109772
vn 0.059774000197649 0.998104989528656 0.014619999565184116
vn 0.068172000348567963 0.997672975063324 0.00092800002312287688
vn 0.016548000276088715 0.99973100423812866 -0.016251999884843826
vn 0.05087599903345108 0.99857401847839355 -0.016174999997019768
vn -0.033142998814582825 0.99872499704360962 0.038081001490354538
vn -0.055181998759508133 0.99847400188446045 -0.0022700000554323196
vn -0.051320001482963562 0.99868202209472656 0.00065800000447779894
vn -0.017612999305129051 0.999364972114563 0.0309859998524189
vn -0.0313819982111454 0.998691976070404 0.04036799818277359
vn 0.039462998509407043 0.99917697906494141 -0.0094100004062056541
vn -0.01926100067794323 0.99981200695037842 -0.0021579999011009932
vn -0.02196200005710125 0.9997519850730896 -0.0036110000219196081
vn -0.027777999639511108 0.99948000907897949 0.016351999714970589
vn -0.011010999791324139 0.99993699789047241 0.0022269999608397484
vn -0.05529399961233139 0.99770200252532959 0.039154998958110809
vn -0.056453999131917953 0.99824601411819458 0.017844999209046364
vn -0.056453999131917953 0.99824601411819458 0.017844999209046364
vn -0.036848001182079315 0.99839001893997192 0.043122999370098114
vn -0.039482999593019485 0.99660700559616089 0.072221003472805023
f 1/1/1 2/2/2 3/3/3
f 4/4/4 3/3/3 5/5/5
f 6/6/6 3/3/3 2/2/2
f 6/6/6 7/7/7 3/3/3
f 7/7/7 5/5/5 3/3/3
f 3/3/3 8/8/8 9/9/9
f 3/3/3 4/4/4 8/8/8
f 10/10/10 9/9/9 11/11/11
f 10/10/10 12/12/12 9/9/9
f 9/9/9 13/13/13 3/3/3
f 9/9/9 12/12/12 13/13/13
f 10/10/10 11/11/11 14/14/14
f 9/9/9 15/15/15 11/11/11
f 1/1/1 3/3/3 13/13/13
f 8/8/8 16/16/16 9/9/9
f 8/8/8 17/17/17 16/16/16
f 18/18/18 19/19/19 20/20/20
f 20/20/20 11/11/11 21/21/21
f 22/22/22 20/20/20 23/23/23
f 22/22/22 18/18/18 20/20/20
f 24/24/24 25/25/25 26/26/26
f 24/24/24 27/27/27 25/25/25
f 22/22/22 25/25/25 28/28/28
f 22/22/22 23/23/23 25/25/25
f 26/26/26 25/25/25 29/29/29
f 30/30/30 25/25/25 27/27/27
f 30/30/30 28/28/28 25/25/25
f 25/25/25 23/23/23 31/31/31
f 20/20/20 14/14/14 11/11/11
f 20/20/20 19/19/19 14/14/14
f 23/23/23 20/20/20 21/21/21
f 17/17/17 32/32/32 16/16/16
f 16/16/16 33/33/33 34/34/34
f 16/16/16 32/32/32 33/33/33
f 35/35/35 34/34/34 33/33/33
f 36/36/36 37/37/37 38/38/38
f 36/36/36 39/39/39 37/37/37
f 39/39/39 34/34/34 35/35/35
f 39/39/39 36/36/36 34/34/34
f 15/15/15 16/16/16 34/34/34
f 21/21/21 15/15/15 40/40/40
f 11/11/11 15/15/15 21/21/21
f 31/31/31 41/41/41 42/42/42
f 23/23/23 41/41/41 31/31/31
f 29/29/29 31/31/31 43/43/43
f 29/29/29 25/25/25 31/31/31
f 43/43/43 31/31/31 44/44/44
f 41/41/41 23/23/23 21/21/21
f 41/41/41 21/21/21 45/45/45
f 40/40/40 15/15/15 46/46/46
f 21/21/21 40/40/40 45/45/45
f 45/45/45 40/40/40 47/47/47
f 40/40/40 46/46/46 48/48/48
f 47/47/47 49/49/49 42/42/42
f 47/47/47 42/42/42 45/45/45
f 42/42/42 44/44/44 31/31/31
f 42/42/42 50/50/50 44/44/44
f 50/50/50 49/49/49 51/51/51
f 50/50/50 42/42/42 49/49/49
f 41/41/41 45/45/45 42/42/42
f 47/47/47 40/40/40 52/52/52
f 46/46/46 15/15/15 34/34/34
f 15/15/15 9/9/9 16/16/16
f 46/46/46 34/34/34 53/53/53
f 54/54/54 38/38/38 37/37/37
f 55/55/55 53/53/53 56/56/56
f 57/57/57 53/53/53 58/58/58
f 57/57/57 48/48/48 53/53/53
f 46/46/46 53/53/53 48/48/48
f 49/49/49 52/52/52 59/59/59
f 40/40/40 48/48/48 52/52/52
f 59/59/59 60/60/60 49/49/49
f 59/59/59 61/61/61 60/60/60
f 52/52/52 48/48/48 62/62/62
f 34/34/34 56/56/56 53/53/53
f 34/34/34 36/36/36 56/56/56
f 52/52/52 63/63/63 59/59/59
f 58/58/58 53/53/53 64/64/64
f 65/65/65 48/48/48 66/66/66
f 65/65/65 62/62/62 48/48/48
f 66/66/66 48/48/48 57/57/57
f 67/67/67 63/63/63 68/68/68
f 65/65/65 63/63/63 62/62/62
f 65/65/65 68/68/68 63/63/63
f 67/67/67 69/69/69 63/63/63
f 67/67/67 70/70/70 69/69/69
f 70/70/70 67/67/67 71/71/71
f 52/52/52 62/62/62 63/63/63
f 72/72/72 63/63/63 73/73/73
f 72/72/72 59/59/59 63/63/63
f 64/64/64 53/53/53 55/55/55
f 47/47/47 52/52/52 49/49/49
f 60/60/60 51/51/51 49/49/49
f 69/69/69 73/73/73 63/63/63
f 72/72/72 61/61/61 59/59/59
