mtllib m2031.mtl
usemtl material0
v -1256.517822265625 16.088747024536133 -768
v -1259.0081787109375 16.185327529907227 -768
v -1256.3936767578125 16.078969955444336 -765.64697265625
v -1280 17.930421829223633 -764.40667724609375
v -1280 17.86558723449707 -766.04266357421875
v -1280 17.788015365600586 -768
v -1280 17.058279037475586 -726.10382080078125
v -1253.0322265625 14.358003616333008 -701.8203125
v -1280 16.06947135925293 -700.40203857421875
v -1280 18.180444717407227 -665.3233642578125
v -1249.646484375 17.99365234375 -638.01318395137787
v -1193.49365234375 11.76177978515625 -768
v -1211.63720703125 13.022891998291016 -768
v -1128.5576171875 8.36447811126709 -768
v -1191.4803466796875 11.682035446166992 -768
v -1125.414306640625 9.279052734375 -708.54229736328125
v -1192.5400390625 11.729842185974121 -768
v -1189.2215576171875 12.190462112426758 -705.18267822265625
v -1064.5523681640625 9.7628154754638672 -768
v -1118.7802734375 8.53300952911377 -768
v -1063.2757568359375 9.8395776748657227 -743.82470703125
v -1122.031494140625 12.248696327209473 -644.73284912109375
v -1032.551513671875 10.106951713562012 -768
v -1031.3658447265625 9.7719545364379883 -745.50958251953125
v -1041.52490234375 10.132952690124512 -768
v -1024 10.590571403503418 -768
v -1024 10.334859848022461 -753.69573974609375
v -1061.5880126953125 10.527501106262207 -711.9171142578125
v -1029.6746826171875 11.204495429992676 -713.604736328125
v -1185.8375244140625 15.428167343139648 -641.37414598464966
v -1024 10.092758178710938 -745.899658203125
v -1024 10.143545150756836 -738.88555908203125
v -1059.89892578125 11.517852783203125 -680.0106201171875
v -1280 17.812459945678711 -636.40966796875
v -1246.26318359375 21.116874694824219 -574.2041015625
v -1280 19.357786178588867 -604.5433349609375
v -1118.6580810546875 13.170295715332031 -580.9158935546875
v -1058.2109375 12.239354133605957 -648.10308837890625
v -1056.5274658203125 11.988890647888184 -616.1920166015625
v -1182.4544677734375 18.4771728515625 -577.5648193359375
v -1027.988525390625 11.522983551025391 -681.69573974609375
v -1026.3004150390625 12.306007385253906 -649.7884521484375
v -1024 11.251198768615723 -713.904541015625
v -1024 11.515613555908203 -686.12896728515625
v -1024 11.19707202911377 -681.9052734375
v -1024 11.439703941345215 -678.10662841796875
v -1024.6234130859375 10.661035537719727 -617.872314453125
v -1024 12.198975563049316 -649.9095458984375
v -1024 10.664347648620606 -618.565185546875
v -1024 9.8700265884399414 -605.99261474609375
v -1024 8.6439170837402344 -586.9013671875
v -1024 10.684685707092285 -617.90533447265625
v -1280 20.877286911010742 -536.70660400390625
v -1280 20.915485382080078 -572.421875
v -1179.0780029296875 20.076267242431641 -513.75018310546875
v -1054.8502197265625 10.40611743927002 -584.27618408203125
v -1115.290283203125 12.87196159362793 -517.09454345703125
v -1024 8.6385536193847656 -584.78570556640625
v -1053.16064453125 11.488525390625 -552.36993408203125
v -1024 8.59743595123291 -585.89923095703125
v -1024 9.0086965560913086 -553.90155029296875
v -1024 10.855564117431641 -526.1295166015625
v -1280 21.151165008544922 -512
v -1242.9757080078125 21.870269775390625 -512
v -1212.2806396484375 21.019886016845703 -512
v -1180.652587890625 20.069473266601562 -512
v -1178.9854736328125 20.092250823974609 -512
v -1051.03466796875 10.40659236907959 -512
v -1103.60205078125 12.489993095397949 -512
v -1051.4815673828125 10.289421081542969 -520.45550537109375
v -1024 10.755311965942383 -517.217529296875
v -1028.6942138671875 10.750994682312012 -512
v -1024 10.804132461547852 -512
v -1024 10.694134712219238 -521.90814208984375
v -1024 10.709708213806152 -520.714111328125
v -1115.0205078125 13.051417350769043 -512
v -1119.873046875 13.462644577026367 -512
vt 0.090244002640247345 0.0325700044631958
vt 0.080885998904705048 0.032893002033233643
vt 0.0910160019993782 0.041390001773834229
vt 0.0022700000554323196 0.04917597770690918
vt 0.0020729999523609877 0.043026983737945557
vt 0.0018360000103712082 0.035672008991241455
vt 0.0075909998267889023 0.19302302598953247
vt 0.11254300177097321 0.28064697980880737
vt 0.01127300038933754 0.289588987827301
vt 0.015487000346183777 0.42155599594116211
vt 0.13294400274753571 0.52023801207542419
vt 0.32745099067687988 0.024408996105194092
vt 0.25915899872779846 0.026758015155792236
vt 0.57159298658370972 0.015527009963989258
vt 0.33500799536705017 0.024016022682189941
vt 0.59121102094650269 0.23839300870895386
vt 0.33102300763130188 0.024161994457244873
vt 0.35183501243591309 0.25959199666976929
vt 0.81198197603225708 0.0071840286254882812
vt 0.6083109974861145 0.014250993728637695
vt 0.81993097066879272 0.097792983055114746
vt 0.61199098825454712 0.47783100605010986
vt 0.93215298652648926 0.0030170083045959473
vt 0.939926028251648 0.087881982326507568
vt 0.89845901727676392 0.004181981086730957
vt 0.96436202526092529 0.0023350119590759277
vt 0.96643602848052979 0.0560460090637207
vt 0.8305169939994812 0.21786397695541382
vt 0.95017498731613159 0.20760399103164673
vt 0.37257501482963562 0.49907702207565308
vt 0.96756798028945923 0.085554003715515137
vt 0.96839702129364014 0.11189502477645874
vt 0.84086298942565918 0.33752000331878662
vt 0.019170999526977539 0.530133992433548
vt 0.153889998793602 0.75968599319458008
vt 0.023287000134587288 0.649931013584137
vt 0.63309800624847412 0.71702900528907776
vt 0.85121500492095947 0.45715200901031494
vt 0.861732006072998 0.57630598545074463
vt 0.39304399490356445 0.73855501413345337
vt 0.96047502756118774 0.32718098163604736
vt 0.97076898813247681 0.44614100456237793
vt 0.97144401073455811 0.2057340145111084
vt 0.974901020526886 0.31003797054290771
vt 0.97506499290466309 0.32518798112869263
vt 0.97585898637771606 0.33946698904037476
vt 0.981419026851654 0.56590598821640015
vt 0.97940099239349365 0.44539302587509155
vt 0.98366802930831909 0.56322199106216431
vt 0.98544400930404663 0.61039999127388
vt 0.98816400766372681 0.68222498893737793
vt 0.98374497890472412 0.56557101011276245
vt 0.031994998455047607 0.90479499846696854
vt 0.027434999123215675 0.770685002207756
vt 0.41418200731277466 0.977793000638485
vt 0.87247198820114136 0.69604998826980591
vt 0.654524028301239 0.95619300007820129
vt 0.98837602138519287 0.68932199478149414
vt 0.8830140233039856 0.81521899998188019
vt 0.988303005695343 0.68599098920822144
vt 0.99267202615737915 0.80528600513935089
vt 0.99622398614883423 0.90962400287389755
vt 0.035349000245332718 0.9976649999152869
vt 0.17439700663089752 0.9928379999473691
vt 0.28969401121139526 0.9887669999152422
vt 0.40850698947906494 0.98457800038158894
vt 0.41476699709892273 0.9843520000576973
vt 0.89665299654006958 0.96657799929380417
vt 0.69912499189376831 0.97373300045728683
vt 0.89384400844573975 0.93488699942827225
vt 0.99741601943969727 0.94312899932265282
vt 0.980538010597229 0.96339000016450882
vt 0.99816399812698364 0.96271900087594986
vt 0.9968230128288269 0.92548500001430511
vt 0.99691402912139893 0.93000099807977676
vt 0.656374990940094 0.97518100030720234
vt 0.63809502124786377 0.97595199942588806
vn 0.052963998168706894 0.99859499931335449 0.0013549999566748738
vn 0.0673850029706955 0.99728202819824219 -0.029795000329613686
vn 0.068581998348236084 0.99762099981307983 0.0069499998353421688
vn 0.077803999185562134 0.99694198369979858 -0.007350000087171793
vn 0.0760670006275177 0.99632102251052856 -0.03948500007390976
vn 0.076067999005317688 0.99632000923156738 -0.039485998451709747
vn 0.075612001121044159 0.99677497148513794 0.026869999244809151
vn 0.054517000913619995 0.99832302331924438 -0.019489999860525131
vn 0.062678001821041107 0.99795597791671753 -0.0124719999730587
vn 0.042667999863624573 0.99826401472091675 -0.040594998747110367
vn 0.023505000397562981 0.99869602918624878 -0.045311998575925827
vn 0.043042000383138657 0.99907302856445312 -0.00047100000665523112
vn 0.069302000105381012 0.99733400344848633 0.02286200039088726
vn 0.018884999677538872 0.99968802928924561 -0.016374999657273293
vn 0.04683300107717514 0.998835027217865 -0.01167100016027689
vn 0.014340000227093697 0.99944698810577393 -0.029993999749422073
vn 0.039076000452041626 0.9991919994354248 -0.0093900002539157867
vn 0.038669001311063766 0.99878597259521484 -0.030511999502778053
vn -0.019483000040054321 0.99980801343917847 -0.0021460000425577164
vn -0.017944000661373138 0.99975699186325073 -0.012834999710321426
vn -0.014639999717473984 0.99981200695037842 -0.012691999785602093
vn 0.022774999961256981 0.99932599067687988 -0.02878900058567524
vn -0.025803999975323677 0.99953502416610718 0.016248000785708427
vn -0.018441999331116676 0.99979901313781738 -0.0078670000657439232
vn -0.00216299993917346 0.9999459981918335 0.010188000276684761
vn -0.056453999131917953 0.99824601411819458 0.017844999209046364
vn -0.053050998598337173 0.99837297201156616 0.020916000008583069
vn -0.021704999729990959 0.99944800138473511 -0.025135999545454979
vn -0.010575000196695328 0.99959099292755127 -0.026579000055789948
vn 0.04576599970459938 0.99778902530670166 -0.048197001218795776
vn -0.042844999581575394 0.999002993106842 0.012540999799966812
vn -0.019462000578641891 0.99921798706054688 -0.034412000328302383
vn -0.0092770000919699669 0.99960297346115112 -0.02659899927675724
vn -0.0069659999571740627 0.999796986579895 -0.018888000398874283
vn 0.012803999707102776 0.9994320273399353 -0.031179999932646751
vn -0.0085209999233484268 0.99879002571105957 -0.048434998840093613
vn 0.049424998462200165 0.99873000383377075 -0.0097669996321201324
vn -0.0011289999820291996 0.99997097253799438 -0.0075610000640153885
vn 0.028243999928236008 0.99919801950454712 0.028396999463438988
vn 0.063738003373146057 0.99731200933456421 -0.036138001829385757
vn 0.024243000894784927 0.99963998794555664 -0.011458000168204308
vn 0.027987999841570854 0.99958699941635132 0.0065299998968839645
vn -0.00967899989336729 0.99957501888275146 -0.027491999790072441
vn 0.01324899960309267 0.99985998868942261 0.01025800034403801
vn 0.08185499906539917 0.996612012386322 0.0079979998990893364
vn 0.053869001567363739 0.99787300825119019 -0.036708999425172806
vn 0.014875000342726708 0.998753011226654 0.047660000622272491
vn 0.046985998749732971 0.998848021030426 0.0097319995984435081
vn 0.028358999639749527 0.99913901090621948 0.0302910003811121
vn 0.043549999594688416 0.99699300527572632 0.0640999972820282
vn 0.0566289983689785 0.99709302186965942 0.05098000168800354
vn -0.037000998854637146 0.99917000532150269 0.017035000026226044
vn -0.016269000247120857 0.99983400106430054 -0.00824899971485138
vn -0.0071749999187886715 0.99971300363540649 -0.022861000150442123
vn 0.0660649985074997 0.99772101640701294 -0.01371499989181757
vn 0.051182001829147339 0.99867600202560425 0.0051130000501871109
vn 0.067630000412464142 0.99759399890899658 -0.01525299996137619
vn 0.062995001673698425 0.997530996799469 -0.031031999737024307
vn 0.0444829985499382 0.99896699190139771 -0.0092420000582933426
vn 0.058844998478889465 0.99824899435043335 0.0060890000313520432
vn 0.082685999572277069 0.99584698677062988 -0.038093000650405884
vn 0.01242700032889843 0.99987000226974487 0.010308999568223953
vn -0.019416999071836472 0.999750018119812 -0.011083000339567661
vn 0.0049290000461041927 0.99991101026535034 -0.012370999902486801
vn 0.027729999274015427 0.99953299760818481 -0.012826999649405479
vn 0.01837100088596344 0.99962300062179565 0.02040800079703331
vn 0.051070000976324081 0.99862498044967651 -0.011819999665021896
vn 0.011175000108778477 0.99983298778533936 -0.014445999637246132
vn 0.040837999433279037 0.99898898601531982 -0.018794000148773193
vn 0.013445000164210796 0.99984800815582275 0.011132000014185906
vn -0.014457999728620052 0.9998210072517395 -0.012180999852716923
vn -0.014321000315248966 0.99982500076293945 -0.01205699983984232
vn -0.011319000273942947 0.999891996383667 -0.0093560004606843
vn -0.014012999832630158 0.99981099367141724 0.013453000225126743
vn -0.015413000248372555 0.99979597330093384 -0.013039999641478062
vn 0.066169001162052155 0.99706000089645386 -0.038624998182058334
vn 0.10426300019025803 0.99431699514389038 -0.02149599976837635
f 1/1/1 2/2/2 3/3/3
f 2/2/2 4/4/4 3/3/3
f 2/2/2 5/5/5 4/4/4
f 5/5/5 2/2/2 6/6/6
f 3/3/3 7/7/7 8/8/8
f 3/3/3 4/4/4 7/7/7
f 9/9/9 8/8/8 7/7/7
f 8/8/8 10/10/10 11/11/11
f 8/8/8 9/9/9 10/10/10
f 12/12/12 3/3/3 8/8/8
f 12/12/12 13/13/13 3/3/3
f 14/14/14 15/15/15 16/16/16
f 1/1/1 3/3/3 13/13/13
f 16/16/16 17/17/17 18/18/18
f 16/16/16 15/15/15 17/17/17
f 19/19/19 20/20/20 21/21/21
f 21/21/21 14/14/14 16/16/16
f 21/21/21 20/20/20 14/14/14
f 16/16/16 18/18/18 22/22/22
f 23/23/23 21/21/21 24/24/24
f 23/23/23 25/25/25 21/21/21
f 19/19/19 21/21/21 25/25/25
f 26/26/26 24/24/24 27/27/27
f 26/26/26 23/23/23 24/24/24
f 21/21/21 16/16/16 28/28/28
f 29/29/29 24/24/24 21/21/21
f 18/18/18 12/12/12 8/8/8
f 18/18/18 17/17/17 12/12/12
f 18/18/18 8/8/8 30/30/30
f 31/31/31 24/24/24 32/32/32
f 31/31/31 27/27/27 24/24/24
f 28/28/28 33/33/33 29/29/29
f 33/33/33 16/16/16 22/22/22
f 34/34/34 35/35/35 11/11/11
f 34/34/34 36/36/36 35/35/35
f 10/10/10 34/34/34 11/11/11
f 30/30/30 37/37/37 22/22/22
f 18/18/18 30/30/30 22/22/22
f 22/22/22 38/38/38 33/33/33
f 38/38/38 22/22/22 39/39/39
f 30/30/30 8/8/8 11/11/11
f 11/11/11 40/40/40 30/30/30
f 41/41/41 33/33/33 38/38/38
f 38/38/38 42/42/42 41/41/41
f 43/43/43 41/41/41 44/44/44
f 43/43/43 29/29/29 41/41/41
f 45/45/45 44/44/44 41/41/41
f 32/32/32 29/29/29 43/43/43
f 32/32/32 24/24/24 29/29/29
f 45/45/45 41/41/41 46/46/46
f 42/42/42 39/39/39 47/47/47
f 38/38/38 39/39/39 42/42/42
f 48/48/48 47/47/47 49/49/49
f 48/48/48 42/42/42 47/47/47
f 50/50/50 39/39/39 51/51/51
f 50/50/50 47/47/47 39/39/39
f 42/42/42 46/46/46 41/41/41
f 42/42/42 48/48/48 46/46/46
f 49/49/49 47/47/47 52/52/52
f 33/33/33 41/41/41 29/29/29
f 21/21/21 28/28/28 29/29/29
f 39/39/39 22/22/22 37/37/37
f 53/53/53 35/35/35 54/54/54
f 35/35/35 55/55/55 40/40/40
f 11/11/11 35/35/35 40/40/40
f 39/39/39 37/37/37 56/56/56
f 40/40/40 37/37/37 30/30/30
f 36/36/36 54/54/54 35/35/35
f 40/40/40 57/57/57 37/37/37
f 58/58/58 56/56/56 59/59/59
f 58/58/58 60/60/60 56/56/56
f 51/51/51 56/56/56 60/60/60
f 51/51/51 39/39/39 56/56/56
f 58/58/58 59/59/59 61/61/61
f 59/59/59 56/56/56 37/37/37
f 61/61/61 59/59/59 62/62/62
f 57/57/57 59/59/59 37/37/37
f 63/63/63 35/35/35 53/53/53
f 63/63/63 64/64/64 35/35/35
f 52/52/52 47/47/47 50/50/50
f 33/33/33 28/28/28 16/16/16
f 64/64/64 55/55/55 35/35/35
f 64/64/64 65/65/65 55/55/55
f 65/65/65 66/66/66 55/55/55
f 67/67/67 55/55/55 66/66/66
f 68/68/68 57/57/57 69/69/69
f 68/68/68 70/70/70 57/57/57
f 57/57/57 70/70/70 59/59/59
f 71/71/71 72/72/72 73/73/73
f 68/68/68 74/74/74 70/70/70
f 68/68/68 75/75/75 74/74/74
f 75/75/75 72/72/72 71/71/71
f 75/75/75 68/68/68 72/72/72
f 62/62/62 70/70/70 74/74/74
f 62/62/62 59/59/59 70/70/70
f 69/69/69 57/57/57 76/76/76
f 76/76/76 57/57/57 77/77/77
f 67/67/67 57/57/57 55/55/55
f 67/67/67 77/77/77 57/57/57
f 40/40/40 55/55/55 57/57/57
