mtllib m21011.mtl
usemtl material0
v -640 7.7426772117614746 -99.46820068359375
v -614.76275634765625 7.20836877822876 -127.519775390625
v -640 6.0045318603515625 -126.18318176269531
v -614.78814697265625 7.2011289596557617 -128
v -640 6.003270149230957 -126.28404998779297
v -640 5.981788158416748 -128
v -614.3306884765625 7.22475004196167 -128
v -605.68963623046875 7.5476808547973633 -128
v -640 7.92954683303833 -94.190353393554688
v -613.07269287109375 8.3687782287597656 -95.613723754882812
v -544.304931640625 7.5348920822143555 -128
v -549.25469970703125 7.8328337669372559 -98.9820556640625
v -518.18310546875 8.58870792388916 -116.62482452392578
v -550.78912353515625 7.3183798789978027 -128
v -581.16223096847534 8.4066152572631836 -97.2989501953125
v -582.78302001953125 8.4021244049072266 -128
v -581.50323486328125 8.3791837692260742 -128
v -640 8.7586479187011719 -62.193974018096924
v -640 7.3798828125 -31.903953552246094
v -611.391845703125 7.5831189155578613 -63.700919985771179
v -640 8.8367929458618164 -65.683784008026123
v -640 6.6085109710693359 -0.0345611572265625
v -609.71270751953125 6.4343719482421875 -31.786880493164062
v -640 7.3210039138793945 -30.190330505371094
v -638.311279296875 6.5561552047729492 0
v -640 6.60769510269165 0
v -579.48290991783142 7.2913718223571777 -65.385010004043579
v -547.57647705078125 6.483220100402832 -67.067306995391846
v -516.5084228515625 6.5078120231628418 -84.70751953125
v -545.89447021484375 5.9462790489196777 -35.1553840637207
v -577.805724978447 5.7324762344360352 -33.469554901123047
v -607.9190673828125 5.3307929039001465 0
v -608.0400390625 5.33366584777832 0
v -605.6282958984375 5.3221840858459473 0
v -576.12353499978781 5.2352728843688965 -1.5577850341796875
v -544.208740234375 6.1902737617492676 -3.2461585998535156
v -513.142822265625 5.752284049987793 -20.884773254394531
v -574.39172399044037 5.2722678184509277 0
v -544.0374755859375 6.1661391258239746 0
v -576.04119899868965 5.25887393951416 0
v -514.8287353515625 5.4754247665405273 -52.793880462646484
v -512 9.0482864379882812 -121.19052124023438
v -512 8.85174560546875 -116.95217895507813
v -512 9.1552038192749023 -123.49614715576172
v -512 9.3108243942260742 -128
v -518.78179931640625 8.9498872756958 -128
v -512 8.3524255752563477 -111.06012725830078
v -517.345458984375 7.6039609909057617 -100.66635894775391
v -512 7.7188520431518555 -100.94901275634766
v -512 6.93692684173584 -89.717727661132812
v -512 6.6201610565185547 -84.945960998535156
v -512 6.4765281677246094 -80.651107788085938
v -515.67010498046875 5.67427921295166 -68.749602794647217
v -512 5.83916711807251 -68.943939208984375
v -512 5.6467962265014648 -55.937652587890625
v -512 5.5766401290893555 -52.943584442138672
v -512 5.5011591911315918 -50.249088287353516
v -513.9862060546875 5.5279560089111328 -36.839031219482422
v -512 5.5404410362243652 -36.9439582824707
v -512 5.7429041862487793 -22.155044555664062
v -512 5.7463870048522949 -20.945106506347656
v -512 6.025026798248291 -5.2633056640625
v -512.29925537109375 6.0321998596191406 -4.9307060241699219
v -512 6.02683687210083 -4.9464912414550781
v -512 6.0284948348999023 -4.8399620056152344
v -512 6.03127384185791 -4.6614875793457031
v -512.0384521484375 6.1322689056396484 0
v -536.75762939453125 6.2279720306396484 0
v -512 6.1314067840576172 0
vt 0.749226987361908 0.0091900229454040527
vt 0.96694201231002808 0.19112098217010498
vt 0.95036298036575317 0.0016199946403503418
vt 0.97054398059844971 0.19080299139022827
vt 0.95112502574920654 0.0015929937362670898
vt 0.96401900053024292 0.0011420249938964844
vt 0.97066301107406616 0.19424498081207275
vt 0.97290199995040894 0.25921899080276489
vt 0.70954799652099609 0.01064300537109375
vt 0.72752797603607178 0.21260398626327515
vt 0.98984998464584351 0.72053998708724976
vt 0.77047300338745117 0.691195011138916
vt 0.91135197877883911 0.92000299692153931
vt 0.988116979598999 0.67179301381111145
vt 0.7489510178565979 0.45189601182937622
vt 0.97918397188186646 0.43139398097991943
vt 0.97953099012374878 0.44101101160049438
vt 0.46903300285339355 0.019451022148132324
vt 0.24123199284076691 0.028151988983154297
vt 0.48815900087356567 0.23416697978973389
vt 0.49526000022888184 0.018474996089935303
vt 0.0017229999648407102 0.037126004695892334
vt 0.24868999421596527 0.25563102960586548
vt 0.22834999859333038 0.028639018535614014
vt 0.001934999949298799 0.049830019474029541
vt 0.001462999964132905 0.0371360182762146
vt 0.50958800315856934 0.4734569787979126
vt 0.53095299005508423 0.712799996137619
vt 0.67212998867034912 0.94131499901413918
vt 0.29160800576210022 0.734252005815506
vt 0.26998201012611389 0.49496597051620483
vt 0.010219000279903412 0.277912974357605
vt 0.010185999795794487 0.27700299024581909
vt 0.010847999714314938 0.29512500762939453
vt 0.030665000900626183 0.51654300093650818
vt 0.05234299972653389 0.755952998995781
vt 0.193682000041008 0.98436800017952919
vt 0.019448999315500259 0.52999499440193176
vt 0.028000999242067337 0.75814899802207947
vt 0.018967999145388603 0.51742398738861084
vt 0.43263798952102661 0.96285999938845634
vt 0.94805902242660522 0.96442700177431107
vt 0.91619902849197388 0.96602699905633926
vt 0.96467399597167969 0.96477799862623215
vt 0.998537003993988 0.9636319987475872
vt 0.99671602249145508 0.91260500252246857
vt 0.87178099155426025 0.967884998768568
vt 0.79207301139831543 0.930468000471592
vt 0.795773983001709 0.97055299952626228
vt 0.71118897199630737 0.9737589992582798
vt 0.67524898052215576 0.97512499988079071
vt 0.64296400547027588 0.97636399976909161
vt 0.55231201648712158 0.95214299857616425
vt 0.55478501319885254 0.9796920008957386
vt 0.457053005695343 0.98326900042593479
vt 0.43454399704933167 0.98408499918878078
vt 0.41429099440574646 0.98480900004506111
vt 0.31299200654029846 0.97355099953711033
vt 0.31466901302337646 0.98841500002890825
vt 0.20354899764060974 0.992595000192523
vt 0.1944590061903 0.992937000002712
vt 0.076622001826763153 0.99737100000493228
vt 0.074037998914718628 0.99521700013428926
vt 0.074242003262043 0.99746099999174476
vt 0.073440998792648315 0.99749099998734891
vt 0.072100996971130371 0.9975409999024123
vt 0.037060000002384186 0.99857000005431473
vt 0.030042000114917755 0.81284500658512115
vt 0.037071000784635544 0.9988590000430122
vn -0.025831999257206917 0.99877297878265381 -0.042265001684427261
vn -0.036899000406265259 0.99908900260925293 -0.021452000364661217
vn -0.049697998911142349 0.99798101186752319 -0.039535000920295715
vn -0.04987800121307373 0.99867802858352661 -0.012419000267982483
vn -0.0483039990067482 0.99875497817993164 -0.012502999976277351
vn -0.0483039990067482 0.99875402450561523 -0.012502999976277351
vn -0.041138999164104462 0.99914902448654175 -0.0029309999663382769
vn -0.037275999784469604 0.99930298328399658 0.0017989999614655972
vn -0.018071999773383141 0.99927401542663574 -0.033532001078128815
vn -0.0022539999336004257 0.99991399049758911 -0.012920999899506569
vn -0.036244001239538193 0.99929898977279663 -0.0093470001593232155
vn 0.012106000445783138 0.99971199035644531 0.020718000829219818
vn -0.031523000448942184 0.99857699871063232 0.043007999658584595
vn 0.0017130000051110983 0.99984002113342285 -0.017816999927163124
vn 0.0057540000416338444 0.99992001056671143 0.011270999908447266
vn -0.010607000440359116 0.99994397163391113 0.00041400000918656588
vn 0.021793000400066376 0.99974799156188965 -0.0053960001096129417
vn 0.042833998799324036 0.998494029045105 0.034276001155376434
vn 0.033936001360416412 0.99874198436737061 0.036915998905897141
vn 0.02568499930202961 0.999114990234375 0.03330099955201149
vn 0.028193999081850052 0.99955499172210693 0.00973500031977892
vn 0.030496999621391296 0.99925601482391357 0.02361300028860569
vn 0.028504999354481697 0.99906200170516968 0.032604001462459564
vn 0.030765999108552933 0.99911201000213623 0.028790000826120377
vn 0.033123001456260681 0.99911397695541382 0.025972999632358551
vn 0.030496999621391296 0.99925601482391357 0.023615000769495964
vn 0.014313999563455582 0.99917399883270264 0.038024000823497772
vn 0.02556999959051609 0.99926400184631348 0.028596000745892525
vn -0.0028810000512748957 0.99848800897598267 0.054898001253604889
vn 0.0059980000369250774 0.99993997812271118 0.0092200003564357758
vn 0.0053840000182390213 0.99945199489593506 0.032676000148057938
vn 0.018402999266982079 0.99942302703857422 0.028557000681757927
vn 0.0317469984292984 0.99895399808883667 0.032921001315116882
vn 0.0037299999967217445 0.99988299608230591 0.014866000041365624
vn -0.0077309999614953995 0.999970018863678 0.00054300000192597508
vn -0.014162000268697739 0.99989700317382812 -0.0021349999587982893
vn 0.0050840000621974468 0.99989700317382812 -0.013434999622404575
vn -0.024466000497341156 0.99969500303268433 0.0034580000210553408
vn -0.018613999709486961 0.99979102611541748 0.0084149995818734169
vn -0.0031620000954717398 0.99988299608230591 -0.01498199999332428
vn -0.0045349998399615288 0.99992400407791138 0.011456999927759171
vn -0.040010999888181686 0.99812698364257812 0.0462849996984005
vn -0.038995999842882156 0.99714398384094238 0.064672000706195831
vn -0.050062999129295349 0.99805200099945068 0.037234000861644745
vn -0.053114999085664749 0.997992992401123 0.034483000636100769
vn -0.054253999143838882 0.99792999029159546 0.034540999680757523
vn -0.023413000628352165 0.99738597869873047 0.06836400181055069
vn -0.003696999978274107 0.99786198139190674 0.065251998603343964
vn -0.017960000783205032 0.99766701459884644 0.065866000950336456
vn -0.018602000549435616 0.99746400117874146 0.068691998720169067
vn -0.022216999903321266 0.99848198890686035 0.050390001386404037
vn -0.036926001310348511 0.99812901020050049 0.0487390011548996
vn -0.0080340001732110977 0.9994320273399353 0.032724000513553619
vn -0.0429919995367527 0.99845397472381592 0.035234998911619186
vn -0.041861999779939651 0.9989820122718811 0.016789000481367111
vn -0.034391999244689941 0.99908000230789185 0.025620000436902046
vn -0.013871000148355961 0.9998900294303894 0.0053070001304149628
vn 0.0029460000805556774 0.99995702505111694 -0.008830999955534935
vn -0.00671500014141202 0.99994397163391113 -0.008139999583363533
vn -0.00420599989593029 0.99992901086807251 -0.011168000288307667
vn 0.0046279998496174812 0.99993902444839478 -0.010072000324726105
vn 0.0073449998162686825 0.99986100196838379 -0.014955000020563602
vn 0.0096399998292326927 0.99980700016021729 -0.017126999795436859
vn 0.017364999279379845 0.99979400634765625 -0.010471999645233154
vn 0.017094999551773071 0.99973297119140625 -0.015564000234007835
vn 0.020990999415516853 0.99958199262619019 -0.019895000383257866
vn 0.013445000164210796 0.999688982963562 -0.020999999716877937
vn 0.0022539999336004257 0.99985700845718384 -0.016784999519586563
vn 0.022398000583052635 0.9995189905166626 -0.021469999104738235
f 1/1/1 2/2/2 3/3/3
f 4/4/4 3/3/3 2/2/2
f 4/4/4 5/5/5 3/3/3
f 5/5/5 4/4/4 6/6/6
f 4/4/4 2/2/2 7/7/7
f 8/8/8 7/7/7 2/2/2
f 2/2/2 9/9/9 10/10/10
f 2/2/2 1/1/1 9/9/9
f 11/11/11 12/12/12 13/13/13
f 11/11/11 14/14/14 12/12/12
f 8/8/8 15/15/15 16/16/16
f 8/8/8 2/2/2 15/15/15
f 17/17/17 12/12/12 14/14/14
f 18/18/18 19/19/19 20/20/20
f 21/21/21 10/10/10 9/9/9
f 22/22/22 23/23/23 24/24/24
f 22/22/22 25/25/25 23/23/23
f 22/22/22 26/26/26 25/25/25
f 21/21/21 20/20/20 10/10/10
f 21/21/21 18/18/18 20/20/20
f 15/15/15 20/20/20 27/27/27
f 20/20/20 15/15/15 10/10/10
f 12/12/12 27/27/27 28/28/28
f 27/27/27 12/12/12 15/15/15
f 28/28/28 29/29/29 12/12/12
f 28/28/28 27/27/27 30/30/30
f 17/17/17 15/15/15 12/12/12
f 17/17/17 16/16/16 15/15/15
f 27/27/27 20/20/20 31/31/31
f 32/32/32 23/23/23 33/33/33
f 32/32/32 31/31/31 23/23/23
f 23/23/23 31/31/31 20/20/20
f 31/31/31 34/34/34 35/35/35
f 31/31/31 32/32/32 34/34/34
f 33/33/33 23/23/23 25/25/25
f 30/30/30 35/35/35 36/36/36
f 35/35/35 30/30/30 31/31/31
f 36/36/36 37/37/37 30/30/30
f 38/38/38 36/36/36 35/35/35
f 38/38/38 39/39/39 36/36/36
f 27/27/27 31/31/31 30/30/30
f 40/40/40 35/35/35 34/34/34
f 28/28/28 30/30/30 41/41/41
f 24/24/24 20/20/20 19/19/19
f 24/24/24 23/23/23 20/20/20
f 2/2/2 10/10/10 15/15/15
f 42/42/42 13/13/13 43/43/43
f 42/42/42 44/44/44 13/13/13
f 45/45/45 13/13/13 44/44/44
f 45/45/45 46/46/46 13/13/13
f 43/43/43 13/13/13 47/47/47
f 11/11/11 13/13/13 46/46/46
f 29/29/29 48/48/48 12/12/12
f 49/49/49 29/29/29 50/50/50
f 49/49/49 48/48/48 29/29/29
f 51/51/51 50/50/50 29/29/29
f 47/47/47 48/48/48 49/49/49
f 47/47/47 13/13/13 48/48/48
f 51/51/51 29/29/29 52/52/52
f 41/41/41 53/53/53 28/28/28
f 54/54/54 41/41/41 55/55/55
f 54/54/54 53/53/53 41/41/41
f 53/53/53 52/52/52 29/29/29
f 53/53/53 54/54/54 52/52/52
f 56/56/56 55/55/55 41/41/41
f 56/56/56 41/41/41 57/57/57
f 53/53/53 29/29/29 28/28/28
f 37/37/37 58/58/58 30/30/30
f 59/59/59 37/37/37 60/60/60
f 59/59/59 58/58/58 37/37/37
f 58/58/58 57/57/57 41/41/41
f 58/58/58 59/59/59 57/57/57
f 60/60/60 37/37/37 61/61/61
f 62/62/62 63/63/63 64/64/64
f 63/63/63 61/61/61 37/37/37
f 63/63/63 62/62/62 61/61/61
f 64/64/64 63/63/63 65/65/65
f 65/65/65 63/63/63 66/66/66
f 63/63/63 37/37/37 36/36/36
f 58/58/58 41/41/41 30/30/30
f 48/48/48 13/13/13 12/12/12
f 67/67/67 36/36/36 68/68/68
f 67/67/67 63/63/63 36/36/36
f 69/69/69 63/63/63 67/67/67
f 69/69/69 66/66/66 63/63/63
f 68/68/68 36/36/36 39/39/39
f 38/38/38 35/35/35 40/40/40
