mtllib m21010.mtl
usemtl material0
v -750.40484619140625 10.088056564331055 -128
v -742.38812255859375 10.556878089904785 -120.79102325439453
v -742.77056884765625 10.165190696716309 -128
v -768 8.8178091049194336 -87.433876037597656
v -740.70465087890625 10.314968109130859 -88.880081176757812
v -768 8.8689174652099609 -92.326911926269531
v -768 10.265879631042481 -119.43759155273438
v -710.481201171875 9.8371438980102539 -122.47362518310547
v -768 8.7005128860473633 -83.030570983886719
v -739.02362060546875 9.5546989440917969 -56.967358112335205
v -768 10.166287422180176 -121.44995880126953
v -768 9.842127799987793 -128
v -735.903076171875 9.9737224578857422 -128
v -768 8.0446605682373047 -55.432353973388672
v -737.33160400390625 11.135886192321777 -25.062717437744141
v -768 8.1753358840942383 -52.6320686340332
v -736.00494384765625 11.871781349182129 0
v -759.880859375 10.98112678527832 0
v -768 10.944327354431152 -0.007114410400390625
v -768 10.993430137634277 -23.442752838134766
v -759.880859375 10.98112678527832 0
v -768 10.94431209564209 0
v -729.48553466796875 11.686934471130371 0
v -705.42584204673767 10.179339408874512 -26.744514465332031
v -707.10290503501892 11.781691551208496 -58.660149097442627
v -708.78533887863159 12.236789703369141 -90.57183837890625
v -710.774658203125 9.4911947250366211 -128
v -705.51001000404358 9.2533340454101562 -128
v -678.7857666015625 7.374514102935791 -128
v -678.581787109375 7.5233860015869141 -124.15068054199219
v -649.09246826171875 5.7292218208312988 -128
v -646.68023681640625 5.6858811378479 -125.82939147949219
v -646.794677734375 5.714238166809082 -128
v -644.72723388671875 5.7531619071960449 -128
v -676.88983154296875 9.0954093933105469 -92.246047973632812
v -644.98541259765625 7.8482260704040527 -93.926826477050781
v -640 6.0045318603515625 -126.18318176269531
v -640 7.7426772117614746 -99.46820068359375
v -643.2958984375 8.894078254699707 -62.020359039306641
v -675.2042236328125 9.3155918121337891 -60.336719989776611
v -640 6.003270149230957 -126.28404998779297
v -640 5.981788158416748 -128
v -640 7.92954683303833 -94.190353393554688
v -640 8.7586479187011719 -62.193974018096924
v -641.6185302734375 7.368384838104248 -30.105010986328125
v -640 7.3798828125 -31.903953552246094
v -673.5279541015625 7.5496678352355957 -28.420543670654297
v -640 8.8367929458618164 -65.683784008026123
v -672.03082275390625 6.8811888694763184 0
v -699.09497117996216 9.43134593963623 0
v -704.015625 9.8391637802124023 0
v -640.032958984375 6.608701229095459 0
v -668.7049560546875 6.8582282066345215 0
v -640 7.3210039138793945 -30.190330505371094
v -640 6.6085109710693359 -0.0345611572265625
v -640 6.60769510269165 0
vt 0.13332800567150116 0.033399999141693115
vt 0.19499300420284271 0.0852389931678772
vt 0.19028900563716888 0.031473994255065918
vt 0.0122079998254776 0.34082001447677612
vt 0.21603700518608093 0.32286500930786133
vt 0.010951000265777111 0.30431300401687622
vt 0.0042340001091361046 0.1017720103263855
vt 0.4326460063457489 0.0642390251159668
vt 0.013311999849975109 0.37368398904800415
vt 0.23602700233459473 0.56065499782562256
vt 0.0037189999129623175 0.086740016937255859
vt 0.0020409999415278435 0.037811994552612305
vt 0.24154199659824371 0.029635012149810791
vt 0.020106999203562737 0.57965299487113953
vt 0.25731700658798218 0.79850099980831146
vt 0.020868999883532524 0.60056599974632263
vt 0.27321699261665344 0.98526300024241209
vt 0.094943001866340637 0.99079299997538328
vt 0.035888001322746277 0.99414200009778142
vt 0.029200000688433647 0.81932100653648376
vt 0.094943001866340637 0.99079299997538328
vt 0.035891000181436539 0.99419499980285764
vt 0.32187798619270325 0.98365999944508076
vt 0.498324990272522 0.77782300114631653
vt 0.47435098886489868 0.540147989988327
vt 0.45420598983764648 0.30242198705673218
vt 0.42904499173164368 0.023002028465270996
vt 0.46835899353027344 0.021546006202697754
vt 0.66820299625396729 0.013876020908355713
vt 0.67065000534057617 0.041535019874572754
vt 0.88995802402496338 0.0045109987258911133
vt 0.90845000743865967 0.018934011459350586
vt 0.90645802021026611 0.0028290152549743652
vt 0.92185598611831665 0.0017399787902832031
vt 0.69266998767852783 0.27931100130081177
vt 0.93030297756195068 0.25696998834609985
vt 0.95825099945068359 0.014532029628753662
vt 0.96594798564910889 0.21423500776290894
vt 0.95304399728775024 0.49381202459335327
vt 0.715599000453949 0.51675000786781311
vt 0.95822399854660034 0.013778984546661377
vt 0.95785599946975708 0.0009739995002746582
vt 0.96733897924423218 0.25271999835968018
vt 0.97759199142456055 0.49147599935531616
vt 0.97611099481582642 0.73154699802398682
vt 0.98760002851486206 0.71760600805282593
vt 0.73661798238754272 0.7563910037279129
vt 0.97645801305770874 0.46543598175048828
vt 0.75855100154876709 0.96776999905705452
vt 0.55331301689147949 0.97556300088763237
vt 0.5164790153503418 0.97694100067019463
vt 0.99771398305892944 0.95562700182199478
vt 0.78335297107696533 0.96662899851799011
vt 0.98816001415252686 0.73039299249649048
vt 0.99794799089431763 0.95535900071263313
vt 0.99795997142791748 0.95561600103974342
vn -0.013055999763309956 0.99864202737808228 -0.050425998866558075
vn 0.00072599999839439988 0.9998289942741394 -0.018469000235199928
vn 0.008237999863922596 0.99846899509429932 -0.054687000811100006
vn -0.053766001015901566 0.99837702512741089 0.01878800056874752
vn -0.046705000102519989 0.998878002166748 0.0078070000745356083
vn -0.043604999780654907 0.99884897470474243 0.01999799907207489
vn -0.011218000203371048 0.99993300437927246 0.0027129999361932278
vn 0.031094999983906746 0.99788498878479 -0.057091999799013138
vn -0.052657000720500946 0.99827897548675537 0.025825999677181244
vn -0.060547001659870148 0.99810302257537842 -0.011152000166475773
vn -0.013958999887108803 0.9986799955368042 -0.049424998462200165
vn -0.013958999887108803 0.9986799955368042 -0.049424998462200165
vn 0.02147199958562851 0.99788200855255127 -0.061406001448631287
vn -0.052703000605106354 0.99853098392486572 -0.012586000375449657
vn -0.011115999892354012 0.99953502416610718 -0.028389999642968178
vn -0.042553000152111053 0.99730497598648071 -0.059758998453617096
vn -0.0033629999961704016 0.99956899881362915 -0.029171999543905258
vn -0.037262998521327972 0.99893099069595337 -0.027357999235391617
vn -0.0045340000651776791 0.999987006187439 0.0021200000774115324
vn -0.0070389998145401478 0.99894297122955322 -0.045416001230478287
vn -0.0045340000651776791 0.999987006187439 0.0020949998870491982
vn -0.0045340000651776791 0.999987006187439 0.002145000034943223
vn 0.040077000856399536 0.99899101257324219 -0.020259000360965729
vn 0.061925999820232391 0.99780398607254028 0.023520000278949738
vn 0.017149999737739563 0.999675989151001 0.01882999949157238
vn 0.010424000211060047 0.999521017074585 -0.029126999899744987
vn 0.031683001667261124 0.99743902683258057 -0.064121998846530914
vn 0.0634090006351471 0.99681997299194336 -0.048266001045703888
vn 0.0629120022058487 0.99713897705078125 -0.041898000985383987
vn 0.065402999520301819 0.99658000469207764 -0.050503998994827271
vn 0.0439240001142025 0.99861800670623779 -0.028874000534415245
vn -0.00215000007301569 0.99939101934432983 -0.034825999289751053
vn -0.005727000068873167 0.99989402294158936 0.013364999555051327
vn -0.040445998311042786 0.99916702508926392 -0.0054210000671446323
vn 0.065686002373695374 0.99715399742126465 -0.037014998495578766
vn 0.0049910000525414944 0.99890297651290894 -0.046564001590013504
vn -0.049612000584602356 0.99805200099945068 -0.037836998701095581
vn -0.043326999992132187 0.99737697839736938 -0.057976998388767242
vn 0.024064000695943832 0.99957197904586792 0.0166229996830225
vn 0.048703998327255249 0.99855601787567139 0.022669000551104546
vn -0.048303000628948212 0.99875497817993164 -0.012502999976277351
vn -0.048303000628948212 0.99875402450561523 -0.012502999976277351
vn -0.018077999353408813 0.99927002191543579 -0.033651001751422882
vn 0.042796000838279724 0.99852097034454346 0.033525001257658005
vn 0.021914999932050705 0.9991610050201416 0.034584000706672668
vn 0.040520999580621719 0.9982600212097168 0.042837999761104584
vn 0.047123998403549194 0.99825799465179443 0.035507000982761383
vn -0.0039329999126493931 0.99980801343917847 -0.019173000007867813
vn 0.048909001052379608 0.998583972454071 0.020911000669002533
vn 0.085579000413417816 0.99627000093460083 0.011025000363588333
vn 0.07764899730682373 0.996944010257721 0.0085859997197985649
vn 0.01996999979019165 0.99950802326202393 0.024172000586986542
vn 0.0073819998651742935 0.99969500303268433 0.023582000285387039
vn 0.0307839997112751 0.99910098314285278 0.029143000021576881
vn 0.03049900010228157 0.99925601482391357 0.023610999807715416
vn 0.030503999441862106 0.99925601482391357 0.023615000769495964
f 1/1/1 2/2/2 3/3/3
f 2/2/2 4/4/4 5/5/5
f 2/2/2 6/6/6 4/4/4
f 6/6/6 2/2/2 7/7/7
f 2/2/2 5/5/5 8/8/8
f 5/5/5 9/9/9 10/10/10
f 5/5/5 4/4/4 9/9/9
f 1/1/1 7/7/7 2/2/2
f 1/1/1 11/11/11 7/7/7
f 11/11/11 1/1/1 12/12/12
f 13/13/13 3/3/3 2/2/2
f 14/14/14 10/10/10 9/9/9
f 14/14/14 15/15/15 10/10/10
f 14/14/14 16/16/16 15/15/15
f 17/17/17 15/15/15 18/18/18
f 19/19/19 15/15/15 20/20/20
f 19/19/19 21/21/21 15/15/15
f 19/19/19 22/22/22 21/21/21
f 15/15/15 23/23/23 24/24/24
f 15/15/15 17/17/17 23/23/23
f 16/16/16 20/20/20 15/15/15
f 25/25/25 10/10/10 15/15/15
f 26/26/26 5/5/5 10/10/10
f 8/8/8 13/13/13 2/2/2
f 8/8/8 27/27/27 13/13/13
f 27/27/27 8/8/8 28/28/28
f 29/29/29 8/8/8 30/30/30
f 29/29/29 28/28/28 8/8/8
f 31/31/31 32/32/32 33/33/33
f 33/33/33 32/32/32 34/34/34
f 30/30/30 26/26/26 35/35/35
f 26/26/26 30/30/30 8/8/8
f 32/32/32 35/35/35 36/36/36
f 35/35/35 32/32/32 30/30/30
f 36/36/36 37/37/37 32/32/32
f 36/36/36 38/38/38 37/37/37
f 36/36/36 35/35/35 39/39/39
f 31/31/31 30/30/30 32/32/32
f 31/31/31 29/29/29 30/30/30
f 35/35/35 26/26/26 40/40/40
f 41/41/41 32/32/32 37/37/37
f 41/41/41 34/34/34 32/32/32
f 41/41/41 42/42/42 34/34/34
f 26/26/26 8/8/8 5/5/5
f 38/38/38 36/36/36 43/43/43
f 24/24/24 25/25/25 15/15/15
f 25/25/25 24/24/24 40/40/40
f 39/39/39 35/35/35 40/40/40
f 25/25/25 40/40/40 26/26/26
f 44/44/44 45/45/45 46/46/46
f 44/44/44 39/39/39 45/45/45
f 40/40/40 24/24/24 47/47/47
f 39/39/39 43/43/43 36/36/36
f 39/39/39 48/48/48 43/43/43
f 40/40/40 45/45/45 39/39/39
f 49/49/49 47/47/47 50/50/50
f 51/51/51 47/47/47 24/24/24
f 51/51/51 50/50/50 47/47/47
f 52/52/52 45/45/45 53/53/53
f 49/49/49 45/45/45 47/47/47
f 49/49/49 53/53/53 45/45/45
f 52/52/52 54/54/54 45/45/45
f 52/52/52 55/55/55 54/54/54
f 55/55/55 52/52/52 56/56/56
f 40/40/40 47/47/47 45/45/45
f 48/48/48 39/39/39 44/44/44
f 51/51/51 24/24/24 23/23/23
f 54/54/54 46/46/46 45/45/45
f 25/25/25 26/26/26 10/10/10
