mtllib m21031.mtl
usemtl material0
v -628.2967529296875 8.4295158386230469 -384
v -640 8.5183753967285156 -382.18374633789062
v -628.23358154296875 8.44727611541748 -382.80487060546875
v -640 8.5069007873535156 -382.9417724609375
v -640 8.49088191986084 -384
v -627.1583251953125 8.4442253112792969 -384
v -626.537109375 10.96260929107666 -350.9036865234375
v -640 10.032179832458496 -363.00888061523438
v -595.78863525390625 7.30215311050415 -384
v -562.71875 10.477445602416992 -354.27218627929688
v -564.2979736328125 8.48482608795166 -384
v -532.29010009765625 10.227673530578613 -384
v -531.652099609375 10.192093849182129 -371.91134643554688
v -520.77520751953125 10.62164306640625 -384
v -559.41845703125 8.621586799621582 -384
v -596.3031005859375 7.2955460548400879 -384
v -594.6302490234375 10.223604202270508 -352.58615112304688
v -605.548583984375 7.5961751937866211 -384
v -640 10.510266304016113 -335.94070434570312
v -640 10.708815574645996 -350.19189453125
v -640 10.854934692382813 -318.19329798221588
v -624.84912109375 11.675425529479981 -318.9960629940033
v -640 10.006789207458496 -286.19143676757812
v -623.17449951171875 9.5701217651367188 -287.07852172851562
v -640 11.035324096679688 -302.15731811523438
v -592.94671630859375 10.00528621673584 -320.67526197433472
v -621.5384521484375 8.6260890960693359 -256
v -640 9.591090202331543 -271.82192993164062
v -622.42218017578125 8.6503715515136719 -256
v -640 9.6014366149902344 -272.1795654296875
v -530.81072998046875 9.9897871017456055 -355.95556640625
v -529.97119140625 9.4153413772583 -339.99847412109375
v -514.86297607421875 8.4411802291870117 -356.79263305664062
v -561.04498291015625 8.1956863403320312 -322.35397291183472
v -591.2755126953125 7.1812429428100586 -288.75521850585938
v -559.3687744140625 6.4409608840942383 -290.43771362304688
v -528.29864501953125 6.88294792175293 -308.07940673828125
v -557.6904296875 5.1283087730407715 -258.52301025390625
v -529.135009765625 8.13380241394043 -324.03887891769409
v -513.17791748046875 8.5392627716064453 -324.88287401199341
v -527.45684814453125 6.7809247970581055 -292.12399291992188
v -512.33990478515625 7.6502189636230469 -308.9246826171875
v -526.618408203125 5.9703431129455566 -276.16610717773438
v -514.0224609375 8.0718097686767578 -340.83627319335938
v -589.59832763671875 5.6200599670410156 -256.83963012695312
v -640 9.1232099533081055 -256
v -557.55731201171875 5.1129069328308105 -256
v -588.665283203125 5.600989818572998 -256
v -525.779296875 5.3130030632019043 -260.208740234375
v -512 6.395906925201416 -276.939453125
v -512 6.3355269432067871 -275.52227783203125
v -521.1002197265625 5.4347171783447266 -256
v -525.55859375 5.0095729827880859 -256
v -551.90179443359375 4.9575772285461426 -256
v -605.59051513671875 7.1145110130310059 -256
v -590.3536376953125 5.6796941757202148 -256
v -589.55401611328125 5.624326229095459 -256
v -512 6.4624700546264648 -278.21511840820312
v -515.6988525390625 9.78311538696289 -372.75244140625
v -516.28912353515625 10.492088317871094 -384
v -512 9.8933801651000977 -372.9481201171875
v -512 8.7853164672851562 -359.97415161132812
v -512 8.1607036590576172 -343.08401489257812
v -512 8.49411678314209 -356.9439697265625
v -512 8.0452089309692383 -340.94296264648438
v -512 10.431623458862305 -381.303466796875
v -512 10.605330467224121 -384
v -512 7.3858327865600586 -302.46182250976562
v -512 6.9906501770019531 -292.94091796875
v -512 8.4567298889160156 -324.94479417800903
v -512 7.6450800895690918 -309.30242919921875
v -512 8.4864616394042969 -326.19220018386841
v -512 7.6546111106872559 -308.942626953125
v -512 7.6431078910827637 -308.61883544921875
v -512 5.5695319175720215 -260.937255859375
v -512 5.6029491424560547 -256.63409423828125
v -512 5.6078720092773438 -256
vt 0.033365998417139053 0.91062700003385544
vt 0.050032000988721848 0.99799400009214878
vt 0.042319998145103455 0.90984400361776352
vt 0.044342998415231705 0.99819099996238947
vt 0.0363989993929863 0.99846399994567037
vt 0.033073000609874725 0.90208200365304947
vt 0.2820580005645752 0.88888999819755554
vt 0.19439500570297241 0.99305299995467067
vt 0.024334000423550606 0.66653299331665039
vt 0.23943200707435608 0.410785973072052
vt 0.016233999282121658 0.43047499656677246
vt 0.0084370002150535584 0.18985801935195923
vt 0.099021002650260925 0.18216598033905029
vt 0.0056590000167489052 0.10337799787521362
vt 0.015018000267446041 0.39383697509765625
vt 0.024460000917315483 0.67039400339126587
vt 0.26083201169967651 0.6498199999332428
vt 0.027589000761508942 0.7397649884223938
vt 0.39770200848579407 0.98628799989819527
vt 0.29072600603103638 0.989780000410974
vt 0.53106200695037842 0.981419999152422
vt 0.52113801240921021 0.86774599552154541
vt 0.77150297164916992 0.97315499931573868
vt 0.76066499948501587 0.845660999417305
vt 0.65142297744750977 0.977225000038743
vt 0.49986100196838379 0.62845200300216675
vt 0.99447202682495117 0.827662006020546
vt 0.87940198183059692 0.969615999609232
vt 0.99465101957321167 0.83429799973964691
vt 0.8767160177230835 0.96969100087881088
vt 0.21787500381469727 0.17177301645278931
vt 0.33746200799942017 0.16093897819519043
vt 0.20743399858474731 0.051734983921051025
vt 0.47908800840377808 0.38906002044677734
vt 0.73979002237319946 0.60601300001144409
vt 0.71820700168609619 0.36697602272033691
vt 0.5765799880027771 0.13905602693557739
vt 0.95753902196884155 0.34528100490570068
vt 0.4573729932308197 0.15007400512695313
vt 0.44536501169204712 0.030632972717285156
vt 0.69606000185012817 0.12800097465515137
vt 0.56544899940490723 0.019420027732849121
vt 0.81614702939987183 0.11712998151779175
vt 0.32738900184631348 0.041001021862030029
vt 0.97910201549530029 0.58429199457168579
vt 0.99822700023651123 0.96630299836397171
vt 0.97643601894378662 0.34357398748397827
vt 0.98514199256896973 0.57705399394035339
vt 0.9357600212097168 0.10628700256347656
vt 0.8060309886932373 0.0076159834861755371
vt 0.81668800115585327 0.0072209835052490234
vt 0.965844988822937 0.069827020168304443
vt 0.96736198663711548 0.10342597961425781
vt 0.97485601902008057 0.30111598968505859
vt 0.98948901891708374 0.70463100075721741
vt 0.98559701442718506 0.58976501226425171
vt 0.9853929877281189 0.583748996257782
vt 0.79644399881362915 0.00796198844909668
vt 0.087916001677513123 0.062668025493621826
vt 0.0035000001080334187 0.070185005664825439
vt 0.084875002503395081 0.035001993179321289
vt 0.18258599936962128 0.031183004379272461
vt 0.30995199084281921 0.026439011096954346
vt 0.2059050053358078 0.030191004276275635
vt 0.32446599006652832 0.025988996028900146
vt 0.022043999284505844 0.037406027317047119
vt 0.0017729999963194132 0.038339018821716309
vt 0.61388897895812988 0.014998018741607666
vt 0.68539798259735107 0.012241005897521973
vt 0.44498500227928162 0.021749973297119141
vt 0.5625159740447998 0.016978025436401367
vt 0.43522301316261292 0.022134006023406982
vt 0.56521397829055786 0.016875028610229492
vt 0.56764602661132812 0.016780972480773926
vt 0.92629098892211914 0.0030789971351623535
vt 0.95818299055099487 0.0017390251159667969
vt 0.96294099092483521 0.0015360116958618164
vn -0.0035319998860359192 0.99988597631454468 -0.014671999961137772
vn 0.003501000115647912 0.99884098768234253 -0.048014000058174133
vn 0.011491999961435795 0.99901098012924194 -0.042957000434398651
vn 0.0052430001087486744 0.99987202882766724 -0.015135999768972397
vn 0.0052430001087486744 0.99987202882766724 -0.015135999768972397
vn 0.025297999382019043 0.99947601556777954 0.020208999514579773
vn -0.0014329999685287476 0.99907898902893066 -0.042895000427961349
vn -0.0043870001100003719 0.99741101264953613 -0.071783997118473053
vn -0.01853800006210804 0.99614202976226807 -0.085776999592781067
vn -0.0019650000613182783 0.99998199939727783 -0.0057330001145601273
vn -0.032871000468730927 0.9973369836807251 -0.065104000270366669
vn -0.047065999358892441 0.99887698888778687 0.0054239998571574688
vn -0.005869000218808651 0.99997198581695557 0.0046000001020729542
vn 0.012009000405669212 0.99885499477386475 0.04629800096154213
vn -0.032033998519182205 0.99791300296783447 -0.056067001074552536
vn 0.010534999892115593 0.99557697772979736 -0.093358002603054047
vn 0.010630999691784382 0.99890899658203125 -0.045474998652935028
vn 0.032473001629114151 0.99519699811935425 -0.092348001897335052
vn -0.046473000198602676 0.998852014541626 -0.011618000455200672
vn -0.019811000674962997 0.99963599443435669 -0.018287999555468559
vn -0.054871000349521637 0.99837797880172729 -0.015174999833106995
vn 0.0062210001051425934 0.9998670220375061 0.015069000422954559
vn 0.028341000899672508 0.99853897094726562 0.046011999249458313
vn 0.052416000515222549 0.99735301733016968 0.050402998924255371
vn 0.0096890004351735115 0.99886298179626465 0.046688999980688095
vn 0.0517439991235733 0.99740797281265259 0.0499969981610775
vn 0.062082000076770782 0.99770498275756836 0.027038000524044037
vn 0.027302000671625137 0.99920397996902466 0.029077999293804169
vn 0.027320999652147293 0.99920397996902466 0.029055999591946602
vn 0.027456000447273254 0.99920499324798584 0.028906000778079033
vn 0.048684999346733093 0.9983450174331665 0.030625000596046448
vn 0.049121998250484467 0.99723702669143677 0.055718999356031418
vn 0.038910999894142151 0.997763991355896 0.054349999874830246
vn 0.029915999621152878 0.99723398685455322 0.068039998412132263
vn 0.055206999182701111 0.99664902687072754 0.060359001159667969
vn 0.013731000013649464 0.99891901016235352 0.044404998421669006
vn -0.018463000655174255 0.99893498420715332 0.042282000184059143
vn 0.013108000159263611 0.99950098991394043 0.028753999620676041
vn 0.005392999853938818 0.99785798788070679 0.065187998116016388
vn 0.013508000411093235 0.99965900182724 0.022360000759363174
vn -0.016674000769853592 0.9993550181388855 0.031812999397516251
vn -0.014769000001251698 0.9993249773979187 0.0336339995265007
vn -0.015852000564336777 0.9988129734992981 0.0460520014166832
vn 0.031619001179933548 0.9994170069694519 0.012880999594926834
vn 0.051490999758243561 0.99844902753829956 0.021193999797105789
vn 0.026877999305725098 0.99920201301574707 0.029548000544309616
vn 0.021770000457763672 0.99975097179412842 0.0049540000036358833
vn 0.018151000142097473 0.99983197450637817 0.0025390000082552433
vn -0.021007999777793884 0.998583972454071 0.048868000507354736
vn -0.026556000113487244 0.99851900339126587 0.047485999763011932
vn -0.024259999394416809 0.99869900941848755 0.0448560006916523
vn -0.036745000630617142 0.99925297498703 0.011952999979257584
vn -0.049800999462604523 0.99598300457000732 0.074417002499103546
vn 0.0018820000113919377 0.99799799919128418 0.063217997550964355
vn 0.094319000840187073 0.99522602558135986 0.025071000680327415
vn 0.087182998657226562 0.996163010597229 0.0076759997755289078
vn 0.046957999467849731 0.99886798858642578 -0.0075530000030994415
vn -0.022400999441742897 0.99860799312591553 0.047758001834154129
vn 0.010215000249445438 0.99790102243423462 0.063947997987270355
vn 0.0021569998934865 0.99802398681640625 0.06279599666595459
vn -0.025786999613046646 0.9969019889831543 0.074307002127170563
vn -0.022440999746322632 0.99590897560119629 0.087530001997947693
vn -0.00947600044310093 0.99947398900985718 0.031000999733805656
vn -0.015223000198602676 0.99801498651504517 0.06111299991607666
vn 0.013856999576091766 0.999813973903656 0.013391000218689442
vn -0.026339000090956688 0.9975849986076355 0.0642630010843277
vn -0.026339000090956688 0.9975849986076355 0.0642630010843277
vn -0.011452999897301197 0.99907398223876953 0.04147300124168396
vn -0.011509000323712826 0.99918299913406372 0.038750998675823212
vn 0.071796998381614685 0.99672198295593262 0.037287000566720963
vn 0.052296999841928482 0.99807000160217285 0.033479999750852585
vn 0.025496000424027443 0.99952399730682373 -0.01737000048160553
vn -0.012733999639749527 0.99991297721862793 0.0034719998948276043
vn -0.015161000192165375 0.999081015586853 0.040077999234199524
vn -0.017373999580740929 0.99957597255706787 0.023367999121546745
vn -0.019022999331355095 0.99978899955749512 -0.007763999979943037
vn -0.019022999331355095 0.99978899955749512 -0.007763999979943037
f 1/1/1 2/2/2 3/3/3
f 1/1/1 4/4/4 2/2/2
f 4/4/4 1/1/1 5/5/5
f 1/1/1 3/3/3 6/6/6
f 2/2/2 7/7/7 3/3/3
f 2/2/2 8/8/8 7/7/7
f 9/9/9 10/10/10 11/11/11
f 12/12/12 13/13/13 14/14/14
f 15/15/15 13/13/13 12/12/12
f 16/16/16 3/3/3 17/17/17
f 16/16/16 18/18/18 3/3/3
f 18/18/18 6/6/6 3/3/3
f 15/15/15 10/10/10 13/13/13
f 15/15/15 11/11/11 10/10/10
f 19/19/19 7/7/7 20/20/20
f 20/20/20 7/7/7 8/8/8
f 7/7/7 21/21/21 22/22/22
f 7/7/7 19/19/19 21/21/21
f 22/22/22 23/23/23 24/24/24
f 22/22/22 25/25/25 23/23/23
f 22/22/22 24/24/24 26/26/26
f 27/27/27 28/28/28 29/29/29
f 27/27/27 30/30/30 28/28/28
f 30/30/30 24/24/24 23/23/23
f 30/30/30 27/27/27 24/24/24
f 25/25/25 22/22/22 21/21/21
f 17/17/17 7/7/7 22/22/22
f 26/26/26 17/17/17 22/22/22
f 17/17/17 26/26/26 10/10/10
f 31/31/31 10/10/10 32/32/32
f 10/10/10 31/31/31 13/13/13
f 31/31/31 32/32/32 33/33/33
f 10/10/10 26/26/26 34/34/34
f 9/9/9 17/17/17 10/10/10
f 9/9/9 16/16/16 17/17/17
f 10/10/10 34/34/34 32/32/32
f 34/34/34 35/35/35 36/36/36
f 35/35/35 34/34/34 26/26/26
f 34/34/34 36/36/36 37/37/37
f 36/36/36 35/35/35 38/38/38
f 37/37/37 39/39/39 34/34/34
f 39/39/39 37/37/37 40/40/40
f 37/37/37 41/41/41 42/42/42
f 41/41/41 37/37/37 36/36/36
f 32/32/32 34/34/34 39/39/39
f 41/41/41 36/36/36 43/43/43
f 44/44/44 32/32/32 39/39/39
f 35/35/35 26/26/26 24/24/24
f 3/3/3 7/7/7 17/17/17
f 35/35/35 24/24/24 45/45/45
f 46/46/46 29/29/29 28/28/28
f 45/45/45 47/47/47 38/38/38
f 45/45/45 48/48/48 47/47/47
f 35/35/35 45/45/45 38/38/38
f 49/49/49 43/43/43 38/38/38
f 50/50/50 49/49/49 51/51/51
f 50/50/50 43/43/43 49/49/49
f 52/52/52 49/49/49 53/53/53
f 54/54/54 49/49/49 38/38/38
f 54/54/54 53/53/53 49/49/49
f 24/24/24 55/55/55 45/45/45
f 24/24/24 27/27/27 55/55/55
f 54/54/54 38/38/38 47/47/47
f 56/56/56 57/57/57 45/45/45
f 48/48/48 45/45/45 57/57/57
f 56/56/56 45/45/45 55/55/55
f 38/38/38 43/43/43 36/36/36
f 50/50/50 41/41/41 43/43/43
f 50/50/50 58/58/58 41/41/41
f 59/59/59 13/13/13 31/31/31
f 14/14/14 59/59/59 60/60/60
f 14/14/14 13/13/13 59/59/59
f 32/32/32 44/44/44 33/33/33
f 61/61/61 33/33/33 62/62/62
f 61/61/61 59/59/59 33/33/33
f 63/63/63 33/33/33 44/44/44
f 63/63/63 64/64/64 33/33/33
f 62/62/62 33/33/33 64/64/64
f 63/63/63 44/44/44 65/65/65
f 61/61/61 60/60/60 59/59/59
f 61/61/61 66/66/66 60/60/60
f 66/66/66 67/67/67 60/60/60
f 39/39/39 40/40/40 44/44/44
f 41/41/41 68/68/68 42/42/42
f 41/41/41 69/69/69 68/68/68
f 70/70/70 42/42/42 71/71/71
f 70/70/70 40/40/40 42/42/42
f 70/70/70 72/72/72 40/40/40
f 73/73/73 71/71/71 42/42/42
f 65/65/65 40/40/40 72/72/72
f 65/65/65 44/44/44 40/40/40
f 73/73/73 42/42/42 74/74/74
f 37/37/37 42/42/42 40/40/40
f 51/51/51 49/49/49 75/75/75
f 74/74/74 42/42/42 68/68/68
f 75/75/75 49/49/49 76/76/76
f 76/76/76 52/52/52 77/77/77
f 76/76/76 49/49/49 52/52/52
f 69/69/69 41/41/41 58/58/58
f 31/31/31 33/33/33 59/59/59
