mtllib m2111111220.mtl
usemtl material0
v -32 2.0480470657348633 -28
v -32 2.0458760261535645 -27.820554971694946
v -31.83855402469635 2.0453829765319824 -28
v -32 2.0316181182861328 -27.281288027763367
v -32 2.0174610614776611 -26.764912009239197
v -31.512289047241211 2.0164790153503418 -27.306993007659912
v -30.548978984355927 2.0003759860992432 -28
v -30.515290975570679 1.9757640361785889 -27.359511971473694
v -30.888790011405945 2.0148999691009521 -28
v -31.548773050308228 2.035984992980957 -28
v -29.939057998359203 1.9668569564819336 -28
v -32 1.9979350566864014 -26.281212002038956
v -31.459854006767273 1.9737600088119507 -26.309657990932465
v -30.462902009487152 1.9242559671401978 -26.362145990133286
v -28.9893399477005 1.9113240242004395 -28
v -29.549279987812042 1.9456369876861572 -28
v -29.51835298538208 1.9233299493789673 -27.411991000175476
v -28.549604058265686 1.8868639469146729 -28
v -28.521420955657959 1.8694310188293457 -27.464463949203491
v -28 1.8534300327301025 -27.751881003379822
v -28 1.8466039896011353 -27.491925954818726
v -28.039612054824829 1.8617349863052368 -28
v -28 1.8599460124969482 -28
v -28.468935012817383 1.8374539613723755 -26.467164993286133
v -29.465930998325348 1.8781700134277344 -26.414645999670029
v -28 1.8359839916229248 -26.995085000991821
v -32 2.0307810306549072 -25.28134697675705
v -31.407083988189697 1.9998869895935059 -25.312559008598328
v -32 2.0184240341186523 -25.709210991859436
v -30.410129994153976 1.9508719444274902 -25.365049004554749
v -30.3571780025959 2.0136189460754395 -24.368075966835022
v -32 2.0552380084991455 -24.896607995033264
v -31.354143023490906 2.0606820583343506 -24.315580010414124
v -32 2.0918030738830566 -24.281571984291077
v -31.638025045394897 2.0866520404815674 -24
v -32 2.0978550910949707 -24.133548974990845
v -32 2.1033151149749756 -24
v -30.688279986381531 2.0456230640411377 -24
v -31.337411999702454 2.0746700763702393 -24
v -30.337646007537842 2.0335400104522705 -24
v -29.413129985332489 1.9106450080871582 -25.417569994926453
v -29.360189020633698 1.971439003944397 -24.420588970184326
v -28 1.8411320447921753 -25.932668998837471
v -28.4161239862442 1.8718819618225098 -25.470094978809357
v -28 1.82082998752594 -26.491876989603043
v -28 1.856315016746521 -25.492020010948181
v -28.363175988197327 1.9341410398483276 -24.473119974136353
v -29.337855994701385 1.9970860481262207 -24
v -29.738526999950409 2.0099658966064453 -24
v -28.788764953613281 1.9783610105514526 -24
v -28 1.9201990365982056 -24.492254018783569
v -28 1.9425100088119507 -24.145315051078796
v -28.338049054145813 1.9636869430541992 -24
v -28 1.951854944229126 -24
v -28 1.8958419561386108 -24.876860022544861
vt 0 0
vt 0.044861000031232834 0
vt 0 0.040360987186431885
vt 0.17967799305915833 0
vt 0.30877199769020081 0
vt 0.17325200140476227 0.12192797660827637
vt 0 0.36275500059127808
vt 0.16012200713157654 0.37117701768875122
vt 0 0.2778019905090332
vt 0 0.11280697584152222
vt 0 0.51523500680923462
vt 0.42969700694084167 0
vt 0.42258501052856445 0.13503599166870117
vt 0.40946298837661743 0.38427400588989258
vt 0 0.75266499817371368
vt 0 0.61267998814582825
vt 0.14700199663639069 0.62041199207305908
vt 0 0.86259900033473969
vt 0.133883997797966 0.86964499950408936
vt 0.062029998749494553 1
vt 0.127018004655838 1
vt 0 0.99009700026363134
vt 0 1
vt 0.3832089900970459 0.8827660009264946
vt 0.39633798599243164 0.63351699709892273
vt 0.25122898817062378 1
vt 0.67966300249099731 0
vt 0.6718599796295166 0.14822900295257568
vt 0.5726969838142395 0
vt 0.65873801708221436 0.3974679708480835
vt 0.90798097848892212 0.41070598363876343
vt 0.77584797143936157 0
vt 0.9211050271987915 0.16146397590637207
vt 0.92960697412490845 0
vt 1 0.090493977069854736
vt 0.96661299467086792 0
vt 1 0
vt 1 0.32792997360229492
vt 1 0.16564697027206421
vt 1 0.41558802127838135
vt 0.64560699462890625 0.64671799540519714
vt 0.89485299587249756 0.65995299816131592
vt 0.51683300733566284 1
vt 0.63247597217559814 0.89596900343894958
vt 0.37703099846839905 1
vt 0.6269950270652771 1
vt 0.88172000646591187 0.90920600295066834
vt 1 0.66553598642349243
vt 1 0.56536799669265747
vt 1 0.80280900001525879
vt 0.87693601846694946 1
vt 0.96367102861404419 1
vt 1 0.91548799723386765
vt 1 1
vt 0.78078502416610718 1
vn 0.016497999429702759 0.99979102611541748 0.012095999903976917
vn 0.028441999107599258 0.99933397769927979 0.022843999788165092
vn 0.031711999326944351 0.99916398525238037 0.025791000574827194
vn 0.032425999641418457 0.999114990234375 0.026774000376462936
vn 0.039395999163389206 0.9986569881439209 0.033635001629590988
vn 0.042621001601219177 0.99837499856948853 0.037817999720573425
vn 0.046429999172687531 0.9982759952545166 0.035918001085519791
vn 0.04926300048828125 0.99786698818206787 0.042844001203775406
vn 0.035578001290559769 0.998924970626831 0.029734000563621521
vn 0.032067999243736267 0.99913597106933594 0.026434000581502914
vn 0.054490000009536743 0.99789601564407349 0.035146001726388931
vn 0.045683998614549637 0.99878197908401489 0.018651999533176422
vn 0.048987999558448792 0.99879902601242065 -0.00046899999142624438
vn 0.047357998788356781 0.99884098768234253 0.0085829999297857285
vn 0.058660000562667847 0.99775201082229614 0.032402001321315765
vn 0.058338001370429993 0.99769097566604614 0.034781001508235931
vn 0.053004000335931778 0.99794602394104 0.03598099946975708
vn 0.053895998746156693 0.99810600280761719 0.029653999954462051
vn 0.049676999449729919 0.99835997819900513 0.028442999348044395
vn 0.045101001858711243 0.99863797426223755 0.026224000379443169
vn 0.044934999197721481 0.99872499704360962 0.023022999987006187
vn 0.047738000750541687 0.998449981212616 0.028601000085473061
vn 0.045101001858711243 0.99863797426223755 0.026226000860333443
vn 0.041427001357078552 0.99914097785949707 -0.00044299999717622995
vn 0.044783998280763626 0.99897897243499756 0.006029999814927578
vn 0.03905000165104866 0.99885100126266479 0.027797000482678413
vn 0.050092998892068863 0.99808400869369507 -0.03633200004696846
vn 0.047074999660253525 0.99777400493621826 -0.04723300039768219
vn 0.046096999198198318 0.99839800596237183 -0.032797999680042267
vn 0.0426190011203289 0.99809801578521729 -0.044544000178575516
vn 0.041072998195886612 0.99725502729415894 -0.061608999967575073
vn 0.047425001859664917 0.99694502353668213 -0.062058001756668091
vn 0.0451509989798069 0.997331976890564 -0.057353999465703964
vn 0.0453220009803772 0.9976080060005188 -0.052193999290466309
vn 0.044450998306274414 0.998121976852417 -0.042151998728513718
vn 0.04594700038433075 0.99810999631881714 -0.040807999670505524
vn 0.04594700038433075 0.99810999631881714 -0.040807001292705536
vn 0.042716000229120255 0.99791699647903442 -0.048344001173973083
vn 0.043113000690937042 0.99798697233200073 -0.046521000564098358
vn 0.037457998842000961 0.99772900342941284 -0.055987000465393066
vn 0.03706900030374527 0.99798798561096191 -0.051438998430967331
vn 0.036054998636245728 0.99743098020553589 -0.061893001198768616
vn 0.033922001719474792 0.9987800121307373 -0.035877998918294907
vn 0.03532699868083 0.99811297655105591 -0.050232000648975372
vn 0.035172998905181885 0.99936997890472412 -0.00484299985691905
vn 0.034611999988555908 0.998062014579773 -0.051718000322580338
vn 0.034419998526573181 0.99738997220993042 -0.0634630024433136
vn 0.033192999660968781 0.99748700857162476 -0.062587998807430267
vn 0.0377190001308918 0.997635006904602 -0.057457000017166138
vn 0.033647000789642334 0.99744898080825806 -0.062959998846054077
vn 0.034935999661684036 0.99736201763153076 -0.0636259987950325
vn 0.03490699827671051 0.99733000993728638 -0.064135998487472534
vn 0.033688999712467194 0.997376024723053 -0.064074002206325531
vn 0.03490699827671051 0.99733000993728638 -0.064135998487472534
vn 0.034118998795747757 0.99737197160720825 -0.0639209970831871
f 1/1/1 2/2/2 3/3/3
f 4/4/4 5/5/5 6/6/6
f 7/7/7 6/6/6 8/8/8
f 7/7/7 9/9/9 6/6/6
f 3/3/3 6/6/6 10/10/10
f 3/3/3 4/4/4 6/6/6
f 3/3/3 2/2/2 4/4/4
f 7/7/7 8/8/8 11/11/11
f 6/6/6 12/12/12 13/13/13
f 6/6/6 5/5/5 12/12/12
f 9/9/9 10/10/10 6/6/6
f 14/14/14 8/8/8 6/6/6
f 15/15/15 16/16/16 17/17/17
f 18/18/18 17/17/17 19/19/19
f 18/18/18 15/15/15 17/17/17
f 17/17/17 11/11/11 8/8/8
f 17/17/17 16/16/16 11/11/11
f 20/20/20 19/19/19 21/21/21
f 20/20/20 22/22/22 19/19/19
f 20/20/20 23/23/23 22/22/22
f 18/18/18 19/19/19 22/22/22
f 17/17/17 24/24/24 19/19/19
f 8/8/8 25/25/25 17/17/17
f 21/21/21 19/19/19 26/26/26
f 13/13/13 27/27/27 28/28/28
f 13/13/13 29/29/29 27/27/27
f 29/29/29 13/13/13 12/12/12
f 14/14/14 28/28/28 30/30/30
f 28/28/28 14/14/14 13/13/13
f 14/14/14 30/30/30 25/25/25
f 30/30/30 28/28/28 31/31/31
f 6/6/6 13/13/13 14/14/14
f 28/28/28 32/32/32 33/33/33
f 28/28/28 27/27/27 32/32/32
f 34/34/34 35/35/35 33/33/33
f 34/34/34 36/36/36 35/35/35
f 36/36/36 37/37/37 35/35/35
f 38/38/38 33/33/33 39/39/39
f 38/38/38 31/31/31 33/33/33
f 33/33/33 31/31/31 28/28/28
f 40/40/40 31/31/31 38/38/38
f 39/39/39 33/33/33 35/35/35
f 32/32/32 34/34/34 33/33/33
f 41/41/41 30/30/30 31/31/31
f 31/31/31 42/42/42 41/41/41
f 25/25/25 41/41/41 24/24/24
f 43/43/43 24/24/24 44/44/44
f 43/43/43 45/45/45 24/24/24
f 24/24/24 26/26/26 19/19/19
f 24/24/24 45/45/45 26/26/26
f 43/43/43 44/44/44 46/46/46
f 44/44/44 24/24/24 41/41/41
f 17/17/17 25/25/25 24/24/24
f 44/44/44 41/41/41 47/47/47
f 48/48/48 42/42/42 49/49/49
f 31/31/31 49/49/49 42/42/42
f 31/31/31 40/40/40 49/49/49
f 42/42/42 50/50/50 47/47/47
f 42/42/42 48/48/48 50/50/50
f 51/51/51 47/47/47 52/52/52
f 52/52/52 53/53/53 54/54/54
f 52/52/52 47/47/47 53/53/53
f 42/42/42 47/47/47 41/41/41
f 55/55/55 47/47/47 51/51/51
f 53/53/53 47/47/47 50/50/50
f 55/55/55 44/44/44 47/47/47
f 55/55/55 46/46/46 44/44/44
f 30/30/30 41/41/41 25/25/25
f 8/8/8 14/14/14 25/25/25
