mtllib m211320.mtl
usemtl material0
v -256 8.3184318542480469 -448
v -256 8.2584724426269531 -441.81845092773438
v -250.43836975097656 8.2998876571655273 -448
v -256 7.8988971710205078 -408.03662109375
v -246.15357971191406 8.153935432434082 -418.98022508621216
v -256 8.1494827270507812 -418.46023607254028
v -256 8.1833000183105469 -391.14483642578125
v -245.31251525878906 7.901486873626709 -403.02426147460938
v -256 7.8083500862121582 -402.45956420898438
v -256 8.72762393951416 -434.46170043945312
v -256 8.6542654037475586 -424.92648315429688
v -246.98982238769531 9.4028720855712891 -434.93972778320312
v -256 8.1211862564086914 -386.4610595703125
v -247.23194885253906 7.693030834197998 -384
v -244.47142028808594 7.6553120613098145 -387.06832885742188
v -256 8.0964279174804688 -385.48092651367188
v -256 8.0590190887451172 -384
v -247.68374633789063 8.5156459808349609 -448
v -235.24166870117188 8.0422611236572266 -448
v -230.20184278488159 7.4467329978942871 -419.82025098800659
v -229.36392211914063 6.5473241806030273 -403.86200046539307
v -231.03974914550781 8.34948444366455 -435.77853393554688
v -231.6876220703125 7.8163251876831055 -448
v -220.04586791992188 7.2418680191040039 -448
v -215.09349060058594 6.5147857666015625 -436.61453247070312
v -228.52426099777222 6.0042791366577148 -387.90499877929688
v -232.03695678710938 6.4019432067871094 -384
v -244.30938720703125 7.6666431427001953 -384
v -228.31825304031372 5.9769930839538574 -384
v -212.57414245605469 4.9654641151428223 -388.74386596679688
v -216.841796875 5.2274060249328613 -384
v -213.41258239746094 5.7585048675537109 -404.70175170898438
v -214.25477600097656 5.78000020980835 -420.65685987472534
v -215.69342041015625 6.7380127906799316 -448
v -204.85009765625 6.4284138679504395 -448
v -198.30238342285156 5.2093629837036133 -421.49740600585938
v -197.46328735351563 4.55457878112793 -405.54000854492188
v -199.14134216308594 5.8943448066711426 -437.45489501953125
v -192 7.4466938972473145 -448
v -192 7.3441472053527832 -445.38967895507812
v -199.69639587402344 6.220156192779541 -448
v -192 5.2413439750671387 -411.61105298995972
v -192 5.7014141082763672 -421.83184814453125
v -196.62071228027344 4.6145501136779785 -389.58517456054688
v -201.64564514160156 4.6607170104980469 -384
v -212.32403564453125 4.902411937713623 -384
v -196.32716369628906 4.3549041748046875 -384
v -192 4.8058581352233887 -389.829833984375
v -192 4.609138011932373 -385.77621459960938
v -192 4.5229401588439941 -384
v -192 5.0073461532592773 -405.83001708984375
v -192 5.0005021095275879 -394.72027587890625
v -192 6.1514449119567871 -428.50064086914062
v -192 6.5992879867553711 -437.8343505859375
vt 0.99556899070739746 0.00415802001953125
vt 0.90001100301742554 0.0041610002517700195
vt 0.99556899070739746 0.090129971504211426
vt 0.37723100185394287 0.0027199983596801758
vt 0.54563897848129272 0.1558150053024292
vt 0.5384029746055603 0.00356900691986084
vt 0.1160150021314621 0.0014340281486511231
vt 0.29896700382232666 0.16891801357269287
vt 0.29101100564002991 0.0022690296173095703
vt 0.78605997562408447 0.0044779777526855469
vt 0.63866102695465088 0.0040850043296813965
vt 0.79315799474716187 0.14416199922561646
vt 0.043609000742435455 0.00085198879241943359
vt 0.0049180001951754093 0.13636702299118042
vt 0.052285999059677124 0.18181300163269043
vt 0.028454000130295753 0.000796973705291748
vt 0.0055539999157190323 0.0007140040397644043
vt 0.99547600746154785 0.13284099102020264
vt 0.9965440034866333 0.32530701160430908
vt 0.55856502056121826 0.40264201164245605
vt 0.31153300404548645 0.41635799407958984
vt 0.80787599086761475 0.39115697145462036
vt 0.99693101644515991 0.38035500049591064
vt 0.99808001518249512 0.56052801012992859
vt 0.81553500890731812 0.63952100276947021
vt 0.064745001494884491 0.42966598272323608
vt 0.0044840001501142979 0.37490701675415039
vt 0.0048489999026060104 0.18419599533081055
vt 0.0043759997934103012 0.43276500701904297
vt 0.076787002384662628 0.67679101228713989
vt 0.0037299999967217445 0.61054399609565735
vt 0.32304099202156067 0.66330701112747192
vt 0.56850999593734741 0.65063101053237915
vt 0.99159801006317139 0.63089698553085327
vt 0.99088901281356812 0.79857900738716125
vt 0.579239010810852 0.897488996386528
vt 0.33394598960876465 0.91065099835395813
vt 0.82622802257537842 0.88640499860048294
vt 0.98929399251937866 0.9992859999765642
vt 0.94891399145126343 0.99901399994269013
vt 0.989359974861145 0.87881399691104889
vt 0.42583099007606506 0.993987999856472
vt 0.583977997303009 0.99522900022566319
vt 0.088513001799583435 0.92352200299501419
vt 0.002575000049546361 0.8454039990901947
vt 0.0035149999894201756 0.68055900931358337
vt 0.0020689999219030142 0.92775099724531174
vt 0.092088997364044189 0.99502100003883243
vt 0.029408000409603119 0.99480299977585673
vt 0.0019199999514967203 0.9946900000795722
vt 0.33835598826408386 0.99539599986746907
vt 0.16774499416351318 0.9953600000590086
vt 0.68729400634765625 0.99621300003491342
vt 0.83173501491546631 0.99735100008547306
vn 0.0033340000081807375 0.99994701147079468 0.0096990000456571579
vn -0.059025000780820847 0.99717599153518677 -0.046424999833106995
vn -0.056299000978469849 0.99744498729705811 -0.043970998376607895
vn -0.00583299994468689 0.99981999397277832 0.018052000552415848
vn 0.025900000706315041 0.99869900941848755 0.043919000774621964
vn 0.0021909999195486307 0.998744010925293 0.050046000629663467
vn 0.029064999893307686 0.99957501888275146 0.0024359999224543571
vn 0.0397149994969368 0.99913400411605835 0.012431999668478966
vn -0.0092040002346038818 0.99991500377655029 -0.0092730000615119934
vn -0.076117999851703644 0.99673998355865479 -0.02675900049507618
vn -0.014557000249624252 0.99800002574920654 0.06151299923658371
vn 0.0017600000137463212 0.99999797344207764 -0.0012029999634250999
vn 0.041391998529434204 0.99895399808883667 0.019438000395894051
vn 0.032983001321554184 0.999305009841919 0.017389999702572823
vn 0.065982997417449951 0.99778401851654053 0.0085819996893405914
vn 0.041691999882459641 0.99881201982498169 0.025229999795556068
vn 0.041691999882459641 0.99881201982498169 0.025229999795556068
vn -0.022033000364899635 0.99753701686859131 -0.066595003008842468
vn 0.056598998606204987 0.99699199199676514 -0.052953999489545822
vn 0.082797996699810028 0.995527982711792 0.045490998774766922
vn 0.07778400182723999 0.99646502733230591 0.031752001494169235
vn 0.080209001898765564 0.99669700860977173 0.012714000418782234
vn 0.056531000882387161 0.99731701612472534 -0.046505000442266464
vn 0.097549997270107269 0.99522799253463745 -0.0024449999909847975
vn 0.075557000935077667 0.99664497375488281 0.031465999782085419
vn 0.084219999611377716 0.99630898237228394 0.0166229996830225
vn 0.10543899983167648 0.99440497159957886 -0.0064179999753832817
vn 0.0573900006711483 0.99832898378372192 -0.0067170001566410065
vn 0.088564001023769379 0.996068000793457 0.0022879999596625566
vn 0.052048999816179276 0.99841898679733276 0.02121799997985363
vn 0.066927999258041382 0.99774497747421265 0.0051170000806450844
vn 0.0606359988451004 0.9978410005569458 0.025240000337362289
vn 0.064782001078128815 0.99754399061203 0.02665100060403347
vn 0.073311001062393188 0.997186005115509 0.015688000246882439
vn 0.037204999476671219 0.99897199869155884 0.025894999504089355
vn -0.016506999731063843 0.99904698133468628 0.04039900004863739
vn -0.0084199998527765274 0.99964898824691772 0.025131000205874443
vn -0.03535199910402298 0.9982759952545166 0.046858001500368118
vn -0.15726099908351898 0.98679602146148682 0.038766998797655106
vn -0.14233499765396118 0.98842501640319824 0.052498001605272293
vn -0.055560000240802765 0.99788498878479 0.033755999058485031
vn -0.076560996472835541 0.99610298871994019 0.04378499835729599
vn -0.074738003313541412 0.99560701847076416 0.056400999426841736
vn -0.00950899999588728 0.999692976474762 0.022888999432325363
vn 0.031906001269817352 0.99928200244903564 0.020446000620722771
vn 0.046369001269340515 0.99886602163314819 0.010831000283360481
vn 0.0076870000921189785 0.99891000986099243 0.046034000813961029
vn -0.039004001766443253 0.99827301502227783 0.043935999274253845
vn -0.038757998496294022 0.9980739951133728 0.0484360009431839
vn -0.038757998496294022 0.9980739951133728 0.0484360009431839
vn -0.0814569965004921 0.9964519739151001 0.021155999973416328
vn -0.072477996349334717 0.99732202291488647 0.0097399996593594551
vn -0.090617001056671143 0.99451500177383423 0.052234001457691193
vn -0.09409099817276001 0.99283397197723389 0.073671996593475342
f 1/1/1 2/2/2 3/3/3
f 4/4/4 5/5/5 6/6/6
f 7/7/7 8/8/8 9/9/9
f 10/10/10 11/11/11 12/12/12
f 13/13/13 14/14/14 15/15/15
f 13/13/13 16/16/16 14/14/14
f 16/16/16 17/17/17 14/14/14
f 10/10/10 3/3/3 2/2/2
f 10/10/10 12/12/12 3/3/3
f 12/12/12 18/18/18 3/3/3
f 18/18/18 12/12/12 19/19/19
f 9/9/9 5/5/5 4/4/4
f 9/9/9 8/8/8 5/5/5
f 5/5/5 8/8/8 20/20/20
f 8/8/8 15/15/15 21/21/21
f 13/13/13 8/8/8 7/7/7
f 13/13/13 15/15/15 8/8/8
f 22/22/22 12/12/12 5/5/5
f 6/6/6 12/12/12 11/11/11
f 6/6/6 5/5/5 12/12/12
f 5/5/5 20/20/20 22/22/22
f 23/23/23 22/22/22 24/24/24
f 20/20/20 25/25/25 22/22/22
f 8/8/8 21/21/21 20/20/20
f 19/19/19 22/22/22 23/23/23
f 19/19/19 12/12/12 22/22/22
f 21/21/21 15/15/15 26/26/26
f 15/15/15 27/27/27 26/26/26
f 15/15/15 28/28/28 27/27/27
f 29/29/29 26/26/26 27/27/27
f 29/29/29 30/30/30 26/26/26
f 29/29/29 31/31/31 30/30/30
f 21/21/21 26/26/26 32/32/32
f 20/20/20 21/21/21 33/33/33
f 28/28/28 15/15/15 14/14/14
f 25/25/25 24/24/24 22/22/22
f 25/25/25 34/34/34 24/24/24
f 34/34/34 25/25/25 35/35/35
f 32/32/32 33/33/33 21/21/21
f 33/33/33 32/32/32 36/36/36
f 32/32/32 30/30/30 37/37/37
f 30/30/30 32/32/32 26/26/26
f 38/38/38 25/25/25 33/33/33
f 33/33/33 25/25/25 20/20/20
f 33/33/33 36/36/36 38/38/38
f 39/39/39 38/38/38 40/40/40
f 39/39/39 41/41/41 38/38/38
f 42/42/42 36/36/36 37/37/37
f 42/42/42 43/43/43 36/36/36
f 32/32/32 37/37/37 36/36/36
f 35/35/35 38/38/38 41/41/41
f 35/35/35 25/25/25 38/38/38
f 37/37/37 30/30/30 44/44/44
f 30/30/30 45/45/45 44/44/44
f 30/30/30 46/46/46 45/45/45
f 47/47/47 44/44/44 45/45/45
f 47/47/47 48/48/48 44/44/44
f 47/47/47 49/49/49 48/48/48
f 49/49/49 47/47/47 50/50/50
f 44/44/44 51/51/51 37/37/37
f 44/44/44 52/52/52 51/51/51
f 46/46/46 30/30/30 31/31/31
f 53/53/53 38/38/38 36/36/36
f 53/53/53 54/54/54 38/38/38
f 54/54/54 40/40/40 38/38/38
f 43/43/43 53/53/53 36/36/36
f 48/48/48 52/52/52 44/44/44
f 51/51/51 42/42/42 37/37/37
