mtllib m211331.mtl
usemtl material0
v -64 4.6767830848693848 -435.642578125
v -55.5460090637207 5.6755490303039551 -445.037109375
v -64 5.1748390197753906 -444.58901977539062
v -64 4.3298511505126953 -428.58670043945312
v -64 3.5830209255218506 -418.75338697433472
v -54.707305908203125 4.944180965423584 -429.0794677734375
v -64 3.0279009342193604 -412.58288598060608
v -64 3.1706240177154541 -401.86294555664062
v -53.871864318847656 3.5472240447998047 -413.11941504478455
v -64 3.0212569236755371 -384.97201538085938
v -53.0280876159668 3.8523080348968506 -397.16546630859375
v -64 3.2561600208282471 -396.5841064453125
v -64 5.1898369789123535 -447.0357666015625
v -55.702377319335938 5.6845002174377441 -448
v -64 5.195746898651123 -448
v -52.879947662353516 5.8790550231933594 -448
v -39.586090087890625 6.6466121673583984 -445.88314819335938
v -37.911551952362061 4.6008048057556152 -413.9657289981842
v -49.677391052246094 3.0451500415802 -384
v -52.33734130859375 3.0123119354248047 -384
v -37.071709156036377 4.1036567687988281 -398.0089111328125
v -64 2.9590070247650146 -384
v -38.748703002929688 5.6481599807739258 -429.92453002929688
v -23.630355834960938 6.7626352310180664 -446.72610473632812
v -22.790061950683594 6.3574328422546387 -430.76959228515625
v -39.6977162361145 6.6708860397338867 -448
v -37.681488037109375 6.6803507804870605 -448
v -36.337279796600342 3.098006010055542 -384
v -21.115066528320312 4.4071760177612305 -398.85256958007812
v -34.480155944824219 3.1262049674987793 -384
v -21.951330184936523 5.6338028907775879 -414.8119809627533
v -22.484321594238281 6.7110152244567871 -448
v -23.697544097900391 6.7747468948364258 -448
v -6.8379344940185547 5.73901891708374 -431.60995483398438
v -5.9937915802001953 6.1179080009460449 -415.65625
v -20.334978103637695 3.62355899810791 -384
v -7.6804618835449219 5.6891508102416992 -447.56484985351562
v -5.1573371887207031 4.9313201904296875 -399.69696044921875
v -19.282154083251953 3.6551129817962646 -384
v -7.7033805847167969 5.699866771697998 -448
v 0 6.1746730804443359 -447.9720458984375
v 0 6.1744298934936523 -446.82611083984375
v 0 6.1728148460388184 -439.2093505859375
v 0 6.7238879203796387 -415.97476200014353
v 0 5.88612699508667 -405.42742919921875
v -4.32951545715332 4.7673587799072266 -384
v 0 5.3691611289978027 -399.97076416015625
v 0 5.2019319534301758 -388.73300170898438
v -4.0831089019775391 4.7880840301513672 -384
v 0 5.1990227699279785 -388.53750610351562
v 0 6.6435451507568359 -431.97406005859375
v 0 6.80484676361084 -422.31689500808716
v 0 6.1752362251281738 -448
v -7.2888870239257812 5.7222461700439453 -448
v 0 5.0645041465759277 -384
vt 0.78120702505111694 0.0071359872817993164
vt 0.92753100395202637 0.13042598962783814
vt 0.916375994682312 0.0029180049896240234
vt 0.6746399998664856 0.010504007339477539
vt 0.52586901187896729 0.014955997467041016
vt 0.68695801496505737 0.15071702003479004
vt 0.43240299820899963 0.017683029174804688
vt 0.27069100737571716 0.0232200026512146
vt 0.44564199447631836 0.17054498195648193
vt 0.015854999423027039 0.03159797191619873
vt 0.20543499290943146 0.19204401969909668
vt 0.19105499982833862 0.025919020175933838
vt 0.95328301191329956 0.0016610026359558106
vt 0.97214299440383911 0.12654101848602295
vt 0.96782702207565308 0.0011649727821350098
vt 0.973613977432251 0.16921502351760864
vt 0.94861799478530884 0.37116402387619019
vt 0.46692401170730591 0.41135102510452271
vt 0.0081940004602074623 0.24935102462768555
vt 0.0067989998497068882 0.20922702550888062
vt 0.2265550047159195 0.43230700492858887
vt 0.0011609999928623438 0.032027006149291992
vt 0.70779502391815186 0.39124500751495361
vt 0.96885198354721069 0.61147001385688782
vt 0.72847199440002441 0.63179099559783936
vt 0.98049402236938477 0.36840301752090454
vt 0.98152202367782593 0.39881598949432373
vt 0.015077999792993069 0.45057201385498047
vt 0.24721899628639221 0.67262798547744751
vt 0.016023999080061913 0.47858798503875732
vt 0.48802199959754944 0.65215200185775757
vt 0.98859602212905884 0.62819099426269531
vt 0.98803901672363281 0.60986301302909851
vt 0.74846798181533813 0.8722350001335144
vt 0.50818198919296265 0.892596997320652
vt 0.023212999105453491 0.69131800532341
vt 0.98877602815628052 0.85224899649620056
vt 0.2677919864654541 0.91306000202894211
vt 0.023729000240564346 0.70720699429512024
vt 0.99533098936080933 0.85169500112533569
vt 0.99841797351837158 0.96816100180149078
vt 0.98113000392913818 0.96868199855089188
vt 0.866225004196167 0.97214299999177456
vt 0.51563197374343872 0.9833419993519783
vt 0.35747399926185608 0.98858300037682056
vt 0.0314130000770092 0.93337500095367432
vt 0.27478399872779846 0.99097399972379208
vt 0.10506799817085266 0.99654500000178814
vt 0.031541001051664352 0.9371040016412735
vt 0.10211800038814545 0.99664300004951656
vt 0.75702297687530518 0.97612899914383888
vt 0.61132198572158813 0.98068000003695488
vt 0.99883902072906494 0.96814899891614914
vt 0.99553900957107544 0.85795700550079346
vt 0.033640999346971512 0.99883499997667968
vn -0.061622999608516693 0.99681997299194336 0.050521999597549438
vn -0.060251001268625259 0.9977489709854126 0.029441000893712044
vn -0.0574209988117218 0.99784702062606812 0.031676001846790314
vn -0.062519997358322144 0.99606698751449585 0.06278499960899353
vn -0.049878999590873718 0.9950219988822937 0.086274996399879456
vn -0.051467001438140869 0.99626398086547852 0.069346003234386444
vn -0.049253001809120178 0.99812400341033936 0.036361001431941986
vn -0.054354999214410782 0.9984009861946106 -0.015503999777138233
vn -0.054342001676559448 0.99792397022247314 0.034570999443531036
vn -0.01590299978852272 0.99842798709869385 0.053739000111818314
vn -0.034200001507997513 0.99911201000213623 0.024605000391602516
vn -0.054115001112222672 0.99853098392486572 0.0026229999493807554
vn -0.058800000697374344 0.99825102090835571 0.0061189997941255569
vn -0.0636179968714714 0.99795401096343994 0.006372000090777874
vn -0.058800000697374344 0.99825102090835571 0.0061189997941255569
vn -0.062302000820636749 0.99797898530960083 0.01248599961400032
vn -0.02974499948322773 0.99890297651290894 0.036178998649120331
vn -0.0541750006377697 0.99763399362564087 0.042323000729084015
vn -0.010084999725222588 0.99774801731109619 0.066315002739429474
vn -0.0085680000483989716 0.99790501594543457 0.064119003713130951
vn -0.019040999934077263 0.99818897247314453 0.057071000337600708
vn -0.0045610000379383564 0.99794501066207886 0.063910998404026031
vn -0.038851998746395111 0.99719101190567017 0.064042001962661743
vn 0.024624999612569809 0.99944001436233521 0.022669000551104546
vn 3.1999999919207767E-05 0.99941200017929077 0.034292001277208328
vn -0.033256001770496368 0.99936002492904663 0.013213000260293484
vn -0.006200999952852726 0.99992698431015015 0.010356999933719635
vn -0.0097310002893209457 0.99734902381896973 0.072105996310710907
vn -0.024327000603079796 0.9973909854888916 0.0679669976234436
vn -0.020462000742554665 0.997501015663147 0.06761699914932251
vn -0.030565999448299408 0.99836701154708862 0.048264000564813614
vn 0.0640299990773201 0.99779999256134033 0.01717199943959713
vn 0.021866999566555023 0.99972599744796753 0.0083520002663135529
vn -0.046973001211881638 0.99883699417114258 -0.010843000374734402
vn -0.067974001169204712 0.99714201688766479 0.032974999397993088
vn -0.032416999340057373 0.99799501895904541 0.054356999695301056
vn 0.00014600000577047467 0.99991101026535034 0.013326000422239304
vn -0.063091002404689789 0.99661099910736084 0.052788000553846359
vn -0.04171299934387207 0.99817699193954468 0.043618999421596527
vn 0.0092339999973773956 0.99966597557067871 0.024129999801516533
vn -0.062532000243663788 0.99798798561096191 0.010495999827980995
vn -0.063078999519348145 0.99800902605056763 0.00021100000594742596
vn -0.079874001443386078 0.9966920018196106 -0.014976000413298607
vn -0.098144002258777618 0.99417400360107422 0.044571001082658768
vn -0.092217996716499329 0.9923279881477356 0.082345999777317047
vn -0.079145997762680054 0.99675601720809937 0.014585000462830067
vn -0.081513002514839172 0.99510300159454346 0.055911000818014145
vn -0.083801001310348511 0.99637198448181152 0.014826999977231026
vn -0.079471997916698456 0.99666100740432739 0.018749000504612923
vn -0.080004997551441193 0.99662697315216064 0.018267000094056129
vn -0.13318200409412384 0.99023598432540894 -0.041177999228239059
vn -0.12449900060892105 0.9921720027923584 -0.0097080003470182419
vn -0.062015000730752945 0.99787300825119019 0.0201019998639822
vn -0.059852998703718185 0.99796402454376221 0.022037999704480171
vn -0.067514002323150635 0.99728000164031982 0.029565999284386635
f 1/1/1 2/2/2 3/3/3
f 4/4/4 5/5/5 6/6/6
f 7/7/7 8/8/8 9/9/9
f 10/10/10 11/11/11 12/12/12
f 3/3/3 2/2/2 13/13/13
f 13/13/13 14/14/14 15/15/15
f 13/13/13 2/2/2 14/14/14
f 14/14/14 2/2/2 16/16/16
f 2/2/2 6/6/6 17/17/17
f 4/4/4 2/2/2 1/1/1
f 4/4/4 6/6/6 2/2/2
f 12/12/12 9/9/9 8/8/8
f 12/12/12 11/11/11 9/9/9
f 9/9/9 11/11/11 18/18/18
f 19/19/19 11/11/11 20/20/20
f 19/19/19 21/21/21 11/11/11
f 22/22/22 11/11/11 10/10/10
f 22/22/22 20/20/20 11/11/11
f 23/23/23 6/6/6 9/9/9
f 7/7/7 6/6/6 5/5/5
f 7/7/7 9/9/9 6/6/6
f 6/6/6 23/23/23 17/17/17
f 23/23/23 24/24/24 17/17/17
f 18/18/18 25/25/25 23/23/23
f 9/9/9 18/18/18 23/23/23
f 26/26/26 17/17/17 27/27/27
f 16/16/16 17/17/17 26/26/26
f 16/16/16 2/2/2 17/17/17
f 28/28/28 21/21/21 19/19/19
f 18/18/18 11/11/11 21/21/21
f 28/28/28 29/29/29 21/21/21
f 28/28/28 30/30/30 29/29/29
f 18/18/18 21/21/21 31/31/31
f 25/25/25 24/24/24 23/23/23
f 32/32/32 33/33/33 24/24/24
f 29/29/29 31/31/31 21/21/21
f 34/34/34 25/25/25 31/31/31
f 35/35/35 31/31/31 29/29/29
f 30/30/30 36/36/36 29/29/29
f 25/25/25 37/37/37 24/24/24
f 18/18/18 31/31/31 25/25/25
f 36/36/36 38/38/38 29/29/29
f 36/36/36 39/39/39 38/38/38
f 24/24/24 27/27/27 17/17/17
f 24/24/24 33/33/33 27/27/27
f 32/32/32 37/37/37 40/40/40
f 32/32/32 24/24/24 37/37/37
f 25/25/25 34/34/34 37/37/37
f 29/29/29 38/38/38 35/35/35
f 34/34/34 41/41/41 37/37/37
f 34/34/34 42/42/42 41/41/41
f 42/42/42 34/34/34 43/43/43
f 38/38/38 44/44/44 35/35/35
f 38/38/38 45/45/45 44/44/44
f 46/46/46 47/47/47 38/38/38
f 46/46/46 48/48/48 47/47/47
f 48/48/48 49/49/49 50/50/50
f 48/48/48 46/46/46 49/49/49
f 51/51/51 35/35/35 52/52/52
f 51/51/51 34/34/34 35/35/35
f 46/46/46 38/38/38 39/39/39
f 53/53/53 37/37/37 41/41/41
f 53/53/53 54/54/54 37/37/37
f 40/40/40 37/37/37 54/54/54
f 31/31/31 35/35/35 34/34/34
f 51/51/51 43/43/43 34/34/34
f 47/47/47 45/45/45 38/38/38
f 44/44/44 52/52/52 35/35/35
f 55/55/55 50/50/50 49/49/49
