mtllib m211111032.mtl
usemtl material0
v -47.236603021621704 1.7653629779815674 -32
v -47.760993957519531 1.7520719766616821 -32
v -47.731925964355469 1.7535589933395386 -31.449487924575806
v -48 1.7682360410690308 -31.151499032974243
v -48 1.7547889947891235 -31.435334920883179
v -48 1.7531319856643677 -32
v -48 1.7544389963150024 -31.554574966430664
v -48 1.8380179405212402 -29.435662984848022
v -47.6262469291687 1.8336479663848877 -29.455384969711304
v -48 1.9617120027542114 -27.4361190199852
v -47.520374059677124 1.9532870054244995 -27.461419999599457
v -48 1.9312889575958252 -27.892760999500751
v -45.631984949111938 1.8074020147323608 -29.560613989830017
v -48 2.0011329650878906 -26.928233981132507
v -45.737442016601562 1.771744966506958 -31.554868936538696
v -45.760913968086243 1.7777359485626221 -32
v -43.76078400015831 1.8124279975891113 -32
v -43.742915987968445 1.7992080450057983 -31.660279989242554
v -45.336917996406555 1.7940189838409424 -32
v -41.748470067977905 1.8105570077896118 -31.765638113021851
v -42.008888006210327 1.8187780380249023 -32
v -41.760776996612549 1.8237489461898804 -32
v -41.537594079971313 1.8225009441375732 -32
v -41.643424987792969 1.7617419958114624 -29.771090984344482
v -43.637730002403259 1.7796900272369385 -29.665835976600647
v -40 1.814736008644104 -31.971803903579712
v -40 1.8085190057754517 -31.857964038848877
v -40 1.816275954246521 -32
v -43.532214999198914 1.8260879516601563 -27.671618014574051
v -40 1.8021810054779053 -31.597636938095093
v -40 1.77149498462677 -29.857908010482788
v -45.52625298500061 1.8982319831848145 -27.566549003124237
v -43.426037013530731 2.0082240104675293 -25.677867889404297
v -40 1.7742840051651 -29.486294031143188
v -41.538063049316406 1.777379035949707 -27.776767998933792
v -40 1.7868820428848267 -27.85801899433136
v -40 1.9008200168609619 -26.393957018852234
v -45.420124053955078 2.0706028938293457 -25.572765111923218
v -48 2.19673490524292 -24.816442012786865
v -47.335860967636108 2.3044140338897705 -24
v -47.414283990859985 2.1178450584411621 -25.46760892868042
v -48 2.3002519607543945 -24
v -48 2.1731090545654297 -25.020262002944946
v -48 2.1248359680175781 -25.436701059341431
v -45.335952997207642 2.2959771156311035 -24
v -45.781429052352905 2.3031439781188965 -24
v -44.935123026371 2.2864921092987061 -24
v -43.3360790014267 2.2807331085205078 -24
v -43.0355070233345 2.2741429805755615 -24
v -41.431946039199829 1.9473079442977905 -25.782975912094116
v -41.336342096328735 2.2377619743347168 -24
v -40 1.9463399648666382 -25.858588933944702
v -40 2.1271870136260986 -24.564543008804321
v -40 2.1367440223693848 -24.496156930923462
v -40 2.2179648876190186 -24
vt 0 0.095425009727478027
vt 0 0.029875993728637695
vt 0.0688140019774437 0.033509016036987305
vt 0.10606300085783005 0
vt 0.070583000779151917 0
vt 0 0
vt 0.055677998811006546 0
vt 0.32054200768470764 0
vt 0.31807699799537659 0.0467190146446228
vt 0.57048499584198 0
vt 0.5673220157623291 0.059952974319458008
vt 0.51340502500534058 0
vt 0.30492299795150757 0.29600197076797485
vt 0.63397097587585449 0
vt 0.055640999227762222 0.28281998634338379
vt 0 0.27988600730895996
vt 0 0.52990201115608215
vt 0.042465001344680786 0.532135009765625
vt 0 0.3328850269317627
vt 0.029294999316334724 0.78144100308418274
vt 0 0.74888899922370911
vt 0 0.779902994632721
vt 0 0.80780099332332611
vt 0.27861401438713074 0.79457199573516846
vt 0.29177001118659973 0.54528400301933289
vt 0.0035250000655651093 1
vt 0.017754999920725822 1
vt 0 1
vt 0.541047990322113 0.55847299098968506
vt 0.050294999033212662 1
vt 0.2677609920501709 1
vt 0.55418097972869873 0.30921798944473267
vt 0.79026699066162109 0.57174500823020935
vt 0.31421300768852234 1
vt 0.5279039740562439 0.80774199962615967
vt 0.51774799823760986 1
vt 0.70075500011444092 1
vt 0.80340397357940674 0.32248401641845703
vt 0.897944986820221 0
vt 1 0.08301699161529541
vt 0.81654900312423706 0.073215007781982422
vt 1 0
vt 0.87246698141098022 0
vt 0.82041198015213013 0
vt 1 0.33300602436065674
vt 1 0.2773209810256958
vt 1 0.383109986782074
vt 1 0.58298999071121216
vt 1 0.62056198716163635
vt 0.77712798118591309 0.82100699841976166
vt 1 0.832956999540329
vt 0.76767599582672119 1
vt 0.9294319748878479 1
vt 0.93797999620437622 1
vt 1 1
vn -0.010842000134289265 0.99987298250198364 0.01168499980121851
vn -0.016019999980926514 0.99987000226974487 -0.0018550000386312604
vn -0.0069430000148713589 0.99956601858139038 -0.028613999485969543
vn 0.0084760002791881561 0.9990990161895752 -0.041583999991416931
vn 0.0027799999807029963 0.99941098690032959 -0.0342090018093586
vn 0.0044339997693896294 0.99998599290847778 -0.0029349999967962503
vn 0.00443299999460578 0.99998599290847778 -0.002933999989181757
vn 0.0089570004492998123 0.99863201379776 -0.051518000662326813
vn 0.0042400001548230648 0.9991610050201416 -0.040729999542236328
vn 0.013709000311791897 0.99729502201080322 -0.072217002511024475
vn 0.017229000106453896 0.99738997220993042 -0.070115998387336731
vn 0.0097489999607205391 0.998045027256012 -0.061739999800920486
vn 0.017738999798893929 0.99919700622558594 -0.035932000726461411
vn 0.0090300003066658974 0.99664801359176636 -0.081312000751495361
vn -0.0018189999973401427 0.99995297193527222 -0.009503999724984169
vn -0.015080999583005905 0.99978500604629517 0.014251000247895718
vn -0.00812000036239624 0.99919402599334717 0.0393109992146492
vn -0.0032079999800771475 0.999845027923584 0.017319999635219574
vn -0.017332000657916069 0.99925798177719116 0.034407000988721848
vn -0.0012379999971017242 0.99959397315979 0.028463000431656837
vn -0.0056560002267360687 0.99912899732589722 0.041331999003887177
vn -0.0078859999775886536 0.99836498498916626 0.056611001491546631
vn 0.0042170002125203609 0.99849498271942139 0.05468200147151947
vn 0.0046600000932812691 0.9999769926071167 0.0048480001278221607
vn 0.0059139998629689217 0.99993902444839478 -0.0092789996415376663
vn 0.0040429998189210892 0.99850398302078247 0.054526999592781067
vn 0.0025279999244958162 0.99966400861740112 0.025797000154852867
vn 0.0040420000441372395 0.99850398302078247 0.054533001035451889
vn 0.02144400030374527 0.99860900640487671 -0.048172999173402786
vn -0.0040319999679923058 0.9998210072517395 0.018508000299334526
vn -0.0057649998925626278 0.99997800588607788 0.003195999888703227
vn 0.027862999588251114 0.996990978717804 -0.072337999939918518
vn 0.02251799963414669 0.99314802885055542 -0.11467300355434418
vn -0.0065390001982450485 0.99994897842407227 -0.0076939999125897884
vn 0.008577999658882618 0.99861401319503784 -0.051929999142885208
vn -0.0083330003544688225 0.99912899732589722 -0.040883999317884445
vn -0.0062480000779032707 0.99661099910736084 -0.0820159986615181
vn 0.021836999803781509 0.99401199817657471 -0.10706999897956848
vn -0.0053079999051988125 0.99214601516723633 -0.12497500330209732
vn -0.0019239999819546938 0.99202698469161987 -0.12600800395011902
vn 0.011522999964654446 0.99350601434707642 -0.11319699883460999
vn -0.00621700007468462 0.9920390248298645 -0.12578099966049194
vn 0.0057810000143945217 0.993332028388977 -0.1151449978351593
vn 0.0073319999501109123 0.99623501300811768 -0.086386002600193024
vn 0.0169879999011755 0.9896169900894165 -0.14271900057792664
vn 0.0041829999536275864 0.99152600765228271 -0.12984299659729004
vn 0.015205999836325645 0.98852801322937012 -0.15026700496673584
vn 0.006415999960154295 0.98699098825454712 -0.160644993185997
vn 0.021409999579191208 0.986624002456665 -0.16160100698471069
vn 0.013546000234782696 0.99155497550964355 -0.12897500395774841
vn 0.01826000027358532 0.98666900396347046 -0.16171100735664368
vn -0.0058129997923970222 0.99241501092910767 -0.12279900163412094
vn -0.0066390000283718109 0.990352988243103 -0.13840499520301819
vn 0.012054000049829483 0.98724597692489624 -0.15874800086021423
vn 0.014619000256061554 0.9867590069770813 -0.161531001329422
f 1/1/1 2/2/2 3/3/3
f 4/4/4 3/3/3 5/5/5
f 6/6/6 3/3/3 2/2/2
f 6/6/6 7/7/7 3/3/3
f 7/7/7 5/5/5 3/3/3
f 3/3/3 8/8/8 9/9/9
f 3/3/3 4/4/4 8/8/8
f 10/10/10 11/11/11 12/12/12
f 11/11/11 13/13/13 9/9/9
f 8/8/8 11/11/11 9/9/9
f 8/8/8 12/12/12 11/11/11
f 14/14/14 11/11/11 10/10/10
f 3/3/3 9/9/9 15/15/15
f 1/1/1 15/15/15 16/16/16
f 1/1/1 3/3/3 15/15/15
f 17/17/17 15/15/15 18/18/18
f 17/17/17 19/19/19 15/15/15
f 16/16/16 15/15/15 19/19/19
f 20/20/20 17/17/17 18/18/18
f 20/20/20 21/21/21 17/17/17
f 21/21/21 20/20/20 22/22/22
f 22/22/22 20/20/20 23/23/23
f 20/20/20 18/18/18 24/24/24
f 18/18/18 15/15/15 25/25/25
f 26/26/26 20/20/20 27/27/27
f 26/26/26 23/23/23 20/20/20
f 26/26/26 28/28/28 23/23/23
f 25/25/25 13/13/13 29/29/29
f 15/15/15 13/13/13 25/25/25
f 30/30/30 24/24/24 31/31/31
f 25/25/25 24/24/24 18/18/18
f 24/24/24 27/27/27 20/20/20
f 24/24/24 30/30/30 27/27/27
f 24/24/24 25/25/25 29/29/29
f 29/29/29 32/32/32 33/33/33
f 13/13/13 32/32/32 29/29/29
f 34/34/34 35/35/35 36/36/36
f 29/29/29 35/35/35 24/24/24
f 36/36/36 35/35/35 37/37/37
f 35/35/35 31/31/31 24/24/24
f 35/35/35 34/34/34 31/31/31
f 29/29/29 33/33/33 35/35/35
f 32/32/32 13/13/13 11/11/11
f 32/32/32 11/11/11 38/38/38
f 13/13/13 15/15/15 9/9/9
f 39/39/39 40/40/40 41/41/41
f 39/39/39 42/42/42 40/40/40
f 43/43/43 41/41/41 44/44/44
f 43/43/43 39/39/39 41/41/41
f 41/41/41 38/38/38 11/11/11
f 41/41/41 45/45/45 38/38/38
f 41/41/41 46/46/46 45/45/45
f 11/11/11 44/44/44 41/41/41
f 11/11/11 14/14/14 44/44/44
f 46/46/46 41/41/41 40/40/40
f 47/47/47 38/38/38 45/45/45
f 47/47/47 33/33/33 38/38/38
f 48/48/48 33/33/33 47/47/47
f 33/33/33 49/49/49 50/50/50
f 33/33/33 48/48/48 49/49/49
f 51/51/51 50/50/50 49/49/49
f 50/50/50 37/37/37 35/35/35
f 50/50/50 52/52/52 37/37/37
f 52/52/52 50/50/50 53/53/53
f 53/53/53 50/50/50 54/54/54
f 35/35/35 33/33/33 50/50/50
f 55/55/55 50/50/50 51/51/51
f 55/55/55 54/54/54 50/50/50
f 32/32/32 38/38/38 33/33/33
