mtllib m2111302.mtl
usemtl material0
v -114.18364691734314 6.1965842247009277 -192
v -113.86315202713013 6.6045951843261719 -185.96807861328125
v -108.43651604652405 6.4209508895874023 -192
v -128 5.427055835723877 -192
v -121.84180545806885 6.383753776550293 -185.54602146148682
v -122.18570709228516 5.7527308464050293 -192
v -128 5.5142941474914551 -191.07965087890625
v -120.57459259033203 5.805509090423584 -192
v -128 6.4957361221313477 -177.22142004966736
v -128 6.3710570335388184 -170.25575304031372
v -121.41683197021484 7.1688241958618164 -177.57124304771423
v -128 6.4172639846801758 -169.22140502929688
v -128 6.1331877708435059 -161.81059265136719
v -120.99359893798828 7.59743595123291 -169.59521484375
v -128 6.3584952354431152 -178.70138502120972
v -128 5.780850887298584 -185.2188720703125
v -128 6.056333065032959 -160
v -122.02886199951172 7.0426268577575684 -160
v -128 6.1042752265930176 -161.08915710449219
v -120.57364654541016 7.3541660308837891 -161.61683654785156
v -128 6.1100630760192871 -161.22065734863281
v -120.48883819580078 7.2459030151367188 -160
v -113.01233696937561 8.3524484634399414 -170.01911878585815
v -114.42891693115234 7.8400368690490723 -160
v -112.59209400415421 8.1672821044921875 -162.04095458984375
v -113.43575298786163 7.8857498168945312 -177.99502599239349
v -105.45723676681519 8.0777654647827148 -178.41696190834045
v -112.48500099778175 8.0398597717285156 -160
v -104.61328077316284 8.4203310012817383 -162.46310424804688
v -106.82973480224609 8.2000913619995117 -160
v -105.03369092941284 8.5693635940551758 -170.44114685058594
v -105.88371992111206 6.98410701751709 -186.39067077636719
v -106.18210601806641 6.5373539924621582 -192
v -97.479248046875 8.16087532043457 -178.83853101730347
v -104.48358917236328 8.3535118103027344 -160
v -96.6347427368164 8.6167211532592773 -162.88507080078125
v -99.2306900024414 8.4749355316162109 -160
v -97.055900573730469 8.6134128570556641 -170.86257886886597
v -97.904342651367188 7.3513917922973633 -186.813232421875
v -100.83686828613281 7.0494298934936523 -192
v -98.179046630859375 7.1761670112609863 -192
v -96 7.1904420852661133 -192
v -96 7.2930908203125 -188.92997741699219
v -96 8.0906171798706055 -178.91642808914185
v -96 8.49718189239502 -172.03640699386597
v -96 8.5789728164672852 -170.91822814941406
v -96 8.5945854187011719 -163.59060668945313
v -96 7.9926800727844238 -180.48300218582153
v -96 7.3396401405334473 -186.91375732421875
v -96 8.6139307022094727 -162.9185791015625
v -96 8.5998725891113281 -162.51899719238281
v -96.482955932617188 8.51426887512207 -160
v -96 8.5112485885620117 -160
vt 0.99566298723220825 0.433758020401001
vt 0.8090590238571167 0.44413501024246216
vt 0.99566298723220825 0.61130601167678833
vt 0.996150016784668 0.006573021411895752
vt 0.7957649827003479 0.19775599241256714
vt 0.99590402841567993 0.18633997440338135
vt 0.96761202812194824 0.0066850185394287109
vt 0.99594497680664062 0.23610198497772217
vt 0.53896701335906982 0.0074089765548706055
vt 0.3247700035572052 0.0048090219497680664
vt 0.54858499765396118 0.21171599626541138
vt 0.29280900955200195 0.0047019720077514648
vt 0.06390400230884552 0.000782012939453125
vt 0.30197799205780029 0.2241470217704773
vt 0.58484899997711182 0.0072339773178100586
vt 0.78683000802993774 0.0066869854927062988
vt 0.0066129998303949833 0.0015760064125061035
vt 0.0057140002027153969 0.18839901685714722
vt 0.040265001356601715 0.0019789934158325195
vt 0.055450998246669769 0.23452800512313843
vt 0.0443280003964901 0.002026975154876709
vt 0.0053960001096129417 0.23644298315048218
vt 0.31330001354217529 0.47326201200485229
vt 0.0040270001627504826 0.42440301179885864
vt 0.06697399914264679 0.4866899847984314
vt 0.55988001823425293 0.45916998386383057
vt 0.57356101274490356 0.705500990152359
vt 0.0038499999791383743 0.49003899097442627
vt 0.080641999840736389 0.73308300971984863
vt 0.004282000008970499 0.664685994386673
vt 0.32693898677825928 0.71961900591850281
vt 0.821923017501831 0.69074699282646179
vt 0.99559998512268066 0.680990993976593
vt 0.58753097057342529 0.95174099877476692
vt 0.0045889997854828835 0.73728099465370178
vt 0.094458997249603271 0.97941100038588047
vt 0.005106000229716301 0.89947900176048279
vt 0.34092700481414795 0.96584200114011765
vt 0.83490198850631714 0.93733300268650055
vt 0.99490398168563843 0.84675200283527374
vt 0.99510097503662109 0.9287400022149086
vt 0.99513399600982666 0.99600900011137128
vt 0.9003099799156189 0.99607500014826655
vt 0.59034299850463867 0.99743300001136959
vt 0.37744998931884766 0.99831499997526407
vt 0.34283998608589172 0.99844400002621114
vt 0.116287000477314 0.99896300002001226
vt 0.63879698514938354 0.997139000101015
vt 0.83833098411560059 0.99610199988819659
vt 0.095533996820449829 0.999002999975346
vt 0.083190999925136566 0.99903100001392886
vt 0.0053530000150203705 0.98430999927222729
vt 0.005384999793022871 0.99921899999026209
vn -0.05033700168132782 0.99663197994232178 -0.064740002155303955
vn -0.052960000932216644 0.99276399612426758 -0.10776799917221069
vn -0.048073999583721161 0.99612998962402344 -0.073578000068664551
vn -0.055675998330116272 0.99399298429489136 -0.094218999147415161
vn -0.061785001307725906 0.99421101808547974 -0.087904997169971466
vn -0.044557001441717148 0.99449300765991211 -0.0948600023984909
vn -0.067441001534461975 0.99441397190093994 -0.0811920017004013
vn -0.039197001606225967 0.99532699584960938 -0.088244996964931488
vn -0.10350900143384934 0.99400001764297485 -0.0353580005466938
vn -0.15252600610256195 0.98785799741745 -0.029528999701142311
vn -0.099554002285003662 0.9925839900970459 -0.069755002856254578
vn -0.16619299352169037 0.9860919713973999 -0.0017569999909028411
vn -0.16331100463867188 0.98582500219345093 0.038442999124526978
vn -0.1296750009059906 0.99154198169708252 -0.0053509999997913837
vn -0.10507100075483322 0.99030399322509766 -0.090879000723361969
vn -0.10074999928474426 0.99264198541641235 -0.067160002887248993
vn -0.16281500458717346 0.98570197820663452 0.043388999998569489
vn -0.15431700646877289 0.98669201135635376 0.051228001713752747
vn -0.16281500458717346 0.98570197820663452 0.043386999517679214
vn -0.12581400573253632 0.99078702926635742 0.050117999315261841
vn -0.16294999420642853 0.98577797412872314 0.041104000061750412
vn -0.11346600204706192 0.99090802669525146 0.07230299711227417
vn -0.061889998614788055 0.99798798561096191 -0.013794000260531902
vn -0.09857100248336792 0.99263298511505127 0.070445999503135681
vn -0.064024999737739563 0.99688702821731567 0.046007998287677765
vn -0.065268002450466156 0.99270099401474 -0.10141000151634216
vn -0.026843000203371048 0.99534898996353149 -0.0925230011343956
vn -0.064060002565383911 0.9957919716835022 0.06553100049495697
vn -0.028759000822901726 0.99923700094223022 0.026412999257445335
vn -0.0381149984896183 0.99776297807693481 0.054917000234127045
vn -0.018535999581217766 0.999642014503479 -0.019274000078439713
vn -0.05469600111246109 0.99329298734664917 -0.10186900198459625
vn -0.072458997368812561 0.99452102184295654 -0.075354002416133881
vn 0.01001999992877245 0.99714601039886475 -0.074835002422332764
vn -0.043483000248670578 0.99862200021743774 0.02937999926507473
vn -0.0048310002312064171 0.99990099668502808 0.01321799959987402
vn -0.020754000172019005 0.99932098388671875 0.030437000095844269
vn 0.011486999690532684 0.99952501058578491 -0.028603000566363335
vn -0.020485000684857368 0.99737799167633057 -0.069407999515533447
vn -0.060338001698255539 0.99726498126983643 -0.042674001306295395
vn -0.027784999459981918 0.99909299612045288 -0.032281000167131424
vn -0.0065469997934997082 0.99941998720169067 -0.033417001366615295
vn -0.0038660001009702682 0.99951201677322388 -0.031006999313831329
vn 0.044165998697280884 0.99717897176742554 -0.060692999511957169
vn 0.0406389981508255 0.99723702669143677 -0.062189001590013504
vn 0.03053399920463562 0.99878197908401489 -0.038761001080274582
vn 0.025586999952793121 0.999638020992279 -0.0083429999649524689
vn 0.010873000137507916 0.99569398164749146 -0.092058002948760986
vn 0.0029509998857975006 0.99814599752426147 -0.060786999762058258
vn 0.0045079998672008514 0.99998801946640015 0.0021210000850260258
vn 0.0062489998526871204 0.99936199188232422 0.035160001367330551
vn -0.0036840001121163368 0.9993559718132019 0.03568200021982193
vn 0.0062500000931322575 0.99936199188232422 0.035160001367330551
f 1/1/1 2/2/2 3/3/3
f 4/4/4 5/5/5 6/6/6
f 4/4/4 7/7/7 5/5/5
f 8/8/8 2/2/2 1/1/1
f 9/9/9 10/10/10 11/11/11
f 12/12/12 13/13/13 14/14/14
f 15/15/15 5/5/5 16/16/16
f 17/17/17 18/18/18 19/19/19
f 19/19/19 20/20/20 21/21/21
f 19/19/19 18/18/18 20/20/20
f 12/12/12 11/11/11 10/10/10
f 12/12/12 14/14/14 11/11/11
f 5/5/5 11/11/11 2/2/2
f 22/22/22 20/20/20 18/18/18
f 14/14/14 20/20/20 23/23/23
f 20/20/20 24/24/24 25/25/25
f 20/20/20 22/22/22 24/24/24
f 26/26/26 11/11/11 14/14/14
f 21/21/21 14/14/14 13/13/13
f 21/21/21 20/20/20 14/14/14
f 14/14/14 23/23/23 26/26/26
f 23/23/23 27/27/27 26/26/26
f 24/24/24 28/28/28 25/25/25
f 28/28/28 29/29/29 25/25/25
f 28/28/28 30/30/30 29/29/29
f 23/23/23 25/25/25 31/31/31
f 20/20/20 25/25/25 23/23/23
f 26/26/26 32/32/32 2/2/2
f 11/11/11 26/26/26 2/2/2
f 8/8/8 5/5/5 2/2/2
f 8/8/8 6/6/6 5/5/5
f 15/15/15 11/11/11 5/5/5
f 15/15/15 9/9/9 11/11/11
f 7/7/7 16/16/16 5/5/5
f 3/3/3 32/32/32 33/33/33
f 3/3/3 2/2/2 32/32/32
f 23/23/23 31/31/31 27/27/27
f 31/31/31 34/34/34 27/27/27
f 30/30/30 35/35/35 29/29/29
f 35/35/35 36/36/36 29/29/29
f 35/35/35 37/37/37 36/36/36
f 31/31/31 29/29/29 38/38/38
f 25/25/25 29/29/29 31/31/31
f 32/32/32 27/27/27 39/39/39
f 39/39/39 40/40/40 32/32/32
f 39/39/39 41/41/41 40/40/40
f 42/42/42 39/39/39 43/43/43
f 42/42/42 41/41/41 39/39/39
f 38/38/38 34/34/34 31/31/31
f 44/44/44 38/38/38 45/45/45
f 44/44/44 34/34/34 38/38/38
f 46/46/46 36/36/36 47/47/47
f 46/46/46 38/38/38 36/36/36
f 36/36/36 38/38/38 29/29/29
f 48/48/48 39/39/39 34/34/34
f 48/48/48 49/49/49 39/39/39
f 34/34/34 39/39/39 27/27/27
f 50/50/50 36/36/36 51/51/51
f 51/51/51 52/52/52 53/53/53
f 51/51/51 36/36/36 52/52/52
f 52/52/52 36/36/36 37/37/37
f 33/33/33 32/32/32 40/40/40
f 26/26/26 27/27/27 32/32/32
f 49/49/49 43/43/43 39/39/39
f 46/46/46 45/45/45 38/38/38
f 50/50/50 47/47/47 36/36/36
f 44/44/44 48/48/48 34/34/34
