mtllib m211111200.mtl
usemtl material0
v -64 1.5317269563674927 -40
v -64 1.4869029521942139 -38.705245971679688
v -62.835026025772095 1.5288180112838745 -40
v -60.183685004711151 1.6231290102005005 -40
v -61.460281014442444 1.568310022354126 -40
v -60.120173998177052 1.5989409685134888 -38.794555902481079
v -58.1829149723053 1.7848720550537109 -40
v -59.347759008407593 1.6910430192947388 -40
v -58.124973058700562 1.7636170387268066 -38.900444030761719
v -64 1.4839609861373901 -38.589306116104126
v -64 1.4333369731903076 -36.593952000141144
v -62.115044116973877 1.5011579990386963 -38.688899993896484
v -62.18408989906311 1.5338840484619141 -40
v -56.182322978973389 1.9108560085296631 -40
v -56.129992961883545 1.8843469619750977 -39.006175994873047
v -57.135535955429077 1.8546750545501709 -40
v -56 1.9171969890594482 -40
v -56 1.8929860591888428 -39.150641918182373
v -58.019958019256592 1.708948016166687 -36.905875980854034
v -60.01515999995172 1.5432959794998169 -36.799987971782684
v -56 1.8876320123672485 -39.013053894042969
v -56 1.8830560445785523 -38.889214038848877
v -64 1.4314689636230469 -36.503906011581421
v -64 1.3946210145950317 -34.684981942176819
v -63.899390935897827 1.3931540250778198 -34.59445595741272
v -62.009941101074219 1.4635790586471558 -36.69439297914505
v -64 1.433243989944458 -36.589206993579864
v -64 1.4331469535827637 -36.584937989711761
v -61.9048730134964 1.4196510314941406 -34.699862957000732
v -64 1.3917679786682129 -34.589138031005859
v -64 1.3666919469833374 -32.785109996795654
v -63.794234991073608 1.3668019771575928 -32.5999870300293
v -59.910163998603821 1.4842309951782227 -34.805405020713806
v -59.8048740029335 1.4847350120544434 -32.811028003692627
v -64 1.3608959913253784 -32.5890998840332
v -64 1.3657790422439575 -32.371288061141968
v -63.127068042755127 1.3998860120773315 -32
v -63.762492895126343 1.3806149959564209 -32
v -60.534573018550873 1.4794100522994995 -32
v -61.799561023712158 1.4250370264053345 -32.705504894256592
v -61.762233972549438 1.4412790536880493 -32
v -59.761989995837212 1.4988390207290649 -32
v -58.634814977645874 1.5458929538726807 -32
v -57.81008505821228 1.5664039850234985 -32.916630029678345
v -64 1.3737599849700928 -32
v -57.915096044540405 1.62253999710083 -34.911201000213623
v -56.025008916854858 1.822842001914978 -37.011589050292969
v -56 1.8000129461288452 -36.53567498922348
v -56 1.72297203540802 -35.012650012969971
v -56 1.8233519792556763 -37.012909054756165
v -56 1.8221169710159302 -36.989081978797913
v -56 1.637408971786499 -33.012439966201782
v -56 1.6427090167999268 -33.1883659362793
v -56.73506498336792 1.6110860109329224 -32
v -57.761672973632812 1.570673942565918 -32
v -56 1.6379129886627197 -32.816951990127563
v -56 1.642475962638855 -32
vt 0 0
vt 0.16184400022029877 0
vt 0 0.14562201499938965
vt 0 0.47703897953033447
vt 0 0.31746500730514526
vt 0.15068100392818451 0.48497802019119263
vt 0 0.72713598608970642
vt 0 0.58153000473976135
vt 0.13744400441646576 0.73437801003456116
vt 0.17633700370788574 0
vt 0.42575600743293762 0
vt 0.16388800740242004 0.23562002182006836
vt 0 0.22698897123336792
vt 0 0.97721000015735626
vt 0.12422800064086914 0.98375100083649158
vt 0 0.85805800557136536
vt 0 1
vt 0.10616999864578247 1
vt 0.3867650032043457 0.74750500917434692
vt 0.40000200271606445 0.498104989528656
vt 0.12336800247430801 1
vt 0.13884800672531128 1
vt 0.43701198697090149 0
vt 0.664376974105835 0
vt 0.67569297552108765 0.012575984001159668
vt 0.41320100426673889 0.248757004737854
vt 0.426349014043808 0
vt 0.42688301205635071 0
vt 0.6625170111656189 0.26189100742340088
vt 0.67635798454284668 0
vt 0.90186101198196411 0
vt 0.92500197887420654 0.02572101354598999
vt 0.64932399988174438 0.5112299919128418
vt 0.89862197637557983 0.52439099550247192
vt 0.92636299133300781 0
vt 0.95358902215957642 0
vt 1 0.10911697149276733
vt 1 0.029688000679016113
vt 1 0.43317800760269165
vt 0.91181200742721558 0.27505499124526978
vt 1 0.27972102165222168
vt 1 0.5297510027885437
vt 1 0.6706480085849762
vt 0.88542097806930542 0.77373899519443512
vt 1 0
vt 0.63609999418258667 0.76061299443244934
vt 0.37355101108551025 0.99687399994581938
vt 0.43304100632667542 1
vt 0.62341898679733276 1
vt 0.37338599562644958 1
vt 0.37636500597000122 1
vt 0.87344497442245483 1
vt 0.85145401954650879 1
vt 1 0.90811699628829956
vt 1 0.779790997505188
vt 0.89788097143173218 1
vt 1 1
vn 0.002495999913662672 0.99939799308776855 0.034598998725414276
vn 0.00165200000628829 0.999426007270813 0.033840000629425049
vn -0.00470399996265769 0.99959301948547363 0.028126999735832214
vn -0.068956002593040466 0.99733901023864746 0.023645000532269478
vn -0.046085000038146973 0.99860298633575439 0.025859000161290169
vn -0.065858997404575348 0.99740397930145264 0.029113000258803368
vn -0.073746003210544586 0.99700802564620972 0.023158999159932137
vn -0.08055499941110611 0.99646598100662231 0.023812999948859215
vn -0.070542998611927032 0.99710702896118164 0.028291000053286552
vn -0.007780000101774931 0.99964797496795654 0.025361999869346619
vn -0.011086000129580498 0.99968802928924561 0.022388000041246414
vn -0.027518000453710556 0.99931502342224121 0.024755999445915222
vn -0.028705000877380371 0.99923801422119141 0.02645299956202507
vn -0.057457998394966125 0.99790799617767334 0.02964399941265583
vn -0.055707000195980072 0.99794900417327881 0.031532000750303268
vn -0.06282699853181839 0.99768298864364624 0.026086000725626945
vn -0.034743998199701309 0.998989999294281 0.02847599983215332
vn -0.033133998513221741 0.999002993106842 0.0299260001629591
vn -0.068236999213695526 0.99700802564620972 0.036322001367807388
vn -0.052942998707294464 0.99818402528762817 0.028721999377012253
vn -0.023237999528646469 0.99901002645492554 0.037946000695228577
vn -0.018928000703454018 0.99930697679519653 0.032063998281955719
vn -0.011811999604105949 0.99971598386764526 0.020682999864220619
vn -0.00407399982213974 0.99977701902389526 0.020728999748826027
vn -0.012230000458657742 0.99977898597717285 0.01707099936902523
vn -0.026434000581502914 0.999413013458252 0.021812999621033669
vn -0.01412499975413084 0.99967801570892334 0.021073000505566597
vn -0.01396000012755394 0.999646008014679 0.022671999409794807
vn -0.024960000067949295 0.99959099292755127 0.013969999738037586
vn -0.01299699954688549 0.99980700016021729 0.014697999693453312
vn -0.013965999707579613 0.99979102611541748 0.014928000047802925
vn -0.022282000631093979 0.999750018119812 0.0017819999484345317
vn -0.055946998298168182 0.99816101789474487 0.023319000378251076
vn -0.041145998984575272 0.99914997816085815 0.0025059999898076057
vn -0.028573999181389809 0.99958902597427368 0.0022050000261515379
vn -0.029017999768257141 0.99934500455856323 -0.021638000383973122
vn -0.030307000502943993 0.99931198358535767 -0.021402999758720398
vn -0.029773000627756119 0.99932700395584106 -0.021431999281048775
vn -0.029819000512361526 0.99935001134872437 -0.020267000421881676
vn -0.030006999149918556 0.99951297044754028 -0.008578999899327755
vn -0.030652999877929688 0.999301016330719 -0.021384000778198242
vn -0.0349700003862381 0.99926799535751343 -0.015527999959886074
vn -0.038617998361587524 0.99917697906494141 -0.012388000264763832
vn -0.038474999368190765 0.9991459846496582 0.015053999610245228
vn -0.028844000771641731 0.99935299158096313 -0.021480999886989594
vn -0.052464999258518219 0.99798697233200073 0.035629000514745712
vn -0.0531110018491745 0.99775797128677368 0.040724001824855804
vn -0.049536999315023422 0.997497022151947 0.050452001392841339
vn -0.049835998564958572 0.997655987739563 0.046884000301361084
vn -0.018686000257730484 0.99931198358535767 0.032049000263214111
vn -0.01500099990516901 0.99869400262832642 0.048840999603271484
vn -0.038159999996423721 0.99908202886581421 0.019477000460028648
vn -0.048911001533269882 0.99789100885391235 0.042686998844146729
vn -0.039914000779390335 0.99919801950454712 -0.0031010000966489315
vn -0.034295998513698578 0.99940800666809082 -0.0028440000023692846
vn -0.042020998895168304 0.99910402297973633 -0.004999999888241291
vn -0.042663998901844025 0.99907398223876953 -0.00558000011369586
f 1/1/1 2/2/2 3/3/3
f 4/4/4 5/5/5 6/6/6
f 7/7/7 8/8/8 9/9/9
f 10/10/10 11/11/11 12/12/12
f 5/5/5 12/12/12 6/6/6
f 5/5/5 13/13/13 12/12/12
f 14/14/14 9/9/9 15/15/15
f 14/14/14 16/16/16 9/9/9
f 4/4/4 9/9/9 8/8/8
f 4/4/4 6/6/6 9/9/9
f 17/17/17 15/15/15 18/18/18
f 17/17/17 14/14/14 15/15/15
f 6/6/6 19/19/19 9/9/9
f 7/7/7 9/9/9 16/16/16
f 12/12/12 20/20/20 6/6/6
f 10/10/10 3/3/3 2/2/2
f 10/10/10 12/12/12 3/3/3
f 12/12/12 13/13/13 3/3/3
f 21/21/21 15/15/15 22/22/22
f 21/21/21 18/18/18 15/15/15
f 9/9/9 19/19/19 15/15/15
f 23/23/23 24/24/24 25/25/25
f 11/11/11 26/26/26 12/12/12
f 11/11/11 27/27/27 26/26/26
f 26/26/26 28/28/28 29/29/29
f 26/26/26 27/27/27 28/28/28
f 24/24/24 30/30/30 25/25/25
f 31/31/31 25/25/25 30/30/30
f 31/31/31 32/32/32 25/25/25
f 20/20/20 29/29/29 33/33/33
f 23/23/23 29/29/29 28/28/28
f 23/23/23 25/25/25 29/29/29
f 20/20/20 33/33/33 19/19/19
f 25/25/25 32/32/32 29/29/29
f 26/26/26 29/29/29 20/20/20
f 29/29/29 34/34/34 33/33/33
f 12/12/12 26/26/26 20/20/20
f 35/35/35 36/36/36 32/32/32
f 37/37/37 32/32/32 38/38/38
f 39/39/39 40/40/40 41/41/41
f 39/39/39 34/34/34 40/40/40
f 40/40/40 34/34/34 29/29/29
f 42/42/42 34/34/34 39/39/39
f 37/37/37 40/40/40 32/32/32
f 37/37/37 41/41/41 40/40/40
f 29/29/29 32/32/32 40/40/40
f 43/43/43 34/34/34 42/42/42
f 43/43/43 44/44/44 34/34/34
f 36/36/36 38/38/38 32/32/32
f 36/36/36 45/45/45 38/38/38
f 31/31/31 35/35/35 32/32/32
f 46/46/46 33/33/33 34/34/34
f 34/34/34 44/44/44 46/46/46
f 19/19/19 46/46/46 47/47/47
f 48/48/48 46/46/46 49/49/49
f 48/48/48 47/47/47 46/46/46
f 47/47/47 22/22/22 15/15/15
f 47/47/47 50/50/50 22/22/22
f 50/50/50 47/47/47 51/51/51
f 15/15/15 19/19/19 47/47/47
f 52/52/52 46/46/46 44/44/44
f 52/52/52 53/53/53 46/46/46
f 49/49/49 46/46/46 53/53/53
f 51/51/51 47/47/47 48/48/48
f 54/54/54 44/44/44 55/55/55
f 54/54/54 52/52/52 44/44/44
f 54/54/54 56/56/56 52/52/52
f 43/43/43 55/55/55 44/44/44
f 57/57/57 56/56/56 54/54/54
f 33/33/33 46/46/46 19/19/19
f 6/6/6 20/20/20 19/19/19
