mtllib m2111001.mtl
usemtl material0
v -217.73185729980469 6.71746301651001 -32
v -221.44172668457031 6.4923210144042969 -32
v -217.54776000976563 6.55479621887207 -28.497125625610352
v -201.7326512336731 6.6346850395202637 -32
v -204.54891991615295 6.626410961151123 -32
v -201.59309387207031 6.4539899826049805 -29.339324951171875
v -193.73219299316406 6.7623558044433594 -32
v -196.10183715820313 6.7728309631347656 -32
v -193.61442565917969 6.6789450645446777 -29.761374473571777
v -209.73283398151398 6.56174898147583 -32
v -212.99525499343872 6.5676279067993164 -32
v -209.57132005691528 6.3213000297546387 -28.917594909667969
v -224 6.4703922271728516 -26.702865600585938
v -217.12788391113281 6.2921628952026367 -20.518700122833252
v -224 6.51853084564209 -28.156286239624023
v -224 6.5033688545227051 -29.541655540466309
v -224 6.476463794708252 -32
v -201.17410278320313 6.0126500129699707 -21.360282897949219
v -193.19587707519531 6.1472740173339844 -21.782021045684814
v -209.15124499797821 6.1011481285095215 -20.939315795898438
v -192 6.5936160087585449 -29.846355438232422
v -192 6.6542830467224121 -31.610722541809082
v -192 6.6676678657531738 -32
v -192 6.4470300674438477 -28.307071685791016
v -224 6.3006467819213867 -20.155829906463623
v -216.70890808105469 5.8454341888427734 -12.539642095565796
v -224 6.2419018745422363 -19.102458953857422
v -200.75410509109497 5.7753891944885254 -13.381947994232178
v -192.77713012695313 5.6541590690612793 -13.802803039550781
v -208.73159801959992 5.7911338806152344 -12.960728883743286
v -192 6.046201229095459 -21.844849109649658
v -192 5.949650764465332 -20.704561233520508
v -224 6.0405478477478027 -12.155242919921875
v -216.29069519042969 5.2424378395080566 -4.5600490570068359
v -224 5.9922261238098145 -11.5018892288208
v -200.33702087402344 4.9399747848510742 -5.4015541076660156
v -192.361083984375 4.6043930053710938 -5.8216724395751953
v -208.31431600451469 4.9981999397277832 -4.9804811477661133
v -192 5.5670528411865234 -13.843563079833984
v -192 5.5021090507507324 -13.102443933486939
v -224 5.4990639686584473 -3.8994207382202148
v -224 5.5195441246032715 -4.1538248062133789
v -219.6700439453125 5.0111579895019531 0
v -216.05186462402344 4.8657569885253906 0
v -202.78515577316284 4.2361059188842773 0
v -200.05561780929565 4.1964612007141113 0
v -192 4.5775909423828125 -5.8406543731689453
v -194.340576171875 4.0939121246337891 0
v -192.05687046051025 3.9853339195251465 0
v -211.22799706459045 4.577362060546875 0
v -208.05407699942589 4.4624981880187988 0
v -192 4.5546860694885254 -5.4964237213134766
v -224 5.2157111167907715 0
v -192 3.982835054397583 0
vt 0.19068300724029541 0.028876006603240967
vt 0.079089999198913574 0.033088028430938721
vt 0.19987800717353821 0.13398098945617676
vt 0.67137300968170166 0.0123329758644104
vt 0.58661800622940063 0.015020012855529785
vt 0.67824000120162964 0.092275023460388184
vt 0.91158699989318848 0.0038800239562988281
vt 0.84050297737121582 0.0063959956169128418
vt 0.91745501756668091 0.07102501392364502
vt 0.43095201253890991 0.020676016807556152
vt 0.33298999071121216 0.024124979972839355
vt 0.439083993434906 0.11334097385406494
vt 0.0081120003014802933 0.19498699903488159
vt 0.22124199569225311 0.37321001291275024
vt 0.0065170000307261944 0.15132302045822144
vt 0.0049879997968673706 0.10972398519515991
vt 0.0022750000935047865 0.035906016826629639
vt 0.69903498888015747 0.33180797100067139
vt 0.9381909966468811 0.31073802709579468
vt 0.45990601181983948 0.35257500410079956
vt 0.96591997146606445 0.066883981227874756
vt 0.96408700942993164 0.013872027397155762
vt 0.96368199586868286 0.0021759867668151855
vt 0.96760797500610352 0.11339801549911499
vt 0.015297000296413899 0.39163398742675781
vt 0.24261400103569031 0.61270201206207275
vt 0.016457999125123024 0.42331200838088989
vt 0.71986097097396851 0.5710580050945282
vt 0.95899999141693115 0.5503230094909668
vt 0.4812999963760376 0.59185799956321716
vt 0.97418200969696045 0.30782401561737061
vt 0.97543901205062866 0.34210199117660522
vt 0.02401299960911274 0.63199898600578308
vt 0.26352599263191223 0.85255800187587738
vt 0.02472200058400631 0.65167000889778137
vt 0.7413100004196167 0.81151899695396423
vt 0.980247974395752 0.79157799482345581
vt 0.50276297330856323 0.83218300342559814
vt 0.98245298862457275 0.548447996377945
vt 0.98318302631378174 0.57091599702835083
vt 0.0329120010137558 0.88042899966239929
vt 0.032621998339891434 0.87276500463485718
vt 0.16671900451183319 0.99312300002202392
vt 0.27546501159667969 0.98970500007271767
vt 0.67412698268890381 0.97761600092053413
vt 0.75571602582931519 0.97492799907922745
vt 0.99110901355743408 0.79072199761867523
vt 0.92735898494720459 0.96910200081765652
vt 0.99601602554321289 0.96686900034546852
vt 0.42059698700904846 0.98536899965256453
vt 0.51574099063873291 0.98233300074934959
vt 0.99143302440643311 0.80108200013637543
vt 0.037117999047040939 0.99782399996183813
vt 0.99772500991821289 0.96681199967861176
vn -0.015992999076843262 0.99875599145889282 0.047221001237630844
vn -0.018885999917984009 0.99981701374053955 0.0031630001030862331
vn 0.00559999980032444 0.99948799610137939 0.031486000865697861
vn -0.013349000364542007 0.997564971446991 0.068447999656200409
vn -0.010212999768555164 0.99705898761749268 0.075958997011184692
vn -0.0162540003657341 0.99775302410125732 0.064999997615814209
vn 0.028637999668717384 0.99895197153091431 0.035714000463485718
vn -0.017727000638842583 0.99794697761535645 0.06155100092291832
vn 0.023105999454855919 0.9980279803276062 0.0583610013127327
vn -0.0050849998369812965 0.99693799018859863 0.07803499698638916
vn 0.024630999192595482 0.998320996761322 0.0524200014770031
vn 0.0085850004106760025 0.99862301349639893 0.051757998764514923
vn -0.0021430000197142363 0.9995110034942627 0.031186999753117561
vn 0.011738000437617302 0.9990990161895752 0.040791001170873642
vn -0.0049950000829994678 0.99991798400878906 0.011823000386357307
vn -0.0061980001628398895 0.99992102384567261 -0.010943000204861164
vn -0.0061980001628398895 0.99992102384567261 -0.010944000445306301
vn -6.3999999838415533E-05 0.99907398223876953 0.043023999780416489
vn 0.038986999541521072 0.9971889853477478 0.063987001776695251
vn 0.018707999959588051 0.99932098388671875 0.031743001192808151
vn 0.05601000040769577 0.99640500545501709 0.063568003475666046
vn 0.054549999535083771 0.99792098999023438 0.034313000738620758
vn 0.054549999535083771 0.99792098999023438 0.034313999116420746
vn 0.0793910026550293 0.99435198307037354 0.070436000823974609
vn 0.0034139999188482761 0.99914097785949707 0.041303001344203949
vn 0.019920000806450844 0.99772799015045166 0.064360000193119049
vn 0.010595000348985195 0.99876397848129272 0.048565000295639038
vn 0.016743000596761703 0.99737000465393066 0.070524998009204864
vn 0.058912999927997589 0.99470502138137817 0.0842059999704361
vn 0.010931000113487244 0.99740898609161377 0.071103997528553009
vn 0.087779000401496887 0.99349600076675415 0.072532996535301208
vn 0.10725300014019013 0.99223697185516357 0.062951996922492981
vn 0.029458999633789062 0.99820798635482788 0.052085001021623611
vn 0.039253998547792435 0.99612700939178467 0.078682996332645416
vn 0.032866001129150391 0.99692201614379883 0.071177996695041656
vn 0.026031000539660454 0.99309700727462769 0.11436799913644791
vn 0.055645998567342758 0.99265897274017334 0.10738199949264526
vn 0.02502799965441227 0.99443298578262329 0.10235700011253357
vn 0.11476600170135498 0.99088197946548462 0.070583000779151917
vn 0.089428000152111053 0.98926901817321777 0.11554300040006638
vn 0.041896000504493713 0.99606400728225708 0.0781090036034584
vn 0.039638001471757889 0.9965860247612 0.072417996823787689
vn 0.041666001081466675 0.99605399370193481 0.078362002968788147
vn 0.050108000636100769 0.99556601047515869 0.079613998532295227
vn 0.021007999777793884 0.991500973701477 0.1283939927816391
vn 0.016140000894665718 0.99064302444458008 0.13551899790763855
vn 0.078741997480392456 0.992169976234436 0.096941001713275909
vn 0.0403439998626709 0.993028998374939 0.11075499653816223
vn 0.045386001467704773 0.993615984916687 0.10328599810600281
vn 0.041453998535871506 0.994225025177002 0.098981998860836029
vn 0.03945000097155571 0.99370801448822021 0.10482200235128403
vn 0.052620001137256622 0.994225025177002 0.093528002500534058
vn 0.047065000981092453 0.9962649941444397 0.072393998503685
vn 0.043662998825311661 0.99368298053741455 0.10338400304317474
f 1/1/1 2/2/2 3/3/3
f 4/4/4 5/5/5 6/6/6
f 7/7/7 8/8/8 9/9/9
f 10/10/10 11/11/11 12/12/12
f 3/3/3 13/13/13 14/14/14
f 3/3/3 15/15/15 13/13/13
f 2/2/2 15/15/15 3/3/3
f 2/2/2 16/16/16 15/15/15
f 16/16/16 2/2/2 17/17/17
f 6/6/6 12/12/12 18/18/18
f 5/5/5 12/12/12 6/6/6
f 5/5/5 10/10/10 12/12/12
f 8/8/8 6/6/6 9/9/9
f 8/8/8 4/4/4 6/6/6
f 9/9/9 6/6/6 19/19/19
f 12/12/12 1/1/1 3/3/3
f 12/12/12 11/11/11 1/1/1
f 12/12/12 3/3/3 20/20/20
f 21/21/21 7/7/7 9/9/9
f 21/21/21 22/22/22 7/7/7
f 22/22/22 23/23/23 7/7/7
f 21/21/21 9/9/9 24/24/24
f 25/25/25 26/26/26 14/14/14
f 25/25/25 27/27/27 26/26/26
f 13/13/13 25/25/25 14/14/14
f 20/20/20 28/28/28 18/18/18
f 12/12/12 20/20/20 18/18/18
f 6/6/6 18/18/18 19/19/19
f 18/18/18 29/29/29 19/19/19
f 20/20/20 3/3/3 14/14/14
f 14/14/14 30/30/30 20/20/20
f 31/31/31 9/9/9 19/19/19
f 31/31/31 24/24/24 9/9/9
f 31/31/31 19/19/19 32/32/32
f 33/33/33 34/34/34 26/26/26
f 33/33/33 35/35/35 34/34/34
f 27/27/27 33/33/33 26/26/26
f 30/30/30 36/36/36 28/28/28
f 20/20/20 30/30/30 28/28/28
f 18/18/18 28/28/28 29/29/29
f 28/28/28 37/37/37 29/29/29
f 30/30/30 14/14/14 26/26/26
f 26/26/26 38/38/38 30/30/30
f 39/39/39 19/19/19 29/29/29
f 39/39/39 32/32/32 19/19/19
f 39/39/39 29/29/29 40/40/40
f 41/41/41 34/34/34 42/42/42
f 41/41/41 43/43/43 34/34/34
f 43/43/43 44/44/44 34/34/34
f 34/34/34 38/38/38 26/26/26
f 45/45/45 36/36/36 38/38/38
f 45/45/45 46/46/46 36/36/36
f 36/36/36 37/37/37 28/28/28
f 37/37/37 40/40/40 29/29/29
f 37/37/37 47/47/47 40/40/40
f 48/48/48 37/37/37 36/36/36
f 48/48/48 49/49/49 37/37/37
f 30/30/30 38/38/38 36/36/36
f 50/50/50 38/38/38 34/34/34
f 50/50/50 51/51/51 38/38/38
f 52/52/52 47/47/47 37/37/37
f 35/35/35 42/42/42 34/34/34
f 53/53/53 43/43/43 41/41/41
f 51/51/51 45/45/45 38/38/38
f 49/49/49 52/52/52 37/37/37
f 49/49/49 54/54/54 52/52/52
f 48/48/48 36/36/36 46/46/46
f 50/50/50 34/34/34 44/44/44
