mtllib m211111223.mtl
usemtl material0
v -56 4.0813899040222168 -63.208992004394531
v -55.781471014022827 4.1965360641479492 -64
v -56 4.1816258430480957 -64
v -55.437473058700562 4.2501339912414551 -64
v -56 3.6517190933227539 -59.018069982528687
v -55.179150104522705 3.78410005569458 -59.0618439912796
v -56 3.9950571060180664 -62.366919994354248
v -56 3.474661111831665 -58.150100946426392
v -56 3.2477109432220459 -56.559879064559937
v -55.074989080429077 3.5546410083770752 -57.06666898727417
v -56 3.3304240703582764 -57.017105102539062
v -56 3.1535449028015137 -56.039336919784546
v -53.08008599281311 3.6587679386138916 -57.172348022460938
v -53.18464994430542 3.806196928024292 -59.167235970497131
v -49.195801019668579 3.818648099899292 -59.377918004989624
v -51.437973022460938 4.1700448989868164 -64
v -51.190144002437592 3.828779935836792 -59.272633016109467
v -51.010315001010895 4.1662530899047852 -64
v -48 3.91133189201355 -64
v -48 3.8993411064147949 -63.7142219543457
v -51.085648000240326 3.6681680679321289 -57.277698993682861
v -51.850871995091438 4.1669540405273438 -64
v -55.08135199546814 4.2522969245910645 -64
v -53.018929004669189 3.5147619247436523 -56
v -54.135257959365845 3.4331319332122803 -56
v -55.019493103027344 3.3941349983215332 -56
v -52.23547400534153 3.5133750438690186 -56
v -51.018905997276306 3.5287239551544189 -56
v -49.091232061386108 3.6726839542388916 -57.383033990859985
v -50.335814952850342 3.5263400077819824 -56
v -48 3.6857099533081055 -58.595885992050171
v -48 3.7446300983428955 -59.440825998783112
v -56 3.1471099853515625 -56
v -49.018779993057251 3.5626890659332275 -56
v -48 3.6457641124725342 -57.440571069717407
v -48 3.5504019260406494 -56
v -48 3.5711839199066162 -56.484710931777954
v -48.436141967773438 3.5459179878234863 -56
vt 0.90021699666976929 0.00864100456237793
vt 0.99872797727584839 0.036547005176544189
vt 0.99872797727584839 0.00948399305343628
vt 0.99914902448654175 0.079560995101928711
vt 0.37970000505447388 0.0055609941482543945
vt 0.38614100217819214 0.10823202133178711
vt 0.79563099145889282 0.008022010326385498
vt 0.27027300000190735 0.003291010856628418
vt 0.071759000420570374 0.0012680292129516602
vt 0.13793599605560303 0.11975997686386108
vt 0.12915800511837006 0.0023350119590759277
vt 0.0064099999144673347 5.5015087127685547E-05
vt 0.15085199475288391 0.36658400297164917
vt 0.39805701375007629 0.35473501682281494
vt 0.42141398787498474 0.84773199260234833
vt 0.99566000699996948 0.573852002620697
vt 0.40988799929618835 0.60124298930168152
vt 0.99533599615097046 0.6266930103302002
vt 0.99143999814987183 0.99994499999957043
vt 0.95609897375106812 0.99970399998710491
vt 0.16285200417041779 0.61306199431419373
vt 0.99591398239135742 0.52283400297164917
vt 0.99894201755523682 0.12356299161911011
vt 0.004881999921053648 0.37351202964782715
vt 0.0044800001196563244 0.23493701219558716
vt 0.0046100001782178879 0.12557798624038696
vt 0.0044439998455345631 0.47031098604202271
vt 0.0040139998309314251 0.620635986328125
vt 0.17450599372386932 0.85955199599266052
vt 0.0035129999741911888 0.70484098792076111
vt 0.32349899411201477 0.99534100014716387
vt 0.42814901471138 0.99567699991166592
vt 0.00085100001888349652 0.00070202350616455078
vt 0.00304200011305511 0.86762900650501251
vt 0.18067100644111633 0.99446700001135468
vt 0.0022690000478178263 0.9935699999332428
vt 0.062212001532316208 0.99388399999588728
vt 0.0025279999244958162 0.93967999890446663
vn -0.14591200649738312 0.98392999172210693 0.10291799902915955
vn -0.11809699982404709 0.98677700757980347 0.11101700365543366
vn -0.0675320029258728 0.98980200290679932 0.12542699277400971
vn -0.081909999251365662 0.99182099103927612 0.097887001931667328
vn -0.1494780033826828 0.977046012878418 0.15177899599075317
vn -0.088054001331329346 0.98912900686264038 0.11776900291442871
vn -0.15316599607467651 0.9830470085144043 0.1007860004901886
vn -0.20908400416374207 0.96779197454452515 0.14022199809551239
vn -0.2232079952955246 0.959201991558075 0.17351999878883362
vn -0.1330299973487854 0.982001006603241 0.13407899439334869
vn -0.22533500194549561 0.96271300315856934 0.14969499409198761
vn -0.23714500665664673 0.95811599493026733 0.16054800152778626
vn -0.026219999417662621 0.99438798427581787 0.10249599814414978
vn -0.0075779999606311321 0.99638098478317261 0.084657996892929077
vn 0.040738001465797424 0.99723601341247559 0.062137998640537262
vn 0.00041700000292621553 0.997406005859375 0.071979999542236328
vn 0.00090599997201934457 0.99710202217102051 0.07607799768447876
vn 0.037562999874353409 0.9974750280380249 0.060268998146057129
vn 0.084307000041008 0.99556398391723633 0.041774999350309372
vn 0.0825359970331192 0.99573200941085815 0.041290000081062317
vn -9.3000002379994839E-05 0.99554002285003662 0.094345003366470337
vn 0.0065489998087286949 0.99706798791885376 0.076237000524997711
vn 0.0062870001420378685 0.99597001075744629 0.089468002319335938
vn -0.034207999706268311 0.99174201488494873 0.12360599637031555
vn -0.051231998950242996 0.98823797702789307 0.1440889984369278
vn -0.14131200313568115 0.977836012840271 0.15449200570583344
vn -0.0020689999219030142 0.99295997619628906 0.11843600124120712
vn -0.0042739999480545521 0.99406397342681885 0.10871200263500214
vn 0.01606299914419651 0.99710500240325928 0.074323996901512146
vn -0.0048019997775554657 0.99488002061843872 0.10095000267028809
vn 0.0562250018119812 0.99653500318527222 0.061289999634027481
vn 0.0644339993596077 0.99655300378799438 0.052246998995542526
vn -0.24128100275993347 0.95772498846054077 0.15667000412940979
vn 0.0015259999781847 0.99685698747634888 0.079201996326446533
vn 0.027545999735593796 0.9980810284614563 0.055459000170230865
vn -0.01027000043541193 0.99902898073196411 0.042833000421524048
vn 0.019610999152064323 0.99738001823425293 0.069633997976779938
vn 0.018286999315023422 0.99748700857162476 0.0684489980340004
f 1/1/1 2/2/2 3/3/3
f 4/4/4 5/5/5 6/6/6
f 4/4/4 7/7/7 5/5/5
f 7/7/7 2/2/2 1/1/1
f 7/7/7 4/4/4 2/2/2
f 5/5/5 8/8/8 6/6/6
f 9/9/9 10/10/10 11/11/11
f 9/9/9 12/12/12 10/10/10
f 6/6/6 11/11/11 10/10/10
f 6/6/6 8/8/8 11/11/11
f 10/10/10 13/13/13 14/14/14
f 6/6/6 10/10/10 14/14/14
f 15/15/15 16/16/16 17/17/17
f 15/15/15 18/18/18 16/16/16
f 19/19/19 15/15/15 20/20/20
f 19/19/19 18/18/18 15/15/15
f 14/14/14 21/21/21 17/17/17
f 17/17/17 22/22/22 14/14/14
f 17/17/17 16/16/16 22/22/22
f 14/14/14 4/4/4 6/6/6
f 14/14/14 23/23/23 4/4/4
f 17/17/17 21/21/21 15/15/15
f 24/24/24 13/13/13 25/25/25
f 26/26/26 13/13/13 10/10/10
f 26/26/26 25/25/25 13/13/13
f 27/27/27 28/28/28 21/21/21
f 24/24/24 21/21/21 13/13/13
f 24/24/24 27/27/27 21/21/21
f 21/21/21 29/29/29 15/15/15
f 21/21/21 30/30/30 29/29/29
f 21/21/21 28/28/28 30/30/30
f 14/14/14 13/13/13 21/21/21
f 31/31/31 15/15/15 29/29/29
f 31/31/31 32/32/32 15/15/15
f 33/33/33 10/10/10 12/12/12
f 33/33/33 26/26/26 10/10/10
f 30/30/30 34/34/34 29/29/29
f 31/31/31 29/29/29 35/35/35
f 36/36/36 37/37/37 38/38/38
f 35/35/35 38/38/38 37/37/37
f 35/35/35 29/29/29 38/38/38
f 29/29/29 34/34/34 38/38/38
f 20/20/20 15/15/15 32/32/32
f 23/23/23 14/14/14 22/22/22
