mtllib m21111333.mtl
usemtl material0
v -14.805468082427979 6.5388550758361816 -128
v -10.563878059387207 6.56988000869751 -123.42492699623108
v -12.362186908721924 6.5540590286254883 -128
v -14.552789211273193 6.5452718734741211 -123.21420288085938
v -16 6.4964389801025391 -121.60575902462006
v -16 6.5425419807434082 -123.13777208328247
v -16 6.5365238189697266 -128
v -16 6.5391650199890137 -125.86648607254028
v -16 6.4238729476928711 -119.13751202821732
v -14.342792987823486 6.4282159805297852 -119.22503697872162
v -16 6.2899842262268066 -115.13719892501831
v -14.132871150970459 6.2960209846496582 -115.23581695556641
v -16 6.3645877838134766 -117.38321709632874
v -13.962296962738037 6.2473998069763184 -112
v -10.144241094589233 6.26350212097168 -115.44633483886719
v -13.244967937469482 6.2410011291503906 -112
v -16 6.2649021148681641 -113.48200988769531
v -14.759640216827393 6.2454609870910645 -112
v -16 6.2593560218811035 -113.116051197052
v -10.353945016860962 6.4401302337646484 -119.43571501970291
v -16 6.2212228775024414 -112
v -9.9631659984588623 6.09446382522583 -112
v -9.4459379911422729 6.1021790504455566 -112
v -6.1551070213317871 6.3335151672363281 -115.65721893310547
v -6.3650259971618652 6.4661989212036133 -119.646438986063
v -6.5751010179519653 6.5671420097351074 -123.63555097579956
v -9.3027850389480591 6.5149397850036621 -128
v -6.8057709932327271 6.5148072242736816 -128
v -2.5871977806091309 6.3866667747497559 -123.84556603431702
v -2.3764181137084961 6.4292769432067871 -119.85694900155067
v -5.9633870124816895 6.0691089630126953 -112
v -4.2199959754943848 6.3997387886047363 -128
v -5.6467189788818359 6.0690770149230957 -112
v -2.1662449836730957 6.3483490943908691 -115.8679051399231
v -1.9637060165405273 6.0242280960083008 -112
v 0 6.2271180152893066 -123.98167395591736
v 0 6.247736930847168 -122.49864196777344
v 0 6.2004318237304688 -115.98182678222656
v -1.8475360870361328 6.0158071517944336 -112
v 0 6.0461568832397461 -114.0534291267395
v 0 6.2430939674377441 -118.275848031044
v 0 6.2716660499572754 -119.98193399980664
v 0 6.1942019462585449 -126.68967390060425
v -1.4423298835754395 6.266298770904541 -128
v 0 6.1782751083374023 -128
v 0 5.9298501014709473 -112
vt 0 0.074657976627349854
vt 0.28594198822975159 0.33975797891616821
vt 0 0.2273629903793335
vt 0.2991119921207428 0.09045100212097168
vt 0.39963999390602112 0
vt 0.30388900637626648 0
vt 0 0
vt 0.13334499299526215 0
vt 0.55390501022338867 0
vt 0.54843497276306152 0.10357499122619629
vt 0.80392497777938843 0
vt 0.79776102304458618 0.11669600009918213
vt 0.66354900598526 0
vt 1 0.12735599279403687
vt 0.784604012966156 0.36598497629165649
vt 1 0.17218899726867676
vt 0.90737402439117432 0
vt 1 0.077522993087768555
vt 0.93024700880050659 0
vt 0.53526800870895386 0.35287797451019287
vt 1 0
vt 1 0.37730199098587036
vt 1 0.40962898731231689
vt 0.77142399549484253 0.61530598998069763
vt 0.52209800481796265 0.602185994386673
vt 0.27277800440788269 0.589055985212326
vt 0 0.41857600212097168
vt 0 0.57463899254798889
vt 0.25965198874473572 0.83830000460147858
vt 0.50894099473953247 0.85147400200366974
vt 1 0.62728801369667053
vt 0 0.73625001311302185
vt 1 0.64708000421524048
vt 0.75825601816177368 0.86461000144481659
vt 1 0.87726800143718719
vt 0.25114500522613525 1
vt 0.34383499622344971 1
vt 0.75113600492477417 1
vt 1 0.8845290020108223
vt 0.87166100740432739 1
vt 0.60775899887084961 1
vt 0.50112897157669067 1
vt 0.081895001232624054 1
vt 0 0.90985400229692459
vt 0 1
vt 1 1
vn -0.0055450000800192356 0.9999840259552002 -0.0010479999473318458
vn -0.00052499998128041625 0.99996501207351685 0.00836899969726801
vn 0.0043460000306367874 0.9999769926071167 -0.0051660002209246159
vn -0.0038000000640749931 0.99990397691726685 0.01333099976181984
vn -0.00077199999941512942 0.99955999851226807 0.029651999473571777
vn -0.0013569999719038606 0.99994897842407227 0.010026999749243259
vn -0.0019509999547153711 0.99999701976776123 -0.0012379999971017242
vn -0.0019509999547153711 0.99999701976776123 -0.0012379999971017242
vn -0.0010160000529140234 0.99953901767730713 0.03036000020802021
vn -0.0020320001058280468 0.99949002265930176 0.031863000243902206
vn -0.0019140000222250819 0.99968701601028442 0.024948000907897949
vn 0.0040560001507401466 0.99953997135162354 0.030060000717639923
vn -0.0011960000265389681 0.99944001436233521 0.033450998365879059
vn 0.0042909998446702957 0.99988102912902832 0.014798000454902649
vn 0.0028500000480562449 0.99925100803375244 0.038582000881433487
vn 0.038182001560926437 0.99843502044677734 0.0408720001578331
vn -0.0024319998919963837 0.99988198280334473 0.015151999890804291
vn -0.010270999744534493 0.99966198205947876 0.023862000554800034
vn -0.015308000147342682 0.99944901466369629 0.029456999152898788
vn 0.00016500000492669642 0.99937599897384644 0.03531000018119812
vn -0.019525999203324318 0.99922597408294678 0.034141000360250473
vn 0.036476999521255493 0.99822700023651123 0.047044999897480011
vn -0.0039670001715421677 0.99821597337722778 0.0595720000565052
vn -0.0022440000902861357 0.998947024345398 0.045820001512765884
vn 0.0068279998376965523 0.99967002868652344 0.024754000827670097
vn 0.020871000364422798 0.99975597858428955 0.00722600007429719
vn 0.0070639997720718384 0.99992400407791138 -0.010060999542474747
vn 0.012539000250399113 0.99984097480773926 -0.012652000412344933
vn 0.043404001742601395 0.99903601408004761 -0.006535000167787075
vn 0.029616000130772591 0.999530017375946 0.0079180002212524414
vn 0.0086899995803833 0.99739199876785278 0.071653001010417938
vn 0.045476000756025314 0.99885702133178711 -0.0147299999371171
vn 0.0057979999110102654 0.99699801206588745 0.077202998101711273
vn 0.025507999584078789 0.99832701683044434 0.0518839992582798
vn 0.01397200021892786 0.99647098779678345 0.082769997417926788
vn 0.060849998146295547 0.998058021068573 -0.013291000388562679
vn 0.063877001404762268 0.99789601564407349 -0.011114000342786312
vn 0.071225002408027649 0.99554902315139771 0.061719998717308044
vn 0.066088996827602386 0.9950529932975769 0.07416900247335434
vn 0.058862000703811646 0.99596899747848511 0.0676800012588501
vn 0.067601002752780914 0.99756401777267456 0.017210999503731728
vn 0.0662349984049797 0.9978029727935791 0.0010969999711960554
vn 0.060910999774932861 0.99806898832321167 -0.012132000178098679
vn 0.053782001137733459 0.99845302104949951 -0.014108000323176384
vn 0.060910999774932861 0.99807000160217285 -0.012130999937653542
vn 0.0464010015130043 0.99732398986816406 0.056488998234272
f 1/1/1 2/2/2 3/3/3
f 1/1/1 4/4/4 2/2/2
f 5/5/5 4/4/4 6/6/6
f 7/7/7 4/4/4 1/1/1
f 7/7/7 8/8/8 4/4/4
f 8/8/8 6/6/6 4/4/4
f 4/4/4 9/9/9 10/10/10
f 4/4/4 5/5/5 9/9/9
f 10/10/10 11/11/11 12/12/12
f 10/10/10 13/13/13 11/11/11
f 14/14/14 15/15/15 12/12/12
f 14/14/14 16/16/16 15/15/15
f 13/13/13 10/10/10 9/9/9
f 11/11/11 14/14/14 12/12/12
f 11/11/11 17/17/17 14/14/14
f 17/17/17 18/18/18 14/14/14
f 17/17/17 19/19/19 18/18/18
f 10/10/10 12/12/12 20/20/20
f 21/21/21 18/18/18 19/19/19
f 4/4/4 10/10/10 2/2/2
f 22/22/22 15/15/15 16/16/16
f 23/23/23 15/15/15 22/22/22
f 23/23/23 24/24/24 15/15/15
f 15/15/15 25/25/25 20/20/20
f 20/20/20 12/12/12 15/15/15
f 10/10/10 20/20/20 2/2/2
f 2/2/2 20/20/20 26/26/26
f 27/27/27 3/3/3 2/2/2
f 28/28/28 2/2/2 26/26/26
f 28/28/28 27/27/27 2/2/2
f 25/25/25 15/15/15 24/24/24
f 25/25/25 29/29/29 26/26/26
f 24/24/24 30/30/30 25/25/25
f 31/31/31 24/24/24 23/23/23
f 32/32/32 26/26/26 29/29/29
f 32/32/32 28/28/28 26/26/26
f 26/26/26 20/20/20 25/25/25
f 24/24/24 33/33/33 34/34/34
f 24/24/24 31/31/31 33/33/33
f 25/25/25 30/30/30 29/29/29
f 35/35/35 34/34/34 33/33/33
f 36/36/36 30/30/30 37/37/37
f 36/36/36 29/29/29 30/30/30
f 38/38/38 39/39/39 40/40/40
f 38/38/38 34/34/34 39/39/39
f 34/34/34 35/35/35 39/39/39
f 41/41/41 30/30/30 34/34/34
f 41/41/41 42/42/42 30/30/30
f 30/30/30 24/24/24 34/34/34
f 43/43/43 29/29/29 36/36/36
f 43/43/43 44/44/44 29/29/29
f 43/43/43 45/45/45 44/44/44
f 37/37/37 30/30/30 42/42/42
f 44/44/44 32/32/32 29/29/29
f 40/40/40 39/39/39 46/46/46
f 41/41/41 34/34/34 38/38/38
