mtllib m211001.mtl
usemtl material0
v -442.81082153320312 7.254457950592041 -64
v -435.04510498046875 7.14553689956665 -57.012386322021484
v -435.41213989257812 7.5135478973388672 -64
v -448 6.5564560890197754 -40.326869964599609
v -434.204833984375 6.7239561080932617 -41.055892944335938
v -448 6.6181812286376953 -42.614288330078125
v -448 6.6925492286682129 -56.326824188232422
v -419.09448194503784 6.1990828514099121 -57.851661682128906
v -448 6.4507589340209961 -38.267929077148438
v -433.36642456054688 5.9126567840576172 -25.098056793212891
v -448 6.8320121765136719 -59.038856506347656
v -448 7.0871319770812988 -64
v -448 6.2595329284667969 -8.3268928527832031
v -432.5208740234375 6.5905160903930664 -9.145355224609375
v -448 6.238677978515625 -8.8325576782226562
v -448 6.01710319519043 -24.325632095336914
v -417.41055297851562 6.0657930374145508 -25.941132068634033
v -432.03732299804688 6.74337100982666 0
v -448 6.2636728286743164 -8.0604438781738281
v -439.24755859375 6.5832729339599609 0
v -448 6.2666020393371582 -7.8720302581787109
v -418.25341796875 5.9405851364135742 -41.895732879638672
v -428.75881958007812 6.8499369621276855 -64
v -419.41861009597778 6.2900080680847168 -64
v -413.56359910964966 5.7210087776184082 -64
v -403.42526245117188 5.031682014465332 -64
v -403.14462280273438 5.1006999015808105 -58.690414428710938
v -398.36819458007812 4.7288961410522461 -64
v -402.30288696289062 4.9813590049743652 -42.734970092773438
v -384 4.31315279006958 -63.079463958740234
v -387.42864990234375 4.4300951957702637 -64
v -387.19174194335938 4.6267428398132324 -59.531322479248047
v -384 4.2703709602355957 -64
v -384 4.4967269897460938 -59.6994514465332
v -386.34649658203125 5.2456707954406738 -43.57843017578125
v -384 5.1658902168273926 -43.702083587646484
v -385.5025634765625 5.5866961479187012 -27.624573230743408
v -384 5.4988389015197754 -29.294806957244873
v -401.45697021484375 5.7398581504821777 -26.782555103302002
v -384 5.0486011505126953 -46.186870574951172
v -416.56457501649857 6.8354458808898926 -9.9887466430664062
v -400.60821533203125 7.0900678634643555 -10.832168579101563
v -384.65447998046875 6.79579496383667 -11.673700332641602
v -384 5.5784730911254883 -27.703892230987549
v -384 6.739628791809082 -12.4012451171875
v -384.03311157226562 7.817169189453125 0
v -388.5615234375 7.8796219825744629 0
v -400.03179931640625 8.0059700012207031 0
v -405.45303344726562 7.8955440521240234 0
v -384 6.75803279876709 -11.708141326904297
v -384 6.8032422065734863 -11.21391487121582
v -384 6.8150320053100586 -11.085020065307617
v -416.03421000018716 7.4451498985290527 0
v -422.34954786300659 7.3281631469726562 0
v -448 6.4030971527099609 0
v -384 7.8154540061950684 0
vt 0.07988400012254715 0.029186010360717773
vt 0.20091600716114044 0.13056397438049316
vt 0.19168700277805328 0.025076985359191895
vt 0.014329999685287476 0.38974601030349731
vt 0.22145800292491913 0.37124401330947876
vt 0.013086000457406044 0.35518801212310791
vt 0.0055309999734163284 0.14809697866439819
vt 0.44187799096107483 0.11038702726364136
vt 0.015444000251591206 0.420881986618042
vt 0.24226699769496918 0.6121479868888855
vt 0.0040980000048875809 0.1070830225944519
vt 0.001475999946705997 0.032055974006652832
vt 0.029512999579310417 0.87273399531841278
vt 0.26297500729560852 0.85289500653743744
vt 0.030569000169634819 0.86558300256729126
vt 0.022317999973893166 0.63157001137733459
vt 0.48238900303840637 0.59163200855255127
vt 0.27474400401115417 0.990811999887228
vt 0.029642999172210693 0.87675900012254715
vt 0.16581100225448608 0.99429399985820055
vt 0.029735000804066658 0.8796050027012825
vt 0.46229499578475952 0.35101699829101562
vt 0.29268699884414673 0.022056996822357178
vt 0.43402299284935 0.01766502857208252
vt 0.52288001775741577 0.014939010143280029
vt 0.67637401819229126 0.010245978832244873
vt 0.68298500776290894 0.090331017971038818
vt 0.75289899110794067 0.0079159736633300781
vt 0.70326602458953857 0.33082997798919678
vt 0.97044700384140015 0.015397012233734131
vt 0.9182090163230896 0.0030480027198791504
vt 0.92369502782821655 0.070517003536224365
vt 0.9700549840927124 0.0014759898185729981
vt 0.971792995929718 0.065612971782684326
vt 0.94391202926635742 0.31048202514648438
vt 0.97931301593780518 0.30745601654052734
vt 0.96435302495956421 0.55110499262809753
vt 0.98625600337982178 0.52512899041175842
vt 0.72304397821426392 0.57170599699020386
vt 0.97815299034118652 0.26988899707794189
vt 0.50216597318649292 0.83251500129699707
vt 0.74289000034332275 0.81313799321651459
vt 0.98353099822998047 0.79313500225543976
vt 0.98701101541519165 0.5491890013217926
vt 0.99312698841094971 0.78184999525547028
vt 0.99802297353744507 0.96987899951636791
vt 0.929639995098114 0.9719030000269413
vt 0.756367027759552 0.977097999304533
vt 0.67655599117279053 0.97684399969875813
vt 0.99341899156570435 0.7923240065574646
vt 0.99362999200820923 0.79977700114250183
vt 0.9936860203742981 0.80173300206661224
vt 0.51663601398468018 0.9832760002464056
vt 0.42122998833656311 0.98634000029414892
vt 0.033581998199224472 0.998524000053294
vt 0.998524010181427 0.96986199915409088
vn -0.032830998301506042 0.998104989528656 0.052044998854398727
vn 0.020973000675439835 0.99931597709655762 0.030470000579953194
vn 0.02985600009560585 0.99825197458267212 0.051006000488996506
vn -0.010042999871075153 0.99916797876358032 0.039533998817205429
vn 0.021632999181747437 0.99911201000213623 0.036166001111269
vn -0.016299000009894371 0.99962598085403442 0.02194800041615963
vn -0.033472999930381775 0.99905902147293091 0.027595000341534615
vn 0.065522998571395874 0.99781298637390137 0.0087360003963112831
vn -0.00456599984318018 0.9989359974861145 0.045889001339673996
vn 2.5999999706982635E-05 0.99999797344207764 -0.0020069999154657125
vn -0.032186001539230347 0.99816298484802246 0.051329001784324646
vn -0.032186001539230347 0.99816298484802246 0.051329001784324646
vn -0.022846000269055367 0.999347984790802 -0.027940999716520309
vn -0.02498600073158741 0.9990919828414917 -0.034501001238822937
vn -0.016561999917030334 0.99925297498703 -0.034928999841213226
vn 0.0075400001369416714 0.99994200468063354 0.0076350001618266106
vn 0.0079239998012781143 0.99943399429321289 -0.032687000930309296
vn -0.041877001523971558 0.99901801347732544 -0.01448300015181303
vn -0.022196000441908836 0.99963301420211792 -0.015533999539911747
vn -0.021818999201059341 0.99963498115539551 -0.015954000875353813
vn -0.021763000637292862 0.99963498115539551 -0.016016000881791115
vn 0.047692000865936279 0.99882197380065918 0.0089859999716281891
vn 0.070347003638744354 0.99729901552200317 0.021097000688314438
vn 0.077661998569965363 0.99692302942276 0.01064900029450655
vn 0.0755309984087944 0.99709701538085938 -0.009584999643266201
vn 0.063925996422767639 0.99782097339630127 -0.016349999234080315
vn 0.046521000564098358 0.99880701303482056 -0.014864999800920486
vn 0.035937998443841934 0.99864602088928223 -0.037601001560688019
vn 0.020524999126791954 0.99971997737884521 -0.011788999661803246
vn 0.044461999088525772 0.99784797430038452 -0.04819599911570549
vn 0.036568000912666321 0.998278021812439 -0.045869000256061554
vn 0.033872999250888824 0.998449981212616 -0.044165998697280884
vn 0.046484000980854034 0.997842013835907 -0.046374998986721039
vn 0.0381460003554821 0.99813199043273926 -0.047717999666929245
vn 0.013958999887108803 0.999567985534668 -0.025862999260425568
vn 0.0320889987051487 0.99885398149490356 -0.035523001104593277
vn 0.0059239999391138554 0.99837201833724976 -0.0567299984395504
vn 0.025785999372601509 0.999235987663269 -0.029363999143242836
vn 0.0071970000863075256 0.99806302785873413 -0.061788000166416168
vn 0.036878999322652817 0.99842602014541626 -0.042256001383066177
vn -0.017237000167369843 0.99798297882080078 -0.061094000935554504
vn -0.0046239998191595078 0.99651199579238892 -0.083324000239372253
vn 0.027272999286651611 0.99669897556304932 -0.076463997364044189
vn 0.0021679999772459269 0.99804902076721191 -0.0623989999294281
vn 0.01422400027513504 0.9978330135345459 -0.064235001802444458
vn 0.033238999545574188 0.99548900127410889 -0.088867001235485077
vn 0.01309099979698658 0.99610799551010132 -0.0871649980545044
vn -0.0041290000081062317 0.99645400047302246 -0.08403400331735611
vn -0.025459000840783119 0.99667102098464966 -0.077454999089241028
vn 0.054483998566865921 0.99685102701187134 -0.057619001716375351
vn 0.052590999752283096 0.99446398019790649 -0.090966999530792236
vn 0.051794998347759247 0.99458599090576172 -0.090085998177528381
vn -0.030890999361872673 0.997763991355896 -0.059262000024318695
vn -0.028220999985933304 0.99839299917221069 -0.049141000956296921
vn -0.020578999072313309 0.999638020992279 -0.017333000898361206
vn 0.051523000001907349 0.99462902545928955 -0.089764997363090515
f 1/1/1 2/2/2 3/3/3
f 2/2/2 4/4/4 5/5/5
f 2/2/2 6/6/6 4/4/4
f 6/6/6 2/2/2 7/7/7
f 2/2/2 5/5/5 8/8/8
f 5/5/5 9/9/9 10/10/10
f 5/5/5 4/4/4 9/9/9
f 1/1/1 7/7/7 2/2/2
f 1/1/1 11/11/11 7/7/7
f 11/11/11 1/1/1 12/12/12
f 10/10/10 13/13/13 14/14/14
f 10/10/10 15/15/15 13/13/13
f 15/15/15 10/10/10 16/16/16
f 10/10/10 14/14/14 17/17/17
f 13/13/13 18/18/18 14/14/14
f 13/13/13 19/19/19 18/18/18
f 19/19/19 20/20/20 18/18/18
f 19/19/19 21/21/21 20/20/20
f 9/9/9 16/16/16 10/10/10
f 22/22/22 5/5/5 10/10/10
f 23/23/23 3/3/3 2/2/2
f 8/8/8 23/23/23 2/2/2
f 8/8/8 24/24/24 23/23/23
f 24/24/24 8/8/8 25/25/25
f 26/26/26 27/27/27 28/28/28
f 27/27/27 25/25/25 8/8/8
f 27/27/27 26/26/26 25/25/25
f 27/27/27 8/8/8 29/29/29
f 30/30/30 31/31/31 32/32/32
f 30/30/30 33/33/33 31/31/31
f 30/30/30 32/32/32 34/34/34
f 32/32/32 28/28/28 27/27/27
f 32/32/32 31/31/31 28/28/28
f 32/32/32 27/27/27 35/35/35
f 17/17/17 22/22/22 10/10/10
f 22/22/22 17/17/17 29/29/29
f 35/35/35 27/27/27 29/29/29
f 22/22/22 29/29/29 8/8/8
f 36/36/36 37/37/37 38/38/38
f 36/36/36 35/35/35 37/37/37
f 29/29/29 17/17/17 39/39/39
f 35/35/35 34/34/34 32/32/32
f 35/35/35 40/40/40 34/34/34
f 29/29/29 37/37/37 35/35/35
f 39/39/39 41/41/41 42/42/42
f 41/41/41 39/39/39 17/17/17
f 37/37/37 42/42/42 43/43/43
f 42/42/42 37/37/37 39/39/39
f 43/43/43 44/44/44 37/37/37
f 43/43/43 45/45/45 44/44/44
f 42/42/42 46/46/46 43/43/43
f 42/42/42 47/47/47 46/46/46
f 29/29/29 39/39/39 37/37/37
f 41/41/41 48/48/48 42/42/42
f 41/41/41 49/49/49 48/48/48
f 40/40/40 35/35/35 36/36/36
f 41/41/41 17/17/17 14/14/14
f 50/50/50 45/45/45 43/43/43
f 44/44/44 38/38/38 37/37/37
f 50/50/50 43/43/43 51/51/51
f 51/51/51 43/43/43 52/52/52
f 22/22/22 8/8/8 5/5/5
f 14/14/14 53/53/53 41/41/41
f 14/14/14 54/54/54 53/53/53
f 55/55/55 20/20/20 21/21/21
f 53/53/53 49/49/49 41/41/41
f 46/46/46 52/52/52 43/43/43
f 46/46/46 56/56/56 52/52/52
f 47/47/47 42/42/42 48/48/48
f 54/54/54 14/14/14 18/18/18
