mtllib m2111002.mtl
usemtl material0
v -256 3.473762035369873 -58.455750465393066
v -256 3.7555379867553711 -53.328639984130859
v -251.15731811523438 3.5185120105743408 -58.711624145507812
v -256 3.9762320518493652 -50.457602977752686
v -256 4.2376718521118164 -44.882107019424438
v -250.73313903808594 4.1470518112182617 -50.736279010772705
v -256 3.4031898975372314 -61.774921417236328
v -253.99813842773438 3.376629114151001 -64
v -256 3.3861119747161865 -64
v -256 5.1044120788574219 -32
v -252.39114379882813 5.3004360198974609 -32
v -256 4.9232850074768066 -33.557056427001953
v -249.88616943359375 5.11257791519165 -34.784580230712891
v -256 4.8181571960449219 -34.460784912109375
v -256 4.6469011306762695 -36.435714721679688
v -250.31077575683594 4.3986282348632812 -42.7596321105957
v -256 4.3119339942932129 -42.458922863006592
v -235.43217515945435 4.4563469886779785 -64
v -240.14047199487686 3.8899819850921631 -64
v -235.19625902175903 4.7430291175842285 -59.558403015136719
v -243.43675208091736 3.5075531005859375 -64
v -248.5894775390625 3.5221710205078125 -64
v -243.17817711830139 3.8436760902404785 -59.134017944335938
v -242.75114393234253 5.061072826385498 -51.160708904266357
v -242.32939100265503 5.187650203704834 -43.183628082275391
v -251.43707275390625 3.4031720161437988 -64
v -249.73808288574219 5.3294539451599121 -32
v -241.90611302852631 5.62914514541626 -35.207633972167969
v -244.79196214675903 5.669093132019043 -32
v -234.77044677734375 5.70554780960083 -51.584208965301514
v -234.34745788574219 6.0860271453857422 -43.608002185821533
v -226.79190063476563 5.9076290130615234 -52.006179809570312
v -233.92719984054565 5.9044861793518066 -35.629856109619141
v -226.36883544921875 6.3037328720092773 -44.030029058456421
v -227.21487426757813 5.5290842056274414 -59.982391357421875
v -233.73492383956909 6.03272819519043 -32
v -238.33879101276398 5.8657159805297852 -32
v -241.73600804805756 5.78154993057251 -32
v -229.59375 6.3072547912597656 -32
v -225.94712829589844 6.4200382232666016 -36.052909851074219
v -231.19961452484131 5.0408282279968262 -64
v -227.42753601074219 5.41686487197876 -64
v -224 5.5116138458251953 -64
v -224 5.5233750343322754 -63.555660247802734
v -224 5.6402058601379395 -60.152515411376953
v -224 5.80224084854126 -57.092136383056641
v -224 6.0249710083007812 -52.153987884521484
v -224 6.1161341667175293 -49.495964050292969
v -224 6.3724222183227539 -44.155338048934937
v -224 6.4789857864379883 -41.900177001953125
v -224 6.4905309677124023 -35.092315673828125
v -224 6.4512767791748047 -34.301338195800781
v -224 6.5433259010314941 -36.156124114990234
v -224 6.476463794708252 -32
v -225.73294067382813 6.46572208404541 -32
vt 0.79566401243209839 0.0097900032997131348
vt 0.64165300130844116 0.015192985534667969
vt 0.80835002660751343 0.15478301048278809
vt 0.55528801679611206 0.018267989158630371
vt 0.38787201046943665 0.024052023887634277
vt 0.56885802745819092 0.17605900764465332
vt 0.89524197578430176 0.0063340067863464355
vt 0.9640660285949707 0.064064979553222656
vt 0.961982011795044 0.004020988941192627
vt 0.00045900000259280205 0.0375630259513855
vt 0.0039269998669624329 0.14356499910354614
vt 0.047485001385211945 0.036193013191223145
vt 0.09003700315952301 0.21604198217391968
vt 0.074771001935005188 0.035175979137420654
vt 0.13421699404716492 0.032791972160339355
vt 0.32978400588035583 0.1953200101852417
vt 0.31515601277351379 0.026534020900726318
vt 0.980696976184845 0.623319000005722
vt 0.97725898027420044 0.48103702068328857
vt 0.8474079966545105 0.63460001349449158
vt 0.97479599714279175 0.38112097978591919
vt 0.96960800886154175 0.22637301683425903
vt 0.82876497507095337 0.39391601085662842
vt 0.58744102716445923 0.41679900884628296
vt 0.34841001033782959 0.43563997745513916
vt 0.96671497821807861 0.14088600873947144
vt 0.0063970000483095646 0.22315502166748047
vt 0.10916499793529511 0.45561301708221436
vt 0.010366000235080719 0.37189400196075439
vt 0.60701900720596313 0.65663298964500427
vt 0.36737200617790222 0.67629599571228027
vt 0.62744200229644775 0.895625002682209
vt 0.12808400392532349 0.69480600953102112
vt 0.38743901252746582 0.91533199697732925
vt 0.86652898788452148 0.87487199902534485
vt 0.01927500031888485 0.70355099439620972
vt 0.015672000125050545 0.56533598899841309
vt 0.012988000176846981 0.46363401412963867
vt 0.02239999920129776 0.82806900143623352
vt 0.14765399694442749 0.93434000015258789
vt 0.983892023563385 0.75125500559806824
vt 0.98691600561141968 0.864983007311821
vt 0.98983198404312134 0.96784799918532372
vt 0.97686302661895752 0.96780399978160858
vt 0.87472397089004517 0.97120100073516369
vt 0.78280097246170044 0.97432100027799606
vt 0.63453000783920288 0.97930699959397316
vt 0.55475497245788574 0.98195100016891956
vt 0.39323100447654724 0.98631899990141392
vt 0.32550400495529175 0.98835199978202581
vt 0.1203479990363121 0.99354200018569827
vt 0.096587002277374268 0.9940999997779727
vt 0.152305006980896 0.99279099982231855
vt 0.02715500071644783 0.99597899988293648
vt 0.025794999673962593 0.943987000733614
vn -0.011273999698460102 0.99918997287750244 -0.038630001246929169
vn -0.030720999464392662 0.99696499109268188 -0.071535997092723846
vn -0.030249999836087227 0.99849802255630493 -0.0456789992749691
vn -0.0355909988284111 0.99748897552490234 -0.061227999627590179
vn -0.021050000563263893 0.99918597936630249 -0.034405998885631561
vn -0.065084002912044525 0.9958990216255188 -0.062843002378940582
vn -0.0068399999290704727 0.9998130202293396 -0.018089000135660172
vn -0.0063330000266432762 0.99982398748397827 -0.017633000388741493
vn 0.0047369999811053276 0.99995899200439453 -0.0076750000007450581
vn -0.053874999284744263 0.99185901880264282 -0.11537999659776688
vn -0.042383000254631042 0.993552029132843 -0.10515499860048294
vn -0.053874999284744263 0.99185901880264282 -0.11537999659776688
vn -0.059565998613834381 0.99493199586868286 -0.081010997295379639
vn -0.0532039999961853 0.99343401193618774 -0.10127899795770645
vn -0.044482000172138214 0.995872974395752 -0.079115003347396851
vn -0.065444998443126678 0.99656802415847778 -0.050693999975919724
vn -0.0175199992954731 0.99889999628067017 -0.0434890016913414
vn -0.12757200002670288 0.99018198251724243 -0.057135000824928284
vn -0.11599499732255936 0.99135798215866089 -0.061278000473976135
vn -0.11027400195598602 0.9901919960975647 -0.085782997310161591
vn -0.054058998823165894 0.9963570237159729 -0.065952003002166748
vn -0.031353998929262161 0.99902302026748657 -0.03113899938762188
vn -0.083954997360706329 0.992385983467102 -0.090118996798992157
vn -0.10275600105524063 0.99182701110839844 -0.075629003345966339
vn -0.098894000053405762 0.994359016418457 -0.038350000977516174
vn -0.025522999465465546 0.99946498870849609 -0.020447999238967896
vn -0.040649998933076859 0.996321976184845 -0.075436003506183624
vn -0.056095998734235764 0.99758899211883545 -0.040853001177310944
vn -0.059886999428272247 0.99600201845169067 -0.066284000873565674
vn -0.06933099776506424 0.99535101652145386 -0.066859997808933258
vn -0.060633998364210129 0.99797701835632324 -0.019130000844597816
vn -0.034612998366355896 0.99839699268341064 -0.044776998460292816
vn -0.045272000133991241 0.99893802404403687 -0.0085260001942515373
vn -0.038628999143838882 0.9988129734992981 -0.029656000435352325
vn -0.059459999203681946 0.99719101190567017 -0.045538000762462616
vn -0.051697999238967896 0.99813300371170044 -0.032524999231100082
vn -0.033555001020431519 0.99877601861953735 -0.036343999207019806
vn -0.030532000586390495 0.99848300218582153 -0.04582199826836586
vn -0.059422999620437622 0.997901976108551 -0.025697000324726105
vn -0.05395900085568428 0.99852597713470459 -0.00585199985653162
vn -0.10917799919843674 0.99351900815963745 -0.031628001481294632
vn -0.064680002629756927 0.99760699272155762 -0.024441000074148178
vn -0.027622999623417854 0.99926799535751343 -0.026449000462889671
vn -0.029657000675797462 0.99915999174118042 -0.028279000893235207
vn -0.036798000335693359 0.998386025428772 -0.043260999023914337
vn -0.042452998459339142 0.99798798561096191 -0.047099001705646515
vn -0.044061999768018723 0.99823498725891113 -0.039804998785257339
vn -0.034763000905513763 0.99841499328613281 -0.044266998767852783
vn -0.031465001404285431 0.99837297201156616 -0.04755600169301033
vn -0.055167999118566513 0.9982609748840332 -0.020782999694347382
vn -0.06050100177526474 0.9969409704208374 0.049476001411676407
vn -0.020725000649690628 0.99977201223373413 0.00520800007507205
vn -0.062224999070167542 0.99789798259735107 0.018113000318408012
vn -0.0061980001628398895 0.99992102384567261 -0.010943000204861164
vn -0.023019000887870789 0.99968498945236206 -0.010052000172436237
f 1/1/1 2/2/2 3/3/3
f 4/4/4 5/5/5 6/6/6
f 7/7/7 8/8/8 9/9/9
f 10/10/10 11/11/11 12/12/12
f 12/12/12 13/13/13 14/14/14
f 12/12/12 11/11/11 13/13/13
f 15/15/15 16/16/16 17/17/17
f 18/18/18 19/19/19 20/20/20
f 21/21/21 22/22/22 23/23/23
f 4/4/4 3/3/3 2/2/2
f 4/4/4 6/6/6 3/3/3
f 3/3/3 6/6/6 23/23/23
f 24/24/24 6/6/6 16/16/16
f 6/6/6 24/24/24 23/23/23
f 23/23/23 24/24/24 20/20/20
f 24/24/24 16/16/16 25/25/25
f 22/22/22 3/3/3 23/23/23
f 22/22/22 26/26/26 3/3/3
f 17/17/17 6/6/6 5/5/5
f 17/17/17 16/16/16 6/6/6
f 27/27/27 13/13/13 11/11/11
f 27/27/27 28/28/28 13/13/13
f 27/27/27 29/29/29 28/28/28
f 25/25/25 13/13/13 28/28/28
f 16/16/16 13/13/13 25/25/25
f 30/30/30 24/24/24 25/25/25
f 14/14/14 16/16/16 15/15/15
f 14/14/14 13/13/13 16/16/16
f 31/31/31 30/30/30 25/25/25
f 24/24/24 30/30/30 20/20/20
f 28/28/28 31/31/31 25/25/25
f 31/31/31 32/32/32 30/30/30
f 33/33/33 34/34/34 31/31/31
f 33/33/33 31/31/31 28/28/28
f 20/20/20 30/30/30 35/35/35
f 36/36/36 28/28/28 37/37/37
f 36/36/36 33/33/33 28/28/28
f 37/37/37 28/28/28 38/38/38
f 33/33/33 39/39/39 40/40/40
f 33/33/33 36/36/36 39/39/39
f 38/38/38 28/28/28 29/29/29
f 19/19/19 23/23/23 20/20/20
f 19/19/19 21/21/21 23/23/23
f 18/18/18 20/20/20 41/41/41
f 1/1/1 8/8/8 7/7/7
f 1/1/1 3/3/3 8/8/8
f 3/3/3 26/26/26 8/8/8
f 35/35/35 41/41/41 20/20/20
f 35/35/35 42/42/42 41/41/41
f 43/43/43 35/35/35 44/44/44
f 43/43/43 42/42/42 35/35/35
f 45/45/45 44/44/44 35/35/35
f 45/45/45 35/35/35 46/46/46
f 47/47/47 32/32/32 48/48/48
f 46/46/46 32/32/32 47/47/47
f 46/46/46 35/35/35 32/32/32
f 49/49/49 34/34/34 50/50/50
f 48/48/48 34/34/34 49/49/49
f 48/48/48 32/32/32 34/34/34
f 34/34/34 32/32/32 31/31/31
f 51/51/51 40/40/40 52/52/52
f 51/51/51 53/53/53 40/40/40
f 50/50/50 40/40/40 53/53/53
f 50/50/50 34/34/34 40/40/40
f 54/54/54 40/40/40 55/55/55
f 54/54/54 52/52/52 40/40/40
f 55/55/55 40/40/40 39/39/39
f 40/40/40 34/34/34 33/33/33
f 32/32/32 35/35/35 30/30/30
