mtllib m21111213.mtl
usemtl material0
v -77.124160766601562 4.6744871139526367 -96
v -77.224831104278564 4.670133113861084 -96
v -77.119185924530029 4.6667637825012207 -95.9049220085144
v -80 4.527656078338623 -95.752349853515625
v -80 4.1718912124633789 -92.703940868377686
v -73.234153985977173 4.7872838973999023 -96
v -76.9113621711731 4.1043758392333984 -91.914215087890625
v -75.322577953338623 4.729773998260498 -96
v -73.123664975166321 4.7906808853149414 -96
v -72.921828985214233 4.25649881362915 -92.1253809928894
v -80 4.0368709564208984 -91.750893115997314
v -80 4.5300741195678711 -95.781089782714844
v -80 4.5484929084777832 -96
v -80 3.9971609115600586 -90.892883062362671
v -76.7016749382019 3.9238131046295166 -87.924828000366688
v -69.122261047363281 5.08618688583374 -96
v -68.930907964706421 4.6927919387817383 -92.337532043457031
v -69.434401988983154 5.0539350509643555 -96
v -65.634888172149658 5.1879539489746094 -96
v -68.722824096679688 4.1850872039794922 -88.347007989883423
v -65.12164306640625 5.2263989448547363 -96
v -64.940589904785156 5.0060358047485352 -92.549248218536377
v -64 5.23878812789917 -96
v -64.551247119903564 5.225700855255127 -96
v -64 5.1933708190917969 -95.5037989616394
v -72.712577998638153 3.9875590801239014 -88.1356890052557
v -80 3.4874510765075684 -84.259681940078735
v -80 3.7379100322723389 -87.750061005353928
v -80 2.9814729690551758 -80.037879943847656
v -76.492165088653564 3.7076010704040527 -83.935326099395752
v -80 3.4579648971557617 -83.749282836914062
v -72.503372013568878 3.7088479995727539 -84.145966053009033
v -80 2.9781510829925537 -80
v -76.286048889160156 3.385019063949585 -80
v -72.292746990919113 3.7196779251098633 -80.157241821289062
v -72.28447699546814 3.71390700340271 -80
v -72.4342580139637 3.6997880935668945 -80
v -75.255156993865967 3.4679150581359863 -80
v -68.634322881698608 4.0677928924560547 -80
v -68.302025079727173 4.1154441833496094 -80.369246959686279
v -68.51233696937561 4.1680898666381836 -84.3581919670105
v -64.732223987579346 4.5564351081848145 -88.558937013149261
v -64 4.6451740264892578 -89.372604012489319
v -64 4.5950140953063965 -88.597724974155426
v -64 5.0080537796020508 -92.598929882049561
v -64 4.5517277717590332 -87.900123998522758
v -64.522040843963623 4.4759631156921387 -84.569892883300781
v -64.311637878417969 4.4423599243164062 -80.5810170173645
v -64 4.4495420455932617 -80.9273829460144
v -64 4.4458889961242676 -80.597487926483154
v -64 4.4829611778259277 -84.597487926483154
v -64.281035900115967 4.428290843963623 -80
v -67.891410827636719 4.1379590034484863 -80
v -68.282608032226562 4.0996341705322266 -80
v -64 4.4457268714904785 -80.5360951423645
v -64 4.4451031684875488 -80.300666809082031
v -64 4.4373140335083008 -80
vt 0 0.17974001169204712
vt 0 0.17344802618026733
vt 0.005942000076174736 0.18005102872848511
vt 0.015478000044822693 0
vt 0.20600399374961853 0
vt 0 0.42286497354507446
vt 0.25536200404167175 0.19304001331329346
vt 0 0.292339026927948
vt 0 0.42977100610733032
vt 0.2421640008687973 0.4423859715461731
vt 0.26556900143623352 0
vt 0.01368200033903122 0
vt 0 0
vt 0.31919500231742859 0
vt 0.50469797849655151 0.20614498853683472
vt 0 0.67985901236534119
vt 0.22890399396419525 0.6918179988861084
vt 0 0.66034999489784241
vt 0 0.89782000333070755
vt 0.47831198573112488 0.70482298731803894
vt 0 0.9298970028758049
vt 0.21567200124263763 0.94121300056576729
vt 0 1
vt 0 0.96554699912667274
vt 0.031013000756502151 1
vt 0.49151900410652161 0.45546400547027588
vt 0.73377001285552979 0
vt 0.5156210064888 0
vt 0.99763298034667969 0
vt 0.75404202938079834 0.21924000978469849
vt 0.76567000150680542 0
vt 0.74087697267532349 0.46853899955749512
vt 1 0
vt 1 0.232122004032135
vt 0.99017202854156494 0.481702983379364
vt 1 0.48221999406814575
vt 1 0.47285902500152588
vt 1 0.29655301570892334
vt 1 0.7103550136089325
vt 0.97692197561264038 0.73112300038337708
vt 0.72761297225952148 0.71797901391983032
vt 0.46506598591804504 0.95423600077629089
vt 0.41421198844909668 1
vt 0.46264201402664185 1
vt 0.21256700158119202 1
vt 0.50624197721481323 1
vt 0.714381992816925 0.96737200021743774
vt 0.96368598937988281 0.98052299953997135
vt 0.94203901290893555 1
vt 0.96265697479248047 1
vt 0.71265697479248047 1
vt 1 0.98243499919772148
vt 1 0.7567870020866394
vt 1 0.73233699798583984
vt 0.96649402379989624 1
vt 0.98120802640914917 1
vt 1 1
vn -0.031230000779032707 0.996097981929779 0.082548998296260834
vn -0.043630000203847885 0.99553102254867554 0.083756998181343079
vn -0.025655999779701233 0.99058002233505249 0.13450999557971954
vn -0.041861999779939651 0.9925379753112793 0.11452800035476685
vn -0.035213001072406769 0.9919469952583313 0.12166400253772736
vn -0.027341999113559723 0.98965901136398315 0.14080700278282166
vn -0.023600000888109207 0.99515002965927124 0.09549800306558609
vn -0.028795000165700912 0.99306297302246094 0.11400199681520462
vn -0.049394000321626663 0.98906898498535156 0.138933002948761
vn -0.0641539990901947 0.99193298816680908 0.10933200269937515
vn -0.0149940000846982 0.99186599254608154 0.1263979971408844
vn -0.043636001646518707 0.99553000926971436 0.083761997520923614
vn -0.043636001646518707 0.99553000926971436 0.083761997520923614
vn -0.03254999965429306 0.99761801958084106 0.060825001448392868
vn -0.034320000559091568 0.99771898984909058 0.058122001588344574
vn -0.069659002125263214 0.99147200584411621 0.1101360023021698
vn -0.077081002295017242 0.99096000194549561 0.10980299860239029
vn -0.07294899970293045 0.98779201507568359 0.13763900101184845
vn -0.034839998930692673 0.99406701326370239 0.10304299741983414
vn -0.078946001827716827 0.994388997554779 0.070412002503871918
vn -0.066122002899646759 0.99555701017379761 0.067045003175735474
vn -0.0624379999935627 0.99287497997283936 0.10149600356817246
vn -0.023636000230908394 0.9955589771270752 0.091123998165130615
vn -0.0003499999875202775 0.997859001159668 0.0654039978981018
vn -0.0001140000022132881 0.997875988483429 0.065144002437591553
vn -0.024814000353217125 0.99767398834228516 0.063488997519016266
vn -0.061291001737117767 0.996101975440979 0.063436001539230347
vn -0.052067000418901443 0.99570798873901367 0.07651200145483017
vn -0.064156003296375275 0.98986697196960449 0.126678004860878
vn -0.046139001846313477 0.99669897556304932 0.06679999828338623
vn -0.0642160028219223 0.99084502458572388 0.11875200271606445
vn -0.054340999573469162 0.99805599451065063 0.030519999563694
vn -0.10848800092935562 0.99029600620269775 0.08685699850320816
vn -0.10228899866342545 0.990979015827179 0.08658900111913681
vn -0.073637001216411591 0.99702101945877075 0.022966999560594559
vn -0.096311002969741821 0.99448299407958984 0.041563998907804489
vn -0.082414001226425171 0.9952549934387207 0.051722999662160873
vn -0.079912997782230377 0.9931979775428772 0.084688998758792877
vn -0.096023999154567719 0.99449598789215088 0.041923999786376953
vn -0.08493400365114212 0.99622899293899536 0.017723999917507172
vn -0.095666997134685516 0.99534702301025391 0.011458000168204308
vn -0.0691860020160675 0.99491101503372192 0.0732479989528656
vn -0.0064460001885890961 0.99469298124313354 0.102681003510952
vn -0.049166999757289886 0.99678498506546021 0.06325799971818924
vn 0.0029879999347031116 0.99528002738952637 0.097000002861022949
vn -0.016073999926447868 0.9995579719543457 0.025008000433444977
vn -0.074805997312068939 0.99707198143005371 0.015885999426245689
vn -0.069734998047351837 0.99746799468994141 0.013914000242948532
vn -0.012744000181555748 0.99987602233886719 0.0092669995501637459
vn -0.010808000341057777 0.99989402294158936 0.0097489999607205391
vn -0.01270699966698885 0.99983197450637817 0.013178999535739422
vn -0.078080996870994568 0.99654698371887207 0.028242999687790871
vn -0.081818997859954834 0.99618798494338989 0.03024199977517128
vn -0.093923002481460571 0.99444502592086792 0.04751800000667572
vn -0.011184999719262123 0.99993401765823364 0.0026469998992979527
vn -0.02291099913418293 0.99961400032043457 0.0156870000064373
vn -0.032079998403787613 0.99914997816085815 0.025884000584483147
f 1/1/1 2/2/2 3/3/3
f 4/4/4 5/5/5 3/3/3
f 6/6/6 3/3/3 7/7/7
f 6/6/6 8/8/8 3/3/3
f 1/1/1 3/3/3 8/8/8
f 9/9/9 7/7/7 10/10/10
f 9/9/9 6/6/6 7/7/7
f 11/11/11 3/3/3 5/5/5
f 11/11/11 7/7/7 3/3/3
f 2/2/2 4/4/4 3/3/3
f 2/2/2 12/12/12 4/4/4
f 12/12/12 2/2/2 13/13/13
f 7/7/7 14/14/14 15/15/15
f 7/7/7 11/11/11 14/14/14
f 16/16/16 10/10/10 17/17/17
f 16/16/16 18/18/18 10/10/10
f 9/9/9 10/10/10 18/18/18
f 16/16/16 17/17/17 19/19/19
f 17/17/17 10/10/10 20/20/20
f 21/21/21 17/17/17 22/22/22
f 21/21/21 19/19/19 17/17/17
f 23/23/23 24/24/24 25/25/25
f 10/10/10 7/7/7 26/26/26
f 27/27/27 15/15/15 28/28/28
f 29/29/29 30/30/30 31/31/31
f 27/27/27 30/30/30 15/15/15
f 27/27/27 31/31/31 30/30/30
f 26/26/26 30/30/30 32/32/32
f 30/30/30 26/26/26 15/15/15
f 26/26/26 32/32/32 20/20/20
f 33/33/33 30/30/30 29/29/29
f 33/33/33 34/34/34 30/30/30
f 26/26/26 7/7/7 15/15/15
f 30/30/30 35/35/35 32/32/32
f 36/36/36 35/35/35 37/37/37
f 37/37/37 35/35/35 38/38/38
f 35/35/35 39/39/39 40/40/40
f 35/35/35 36/36/36 39/39/39
f 30/30/30 38/38/38 35/35/35
f 30/30/30 34/34/34 38/38/38
f 41/41/41 32/32/32 35/35/35
f 22/22/22 20/20/20 42/42/42
f 26/26/26 20/20/20 10/10/10
f 43/43/43 42/42/42 44/44/44
f 42/42/42 45/45/45 22/22/22
f 42/42/42 43/43/43 45/45/45
f 44/44/44 42/42/42 46/46/46
f 25/25/25 22/22/22 45/45/45
f 25/25/25 24/24/24 22/22/22
f 24/24/24 21/21/21 22/22/22
f 42/42/42 20/20/20 47/47/47
f 47/47/47 41/41/41 40/40/40
f 41/41/41 47/47/47 20/20/20
f 47/47/47 40/40/40 48/48/48
f 40/40/40 41/41/41 35/35/35
f 49/49/49 48/48/48 50/50/50
f 48/48/48 51/51/51 47/47/47
f 48/48/48 49/49/49 51/51/51
f 40/40/40 52/52/52 48/48/48
f 40/40/40 53/53/53 52/52/52
f 46/46/46 47/47/47 51/51/51
f 46/46/46 42/42/42 47/47/47
f 54/54/54 40/40/40 39/39/39
f 41/41/41 20/20/20 32/32/32
f 14/14/14 28/28/28 15/15/15
f 50/50/50 48/48/48 55/55/55
f 55/55/55 48/48/48 56/56/56
f 57/57/57 48/48/48 52/52/52
f 57/57/57 56/56/56 48/48/48
f 53/53/53 40/40/40 54/54/54
f 20/20/20 22/22/22 17/17/17
