mtllib m2111011.mtl
usemtl material0
v -153.73919677734375 5.5575847625732422 -32
v -153.88323974609375 5.5666918754577637 -32
v -153.73204040527344 5.5529880523681641 -31.863857269287109
v -153.60955810546875 5.5451450347900391 -32
v -151.13993787765503 5.3213329315185547 -32
v -160 5.8758878707885742 -31.533894538879395
v -160 5.8771791458129883 -31.565343856811523
v -160 5.8950200080871582 -32
v -160 5.7594962120056152 -29.906082153320312
v -153.31378173828125 4.9593057632446289 -23.884293079376221
v -145.4440770149231 4.8012309074401855 -32
v -137.36431884765625 3.7942540645599365 -24.722824096679688
v -137.74752807617188 3.9843719005584717 -32
v -128 3.1397240161895752 -32
v -128.56697082519531 3.1342859268188477 -32
v -128 3.1369719505310059 -31.489925384521484
v -129.75190734863281 3.1559419631958008 -32
v -136.17730712890625 3.8502840995788574 -32
v -129.60008239746094 3.226564884185791 -29.130898475646973
v -128 3.1951620578765869 -29.215293884277344
v -128 3.3271379470825195 -27.692106246948242
v -160 4.9852838516235352 -23.531295776367188
v -152.8941650390625 4.6473398208618164 -15.905700996518135
v -160 4.9375638961791992 -22.301029205322266
v -145.33964502811432 4.2549648284912109 -24.303138732910156
v -136.9427638053894 3.8773000240325928 -16.745594024658203
v -145.74311804771423 4.81960916519165 -32
v -128 3.5530960559844971 -25.2165584564209
v -129.38775634765625 3.5864479541778564 -25.143381118774414
v -128 3.5642979145050049 -23.894655227661133
v -129.17671203613281 3.6836369037628174 -21.154959201812744
v -146.01225304603577 4.8443498611450195 -32
v -144.918182015419 4.3189687728881836 -16.325841993093491
v -160 4.645808219909668 -15.530456990003586
v -152.47416687011719 4.410548210144043 -7.9273691177368164
v -160 4.6212167739868164 -14.699936032295227
v -128 3.6351840496063232 -21.216941833496094
v -128 3.6700530052185059 -20.096173763275146
v -144.49627700448036 4.4776778221130371 -8.348872184753418
v -128.96554565429688 3.8057219982147217 -17.166620016098022
v -128.75521945953369 3.7564198970794678 -13.177692890167236
v -128 3.7644269466400146 -17.217478036880493
v -128 3.7426879405975342 -16.297434002161026
v -128 3.7138540744781494 -13.217438936233521
v -128 3.690330982208252 -12.497714996337891
v -136.52000379562378 4.209834098815918 -8.7692232131958
v -160 4.0087490081787109 -7.5286722183227539
v -160 4.0002551078796387 -7.096461296081543
v -152.10995483398438 4.2738361358642578 0
v -152.05635070800781 4.276641845703125 0
v -136.09852600097656 4.2781939506530762 -0.79194259643554688
v -128.54559326171875 3.5606300830841064 -9.1882619857788086
v -128 3.5371620655059814 -9.2169990539550781
v -128 3.5605480670928955 -8.697390079498291
v -128.33454895019531 3.6587769985198975 -5.19984245300293
v -144.07553099840879 4.3946738243103027 -0.37107086181640625
v -128 3.6586089134216309 -4.8988485336303711
v -128 3.6504900455474854 -5.2174825668334961
v -151.09612989425659 4.2900562286376953 0
v -144.05590799823403 4.400874137878418 0
v -160 3.6238570213317871 0
v -134.28141784667969 4.2339129447937012 0
v -128.12324523925781 3.8096508979797363 -1.211604118347168
v -128.05886840820313 3.8913900852203369 0
v -128 3.8049240112304688 -1.2180967330932617
v -128 3.8113949298858643 -1.1007347106933594
v -136.05656385421753 4.3113040924072266 0
v -143.66299399733543 4.4053311347961426 0
v -128 3.8885130882263184 0
vt 0.18957799673080444 0.0283929705619812
vt 0.18524099886417389 0.028535008430480957
vt 0.18993599712848663 0.032478988170623779
vt 0.19349299371242523 0.028268992900848389
vt 0.26802200078964233 0.025888025760650635
vt 0.0016360000008717179 0.04864799976348877
vt 0.001601999974809587 0.047698020935058594
vt 0.0011409999569877982 0.034624993801116943
vt 0.0034479999449104071 0.097688972949981689
vt 0.21140900254249573 0.27246397733688354
vt 0.43991300463676453 0.020729005336761475
vt 0.69131100177764893 0.23199701309204102
vt 0.672544002532959 0.013593971729278565
vt 0.96311098337173462 0.00090497732162475586
vt 0.94637799263000488 0.001752018928527832
vt 0.96364098787307739 0.016233980655670166
vt 0.91076499223709106 0.0030829906463623047
vt 0.71991097927093506 0.012121021747589111
vt 0.91851198673248291 0.089157998561859131
vt 0.96648800373077393 0.084596991539001465
vt 0.9683539867401123 0.13053399324417114
vt 0.010890999808907509 0.29064899682998657
vt 0.23311300575733185 0.51191899180412292
vt 0.012292999774217606 0.32764500379562378
vt 0.45162999629974365 0.252485990524292
vt 0.71214097738265991 0.46948099136352539
vt 0.43090900778770447 0.0210229754447937
vt 0.97138702869415283 0.20527499914169312
vt 0.92976999282836914 0.20919501781463623
vt 0.97301799058914185 0.24499398469924927
vt 0.9409710168838501 0.32880997657775879
vt 0.42278501391410828 0.0212709903717041
vt 0.47254300117492676 0.49058401584625244
vt 0.020015999674797058 0.53128299117088318
vt 0.25443598628044128 0.75132299959659576
vt 0.020938999950885773 0.55625200271606445
vt 0.97627800703048706 0.3254770040512085
vt 0.97745800018310547 0.35938197374343872
vt 0.49372300505638123 0.72990399599075317
vt 0.95144802331924438 0.44850897789001465
vt 0.96199798583984375 0.56759700179100037
vt 0.98043602705001831 0.44594097137451172
vt 0.9813920259475708 0.47304201126098633
vt 0.98468798398971558 0.56560501456260681
vt 0.98552900552749634 0.5871950089931488
vt 0.73309797048568726 0.70860400795936584
vt 0.028666999191045761 0.77254399657249451
vt 0.029184000566601753 0.785532996058464
vt 0.2740359902381897 0.98918499983847141
vt 0.27565199136734009 0.98912500031292439
vt 0.75435197353363037 0.94788800179958344
vt 0.97307801246643066 0.68735998868942261
vt 0.98945599794387817 0.68587800860404968
vt 0.98997300863265991 0.70135501027107239
vt 0.98355299234390259 0.80685499310493469
vt 0.51509898900985718 0.96919599920511246
vt 0.99392098188400269 0.8155519962310791
vt 0.9935920238494873 0.80596999824047089
vt 0.30450999736785889 0.9880689997226
vt 0.51609897613525391 0.98032600060105324
vt 0.036727998405694962 0.99909499997738749
vt 0.80980998277664185 0.96977600082755089
vt 0.993973970413208 0.92658499628305435
vt 0.99708801507949829 0.96302000060677528
vt 0.99767398834228516 0.92625900357961655
vt 0.99779200553894043 0.92979100346565247
vt 0.7564929723739624 0.97165999934077263
vt 0.52789402008056641 0.97990999929606915
vt 0.9988589882850647 0.9629569984972477
vn 0.078717000782489777 0.99646002054214478 0.029513999819755554
vn 0.055771000683307648 0.99770098924636841 0.038490999490022659
vn 0.0746690034866333 0.99592697620391846 0.050539001822471619
vn 0.091631002724170685 0.995477020740509 0.025092000141739845
vn 0.09236600250005722 0.99337899684906006 0.0683090016245842
vn 0.054335001856088638 0.99691897630691528 0.056565999984741211
vn 0.053555000573396683 0.99772500991821289 0.040952000766992569
vn 0.053555000573396683 0.99772500991821289 0.040954001247882843
vn 0.043175999075174332 0.99550098180770874 0.084344998002052307
vn 0.048976000398397446 0.997340977191925 0.053964998573064804
vn 0.071520000696182251 0.99572902917861938 0.058375999331474304
vn 0.05678199976682663 0.998386025428772 0.0010989999864250422
vn 0.095654003322124481 0.99519401788711548 0.020963000133633614
vn -0.0095910001546144485 0.99993902444839478 0.005394000094383955
vn 0.011772000230848789 0.99976199865341187 -0.018350999802350998
vn 0.010835999622941017 0.99979197978973389 -0.01731099933385849
vn 0.064343996345996857 0.99753600358963013 -0.027959000319242477
vn 0.087994001805782318 0.99601101875305176 0.014804000034928322
vn 0.044133000075817108 0.99792999029159546 -0.046778000891208649
vn 0.016696000471711159 0.998350977897644 -0.0549280010163784
vn 0.01803399994969368 0.995809018611908 -0.089663997292518616
vn 0.0080110002309083939 0.99689298868179321 0.078363999724388123
vn 0.016250999644398689 0.99948000907897949 0.027837000787258148
vn 0.0048969998024404049 0.9991919994354248 0.039902999997138977
vn 0.07396399974822998 0.99685901403427124 0.028308000415563583
vn 0.037629999220371246 0.9989740252494812 -0.0252080000936985
vn 0.076821997761726379 0.99465799331665039 0.068940997123718262
vn 0.021300999447703362 0.99846500158309937 -0.051128998398780823
vn 0.024172000586986542 0.998121976852417 -0.056281998753547668
vn 0.035425998270511627 0.9991379976272583 -0.021647000685334206
vn 0.028364000841975212 0.99925297498703 -0.026250999420881271
vn 0.091614998877048492 0.9934459924697876 0.068352997303009033
vn 0.050663001835346222 0.99862498044967651 -0.01346299983561039
vn 0.001690999954007566 0.99934697151184082 0.036097999662160873
vn -0.023429999127984047 0.99926501512527466 0.030336000025272369
vn -0.012001999653875828 0.99894100427627563 0.044410999864339828
vn 0.039616998285055161 0.99880301952362061 -0.028679000213742256
vn 0.040585000067949295 0.99865400791168213 -0.032294001430273056
vn 0.016308000311255455 0.99986499547958374 -0.0017770000267773867
vn 0.027078000828623772 0.99959397315979 -0.00885200034826994
vn 0.04851200059056282 0.99869799613952637 0.01577099971473217
vn 0.042438998818397522 0.9990839958190918 -0.0055169998668134212
vn 0.053348999470472336 0.99848902225494385 0.013148000463843346
vn 0.057342000305652618 0.99814200401306152 0.020600000396370888
vn 0.048728998750448227 0.99789202213287354 0.042865000665187836
vn 0.049688000231981277 0.99857401847839355 -0.019500000402331352
vn -0.050540000200271606 0.997409999370575 0.051178000867366791
vn -0.060235001146793365 0.997776985168457 0.028505999594926834
vn -0.059209998697042465 0.99787002801895142 0.027365999296307564
vn -0.0324850007891655 0.99929898977279663 0.018592000007629395
vn 0.0377889983355999 0.99887001514434814 -0.0288309995085001
vn 0.060120999813079834 0.99816799163818359 0.0067360000684857368
vn 0.043097998946905136 0.999068021774292 0.0023660000879317522
vn 0.027979999780654907 0.9991300106048584 -0.030930999666452408
vn 0.0480009987950325 0.99843502044677734 -0.02868100069463253
vn -0.0027580000460147858 0.99998199939727783 -0.0053309998475015163
vn 0.032797999680042267 0.99881702661514282 -0.035897001624107361
vn 0.02340099960565567 0.99939697980880737 -0.025653000921010971
vn -0.013996999710798264 0.99975699186325073 0.017054999247193336
vn -0.013465000316500664 0.99978101253509521 -0.015992000699043274
vn -0.081987001001834869 0.99523401260375977 0.052788000553846359
vn 0.053348001092672348 0.99634599685668945 -0.066696003079414368
vn 0.047391999512910843 0.99745702743530273 -0.053236998617649078
vn 0.051669001579284668 0.99621099233627319 -0.069953002035617828
vn 0.035813000053167343 0.99824798107147217 -0.047093998640775681
vn 0.045145001262426376 0.99680697917938232 -0.065860003232955933
vn 0.028448000550270081 0.99865901470184326 -0.043258998543024063
vn 0.0068250000476837158 0.99931800365448 -0.036288999021053314
vn 0.048702999949455261 0.99637097120285034 -0.069806002080440521
f 1/1/1 2/2/2 3/3/3
f 4/4/4 3/3/3 5/5/5
f 4/4/4 1/1/1 3/3/3
f 2/2/2 6/6/6 3/3/3
f 2/2/2 7/7/7 6/6/6
f 7/7/7 2/2/2 8/8/8
f 3/3/3 9/9/9 10/10/10
f 3/3/3 6/6/6 9/9/9
f 11/11/11 12/12/12 13/13/13
f 14/14/14 15/15/15 16/16/16
f 17/17/17 18/18/18 19/19/19
f 20/20/20 19/19/19 21/21/21
f 16/16/16 19/19/19 20/20/20
f 16/16/16 15/15/15 19/19/19
f 15/15/15 17/17/17 19/19/19
f 18/18/18 12/12/12 19/19/19
f 18/18/18 13/13/13 12/12/12
f 9/9/9 22/22/22 10/10/10
f 22/22/22 23/23/23 10/10/10
f 22/22/22 24/24/24 23/23/23
f 25/25/25 26/26/26 12/12/12
f 27/27/27 12/12/12 11/11/11
f 27/27/27 25/25/25 12/12/12
f 28/28/28 29/29/29 30/30/30
f 29/29/29 21/21/21 19/19/19
f 29/29/29 28/28/28 21/21/21
f 19/19/19 12/12/12 29/29/29
f 12/12/12 31/31/31 29/29/29
f 27/27/27 10/10/10 25/25/25
f 27/27/27 32/32/32 10/10/10
f 10/10/10 33/33/33 25/25/25
f 10/10/10 5/5/5 3/3/3
f 10/10/10 32/32/32 5/5/5
f 24/24/24 34/34/34 23/23/23
f 34/34/34 35/35/35 23/23/23
f 34/34/34 36/36/36 35/35/35
f 26/26/26 25/25/25 33/33/33
f 30/30/30 31/31/31 37/37/37
f 30/30/30 29/29/29 31/31/31
f 37/37/37 31/31/31 38/38/38
f 23/23/23 33/33/33 10/10/10
f 26/26/26 31/31/31 12/12/12
f 23/23/23 39/39/39 33/33/33
f 40/40/40 26/26/26 41/41/41
f 26/26/26 40/40/40 31/31/31
f 38/38/38 40/40/40 42/42/42
f 38/38/38 31/31/31 40/40/40
f 42/42/42 40/40/40 43/43/43
f 44/44/44 41/41/41 45/45/45
f 43/43/43 41/41/41 44/44/44
f 43/43/43 40/40/40 41/41/41
f 26/26/26 33/33/33 46/46/46
f 41/41/41 26/26/26 46/46/46
f 47/47/47 35/35/35 36/36/36
f 35/35/35 39/39/39 23/23/23
f 48/48/48 35/35/35 47/47/47
f 48/48/48 49/49/49 35/35/35
f 49/49/49 50/50/50 35/35/35
f 51/51/51 46/46/46 39/39/39
f 46/46/46 52/52/52 41/41/41
f 53/53/53 52/52/52 54/54/54
f 45/45/45 52/52/52 53/53/53
f 45/45/45 41/41/41 52/52/52
f 46/46/46 55/55/55 52/52/52
f 33/33/33 39/39/39 46/46/46
f 56/56/56 39/39/39 35/35/35
f 57/57/57 58/58/58 55/55/55
f 54/54/54 55/55/55 58/58/58
f 54/54/54 52/52/52 55/55/55
f 55/55/55 46/46/46 51/51/51
f 50/50/50 56/56/56 35/35/35
f 50/50/50 59/59/59 56/56/56
f 56/56/56 51/51/51 39/39/39
f 60/60/60 56/56/56 59/59/59
f 61/61/61 49/49/49 48/48/48
f 62/62/62 63/63/63 51/51/51
f 62/62/62 64/64/64 63/63/63
f 63/63/63 57/57/57 55/55/55
f 63/63/63 65/65/65 57/57/57
f 66/66/66 65/65/65 63/63/63
f 55/55/55 51/51/51 63/63/63
f 67/67/67 56/56/56 68/68/68
f 67/67/67 51/51/51 56/56/56
f 69/69/69 63/63/63 64/64/64
f 69/69/69 66/66/66 63/63/63
f 62/62/62 51/51/51 67/67/67
f 60/60/60 68/68/68 56/56/56
