mtllib m211213.mtl
usemtl material0
v -308.6220703125 8.2878303527832031 -384
v -308.28903198242188 8.27881908416748 -383.7003173828125
v -308.30484008789062 8.2862949371337891 -384
v -320 7.9923601150512695 -383.0809326171875
v -320 7.5681891441345215 -370.68515014648438
v -320 7.3256688117980957 -367.0792236328125
v -320 6.670896053314209 -353.79553198814392
v -307.45199584960938 7.1937160491943359 -367.74142456054688
v -320 7.0367050170898438 -335.07919311523438
v -320 8.005976676940918 -320.0106201171875
v -305.7691650390625 6.830869197845459 -335.83001708984375
v -320 7.0521111488342285 -336.90359497070312
v -306.61074829101562 6.9781508445739746 -351.78558300435543
v -320 6.6305661201477051 -351.07739299535751
v -302.6041259765625 8.1194782257080078 -384
v -292.82305908203125 7.8111238479614258 -384
v -291.49642896652222 7.2748870849609375 -368.58425903320312
v -292.30755615234375 7.8127908706665039 -384
v -277.62649536132812 7.4892559051513672 -384
v -290.65719604492188 6.6423368453979492 -352.62695300579071
v -304.81326293945312 7.5237131118774414 -320
v -289.81652796268463 6.3124408721923828 -336.67074584960938
v -304.92999267578125 7.5272259712219238 -320
v -302.59881591796875 7.4688119888305664 -320
v -289.61679100990295 7.1307401657104492 -320
v -288.970458984375 7.0947542190551758 -320.71844482421875
v -274.6988525390625 7.303987979888916 -353.47186303138733
v -275.54074096679688 7.38576602935791 -369.42721557617188
v -320 8.0064620971679688 -320
v -276.30950927734375 7.4978489875793457 -384
v -262.42825317382812 8.178706169128418 -384
v -259.58328247070312 7.86179780960083 -370.27145385742188
v -260.30615234375 8.2387619018554688 -384
v -258.7442626953125 7.1916518211364746 -354.31402611732483
v -256 7.8286561965942383 -370.4605712890625
v -256 7.28652811050415 -357.36401414871216
v -273.8614501953125 6.2968578338623047 -337.51324462890625
v -273.0155029296875 7.0532932281494141 -321.56085205078125
v -257.90371704101562 6.8324589729309082 -338.35769653320312
v -288.93237298727036 7.1237602233886719 -320
v -257.05703735351562 7.7368412017822266 -322.40582275390625
v -256 6.764564037322998 -338.4580078125
v -256 7.6337428092956543 -323.58090209960938
v -256.93002319335938 7.7422199249267578 -320
v -256 7.7442741394042969 -322.461669921875
v -256 7.7484960556030273 -320.19088745117188
v -256 7.7488508224487305 -320
v -272.93276977539062 7.1212787628173828 -320
v -288.17163099348545 7.1258211135864258 -320
v -256 7.1371240615844727 -354.45873999595642
v -256 6.8377752304077148 -340.47360229492188
v -271.27996826171875 7.1275877952575684 -320
v -320 7.9970221519470215 -383.16717529296875
v -320 8.0420560836792 -384
v -256 8.0590190887451172 -384
v -256 7.81283712387085 -374.2542724609375
vt 0.17329700291156769 0.029756009578704834
vt 0.17845499515533447 0.034085988998413086
vt 0.17806200683116913 0.029591977596282959
vt 0.0028399999719113111 0.049651026725769043
vt 0.0093210004270076752 0.23594397306442261
vt 0.011225000023841858 0.29022699594497681
vt 0.018099000677466393 0.48999202251434326
vt 0.19965100288391113 0.2738800048828125
vt 0.0281360000371933 0.7712009996175766
vt 0.035985000431537628 0.9979989998973906
vt 0.2418459951877594 0.75231899321079254
vt 0.027155999094247818 0.74379798769950867
vt 0.22079800069332123 0.51310300827026367
vt 0.01953200064599514 0.53082200884819031
vt 0.26372501254081726 0.026688992977142334
vt 0.41071400046348572 0.021722972393035889
vt 0.43884900212287903 0.25269502401351929
vt 0.41845700144767761 0.021448016166687012
vt 0.63902002573013306 0.013799011707305908
vt 0.46003100275993347 0.49210202693939209
vt 0.26414099335670471 0.9898460004478693
vt 0.48114201426506042 0.731361985206604
vt 0.26238599419593811 0.98990599997341633
vt 0.29741200804710388 0.98869999963790178
vt 0.49246999621391296 0.98197400011122227
vt 0.50181597471237183 0.97084400057792664
vt 0.69944602251052856 0.47058302164077759
vt 0.67804199457168579 0.23140799999237061
vt 0.035990998148918152 0.99815899995155632
vt 0.65877097845077515 0.012930989265441895
vt 0.86751002073287964 0.0054720044136047363
vt 0.9173470139503479 0.20992302894592285
vt 0.89931797981262207 0.004020988941192627
vt 0.9386259913444519 0.44934600591659546
vt 0.97106599807739258 0.20515799522399902
vt 0.97818797826766968 0.40202701091766357
vt 0.72034800052642822 0.71038499474525452
vt 0.741034984588623 0.950033999979496
vt 0.95968198776245117 0.68886500597000122
vt 0.5027499794960022 0.98162500001490116
vt 0.98052197694778442 0.92915099859237671
vt 0.9882429838180542 0.686379998922348
vt 0.9958069920539856 0.9109020009636879
vt 0.98366498947143555 0.96522200107574463
vt 0.99637001752853394 0.9277689978480339
vt 0.99753701686859131 0.9618769995868206
vt 0.997635006904602 0.96474500000476837
vt 0.74307501316070557 0.97345899976789951
vt 0.51418197154998779 0.98123800009489059
vt 0.97979897260665894 0.44598501920700073
vt 0.98716700077056885 0.65608701109886169
vt 0.76790100336074829 0.97261900082230568
vt 0.00279600010253489 0.048355996608734131
vt 0.0023650000803172588 0.035827994346618652
vt 0.96405500173568726 0.0018410086631774902
vt 0.96903097629547119 0.14817899465560913
vn -0.015406000427901745 0.99876898527145386 0.04715299978852272
vn 0.012001999653875828 0.9989200234413147 0.044891998171806335
vn 0.016628999263048172 0.99957197904586792 0.02405799925327301
vn -0.022118000313639641 0.99879801273345947 0.043744001537561417
vn 0.0054890001192688942 0.998216986656189 0.059441998600959778
vn 0.013550999574363232 0.99823200702667236 0.057868998497724533
vn -0.01624700054526329 0.99960702657699585 0.022856000810861588
vn 0.0044370000250637531 0.99915397167205811 0.040881000459194183
vn 0.012919999659061432 0.99949198961257935 -0.029116999357938766
vn 0.026932999491691589 0.99838900566101074 -0.049949999898672104
vn 0.023468999192118645 0.99953198432922363 -0.019633000716567039
vn 0.0050130002200603485 0.999987006187439 -0.00045900000259280205
vn -0.00016399999731220305 0.9999539852142334 0.009592999704182148
vn -0.026382999494671822 0.99961799383163452 -0.0081909997388720512
vn 0.031404998153448105 0.99736201763153076 0.065445996820926666
vn 0.0060359998606145382 0.99904102087020874 0.043368000537157059
vn 0.0022549999412149191 0.99953299760818481 0.030464999377727509
vn 0.0089689996093511581 0.99936801195144653 0.034398999065160751
vn 0.0010949999559670687 0.99988901615142822 0.014888999983668327
vn -0.0031610000878572464 0.999692976474762 0.02456899918615818
vn 0.028638999909162521 0.998494029045105 -0.046787001192569733
vn 0.010332999750971794 0.9999079704284668 -0.00877700001001358
vn 0.030874999240040779 0.99848401546478271 -0.045559998601675034
vn 0.024775000289082527 0.99844801425933838 -0.049883998930454254
vn 0.021800000220537186 0.99929898977279663 -0.030441999435424805
vn 0.010227999649941921 0.99900001287460327 -0.043515000492334366
vn -0.014708000235259533 0.99930799007415771 0.034155998378992081
vn -0.024396000429987907 0.99959802627563477 0.014472000300884247
vn 0.031750999391078949 0.99845302104949951 -0.045635998249053955
vn -0.027053000405430794 0.99959200620651245 0.0091150002554059029
vn -0.033799000084400177 0.99914199113845825 0.023953000083565712
vn -0.00040300001273863018 0.99965602159500122 0.026233000680804253
vn 0.0055350000038743019 0.99961602687835693 0.027155999094247818
vn 0.0090640000998973846 0.99923098087310791 0.038150999695062637
vn 0.010188999585807324 0.99978899955749512 0.017836999148130417
vn 0.014016999863088131 0.998947024345398 0.043687000870704651
vn -0.010846000164747238 0.99993598461151123 0.0031330001074820757
vn -0.015928000211715698 0.99904799461364746 -0.040601998567581177
vn -0.0028160000219941139 0.99990099668502808 -0.013793000020086765
vn 0.0035250000655651093 0.99917197227478027 -0.040527001023292542
vn -0.021354999393224716 0.9992070198059082 -0.03361000120639801
vn 0.035144999623298645 0.99933797121047974 -0.0094259995967149734
vn 0.02212199941277504 0.99746602773666382 -0.067615002393722534
vn -0.024366000667214394 0.99970299005508423 -0.00094900000840425491
vn -0.009754999540746212 0.99861299991607666 -0.05173100158572197
vn -0.0071299998089671135 0.99997299909591675 -0.0018599999602884054
vn -0.0071299998089671135 0.99997299909591675 -0.0018609999679028988
vn -0.0018269999418407679 0.999055027961731 -0.043418999761343
vn -0.00040300001273863018 0.99908602237701416 -0.042753998190164566
vn 0.021795999258756638 0.99908202886581421 0.036869000643491745
vn 0.024849999696016312 0.99938201904296875 0.02486800029873848
vn -0.0337119996547699 0.99938100576400757 -0.010084000416100025
vn -0.021564999595284462 0.99830901622772217 0.053975999355316162
vn -0.021563999354839325 0.99830901622772217 0.053982000797986984
vn 0.041691999882459641 0.99881201982498169 0.025231000036001205
vn 0.034077998250722885 0.99924999475479126 0.018376000225543976
f 1/1/1 2/2/2 3/3/3
f 4/4/4 5/5/5 2/2/2
f 6/6/6 7/7/7 8/8/8
f 9/9/9 10/10/10 11/11/11
f 12/12/12 13/13/13 14/14/14
f 7/7/7 13/13/13 8/8/8
f 7/7/7 14/14/14 13/13/13
f 15/15/15 8/8/8 16/16/16
f 15/15/15 2/2/2 8/8/8
f 17/17/17 8/8/8 13/13/13
f 16/16/16 17/17/17 18/18/18
f 16/16/16 8/8/8 17/17/17
f 18/18/18 17/17/17 19/19/19
f 17/17/17 13/13/13 20/20/20
f 3/3/3 2/2/2 15/15/15
f 12/12/12 11/11/11 13/13/13
f 12/12/12 9/9/9 11/11/11
f 11/11/11 21/21/21 22/22/22
f 11/11/11 23/23/23 21/21/21
f 24/24/24 25/25/25 26/26/26
f 11/11/11 22/22/22 20/20/20
f 20/20/20 22/22/22 27/27/27
f 21/21/21 26/26/26 22/22/22
f 21/21/21 24/24/24 26/26/26
f 13/13/13 11/11/11 20/20/20
f 28/28/28 17/17/17 20/20/20
f 10/10/10 23/23/23 11/11/11
f 10/10/10 29/29/29 23/23/23
f 20/20/20 27/27/27 28/28/28
f 30/30/30 28/28/28 31/31/31
f 32/32/32 28/28/28 27/27/27
f 31/31/31 32/32/32 33/33/33
f 31/31/31 28/28/28 32/32/32
f 34/34/34 35/35/35 32/32/32
f 34/34/34 36/36/36 35/35/35
f 32/32/32 27/27/27 34/34/34
f 22/22/22 37/37/37 27/27/27
f 37/37/37 26/26/26 38/38/38
f 37/37/37 22/22/22 26/26/26
f 37/37/37 38/38/38 39/39/39
f 40/40/40 26/26/26 25/25/25
f 39/39/39 34/34/34 37/37/37
f 41/41/41 42/42/42 39/39/39
f 41/41/41 43/43/43 42/42/42
f 44/44/44 45/45/45 41/41/41
f 44/44/44 46/46/46 45/45/45
f 46/46/46 44/44/44 47/47/47
f 41/41/41 39/39/39 38/38/38
f 34/34/34 27/27/27 37/37/37
f 26/26/26 48/48/48 38/38/38
f 26/26/26 49/49/49 48/48/48
f 50/50/50 39/39/39 51/51/51
f 50/50/50 34/34/34 39/39/39
f 19/19/19 28/28/28 30/30/30
f 19/19/19 17/17/17 28/28/28
f 38/38/38 44/44/44 41/41/41
f 38/38/38 52/52/52 44/44/44
f 52/52/52 38/38/38 48/48/48
f 49/49/49 26/26/26 40/40/40
f 5/5/5 8/8/8 2/2/2
f 5/5/5 6/6/6 8/8/8
f 1/1/1 4/4/4 2/2/2
f 1/1/1 53/53/53 4/4/4
f 53/53/53 1/1/1 54/54/54
f 55/55/55 32/32/32 56/56/56
f 55/55/55 33/33/33 32/32/32
f 50/50/50 36/36/36 34/34/34
f 35/35/35 56/56/56 32/32/32
f 45/45/45 43/43/43 41/41/41
f 42/42/42 51/51/51 39/39/39
