mtllib m211111202.mtl
usemtl material0
v -64 1.7031450271606445 -47.61012601852417
v -62.535392999649048 1.662693977355957 -46.666969060897827
v -64 1.7259500026702881 -47.9851610660553
v -64 1.6410859823226929 -46.589557886123657
v -64 1.6091129779815674 -42.58958101272583
v -62.325103998184204 1.6051219701766968 -42.678017020225525
v -64 1.6046119928359985 -44.184898003935814
v -64 1.5339449644088745 -40.064049005508423
v -62.22008490562439 1.5509430170059204 -40.683449029922485
v -64 1.5521349906921387 -40.589462041854858
v -62.835026025772095 1.5288180112838745 -40
v -64 1.5317269563674927 -40
v -64 1.6009060144424439 -42.285217046737671
v -64 1.6175700426101685 -45.039185047149658
v -58.60436999797821 1.9564950466156006 -48
v -59.792160004377365 1.8896950483322144 -48
v -58.5453679561615 1.915876030921936 -46.87847900390625
v -60.60495799779892 1.8314039707183838 -48
v -61.904564023017883 1.7806839942932129 -48
v -60.540493011474609 1.7668249607086182 -46.772648096084595
v -57.536082983016968 2.0556609630584717 -48
v -64 1.6089810132980347 -44.58951997756958
v -62.43028998374939 1.625607967376709 -44.672461986541748
v -60.435413002967834 1.7248560190200806 -44.778126001358032
v -56.603530883789062 2.1312100887298584 -48
v -56.550158977508545 2.0829920768737793 -46.984375
v -58.440193057060242 1.8939260244369507 -44.884025990962982
v -62.605339050292969 1.7465349435806274 -48
v -60.3303180038929 1.6858149766921997 -42.783611059188843
v -58.335132956504822 1.8475610017776489 -42.889487981796265
v -56.339999914169312 1.9995399713516235 -42.995331048965454
v -58.230072021484375 1.8021719455718994 -40.894954919815063
v -60.225262001156807 1.6389609575271606 -40.7890739440918
v -56.44502592086792 2.0522530078887939 -44.989890992641449
v -56 2.1504409313201904 -47.552422046661377
v -56 2.1228809356689453 -47.013554096221924
v -56 2.1733310222625732 -48
v -56 2.0935521125793457 -45.48444402217865
v -56 2.0803821086883545 -45.013481020927429
v -56 2.0633559226989746 -44.589591979980469
v -60.183685004711151 1.6231290102005005 -40
v -61.460281014442444 1.568310022354126 -40
v -56.235016107559204 1.9375499486923218 -41.000740051269531
v -56 2.0174539089202881 -43.013343989849091
v -56 1.9583280086517334 -41.261913061141968
v -58.1829149723053 1.7848720550537109 -40
v -59.347759008407593 1.6910430192947388 -40
v -62.18408989906311 1.5338840484619141 -40
v -56.182322978973389 1.9108560085296631 -40
v -57.135535955429077 1.8546750545501709 -40
v -56 1.9460790157318115 -41.013175964355469
v -56 1.9201580286026 -40.103863000869751
v -56 1.9171969890594482 -40
v -64 1.7268949747085571 -48
vt 0.048734001815319061 0
vt 0.16662900149822235 0.18307602405548096
vt 0.0018550000386312604 0
vt 0.17630499601364136 0
vt 0.67630201578140259 0
vt 0.66524797677993774 0.2093619704246521
vt 0.47688800096511841 0
vt 0.99199402332305908 0
vt 0.91456902027130127 0.22248899936676025
vt 0.92631697654724121 0
vt 1 0.14562201499938965
vt 1 0
vt 0.71434801816940308 0
vt 0.37010198831558228 0
vt 0 0.674454003572464
vt 0 0.52597999572753906
vt 0.1401900053024292 0.68182900547981262
vt 0 0.42438000440597534
vt 0 0.261929988861084
vt 0.15341900289058685 0.43243801593780518
vt 0 0.80798999965190887
vt 0.42631000280380249 0
vt 0.41594201326370239 0.19621402025222778
vt 0.40273401141166687 0.44557297229766846
vt 0 0.92455899715423584
vt 0.12695300579071045 0.93123000115156174
vt 0.38949701189994812 0.69497600197792053
vt 0 0.17433297634124756
vt 0.65204900503158569 0.45871001482009888
vt 0.63881397247314453 0.70810800790786743
vt 0.62558400630950928 0.95749999955296516
vt 0.88813102245330811 0.72124099731445312
vt 0.90136599540710449 0.47184199094772339
vt 0.37626400589942932 0.94437199831008911
vt 0.055946998298168182 1
vt 0.12330599874258041 1
vt 0 1
vt 0.31444498896598816 1
vt 0.37331500649452209 1
vt 0.42630100250244141 1
vt 1 0.47703897953033447
vt 1 0.31746500730514526
vt 0.87490701675415039 0.97062299959361553
vt 0.62333202362060547 1
vt 0.842261016368866 1
vt 1 0.72713598608970642
vt 1 0.58153000473976135
vt 1 0.22698897123336792
vt 1 0.97721000015735626
vt 1 0.85805800557136536
vt 0.87335300445556641 1
vt 0.98701697587966919 1
vt 1 1
vt 0 0
vn -0.011517000384628773 0.99809002876281738 0.060692001134157181
vn -0.027110999450087547 0.99896097183227539 0.0366239994764328
vn -0.011614999733865261 0.99808198213577271 0.06080000102519989
vn -0.012985999695956707 0.99936199188232422 0.033263999968767166
vn 0.002486000070348382 0.99999499320983887 0.0019509999547153711
vn -0.02681099995970726 0.999459981918335 0.019000999629497528
vn -0.0049749999307096004 0.99997401237487793 0.0051910001784563065
vn 0.002495999913662672 0.99939799308776855 0.034600000828504562
vn -0.017876999452710152 0.99944698810577393 0.028033999726176262
vn 0.0022609999869018793 0.99954301118850708 0.030132999643683434
vn -0.00087699998402968049 0.99950098991394043 0.031567998230457306
vn 0.0024949999060481787 0.99939799308776855 0.034609001129865646
vn 0.0030980000738054514 0.99961000680923462 0.027736999094486237
vn -0.01296599954366684 0.99978697299957275 0.01604899950325489
vn -0.07330700010061264 0.99650901556015015 0.0399480015039444
vn -0.067088000476360321 0.996425986289978 0.05132099986076355
vn -0.076890997588634491 0.99652099609375 0.032164998352527618
vn -0.051458001136779785 0.9971500039100647 0.0551690012216568
vn -0.042316000908613205 0.997402012348175 0.058292001485824585
vn -0.061223000288009644 0.99752402305603027 0.034595001488924026
vn -0.086897999048233032 0.99516201019287109 0.045834001153707504
vn -0.0096439998596906662 0.99979299306869507 0.017906000837683678
vn -0.034919999539852142 0.99923700094223022 0.017505999654531479
vn -0.060621999204158783 0.99792999029159546 0.02145799994468689
vn -0.078218996524810791 0.99561101198196411 0.051378000527620316
vn -0.0787850022315979 0.99655699729919434 0.025818999856710434
vn -0.0789949968457222 0.99660998582839966 0.022969000041484833
vn -0.03666900098323822 0.99723398685455322 0.064644999802112579
vn -0.0667399987578392 0.99744498729705811 0.025482000783085823
vn -0.074712999165058136 0.99679899215698242 0.028472999110817909
vn -0.071772001683712 0.99694597721099854 0.030767999589443207
vn -0.0748089998960495 0.99685800075531006 0.026026999577879906
vn -0.058164998888969421 0.99796199798583984 0.026254000142216682
vn -0.074075996875762939 0.9969480037689209 0.024638999253511429
vn -0.069531999528408051 0.99627798795700073 0.050953000783920288
vn -0.071044996380805969 0.99719202518463135 0.023675000295042992
vn -0.069531001150608063 0.99627798795700073 0.05095199868083
vn -0.0690080001950264 0.9973909854888916 0.021192999556660652
vn -0.061269000172615051 0.99755400419235229 0.033661998808383942
vn -0.05224199965596199 0.99817198514938354 0.030393000692129135
vn -0.05098399892449379 0.99844098091125488 0.022718999534845352
vn -0.044555999338626862 0.99871498346328735 0.024156000465154648
vn -0.066160999238491058 0.99738401174545288 0.029113000258803368
vn -0.050886999815702438 0.99818599224090576 0.032173000276088715
vn -0.048666000366210938 0.99817997217178345 0.035619001835584641
vn -0.073219999670982361 0.997048020362854 0.023130999878048897
vn -0.08055499941110611 0.99646598100662231 0.023810999467968941
vn -0.028705000877380371 0.99923801422119141 0.02645299956202507
vn -0.051456000655889511 0.99824398756027222 0.029337000101804733
vn -0.06282699853181839 0.99768298864364624 0.026086000725626945
vn -0.0346050001680851 0.99891698360443115 0.031106999143958092
vn -0.034745000302791595 0.998989999294281 0.028478000313043594
vn -0.034743998199701309 0.998989999294281 0.028480000793933868
vn -0.014053000137209892 0.99788302183151245 0.063500002026557922
f 1/1/1 2/2/2 3/3/3
f 1/1/1 4/4/4 2/2/2
f 5/5/5 6/6/6 7/7/7
f 8/8/8 9/9/9 10/10/10
f 8/8/8 11/11/11 9/9/9
f 8/8/8 12/12/12 11/11/11
f 13/13/13 10/10/10 9/9/9
f 4/4/4 14/14/14 2/2/2
f 15/15/15 16/16/16 17/17/17
f 18/18/18 19/19/19 20/20/20
f 21/21/21 15/15/15 17/17/17
f 22/22/22 2/2/2 14/14/14
f 22/22/22 23/23/23 2/2/2
f 2/2/2 23/23/23 20/20/20
f 20/20/20 23/23/23 24/24/24
f 16/16/16 20/20/20 17/17/17
f 16/16/16 18/18/18 20/20/20
f 25/25/25 17/17/17 26/26/26
f 25/25/25 21/21/21 17/17/17
f 20/20/20 27/27/27 17/17/17
f 20/20/20 28/28/28 2/2/2
f 20/20/20 19/19/19 28/28/28
f 17/17/17 27/27/27 26/26/26
f 24/24/24 6/6/6 29/29/29
f 6/6/6 24/24/24 23/23/23
f 27/27/27 29/29/29 30/30/30
f 29/29/29 27/27/27 24/24/24
f 31/31/31 27/27/27 30/30/30
f 30/30/30 29/29/29 32/32/32
f 20/20/20 24/24/24 27/27/27
f 29/29/29 6/6/6 33/33/33
f 26/26/26 27/27/27 34/34/34
f 7/7/7 23/23/23 22/22/22
f 7/7/7 6/6/6 23/23/23
f 35/35/35 26/26/26 36/36/36
f 35/35/35 25/25/25 26/26/26
f 35/35/35 37/37/37 25/25/25
f 27/27/27 31/31/31 34/34/34
f 38/38/38 34/34/34 39/39/39
f 39/39/39 34/34/34 40/40/40
f 34/34/34 36/36/36 26/26/26
f 34/34/34 38/38/38 36/36/36
f 41/41/41 9/9/9 42/42/42
f 41/41/41 33/33/33 9/9/9
f 6/6/6 9/9/9 33/33/33
f 30/30/30 32/32/32 43/43/43
f 33/33/33 32/32/32 29/29/29
f 31/31/31 40/40/40 34/34/34
f 31/31/31 44/44/44 40/40/40
f 44/44/44 43/43/43 45/45/45
f 44/44/44 31/31/31 43/43/43
f 30/30/30 43/43/43 31/31/31
f 46/46/46 33/33/33 47/47/47
f 46/46/46 32/32/32 33/33/33
f 42/42/42 9/9/9 48/48/48
f 49/49/49 43/43/43 50/50/50
f 41/41/41 47/47/47 33/33/33
f 49/49/49 51/51/51 43/43/43
f 49/49/49 52/52/52 51/51/51
f 52/52/52 49/49/49 53/53/53
f 46/46/46 43/43/43 32/32/32
f 46/46/46 50/50/50 43/43/43
f 45/45/45 43/43/43 51/51/51
f 48/48/48 9/9/9 11/11/11
f 13/13/13 6/6/6 5/5/5
f 13/13/13 9/9/9 6/6/6
f 54/54/54 2/2/2 28/28/28
f 54/54/54 3/3/3 2/2/2
