mtllib m21111230.mtl
usemtl material0
v -95.000626087188721 5.59630012512207 -112
v -93.912520885467529 5.504518985748291 -111.02032518386841
v -93.963706970214844 5.6099820137023926 -112
v -93.0308690071106 5.6356058120727539 -112
v -96 5.1278109550476074 -106.90899705886841
v -93.703606128692627 5.1648030281066895 -107.03038001060486
v -96 5.281437873840332 -108.70057678222656
v -96 5.4517331123352051 -110.90992021560669
v -89.9230580329895 5.6425008773803711 -111.23143815994263
v -96 5.0434269905090332 -105.29615795612335
v -93.494040966033936 4.9588680267333984 -103.0409089922905
v -96 5.5299339294433594 -111.58985090255737
v -96 5.5771069526672363 -112
v -89.963219046592712 5.7242040634155273 -112
v -89.231415033340454 5.7359638214111328 -112
v -85.962799072265625 5.8254399299621582 -112
v -85.933640003204346 5.772179126739502 -111.44252777099609
v -82.328979015350342 5.9297847747802734 -112
v -81.9441909790039 5.907221794128418 -111.65363311767578
v -81.962310791015625 5.9395508766174316 -112
v -89.714599967002869 5.2105011940002441 -107.24117994308472
v -85.724639892578125 5.4500389099121094 -107.45264410972595
v -81.734970092773438 5.6304922103881836 -107.66390991210938
v -80 5.9903969764709473 -111.75656890869141
v -80 5.8358259201049805 -109.59188795089722
v -81.526374816894531 5.2258310317993164 -103.6737439930439
v -85.515578985214233 5.1410789489746094 -103.46281397342682
v -81.632476806640625 5.95618200302124 -112
v -89.50500500202179 5.0099377632141113 -103.25172400474548
v -96 4.7848958969116211 -100.25594305992127
v -96 4.9700331687927246 -102.9086149930954
v -96 4.6862869262695312 -98.9078221321106
v -93.284912109375 4.66455078125 -99.051125049591064
v -96 4.3537101745605469 -96.033980846405029
v -93.125464916229248 4.3439168930053711 -96
v -96 4.3501429557800293 -96
v -89.295905947685242 4.7092728614807129 -99.261917114257812
v -92.231307983398438 4.3489627838134766 -96
v -85.306931018829346 4.747642993927002 -99.472686767578125
v -84.632644891738892 4.4134721755981445 -96
v -81.3178858757019 4.800656795501709 -99.683509826660156
v -85.125319957733154 4.4094719886779785 -96
v -85.672943115234375 4.4070281982421875 -96
v -89.1252590417862 4.402799129486084 -96
v -80 5.468925952911377 -105.36980402469635
v -80 5.716392993927002 -107.75580596923828
v -80 6.0166869163513184 -112
v -80 6.0102100372314453 -111.94001817703247
v -80 5.2872090339660645 -103.75454699993134
v -80 5.0047669410705566 -101.14791107177734
v -80 4.86348819732666 -99.753304004669189
v -80 4.7610077857971191 -98.525962829589844
v -80 4.75862979888916 -98.497489929199219
v -80 4.5484929084777832 -96
v -81.124961853027344 4.4991850852966309 -96
vt 0 0.062461018562316895
vt 0.061230000108480453 0.1304669976234436
vt 0 0.12726801633834839
vt 0 0.18557101488113403
vt 0.31818801164627075 0
vt 0.31060099601745605 0.14352500438690186
vt 0.20621399581432343 0
vt 0.0681300014257431 0
vt 0.048034999519586563 0.37980902194976807
vt 0.41898998618125916 0
vt 0.55994302034378052 0.15662199258804321
vt 0.025634000077843666 0
vt 0 0
vt 0 0.37729901075363159
vt 0 0.42303699254989624
vt 0 0.62732499837875366
vt 0.034841999411582947 0.629148006439209
vt 0 0.85443900525569916
vt 0.021648000925779343 0.87848799675703049
vt 0 0.87735600024461746
vt 0.29742598533630371 0.3928380012512207
vt 0.28420999646186829 0.64221000671386719
vt 0.27100598812103271 0.89156399667263031
vt 0.015213999897241592 1
vt 0.15050700306892395 1
vt 0.52039098739624023 0.90460199862718582
vt 0.53357398509979248 0.65527600049972534
vt 0 0.89796999841928482
vt 0.546766996383667 0.40593701601028442
vt 0.734004020690918 0
vt 0.56821197271347046 0
vt 0.81826102733612061 0
vt 0.80930501222610474 0.1696929931640625
vt 0.997875988483429 0
vt 1 0.17965799570083618
vt 1 0
vt 0.79613000154495239 0.41900599002838135
vt 1 0.23554301261901856
vt 0.78295701742172241 0.66831699013710022
vt 1 0.71046000719070435
vt 0.76978099346160889 0.91763199865818024
vt 1 0.67966699600219727
vt 1 0.64544099569320679
vt 1 0.42967098951339722
vt 0.41438698768615723 1
vt 0.26526200771331787 1
vt 0 1
vt 0.0037489999085664749 1
vt 0.51534098386764526 1
vt 0.67825597524642944 1
vt 0.76541900634765625 1
vt 0.84212702512741089 1
vt 0.84390699863433838 1
vt 1 1
vt 1 0.92969000339508057
vn -0.017658999189734459 0.993474006652832 0.11268600076436997
vn -0.022384999319911003 0.99566000699996948 0.090328998863697052
vn -0.0198340006172657 0.99394899606704712 0.10803599655628204
vn -0.028374999761581421 0.993806004524231 0.10744199901819229
vn -0.011931999586522579 0.99687701463699341 0.078060001134872437
vn -0.013334999792277813 0.99730598926544189 0.072132997214794159
vn -0.016838999465107918 0.99659699201583862 0.080686002969741821
vn -0.02035599946975708 0.99562901258468628 0.091150999069213867
vn -0.021638000383973122 0.9946410059928894 0.10109899938106537
vn -0.0072869998402893543 0.99893498420715332 0.04555099830031395
vn -0.0024790000170469284 0.99810802936553955 0.061434000730514526
vn -0.019076000899076462 0.99326997995376587 0.11423899978399277
vn -0.019076000899076462 0.99326997995376587 0.11423999816179276
vn -0.027626000344753265 0.99386501312255859 0.10709699988365173
vn -0.025175999850034714 0.99483597278594971 0.0983240008354187
vn -0.027635000646114349 0.99494898319244385 0.096502996981143951
vn -0.036122001707553864 0.99510699510574341 0.091962002217769623
vn -0.02849699929356575 0.99492800235748291 0.096468999981880188
vn -0.035803999751806259 0.99637997150421143 0.077109001576900482
vn -0.037702001631259918 0.99478000402450562 0.094823002815246582
vn -0.030339999124407768 0.996291995048523 0.080505996942520142
vn -0.039694000035524368 0.995764970779419 0.0829240009188652
vn -0.041025999933481216 0.99548202753067017 0.085625000298023224
vn -0.038810998201370239 0.99663001298904419 0.072259001433849335
vn -0.042107000946998596 0.99677801132202148 0.068267002701759338
vn -0.023505000397562981 0.99486398696899414 0.098448999226093292
vn -0.025275999680161476 0.99642097949981689 0.080659002065658569
vn -0.038733001798391342 0.99365401268005371 0.10559599846601486
vn -0.015607999637722969 0.99786198139190674 0.063459999859333038
vn 0.0093710003420710564 0.99745100736618042 0.070742003619670868
vn 0.0071539999917149544 0.998661994934082 0.051224999129772186
vn 0.012612000107765198 0.99605202674865723 0.087869003415107727
vn -0.00094100000569596887 0.99614900350570679 0.087668001651763916
vn 0.0077129998244345188 0.993973970413208 0.10934499651193619
vn -0.0027419999241828918 0.994504988193512 0.104653000831604
vn 0.0021540001034736633 0.9945330023765564 0.10440199822187424
vn -0.0098479995504021645 0.9957919716835022 0.091116003692150116
vn -0.014649000018835068 0.9952009916305542 0.0967470034956932
vn -0.0081770000979304314 0.994983971118927 0.099701002240180969
vn -0.015418999828398228 0.9957510232925415 0.0907910019159317
vn -0.021293999627232552 0.99511897563934326 0.096355997025966644
vn -0.0047989999875426292 0.99525600671768188 0.097168996930122375
vn -0.0016609999584034085 0.99556201696395874 0.09409199655056
vn -0.0088139995932579041 0.99553400278091431 0.093997001647949219
vn -0.041903998702764511 0.993619978427887 0.10470300167798996
vn -0.044695001095533371 0.99524998664855957 0.086487002670764923
vn -0.036823999136686325 0.9935460090637207 0.10728300362825394
vn -0.036823999136686325 0.99354398250579834 0.10730099678039551
vn -0.034207001328468323 0.993507981300354 0.10849700123071671
vn -0.036974001675844193 0.99375998973846436 0.1052360013127327
vn -0.04253000020980835 0.9948049783706665 0.092486001551151276
vn -0.043063998222351074 0.99560797214508057 0.083131998777389526
vn -0.043627999722957611 0.99553102254867554 0.083755999803543091
vn -0.043634999543428421 0.99553000926971436 0.0837630033493042
vn -0.029031999409198761 0.99612301588058472 0.083047002553939819
f 1/1/1 2/2/2 3/3/3
f 3/3/3 2/2/2 4/4/4
f 2/2/2 5/5/5 6/6/6
f 2/2/2 7/7/7 5/5/5
f 7/7/7 2/2/2 8/8/8
f 6/6/6 9/9/9 2/2/2
f 6/6/6 10/10/10 11/11/11
f 6/6/6 5/5/5 10/10/10
f 1/1/1 8/8/8 2/2/2
f 1/1/1 12/12/12 8/8/8
f 12/12/12 1/1/1 13/13/13
f 14/14/14 2/2/2 9/9/9
f 14/14/14 4/4/4 2/2/2
f 15/15/15 14/14/14 9/9/9
f 16/16/16 9/9/9 17/17/17
f 16/16/16 15/15/15 9/9/9
f 18/18/18 19/19/19 20/20/20
f 17/17/17 21/21/21 22/22/22
f 21/21/21 17/17/17 9/9/9
f 19/19/19 22/22/22 23/23/23
f 22/22/22 19/19/19 17/17/17
f 24/24/24 23/23/23 25/25/25
f 24/24/24 19/19/19 23/23/23
f 23/23/23 22/22/22 26/26/26
f 18/18/18 17/17/17 19/19/19
f 18/18/18 16/16/16 17/17/17
f 22/22/22 21/21/21 27/27/27
f 28/28/28 20/20/20 19/19/19
f 21/21/21 9/9/9 6/6/6
f 21/21/21 6/6/6 29/29/29
f 30/30/30 11/11/11 31/31/31
f 31/31/31 11/11/11 10/10/10
f 11/11/11 32/32/32 33/33/33
f 11/11/11 30/30/30 32/32/32
f 34/34/34 35/35/35 33/33/33
f 34/34/34 36/36/36 35/35/35
f 34/34/34 33/33/33 32/32/32
f 29/29/29 11/11/11 33/33/33
f 35/35/35 37/37/37 33/33/33
f 35/35/35 38/38/38 37/37/37
f 29/29/29 37/37/37 27/27/27
f 26/26/26 27/27/27 39/39/39
f 27/27/27 26/26/26 22/22/22
f 39/39/39 40/40/40 41/41/41
f 39/39/39 42/42/42 40/40/40
f 39/39/39 27/27/27 37/37/37
f 21/21/21 29/29/29 27/27/27
f 42/42/42 37/37/37 43/43/43
f 42/42/42 39/39/39 37/37/37
f 38/38/38 44/44/44 37/37/37
f 43/43/43 37/37/37 44/44/44
f 39/39/39 41/41/41 26/26/26
f 33/33/33 37/37/37 29/29/29
f 6/6/6 11/11/11 29/29/29
f 45/45/45 23/23/23 26/26/26
f 45/45/45 46/46/46 23/23/23
f 47/47/47 28/28/28 48/48/48
f 48/48/48 19/19/19 24/24/24
f 48/48/48 28/28/28 19/19/19
f 45/45/45 26/26/26 49/49/49
f 25/25/25 23/23/23 46/46/46
f 50/50/50 41/41/41 51/51/51
f 49/49/49 41/41/41 50/50/50
f 49/49/49 26/26/26 41/41/41
f 52/52/52 41/41/41 53/53/53
f 52/52/52 51/51/51 41/41/41
f 54/54/54 41/41/41 55/55/55
f 54/54/54 53/53/53 41/41/41
f 55/55/55 41/41/41 40/40/40
