mtllib m211022.mtl
usemtl material0
v -512 5.6714367866516113 -247.81446838378906
v -512 5.4496240615844727 -244.93733215332031
v -508.97976684570312 5.7500009536743164 -245.09780883789063
v -512 5.4499301910400391 -217.41825914382935
v -512 5.2649650573730469 -212.93769836425781
v -507.29629516601562 5.5198869705200195 -213.18692016601563
v -512 5.6540989875793457 -241.74105834960938
v -512 5.1854729652404785 -207.95944213867188
v -512 5.6078720092773438 -256
v -509.5557861328125 5.6543798446655273 -256
v -512 5.2720460891723633 -228.9372410774231
v -508.13973999023438 5.2726831436157227 -229.14109802246094
v -493.02536010742188 5.5992441177368164 -245.9398193359375
v -504.20709228515625 5.6064491271972656 -256
v -487.31127882003784 6.0891280174255371 -256
v -477.06927490234375 5.7975268363952637 -246.78306579589844
v -493.5543212890625 6.0257101058959961 -256
v -492.18582153320312 5.0193891525268555 -229.98275804519653
v -477.55358910560608 6.2536640167236328 -256
v -470.41873168945312 6.19586706161499 -256
v -461.11456298828125 5.7096061706542969 -247.62532043457031
v -476.23407006263733 4.3089962005615234 -230.82281494140625
v -461.55392456054688 6.26163387298584 -256
v -448 6.5199661254882812 -251.02984619140625
v -453.52346801757812 6.61560583114624 -256
v -448 6.4344520568847656 -249.77650451660156
v -448 6.3350691795349121 -248.31990051269531
v -460.2728271484375 5.5906810760498047 -231.66986083984375
v -448 6.3051409721374512 -245.30953979492188
v -475.38845777511597 5.0107817649841309 -214.8702392578125
v -491.34017944335938 5.7226390838623047 -214.03018188476563
v -448 5.9206938743591309 -232.31903076171875
v -448 6.7950949668884277 -256
v -448 5.865109920501709 -228.41911315917969
v -459.4315185546875 5.3852548599243164 -215.71409606933594
v -512 4.9722061157226562 -196.93724060058594
v -506.17868041992188 5.3405900001525879 -192
v -506.45526123046875 5.252863883972168 -197.23095703125
v -512 5.0194969177246094 -193.57246398925781
v -512 5.041597843170166 -192
v -490.4998779296875 5.3062047958374023 -198.07368469238281
v -474.54565382003784 5.1177749633789062 -198.91557312011719
v -495.96426391601562 5.3836660385131836 -192
v -490.1766357421875 5.8340539932250977 -192
v -483.7431640625 5.9840850830078125 -192
v -474.17654418945312 5.9305810928344727 -192
v -458.175048828125 6.307854175567627 -192
v -458.58584594726562 6.0947780609130859 -199.76155090332031
v -466.85342407226562 5.7654881477355957 -192
v -448 6.08954381942749 -216.32005310058594
v -448 6.2865118980407715 -211.52713012695313
v -448 7.0172758102416992 -200.32354736328125
v -450.370361328125 6.9974260330200195 -192
v -448 7.14685583114624 -194.63433837890625
v -448 7.00480318069458 -192
vt 0.99414598941802979 0.86183799803256989
vt 0.99414598941802979 0.81740200519561768
vt 0.94742900133132935 0.82022200524806976
vt 0.99003797769546509 0.39345800876617432
vt 0.98951101303100586 0.32440698146820068
vt 0.917015016078949 0.32895702123641968
vt 0.99346202611923218 0.76808799803256989
vt 0.98882400989532471 0.24774199724197388
vt 0.99475401639938354 0.98788600042462349
vt 0.95710998773574829 0.98806199990212917
vt 0.99165797233581543 0.57084798812866211
vt 0.9322469830513 0.57452899217605591
vt 0.70186698436737061 0.83535900712013245
vt 0.87521499395370483 0.98896699957549572
vt 0.61529898643493652 0.99125299975275993
vt 0.45628300309181213 0.85071499645709991
vt 0.71105599403381348 0.99035200010985136
vt 0.6866689920425415 0.58961001038551331
vt 0.46503099799156189 0.99274299992248416
vt 0.35528600215911865 0.99378200015053153
vt 0.21073499321937561 0.86604100465774536
vt 0.44087401032447815 0.60402899980545044
vt 0.21878400444984436 0.99520500004291534
vt 0.0091650001704692841 0.92132899910211563
vt 0.095092996954917908 0.99689400009810925
vt 0.0089630000293254852 0.90198600292205811
vt 0.0087249996140599251 0.87950500100851059
vt 0.19450899958610535 0.62053599953651428
vt 0.0081120003014802933 0.83315199613571167
vt 0.42564600706100464 0.3589400053024292
vt 0.67140799760818481 0.34394502639770508
vt 0.0056059998460114 0.63304400444030762
vt 0.010001000016927719 0.9979759999550879
vt 0.0051159998401999474 0.57102200388908386
vt 0.17999599874019623 0.37421602010726929
vt 0.987559974193573 0.078055024147033691
vt 0.89707797765731812 0.002817988395690918
vt 0.90211302042007446 0.083334028720855713
vt 0.987064003944397 0.026238977909088135
vt 0.98683297634124756 0.0020239949226379395
vt 0.65653198957443237 0.098263978958129883
vt 0.41095098853111267 0.11315202713012695
vt 0.73992401361465454 0.0040590167045593262
vt 0.65053397417068481 0.0044450163841247559
vt 0.551846981048584 0.004869997501373291
vt 0.40453699231147766 0.005970001220703125
vt 0.15741699934005737 0.00854402780532837
vt 0.16483800113201141 0.12804299592971802
vt 0.29174700379371643 0.0070369839668273926
vt 0.0036959999706596136 0.38468700647354126
vt 0.0032160000409930944 0.31047701835632324
vt 0.0012639999622479081 0.13760197162628174
vt 0.03677000105381012 0.0093830227851867676
vt 0.00046899999142624438 0.050190985202789307
vt 0.00026999998954124749 0.0095670223236083984
vn -0.039337001740932465 0.99911600351333618 0.014839000068604946
vn -0.09874899685382843 0.99510401487350464 0.0041290000081062317
vn -0.021902000531554222 0.99971598386764526 0.009425000287592411
vn -0.014589999802410603 0.99989300966262817 -0.000311999989207834
vn -0.052609000355005264 0.99821901321411133 0.02813199907541275
vn -0.022410999983549118 0.99973899126052856 0.0045250002294778824
vn -0.022885000333189964 0.999705970287323 0.0079709999263286591
vn -0.050395999103784561 0.99855697154998779 0.018533999100327492
vn -0.019023999571800232 0.99978899955749512 -0.007763999979943037
vn -0.0055019999854266644 0.99994897842407227 -0.00848000030964613
vn 0.00017400000069756061 0.99997901916503906 0.0064340000972151756
vn 0.0074539999477565289 0.99994301795959473 0.0076159997843205929
vn -0.0053619998507201672 0.999459981918335 0.032425999641418457
vn -0.0023030000738799572 0.9999920129776001 0.0032760000322014093
vn -0.011711000464856625 0.9989359974861145 0.044617000967264175
vn 0.0060620000585913658 0.99800199270248413 0.062886998057365417
vn -0.025197999551892281 0.99872899055480957 0.043662000447511673
vn 0.01981700025498867 0.99978697299957275 0.005770999938249588
vn -0.0047889999113976955 0.99875402450561523 0.049678999930620193
vn 0.00447099981829524 0.998583972454071 0.053013000637292862
vn -0.03132300078868866 0.99840801954269409 0.0469059981405735
vn -0.0063780001364648342 0.999879002571106 0.014156999997794628
vn -0.025085000321269035 0.99743300676345825 0.067062996327877045
vn -0.040863998234272 0.99707400798797607 0.064599998295307159
vn -0.041246999055147171 0.99703097343444824 0.0650240033864975
vn -0.043933998793363571 0.99671697616577148 0.068005003035068512
vn -0.045485999435186386 0.99816399812698364 0.039994001388549805
vn -0.048567000776529312 0.99878597259521484 0.008231000043451786
vn -0.042029999196529388 0.99901098012924194 0.014511000365018845
vn -0.0013790000230073929 0.99989998340606689 -0.014065000228583813
vn 0.016513999551534653 0.99980300664901733 -0.011006999760866165
vn -0.025701999664306641 0.99942398071289062 0.022169999778270721
vn -0.032428998500108719 0.99794602394104 0.055243000388145447
vn -0.03461800143122673 0.99937897920608521 0.0065970001742243767
vn -0.043540000915527344 0.99896597862243652 -0.013067999854683876
vn -0.050441998988389969 0.99872499704360962 0.0020810000132769346
vn -0.026962000876665115 0.9995189905166626 -0.015336999669671059
vn -0.027993999421596527 0.99960500001907349 0.0026310000102967024
vn -0.051288999617099762 0.99858498573303223 -0.014034999534487724
vn -0.051288999617099762 0.99858498573303223 -0.014034999534487724
vn -0.0057629998773336411 0.9995579719543457 -0.029154000803828239
vn -0.011646999977529049 0.99843400716781616 -0.05471000075340271
vn -0.023808000609278679 0.99913299083709717 -0.0341619998216629
vn -0.049306001514196396 0.99525600671768188 -0.08387099951505661
vn -0.0011680000461637974 0.99397099018096924 -0.10963699966669083
vn 0.014243000186979771 0.99297499656677246 -0.117467001080513
vn -0.075625002384185791 0.99686300754547119 -0.023364000022411346
vn -0.072608001530170441 0.99673998355865479 -0.035185001790523529
vn -0.042580999433994293 0.9980279803276062 -0.046112000942230225
vn -0.063018001616001129 0.99757999181747437 -0.029380999505519867
vn -0.069807000458240509 0.99647301435470581 -0.046567998826503754
vn -0.089069999754428864 0.99503397941589355 -0.044420000165700912
vn -0.065421000123023987 0.997855007648468 -0.0022630000021308661
vn -0.068271003663539886 0.99765497446060181 -0.0048389998264610767
vn -0.0031079999171197414 0.99854499101638794 0.053844999521970749
f 1/1/1 2/2/2 3/3/3
f 4/4/4 5/5/5 6/6/6
f 7/7/7 3/3/3 2/2/2
f 8/8/8 6/6/6 5/5/5
f 9/9/9 3/3/3 10/10/10
f 9/9/9 1/1/1 3/3/3
f 11/11/11 6/6/6 12/12/12
f 11/11/11 4/4/4 6/6/6
f 3/3/3 12/12/12 13/13/13
f 10/10/10 13/13/13 14/14/14
f 10/10/10 3/3/3 13/13/13
f 15/15/15 13/13/13 16/16/16
f 15/15/15 17/17/17 13/13/13
f 13/13/13 18/18/18 16/16/16
f 18/18/18 13/13/13 12/12/12
f 17/17/17 14/14/14 13/13/13
f 18/18/18 12/12/12 6/6/6
f 7/7/7 12/12/12 3/3/3
f 7/7/7 11/11/11 12/12/12
f 15/15/15 16/16/16 19/19/19
f 20/20/20 16/16/16 21/21/21
f 20/20/20 19/19/19 16/16/16
f 16/16/16 22/22/22 21/21/21
f 22/22/22 16/16/16 18/18/18
f 20/20/20 21/21/21 23/23/23
f 23/23/23 24/24/24 25/25/25
f 23/23/23 26/26/26 24/24/24
f 26/26/26 21/21/21 27/27/27
f 26/26/26 23/23/23 21/21/21
f 28/28/28 27/27/27 21/21/21
f 28/28/28 29/29/29 27/27/27
f 28/28/28 21/21/21 22/22/22
f 28/28/28 22/22/22 30/30/30
f 22/22/22 18/18/18 31/31/31
f 32/32/32 29/29/29 28/28/28
f 33/33/33 25/25/25 24/24/24
f 34/34/34 28/28/28 35/35/35
f 34/34/34 32/32/32 28/28/28
f 36/36/36 37/37/37 38/38/38
f 36/36/36 39/39/39 37/37/37
f 39/39/39 40/40/40 37/37/37
f 6/6/6 38/38/38 31/31/31
f 30/30/30 31/31/31 41/41/41
f 22/22/22 31/31/31 30/30/30
f 30/30/30 41/41/41 42/42/42
f 41/41/41 31/31/31 38/38/38
f 31/31/31 18/18/18 6/6/6
f 43/43/43 38/38/38 37/37/37
f 43/43/43 41/41/41 38/38/38
f 43/43/43 44/44/44 41/41/41
f 45/45/45 42/42/42 41/41/41
f 45/45/45 46/46/46 42/42/42
f 45/45/45 41/41/41 44/44/44
f 35/35/35 30/30/30 42/42/42
f 42/42/42 47/47/47 48/48/48
f 42/42/42 49/49/49 47/47/47
f 50/50/50 48/48/48 51/51/51
f 50/50/50 35/35/35 48/48/48
f 52/52/52 51/51/51 48/48/48
f 50/50/50 34/34/34 35/35/35
f 53/53/53 48/48/48 47/47/47
f 53/53/53 52/52/52 48/48/48
f 53/53/53 54/54/54 52/52/52
f 49/49/49 42/42/42 46/46/46
f 54/54/54 53/53/53 55/55/55
f 42/42/42 48/48/48 35/35/35
f 35/35/35 28/28/28 30/30/30
f 6/6/6 36/36/36 38/38/38
f 6/6/6 8/8/8 36/36/36
