mtllib m2111111320.mtl
usemtl material0
v -15.550515055656433 1.7694079875946045 -28
v -16 1.7597179412841797 -27.125365972518921
v -15.505856037139893 1.7421989440917969 -27.151404976844788
v -16 1.7732490301132202 -27.574694037437439
v -15.692129969596863 1.7746529579162598 -28
v -16 1.7757519483566284 -27.657807946205139
v -14.74237197637558 1.7414469718933106 -28
v -15.453559041023254 1.6716480255126953 -26.153972998261452
v -16 1.72679603099823 -26.646034002304077
v -16 1.6465790271759033 -25.12506902217865
v -15.401288986206055 1.5957260131835938 -25.156522989273071
v -16 1.6767059564590454 -25.546608000993729
v -16 1.7421669960021973 -26.12534099817276
v -14.456234991550446 1.6978219747543335 -26.206722006201744
v -14.508660018444061 1.7420059442520142 -27.204063057899475
v -16 1.7813080549240112 -28
v -13.5506010055542 1.762024998664856 -28
v -14.337684005498886 1.7337909936904907 -28
v -13.511640995740891 1.7061690092086792 -27.256598949432373
v -12.55000901222229 1.8829740285873413 -28
v -13.281539022922516 1.7816540002822876 -28
v -12.514067053794861 1.7831219434738159 -27.309525012969971
v -14.550680994987488 1.7414170503616333 -28
v -12 1.8137220144271851 -27.336766958236694
v -12.461799025535584 1.706712007522583 -26.312070995569229
v -12 1.7730519771575928 -26.825215995311737
v -13.459437012672424 1.6165750026702881 -26.259101986885071
v -12 1.8413519859313965 -28
v -12 1.8245849609375 -27.880813956260681
v -14.403941005468369 1.626783013343811 -25.209290027618408
v -13.406666994094849 1.6427019834518433 -25.262003004550934
v -12.409479022026062 1.641044020652771 -25.314655005931854
v -12 1.7177009582519531 -26.336492985486984
v -12 1.6797820329666138 -25.76970499753952
v -13.354835987091065 1.4774260520935059 -24.264243960380554
v -14.352149993181229 1.453205943107605 -24.211501955986023
v -12 1.6465779542922974 -25.3362979888916
v -12 1.5680609941482544 -24.945678949356079
v -12.358008980751038 1.4020390510559082 -24.316642999649048
v -15.348708033561707 1.5832799673080444 -24.159289956092834
v -16 1.6435519456863403 -24.745725989341736
v -15.34045398235321 1.5526870489120483 -24
v -15.492056965827942 1.5642410516738892 -24
v -14.542460978031158 1.4408049583435059 -24
v -16 1.5311260223388672 -24.124730944633484
v -16 1.5280610322952271 -24.063241958618164
v -16 1.5249090194702148 -24
v -13.592604011297226 1.4630379676818848 -24
v -14.341021001338959 1.4462169408798218 -24
v -13.341073989868164 1.4405050277709961 -24
v -12.642930030822754 1.3827370405197144 -24
v -12 1.4207210540771484 -24.335608959197998
v -12 1.4158090353012085 -24.146170020103455
v -12.341331005096436 1.3946759700775147 -24
v -12 1.4120190143585205 -24
vt 0.0370200015604496 0.88252899795770645
vt 0.24939699470996857 0.98233000002801418
vt 0.23909899592399597 0.86463199555873871
vt 0.1422010064125061 0.98616299964487553
vt 0.038191001862287521 0.91632299870252609
vt 0.12237200140953064 0.98687199968844652
vt 0.030324999243021011 0.68969500064849854
vt 0.47706499695777893 0.84327800571918488
vt 0.36396199464797974 0.978065000846982
vt 0.72699999809265137 0.96511700004339218
vt 0.71513897180557251 0.8220369964838028
vt 0.62702500820159912 0.967849001288414
vt 0.48820799589157104 0.97445200011134148
vt 0.45529401302337646 0.60588398575782776
vt 0.21771800518035889 0.62731701135635376
vt 0.040761001408100128 0.98975699953734875
vt 0.019206000491976738 0.40552198886871338
vt 0.026443000882864 0.593311995267868
vt 0.19664500653743744 0.38986402750015259
vt 0.006659999955445528 0.16592901945114136
vt 0.0158890001475811 0.34190702438354492
vt 0.17276699841022492 0.15198397636413574
vt 0.028274999931454659 0.644122987985611
vt 0.16064700484275818 0.029529988765716553
vt 0.41075098514556885 0.12965798377990723
vt 0.28299099206924438 0.0244789719581604
vt 0.43492400646209717 0.36778801679611206
vt 0.0022440000902861357 0.036632001399993896
vt 0.030933000147342682 0.035322010517120361
vt 0.693274974822998 0.58461201190948486
vt 0.67258799076080322 0.34718602895736694
vt 0.65091001987457275 0.10989999771118164
vt 0.40360701084136963 0.019496023654937744
vt 0.53909200429916382 0.015460014343261719
vt 0.91279202699661255 0.32654500007629395
vt 0.93436801433563232 0.56394198536872864
vt 0.64179301261901855 0.012480974197387695
vt 0.73679298162460327 0.0087929964065551758
vt 0.89512401819229126 0.088335990905761719
vt 0.95260202884674072 0.80205400288105011
vt 0.81747597455978394 0.9623039998114109
vt 0.99116098880767822 0.79817700386047363
vt 0.99219399690628052 0.83473099768161774
vt 0.98661202192306519 0.60595598816871643
vt 0.96798300743103027 0.95741700008511543
vt 0.98266100883483887 0.956801999360323
vt 0.99775600433349609 0.95616799965500832
vt 0.97798198461532593 0.38091897964477539
vt 0.98473000526428223 0.55941900610923767
vt 0.97627198696136475 0.32068502902984619
vt 0.97277498245239258 0.15407997369766235
vt 0.88644200563430786 0.0031160116195678711
vt 0.93312597274780273 0.0016250014305114746
vt 0.97054702043533325 0.0820930004119873
vt 0.96799999475479126 0.00058102607727050781
vn 0.035822000354528427 0.99890297651290894 0.030143000185489655
vn 0.0380139984190464 0.99803000688552856 0.049904998391866684
vn 0.024318000301718712 0.99864798784255981 0.045940998941659927
vn 0.036998998373746872 0.99886202812194824 0.030079999938607216
vn 0.032892998307943344 0.999110996723175 0.026384999975562096
vn 0.0334089994430542 0.999081015586853 0.026850000023841858
vn 0.0093400003388524055 0.99992799758911133 0.0075170001946389675
vn 0.040495000779628754 0.99727201461791992 0.061709001660346985
vn 0.06248600035905838 0.99714601039886475 0.042364001274108887
vn 0.086579002439975739 0.99550002813339233 0.038520000874996185
vn 0.050726000219583511 0.99684798717498779 0.060995999723672867
vn 0.0987050011754036 0.99185198545455933 0.080545000731945038
vn 0.13009999692440033 0.99055701494216919 0.043262001127004623
vn 0.02448200061917305 0.99773800373077393 0.062606997787952423
vn 0.016034999862313271 0.99957799911499023 0.024209000170230865
vn 0.021609000861644745 0.99963498115539551 0.016231000423431396
vn -0.053585998713970184 0.99554300308227539 0.077610000967979431
vn 0.019077999517321587 0.99969100952148438 0.015946000814437866
vn -0.022348999977111816 0.99752801656723022 0.066619999706745148
vn -0.033819999545812607 0.98888701200485229 0.14476799964904785
vn -0.087499000132083893 0.99160999059677124 0.095146998763084412
vn -0.056108999997377396 0.99450802803039551 0.088352002203464508
vn 0.017373999580740929 0.99984800815582275 -0.0016570000443607569
vn -0.056788001209497452 0.99720698595047 0.04850199818611145
vn -0.044610999524593353 0.99668902158737183 0.0679749995470047
vn -0.046392999589443207 0.995136022567749 0.0869000032544136
vn -0.014198999851942062 0.99890899658203125 0.044498998671770096
vn 0.074729003012180328 0.98748099803924561 0.13891400396823883
vn 0.043795999139547348 0.99280297756195068 0.11146599799394608
vn -0.00648899981752038 0.99406599998474121 0.10858599841594696
vn -0.00494999997317791 0.99596202373504639 0.089634999632835388
vn -0.0040649999864399433 0.9891669750213623 0.14674000442028046
vn -0.01891000010073185 0.99572098255157471 0.090448997914791107
vn -0.017702000215649605 0.99746102094650269 0.0689840018749237
vn 0.046693000942468643 0.98955398797988892 0.13638800382614136
vn 0.018307000398635864 0.99468499422073364 0.10131999850273132
vn -0.0062609999440610409 0.99084001779556274 0.13489900529384613
vn -0.028930999338626862 0.97398501634597778 0.22475999593734741
vn -0.0047829998657107353 0.99094802141189575 0.13415899872779846
vn 0.068268001079559326 0.9927070140838623 0.099359996616840363
vn 0.044128000736236572 0.99759101867675781 0.053521998226642609
vn 0.10707499831914902 0.97741901874542236 0.18217200040817261
vn -0.036270998418331146 0.99560397863388062 0.086358003318309784
vn 0.09319700300693512 0.98552101850509644 0.14164499938488007
vn -0.073450997471809387 0.99105799198150635 0.11139299720525742
vn -0.077105998992919922 0.99578702449798584 0.0496320016682148
vn -0.077105998992919922 0.99578702449798584 0.049630999565124512
vn 0.0073739998042583466 0.9981120228767395 0.060982000082731247
vn -0.024577999487519264 0.99910902976989746 0.034306999295949936
vn 0.08494199812412262 0.98739701509475708 0.13353799283504486
vn 0.049431998282670975 0.99323999881744385 0.10502500087022781
vn -0.044509001076221466 0.98985999822616577 0.13489100337028503
vn -0.050728000700473785 0.99837702512741089 0.025886999443173409
vn -0.045320000499486923 0.99864399433135986 0.025607999414205551
vn -0.050728000700473785 0.99837702512741089 0.025885999202728271
f 1/1/1 2/2/2 3/3/3
f 1/1/1 4/4/4 2/2/2
f 4/4/4 5/5/5 6/6/6
f 4/4/4 1/1/1 5/5/5
f 1/1/1 3/3/3 7/7/7
f 2/2/2 8/8/8 3/3/3
f 2/2/2 9/9/9 8/8/8
f 8/8/8 10/10/10 11/11/11
f 8/8/8 12/12/12 10/10/10
f 12/12/12 8/8/8 13/13/13
f 8/8/8 11/11/11 14/14/14
f 9/9/9 13/13/13 8/8/8
f 15/15/15 3/3/3 8/8/8
f 6/6/6 5/5/5 16/16/16
f 17/17/17 18/18/18 19/19/19
f 20/20/20 21/21/21 22/22/22
f 14/14/14 15/15/15 8/8/8
f 15/15/15 14/14/14 19/19/19
f 22/22/22 17/17/17 19/19/19
f 22/22/22 21/21/21 17/17/17
f 23/23/23 19/19/19 18/18/18
f 23/23/23 15/15/15 19/19/19
f 24/24/24 25/25/25 26/26/26
f 24/24/24 22/22/22 25/25/25
f 19/19/19 14/14/14 27/27/27
f 28/28/28 22/22/22 29/29/29
f 28/28/28 20/20/20 22/22/22
f 19/19/19 25/25/25 22/22/22
f 27/27/27 30/30/30 31/31/31
f 30/30/30 27/27/27 14/14/14
f 25/25/25 31/31/31 32/32/32
f 31/31/31 25/25/25 27/27/27
f 32/32/32 33/33/33 25/25/25
f 32/32/32 34/34/34 33/33/33
f 30/30/30 35/35/35 31/31/31
f 19/19/19 27/27/27 25/25/25
f 11/11/11 36/36/36 30/30/30
f 29/29/29 22/22/22 24/24/24
f 30/30/30 14/14/14 11/11/11
f 37/37/37 34/34/34 32/32/32
f 37/37/37 32/32/32 38/38/38
f 33/33/33 26/26/26 25/25/25
f 31/31/31 39/39/39 32/32/32
f 15/15/15 7/7/7 3/3/3
f 15/15/15 23/23/23 7/7/7
f 10/10/10 40/40/40 11/11/11
f 10/10/10 41/41/41 40/40/40
f 42/42/42 40/40/40 43/43/43
f 40/40/40 44/44/44 36/36/36
f 40/40/40 42/42/42 44/44/44
f 45/45/45 43/43/43 40/40/40
f 45/45/45 46/46/46 43/43/43
f 46/46/46 47/47/47 43/43/43
f 36/36/36 48/48/48 35/35/35
f 36/36/36 49/49/49 48/48/48
f 48/48/48 50/50/50 35/35/35
f 35/35/35 51/51/51 39/39/39
f 35/35/35 50/50/50 51/51/51
f 30/30/30 36/36/36 35/35/35
f 44/44/44 49/49/49 36/36/36
f 11/11/11 40/40/40 36/36/36
f 52/52/52 39/39/39 53/53/53
f 53/53/53 54/54/54 55/55/55
f 53/53/53 39/39/39 54/54/54
f 38/38/38 39/39/39 52/52/52
f 38/38/38 32/32/32 39/39/39
f 51/51/51 54/54/54 39/39/39
f 31/31/31 35/35/35 39/39/39
f 41/41/41 45/45/45 40/40/40
