mtllib m21111311.mtl
usemtl material0
v -12.284986019134522 3.8907520771026611 -80
v -16 3.4538209438323975 -79.129180908203125
v -12.250173091888428 3.7628059387207031 -79.32818603515625
v -16 3.4617769718170166 -79.1701512336731
v -15.445192813873291 3.6629199981689453 -80
v -16 3.5032389163970947 -79.3836669921875
v -16 3.62106990814209 -80
v -12.042157173156738 3.2423861026763916 -75.337624073028564
v -8.25808298587799 4.4353518486022949 -79.541152954101562
v -16 3.4230189323425293 -78.899887084960938
v -16 2.9325230121612549 -74.510971069335938
v -16 2.6468551158905029 -71.126838982105255
v -15.82328987121582 2.6480319499969482 -71.136177003383636
v -11.83290696144104 2.9734220504760742 -71.347939014434814
v -16 2.9864609241485596 -75.127808094024658
v -11.624741077423096 2.483752965927124 -67.35748291015625
v -7.8433790057897568 3.124492883682251 -71.559096992015839
v -15.615705013275147 2.0397140979766846 -67.145317077636719
v -16 2.092987060546875 -67.4914779663086
v -8.0510639995336533 3.712299108505249 -75.549889087677
v -11.645412921905518 3.9441890716552734 -80
v -16 1.9001150131225586 -65.753386974334717
v -16 2.0501389503479004 -67.125052928924561
v -14.381207942962647 1.7598099708557129 -64
v -15.451323986053467 1.7131229639053345 -64
v -12.552482128143311 1.9506429433822632 -64
v -11.449960947036743 1.9996190071105957 -64
v -16 1.7190419435501099 -64
v -10.308202028274536 1.9884979724884033 -64
v -8.2820360064506531 4.4885129928588867 -80
v -7.8451389968395233 4.5005269050598145 -80
v -4.06122088432312 3.9273300170898438 -75.761269092559814
v -7.636023998260498 2.4697890281677246 -67.568077087402344
v -3.8536667823791504 3.3131570816040039 -71.77038599550724
v -4.2682399749755859 4.6503829956054688 -79.752532958984375
v -8.62169200181961 1.9698450565338135 -64
v -7.4503769874572754 1.9366719722747803 -64
v -6.2368299961090088 1.9562009572982788 -64
v -4.2811839580535889 4.6740579605102539 -80
v -4.0455689430236816 4.6639671325683594 -80
v -0.28029823303222656 4.4782090187072754 -79.962577819824219
v -4.69055700302124 2.0761070251464844 -64
v -3.6455378532409668 2.8161649703979492 -67.7799072265625
v 0 3.5882599353790283 -71.974770000204444
v 0 3.5697839260101318 -71.83032999932766
v -2.1630802154541016 2.3031389713287354 -64
v -3.4492530822753906 2.1762130260467529 -64
v -0.072275161743164062 3.9597420692443848 -75.9720230102539
v -0.28225517272949219 4.4819860458374023 -80
v 0 3.8345251083374023 -74.5908510684967
v -0.24662208557128906 4.4802579879760742 -80
v 0 4.0278987884521484 -76.550376892089844
v 0 3.9649629592895508 -76.052338123321533
v 0 4.4609570503234863 -79.9773178100586
v 0 3.1299190521240234 -67.973426818847656
v 0 3.0418140888214111 -67.442740917205811
v -0.7585148811340332 2.41164493560791 -64
v 0 2.9257960319519043 -66.743935108184814
v 0 2.5279109477996826 -64
v 0 4.4635801315307617 -80
v 0 3.9570279121398926 -75.975830078125
v 0 3.964601993560791 -76.048859119415283
vt 0.023768000304698944 0.76352199912071228
vt 0.084519997239112854 0.9860659996047616
vt 0.064795002341270447 0.7606160044670105
vt 0.082014001905918121 0.98611500021070242
vt 0.030130999162793159 0.95372499898076057
vt 0.068952001631259918 0.98637299984693527
vt 0.031268998980522156 0.98712499998509884
vt 0.30614501237869263 0.74230000376701355
vt 0.040883000940084457 0.51829499006271362
vt 0.098411999642848969 0.98573299963027239
vt 0.36359798908233643 0.97899499908089638
vt 0.56751400232315063 0.97350499965250492
vt 0.56666302680969238 0.96291099861264229
vt 0.54584699869155884 0.72257998585700989
vt 0.32642000913619995 0.97999200038611889
vt 0.78699702024459839 0.7047240138053894
vt 0.52618098258972168 0.48325002193450928
vt 0.80871802568435669 0.94392700120806694
vt 0.78830999135971069 0.96756700053811073
vt 0.28426200151443481 0.5015769898891449
vt 0.022394999861717224 0.72499701380729675
vt 0.89331299066543579 0.96482599899172783
vt 0.81046098470687866 0.966984000056982
vt 0.996392011642456 0.86486299335956573
vt 0.99833899736404419 0.92917100340127945
vt 0.99226999282836914 0.75450199842453
vt 0.98993700742721558 0.68825599551200867
vt 0.99915498495101929 0.96211599931120872
vt 0.98897701501846313 0.62099000811576843
vt 0.012644000351428986 0.52058100700378418
vt 0.01234699971973896 0.49429899454116821
vt 0.26523798704147339 0.26199901103973389
vt 0.76910597085952759 0.46547597646713257
vt 0.506784975528717 0.24379098415374756
vt 0.021858999505639076 0.27871698141098022
vt 0.986814022064209 0.51970699429512024
vt 0.98548597097396851 0.44933700561523438
vt 0.98363298177719116 0.37646001577377319
vt 0.0049660000950098038 0.28010499477386475
vt 0.0065899998880922794 0.2657809853553772
vt 0.0070549999363720417 0.039084970951080322
vt 0.98057502508163452 0.28362202644348145
vt 0.74802100658416748 0.22547602653503418
vt 0.48702800273895264 0.012251019477844238
vt 0.49577200412750244 0.012040019035339356
vt 0.97507601976394653 0.13129198551177979
vt 0.97799301147460938 0.20886600017547607
vt 0.24852399528026581 0.022646009922027588
vt 0.0008449999731965363 0.039547979831695557
vt 0.33039799332618713 0.015435993671417236
vt 0.0047610001638531685 0.037110984325408936
vt 0.21347999572753906 0.018862009048461914
vt 0.24362899363040924 0.018374025821685791
vt 0.0060330000706017017 0.022225022315979004
vt 0.72886502742767334 0.0062270164489746094
vt 0.7610970139503479 0.0055050253868103027
vt 0.97221297025680542 0.046724975109100342
vt 0.80363500118255615 0.0046020150184631348
vt 0.97012597322463989 0.00068002939224243164
vt 0.0045300000347197056 0.022265970706939697
vt 0.24693800508975983 0.018418014049530029
vt 0.24383899569511414 0.018369972705841064
vn -0.076038002967834473 0.978767991065979 0.19034600257873535
vn -0.072604000568389893 0.98438900709152222 0.16033199429512024
vn -0.10589800029993057 0.9823870062828064 0.15395399928092957
vn -0.070596002042293549 0.97921401262283325 0.19014899432659149
vn -0.071473002433776855 0.979299008846283 0.18938100337982178
vn -0.07135000079870224 0.97928702831268311 0.18948900699615479
vn -0.073886997997760773 0.97952598333358765 0.187267005443573
vn -0.09476800262928009 0.98954898118972778 0.10868199914693832
vn -0.093028999865055084 0.98544198274612427 0.142303004860878
vn -0.070027999579906464 0.98930299282073975 0.12796999514102936
vn -0.058740001171827316 0.99448299407958984 0.086909003555774689
vn -0.0003499999875202775 0.992946982383728 0.11855799704790115
vn -0.0393499992787838 0.99273401498794556 0.11371500045061111
vn -0.063395999372005463 0.99218499660491943 0.10746599733829498
vn -0.058903999626636505 0.99320697784423828 0.10034999996423721
vn -0.044321998953819275 0.98926800489425659 0.13922500610351563
vn -0.029819000512361526 0.98807597160339355 0.15105099976062775
vn -0.03661699965596199 0.99083602428436279 0.13001500070095062
vn 0.00976600032299757 0.98988997936248779 0.14149999618530273
vn -0.066579997539520264 0.98559200763702393 0.15548300743103027
vn -0.1383340060710907 0.9804149866104126 0.14017599821090698
vn 0.012604000046849251 0.99457800388336182 0.10322800278663635
vn 0.032859999686479568 0.99313497543334961 0.11225900053977966
vn -0.080114997923374176 0.98959600925445557 0.11950899660587311
vn -0.01717899926006794 0.99441301822662354 0.10415200144052506
vn -0.078652001917362213 0.98770600557327271 0.13509799540042877
vn -0.016308000311255455 0.98951101303100586 0.14353199303150177
vn 0.010728999972343445 0.99465298652648926 0.10271800309419632
vn 0.01044899970293045 0.98982399702072144 0.14191000163555145
vn -0.094851002097129822 0.98829901218414307 0.11945299804210663
vn -0.04276999831199646 0.99379599094390869 0.10266699641942978
vn -0.01510000042617321 0.98716598749160767 0.15897999703884125
vn -0.024102000519633293 0.98774701356887817 0.15419299900531769
vn -0.048533998429775238 0.9893379807472229 0.13731099665164948
vn 0.0013089999556541443 0.99053198099136353 0.13727200031280518
vn 0.018043000251054764 0.989467978477478 0.14362500607967377
vn 0.00531500019133091 0.98904800415039062 0.14749999344348908
vn -0.05305200070142746 0.98526102304458618 0.16262200474739075
vn -0.0044040000066161156 0.99542301893234253 0.0954660028219223
vn 0.04660400003194809 0.99423998594284058 0.09651300311088562
vn 0.049669001251459122 0.99147200584411621 0.12048400193452835
vn -0.077420003712177277 0.98224097490310669 0.17090600728988648
vn -0.0769599974155426 0.98631799221038818 0.14578700065612793
vn -0.065002001821994781 0.99186497926712036 0.10944700241088867
vn -0.067492000758647919 0.99005097150802612 0.12346199899911881
vn -0.08402000367641449 0.98248898983001709 0.1662990003824234
vn -0.088189996778965 0.98136401176452637 0.17072799801826477
vn 0.015783000737428665 0.99339801073074341 0.1136230006814003
vn 0.048128999769687653 0.994038999080658 0.097824998199939728
vn -0.064173996448516846 0.99355500936508179 0.09343399852514267
vn 0.061980001628398895 0.991985023021698 0.11011400073766708
vn 0.067496001720428467 0.98984700441360474 0.1250859946012497
vn 0.061716001480817795 0.99085897207260132 0.11995500326156616
vn 0.06725899875164032 0.99053001403808594 0.1196959987282753
vn -0.077708996832370758 0.98749798536300659 0.13714499771595
vn -0.0759890004992485 0.98364400863647461 0.16330699622631073
vn -0.10633700340986252 0.982230007648468 0.15465199947357178
vn -0.082323998212814331 0.983430027961731 0.16151599586009979
vn -0.14997799694538117 0.97845602035522461 0.14188100397586823
vn 0.067028999328613281 0.99114799499511719 0.11460199952125549
vn 0.042378999292850494 0.99449998140335083 0.09578300267457962
vn 0.042716000229120255 0.99375897645950317 0.10304500162601471
f 1/1/1 2/2/2 3/3/3
f 1/1/1 4/4/4 2/2/2
f 4/4/4 5/5/5 6/6/6
f 4/4/4 1/1/1 5/5/5
f 7/7/7 6/6/6 5/5/5
f 8/8/8 9/9/9 3/3/3
f 3/3/3 10/10/10 8/8/8
f 3/3/3 2/2/2 10/10/10
f 11/11/11 12/12/12 13/13/13
f 8/8/8 13/13/13 14/14/14
f 11/11/11 8/8/8 15/15/15
f 11/11/11 13/13/13 8/8/8
f 16/16/16 17/17/17 14/14/14
f 12/12/12 18/18/18 13/13/13
f 12/12/12 19/19/19 18/18/18
f 10/10/10 15/15/15 8/8/8
f 8/8/8 14/14/14 20/20/20
f 1/1/1 3/3/3 21/21/21
f 13/13/13 16/16/16 14/14/14
f 22/22/22 18/18/18 23/23/23
f 24/24/24 18/18/18 25/25/25
f 26/26/26 18/18/18 24/24/24
f 26/26/26 16/16/16 18/18/18
f 26/26/26 27/27/27 16/16/16
f 13/13/13 18/18/18 16/16/16
f 22/22/22 25/25/25 18/18/18
f 22/22/22 28/28/28 25/25/25
f 19/19/19 23/23/23 18/18/18
f 29/29/29 16/16/16 27/27/27
f 30/30/30 9/9/9 31/31/31
f 9/9/9 8/8/8 20/20/20
f 20/20/20 17/17/17 32/32/32
f 17/17/17 33/33/33 34/34/34
f 20/20/20 14/14/14 17/17/17
f 35/35/35 9/9/9 20/20/20
f 30/30/30 3/3/3 9/9/9
f 30/30/30 21/21/21 3/3/3
f 16/16/16 36/36/36 33/33/33
f 16/16/16 29/29/29 36/36/36
f 36/36/36 37/37/37 33/33/33
f 38/38/38 33/33/33 37/37/37
f 17/17/17 16/16/16 33/33/33
f 35/35/35 20/20/20 32/32/32
f 39/39/39 35/35/35 40/40/40
f 32/32/32 41/41/41 35/35/35
f 32/32/32 17/17/17 34/34/34
f 39/39/39 9/9/9 35/35/35
f 39/39/39 31/31/31 9/9/9
f 33/33/33 42/42/42 43/43/43
f 33/33/33 38/38/38 42/42/42
f 43/43/43 44/44/44 34/34/34
f 43/43/43 45/45/45 44/44/44
f 46/46/46 43/43/43 47/47/47
f 42/42/42 47/47/47 43/43/43
f 32/32/32 34/34/34 48/48/48
f 34/34/34 33/33/33 43/43/43
f 49/49/49 35/35/35 41/41/41
f 49/49/49 40/40/40 35/35/35
f 50/50/50 34/34/34 44/44/44
f 50/50/50 48/48/48 34/34/34
f 49/49/49 41/41/41 51/51/51
f 52/52/52 48/48/48 53/53/53
f 52/52/52 41/41/41 48/48/48
f 52/52/52 54/54/54 41/41/41
f 41/41/41 32/32/32 48/48/48
f 45/45/45 43/43/43 55/55/55
f 46/46/46 55/55/55 43/43/43
f 46/46/46 56/56/56 55/55/55
f 56/56/56 57/57/57 58/58/58
f 56/56/56 46/46/46 57/57/57
f 59/59/59 58/58/58 57/57/57
f 60/60/60 41/41/41 54/54/54
f 60/60/60 51/51/51 41/41/41
f 61/61/61 48/48/48 50/50/50
f 62/62/62 48/48/48 61/61/61
f 62/62/62 53/53/53 48/48/48
