mtllib m2111321.mtl
usemtl material0
v -96 6.5176849365234375 -224
v -96 6.5282149314880371 -222.71391296386719
v -94.842788696289062 6.595801830291748 -224
v -96 6.4269962310791016 -218.90986633300781
v -96 6.5745701789855957 -214.26820421218872
v -91.615196228027344 6.559600830078125 -219.141845703125
v -96 6.6056180000305176 -210.91067504882813
v -96 6.6265711784362793 -205.8224949836731
v -91.193679809570312 6.6362628936767578 -211.16458106040955
v -91.871047973632812 6.6814899444580078 -224
v -87.244057178497314 6.6943349838256836 -224
v -96 6.6924161911010742 -202.91119384765625
v -96 7.003760814666748 -197.37615966796875
v -90.7716064453125 6.8281378746032715 -203.18772888183594
v -96 7.0930519104003906 -194.9127197265625
v -93.238037109375 7.2085351943969727 -192
v -90.349037170410156 7.1200900077819824 -195.21122741699219
v -96 7.13981294631958 -193.51419067382813
v -96 7.1904420852661133 -192
v -83.635886907577515 6.9146418571472168 -219.56436157226563
v -83.8703920841217 6.8467550277709961 -224
v -79.645348012447357 6.7844181060791016 -224
v -83.214637994766235 6.935640811920166 -211.5869140625
v -82.792373895645142 7.16609001159668 -203.61018419265747
v -85.639205932617188 7.3670592308044434 -192
v -82.37000298500061 7.4165377616882324 -195.633544921875
v -90.17913818359375 7.1933860778808594 -192
v -75.236670970916748 7.0152769088745117 -212.00846910476685
v -75.659095764160156 6.7520952224731445 -219.98506164550781
v -75.871269226074219 6.7098159790039062 -224
v -72.047119140625 6.596625804901123 -224
v -74.814980030059814 7.1280522346496582 -204.03132605552673
v -67.260284423828125 6.7716588973999023 -212.42887878417969
v -74.392707824707031 7.3584818840026855 -196.05461120605469
v -66.837898254394531 7.0250558853149414 -204.45223999023438
v -67.682014465332031 6.6505641937255859 -220.40599060058594
v -82.177994012832642 7.4547672271728516 -192
v -74.178641796112061 7.3631701469421387 -192
v -78.331557989120483 7.3930568695068359 -192
v -70.442123413085938 7.3444819450378418 -192
v -66.415328979492188 7.3179850578308105 -196.47573852539063
v -67.872261047363281 6.5497961044311523 -224
v -64.4485092163086 6.6263217926025391 -224
v -64 6.7159180641174316 -220.60063171386719
v -64 6.6419987678527832 -223.70013427734375
v -64 6.6348481178283691 -224
v -64 6.7252688407897949 -217.09390258789063
v -64 6.7918171882629395 -212.60111999511719
v -64 6.9484047889709473 -207.60665899515152
v -64 7.2504119873046875 -199.16044616699219
v -64 7.0540661811828613 -204.60220289230347
v -64 7.342379093170166 -196.60337829589844
v -66.1788558959961 7.3557600975036621 -192
v -64 7.3672480583190918 -193.44918823242188
v -64 7.3786740303039551 -192
vt 0.99588698148727417 0.0041049718856811523
vt 0.956046998500824 0.0041270256042480469
vt 0.99588698148727417 0.04003298282623291
vt 0.83816802501678467 0.003993988037109375
vt 0.69431102275848389 0.004087984561920166
vt 0.84530800580978394 0.13988602161407471
vt 0.590300977230072 0.0041099786758422852
vt 0.43268400430679321 0.0041379928588867188
vt 0.59818899631500244 0.1529960036277771
vt 0.99585402011871338 0.13212597370147705
vt 0.99570602178573608 0.2754560112953186
vt 0.34247800707817078 0.0041829943656921387
vt 0.17075000703334808 0.0044280290603637695
vt 0.35102701187133789 0.16619700193405151
vt 0.09438999742269516 0.0045109987258911133
vt 0.0041849999688565731 0.090165019035339355
vt 0.10378800332546234 0.17953699827194214
vt 0.051043998450040817 0.0045560002326965332
vt 0.0041129998862743378 0.0046060085296630859
vt 0.85820698738098145 0.38731402158737183
vt 0.99562597274780273 0.38006800413131714
vt 0.99563902616500854 0.51096099615097046
vt 0.61116397380828857 0.4003409743309021
vt 0.36398500204086304 0.4135969877243042
vt 0.0042389999143779278 0.32558202743530273
vt 0.11678300052881241 0.42687797546386719
vt 0.0043029999360442162 0.1849210262298584
vt 0.624085009098053 0.64749300479888916
vt 0.8713110089302063 0.63445800542831421
vt 0.9956589937210083 0.62789300084114075
vt 0.99572199583053589 0.74640300869941711
vt 0.37708500027656555 0.66071099042892456
vt 0.63726598024368286 0.89468300342559814
vt 0.1299860030412674 0.6739870011806488
vt 0.39017298817634583 0.9078340008854866
vt 0.88439798355102539 0.88158000260591507
vt 0.0042209997773170471 0.43283402919769287
vt 0.0043910001404583454 0.68069800734519958
vt 0.0042510000057518482 0.55199998617172241
vt 0.0044660000130534172 0.79644499719142914
vt 0.14309200644493103 0.92110099643468857
vt 0.99577397108078 0.87570200115442276
vt 0.99569398164749146 0.981784999370575
vt 0.89035302400588989 0.995658999774605
vt 0.98639297485351562 0.9956789999268949
vt 0.99568498134613037 0.99568099994212389
vt 0.78179502487182617 0.9956559999845922
vt 0.64260798692703247 0.995678000152111
vt 0.4879240095615387 0.99573400011286139
vt 0.22633300721645355 0.99586299993097782
vt 0.39479801058769226 0.99574899999424815
vt 0.14707200229167938 0.99592299992218614
vt 0.004495999775826931 0.928507998585701
vt 0.049362000077962875 0.99596499977633357
vt 0.0044950000010430813 0.99600599985569716
vn -0.06734900176525116 0.99769598245620728 -0.0081679997965693474
vn -0.037820998579263687 0.99911397695541382 0.0184749998152256
vn -0.039094001054763794 0.999085009098053 0.017327999696135521
vn -0.030416000634431839 0.99953097105026245 -0.0035679999273270369
vn -0.01270500011742115 0.999813973903656 -0.014500999823212624
vn -0.029253000393509865 0.99957102537155151 0.001256000017747283
vn -0.0067239999771118164 0.99995601177215576 -0.00659599993377924
vn -0.022347999736666679 0.99958300590515137 -0.018293000757694244
vn -0.025893000885844231 0.99959099292755127 -0.012134999968111515
vn -0.016227999702095985 0.99953198432922363 0.025932999327778816
vn -0.033840000629425049 0.99942398071289062 -0.0027300000656396151
vn -0.028039999306201935 0.99880897998809814 -0.039928998798131943
vn -0.011868000030517578 0.99909400939941406 -0.040869999676942825
vn -0.032552000135183334 0.99896299839019775 -0.031821001321077347
vn -0.0066180001012980938 0.99937301874160767 -0.034772001206874847
vn -0.0034789999481290579 0.99952399730682373 -0.03065899945795536
vn -0.021779999136924744 0.999334990978241 -0.029261000454425812
vn -0.0065469997934997082 0.99941998720169067 -0.033417001366615295
vn -0.0065469997934997082 0.99941998720169067 -0.033417001366615295
vn -0.012222000397741795 0.999888002872467 -0.0085950000211596489
vn -0.016207000240683556 0.99976402521133423 -0.01444500032812357
vn 0.018425000831484795 0.99974900484085083 -0.012775000184774399
vn -0.021492000669240952 0.99961000680923462 -0.01780799962580204
vn -0.021432999521493912 0.99938398599624634 -0.027796000242233276
vn -0.034781001508235931 0.99923801422119141 -0.017686000093817711
vn -0.01360000018030405 0.999701976776123 -0.020281000062823296
vn -0.017368000000715256 0.99960899353027344 -0.021896999329328537
vn 0.0086460001766681671 0.99968302249908447 -0.023631000891327858
vn 0.01384000014513731 0.99968600273132324 -0.020880000665783882
vn 0.024508999660611153 0.99962997436523438 -0.01182200014591217
vn 0.016112999990582466 0.999576985836029 -0.02421100065112114
vn 0.010057000443339348 0.99964797496795654 -0.024553000926971436
vn 0.0088250003755092621 0.99972498416900635 -0.0217289999127388
vn 0.0062930001877248287 0.99984699487686157 -0.016327999532222748
vn -0.00090899999486282468 0.99943101406097412 -0.033702999353408813
vn -0.00039800000376999378 0.9997590184211731 -0.021965999156236649
vn -0.0039510000497102737 0.99993902444839478 -0.010312000289559364
vn 0.0060620000585913658 0.99998098611831665 -0.001475999946705997
vn 0.0092590004205703735 0.99994999170303345 -0.0038290000520646572
vn 0.0029609999619424343 0.99998998641967773 -0.0032560001127421856
vn -0.0045679998584091663 0.9997599720954895 -0.021406000480055809
vn -0.0049970000982284546 0.99960201978683472 -0.027761999517679214
vn -0.019891999661922455 0.99949902296066284 -0.024638000875711441
vn -0.018464000895619392 0.999737024307251 -0.01360700000077486
vn -0.019000999629497528 0.99953502416610718 -0.023838000372052193
vn -0.018999999389052391 0.99953502416610718 -0.023838000372052193
vn -0.0098789995536208153 0.99988400936126709 -0.01157000008970499
vn -0.0073850001208484173 0.99971300363540649 -0.022796999663114548
vn -0.008822999894618988 0.99944198131561279 -0.032223999500274658
vn -0.012090000323951244 0.99927800893783569 -0.036028999835252762
vn -0.01209499966353178 0.99929302930831909 -0.035583999007940292
vn -0.011278999969363213 0.99968600273132324 -0.022383999079465866
vn -0.006713000126183033 0.99994498491287231 -0.0080850003287196159
vn -0.010514999739825726 0.99991399049758911 -0.0078840004280209541
vn -0.010515999980270863 0.99991399049758911 -0.0078840004280209541
f 1/1/1 2/2/2 3/3/3
f 4/4/4 5/5/5 6/6/6
f 7/7/7 8/8/8 9/9/9
f 3/3/3 6/6/6 10/10/10
f 3/3/3 4/4/4 6/6/6
f 3/3/3 2/2/2 4/4/4
f 10/10/10 6/6/6 11/11/11
f 12/12/12 13/13/13 14/14/14
f 15/15/15 16/16/16 17/17/17
f 15/15/15 18/18/18 16/16/16
f 18/18/18 19/19/19 16/16/16
f 6/6/6 7/7/7 9/9/9
f 6/6/6 5/5/5 7/7/7
f 11/11/11 20/20/20 21/21/21
f 11/11/11 6/6/6 20/20/20
f 21/21/21 20/20/20 22/22/22
f 9/9/9 20/20/20 6/6/6
f 20/20/20 9/9/9 23/23/23
f 15/15/15 14/14/14 13/13/13
f 15/15/15 17/17/17 14/14/14
f 14/14/14 17/17/17 24/24/24
f 17/17/17 25/25/25 26/26/26
f 17/17/17 27/27/27 25/25/25
f 14/14/14 24/24/24 23/23/23
f 23/23/23 24/24/24 28/28/28
f 17/17/17 26/26/26 24/24/24
f 9/9/9 14/14/14 23/23/23
f 27/27/27 17/17/17 16/16/16
f 29/29/29 20/20/20 23/23/23
f 12/12/12 9/9/9 8/8/8
f 12/12/12 14/14/14 9/9/9
f 28/28/28 29/29/29 23/23/23
f 30/30/30 20/20/20 29/29/29
f 30/30/30 22/22/22 20/20/20
f 30/30/30 29/29/29 31/31/31
f 32/32/32 28/28/28 24/24/24
f 26/26/26 32/32/32 24/24/24
f 28/28/28 32/32/32 33/33/33
f 32/32/32 34/34/34 35/35/35
f 34/34/34 32/32/32 26/26/26
f 36/36/36 29/29/29 28/28/28
f 37/37/37 26/26/26 25/25/25
f 26/26/26 38/38/38 34/34/34
f 26/26/26 39/39/39 38/38/38
f 39/39/39 26/26/26 37/37/37
f 40/40/40 34/34/34 38/38/38
f 40/40/40 41/41/41 34/34/34
f 42/42/42 36/36/36 43/43/43
f 28/28/28 33/33/33 36/36/36
f 31/31/31 36/36/36 42/42/42
f 31/31/31 29/29/29 36/36/36
f 44/44/44 43/43/43 36/36/36
f 44/44/44 45/45/45 43/43/43
f 45/45/45 46/46/46 43/43/43
f 44/44/44 36/36/36 47/47/47
f 34/34/34 41/41/41 35/35/35
f 48/48/48 35/35/35 49/49/49
f 48/48/48 33/33/33 35/35/35
f 50/50/50 35/35/35 41/41/41
f 50/50/50 51/51/51 35/35/35
f 49/49/49 35/35/35 51/51/51
f 50/50/50 41/41/41 52/52/52
f 48/48/48 36/36/36 33/33/33
f 48/48/48 47/47/47 36/36/36
f 40/40/40 53/53/53 41/41/41
f 52/52/52 41/41/41 54/54/54
f 54/54/54 53/53/53 55/55/55
f 54/54/54 41/41/41 53/53/53
f 33/33/33 32/32/32 35/35/35
