mtllib m21111313.mtl
usemtl material0
v -13.119688034057617 5.84555196762085 -96
v -13.082343101501465 5.8224649429321289 -95.290359020233154
v -12.443892002105713 5.814971923828125 -96
v -13.870715141296387 5.8664212226867676 -96
v -16 5.4896302223205566 -92.048119068145752
v -16 5.8626799583435059 -95.136421203613281
v -16 5.9007182121276855 -96
v -16 5.892052173614502 -95.803253173828125
v -16 5.4368700981140137 -91.135169982910156
v -12.872852802276611 5.6023521423339844 -91.300842046737671
v -16 5.0533618927001953 -87.134064018726349
v -12.663866996765137 5.2796969413757324 -87.310958981513977
v -16 5.1116209030151367 -87.826065003871918
v -12.457011222839356 4.5229630470275879 -83.319580078125
v -8.6738770008087158 5.5245170593261719 -87.522446006536484
v -16 4.9332590103149414 -86.510406017303467
v -8.8833749890327454 5.7426819801330566 -91.511962890625
v -12.284986019134522 3.8907520771026611 -80
v -15.445192813873291 3.6629199981689453 -80
v -16 3.6685309410095215 -80.248252868652344
v -16 4.2197551727294922 -83.131507873535156
v -16 3.62106990814209 -80
v -11.645412921905518 3.9441890716552734 -80
v -8.46638399362564 4.8976631164550781 -83.5315089225769
v -9.0943520069122314 5.6600661277771 -95.500434875488281
v -9.12064802646637 5.6748509407043457 -96
v -8.64488798379898 5.6626911163330078 -96
v -4.8955590724945068 5.5446338653564453 -91.72191596031189
v -5.1060490608215332 5.5611381530761719 -95.710731983184814
v -7.8451389968395233 4.5005269050598145 -80
v -4.4769349098205566 5.032127857208252 -83.742615222930908
v -8.2820360064506531 4.4885129928588867 -80
v -4.6859450340271 5.3499050140380859 -87.732475012540817
v -5.1212749481201172 5.569911003112793 -96
v -4.84577488899231 5.5702910423278809 -96
v -0.907628059387207 5.3700180053710938 -91.931946039199829
v -4.2811839580535889 4.6740579605102539 -80
v -0.48889017105102539 4.8809499740600586 -83.952727794647217
v -4.0455689430236816 4.6639671325683594 -80
v -0.69794702529907227 5.1889619827270508 -87.942558001726866
v -1.1174120903015137 5.5300741195678711 -95.921257019042969
v -1.1215529441833496 5.5333099365234375 -96
v 0 5.4611701965332031 -94.8093638420105
v 0 5.3884520530700684 -92.940711975097656
v 0 5.4611701965332031 -94.8093638420105
v 0 5.5067319869995117 -95.980194091796875
v 0 5.3418350219726562 -91.979782104492188
v 0 5.199531078338623 -88.718285024166107
v -0.28225517272949219 4.4819860458374023 -80
v 0 4.8597822189331055 -83.978477001190186
v -0.24662208557128906 4.4802579879760742 -80
v 0 4.495272159576416 -80.274085998535156
v 0 4.9011130332946777 -84.496078014373779
v 0 5.1623320579528809 -87.97932399995625
v -1.0465707778930664 5.52933406829834 -96
v 0 5.3868322372436523 -92.907318115234375
v 0 4.4635801315307617 -80
v 0 5.5069270133972168 -96
vt 0.99843698740005493 0.18267500400543213
vt 0.95461499691009521 0.18504202365875244
vt 0.99843698740005493 0.22443097829818726
vt 0.998412013053894 0.13630098104476929
vt 0.75322198867797852 0.0051950216293334961
vt 0.94492900371551514 0.0049449801445007324
vt 0.99828499555587769 0.0048559904098510742
vt 0.98612898588180542 0.0048760175704956055
vt 0.69677698612213135 0.0053259730339050293
vt 0.70802199840545654 0.19855999946594238
vt 0.4491649866104126 0.00479501485824585
vt 0.4609299898147583 0.21114099025726318
vt 0.49154099822044373 0.0054000020027160645
vt 0.21008999645709992 0.22207200527191162
vt 0.47477900981903076 0.45784002542495728
vt 0.409963995218277 0.00449901819229126
vt 0.72139900922775269 0.444940984249115
vt 0.0014319999609142542 0.2310439944267273
vt 0.00031900001340545714 0.035480022430419922
vt 0.0156289990991354 0.0012850165367126465
vt 0.19681300222873688 0.0026419758796691895
vt 2.8000000384054147E-05 0.0011870265007019043
vt 0.0017430000007152557 0.270658016204834
vt 0.2253589928150177 0.46934801340103149
vt 0.96760797500610352 0.43140000104904175
vt 0.9984549880027771 0.42973697185516357
vt 0.99847102165222168 0.45911300182342529
vt 0.7350659966468811 0.69135001301765442
vt 0.98123401403427124 0.67761600017547607
vt 0.0060410001315176487 0.50789600610733032
vt 0.2390889972448349 0.71569600701332092
vt 0.0059310002252459526 0.4809190034866333
vt 0.48781698942184448 0.70422300696372986
vt 0.99858599901199341 0.67667999863624573
vt 0.999118983745575 0.69365799427032471
vt 0.74858200550079346 0.93770800158381462
vt 0.00723899994045496 0.72813498973846436
vt 0.25190800428390503 0.96203900128602982
vt 0.0072099999524652958 0.74269199371337891
vt 0.50113397836685181 0.95056099817156792
vt 0.99496299028396606 0.92377900332212448
vt 0.99982702732086182 0.923505999147892
vt 0.92649298906326294 0.9930400000885129
vt 0.81106597185134888 0.99349799985066056
vt 0.92649298906326294 0.9930400000885129
vt 0.99881601333618164 0.99275299999862909
vt 0.75047701597213745 0.99381300015375018
vt 0.548973023891449 0.99369300017133355
vt 0.0066160000860691071 0.97525000013411045
vt 0.2532069981098175 0.99225699994713068
vt 0.0066060000099241734 0.97575300000607967
vt 0.023454999551177025 0.99108000006526709
vt 0.28525599837303162 0.99244999978691339
vt 0.50330299139022827 0.99367799982428551
vt 0.99983298778533936 0.92814099788665771
vt 0.80900198221206665 0.99350700015202165
vt 0.0064249997958540916 0.9910089997574687
vt 0.99997198581695557 0.99275399977341294
vn 0.036175999790430069 0.99887698888778687 0.030592000111937523
vn 0.023564999923110008 0.99836701154708862 0.052028000354766846
vn 0.042931001633405685 0.998682975769043 0.028078999370336533
vn 0.018812000751495361 0.99898302555084229 0.040977999567985535
vn -0.033525999635457993 0.99682897329330444 0.0721609964966774
vn 0.018125999718904495 0.99636399745941162 0.0832500010728836
vn 0.016090000048279762 0.99890202283859253 0.043997999280691147
vn 0.016090000048279762 0.99890202283859253 0.043997999280691147
vn -0.048539001494646072 0.99573898315429688 0.078405998647212982
vn -0.033016998320817947 0.99753397703170776 0.061926998198032379
vn -0.059723000973463058 0.98855799436569214 0.13851200044155121
vn -0.053624000400304794 0.989670991897583 0.13294799625873566
vn -0.059411998838186264 0.99443799257278442 0.086972996592521667
vn -0.071480996906757355 0.9796220064163208 0.18769900500774384
vn -0.0061369999311864376 0.99409401416778564 0.10834799706935883
vn -0.06078299880027771 0.979233980178833 0.19340799748897553
vn 0.0020959998946636915 0.9997289776802063 0.023183999583125114
vn -0.076295003294944763 0.97874599695205688 0.19035500288009644
vn -0.073008999228477478 0.97944498062133789 0.1880359947681427
vn -0.073886997997760773 0.97952598333358765 0.187266007065773
vn -0.07326199859380722 0.97781002521514893 0.19626399874687195
vn -0.073886997997760773 0.97952598333358765 0.187266007065773
vn -0.10208199918270111 0.97968602180480957 0.1726129949092865
vn -0.055211998522281647 0.98898202180862427 0.13735799491405487
vn 0.023837000131607056 0.99963498115539551 0.012749999761581421
vn 0.034109000116586685 0.99903202056884766 0.0277709998190403
vn 0.0261049997061491 0.99924600124359131 0.02873699925839901
vn 0.042975999414920807 0.99864399433135986 0.029393000528216362
vn 0.018814999610185623 0.99971801042556763 0.014473999850451946
vn -0.032930001616477966 0.99322497844696045 0.11144199967384338
vn 0.0046250000596046448 0.99599897861480713 0.0892459973692894
vn -0.0914430022239685 0.98863697052001953 0.11931400001049042
vn 0.036504000425338745 0.99678498506546021 0.071322999894618988
vn 0.012934000231325626 0.99947702884674072 0.029633000493049622
vn 0.0069059999659657478 0.99926000833511353 0.037831999361515045
vn 0.037893999367952347 0.99838197231292725 0.042390000075101852
vn -0.0014059999957680702 0.99544697999954224 0.0953110009431839
vn 0.044966001063585281 0.99525701999664307 0.08626200258731842
vn 0.044071000069379807 0.99457299709320068 0.094250999391078949
vn 0.041127998381853104 0.99734199047088623 0.060148999094963074
vn 0.024221999570727348 0.99922502040863037 0.031041000038385391
vn 0.030688000842928886 0.99875098466873169 0.03942900151014328
vn 0.022917000576853752 0.99898099899291992 0.038874998688697815
vn 0.025397999212145805 0.99883198738098145 0.041103001683950424
vn 0.022918000817298889 0.99898099899291992 0.038874998688697815
vn 0.022137999534606934 0.99946999549865723 0.023879999294877052
vn 0.033429998904466629 0.99837797880172729 0.046077001839876175
vn 0.035032998770475388 0.99836701154708862 0.04512299969792366
vn 0.048133999109268188 0.99404001235961914 0.097815997898578644
vn 0.047733999788761139 0.99494200944900513 0.088380999863147736
vn 0.05325699970126152 0.99332398176193237 0.10233099758625031
vn 0.052593998610973358 0.99342000484466553 0.1017410010099411
vn 0.043198999017477036 0.99618399143218994 0.075836002826690674
vn 0.041317999362945557 0.99721497297286987 0.06208999827504158
vn 0.029820999130606651 0.99940299987792969 0.01743599958717823
vn 0.033544998615980148 0.99826300144195557 0.048424001783132553
vn 0.067029997706413269 0.991146981716156 0.11460600048303604
vn 0.021401999518275261 0.99972200393676758 0.009844999760389328
f 1/1/1 2/2/2 3/3/3
f 4/4/4 2/2/2 1/1/1
f 5/5/5 2/2/2 6/6/6
f 7/7/7 2/2/2 4/4/4
f 7/7/7 8/8/8 2/2/2
f 8/8/8 6/6/6 2/2/2
f 2/2/2 9/9/9 10/10/10
f 2/2/2 5/5/5 9/9/9
f 10/10/10 11/11/11 12/12/12
f 10/10/10 13/13/13 11/11/11
f 14/14/14 15/15/15 12/12/12
f 13/13/13 10/10/10 9/9/9
f 11/11/11 14/14/14 12/12/12
f 11/11/11 16/16/16 14/14/14
f 10/10/10 12/12/12 17/17/17
f 18/18/18 14/14/14 19/19/19
f 20/20/20 14/14/14 21/21/21
f 20/20/20 19/19/19 14/14/14
f 20/20/20 22/22/22 19/19/19
f 16/16/16 21/21/21 14/14/14
f 14/14/14 23/23/23 24/24/24
f 14/14/14 18/18/18 23/23/23
f 2/2/2 10/10/10 25/25/25
f 26/26/26 25/25/25 27/27/27
f 25/25/25 3/3/3 2/2/2
f 25/25/25 26/26/26 3/3/3
f 17/17/17 15/15/15 28/28/28
f 25/25/25 10/10/10 17/17/17
f 29/29/29 25/25/25 17/17/17
f 17/17/17 12/12/12 15/15/15
f 15/15/15 14/14/14 24/24/24
f 24/24/24 30/30/30 31/31/31
f 24/24/24 32/32/32 30/30/30
f 32/32/32 24/24/24 23/23/23
f 15/15/15 24/24/24 33/33/33
f 34/34/34 25/25/25 29/29/29
f 34/34/34 27/27/27 25/25/25
f 34/34/34 29/29/29 35/35/35
f 29/29/29 17/17/17 28/28/28
f 33/33/33 24/24/24 31/31/31
f 33/33/33 36/36/36 28/28/28
f 37/37/37 38/38/38 31/31/31
f 37/37/37 39/39/39 38/38/38
f 33/33/33 31/31/31 40/40/40
f 37/37/37 31/31/31 30/30/30
f 29/29/29 28/28/28 41/41/41
f 28/28/28 15/15/15 33/33/33
f 35/35/35 41/41/41 42/42/42
f 35/35/35 29/29/29 41/41/41
f 28/28/28 36/36/36 41/41/41
f 40/40/40 31/31/31 38/38/38
f 43/43/43 36/36/36 44/44/44
f 45/45/45 41/41/41 36/36/36
f 45/45/45 46/46/46 41/41/41
f 47/47/47 40/40/40 48/48/48
f 47/47/47 36/36/36 40/40/40
f 49/49/49 38/38/38 39/39/39
f 50/50/50 51/51/51 52/52/52
f 50/50/50 38/38/38 51/51/51
f 38/38/38 49/49/49 51/51/51
f 53/53/53 40/40/40 38/38/38
f 53/53/53 54/54/54 40/40/40
f 55/55/55 42/42/42 41/41/41
f 33/33/33 40/40/40 36/36/36
f 56/56/56 36/36/36 47/47/47
f 56/56/56 44/44/44 36/36/36
f 53/53/53 38/38/38 50/50/50
f 52/52/52 51/51/51 57/57/57
f 48/48/48 40/40/40 54/54/54
f 58/58/58 41/41/41 46/46/46
f 58/58/58 55/55/55 41/41/41
