mtllib m211111220.mtl
usemtl material0
v -64 2.3399519920349121 -56
v -62.953624963760376 2.2573099136352539 -54.646533966064453
v -63.024410009384155 2.3881340026855469 -56
v -64 2.2990920543670654 -55.588279962539673
v -64 2.1376729011535645 -53.687355041503906
v -64 2.0642600059509277 -52.590725004673004
v -62.849143981933594 2.0927889347076416 -52.651588022708893
v -64 2.2770659923553467 -55.330307006835938
v -64 2.2139561176300049 -54.591140985488892
v -64 1.973207950592041 -51.372677028179169
v -61.735579967498779 2.4398388862609863 -56
v -64 1.8582819700241089 -49.885853052139282
v -64 1.7644309997558594 -48.589890003204346
v -62.640064001083374 1.7881569862365723 -48.661781072616577
v -60.958858013153076 2.3331210613250732 -54.752116918563843
v -61.024078011512756 2.4628989696502686 -56
v -59.023754000663757 2.5358600616455078 -56
v -58.9641649723053 2.395258903503418 -54.857646942138672
v -59.835807994008064 2.5159060955047607 -56
v -57.021912097930908 2.9086289405822754 -56
v -56.968112945556641 2.7337579727172852 -54.964138031005859
v -57.93572998046875 2.7622950077056885 -56
v -56.03541898727417 3.138185977935791 -56
v -58.859725952148438 2.2224369049072266 -52.86267501115799
v -56 2.9861559867858887 -55.016067981719971
v -56 3.1420528888702393 -55.9690899848938
v -56 3.1471099853515625 -56
v -56 2.8276638984680176 -54.0938720703125
v -64 1.9091140031814575 -50.590289950370789
v -62.744652032852173 1.9307080507278442 -50.656651020050049
v -60.854465007781982 2.1510219573974609 -52.757107019424438
v -60.749947011470795 1.9948010444641113 -50.762192010879517
v -56.863868951797485 2.5213871002197266 -52.969025015830994
v -58.755081057548523 2.0916059017181396 -50.867843985557556
v -60.645264029502869 1.8717809915542603 -48.767386913299561
v -58.65030300617218 1.988116979598999 -48.87310791015625
v -56.654979944229126 2.1776928901672363 -48.979079961776733
v -58.60436999797821 1.9564950466156006 -48
v -59.792160004377365 1.8896950483322144 -48
v -60.60495799779892 1.8314039707183838 -48
v -61.904564023017883 1.7806839942932129 -48
v -56.759552001953125 2.3236620426177979 -50.973965048789978
v -56 2.5700840950012207 -51.817696005105972
v -56 2.4253609180450439 -51.014397025108337
v -56 2.7014510631561279 -53.015216946601868
v -56 2.3207950592041016 -49.706790924072266
v -56 2.2357571125030518 -49.01385498046875
v -56 2.2121119499206543 -48.666594982147217
v -56 2.1932740211486816 -48.389923095703125
v -57.536082983016968 2.0556609630584717 -48
v -56.603530883789062 2.1312100887298584 -48
v -62.605339050292969 1.7465349435806274 -48
v -56 2.1733310222625732 -48
v -64 1.7273989915847778 -48.007926940917969
v -64 1.7268949747085571 -48
vt 0 0
vt 0.16918300092220306 0.13079702854156494
vt 0 0.12194901704788208
vt 0.051465000957250595 0
vt 0.28908100724220276 0
vt 0.42615899443626404 0
vt 0.4185509979724884 0.14385700225830078
vt 0.083711996674537659 0
vt 0.1761070042848587 0
vt 0.57841497659683228 0
vt 0 0.28305202722549438
vt 0.76426798105239868 0
vt 0.92626398801803589 0
vt 0.91727697849273682 0.16999202966690064
vt 0.15598499774932861 0.38014298677444458
vt 0 0.37199002504348755
vt 0 0.62203100323677063
vt 0.14279399812221527 0.62947899103164673
vt 0 0.52052399516105652
vt 0 0.87226100265979767
vt 0.12948299944400787 0.87898600101470947
vt 0 0.75803400576114655
vt 0 0.99557300005108118
vt 0.39216598868370056 0.64253398776054382
vt 0.12299200147390366 1
vt 0.0038640000857412815 1
vt 0 1
vt 0.23826600611209869 1
vt 0.67621397972106934 0
vt 0.66791898012161255 0.15691900253295898
vt 0.40536201000213623 0.39319199323654175
vt 0.65472602844238281 0.40625697374343872
vt 0.37887200713157654 0.89201600104570389
vt 0.64152002334594727 0.65561500191688538
vt 0.90407699346542358 0.41934198141098022
vt 0.890861988067627 0.66871199011802673
vt 0.87761497497558594 0.91812799870967865
vt 1 0.674454003572464
vt 1 0.52597999572753906
vt 1 0.42438000440597534
vt 1 0.261929988861084
vt 0.6282539963722229 0.90505599975585938
vt 0.52278798818588257 1
vt 0.623199999332428 1
vt 0.3730979859828949 1
vt 0.78665101528167725 1
vt 0.8732680082321167 1
vt 0.91667598485946655 1
vt 0.951259970664978 1
vt 1 0.80798999965190887
vt 1 0.92455899715423584
vt 1 0.17433297634124756
vt 1 1
vt 0.99900901317596436 0
vt 1 0
vn -0.049086999148130417 0.9939119815826416 0.098636999726295471
vn -0.036922000348567963 0.995074987411499 0.09198799729347229
vn -0.043855000287294388 0.99418097734451294 0.098389998078346252
vn -0.044344000518321991 0.9946410059928894 0.093399003148078918
vn -0.028257999569177628 0.99681401252746582 0.074593998491764069
vn -0.020974000915884972 0.99726599454879761 0.070859000086784363
vn -0.025665000081062317 0.99620598554611206 0.083158999681472778
vn -0.036754000931978226 0.99570202827453613 0.0850130021572113
vn -0.036796998232603073 0.99576598405838013 0.084238998591899872
vn -0.017665000632405281 0.99685001373291016 0.077312000095844269
vn -0.034788001328706741 0.9940980076789856 0.10275699943304062
vn -0.013427999801933765 0.99730998277664185 0.072053000330924988
vn -0.01372699998319149 0.99748599529266357 0.0695199966430664
vn -0.0274679996073246 0.99739700555801392 0.0666700005531311
vn -0.029558999463915825 0.99484097957611084 0.097041003406047821
vn -0.039785001426935196 0.99363201856613159 0.10541599988937378
vn -0.074008002877235413 0.989313006401062 0.12562599778175354
vn -0.10641799867153168 0.98740601539611816 0.11706399917602539
vn -0.036217998713254929 0.99295198917388916 0.11284899711608887
vn -0.17265899479389191 0.96972799301147461 0.17267400026321411
vn -0.1743990033864975 0.97652298212051392 0.12644399702548981
vn -0.18101200461387634 0.97207200527191162 0.14936399459838867
vn -0.23212400078773499 0.95854800939559937 0.16523699462413788
vn -0.089922003448009491 0.99207699298858643 0.087737999856472015
vn -0.24095200002193451 0.95719999074935913 0.16034300625324249
vn -0.24128200113773346 0.957726001739502 0.15666699409484863
vn -0.24129900336265564 0.957718014717102 0.15668700635433197
vn -0.2077610045671463 0.96997100114822388 0.12645600736141205
vn -0.012934999540448189 0.9967389702796936 0.079650998115539551
vn -0.022321999073028564 0.99674701690673828 0.077446997165679932
vn -0.030618000775575638 0.99613797664642334 0.082291997969150543
vn -0.036704998463392258 0.9967309832572937 0.07197900116443634
vn -0.14975999295711517 0.98362201452255249 0.10029300302267075
vn -0.079264000058174133 0.994238018989563 0.072162002325057983
vn -0.048066999763250351 0.99724400043487549 0.056524001061916351
vn -0.075226001441478729 0.99591398239135742 0.049966998398303986
vn -0.10036499798297882 0.99277800321578979 0.065715998411178589
vn -0.065549999475479126 0.997065007686615 0.039560001343488693
vn -0.062339000403881073 0.99699300527572632 0.046027999371290207
vn -0.045664001256227493 0.99744802713394165 0.054880999028682709
vn -0.042316000908613205 0.997402012348175 0.058292999863624573
vn -0.13126400113105774 0.9865800142288208 0.09710799902677536
vn -0.16715799272060394 0.97667598724365234 0.134770005941391
vn -0.12686899304389954 0.9869539737701416 0.099129997193813324
vn -0.19726799428462982 0.97430002689361572 0.10873900353908539
vn -0.1119690015912056 0.98927801847457886 0.093759998679161072
vn -0.082372002303600311 0.99120599031448364 0.10356499999761581
vn -0.084533996880054474 0.99411898851394653 0.067689001560211182
vn -0.075773000717163086 0.9954419732093811 0.057911999523639679
vn -0.089469999074935913 0.99503898620605469 0.043503999710083008
vn -0.076279997825622559 0.99576699733734131 0.05128299817442894
vn -0.025519000366330147 0.99761801958084106 0.064083002507686615
vn -0.069531999528408051 0.99627798795700073 0.050953999161720276
vn -0.014053000137209892 0.99788302183151245 0.06349799782037735
vn -0.014051999896764755 0.99788600206375122 0.063449002802371979
f 1/1/1 2/2/2 3/3/3
f 1/1/1 4/4/4 2/2/2
f 5/5/5 6/6/6 7/7/7
f 8/8/8 2/2/2 4/4/4
f 8/8/8 9/9/9 2/2/2
f 6/6/6 10/10/10 7/7/7
f 11/11/11 3/3/3 2/2/2
f 12/12/12 13/13/13 14/14/14
f 9/9/9 7/7/7 2/2/2
f 9/9/9 5/5/5 7/7/7
f 11/11/11 15/15/15 16/16/16
f 11/11/11 2/2/2 15/15/15
f 17/17/17 15/15/15 18/18/18
f 17/17/17 19/19/19 15/15/15
f 16/16/16 15/15/15 19/19/19
f 20/20/20 18/18/18 21/21/21
f 20/20/20 22/22/22 18/18/18
f 17/17/17 18/18/18 22/22/22
f 20/20/20 21/21/21 23/23/23
f 21/21/21 18/18/18 24/24/24
f 18/18/18 15/15/15 24/24/24
f 7/7/7 15/15/15 2/2/2
f 25/25/25 23/23/23 21/21/21
f 25/25/25 26/26/26 23/23/23
f 26/26/26 27/27/27 23/23/23
f 25/25/25 21/21/21 28/28/28
f 29/29/29 7/7/7 10/10/10
f 29/29/29 30/30/30 7/7/7
f 7/7/7 30/30/30 31/31/31
f 31/31/31 30/30/30 32/32/32
f 15/15/15 31/31/31 24/24/24
f 21/21/21 24/24/24 33/33/33
f 31/31/31 34/34/34 24/24/24
f 31/31/31 15/15/15 7/7/7
f 24/24/24 34/34/34 33/33/33
f 32/32/32 14/14/14 35/35/35
f 14/14/14 32/32/32 30/30/30
f 34/34/34 35/35/35 36/36/36
f 35/35/35 34/34/34 32/32/32
f 36/36/36 37/37/37 34/34/34
f 38/38/38 35/35/35 39/39/39
f 38/38/38 36/36/36 35/35/35
f 31/31/31 32/32/32 34/34/34
f 40/40/40 14/14/14 41/41/41
f 40/40/40 35/35/35 14/14/14
f 33/33/33 34/34/34 42/42/42
f 12/12/12 30/30/30 29/29/29
f 12/12/12 14/14/14 30/30/30
f 43/43/43 42/42/42 44/44/44
f 42/42/42 45/45/45 33/33/33
f 42/42/42 43/43/43 45/45/45
f 28/28/28 33/33/33 45/45/45
f 28/28/28 21/21/21 33/33/33
f 46/46/46 37/37/37 47/47/47
f 37/37/37 44/44/44 42/42/42
f 37/37/37 46/46/46 44/44/44
f 48/48/48 37/37/37 49/49/49
f 48/48/48 47/47/47 37/37/37
f 37/37/37 42/42/42 34/34/34
f 50/50/50 36/36/36 38/38/38
f 50/50/50 37/37/37 36/36/36
f 39/39/39 35/35/35 40/40/40
f 51/51/51 37/37/37 50/50/50
f 41/41/41 14/14/14 52/52/52
f 53/53/53 37/37/37 51/51/51
f 53/53/53 49/49/49 37/37/37
f 54/54/54 14/14/14 13/13/13
f 54/54/54 52/52/52 14/14/14
f 54/54/54 55/55/55 52/52/52
