mtllib m21111222.mtl
usemtl material0
v -128 5.0236730575561523 -117.21846795082092
v -128 5.15357780456543 -115.36163282394409
v -126.24545288085938 5.1985621452331543 -117.31168389320374
v -127.22808122634888 5.558417797088623 -128
v -128 5.3639969825744629 -125.20282697677612
v -126.80767107009888 5.5993709564208984 -128
v -126.37224578857422 5.6184191703796387 -128
v -122.255774974823 5.3815031051635742 -117.52295708656311
v -126.03486585617065 5.2025980949401855 -113.32293701171875
v -128 5.152885913848877 -113.21900177001953
v -128 5.4008278846740723 -128
v -128 5.0611581802368164 -112
v -125.96552276611328 5.1045269966125488 -112
v -128 5.1031007766723633 -112.5573878288269
v -123.425940990448 5.1471948623657227 -112
v -122.04567003250122 5.28544282913208 -113.53385877609253
v -119.36649298667908 5.5977611541748047 -128
v -118.22915601730347 5.6076140403747559 -128
v -118.26677703857422 5.4252810478210449 -117.73374891281128
v -114.27782392501831 5.45831298828125 -117.94449591636658
v -118.80783796310425 5.6033639907836914 -128
v -118.05602300167084 5.4615440368652344 -113.74511003494263
v -112 5.9024219512939453 -126.20040082931519
v -112 5.9703178405761719 -128
v -112 5.5482578277587891 -118.06507098674774
v -112 5.4789462089538574 -115.89532518386841
v -114.06752777099609 5.4022917747497559 -113.95554399490356
v -119.62643399834633 5.2760729789733887 -112
v -121.96522498130798 5.181495189666748 -112
v -115.82692718505859 5.4076600074768066 -112
v -117.96400499343872 5.4406638145446777 -112
v -113.96413421630859 5.4337139129638672 -112
v -112 5.4805359840393066 -112
v -112 5.4811091423034668 -112.03059387207031
v -112.02752685546875 5.480891227722168 -112
v -112 5.4510421752929688 -114.06487989425659
v -112 5.4653749465942383 -113.0950779914856
vt 0.67384600639343262 0
vt 0.78989797830581665 0
vt 0.66802000999450684 0.10965901613235474
vt 0 0.048245012760162354
vt 0.17482300102710724 0
vt 0 0.074521005153656
vt 0 0.10173499584197998
vt 0.65481501817703247 0.35901397466659546
vt 0.9173160195350647 0.12282097339630127
vt 0.92381197214126587 0
vt 0 0
vt 1 0
vt 1 0.12715500593185425
vt 0.965162992477417 0
vt 1 0.28587901592254639
vt 0.90413397550582886 0.37214601039886475
vt 0 0.53959399461746216
vt 0 0.61067798733711243
vt 0.64164102077484131 0.60832598805427551
vt 0.62846899032592773 0.85763600468635559
vt 0 0.574510008096695
vt 0.89093101024627686 0.62149900197982788
vt 0.11247500032186508 1
vt 0 1
vt 0.62093299627304077 1
vt 0.75654202699661255 1
vt 0.87777900695800781 0.87078000605106354
vt 1 0.52334800362586975
vt 1 0.37717300653457642
vt 1 0.76081700623035431
vt 1 0.62724998593330383
vt 1 0.87724199891090393
vt 1 1
vt 0.998088002204895 1
vt 1 0.99828000005800277
vt 0.87094497680664062 1
vt 0.93155801296234131 1
vn -0.097590997815132141 0.9947890043258667 0.029493000358343124
vn -0.06139799952507019 0.9975929856300354 -0.03223000094294548
vn -0.056097999215126038 0.99807798862457275 0.026319999247789383
vn -0.10403800010681152 0.99375402927398682 0.04036099836230278
vn -0.12406300008296967 0.9916679859161377 0.034690000116825104
vn -0.0698779970407486 0.996711015701294 0.041051998734474182
vn -0.015348000451922417 0.99947202205657959 0.028630999848246574
vn -0.017943000420928 0.9996110200881958 0.021328000351786613
vn -0.027912000194191933 0.99925500154495239 0.026667000725865364
vn -0.024872999638319016 0.99966001510620117 0.0078600002452731133
vn -0.2000110000371933 0.97970902919769287 0.012900000438094139
vn -0.021252000704407692 0.9969559907913208 0.0750190019607544
vn -0.019137000665068626 0.99700599908828735 0.074911996722221375
vn -0.021252000704407692 0.9969559907913208 0.0750190019607544
vn -0.018059000372886658 0.99712300300598145 0.0736209973692894
vn -0.030953999608755112 0.99862498044967651 0.042304001748561859
vn -0.0021120000164955854 0.999796986579895 0.020053999498486519
vn -0.037188999354839325 0.9988740086555481 0.029443999752402306
vn -0.0062710000202059746 0.99991601705551147 0.011349000036716461
vn -0.032666999846696854 0.999055027961731 0.028667999431490898
vn -0.008661000058054924 0.99980401992797852 0.017799999564886093
vn -0.01485699974000454 0.99982702732086182 0.011161999776959419
vn -0.053536001592874527 0.99780797958374023 0.038904000073671341
vn -0.058086998760700226 0.99760198593139648 0.037638001143932343
vn -0.037255000323057175 0.998462975025177 0.041030999273061752
vn -0.027029000222682953 0.99943500757217407 0.019982000812888145
vn -0.0035230000503361225 0.99998599290847778 0.0038670001085847616
vn -0.053224001079797745 0.99689400196075439 0.05805400013923645
vn -0.033819001168012619 0.99702000617980957 0.069339998066425323
vn 0.0082010002806782722 0.99995601177215576 0.0046330001205205917
vn -0.034609001129865646 0.99930602312088013 0.013782000169157982
vn -0.021129999309778214 0.9996650218963623 -0.014945999719202519
vn 0.012901999987661839 0.99974101781845093 0.018729999661445618
vn -0.023295000195503235 0.99963301420211792 -0.01384000014513731
vn -0.02433600090444088 0.99959498643875122 -0.014762000180780888
vn -0.023737000301480293 0.99971300363540649 -0.0031169999856501818
vn -0.0243500005453825 0.99959397315979 -0.014774000272154808
f 1/1/1 2/2/2 3/3/3
f 1/1/1 4/4/4 5/5/5
f 1/1/1 3/3/3 4/4/4
f 3/3/3 6/6/6 4/4/4
f 7/7/7 3/3/3 8/8/8
f 7/7/7 6/6/6 3/3/3
f 3/3/3 9/9/9 8/8/8
f 10/10/10 3/3/3 2/2/2
f 10/10/10 9/9/9 3/3/3
f 11/11/11 5/5/5 4/4/4
f 12/12/12 13/13/13 14/14/14
f 14/14/14 9/9/9 10/10/10
f 14/14/14 13/13/13 9/9/9
f 15/15/15 9/9/9 13/13/13
f 15/15/15 16/16/16 9/9/9
f 7/7/7 8/8/8 17/17/17
f 18/18/18 19/19/19 20/20/20
f 18/18/18 21/21/21 19/19/19
f 19/19/19 17/17/17 8/8/8
f 19/19/19 21/21/21 17/17/17
f 19/19/19 8/8/8 22/22/22
f 16/16/16 8/8/8 9/9/9
f 23/23/23 18/18/18 20/20/20
f 23/23/23 24/24/24 18/18/18
f 25/25/25 23/23/23 20/20/20
f 25/25/25 20/20/20 26/26/26
f 20/20/20 19/19/19 27/27/27
f 16/16/16 28/28/28 22/22/22
f 16/16/16 29/29/29 28/28/28
f 30/30/30 22/22/22 31/31/31
f 30/30/30 27/27/27 22/22/22
f 22/22/22 27/27/27 19/19/19
f 31/31/31 22/22/22 28/28/28
f 8/8/8 16/16/16 22/22/22
f 30/30/30 32/32/32 27/27/27
f 29/29/29 16/16/16 15/15/15
f 33/33/33 34/34/34 35/35/35
f 32/32/32 36/36/36 27/27/27
f 32/32/32 37/37/37 36/36/36
f 37/37/37 35/35/35 34/34/34
f 37/37/37 32/32/32 35/35/35
f 26/26/26 27/27/27 36/36/36
f 26/26/26 20/20/20 27/27/27
