mtllib m211111001.mtl
usemtl material0
v -55.428283929824829 4.382810115814209 -8
v -54.433398962020874 4.34098482131958 -7.1045839786529541
v -54.480427026748657 4.3892049789428711 -8
v -51.205058991909027 4.4193930625915527 -8
v -50.444304943084717 4.4042220115661621 -7.3154380321502686
v -50.480330944061279 4.4261751174926758 -8
v -49.0932080745697 4.4648852348327637 -8
v -48.449619054794312 4.4634261131286621 -7.4209589958190918
v -48.4801139831543 4.4783101081848145 -8
v -53.316650032997131 4.4033050537109375 -8
v -52.43886199593544 4.3708949089050293 -7.2100050449371338
v -52.480414986610413 4.4006757736206055 -8
v -52.334273993968964 4.2278299331665039 -5.21513295173645
v -48.344775915145874 4.3735818862915039 -5.4262709617614746
v -48 4.4781451225280762 -7.598275899887085
v -48 4.4740200042724609 -7.4447360038757324
v -48 4.4889388084411621 -8
v -48 4.3985481262207031 -5.8094309568405151
v -50.3394809961319 4.3094949722290039 -5.3207319974899292
v -56 4.2791481018066406 -7.0216588973999023
v -56 4.344851016998291 -7.7897930145263672
v -56 4.3628311157226562 -8
v -56 4.132483959197998 -5.3637629747390747
v -54.328994989395142 4.1613001823425293 -5.1095860004425049
v -56 4.101067066192627 -5.0211529731750488
v -54.224181890487671 4.0651068687438965 -3.1148759722709656
v -56 4.0856518745422363 -4.71272599697113
v -50.234588980674744 4.2299051284790039 -3.32607901096344
v -48 4.379004955291748 -5.4444949626922607
v -48.239895105361938 4.2910618782043457 -3.4316080212593079
v -52.229393005371094 4.1457982063293457 -3.220471978187561
v -48 4.3657441139221191 -5.1160180568695068
v -52.124352000653744 4.0959901809692383 -1.2259209156036377
v -50.129616022109985 4.1659369468688965 -1.3314800262451172
v -56 3.98458194732666 -3.0208439826965332
v -56 3.8897349834442139 -1.1414470672607422
v -48.134974956512451 4.2163519859313965 -1.43697190284729
v -48 4.2952461242675781 -3.4442890286445618
v -48 4.2241740226745605 -1.5869779586791992
v -56 3.8853681087493896 -1.0205891132354736
v -54.119216918945312 3.9991869926452637 -1.1202700138092041
v -55.127335071563721 3.8858339786529541 0
v -56 3.8793110847473145 -0.89713311195373535
v -56 3.8352921009063721 0
v -50.059527993202209 4.1258430480957031 0
v -50.761692047119141 4.1024050712585449 0
v -48 4.2192349433898926 -1.4441080093383789
v -48 4.2115278244018555 -1.1173079013824463
v -48.059279918670654 4.1839852333068848 0
v -48 4.1851768493652344 0
v -48.649651050567627 4.1698060035705566 0
v -52.059909999370575 4.0416707992553711 0
v -52.874001026153564 4.004180908203125 0
v -54.060370922088623 3.94132399559021 0
vt 0 0.071465015411376953
vt 0.11192700266838074 0.19582498073577881
vt 0 0.18994700908660889
vt 0 0.59936800599098206
vt 0.085570000112056732 0.6944620013237
vt 0 0.68995898962020874
vt 0 0.86334900557994843
vt 0.072379998862743378 0.9437980018556118
vt 0 0.93998600170016289
vt 0 0.33541899919509888
vt 0.09874899685382843 0.44514197111129761
vt 0 0.43994802236557007
vt 0.34810799360275269 0.45821601152420044
vt 0.32171601057052612 0.95690299943089485
vt 0.050214998424053192 1
vt 0.069407999515533447 1
vt 0 1
vt 0.27382099628448486 1
vt 0.33490800857543945 0.70756500959396362
vt 0.12229300290346146 0
vt 0.026275999844074249 0
vt 0 0
vt 0.32953000068664551 0
vt 0.361301988363266 0.20887601375579834
vt 0.37235599756240845 0
vt 0.6106410026550293 0.22197699546813965
vt 0.41090899705886841 0
vt 0.58424001932144165 0.7206760048866272
vt 0.31943801045417786 1
vt 0.57104897499084473 0.97001300007104874
vt 0.59744101762771606 0.47132599353790283
vt 0.36049801111221313 1
vt 0.84675997495651245 0.48445600271224976
vt 0.83356499671936035 0.73379799723625183
vt 0.62239497900009155 0
vt 0.85731899738311768 0
vt 0.82037800550460815 0.98312800005078316
vt 0.56946402788162231 1
vt 0.8016279935836792 1
vt 0.87242597341537476 0
vt 0.859965980052948 0.23509800434112549
vt 1 0.10908299684524536
vt 0.887857973575592 0
vt 1 0
vt 1 0.74255898594856262
vt 1 0.65478798747062683
vt 0.81948602199554443 1
vt 0.86033600568771362 1
vt 1 0.99258999992161989
vt 1 1
vt 1 0.91879399865865707
vt 1 0.49251097440719604
vt 1 0.390749990940094
vt 1 0.24245399236679077
vn -0.02072799950838089 0.99735802412033081 0.069618001580238342
vn -0.023548999801278114 0.99655598402023315 0.079503998160362244
vn -0.0096909999847412109 0.99847900867462158 0.05427899956703186
vn -0.012740000151097775 0.99926000833511353 0.036302998661994934
vn -0.022453000769019127 0.99876898527145386 0.044231999665498734
vn -0.021524999290704727 0.99921798706054688 0.0331760011613369
vn -0.027038000524044037 0.99910402297973633 0.0325700007379055
vn -0.025978999212384224 0.99877697229385376 0.04206399992108345
vn -0.022019999101758003 0.99939697980880737 0.026847999542951584
vn -0.0091129997745156288 0.99865198135375977 0.051095999777317047
vn -0.018239999189972878 0.99804401397705078 0.059794001281261444
vn -0.010885999538004398 0.99920898675918579 0.038240998983383179
vn -0.030996000394225121 0.99767100811004639 0.060766000300645828
vn -0.02715500071644783 0.99857598543167114 0.045922998338937759
vn -0.022126000374555588 0.99939501285552979 0.026853000745177269
vn -0.021142000332474709 0.998753011226654 0.045226000249385834
vn -0.022123999893665314 0.99939501285552979 0.026852000504732132
vn -0.019596999511122704 0.99868202209472656 0.047439001500606537
vn -0.029580999165773392 0.998337984085083 0.0494530014693737
vn -0.034685000777244568 0.99559098482131958 0.087150998413562775
vn -0.034795999526977539 0.99575799703598022 0.085173003375530243
vn -0.034797001630067825 0.99575799703598022 0.085171997547149658
vn -0.032485999166965485 0.99541300535202026 0.089988000690937042
vn -0.032283999025821686 0.99733501672744751 0.065430000424385071
vn -0.033048998564481735 0.99792701005935669 0.055217001587152481
vn -0.042883999645709991 0.99814099073410034 0.043308001011610031
vn -0.040725000202655792 0.99748098850250244 0.058086998760700226
vn -0.033211998641490936 0.9986950159072876 0.03878600150346756
vn -0.013213000260293484 0.99879598617553711 0.047251001000404358
vn -0.027383999899029732 0.99878197908401489 0.041032999753952026
vn -0.036913000047206879 0.99862200021743774 0.03730899840593338
vn -0.015042000450193882 0.99900597333908081 0.041953999549150467
vn -0.039923999458551407 0.99863702058792114 0.033608999103307724
vn -0.030928999185562134 0.999068021774292 0.030094999819993973
vn -0.042339000850915909 0.99760299921035767 0.054728001356124878
vn -0.043540999293327332 0.997825026512146 0.049492999911308289
vn -0.024762999266386032 0.99914801120758057 0.033006001263856888
vn -0.015332999639213085 0.99909698963165283 0.0396139994263649
vn -0.015704000368714333 0.99915498495101929 0.037969999015331268
vn -0.058217000216245651 0.99748098850250244 0.040520001202821732
vn -0.051669001579284668 0.99774801731109619 0.042761001735925674
vn -0.056030001491308212 0.99715197086334229 0.050473999232053757
vn -0.057750001549720764 0.99713200330734253 0.0489250011742115
vn -0.057750999927520752 0.99713099002838135 0.04892599955201149
vn -0.032581999897956848 0.99896299839019775 0.031796000897884369
vn -0.042004998773336411 0.99825698137283325 0.04146600142121315
vn -0.019923999905586243 0.999439001083374 0.026910999789834023
vn -0.020099999383091927 0.99952000379562378 0.023572999984025955
vn -0.023767000064253807 0.99943500757217407 0.023763999342918396
vn -0.02009199932217598 0.99952000379562378 0.023572999984025955
vn -0.029043000191450119 0.9991459846496582 0.029378000646829605
vn -0.046186000108718872 0.99784302711486816 0.046640999615192413
vn -0.050032999366521835 0.997435986995697 0.051167000085115433
vn -0.05237099900841713 0.99715298414230347 0.054255001246929169
f 1/1/1 2/2/2 3/3/3
f 4/4/4 5/5/5 6/6/6
f 7/7/7 8/8/8 9/9/9
f 10/10/10 11/11/11 12/12/12
f 2/2/2 13/13/13 11/11/11
f 10/10/10 2/2/2 11/11/11
f 10/10/10 3/3/3 2/2/2
f 5/5/5 14/14/14 8/8/8
f 7/7/7 5/5/5 8/8/8
f 7/7/7 6/6/6 5/5/5
f 15/15/15 8/8/8 16/16/16
f 15/15/15 9/9/9 8/8/8
f 15/15/15 17/17/17 9/9/9
f 16/16/16 14/14/14 18/18/18
f 16/16/16 8/8/8 14/14/14
f 5/5/5 12/12/12 11/11/11
f 5/5/5 4/4/4 12/12/12
f 11/11/11 19/19/19 5/5/5
f 20/20/20 2/2/2 21/21/21
f 21/21/21 1/1/1 22/22/22
f 21/21/21 2/2/2 1/1/1
f 20/20/20 23/23/23 2/2/2
f 23/23/23 24/24/24 2/2/2
f 23/23/23 25/25/25 24/24/24
f 24/24/24 13/13/13 2/2/2
f 25/25/25 26/26/26 24/24/24
f 25/25/25 27/27/27 26/26/26
f 13/13/13 28/28/28 19/19/19
f 19/19/19 14/14/14 5/5/5
f 18/18/18 14/14/14 29/29/29
f 19/19/19 30/30/30 14/14/14
f 11/11/11 13/13/13 19/19/19
f 24/24/24 31/31/31 13/13/13
f 29/29/29 14/14/14 32/32/32
f 19/19/19 28/28/28 30/30/30
f 33/33/33 31/31/31 26/26/26
f 24/24/24 26/26/26 31/31/31
f 13/13/13 31/31/31 28/28/28
f 34/34/34 28/28/28 31/31/31
f 35/35/35 26/26/26 27/27/27
f 36/36/36 26/26/26 35/35/35
f 37/37/37 38/38/38 30/30/30
f 37/37/37 39/39/39 38/38/38
f 32/32/32 30/30/30 38/38/38
f 32/32/32 14/14/14 30/30/30
f 37/37/37 30/30/30 28/28/28
f 26/26/26 40/40/40 41/41/41
f 26/26/26 36/36/36 40/40/40
f 40/40/40 42/42/42 41/41/41
f 40/40/40 43/43/43 42/42/42
f 43/43/43 44/44/44 42/42/42
f 33/33/33 45/45/45 34/34/34
f 33/33/33 46/46/46 45/45/45
f 31/31/31 33/33/33 34/34/34
f 47/47/47 37/37/37 48/48/48
f 48/48/48 49/49/49 50/50/50
f 48/48/48 37/37/37 49/49/49
f 39/39/39 37/37/37 47/47/47
f 37/37/37 28/28/28 34/34/34
f 34/34/34 49/49/49 37/37/37
f 34/34/34 51/51/51 49/49/49
f 33/33/33 26/26/26 41/41/41
f 41/41/41 52/52/52 33/33/33
f 41/41/41 53/53/53 52/52/52
f 53/53/53 41/41/41 54/54/54
f 51/51/51 34/34/34 45/45/45
f 46/46/46 33/33/33 52/52/52
f 54/54/54 41/41/41 42/42/42
