mtllib m21111332.mtl
usemtl material0
v -28.648789882659912 6.5088710784912109 -128
v -26.520102024078369 6.3527669906616211 -122.58162689208984
v -25.025611996650696 6.5273361206054688 -128
v -20.504895925521851 6.6258840560913086 -128
v -18.541615009307861 6.5377469062805176 -123.0035400390625
v -17.164145946502686 6.5342521667480469 -128
v -32 6.4217920303344727 -122.29246497154236
v -32 6.4111480712890625 -120.71353900432587
v -30.508985996246338 6.3335089683532715 -122.3709180355072
v -30.298655986785889 6.284325122833252 -118.38198900222778
v -30.805294036865234 6.50188684463501 -128
v -26.310313940048218 6.19323205947876 -118.59230804443359
v -32 6.3892278671264648 -118.29247999191284
v -32 6.5238070487976074 -126.11022901535034
v -32 6.5743041038513184 -128
v -32 6.4538121223449707 -116.11469292640686
v -30.087567806243896 6.3899168968200684 -114.39359283447266
v -32 6.4579482078552246 -114.29281616210938
v -32 6.4244709014892578 -112.26789903640747
v -28.44202995300293 6.2691311836242676 -112
v -26.09954309463501 6.2343721389770508 -114.60369110107422
v -29.961512088775635 6.3302221298217773 -112
v -32 6.4183998107910156 -112
v -22.530899047851562 6.4369587898254395 -122.79255700111389
v -22.321370959281921 6.2246899604797363 -118.80305504798889
v -16 6.4964389801025391 -121.60575902462006
v -18.331634998321533 6.4177632331848145 -119.01435899734497
v -16 6.5425419807434082 -123.13777208328247
v -16 6.5365238189697266 -128
v -16 6.5391650199890137 -125.86648607254028
v -16 6.4238729476928711 -119.13751202821732
v -22.805124044418335 6.5710539817810059 -128
v -18.121723175048828 6.2831249237060547 -115.02513122558594
v -24.64293897151947 6.164362907409668 -112
v -25.96227502822876 6.1981191635131836 -112
v -22.111240029335022 6.1349740028381348 -114.81398010253906
v -21.963193893432617 6.0355210304260254 -112
v -16 6.3645877838134766 -117.38321709632874
v -16 6.2899842262268066 -115.13719892501831
v -17.962533950805664 6.1828742027282715 -112
v -18.983416080474854 6.1468539237976074 -112
v -16 6.2649021148681641 -113.48200988769531
v -16 6.2593560218811035 -113.116051197052
v -16 6.2212228775024414 -112
vt 0 0.20945101976394653
vt 0.3386479914188385 0.34249401092529297
vt 0 0.435899019241333
vt 0 0.71844398975372314
vt 0.31227898597717285 0.84114900231361389
vt 0 0.9272409975528717
vt 0.35672101378440857 0
vt 0.45540401339530945 0
vt 0.35181799530982971 0.093187987804412842
vt 0.60112601518630981 0.10633397102355957
vt 0 0.0746690034866333
vt 0.58798098564147949 0.35560500621795654
vt 0.606719970703125 0
vt 0.11811099946498871 0
vt 0 0
vt 0.7428320050239563 0
vt 0.85039997100830078 0.11952698230743408
vt 0.85669898986816406 0
vt 0.98325598239898682 0
vt 1 0.22237300872802734
vt 0.83726900815963745 0.36877900362014771
vt 1 0.12740600109100342
vt 1 0
vt 0.32546499371528625 0.59181898832321167
vt 0.57480901479721069 0.60491400957107544
vt 0.39963999390602112 1
vt 0.56160300970077515 0.85427300631999969
vt 0.30388900637626648 1
vt 0 1
vt 0.13334499299526215 1
vt 0.55390501022338867 1
vt 0 0.57468000054359436
vt 0.810929000377655 0.86739200353622437
vt 1 0.45981597900390625
vt 1 0.37735801935195923
vt 0.82412600517272949 0.61804699897766113
vt 1 0.62729999423027039
vt 0.66354900598526 1
vt 0.80392497777938843 1
vt 1 0.87734200060367584
vt 1 0.81353700160980225
vt 0.90737402439117432 1
vt 0.93024700880050659 1
vt 1 1
vn -0.0044010002166032791 0.99952399730682373 0.030525000765919685
vn -0.0061619998887181282 0.99954301118850708 0.029604999348521233
vn -0.010635999962687492 0.99951499700546265 0.029269000515341759
vn -0.0063780001364648342 0.99977701902389526 0.020142000168561935
vn -0.011826000176370144 0.99962097406387329 0.0248429998755455
vn 0.015603999607264996 0.99987202882766724 0.0036019999533891678
vn 0.060327000916004181 0.99790000915527344 0.023603999987244606
vn 0.061005000025033951 0.99810397624969482 0.0081259999424219131
vn 0.019406000152230263 0.99960500001907349 0.020318999886512756
vn 0.026708999648690224 0.999642014503479 0.0017259999876841903
vn 0.016431000083684921 0.999442994594574 0.029030999168753624
vn 0.0086970003321766853 0.99986600875854492 0.013890000060200691
vn 0.061484001576900482 0.99810701608657837 -0.0011010000016540289
vn 0.060481999069452286 0.99781298637390137 0.026662999764084816
vn 0.060483001172542572 0.99781298637390137 0.026662999764084816
vn 0.054063998162746429 0.99827200174331665 -0.023013999685645103
vn 0.037124000489711761 0.99929499626159668 -0.0055829999037086964
vn 0.035950999706983566 0.9993249773979187 0.0076219998300075531
vn 0.037209000438451767 0.99915897846221924 0.017233999446034431
vn 0.036437001079320908 0.99914699792861938 0.019442999735474586
vn 0.023444000631570816 0.99970698356628418 0.005948999896645546
vn 0.041905999183654785 0.99886399507522583 0.022703999653458595
vn 0.043205000460147858 0.99880999326705933 0.022633999586105347
vn -0.018996000289916992 0.999110996723175 0.037641000002622604
vn -0.019819999113678932 0.999343991279602 0.030298000201582909
vn -0.00052399997366592288 0.99955302476882935 0.029874999076128006
vn -0.026424000039696693 0.99910598993301392 0.032999001443386078
vn -0.0013569999719038606 0.99994897842407227 0.010026999749243259
vn -0.0019509999547153711 0.99999701976776123 -0.0012379999971017242
vn -0.0019519999623298645 0.99999701976776123 -0.0012379999971017242
vn -0.00090599997201934457 0.99947398900985718 0.032432001084089279
vn -0.020785000175237656 0.99942398071289062 0.026830000802874565
vn -0.025929000228643417 0.99917101860046387 0.0313900001347065
vn 0.033388998359441757 0.99924999475479126 0.019603999331593513
vn 0.0275650005787611 0.9995419979095459 0.012463999912142754
vn -0.004925999790430069 0.999638020992279 0.026448000222444534
vn 0.0030920000281184912 0.99937701225280762 0.035158000886440277
vn -0.0011960000265389681 0.99944001436233521 0.033450998365879059
vn -0.0018830000190064311 0.999671995639801 0.025544000789523125
vn -0.030780000612139702 0.99892300367355347 0.034722998738288879
vn -0.036782998591661453 0.99865001440048218 0.03666900098323822
vn -0.0024319998919963837 0.99988198280334473 0.015151999890804291
vn -0.015308000147342682 0.99944901466369629 0.029456999152898788
vn -0.01952500082552433 0.99922597408294678 0.034141000360250473
f 1/1/1 2/2/2 3/3/3
f 4/4/4 5/5/5 6/6/6
f 7/7/7 8/8/8 9/9/9
f 2/2/2 9/9/9 10/10/10
f 11/11/11 2/2/2 1/1/1
f 11/11/11 9/9/9 2/2/2
f 2/2/2 10/10/10 12/12/12
f 13/13/13 9/9/9 8/8/8
f 13/13/13 10/10/10 9/9/9
f 11/11/11 7/7/7 9/9/9
f 11/11/11 14/14/14 7/7/7
f 14/14/14 11/11/11 15/15/15
f 10/10/10 16/16/16 17/17/17
f 10/10/10 13/13/13 16/16/16
f 18/18/18 19/19/19 17/17/17
f 17/17/17 20/20/20 21/21/21
f 17/17/17 22/22/22 20/20/20
f 18/18/18 17/17/17 16/16/16
f 17/17/17 21/21/21 12/12/12
f 23/23/23 17/17/17 19/19/19
f 23/23/23 22/22/22 17/17/17
f 12/12/12 10/10/10 17/17/17
f 24/24/24 2/2/2 12/12/12
f 21/21/21 25/25/25 12/12/12
f 24/24/24 25/25/25 5/5/5
f 26/26/26 5/5/5 27/27/27
f 26/26/26 28/28/28 5/5/5
f 29/29/29 6/6/6 30/30/30
f 30/30/30 5/5/5 28/28/28
f 30/30/30 6/6/6 5/5/5
f 26/26/26 27/27/27 31/31/31
f 27/27/27 5/5/5 25/25/25
f 4/4/4 24/24/24 5/5/5
f 4/4/4 32/32/32 24/24/24
f 27/27/27 25/25/25 33/33/33
f 34/34/34 21/21/21 35/35/35
f 34/34/34 36/36/36 21/21/21
f 25/25/25 21/21/21 36/36/36
f 34/34/34 37/37/37 36/36/36
f 35/35/35 21/21/21 20/20/20
f 38/38/38 33/33/33 39/39/39
f 36/36/36 33/33/33 25/25/25
f 36/36/36 40/40/40 33/33/33
f 36/36/36 41/41/41 40/40/40
f 33/33/33 31/31/31 27/27/27
f 33/33/33 38/38/38 31/31/31
f 39/39/39 33/33/33 42/42/42
f 42/42/42 33/33/33 43/43/43
f 12/12/12 25/25/25 24/24/24
f 32/32/32 2/2/2 24/24/24
f 32/32/32 3/3/3 2/2/2
f 44/44/44 33/33/33 40/40/40
f 44/44/44 43/43/43 33/33/33
f 41/41/41 36/36/36 37/37/37
