mtllib m211111320.mtl
usemtl material0
v -32 2.2048881053924561 -56
v -32 2.1772439479827881 -55.268493890762329
v -31.3419189453125 2.1449480056762695 -56
v -32 2.1778500080108643 -51.045692026615143
v -30.834084033966064 1.9912209510803223 -52.341953009366989
v -32 2.1168169975280762 -52.280784994363785
v -32 2.292917013168335 -48.934062957763672
v -30.728456020355225 2.0610690116882324 -50.347815990448
v -32 2.2092618942260742 -50.281142950057983
v -32 2.1369469165802 -54.2807879447937
v -32 2.132814884185791 -53.157181024551392
v -30.939135074615479 2.039046049118042 -54.336493968963623
v -31.026566028594971 2.1151700019836426 -56
v -28.94575297832489 1.8331049680709839 -54.44110107421875
v -30.676312923431396 2.0782461166381836 -56
v -29.027657032012939 1.9101649522781372 -56
v -28.734875023365021 1.8956539630889893 -50.452559947967529
v -28.840493977069855 1.8277599811553955 -52.446705013513565
v -26.952272057533264 1.6471819877624512 -54.545779943466187
v -26.846729040145874 1.6999410390853882 -52.551581978797913
v -32 2.3304150104522705 -48.2815899848938
v -30.622670888900757 2.1631410121917725 -48.353790044784546
v -27.543343007564545 1.7566629648208618 -56
v -30.603912115097046 2.179171085357666 -48
v -30.940895080566406 2.2084779739379883 -48
v -29.0415860414505 2.0264990329742432 -48
v -28.629258990287781 1.9630589485168457 -48.458415985107422
v -32 2.3328750133514404 -48.157639026641846
v -32 2.3360030651092529 -48
v -28.604947984218597 1.9849530458450317 -48
v -27.142202019691467 1.8850959539413452 -48
v -26.635560989379883 1.8215689659118652 -48.563247919082642
v -26.741099953651428 1.7697889804840088 -50.557446002960205
v -27.028734028339386 1.707679033279419 -56
v -25.64398193359375 1.6029330492019653 -56
v -24.853034973144531 1.5574729442596436 -52.656409978866577
v -24.747446060180664 1.6195089817047119 -50.662246942520142
v -26.605677008628845 1.8510910272598267 -48
v -24.958396911621094 1.5418230295181274 -54.650733947753906
v -24 1.5296390056610107 -56
v -24.346606969833374 1.5463269948959351 -56
v -24 1.5284500122070313 -55.688019037246704
v -24 1.5097229480743408 -54.701241016387939
v -24 1.5202399492263794 -53.604609966278076
v -24 1.5090539455413818 -52.701301991939545
v -24 1.5501539707183838 -51.493152976036072
v -24 1.5563900470733643 -50.701514959335327
v -25.029484033584595 1.5698809623718262 -56
v -24.64176607131958 1.7000969648361206 -48.66814398765564
v -24 1.590522050857544 -49.989547967910767
v -24.60624098777771 1.749845027923584 -48
v -25.242769002914429 1.7720340490341187 -48
v -24 1.6479469537734985 -48.701869964599609
v -24 1.6765389442443848 -48.3379020690918
v -24 1.7030839920043945 -48
vt 0 0
vt 0.09143800288438797 0
vt 0 0.082260012626647949
vt 0.61928802728652954 0
vt 0.45725598931312561 0.14573997259140015
vt 0.46490201354026794 0
vt 0.88324201107025146 0
vt 0.70652300119400024 0.15894299745559692
vt 0.71485698223114014 0
vt 0.21490100026130676 0
vt 0.3553520143032074 0
vt 0.20793800055980682 0.13260799646377564
vt 0 0.12167900800704956
vt 0.1948619931936264 0.38178098201751709
vt 0 0.165461003780365
vt 0 0.37154299020767212
vt 0.69343000650405884 0.40814101696014404
vt 0.44416201114654541 0.39493799209594727
vt 0.18177700042724609 0.63096600770950317
vt 0.43105199933052063 0.6441589891910553
vt 0.964801013469696 0
vt 0.95577597618103027 0.17216598987579346
vt 0 0.55708199739456177
vt 1 0.17451101541519165
vt 1 0.13238799571990967
vt 1 0.36980199813842773
vt 0.94269800186157227 0.42134302854537964
vt 0.98029500246047974 0
vt 1 0
vt 1 0.42438101768493652
vt 1 0.60722500085830688
vt 0.92959398031234741 0.6705549955368042
vt 0.68031901121139526 0.65736201405525208
vt 0 0.62140798568725586
vt 0 0.794502004981041
vt 0.41794899106025696 0.89337100088596344
vt 0.66721898317337036 0.90656899660825729
vt 1 0.6742900013923645
vt 0.16865800321102142 0.88019999861717224
vt 0 1
vt 0 0.9566739983856678
vt 0.03899800032377243 1
vt 0.16234500706195831 1
vt 0.29942399263381958 1
vt 0.41233700513839722 1
vt 0.56335598230361938 1
vt 0.66231101751327515 1
vt 0 0.87131500244140625
vt 0.91648197174072266 0.91977900266647339
vt 0.75130701065063477 1
vt 1 0.9242200031876564
vt 1 0.844653993844986
vt 0.91226601600646973 1
vt 0.95776200294494629 1
vt 1 1
vn 0.0906430035829544 0.99517297744750977 0.037608001381158829
vn 0.092532999813556671 0.994933009147644 0.0393190011382103
vn 0.093471996486186981 0.99481099843978882 0.040167998522520065
vn 0.10792200267314911 0.99309897422790527 -0.0459120012819767
vn 0.093786001205444336 0.99543499946594238 -0.017707999795675278
vn 0.10697600245475769 0.99425899982452393 -0.0024580000899732113
vn 0.1140109971165657 0.991661012172699 -0.0600849986076355
vn 0.097502000629901886 0.9939810037612915 -0.049943998456001282
vn 0.11316200345754623 0.99242997169494629 -0.047715999186038971
vn 0.093339003622531891 0.99522697925567627 0.028470000252127647
vn 0.099082998931407928 0.99502897262573242 0.010014999657869339
vn 0.10237699747085571 0.99440997838974 0.025831000879406929
vn 0.10346800088882446 0.99382698535919189 0.0400409996509552
vn 0.09686800092458725 0.995041012763977 0.02258400060236454
vn 0.10192800313234329 0.99385601282119751 0.043134000152349472
vn 0.10200999677181244 0.99382001161575317 0.04376700147986412
vn 0.074546001851558685 0.99639397859573364 -0.040522001683712006
vn 0.07570900022983551 0.996891975402832 -0.021785000339150429
vn 0.072159998118877411 0.997393012046814 0.00083999999333173037
vn 0.062743999063968658 0.99755597114562988 -0.030729999765753746
vn 0.11773200333118439 0.99169999361038208 -0.051676999777555466
vn 0.097011998295784 0.99409902095794678 -0.048544000834226608
vn 0.097800999879837036 0.99443298578262329 0.039220001548528671
vn 0.0952569991350174 0.99419099092483521 -0.050096999853849411
vn 0.11508399993181229 0.993071973323822 -0.02374500036239624
vn 0.096822001039981842 0.99402099847793579 -0.050473999232053757
vn 0.076592996716499329 0.99633300304412842 -0.038130000233650208
vn 0.11952199786901474 0.99263602495193481 -0.01969899982213974
vn 0.11952199786901474 0.99263602495193481 -0.019696999341249466
vn 0.074142999947071075 0.995917022228241 -0.051497001200914383
vn 0.067299999296665192 0.99638497829437256 -0.051842998713254929
vn 0.065853998064994812 0.99708098173141479 -0.03863999992609024
vn 0.0678820013999939 0.99709099531173706 -0.03465300053358078
vn 0.0806180015206337 0.996051013469696 0.037197999656200409
vn 0.061503000557422638 0.9977949857711792 0.024970000609755516
vn 0.062588997185230255 0.997750997543335 -0.024002000689506531
vn 0.068166002631187439 0.99703198671340942 -0.035794999450445175
vn 0.059328000992536545 0.99670100212097168 -0.055388998240232468
vn 0.0518140010535717 0.99864798784255981 -0.0042710001580417156
vn 0.048091001808643341 0.9988359808921814 0.0038069998845458031
vn 0.035339999943971634 0.99921298027038574 0.017991999164223671
vn 0.035328000783920288 0.99921399354934692 0.01800600066781044
vn 0.033344000577926636 0.99944102764129639 -0.0024749999865889549
vn 0.043976999819278717 0.99903202056884766 0.00033400001120753586
vn 0.055426999926567078 0.99818897247314453 -0.023396000266075134
vn 0.066311001777648926 0.99752002954483032 -0.023612000048160553
vn 0.082721002399921417 0.996213972568512 -0.026745999231934547
vn 0.0435819998383522 0.99887901544570923 0.0184749998152256
vn 0.063865996897220612 0.996720016002655 -0.049692999571561813
vn 0.079162999987602234 0.99584299325942993 -0.045047998428344727
vn 0.059677999466657639 0.99522197246551514 -0.077274002134799957
vn 0.053835000842809677 0.99681097269058228 -0.058899000287055969
vn 0.078176997601985931 0.9955899715423584 -0.051849998533725739
vn 0.076669000089168549 0.99399399757385254 -0.0780860036611557
vn 0.076669000089168549 0.99399399757385254 -0.078087002038955688
f 1/1/1 2/2/2 3/3/3
f 4/4/4 5/5/5 6/6/6
f 7/7/7 8/8/8 9/9/9
f 10/10/10 11/11/11 12/12/12
f 10/10/10 3/3/3 2/2/2
f 10/10/10 12/12/12 3/3/3
f 12/12/12 13/13/13 3/3/3
f 13/13/13 14/14/14 15/15/15
f 13/13/13 12/12/12 14/14/14
f 15/15/15 14/14/14 16/16/16
f 9/9/9 5/5/5 4/4/4
f 9/9/9 8/8/8 5/5/5
f 5/5/5 8/8/8 17/17/17
f 18/18/18 14/14/14 5/5/5
f 14/14/14 18/18/18 19/19/19
f 18/18/18 17/17/17 20/20/20
f 17/17/17 18/18/18 5/5/5
f 12/12/12 5/5/5 14/14/14
f 8/8/8 21/21/21 22/22/22
f 8/8/8 7/7/7 21/21/21
f 23/23/23 16/16/16 14/14/14
f 6/6/6 12/12/12 11/11/11
f 6/6/6 5/5/5 12/12/12
f 8/8/8 22/22/22 17/17/17
f 24/24/24 22/22/22 25/25/25
f 22/22/22 26/26/26 27/27/27
f 22/22/22 24/24/24 26/26/26
f 21/21/21 25/25/25 22/22/22
f 21/21/21 28/28/28 25/25/25
f 28/28/28 29/29/29 25/25/25
f 26/26/26 30/30/30 27/27/27
f 31/31/31 27/27/27 30/30/30
f 31/31/31 32/32/32 27/27/27
f 17/17/17 22/22/22 27/27/27
f 33/33/33 17/17/17 27/27/27
f 18/18/18 20/20/20 19/19/19
f 34/34/34 19/19/19 35/35/35
f 27/27/27 32/32/32 33/33/33
f 33/33/33 36/36/36 20/20/20
f 32/32/32 37/37/37 33/33/33
f 31/31/31 38/38/38 32/32/32
f 19/19/19 20/20/20 39/39/39
f 17/17/17 33/33/33 20/20/20
f 23/23/23 19/19/19 34/34/34
f 23/23/23 14/14/14 19/19/19
f 40/40/40 41/41/41 42/42/42
f 36/36/36 39/39/39 20/20/20
f 43/43/43 36/36/36 44/44/44
f 43/43/43 39/39/39 36/36/36
f 45/45/45 37/37/37 46/46/46
f 45/45/45 36/36/36 37/37/37
f 37/37/37 36/36/36 33/33/33
f 45/45/45 44/44/44 36/36/36
f 47/47/47 46/46/46 37/37/37
f 42/42/42 39/39/39 43/43/43
f 42/42/42 41/41/41 39/39/39
f 41/41/41 48/48/48 39/39/39
f 37/37/37 32/32/32 49/49/49
f 39/39/39 35/35/35 19/19/19
f 39/39/39 48/48/48 35/35/35
f 47/47/47 37/37/37 50/50/50
f 51/51/51 49/49/49 52/52/52
f 53/53/53 49/49/49 54/54/54
f 54/54/54 51/51/51 55/55/55
f 54/54/54 49/49/49 51/51/51
f 32/32/32 52/52/52 49/49/49
f 32/32/32 38/38/38 52/52/52
f 50/50/50 49/49/49 53/53/53
f 50/50/50 37/37/37 49/49/49
