mtllib m21111303.mtl
usemtl material0
v -43.433738946914673 5.5635390281677246 -96
v -41.005797982215881 5.4279069900512695 -93.814537048339844
v -41.120720028877258 5.5169248580932617 -96
v -47.656569957733154 5.5724430084228516 -96
v -44.994766235351562 5.3915419578552246 -93.603775024414062
v -45.120438098907471 5.5542387962341309 -96
v -39.211296021938324 5.5103750228881836 -96
v -37.017035961151123 5.422764778137207 -94.025154113769531
v -37.120865106582642 5.5061039924621582 -96
v -34.9886589050293 5.4793620109558105 -96
v -33.028450012207031 5.3814849853515625 -94.235649108886719
v -33.12076997756958 5.5431561470031738 -96
v -48 5.3876838684082031 -93.445061206817627
v -48 5.1208510398864746 -90.2640609741211
v -48 4.8673272132873535 -86.0417629480362
v -44.785624980926514 5.0991640090942383 -89.613998055458069
v -48 5.0604147911071777 -89.444129943847656
v -44.576972961425781 4.7081508636474609 -85.623886108398438
v -48 4.8097829818725586 -85.443450927734375
v -40.796818017959595 5.1037921905517578 -89.82465398311615
v -36.808413982391357 5.0249199867248535 -90.035018920898438
v -40.588284015655518 4.6878762245178223 -85.834450006484985
v -48 4.5048480033874512 -81.442588806152344
v -44.367496013641357 4.4846100807189941 -81.634354114532471
v -48 4.5258059501647949 -81.819633007049561
v -44.28163480758667 4.4024319648742676 -80
v -48 4.4879288673400879 -81.103195190429688
v -46.774375915527344 4.4228801727294922 -80
v -48 4.4977068901062012 -81.299332141876221
v -36.599045038223267 4.7803878784179688 -86.04541003704071
v -32.819869995117188 4.9758281707763672 -90.245482921600342
v -40.378886997699738 4.4482231140136719 -81.844863891601562
v -36.38986611366272 4.4963021278381348 -82.0556640625
v -48 5.5243010520935059 -95.325339794158936
v -48 5.5733189582824707 -96
v -40.282085001468658 4.3324341773986816 -80
v -42.038849115371704 4.3760929107666016 -80
v -48 4.4524922370910645 -80
v -36.282845020294189 4.201570987701416 -80
v -38.2396160364151 4.3502278327941895 -80
v -34.440811157226562 4.0877180099487305 -80
v -32.40214204788208 4.2792439460754395 -82.265549182891846
v -32.610020160675049 4.8289508819580078 -86.256209969520569
v -32 5.3909831047058105 -94.289986133575439
v -32 5.0717940330505371 -91.156554937362671
v -32 5.0015621185302734 -90.288856983184814
v -32 5.45963716506958 -95.037353992462158
v -32 5.5480670928955078 -96
v -32 4.929069995880127 -89.507483959198
v -32 4.8147950172424316 -86.288383007049561
v -32 4.3278732299804688 -82.7124252319336
v -32 4.2524290084838867 -82.286696910858154
v -32 4.2209348678588867 -82.044228076934814
v -32 4.202610969543457 -81.903144836425781
v -32.284634113311768 3.8682680130004883 -80
v -32 3.8601810932159424 -80
vt 0.27644899487495422 0.025793015956878662
vt 0.42676100134849548 0.15210598707199097
vt 0.4152970016002655 0.021075010299682617
vt 0.023008000105619431 0.034623980522155762
vt 0.18780599534511566 0.17324900627136231
vt 0.17522099614143372 0.029372990131378174
vt 0.52989399433135986 0.017104983329772949
vt 0.665710985660553 0.13116097450256348
vt 0.65535300970077515 0.012750983238220215
vt 0.78333002328872681 0.0083649754524230957
vt 0.90467798709869385 0.11039602756500244
vt 0.8955339789390564 0.0042489767074584961
vt 0.0077780000865459442 0.18906098604202271
vt 0.014469999819993973 0.38063901662826538
vt 0.023374000564217567 0.63450199365615845
vt 0.20875099301338196 0.41289997100830078
vt 0.016194999217987061 0.429980993270874
vt 0.2296919971704483 0.65307500958442688
vt 0.024653000757098198 0.67057499289512634
vt 0.44770398736000061 0.39190900325775146
vt 0.68671399354934692 0.37137299776077271
vt 0.46865001320838928 0.63223999738693237
vt 0.0329429991543293 0.911420002579689
vt 0.25056299567222595 0.89245100319385529
vt 0.032159000635147095 0.88875599950551987
vt 0.25910800695419312 0.99048400018364191
vt 0.033647999167442322 0.93181400001049042
vt 0.1094990000128746 0.9955939999781549
vt 0.033241000026464462 0.92002800107002258
vt 0.70765501260757446 0.61086198687553406
vt 0.92568802833557129 0.35065597295761108
vt 0.48952800035476685 0.87167499959468842
vt 0.72858297824859619 0.85047599673271179
vt 0.00381799996830523 0.075937986373901367
vt 0.002397000091150403 0.035341024398803711
vt 0.49922201037406921 0.98240900039672852
vt 0.3937230110168457 0.98591499961912632
vt 0.035918001085519791 0.99805799999739975
vt 0.73961001634597778 0.97486300021409988
vt 0.62180399894714355 0.97806699946522713
vt 0.85039401054382324 0.97172899916768074
vt 0.96794497966766357 0.8309749960899353
vt 0.94661897420883179 0.58968499302864075
vt 0.96628397703170776 0.10491698980331421
vt 0.97295302152633667 0.29394102096557617
vt 0.97481298446655273 0.34618502855300903
vt 0.96476501226425171 0.059961020946502686
vt 0.96279901266098022 0.001941978931427002
vt 0.97644299268722534 0.39319300651550293
vt 0.98317801952362061 0.586546003818512
vt 0.99110198020935059 0.80312499403953552
vt 0.992106020450592 0.82907000184059143
vt 0.99262398481369019 0.84374399483203888
vt 0.99297100305557251 0.85222800076007843
vt 0.98051297664642334 0.96885400079190731
vt 0.99760299921035767 0.96825800091028214
vn 0.00048099999548867345 0.9981120228767395 0.061409000307321548
vn 0.00380500010214746 0.99800401926040649 0.063040003180503845
vn 0.01206200011074543 0.99912399053573608 0.04006199911236763
vn 0.0036249998956918716 0.99744999408721924 0.0712750032544136
vn -0.0020880000665783882 0.99736899137496948 0.072467997670173645
vn 0.001041000010445714 0.99770599603652954 0.067686997354030609
vn 0.003103999886661768 0.99915897846221924 0.040876999497413635
vn 0.011485000140964985 0.99764400720596313 0.067635998129844666
vn 0.0071100001223385334 0.99910098314285278 0.041788998991250992
vn 0.0016420000465586782 0.99856299161911011 0.053571000695228577
vn -0.00060400000074878335 0.99595397710800171 0.089865997433662415
vn -0.019650999456644058 0.99554198980331421 0.092252001166343689
vn 0.0028510000556707382 0.99693202972412109 0.078216001391410828
vn -0.0055140000768005848 0.9971039891242981 0.07585500180721283
vn 0.024426000192761421 0.99594199657440186 0.086615003645420074
vn 0.0026980000548064709 0.99664801359176636 0.081762999296188354
vn -0.0086049996316432953 0.99786102771759033 0.06479799747467041
vn 0.018471000716090202 0.99672198295593262 0.078763000667095184
vn 0.034127000719308853 0.99565798044204712 0.08660300076007843
vn 0.011926000006496906 0.99550199508666992 0.093984000384807587
vn 0.01487400010228157 0.99627000093460083 0.085000999271869659
vn 0.0014619999565184116 0.997065007686615 0.076545000076293945
vn 0.008337000384926796 0.998583972454071 0.05254799872636795
vn 0.00963400024920702 0.99854397773742676 0.053077999502420425
vn 0.014371000230312347 0.99804800748825073 0.06076899915933609
vn 0.01001999992877245 0.998714029788971 0.049690999090671539
vn 0.012443999759852886 0.99890601634979248 0.045074999332427979
vn 0.011912999674677849 0.998885989189148 0.045662999153137207
vn 0.0081930002197623253 0.9987260103225708 0.0497869998216629
vn -0.011227999813854694 0.9979100227355957 0.063638001680374146
vn 0.00101200002245605 0.99710500240325928 0.076030001044273376
vn 0.003240999998524785 0.99821799993515015 0.059576999396085739
vn 0.026650000363588333 0.99442797899246216 0.10199400037527084
vn 0.0025470000691711903 0.9973679780960083 0.072466000914573669
vn 0.0025470000691711903 0.9973679780960083 0.072466000914573669
vn 0.0074889999814331532 0.99803298711776733 0.062245998531579971
vn 0.015221999958157539 0.9984930157661438 0.052735000848770142
vn 0.024141000583767891 0.999193012714386 0.032097000628709793
vn 0.067792996764183044 0.98808997869491577 0.13813799619674683
vn 0.01384199969470501 0.99643200635910034 0.083260998129844666
vn 0.071584001183509827 0.98642200231552124 0.14780600368976593
vn 0.06111999973654747 0.9869379997253418 0.14905300736427307
vn 0.01780799962580204 0.99682998657226562 0.07754400372505188
vn -0.0041080000810325146 0.99535000324249268 0.096240997314453125
vn -0.0092209996655583382 0.99528598785400391 0.096538998186588287
vn -0.026693999767303467 0.99591201543807983 0.086291998624801636
vn -0.0043640001676976681 0.99579799175262451 0.0914750024676323
vn -0.0043629999272525311 0.99579799175262451 0.0914750024676323
vn 0.011358999647200108 0.99865198135375977 0.050654001533985138
vn 0.027528999373316765 0.99611300230026245 0.083672001957893372
vn 0.040481999516487122 0.98874598741531372 0.14402499794960022
vn 0.073711998760700226 0.98564600944519043 0.15188099443912506
vn 0.072706997394561768 0.98904597759246826 0.12846200168132782
vn 0.039774999022483826 0.98561197519302368 0.16427800059318543
vn 0.06245100125670433 0.98258501291275024 0.17500400543212891
vn 0.02795100025832653 0.98381102085113525 0.17701500654220581
f 1/1/1 2/2/2 3/3/3
f 4/4/4 5/5/5 6/6/6
f 7/7/7 8/8/8 9/9/9
f 10/10/10 11/11/11 12/12/12
f 13/13/13 14/14/14 5/5/5
f 15/15/15 16/16/16 17/17/17
f 15/15/15 18/18/18 16/16/16
f 15/15/15 19/19/19 18/18/18
f 5/5/5 16/16/16 2/2/2
f 8/8/8 2/2/2 20/20/20
f 3/3/3 8/8/8 7/7/7
f 3/3/3 2/2/2 8/8/8
f 8/8/8 20/20/20 21/21/21
f 20/20/20 2/2/2 16/16/16
f 1/1/1 5/5/5 2/2/2
f 1/1/1 6/6/6 5/5/5
f 20/20/20 16/16/16 22/22/22
f 18/18/18 23/23/23 24/24/24
f 18/18/18 25/25/25 23/23/23
f 19/19/19 25/25/25 18/18/18
f 18/18/18 24/24/24 22/22/22
f 26/26/26 27/27/27 28/28/28
f 26/26/26 29/29/29 27/27/27
f 29/29/29 24/24/24 23/23/23
f 29/29/29 26/26/26 24/24/24
f 21/21/21 22/22/22 30/30/30
f 18/18/18 22/22/22 16/16/16
f 21/21/21 30/30/30 31/31/31
f 22/22/22 24/24/24 32/32/32
f 21/21/21 20/20/20 22/22/22
f 22/22/22 33/33/33 30/30/30
f 11/11/11 8/8/8 21/21/21
f 14/14/14 16/16/16 5/5/5
f 14/14/14 17/17/17 16/16/16
f 4/4/4 13/13/13 5/5/5
f 4/4/4 34/34/34 13/13/13
f 34/34/34 4/4/4 35/35/35
f 36/36/36 32/32/32 37/37/37
f 38/38/38 28/28/28 27/27/27
f 39/39/39 33/33/33 40/40/40
f 36/36/36 33/33/33 32/32/32
f 36/36/36 40/40/40 33/33/33
f 33/33/33 41/41/41 42/42/42
f 33/33/33 39/39/39 41/41/41
f 22/22/22 32/32/32 33/33/33
f 24/24/24 37/37/37 32/32/32
f 24/24/24 26/26/26 37/37/37
f 43/43/43 30/30/30 33/33/33
f 31/31/31 11/11/11 21/21/21
f 44/44/44 31/31/31 45/45/45
f 44/44/44 11/11/11 31/31/31
f 46/46/46 45/45/45 31/31/31
f 47/47/47 11/11/11 44/44/44
f 47/47/47 12/12/12 11/11/11
f 47/47/47 48/48/48 12/12/12
f 46/46/46 31/31/31 49/49/49
f 42/42/42 43/43/43 33/33/33
f 50/50/50 42/42/42 51/51/51
f 50/50/50 43/43/43 42/42/42
f 43/43/43 49/49/49 31/31/31
f 43/43/43 50/50/50 49/49/49
f 52/52/52 51/51/51 42/42/42
f 53/53/53 42/42/42 54/54/54
f 53/53/53 52/52/52 42/42/42
f 43/43/43 31/31/31 30/30/30
f 55/55/55 54/54/54 42/42/42
f 55/55/55 56/56/56 54/54/54
f 55/55/55 42/42/42 41/41/41
f 10/10/10 8/8/8 11/11/11
f 10/10/10 9/9/9 8/8/8
