mtllib m211111222.mtl
usemtl material0
v -59.713420987129211 3.8834469318389893 -64
v -63.228851079940796 3.5573620796203613 -64
v -61.166968941688538 2.8359839916229248 -58.742611050605774
v -64 3.2943429946899414 -62.717617034912109
v -63.645534992218018 3.5288889408111572 -64
v -64 3.4869909286499023 -64
v -56 4.0813899040222168 -63.208992004394531
v -59.154716014862061 3.9663820266723633 -64
v -57.175117015838623 3.4622030258178711 -58.955410003662109
v -56 4.1816258430480957 -64
v -64 2.6210041046142578 -58.592319011688232
v -64 2.5342350006103516 -57.705765008926392
v -63.162086009979248 2.6879079341888428 -58.636780023574829
v -63.440871953964233 3.5434579849243164 -64
v -63.057964086532593 2.4501490592956543 -56.641578912734985
v -64 2.3986709117889404 -56.591670989990234
v -63.024410009384155 2.3881340026855469 -56
v -64 2.3655300140380859 -56.257731914520264
v -64 2.3399519920349121 -56
v -61.735579967498779 2.4398388862609863 -56
v -61.06312894821167 2.5406079292297363 -56.74721097946167
v -61.024078011512756 2.4628989696502686 -56
v -59.1715549826622 3.0446040630340576 -58.848647952079773
v -59.068248987197876 2.64083194732666 -56.852874994277954
v -59.439109981060028 3.90960693359375 -64
v -56 3.9950571060180664 -62.366919994354248
v -56 3.6517190933227539 -59.018069982528687
v -57.0717511177063 3.0706379413604736 -56.959678888320923
v -56 3.474661111831665 -58.150100946426392
v -59.023754000663757 2.5358600616455078 -56
v -59.835807994008064 2.5159060955047607 -56
v -57.021912097930908 2.9086289405822754 -56
v -57.93572998046875 2.7622950077056885 -56
v -56 3.3304240703582764 -57.017105102539062
v -56 3.2477109432220459 -56.559879064559937
v -56.03541898727417 3.138185977935791 -56
v -56 3.1535449028015137 -56.039336919784546
v -56 3.1471099853515625 -56
vt 0 0.53582200407981873
vt 0 0.096394002437591553
vt 0.65717399120330811 0.35412901639938354
vt 0.16029800474643707 0
vt 0 0.044308006763458252
vt 0 0
vt 0.0988759994506836 1
vt 0 0.60565999150276184
vt 0.63057398796081543 0.85311000049114227
vt 0 1
vt 0.6759600043296814 0
vt 0.78677898645401 0
vt 0.670403003692627 0.10473901033401489
vt 0 0.069890975952148438
vt 0.91980302333831787 0.11775398254394531
vt 0.92604100704193115 0
vt 1 0.12194901704788208
vt 0.96778297424316406 0
vt 1 0
vt 1 0.28305202722549438
vt 0.90659898519515991 0.36710900068283081
vt 1 0.37199002504348755
vt 0.64391899108886719 0.60355600714683533
vt 0.89339101314544678 0.616468995809555
vt 0 0.57011100649833679
vt 0.204135000705719 1
vt 0.6227409839630127 1
vt 0.88003998994827271 0.86603100597858429
vt 0.73123699426651 1
vt 1 0.62203100323677063
vt 1 0.52052399516105652
vt 1 0.87226100265979767
vt 1 0.75803400576114655
vt 0.87286198139190674 1
vt 0.93001502752304077 1
vt 1 0.99557300005108118
vt 0.99508297443389893 1
vt 1 1
vn -0.09200199693441391 0.981132984161377 0.17004099488258362
vn -0.080724000930786133 0.98273098468780518 0.16650199890136719
vn -0.080347001552581787 0.98364901542663574 0.16118299961090088
vn -0.081032000482082367 0.984171986579895 0.15760500729084015
vn -0.072871997952461243 0.98443800210952759 0.15990999341011047
vn -0.11609800159931183 0.9822160005569458 0.14755499362945557
vn -0.07233099639415741 0.98963302373886108 0.12407699972391129
vn -0.12003300338983536 0.98208600282669067 0.14525699615478516
vn -0.14114299416542053 0.97782999277114868 0.15468299388885498
vn -0.067533001303672791 0.98980200290679932 0.12542699277400971
vn -0.070537000894546509 0.98558902740478516 0.15375000238418579
vn -0.053279001265764236 0.99184697866439819 0.11576300114393234
vn -0.065360002219676971 0.98664200305938721 0.1492139995098114
vn -0.067289002239704132 0.98472601175308228 0.1605830043554306
vn -0.049026999622583389 0.991025984287262 0.12435600161552429
vn -0.048402998596429825 0.99271702766418457 0.11031900346279144
vn -0.0453060008585453 0.99410897493362427 0.098459996283054352
vn -0.049086999148130417 0.9939119815826416 0.098637998104095459
vn -0.049086999148130417 0.9939119815826416 0.098637998104095459
vn -0.038421999663114548 0.99429398775100708 0.099514000117778778
vn -0.05327099934220314 0.98689001798629761 0.15235200524330139
vn -0.0421999990940094 0.99352002143859863 0.10553000122308731
vn -0.13193799555301666 0.97550398111343384 0.17602400481700897
vn -0.12982200086116791 0.97552698850631714 0.17746099829673767
vn -0.14466600120067596 0.97456401586532593 0.17115999758243561
vn -0.15316599607467651 0.9830470085144043 0.1007860004901886
vn -0.14996500313282013 0.977944016456604 0.1453859955072403
vn -0.18736499547958374 0.966838002204895 0.17354600131511688
vn -0.19244800508022308 0.96889597177505493 0.15557600557804108
vn -0.16734200716018677 0.97741901874542236 0.12903100252151489
vn -0.036217998713254929 0.99295198917388916 0.11284899711608887
vn -0.20330099761486054 0.96366798877716064 0.17324100434780121
vn -0.18101200461387634 0.9720730185508728 0.14936299622058868
vn -0.2252189964056015 0.96253097057342529 0.15103299915790558
vn -0.22320699691772461 0.959201991558075 0.17352099716663361
vn -0.22325199842453003 0.95919901132583618 0.17348000407218933
vn -0.22450099885463715 0.95911401510238647 0.17233699560165405
vn -0.24130000174045563 0.95772099494934082 0.15666800737380981
f 1/1/1 2/2/2 3/3/3
f 4/4/4 5/5/5 6/6/6
f 7/7/7 8/8/8 9/9/9
f 7/7/7 10/10/10 8/8/8
f 11/11/11 12/12/12 13/13/13
f 5/5/5 13/13/13 14/14/14
f 5/5/5 11/11/11 13/13/13
f 5/5/5 4/4/4 11/11/11
f 12/12/12 15/15/15 13/13/13
f 12/12/12 16/16/16 15/15/15
f 16/16/16 17/17/17 15/15/15
f 16/16/16 18/18/18 17/17/17
f 18/18/18 19/19/19 17/17/17
f 20/20/20 15/15/15 17/17/17
f 20/20/20 21/21/21 15/15/15
f 3/3/3 13/13/13 15/15/15
f 20/20/20 22/22/22 21/21/21
f 3/3/3 21/21/21 23/23/23
f 23/23/23 21/21/21 24/24/24
f 8/8/8 23/23/23 9/9/9
f 8/8/8 25/25/25 23/23/23
f 26/26/26 9/9/9 27/27/27
f 26/26/26 7/7/7 9/9/9
f 23/23/23 24/24/24 9/9/9
f 23/23/23 1/1/1 3/3/3
f 23/23/23 25/25/25 1/1/1
f 27/27/27 28/28/28 29/29/29
f 27/27/27 9/9/9 28/28/28
f 30/30/30 24/24/24 31/31/31
f 22/22/22 24/24/24 21/21/21
f 22/22/22 31/31/31 24/24/24
f 32/32/32 28/28/28 33/33/33
f 30/30/30 28/28/28 24/24/24
f 30/30/30 33/33/33 28/28/28
f 32/32/32 34/34/34 28/28/28
f 32/32/32 35/35/35 34/34/34
f 35/35/35 36/36/36 37/37/37
f 35/35/35 32/32/32 36/36/36
f 9/9/9 24/24/24 28/28/28
f 29/29/29 28/28/28 34/34/34
f 38/38/38 37/37/37 36/36/36
f 2/2/2 13/13/13 3/3/3
f 2/2/2 14/14/14 13/13/13
f 15/15/15 21/21/21 3/3/3
