mtllib m2111111020.mtl
usemtl material0
v -31.700260043144226 2.7900149822235107 -12
v -32 2.8931169509887695 -11.284526944160461
v -31.663094997406006 2.8540999889373779 -11.302193999290466
v -32 2.8460929393768311 -11.765676021575928
v -31.985152959823608 2.8215479850769043 -12
v -32 2.8248050212860107 -11.983492016792297
v -32 2.8226718902587891 -12
v -30.70076197385788 2.695871114730835 -12
v -30.666486978530884 2.7342851161956787 -11.354441046714783
v -31.035491943359375 2.7349600791931152 -12
v -30.085828997194767 2.6490120887756348 -12
v -30.613461971282959 2.8121650218963623 -10.357519000768662
v -32 2.9238219261169434 -10.656023979187012
v -31.610244989395142 2.8968250751495361 -10.305151998996735
v -28.701624035835266 2.5357210636138916 -12
v -29.274056971073151 2.5637650489807129 -12
v -28.673141002655029 2.5210220813751221 -11.459023952484131
v -28 2.4832649230957031 -12
v -28.21887195110321 2.5019290447235107 -12
v -28 2.4819800853729248 -11.802927017211914
v -28.620319008827209 2.5573980808258057 -10.461961001157761
v -29.669885993003845 2.6130049228668213 -11.406682014465332
v -29.7012600004673 2.6026909351348877 -12
v -28 2.47473406791687 -11.494423985481262
v -28 2.4772129058837891 -10.853061974048615
v -29.616984993219376 2.6654949188232422 -10.409673988819122
v -32 3.003230094909668 -9.706820011138916
v -31.5572030544281 2.9781219959259033 -9.30824202299118
v -32 2.9518990516662598 -10.284745007753372
v -30.560365974903107 2.9046928882598877 -9.360647976398468
v -32 3.08599591255188 -8.7576429843902588
v -31.504256963729858 3.0398879051208496 -8.31126594543457
v -32 3.0489420890808105 -9.2850850224494934
v -30.507745981216431 2.9000539779663086 -8.36344301700592
v -29.563923001289368 2.7511870861053467 -9.4127799868583679
v -28 2.4922480583190918 -10.494511008262634
v -28.567250967025757 2.6440670490264893 -9.4650700092315674
v -29.51112699508667 2.7821919918060303 -8.41569697856903
v -28 2.5875480175018311 -9.4948440194129944
v -28 2.6161239147186279 -8.9544990062713623
v -28 2.5290379524230957 -10.09578800201416
v -28.51416802406311 2.7341530323028564 -8.46818995475769
v -32 3.0816540718078613 -8
v -31.487710952758789 3.0622220039367676 -8
v -32 3.0720059871673584 -8.1307840347290039
v -32 3.0606191158294678 -8.2851519584655762
v -30.488599985837936 2.89213490486145 -8
v -31.158751964569092 2.9866769313812256 -8
v -29.885063000023365 2.8202691078186035 -8
v -28.489482998847961 2.727849006652832 -8
v -29.049319982528687 2.7551460266113281 -8
v -28 2.6609940528869629 -8.495110034942627
v -28 2.6683979034423828 -8.2331099510192871
v -28 2.674839973449707 -8.0051330327987671
v -29.489193022251129 2.7802579402923584 -8
v -28 2.6748011112213135 -8
vt 0.031505998224020004 0.92211300134658813
vt 0.20706899464130402 0.990472000092268
vt 0.19994199275970459 0.90901900082826614
vt 0.090712003409862518 0.993298000190407
vt 0.033918999135494232 0.991078999824822
vt 0.038036998361349106 0.99457699991762638
vt 0.03403099998831749 0.99466199986636639
vt 0.02347400039434433 0.68051698803901672
vt 0.17888200283050537 0.667943000793457
vt 0.026314999908208847 0.76160299777984619
vt 0.018657999113202095 0.53211700916290283
vt 0.41898500919342041 0.6488099992275238
vt 0.35849800705909729 0.98597799986600876
vt 0.43971601128578186 0.88909199833869934
vt 0.00636299978941679 0.19855701923370361
vt 0.011975999921560288 0.3356969952583313
vt 0.1363070011138916 0.1868320107460022
vt 0.00026299999444745481 0.029332995414733887
vt 0.0022120000794529915 0.082121014595031738
vt 0.047678999602794647 0.027606010437011719
vt 0.37596601247787476 0.16621899604797363
vt 0.15800799429416657 0.42681097984313965
vt 0.015455000102519989 0.43891602754592896
vt 0.12191999703645706 0.024801015853881836
vt 0.27623400092124939 0.019262015819549561
vt 0.39716199040412903 0.40697497129440308
vt 0.5877540111541748 0.98018000088632107
vt 0.68009501695632935 0.8698669970035553
vt 0.44810900092124939 0.98361499980092049
vt 0.65960502624511719 0.62976500391960144
vt 0.81710302829742432 0.97422000020742416
vt 0.9201700091362 0.85087299346923828
vt 0.68985402584075928 0.977742999792099
vt 0.89914298057556152 0.60919499397277832
vt 0.63744300603866577 0.38772398233413696
vt 0.36257100105285645 0.016444027423858643
vt 0.6162869930267334 0.14698797464370728
vt 0.87865400314331055 0.36812299489974976
vt 0.606453001499176 0.0089139938354492188
vt 0.73669701814651489 0.0061910152435302734
vt 0.45893999934196472 0.013880014419555664
vt 0.85887700319290161 0.12830299139022827
vt 0.999737024307251 0.96753200143575668
vt 0.995203971862793 0.8453499972820282
vt 0.96818000078201294 0.96853800117969513
vt 0.93093699216842651 0.9698329996317625
vt 0.98642998933792114 0.60130700469017029
vt 0.99212801456451416 0.76414799690246582
vt 0.98165702819824219 0.4552760124206543
vt 0.971373975276947 0.11894500255584717
vt 0.97501599788665771 0.25351697206497192
vt 0.84779399633407593 0.003591001033782959
vt 0.91178900003433228 0.001900017261505127
vt 0.96667999029159546 0.000496983528137207
vt 0.97850698232650757 0.35953402519226074
vt 0.96791601181030273 0.0004590153694152832
vn 0.096220001578331 0.99070900678634644 -0.09611000120639801
vn 0.11103600263595581 0.99122798442840576 -0.07168000191450119
vn 0.10483399778604507 0.99182599782943726 -0.072736002504825592
vn 0.10949800163507462 0.98927301168441772 -0.0966849997639656
vn 0.1003120020031929 0.98940300941467285 -0.10496799647808075
vn 0.10150100290775299 0.98939597606658936 -0.1038919985294342
vn 0.074849002063274384 0.98897397518157959 -0.12777799367904663
vn 0.096404001116752625 0.99326801300048828 -0.064222998917102814
vn 0.11439000070095062 0.99124699831008911 -0.065912999212741852
vn 0.10684999823570252 0.99157702922821045 -0.073196001350879669
vn 0.10797200351953507 0.99356800317764282 -0.034125998616218567
vn 0.11464700102806091 0.98965001106262207 -0.086300000548362732
vn 0.11868199706077576 0.99137699604034424 -0.055553998798131943
vn 0.10374599695205689 0.99201399087905884 -0.0717260017991066
vn 0.059006001800298691 0.99796897172927856 0.024010000750422478
vn 0.081009000539779663 0.996649980545044 -0.011238000355660915
vn 0.078702002763748169 0.99685001373291016 -0.0097949998453259468
vn 0.084965996444225311 0.99636298418045044 0.0064940000884234905
vn 0.073339000344276428 0.99711698293685913 0.019484000280499458
vn 0.073859997093677521 0.99708998203277588 0.018904000520706177
vn 0.10022000223398209 0.992609977722168 -0.068423002958297729
vn 0.10627199709415436 0.99359601736068726 -0.038391999900341034
vn 0.10561200231313705 0.9941440224647522 -0.022866999730467796
vn 0.069132998585700989 0.99755501747131348 0.010234000161290169
vn 0.093185000121593475 0.99514800310134888 -0.03156999871134758
vn 0.11995500326156616 0.98963898420333862 -0.078907996416091919
vn 0.13940399885177612 0.985880970954895 -0.092765003442764282
vn 0.11778300255537033 0.99047297239303589 -0.071349002420902252
vn 0.13526700437068939 0.98745602369308472 -0.081448003649711609
vn 0.1061829999089241 0.99301701784133911 -0.051398999989032745
vn 0.12509800493717194 0.99147200584411621 -0.036520000547170639
vn 0.11413499712944031 0.99239200353622437 -0.046174999326467514
vn 0.1528870016336441 0.98439598083496094 -0.087116003036499023
vn 0.11996500194072723 0.99277698993682861 -0.0014469999587163329
vn 0.11843100190162659 0.99036902189254761 -0.071717001497745514
vn 0.10082100331783295 0.99273699522018433 -0.065636001527309418
vn 0.10391200333833695 0.99062198400497437 -0.088716998696327209
vn 0.085732996463775635 0.99626702070236206 -0.010046999901533127
vn 0.0949459969997406 0.99262499809265137 -0.075369998812675476
vn 0.12483800202608109 0.98856401443481445 -0.084595002233982086
vn 0.097970999777317047 0.99087202548980713 -0.092598997056484222
vn 0.09543299674987793 0.99463397264480591 -0.039941001683473587
vn 0.037801001220941544 0.99657702445983887 -0.073514997959136963
vn 0.13356700539588928 0.987966001033783 -0.077987998723983765
vn 0.037801999598741531 0.99657702445983887 -0.073514997959136963
vn 0.041140001267194748 0.99908000230789185 -0.012128000147640705
vn 0.12858399748802185 0.99158799648284912 0.014831000007689
vn 0.15928499400615692 0.98720002174377441 -0.0080460002645850182
vn 0.11353299766778946 0.99347198009490967 0.011126999743282795
vn 0.079260997474193573 0.99681097269058228 0.00924300029873848
vn 0.05063299834728241 0.998678982257843 0.0087270000949501991
vn 0.1373240053653717 0.98848897218704224 -0.0634939968585968
vn 0.13937599956989288 0.989844024181366 -0.02797199971973896
vn 0.11625900119543076 0.99321699142456055 -0.0018690000288188458
vn 0.078063003718853 0.9969480037689209 0.00051899999380111694
vn 0.10774199664592743 0.99414902925491333 0.0077120000496506691
f 1/1/1 2/2/2 3/3/3
f 1/1/1 4/4/4 2/2/2
f 4/4/4 5/5/5 6/6/6
f 4/4/4 1/1/1 5/5/5
f 7/7/7 6/6/6 5/5/5
f 8/8/8 3/3/3 9/9/9
f 8/8/8 10/10/10 3/3/3
f 1/1/1 3/3/3 10/10/10
f 8/8/8 9/9/9 11/11/11
f 12/12/12 9/9/9 3/3/3
f 13/13/13 3/3/3 2/2/2
f 13/13/13 14/14/14 3/3/3
f 15/15/15 16/16/16 17/17/17
f 18/18/18 19/19/19 20/20/20
f 21/21/21 17/17/17 22/22/22
f 16/16/16 22/22/22 17/17/17
f 16/16/16 23/23/23 22/22/22
f 20/20/20 17/17/17 24/24/24
f 20/20/20 19/19/19 17/17/17
f 19/19/19 15/15/15 17/17/17
f 25/25/25 24/24/24 17/17/17
f 22/22/22 11/11/11 9/9/9
f 22/22/22 23/23/23 11/11/11
f 26/26/26 22/22/22 9/9/9
f 14/14/14 27/27/27 28/28/28
f 14/14/14 29/29/29 27/27/27
f 14/14/14 12/12/12 3/3/3
f 12/12/12 26/26/26 9/9/9
f 12/12/12 14/14/14 30/30/30
f 13/13/13 29/29/29 14/14/14
f 28/28/28 31/31/31 32/32/32
f 28/28/28 33/33/33 31/31/31
f 27/27/27 33/33/33 28/28/28
f 14/14/14 28/28/28 30/30/30
f 30/30/30 28/28/28 34/34/34
f 21/21/21 26/26/26 35/35/35
f 21/21/21 25/25/25 17/17/17
f 21/21/21 36/36/36 25/25/25
f 21/21/21 35/35/35 37/37/37
f 35/35/35 26/26/26 30/30/30
f 30/30/30 26/26/26 12/12/12
f 35/35/35 30/30/30 38/38/38
f 22/22/22 26/26/26 21/21/21
f 39/39/39 37/37/37 40/40/40
f 41/41/41 37/37/37 39/39/39
f 37/37/37 36/36/36 21/21/21
f 37/37/37 41/41/41 36/36/36
f 37/37/37 35/35/35 42/42/42
f 30/30/30 34/34/34 38/38/38
f 43/43/43 44/44/44 45/45/45
f 45/45/45 32/32/32 46/46/46
f 45/45/45 44/44/44 32/32/32
f 31/31/31 46/46/46 32/32/32
f 28/28/28 32/32/32 34/34/34
f 47/47/47 32/32/32 48/48/48
f 47/47/47 34/34/34 32/32/32
f 49/49/49 34/34/34 47/47/47
f 49/49/49 38/38/38 34/34/34
f 38/38/38 50/50/50 42/42/42
f 38/38/38 51/51/51 50/50/50
f 40/40/40 42/42/42 52/52/52
f 40/40/40 37/37/37 42/42/42
f 52/52/52 42/42/42 53/53/53
f 53/53/53 42/42/42 54/54/54
f 42/42/42 35/35/35 38/38/38
f 48/48/48 32/32/32 44/44/44
f 55/55/55 51/51/51 38/38/38
f 50/50/50 54/54/54 42/42/42
f 50/50/50 56/56/56 54/54/54
f 55/55/55 38/38/38 49/49/49
