mtllib m211111331.mtl
usemtl material0
v -8 1.4869639873504639 -55.546082019805908
v -7.00881290435791 1.5534809827804565 -55.598637104034424
v -8 1.4895449876785278 -55.795406103134155
v -7.4551489353179932 1.5279279947280884 -56
v -8 1.4916640520095825 -56
v -8 1.327584981918335 -51.54569599032402
v -6.7990460395812988 1.3899600505828857 -51.609317988157272
v -8 1.3935209512710571 -52.689831018447876
v -8 1.3285260200500488 -49.5457649230957
v -6.6936750411987305 1.40756094455719 -49.61499810218811
v -8 1.3321700096130371 -50.789695978164673
v -8 1.4709839820861816 -54.4971239566803
v -8 1.3812030553817749 -48.513259887695312
v -8 1.3990689516067505 -48.163067102432251
v -7.0300490856170654 1.5441399812698364 -56
v -6.6476800441741943 1.5673060417175293 -56
v -6.9037990570068359 1.4983320236206055 -53.604068994522095
v -5.0140470266342163 1.6297470331192017 -55.704220056533813
v -8 1.4422019720077515 -53.546000957489014
v -4.8037949800491333 1.5648570060729981 -51.715240001678467
v -6.6084740161895752 1.3965079784393311 -48
v -8 1.3979619741439819 -48
v -6.2470378875732422 1.4201240539550781 -48
v -4.6986370086669922 1.5390019416809082 -49.72077202796936
v -4.9089919924736023 1.5828989744186401 -53.709679007530212
v -5.0296649932861328 1.6291639804840088 -56
v -4.7479100227355957 1.6414480209350586 -56
v -3.0194630026817322 1.6689039468765259 -55.809673070907593
v -2.8088710308074951 1.6733490228652954 -51.820930004119873
v -4.3472430109977722 1.5080690383911133 -48
v -2.7036839723587036 1.6533529758453369 -49.82648491859436
v -4.6080279946327209 1.4935270547866821 -48
v -2.9142160415649414 1.6611169576644898 -53.815268993377686
v -1.024709939956665 1.7422380447387695 -55.915245056152344
v -0.81396698951721191 1.7774440050125122 -51.926609002053738
v -2.6074850559234619 1.6095540523529053 -48
v -0.70865297317504883 1.7833269834518433 -49.9322509765625
v -2.4474049806594849 1.6197509765625 -48
v -1.118927001953125 1.7409180402755737 -56
v -3.0294889807701111 1.6730949878692627 -56
v -1.0291709899902344 1.7449760437011719 -56
v -0.91936302185058594 1.754958987236023 -53.920910000801086
v 0 1.8533170223236084 -54.942562103271484
v 0 1.8526179790496826 -55.959189891815186
v 0 1.8526109457015991 -55.969707012176514
v 0 1.8752440214157105 -52.831120014190674
v 0 1.8699469566345215 -53.969825983047485
v -0.94843506813049316 1.7535690069198608 -56
v 0 1.8804440498352051 -51.969921000301838
v 0 1.8757909536361694 -50.719714999198914
v -0.60665011405944824 1.7828749418258667 -48
v 0 1.870574951171875 -49.96995210647583
v -0.54746007919311523 1.7901409864425659 -48
v 0 1.8614330291748047 -48.608345031738281
v 0 1.8410379886627197 -48
v 0 1.8537800312042236 -56
vt 0.05674000084400177 0
vt 0.050170000642538071 0.12389802932739258
vt 0.025574000552296638 0
vt 0 0.068105995655059814
vt 0 0
vt 0.55678802728652954 0
vt 0.54883497953414917 0.15011900663375855
vt 0.41377100348472595 0
vt 0.80677902698516846 0
vt 0.79812502861022949 0.16329097747802734
vt 0.65128797292709351 0
vt 0.18785999715328217 0
vt 0.93584299087524414 0
vt 0.97961699962615967 0
vt 0 0.12124401330947876
vt 0 0.1690400242805481
vt 0.29949098825454712 0.13702499866485596
vt 0.036972999572753906 0.37324398756027222
vt 0.30674999952316284 0
vt 0.53559499979019165 0.39952600002288818
vt 1 0.17394101619720459
vt 1 0
vt 1 0.21912002563476563
vt 0.78490400314331055 0.41267001628875732
vt 0.28628998994827271 0.3863760232925415
vt 0 0.37129199504852295
vt 0 0.40651100873947144
vt 0.023791000247001648 0.62256699800491333
vt 0.522383987903595 0.64889100193977356
vt 1 0.45659500360488892
vt 0.77168899774551392 0.66203999519348145
vt 1 0.42399698495864868
vt 0.27309098839759827 0.63572299480438232
vt 0.010594000108540058 0.87191100418567657
vt 0.50917398929595947 0.89825399965047836
vt 1 0.67406401038169861
vt 0.75846898555755615 0.91141799837350845
vt 1 0.69407400488853455
vt 0 0.86013400554656982
vt 0 0.62131398916244507
vt 0 0.87135399878025055
vt 0.2598859965801239 0.8850800022482872
vt 0.13218000531196594 1
vt 0.0051009999588131905 1
vt 0.0037869999650865793 1
vt 0.39610999822616577 1
vt 0.25377199053764343 1
vt 0 0.8814459964632988
vt 0.50375998020172119 1
vt 0.660036027431488 1
vt 1 0.92416899651288986
vt 0.75375598669052124 1
vt 1 0.9315669983625412
vt 0.92395699024200439 1
vt 1 1
vt 0 1
vn -0.066197998821735382 0.99770498275756836 0.0142639996483922
vn -0.045694001019001007 0.99870502948760986 0.0223619993776083
vn -0.066408999264240265 0.99773901700973511 0.010329999960958958
vn -0.058269999921321869 0.99830001592636108 0.001243000035174191
vn -0.066407002508640289 0.99773901700973511 0.010333999991416931
vn -0.051215000450611114 0.99861198663711548 0.012292000465095043
vn -0.063258998095989227 0.99763602018356323 0.026851000264286995
vn -0.048452001065015793 0.997189998626709 0.057139001786708832
vn -0.061512000858783722 0.99787497520446777 -0.021493999287486076
vn -0.059682998806238174 0.998216986656189 -0.00021100000594742596
vn -0.057195000350475311 0.99836301803588867 -0.00046999999904073775
vn -0.05366399884223938 0.99820798635482788 0.026471000164747238
vn -0.062997996807098389 0.99671697616577148 -0.0508509986102581
vn -0.0090279998257756233 0.99995702505111694 -0.0022740000858902931
vn -0.048698998987674713 0.99860000610351562 -0.020664000883698463
vn -0.040656998753547668 0.99917101860046387 -0.0021649999544024467
vn -0.042043998837471008 0.99837797880172729 0.0383789986371994
vn -0.032063998281955719 0.99920099973678589 0.023864999413490295
vn -0.048418000340461731 0.99756300449371338 0.050232000648975372
vn -0.064291998744010925 0.99789702892303467 0.0082259997725486755
vn -0.011683999560773373 0.99990397691726685 0.0074599999934434891
vn 0.0010450000409036875 0.99997597932815552 0.0067879999987781048
vn -0.056552000343799591 0.99823600053787231 0.018075000494718552
vn -0.057110000401735306 0.99819397926330566 0.018629999831318855
vn -0.043820999562740326 0.99877798557281494 0.022834999486804008
vn -0.038996998220682144 0.99923902750015259 8.9000001025851816E-05
vn -0.020565999671816826 0.99956697225570679 0.021037999540567398
vn -0.030535999685525894 0.99944597482681274 0.013274000026285648
vn -0.0555340014398098 0.99843901395797729 0.0058929999358952045
vn -0.0568000003695488 0.99798500537872314 0.028271999210119247
vn -0.059758000075817108 0.99798202514648438 0.021466000005602837
vn -0.046222999691963196 0.99851500988006592 0.028821999207139015
vn -0.045046001672744751 0.99898499250411987 0.000514000013936311
vn -0.059691999107599258 0.99821597337722778 0.0012150000547990203
vn -0.069549001753330231 0.99757301807403564 -0.0034469999372959137
vn -0.061174001544713974 0.99775797128677368 0.02714800089597702
vn -0.079539000988006592 0.99678099155426025 0.010033000260591507
vn -0.086299002170562744 0.99624699354171753 0.0066809998825192451
vn -0.035599999129772186 0.99907702207565308 0.024017000570893288
vn -0.027391999959945679 0.99935001134872437 0.023448999971151352
vn -0.073950998485088348 0.99660897254943848 0.0360880009829998
vn -0.076826997101306915 0.99702697992324829 -0.005869000218808651
vn -0.11125800013542175 0.99378198385238647 -0.0044439998455345631
vn -0.10712800174951553 0.99424499273300171 -0.00068300002021715045
vn -0.10519199818372726 0.99383902549743652 0.034921001642942429
vn -0.12465099990367889 0.99218899011611938 -0.0048940000124275684
vn -0.12464000284671783 0.9921489953994751 -0.01030299998819828
vn -0.10504099726676941 0.99372899532318115 0.038318000733852386
vn -0.12545700371265411 0.99209797382354736 0.0015810000477358699
vn -0.12402799725532532 0.99226701259613037 0.0048960000276565552
vn -0.089322000741958618 0.99599099159240723 0.0049479999579489231
vn -0.12184099853038788 0.99252700805664062 0.006711999885737896
vn -0.11806000024080277 0.99295502901077271 0.01011900044977665
vn -0.11282400041818619 0.99350297451019287 0.014895999804139137
vn -0.092519000172615051 0.99515199661254883 0.033362999558448792
vn -0.10499700158834457 0.9937329888343811 0.038350999355316162
f 1/1/1 2/2/2 3/3/3
f 3/3/3 4/4/4 5/5/5
f 3/3/3 2/2/2 4/4/4
f 6/6/6 7/7/7 8/8/8
f 9/9/9 10/10/10 11/11/11
f 12/12/12 2/2/2 1/1/1
f 13/13/13 10/10/10 9/9/9
f 13/13/13 14/14/14 10/10/10
f 15/15/15 2/2/2 16/16/16
f 2/2/2 17/17/17 18/18/18
f 12/12/12 17/17/17 2/2/2
f 12/12/12 19/19/19 17/17/17
f 7/7/7 10/10/10 20/20/20
f 6/6/6 10/10/10 7/7/7
f 6/6/6 11/11/11 10/10/10
f 14/14/14 21/21/21 10/10/10
f 14/14/14 22/22/22 21/21/21
f 23/23/23 10/10/10 21/21/21
f 23/23/23 24/24/24 10/10/10
f 19/19/19 7/7/7 17/17/17
f 19/19/19 8/8/8 7/7/7
f 25/25/25 17/17/17 7/7/7
f 4/4/4 2/2/2 15/15/15
f 16/16/16 18/18/18 26/26/26
f 16/16/16 2/2/2 18/18/18
f 18/18/18 17/17/17 25/25/25
f 26/26/26 18/18/18 27/27/27
f 25/25/25 28/28/28 18/18/18
f 20/20/20 25/25/25 7/7/7
f 10/10/10 24/24/24 20/20/20
f 24/24/24 29/29/29 20/20/20
f 24/24/24 30/30/30 31/31/31
f 24/24/24 32/32/32 30/30/30
f 23/23/23 32/32/32 24/24/24
f 20/20/20 33/33/33 25/25/25
f 25/25/25 33/33/33 28/28/28
f 33/33/33 34/34/34 28/28/28
f 29/29/29 35/35/35 33/33/33
f 20/20/20 29/29/29 33/33/33
f 30/30/30 36/36/36 31/31/31
f 36/36/36 37/37/37 31/31/31
f 36/36/36 38/38/38 37/37/37
f 29/29/29 31/31/31 37/37/37
f 24/24/24 31/31/31 29/29/29
f 39/39/39 28/28/28 34/34/34
f 39/39/39 40/40/40 28/28/28
f 27/27/27 28/28/28 40/40/40
f 27/27/27 18/18/18 28/28/28
f 39/39/39 34/34/34 41/41/41
f 33/33/33 35/35/35 42/42/42
f 43/43/43 34/34/34 42/42/42
f 43/43/43 44/44/44 34/34/34
f 44/44/44 45/45/45 34/34/34
f 46/46/46 42/42/42 35/35/35
f 46/46/46 47/47/47 42/42/42
f 29/29/29 37/37/37 35/35/35
f 41/41/41 34/34/34 48/48/48
f 33/33/33 42/42/42 34/34/34
f 37/37/37 49/49/49 35/35/35
f 37/37/37 50/50/50 49/49/49
f 38/38/38 51/51/51 37/37/37
f 52/52/52 53/53/53 54/54/54
f 52/52/52 37/37/37 53/53/53
f 37/37/37 51/51/51 53/53/53
f 47/47/47 43/43/43 42/42/42
f 52/52/52 50/50/50 37/37/37
f 55/55/55 54/54/54 53/53/53
f 49/49/49 46/46/46 35/35/35
f 45/45/45 48/48/48 34/34/34
f 45/45/45 56/56/56 48/48/48
