mtllib m2111111212.mtl
usemtl material0
v -23.614886999130249 1.8784819841384888 -24
v -23.324761986732483 1.891448974609375 -23.73907995223999
v -23.338582992553711 1.8824399709701538 -24
v -22.559257984161377 1.8673419952392578 -24
v -22.327670991420746 1.8702629804611206 -23.791666030883789
v -22.338676005601883 1.8687820434570313 -24
v -21.503614008426666 1.8579250574111939 -24
v -21.330542027950287 1.8568880558013916 -23.84427797794342
v -21.338755011558533 1.8581459522247315 -24
v -20.448380947113037 1.8014960289001465 -24
v -20.333654046058655 1.7937099933624268 -23.896721005439758
v -20.339128017425537 1.7893849611282349 -24
v -24 1.8962069749832153 -23.70343804359436
v -24 1.9441410303115845 -22.988463997840881
v -24 1.9562519788742065 -22.703661024570465
v -23.271921038627625 1.9322240352630615 -22.74203097820282
v -22.274823993444443 1.9120140075683594 -22.794620990753174
v -24 1.8893719911575317 -23.829211950302124
v -24 1.8800909519195557 -24
v -24 2.009303092956543 -21.703860998153687
v -23.219030022621155 1.9827640056610107 -21.745016008615494
v -24 1.9973260164260864 -21.93265900015831
v -22.2219869941473 1.9518120288848877 -21.797569006681442
v -21.2778400182724 1.8688549995422363 -22.8471320271492
v -22.169226005673409 1.97598397731781 -20.8004629611969
v -24 2.0243930816650391 -21.498148024082184
v -23.16603696346283 2.0542991161346436 -20.748074054718018
v -20 1.7714200019836426 -23.914268016815186
v -20 1.77059805393219 -23.596354007720947
v -20 1.767536997795105 -24
v -20 1.7683160305023193 -23.98279595375061
v -20.280819058418274 1.8330190181732178 -22.899667978286743
v -21.225068986415863 1.8094609975814819 -21.85003300011158
v -20.228073000907898 1.7689540386199951 -21.902552001178265
v -20 1.8014600276947022 -22.914395987987518
v -20 1.787335991859436 -22.646875023841858
v -21.172187983989716 1.9065220355987549 -20.853010058403015
v -23.126729965209961 2.0178608894348145 -20
v -24 2.034945011138916 -20.548405051231384
v -23.390629053115845 2.0148520469665527 -20
v -24 2.0367898941040039 -20.585819005966187
v -24 2.0426170825958252 -20.703997015953064
v -20.989913940429688 1.862637996673584 -20
v -20.175608038902283 1.7075760364532471 -20.905236959457397
v -21.12731397151947 1.8901300430297852 -20
v -21.280022025108337 1.900894045829773 -20
v -22.126994997262955 1.970695972442627 -20
v -22.335144013166428 1.9870760440826416 -20
v -24 2.0462419986724854 -20
v -20 1.6991540193557739 -21.100440979003906
v -20 1.7010940313339233 -20.914471030235291
v -20 1.7445470094680786 -21.914531998336315
v -20 1.6912460327148438 -20.753509998321533
v -20 1.6908630132675171 -20.747236013412476
v -20 1.7774169445037842 -20
v -20.127488970756531 1.8028370141983032 -20
vt 0.094819001853466034 0.0329669713973999
vt 0.16663099825382233 0.093279004096984863
vt 0.16115699708461762 0.030718028545379639
vt 0.34827598929405212 0.024155974388122559
vt 0.40560099482536316 0.072251021862030029
vt 0.40123000741004944 0.022328019142150879
vt 0.60170698165893555 0.01535797119140625
vt 0.6445540189743042 0.051297008991241455
vt 0.64128398895263672 0.013981997966766357
vt 0.8553919792175293 0.0062959790229797363
vt 0.88388597965240479 0.030097007751464844
vt 0.88177800178527832 0.0053219795227050781
vt 0.0048270002007484436 0.10747599601745606
vt 0.010751999914646149 0.27950000762939453
vt 0.013136999681591988 0.34793102741241455
vt 0.18752600252628326 0.33240002393722534
vt 0.42649298906326294 0.31138098239898682
vt 0.0037839999422430992 0.07723701000213623
vt 0.0023680001031607389 0.036176979541778564
vt 0.021166000515222549 0.58821401000022888
vt 0.20839400589466095 0.57162401080131531
vt 0.019538000226020813 0.53328201174736023
vt 0.44729501008987427 0.55050200223922729
vt 0.66559702157974243 0.29024398326873779
vt 0.46840399503707886 0.78948700428009033
vt 0.022820999845862389 0.63773301243782043
vt 0.228876993060112 0.81117400527000427
vt 0.96399599313735962 0.022877991199493408
vt 0.966867983341217 0.09918898344039917
vt 0.96335798501968384 0.0024840235710144043
vt 0.96349000930786133 0.0066189765930175781
vt 0.9046509861946106 0.26921600103378296
vt 0.68859702348709106 0.52940800786018372
vt 0.92763102054595947 0.50775900483131409
vt 0.97234398126602173 0.26307499408721924
vt 0.97501397132873535 0.3268120288848877
vt 0.70639699697494507 0.76970699429512024
vt 0.2456430047750473 0.99054399970918894
vt 0.03038799948990345 0.86583599448204041
vt 0.18139199912548065 0.99232499999925494
vt 0.030065000057220459 0.85684399306774139
vt 0.029133999720215797 0.82843799889087677
vt 0.7588689923286438 0.9728350006043911
vt 0.94991302490234375 0.74858999252319336
vt 0.72523397207260132 0.97406800091266632
vt 0.68989300727844238 0.9734949991106987
vt 0.48590299487113953 0.98123699985444546
vt 0.43578600883483887 0.9831399992108345
vt 0.034915000200271606 0.9975159999448806
vt 0.99039798974990845 0.700186014175415
vt 0.99201399087905884 0.74483001232147217
vt 0.98258602619171143 0.50286200642585754
vt 0.99352198839187622 0.78353700041770935
vt 0.993681013584137 0.78471100330352783
vt 0.99763202667236328 0.96535800024867058
vt 0.96643602848052979 0.96674000099301338
vn -0.00013899999612476677 0.99877500534057617 -0.049481000751256943
vn 0.012474000453948975 0.998947024345398 -0.044144999235868454
vn 0.0019570000004023314 0.99939900636672974 -0.034611999988555908
vn 0.013321000151336193 0.9994959831237793 -0.02882000058889389
vn 0.012387000024318695 0.99951601028442383 -0.028552999719977379
vn 0.0029070000164210796 0.9999690055847168 -0.00725799985229969
vn 0.0096570001915097237 0.99994498491287231 -0.00407399982213974
vn 0.039671000093221664 0.99916601181030273 -0.009684000164270401
vn 0.030003000050783157 0.99952900409698486 0.00648899981752038
vn 0.074386000633239746 0.99720197916030884 -0.0074459998868405819
vn 0.071877002716064453 0.996990978717804 -0.029021000489592552
vn 0.087880998849868774 0.9950529932975769 -0.046326000243425369
vn 0.0038250000216066837 0.99814301729202271 -0.060791000723838806
vn 0.024384999647736549 0.99854201078414917 -0.048160001635551453
vn 0.0304189994931221 0.99838399887084961 -0.048004999756813049
vn 0.024234000593423843 0.99859499931335449 -0.047134000808000565
vn 0.027381999418139458 0.99883300065994263 -0.039792999625205994
vn 0.0041720001026988029 0.99851799011230469 -0.054260998964309692
vn 0.0041720001026988029 0.99851799011230469 -0.054262001067399979
vn 0.030575999990105629 0.99754202365875244 -0.063054002821445465
vn 0.034097000956535339 0.99787002801895142 -0.05561399832367897
vn 0.030926000326871872 0.99814397096633911 -0.052466001361608505
vn 0.063302002847194672 0.99747800827026367 -0.032102998346090317
vn 0.05567299947142601 0.99843698740005493 0.0049390001222491264
vn 0.068686999380588531 0.997497022151947 -0.016783999279141426
vn 0.017961999401450157 0.9980509877204895 -0.059762999415397644
vn 0.032235998660326004 0.99940299987792969 -0.012393999844789505
vn 0.065484002232551575 0.99760901927948 -0.02210799977183342
vn 0.097929000854492188 0.99467098712921143 -0.032246001064777374
vn 0.064225003123283386 0.99691301584243774 -0.045155998319387436
vn 0.064225003123283386 0.99691301584243774 -0.045152001082897186
vn 0.074060000479221344 0.99722802639007568 0.0071620000526309013
vn 0.089071996510028839 0.995764970779419 -0.022783000022172928
vn 0.095197997987270355 0.99474102258682251 0.037778999656438828
vn 0.1117900013923645 0.99373000860214233 0.0021289999131113291
vn 0.1105709969997406 0.99226200580596924 0.056487001478672028
vn 0.12159900367259979 0.99243998527526855 -0.016641000285744667
vn 0.014568000100553036 0.99874699115753174 0.047882001847028732
vn 0.0053889998234808445 0.99951601028442383 0.030633000656962395
vn 0.0032709999941289425 0.99945098161697388 0.032983001321554184
vn -0.011386999860405922 0.99872201681137085 0.04924599826335907
vn -0.013244999572634697 0.99980902671813965 0.014379000291228294
vn 0.16283300518989563 0.98639702796936035 -0.02248699963092804
vn 0.13074000179767609 0.99141597747802734 -0.0011589999776333571
vn 0.13570399582386017 0.99067801237106323 0.011899000033736229
vn 0.073059000074863434 0.99725097417831421 0.012392000295221806
vn 0.080355003476142883 0.99676299095153809 0.0023459999356418848
vn 0.069237999618053436 0.99751901626586914 0.012736000120639801
vn 0.051433000713586807 0.99846500158309937 -0.0205680001527071
vn 0.092196002602577209 0.994937002658844 0.040011998265981674
vn 0.03814300149679184 0.99898099899291992 0.024140000343322754
vn 0.10917899757623673 0.99240398406982422 0.056697998195886612
vn 0.040015999227762222 0.99733400344848633 0.061023000627756119
vn 0.15377800166606903 0.98585599660873413 -0.066629998385906219
vn 0.1942950040102005 0.97442799806594849 -0.1128700003027916
vn 0.13334199786186218 0.98486500978469849 -0.11072900146245956
f 1/1/1 2/2/2 3/3/3
f 4/4/4 5/5/5 6/6/6
f 7/7/7 8/8/8 9/9/9
f 10/10/10 11/11/11 12/12/12
f 13/13/13 14/14/14 2/2/2
f 2/2/2 15/15/15 16/16/16
f 2/2/2 14/14/14 15/15/15
f 3/3/3 5/5/5 4/4/4
f 3/3/3 2/2/2 5/5/5
f 6/6/6 8/8/8 7/7/7
f 6/6/6 5/5/5 8/8/8
f 2/2/2 17/17/17 5/5/5
f 1/1/1 13/13/13 2/2/2
f 1/1/1 18/18/18 13/13/13
f 18/18/18 1/1/1 19/19/19
f 5/5/5 17/17/17 8/8/8
f 16/16/16 20/20/20 21/21/21
f 16/16/16 22/22/22 20/20/20
f 22/22/22 16/16/16 15/15/15
f 17/17/17 21/21/21 23/23/23
f 21/21/21 17/17/17 16/16/16
f 23/23/23 24/24/24 17/17/17
f 23/23/23 21/21/21 25/25/25
f 2/2/2 16/16/16 17/17/17
f 21/21/21 26/26/26 27/27/27
f 21/21/21 20/20/20 26/26/26
f 8/8/8 17/17/17 24/24/24
f 28/28/28 11/11/11 29/29/29
f 30/30/30 12/12/12 31/31/31
f 31/31/31 11/11/11 28/28/28
f 31/31/31 12/12/12 11/11/11
f 32/32/32 24/24/24 33/33/33
f 24/24/24 32/32/32 11/11/11
f 33/33/33 34/34/34 32/32/32
f 33/33/33 24/24/24 23/23/23
f 35/35/35 32/32/32 36/36/36
f 29/29/29 32/32/32 35/35/35
f 29/29/29 11/11/11 32/32/32
f 24/24/24 11/11/11 8/8/8
f 10/10/10 8/8/8 11/11/11
f 10/10/10 9/9/9 8/8/8
f 33/33/33 23/23/23 37/37/37
f 38/38/38 39/39/39 40/40/40
f 38/38/38 41/41/41 39/39/39
f 41/41/41 27/27/27 42/42/42
f 41/41/41 38/38/38 27/27/27
f 26/26/26 42/42/42 27/27/27
f 37/37/37 23/23/23 25/25/25
f 27/27/27 25/25/25 21/21/21
f 37/37/37 43/43/43 44/44/44
f 37/37/37 45/45/45 43/43/43
f 45/45/45 25/25/25 46/46/46
f 45/45/45 37/37/37 25/25/25
f 33/33/33 37/37/37 34/34/34
f 47/47/47 27/27/27 48/48/48
f 47/47/47 25/25/25 27/27/27
f 38/38/38 48/48/48 27/27/27
f 47/47/47 46/46/46 25/25/25
f 49/49/49 40/40/40 39/39/39
f 34/34/34 37/37/37 44/44/44
f 50/50/50 44/44/44 51/51/51
f 44/44/44 52/52/52 34/34/34
f 44/44/44 50/50/50 52/52/52
f 53/53/53 44/44/44 54/54/54
f 53/53/53 51/51/51 44/44/44
f 55/55/55 44/44/44 56/56/56
f 55/55/55 54/54/54 44/44/44
f 56/56/56 44/44/44 43/43/43
f 36/36/36 34/34/34 52/52/52
f 36/36/36 32/32/32 34/34/34
