mtllib m2111311.mtl
usemtl material0
v -32 6.3087139129638672 -160
v -32 6.3072690963745117 -158.71900939941406
v -30.847410202026367 6.346372127532959 -160
v -32 6.4683570861816406 -150.62765502929688
v -32 6.4751749038696289 -150.29180908203125
v -31.982280731201172 6.4760169982910156 -150.29275512695313
v -32 6.5182528495788574 -142.29219102859497
v -32 6.5358948707580566 -141.82733201980591
v -31.5609188079834 6.5212612152099609 -142.3153840303421
v -32 6.4759960174560547 -150.27305603027344
v -24.00489616394043 6.4364027976989746 -150.7138819694519
v -31.138942718505859 6.6914830207824707 -134.33845520019531
v -23.5839900970459 6.3883857727050781 -142.73619103431702
v -32 6.7002887725830078 -134.29301452636719
v -24.425691604614258 6.5068621635437012 -158.69166564941406
v -32 6.3043608665466309 -158.29103088378906
v -24.494724273681641 6.5139288902282715 -160
v -23.248575210571289 6.5042071342468262 -160
v -16.49635899066925 6.2284841537475586 -160
v -16.44963800907135 6.1957478523254395 -159.11184692382813
v -15.650528997182846 6.2163519859313965 -160
v -16.028605999425054 6.1736288070678711 -151.13424682617188
v -8.4722590446472168 6.1551189422607422 -159.53299045562744
v -23.161099910736084 6.7451281547546387 -134.75991821289063
v -15.607044011354446 6.2593979835510254 -143.15702801942825
v -15.184579014778137 6.5292282104492188 -135.18043518066406
v -7.6302204132080078 6.1054902076721191 -143.57775899767876
v -14.805467963218689 6.5388550758361816 -128
v -12.362186908721924 6.5540590286254883 -128
v -25.025611877441406 6.5273361206054688 -128
v -28.64879035949707 6.5088710784912109 -128
v -8.05170202255249 6.0363221168518066 -151.55503797531128
v -32 6.6602301597595215 -131.21563720703125
v -17.164145946502686 6.5342521667480469 -128
v -20.50489616394043 6.6258840560913086 -128
v -30.805294036865234 6.50188684463501 -128
v -32 6.5743041038513184 -128
v -22.805123805999756 6.5710539817810059 -128
v -8.49684190750122 6.16890287399292 -160
v -8.0520839691162109 6.15300178527832 -160
v -9.30278491973877 6.5149397850036621 -128
v -7.2075166702270508 6.4236578941345215 -135.60134887695313
v -0.074469566345214844 5.9654011726379395 -151.97607421875
v 0 5.9792699813842773 -143.98028600029647
v 0 5.9941949844360352 -143.61317399144173
v -6.8057708740234375 6.5148072242736816 -128
v -4.219996452331543 6.3997387886047363 -128
v -0.49574470520019531 5.9382047653198242 -159.95350646972656
v -0.49819374084472656 5.9392480850219727 -160
v 0 6.0714340209960938 -135.98081970214844
v 0 5.9204130172729492 -159.97963047027588
v 0 5.955894947052002 -153.27169799804688
v 0 5.962310791015625 -152.05885314941406
v 0 6.1782751083374023 -128
v 0 6.1146559715271 -133.23385620117188
v -1.4423303604125977 6.266298770904541 -128
v 0 5.9640498161315918 -151.97999620437622
v 0 5.9668388366699219 -150.56553602218628
v -0.45391082763671875 5.9371891021728516 -160
v 0 5.96239709854126 -152.05496215820313
v 0 5.9206361770629883 -160
vt 0.99598497152328491 0.0040779709815979
vt 0.95629602670669556 0.0040770173072814941
vt 0.99598497152328491 0.039807975292205811
vt 0.705551028251648 0.0042070150375366211
vt 0.69514399766922 0.00421297550201416
vt 0.69517302513122559 0.0047619938850402832
vt 0.44729200005531311 0.0043569803237915039
vt 0.4328790009021759 0.0043690204620361328
vt 0.44801199436187744 0.017854988574981689
vt 0.69456201791763306 0.0042139887809753418
vt 0.70826500654220581 0.25192201137542725
vt 0.20080900192260742 0.030888020992279053
vt 0.46108299493789673 0.264801025390625
vt 0.19939999282360077 0.004208981990814209
vt 0.95544302463531494 0.23882901668548584
vt 0.94303601980209351 0.0040739774703979492
vt 0.99598002433776855 0.2366979718208313
vt 0.99597102403640747 0.27530801296234131
vt 0.99578702449798584 0.48468297719955444
vt 0.96825098991394043 0.48614597320556641
vt 0.99578797817230225 0.51089099049568176
vt 0.72107499837875366 0.49899798631668091
vt 0.98110300302505493 0.73331901431083679
vt 0.21369600296020508 0.27761399745941162
vt 0.47400000691413879 0.51198500394821167
vt 0.22671100497245789 0.52483698725700378
vt 0.48686999082565308 0.75918099284172058
vt 0.0042440001852810383 0.53659000992774963
vt 0.004244999960064888 0.61228999495506287
vt 0.0042179999873042107 0.22014397382736206
vt 0.0042869998142123222 0.10788798332214356
vt 0.73389101028442383 0.74619001150131226
vt 0.10404700040817261 0.0042260289192199707
vt 0.0042420001700520515 0.46351200342178345
vt 0.0042480002157390118 0.35996800661087036
vt 0.00433199992403388 0.041073977947235107
vt 0.0043830000795423985 0.004293978214263916
vt 0.0043429997749626637 0.28895401954650879
vt 0.99557900428771973 0.73256799578666687
vt 0.99555498361587524 0.74635601043701172
vt 0.0041029998101294041 0.70689898729324341
vt 0.23957400023937225 0.77201800048351288
vt 0.74670201539993286 0.99336700001731515
vt 0.49915000796318054 0.99562699999660254
vt 0.48783999681472778 0.99567600013688207
vt 0.004036999773234129 0.7842629998922348
vt 0.0040159998461604118 0.86445599794387817
vt 0.99387699365615845 0.98055600002408028
vt 0.99531799554824829 0.98048000037670136
vt 0.25135898590087891 0.99558999994769692
vt 0.994674026966095 0.99592600017786026
vt 0.78684300184249878 0.99571599997580051
vt 0.74926501512527466 0.995678000152111
vt 0.0040710000321269035 0.99546399991959333
vt 0.16624000668525696 0.99553600000217557
vt 0.0040569999255239964 0.9506939984858036
vt 0.74700099229812622 0.995664999820292
vt 0.70317798852920532 0.99566600006073713
vt 0.9953160285949707 0.98185399919748306
vt 0.74914401769638062 0.995678000152111
vt 0.99530500173568726 0.99592600017786026
vn -0.032655000686645508 0.99946600198745728 0.0011279999744147062
vn -0.0278329998254776 0.99959802627563477 0.0054709999822080135
vn -0.028043000027537346 0.99959301948547363 0.0052809999324381351
vn -0.0281980000436306 0.99937397241592407 -0.021368000656366348
vn -0.049169000238180161 0.99826699495315552 -0.032343998551368713
vn -0.020894000306725502 0.99967998266220093 -0.014278000220656395
vn -0.0080180000513792038 0.99972200393676758 -0.022158000618219376
vn 0.0048960000276565552 0.99966102838516235 -0.02556999959051609
vn 0.0048139998689293861 0.99988400936126709 -0.014430999755859375
vn -0.017079999670386314 0.99975299835205078 -0.014250000007450581
vn 0.020665999501943588 0.9997749924659729 0.0048719998449087143
vn 0.0071649998426437378 0.99997198581695557 -0.0021329999435693026
vn 0.014568000100553036 0.99970799684524536 -0.019283000379800797
vn 0.01002500019967556 0.99994200468063354 -0.00381499994546175
vn 0.0057179997675120831 0.99996501207351685 0.0060279997996985912
vn -0.027134999632835388 0.99960100650787354 -0.007770999800413847
vn -0.0098559996113181114 0.99993401765823364 0.0059219999238848686
vn 0.031982999294996262 0.9991300106048584 0.026747999712824821
vn 0.028007000684738159 0.99898302555084229 0.035346999764442444
vn 0.02387700043618679 0.99955999851226807 0.017620999366044998
vn 0.0086859995499253273 0.99948197603225708 0.031000999733805656
vn 0.022174999117851257 0.999754011631012 -0.00079299998469650745
vn 0.019527999684214592 0.99963301420211792 0.01876400038599968
vn 0.00481700012460351 0.99992901086807251 -0.010881000198423863
vn 0.017542999237775803 0.999550998210907 -0.024305000901222229
vn 0.017441999167203903 0.99967402219772339 -0.018620999529957771
vn 0.014967000111937523 0.99961501359939575 -0.023343000560998917
vn -0.0041589997708797455 0.99999099969863892 -0.0011210000375285745
vn 0.0055470000952482224 0.9999690055847168 -0.0056380000896751881
vn -0.011136000044643879 0.99951398372650146 0.029131000861525536
vn -0.0043870001100003719 0.99952501058578491 0.030519999563694
vn 0.015584000386297703 0.99987798929214478 -0.00026100000832229853
vn 0.056242998689413071 0.99809098243713379 0.02549700066447258
vn 0.015248999930918217 0.99987798929214478 0.0035039999056607485
vn 0.0079030003398656845 0.99986302852630615 0.014531999826431274
vn 0.027553999796509743 0.99921602010726929 0.02843800000846386
vn 0.060483001172542572 0.99781298637390137 0.026662999764084816
vn -0.021818000823259354 0.99940001964569092 0.02688400074839592
vn 0.020681999623775482 0.99938201904296875 0.028408000245690346
vn 0.030264999717473984 0.999284029006958 0.022700000554323196
vn 0.0075090001337230206 0.999921977519989 -0.00993799977004528
vn 0.024969000369310379 0.9994320273399353 -0.022615000605583191
vn 0.016357000917196274 0.99984699487686157 -0.0062520001083612442
vn 0.015449999831616879 0.99966800212860107 -0.020601000636816025
vn 0.022291999310255051 0.99918997287750244 -0.033505998551845551
vn 0.023001000285148621 0.99964797496795654 -0.013202999718487263
vn 0.046636000275611877 0.99879699945449829 -0.015185999684035778
vn 0.030903000384569168 0.99948197603225708 0.0089640002697706223
vn 0.037046000361442566 0.99910402297973633 0.020447999238967896
vn 0.0481330007314682 0.99875897169113159 -0.012815999798476696
vn 0.03602999821305275 0.99934601783752441 0.0031020001042634249
vn 0.035592999309301376 0.999351978302002 -0.0052860002033412457
vn 0.031247999519109726 0.999468982219696 -0.0091960001736879349
vn 0.060910999774932861 0.99806898832321167 -0.012130999937653542
vn 0.0490880012512207 0.99867600202560425 -0.015406999737024307
vn 0.053334999829530716 0.99847501516342163 -0.01423100009560585
vn 0.017486000433564186 0.999770998954773 -0.012346000410616398
vn 0.016467999666929245 0.99986302852630615 -0.0018889999482780695
vn 0.039105001837015152 0.9991459846496582 0.013349000364542007
vn 0.016967000439763069 0.99961298704147339 -0.022049000486731529
vn 0.036440998315811157 0.99927598237991333 0.010947000235319138
f 1/1/1 2/2/2 3/3/3
f 4/4/4 5/5/5 6/6/6
f 7/7/7 8/8/8 9/9/9
f 7/7/7 6/6/6 10/10/10
f 7/7/7 9/9/9 6/6/6
f 6/6/6 9/9/9 11/11/11
f 9/9/9 12/12/12 13/13/13
f 14/14/14 9/9/9 8/8/8
f 14/14/14 12/12/12 9/9/9
f 5/5/5 10/10/10 6/6/6
f 15/15/15 4/4/4 6/6/6
f 15/15/15 16/16/16 4/4/4
f 16/16/16 3/3/3 2/2/2
f 16/16/16 15/15/15 3/3/3
f 15/15/15 17/17/17 3/3/3
f 17/17/17 15/15/15 18/18/18
f 19/19/19 20/20/20 21/21/21
f 22/22/22 23/23/23 20/20/20
f 20/20/20 18/18/18 15/15/15
f 20/20/20 19/19/19 18/18/18
f 20/20/20 15/15/15 22/22/22
f 13/13/13 11/11/11 9/9/9
f 11/11/11 13/13/13 22/22/22
f 13/13/13 24/24/24 25/25/25
f 24/24/24 13/13/13 12/12/12
f 25/25/25 22/22/22 13/13/13
f 26/26/26 27/27/27 25/25/25
f 28/28/28 29/29/29 26/26/26
f 26/26/26 25/25/25 24/24/24
f 15/15/15 11/11/11 22/22/22
f 12/12/12 30/30/30 24/24/24
f 12/12/12 31/31/31 30/30/30
f 22/22/22 25/25/25 32/32/32
f 11/11/11 15/15/15 6/6/6
f 14/14/14 33/33/33 12/12/12
f 24/24/24 34/34/34 26/26/26
f 24/24/24 35/35/35 34/34/34
f 36/36/36 31/31/31 12/12/12
f 37/37/37 12/12/12 33/33/33
f 37/37/37 36/36/36 12/12/12
f 34/34/34 28/28/28 26/26/26
f 35/35/35 24/24/24 38/38/38
f 38/38/38 24/24/24 30/30/30
f 32/32/32 23/23/23 22/22/22
f 39/39/39 23/23/23 40/40/40
f 27/27/27 32/32/32 25/25/25
f 23/23/23 21/21/21 20/20/20
f 23/23/23 39/39/39 21/21/21
f 41/41/41 26/26/26 29/29/29
f 41/41/41 42/42/42 26/26/26
f 27/27/27 43/43/43 32/32/32
f 42/42/42 44/44/44 27/27/27
f 42/42/42 45/45/45 44/44/44
f 46/46/46 42/42/42 41/41/41
f 47/47/47 42/42/42 46/46/46
f 23/23/23 32/32/32 48/48/48
f 42/42/42 27/27/27 26/26/26
f 48/48/48 40/40/40 23/23/23
f 48/48/48 49/49/49 40/40/40
f 43/43/43 48/48/48 32/32/32
f 50/50/50 45/45/45 42/42/42
f 43/43/43 51/51/51 48/48/48
f 43/43/43 52/52/52 51/51/51
f 52/52/52 43/43/43 53/53/53
f 54/54/54 55/55/55 56/56/56
f 57/57/57 43/43/43 58/58/58
f 56/56/56 42/42/42 47/47/47
f 56/56/56 50/50/50 42/42/42
f 56/56/56 55/55/55 50/50/50
f 49/49/49 48/48/48 59/59/59
f 44/44/44 43/43/43 27/27/27
f 44/44/44 58/58/58 43/43/43
f 60/60/60 43/43/43 57/57/57
f 60/60/60 53/53/53 43/43/43
f 61/61/61 48/48/48 51/51/51
f 61/61/61 59/59/59 48/48/48
