mtllib m2111111012.mtl
usemtl material0
v -22.492321014404297 2.1984760761260986 -8
v -22.719721019268036 2.2100439071655273 -8
v -22.480944007635117 2.2049469947814941 -7.78513503074646
v -21.492476999759674 2.0997300148010254 -8
v -21.664250999689102 2.1168711185455322 -8
v -21.483861982822418 2.104827880859375 -7.8377139568328857
v -23.491880059242249 2.2800719738006592 -8
v -23.7746160030365 2.3051600456237793 -8
v -23.477676033973694 2.2993741035461426 -7.7328000068664551
v -22.428018987178802 2.2628068923950195 -6.7881450057029724
v -21.431123971939087 2.1586799621582031 -6.8405910134315491
v -24 2.3248000144958496 -7.7052990198135376
v -24 2.3189220428466797 -7.897070050239563
v -24 2.3157680034637451 -8
v -23.424900054931641 2.3269610404968262 -6.7357059717178345
v -24 2.3384339809417725 -7.2532099485397339
v -21.337881028652191 2.084089994430542 -8
v -20 1.9518090486526489 -7.9157439470291138
v -20.486981987953186 2.0015850067138672 -7.8901510238647461
v -20 1.9736629724502564 -7.45172905921936
v -20.492805004119873 1.9981839656829834 -8
v -20 1.9497770071029663 -7.9717559814453125
v -20 1.9487520456314087 -8
v -20.434159994125366 2.0548810958862305 -6.89308899641037
v -24 2.3777799606323242 -6.705498993396759
v -23.371899008750916 2.3999569416046143 -5.738768994808197
v -24 2.4089820384979248 -6.3039360046386719
v -21.378422021865845 2.2083179950714111 -5.8434450030326843
v -20.381448984146118 2.1010959148406982 -5.8959470018744469
v -22.375113010406494 2.3162720203399658 -5.791140004992485
v -20 2.005450963973999 -6.9158539772033691
v -20 2.0297989845275879 -6.5024430155754089
v -24 2.4348390102386475 -5.7057110071182251
v -22.32218000292778 2.3755950927734375 -4.79415500164032
v -21.325169026851654 2.2723410129547119 -4.8466839790344238
v -23.319154977798462 2.4207069873809814 -4.7416510581970215
v -24 2.4431591033935547 -5.35437798500061
v -20.328549981117249 2.16831111907959 -4.8989369869232178
v -24 2.4571840763092041 -4.7058130502700806
v -23.279780983924866 2.4641110897064209 -4
v -24 2.4710659980773926 -4.4789669513702393
v -23.550042986869812 2.4777200222015381 -4
v -24 2.4756050109863281 -4.4048060178756714
v -21.280613005161285 2.3048899173736572 -4
v -21.440001010894775 2.3210289478302 -4
v -20.280876040458679 2.1996140480041504 -4
v -20.384636044502258 2.2102260589599609 -4
v -22.280079007148743 2.4104020595550537 -4
v -22.494823008775711 2.4195969104766846 -4
v -20 2.1077361106872559 -5.2641670107841492
v -20 2.0602140426635742 -5.9160600006580353
v -20 2.145129919052124 -4.6169389486312866
v -20 2.1458580493927 -4.6032999753952026
v -20 2.1291539669036865 -4.9162280559539795
v -24 2.5095438957214355 -4
v -20 2.1702148914337158 -4
vt 0.36281698942184448 0.024062991142272949
vt 0.30819898843765259 0.026030004024505615
vt 0.36732000112533569 0.075536012649536133
vt 0.60380399227142334 0.014997005462646484
vt 0.56239801645278931 0.0165560245513916
vt 0.60720598697662354 0.053875982761383057
vt 0.12223400175571442 0.033128023147583008
vt 0.054152000695466995 0.035717010498046875
vt 0.12766200304031372 0.097292006015777588
vt 0.38785600662231445 0.31470102071762085
vt 0.62754297256469727 0.29303300380706787
vt 0.0024580000899732113 0.10838198661804199
vt 0.00087699998402968049 0.062357008457183838
vt 2.8000000384054147E-05 0.037653982639312744
vt 0.1487089991569519 0.3361240029335022
vt 0.0062400000169873238 0.21688002347946167
vt 0.6410750150680542 0.013592004776000977
vt 0.96429997682571411 0.021624982357025146
vt 0.847117006778717 0.032203972339630127
vt 0.96798700094223022 0.13306397199630737
vt 0.8448140025138855 0.0058889985084533691
vt 0.96384000778198242 0.0081800222396850586
vt 0.963608980178833 0.001399993896484375
vt 0.86748701333999634 0.27133798599243164
vt 0.010458000004291534 0.34861701726913452
vt 0.16911500692367554 0.57552599906921387
vt 0.013536999933421612 0.44524502754211426
vt 0.64822298288345337 0.53211298584938049
vt 0.88799899816513062 0.51039299368858337
vt 0.40855801105499268 0.55379500985145569
vt 0.97208398580551147 0.26185101270675659
vt 0.97524499893188477 0.36120700836181641
vt 0.018432000651955605 0.58888700604438782
vt 0.42920199036598206 0.79297000169754028
vt 0.66874897480010986 0.77131600677967072
vt 0.19027499854564667 0.81431299448013306
vt 0.021421000361442566 0.67318698763847351
vt 0.90829700231552124 0.7497209906578064
vt 0.026933999732136726 0.82879999279975891
vt 0.20575100183486939 0.99221300007775426
vt 0.028767000883817673 0.88331999629735947
vt 0.14068600535392761 0.99448900017887354
vt 0.029363000765442848 0.90114399790763855
vt 0.68666702508926392 0.974184000864625
vt 0.64824098348617554 0.97563499957323074
vt 0.92738401889801025 0.96508099883794785
vt 0.90236598253250122 0.96602600067853928
vt 0.44589298963546753 0.98330999910831451
vt 0.394335001707077 0.98519099969416857
vt 0.98459899425506592 0.65888598561286926
vt 0.9798319935798645 0.50207000970840454
vt 0.98993498086929321 0.81427399814128876
vt 0.99004602432250977 0.817551001906395
vt 0.98748499155044556 0.742374986410141
vt 0.032490998506546021 0.99860000004991889
vt 0.99511802196502686 0.96241400018334389
vn 0.073656998574733734 0.996707022190094 -0.033916998654603958
vn 0.080908000469207764 0.99451297521591187 -0.06632100045681
vn 0.089478999376297 0.99456101655960083 -0.053312998265028
vn 0.099887996912002563 0.99432802200317383 -0.036538999527692795
vn 0.098296001553535461 0.99452501535415649 -0.0354590006172657
vn 0.099050998687744141 0.99395197629928589 -0.047407999634742737
vn 0.089063003659248352 0.99308598041534424 -0.076475001871585846
vn 0.056630998849868774 0.9975389838218689 -0.041333001106977463
vn 0.07036600261926651 0.99617898464202881 -0.051727999001741409
vn 0.085271000862121582 0.99479401111602783 -0.055794000625610352
vn 0.10051199793815613 0.9933050274848938 -0.056937001645565033
vn 0.047003000974655151 0.99843400716781616 -0.030347999185323715
vn 0.046989999711513519 0.99842697381973267 -0.03060000017285347
vn 0.046989999711513519 0.99842697381973267 -0.030598999932408333
vn 0.070546001195907593 0.99591100215911865 -0.056439999490976334
vn 0.056956000626087189 0.997527003288269 -0.041179001331329346
vn 0.10093999654054642 0.99423199892044067 -0.036254998296499252
vn 0.099451996386051178 0.99418699741363525 -0.041251998394727707
vn 0.10129400342702866 0.99379897117614746 -0.045860998332500458
vn 0.10699900239706039 0.99270200729370117 -0.055629000067710876
vn 0.10042499750852585 0.994288980960846 -0.036109000444412231
vn 0.099740996956825256 0.994359016418457 -0.036072999238967896
vn 0.099740996956825256 0.994359016418457 -0.036072000861167908
vn 0.10436800122261047 0.99296301603317261 -0.0559689998626709
vn 0.083899997174739838 0.99369299411773682 -0.0744049996137619
vn 0.066050998866558075 0.99651002883911133 -0.051031999289989471
vn 0.075566999614238739 0.99481302499771118 -0.068095996975898743
vn 0.10295700281858444 0.99269300699234009 -0.062928996980190277
vn 0.10286799818277359 0.9927399754524231 -0.0623369999229908
vn 0.089138999581336975 0.99396198987960815 -0.063988998532295227
vn 0.10988900065422058 0.99221199750900269 -0.058655001223087311
vn 0.10539399832487106 0.99299699068069458 -0.053378000855445862
vn 0.053686000406742096 0.99801099300384521 -0.033045999705791473
vn 0.076897002756595612 0.99578398466110229 -0.050009001046419144
vn 0.10141099989414215 0.9933050274848938 -0.055326998233795166
vn 0.049277998507022858 0.997979998588562 -0.040102001279592514
vn 0.05370200052857399 0.99829000234603882 -0.0230919998139143
vn 0.10538899898529053 0.99285298585891724 -0.055994998663663864
vn 0.05124799907207489 0.9978029727935791 -0.041990999132394791
vn 0.053454000502824783 0.99669498205184937 -0.061168000102043152
vn 0.05019799992442131 0.99687397480010986 -0.061005000025033951
vn 0.054908998310565948 0.996291995048523 -0.066238999366760254
vn 0.055583998560905457 0.99620401859283447 -0.066987998783588409
vn 0.1028750017285347 0.99373799562454224 -0.043616000562906265
vn 0.10181800276041031 0.99379301071166992 -0.044819999486207962
vn 0.1028750017285347 0.99388700723648071 -0.04006500169634819
vn 0.10243099927902222 0.99390000104904175 -0.040869001299142838
vn 0.0752279981970787 0.99602800607681274 -0.047642000019550323
vn 0.045956999063491821 0.99771201610565186 -0.049587998539209366
vn 0.1054140031337738 0.99198299646377563 -0.069696001708507538
vn 0.10315500199794769 0.99276000261306763 -0.06153399869799614
vn 0.11542399972677231 0.99190497398376465 -0.05294099822640419
vn 0.10708300024271011 0.99329501390457153 -0.043565001338720322
vn 0.1151840016245842 0.9916989803314209 -0.057142000645399094
vn 0.0703049972653389 0.99403798580169678 -0.083341002464294434
vn 0.1040169969201088 0.99376600980758667 -0.040121998637914658
f 1/1/1 2/2/2 3/3/3
f 4/4/4 5/5/5 6/6/6
f 7/7/7 8/8/8 9/9/9
f 9/9/9 10/10/10 3/3/3
f 7/7/7 3/3/3 2/2/2
f 7/7/7 9/9/9 3/3/3
f 1/1/1 6/6/6 5/5/5
f 1/1/1 3/3/3 6/6/6
f 3/3/3 11/11/11 6/6/6
f 8/8/8 12/12/12 9/9/9
f 8/8/8 13/13/13 12/12/12
f 13/13/13 8/8/8 14/14/14
f 12/12/12 15/15/15 9/9/9
f 12/12/12 16/16/16 15/15/15
f 4/4/4 6/6/6 17/17/17
f 18/18/18 19/19/19 20/20/20
f 18/18/18 21/21/21 19/19/19
f 18/18/18 22/22/22 21/21/21
f 22/22/22 23/23/23 21/21/21
f 19/19/19 17/17/17 6/6/6
f 19/19/19 21/21/21 17/17/17
f 6/6/6 24/24/24 19/19/19
f 25/25/25 26/26/26 15/15/15
f 25/25/25 27/27/27 26/26/26
f 16/16/16 25/25/25 15/15/15
f 10/10/10 28/28/28 11/11/11
f 3/3/3 10/10/10 11/11/11
f 6/6/6 11/11/11 24/24/24
f 11/11/11 29/29/29 24/24/24
f 10/10/10 9/9/9 15/15/15
f 15/15/15 30/30/30 10/10/10
f 31/31/31 24/24/24 32/32/32
f 31/31/31 19/19/19 24/24/24
f 31/31/31 20/20/20 19/19/19
f 27/27/27 33/33/33 26/26/26
f 26/26/26 34/34/34 30/30/30
f 10/10/10 30/30/30 28/28/28
f 11/11/11 28/28/28 29/29/29
f 30/30/30 35/35/35 28/28/28
f 30/30/30 15/15/15 26/26/26
f 33/33/33 36/36/36 26/26/26
f 33/33/33 37/37/37 36/36/36
f 28/28/28 38/38/38 29/29/29
f 39/39/39 36/36/36 37/37/37
f 39/39/39 40/40/40 36/36/36
f 39/39/39 41/41/41 40/40/40
f 41/41/41 42/42/42 40/40/40
f 41/41/41 43/43/43 42/42/42
f 34/34/34 44/44/44 35/35/35
f 34/34/34 45/45/45 44/44/44
f 34/34/34 35/35/35 30/30/30
f 35/35/35 38/38/38 28/28/28
f 35/35/35 46/46/46 38/38/38
f 35/35/35 47/47/47 46/46/46
f 26/26/26 36/36/36 34/34/34
f 36/36/36 48/48/48 34/34/34
f 36/36/36 49/49/49 48/48/48
f 50/50/50 29/29/29 38/38/38
f 50/50/50 51/51/51 29/29/29
f 32/32/32 29/29/29 51/51/51
f 32/32/32 24/24/24 29/29/29
f 52/52/52 38/38/38 53/53/53
f 52/52/52 54/54/54 38/38/38
f 54/54/54 50/50/50 38/38/38
f 49/49/49 36/36/36 40/40/40
f 45/45/45 34/34/34 48/48/48
f 55/55/55 42/42/42 43/43/43
f 56/56/56 38/38/38 46/46/46
f 56/56/56 53/53/53 38/38/38
f 47/47/47 35/35/35 44/44/44
