mtllib m21111220.mtl
usemtl material0
v -125.96552276611328 5.1045269966125488 -112
v -128 5.0077400207519531 -111.29010820388794
v -125.82573699951172 4.906829833984375 -109.33315277099609
v -128 5.0611581802368164 -112
v -128 4.9654769897460938 -109.21852111816406
v -128 4.8763651847839355 -106.91656494140625
v -128 4.920569896697998 -102.69368004798889
v -125.61459398269653 5.0236492156982422 -105.3447949886322
v -128 4.9221467971801758 -105.21850597858429
v -121.83641803264618 5.0150661468505859 -109.54416704177856
v -128 4.8874168395996094 -101.21851301193237
v -125.40444183349609 4.93782901763916 -101.35573601722717
v -123.425940990448 5.1471948623657227 -112
v -121.62449598312378 5.2920370101928711 -105.55636596679688
v -121.96522498130798 5.181495189666748 -112
v -119.62643399834633 5.2760729789733887 -112
v -115.82692718505859 5.4076600074768066 -112
v -117.96400499343872 5.4406638145446777 -112
v -117.84568810462952 5.4138178825378418 -109.75618696212769
v -117.63542199134827 5.3519291877746582 -105.76721203327179
v -113.85664415359497 5.4663810729980469 -109.96700286865234
v -121.41433000564575 5.2096347808837891 -101.56732201576233
v -117.42559099197388 5.1992158889770508 -101.77792406082153
v -113.64665985107422 5.3458991050720215 -105.97782897949219
v -121.20501697063446 4.950963020324707 -97.577660083770752
v -125.19425201416016 4.8593292236328125 -97.366706848144531
v -128 4.860011100769043 -99.8910140991211
v -113.96413421630859 5.4337139129638672 -112
v -112 5.4605979919433594 -110.93669891357422
v -112 5.4442529678344727 -110.06498003005981
v -112.02752685546875 5.480891227722168 -112
v -112 5.4805359840393066 -112
v -112 5.2946572303771973 -108.29524993896484
v -112 5.0710711479187012 -103.58578500151634
v -113.43745422363281 5.0667228698730469 -101.98809790611267
v -112 5.2353301048278809 -106.06442999839783
v -112 5.0467748641967773 -102.06394195556641
v -112 5.0095300674438477 -100.69438195228577
v -113.22830200195313 4.7763128280639648 -97.998329162597656
v -117.21672797203064 4.8502130508422852 -97.7879490852356
v -128 4.7691240310668945 -97.218254089355469
v -126.42377519607544 4.9212398529052734 -96
v -128 4.8126301765441895 -96.659996032714844
v -128 4.8640651702880859 -96
v -122.6243588924408 5.0044498443603516 -96
v -125.12169599533081 4.939518928527832 -96
v -121.12226104736328 4.8475131988525391 -96
v -118.82546997070313 4.7817339897155762 -96
v -115.02630615234375 4.7174339294433594 -96
v -117.12278699874878 4.76163387298584 -96
v -113.12343597412109 4.6521258354187012 -96
v -112 4.8142929077148438 -98.063315868377686
v -112 4.7321648597717285 -96.771820068359375
v -112 4.6830840110778809 -96
vt 0.12425599992275238 0.031198024749755859
vt 0.0036190000828355551 0.078402996063232422
vt 0.13827300071716309 0.19141197204589844
vt 0.0021220000926405191 0.035673022270202637
vt 0.0079539995640516281 0.20277100801467896
vt 0.01284599956125021 0.34104102849960327
vt 0.021758999675512314 0.59454300999641418
vt 0.15954899787902832 0.43044197559356689
vt 0.016504000872373581 0.44299602508544922
vt 0.37732499837875366 0.16990697383880615
vt 0.024771999567747116 0.68311101198196411
vt 0.17997300624847412 0.6695379912853241
vt 0.27670198678970337 0.025663018226623535
vt 0.39915800094604492 0.40954500436782837
vt 0.36439600586891174 0.022436976432800293
vt 0.50487500429153442 0.017104029655456543
vt 0.73339402675628662 0.0080569982528686523
vt 0.60512399673461914 0.013043999671936035
vt 0.617484986782074 0.14743500947952271
vt 0.63813799619674683 0.38809102773666382
vt 0.856669008731842 0.12843698263168335
vt 0.4205000102519989 0.64855501055717468
vt 0.65944498777389526 0.62724199891090393
vt 0.87715500593185425 0.36758798360824585
vt 0.43930798768997192 0.88827099651098251
vt 0.20108500123023987 0.90856300294399261
vt 0.027486000210046768 0.762810006737709
vt 0.84683799743652344 0.0065469741821289062
vt 0.96654599905014038 0.067174971103668213
vt 0.96792101860046387 0.11876398324966431
vt 0.96314001083374023 0.0033720135688781738
vt 0.964792013168335 0.0033270120620727539
vt 0.97167599201202393 0.22536498308181763
vt 0.98151499032974243 0.50786700844764709
vt 0.89855599403381348 0.60675299167633057
vt 0.976065993309021 0.3593209981918335
vt 0.98468798398971558 0.59922400116920471
vt 0.98765802383422852 0.68112000823020935
vt 0.91978800296783447 0.84619799256324768
vt 0.680791974067688 0.86717000603675842
vt 0.032900001853704453 0.923335000872612
vt 0.13031800091266632 0.99339399999007583
vt 0.034157998859882355 0.95694199949502945
vt 0.035645999014377594 0.99667300004512072
vt 0.35816100239753723 0.98578399978578091
vt 0.20819999277591705 0.99059399962425232
vt 0.44771501421928406 0.98298499919474125
vt 0.58563297986984253 0.97824000008404255
vt 0.8161429762840271 0.9700349997729063
vt 0.68787401914596558 0.97584600001573563
vt 0.93042898178100586 0.9661410003900528
vt 0.99339002370834351 0.83946999907493591
vt 0.99620002508163452 0.91716700047254562
vt 0.99787801504135132 0.96358500048518181
vn -0.019075000658631325 0.99700802564620972 0.074909001588821411
vn -0.00811500009149313 0.99813598394393921 0.060485001653432846
vn -0.013199999928474426 0.99961501359939575 0.024418000131845474
vn -0.021252000704407692 0.9969559907913208 0.0750190019607544
vn 0.028522999957203865 0.99914801120758057 0.029830999672412872
vn -0.026931000873446465 0.99957001209259033 -0.011629000306129456
vn -0.023887999355793 0.999563992023468 0.017371000722050667
vn -0.047430999577045441 0.99883198738098145 -0.0092730000615119934
vn -0.04318000003695488 0.99898701906204224 -0.012694000266492367
vn -0.050266001373529434 0.99868100881576538 0.010448000393807888
vn -0.01827700063586235 0.99960100650787354 0.021519999951124191
vn -0.036467000842094421 0.99894201755523682 0.028024999424815178
vn -0.021640000864863396 0.99728298187255859 0.0704130008816719
vn -0.042298998683691025 0.99886399507522583 -0.021960999816656113
vn -0.031594999134540558 0.99709999561309814 0.06922999769449234
vn -0.083061002194881439 0.996059000492096 0.031115999445319176
vn -0.0061340001411736012 0.99994701147079468 -0.0082630002871155739
vn -0.043494001030921936 0.99895197153091431 0.01424499973654747
vn -0.052161000669002533 0.99855500459671021 0.012961000204086304
vn -0.016109000891447067 0.99972999095916748 0.016769999638199806
vn 0.0045090001076459885 0.99985700845718384 0.016310999169945717
vn -0.029430000111460686 0.998354971408844 0.049212999641895294
vn 0.015465999953448772 0.997829020023346 0.064012996852397919
vn 0.040477998554706573 0.998216986656189 0.043871000409126282
vn 0.013284999877214432 0.99897599220275879 0.043260000646114349
vn -0.024330999702215195 0.9995189905166626 -0.019225999712944031
vn -0.021525999531149864 0.99947500228881836 0.02419699914753437
vn -0.018991999328136444 0.999705970287323 -0.015058999881148338
vn 0.012904999777674675 0.99974101781845093 0.018745999783277512
vn 0.014562999829649925 0.99862200021743774 0.050425998866558075
vn 0.0029629999771714211 0.99994802474975586 0.00980400014668703
vn 0.012901999987661839 0.99974101781845093 0.018745999783277512
vn 0.054545998573303223 0.99763202667236328 0.041898999363183975
vn 0.057358000427484512 0.996874988079071 0.054317999631166458
vn 0.027586000040173531 0.99796199798583984 0.057537000626325607
vn 0.069315999746322632 0.996550977230072 0.045632999390363693
vn 0.01500099990516901 0.99965900182724 0.02138499915599823
vn -0.015660999342799187 0.99798297882080078 0.061521001160144806
vn 0.00078599998960271478 0.99771797657012939 0.067519001662731171
vn 0.020531000569462776 0.99757999181747437 0.0664220005273819
vn -0.0333780013024807 0.9991610050201416 -0.023725999519228935
vn -0.03022800013422966 0.99692100286483765 -0.072353996336460114
vn -0.036139998584985733 0.9963260293006897 -0.077646002173423767
vn -0.036139998584985733 0.9963260293006897 -0.077646002173423767
vn 0.0087400004267692566 0.99962300062179565 -0.026026999577879906
vn -0.020186999812722206 0.99814200401306152 -0.057493001222610474
vn 0.064841002225875854 0.99597299098968506 0.061905998736619949
vn 0.024088000878691673 0.99791401624679565 0.059893999248743057
vn 0.0245789997279644 0.99836897850036621 0.051530998200178146
vn 0.016579000279307365 0.9986799955368042 0.04860600084066391
vn 0.0023419999051839113 0.99807900190353394 0.061902999877929688
vn -0.027191000059247017 0.99725300073623657 0.068892002105712891
vn -0.027490999549627304 0.99760699272155762 0.06343899667263031
vn -0.027490999549627304 0.99760699272155762 0.06343899667263031
f 1/1/1 2/2/2 3/3/3
f 1/1/1 4/4/4 2/2/2
f 5/5/5 6/6/6 3/3/3
f 7/7/7 8/8/8 9/9/9
f 6/6/6 8/8/8 3/3/3
f 6/6/6 9/9/9 8/8/8
f 3/3/3 8/8/8 10/10/10
f 8/8/8 11/11/11 12/12/12
f 8/8/8 7/7/7 11/11/11
f 2/2/2 5/5/5 3/3/3
f 13/13/13 1/1/1 3/3/3
f 8/8/8 14/14/14 10/10/10
f 15/15/15 10/10/10 16/16/16
f 17/17/17 18/18/18 19/19/19
f 19/19/19 20/20/20 21/21/21
f 19/19/19 16/16/16 10/10/10
f 19/19/19 18/18/18 16/16/16
f 19/19/19 10/10/10 20/20/20
f 14/14/14 12/12/12 22/22/22
f 8/8/8 12/12/12 14/14/14
f 20/20/20 22/22/22 23/23/23
f 22/22/22 20/20/20 14/14/14
f 23/23/23 24/24/24 20/20/20
f 12/12/12 25/25/25 22/22/22
f 10/10/10 14/14/14 20/20/20
f 11/11/11 26/26/26 12/12/12
f 11/11/11 27/27/27 26/26/26
f 17/17/17 21/21/21 28/28/28
f 17/17/17 19/19/19 21/21/21
f 15/15/15 3/3/3 10/10/10
f 15/15/15 13/13/13 3/3/3
f 29/29/29 21/21/21 30/30/30
f 29/29/29 31/31/31 21/21/21
f 29/29/29 32/32/32 31/31/31
f 28/28/28 21/21/21 31/31/31
f 30/30/30 21/21/21 33/33/33
f 34/34/34 24/24/24 35/35/35
f 34/34/34 36/36/36 24/24/24
f 24/24/24 33/33/33 21/21/21
f 24/24/24 36/36/36 33/33/33
f 34/34/34 35/35/35 37/37/37
f 35/35/35 24/24/24 23/23/23
f 37/37/37 35/35/35 38/38/38
f 23/23/23 39/39/39 35/35/35
f 24/24/24 21/21/21 20/20/20
f 22/22/22 40/40/40 23/23/23
f 41/41/41 42/42/42 26/26/26
f 41/41/41 43/43/43 42/42/42
f 43/43/43 44/44/44 42/42/42
f 45/45/45 26/26/26 46/46/46
f 45/45/45 25/25/25 26/26/26
f 26/26/26 25/25/25 12/12/12
f 47/47/47 25/25/25 45/45/45
f 46/46/46 26/26/26 42/42/42
f 27/27/27 41/41/41 26/26/26
f 48/48/48 25/25/25 47/47/47
f 48/48/48 40/40/40 25/25/25
f 40/40/40 49/49/49 39/39/39
f 40/40/40 50/50/50 49/49/49
f 49/49/49 51/51/51 39/39/39
f 52/52/52 39/39/39 53/53/53
f 53/53/53 51/51/51 54/54/54
f 53/53/53 39/39/39 51/51/51
f 23/23/23 40/40/40 39/39/39
f 48/48/48 50/50/50 40/40/40
f 38/38/38 39/39/39 52/52/52
f 38/38/38 35/35/35 39/39/39
f 22/22/22 25/25/25 40/40/40
