mtllib m2111111222.mtl
usemtl material0
v -32 2.0087790489196777 -29.28115302324295
v -32 2.0249431133270264 -28.876296997070312
v -31.617648959159851 2.0008430480957031 -29.301319003105164
v -32 1.9263709783554077 -32
v -32 1.9453400373458862 -31.479648947715759
v -31.856613039970398 1.9275670051574707 -32
v -31.564792990684509 2.0445489883422852 -28.304278969764709
v -32 2.0514509677886963 -28.281321048736572
v -31.660940051078796 1.9240469932556152 -32
v -30.620543003082275 1.9825880527496338 -29.353914022445679
v -31.760498046875 1.9257190227508545 -32
v -29.891259998083115 1.9265940189361572 -32
v -30.567746996879578 2.0140879154205322 -28.356834053993225
v -29.623562008142471 1.9389439821243286 -29.4064239859581
v -32 2.0501000881195068 -28.169682025909424
v -31.83855402469635 2.0453829765319824 -28
v -32 2.0480470657348633 -28
v -30.548978984355927 2.0003759860992432 -28
v -30.888790011405945 2.0148999691009521 -28
v -31.548773050308228 2.035984992980957 -28
v -29.570809990167618 1.9611660242080689 -28.409311056137085
v -29.939057998359203 1.9668569564819336 -28
v -29.760571002960205 1.9209359884262085 -32
v -32 1.9525829553604126 -31.228636026382446
v -28.626595973968506 1.8918800354003906 -29.458920001983643
v -28.573904037475586 1.9018959999084473 -28.461765050888062
v -29.625214010477066 1.9146130084991455 -32
v -28 1.90693199634552 -32
v -28 1.9050290584564209 -31.73154604434967
v -28 1.8699740171432495 -29.491940021514893
v -28 1.8694729804992676 -28.894999980926514
v -28.9893399477005 1.9113240242004395 -28
v -29.549279987812042 1.9456369876861572 -28
v -28.549604058265686 1.8868639469146729 -28
v -28 1.8599460124969482 -28
v -28 1.8611019849777222 -28.044028997421265
v -28.039612054824829 1.8617349863052368 -28
v -28 1.8745219707489014 -28.491984963417053
v -28 1.8684879541397095 -28.290585041046143
vt 0.67971199750900269 0
vt 0.780925989151001 0
vt 0.67466998100280762 0.095588028430938721
vt 0 0
vt 0.13008800148963928 0
vt 0 0.035847008228302
vt 0.92392998933792114 0.10880202054977417
vt 0.929669976234436 0
vt 0 0.084765017032623291
vt 0.66152101755142212 0.34486401081085205
vt 0 0.0598750114440918
vt 0 0.52718499302864075
vt 0.91079097986221313 0.3580629825592041
vt 0.648393988609314 0.59411001205444336
vt 0.95757997035980225 0
vt 1 0.040360987186431885
vt 1 0
vt 1 0.36275500059127808
vt 1 0.2778019905090332
vt 1 0.11280697584152222
vt 0.89767199754714966 0.60729700326919556
vt 1 0.51523500680923462
vt 0 0.55985701084136963
vt 0.19284099340438843 0
vt 0.63526999950408936 0.84335100650787354
vt 0.88455897569656372 0.85652400553226471
vt 0 0.59369701147079468
vt 0 1
vt 0.067112997174263 1
vt 0.62701499462127686 1
vt 0.77625000476837158 1
vt 1 0.75266499817371368
vt 1 0.61267998814582825
vt 1 0.86259900033473969
vt 1 1
vt 0.98899298906326294 1
vt 1 0.99009700026363134
vt 0.87700402736663818 1
vt 0.92735397815704346 1
vn 0.019166000187397003 0.99936997890472412 -0.029872000217437744
vn 0.014465999789536 0.99894297122955322 -0.043630000203847885
vn 0.016898000612854958 0.99931097030639648 -0.033055000007152557
vn -0.0083349999040365219 0.999301016330719 -0.036428999155759811
vn 0.00063299998873844743 0.99942302703857422 -0.033962000161409378
vn 0.0080909999087452888 0.99945801496505737 -0.03190699964761734
vn 0.022168999537825584 0.99941998720169067 -0.02586200088262558
vn 0.013970999978482723 0.99926900863647461 -0.035576000809669495
vn 0.0056230002082884312 0.99968802928924561 -0.024328000843524933
vn 0.018309000879526138 0.99953997135162354 -0.024173000827431679
vn 0.018866000697016716 0.99940699338912964 -0.02882000058889389
vn 0.015804000198841095 0.99973398447036743 -0.01679999940097332
vn 0.041402000933885574 0.998993992805481 -0.017222000285983086
vn 0.046806000173091888 0.998786985874176 -0.015308000147342682
vn 0.016495000571012497 0.99979102611541748 0.012098999693989754
vn 0.023142000660300255 0.99956899881362915 0.018081000074744225
vn 0.016497999429702759 0.99979102611541748 0.012097000144422054
vn 0.052813000977039337 0.99797099828720093 0.035571999847888947
vn 0.033893998712301254 0.99902701377868652 0.028219999745488167
vn 0.032067999243736267 0.99913597106933594 0.026433000341057777
vn 0.056067999452352524 0.99842697381973267 2.9000000722589903E-05
vn 0.054639998823404312 0.99788302183151245 0.035284001380205154
vn 0.044985998421907425 0.9989439845085144 -0.0093120001256465912
vn 0.019218999892473221 0.99939900636672974 -0.028837999328970909
vn 0.027181999757885933 0.99962997436523438 0.00082800001837313175
vn 0.052101999521255493 0.99862897396087646 -0.00506300013512373
vn 0.022169999778270721 0.999754011631012 0.00023200000578071922
vn 0.0047260001301765442 0.99996399879455566 0.0070890001952648163
vn 0.032439999282360077 0.999364972114563 0.014725999906659126
vn 0.035595998167991638 0.999288022518158 0.012525999918580055
vn 0.043246001005172729 0.99902999401092529 -0.0083560002967715263
vn 0.05982000008225441 0.99764800071716309 0.033449999988079071
vn 0.058338001370429993 0.99769097566604614 0.034782998263835907
vn 0.050958000123500824 0.99825602769851685 0.029813999310135841
vn 0.045101001858711243 0.99863797426223755 0.026218999177217484
vn 0.048576001077890396 0.99838799238204956 0.029348000884056091
vn 0.049146998673677444 0.9983450174331665 0.029866000637412071
vn 0.048363000154495239 0.99873501062393188 0.013771999627351761
vn 0.049192998558282852 0.99834102392196655 0.029907999560236931
f 1/1/1 2/2/2 3/3/3
f 4/4/4 5/5/5 6/6/6
f 2/2/2 7/7/7 3/3/3
f 2/2/2 8/8/8 7/7/7
f 9/9/9 3/3/3 10/10/10
f 9/9/9 11/11/11 3/3/3
f 10/10/10 3/3/3 7/7/7
f 9/9/9 10/10/10 12/12/12
f 10/10/10 13/13/13 14/14/14
f 10/10/10 7/7/7 13/13/13
f 15/15/15 7/7/7 8/8/8
f 15/15/15 16/16/16 7/7/7
f 15/15/15 17/17/17 16/16/16
f 18/18/18 13/13/13 19/19/19
f 16/16/16 20/20/20 7/7/7
f 18/18/18 21/21/21 13/13/13
f 18/18/18 22/22/22 21/21/21
f 19/19/19 7/7/7 20/20/20
f 19/19/19 13/13/13 7/7/7
f 12/12/12 14/14/14 23/23/23
f 12/12/12 10/10/10 14/14/14
f 11/11/11 1/1/1 3/3/3
f 11/11/11 24/24/24 1/1/1
f 24/24/24 6/6/6 5/5/5
f 24/24/24 11/11/11 6/6/6
f 25/25/25 14/14/14 26/26/26
f 27/27/27 14/14/14 25/25/25
f 27/27/27 23/23/23 14/14/14
f 28/28/28 25/25/25 29/29/29
f 28/28/28 27/27/27 25/25/25
f 30/30/30 29/29/29 25/25/25
f 30/30/30 25/25/25 31/31/31
f 32/32/32 21/21/21 33/33/33
f 32/32/32 26/26/26 21/21/21
f 21/21/21 26/26/26 14/14/14
f 34/34/34 26/26/26 32/32/32
f 33/33/33 21/21/21 22/22/22
f 35/35/35 36/36/36 37/37/37
f 34/34/34 38/38/38 26/26/26
f 34/34/34 39/39/39 38/38/38
f 39/39/39 37/37/37 36/36/36
f 39/39/39 34/34/34 37/37/37
f 31/31/31 26/26/26 38/38/38
f 31/31/31 25/25/25 26/26/26
f 21/21/21 14/14/14 13/13/13
