mtllib m2111111030.mtl
usemtl material0
v -22.703851997852325 2.1262199878692627 -12
v -22.943383991718292 2.1418719291687012 -12
v -22.691874027252197 2.1317069530487061 -11.773638963699341
v -20.704720973968506 1.8582940101623535 -12
v -20.8333820104599 1.8752549886703491 -12
v -20.69829797744751 1.8602930307388306 -11.878384947776794
v -21.704210013151169 1.9939780235290527 -12
v -21.888268999755383 2.0178940296173096 -12
v -21.695010989904404 1.9976639747619629 -11.826063990592957
v -24 2.2365028858184814 -11.704893946647644
v -23.635957956314087 2.2273550033569336 -10.724120020866394
v -23.688598990440369 2.2275979518890381 -11.721310019493103
v -24 2.2373270988464355 -11.051723003387451
v -23.703387975692749 2.2126529216766357 -12
v -24 2.2257750034332275 -11.899973034858704
v -24 2.2202749252319336 -12
v -20.588909029960632 1.8430080413818359 -12
v -21.642251998186111 2.0326590538024902 -10.82895702123642
v -20 1.765923023223877 -11.915135025978088
v -20 1.8038640022277832 -11.250038027763367
v -20 1.7640899419784546 -12
v -20 1.7650810480117798 -11.954118013381958
v -20.645385980606079 1.9039239883422852 -10.881385028362274
v -22.639083981513977 2.161736011505127 -10.776552975177765
v -24 2.2397260665893555 -10.704935014247894
v -24 2.234766960144043 -10.101875998079777
v -23.583364009857178 2.2173449993133545 -9.7268959879875183
v -22.586320996284485 2.1863939762115479 -9.779449000954628
v -20.592587947845459 1.9547410011291504 -9.8843040019273758
v -20 1.8207550048828125 -10.915314972400665
v -21.589446991682053 2.071850061416626 -9.8318819999694824
v -20 1.8638960123062134 -10.300466001033783
v -24 2.2406480312347412 -9.1520959734916687
v -23.530671954154968 2.2273550033569336 -8.7297420501708984
v -24 2.2339520454406738 -9.7049480080604553
v -22.533733010292053 2.1749188899993896 -8.7822209596633911
v -21.536794990301132 2.0735089778900146 -8.8346990346908569
v -22.492321014404297 2.1984760761260986 -8
v -22.719721019268036 2.2100439071655273 -8
v -21.492476999759674 2.0997300148010254 -8
v -21.664250999689102 2.1168711185455322 -8
v -24 2.2708969116210938 -8.7050960063934326
v -23.491880059242249 2.2800719738006592 -8
v -24 2.3095519542694092 -8.2028089761734
v -23.7746160030365 2.3051600456237793 -8
v -24 2.2995800971984863 -8.3323889970779419
v -24 2.3157680034637451 -8
v -21.337881028652191 2.084089994430542 -8
v -20.539826989173889 1.9707150459289551 -8.8871970176696777
v -20 1.9331580400466919 -8.42959201335907
v -20 1.9341909885406494 -8.4013659954071045
v -20 1.9153660535812378 -8.91557502746582
v -20 1.8952959775924683 -9.4873319864273071
v -20 1.8858300447463989 -9.9154310002923012
v -20 1.9487520456314087 -8
v -20.492805004119873 1.9981839656829834 -8
vt 0.31342300772666931 0.026712000370025635
vt 0.25586798787117004 0.02879101037979126
vt 0.31816500425338745 0.080906987190246582
vt 0.79700702428817749 0.0082799792289733887
vt 0.76589298248291016 0.0094640254974365234
vt 0.799580991268158 0.037388980388641357
vt 0.55517899990081787 0.017507970333099365
vt 0.51067900657653809 0.019200026988983154
vt 0.55883699655532837 0.059148013591766357
vt 0.0039869998581707478 0.10887700319290161
vt 0.099206998944282532 0.341126024723053
vt 0.07855600118637085 0.1024320125579834
vt 0.0092409998178482056 0.26550298929214478
vt 0.072861000895500183 0.035619020462036133
vt 0.0024830000475049019 0.062026023864746094
vt 0.0017119999974966049 0.038003027439117432
vt 0.82501399517059326 0.0072140097618103027
vt 0.579384982585907 0.29798001050949097
vt 0.96817302703857422 0.0221099853515625
vt 0.97307497262954712 0.18186897039413452
vt 0.96745198965072632 0.0017560124397277832
vt 0.9678419828414917 0.012759983539581299
vt 0.81989699602127075 0.27627897262573242
vt 0.339028000831604 0.3196679949760437
vt 0.012016999535262585 0.34866201877593994
vt 0.016916999593377113 0.49327397346496582
vt 0.12089099735021591 0.5797480046749115
vt 0.35989001393318176 0.55839800834655762
vt 0.83998399972915649 0.51530799269676208
vt 0.97560298442840576 0.26223999261856079
vt 0.59999501705169678 0.53675800561904907
vt 0.97990602254867554 0.41004097461700439
vt 0.026078000664711 0.72135800123214722
vt 0.14247499406337738 0.81836399435997009
vt 0.020602000877261162 0.58843600749969482
vt 0.38174301385879517 0.79701000452041626
vt 0.62132900953292847 0.77539099752902985
vt 0.3978550136089325 0.98434199951589108
vt 0.3432610034942627 0.98633399978280067
vt 0.63901400566101074 0.97525699995458126
vt 0.5976250171661377 0.97681500017642975
vt 0.029712999239563942 0.82878899574279785
vt 0.15737800300121307 0.99351899977773428
vt 0.033674001693725586 0.94959200173616409
vt 0.089500002562999725 0.99624600005336106
vt 0.032673001289367676 0.9184269979596138
vt 0.035401001572608948 0.99824400001671165
vt 0.675881028175354 0.97392299957573414
vt 0.86099797487258911 0.75398300588130951
vt 0.99471598863601685 0.85900700092315674
vt 0.99493998289108276 0.86578099429607391
vt 0.99085801839828491 0.74239298701286316
vt 0.98629897832870483 0.60520398616790771
vt 0.98274397850036621 0.50252801179885864
vt 0.99828797578811646 0.9618929997086525
vt 0.87954097986221313 0.96635099872946739
vn 0.097386002540588379 0.99481600522995 -0.029269000515341759
vn 0.086195997893810272 0.994966983795166 -0.051088999956846237
vn 0.10829800367355347 0.99343001842498779 -0.037004999816417694
vn 0.13074100017547607 0.99114501476287842 -0.023199999704957008
vn 0.1340160071849823 0.9906119704246521 -0.026983000338077545
vn 0.13158799707889557 0.99058002233505249 -0.037905000150203705
vn 0.1318189948797226 0.99087899923324585 -0.027969999238848686
vn 0.13095000386238098 0.99092698097229 -0.030246000736951828
vn 0.13150100409984589 0.99065202474594116 -0.036286000162363052
vn 0.027140000835061073 0.99926197528839111 -0.027172999456524849
vn 0.044705998152494431 0.99899798631668091 -0.0022319999989122152
vn 0.056620001792907715 0.997838020324707 -0.033369001001119614
vn 0.029872000217437744 0.9995499849319458 -0.0027689998969435692
vn 0.058086998760700226 0.99671000242233276 -0.056533001363277435
vn 0.025647999718785286 0.99816298484802246 -0.054889000952243805
vn 0.025647999718785286 0.99816298484802246 -0.054889999330043793
vn 0.13226699829101563 0.99097299575805664 -0.021879000589251518
vn 0.12332999706268311 0.991457998752594 -0.042445998638868332
vn 0.13184800744056702 0.99053001403808594 -0.038299001753330231
vn 0.12660700082778931 0.99060302972793579 -0.051741000264883041
vn 0.1327890008687973 0.99091297388076782 -0.021400000900030136
vn 0.1327890008687973 0.99091297388076782 -0.021400999277830124
vn 0.12448500096797943 0.99075102806091309 -0.054009001702070236
vn 0.099320001900196075 0.99463999271392822 -0.028745999559760094
vn 0.03401000052690506 0.99942100048065186 0.00090500002261251211
vn 0.035872999578714371 0.999334990978241 0.0065720002166926861
vn 0.037383999675512314 0.999301016330719 -1.4999999621068128E-05
vn 0.078317001461982727 0.99689501523971558 -0.0081700002774596214
vn 0.11381900310516357 0.9928479790687561 -0.036040998995304108
vn 0.12451499700546265 0.99044102430343628 -0.059360001236200333
vn 0.11247400194406509 0.993349015712738 -0.024653999134898186
vn 0.11549700051546097 0.99149399995803833 -0.059996001422405243
vn 0.052466001361608505 0.9982609748840332 -0.026883000507950783
vn 0.068622000515460968 0.9965860247612 -0.045899998396635056
vn 0.039551001042127609 0.99920397996902466 -0.0052620000205934048
vn 0.074757002294063568 0.997044026851654 -0.017712999135255814
vn 0.10239399969577789 0.99446302652359009 -0.023646999150514603
vn 0.075175002217292786 0.99659097194671631 -0.03399299830198288
vn 0.059982001781463623 0.9972730278968811 -0.043000999838113785
vn 0.099931001663208008 0.9943230152130127 -0.036541000008583069
vn 0.0989459976553917 0.99443501234054565 -0.036187998950481415
vn 0.088389001786708832 0.99347901344299316 -0.072013996541500092
vn 0.089120000600814819 0.9930800199508667 -0.076477997004985809
vn 0.077156998217105865 0.994949996471405 -0.0642009973526001
vn 0.078548997640609741 0.99473899602890015 -0.065751999616622925
vn 0.088128998875617981 0.99317198991775513 -0.0764319971203804
vn 0.046989999711513519 0.99842697381973267 -0.03060000017285347
vn 0.1007160022854805 0.99424701929092407 -0.036458998918533325
vn 0.10235299915075302 0.99427801370620728 -0.030574999749660492
vn 0.1000330001115799 0.99431800842285156 -0.036400999873876572
vn 0.099818997085094452 0.99434798955917358 -0.036161001771688461
vn 0.10007700324058533 0.994342029094696 -0.035627000033855438
vn 0.11102599650621414 0.99350297451019287 -0.024984000250697136
vn 0.11335200071334839 0.99275499582290649 -0.039864998310804367
vn 0.099740996956825256 0.994359016418457 -0.036074001342058182
vn 0.10038299858570099 0.99429398775100708 -0.03610600158572197
f 1/1/1 2/2/2 3/3/3
f 4/4/4 5/5/5 6/6/6
f 7/7/7 8/8/8 9/9/9
f 10/10/10 11/11/11 12/12/12
f 10/10/10 13/13/13 11/11/11
f 14/14/14 10/10/10 12/12/12
f 14/14/14 15/15/15 10/10/10
f 15/15/15 14/14/14 16/16/16
f 3/3/3 14/14/14 12/12/12
f 3/3/3 2/2/2 14/14/14
f 17/17/17 4/4/4 6/6/6
f 3/3/3 18/18/18 9/9/9
f 8/8/8 3/3/3 9/9/9
f 8/8/8 1/1/1 3/3/3
f 19/19/19 6/6/6 20/20/20
f 21/21/21 17/17/17 22/22/22
f 22/22/22 6/6/6 19/19/19
f 22/22/22 17/17/17 6/6/6
f 6/6/6 7/7/7 9/9/9
f 6/6/6 5/5/5 7/7/7
f 9/9/9 23/23/23 6/6/6
f 12/12/12 24/24/24 3/3/3
f 25/25/25 11/11/11 13/13/13
f 24/24/24 12/12/12 11/11/11
f 11/11/11 26/26/26 27/27/27
f 11/11/11 25/25/25 26/26/26
f 18/18/18 24/24/24 28/28/28
f 18/18/18 23/23/23 9/9/9
f 18/18/18 29/29/29 23/23/23
f 20/20/20 23/23/23 30/30/30
f 20/20/20 6/6/6 23/23/23
f 18/18/18 28/28/28 31/31/31
f 3/3/3 24/24/24 18/18/18
f 24/24/24 11/11/11 28/28/28
f 30/30/30 23/23/23 32/32/32
f 27/27/27 33/33/33 34/34/34
f 27/27/27 35/35/35 33/33/33
f 11/11/11 27/27/27 28/28/28
f 28/28/28 27/27/27 36/36/36
f 26/26/26 35/35/35 27/27/27
f 31/31/31 29/29/29 18/18/18
f 29/29/29 31/31/31 37/37/37
f 36/36/36 31/31/31 28/28/28
f 38/38/38 34/34/34 39/39/39
f 38/38/38 36/36/36 34/34/34
f 27/27/27 34/34/34 36/36/36
f 36/36/36 37/37/37 31/31/31
f 40/40/40 36/36/36 41/41/41
f 40/40/40 37/37/37 36/36/36
f 42/42/42 34/34/34 33/33/33
f 43/43/43 44/44/44 45/45/45
f 43/43/43 46/46/46 44/44/44
f 46/46/46 34/34/34 42/42/42
f 46/46/46 43/43/43 34/34/34
f 43/43/43 39/39/39 34/34/34
f 38/38/38 41/41/41 36/36/36
f 47/47/47 45/45/45 44/44/44
f 37/37/37 48/48/48 49/49/49
f 37/37/37 40/40/40 48/48/48
f 29/29/29 37/37/37 49/49/49
f 50/50/50 49/49/49 51/51/51
f 50/50/50 52/52/52 49/49/49
f 53/53/53 49/49/49 52/52/52
f 49/49/49 54/54/54 29/29/29
f 49/49/49 53/53/53 54/54/54
f 55/55/55 49/49/49 56/56/56
f 55/55/55 51/51/51 49/49/49
f 56/56/56 49/49/49 48/48/48
f 32/32/32 29/29/29 54/54/54
f 32/32/32 23/23/23 29/29/29
