mtllib m2111322.mtl
usemtl material0
v -116.39793395996094 4.9777097702026367 -233.82751512527466
v -108.83779096603394 5.7380151748657227 -242.22898888587952
v -116.81832885742188 5.13047981262207 -241.80557298660278
v -128 4.5982670783996582 -241.21336400508881
v -124.79765319824219 4.7729229927062988 -241.38304102420807
v -128 4.8047361373901367 -253.59979152679443
v -125.56826782226563 4.9752230644226074 -256
v -128 4.8447442054748535 -256
v -122.39748382568359 5.11459493637085 -256
v -112.90452599525452 5.2647018432617188 -256
v -128 4.2295279502868652 -237.82473802566528
v -124.37974452972412 4.1089320182800293 -233.40319776535034
v -128 3.8280010223388672 -233.21110486984253
v -128 3.8490569591522217 -229.05963134765625
v -123.95824432373047 4.1822128295898438 -225.42593383789063
v -128 3.5374710559844971 -225.21040344238281
v -125.24136352539063 4.0664958953857422 -224
v -128 3.5898098945617676 -224.41177368164063
v -128 3.6167969703674316 -224
v -123.88292694091797 4.1909441947937012 -224
v -117.64144086837769 4.860908031463623 -224
v -115.9764940738678 5.0387849807739258 -225.85020446777344
v -115.87896704673767 5.0101408958435059 -224
v -107.99491119384766 5.8596940040588379 -226.27436828613281
v -110.04161095619202 5.6040501594543457 -224
v -108.41660308837891 5.7468628883361816 -234.25149488449097
v -109.56588006019592 5.5209360122680664 -256
v -106.10795593261719 5.627680778503418 -256
v -100.85903930664063 5.9783492088317871 -242.65110802650452
v -97.181465148925781 5.3141231536865234 -256
v -100.43650054931641 6.2655129432678223 -234.67459106445313
v -107.87469482421875 5.8897700309753418 -224
v -100.01555633544922 6.2245378494262695 -226.69691467285156
v -102.44213104248047 6.141265869140625 -224
v -96 6.04412317276001 -242.90791296958923
v -96 5.526270866394043 -252.44856262207031
v -96 5.3335041999816895 -256
v -96 6.1603069305419922 -239.60585001111031
v -96 6.3850221633911133 -234.90925598144531
v -96 6.526522159576416 -230.6851806640625
v -99.8730239868164 6.2562398910522461 -224
v -96 6.4938621520996094 -226.90983581542969
v -96 6.5127458572387695 -224.60333347320557
v -96 6.5176849365234375 -224
vt 0.31007501482963562 0.37326997518539429
vt 0.57025402784347534 0.59265899658203125
vt 0.5492669939994812 0.35277897119522095
vt 0.52077198028564453 0.01719200611114502
vt 0.52897399663925171 0.11333101987838745
vt 0.89170098304748535 0.0045660138130187988
vt 0.96634501218795776 0.075219988822937012
vt 0.9637799859046936 0.0021010041236877441
vt 0.96967297792434692 0.17051702737808228
vt 0.97954297065734863 0.45558702945709229
vt 0.41839900612831116 0.019923985004425049
vt 0.28884899616241455 0.13264602422714233
vt 0.27931800484657288 0.023817002773284912
vt 0.15457999706268311 0.028277993202209473
vt 0.049779001623392105 0.1538969874382019
vt 0.038594998419284821 0.031270027160644531
vt 0.0054040001705288887 0.11695897579193115
vt 0.014577999711036682 0.032441973686218262
vt 0.0021949999500066042 0.03304600715637207
vt 0.007044999860227108 0.15768098831176758
vt 0.013679999858140945 0.34615999460220337
vt 0.07099200040102005 0.3943520188331604
vt 0.0155239999294281 0.39910399913787842
vt 0.09207800030708313 0.63482901453971863
vt 0.0216279998421669 0.57528001070022583
vt 0.33115899562835693 0.6135840117931366
vt 0.98300397396087646 0.55612799525260925
vt 0.986549973487854 0.66005998849868774
vt 0.5912100076675415 0.83190000057220459
vt 0.9963880181312561 0.92823199927806854
vt 0.35202598571777344 0.85327300429344177
vt 0.023910000920295715 0.6408349871635437
vt 0.11304999887943268 0.87422899901866913
vt 0.029549999162554741 0.8041280061006546
vt 0.60413402318954468 0.97752900049090385
vt 0.89101701974868774 0.96744100004434586
vt 0.99780499935150146 0.96364099904894829
vt 0.50493097305297852 0.98112400062382221
vt 0.36375901103019714 0.98628100007772446
vt 0.237062007188797 0.99091500043869019
vt 0.032218001782894135 0.8813449963927269
vt 0.12369900196790695 0.99484300008043647
vt 0.054444998502731323 0.9973210000898689
vt 0.036315999925136566 0.99789900006726384
vn -0.098947003483772278 0.99505901336669922 0.0082409996539354324
vn -0.05568699911236763 0.99844402074813843 -0.0029649999924004078
vn -0.0626629963517189 0.99781602621078491 0.02087399922311306
vn -0.050964001566171646 0.99664497375488281 0.064043998718261719
vn -0.049536999315023422 0.99732297658920288 0.0537789985537529
vn -0.053571999073028564 0.99842500686645508 0.016643000766634941
vn -0.048900000751018524 0.99866902828216553 0.01640000008046627
vn -0.053571999073028564 0.99842500686645508 0.016643000766634941
vn -0.033209998160600662 0.99937701225280762 0.01193500030785799
vn -0.051387999206781387 0.99866801500320435 -0.0047260001301765442
vn -0.066936999559402466 0.99355399608612061 0.091485999524593353
vn -0.083091996610164642 0.99598598480224609 0.033280998468399048
vn -0.0752440020442009 0.99639701843261719 0.039117999374866486
vn -0.098045997321605682 0.9950219988822937 0.017828000709414482
vn -0.11397500336170197 0.9934840202331543 0.00032699998700991273
vn -0.157260000705719 0.98754400014877319 0.0051239999011158943
vn -0.1422169953584671 0.98868399858474731 -0.047740001231431961
vn -0.16055600345134735 0.98491400480270386 -0.064548000693321228
vn -0.16055600345134735 0.98491400480270386 -0.064548999071121216
vn -0.099243000149726868 0.99506300687789917 -0.00085100001888349652
vn -0.10078699886798859 0.99489599466323853 0.0049530002288520336
vn -0.1007390022277832 0.99489599466323853 0.0057330001145601273
vn -0.093052998185157776 0.99545401334762573 0.020315999165177345
vn -0.080150000751018524 0.9967769980430603 -0.0034459999296814203
vn -0.10905600339174271 0.9939429759979248 0.01358299981802702
vn -0.077243998646736145 0.996986985206604 -0.0070659997873008251
vn -0.054476998746395111 0.9984319806098938 -0.01285799965262413
vn -0.0057399999350309372 0.99969500303268433 -0.024003999307751656
vn -0.02174299955368042 0.99929898977279663 -0.030479000881314278
vn 0.00494399992749095 0.99881899356842041 -0.048337999731302261
vn -0.047974999994039536 0.99860697984695435 -0.021957000717520714
vn -0.087114997208118439 0.99616098403930664 -0.0085680000483989716
vn -0.056141998618841171 0.99842298030853271 -0.000522000016644597
vn -0.04583200067281723 0.998894989490509 -0.010394999757409096
vn -0.015899000689387321 0.99886101484298706 -0.044992998242378235
vn -0.016378000378608704 0.99839597940444946 -0.054191000759601593
vn -0.016379000619053841 0.99839597940444946 -0.054191000759601593
vn -0.018659999594092369 0.99910002946853638 -0.038102999329566956
vn -0.029064999893307686 0.99874198436737061 -0.040855001658201218
vn -0.056398000568151474 0.99840497970581055 -0.0026030000299215317
vn -0.056414999067783356 0.99836897850036621 -0.0087540000677108765
vn -0.066892996430397034 0.997759997844696 0.000514000013936311
vn -0.06734900176525116 0.99769598245620728 -0.0081679997965693474
vn -0.06734900176525116 0.99769598245620728 -0.0081679997965693474
f 1/1/1 2/2/2 3/3/3
f 4/4/4 5/5/5 6/6/6
f 6/6/6 7/7/7 8/8/8
f 6/6/6 5/5/5 7/7/7
f 9/9/9 3/3/3 10/10/10
f 11/11/11 5/5/5 4/4/4
f 3/3/3 5/5/5 12/12/12
f 7/7/7 3/3/3 9/9/9
f 7/7/7 5/5/5 3/3/3
f 3/3/3 12/12/12 1/1/1
f 13/13/13 5/5/5 11/11/11
f 13/13/13 12/12/12 5/5/5
f 12/12/12 14/14/14 15/15/15
f 12/12/12 13/13/13 14/14/14
f 16/16/16 17/17/17 15/15/15
f 16/16/16 18/18/18 17/17/17
f 18/18/18 19/19/19 17/17/17
f 20/20/20 15/15/15 17/17/17
f 15/15/15 21/21/21 22/22/22
f 15/15/15 20/20/20 21/21/21
f 22/22/22 1/1/1 15/15/15
f 23/23/23 24/24/24 22/22/22
f 23/23/23 25/25/25 24/24/24
f 23/23/23 22/22/22 21/21/21
f 14/14/14 16/16/16 15/15/15
f 15/15/15 1/1/1 12/12/12
f 1/1/1 22/22/22 26/26/26
f 10/10/10 2/2/2 27/27/27
f 10/10/10 3/3/3 2/2/2
f 28/28/28 29/29/29 30/30/30
f 29/29/29 2/2/2 26/26/26
f 27/27/27 29/29/29 28/28/28
f 27/27/27 2/2/2 29/29/29
f 26/26/26 24/24/24 31/31/31
f 22/22/22 24/24/24 26/26/26
f 1/1/1 26/26/26 2/2/2
f 32/32/32 33/33/33 24/24/24
f 32/32/32 34/34/34 33/33/33
f 26/26/26 31/31/31 29/29/29
f 25/25/25 32/32/32 24/24/24
f 35/35/35 30/30/30 29/29/29
f 35/35/35 36/36/36 30/30/30
f 36/36/36 37/37/37 30/30/30
f 31/31/31 35/35/35 29/29/29
f 31/31/31 38/38/38 35/35/35
f 39/39/39 38/38/38 31/31/31
f 39/39/39 31/31/31 40/40/40
f 41/41/41 33/33/33 34/34/34
f 42/42/42 33/33/33 43/43/43
f 43/43/43 41/41/41 44/44/44
f 43/43/43 33/33/33 41/41/41
f 40/40/40 33/33/33 42/42/42
f 40/40/40 31/31/31 33/33/33
f 33/33/33 31/31/31 24/24/24
