mtllib m2111332.mtl
usemtl material0
v -64 6.1873102188110352 -241.39057898521423
v -60.970352172851562 6.1416730880737305 -244.75805711746216
v -64 6.2039799690246582 -244.59826707839966
v -64 6.512822151184082 -228.59974670410156
v -64 6.6229591369628906 -224.49851989746094
v -60.125853538513184 6.5939140319824219 -228.80459594726563
v -64 6.4637589454650879 -232.9444432258606
v -60.547481536865234 6.4947528839111328 -236.7817690372467
v -64 6.3912210464477539 -236.59912109375
v -57.250770568847656 5.3471560478210449 -256
v -52.991664886474609 6.3682231903076172 -245.18013000488281
v -50.010493993759155 5.9152860641479492 -256
v -61.568576812744141 5.205939769744873 -256
v -64 5.5895237922668457 -251.905029296875
v -64 5.2451601028442383 -256
v -52.569243907928467 6.6295080184936523 -237.2035219669342
v -56.849945068359375 6.6326098442077637 -224
v -52.149372100830078 6.36978816986084 -229.22508239746094
v -59.871608734130859 6.7133288383483887 -224
v -64 6.6348481178283691 -224
v -45.013041973114014 6.5805950164794922 -245.60214185714722
v -44.591945886611938 6.5718650817871094 -237.62458801269531
v -51.87285590171814 6.5038127899169922 -224
v -40.959938049316406 6.0665311813354492 -256
v -37.0353889465332 6.5956850051879883 -246.02348279953003
v -34.285404205322266 6.4783229827880859 -256
v -45.564677953720093 6.0453619956970215 -256
v -44.172786951065063 6.1671280860900879 -229.64564514160156
v -36.6147985458374 6.4829540252685547 -238.0455629825592
v -32 6.7648148536682129 -246.2899317741394
v -32 6.7154111862182617 -243.17434692382813
v -32 6.5803518295288086 -238.28956604003906
v -36.195232391357422 6.1621990203857422 -230.06690979003906
v -32 6.4336791038513184 -234.72927904129028
v -43.874954223632812 6.1263699531555176 -224
v -46.343315005302429 6.1898460388183594 -224
v -32 6.3128628730773926 -230.2889404296875
v -32 6.3929538726806641 -227.00865173339844
v -32 6.4103918075561523 -226.29446411132813
v -32 6.646751880645752 -251.8240966796875
v -32 6.55766487121582 -256
v -35.87457275390625 6.2372279167175293 -224
v -37.897071838378906 6.237156867980957 -224
v -32 6.4326510429382324 -224
vt 0.52540701627731323 0.017323970794677734
vt 0.62974399328231812 0.10486698150634766
vt 0.62179297208786011 0.013979017734527588
vt 0.1409049928188324 0.03057098388671875
vt 0.017626000568270683 0.034808993339538574
vt 0.15100200474262238 0.14687597751617432
vt 0.27146598696708679 0.026127994060516357
vt 0.39028599858283997 0.12597101926803589
vt 0.38130500912666321 0.022364974021911621
vt 0.97207897901535034 0.20551097393035889
vt 0.65051501989364624 0.34428697824478149
vt 0.97880202531814575 0.42349702119827271
vt 0.96813398599624634 0.075681984424591064
vt 0.84213298559188843 0.0066949725151062012
vt 0.96561998128890991 0.0026130080223083496
vt 0.41114699840545654 0.36530697345733643
vt 0.00989300012588501 0.25011402368545532
vt 0.1717199981212616 0.3862299919128418
vt 0.0068330001085996628 0.15928399562835693
vt 0.0026420000940561295 0.035318970680236816
vt 0.67131298780441284 0.58369201421737671
vt 0.43203601241111755 0.60458299517631531
vt 0.014930999837815762 0.39972102642059326
vt 0.98815298080444336 0.69519901275634766
vt 0.69221198558807373 0.82297199964523315
vt 0.99467897415161133 0.89601399749517441
vt 0.98363500833511353 0.55682501196861267
vt 0.19242000579833984 0.62557101249694824
vt 0.45290100574493408 0.84386500716209412
vt 0.70550602674484253 0.97407899983227253
vt 0.61187702417373657 0.97730099968612194
vt 0.465039998292923 0.98230700008571148
vt 0.2134149968624115 0.86484000086784363
vt 0.35808899998664856 0.98606699984520674
vt 0.023073000833392143 0.64025399088859558
vt 0.020677000284194946 0.56614100933074951
vt 0.22461700439453125 0.99073399975895882
vt 0.12602899968624115 0.9943639999255538
vt 0.104373998939991 0.99499400006607175
vt 0.87184697389602661 0.96867600083351135
vt 0.99735802412033081 0.96447699889540672
vt 0.031438000500202179 0.88081400096416473
vt 0.029170000925660133 0.819912001490593
vt 0.035427000373601913 0.99738699989393353
vn -0.019832000136375427 0.99931097030639648 -0.031385000795125961
vn -0.01320900022983551 0.99830901622772217 -0.056609001010656357
vn 0.018552999943494797 0.99911201000213623 -0.0378200002014637
vn -0.021943999454379082 0.99957197904586792 -0.019324000924825668
vn -0.01977900043129921 0.99950301647186279 -0.024537000805139542
vn -0.0023449999280273914 0.999908983707428 -0.013291000388562679
vn -0.02373800054192543 0.99962997436523438 -0.013283000327646732
vn -0.025135999545454979 0.99932801723480225 -0.026683000847697258
vn -0.03158700093626976 0.99902600049972534 -0.030794000253081322
vn -0.049860000610351562 0.99598401784896851 -0.07436399906873703
vn -0.033500000834465027 0.99820601940155029 -0.0496239997446537
vn -0.049524001777172089 0.99723601341247559 -0.055390998721122742
vn -0.0074249999597668648 0.9965590238571167 -0.08255399763584137
vn 0.016071999445557594 0.99635398387908936 -0.083788000047206879
vn 0.016071999445557594 0.99635398387908936 -0.083788000047206879
vn -0.0035089999437332153 0.99999302625656128 -0.0013040000339969993
vn 0.026472000405192375 0.99930000305175781 -0.026450000703334808
vn 0.028922000899910927 0.99954599142074585 0.008400999940931797
vn 0.0046160002239048481 0.99967402219772339 -0.025090999901294708
vn -0.019000999629497528 0.99953502416610718 -0.023837000131607056
vn -0.011531000025570393 0.9995189905166626 -0.02877499908208847
vn 0.011122999712824822 0.9996340274810791 0.024658000096678734
vn 0.041774999350309372 0.99873900413513184 -0.0278290007263422
vn -0.026266999542713165 0.99874502420425415 -0.042640000581741333
vn -0.021061999723315239 0.99971097707748413 -0.011556999757885933
vn -0.045834001153707504 0.99865198135375977 -0.024382000789046288
vn -0.017323000356554985 0.99857497215271 -0.050482999533414841
vn 0.013159000314772129 0.99961400032043457 0.024485999718308449
vn -0.0062469998374581337 0.99952000379562378 0.030355999246239662
vn -0.033746998757123947 0.99942499399185181 -0.0033589999657124281
vn -0.029674999415874481 0.99938702583312988 0.018595000728964806
vn -0.019283000379800797 0.9992300271987915 0.034164000302553177
vn -0.016943000257015228 0.99979400634765625 0.011200999841094017
vn -0.022529000416398048 0.99902802705764771 0.037898998707532883
vn 0.0028470000252127647 0.99997097253799438 0.0070690000429749489
vn 0.0329350009560585 0.99945497512817383 -0.0021770000457763672
vn -0.0357699990272522 0.99935698509216309 0.0022640000097453594
vn -0.037168998271226883 0.99901098012924194 -0.024391999468207359
vn -0.046849999576807022 0.99880897998809814 -0.013612000271677971
vn -0.03468799963593483 0.99917101860046387 -0.021315999329090118
vn -0.03468799963593483 0.99917101860046387 -0.021315999329090118
vn -0.026061000302433968 0.99959999322891235 -0.010985000059008598
vn -0.0043480000458657742 0.9999619722366333 -0.0075699998997151852
vn -0.050370998680591583 0.99868398904800415 -0.0096890004351735115
f 1/1/1 2/2/2 3/3/3
f 4/4/4 5/5/5 6/6/6
f 7/7/7 8/8/8 9/9/9
f 10/10/10 11/11/11 12/12/12
f 10/10/10 2/2/2 11/11/11
f 10/10/10 13/13/13 2/2/2
f 3/3/3 2/2/2 14/14/14
f 14/14/14 13/13/13 15/15/15
f 14/14/14 2/2/2 13/13/13
f 4/4/4 8/8/8 7/7/7
f 4/4/4 6/6/6 8/8/8
f 8/8/8 6/6/6 16/16/16
f 6/6/6 17/17/17 18/18/18
f 6/6/6 19/19/19 17/17/17
f 20/20/20 6/6/6 5/5/5
f 20/20/20 19/19/19 6/6/6
f 16/16/16 11/11/11 8/8/8
f 16/16/16 21/21/21 11/11/11
f 18/18/18 22/22/22 16/16/16
f 18/18/18 16/16/16 6/6/6
f 2/2/2 8/8/8 11/11/11
f 17/17/17 23/23/23 18/18/18
f 9/9/9 2/2/2 1/1/1
f 9/9/9 8/8/8 2/2/2
f 24/24/24 25/25/25 26/26/26
f 24/24/24 21/21/21 25/25/25
f 24/24/24 27/27/27 21/21/21
f 21/21/21 12/12/12 11/11/11
f 21/21/21 27/27/27 12/12/12
f 28/28/28 22/22/22 18/18/18
f 22/22/22 28/28/28 29/29/29
f 29/29/29 25/25/25 22/22/22
f 30/30/30 29/29/29 31/31/31
f 30/30/30 25/25/25 29/29/29
f 32/32/32 33/33/33 34/34/34
f 32/32/32 29/29/29 33/33/33
f 33/33/33 29/29/29 28/28/28
f 21/21/21 22/22/22 25/25/25
f 18/18/18 35/35/35 28/28/28
f 18/18/18 36/36/36 35/35/35
f 22/22/22 21/21/21 16/16/16
f 32/32/32 31/31/31 29/29/29
f 37/37/37 34/34/34 33/33/33
f 37/37/37 33/33/33 38/38/38
f 38/38/38 33/33/33 39/39/39
f 30/30/30 26/26/26 25/25/25
f 30/30/30 40/40/40 26/26/26
f 40/40/40 41/41/41 26/26/26
f 28/28/28 42/42/42 33/33/33
f 28/28/28 43/43/43 42/42/42
f 36/36/36 18/18/18 23/23/23
f 44/44/44 33/33/33 42/42/42
f 44/44/44 39/39/39 33/33/33
f 43/43/43 28/28/28 35/35/35
