mtllib m2111111202.mtl
usemtl material0
v -32 2.1033151149749756 -24
v -32 2.1197669506073 -23.597607016563416
v -31.638025045394897 2.0866520404815674 -24
v -30.688279986381531 2.0456230640411377 -24
v -31.337411999702454 2.0746700763702393 -24
v -31.301285028457642 2.1048750877380371 -23.318542003631592
v -30.337646007537842 2.0335400104522705 -24
v -30.304271996021271 2.0675780773162842 -23.371073007583618
v -32 2.1344349384307861 -23.281739950180054
v -32 2.1430480480194092 -22.997642993927002
v -31.248504996299744 2.1329538822174072 -22.321451008319855
v -29.337855994701385 1.9970860481262207 -24
v -29.307249009609222 2.0322329998016357 -23.423611044883728
v -29.738526999950409 2.0099658966064453 -24
v -28.788764953613281 1.9783610105514526 -24
v -29.254414021968842 2.0715429782867432 -22.426557987928391
v -28 1.951854944229126 -24
v -28.310227990150452 1.996399998664856 -23.476147055625916
v -28 1.9633640050888062 -23.821023941040039
v -28.338049054145813 1.9636869430541992 -24
v -28.257323980331421 2.0498700141906738 -22.479140996932983
v -30.251475989818573 2.0985870361328125 -22.373991012573242
v -28 1.986009955406189 -23.492494940757751
v -28 2.00593900680542 -23.197111010551453
v -32 2.1595940589904785 -22.28185099363327
v -32 2.1849861145019531 -21.4860759973526
v -32 2.1899869441986084 -21.281979024410248
v -31.19575297832489 2.1551740169525146 -21.324337005615234
v -30.198725000023842 2.1208069324493408 -21.3768789768219
v -29.201653003692627 2.0957159996032715 -21.429450988769531
v -32 2.2521500587463379 -20.282207012176514
v -31.142902016639709 2.1974129676818848 -20.327293038368225
v -32 2.2453949451446533 -20.430256009101868
v -30.145946994423866 2.1483969688415527 -20.379783987998962
v -29.14887398481369 2.1233069896698 -20.432358026504517
v -31.125496029853821 2.2226619720458984 -20
v -32 2.2628400325775146 -20.149103045463562
v -31.83425498008728 2.2649300098419189 -20
v -32 2.255781888961792 -20.236974954605103
v -28 2.044403076171875 -22.4927119910717
v -28 2.0562269687652588 -22.247681006789207
v -28.15172004699707 2.1148169040679932 -20.484987020492554
v -28.204509973526 2.084784984588623 -21.48207300901413
v -28 2.0829439163208008 -21.492866992950439
v -28 2.0894570350646973 -21.298115015029907
v -32 2.277501106262207 -20
v -29.537802010774612 2.1598930358886719 -20
v -30.125773996114731 2.1726720333099365 -20
v -29.125935018062592 2.1458590030670166 -20
v -30.487558007240295 2.1939690113067627 -20
v -28.588014960289 2.1427679061889648 -20
v -28.126013040542603 2.1351261138916016 -20
v -28 2.1138970851898193 -20.492995977401733
v -28 2.1202640533447266 -20.341693997383118
v -28 2.13464093208313 -20
vt 0 0
vt 0.10059799998998642 0
vt 0 0.090493977069854736
vt 0 0.32792997360229492
vt 0 0.16564697027206421
vt 0.17036400735378265 0.1746789813041687
vt 0 0.41558802127838135
vt 0.15723200142383575 0.42393201589584351
vt 0.17956499755382538 0
vt 0.25058901309967041 0
vt 0.419636994600296 0.18787401914596558
vt 0 0.66553598642349243
vt 0.14409700036048889 0.67318800091743469
vt 0 0.56536799669265747
vt 0 0.80280900001525879
vt 0.39336100220680237 0.686396986246109
vt 0 1
vt 0.13096299767494202 0.92244300246238708
vt 0.044743999838829041 1
vt 0 0.91548799723386765
vt 0.38021498918533325 0.93566899746656418
vt 0.40650200843811035 0.43713098764419556
vt 0.12687599658966065 1
vt 0.20072199404239655 1
vt 0.42953699827194214 0
vt 0.62848097085952759 0
vt 0.67950499057769775 0
vt 0.66891598701477051 0.20106202363967896
vt 0.655780017375946 0.45031899213790894
vt 0.64263701438903809 0.69958698749542236
vt 0.92944800853729248 0
vt 0.91817700862884521 0.21427398920059204
vt 0.89243602752685547 0
vt 0.905053973197937 0.46351301670074463
vt 0.891910970211029 0.71278101205825806
vt 1 0.21862602233886719
vt 0.962723970413208 0
vt 1 0.04143601655960083
vt 0.94075602293014526 0
vt 0.37682199478149414 1
vt 0.43808001279830933 1
vt 0.87875300645828247 0.96206999942660332
vt 0.6294819712638855 0.94887299835681915
vt 0.626783013343811 1
vt 0.67547100782394409 1
vt 1 0
vt 1 0.61555001139640808
vt 1 0.4685559868812561
vt 1 0.71851599216461182
vt 1 0.37810999155044556
vt 1 0.85299600660800934
vt 1 0.96849700063467026
vt 0.87675100564956665 1
vt 0.91457700729370117 1
vt 1 1
vn 0.04594700038433075 0.99810999631881714 -0.040807999670505524
vn 0.043237999081611633 0.99812799692153931 -0.043246001005172729
vn 0.040727000683546066 0.99813401699066162 -0.045504000037908554
vn 0.041053999215364456 0.99791300296783447 -0.049837999045848846
vn 0.043113000690937042 0.99798697233200073 -0.046521000564098358
vn 0.037184998393058777 0.9985470175743103 -0.039002001285552979
vn 0.035861000418663025 0.99779200553894043 -0.055904000997543335
vn 0.032531999051570892 0.99848401546478271 -0.044408001005649567
vn 0.0400019995868206 0.99830102920532227 -0.042373001575469971
vn 0.038263998925685883 0.998885989189148 -0.02761399932205677
vn 0.03564399853348732 0.99901098012924194 -0.026597000658512115
vn 0.03260599821805954 0.99750900268554688 -0.062558002769947052
vn 0.029913999140262604 0.99823498725891113 -0.051307998597621918
vn 0.036375001072883606 0.99761497974395752 -0.058664999902248383
vn 0.032917000353336334 0.99743199348449707 -0.063614003360271454
vn 0.024872999638319016 0.99914699792861938 -0.03297799825668335
vn 0.034908000379800797 0.99733102321624756 -0.064134001731872559
vn 0.031021999195218086 0.99773198366165161 -0.059735000133514404
vn 0.031585998833179474 0.99724501371383667 -0.067114003002643585
vn 0.033516999334096909 0.9973829984664917 -0.064064003527164459
vn 0.019581999629735947 0.99898397922515869 -0.040591999888420105
vn 0.029455000534653664 0.99917197227478027 -0.02806599996984005
vn 0.029812999069690704 0.99723601341247559 -0.068049997091293335
vn 0.020198000594973564 0.99819397926330566 -0.056579999625682831
vn 0.033955000340938568 0.99903899431228638 -0.027718000113964081
vn 0.035409998148679733 0.99891102313995361 -0.030363999307155609
vn 0.041035998612642288 0.99830198287963867 -0.041345000267028809
vn 0.041691999882459641 0.99834698438644409 -0.039560999721288681
vn 0.031019000336527824 0.99909597635269165 -0.029077999293804169
vn 0.017020000144839287 0.99945700168609619 -0.028208000585436821
vn 0.061209999024868011 0.99702697992324829 -0.046808000653982162
vn 0.047175001353025436 0.99767798185348511 -0.049120001494884491
vn 0.042934998869895935 0.99715197086334229 -0.061999998986721039
vn 0.034841999411582947 0.99841898679733276 -0.044103998690843582
vn 0.017099000513553619 0.99916797876358032 -0.03702399879693985
vn 0.054834000766277313 0.99531000852584839 -0.079699002206325531
vn 0.061246998608112335 0.99474602937698364 -0.082029998302459717
vn 0.062369000166654587 0.99457299709320068 -0.083270996809005737
vn 0.059342000633478165 0.99503397941589355 -0.079916998744010925
vn 0.018423000350594521 0.99843102693557739 -0.052882999181747437
vn 0.0087069999426603317 0.99927300214767456 -0.037124000489711761
vn 0.0079140001907944679 0.99938297271728516 -0.03422199934720993
vn 0.0085150003433227539 0.999413013458252 -0.033197999000549316
vn 0.0071510002017021179 0.9993630051612854 -0.03497299924492836
vn 0.0047679999843239784 0.99951797723770142 -0.030686000362038612
vn 0.075268000364303589 0.992376983165741 -0.0975790023803711
vn 0.024383999407291412 0.997747004032135 -0.062495000660419464
vn 0.035778000950813293 0.99720197916030884 -0.065640002489089966
vn 0.018001999706029892 0.99843001365661621 -0.053034000098705292
vn 0.047483000904321671 0.99591600894927979 -0.07679399847984314
vn 0.00837200041860342 0.99871301651000977 -0.0500280000269413
vn 0.012272999621927738 0.99902200698852539 -0.04248499870300293
vn 0.0043600001372396946 0.99947202205657959 -0.032193999737501144
vn 0.0038399999029934406 0.99910902976989746 -0.042040999978780746
vn 0.0038469999562948942 0.99910902976989746 -0.042038001120090485
f 1/1/1 2/2/2 3/3/3
f 4/4/4 5/5/5 6/6/6
f 7/7/7 6/6/6 8/8/8
f 7/7/7 4/4/4 6/6/6
f 9/9/9 3/3/3 2/2/2
f 9/9/9 6/6/6 3/3/3
f 6/6/6 5/5/5 3/3/3
f 6/6/6 10/10/10 11/11/11
f 6/6/6 9/9/9 10/10/10
f 12/12/12 8/8/8 13/13/13
f 12/12/12 14/14/14 8/8/8
f 7/7/7 8/8/8 14/14/14
f 12/12/12 13/13/13 15/15/15
f 13/13/13 8/8/8 16/16/16
f 17/17/17 18/18/18 19/19/19
f 17/17/17 20/20/20 18/18/18
f 18/18/18 15/15/15 13/13/13
f 18/18/18 20/20/20 15/15/15
f 18/18/18 13/13/13 21/21/21
f 8/8/8 6/6/6 22/22/22
f 23/23/23 19/19/19 18/18/18
f 23/23/23 18/18/18 24/24/24
f 25/25/25 26/26/26 11/11/11
f 11/11/11 27/27/27 28/28/28
f 11/11/11 26/26/26 27/27/27
f 6/6/6 11/11/11 22/22/22
f 8/8/8 22/22/22 16/16/16
f 11/11/11 29/29/29 22/22/22
f 25/25/25 11/11/11 10/10/10
f 22/22/22 30/30/30 16/16/16
f 28/28/28 31/31/31 32/32/32
f 28/28/28 33/33/33 31/31/31
f 33/33/33 28/28/28 27/27/27
f 32/32/32 34/34/34 29/29/29
f 32/32/32 29/29/29 28/28/28
f 29/29/29 30/30/30 22/22/22
f 35/35/35 30/30/30 29/29/29
f 11/11/11 28/28/28 29/29/29
f 36/36/36 37/37/37 38/38/38
f 36/36/36 39/39/39 37/37/37
f 39/39/39 32/32/32 31/31/31
f 39/39/39 36/36/36 32/32/32
f 21/21/21 16/16/16 30/30/30
f 40/40/40 21/21/21 41/41/41
f 24/24/24 21/21/21 40/40/40
f 24/24/24 18/18/18 21/21/21
f 13/13/13 16/16/16 21/21/21
f 30/30/30 42/42/42 43/43/43
f 41/41/41 43/43/43 44/44/44
f 41/41/41 21/21/21 43/43/43
f 44/44/44 43/43/43 45/45/45
f 43/43/43 21/21/21 30/30/30
f 46/46/46 38/38/38 37/37/37
f 47/47/47 34/34/34 48/48/48
f 47/47/47 35/35/35 34/34/34
f 34/34/34 35/35/35 29/29/29
f 49/49/49 35/35/35 47/47/47
f 48/48/48 34/34/34 50/50/50
f 50/50/50 32/32/32 36/36/36
f 50/50/50 34/34/34 32/32/32
f 51/51/51 35/35/35 49/49/49
f 51/51/51 42/42/42 35/35/35
f 52/52/52 42/42/42 51/51/51
f 53/53/53 42/42/42 54/54/54
f 54/54/54 52/52/52 55/55/55
f 54/54/54 42/42/42 52/52/52
f 45/45/45 42/42/42 53/53/53
f 45/45/45 43/43/43 42/42/42
f 30/30/30 35/35/35 42/42/42
