mtllib m2111320.mtl
usemtl material0
v -128 3.6167969703674316 -224
v -128 3.8177120685577393 -220.93431091308594
v -125.24136352539063 4.0664958953857422 -224
v -128 4.5329561233520508 -209.21411097049713
v -128 4.5940690040588379 -204.04161095619202
v -123.11344146728516 4.6993179321289062 -209.47270202636719
v -128 4.7800469398498535 -201.21516418457031
v -128 5.2170867919921875 -195.59480285644531
v -122.68954467773438 5.2642331123352051 -201.49716186523438
v -128 4.3472061157226562 -212.48768615722656
v -123.536865234375 4.2310619354248047 -217.44857788085938
v -128 3.8224930763244629 -217.21156311035156
v -123.88292694091797 4.1909441947937012 -224
v -117.64144086837769 4.860908031463623 -224
v -115.87896704673767 5.0101408958435059 -224
v -115.55595397949219 4.9152741432189941 -217.87225341796875
v -110.04161095619202 5.6040501594543457 -224
v -115.13184404373169 5.5251288414001465 -209.89686596393585
v -107.5732569694519 5.9651827812194824 -218.29721069335938
v -122.26674747467041 5.6040358543396 -193.52082824707031
v -114.70893096923828 5.8878989219665527 -201.92060899734497
v -128 5.3116869926452637 -193.21711730957031
v -114.28691911697388 6.0651078224182129 -193.94371032714844
v -106.72932386398315 6.3030538558959961 -202.34333801269531
v -114.18364691734314 6.1965842247009277 -192
v -106.30796098709106 6.3489170074462891 -194.36598205566406
v -108.43651604652405 6.4209508895874023 -192
v -122.18570709228516 5.7527308464050293 -192
v -128 5.3519740104675293 -192.79209899902344
v -128 5.427055835723877 -192
v -107.15121507644653 6.1497530937194824 -210.32032799720764
v -120.57459259033203 5.805509090423584 -192
v -107.87469482421875 5.8897700309753418 -224
v -102.44213104248047 6.141265869140625 -224
v -99.1715087890625 6.5853958129882812 -210.74313402175903
v -98.750190734863281 6.6210250854492188 -202.76573181152344
v -106.18210601806641 6.5373539924621582 -192
v -99.593955993652344 6.3183078765869141 -218.7197265625
v -99.8730239868164 6.2562398910522461 -224
v -96 6.5176849365234375 -224
v -96 6.5282149314880371 -222.71391296386719
v -96 6.4269962310791016 -218.90986633300781
v -96 6.5745701789855957 -214.26820421218872
v -96 6.6056180000305176 -210.91067504882813
v -96 6.6265711784362793 -205.8224949836731
v -96 6.6924161911010742 -202.91119384765625
v -98.3268051147461 7.0819191932678223 -194.78981018066406
v -96 7.003760814666748 -197.37615966796875
v -98.179046630859375 7.1761670112609863 -192
v -100.83686828613281 7.0494298934936523 -192
v -96 7.0930519104003906 -194.9127197265625
v -96 7.13981294631958 -193.51419067382813
v -96 7.1904420852661133 -192
vt 0.99537098407745361 0.00011497735977172852
vt 0.90032202005386353 0.0011150240898132324
vt 0.99537098407745361 0.086592018604278564
vt 0.53666001558303833 0.0041859745979309082
vt 0.37661901116371155 0.005384981632232666
vt 0.54573202133178711 0.15539997816085815
vt 0.28898599743843079 0.0063459873199462891
vt 0.11458300054073334 0.0084499716758728027
vt 0.29846900701522827 0.17051601409912109
vt 0.63810098171234131 0.0032629966735839844
vt 0.79279601573944092 0.1400420069694519
vt 0.78514200448989868 0.0013949871063232422
vt 0.995468020439148 0.12879699468612671
vt 0.9959149956703186 0.3230140209197998
vt 0.99602901935577393 0.37773901224136353
vt 0.806423008441925 0.387844979763031
vt 0.99646997451782227 0.55927601456642151
vt 0.55906999111175537 0.403082013130188
vt 0.81930500268936157 0.63696599006652832
vt 0.051555000245571136 0.18524402379989624
vt 0.3124299943447113 0.41813802719116211
vt 0.041354000568389893 0.0076739788055419922
vt 0.065641000866889954 0.43249201774597168
vt 0.32627499103546143 0.66531500220298767
vt 0.005394000094383955 0.43616700172424316
vt 0.079649999737739563 0.67946100234985352
vt 0.0060700001195073128 0.61411499977111816
vt 0.0043029999360442162 0.18820697069168091
vt 0.028146000578999519 0.007799983024597168
vt 0.0035300001036375761 0.0080360174179077148
vt 0.57247698307037354 0.65073698759078979
vt 0.0046120001934468746 0.23806697130203247
vt 0.99574100971221924 0.62724700570106506
vt 0.99602198600769043 0.79550699889659882
vt 0.58596497774124146 0.89796999841928482
vt 0.33995699882507324 0.91234699636697769
vt 0.0063089998438954353 0.68395701050758362
vt 0.83284801244735718 0.88405700027942657
vt 0.99620801210403442 0.875050000846386
vt 0.99640202522277832 0.99515199987217784
vt 0.95673501491546631 0.99509900016710162
vt 0.838998019695282 0.9952890002168715
vt 0.69531601667404175 0.995775000192225
vt 0.59143197536468506 0.99608199996873736
vt 0.43488800525665283 0.99703900003805757
vt 0.34479200839996338 0.99744699988514185
vt 0.093180999159812927 0.92740999907255173
vt 0.1737390011548996 0.99883900000713766
vt 0.0068439999595284462 0.93246600031852722
vt 0.0065089999698102474 0.85014200210571289
vt 0.097474001348018646 0.99937400000635535
vt 0.05408100038766861 0.99962200000300072
vt 0.0072070001624524593 0.99988499999744818
vn -0.16055600345134735 0.98491400480270386 -0.064548000693321228
vn -0.10766900330781937 0.99405497312545776 -0.01621600054204464
vn -0.10981199890375137 0.99378597736358643 -0.018167000263929367
vn -0.035776000469923019 0.99879902601242065 -0.033482000231742859
vn -0.080215997993946075 0.99537402391433716 -0.052884001284837723
vn -0.078309997916221619 0.99550998210906982 -0.053164999932050705
vn -0.094329997897148132 0.99297398328781128 -0.071447998285293579
vn -0.062749996781349182 0.99685001373291016 -0.048493999987840652
vn -0.085216999053955078 0.99491202831268311 -0.053739000111818314
vn -0.050912998616695404 0.99630802869796753 -0.069130003452301025
vn -0.087782002985477448 0.99554902315139771 -0.0342940017580986
vn -0.094030000269413 0.99391800165176392 -0.057316999882459641
vn -0.098719000816345215 0.99511498212814331 -0.00087899999925866723
vn -0.090310998260974884 0.995809018611908 0.014468000270426273
vn -0.092505998909473419 0.99550497531890869 0.020287999883294106
vn -0.10577300190925598 0.99399197101593018 -0.028148999437689781
vn -0.12290000170469284 0.99241900444030762 0.00095299998065456748
vn -0.094273999333381653 0.99429398775100708 -0.049924999475479126
vn -0.082044996321201324 0.99642401933670044 -0.020201999694108963
vn -0.056226998567581177 0.9965749979019165 -0.060632999986410141
vn -0.067192003130912781 0.99730497598648071 -0.029450999572873116
vn -0.054393000900745392 0.99621200561523438 -0.067840002477169037
vn -0.050760000944137573 0.99790698289871216 -0.040072001516819
vn -0.046213001012802124 0.99887901544570923 -0.010238000191748142
vn -0.04954800009727478 0.99666798114776611 -0.06478399783372879
vn -0.060777001082897186 0.99717098474502563 -0.044234998524188995
vn -0.0422700010240078 0.99676400423049927 -0.068374998867511749
vn -0.043715998530387878 0.99452602863311768 -0.094907999038696289
vn -0.055677000433206558 0.99399298429489136 -0.094218000769615173
vn -0.055675998330116272 0.99399298429489136 -0.094219997525215149
vn -0.062886998057365417 0.99777001142501831 -0.02236500009894371
vn -0.054350998252630234 0.99596101045608521 -0.071466997265815735
vn -0.0900069996714592 0.99590599536895752 -0.00841199979186058
vn -0.045115001499652863 0.99893397092819214 -0.0097489999607205391
vn -0.032432999461889267 0.999343991279602 -0.016093999147415161
vn -0.038244999945163727 0.998956024646759 -0.024999000132083893
vn -0.074089996516704559 0.9944080114364624 -0.075258001685142517
vn -0.043866999447345734 0.99893397092819214 -0.014384999871253967
vn -0.055645998567342758 0.998412013053894 -0.0087949996814131737
vn -0.06734900176525116 0.99769598245620728 -0.0081679997965693474
vn -0.05837399885058403 0.9982950091362 -6.0999998822808266E-05
vn -0.030313000082969666 0.99953901767730713 -0.0016090000281110406
vn -0.026055999100208282 0.9993090033531189 -0.02651200070977211
vn -0.0067329998128116131 0.9999539852142334 -0.0067679998464882374
vn -0.011386999860405922 0.99989998340606689 -0.00843099970370531
vn -0.027982000261545181 0.99885398149490356 -0.038823999464511871
vn -0.04746599867939949 0.9978029727935791 -0.046208001673221588
vn -0.023707000538706779 0.99839198589324951 -0.051497999578714371
vn -0.02638000063598156 0.999127984046936 -0.032356001436710358
vn -0.082446999847888947 0.99462801218032837 -0.062596000730991364
vn -0.006622999906539917 0.99936997890472412 -0.034866001456975937
vn -0.0065469997934997082 0.99941998720169067 -0.033417001366615295
vn -0.0065469997934997082 0.99941998720169067 -0.033417001366615295
f 1/1/1 2/2/2 3/3/3
f 4/4/4 5/5/5 6/6/6
f 7/7/7 8/8/8 9/9/9
f 10/10/10 11/11/11 12/12/12
f 12/12/12 3/3/3 2/2/2
f 12/12/12 11/11/11 3/3/3
f 11/11/11 13/13/13 3/3/3
f 13/13/13 11/11/11 14/14/14
f 15/15/15 16/16/16 17/17/17
f 18/18/18 19/19/19 16/16/16
f 16/16/16 14/14/14 11/11/11
f 16/16/16 15/15/15 14/14/14
f 16/16/16 11/11/11 18/18/18
f 7/7/7 6/6/6 5/5/5
f 7/7/7 9/9/9 6/6/6
f 6/6/6 9/9/9 18/18/18
f 9/9/9 20/20/20 21/21/21
f 22/22/22 9/9/9 8/8/8
f 22/22/22 20/20/20 9/9/9
f 21/21/21 18/18/18 9/9/9
f 23/23/23 24/24/24 21/21/21
f 25/25/25 26/26/26 23/23/23
f 25/25/25 27/27/27 26/26/26
f 23/23/23 21/21/21 20/20/20
f 11/11/11 6/6/6 18/18/18
f 22/22/22 28/28/28 20/20/20
f 22/22/22 29/29/29 28/28/28
f 29/29/29 30/30/30 28/28/28
f 18/18/18 21/21/21 31/31/31
f 4/4/4 11/11/11 10/10/10
f 4/4/4 6/6/6 11/11/11
f 20/20/20 25/25/25 23/23/23
f 20/20/20 32/32/32 25/25/25
f 32/32/32 20/20/20 28/28/28
f 18/18/18 31/31/31 19/19/19
f 33/33/33 19/19/19 34/34/34
f 23/23/23 26/26/26 24/24/24
f 24/24/24 35/35/35 31/31/31
f 26/26/26 36/36/36 24/24/24
f 27/27/27 37/37/37 26/26/26
f 19/19/19 31/31/31 38/38/38
f 21/21/21 24/24/24 31/31/31
f 17/17/17 19/19/19 33/33/33
f 17/17/17 16/16/16 19/19/19
f 38/38/38 34/34/34 19/19/19
f 38/38/38 39/39/39 34/34/34
f 40/40/40 38/38/38 41/41/41
f 40/40/40 39/39/39 38/38/38
f 42/42/42 35/35/35 43/43/43
f 42/42/42 38/38/38 35/35/35
f 35/35/35 38/38/38 31/31/31
f 44/44/44 36/36/36 45/45/45
f 44/44/44 35/35/35 36/36/36
f 41/41/41 38/38/38 42/42/42
f 46/46/46 47/47/47 48/48/48
f 46/46/46 36/36/36 47/47/47
f 36/36/36 35/35/35 24/24/24
f 36/36/36 26/26/26 47/47/47
f 49/49/49 47/47/47 50/50/50
f 51/51/51 47/47/47 52/52/52
f 52/52/52 49/49/49 53/53/53
f 52/52/52 47/47/47 49/49/49
f 26/26/26 50/50/50 47/47/47
f 26/26/26 37/37/37 50/50/50
f 43/43/43 35/35/35 44/44/44
f 51/51/51 48/48/48 47/47/47
f 46/46/46 45/45/45 36/36/36
