mtllib m211111303.mtl
usemtl material0
v -24 1.7030839920043945 -48
v -24 1.76043701171875 -47.26993203163147
v -23.343348026275635 1.6524349451065064 -48
v -24 1.8118439912796021 -46.702454090118408
v -24 1.9521180391311646 -45.15814995765686
v -22.542030096054077 1.7119439840316773 -46.779124975204468
v -24 1.9900829792022705 -44.703086972236633
v -22.435966014862061 1.8706539869308472 -44.785296976566315
v -22.607023000717163 1.60548996925354 -48
v -24 2.1655540466308594 -43.046321988105774
v -20.44250699877739 1.6808209419250488 -44.889957010746
v -22.329699039459229 2.0708649158477783 -42.791610956192017
v -20.336203008890152 1.8883570432662964 -42.896296977996826
v -24 2.2012739181518555 -42.70382297039032
v -21.443994998931885 1.4955229759216309 -48
v -24 2.2263109683990479 -42.395931005477905
v -22.223658084869385 2.2251780033111572 -40.79776406288147
v -24 2.3804049491882324 -40.704456090927124
v -22.94138503074646 2.238502025604248 -40
v -24 2.3719959259033203 -40.575062036514282
v -24 2.3346240520477295 -40
v -22.18154501914978 2.22479510307312 -40
v -21.337242007255554 2.1916239261627197 -40
v -20.548655986785889 1.5045340061187744 -46.88372802734375
v -20.608054995536804 1.41239595413208 -48
v -18.555022954940796 1.3498549461364746 -46.9885139465332
v -19.544636011123657 1.341217041015625 -48
v -18.608814001083374 1.2725609540939331 -48
v -17.645148992538452 1.2583669424057007 -48
v -18.448758959770203 1.5495799779891968 -44.994822978973389
v -16.560658931732178 1.3440990447998047 -47.09381103515625
v -20.182147994637489 2.1155021190643311 -40
v -20.229925006628036 2.090519905090332 -40.902617931365967
v -18.342425942420959 1.7629749774932861 -43.001182973384857
v -19.142431020736694 2.0604450702667236 -40
v -18.236067056655884 1.9817399978637695 -41.007560968399048
v -16.454598903656006 1.5023200511932373 -45.0999790430069
v -16.608925104141235 1.2604219913482666 -48
v -16 1.3823200464248657 -46.589690923690796
v -16 1.4988930225372315 -45.123973965644836
v -16 1.5388040542602539 -44.691268980503082
v -16.348335027694702 1.7015550136566162 -43.1062890291214
v -16 1.6962000131607056 -43.1246680021286
v -16 1.3001970052719116 -47.717060089111328
v -16 1.2744170427322388 -48
v -16.242007970809937 1.9139729738235474 -41.112643957138062
v -18.182561993598938 2.0436770915985107 -40
v -17.242877960205078 2.0148670673370361 -40
v -16.183001041412354 1.9668370485305786 -40
v -16 1.9553699493408203 -40
v -16 1.9098780155181885 -40.894877910614014
v -16 1.8828129768371582 -41.381690979003906
v -16 1.3487939834594727 -47.123431921005249
v -16 1.905925989151001 -41.125396966934204
vt 0 0
vt 0.091259002685546875 0
vt 0 0.082081973552703857
vt 0.16219300031661987 0
vt 0.35523098707199097 0
vt 0.15260900557041168 0.18224602937698364
vt 0.41211399435997009 0
vt 0.40183800458908081 0.19550400972366333
vt 0 0.17412197589874268
vt 0.61921000480651855 0
vt 0.38875499367713928 0.44468700885772705
vt 0.651049017906189 0.20878797769546509
vt 0.63796299695968628 0.45797497034072876
vt 0.66202199459075928 0
vt 0 0.31950098276138306
vt 0.70050901174545288 0
vt 0.90027999877929688 0.222042977809906
vt 0.91194301843643188 0
vt 1 0.13232702016830444
vt 0.92811697721481323 0
vt 1 0
vt 1 0.2273070216178894
vt 1 0.33284497261047363
vt 0.13953399658203125 0.43141800165176392
vt 0 0.42399299144744873
vt 0.12643599510192871 0.680622011423111
vt 0 0.55692100524902344
vt 0 0.67389801144599915
vt 0 0.79435600340366364
vt 0.37564700841903687 0.69390499591827393
vt 0.11327400058507919 0.929917998611927
vt 1 0.47723197937011719
vt 0.88717299699783325 0.47125899791717529
vt 0.62485200166702271 0.70719701051712036
vt 1 0.60719600319862366
vt 0.874055027961731 0.72049200534820557
vt 0.36250299215316772 0.94317499920725822
vt 0 0.92388399690389633
vt 0.17628900706768036 1
vt 0.35950300097465515 1
vt 0.41359099745750427 1
vt 0.61171400547027588 0.95645799860358238
vt 0.60941600799560547 1
vt 0.035367000848054886 1
vt 0 1
vt 0.86091899871826172 0.96974899992346764
vt 1 0.727180004119873
vt 1 0.84464000165462494
vt 1 0.97712500020861626
vt 1 1
vt 0.88814002275466919 1
vt 0.82728898525238037 1
vt 0.10957100242376328 1
vt 0.85932499170303345 1
vn 0.076669000089168549 0.99399399757385254 -0.078087002038955688
vn 0.070854999125003815 0.99400097131729126 -0.083316996693611145
vn 0.065145000815391541 0.99394899606704712 -0.088445000350475311
vn 0.063360996544361114 0.993910014629364 -0.090159997344017029
vn 0.065218999981880188 0.99392902851104736 -0.088606998324394226
vn 0.082973003387451172 0.99267202615737915 -0.087851002812385559
vn 0.0710109993815422 0.99322998523712158 -0.091931000351905823
vn 0.080611996352672577 0.99191898107528687 -0.0979669988155365
vn 0.0819920003414154 0.99247902631759644 -0.090903997421264648
vn 0.070532001554965973 0.99198997020721436 -0.10478799790143967
vn 0.0781719982624054 0.99215501546859741 -0.097561001777648926
vn 0.079672999680042267 0.992559015750885 -0.092077001929283142
vn 0.070800997316837311 0.99221998453140259 -0.10240799933671951
vn 0.072173997759819031 0.99228399991989136 -0.10081599652767181
vn 0.097107000648975372 0.9913409948348999 -0.088395997881889343
vn 0.07712399959564209 0.99339002370834351 -0.08501800149679184
vn 0.072313003242015839 0.99524897336959839 -0.065200001001358032
vn 0.084940999746322632 0.9956129789352417 -0.039250001311302185
vn 0.074178002774715424 0.99598598480224609 0.050101000815629959
vn 0.090239003300666809 0.99382400512695312 0.06458599865436554
vn 0.090239003300666809 0.99382400512695312 0.06458599865436554
vn 0.029210999608039856 0.9995729923248291 -0.0010620000539347529
vn 0.054572001099586487 0.99833601713180542 -0.018645999953150749
vn 0.084922000765800476 0.99242699146270752 -0.088748998939991
vn 0.0806720033288002 0.99300098419189453 -0.0862559974193573
vn 0.041995998471975327 0.99476897716522217 -0.093121998012065887
vn 0.071149997413158417 0.99413400888442993 -0.08145199716091156
vn 0.043441001325845718 0.99597400426864624 -0.078418999910354614
vn 0.0022549999412149191 0.99611198902130127 -0.088068999350070953
vn 0.035248998552560806 0.99426597356796265 -0.10095500200986862
vn 0.0034920000471174717 0.99605798721313477 -0.088637001812458038
vn 0.06243399903178215 0.9975699782371521 -0.030914999544620514
vn 0.056272998452186584 0.99476498365402222 -0.085298001766204834
vn 0.036878999322652817 0.99355298280715942 -0.10720100253820419
vn 0.0438929982483387 0.99829399585723877 -0.038497000932693481
vn 0.037071000784635544 0.99559801816940308 -0.08607800304889679
vn 0.017940999940037727 0.99538302421569824 -0.094295002520084381
vn -0.010981000028550625 0.995756983757019 -0.091362997889518738
vn 0.0011210000375285745 0.99704301357269287 -0.076839998364448547
vn 0.0031769999768584967 0.99661499261856079 -0.082148998975753784
vn 0.0091199995949864388 0.995048999786377 -0.098967999219894409
vn 0.021468000486493111 0.994376003742218 -0.10371299833059311
vn 0.0098350001499056816 0.99459302425384521 -0.10338100045919418
vn -0.019621999934315681 0.99594402313232422 -0.087806001305580139
vn -0.022881999611854553 0.99561399221420288 -0.090714998543262482
vn 0.029526000842452049 0.99524599313735962 -0.09280800074338913
vn 0.023940000683069229 0.997750997543335 -0.062605001032352448
vn 0.034653998911380768 0.997639000415802 -0.0592929981648922
vn 0.047756001353263855 0.99760997295379639 -0.049931000918149948
vn 0.062460001558065414 0.99676001071929932 -0.05067100003361702
vn 0.056311000138521194 0.99745100736618042 -0.0438230000436306
vn 0.010652000084519386 0.9943540096282959 -0.10557900369167328
vn -0.01218899991363287 0.99728298187255859 -0.07264699786901474
vn 0.030261000618338585 0.998000979423523 -0.055484998971223831
f 1/1/1 2/2/2 3/3/3
f 4/4/4 5/5/5 6/6/6
f 7/7/7 6/6/6 5/5/5
f 7/7/7 8/8/8 6/6/6
f 3/3/3 6/6/6 9/9/9
f 3/3/3 4/4/4 6/6/6
f 3/3/3 2/2/2 4/4/4
f 10/10/10 8/8/8 7/7/7
f 6/6/6 8/8/8 11/11/11
f 8/8/8 12/12/12 13/13/13
f 14/14/14 8/8/8 10/10/10
f 14/14/14 12/12/12 8/8/8
f 15/15/15 9/9/9 6/6/6
f 12/12/12 16/16/16 17/17/17
f 12/12/12 14/14/14 16/16/16
f 18/18/18 19/19/19 17/17/17
f 18/18/18 20/20/20 19/19/19
f 20/20/20 21/21/21 19/19/19
f 22/22/22 17/17/17 19/19/19
f 23/23/23 17/17/17 22/22/22
f 16/16/16 18/18/18 17/17/17
f 13/13/13 12/12/12 17/17/17
f 15/15/15 24/24/24 25/25/25
f 15/15/15 6/6/6 24/24/24
f 8/8/8 13/13/13 11/11/11
f 24/24/24 11/11/11 26/26/26
f 26/26/26 27/27/27 24/24/24
f 26/26/26 28/28/28 27/27/27
f 28/28/28 26/26/26 29/29/29
f 26/26/26 30/30/30 31/31/31
f 30/30/30 26/26/26 11/11/11
f 25/25/25 24/24/24 27/27/27
f 30/30/30 11/11/11 13/13/13
f 17/17/17 32/32/32 33/33/33
f 17/17/17 23/23/23 32/32/32
f 33/33/33 34/34/34 13/13/13
f 33/33/33 35/35/35 36/36/36
f 33/33/33 32/32/32 35/35/35
f 30/30/30 13/13/13 34/34/34
f 17/17/17 33/33/33 13/13/13
f 37/37/37 31/31/31 30/30/30
f 29/29/29 31/31/31 38/38/38
f 29/29/29 26/26/26 31/31/31
f 34/34/34 37/37/37 30/30/30
f 39/39/39 37/37/37 40/40/40
f 39/39/39 31/31/31 37/37/37
f 41/41/41 42/42/42 43/43/43
f 41/41/41 37/37/37 42/42/42
f 42/42/42 37/37/37 34/34/34
f 44/44/44 38/38/38 31/31/31
f 44/44/44 45/45/45 38/38/38
f 42/42/42 34/34/34 46/46/46
f 47/47/47 36/36/36 35/35/35
f 36/36/36 48/48/48 46/46/46
f 36/36/36 47/47/47 48/48/48
f 48/48/48 49/49/49 46/46/46
f 50/50/50 46/46/46 49/49/49
f 50/50/50 51/51/51 46/46/46
f 34/34/34 36/36/36 46/46/46
f 52/52/52 42/42/42 46/46/46
f 52/52/52 43/43/43 42/42/42
f 36/36/36 34/34/34 33/33/33
f 6/6/6 11/11/11 24/24/24
f 44/44/44 31/31/31 53/53/53
f 40/40/40 37/37/37 41/41/41
f 51/51/51 54/54/54 46/46/46
f 52/52/52 46/46/46 54/54/54
f 53/53/53 31/31/31 39/39/39
