mtllib m2111111022.mtl
usemtl material0
v -30.912528991699219 2.5773110389709473 -16
v -31.607859015464783 2.6460559368133545 -16
v -30.87764698266983 2.6141660213470459 -15.34278404712677
v -29.912905000150204 2.508228063583374 -16
v -30.552905976772308 2.557574987411499 -16
v -29.880732998251915 2.5563609600067139 -15.395244002342224
v -31.874361038208008 2.7124969959259033 -15.290462970733643
v -31.912008047103882 2.6751410961151123 -16
v -29.336768984794617 2.4806990623474121 -16
v -28 2.387794017791748 -16
v -28.442617058753967 2.4241769313812256 -16
v -28 2.4233779907226562 -15.601775050163269
v -29.827974006533623 2.5800440311431885 -14.398135989904404
v -28 2.4283969402313232 -15.494153022766113
v -28.883965015411377 2.4692599773406982 -15.447602987289429
v -28 2.4446370601654053 -14.652114987373352
v -28.913251996040344 2.4447770118713379 -16
v -28 2.4255518913269043 -15.555148959159851
v -28.831083059310913 2.5178449153900146 -14.45058199763298
v -30.82490199804306 2.6349189281463623 -14.345665991306305
v -32 2.719412088394165 -15.283851027488709
v -32 2.7031869888305664 -15.576658010482788
v -32 2.6797270774841309 -16
v -32 2.715939998626709 -14.453700006008148
v -31.821753025054932 2.7054181098937988 -14.293249994516373
v -32 2.7249259948730469 -14.283899009227753
v -30.772167026996613 2.6537189483642578 -13.348541021347046
v -29.775312006473541 2.5841960906982422 -13.400960981845856
v -32 2.7437069416046143 -13.504090011119843
v -31.769019961357117 2.7237300872802734 -13.29612398147583
v -28 2.4529600143432617 -14.494262009859085
v -28 2.4556350708007812 -13.702374011278153
v -28.778329968452454 2.5405509471893311 -13.45346999168396
v -32 2.7500269412994385 -13.284009993076325
v -30.719421029090881 2.6749598979949951 -12.351425051689148
v -29.722613990306854 2.5956709384918213 -12.403810977935791
v -31.716187000274658 2.7625479698181152 -12.299067974090576
v -32 2.78273606300354 -12.554569959640503
v -28.725651025772095 2.5481200218200684 -12.456307053565979
v -28 2.4833769798278809 -12.75276505947113
v -28 2.4614748954772949 -13.494319975376129
v -31.700260043144226 2.7900149822235107 -12
v -31.985152959823608 2.8215479850769043 -12
v -32 2.7951810359954834 -12.212774038314819
v -32 2.7859580516815186 -12.284155011177063
v -32 2.8226718902587891 -12
v -30.70076197385788 2.695871114730835 -12
v -31.035491943359375 2.7349600791931152 -12
v -30.085828997194767 2.6490120887756348 -12
v -28.701624035835266 2.5357210636138916 -12
v -29.274056971073151 2.5637650489807129 -12
v -28 2.4864881038665771 -12.494431018829346
v -28 2.4832649230957031 -12
v -28.21887195110321 2.5019290447235107 -12
v -28 2.4841310977935791 -12.132823944091797
v -29.7012600004673 2.6026909351348877 -12
vt 0.26271599531173706 0.027464985847473145
vt 0.094953000545501709 0.034193992614746094
vt 0.2765209972858429 0.18525701761245728
vt 0.50332701206207275 0.018202006816864014
vt 0.34920001029968262 0.024223029613494873
vt 0.51583200693130493 0.16364902257919312
vt 0.036550000309944153 0.20744001865386963
vt 0.021593000739812851 0.037123024463653564
vt 0.64183300733566284 0.013126015663146973
vt 0.96337401866912842 0.00042402744293212891
vt 0.85674500465393066 0.0047460198402404785
vt 0.96656501293182373 0.096442997455596924
vt 0.53746598958969116 0.40232902765274048
vt 0.96739798784255981 0.12160700559616089
vt 0.75536197423934937 0.14111399650573731
vt 0.97514802217483521 0.32383197546005249
vt 0.7438889741897583 0.0091400146484375
vt 0.966966986656189 0.1076509952545166
vt 0.77680099010467529 0.38035297393798828
vt 0.29822000861167908 0.42426198720932007
vt 0.0063950000330805779 0.21016299724578857
vt 0.0039579998701810837 0.13973701000213623
vt 0.00043600000208243728 0.037916004657745361
vt 0.014371000230312347 0.40955102443695068
vt 0.05877399817109108 0.44637101888656616
vt 0.015814999118447304 0.45038402080535889
vt 0.3200410008430481 0.66324698925018311
vt 0.55935901403427124 0.641279011964798
vt 0.0229250006377697 0.63766598701477051
vt 0.08060300350189209 0.68535399436950684
vt 0.97652697563171387 0.36179101467132568
vt 0.98405998945236206 0.55202001333236694
vt 0.79848599433898926 0.61935999989509583
vt 0.02490600012242794 0.69053399562835693
vt 0.341825008392334 0.90224599838256836
vt 0.58129101991653442 0.880232997238636
vt 0.10208699852228165 0.92449399828910828
vt 0.031279999762773514 0.86587400734424591
vt 0.82034802436828613 0.85831399261951447
vt 0.9924740195274353 0.780251994729042
vt 0.98593002557754517 0.60199901461601257
vt 0.10824199765920639 0.99649899988435209
vt 0.03942900151014328 0.99943800002802163
vt 0.03435400128364563 0.94804500043392181
vt 0.033831000328063965 0.930807001888752
vt 0.035854000598192215 0.99957700000959449
vt 0.34922900795936584 0.98663500044494867
vt 0.26840001344680786 0.99008600041270256
vt 0.49730700254440308 0.98082399927079678
vt 0.83062499761581421 0.96767200157046318
vt 0.693011999130249 0.97302399948239326
vt 0.99484997987747192 0.842287003993988
vt 0.999563992023468 0.96103399991989136
vt 0.94682097434997559 0.96309800073504448
vt 0.99831002950668335 0.92911200225353241
vt 0.59030300378799438 0.97692899964749813
vn 0.077143996953964233 0.99521899223327637 -0.059904001653194427
vn 0.095775000751018524 0.99370002746582031 -0.058194998651742935
vn 0.075847998261451721 0.99622398614883423 -0.042254999279975891
vn 0.0625389963388443 0.99462801218032837 -0.082491002976894379
vn 0.059836000204086304 0.99612200260162354 -0.064507998526096344
vn 0.065180003643035889 0.99658399820327759 -0.05071600154042244
vn 0.071497999131679535 0.99699199199676514 -0.029921999201178551
vn 0.0728520005941391 0.99575299024581909 -0.056290999054908752
vn 0.074620999395847321 0.99555701017379761 -0.057436000555753708
vn 0.08160100132226944 0.99270999431610107 -0.088705003261566162
vn 0.0525749996304512 0.99702101945877075 -0.0564350001513958
vn 0.053851000964641571 0.99687200784683228 -0.057851001620292664
vn 0.0556659996509552 0.99827200174331665 -0.018828000873327255
vn 0.044397998601198196 0.99845600128173828 -0.0333780013024807
vn 0.068108998239040375 0.99661701917648315 -0.046002998948097229
vn 0.0670280009508133 0.99679702520370483 -0.0436290018260479
vn 0.064709998667240143 0.99676799774169922 -0.047609001398086548
vn 0.043680999428033829 0.99796098470687866 -0.046546000987291336
vn 0.074285998940467834 0.99667400121688843 -0.033518001437187195
vn 0.067102000117301941 0.99758297204971313 -0.018025999888777733
vn 0.053656000643968582 0.99825799465179443 -0.024529999122023582
vn 0.05197799950838089 0.99711799621582031 -0.055254999548196793
vn 0.051975999027490616 0.99711799621582031 -0.055254999548196793
vn 0.0688140019774437 0.99756801128387451 -0.011030999943614006
vn 0.081996001303195953 0.99649202823638916 -0.016750000417232513
vn 0.10675600171089172 0.993569016456604 -0.037733998149633408
vn 0.06990399956703186 0.99730098247528076 -0.022439999505877495
vn 0.054680999368429184 0.99843102693557739 -0.012054000049829483
vn 0.10861100256443024 0.99376600980758667 -0.025167999789118767
vn 0.0915440022945404 0.99529600143432617 -0.031700000166893005
vn 0.0763000026345253 0.99666899442672729 -0.028795000165700912
vn 0.0937340036034584 0.99536800384521484 -0.02135699987411499
vn 0.071690000593662262 0.99725198745727539 -0.01867000013589859
vn 0.11113599687814713 0.99312299489974976 -0.036809001117944717
vn 0.0824429988861084 0.99530297517776489 -0.050744000822305679
vn 0.072008997201919556 0.99722099304199219 -0.019097000360488892
vn 0.088990002870559692 0.99358099699020386 -0.069844998419284821
vn 0.10292500257492065 0.99404501914978027 -0.035790000110864639
vn 0.063846997916698456 0.99795198440551758 0.0039029999170452356
vn 0.088155001401901245 0.99596798419952393 -0.01665399968624115
vn 0.099547997117042542 0.99462097883224487 -0.028620999306440353
vn 0.095454998314380646 0.99078601598739624 -0.09607599675655365
vn 0.084054999053478241 0.98926198482513428 -0.11956200003623962
vn 0.074858002364635468 0.98897397518157959 -0.12777900695800781
vn 0.078226998448371887 0.99432700872421265 -0.072076998651027679
vn 0.074850000441074371 0.98897397518157959 -0.1277800053358078
vn 0.095210000872612 0.99338698387146 -0.064167000353336334
vn 0.091076001524925232 0.99199599027633667 -0.087454997003078461
vn 0.087462998926639557 0.99477100372314453 -0.052731998264789581
vn 0.05972599983215332 0.99792701005935669 0.02397100068628788
vn 0.058676999062299728 0.998183012008667 0.013690000399947166
vn 0.08446899801492691 0.99642097949981689 -0.0030620000325143337
vn 0.084965996444225311 0.99636298418045044 0.00649499986320734
vn 0.081441998481750488 0.99662297964096069 0.010435000061988831
vn 0.084965996444225311 0.99636298418045044 0.00649499986320734
vn 0.10468100011348724 0.99424397945404053 -0.022819999605417252
f 1/1/1 2/2/2 3/3/3
f 4/4/4 5/5/5 6/6/6
f 2/2/2 7/7/7 3/3/3
f 2/2/2 8/8/8 7/7/7
f 9/9/9 4/4/4 6/6/6
f 10/10/10 11/11/11 12/12/12
f 3/3/3 13/13/13 6/6/6
f 5/5/5 3/3/3 6/6/6
f 5/5/5 1/1/1 3/3/3
f 14/14/14 15/15/15 16/16/16
f 17/17/17 12/12/12 11/11/11
f 17/17/17 18/18/18 12/12/12
f 18/18/18 15/15/15 14/14/14
f 18/18/18 17/17/17 15/15/15
f 17/17/17 6/6/6 15/15/15
f 17/17/17 9/9/9 6/6/6
f 6/6/6 19/19/19 15/15/15
f 7/7/7 20/20/20 3/3/3
f 21/21/21 7/7/7 22/22/22
f 22/22/22 8/8/8 23/23/23
f 22/22/22 7/7/7 8/8/8
f 7/7/7 24/24/24 25/25/25
f 7/7/7 21/21/21 24/24/24
f 26/26/26 25/25/25 24/24/24
f 20/20/20 25/25/25 27/27/27
f 20/20/20 13/13/13 3/3/3
f 13/13/13 19/19/19 6/6/6
f 13/13/13 20/20/20 28/28/28
f 7/7/7 25/25/25 20/20/20
f 25/25/25 29/29/29 30/30/30
f 25/25/25 26/26/26 29/29/29
f 31/31/31 19/19/19 32/32/32
f 16/16/16 19/19/19 31/31/31
f 16/16/16 15/15/15 19/19/19
f 19/19/19 13/13/13 33/33/33
f 29/29/29 34/34/34 30/30/30
f 30/30/30 35/35/35 27/27/27
f 20/20/20 27/27/27 28/28/28
f 13/13/13 28/28/28 33/33/33
f 27/27/27 36/36/36 28/28/28
f 27/27/27 25/25/25 30/30/30
f 34/34/34 37/37/37 30/30/30
f 34/34/34 38/38/38 37/37/37
f 39/39/39 33/33/33 28/28/28
f 40/40/40 41/41/41 33/33/33
f 41/41/41 19/19/19 33/33/33
f 41/41/41 32/32/32 19/19/19
f 42/42/42 37/37/37 43/43/43
f 44/44/44 37/37/37 45/45/45
f 44/44/44 43/43/43 37/37/37
f 44/44/44 46/46/46 43/43/43
f 47/47/47 35/35/35 48/48/48
f 42/42/42 35/35/35 37/37/37
f 42/42/42 48/48/48 35/35/35
f 35/35/35 49/49/49 36/36/36
f 35/35/35 47/47/47 49/49/49
f 30/30/30 37/37/37 35/35/35
f 38/38/38 45/45/45 37/37/37
f 50/50/50 36/36/36 51/51/51
f 50/50/50 39/39/39 36/36/36
f 36/36/36 39/39/39 28/28/28
f 40/40/40 39/39/39 52/52/52
f 40/40/40 33/33/33 39/39/39
f 53/53/53 39/39/39 54/54/54
f 53/53/53 55/55/55 39/39/39
f 55/55/55 52/52/52 39/39/39
f 51/51/51 36/36/36 56/56/56
f 54/54/54 39/39/39 50/50/50
f 56/56/56 36/36/36 49/49/49
f 27/27/27 35/35/35 36/36/36
