mtllib m211323.mtl
usemtl material0
v -192 6.8167238235473633 -479.17312598228455
v -185.70866394042969 6.7961058616638184 -486.16583299636841
v -192 6.9179601669311523 -485.83401489257812
v -192 7.56744909286499 -451.07382202148438
v -184.0135498046875 8.9655170440673828 -454.26345825195312
v -192 7.6760191917419434 -453.83743286132812
v -189.65071105957031 7.8210902214050293 -448
v -192 7.4466938972473145 -448
v -192 7.4186129570007324 -469.83612060546875
v -192 7.1764788627624512 -462.28121948242188
v -184.86109924316406 7.8823142051696777 -470.21466064453125
v -128 5.843113899230957 -489.21014404296875
v -137.00364685058594 6.2317380905151367 -472.73642015457153
v -128 5.8575577735900879 -482.7444760799408
v -137.845947265625 6.2290058135986328 -488.69146728515625
v -179.56796264648438 8.1326913833618164 -512
v -169.75375366210938 6.7458181381225586 -487.00820922851562
v -162.85697889328003 8.4878597259521484 -512
v -183.68586730957031 8.3786506652832031 -448
v -174.45248413085938 8.4942111968994141 -448
v -168.05702209472656 9.24481201171875 -455.10702514648438
v -168.89942932128906 9.2221355438232422 -471.06201171875
v -187.06550598144531 8.177363395690918 -512
v -192 7.9244270324707031 -505.07656860351562
v -192 8.2865514755249023 -512
v -153.79945421218872 6.5694789886474609 -487.85012817382812
v -167.68444776535034 8.7297592163085938 -448
v -152.10310411453247 8.9883975982666016 -455.94866943359375
v -159.2552490234375 8.5625200271606445 -448
v -152.94635009765625 8.78994369506836 -471.90301513671875
v -146.99507141113281 8.1679601669311523 -512
v -131.41195678710938 8.2952394485473633 -512
v -151.68748474121094 8.1981754302978516 -448
v -144.05938720703125 7.8129630088806152 -448
v -136.15145874023438 8.2641420364379883 -456.78863525390625
v -155.06523084640503 8.3713827133178711 -512
v -128 5.44682502746582 -473.20929002761841
v -128 6.4159722328186035 -465.85220336914062
v -128 7.0150599479675293 -457.2149658203125
v -128.86262512207031 7.5960798263549805 -448
v -128 7.4191579818725586 -448.9591064453125
v -135.68568420410156 8.6241378784179688 -448
v -128 8.1433725357055664 -512
v -128 7.330437183380127 -503.94583129882812
v -128 7.5394039154052734 -448
vt 0.46720600128173828 0.019345998764038086
vt 0.57479399442672729 0.10958802700042725
vt 0.56659501791000366 0.015877008438110352
vt 0.047387000173330307 0.034096002578735352
vt 0.098600000143051147 0.15142101049423218
vt 0.0886629968881607 0.033066987991333008
vt 0.0027799999807029963 0.070977985858917236
vt 0.0014850000152364373 0.035488009452819824
vt 0.32762300968170166 0.024483978748321533
vt 0.21483300626277924 0.027921020984649658
vt 0.33674299716949463 0.1310420036315918
vt 0.65694797039031982 0.96854599937796593
vt 0.40423399209976196 0.84723000228405
vt 0.5605589747428894 0.97365199960768223
vt 0.64142102003097534 0.822063997387886
vt 0.96400201320648193 0.18742799758911133
vt 0.59579998254776 0.34717899560928345
vt 0.97321999073028564 0.4367859959602356
vt 0.0048560001887381077 0.15889501571655273
vt 0.00880999956279993 0.29669100046157837
vt 0.11807700246572495 0.38920301198959351
vt 0.35580000281333923 0.36974102258682251
vt 0.9600449800491333 0.075568020343780518
vt 0.85406899452209473 0.0056200027465820312
vt 0.957502007484436 0.0019289851188659668
vt 0.61852401494979858 0.58461600542068481
vt 0.011899000033736229 0.39774197340011597
vt 0.13933500647544861 0.6267859935760498
vt 0.016272999346256256 0.52352699637413025
vt 0.3788830041885376 0.60719698667526245
vt 0.98490297794342041 0.67175498604774475
vt 0.99427902698516846 0.9042079970240593
vt 0.019695999100804329 0.63658198714256287
vt 0.024748999625444412 0.75199900567531586
vt 0.16089199483394623 0.86452099680900574
vt 0.97910201549530029 0.55233600735664368
vt 0.41830199956893921 0.98160200007259846
vt 0.30220699310302734 0.98245199955999851
vt 0.17304299771785736 0.98719600029289722
vt 0.035441000014543533 0.98034700006246567
vt 0.050436001271009445 0.99271599994972348
vt 0.030036000534892082 0.877480998635292
vt 0.99851500988006592 0.95363499969244
vt 0.87768799066543579 0.95590399950742722
vt 0.036015000194311142 0.99324000021442771
vn -0.047536998987197876 0.99782299995422363 -0.045710999518632889
vn 0.00088399997912347317 0.99999499320983887 0.0031969998963177204
vn 0.021098999306559563 0.99922901391983032 0.033100001513957977
vn -0.15726099908351898 0.98679602146148682 0.038766000419855118
vn -0.088054001331329346 0.99594998359680176 0.018139999359846115
vn -0.15981699526309967 0.98711299896240234 -0.0081979995593428612
vn -0.14024800062179565 0.98861998319625854 0.054411999881267548
vn -0.15726099908351898 0.98679602146148682 0.038766000419855118
vn -0.065577998757362366 0.9977409839630127 -0.014541000127792358
vn -0.13920600712299347 0.98956400156021118 -0.037223000079393387
vn -0.078579999506473541 0.99495697021484375 -0.062341999262571335
vn 0.041781999170780182 0.99783599376678467 0.050765000283718109
vn 0.10006900131702423 0.99379998445510864 -0.0484439991414547
vn 0.050756998360157013 0.99867600202560425 0.0083250002935528755
vn 0.044484999030828476 0.99871301651000977 0.024343999102711678
vn -0.0044040000066161156 0.99835699796676636 0.057131998240947723
vn -0.0087679997086524963 0.99938499927520752 -0.033941999077796936
vn -5.7000001106644049E-05 0.99758100509643555 0.0695199966430664
vn -0.051385998725891113 0.99406999349594116 0.095830000936985016
vn -0.018391000106930733 0.99589502811431885 0.088630996644496918
vn -3.0999999580672011E-05 0.99932599067687988 0.036699999123811722
vn -0.02613300085067749 0.99626302719116211 -0.082327000796794891
vn 0.014294000342488289 0.998511016368866 0.052636001259088516
vn 0.022091999650001526 0.99839097261428833 0.052220001816749573
vn 0.022091999650001526 0.99839097261428833 0.052220001816749573
vn 0.016338000074028969 0.99926197528839111 -0.034772999584674835
vn -0.0065580001100897789 0.99733799695968628 0.072622001171112061
vn 0.049566000699996948 0.99850499629974365 0.023059999570250511
vn 0.027313999831676483 0.99658101797103882 0.077972002327442169
vn 0.071240998804569244 0.9956200122833252 -0.06053600087761879
vn 0.012450999580323696 0.99687302112579346 0.078038997948169708
vn 0.022512000054121017 0.99527597427368164 0.094442002475261688
vn 0.049074999988079071 0.9941449761390686 0.096267998218536377
vn 0.011094000190496445 0.99806302785873413 0.061218999326229095
vn 0.0695519968867302 0.99567502737045288 -0.061599001288414
vn 0.019843999296426773 0.997107982635498 0.0733570009469986
vn 0.084652997553348541 0.99557799100875854 -0.04072599858045578
vn 0.095273002982139587 0.98867899179458618 -0.11591800302267075
vn 0.14820000529289246 0.9872090220451355 -0.0587799996137619
vn 0.12672199308872223 0.98956602811813354 -0.068566001951694489
vn 0.12955799698829651 0.98937398195266724 -0.065981000661849976
vn 0.030485000461339951 0.99862998723983765 -0.042520999908447266
vn 0.044241998344659805 0.99397099018096924 0.10032500326633453
vn 0.044241998344659805 0.99397099018096924 0.10032500326633453
vn 0.065053999423980713 0.99013102054595947 -0.12413500249385834
f 1/1/1 2/2/2 3/3/3
f 4/4/4 5/5/5 6/6/6
f 4/4/4 7/7/7 5/5/5
f 4/4/4 8/8/8 7/7/7
f 9/9/9 10/10/10 11/11/11
f 12/12/12 13/13/13 14/14/14
f 12/12/12 15/15/15 13/13/13
f 16/16/16 17/17/17 18/18/18
f 9/9/9 2/2/2 1/1/1
f 9/9/9 11/11/11 2/2/2
f 2/2/2 11/11/11 17/17/17
f 19/19/19 5/5/5 7/7/7
f 5/5/5 20/20/20 21/21/21
f 5/5/5 19/19/19 20/20/20
f 22/22/22 11/11/11 5/5/5
f 6/6/6 11/11/11 10/10/10
f 6/6/6 5/5/5 11/11/11
f 17/17/17 23/23/23 2/2/2
f 17/17/17 16/16/16 23/23/23
f 3/3/3 2/2/2 24/24/24
f 24/24/24 23/23/23 25/25/25
f 24/24/24 2/2/2 23/23/23
f 5/5/5 21/21/21 22/22/22
f 22/22/22 26/26/26 17/17/17
f 27/27/27 28/28/28 21/21/21
f 27/27/27 29/29/29 28/28/28
f 22/22/22 21/21/21 30/30/30
f 20/20/20 27/27/27 21/21/21
f 11/11/11 22/22/22 17/17/17
f 31/31/31 15/15/15 32/32/32
f 30/30/30 26/26/26 22/22/22
f 26/26/26 30/30/30 15/15/15
f 33/33/33 28/28/28 29/29/29
f 28/28/28 34/34/34 35/35/35
f 28/28/28 33/33/33 34/34/34
f 13/13/13 30/30/30 28/28/28
f 28/28/28 30/30/30 21/21/21
f 15/15/15 36/36/36 26/26/26
f 15/15/15 31/31/31 36/36/36
f 26/26/26 18/18/18 17/17/17
f 26/26/26 36/36/36 18/18/18
f 28/28/28 35/35/35 13/13/13
f 35/35/35 37/37/37 13/13/13
f 35/35/35 38/38/38 37/37/37
f 39/39/39 40/40/40 41/41/41
f 39/39/39 35/35/35 40/40/40
f 35/35/35 42/42/42 40/40/40
f 34/34/34 42/42/42 35/35/35
f 30/30/30 13/13/13 15/15/15
f 43/43/43 32/32/32 44/44/44
f 44/44/44 15/15/15 12/12/12
f 44/44/44 32/32/32 15/15/15
f 38/38/38 35/35/35 39/39/39
f 41/41/41 40/40/40 45/45/45
f 14/14/14 13/13/13 37/37/37
