mtllib m2111111021.mtl
usemtl material0
v -26.702472984790802 2.3783919811248779 -12
v -27.163818001747131 2.4248449802398682 -12
v -26.679382026195526 2.3917388916015625 -11.563897967338562
v -25.702737987041473 2.3309500217437744 -12
v -26.108850002288818 2.3380579948425293 -12
v -25.682527989149094 2.3222150802612305 -11.616317987442017
v -27.70204496383667 2.4578559398651123 -12
v -28 2.4819800853729248 -11.802927017211914
v -27.676280975341797 2.4524741172790527 -11.51144802570343
v -28 2.4832649230957031 -12
v -28 2.47473406791687 -11.494423985481262
v -28 2.4772129058837891 -10.853061974048615
v -27.62363600730896 2.45271897315979 -10.514258980751038
v -24.703127026557922 2.2592709064483643 -12
v -24.685655951499939 2.2561089992523193 -11.66874897480011
v -25.337364017963409 2.3015310764312744 -12
v -25.62983500957489 2.3322250843048096 -10.619162976741791
v -26.626730024814606 2.3939371109008789 -10.566716015338898
v -24.38767397403717 2.2302360534667969 -12
v -24 2.2365028858184814 -11.704893946647644
v -24 2.2373270988464355 -11.051723003387451
v -24 2.2257750034332275 -11.899973034858704
v -24 2.2202749252319336 -12
v -24.632987976074219 2.2612359523773193 -10.671576976776123
v -28 2.4922480583190918 -10.494511008262634
v -26.573867976665497 2.4386138916015625 -9.5696809887886047
v -24.580366015434265 2.2570860385894775 -9.6743749976158142
v -24 2.2397260665893555 -10.704935014247894
v -24 2.234766960144043 -10.101875998079777
v -25.577145010232925 2.3422350883483887 -9.6220079958438873
v -27.570543050765991 2.5447580814361572 -9.5173870027065277
v -28 2.6161239147186279 -8.9544990062713623
v -27.517668008804321 2.592365026473999 -8.52036201953888
v -28 2.5875480175018311 -9.4948440194129944
v -28 2.5290379524230957 -10.09578800201416
v -25.524132013320923 2.4176731109619141 -8.6250790357589722
v -24 2.2339520454406738 -9.7049480080604553
v -24 2.2406480312347412 -9.1520959734916687
v -24.527415990829468 2.3198280334472656 -8.6774009466171265
v -26.520987987518311 2.4867091178894043 -8.5726579427719116
v -28 2.6609940528869629 -8.495110034942627
v -27.490141034126282 2.603193998336792 -8
v -28 2.6683979034423828 -8.2331099510192871
v -27.994300961494446 2.6741828918457031 -8
v -28 2.674839973449707 -8.0051330327987671
v -27.036087036132812 2.55568790435791 -8
v -28 2.6748011112213135 -8
v -26.490664005279541 2.5050768852233887 -8
v -24.491557955741882 2.3389019966125488 -8
v -24.829763054847717 2.3715119361877441 -8
v -24 2.2708969116210938 -8.7050960063934326
v -24 2.2995800971984863 -8.3323889970779419
v -24 2.3095519542694092 -8.2028089761734
v -26.086409002542496 2.4778380393981934 -8
v -25.491028010845184 2.4383339881896973 -8
v -24 2.3157680034637451 -8
vt 0.31435400247573853 0.024596989154815674
vt 0.20304800570011139 0.02879798412322998
vt 0.32350200414657593 0.1291540265083313
vt 0.55469602346420288 0.015829026699066162
vt 0.45718801021575928 0.019367992877960205
vt 0.5629270076751709 0.10778200626373291
vt 0.073601000010967255 0.03361201286315918
vt 0.0035929998848587275 0.083579003810882568
vt 0.084215998649597168 0.15066301822662354
vt 0.0018159999744966626 0.036270022392272949
vt 0.0064739999361336231 0.15765202045440674
vt 0.012164000421762466 0.31161397695541382
vt 0.10572999715805054 0.38957500457763672
vt 0.79529702663421631 0.0073760151863098145
vt 0.80230098962783813 0.086417019367218018
vt 0.64269602298736572 0.012746989727020264
vt 0.58415001630783081 0.3467249870300293
vt 0.34498998522758484 0.36806797981262207
vt 0.8713189959526062 0.0043740272521972656
vt 0.96665400266647339 0.071757972240448
vt 0.97234499454498291 0.22855997085571289
vt 0.96519500017166138 0.025317013263702393
vt 0.96442502737045288 0.0012639760971069336
vt 0.82359802722930908 0.32534801959991455
vt 0.015068000182509422 0.39777201414108276
vt 0.36595198512077332 0.60723599791526794
vt 0.84504401683807373 0.56427198648452759
vt 0.975346028804779 0.31175702810287476
vt 0.98070400953292847 0.45652997493743896
vt 0.60553300380706787 0.58565399050712585
vt 0.12588299810886383 0.62955701351165771
vt 0.027024000883102417 0.7690110057592392
vt 0.14704099297523499 0.86873799562454224
vt 0.022506000474095345 0.63910600543022156
vt 0.017822999507188797 0.49392098188400269
vt 0.62586301565170288 0.82529599964618683
vt 0.98420798778533936 0.55181598663330078
vt 0.98901498317718506 0.68454599380493164
vt 0.8654559850692749 0.80370800197124481
vt 0.3870989978313446 0.84642399847507477
vt 0.030341999605298042 0.87984199821949
vt 0.15840999782085419 0.99342499999329448
vt 0.032761998474597931 0.94275800138711929
vt 0.03631100058555603 0.99867799994535744
vt 0.034882001578807831 0.99750400008633733
vt 0.267987996339798 0.98897999990731478
vt 0.034935001283884048 0.99873600003775209
vt 0.39899501204490662 0.98373799957335
vt 0.88005697727203369 0.96607000008225441
vt 0.79849398136138916 0.9691419992595911
vt 0.99235200881958008 0.79222600162029266
vt 0.99514102935791016 0.88198000192642212
vt 0.99611002206802368 0.91318400204181671
vt 0.49625900387763977 0.98013599961996078
vt 0.638949990272522 0.97517599910497665
vt 0.99818402528762817 0.96155500039458275
vn 0.084463000297546387 0.99581301212310791 -0.034951001405715942
vn 0.070306003093719482 0.99752300977706909 -0.0023729999084025621
vn 0.06856200098991394 0.99752199649810791 -0.01577099971473217
vn 0.047821998596191406 0.99865102767944336 0.020215999335050583
vn 0.056056000292301178 0.99820500612258911 -0.021067999303340912
vn 0.063240997493267059 0.99798697233200073 -0.0046740001998841763
vn 0.073499999940395355 0.99726998805999756 0.0071100001223385334
vn 0.080925002694129944 0.996658980846405 0.011013000272214413
vn 0.066659003496170044 0.99776899814605713 0.0036210000980645418
vn 0.084964998066425323 0.99636298418045044 0.00649499986320734
vn 0.069086998701095581 0.99756699800491333 0.0093360003083944321
vn 0.0774729996919632 0.99689602851867676 -0.013989999890327454
vn 0.079761996865272522 0.995652973651886 -0.048087000846862793
vn 0.078647002577781677 0.99688798189163208 0.0053690001368522644
vn 0.055511999875307083 0.99842602014541626 -0.0079439999535679817
vn 0.070152997970581055 0.99749302864074707 0.0093360003083944321
vn 0.068576999008655548 0.99758601188659668 -0.010893000289797783
vn 0.063717998564243317 0.99772000312805176 -0.022230999544262886
vn 0.043262999504804611 0.99830001592636108 -0.039055000990629196
vn 0.027042999863624573 0.99921399354934692 -0.028997000306844711
vn 0.032242000102996826 0.99946498870849609 -0.0054049999453127384
vn 0.025647999718785286 0.99816298484802246 -0.054889000952243805
vn 0.025647999718785286 0.99816298484802246 -0.054889999330043793
vn 0.052468001842498779 0.99861800670623779 -0.0031359998974949121
vn 0.10071100294589996 0.992622971534729 -0.067505002021789551
vn 0.088482998311519623 0.99425202608108521 -0.0602790005505085
vn 0.065793998539447784 0.99744302034378052 -0.027900999411940575
vn 0.033982999622821808 0.999422013759613 0.00039800000376999378
vn 0.038458000868558884 0.99925297498703 0.0036959999706596136
vn 0.085229001939296722 0.9951140284538269 -0.049842000007629395
vn 0.098288998007774353 0.992347002029419 -0.07474999874830246
vn 0.10681500285863876 0.99219298362731934 -0.0643720030784607
vn 0.11546800285577774 0.99227297306060791 -0.045412998646497726
vn 0.095044001936912537 0.99274098873138428 -0.073707997798919678
vn 0.094967000186443329 0.99090701341629028 -0.095306999981403351
vn 0.084312997758388519 0.99495500326156616 -0.054375000298023224
vn 0.039576001465320587 0.99920499324798584 -0.0047869998961687088
vn 0.075485996901988983 0.99576199054718018 -0.052540998905897141
vn 0.08488599956035614 0.9947659969329834 -0.0568699985742569
vn 0.083626002073287964 0.99557101726531982 -0.042954001575708389
vn 0.13748300075531006 0.98863297700881958 -0.060860000550746918
vn 0.12115699797868729 0.99226397275924683 -0.027058999985456467
vn 0.13937699794769287 0.989844024181366 -0.02797199971973896
vn 0.13206200301647186 0.99104601144790649 -0.01968500018119812
vn 0.13095499575138092 0.99121701717376709 -0.018420999869704247
vn 0.10091999918222427 0.99447101354599 -0.029013000428676605
vn 0.10775700211524963 0.994147002696991 0.0077120000496506691
vn 0.079364001750946045 0.99619001150131226 -0.036155998706817627
vn 0.070688001811504364 0.996990978717804 -0.031814001500606537
vn 0.096983000636100769 0.99469602108001709 -0.034276999533176422
vn 0.088408999145030975 0.99350202083587646 -0.0716710016131401
vn 0.088128998875617981 0.99317198991775513 -0.0764319971203804
vn 0.058030001819133759 0.997393012046814 -0.042892001569271088
vn 0.066912002861499786 0.99711698293685913 -0.035785999149084091
vn 0.0838719978928566 0.99577599763870239 -0.037356998771429062
vn 0.046989999711513519 0.99842697381973267 -0.03060000017285347
f 1/1/1 2/2/2 3/3/3
f 4/4/4 5/5/5 6/6/6
f 7/7/7 8/8/8 9/9/9
f 7/7/7 10/10/10 8/8/8
f 8/8/8 11/11/11 9/9/9
f 12/12/12 9/9/9 11/11/11
f 12/12/12 13/13/13 9/9/9
f 6/6/6 1/1/1 3/3/3
f 6/6/6 5/5/5 1/1/1
f 7/7/7 3/3/3 2/2/2
f 7/7/7 9/9/9 3/3/3
f 14/14/14 6/6/6 15/15/15
f 14/14/14 16/16/16 6/6/6
f 17/17/17 6/6/6 3/3/3
f 16/16/16 4/4/4 6/6/6
f 18/18/18 3/3/3 9/9/9
f 14/14/14 15/15/15 19/19/19
f 20/20/20 15/15/15 21/21/21
f 22/22/22 15/15/15 20/20/20
f 22/22/22 19/19/19 15/15/15
f 22/22/22 23/23/23 19/19/19
f 15/15/15 6/6/6 24/24/24
f 25/25/25 13/13/13 12/12/12
f 18/18/18 13/13/13 26/26/26
f 18/18/18 17/17/17 3/3/3
f 24/24/24 17/17/17 27/27/27
f 24/24/24 21/21/21 15/15/15
f 24/24/24 28/28/28 21/21/21
f 28/28/28 24/24/24 29/29/29
f 6/6/6 17/17/17 24/24/24
f 17/17/17 18/18/18 30/30/30
f 13/13/13 18/18/18 9/9/9
f 31/31/31 32/32/32 33/33/33
f 31/31/31 34/34/34 32/32/32
f 31/31/31 26/26/26 13/13/13
f 18/18/18 26/26/26 30/30/30
f 13/13/13 34/34/34 31/31/31
f 13/13/13 35/35/35 34/34/34
f 30/30/30 26/26/26 36/36/36
f 30/30/30 27/27/27 17/17/17
f 37/37/37 27/27/27 38/38/38
f 29/29/29 27/27/27 37/37/37
f 29/29/29 24/24/24 27/27/27
f 27/27/27 30/30/30 39/39/39
f 26/26/26 31/31/31 40/40/40
f 35/35/35 13/13/13 25/25/25
f 32/32/32 41/41/41 33/33/33
f 31/31/31 33/33/33 40/40/40
f 41/41/41 42/42/42 33/33/33
f 41/41/41 43/43/43 42/42/42
f 43/43/43 44/44/44 42/42/42
f 43/43/43 45/45/45 44/44/44
f 33/33/33 46/46/46 40/40/40
f 33/33/33 42/42/42 46/46/46
f 47/47/47 44/44/44 45/45/45
f 48/48/48 40/40/40 46/46/46
f 49/49/49 36/36/36 50/50/50
f 49/49/49 39/39/39 36/36/36
f 30/30/30 36/36/36 39/39/39
f 51/51/51 27/27/27 39/39/39
f 51/51/51 38/38/38 27/27/27
f 52/52/52 39/39/39 53/53/53
f 52/52/52 51/51/51 39/39/39
f 54/54/54 55/55/55 36/36/36
f 55/55/55 50/50/50 36/36/36
f 56/56/56 39/39/39 49/49/49
f 56/56/56 53/53/53 39/39/39
f 48/48/48 36/36/36 40/40/40
f 48/48/48 54/54/54 36/36/36
f 36/36/36 26/26/26 40/40/40
