mtllib m21111223.mtl
usemtl material0
v -112 5.9024219512939453 -126.20040082931519
v -111.50348711013794 5.9992280006408691 -128
v -112 5.9703178405761719 -128
v -106.29878211021423 5.758732795715332 -118.36681401729584
v -110.80588483810425 6.0251669883728027 -128
v -110.28826904296875 5.6158490180969238 -118.15568494796753
v -110.08324384689331 6.04939079284668 -128
v -103.63961800932884 6.6186060905456543 -128
v -106.08855390548706 5.6890411376953125 -114.37781476974487
v -112 5.5482578277587891 -118.06507098674774
v -112 5.4789462089538574 -115.89532518386841
v -110.07827806472778 5.4963531494140625 -114.16650390625
v -112 5.4805359840393066 -112
v -112 5.4811091423034668 -112.03059387207031
v -109.96411895751953 5.4542570114135742 -112
v -112 5.4653749465942383 -113.0950779914856
v -112 5.4510421752929688 -114.06487989425659
v -105.96358501911163 5.5793991088867188 -112
v -108.22814893722534 5.5360817909240723 -112
v -104.42868000268936 5.64452600479126 -112
v -102.09889197349548 5.8685398101806641 -114.58907318115234
v -102.30837202072144 6.091062068939209 -118.57860600948334
v -98.318511962890625 6.3105959892272949 -118.79000902175903
v -102.80272698402405 6.68531608581543 -128
v -101.93583703041077 6.7299928665161133 -128
v -96 7.1728072166442871 -128
v -96 7.1120691299438477 -127.18839311599731
v -98.110153198242188 5.8585848808288574 -114.79967498779297
v -96 6.376884937286377 -118.91265094280243
v -96 6.1026229858398438 -116.70242309570313
v -100.62929511070252 5.7074551582336426 -112
v -101.96299004554749 5.7149410247802734 -112
v -97.963965892791748 5.539391040802002 -112
v -96 5.8985161781311035 -114.91123199462891
v -96 5.7320699691772461 -113.37490797042847
v -96 5.680595874786377 -112.89979600906372
v -96 5.5771069526672363 -112
vt 0.11247500032186508 0
vt 0 0.031032025814056396
vt 0 0
vt 0.6020740270614624 0.35632598400115967
vt 0 0.074631989002227783
vt 0.61527001857757568 0.1069830060005188
vt 0 0.1197969913482666
vt 0 0.52252399921417236
vt 0.85138702392578125 0.36946499347686768
vt 0.62093299627304077 0
vt 0.75654202699661255 0
vt 0.8645939826965332 0.12010800838470459
vt 1 0
vt 0.998088002204895 0
vt 1 0.12724298238754273
vt 0.93155801296234131 0
vt 0.87094497680664062 0
vt 1 0.37727600336074829
vt 1 0.2357410192489624
vt 1 0.47320699691772461
vt 0.83818298578262329 0.618818998336792
vt 0.58883702754974365 0.60572698712348938
vt 0.57562398910522461 0.85509300231933594
vt 0 0.57482999563217163
vt 0 0.62900999188423157
vt 0 1
vt 0.050725001841783524 1
vt 0.82502001523971558 0.86811499297618866
vt 0.5679590106010437 1
vt 0.70609897375106812 1
vt 1 0.71066901087760925
vt 1 0.62731298804283142
vt 1 0.877251997590065
vt 0.81804800033569336 1
vt 0.91406798362731934 1
vt 0.943763017654419 1
vt 1 1
vn -0.040924001485109329 0.99826198816299438 0.042408999055624008
vn -0.037774000316858292 0.99834901094436646 0.043281998485326767
vn -0.058086998760700226 0.99760198593139648 0.037638001143932343
vn -0.066660001873970032 0.99643802642822266 0.0516589991748333
vn -0.033941999077796936 0.9984850287437439 0.043301001191139221
vn -0.036890998482704163 0.99863797426223755 0.036894001066684723
vn -0.082367002964019775 0.99464899301528931 0.062369998544454575
vn -0.084193997085094452 0.99429398775100708 0.065511003136634827
vn -0.047630999237298965 0.99827498197555542 0.034331999719142914
vn -0.037216998636722565 0.99843597412109375 0.04172699898481369
vn -0.034127000719308853 0.99902898073196411 0.027876000851392746
vn -0.035234998911619186 0.99910801649093628 0.0232549998909235
vn 0.012903999537229538 0.99974101781845093 0.018744999542832375
vn -0.023312000557780266 0.99963200092315674 -0.01384000014513731
vn -0.031720999628305435 0.99927401542663574 0.021088000386953354
vn -0.024351000785827637 0.99959397315979 -0.014774000272154808
vn -0.023314999416470528 0.99971598386764526 0.004844999872148037
vn -0.028497999534010887 0.998462975025177 0.047536998987197876
vn -0.0312460009008646 0.99885797500610352 0.036139000207185745
vn -0.037895001471042633 0.99791502952575684 0.05224199965596199
vn -0.017697000876069069 0.9982600212097168 0.056249000132083893
vn -0.0558990016579628 0.99633800983428955 0.064699999988079071
vn -0.052868001163005829 0.99524897336959839 0.0817589983344078
vn -0.055477999150753021 0.996291995048523 0.065751999616622925
vn -0.071286000311374664 0.99475902318954468 0.073297001421451569
vn -0.074187003076076508 0.99446302652359009 0.07442300021648407
vn -0.028301000595092773 0.99578702449798584 0.087217003107070923
vn -0.0070279999636113644 0.9956430196762085 0.092978999018669128
vn -0.023383999243378639 0.99512600898742676 0.09579700231552124
vn -0.015432000160217285 0.993120014667511 0.11607799679040909
vn 0.025418000295758247 0.99673199653625488 0.076676003634929657
vn -0.016530999913811684 0.99805700778961182 0.060077998787164688
vn 0.027969999238848686 0.99333798885345459 0.11179099977016449
vn -0.012954999692738056 0.99377298355102539 0.11066699773073196
vn -0.013117999769747257 0.99409699440002441 0.10770100355148315
vn -0.017017999663949013 0.99356400966644287 0.11198300123214722
vn -0.019075000658631325 0.99326997995376587 0.11423999816179276
f 1/1/1 2/2/2 3/3/3
f 4/4/4 5/5/5 6/6/6
f 4/4/4 7/7/7 5/5/5
f 7/7/7 4/4/4 8/8/8
f 4/4/4 6/6/6 9/9/9
f 10/10/10 2/2/2 1/1/1
f 10/10/10 6/6/6 2/2/2
f 6/6/6 5/5/5 2/2/2
f 6/6/6 11/11/11 12/12/12
f 6/6/6 10/10/10 11/11/11
f 13/13/13 12/12/12 14/14/14
f 13/13/13 15/15/15 12/12/12
f 16/16/16 12/12/12 17/17/17
f 16/16/16 14/14/14 12/12/12
f 18/18/18 9/9/9 19/19/19
f 15/15/15 9/9/9 12/12/12
f 15/15/15 19/19/19 9/9/9
f 9/9/9 20/20/20 21/21/21
f 9/9/9 18/18/18 20/20/20
f 6/6/6 12/12/12 9/9/9
f 11/11/11 17/17/17 12/12/12
f 22/22/22 4/4/4 9/9/9
f 23/23/23 24/24/24 22/22/22
f 23/23/23 25/25/25 24/24/24
f 26/26/26 23/23/23 27/27/27
f 26/26/26 25/25/25 23/23/23
f 23/23/23 22/22/22 28/28/28
f 9/9/9 21/21/21 22/22/22
f 8/8/8 22/22/22 24/24/24
f 8/8/8 4/4/4 22/22/22
f 29/29/29 27/27/27 23/23/23
f 29/29/29 23/23/23 30/30/30
f 21/21/21 31/31/31 28/28/28
f 21/21/21 32/32/32 31/31/31
f 33/33/33 28/28/28 31/31/31
f 30/30/30 28/28/28 34/34/34
f 30/30/30 23/23/23 28/28/28
f 34/34/34 28/28/28 35/35/35
f 35/35/35 28/28/28 36/36/36
f 28/28/28 22/22/22 21/21/21
f 37/37/37 28/28/28 33/33/33
f 37/37/37 36/36/36 28/28/28
f 32/32/32 21/21/21 20/20/20
