mtllib m2111202.mtl
usemtl material0
v -256 4.8999700546264648 -186.45643615722656
v -256 5.1988730430603027 -180.0099949836731
v -249.9117431640625 4.817965030670166 -186.77767944335938
v -256 4.8077230453491211 -188.45634460449219
v -252.81208801269531 4.6090898513793945 -192
v -256 4.7082009315490723 -192
v -250.18862915039063 4.58013916015625 -192
v -245.21371507644653 4.5130758285522461 -192
v -249.48812866210938 5.329132080078125 -178.80194091796875
v -241.93505895137787 4.6328639984130859 -187.19830322265625
v -256 5.2976679801940918 -178.45796203613281
v -242.1894679069519 4.4491767883300781 -192
v -237.61526489257813 4.4483041763305664 -192
v -241.51237499713898 4.951653003692627 -179.2218930721283
v -233.95903015136719 4.3154230117797852 -187.61846923828125
v -241.0896760225296 5.2728629112243652 -171.24549913406372
v -256 5.3736348152160645 -177.06234705448151
v -249.06486511230469 5.7665519714355469 -170.82594299316406
v -256 5.6137819290161133 -170.45922899246216
v -256 5.5411200523376465 -163.11813354492188
v -256 5.5041561126708984 -160
v -251.20683288574219 5.5481472015380859 -160
v -256 5.52401876449585 -162.14741516113281
v -248.64453125 5.5980072021484375 -162.84783935546875
v -256 5.52690315246582 -162.45918273925781
v -248.49449157714844 5.538881778717041 -160
v -243.60833692550659 5.5186018943786621 -160
v -240.66708397865295 5.5735478401184082 -163.26902770996094
v -240.49421700835228 5.6319308280944824 -160
v -232.691162109375 5.2307171821594238 -163.68910217285156
v -236.00991797447205 5.4439229965209961 -160
v -233.11372423171997 4.9388208389282227 -171.66560411453247
v -233.53736877441406 4.4223008155822754 -179.64132690429688
v -234.19035291671753 4.3124918937683105 -192
v -230.01718139648438 4.1801252365112305 -192
v -225.98320007324219 3.9549961090087891 -188.03848266601563
v -226.19209289550781 4.0052018165588379 -192
v -224 3.8813920021057129 -192
v -224 3.8643569946289062 -190.24295043945313
v -225.56167602539063 4.0340418815612793 -180.06124877929688
v -224 3.9884140491485596 -181.79710388183594
v -224 3.9197659492492676 -188.14309692382813
v -224 3.8959119319915771 -189.04708862304688
v -224 3.925307035446167 -180.14335584640503
v -224 3.9360170364379883 -178.65544104576111
v -225.1387939453125 4.393826961517334 -172.08497595787048
v -224.71533203125 4.8741960525512695 -164.10914611816406
v -224 4.2671680450439453 -172.14471411705017
v -224 4.3175067901611328 -171.05981397628784
v -224.49720764160156 5.1113548278808594 -160
v -228.41172790527344 5.229039192199707 -160
v -232.49556016921997 5.4011697769165039 -160
v -224 4.780609130859375 -164.1466064453125
v -224 5.0292692184448242 -160.29025268554688
v -224 5.0479850769042969 -160
vt 0.79705899953842163 0.00818699598312378
vt 0.60324198007583618 0.014777004718780518
vt 0.81302899122238159 0.19071799516677856
vt 0.85718697309494019 0.0061420202255249023
vt 0.9670339822769165 0.098267972469329834
vt 0.96365600824356079 0.0024809837341308594
vt 0.96975302696228027 0.17706298828125
vt 0.97492700815200806 0.32648801803588867
vt 0.57342898845672607 0.2115970253944397
vt 0.83413499593734741 0.42989301681518555
vt 0.55653399229049683 0.016363978385925293
vt 0.97818797826766968 0.41728800535202026
vt 0.9830549955368042 0.55449798703193665
vt 0.59483200311660767 0.4509199857711792
vt 0.85546600818634033 0.66915300488471985
vt 0.35552498698234558 0.47194498777389526
vt 0.51455700397491455 0.017786979675292969
vt 0.33395200967788696 0.23244297504425049
vt 0.31610798835754395 0.024459004402160645
vt 0.095606997609138489 0.031639993190765381
vt 0.0019460000330582261 0.034677982330322266
vt 0.0065999999642372131 0.17864799499511719
vt 0.066446997225284576 0.032598018646240234
vt 0.094815000891685486 0.25431597232818604
vt 0.0758109986782074 0.032293021678924561
vt 0.0094400001689791679 0.26197302341461182
vt 0.014832999557256699 0.40870797634124756
vt 0.11626999825239182 0.49342000484466553
vt 0.018280999734997749 0.50228899717330933
vt 0.13749800622463226 0.73239099979400635
vt 0.023243999108672142 0.63707301020622253
vt 0.37676098942756653 0.711230993270874
vt 0.61633801460266113 0.69047099351882935
vt 0.98679602146148682 0.65743198990821838
vt 0.99135100841522217 0.782820001244545
vt 0.87689697742462158 0.908451996743679
vt 0.99563801288604736 0.89774399995803833
vt 0.998054027557373 0.9636790007352829
vt 0.94528698921203613 0.96564200147986412
vt 0.63777899742126465 0.92980500310659409
vt 0.69162297248840332 0.97481900081038475
vt 0.88221102952957153 0.96790400147438049
vt 0.90936899185180664 0.96692600101232529
vt 0.64192700386047363 0.97673000022768974
vt 0.59740900993347168 0.97841900028288364
vt 0.39845401048660278 0.95079400017857552
vt 0.15891100466251373 0.97168700024485588
vt 0.40161800384521484 0.98512899968773127
vt 0.36904600262641907 0.98629999998956919
vt 0.035519000142812729 0.98246899992227554
vt 0.031286001205444336 0.8648580014705658
vt 0.026788000017404556 0.74210798740386963
vt 0.16095000505447388 0.993300000205636
vt 0.044886000454425812 0.99722300004214048
vt 0.0361500009894371 0.99751899996772408
vn 0.011017000302672386 0.99887198209762573 -0.046197999268770218
vn -0.003708000062033534 0.99822002649307251 -0.059519000351428986
vn 0.012366999872028828 0.99856001138687134 -0.052193999290466309
vn 0.015693999826908112 0.99899899959564209 -0.041877999901771545
vn 0.01636900007724762 0.99901401996612549 -0.041271999478340149
vn 0.031062999740242958 0.99912399053573608 -0.028060000389814377
vn 0.01220299955457449 0.99886101484298706 -0.046135000884532928
vn 0.019068000838160515 0.99896997213363647 -0.0411669984459877
vn 0.017095999792218208 0.99831598997116089 -0.05544000118970871
vn 0.027734000235795975 0.99886000156402588 -0.038851000368595123
vn -0.0079290000721812248 0.99823898077011108 -0.058784998953342438
vn 0.010998999699950218 0.99918597936630249 -0.0388059988617897
vn 0.029108000919222832 0.99950098991394043 -0.012230000458657742
vn 0.051341000944375992 0.997901976108551 -0.039445001631975174
vn 0.04352400079369545 0.99899202585220337 -0.010971000418066979
vn 0.043648999184370041 0.9982950091362 -0.038759000599384308
vn -0.012024999596178532 0.99869900941848755 -0.049550000578165054
vn 0.022649999707937241 0.99959200620651245 -0.017409000545740128
vn -0.022678999230265617 0.9996650218963623 -0.012450999580323696
vn -0.011549999937415123 0.99975597858428955 0.018846999853849411
vn -0.0091770002618432045 0.99991500377655029 0.0092489998787641525
vn -0.0058180000633001328 0.9999079704284668 0.012272000312805176
vn -0.0091770002618432045 0.99991500377655029 0.0092489998787641525
vn 0.0061719999648630619 0.99991202354431152 0.011765999719500542
vn -0.0088619999587535858 0.999845027923584 0.015201999805867672
vn 0.0037950000260025263 0.99978101253509521 0.020556999370455742
vn -0.0066610001958906651 0.99991899728775024 0.010812999680638313
vn 0.016787000000476837 0.99957901239395142 -0.023680999875068665
vn 0.0040759998373687267 0.99982798099517822 -0.018071999773383141
vn 0.040913000702857971 0.99824100732803345 -0.042902998626232147
vn 0.033955000340938568 0.99905300140380859 -0.027193000540137291
vn 0.05226600170135498 0.99720299243927 -0.053431000560522079
vn 0.054476000368595123 0.99786901473999023 -0.035923000425100327
vn 0.035796001553535461 0.9993559718132019 -0.0025579999200999737
vn 0.041953999549150467 0.99909597635269165 0.0068919998593628407
vn 0.036355998367071152 0.99932199716567993 -0.0057470002211630344
vn 0.050852999091148376 0.99865597486495972 0.0099750002846121788
vn 0.056386999785900116 0.99836200475692749 0.0096800001338124275
vn 0.047067001461982727 0.99889099597930908 0.0012720000231638551
vn 0.056770998984575272 0.99821001291275024 -0.018798999488353729
vn 0.029874000698328018 0.99955397844314575 0.00060199998551979661
vn 0.016764000058174133 0.99968200922012329 -0.018858000636100769
vn 0.016364000737667084 0.99951797723770142 -0.026374999433755875
vn 0.070295996963977814 0.99739497900009155 0.016171000897884369
vn 0.09746299684047699 0.99447798728942871 -0.038926001638174057
vn 0.08350999653339386 0.99504697322845459 -0.05392099916934967
vn 0.082460999488830566 0.99468898773193359 -0.061597999185323715
vn 0.10790500044822693 0.99298399686813354 -0.048370998352766037
vn 0.12120299786329269 0.990759015083313 -0.060878001153469086
vn 0.079655997455120087 0.99491399526596069 -0.061650000512599945
vn 0.038846001029014587 0.99793100357055664 -0.051231998950242996
vn 0.027602000162005424 0.9984850287437439 -0.04759800061583519
vn 0.1260949969291687 0.98987901210784912 -0.0651170015335083
vn 0.12617200613021851 0.98995298147201538 -0.063831999897956848
vn 0.12617300450801849 0.989952027797699 -0.063831999897956848
f 1/1/1 2/2/2 3/3/3
f 4/4/4 5/5/5 6/6/6
f 1/1/1 5/5/5 4/4/4
f 1/1/1 3/3/3 5/5/5
f 3/3/3 7/7/7 5/5/5
f 7/7/7 3/3/3 8/8/8
f 3/3/3 9/9/9 10/10/10
f 11/11/11 3/3/3 2/2/2
f 11/11/11 9/9/9 3/3/3
f 10/10/10 8/8/8 3/3/3
f 10/10/10 12/12/12 8/8/8
f 12/12/12 10/10/10 13/13/13
f 14/14/14 15/15/15 10/10/10
f 14/14/14 10/10/10 9/9/9
f 14/14/14 9/9/9 16/16/16
f 9/9/9 17/17/17 18/18/18
f 9/9/9 11/11/11 17/17/17
f 19/19/19 20/20/20 18/18/18
f 21/21/21 22/22/22 23/23/23
f 23/23/23 24/24/24 25/25/25
f 23/23/23 22/22/22 24/24/24
f 20/20/20 24/24/24 18/18/18
f 20/20/20 25/25/25 24/24/24
f 18/18/18 24/24/24 16/16/16
f 26/26/26 24/24/24 22/22/22
f 17/17/17 19/19/19 18/18/18
f 27/27/27 24/24/24 26/26/26
f 27/27/27 28/28/28 24/24/24
f 29/29/29 28/28/28 27/27/27
f 24/24/24 28/28/28 16/16/16
f 29/29/29 30/30/30 28/28/28
f 29/29/29 31/31/31 30/30/30
f 16/16/16 28/28/28 32/32/32
f 9/9/9 18/18/18 16/16/16
f 14/14/14 16/16/16 33/33/33
f 15/15/15 13/13/13 10/10/10
f 15/15/15 34/34/34 13/13/13
f 34/34/34 15/15/15 35/35/35
f 36/36/36 15/15/15 33/33/33
f 35/35/35 36/36/36 37/37/37
f 35/35/35 15/15/15 36/36/36
f 38/38/38 36/36/36 39/39/39
f 38/38/38 37/37/37 36/36/36
f 36/36/36 33/33/33 40/40/40
f 33/33/33 15/15/15 14/14/14
f 41/41/41 36/36/36 40/40/40
f 41/41/41 42/42/42 36/36/36
f 43/43/43 36/36/36 42/42/42
f 43/43/43 39/39/39 36/36/36
f 41/41/41 40/40/40 44/44/44
f 44/44/44 40/40/40 45/45/45
f 40/40/40 33/33/33 46/46/46
f 30/30/30 32/32/32 28/28/28
f 32/32/32 30/30/30 46/46/46
f 46/46/46 30/30/30 47/47/47
f 45/45/45 46/46/46 48/48/48
f 45/45/45 40/40/40 46/46/46
f 48/48/48 46/46/46 49/49/49
f 46/46/46 33/33/33 32/32/32
f 50/50/50 47/47/47 51/51/51
f 52/52/52 47/47/47 30/30/30
f 52/52/52 51/51/51 47/47/47
f 50/50/50 53/53/53 47/47/47
f 50/50/50 54/54/54 53/53/53
f 54/54/54 50/50/50 55/55/55
f 49/49/49 47/47/47 53/53/53
f 49/49/49 46/46/46 47/47/47
f 52/52/52 30/30/30 31/31/31
f 32/32/32 33/33/33 16/16/16
