mtllib m2111220.mtl
usemtl material0
v -256 4.634307861328125 -222.23910522460938
v -254.41555786132813 4.7262058258056641 -224
v -256 4.7239761352539062 -224
v -256 4.12299919128418 -218.45294189453125
v -251.60148620605469 3.749161958694458 -218.68400573730469
v -251.87838745117188 4.4925680160522461 -224
v -256 4.0127358436584473 -213.79466199874878
v -246.81721496582031 4.6046948432922363 -224
v -251.18112182617188 3.5880529880523682 -210.70593309402466
v -243.62207007408142 4.1280159950256348 -219.10661315917969
v -256 3.9589509963989258 -210.45265197753906
v -256 4.0408930778503418 -207.44636499881744
v -250.75907897949219 3.7736001014709473 -202.72906494140625
v -256 3.9590559005737305 -202.45289611816406
v -256 4.4265828132629395 -196.90266418457031
v -256 4.7082009315490723 -192
v -252.81208801269531 4.6090898513793945 -192
v -256 4.6702070236206055 -193.352858543396
v -250.334641456604 4.4547238349914551 -194.75392246246338
v -256 4.6392440795898438 -194.45535278320313
v -243.20362901687622 3.5728719234466553 -211.12715101242065
v -243.87741088867188 4.7249488830566406 -224
v -242.78184509277344 3.7042200565338135 -203.15008497238159
v -235.64321899414063 4.3940610885620117 -219.52882385253906
v -235.22540283203125 3.7065949440002441 -211.54888892173767
v -239.2186890244484 4.5969090461730957 -224
v -250.18862915039063 4.58013916015625 -192
v -245.21371507644653 4.5130758285522461 -192
v -242.35768103599548 4.3277292251586914 -195.17475891113281
v -242.1894679069519 4.4491767883300781 -192
v -234.38020277023315 4.3100872039794922 -195.59596252441406
v -237.61526489257813 4.4483041763305664 -192
v -234.80364990234375 3.8320839405059814 -203.57180786132813
v -235.87773084640503 4.6960911750793457 -224
v -231.61997985839844 4.6879158020019531 -224
v -227.8782958984375 4.6230387687683105 -224
v -227.66615295410156 4.2899770736694336 -219.94972229003906
v -227.24723815917969 3.831510066986084 -211.97061204910278
v -224 4.3597087860107422 -220.1435546875
v -224 4.0936369895935059 -215.57932996749878
v -224 3.8008599281311035 -212.14198303222656
v -226.82626342773438 3.7958691120147705 -203.99296617507935
v -224 3.7810380458831787 -207.13430798053742
v -226.40385437011719 4.0561032295227051 -196.016357421875
v -234.19035291671753 4.3124918937683105 -192
v -230.01718139648438 4.1801252365112305 -192
v -226.19209289550781 4.0052018165588379 -192
v -224 3.9215590953826904 -196.14286804199219
v -224 3.8968400955200195 -193.59332275390625
v -224 3.8813920021057129 -192
v -224 3.8994541168212891 -198.68849182128906
v -224 3.7136549949645996 -204.1419370174408
v -224 4.65583610534668 -223.71141147613525
v -224 4.6797881126403809 -224
vt 0.9429900050163269 0.0074620246887207031
vt 0.99750000238418579 0.0564500093460083
vt 0.99750000238418579 0.0074660181999206543
vt 0.82487702369689941 0.00789499282836914
vt 0.83091002702713013 0.14442199468612671
vt 0.99682199954986572 0.13521701097488403
vt 0.68082600831985474 0.0070139765739440918
vt 0.99791198968887329 0.291720986366272
vt 0.58413302898406982 0.15579497814178467
vt 0.84640198945999146 0.39124798774719238
vt 0.57749497890472412 0.0063189864158630371
vt 0.48452401161193848 0.00538402795791626
vt 0.33733999729156494 0.16640102863311768
vt 0.33013099431991577 0.004208981990814209
vt 0.15794500708580017 0.0023180246353149414
vt 0.0060700001195073128 0.00070899724960327148
vt 0.0050940001383423805 0.099308013916015625
vt 0.0479080006480217 0.0011600255966186523
vt 0.089818000793457031 0.17818397283554077
vt 0.082005001604557037 0.0014780163764953613
vt 0.59712398052215576 0.40242701768875122
vt 0.99876898527145386 0.38267898559570312
vt 0.349155992269516 0.41309201717376709
vt 0.856257975101471 0.63820600509643555
vt 0.60854697227478027 0.64919298887252808
vt 0.99893099069595337 0.52676001191139221
vt 0.0045699998736381531 0.18227601051330566
vt 0.003903999924659729 0.33609098196029663
vt 0.10177499800920486 0.4248809814453125
vt 0.0035300001036375761 0.42960798740386963
vt 0.11354400217533112 0.67157301306724548
vt 0.0028119999915361404 0.57102000713348389
vt 0.36074000597000122 0.65984699130058289
vt 0.99487501382827759 0.63251298666000366
vt 0.99337899684906006 0.76413600146770477
vt 0.99271202087402344 0.879381000995636
vt 0.86702501773834229 0.88495100289583206
vt 0.61984497308731079 0.89595899730920792
vt 0.87224102020263672 0.99835200002416968
vt 0.73089998960495 0.99723899993114173
vt 0.62425100803375244 0.99639700003899634
vt 0.37219101190567017 0.9065530002117157
vt 0.46855500340461731 0.99475899990648031
vt 0.12537899613380432 0.91801299899816513
vt 0.0023469999432563782 0.676921010017395
vt 0.0017470000311732292 0.8059999942779541
vt 0.0013599999947473407 0.92437800019979477
vt 0.12892000377178192 0.99246500013396144
vt 0.050096999853849411 0.992115999571979
vt 0.0010689999908208847 0.99225600017234683
vt 0.20762200653553009 0.99289399990811944
vt 0.37602400779724121 0.99400300020352006
vt 0.98296201229095459 0.99921999999787658
vt 0.99191397428512573 0.99929100001463667
vn 0.069447003304958344 0.99102699756622314 0.11420799791812897
vn 0.066275998950004578 0.99156498908996582 0.11138200014829636
vn -0.0014059999957680702 0.99870502948760986 0.050856001675128937
vn 0.088449001312255859 0.99310302734375 0.076963998377323151
vn 0.023806000128388405 0.99676001071929932 0.07682500034570694
vn 0.036541998386383057 0.98996102809906006 0.13653600215911865
vn 0.079516999423503876 0.99667400121688843 0.017805999144911766
vn -0.035578999668359756 0.99119997024536133 0.12749899923801422
vn 0.033325999975204468 0.99944001436233521 0.0028810000512748957
vn -0.022952999919652939 0.99623197317123413 0.083636999130249023
vn 0.076410003006458282 0.99705702066421509 -0.006289999932050705
vn 0.064885996282100677 0.9977719783782959 -0.015552000142633915
vn 0.023413000628352165 0.99852198362350464 -0.049038000404834747
vn 0.033472999930381775 0.99880802631378174 -0.035519000142812729
vn 0.028558999300003052 0.9958919882774353 -0.085923001170158386
vn 0.031062999740242958 0.99912399053573608 -0.028060000389814377
vn 0.025717999786138535 0.99912899732589722 -0.032868999987840652
vn 0.031062999740242958 0.99912399053573608 -0.028060000389814377
vn 0.017593000084161758 0.99786102771759033 -0.062959998846054077
vn 0.029535999521613121 0.99797600507736206 -0.05630899965763092
vn -0.0071499999612569809 0.9995800256729126 0.02807299979031086
vn -0.00774900009855628 0.992563009262085 0.12148500233888626
vn -0.0053730001673102379 0.99884599447250366 -0.047736000269651413
vn -0.00583800021559 0.99703800678253174 0.076682999730110168
vn -0.010846000164747238 0.99942898750305176 0.0320109985768795
vn -0.01436999998986721 0.99648302793502808 0.08255399763584137
vn 0.012284999713301659 0.9988589882850647 -0.046140000224113464
vn 0.015503999777138233 0.998894989490509 -0.044369999319314957
vn 0.0046790000051259995 0.99836397171020508 -0.0569860003888607
vn 0.010301000438630581 0.99919497966766357 -0.038770001381635666
vn 0.019807999953627586 0.99915599822998047 -0.035990998148918152
vn 0.010711000300943852 0.99952799081802368 -0.02878200076520443
vn -0.0043730000033974648 0.99941498041152954 -0.0339060015976429
vn -0.014360999688506126 0.99757200479507446 0.068140000104904175
vn 0.013174000196158886 0.99691498279571533 0.077373996376991272
vn 0.0018789999885484576 0.996641993522644 0.081857003271579742
vn -0.00267999991774559 0.99730199575424194 0.073365002870559692
vn -0.0024369999300688505 0.99948197603225708 0.032083000987768173
vn -0.015223000198602676 0.99736899137496948 0.07087399810552597
vn -0.0089739998802542686 0.99788302183151245 0.064407996833324432
vn 0.011845000088214874 0.99888098239898682 0.045791000127792358
vn 0.013704000040888786 0.99983000755310059 -0.012341000139713287
vn 0.014456000179052353 0.99986100196838379 0.00828499998897314
vn 0.03803899884223938 0.99918198585510254 -0.013704000040888786
vn 0.035530000925064087 0.999364972114563 -0.00254400004632771
vn 0.035431999713182449 0.99937200546264648 0.0010169999441131949
vn 0.0512159988284111 0.99863797426223755 0.0099560003727674484
vn 0.055893000215291977 0.99843698740005493 0.00019799999427050352
vn 0.056387998163700104 0.99836200475692749 0.00967899989336729
vn 0.056386999785900116 0.99836200475692749 0.00967899989336729
vn 0.033840999007225037 0.99903202056884766 -0.028123000636696815
vn 0.028822999447584152 0.9995729923248291 -0.0048190001398324966
vn -0.014581000432372093 0.9964669942855835 0.082704998552799225
vn -0.014581000432372093 0.9964669942855835 0.082704998552799225
f 1/1/1 2/2/2 3/3/3
f 4/4/4 2/2/2 1/1/1
f 4/4/4 5/5/5 2/2/2
f 5/5/5 6/6/6 2/2/2
f 7/7/7 5/5/5 4/4/4
f 6/6/6 5/5/5 8/8/8
f 5/5/5 9/9/9 10/10/10
f 11/11/11 5/5/5 7/7/7
f 11/11/11 9/9/9 5/5/5
f 9/9/9 12/12/12 13/13/13
f 9/9/9 11/11/11 12/12/12
f 14/14/14 15/15/15 13/13/13
f 16/16/16 17/17/17 18/18/18
f 18/18/18 19/19/19 20/20/20
f 18/18/18 17/17/17 19/19/19
f 20/20/20 13/13/13 15/15/15
f 20/20/20 19/19/19 13/13/13
f 12/12/12 14/14/14 13/13/13
f 21/21/21 9/9/9 13/13/13
f 8/8/8 10/10/10 22/22/22
f 8/8/8 5/5/5 10/10/10
f 13/13/13 23/23/23 21/21/21
f 21/21/21 24/24/24 10/10/10
f 23/23/23 25/25/25 21/21/21
f 19/19/19 23/23/23 13/13/13
f 22/22/22 10/10/10 26/26/26
f 9/9/9 21/21/21 10/10/10
f 27/27/27 19/19/19 17/17/17
f 19/19/19 28/28/28 29/29/29
f 19/19/19 27/27/27 28/28/28
f 30/30/30 29/29/29 28/28/28
f 30/30/30 31/31/31 29/29/29
f 30/30/30 32/32/32 31/31/31
f 23/23/23 19/19/19 29/29/29
f 23/23/23 29/29/29 33/33/33
f 34/34/34 24/24/24 35/35/35
f 24/24/24 26/26/26 10/10/10
f 24/24/24 34/34/34 26/26/26
f 36/36/36 24/24/24 37/37/37
f 36/36/36 35/35/35 24/24/24
f 33/33/33 25/25/25 23/23/23
f 25/25/25 33/33/33 38/38/38
f 38/38/38 37/37/37 25/25/25
f 39/39/39 38/38/38 40/40/40
f 39/39/39 37/37/37 38/38/38
f 41/41/41 42/42/42 43/43/43
f 41/41/41 38/38/38 42/42/42
f 42/42/42 38/38/38 33/33/33
f 24/24/24 25/25/25 37/37/37
f 42/42/42 33/33/33 44/44/44
f 45/45/45 31/31/31 32/32/32
f 31/31/31 46/46/46 44/44/44
f 31/31/31 45/45/45 46/46/46
f 46/46/46 47/47/47 44/44/44
f 48/48/48 44/44/44 49/49/49
f 49/49/49 47/47/47 50/50/50
f 49/49/49 44/44/44 47/47/47
f 33/33/33 31/31/31 44/44/44
f 51/51/51 42/42/42 44/44/44
f 51/51/51 52/52/52 42/42/42
f 31/31/31 33/33/33 29/29/29
f 43/43/43 42/42/42 52/52/52
f 51/51/51 44/44/44 48/48/48
f 40/40/40 38/38/38 41/41/41
f 53/53/53 37/37/37 39/39/39
f 53/53/53 36/36/36 37/37/37
f 53/53/53 54/54/54 36/36/36
f 25/25/25 24/24/24 21/21/21
