mtllib m21111022.mtl
usemtl material0
v -127.43501996994019 4.4005641937255859 -64
v -127.29041290283203 4.3441729545593262 -61.255455017089844
v -124.82144212722778 4.1723051071166992 -64
v -128 4.40859317779541 -61.218188762664795
v -128 4.4322018623352051 -62.720057964324951
v -128 4.4523220062255859 -64
v -123.43679809570313 4.066688060760498 -64
v -123.30310797691345 4.0412869453430176 -61.465045928955078
v -121.02264404296875 3.9025919437408447 -64
v -123.09326910972595 3.8904759883880615 -57.475764989852905
v -128 4.3995399475097656 -58.094985961914062
v -127.07999420166016 4.3134760856628418 -57.266589999198914
v -119.316192984581 3.6568560600280762 -61.674351215362549
v -119.43851500749588 3.74704909324646 -64
v -117.22394609451294 3.573430061340332 -64
v -115.44017791748047 3.4370241165161133 -64
v -115.32886505126953 3.3588440418243408 -61.883961200714111
v -113.42529296875 3.2211570739746094 -64
v -115.11862182617188 3.2920150756835938 -57.894970059394836
v -112 3.050091028213501 -62.058757781982422
v -112 3.0623691082000732 -62.695606231689453
v -112 3.0875179767608643 -64
v -112 3.0257270336151123 -58.886398077011108
v -119.10646802186966 3.4835829734802246 -57.684998035430908
v -128 4.2925858497619629 -54.294837951660156
v -126.87029314041138 4.134829044342041 -53.277214050292969
v -128 4.4074831008911133 -57.218307018280029
v -128 4.0601468086242676 -50.493706226348877
v -126.66052198410034 3.9713120460510254 -49.287890911102295
v -128 4.1673741340637207 -53.217663049697876
v -118.89546203613281 3.5739738941192627 -53.696552038192749
v -112 3.0157539844512939 -58.058773040771484
v -114.90763092041016 3.3770339488983154 -53.906506061553955
v -122.8823390007019 3.9642651081085205 -53.487262964248657
v -112 3.126176118850708 -55.087875008583069
v -118.68499004840851 3.5525450706481934 -49.707717895507812
v -112 3.1522350311279297 -54.05933403968811
v -114.69754791259766 3.2774820327758789 -49.917404174804688
v -112 3.1284220218658447 -52.915957927703857
v -128 4.022367000579834 -49.217319011688232
v -128 3.952009916305542 -48
v -126.59291791915894 3.8940939903259277 -48
v -128 3.9736208915710449 -48.373928070068359
v -118.59471094608307 3.578279972076416 -48
v -122.67173790931702 3.9706668853759766 -49.498528003692627
v -121.00737798213959 3.8287129402160645 -48
v -114.59589385986328 3.3631889820098877 -48
v -116.78725409507752 3.5087978839874268 -48
v -122.59280395507813 3.93583607673645 -48
v -125.22931718826294 3.9394879341125488 -48
v -112 3.2975080013275146 -50.059920787811279
v -112 3.275860071182251 -48
v -112.56641387939453 3.2719690799713135 -48
v -112 3.2827560901641846 -48.656227111816406
vt 0 0.035310983657836914
vt 0.17153400182724 0.044349014759063721
vt 0 0.19866001605987549
vt 0.1738629937171936 0
vt 0.079995997250080109 0
vt 0 0
vt 0 0.28519999980926514
vt 0.15843500196933746 0.29355597496032715
vt 0 0.43608498573303223
vt 0.40776500105857849 0.30667102336883545
vt 0.36906298995018005 0
vt 0.42083799839019775 0.057500004768371582
vt 0.14535300433635712 0.54273799061775208
vt 0 0.53509300947189331
vt 0 0.67350301146507263
vt 0 0.78498899936676025
vt 0.13225199282169342 0.79194599390029907
vt 0 0.91091900318861008
vt 0.38156399130821228 0.80508600175380707
vt 0.12132800370454788 1
vt 0.08152499794960022 1
vt 0 1
vt 0.319599986076355 1
vt 0.39468801021575928 0.55584600567817688
vt 0.60657298564910889 0
vt 0.6701740026473999 0.0706070065498352
vt 0.4238559901714325 0
vt 0.84414297342300415 0
vt 0.91950702667236328 0.0837169885635376
vt 0.67389601469039917 0
vt 0.64396500587463379 0.56903401017189026
vt 0.37132701277732849 1
vt 0.63084298372268677 0.81827299296855927
vt 0.65704602003097534 0.3198540210723877
vt 0.55700802803039551 1
vt 0.89326798915863037 0.58218801021575928
vt 0.621291995048523 1
vt 0.88016200065612793 0.83140300214290619
vt 0.6927530169487 1
vt 0.92391800880432129 0
vt 1 0
vt 1 0.087943017482757568
vt 0.97662901878356934 0
vt 1 0.58783099055290222
vt 0.9063420295715332 0.33301597833633423
vt 1 0.43703901767730713
vt 1 0.83775700628757477
vt 1 0.70079699158668518
vt 1 0.33794999122619629
vt 1 0.17316800355911255
vt 0.87125498056411743 1
vt 1 1
vt 1 0.964598998427391
vt 0.95898598432540894 1
vn 0.088072001934051514 0.99598801136016846 0.015823999419808388
vn 0.088105998933315277 0.99601399898529053 0.013883999548852444
vn 0.079777002334594727 0.9967690110206604 0.0093470001593232155
vn 0.09077800065279007 0.9958459734916687 0.0070329997688531876
vn 0.091216996312141418 0.99570798873901367 0.015652000904083252
vn 0.091216996312141418 0.99570798873901367 0.015652000904083252
vn 0.070819996297359467 0.99746900796890259 0.0062600001692771912
vn 0.088472001254558563 0.995710015296936 0.027103999629616737
vn 0.088298998773097992 0.99578100442886353 0.024952000007033348
vn 0.0903099998831749 0.99590098857879639 0.0049740001559257507
vn 0.091879002749919891 0.99576902389526367 0.0014130000490695238
vn 0.10468699783086777 0.99427300691604614 0.02150999940931797
vn 0.079019002616405487 0.99637299776077271 0.031578999012708664
vn 0.086277998983860016 0.99568802118301392 0.0340769998729229
vn 0.076760001480579376 0.99649298191070557 0.033309999853372574
vn 0.092293001711368561 0.99522000551223755 0.031915001571178436
vn 0.085188001394271851 0.99620699882507324 0.017710000276565552
vn 0.097419999539852142 0.994979977607727 0.02289699949324131
vn 0.068856999278068542 0.99762701988220215 0.00016799999866634607
vn 0.0929969996213913 0.99558800458908081 0.01248599961400032
vn 0.093336001038551331 0.99545001983642578 0.019192000851035118
vn 0.093336001038551331 0.99545001983642578 0.019192000851035118
vn 0.090452000498771667 0.99584800004959106 0.010219000279903412
vn 0.074423998594284058 0.99721002578735352 0.0057230000384151936
vn 0.093425996601581573 0.99434798955917358 0.050432998687028885
vn 0.062376998364925385 0.99773997068405151 0.02499300055205822
vn 0.10306499898433685 0.994280993938446 0.027984000742435455
vn 0.032365001738071442 0.99876797199249268 0.037627998739480972
vn 0.019237000495195389 0.99949502944946289 0.025306999683380127
vn 0.03195599839091301 0.997626006603241 0.061005000025033951
vn 0.0769060030579567 0.996999979019165 -0.0087339999154210091
vn 0.086836002767086029 0.99587398767471313 -0.02633499912917614
vn 0.058543998748064041 0.99825698137283325 -0.0075159999541938305
vn 0.06413000077009201 0.99793899059295654 -0.0023610000498592854
vn 0.079784996807575226 0.99636697769165039 -0.029775999486446381
vn 0.0851999968290329 0.99629300832748413 -0.011899000033736229
vn 0.07775600254535675 0.99688798189163208 0.012989000417292118
vn 0.049844998866319656 0.99875098466873169 -0.0034370000939816236
vn 0.01486899983137846 0.99923098087310791 -0.036295998841524124
vn 0.040199998766183853 0.99835997819900513 0.040750999003648758
vn 0.041057001799345016 0.99749201536178589 0.057649999856948853
vn 0.0090129999443888664 0.99819499254226685 0.05937499925494194
vn 0.041057001799345016 0.99749201536178589 0.057652000337839127
vn 0.088522002100944519 0.99588000774383545 -0.019687000662088394
vn 0.057491999119520187 0.99834102392196655 -0.0033130000811070204
vn 0.0890749990940094 0.99601399898529053 -0.0045810001902282238
vn 0.060796000063419342 0.99700599908828735 -0.047788999974727631
vn 0.053679998964071274 0.99797600507736206 -0.034086998552083969
vn 0.01474399957805872 0.99963897466659546 0.022458000108599663
vn -0.010428000241518021 0.99928700923919678 0.036281000822782516
vn -0.0093310000374913216 0.999301016330719 -0.036205999553203583
vn -0.0068680001422762871 0.99992102384567261 0.010507999919354916
vn 0.033601999282836914 0.99884098768234253 -0.034476000815629959
vn -0.0068680001422762871 0.99992102384567261 0.010507999919354916
f 1/1/1 2/2/2 3/3/3
f 4/4/4 2/2/2 5/5/5
f 5/5/5 1/1/1 6/6/6
f 5/5/5 2/2/2 1/1/1
f 7/7/7 8/8/8 9/9/9
f 8/8/8 3/3/3 2/2/2
f 8/8/8 7/7/7 3/3/3
f 8/8/8 2/2/2 10/10/10
f 2/2/2 11/11/11 12/12/12
f 2/2/2 4/4/4 11/11/11
f 13/13/13 9/9/9 8/8/8
f 13/13/13 14/14/14 9/9/9
f 14/14/14 13/13/13 15/15/15
f 16/16/16 17/17/17 18/18/18
f 17/17/17 15/15/15 13/13/13
f 17/17/17 16/16/16 15/15/15
f 17/17/17 13/13/13 19/19/19
f 20/20/20 18/18/18 17/17/17
f 20/20/20 21/21/21 18/18/18
f 21/21/21 22/22/22 18/18/18
f 20/20/20 17/17/17 23/23/23
f 13/13/13 8/8/8 24/24/24
f 12/12/12 25/25/25 26/26/26
f 12/12/12 27/27/27 25/25/25
f 11/11/11 27/27/27 12/12/12
f 2/2/2 12/12/12 10/10/10
f 10/10/10 12/12/12 26/26/26
f 26/26/26 28/28/28 29/29/29
f 26/26/26 30/30/30 28/28/28
f 25/25/25 30/30/30 26/26/26
f 10/10/10 31/31/31 24/24/24
f 13/13/13 24/24/24 19/19/19
f 23/23/23 19/19/19 32/32/32
f 23/23/23 17/17/17 19/19/19
f 24/24/24 33/33/33 19/19/19
f 10/10/10 26/26/26 34/34/34
f 32/32/32 19/19/19 35/35/35
f 24/24/24 8/8/8 10/10/10
f 34/34/34 36/36/36 31/31/31
f 31/31/31 33/33/33 24/24/24
f 33/33/33 35/35/35 19/19/19
f 33/33/33 37/37/37 35/35/35
f 31/31/31 38/38/38 33/33/33
f 10/10/10 34/34/34 31/31/31
f 37/37/37 38/38/38 39/39/39
f 37/37/37 33/33/33 38/38/38
f 28/28/28 40/40/40 29/29/29
f 41/41/41 42/42/42 43/43/43
f 43/43/43 29/29/29 40/40/40
f 43/43/43 42/42/42 29/29/29
f 44/44/44 45/45/45 46/46/46
f 44/44/44 36/36/36 45/45/45
f 45/45/45 36/36/36 34/34/34
f 36/36/36 38/38/38 31/31/31
f 47/47/47 36/36/36 48/48/48
f 47/47/47 38/38/38 36/36/36
f 34/34/34 29/29/29 45/45/45
f 49/49/49 29/29/29 50/50/50
f 49/49/49 45/45/45 29/29/29
f 51/51/51 39/39/39 38/38/38
f 34/34/34 26/26/26 29/29/29
f 52/52/52 38/38/38 53/53/53
f 52/52/52 54/54/54 38/38/38
f 54/54/54 51/51/51 38/38/38
f 46/46/46 45/45/45 49/49/49
f 48/48/48 36/36/36 44/44/44
f 50/50/50 29/29/29 42/42/42
f 53/53/53 38/38/38 47/47/47
