mtllib m2111222.mtl
usemtl material0
v -252.6800537109375 6.3840508460998535 -256
v -244.45900011062622 5.236295223236084 -235.06553602218628
v -238.68110704421997 6.8976058959960938 -256
v -256 6.3825860023498535 -256
v -256 6.2231488227844238 -250.22030639648438
v -254.40577697753906 6.4322071075439453 -256
v -256 5.5335440635681152 -234.45704698562622
v -256 5.15564489364624 -230.68374633789063
v -252.43556213378906 5.4438557624816895 -234.64498901367188
v -256 4.7239761352539062 -224
v -254.41555786132813 4.7262058258056641 -224
v -256 4.7564268112182617 -224.63726806640625
v -252.01722717285156 4.8653120994567871 -226.66543579101563
v -256 4.8489928245544434 -226.45506286621094
v -251.87838745117188 4.4925680160522461 -224
v -246.81721496582031 4.6046948432922363 -224
v -244.03851318359375 5.1015911102294922 -227.08753967285156
v -243.87741088867188 4.7249488830566406 -224
v -236.48104906082153 5.31435489654541 -235.48709106445313
v -239.2186890244484 4.5969090461730957 -224
v -236.06175208091736 4.9330739974975586 -227.50822353363037
v -253.55807495117188 6.4089207649230957 -256
v -256 6.1366000175476074 -248.241943359375
v -237.55595397949219 6.9039897918701172 -256
v -236.39028906822205 6.937981128692627 -256
v -228.50218200683594 5.580380916595459 -235.90928602218628
v -231.61997985839844 4.6879158020019531 -224
v -228.08412170410156 4.946174144744873 -227.92955017089844
v -235.87773084640503 4.6960911750793457 -224
v -224 6.5107998847961426 -256
v -224 6.3070578575134277 -252.22958374023438
v -224 5.3006229400634766 -232.46827697753906
v -224 5.5927238464355469 -236.14707899093628
v -224 6.1607580184936523 -248.93577575683594
v -224 5.02285623550415 -228.14546203613281
v -224 4.8431739807128906 -225.97386169433594
v -224 4.700800895690918 -224.253173828125
v -227.8782958984375 4.6230387687683105 -224
v -224 4.6797881126403809 -224
vt 0.0070270001888275146 0.89592800289392471
vt 0.65397900342941284 0.6369050145149231
vt 0.0029490001033991575 0.46246200799942017
vt 0.0077240001410245895 0.99870500003453344
vt 0.1866379976272583 0.99744999990798533
vt 0.0073350002057850361 0.94934999942779541
vt 0.67488199472427368 0.99404100002720952
vt 0.79218202829360962 0.99308100016787648
vt 0.66842299699783325 0.88374199718236923
vt 0.99944400787353516 0.99136199988424778
vt 0.99853497743606567 0.94302399829030037
vt 0.97970002889633179 0.99161900021135807
vt 0.91588801145553589 0.86886799335479736
vt 0.92337697744369507 0.99205899983644485
vt 0.99915099143981934 0.86418299376964569
vt 0.99793601036071777 0.70753198862075806
vt 0.90079200267791748 0.62213200330734253
vt 0.99699300527572632 0.61625799536705017
vt 0.63913297653198242 0.39012002944946289
vt 0.99613797664642334 0.472042977809906
vt 0.88621598482131958 0.37532502412796021
vt 0.0071829999797046185 0.92310900241136551
vt 0.24791499972343445 0.99702299991622567
vt 0.002701000077649951 0.42764401435852051
vt 0.0023769999388605356 0.39155799150466919
vt 0.6238129734992981 0.14320802688598633
vt 0.99407702684402466 0.2371169924736023
vt 0.87145298719406128 0.12855601310729981
vt 0.994966983795166 0.36861902475357056
vt 0.00055599998449906707 0.0079209804534912109
vt 0.11739800125360489 0.0071499943733215332
vt 0.72970497608184814 0.003152012825012207
vt 0.61550998687744141 0.0039290189743041992
vt 0.21942199766635895 0.0064929723739624023
vt 0.86374598741531372 0.00221097469329834
vt 0.93117302656173706 0.0017549991607666016
vt 0.9846000075340271 0.0013949871063232422
vt 0.99341398477554321 0.12131601572036743
vt 0.99241197109222412 0.0012949705123901367
vn 0.00355600006878376 0.99856901168823242 0.05335099995136261
vn -0.0013200000394135714 0.99890899658203125 0.046670001000165939
vn -0.01845799945294857 0.99708497524261475 0.0740320011973381
vn -0.031098000705242157 0.99913597106933594 0.02756199985742569
vn 0.022421000525355339 0.99885302782058716 0.042314000427722931
vn 0.0031820000149309635 0.9993090033531189 0.03702399879693985
vn 0.028912000358104706 0.996944010257721 0.0725800022482872
vn 0.0068490002304315567 0.996874988079071 0.078693002462387085
vn 0.025115000084042549 0.99781900644302368 0.061039999127388
vn -0.0014059999957680702 0.99870502948760986 0.050854999572038651
vn 0.023452000692486763 0.99704599380493164 0.073136001825332642
vn -0.0014059999957680702 0.99870502948760986 0.050856001675128937
vn 0.0057819997891783714 0.996163010597229 0.087330996990203857
vn -0.00085499999113380909 0.99812299013137817 0.061234001070261
vn 0.032496001571416855 0.99007099866867065 0.13676199316978455
vn -0.026909999549388885 0.99045497179031372 0.13518199324607849
vn -0.0063029997982084751 0.99713397026062012 0.075395002961158752
vn -0.0055490001104772091 0.99259102344512939 0.12137400358915329
vn -0.014515000395476818 0.99812901020050049 0.059397999197244644
vn 0.012086999602615833 0.99427700042724609 0.10615000128746033
vn 0.0025939999613910913 0.99767202138900757 0.068147003650665283
vn 0.027845000848174095 0.99865800142288208 0.043666999787092209
vn 0.027432000264525414 0.99866801500320435 0.043689001351594925
vn -0.016978999599814415 0.99679797887802124 0.07813599705696106
vn -0.0048799999058246613 0.99758201837539673 0.0693259984254837
vn -0.0055049997754395008 0.99781298637390137 0.065865002572536469
vn 0.0060250000096857548 0.9974600076675415 0.070975996553897858
vn -0.0023280000314116478 0.99703800678253174 0.076874002814292908
vn -0.01333099976181984 0.99759000539779663 0.068086996674537659
vn 0.034405998885631561 0.99795198440551758 0.053925998508930206
vn 0.031429000198841095 0.99809402227401733 0.0531110018491745
vn -0.0024619998876005411 0.99713099002838135 0.075654998421669
vn 0.0004949999856762588 0.99812597036361694 0.061186999082565308
vn -0.00039500001003034413 0.99901497364044189 0.044372998178005219
vn -0.014866000041365624 0.99722301959991455 0.072971001267433166
vn -0.01435100007802248 0.99649202823638916 0.0824510008096695
vn -0.014519999735057354 0.996474027633667 0.082638002932071686
vn 0.00081900000805035234 0.99663901329040527 0.081913001835346222
vn -0.014581000432372093 0.9964669942855835 0.082705996930599213
f 1/1/1 2/2/2 3/3/3
f 4/4/4 5/5/5 6/6/6
f 7/7/7 8/8/8 9/9/9
f 10/10/10 11/11/11 12/12/12
f 12/12/12 13/13/13 14/14/14
f 12/12/12 11/11/11 13/13/13
f 15/15/15 13/13/13 11/11/11
f 8/8/8 13/13/13 9/9/9
f 8/8/8 14/14/14 13/13/13
f 13/13/13 16/16/16 17/17/17
f 13/13/13 15/15/15 16/16/16
f 2/2/2 9/9/9 13/13/13
f 16/16/16 18/18/18 17/17/17
f 17/17/17 19/19/19 2/2/2
f 17/17/17 20/20/20 21/21/21
f 17/17/17 18/18/18 20/20/20
f 13/13/13 17/17/17 2/2/2
f 1/1/1 9/9/9 2/2/2
f 1/1/1 22/22/22 9/9/9
f 22/22/22 7/7/7 9/9/9
f 22/22/22 23/23/23 7/7/7
f 23/23/23 6/6/6 5/5/5
f 23/23/23 22/22/22 6/6/6
f 19/19/19 3/3/3 2/2/2
f 19/19/19 24/24/24 3/3/3
f 25/25/25 19/19/19 26/26/26
f 25/25/25 24/24/24 19/19/19
f 21/21/21 27/27/27 28/28/28
f 21/21/21 29/29/29 27/27/27
f 21/21/21 26/26/26 19/19/19
f 21/21/21 28/28/28 26/26/26
f 29/29/29 21/21/21 20/20/20
f 30/30/30 26/26/26 31/31/31
f 30/30/30 25/25/25 26/26/26
f 21/21/21 19/19/19 17/17/17
f 32/32/32 26/26/26 28/28/28
f 32/32/32 33/33/33 26/26/26
f 34/34/34 26/26/26 33/33/33
f 34/34/34 31/31/31 26/26/26
f 32/32/32 28/28/28 35/35/35
f 35/35/35 28/28/28 36/36/36
f 36/36/36 28/28/28 37/37/37
f 38/38/38 28/28/28 27/27/27
f 39/39/39 28/28/28 38/38/38
f 39/39/39 37/37/37 28/28/28
