mtllib m2111111223.mtl
usemtl material0
v -28 1.90693199634552 -32
v -28 1.9050290584564209 -31.73154604434967
v -27.92598295211792 1.9065829515457153 -32
v -27.589532971382141 1.89763605594635 -32
v -27.629572033882141 1.8570239543914795 -29.511458992958069
v -26.632457971572876 1.8402329683303833 -29.564060002565384
v -27.76072096824646 1.9006689786911011 -32
v -28 1.8699740171432495 -29.491940021514893
v -28 1.8694729804992676 -28.894999980926514
v -27.576941967010498 1.8543440103530884 -28.51426100730896
v -28 1.8599460124969482 -28
v -28 1.8611019849777222 -28.044028997421265
v -27.549867987632751 1.8396170139312744 -28
v -28 1.8684879541397095 -28.290585041046143
v -28 1.8745219707489014 -28.491984963417053
v -27.089854955673218 1.8271559476852417 -28
v -26.579872012138367 1.8287639617919922 -28.566831946372986
v -25.9606060013175 1.9117540121078491 -32
v -24.638020992279053 1.8491300344467163 -29.66940900683403
v -25.760708004236221 1.9126909971237183 -32
v -25.635230988264084 1.846390962600708 -29.616741001605988
v -25.553649991750717 1.9129550457000732 -32
v -24 1.9354259967803955 -32
v -24 1.934844970703125 -31.982437014579773
v -24.58539605140686 1.8459620475769043 -28.672209024429321
v -25.582675993442535 1.8285739421844482 -28.619490027427673
v -26.140067994594574 1.8103959560394287 -28
v -26.550037026405334 1.8111449480056763 -28
v -25.190243005752563 1.8140469789505005 -28
v -25.550076007843018 1.8084080219268799 -28
v -24.549957036972046 1.8362560272216797 -28
v -24 1.8692879676818848 -29.322815001010895
v -24 1.8711849451065064 -29.703171014785767
v -24 1.862758994102478 -28.703176021575928
v -24 1.8558230400085449 -28.267140984535217
v -24.240368008613586 1.8448790311813355 -28
v -24 1.8509559631347656 -28
vt 0 0
vt 0.067112997174263 0
vt 0 0.018504023551940918
vt 0 0.10261702537536621
vt 0.6221349835395813 0.092607021331787109
vt 0.60898500680923462 0.34188598394393921
vt 0 0.059819996356964111
vt 0.62701499462127686 0
vt 0.77625000476837158 0
vt 0.87143498659133911 0.10576397180557251
vt 1 0
vt 0.98899298906326294 0
vt 1 0.11253297328948975
vt 0.92735397815704346 0
vt 0.87700402736663818 0
vt 1 0.22753602266311646
vt 0.85829198360443115 0.35503202676773071
vt 0 0.50984901189804077
vt 0.582647979259491 0.84049500524997711
vt 0 0.55982300639152527
vt 0.59581500291824341 0.59119200706481934
vt 0 0.6115880012512207
vt 0 1
vt 0.0043910001404583454 1
vt 0.83194798231124878 0.85365100204944611
vt 0.84512799978256226 0.604330986738205
vt 1 0.46498298645019531
vt 1 0.36249101161956787
vt 1 0.70243901014328
vt 1 0.61248099803924561
vt 1 0.86251099407672882
vt 0.6692960262298584 1
vt 0.57420700788497925 1
vt 0.82420599460601807 1
vt 0.93321502208709717 1
vt 1 0.93990800157189369
vt 1 1
vn 0.0047160000540316105 0.99996399879455566 0.0070879999548196793
vn 0.032430998980998993 0.999364972114563 0.014725999906659126
vn 0.035353001207113266 0.99925398826599121 0.015529000200331211
vn 0.0024840000551193953 0.99974197149276733 0.022583000361919403
vn 0.023537000641226768 0.99964898824691772 0.012190000154078007
vn 0.0028739999979734421 0.99979597330093384 0.020008999854326248
vn 0.026579000055789948 0.999517023563385 0.01612900011241436
vn 0.03562600165605545 0.99927902221679688 0.013151000253856182
vn 0.037562999874353409 0.99929201602935791 -0.0020310000982135534
vn 0.028209000825881958 0.99953597784042358 0.011475999839603901
vn 0.045099999755620956 0.99863797426223755 0.026223000138998032
vn 0.048569001257419586 0.99838900566101074 0.029348000884056091
vn 0.035990998148918152 0.99899500608444214 0.026714000850915909
vn 0.04918999969959259 0.998341977596283 0.029908999800682068
vn 0.047726999968290329 0.9988589882850647 0.0016280000563710928
vn 0.027796000242233276 0.99922597408294678 0.027843000367283821
vn 0.01422400027513504 0.99971300363540649 0.019295999780297279
vn -0.0069960001856088638 0.99959897994995117 0.027419000864028931
vn -0.013898000121116638 0.99958300590515137 0.025294000282883644
vn -0.0017600000137463212 0.99960899353027344 0.027900999411940575
vn -0.0049310000613331795 0.99972999095916748 0.02268500067293644
vn -0.012904999777674675 0.99939000606536865 0.032439000904560089
vn -0.014453999698162079 0.99934899806976318 0.03304700180888176
vn -0.032915998250246048 0.99906700849533081 0.027943000197410583
vn -0.019828999415040016 0.99970000982284546 0.01437199953943491
vn -0.0066559999249875546 0.99972999095916748 0.022257000207901
vn 0.0023010000586509705 0.999504029750824 0.031399000436067581
vn 0.017635000869631767 0.99939000606536865 0.030136000365018845
vn -0.0219930000603199 0.99937498569488525 0.02765900082886219
vn -0.0038419999182224274 0.99945700168609619 0.032737001776695251
vn -0.0324379988014698 0.99934297800064087 0.016140000894665718
vn -0.032457001507282257 0.99945098161697388 0.0066289999522268772
vn -0.03323499858379364 0.99914401769638062 0.02462800033390522
vn -0.027955999597907066 0.99951601028442383 0.013666000217199326
vn -0.026861999183893204 0.99949800968170166 0.016776999458670616
vn -0.027627000585198402 0.99948900938034058 0.016088999807834625
vn -0.025270000100135803 0.99951499700546265 0.018209999427199364
f 1/1/1 2/2/2 3/3/3
f 4/4/4 5/5/5 6/6/6
f 4/4/4 7/7/7 5/5/5
f 8/8/8 3/3/3 2/2/2
f 8/8/8 5/5/5 3/3/3
f 5/5/5 7/7/7 3/3/3
f 5/5/5 9/9/9 10/10/10
f 5/5/5 8/8/8 9/9/9
f 11/11/11 10/10/10 12/12/12
f 11/11/11 13/13/13 10/10/10
f 14/14/14 10/10/10 15/15/15
f 14/14/14 12/12/12 10/10/10
f 10/10/10 16/16/16 17/17/17
f 10/10/10 13/13/13 16/16/16
f 9/9/9 15/15/15 10/10/10
f 6/6/6 5/5/5 10/10/10
f 18/18/18 4/4/4 6/6/6
f 19/19/19 20/20/20 21/21/21
f 19/19/19 22/22/22 20/20/20
f 23/23/23 19/19/19 24/24/24
f 23/23/23 22/22/22 19/19/19
f 19/19/19 21/21/21 25/25/25
f 21/21/21 18/18/18 6/6/6
f 21/21/21 20/20/20 18/18/18
f 21/21/21 6/6/6 26/26/26
f 17/17/17 27/27/27 26/26/26
f 17/17/17 28/28/28 27/27/27
f 29/29/29 26/26/26 30/30/30
f 29/29/29 25/25/25 26/26/26
f 26/26/26 25/25/25 21/21/21
f 31/31/31 25/25/25 29/29/29
f 30/30/30 26/26/26 27/27/27
f 6/6/6 17/17/17 26/26/26
f 32/32/32 19/19/19 25/25/25
f 32/32/32 33/33/33 19/19/19
f 16/16/16 28/28/28 17/17/17
f 24/24/24 19/19/19 33/33/33
f 32/32/32 25/25/25 34/34/34
f 35/35/35 36/36/36 37/37/37
f 34/34/34 36/36/36 35/35/35
f 34/34/34 25/25/25 36/36/36
f 25/25/25 31/31/31 36/36/36
f 10/10/10 17/17/17 6/6/6
