mtllib m2111313.mtl
usemtl material0
v -32 6.6265068054199219 -184.05522155761719
v -26.110870361328125 6.3817777633666992 -190.601318359375
v -32 6.7023491859436035 -190.29136657714844
v -32 6.5158810615539551 -175.60981801152229
v -25.690528869628906 6.218623161315918 -182.62322998046875
v -32 6.5960769653320312 -182.291259765625
v -18.136704921722412 5.685905933380127 -191.02017211914063
v -25.269086837768555 6.2800540924072266 -174.64592003822327
v -17.714756011962891 5.8503808975219727 -183.043212890625
v -32 6.5285711288452148 -174.29127502441406
v -24.852621078491211 6.2983279228210449 -192
v -18.188308954238892 5.7098388671875 -192
v -10.162414073944092 5.0163822174072266 -191.43910217285156
v -17.291599035263062 6.261415958404541 -175.06712299585342
v -9.74058485031128 5.1564440727233887 -183.46206712722778
v -26.184597015380859 6.4032740592956543 -192
v -17.255262017250061 5.6188950538635254 -192
v -32 6.7224078178405762 -191.900634765625
v -32 6.7236471176147461 -192
v -32 6.5709009170532227 -173.10533094406128
v -24.846620559692383 6.5499582290649414 -166.66932678222656
v -32 6.3158168792724609 -166.29083347320557
v -30.847410202026367 6.346372127532959 -160
v -32 6.31282377243042 -163.64010620117188
v -32 6.3087139129638672 -160
v -24.494724273681641 6.5139288902282715 -160
v -23.248575210571289 6.5042071342468262 -160
v -16.869337022304535 6.4898171424865723 -167.09039306640625
v -16.49635899066925 6.2284841537475586 -160
v -8.8922429084777832 6.3905949592590332 -167.51132202148438
v -15.650528997182846 6.2163519859313965 -160
v -9.3155159950256348 5.956632137298584 -175.48733502626419
v -10.191989898681641 5.0230798721313477 -192
v -2.1867151260375977 4.633944034576416 -191.85903930664063
v -1.3394603729248047 5.6464571952819824 -175.90753199905157
v -8.49684190750122 6.16890287399292 -160
v -0.91600704193115234 6.117042064666748 -167.93165588378906
v -8.0520839691162109 6.15300178527832 -160
v -1.7644453048706055 4.8638482093811035 -183.88232421875
v -9.6577920913696289 5.0036587715148926 -192
v -2.1941385269165039 4.6373348236083984 -192
v -2.0599002838134766 4.6292209625244141 -192
v -0.49819374084472656 5.9392480850219727 -160
v 0 4.7873411178588867 -183.97524976730347
v 0 5.4462809562683105 -177.39669799804688
v 0 5.57533597946167 -175.97802699916065
v 0 6.008598804473877 -168.94998216629028
v 0 4.5499939918518066 -190.22679138183594
v 0 4.690791130065918 -185.84379577636719
v 0 4.4938650131225586 -191.97406005859375
v 0 6.0754170417785645 -167.97988891601563
v -0.45391082763671875 5.9371891021728516 -160
v 0 5.9261589050292969 -160.50453186035156
v 0 4.4945230484008789 -192
v 0 4.6943449974060059 -185.7750244140625
v 0 5.9206361770629883 -160
vt 0.72541600465774536 0.011041998863220215
vt 0.9282039999961853 0.18122702836990356
vt 0.91273397207260132 0.0044040083885192871
vt 0.47173500061035156 0.020044028759002686
vt 0.68898600339889526 0.20244002342224121
vt 0.67242801189422607 0.012935996055603027
vt 0.94901800155639648 0.42122197151184082
vt 0.44979101419448853 0.22317099571228027
vt 0.70977902412414551 0.44182997941970825
vt 0.43212899565696716 0.02140498161315918
vt 0.97152400016784668 0.21765100955963135
vt 0.97839999198913574 0.41860699653625488
vt 0.97001397609710693 0.66113701462745667
vt 0.47029098868370056 0.46238499879837036
vt 0.73079097270965576 0.68180200457572937
vt 0.97013998031616211 0.17751902341842651
vt 0.9793580174446106 0.44676500558853149
vt 0.96107202768325806 0.0026900172233581543
vt 0.964057981967926 0.0025839805603027344
vt 0.39648398756980896 0.022597014904022217
vt 0.21046799421310425 0.24370002746582031
vt 0.1916469931602478 0.02929997444152832
vt 0.0038989998865872622 0.070495009422302246
vt 0.11202999949455261 0.032063007354736328
vt 0.0026960000395774841 0.035857021808624268
vt 0.010482000187039375 0.2608720064163208
vt 0.011714000254869461 0.29830402135849
vt 0.23100300133228302 0.48291099071502686
vt 0.018262000754475594 0.50129899382591248
vt 0.25131100416183472 0.72214600443840027
vt 0.019088000059127808 0.52670899033546448
vt 0.49066799879074097 0.70173901319503784
vt 0.98682898283004761 0.65964400768280029
vt 0.99084198474884033 0.90054100006818771
vt 0.51127302646636963 0.9410800002515316
vt 0.026003999635577202 0.74172100424766541
vt 0.27187401056289673 0.96145600080490112
vt 0.02644599974155426 0.75508899986743927
vt 0.75155699253082275 0.92111200094223022
vt 0.98739898204803467 0.67569899559021
vt 0.99506902694702148 0.9001690000295639
vt 0.99520701169967651 0.9042079970240593
vt 0.033998001366853714 0.9820799995213747
vt 0.756201982498169 0.97406000085175037
vt 0.55758899450302124 0.97999799996614456
vt 0.51479601860046387 0.98129500076174736
vt 0.30348101258277893 0.98802900034934282
vt 0.94407802820205688 0.9679579995572567
vt 0.81235402822494507 0.97227800078690052
vt 0.99658900499343872 0.96623599901795387
vt 0.27427101135253906 0.988947999663651
vt 0.034074999392032623 0.98377400077879429
vt 0.0497019998729229 0.9968860000371933
vt 0.99730402231216431 0.96621299907565117
vt 0.81028497219085693 0.97234399989247322
vt 0.034547001123428345 0.99741600011475384
vn 0.059298001229763031 0.9981120228767395 0.016031999140977859
vn 0.070951998233795166 0.99737298488616943 0.014577999711036682
vn 0.05499500036239624 0.99841099977493286 0.012288999743759632
vn 0.041985999792814255 0.99910801649093628 -0.0045750001445412636
vn 0.055245999246835709 0.99847197532653809 0.0011759999906644225
vn 0.060470998287200928 0.99806398153305054 0.014511999674141407
vn 0.08181300014257431 0.99664700031280518 0.0011239999439567328
vn 0.023638000711798668 0.99934297800064087 -0.027479000389575958
vn 0.058820001780986786 0.99771398305892944 -0.033261001110076904
vn 0.035672001540660858 0.99909698963165283 -0.023078000172972679
vn 0.0854400023818016 0.99619102478027344 0.017426000908017159
vn 0.0923129990696907 0.99554002285003662 0.019455000758171082
vn 0.064384996891021729 0.99791198968887329 -0.0050670001655817032
vn 0.024411000311374664 0.99854797124862671 -0.048027001321315765
vn 0.0539809986948967 0.99691998958587646 -0.056891001760959625
vn 0.0663750022649765 0.99772399663925171 0.011834999546408653
vn 0.087503001093864441 0.99610799551010132 0.010591999627649784
vn 0.055002998560667038 0.9984089732170105 0.01244600024074316
vn 0.05500200018286705 0.9984089732170105 0.01244799979031086
vn 0.017471000552177429 0.99971699714660645 -0.016164999455213547
vn -0.00407300004735589 0.9999769926071167 -0.005392999853938818
vn -0.031723000109195709 0.99932301044464111 0.018643999472260475
vn -0.030977999791502953 0.999517023563385 0.0026390000712126493
vn -0.032653998583555222 0.99946600198745728 0.0011279999744147062
vn -0.032653998583555222 0.99946600198745728 0.0011289999820291996
vn -0.0087109999731183052 0.99994498491287231 0.0058619999326765537
vn 0.016607999801635742 0.99977898597717285 0.012912999838590622
vn 0.016930000856518745 0.99984902143478394 -0.00393400015309453
vn 0.027106000110507011 0.99900597333908081 0.035395000129938126
vn 0.02230600081384182 0.99966299533843994 -0.013249999843537808
vn 0.012276999652385712 0.99933898448944092 0.034228000789880753
vn 0.030970999971032143 0.99668502807617188 -0.075226999819278717
vn 0.061018001288175583 0.99809902906417847 0.0087019996717572212
vn 0.05376100167632103 0.99854898452758789 -0.0032240001019090414
vn 0.039893999695777893 0.99611002206802368 -0.0785679966211319
vn 0.0216669999063015 0.9993630051612854 0.028355000540614128
vn 0.038816999644041061 0.99903899431228638 -0.020356999710202217
vn 0.033732000738382339 0.99909698963165283 0.025818999856710434
vn 0.03916500136256218 0.99690598249435425 -0.068152002990245819
vn 0.045628998428583145 0.99878901243209839 0.018394999206066132
vn 0.054473001509904861 0.998291015625 0.021147999912500381
vn 0.0639209970831871 0.99766397476196289 0.024081999436020851
vn 0.03766300156712532 0.99908202886581421 0.020410999655723572
vn 0.039269000291824341 0.99642902612686157 -0.0747470036149025
vn 0.040233001112937927 0.99442398548126221 -0.097484000027179718
vn 0.048850998282432556 0.99587202072143555 -0.0765020027756691
vn 0.047832999378442764 0.99685800075531006 -0.063129998743534088
vn 0.062215998768806458 0.99754798412323 -0.032044999301433563
vn 0.057174000889062881 0.99769300222396851 -0.0365930013358593
vn 0.06379999965429306 0.99795997142791748 -0.0024270000867545605
vn 0.044020000845193863 0.9986950159072876 -0.025892000645399094
vn 0.043765000998973846 0.99888801574707031 0.017540000379085541
vn 0.044103000313043594 0.99886798858642578 0.017839999869465828
vn 0.065231002867221832 0.99755001068115234 0.025268999859690666
vn 0.040546998381614685 0.99784600734710693 -0.05156400054693222
vn 0.036440998315811157 0.99927598237991333 0.010939000174403191
f 1/1/1 2/2/2 3/3/3
f 4/4/4 5/5/5 6/6/6
f 6/6/6 2/2/2 1/1/1
f 6/6/6 5/5/5 2/2/2
f 2/2/2 5/5/5 7/7/7
f 5/5/5 8/8/8 9/9/9
f 10/10/10 5/5/5 4/4/4
f 10/10/10 8/8/8 5/5/5
f 7/7/7 11/11/11 2/2/2
f 7/7/7 12/12/12 11/11/11
f 9/9/9 13/13/13 7/7/7
f 14/14/14 15/15/15 9/9/9
f 9/9/9 7/7/7 5/5/5
f 16/16/16 2/2/2 11/11/11
f 9/9/9 8/8/8 14/14/14
f 12/12/12 7/7/7 17/17/17
f 3/3/3 2/2/2 18/18/18
f 18/18/18 16/16/16 19/19/19
f 18/18/18 2/2/2 16/16/16
f 8/8/8 20/20/20 21/21/21
f 8/8/8 10/10/10 20/20/20
f 22/22/22 23/23/23 21/21/21
f 22/22/22 24/24/24 23/23/23
f 24/24/24 25/25/25 23/23/23
f 26/26/26 21/21/21 23/23/23
f 21/21/21 27/27/27 28/28/28
f 21/21/21 26/26/26 27/27/27
f 28/28/28 14/14/14 21/21/21
f 29/29/29 30/30/30 28/28/28
f 29/29/29 31/31/31 30/30/30
f 29/29/29 28/28/28 27/27/27
f 20/20/20 22/22/22 21/21/21
f 21/21/21 14/14/14 8/8/8
f 14/14/14 28/28/28 32/32/32
f 13/13/13 17/17/17 7/7/7
f 13/13/13 33/33/33 17/17/17
f 9/9/9 15/15/15 13/13/13
f 30/30/30 32/32/32 28/28/28
f 15/15/15 34/34/34 13/13/13
f 30/30/30 35/35/35 32/32/32
f 36/36/36 37/37/37 30/30/30
f 36/36/36 38/38/38 37/37/37
f 15/15/15 32/32/32 39/39/39
f 36/36/36 30/30/30 31/31/31
f 33/33/33 13/13/13 40/40/40
f 32/32/32 15/15/15 14/14/14
f 34/34/34 40/40/40 13/13/13
f 34/34/34 41/41/41 40/40/40
f 35/35/35 39/39/39 32/32/32
f 41/41/41 34/34/34 42/42/42
f 43/43/43 37/37/37 38/38/38
f 35/35/35 44/44/44 39/39/39
f 35/35/35 45/45/45 44/44/44
f 37/37/37 46/46/46 35/35/35
f 37/37/37 47/47/47 46/46/46
f 48/48/48 39/39/39 49/49/49
f 48/48/48 34/34/34 39/39/39
f 48/48/48 50/50/50 34/34/34
f 37/37/37 35/35/35 30/30/30
f 39/39/39 34/34/34 15/15/15
f 51/51/51 52/52/52 53/53/53
f 51/51/51 37/37/37 52/52/52
f 37/37/37 43/43/43 52/52/52
f 54/54/54 34/34/34 50/50/50
f 54/54/54 42/42/42 34/34/34
f 55/55/55 39/39/39 44/44/44
f 55/55/55 49/49/49 39/39/39
f 47/47/47 37/37/37 51/51/51
f 53/53/53 52/52/52 56/56/56
f 45/45/45 35/35/35 46/46/46
