mtllib m21111212.mtl
usemtl material0
v -96 4.2353529930114746 -94.906494140625
v -96 3.9429728984832764 -91.8119809627533
v -93.0763931274414 4.245232105255127 -95.0609130859375
v -96 4.3501429557800293 -96
v -93.125464916229248 4.3439168930053711 -96
v -96 4.3491230010986328 -95.990280151367188
v -92.231307983398438 4.3489627838134766 -96
v -85.125319957733154 4.4094719886779785 -96
v -85.098258972167969 4.3590850830078125 -95.482582092285156
v -84.632644891738892 4.4134721755981445 -96
v -85.672943115234375 4.4070281982421875 -96
v -89.087165951728821 4.3343868255615234 -95.271858215332031
v -92.867699146270752 3.8610630035400391 -91.070823907852173
v -89.1252590417862 4.402799129486084 -96
v -88.87866199016571 3.91164493560791 -91.2816390991211
v -96 3.8558480739593506 -90.905395984649658
v -84.890342950820923 3.8157401084899902 -91.491942882537842
v -81.108910083770752 4.4741091728210449 -95.693618774414062
v -84.681022882461548 3.5604710578918457 -87.50229600071907
v -88.670296013355255 3.4605789184570312 -87.291312992572784
v -96 3.7709059715270996 -90.088912963867188
v -92.6591567993164 3.4451529979705811 -87.080627024173737
v -80.900574207305908 4.01718807220459 -91.703278064727783
v -80 4.527656078338623 -95.752349853515625
v -80 4.1718912124633789 -92.703940868377686
v -80 4.0368709564208984 -91.750893115997314
v -80 4.5300741195678711 -95.781089782714844
v -81.124961853027344 4.4991850852966309 -96
v -80 4.5484929084777832 -96
v -80 3.9971609115600586 -90.892883062362671
v -80.691558837890625 3.6989319324493408 -87.713416993618011
v -96 3.3643519878387451 -86.903946042060852
v -96 2.9725360870361328 -83.3682861328125
v -96 2.6214599609375 -80
v -95.231781005859375 2.6392979621887207 -80
v -96 2.8116068840026855 -81.830818176269531
v -92.450637817382812 3.0248429775238037 -83.090407848358154
v -96 2.9229269027709961 -82.90264892578125
v -88.46186101436615 3.0231790542602539 -83.301041126251221
v -84.472632884979248 3.1137940883636475 -83.511992931365967
v -80.482337951660156 3.4236390590667725 -83.723701000213623
v -88.290091991424561 2.530519962310791 -80
v -91.4324951171875 2.6470270156860352 -80
v -92.289382934570312 2.6528151035308838 -80
v -87.633408010005951 2.540226936340332 -80
v -83.833961009979248 2.63864803314209 -80
v -84.289803028106689 2.6068310737609863 -80
v -80 3.4874510765075684 -84.259681940078735
v -80 3.7379100322723389 -87.750061005353928
v -80.288115978240967 2.9580678939819336 -80
v -80.034088134765625 2.9744160175323486 -80
v -80 3.4579648971557617 -83.749282836914062
v -80 2.9814729690551758 -80.037879943847656
v -80 2.9781510829925537 -80
vt 0.068343997001647949 0
vt 0.26175099611282349 0
vt 0.058692999184131622 0.18272501230239868
vt 0 0
vt 0 0.17965799570083618
vt 0.00060700002359226346 0
vt 0 0.23554301261901856
vt 0 0.67966699600219727
vt 0.032338999211788177 0.68135899305343628
vt 0 0.71046000719070435
vt 0 0.64544099569320679
vt 0.04550899937748909 0.43205201625823975
vt 0.30807399749755859 0.19576901197433472
vt 0 0.42967098951339722
vt 0.29489800333976746 0.44508397579193115
vt 0.31841298937797546 0
vt 0.28175398707389832 0.69435399770736694
vt 0.019148999825119972 0.93069300055503845
vt 0.53110599517822266 0.70743599534034729
vt 0.54429298639297485 0.45810699462890625
vt 0.36944299936294556 0
vt 0.55746102333068848 0.20880299806594849
vt 0.268545001745224 0.94371400028467178
vt 0.015478000044822693 1
vt 0.20600399374961853 1
vt 0.26556900143623352 1
vt 0.01368200033903122 1
vt 0 0.92969000339508057
vt 0 1
vt 0.31919500231742859 1
vt 0.51791101694107056 0.95677800104022026
vt 0.56850302219390869 0
vt 0.7894819974899292 0
vt 1 0
vt 1 0.048013985157012939
vt 0.88557398319244385 0
vt 0.80684900283813477 0.22183501720428467
vt 0.81858402490615845 0
vt 0.79368501901626587 0.4711340069770813
vt 0.78049999475479126 0.72045999765396118
vt 0.76726901531219482 0.96985399909317493
vt 1 0.48186898231506348
vt 1 0.28546899557113647
vt 1 0.2319139838218689
vt 1 0.52291199564933777
vt 1 0.76037700474262238
vt 1 0.731887012720108
vt 0.73377001285552979 1
vt 0.5156210064888 1
vt 1 0.98199299909174442
vt 1 0.99786900007165968
vt 0.76567000150680542 1
vt 0.99763298034667969 1
vt 1 1
vn 0.0017470000311732292 0.99530702829360962 0.096749000251293182
vn 0.0020099999383091927 0.99553000926971436 0.0944259986281395
vn -0.0051669999957084656 0.995290994644165 0.09679800271987915
vn 0.0021540001034736633 0.9945330023765564 0.10439799726009369
vn 0.00031100001069717109 0.99452501535415649 0.10449399799108505
vn 0.0021540001034736633 0.9945330023765564 0.10440000146627426
vn -0.015785999596118927 0.995281994342804 0.095732003450393677
vn -0.006165000144392252 0.99524199962615967 0.097240999341011047
vn 0.0016820000018924475 0.9925529956817627 0.121799997985363
vn -0.023086000233888626 0.99620300531387329 0.083939999341964722
vn -0.0014029999729245901 0.995589017868042 0.093808002769947052
vn -0.008577999658882618 0.994841992855072 0.10107000172138214
vn -0.0039820000529289246 0.99464797973632812 0.10324600338935852
vn -0.0088139995932579041 0.99553400278091431 0.093996003270149231
vn 0.004162999801337719 0.99440598487854 0.10553999990224838
vn 0.0034549999982118607 0.99529898166656494 0.096789002418518066
vn -0.014059999957680702 0.99495500326156616 0.099330000579357147
vn -0.033147998154163361 0.99207800626754761 0.12116800248622894
vn -0.023976000025868416 0.9956669807434082 0.0898519977927208
vn -0.0074020000174641609 0.99398398399353027 0.1092739999294281
vn -0.0048750001005828381 0.99358302354812622 0.11300399899482727
vn -0.0079680001363158226 0.99410498142242432 0.10812599956989288
vn -0.043921999633312225 0.99399101734161377 0.10026399791240692
vn -0.041795000433921814 0.99240702390670776 0.11567600071430206
vn -0.035213999450206757 0.9919469952583313 0.12166400253772736
vn -0.01667499914765358 0.9952399730682373 0.09601999819278717
vn -0.043634999543428421 0.99553000926971436 0.083764001727104187
vn -0.031167000532150269 0.99604898691177368 0.08315499871969223
vn -0.043634999543428421 0.99553000926971436 0.083761997520923614
vn -0.0478379987180233 0.99582302570343018 0.077771000564098358
vn -0.038777001202106476 0.99654799699783325 0.073409996926784515
vn -0.017775999382138252 0.99286097288131714 0.11794599890708923
vn -0.018760999664664268 0.99379497766494751 0.10963600128889084
vn -0.023089999333024025 0.9943850040435791 0.10327599942684174
vn -0.013705000281333923 0.99365502595901489 0.11163000017404556
vn -0.023089999333024025 0.9943850040435791 0.10327599942684174
vn -0.0053190002217888832 0.99396997690200806 0.10952699929475784
vn -0.022971000522375107 0.99416500329971313 0.10540100187063217
vn 0.0011879999656230211 0.99217301607131958 0.12486100196838379
vn -0.0362589992582798 0.99111902713775635 0.12793700397014618
vn -0.063431002199649811 0.99162799119949341 0.11247099936008453
vn 0.027798999100923538 0.98887401819229126 0.14613699913024902
vn 0.030263999477028847 0.989687979221344 0.14000900089740753
vn 0.0024870000779628754 0.99284398555755615 0.11939000338315964
vn -0.016809999942779541 0.9890819787979126 0.14640399813652039
vn -0.078050002455711365 0.98736697435379028 0.13789500296115875
vn -0.025624999776482582 0.98922699689865112 0.14413100481033325
vn -0.053165998309850693 0.99607700109481812 0.070744998753070831
vn -0.052067000418901443 0.99570798873901367 0.07651200145483017
vn -0.087295003235340118 0.98791599273681641 0.12807099521160126
vn -0.063722997903823853 0.98984599113464355 0.12706400454044342
vn -0.064181998372077942 0.99078100919723511 0.11930199712514877
vn -0.0641539990901947 0.98986697196960449 0.126678004860878
vn -0.10850699990987778 0.99029499292373657 0.086843997240066528
f 1/1/1 2/2/2 3/3/3
f 4/4/4 3/3/3 5/5/5
f 4/4/4 6/6/6 3/3/3
f 6/6/6 1/1/1 3/3/3
f 5/5/5 3/3/3 7/7/7
f 8/8/8 9/9/9 10/10/10
f 8/8/8 11/11/11 9/9/9
f 12/12/12 3/3/3 13/13/13
f 7/7/7 12/12/12 14/14/14
f 7/7/7 3/3/3 12/12/12
f 12/12/12 13/13/13 15/15/15
f 16/16/16 3/3/3 2/2/2
f 16/16/16 13/13/13 3/3/3
f 9/9/9 15/15/15 17/17/17
f 15/15/15 9/9/9 12/12/12
f 17/17/17 18/18/18 9/9/9
f 17/17/17 15/15/15 19/19/19
f 11/11/11 12/12/12 9/9/9
f 11/11/11 14/14/14 12/12/12
f 15/15/15 13/13/13 20/20/20
f 13/13/13 21/21/21 22/22/22
f 13/13/13 16/16/16 21/21/21
f 23/23/23 18/18/18 17/17/17
f 24/24/24 23/23/23 25/25/25
f 24/24/24 18/18/18 23/23/23
f 26/26/26 25/25/25 23/23/23
f 27/27/27 18/18/18 24/24/24
f 27/27/27 28/28/28 18/18/18
f 27/27/27 29/29/29 28/28/28
f 26/26/26 23/23/23 30/30/30
f 18/18/18 10/10/10 9/9/9
f 18/18/18 28/28/28 10/10/10
f 23/23/23 17/17/17 31/31/31
f 32/32/32 33/33/33 22/22/22
f 34/34/34 35/35/35 36/36/36
f 36/36/36 37/37/37 38/38/38
f 36/36/36 35/35/35 37/37/37
f 38/38/38 22/22/22 33/33/33
f 38/38/38 37/37/37 22/22/22
f 22/22/22 37/37/37 20/20/20
f 20/20/20 37/37/37 39/39/39
f 15/15/15 20/20/20 19/19/19
f 17/17/17 19/19/19 31/31/31
f 20/20/20 40/40/40 19/19/19
f 20/20/20 13/13/13 22/22/22
f 19/19/19 41/41/41 31/31/31
f 42/42/42 39/39/39 43/43/43
f 44/44/44 39/39/39 37/37/37
f 44/44/44 43/43/43 39/39/39
f 39/39/39 45/45/45 40/40/40
f 39/39/39 42/42/42 45/45/45
f 46/46/46 40/40/40 47/47/47
f 46/46/46 41/41/41 40/40/40
f 40/40/40 41/41/41 19/19/19
f 47/47/47 40/40/40 45/45/45
f 20/20/20 39/39/39 40/40/40
f 48/48/48 31/31/31 41/41/41
f 48/48/48 49/49/49 31/31/31
f 44/44/44 37/37/37 35/35/35
f 32/32/32 22/22/22 21/21/21
f 50/50/50 41/41/41 46/46/46
f 51/51/51 41/41/41 50/50/50
f 51/51/51 52/52/52 41/41/41
f 51/51/51 53/53/53 52/52/52
f 48/48/48 41/41/41 52/52/52
f 54/54/54 53/53/53 51/51/51
f 30/30/30 31/31/31 49/49/49
f 30/30/30 23/23/23 31/31/31
