mtllib m211322.mtl
usemtl material0
v -256 8.3320293426513672 -449.40182495117188
v -247.83735656738281 8.3192558288574219 -450.89093017578125
v -256 8.3422927856445312 -450.4599609375
v -250.43836975097656 8.2998876571655273 -448
v -256 8.3184318542480469 -448
v -256 7.5097761154174805 -475.60226392745972
v -249.525146484375 7.65225887298584 -482.79867601394653
v -256 7.698275089263916 -482.45690894126892
v -256 7.1699361801147461 -466.45559692382812
v -256 7.6828289031982422 -458.71072387695312
v -248.68580627441406 7.0431852340698242 -466.8414306640625
v -256 7.3858051300048828 -507.43844604492188
v -251.06851196289063 7.2969570159912109 -512
v -256 7.3287482261657715 -512
v -244.71810913085938 7.3575420379638672 -512
v -233.56930541992188 7.7946510314941406 -483.64172410964966
v -225.74772596359253 8.6893892288208 -512
v -247.68374633789063 8.5156459808349609 -448
v -235.24166870117188 8.0422611236572266 -448
v -231.88540601730347 7.6535558700561523 -451.73110961914062
v -232.73019409179688 7.139678955078125 -467.684326171875
v -217.6129298210144 8.0453634262084961 -484.48519897460938
v -231.6876220703125 7.8163251876831055 -448
v -215.93426513671875 6.8276290893554688 -452.57070922851562
v -220.04586791992188 7.2418680191040039 -448
v -216.7757568359375 6.9900078773498535 -468.5263671875
v -219.06173706054688 8.7846803665161133 -512
v -212.13914489746094 8.3679742813110352 -512
v -201.66232299804688 7.1051039695739746 -485.32437086105347
v -194.30332946777344 8.3375158309936523 -512
v -215.69342041015625 6.7380127906799316 -448
v -204.85009765625 6.4284138679504395 -448
v -199.98123168945313 6.3873610496521 -453.41171264648438
v -200.82130432128906 6.8456339836120605 -469.368408203125
v -192 6.9179601669311523 -485.83401489257812
v -192 6.8167238235473633 -479.17312598228455
v -199.69639587402344 6.220156192779541 -448
v -192 7.6760191917419434 -453.83743286132812
v -192 7.56744909286499 -451.07382202148438
v -192 7.4466938972473145 -448
v -192 7.4186129570007324 -469.83612060546875
v -192 7.1764788627624512 -462.28121948242188
v -192 7.9244270324707031 -505.07656860351562
v -192 8.2865514755249023 -512
vt 0.022895000874996185 0.033752977848052979
vt 0.049506999552249908 0.1556360125541687
vt 0.038796000182628632 0.033204019069671631
vt 0.0047160000540316105 0.11805301904678345
vt 0.001829999964684248 0.0344809889793396
vt 0.41759198904037476 0.020286023616790771
vt 0.5290520191192627 0.11391299962997437
vt 0.5206339955329895 0.01678699254989624
vt 0.279803991317749 0.024884998798370361
vt 0.16317099332809448 0.028916001319885254
vt 0.28951400518417358 0.1345980167388916
vt 0.8960149884223938 0.0040079951286315918
vt 0.96709400415420532 0.0757790207862854
vt 0.9645649790763855 0.0016729831695556641
vt 0.97033298015594482 0.17120897769927979
vt 0.54985898733139038 0.35325700044631958
vt 0.98017698526382446 0.4563869833946228
vt 0.0060580000281333923 0.15957498550415039
vt 0.013557000085711479 0.34663200378417969
vt 0.070897996425628662 0.39506798982620239
vt 0.31029000878334045 0.3739359974861145
vt 0.57074099779129028 0.59262299537658691
vt 0.015336999669671059 0.400147020816803
vt 0.09215100109577179 0.63461101055145264
vt 0.021369000896811485 0.57529500126838684
vt 0.33144399523735046 0.61322799324989319
vt 0.98361402750015259 0.556865006685257
vt 0.98698002099990845 0.66108301281929016
vt 0.59110301733016968 0.83233000338077545
vt 0.99617898464202881 0.92909599840641022
vt 0.023838000372052193 0.64112600684165955
vt 0.029463000595569611 0.80373500287532806
vt 0.11342500150203705 0.87395299971103668
vt 0.35281199216842651 0.8525020033121109
vt 0.60445797443389893 0.97722600027918816
vt 0.50434798002243042 0.980409000068903
vt 0.032232001423835754 0.88123700022697449
vt 0.12437599897384644 0.99518299987539649
vt 0.083026997745037079 0.9968089999165386
vt 0.036800000816583633 0.99832699995022267
vt 0.36498600244522095 0.98504099994897842
vt 0.25141298770904541 0.98921000026166439
vt 0.89399999380111694 0.96721599996089935
vt 0.998170018196106 0.96342699974775314
vn 0.0033340000081807375 0.99994701147079468 0.0096990000456571579
vn 0.0034910000395029783 0.99829202890396118 -0.058324001729488373
vn 0.0010509999701753259 0.99943798780441284 -0.03351999819278717
vn -0.018409999087452888 0.9997820258140564 -0.0098660001531243324
vn 0.0033340000081807375 0.99994701147079468 0.0096990000456571579
vn 0.016773000359535217 0.99925100803375244 0.034876000136137009
vn 0.00098400004208087921 0.9999309778213501 0.011665999889373779
vn 0.0075369998812675476 0.99993801116943359 0.0081630004569888115
vn 0.016467999666929245 0.99973297119140625 -0.016233000904321671
vn 0.0021440000273287296 0.99706602096557617 -0.076511003077030182
vn 0.0024800000246614218 0.99981999397277832 -0.018797999247908592
vn 0.0064460001885890961 0.99990099668502808 -0.012507000006735325
vn -0.0012779999524354935 0.999925971031189 -0.012098999693989754
vn 0.0064460001885890961 0.99990099668502808 -0.012507000006735325
vn -0.032586999237537384 0.99946600198745728 -0.0025949999690055847
vn -0.016638999804854393 0.99955397844314575 0.024815000593662262
vn -0.037356998771429062 0.99907702207565308 0.02121799997985363
vn -0.01802700012922287 0.99760299921035767 -0.066812999546527863
vn 0.044707998633384705 0.996969997882843 -0.063647001981735229
vn 0.042420998215675354 0.99838298559188843 -0.037836000323295593
vn 0.00457199988886714 0.99998897314071655 0.0013379999436438084
vn 0.026881000027060509 0.99876201152801514 0.0418579988181591
vn 0.056078001856803894 0.99734401702880859 -0.04648200049996376
vn 0.045581001788377762 0.99893701076507568 0.006910999771207571
vn 0.066783003509044647 0.99730700254440308 -0.030309999361634254
vn 0.022076999768614769 0.99943298101425171 0.025414999574422836
vn 0.021669000387191772 0.99943399429321289 0.025714000687003136
vn 0.037866998463869095 0.998757004737854 0.032411001622676849
vn 0.030553000047802925 0.99897199869155884 0.033479999750852585
vn 0.013640999794006348 0.99866098165512085 0.049901001155376434
vn 0.0703440010547638 0.99739700555801392 0.015848999843001366
vn 0.031691998243331909 0.99927800893783569 0.0209330003708601
vn -0.051917001605033875 0.99846798181533813 0.019156999886035919
vn -0.014523000456392765 0.99984002113342285 0.010405000299215317
vn 0.021162999793887138 0.99918699264526367 0.034325998276472092
vn -0.00046099998871795833 0.99999397993087769 -0.0033629999961704016
vn -0.0619329996407032 0.99749797582626343 0.034079000353813171
vn -0.15997600555419922 0.98705601692199707 -0.011350000277161598
vn -0.15726099908351898 0.98679602146148682 0.038766998797655106
vn -0.15726099908351898 0.98679602146148682 0.038766000419855118
vn -0.065742000937461853 0.99767899513244629 -0.017712000757455826
vn -0.086584001779556274 0.99618697166442871 0.010716999880969524
vn 0.022090999409556389 0.99839097261428833 0.052220001816749573
vn 0.022090999409556389 0.99839097261428833 0.052220001816749573
f 1/1/1 2/2/2 3/3/3
f 1/1/1 4/4/4 2/2/2
f 1/1/1 5/5/5 4/4/4
f 6/6/6 7/7/7 8/8/8
f 9/9/9 10/10/10 11/11/11
f 8/8/8 7/7/7 12/12/12
f 12/12/12 13/13/13 14/14/14
f 12/12/12 7/7/7 13/13/13
f 15/15/15 7/7/7 16/16/16
f 15/15/15 13/13/13 7/7/7
f 7/7/7 11/11/11 16/16/16
f 9/9/9 7/7/7 6/6/6
f 9/9/9 11/11/11 7/7/7
f 17/17/17 15/15/15 16/16/16
f 18/18/18 2/2/2 4/4/4
f 2/2/2 19/19/19 20/20/20
f 2/2/2 18/18/18 19/19/19
f 21/21/21 11/11/11 2/2/2
f 3/3/3 11/11/11 10/10/10
f 3/3/3 2/2/2 11/11/11
f 2/2/2 20/20/20 21/21/21
f 21/21/21 22/22/22 16/16/16
f 23/23/23 24/24/24 20/20/20
f 23/23/23 25/25/25 24/24/24
f 21/21/21 20/20/20 26/26/26
f 19/19/19 23/23/23 20/20/20
f 11/11/11 21/21/21 16/16/16
f 22/22/22 17/17/17 16/16/16
f 22/22/22 27/27/27 17/17/17
f 28/28/28 22/22/22 29/29/29
f 28/28/28 27/27/27 22/22/22
f 22/22/22 26/26/26 29/29/29
f 26/26/26 22/22/22 21/21/21
f 30/30/30 28/28/28 29/29/29
f 31/31/31 24/24/24 25/25/25
f 24/24/24 32/32/32 33/33/33
f 24/24/24 31/31/31 32/32/32
f 34/34/34 26/26/26 24/24/24
f 24/24/24 26/26/26 20/20/20
f 24/24/24 33/33/33 34/34/34
f 34/34/34 35/35/35 29/29/29
f 34/34/34 36/36/36 35/35/35
f 37/37/37 38/38/38 33/33/33
f 37/37/37 39/39/39 38/38/38
f 39/39/39 37/37/37 40/40/40
f 41/41/41 33/33/33 42/42/42
f 41/41/41 34/34/34 33/33/33
f 32/32/32 37/37/37 33/33/33
f 26/26/26 34/34/34 29/29/29
f 41/41/41 36/36/36 34/34/34
f 38/38/38 42/42/42 33/33/33
f 35/35/35 30/30/30 29/29/29
f 35/35/35 43/43/43 30/30/30
f 43/43/43 44/44/44 30/30/30
