mtllib m21111201.mtl
usemtl material0
v -108.28447008132935 3.5469648838043213 -80
v -110.12468004226685 3.6571810245513916 -80
v -108.19317579269409 3.4411990642547607 -78.260550975799561
v -112 3.2287769317626953 -70.05908203125
v -112 3.2260150909423828 -69.8069760799408
v -111.761962890625 3.207165002822876 -70.071586966514587
v -112 3.1329219341278076 -66.05889892578125
v -112 3.1180651187896729 -65.584389209747314
v -111.5519871711731 3.0856599807739258 -66.082405090332031
v -112 3.4230380058288574 -74.029387950897217
v -111.97148084640503 3.4219269752502441 -74.061089038848877
v -112 3.4232931137084961 -74.059586048126221
v -112 3.4633359909057617 -74.605232000350952
v -112 3.7126719951629639 -78.060387134552
v -107.98464202880859 3.0238089561462402 -74.270348072052
v -104.20595599710941 3.1202239990234375 -78.4700698852539
v -112 3.7951040267944336 -80
v -112 3.7899889945983887 -79.879631042480469
v -107.77503991127014 2.8261380195617676 -70.280907034873962
v -103.99784899991937 2.6159219741821289 -74.479568004608154
v -109.62661695480347 2.8845019340515137 -64
v -107.56479597091675 2.7588300704956055 -66.291915893554688
v -111.44230699539185 3.0352270603179932 -64
v -112 3.0875179767608643 -64
v -103.78789499402046 2.4900259971618652 -70.490378975868225
v -107.44386291503906 2.7462449073791504 -64
v -103.57730901241303 2.4920530319213867 -66.501625061035156
v -105.82778203487396 2.6379570960998535 -64
v -104.28636899590492 3.1898479461669922 -80
v -106.62828803062439 3.3834400177001953 -80
v -102.82960498332977 3.0468230247497559 -80
v -100.28864288330078 2.7601029872894287 -80
v -100.21931505203247 2.6815710067749023 -78.679192066192627
v -97.464981079101562 2.623586893081665 -80
v -96.231414794921875 2.5007200241088867 -78.889205932617188
v -96.289474010467529 2.6147379875183105 -80
v -100.01032304763794 2.3584179878234863 -74.689316034317017
v -96.0226058959961 2.139970064163208 -74.899199962615967
v -96 2.5032579898834229 -78.90142822265625
v -96 2.1423890590667725 -74.924315929412842
v -96 2.1345210075378418 -74.470474004745483
v -96 2.1013040542602539 -71.079246997833252
v -99.800757884979248 2.1519570350646973 -70.6998440027237
v -96 2.5328009128570557 -79.146347045898438
v -96 2.6214599609375 -80
v -96 2.1397809982299805 -74.900391101837158
v -96 2.0922191143035889 -70.900359988212585
v -99.5904769897461 2.092461109161377 -66.710884094238281
v -96 2.03781795501709 -67.2794418334961
v -99.447539806365967 2.058661937713623 -64
v -102.02900695800781 2.3540139198303223 -64
v -103.44522899389267 2.4954650402069092 -64
v -96 1.8742899894714356 -64
v -96 2.0276429653167725 -66.47894287109375
v -98.230300903320312 2.0375959873199463 -64
v -96 2.0325119495391846 -66.900290966033936
v -96 2.0292611122131348 -66.618957996368408
vt 0.22565500438213348 0.022522985935211182
vt 0.11508800089359283 0.025995016098022461
vt 0.23478099703788757 0.12683802843093872
vt 0.022902000695466995 0.62663200497627258
vt 0.023352999240159988 0.64175400137901306
vt 0.037216998636722565 0.62546899914741516
vt 0.030305000022053719 0.86662000417709351
vt 0.031206000596284866 0.89509300142526627
vt 0.057287000119686127 0.86444400250911713
vt 0.014976000413298607 0.38823997974395752
vt 0.01662600040435791 0.3862839937210083
vt 0.014915999956429005 0.38642901182174683
vt 0.013729000464081764 0.35362100601196289
vt 0.0062469998374581337 0.14588600397109985
vt 0.25654399394989014 0.36692100763320923
vt 0.47432601451873779 0.10706502199172974
vt 0.0023070001043379307 0.029460012912750244
vt 0.0025510000996291637 0.036684989929199219
vt 0.27709001302719116 0.60605400800704956
vt 0.49658501148223877 0.34771901369094849
vt 0.17697300016880035 0.986030999571085
vt 0.29686498641967773 0.84496599435806274
vt 0.067690998315811157 0.9891780000180006
vt 0.034097000956535339 0.99013900011777878
vt 0.51673197746276855 0.58660000562667847
vt 0.30810898542404175 0.98222799971699715
vt 0.5364919900894165 0.82546600699424744
vt 0.40526199340820312 0.97948200069367886
vt 0.46642100811004639 0.015377998352050781
vt 0.32547599077224731 0.019604980945587158
vt 0.55421799421310425 0.012799978256225586
vt 0.70759600400924683 0.0083990097045898438
vt 0.71456998586654663 0.0880810022354126
vt 0.87718397378921509 0.0034250020980834961
vt 0.9535750150680542 0.067664027214050293
vt 0.94762402772903442 0.00083398818969726562
vt 0.73584997653961182 0.32766598463058472
vt 0.97497200965881348 0.30743902921676636
vt 0.96742498874664307 0.066407978534698486
vt 0.97627198696136475 0.30587500333786011
vt 0.97716397047042847 0.33310902118682861
vt 0.98386901617050171 0.53637799620628357
vt 0.75667500495910645 0.56680300831794739
vt 0.96688300371170044 0.051617026329040527
vt 0.96498501300811768 0.00015199184417724609
vt 0.97632598876953125 0.30732297897338867
vt 0.98423898220062256 0.54711899161338806
vt 0.77645200490951538 0.805866003036499
vt 0.99158698320388794 0.76429599523544312
vt 0.7905610203742981 0.96816200017929077
vt 0.63412302732467651 0.97278299927711487
vt 0.5487549901008606 0.97528699971735477
vt 0.99769300222396851 0.96142600104212761
vt 0.99228501319885254 0.812488004565239
vt 0.86357200145721436 0.96569100022315979
vt 0.99142497777938843 0.78721800446510315
vt 0.99199897050857544 0.80409100651741028
vn 0.07821500301361084 0.99533897638320923 0.056416001170873642
vn 0.070119999349117279 0.99648302793502808 0.045867998152971268
vn 0.08282499760389328 0.99406301975250244 0.070565998554229736
vn 0.09190099686384201 0.99533998966217041 0.029194999486207962
vn 0.1026109978556633 0.99449002742767334 0.0214649997651577
vn 0.096364997327327728 0.99472999572753906 0.035025998950004578
vn 0.1063229963183403 0.99393701553344727 0.028003999963402748
vn 0.096418999135494232 0.99509799480438232 0.021988000720739365
vn 0.094544999301433563 0.99527502059936523 0.022120000794529915
vn 0.082465000450611114 0.99581998586654663 0.0392719991505146
vn 0.07782900333404541 0.99526298046112061 0.058253999799489975
vn 0.049908999353647232 0.997963011264801 0.03974200040102005
vn 0.074317999184131622 0.99464702606201172 0.071796998381614685
vn 0.074022002518177032 0.99559599161148071 0.057519998401403427
vn 0.10144899785518646 0.99209898710250854 0.073812000453472137
vn 0.09954400360584259 0.99190199375152588 0.078881002962589264
vn 0.073283001780509949 0.99641197919845581 0.042348001152276993
vn 0.073283001780509949 0.99641197919845581 0.042348001152276993
vn 0.092070996761322021 0.99535399675369263 0.028176000341773033
vn 0.0925149992108345 0.993071973323822 0.072452999651432037
vn 0.077519997954368591 0.99687701463699341 0.015076000243425369
vn 0.0744440034031868 0.99719798564910889 0.0073890001513063908
vn 0.08784099668264389 0.99594402313232422 0.019494000822305679
vn 0.093336001038551331 0.99545001983642578 0.019192000851035118
vn 0.082771003246307373 0.99647998809814453 0.013264999724924564
vn 0.06509699672460556 0.99787700176239014 0.002044999971985817
vn 0.08036399632692337 0.99676299095153809 -0.0024049999192357063
vn 0.064949996769428253 0.99788802862167358 0.00022899999748915434
vn 0.089699998497962952 0.99514198303222656 0.040571998804807663
vn 0.086537003517150879 0.99524098634719849 0.044805999845266342
vn 0.10814599692821503 0.99289399385452271 0.049653999507427216
vn 0.0812859982252121 0.99517697095870972 0.0549050010740757
vn 0.0753059983253479 0.99458897113800049 0.0715629979968071
vn 0.038704000413417816 0.99698197841644287 0.067295998334884644
vn 0.015549999661743641 0.99573498964309692 0.090940997004508972
vn -0.0073040002025663853 0.99470800161361694 0.10248400270938873
vn 0.056556001305580139 0.99662697315216064 0.059466000646352768
vn 0.031831000000238419 0.998134970664978 0.052096001803874969
vn -0.0053309998475015163 0.99439799785614014 0.10557100176811218
vn -0.0014649999793618918 0.99551898241043091 0.094553999602794647
vn 0.054434999823570251 0.99846899509429932 0.0098209995776414871
vn 0.028203999623656273 0.99880897998809814 0.039806000888347626
vn 0.051020000129938126 0.99835199117660522 0.026269000023603439
vn -0.018794000148773193 0.99406999349594116 0.10710500180721283
vn -0.023088999092578888 0.9943850040435791 0.10327500104904175
vn 0.011618999764323235 0.99801099300384521 0.061955001205205917
vn 0.017472000792622566 0.99928700923919678 0.0334630012512207
vn 0.06043500080704689 0.99813401699066162 0.0087609998881816864
vn 0.017184000462293625 0.99975097179412842 0.014266000129282475
vn 0.063924998044967651 0.99791300296783447 0.0090720001608133316
vn 0.10318499803543091 0.99465698003768921 -0.0031479999888688326
vn 0.080219000577926636 0.9967610239982605 -0.0055949999950826168
vn 0.072887003421783447 0.99543702602386475 0.061579998582601547
vn 0.030313000082969666 0.99927002191543579 0.023260999470949173
vn 0.03217799961566925 0.99917101860046387 0.024939000606536865
vn 0.017369000241160393 0.999767005443573 0.01281300000846386
vn 0.017302999272942543 0.999783992767334 0.011552999727427959
f 1/1/1 2/2/2 3/3/3
f 4/4/4 5/5/5 6/6/6
f 7/7/7 8/8/8 9/9/9
f 10/10/10 11/11/11 12/12/12
f 12/12/12 11/11/11 13/13/13
f 14/14/14 11/11/11 3/3/3
f 14/14/14 13/13/13 11/11/11
f 3/3/3 15/15/15 16/16/16
f 17/17/17 3/3/3 2/2/2
f 17/17/17 18/18/18 3/3/3
f 18/18/18 14/14/14 3/3/3
f 15/15/15 19/19/19 20/20/20
f 15/15/15 3/3/3 11/11/11
f 15/15/15 11/11/11 19/19/19
f 7/7/7 6/6/6 5/5/5
f 7/7/7 9/9/9 6/6/6
f 6/6/6 9/9/9 19/19/19
f 9/9/9 21/21/21 22/22/22
f 9/9/9 23/23/23 21/21/21
f 24/24/24 9/9/9 8/8/8
f 24/24/24 23/23/23 9/9/9
f 22/22/22 19/19/19 9/9/9
f 22/22/22 25/25/25 19/19/19
f 26/26/26 27/27/27 22/22/22
f 26/26/26 28/28/28 27/27/27
f 26/26/26 22/22/22 21/21/21
f 11/11/11 6/6/6 19/19/19
f 29/29/29 3/3/3 16/16/16
f 29/29/29 30/30/30 3/3/3
f 4/4/4 11/11/11 10/10/10
f 4/4/4 6/6/6 11/11/11
f 1/1/1 3/3/3 30/30/30
f 31/31/31 29/29/29 16/16/16
f 32/32/32 16/16/16 33/33/33
f 32/32/32 31/31/31 16/16/16
f 34/34/34 35/35/35 36/36/36
f 33/33/33 20/20/20 37/37/37
f 20/20/20 33/33/33 16/16/16
f 35/35/35 37/37/37 38/38/38
f 37/37/37 35/35/35 33/33/33
f 39/39/39 38/38/38 40/40/40
f 39/39/39 35/35/35 38/38/38
f 41/41/41 37/37/37 42/42/42
f 41/41/41 38/38/38 37/37/37
f 34/34/34 33/33/33 35/35/35
f 34/34/34 32/32/32 33/33/33
f 37/37/37 20/20/20 43/43/43
f 44/44/44 36/36/36 35/35/35
f 44/44/44 45/45/45 36/36/36
f 20/20/20 16/16/16 15/15/15
f 40/40/40 38/38/38 46/46/46
f 39/39/39 44/44/44 35/35/35
f 27/27/27 25/25/25 22/22/22
f 25/25/25 27/27/27 43/43/43
f 47/47/47 37/37/37 43/43/43
f 47/47/47 42/42/42 37/37/37
f 25/25/25 43/43/43 20/20/20
f 43/43/43 27/27/27 48/48/48
f 41/41/41 46/46/46 38/38/38
f 47/47/47 43/43/43 49/49/49
f 50/50/50 48/48/48 51/51/51
f 52/52/52 48/48/48 27/27/27
f 52/52/52 51/51/51 48/48/48
f 53/53/53 54/54/54 55/55/55
f 50/50/50 56/56/56 48/48/48
f 50/50/50 57/57/57 56/56/56
f 57/57/57 55/55/55 54/54/54
f 57/57/57 50/50/50 55/55/55
f 49/49/49 48/48/48 56/56/56
f 49/49/49 43/43/43 48/48/48
f 52/52/52 27/27/27 28/28/28
f 25/25/25 20/20/20 19/19/19
