mtllib m211000.mtl
usemtl material0
v -512 5.7660431861877441 -64
v -512 5.6467962265014648 -55.937652587890625
v -504.74554443359375 6.0862870216369629 -64
v -499.41677856445312 6.2703461647033691 -64
v -498.87088012695312 6.046410083770752 -53.638401031494141
v -489.54776000976562 6.5082168579101562 -64
v -512 5.5766401290893555 -52.943584442138672
v -512 5.5011591911315918 -50.249088287353516
v -498.03060913085938 5.6282458305358887 -37.68192720413208
v -474.34994506835938 6.9324560165405273 -64
v -483.4153139591217 6.6446008682250977 -64
v -482.91397094726562 6.4220108985900879 -54.482246398925781
v -466.95916652679443 6.3488140106201172 -55.324539184570312
v -467.41455078125 6.8784351348876953 -64
v -459.70492553710938 6.96865701675415 -64
v -451.00289916992188 6.587547779083252 -56.167911529541016
v -451.4144287109375 6.9770331382751465 -64
v -482.07717895507812 5.2719259262084961 -38.523242950439453
v -512 5.5404410362243652 -36.943957805633545
v -512 5.7429041862487793 -22.15504264831543
v -481.23391699790955 5.4752588272094727 -22.568913459777832
v -466.11956787109375 5.7870979309082031 -39.3675651550293
v -512 5.7463870048522949 -20.945107460021973
v -497.1881103515625 5.6699600219726562 -21.72703742980957
v -512 6.02683687210083 -4.9464912414550781
v -496.345458984375 5.7462658882141113 -5.7722682952880859
v -512 6.025026798248291 -5.2633037567138672
v -480.39205899834633 5.3806700706481934 -6.613555908203125
v -465.27816772460938 5.6003007888793945 -23.411888122558594
v -480.04269399866462 5.4296760559082031 0
v -489.930419921875 5.6517858505249023 0
v -496.04031372070312 5.8309078216552734 0
v -512 6.0284948348999023 -4.8399639129638672
v -506.81893920898438 6.0152368545532227 0
v -512 6.03127384185791 -4.6614894866943359
v -450.160888671875 6.5302181243896484 -40.212677001953125
v -448 6.6181812286376953 -42.614288330078125
v -448 6.5564560890197754 -40.326869964599609
v -448 6.6925492286682129 -56.326824188232422
v -448 6.4507589340209961 -38.267929077148438
v -448 6.8320121765136719 -59.038856506347656
v -448 7.0871319770812988 -64
v -449.32101440429688 6.0265321731567383 -24.255902767181396
v -464.43783569335938 5.1922402381896973 -7.4554538726806641
v -448.4776611328125 6.2493200302124023 -8.3016376495361328
v -448 6.238677978515625 -8.8325576782226562
v -448 6.2595329284667969 -8.3268928527832031
v -448 6.01710319519043 -24.325632095336914
v -448 6.2636728286743164 -8.0604438781738281
v -448 6.2666020393371582 -7.8720302581787109
v -448.03863525390625 6.4023017883300781 0
v -456.14541625976562 5.8589739799499512 0
v -464.04339599609375 5.365227222442627 0
v -473.04046583175659 5.4602069854736328 0
v -448 6.4030971527099609 0
v -512 6.1314067840576172 0
vt 0.99895000457763672 0.0023580193519592285
vt 0.87345600128173828 0.002276003360748291
vt 0.99895000457763672 0.11537402868270874
vt 0.99893498420715332 0.19835799932479858
vt 0.83762401342391968 0.20669901371002197
vt 0.998869001865387 0.35200101137161255
vt 0.82684499025344849 0.0022299885749816895
vt 0.78489202260971069 0.0021820068359375
vt 0.5891839861869812 0.21949899196624756
vt 0.99879199266433716 0.58862900733947754
vt 0.99882501363754272 0.44746798276901245
vt 0.85064500570297241 0.45512199401855469
vt 0.86362999677658081 0.70344600081443787
vt 0.9989050030708313 0.69640299677848816
vt 0.99895298480987549 0.81640100479125977
vt 0.87600702047348022 0.95185099914669991
vt 0.99807602167129517 0.94588800147175789
vt 0.60185402631759644 0.46787697076797485
vt 0.57781499624252319 0.0020740032196044922
vt 0.34762400388717651 0.0019710063934326172
vt 0.35350000858306885 0.48050397634506226
vt 0.61440098285675049 0.71639600396156311
vt 0.3287929892539978 0.0019630193710327148
vt 0.34084299206733704 0.23215699195861816
vt 0.08007899671792984 0.0011079907417297363
vt 0.092501997947692871 0.24481201171875
vt 0.084688000380992889 0.0018339753150939941
vt 0.10514099895954132 0.49299901723861694
vt 0.366023987531662 0.72887301445007324
vt 0.0022060000337660313 0.49842697381973267
vt 0.0024820000398904085 0.34450000524520874
vt 0.0026449998840689659 0.24937897920608521
vt 0.07842099666595459 0.0011050105094909668
vt 0.0029420000500977039 0.081600010395050049
vt 0.075643002986907959 0.0010989904403686523
vt 0.62768799066543579 0.96503299847245216
vt 0.66508197784423828 0.99867400003131479
vt 0.62881898880004883 0.99897499999497086
vt 0.8785020112991333 0.99861400004010648
vt 0.59673398733139038 0.99859600001946092
vt 0.92065399885177612 0.99877399997785687
vt 0.99796897172927856 0.999056999979075
vt 0.37862300872802734 0.97734099999070168
vt 0.11756599694490433 0.74124500155448914
vt 0.13027900457382202 0.99021099973469973
vt 0.13853499293327332 0.99765400006435812
vt 0.13065899908542633 0.99764800001867116
vt 0.37963798642158508 0.9979050001129508
vt 0.12651599943637848 0.99764399998821318
vt 0.12358299642801285 0.99764199997298419
vt 0.0010479999473318458 0.99695000005885959
vt 0.0010770000517368317 0.87031200528144836
vt 0.0014890000456944108 0.74715098738670349
vt 0.0021929999347776175 0.60740900039672852
vt 0.0010470000561326742 0.99755099997855723
vt 0.0030759999062865973 0.00094300508499145508
vn -0.044096998870372772 0.99891799688339233 0.014774000272154808
vn -0.036747001111507416 0.99909502267837524 0.021397000178694725
vn -0.037066001445055008 0.99909001588821411 0.021110000088810921
vn -0.029472999274730682 0.999297022819519 0.023150000721216202
vn -0.022489000111818314 0.99926501512527466 0.031029999256134033
vn -0.022724000737071037 0.99945098161697388 0.024097999557852745
vn -0.034382998943328857 0.99907600879669189 0.025776999071240425
vn -0.026844000443816185 0.99944502115249634 0.019733000546693802
vn 0.0047729997895658016 0.99997502565383911 0.0051589999347925186
vn -0.0027630000840872526 0.99869102239608765 0.051073998212814331
vn -0.026821000501513481 0.99933302402496338 0.024784000590443611
vn -0.011366999708116055 0.99853402376174927 0.052926000207662582
vn -0.0069789998233318329 0.99856901168823242 0.053018998354673386
vn -0.0016289999475702643 0.998134970664978 0.061020001769065857
vn -0.0091880001127719879 0.99822902679443359 0.058782000094652176
vn -0.025710999965667725 0.99911302328109741 0.033339999616146088
vn -0.016087999567389488 0.99859398603439331 0.050505001097917557
vn -0.0050590001046657562 0.99979597330093384 0.01953900046646595
vn -0.00673400005325675 0.99994099140167236 -0.00850099977105856
vn 0.0022060000337660313 0.999983012676239 -0.0054000001400709152
vn 0.0017049999441951513 0.99999797344207764 -0.000514000013936311
vn -0.028832999989390373 0.99937498569488525 0.020439000800251961
vn 0.0046009998768568039 0.99993401765823364 -0.010572999715805054
vn 0.0099689997732639313 0.99993300437927246 -0.0058200000785291195
vn 0.017348999157547951 0.99979102611541748 -0.010804000310599804
vn 0.019533999264240265 0.99977302551269531 -0.0085070002824068069
vn 0.014495000243186951 0.99985897541046143 -0.0085230004042387
vn 0.012881999835371971 0.99991697072982788 -0.00093899999046698213
vn -0.013919999822974205 0.9997599720954895 0.016914999112486839
vn 0.0085990000516176224 0.99993199110031128 -0.0078640002757310867
vn 0.024052999913692474 0.99965697526931763 -0.010369000025093556
vn 0.023403000086545944 0.99959999322891235 -0.015894999727606773
vn 0.017097000032663345 0.99973297119140625 -0.015564000234007835
vn 0.018337000161409378 0.99968802928924561 -0.016940999776124954
vn 0.018516000360250473 0.99968200922012329 -0.017139999195933342
vn -0.028480000793933868 0.99929797649383545 0.024325000122189522
vn -0.029077000916004181 0.99952298402786255 0.010447000153362751
vn -0.010087000206112862 0.99919998645782471 0.038711000233888626
vn -0.033388998359441757 0.99901700019836426 0.029168000444769859
vn 0.0039249998517334461 0.99932700395584106 0.036469999700784683
vn -0.032186001539230347 0.99816298484802246 0.051329001784324646
vn -0.032186001539230347 0.99816298484802246 0.051329001784324646
vn -0.016564000397920609 0.99978899955749512 0.012129000388085842
vn -0.021730000153183937 0.99976199865341187 -0.0019990000873804092
vn -0.040883000940084457 0.99901300668716431 -0.017371000722050667
vn -0.00059700000565499067 0.99978798627853394 -0.020576000213623047
vn -0.0228899996727705 0.99932301044464111 -0.028792999684810638
vn 0.0076210000552237034 0.99992901086807251 0.0091570001095533371
vn -0.0221950002014637 0.99963301420211792 -0.015534999780356884
vn -0.021009000018239021 0.99963700771331787 -0.016853999346494675
vn -0.042943999171257019 0.998947024345398 -0.016138000413775444
vn -0.065820999443531036 0.99770301580429077 -0.016013000160455704
vn -0.027171000838279724 0.9993939995765686 -0.021750999614596367
vn 0.0070759998634457588 0.99977701902389526 -0.019889000803232193
vn -0.020578999072313309 0.999638020992279 -0.017333000898361206
vn 0.022410999983549118 0.99951797723770142 -0.021470999345183372
f 1/1/1 2/2/2 3/3/3
f 4/4/4 5/5/5 6/6/6
f 7/7/7 3/3/3 2/2/2
f 7/7/7 5/5/5 3/3/3
f 5/5/5 4/4/4 3/3/3
f 5/5/5 8/8/8 9/9/9
f 5/5/5 7/7/7 8/8/8
f 10/10/10 11/11/11 12/12/12
f 10/10/10 13/13/13 14/14/14
f 10/10/10 12/12/12 13/13/13
f 12/12/12 6/6/6 5/5/5
f 12/12/12 11/11/11 6/6/6
f 15/15/15 16/16/16 17/17/17
f 12/12/12 5/5/5 18/18/18
f 19/19/19 20/20/20 9/9/9
f 18/18/18 5/5/5 9/9/9
f 19/19/19 9/9/9 8/8/8
f 18/18/18 21/21/21 22/22/22
f 9/9/9 23/23/23 24/24/24
f 9/9/9 20/20/20 23/23/23
f 18/18/18 13/13/13 12/12/12
f 9/9/9 21/21/21 18/18/18
f 24/24/24 25/25/25 26/26/26
f 24/24/24 27/27/27 25/25/25
f 27/27/27 24/24/24 23/23/23
f 21/21/21 26/26/26 28/28/28
f 26/26/26 21/21/21 24/24/24
f 28/28/28 29/29/29 21/21/21
f 26/26/26 30/30/30 28/28/28
f 26/26/26 31/31/31 30/30/30
f 9/9/9 24/24/24 21/21/21
f 25/25/25 32/32/32 26/26/26
f 25/25/25 33/33/33 32/32/32
f 33/33/33 34/34/34 32/32/32
f 33/33/33 35/35/35 34/34/34
f 18/18/18 22/22/22 13/13/13
f 16/16/16 22/22/22 36/36/36
f 22/22/22 16/16/16 13/13/13
f 37/37/37 36/36/36 38/38/38
f 36/36/36 39/39/39 16/16/16
f 36/36/36 37/37/37 39/39/39
f 38/38/38 36/36/36 40/40/40
f 41/41/41 16/16/16 39/39/39
f 41/41/41 17/17/17 16/16/16
f 41/41/41 42/42/42 17/17/17
f 36/36/36 22/22/22 43/43/43
f 43/43/43 29/29/29 44/44/44
f 29/29/29 43/43/43 22/22/22
f 43/43/43 44/44/44 45/45/45
f 44/44/44 29/29/29 28/28/28
f 46/46/46 45/45/45 47/47/47
f 45/45/45 48/48/48 43/43/43
f 45/45/45 46/46/46 48/48/48
f 47/47/47 45/45/45 49/49/49
f 49/49/49 45/45/45 50/50/50
f 40/40/40 43/43/43 48/48/48
f 40/40/40 36/36/36 43/43/43
f 44/44/44 51/51/51 45/45/45
f 44/44/44 52/52/52 51/51/51
f 29/29/29 22/22/22 21/21/21
f 15/15/15 13/13/13 16/16/16
f 15/15/15 14/14/14 13/13/13
f 28/28/28 53/53/53 44/44/44
f 28/28/28 54/54/54 53/53/53
f 54/54/54 28/28/28 30/30/30
f 53/53/53 52/52/52 44/44/44
f 51/51/51 50/50/50 45/45/45
f 51/51/51 55/55/55 50/50/50
f 32/32/32 31/31/31 26/26/26
f 56/56/56 34/34/34 35/35/35
