mtllib m211211.mtl
usemtl material0
v -320 8.6384658813476562 -287.8585509955883
v -320 8.64319133758545 -287.08584600687027
v -319.18881225585938 8.6236906051635742 -287.12863200902939
v -320 8.51086711883545 -286.22723400592804
v -320 6.2563948631286621 -256
v -318.392578125 6.3621058464050293 -256
v -320 6.378079891204834 -257.4462890625
v -320 8.5560512542724609 -302.48806762695312
v -320 8.55130386352539 -303.118408203125
v -304.92349243164062 7.5326180458068848 -319.87744140625
v -320 8.0483474731445312 -319.08297729492188
v -304.07925415039062 7.9359560012817383 -303.923828125
v -320 8.55221176147461 -303.08511352539062
v -304.92999267578125 7.5272259712219238 -320
v -304.81326293945312 7.5237131118774414 -320
v -302.59881591796875 7.4688119888305664 -320
v -289.61679100990295 7.1307401657104492 -320
v -303.2340087890625 8.5506420135498047 -287.97091699950397
v -320 8.5534238815307617 -303.05514526367188
v -320 8.0064620971679688 -320
v -320 8.0064659118652344 -319.99990844726562
v -288.93237298727036 7.1237602233886719 -320
v -288.12506100535393 7.7388110160827637 -304.76568603515625
v -256 7.7488508224487305 -320
v -256.21456909179688 7.7725110054016113 -306.45089721679688
v -256 7.77359676361084 -306.68939208984375
v -256.93002319335938 7.7422199249267578 -320
v -288.17163099348545 7.1258211135864258 -320
v -272.16986083984375 7.7481307983398438 -305.6082763671875
v -272.93276977539062 7.1212787628173828 -320
v -271.27996826171875 7.1275877952575684 -320
v -320 8.0439434051513672 -271.08438110351562
v -318.34848022460938 8.2197647094726562 -271.17214965820312
v -287.28106701374054 8.0917825698852539 -288.81185901165009
v -271.32919311523438 7.4116611480712891 -289.65200805664062
v -302.39273071289062 8.3410482406616211 -272.01513671875
v -302.6312255859375 7.4190478324890137 -256
v -301.60592746734619 7.4923558235168457 -256
v -301.55453491210938 7.4961371421813965 -256.05709838867188
v -317.556396484375 6.4456968307495117 -256
v -285.60244798660278 6.8595471382141113 -256.89743041992188
v -301.55154418945312 7.49022912979126 -256
v -286.409942984581 6.8053560256958008 -256
v -286.4393310546875 7.9754490852355957 -272.85641479492188
v -256 7.3520498275756836 -290.46133399009705
v -256 7.3644618988037109 -291.057373046875
v -256 7.6645112037658691 -302.37585353851318
v -270.48757934570312 7.2762851715087891 -273.69650268554688
v -256 6.7389740943908691 -275.85519409179688
v -271.21426391601562 5.9661870002746582 -256
v -269.65142822265625 6.0055990219116211 -257.73696899414062
v -285.555419921875 6.7900938987731934 -256
v -256 6.4504280090332031 -258.45932006835938
v -256 6.6286687850952148 -260.65707397460938
v -256 6.7299351692199707 -274.45974731445312
v -269.55975341796875 5.9972929954528809 -256
v -256 6.38759708404541 -256.181640625
v -268.9688720703125 5.9789280891418457 -256
v -256 6.3825860023498535 -256
v -256 7.771355152130127 -306.25784301757812
v -256 7.7776308059692383 -306.46224975585938
vt 0.98987597227096558 0.4948430061340332
vt 0.98987597227096558 0.48294198513031006
vt 0.97737902402877808 0.48360300064086914
vt 0.98981702327728271 0.46956300735473633
vt 0.987758994102478 0.00229799747467041
vt 0.96295100450515747 0.0025029778480529785
vt 0.987820029258728 0.024650990962982178
vt 0.98987799882888794 0.72015300393104553
vt 0.98987698554992676 0.7298550009727478
vt 0.75747102499008179 0.98823999986052513
vt 0.98978900909423828 0.97584399953484535
vt 0.74451202154159546 0.74246099591255188
vt 0.98987698554992676 0.72934499382972717
vt 0.75757002830505371 0.99012999981641769
vt 0.7557709813117981 0.99013100005686283
vt 0.72165697813034058 0.99014599993824959
vt 0.526449978351593 0.99295700015500188
vt 0.731660008430481 0.49658197164535522
vt 0.98987501859664917 0.72888600826263428
vt 0.98977702856063843 0.98998000007122755
vt 0.98977702856063843 0.98998000007122755
vt 0.51591002941131592 0.99312700005248189
vt 0.50055998563766479 0.7584879994392395
vt 0.0081810001283884048 0.99770199996419251
vt 0.009584999643266201 0.789012998342514
vt 0.0063140001147985458 0.79271599650383
vt 0.02250399999320507 0.997571999905631
vt 0.504194974899292 0.99327100021764636
vt 0.25516900420188904 0.77359099686145782
vt 0.2691510021686554 0.99531600018963218
vt 0.24369800090789795 0.99556799978017807
vt 0.98774701356887817 0.23624902963638306
vt 0.96218699216842651 0.23791098594665527
vt 0.48606300354003906 0.51280900835990906
vt 0.24029099941253662 0.52790600061416626
vt 0.71651297807693481 0.25206398963928223
vt 0.71967297792434692 0.0049489736557006836
vt 0.70384299755096436 0.0050920248031616211
vt 0.70251297950744629 0.0060129761695861816
vt 0.95001000165939331 0.0026540160179138184
vt 0.45667299628257751 0.019519984722137451
vt 0.70246100425720215 0.0051289796829223633
vt 0.4690299928188324 0.0056030154228210449
vt 0.47087898850440979 0.26720398664474487
vt 0.0043119997717440128 0.54220300912857056
vt 0.0043839998543262482 0.55138400197029114
vt 0.0057560000568628311 0.72575300931930542
vt 0.22509600222110748 0.28229802846908569
vt 0.0021240001078695059 0.3175089955329895
vt 0.23464399576187134 0.0059080123901367188
vt 0.21067899465560913 0.032759010791778564
vt 0.45586800575256348 0.0056620240211486816
vt 0.00041999999666586518 0.04555898904800415
vt 0.00040099999750964344 0.079518020153045654
vt 0.0019290000200271606 0.29601901769638062
vt 0.2091590017080307 0.0060129761695861816
vt 0.00017100000695791096 0.010469019412994385
vt 0.20005400478839874 0.0060489773750305176
vt 0.00023299999884329736 0.0076689720153808594
vt 0.0062259999103844166 0.7855599969625473
vt 0.0060160001739859581 0.78870199620723724
vn 0.023392999544739723 0.99971002340316772 -0.0057600000873208046
vn 0.027961999177932739 0.99672698974609375 0.0758569985628128
vn -0.00060500000836327672 0.99964302778244019 0.026691999286413193
vn -0.072803996503353119 0.99559402465820312 0.059096001088619232
vn -0.065392002463340759 0.994346022605896 0.083659999072551727
vn -0.09094499796628952 0.98953700065612793 0.11200500279664993
vn -0.089835003018379211 0.98977702856063843 0.11077500134706497
vn 0.0046620001085102558 0.99997800588607788 -0.0046500000171363354
vn 0.036132000386714935 0.99894797801971436 -0.028223000466823578
vn 0.030014000833034515 0.99884998798370361 -0.03737499937415123
vn 0.032147001475095749 0.9987490177154541 -0.038297001272439957
vn 0.027689000591635704 0.99906599521636963 -0.033174999058246613
vn 0.036860000342130661 0.998740017414093 -0.034044999629259109
vn 0.030929999426007271 0.99848300218582153 -0.045561999082565308
vn 0.026166999712586403 0.99845600128173828 -0.049008000642061234
vn 0.026001999154686928 0.99929600954055786 -0.027038000524044037
vn 0.014413000084459782 0.99920797348022461 -0.037080999463796616
vn 0.018988000229001045 0.99978798627853394 -0.0078999996185302734
vn 0.027922999113798141 0.99913400411605835 -0.030851999297738075
vn 0.031725000590085983 0.99862402677536011 -0.041762001812458038
vn 0.031738001853227615 0.99854201078414917 -0.043666001409292221
vn 0.0039579998701810837 0.99917000532150269 -0.040548998862504959
vn 0.0098940003663301468 0.9996039867401123 -0.026356000453233719
vn -0.0071290000341832638 0.99997299909591675 -0.0018589999526739121
vn -0.015054999850690365 0.99986797571182251 0.006039000116288662
vn -0.011249000206589699 0.99992102384567261 -0.0055660000070929527
vn -0.025564000010490417 0.99967300891876221 -0.00088499998673796654
vn -0.0020059999078512192 0.99915802478790283 -0.040973998606204987
vn -0.00051599997095763683 0.99994897842407227 -0.010120999999344349
vn -0.0016890000551939011 0.999055027961731 -0.043425999581813812
vn -0.012901999987661839 0.999364972114563 -0.033222001045942307
vn -0.10147300362586975 0.99181801080703735 0.077463999390602112
vn -0.059594001621007919 0.99615597724914551 0.06419999897480011
vn 0.032343000173568726 0.999422013759613 -0.010439000092446804
vn 0.022871999070048332 0.99966299533843994 0.012253999710083008
vn 0.012276000343263149 0.9993550181388855 0.033739000558853149
vn -0.064732998609542847 0.99098700284957886 0.1172809973359108
vn -0.041914001107215881 0.99871701002120972 0.028407000005245209
vn 0.0090760001912713051 0.99734002351760864 0.072322003543376923
vn -0.081234999001026154 0.98945200443267822 0.119937002658844
vn 0.044991001486778259 0.99637699127197266 0.072168000042438507
vn 0.042031001299619675 0.99403399229049683 0.10065200179815292
vn 0.037693999707698822 0.994858980178833 0.0939909964799881
vn 0.036371998488903046 0.99861800670623779 0.037946999073028564
vn 0.0055249999277293682 0.99950301647186279 0.031026000156998634
vn 0.0036230001132935286 0.9997439980506897 0.022335000336170197
vn -0.00044999999227002263 0.99964797496795654 0.026517000049352646
vn 0.033727001398801804 0.99887198209762573 0.033426001667976379
vn 0.02951899915933609 0.99943697452545166 0.01593099907040596
vn 0.036945998668670654 0.99775397777557373 0.055881001055240631
vn 0.0062440000474452972 0.9985319972038269 0.053796999156475067
vn 0.038199000060558319 0.996442973613739 0.075113996863365173
vn -0.029603999108076096 0.99804002046585083 0.055126000195741653
vn -0.01052400004118681 0.9980660080909729 0.061262998729944229
vn 0.03804599866271019 0.99925202131271362 0.0068879998289048672
vn 0.00697400001809001 0.999966025352478 0.0044140000827610493
vn -0.031098000705242157 0.99913597106933594 0.02756199985742569
vn -0.0074269999749958515 0.9998059868812561 0.018270999193191528
vn -0.031098000705242157 0.99913597106933594 0.027560999616980553
vn -0.020126000046730042 0.99939501285552979 0.028355000540614128
vn -0.023554999381303787 0.99970698356628418 0.0056509999558329582
f 1/1/1 2/2/2 3/3/3
f 2/2/2 4/4/4 3/3/3
f 5/5/5 6/6/6 7/7/7
f 8/8/8 1/1/1 3/3/3
f 9/9/9 10/10/10 11/11/11
f 9/9/9 12/12/12 10/10/10
f 9/9/9 13/13/13 12/12/12
f 14/14/14 10/10/10 15/15/15
f 16/16/16 12/12/12 17/17/17
f 16/16/16 10/10/10 12/12/12
f 15/15/15 10/10/10 16/16/16
f 13/13/13 18/18/18 12/12/12
f 13/13/13 19/19/19 18/18/18
f 20/20/20 10/10/10 14/14/14
f 20/20/20 21/21/21 10/10/10
f 21/21/21 11/11/11 10/10/10
f 22/22/22 12/12/12 23/23/23
f 22/22/22 17/17/17 12/12/12
f 24/24/24 25/25/25 26/26/26
f 24/24/24 27/27/27 25/25/25
f 28/28/28 29/29/29 30/30/30
f 31/31/31 25/25/25 27/27/27
f 32/32/32 3/3/3 4/4/4
f 32/32/32 33/33/33 3/3/3
f 3/3/3 33/33/33 18/18/18
f 34/34/34 12/12/12 18/18/18
f 19/19/19 3/3/3 18/18/18
f 19/19/19 8/8/8 3/3/3
f 23/23/23 34/34/34 35/35/35
f 18/18/18 33/33/33 36/36/36
f 34/34/34 23/23/23 12/12/12
f 18/18/18 36/36/36 34/34/34
f 37/37/37 38/38/38 39/39/39
f 40/40/40 39/39/39 33/33/33
f 40/40/40 37/37/37 39/39/39
f 39/39/39 41/41/41 36/36/36
f 42/42/42 41/41/41 39/39/39
f 42/42/42 43/43/43 41/41/41
f 42/42/42 39/39/39 38/38/38
f 36/36/36 33/33/33 39/39/39
f 36/36/36 44/44/44 34/34/34
f 7/7/7 33/33/33 32/32/32
f 7/7/7 6/6/6 33/33/33
f 6/6/6 40/40/40 33/33/33
f 35/35/35 34/34/34 44/44/44
f 23/23/23 35/35/35 29/29/29
f 45/45/45 29/29/29 35/35/35
f 45/45/45 46/46/46 29/29/29
f 29/29/29 47/47/47 25/25/25
f 29/29/29 46/46/46 47/47/47
f 35/35/35 44/44/44 48/48/48
f 31/31/31 29/29/29 25/25/25
f 31/31/31 30/30/30 29/29/29
f 45/45/45 35/35/35 49/49/49
f 41/41/41 50/50/50 51/51/51
f 41/41/41 52/52/52 50/50/50
f 44/44/44 51/51/51 48/48/48
f 44/44/44 41/41/41 51/51/51
f 52/52/52 41/41/41 43/43/43
f 53/53/53 48/48/48 51/51/51
f 53/53/53 54/54/54 48/48/48
f 55/55/55 48/48/48 54/54/54
f 56/56/56 51/51/51 50/50/50
f 49/49/49 48/48/48 55/55/55
f 49/49/49 35/35/35 48/48/48
f 53/53/53 51/51/51 57/57/57
f 57/57/57 58/58/58 59/59/59
f 57/57/57 51/51/51 58/58/58
f 41/41/41 44/44/44 36/36/36
f 28/28/28 23/23/23 29/29/29
f 28/28/28 22/22/22 23/23/23
f 60/60/60 25/25/25 47/47/47
f 58/58/58 51/51/51 56/56/56
f 60/60/60 61/61/61 25/25/25
f 61/61/61 26/26/26 25/25/25
