mtllib m21111000.mtl
usemtl material0
v -120.90632599592209 3.3762331008911133 -16
v -123.44818091392517 3.5497291088104248 -16
v -120.77938097715378 3.4006490707397461 -13.59774112701416
v -116.90780591964722 3.1027889251708984 -16
v -119.22764599323273 3.2774410247802734 -16
v -116.79175591468811 3.1631870269775391 -13.807559967041016
v -124.90509796142578 3.599445104598999 -16
v -127.66959381103516 3.7211179733276367 -16
v -124.76752519607544 3.5316619873046875 -13.387556076049805
v -128 3.7138540744781494 -13.2174391746521
v -124.5576548576355 3.3890950679779053 -9.3983080387115479
v -128 3.690330982208252 -12.497714996337891
v -128 3.7318620681762695 -15.141036033630371
v -128 3.7399039268493652 -16
v -112.90948486328125 2.788672924041748 -16
v -112.80445098876953 2.8602919578552246 -14.017154216766357
v -114.81962585449219 2.9297571182250977 -16
v -116.58054399490356 3.2950289249420166 -9.8192570209503174
v -120.56829100847244 3.5071001052856445 -9.6093499660491943
v -112 2.7760200500488281 -14.059366226196289
v -112 2.8073029518127441 -13.292983055114746
v -112 2.7676749229431152 -14.911464214324951
v -112 2.7242751121520996 -16
v -112.59355878829956 2.9252409934997559 -10.028620958328247
v -128 3.5371620655059814 -9.2169990539550781
v -124.34624481201172 3.5599939823150635 -5.4101390838623047
v -128 3.5605480670928955 -8.6973900198936462
v -120.35782599449158 3.4861080646514893 -5.620521068572998
v -112.38294982910156 2.9340329170227051 -6.0398939847946167
v -112 2.874406099319458 -10.059803009033203
v -112 2.8809618949890137 -9.494251012802124
v -116.36996507644653 3.296497106552124 -5.8305048942565918
v -128 3.6586089134216309 -4.8988490104675293
v -128 3.6504900455474854 -5.2174830436706543
v -124.13520812988281 3.656670093536377 -1.4217138290405273
v -116.15924096107483 3.328233003616333 -1.8418569564819336
v -112 2.9031119346618652 -6.0600179433822632
v -112.17182922363281 3.0458459854125977 -2.0515217781066895
v -120.14706400036812 3.5246798992156982 -1.6318960189819336
v -112 2.9105889797210693 -5.6951758861541748
v -128 3.8049240112304688 -1.21809720993042
v -122.55453491210938 3.7075109481811523 0
v -120.06036400049925 3.6339740753173828 0
v -118.33296203613281 3.5545580387115479 0
v -116.06138610839844 3.4509119987487793 0
v -128 3.8113949298858643 -1.1007351875305176
v -126.77639007568359 3.8287050724029541 0
v -124.05976915359497 3.7323870658874512 0
v -112 3.0430009365081787 -1.8969039916992188
v -112 3.0299510955810547 -2.0605459213256836
v -114.11215209960938 3.3138680458068848 0
v -112.06287384033203 3.1759569644927979 0
v -128 3.8885130882263184 0
v -112 3.1710960865020752 0
vt 0 0.4433550238609314
vt 0 0.2844889760017395
vt 0.15014100074768066 0.45128899812698364
vt 0 0.6932620108127594
vt 0 0.54827201366424561
vt 0.13702799379825592 0.70051500201225281
vt 0 0.19343101978302002
vt 0 0.020650029182434082
vt 0.1632779985666275 0.2020300030708313
vt 0.17391000688076019 0
vt 0.41260600090026855 0.21514701843261719
vt 0.21889300644397736 0
vt 0.05368499830365181 0
vt 0 0
vt 0 0.94315699860453606
vt 0.123928003013134 0.94972199946641922
vt 0 0.82377299666404724
vt 0.38629600405693054 0.71371600031852722
vt 0.3994159996509552 0.46448200941085815
vt 0.12128999829292297 1
vt 0.16918900609016419 1
vt 0.06803400069475174 1
vt 0 1
vt 0.37321099638938904 0.96290300041437149
vt 0.42393800616264343 0
vt 0.66186600923538208 0.22835999727249146
vt 0.45641300082206726 0
vt 0.64871698617935181 0.47763597965240479
vt 0.62250697612762451 0.97606600075960159
vt 0.37126201391220093 1
vt 0.40660899877548218 1
vt 0.6355929970741272 0.72687700390815735
vt 0.69382202625274658 0
vt 0.67390698194503784 0
vt 0.91114300489425659 0.24154901504516602
vt 0.88488399982452393 0.74004700779914856
vt 0.62124902009963989 1
vt 0.87177997827529907 0.98926100041717291
vt 0.898006021976471 0.49080801010131836
vt 0.64405101537704468 1
vt 0.92386901378631592 0
vt 1 0.34034198522567749
vt 1 0.49622702598571777
vt 1 0.60418999195098877
vt 1 0.746163010597229
vt 0.93120402097702026 0
vt 1 0.076475977897644043
vt 1 0.24626398086547852
vt 0.881443977355957 1
vt 0.87121599912643433 1
vt 1 0.86799000203609467
vt 1 0.99606999987736344
vt 1 0
vt 1 1
vn 0.061689000576734543 0.9980049729347229 -0.013403000310063362
vn 0.055732998996973038 0.998445987701416 4.5000000682193786E-05
vn 0.047690000385046005 0.99870598316192627 -0.017680000513792038
vn 0.078592002391815186 0.99640601873397827 -0.031608998775482178
vn 0.0682080015540123 0.99738699197769165 -0.023804999887943268
vn 0.072150997817516327 0.99695098400115967 -0.029706999659538269
vn 0.037459999322891235 0.99901098012924194 0.023948000743985176
vn 0.051350999623537064 0.99856197834014893 0.015371999703347683
vn 0.027882000431418419 0.99949902296066284 0.014976000413298607
vn 0.057500999420881271 0.99806398153305054 0.023699000477790833
vn 0.014938999898731709 0.99987697601318359 0.00471000000834465
vn 0.047639999538660049 0.99789202213287354 0.044075001031160355
vn 0.056761998683214188 0.99834400415420532 0.0093459999188780785
vn 0.056763000786304474 0.99834400415420532 0.0093470001593232155
vn 0.0732090026140213 0.99651902914047241 -0.039872001856565475
vn 0.076186001300811768 0.996724009513855 -0.027160000056028366
vn 0.078271001577377319 0.99629402160644531 -0.035670001059770584
vn 0.0724719986319542 0.99717497825622559 -0.019742999225854874
vn 0.021130999550223351 0.99977397918701172 -0.0023610000498592854
vn 0.10289199650287628 0.99439400434494019 -0.024346999824047089
vn 0.08619999885559082 0.99601501226425171 -0.022874999791383743
vn 0.085147999227046967 0.99601399898529053 -0.026558000594377518
vn 0.070574000477790833 0.9967150092124939 -0.039739001542329788
vn 0.085316002368927 0.99613499641418457 -0.020878000184893608
vn 0.042626000940799713 0.9990689754486084 -0.0065879998728632927
vn 0.025575999170541763 0.99923801422119141 -0.029488999396562576
vn 0.025626000016927719 0.99927002191543579 -0.028315000236034393
vn 0.024699000641703606 0.99963200092315674 -0.011238000355660915
vn 0.089639998972415924 0.99586302042007446 -0.014863000251352787
vn 0.084307998418807983 0.99625200033187866 -0.019317999482154846
vn 0.080539003014564514 0.99672800302505493 -0.0068689999170601368
vn 0.066140003502368927 0.997759997844696 -0.010049000382423401
vn 0.029471000656485558 0.99904698133468628 -0.032200001180171967
vn 0.023392999544739723 0.99939298629760742 -0.025800000876188278
vn 0.030563000589609146 0.99879997968673706 -0.038274001330137253
vn 0.055739998817443848 0.99800598621368408 -0.029611999168992043
vn 0.0800739973783493 0.99675899744033813 -0.0077729998156428337
vn 0.0767040029168129 0.99645400047302246 -0.03459399938583374
vn 0.034102998673915863 0.99891901016235352 -0.03160100057721138
vn 0.089671999216079712 0.99545997381210327 -0.031916998326778412
vn 0.036187998950481415 0.998537003993988 -0.040167998522520065
vn 0.027143999934196472 0.9974600076675415 -0.065848000347614288
vn 0.036122001707553864 0.99698400497436523 -0.06869100034236908
vn 0.045542001724243164 0.99658501148223877 -0.068873003125190735
vn 0.056795001029968262 0.99597400426864624 -0.069355003535747528
vn 0.038166999816894531 0.99757999181747437 -0.058115001767873764
vn 0.037202998995780945 0.99767798185348511 -0.057045001536607742
vn 0.028651999309659004 0.99809300899505615 -0.054676000028848648
vn 0.0777759999036789 0.99463999271392822 -0.068131998181343079
vn 0.0902480036020279 0.99531501531600952 -0.0346979983150959
vn 0.0676800012588501 0.99542397260665894 -0.067457996308803558
vn 0.067290998995304108 0.99550098180770874 -0.066710002720355988
vn 0.048700999468564987 0.99637097120285034 -0.069806002080440521
vn 0.07691500335931778 0.99477201700210571 -0.0671750009059906
f 1/1/1 2/2/2 3/3/3
f 4/4/4 5/5/5 6/6/6
f 7/7/7 8/8/8 9/9/9
f 10/10/10 11/11/11 9/9/9
f 10/10/10 12/12/12 11/11/11
f 8/8/8 10/10/10 9/9/9
f 8/8/8 13/13/13 10/10/10
f 13/13/13 8/8/8 14/14/14
f 6/6/6 1/1/1 3/3/3
f 6/6/6 5/5/5 1/1/1
f 7/7/7 3/3/3 2/2/2
f 7/7/7 9/9/9 3/3/3
f 15/15/15 6/6/6 16/16/16
f 15/15/15 17/17/17 6/6/6
f 3/3/3 18/18/18 6/6/6
f 4/4/4 6/6/6 17/17/17
f 9/9/9 19/19/19 3/3/3
f 20/20/20 16/16/16 21/21/21
f 22/22/22 16/16/16 20/20/20
f 23/23/23 16/16/16 22/22/22
f 23/23/23 15/15/15 16/16/16
f 6/6/6 24/24/24 16/16/16
f 25/25/25 26/26/26 11/11/11
f 25/25/25 27/27/27 26/26/26
f 11/11/11 19/19/19 9/9/9
f 19/19/19 18/18/18 3/3/3
f 11/11/11 28/28/28 19/19/19
f 12/12/12 25/25/25 11/11/11
f 18/18/18 29/29/29 24/24/24
f 24/24/24 21/21/21 16/16/16
f 24/24/24 30/30/30 21/21/21
f 30/30/30 24/24/24 31/31/31
f 6/6/6 18/18/18 24/24/24
f 19/19/19 32/32/32 18/18/18
f 33/33/33 26/26/26 34/34/34
f 33/33/33 35/35/35 26/26/26
f 26/26/26 28/28/28 11/11/11
f 36/36/36 32/32/32 28/28/28
f 32/32/32 29/29/29 18/18/18
f 29/29/29 31/31/31 24/24/24
f 29/29/29 37/37/37 31/31/31
f 38/38/38 29/29/29 32/32/32
f 19/19/19 28/28/28 32/32/32
f 39/39/39 28/28/28 26/26/26
f 40/40/40 37/37/37 29/29/29
f 27/27/27 34/34/34 26/26/26
f 41/41/41 35/35/35 33/33/33
f 42/42/42 39/39/39 35/35/35
f 42/42/42 43/43/43 39/39/39
f 39/39/39 36/36/36 28/28/28
f 36/36/36 38/38/38 32/32/32
f 44/44/44 36/36/36 39/39/39
f 44/44/44 45/45/45 36/36/36
f 26/26/26 35/35/35 39/39/39
f 46/46/46 35/35/35 41/41/41
f 46/46/46 47/47/47 35/35/35
f 47/47/47 48/48/48 35/35/35
f 49/49/49 50/50/50 38/38/38
f 40/40/40 38/38/38 50/50/50
f 40/40/40 29/29/29 38/38/38
f 51/51/51 38/38/38 36/36/36
f 51/51/51 52/52/52 38/38/38
f 53/53/53 47/47/47 46/46/46
f 44/44/44 39/39/39 43/43/43
f 51/51/51 36/36/36 45/45/45
f 42/42/42 35/35/35 48/48/48
f 54/54/54 38/38/38 52/52/52
f 54/54/54 49/49/49 38/38/38
