mtllib m2111033.mtl
usemtl material0
v -158.82574462890625 1.8740930557250977 -128
v -160 1.8585460186004639 -127.51808166503906
v -158.80398559570313 1.8038159608840942 -127.58106231689453
v -160 1.9175989627838135 -127.87614440917969
v -160 1.9380249977111816 -128
v -158.42692565917969 1.8780989646911621 -128
v -150.89594984054565 2.2177789211273193 -128
v -160 1.8175510168075562 -121.05860900878906
v -158.3831787109375 1.733788013458252 -119.60331010818481
v -160 1.7054369449615479 -119.51783800125122
v -160 1.727836012840271 -117.80626678466797
v -150.82417297363281 2.2215189933776855 -128
v -150.40330505371094 2.2081379890441895 -120.02622985839844
v -150.82778882980347 2.2213048934936523 -128
v -143.2277370095253 3.0880439281463623 -128
v -160 1.5599939823150635 -111.51762399077416
v -157.96312046051025 1.509937047958374 -111.62502300739288
v -149.98028612136841 2.5941379070281982 -112.05005599930883
v -160 2.3382840156555176 -103.52036952972412
v -160 2.6845600605010986 -100.9132080078125
v -157.53727722167969 2.4774510860443115 -103.65086364746094
v -160 1.64923095703125 -109.36081695556641
v -149.55575609207153 3.2896850109100342 -104.07495880126953
v -142.00018298625946 3.112900972366333 -112.47313699126244
v -160 3.7440528869628906 -96
v -157.12472534179688 4.19149923324585 -96
v -156.81919860839844 4.2261290550231934 -96
v -142.42366003990173 2.6360819339752197 -120.44898986816406
v -149.21986389160156 4.6709470748901367 -96
v -149.12791395187378 4.6663532257080078 -96.102218627929688
v -151.05764818191528 4.5688791275024414 -96
v -142.81988501548767 3.1085081100463867 -128
v -135.62782287597656 3.8719251155853271 -128
v -134.2298583984375 3.79606294631958 -116.88553619384766
v -134.81559753417969 3.99611496925354 -128
v -134.52507019042969 4.0687170028686523 -128
v -130.23617553710938 4.80077600479126 -117.09966278076172
v -134.01783752441406 4.0930628776550293 -112.89781200885773
v -141.5744481086731 4.056002140045166 -104.49889421463013
v -141.14988708496094 4.7603192329406738 -96.523818969726562
v -133.80427646636963 4.7084121704101562 -108.91118597984314
v -130.02413940429688 5.101682186126709 -113.11195397377014
v -133.59342956542969 4.763218879699707 -104.92262315750122
v -129.81399536132813 5.0144071578979492 -109.12288689613342
v -133.38290405273438 4.7564997673034668 -100.933837890625
v -128 5.0236730575561523 -117.2184681892395
v -128 5.15357780456543 -115.36163306236267
v -128 5.3639969825744629 -125.20282745361328
v -128 5.152885913848877 -113.21900200843811
v -128 5.4008278846740723 -128
v -128 5.0077400207519531 -111.290108025074
v -129.60420227050781 4.8538861274719238 -105.13356781005859
v -128 4.9654769897460938 -109.21852111816406
v -128 4.8763651847839355 -106.91656494140625
v -129.39360046386719 4.8603501319885254 -101.14483642578125
v -128 4.920569896697998 -102.69367980957031
v -128 4.9221467971801758 -105.218505859375
v -128 4.8874168395996094 -101.21851253509522
v -129.18367004394531 4.7310700416564941 -97.155624389648438
v -128 4.860011100769043 -99.8910140991211
v -141.12213110923767 4.7797322273254395 -96
v -141.62110900878906 4.7879438400268555 -96
v -149.12248182296753 4.6732330322265625 -96
v -139.94753980636597 4.7656688690185547 -96
v -133.12225341796875 4.793694019317627 -96
v -133.17214965820313 4.7927441596984863 -96.945205688476562
v -130.22335815429688 4.7491459846496582 -96
v -129.1221923828125 4.82335901260376 -96
v -128 4.7691240310668945 -97.218254089355469
v -128 4.8126301765441895 -96.659996032714844
v -128 4.8640651702880859 -96
vt 0.052650999277830124 0.0053359866142272949
vt 0.017937999218702316 0.019975006580352783
vt 0.0614130012691021 0.020470976829528809
vt 0.018717000260949135 0.0057709813117980957
vt 0.018640000373125076 0.0019429922103881836
vt 0.066284999251365662 0.0044410228729248047
vt 0.29521000385284424 0.0055410265922546387
vt 0.032774999737739563 0.21599501371383667
vt 0.11391299962997437 0.23478502035140991
vt 0.0755859985947609 0.24964499473571777
vt 0.0634479969739914 0.29319900274276733
vt 0.29727700352668762 0.0057500004768371582
vt 0.34928101301193237 0.21015501022338867
vt 0.29719701409339905 0.005773007869720459
vt 0.52981698513031006 0.00859600305557251
vt 0.00064199999906122684 0.49017500877380371
vt 0.068452000617980957 0.48430699110031128
vt 0.32192501425743103 0.45507198572158813
vt 0.010119999758899212 0.74690300226211548
vt 0.0099299997091293335 0.82670499384403229
vt 0.088141001760959625 0.73509600758552551
vt 0.010474000126123428 0.56873700022697449
vt 0.32727101445198059 0.723035991191864
vt 0.56066399812698364 0.48385697603225708
vt 0.010948999784886837 0.97911600023508072
vt 0.099308997392654419 0.98151599988341331
vt 0.10861500352621079 0.98166299983859062
vt 0.58977699279785156 0.24871200323104858
vt 0.33963999152183533 0.983194999396801
vt 0.34252500534057617 0.97982900030910969
vt 0.28386899828910828 0.98282000049948692
vt 0.54220598936080933 0.0086969733238220215
vt 0.76264101266860962 0.012023985385894775
vt 0.80382800102233887 0.34633398056030273
vt 0.787617027759552 0.012458980083465576
vt 0.796746015548706 0.012611985206604004
vt 0.92603802680969238 0.34526199102401733
vt 0.805571973323822 0.47043299674987793
vt 0.57258200645446777 0.72596698999404907
vt 0.58450597524642944 0.96828300133347511
vt 0.81208997964859009 0.594870001077652
vt 0.92987799644470215 0.46849697828292847
vt 0.81635898351669312 0.71579000353813171
vt 0.93367099761962891 0.59001100063323975
vt 0.82124197483062744 0.83675199747085571
vt 0.99245399236679077 0.34450197219848633
vt 0.99195599555969238 0.40107399225234985
vt 0.99798798561096191 0.10095298290252686
vt 0.99110901355743408 0.46684998273849487
vt 0.99935799837112427 0.015810012817382812
vt 0.99016600847244263 0.52584698796272278
vt 0.93760901689529419 0.71112799644470215
vt 0.9888719916343689 0.588441014289856
vt 0.98735201358795166 0.6581369936466217
vt 0.94239699840545654 0.83185499906539917
vt 0.98526698350906372 0.78555899858474731
vt 0.986515998840332 0.70930901169776917
vt 0.984637975692749 0.8300669938325882
vt 0.94737201929092407 0.952589999884367
vt 0.98432201147079468 0.87041200697422028
vt 0.58512198925018311 0.98430399969220161
vt 0.570019006729126 0.98417099937796593
vt 0.34250399470329285 0.98311799950897694
vt 0.62071198225021362 0.98442200012505054
vt 0.82765299081802368 0.98641199991106987
vt 0.82635498046875 0.95767199993133545
vt 0.91536897420883179 0.98703199997544289
vt 0.94859898090362549 0.98790400009602308
vt 0.98332899808883667 0.95129299908876419
vt 0.98313301801681519 0.96834100037813187
vt 0.98295402526855469 0.98825400043278933
vn 0.022986000403761864 0.9861530065536499 0.16423499584197998
vn 0.049881000071763992 0.99536097049713135 0.0822720006108284
vn 0.0051730000413954258 0.99655002355575562 0.082836002111434937
vn 0.053642001003026962 0.98525100946426392 0.16249099373817444
vn 0.053642001003026962 0.98525100946426392 0.16248999536037445
vn -0.0353350006043911 0.98900997638702393 0.14356200397014618
vn -0.0515500009059906 0.99857801198959351 0.013597999699413776
vn 0.030153999105095863 0.99925702810287476 0.02401299960911274
vn -0.0332689993083477 0.99936902523040771 0.012409999966621399
vn -0.016029000282287598 0.99947100877761841 0.028315000236034393
vn 0.015661999583244324 0.99972599744796753 0.017402999103069305
vn -0.085322998464107513 0.9963340163230896 0.0061869998462498188
vn -0.064663000404834747 0.99783098697662354 -0.012316999956965447
vn -0.057071000337600708 0.99834799766540527 0.0066100000403821468
vn -0.066884003579616547 0.99651801586151123 0.049777001142501831
vn 0.024120999500155449 0.99967300891876221 -0.0084760002791881561
vn -0.066665001213550568 0.99724799394607544 -0.032423999160528183
vn -0.087773002684116364 0.99439400434494019 -0.058954000473022461
vn -0.062550000846385956 0.9902610182762146 -0.12438199669122696
vn -0.13008099794387817 0.973006010055542 -0.19062699377536774
vn -0.10060399770736694 0.98374098539352417 -0.14876699447631836
vn -0.042543999850749969 0.99413400888442993 -0.099431999027729034
vn -0.0944719985127449 0.98657900094985962 -0.13318100571632385
vn -0.10296899825334549 0.9912639856338501 -0.082420997321605682
vn -0.15039199590682983 0.9664120078086853 -0.20839899778366089
vn -0.12921400368213654 0.96909499168396 -0.21014200150966644
vn -0.0961339995265007 0.9751579761505127 -0.19956000149250031
vn -0.091856002807617188 0.99574202299118042 0.0078070000745356083
vn -0.046709001064300537 0.99513500928878784 -0.086739003658294678
vn -0.0432640016078949 0.99301302433013916 -0.10978700220584869
vn -0.058497998863458633 0.98445802927017212 -0.16559199988842011
vn -0.076857000589370728 0.99483698606491089 0.06627500057220459
vn -0.13902400434017181 0.98960298299789429 0.036844000220298767
vn -0.188400998711586 0.98184001445770264 -0.022277999669313431
vn -0.19553300738334656 0.98029899597167969 0.027948999777436256
vn -0.22633899748325348 0.97376102209091187 0.023660000413656235
vn -0.1763090044260025 0.98419499397277832 -0.016589999198913574
vn -0.18762899935245514 0.97697597742080688 -0.1015549972653389
vn -0.087362997233867645 0.99173098802566528 -0.094002999365329742
vn -0.010939000174403191 0.99830102920532227 -0.0572349987924099
vn -0.12035799771547318 0.99094802141189575 -0.059466000646352768
vn -0.11824200302362442 0.99265700578689575 -0.025513000786304474
vn -0.062033001333475113 0.9980660080909729 0.0040029999800026417
vn -0.016733000054955482 0.99954301118850708 0.025195000693202019
vn -0.030665000900626183 0.99948197603225708 -0.009762999601662159
vn -0.09979499876499176 0.99493902921676636 -0.011714999563992024
vn -0.0846169963479042 0.99499297142028809 -0.0531810000538826
vn -0.19122399389743805 0.98142498731613159 0.015444000251591206
vn -0.023346999660134315 0.999064028263092 0.03641900047659874
vn -0.20001000165939331 0.97970902919769287 0.012900000438094139
vn 0.014899999834597111 0.99927699565887451 0.03497299924492836
vn -0.023705000057816505 0.99964398145675659 0.012281999923288822
vn 0.028491999953985214 0.99916702508926392 0.02922699972987175
vn 0.011971999891102314 0.99965500831604 0.023375000804662704
vn -0.0262410007417202 0.99949198961257935 0.018063999712467194
vn -0.036828000098466873 0.999305009841919 0.0057179997675120831
vn -0.043228998780250549 0.99897199869155884 -0.013611000031232834
vn -0.018273999914526939 0.99959999322891235 0.021581999957561493
vn -0.024281999096274376 0.99954897165298462 -0.017687000334262848
vn -0.027118999511003494 0.9991689920425415 0.030411999672651291
vn 0.014128999784588814 0.99918597936630249 -0.037778999656438828
vn -0.0067960000596940517 0.99824899435043335 -0.058759000152349472
vn -0.019198000431060791 0.997626006603241 -0.066128998994827271
vn -0.0020029998850077391 0.99998199939727783 -0.0056159999221563339
vn 0.0059569999575614929 0.99998098611831665 -0.0013200000394135714
vn 0.0054170000366866589 0.99997097253799438 -0.0053320000879466534
vn -0.0066900001838803291 0.99974298477172852 -0.021657999604940414
vn -0.051038999110460281 0.99573898315429688 -0.076806001365184784
vn -0.033185001462697983 0.99924898147583008 -0.020022999495267868
vn -0.036139998584985733 0.9963260293006897 -0.077646002173423767
vn -0.036139998584985733 0.9963260293006897 -0.077646002173423767
f 1/1/1 2/2/2 3/3/3
f 1/1/1 4/4/4 2/2/2
f 4/4/4 1/1/1 5/5/5
f 6/6/6 1/1/1 3/3/3
f 6/6/6 3/3/3 7/7/7
f 3/3/3 8/8/8 9/9/9
f 3/3/3 2/2/2 8/8/8
f 10/10/10 11/11/11 9/9/9
f 12/12/12 9/9/9 13/13/13
f 12/12/12 14/14/14 9/9/9
f 10/10/10 9/9/9 8/8/8
f 12/12/12 13/13/13 15/15/15
f 9/9/9 16/16/16 17/17/17
f 9/9/9 11/11/11 16/16/16
f 9/9/9 18/18/18 13/13/13
f 19/19/19 20/20/20 21/21/21
f 22/22/22 17/17/17 16/16/16
f 22/22/22 21/21/21 17/17/17
f 22/22/22 19/19/19 21/21/21
f 18/18/18 21/21/21 23/23/23
f 21/21/21 18/18/18 17/17/17
f 18/18/18 23/23/23 24/24/24
f 25/25/25 21/21/21 20/20/20
f 25/25/25 26/26/26 21/21/21
f 9/9/9 17/17/17 18/18/18
f 21/21/21 27/27/27 23/23/23
f 21/21/21 26/26/26 27/27/27
f 28/28/28 13/13/13 18/18/18
f 29/29/29 30/30/30 31/31/31
f 23/23/23 31/31/31 30/30/30
f 23/23/23 27/27/27 31/31/31
f 7/7/7 9/9/9 14/14/14
f 7/7/7 3/3/3 9/9/9
f 18/18/18 24/24/24 28/28/28
f 32/32/32 28/28/28 33/33/33
f 34/34/34 28/28/28 24/24/24
f 33/33/33 34/34/34 35/35/35
f 33/33/33 28/28/28 34/34/34
f 36/36/36 34/34/34 37/37/37
f 36/36/36 35/35/35 34/34/34
f 34/34/34 24/24/24 38/38/38
f 23/23/23 39/39/39 24/24/24
f 40/40/40 39/39/39 30/30/30
f 23/23/23 30/30/30 39/39/39
f 39/39/39 41/41/41 24/24/24
f 38/38/38 41/41/41 42/42/42
f 41/41/41 43/43/43 44/44/44
f 43/43/43 41/41/41 39/39/39
f 38/38/38 24/24/24 41/41/41
f 39/39/39 45/45/45 43/43/43
f 37/37/37 34/34/34 38/38/38
f 32/32/32 13/13/13 28/28/28
f 32/32/32 15/15/15 13/13/13
f 41/41/41 44/44/44 42/42/42
f 46/46/46 42/42/42 47/47/47
f 46/46/46 37/37/37 42/42/42
f 46/46/46 48/48/48 37/37/37
f 49/49/49 47/47/47 42/42/42
f 50/50/50 37/37/37 48/48/48
f 50/50/50 36/36/36 37/37/37
f 49/49/49 42/42/42 51/51/51
f 52/52/52 43/43/43 45/45/45
f 44/44/44 43/43/43 52/52/52
f 53/53/53 52/52/52 54/54/54
f 53/53/53 44/44/44 52/52/52
f 52/52/52 45/45/45 55/55/55
f 56/56/56 52/52/52 55/55/55
f 56/56/56 57/57/57 52/52/52
f 54/54/54 52/52/52 57/57/57
f 56/56/56 55/55/55 58/58/58
f 51/51/51 44/44/44 53/53/53
f 51/51/51 42/42/42 44/44/44
f 39/39/39 40/40/40 45/45/45
f 38/38/38 42/42/42 37/37/37
f 59/59/59 55/55/55 45/45/45
f 58/58/58 55/55/55 60/60/60
f 61/61/61 40/40/40 62/62/62
f 63/63/63 40/40/40 30/30/30
f 63/63/63 62/62/62 40/40/40
f 64/64/64 40/40/40 61/61/61
f 40/40/40 65/65/65 66/66/66
f 40/40/40 64/64/64 65/65/65
f 66/66/66 67/67/67 59/59/59
f 66/66/66 65/65/65 67/67/67
f 45/45/45 40/40/40 66/66/66
f 68/68/68 59/59/59 67/67/67
f 69/69/69 59/59/59 70/70/70
f 70/70/70 68/68/68 71/71/71
f 70/70/70 59/59/59 68/68/68
f 60/60/60 59/59/59 69/69/69
f 60/60/60 55/55/55 59/59/59
f 45/45/45 66/66/66 59/59/59
f 63/63/63 30/30/30 29/29/29
