mtllib m211111020.mtl
usemtl material0
v -63.33716607093811 1.9713939428329468 -24
v -64 2.0611820220947266 -23.29229211807251
v -63.263775110244751 2.1910650730133057 -22.630938053131104
v -64 1.9489140510559082 -24
v -64 2.1598401069641113 -22.591960906982422
v -64 2.0858778953552246 -23.116986989974976
v -62.032341003417969 2.01373291015625 -24
v -61.33684504032135 2.043989896774292 -24
v -61.269047021865845 2.2600409984588623 -22.736494064331055
v -59.33660900592804 2.1004679203033447 -24
v -59.274433016777039 2.3055789470672607 -22.841969013214111
v -60.132595002651215 2.0749120712280273 -24
v -58.2328759431839 2.1226940155029297 -24
v -63.15739107131958 2.4156780242919922 -20.63733297586441
v -64 2.2916779518127441 -21.394446969032288
v -59.168097972869873 2.5194509029388428 -20.848327994346619
v -64 2.3820040225982666 -20.592729985713959
v -64 2.4907920360565186 -19.700644999742508
v -64 2.8663930892944336 -17.588495016098022
v -63.050800085067749 2.6827700138092041 -18.643875002861023
v -64 2.6357769966125488 -18.593600988388062
v -61.162654995918274 2.4861190319061279 -20.742895007133484
v -61.056224942207336 2.7200090885162354 -18.749320983886719
v -60.948333978652954 3.2527201175689697 -16.756778955459595
v -59.061882019042969 2.70988392829895 -18.854604959487915
v -62.943169116973877 3.1617710590362549 -16.651145935058594
v -64 3.21665096282959 -16
v -63.528853893280029 3.2483839988708496 -16
v -64 3.1813490390777588 -16.182349920272827
v -64 3.1014330387115479 -16.59514594078064
v -62.908096075057983 3.2997679710388184 -16
v -62.217612981796265 3.3693959712982178 -16
v -60.907397985458374 3.446692943572998 -16
v -58.953667044639587 3.3085119724273682 -16.862287998199463
v -59.729137003421783 3.4954850673675537 -16
v -57.279983997344971 2.317425012588501 -22.947329044342041
v -57.336474895477295 2.1361360549926758 -24
v -56 2.1732509136199951 -24
v -56.339972972869873 2.1561880111694336 -24
v -56 2.2152969837188721 -23.694591999053955
v -57.173594951629639 2.5420389175415039 -20.953724026679993
v -56 2.4846830368041992 -21.797052025794983
v -56 2.5714170932769775 -21.015791058540344
v -56 2.2686679363250732 -23.382731914520264
v -56 2.3316071033477783 -23.014965057373047
v -57.067306995391846 2.7471199035644531 -18.960050940513611
v -56.958923101425171 3.3804149627685547 -16.967854022979736
v -56 2.8278999328613281 -19.016669988632202
v -56 2.6594278812408447 -20.146513000130653
v -56 3.1352939605712891 -18.034162998199463
v -56.906337976455688 3.6740729808807373 -16
v -57.992542028427124 3.6176400184631348 -16
v -56 3.4452500343322754 -17.01869797706604
v -56 3.74971604347229 -16
v -56 3.72987699508667 -16.066378116607666
v -58.906867980957031 3.5604090690612793 -16
vt 0 0.082853972911834717
vt 0.088463999330997467 0
vt 0.17113299667835236 0.092028021812438965
vt 0 0
vt 0.17600500583648682 0
vt 0.1103769987821579 0
vt 0 0.24595701694488525
vt 0 0.33289402723312378
vt 0.15793800354003906 0.34136897325515747
vt 0 0.5829240083694458
vt 0.14475399255752564 0.59069600701332092
vt 0 0.48342597484588623
vt 0 0.720890998840332
vt 0.42033299803733826 0.10532599687576294
vt 0.32569399476051331 0
vt 0.39395898580551147 0.603987991809845
vt 0.42590901255607605 0
vt 0.53741902112960815 0
vt 0.80143797397613525 0
vt 0.66951602697372437 0.11865001916885376
vt 0.67580002546310425 0
vt 0.40713798999786377 0.3546680212020874
vt 0.65633499622344971 0.36797201633453369
vt 0.9054030179977417 0.38145798444747925
vt 0.64317399263381958 0.617264986038208
vt 0.91860699653625488 0.13210397958755493
vt 1 0
vt 1 0.058893024921417236
vt 0.97720599174499512 0
vt 0.92560702562332153 0
vt 1 0.13648802042007446
vt 1 0.22279798984527588
vt 1 0.38657498359680176
vt 0.89221400022506714 0.63079199194908142
vt 1 0.53385800123214722
vt 0.13158400356769562 0.84000200033187866
vt 0 0.83294099569320679
vt 0 1
vt 0 0.95750299841165543
vt 0.038176000118255615 1
vt 0.38078498840332031 0.853301003575325
vt 0.27536800503730774 1
vt 0.37302601337432861 1
vt 0.077157996594905853 1
vt 0.12312900274991989 1
vt 0.6299939751625061 0.86658699810504913
vt 0.87901800870895386 0.88013499975204468
vt 0.62291598320007324 1
vt 0.481685996055603 1
vt 0.74572998285293579 1
vt 1 0.88670799881219864
vt 1 0.7509319931268692
vt 0.87266302108764648 1
vt 1 1
vt 0.99170297384262085 1
vt 1 0.63664200901985168
vn -0.032673001289367676 0.98711597919464111 -0.15663500130176544
vn -0.034788001328706741 0.987276017665863 -0.15516400337219238
vn -0.040541999042034149 0.9896399974822998 -0.13772700726985931
vn -0.033477000892162323 0.98709601163864136 -0.15658900141716003
vn -0.048091001808643341 0.99238801002502441 -0.11337199807167053
vn -0.04932200163602829 0.98901700973510742 -0.13932600617408752
vn -0.035801000893116 0.98647099733352661 -0.15997800230979919
vn -0.037521999329328537 0.98533201217651367 -0.16647200286388397
vn -0.033353999257087708 0.99116700887680054 -0.12836100161075592
vn -0.028334999457001686 0.9845389723777771 -0.17286099493503571
vn -0.021053999662399292 0.99082398414611816 -0.13351200520992279
vn -0.027816999703645706 0.98516100645065308 -0.16936500370502472
vn -0.016239000484347343 0.98527401685714722 -0.17020699381828308
vn -0.043852999806404114 0.99215102195739746 -0.11710599809885025
vn -0.046971000730991364 0.99278497695922852 -0.11032299697399139
vn -0.01690400019288063 0.99427700042724609 -0.10548300296068192
vn -0.045823000371456146 0.99211800098419189 -0.116627998650074
vn -0.053814999759197235 0.99033498764038086 -0.12782600522041321
vn -0.065797001123428345 0.97139197587966919 -0.22818699479103088
vn -0.041648000478744507 0.98513197898864746 -0.16667300462722778
vn -0.057918999344110489 0.98290097713470459 -0.17478799819946289
vn -0.030531000345945358 0.99271100759506226 -0.11658799648284912
vn -0.024173999205231667 0.98339998722076416 -0.17983099818229675
vn -0.038593001663684845 0.96428102254867554 -0.26205399632453918
vn -0.025189999490976334 0.97833901643753052 -0.20546899735927582
vn -0.054666001349687576 0.9702879786491394 -0.23569700121879578
vn -0.065981000661849976 0.97963201999664307 -0.1896509975194931
vn -0.0726189985871315 0.97802901268005371 -0.19541199505329132
vn -0.065980002284049988 0.97963201999664307 -0.18965299427509308
vn -0.067143000662326813 0.97361898422241211 -0.21807600557804108
vn -0.09000600129365921 0.97527402639389038 -0.20184099674224854
vn -0.0712750032544136 0.97056400775909424 -0.23005500435829163
vn -0.048323001712560654 0.96818000078201294 -0.24554400146007538
vn -0.0477450005710125 0.95933800935745239 -0.27819299697875977
vn -0.054822999984025955 0.96447199583053589 -0.258433997631073
vn -0.01765500009059906 0.991595983505249 -0.12816500663757324
vn -0.018261000514030457 0.98549199104309082 -0.16874000430107117
vn -0.049658998847007751 0.989434003829956 -0.13621699810028076
vn -0.027400000020861626 0.986661970615387 -0.16045799851417542
vn -0.023574000224471092 0.98607802391052246 -0.16460299491882324
vn -0.023146999999880791 0.99437797069549561 -0.10333099961280823
vn -0.026528000831604004 0.9930260181427002 -0.1148729994893074
vn -0.03044700063765049 0.9939810037612915 -0.10523399710655212
vn -0.01983099989593029 0.985476016998291 -0.16865299642086029
vn -0.018107999116182327 0.99068599939346313 -0.13495999574661255
vn -0.046495001763105392 0.97776198387146 -0.20449799299240112
vn -0.056359998881816864 0.95478600263595581 -0.29190099239349365
vn -0.085183002054691315 0.97200602293014526 -0.21897199749946594
vn -0.044376999139785767 0.99257099628448486 -0.11328200250864029
vn -0.0858519971370697 0.95135301351547241 -0.29590100049972534
vn -0.056728001683950424 0.95623397827148438 -0.28705000877380371
vn -0.054411999881267548 0.95767098665237427 -0.28267401456832886
vn -0.0798029974102974 0.95420300960540771 -0.28832098841667175
vn -0.079709999263286591 0.95507299900054932 -0.28545001149177551
vn -0.079709999263286591 0.95507299900054932 -0.28545001149177551
vn -0.067434996366500854 0.95867502689361572 -0.27639499306678772
f 1/1/1 2/2/2 3/3/3
f 1/1/1 4/4/4 2/2/2
f 5/5/5 3/3/3 6/6/6
f 6/6/6 3/3/3 2/2/2
f 1/1/1 3/3/3 7/7/7
f 8/8/8 3/3/3 9/9/9
f 8/8/8 7/7/7 3/3/3
f 10/10/10 9/9/9 11/11/11
f 10/10/10 12/12/12 9/9/9
f 8/8/8 9/9/9 12/12/12
f 10/10/10 11/11/11 13/13/13
f 3/3/3 14/14/14 9/9/9
f 5/5/5 14/14/14 3/3/3
f 5/5/5 15/15/15 14/14/14
f 9/9/9 16/16/16 11/11/11
f 17/17/17 18/18/18 14/14/14
f 19/19/19 20/20/20 21/21/21
f 14/14/14 20/20/20 22/22/22
f 16/16/16 22/22/22 23/23/23
f 22/22/22 16/16/16 9/9/9
f 23/23/23 24/24/24 25/25/25
f 23/23/23 22/22/22 20/20/20
f 9/9/9 14/14/14 22/22/22
f 23/23/23 20/20/20 26/26/26
f 27/27/27 28/28/28 29/29/29
f 29/29/29 26/26/26 30/30/30
f 29/29/29 28/28/28 26/26/26
f 19/19/19 26/26/26 20/20/20
f 19/19/19 30/30/30 26/26/26
f 31/31/31 26/26/26 28/28/28
f 32/32/32 26/26/26 31/31/31
f 26/26/26 33/33/33 24/24/24
f 26/26/26 32/32/32 33/33/33
f 33/33/33 34/34/34 24/24/24
f 33/33/33 35/35/35 34/34/34
f 23/23/23 26/26/26 24/24/24
f 23/23/23 25/25/25 16/16/16
f 18/18/18 20/20/20 14/14/14
f 18/18/18 21/21/21 20/20/20
f 15/15/15 17/17/17 14/14/14
f 36/36/36 11/11/11 16/16/16
f 13/13/13 36/36/36 37/37/37
f 13/13/13 11/11/11 36/36/36
f 38/38/38 39/39/39 40/40/40
f 25/25/25 41/41/41 16/16/16
f 41/41/41 42/42/42 36/36/36
f 41/41/41 43/43/43 42/42/42
f 37/37/37 40/40/40 39/39/39
f 37/37/37 44/44/44 40/40/40
f 44/44/44 36/36/36 45/45/45
f 44/44/44 37/37/37 36/36/36
f 45/45/45 36/36/36 42/42/42
f 46/46/46 25/25/25 47/47/47
f 41/41/41 25/25/25 46/46/46
f 48/48/48 49/49/49 46/46/46
f 49/49/49 41/41/41 46/46/46
f 49/49/49 43/43/43 41/41/41
f 50/50/50 46/46/46 47/47/47
f 50/50/50 48/48/48 46/46/46
f 36/36/36 16/16/16 41/41/41
f 51/51/51 34/34/34 52/52/52
f 51/51/51 47/47/47 34/34/34
f 25/25/25 34/34/34 47/47/47
f 50/50/50 47/47/47 53/53/53
f 54/54/54 47/47/47 51/51/51
f 54/54/54 55/55/55 47/47/47
f 55/55/55 53/53/53 47/47/47
f 52/52/52 34/34/34 56/56/56
f 56/56/56 34/34/34 35/35/35
f 34/34/34 25/25/25 24/24/24
