mtllib m21213.mtl
usemtl material0
v -640 16.299386978149414 -766.19927978515625
v -616.51202392578125 13.993310928344727 -767.4317626953125
v -640 16.483781814575195 -767.87847900390625
v -616.54168701171875 14.058797836303711 -768
v -640 16.497129440307617 -768
v -616.00067138671875 14.063253402709961 -768
v -605.79241943359375 14.631495475769043 -768
v -582.90576219558716 16.377920150756836 -737.21539306640625
v -584.53326416015625 15.910664558410645 -768
v -614.8251953125 14.462976455688477 -735.52325439453125
v -640 16.458433151245117 -758.1885986328125
v -549.529052734375 19.417533874511719 -768
v -519.0899658203125 15.334432601928711 -740.58184814453125
v -520.5357666015625 15.667575836181641 -768
v -512 15.597640991210938 -768
v -515.77899169921875 15.635573387145996 -768
v -512 15.570038795471191 -764.59954833984375
v -583.34271192550659 15.986808776855469 -768
v -550.98577880859375 18.399494171142578 -738.90789794921875
v -552.51513671875 19.710739135742188 -768
v -640 18.619768142700195 -702.20880103111267
v -613.12713623046875 17.30632209777832 -703.62347400188446
v -640 18.132431030273438 -707.53613305091858
v -640 15.340438842773438 -734.19683837890625
v -581.20568799972534 19.647527694702148 -705.31713902950287
v -549.29486083984375 19.736030578613281 -707.00256299972534
v -640 19.071033477783203 -697.4200439453125
v -611.4287109375 20.23774528503418 -671.723876953125
v -640 20.28999137878418 -670.21527099609375
v -579.5106201171875 21.856794357299805 -673.4149169921875
v -609.7506103515625 20.915952682495117 -640
v -640 20.358087539672852 -667.0355224609375
v -609.94525146484375 20.916088104248047 -640
v -640 20.35771369934082 -667.052978515625
v -547.60821533203125 20.162614822387695 -675.0938720703125
v -517.39703369140625 17.094301223754883 -708.67804002761841
v -545.92529296875 19.818403244018555 -643.18243408203125
v -577.82849097251892 21.33973503112793 -641.5028076171875
v -579.18072509765625 21.224193572998047 -640
v -577.74939000606537 21.289438247680664 -640
v -606.26220703125 20.965648651123047 -640
v -545.75762939453125 19.742515563964844 -640
v -576.15911899507046 21.226287841796875 -640
v -518.394287109375 19.757266998291016 -640
v -514.01458740234375 19.875844955444336 -644.86773681640625
v -640 19.835294723510742 -640
v -515.70770263671875 18.081422805786133 -676.77142333984375
v -512 15.291148185729981 -740.95611572265625
v -512 16.745174407958984 -714.67730712890625
v -513.75927734375 19.547782897949219 -640
v -512 18.104513168334961 -676.96734619140625
v -512 19.769462585449219 -647.10711669921875
v -512 19.831172943115234 -644.9739990234375
v -512 19.799257278442383 -644.49078369140625
v -512 19.502645492553711 -640
v -512 17.8876953125 -680.892822265625
v -512 16.994205474853516 -708.96270799636841
vt 0.96572798490524292 0.00247800350189209
vt 0.97856801748275757 0.18173301219940186
vt 0.97856801748275757 0.0020890235900878906
vt 0.98290902376174927 0.18137401342391968
vt 0.97949898242950439 0.0020599961280822754
vt 0.98303902149200439 0.18548601865768433
vt 0.98583501577377319 0.26318299770355225
vt 0.75312900543212891 0.44175297021865845
vt 0.98704499006271362 0.42592501640319824
vt 0.73616302013397217 0.19884097576141357
vt 0.90480899810791016 0.0035380125045776367
vt 0.99098497629165649 0.68846100568771362
vt 0.78934800624847412 0.92795100063085556
vt 0.99743497371673584 0.91067899763584137
vt 0.99911201000213623 0.97626199945807457
vt 0.99852198362350464 0.9468350000679493
vt 0.97327500581741333 0.97732700034976006
vt 0.98716998100280762 0.43499600887298584
vt 0.76937699317932129 0.68476700782775879
vt 0.990710973739624 0.67109701037406921
vt 0.47680601477622986 0.012938022613525391
vt 0.4929719865322113 0.21717602014541626
vt 0.51839601993560791 0.010962009429931641
vt 0.72221297025680542 0.0075299739837646484
vt 0.50965899229049683 0.46033799648284912
vt 0.52797102928161621 0.70264801383018494
vt 0.44023901224136353 0.013746023178100586
vt 0.24972499907016754 0.23554497957229614
vt 0.23321300745010376 0.018573999404907227
vt 0.26684200763702393 0.47881197929382324
vt 0.0086939996108412743 0.25257599353790283
vt 0.20903399586677551 0.019133985042572021
vt 0.008059999905526638 0.251787006855011
vt 0.2091670036315918 0.019131004810333252
vt 0.28568699955940247 0.72135600447654724
vt 0.5469210147857666 0.94563499838113785
vt 0.04341299831867218 0.74034500122070312
vt 0.024349000304937363 0.49510800838470459
vt 0.012718000449240208 0.48501700162887573
vt 0.012927000410854816 0.49591100215911865
vt 0.0091559998691082 0.27910202741622925
vt 0.019032999873161316 0.73949798941612244
vt 0.013240000233054161 0.50811201333999634
vt 0.00088800000958144665 0.94678600132465363
vt 0.061882000416517258 0.98264100030064583
vt 0.0034469999372959137 0.023138999938964844
vt 0.304502010345459 0.96406000107526779
vt 0.793524980545044 0.98178100027143955
vt 0.593425989151001 0.98575999960303307
vt 0.00786499958485365 0.98137100040912628
vt 0.30664199590682983 0.99221300007775426
vt 0.079283997416496277 0.9975560000166297
vt 0.063060998916625977 0.99793999991379678
vt 0.040954999625682831 0.997304999968037
vt 0.0068290000781416893 0.9947130000218749
vt 0.33651301264762878 0.99153000023216009
vt 0.55001801252365112 0.98662799969315529
vn 0.099834002554416656 0.99409300088882446 0.042559001594781876
vn 0.026882000267505646 0.99872398376464844 0.0427590012550354
vn 0.10277500003576279 0.98875999450683594 0.10858999937772751
vn 0.049382999539375305 0.99250298738479614 0.11180400103330612
vn 0.10277500003576279 0.98875802755355835 0.10860300064086914
vn -0.0428210012614727 0.99554502964019775 0.0840039998292923
vn -0.059983000159263611 0.99814397096633911 -0.010546999983489513
vn -0.058038998395204544 0.99724102020263672 -0.04627000167965889
vn -0.061875998973846436 0.99801301956176758 -0.011877000331878662
vn -0.0052510001696646214 0.998960018157959 -0.045297998934984207
vn 0.080880999565124512 0.99672198295593262 -0.0020840000361204147
vn 0.1047699972987175 0.99399101734161377 0.031711999326944351
vn 0.052347999066114426 0.99845802783966064 -0.018488999456167221
vn 0.069687999784946442 0.99753302335739136 0.0084459995850920677
vn 0.01003700029104948 0.99991697072982788 0.0081160003319382668
vn 0.0074990000575780869 0.99991202354431152 0.010936999693512917
vn 0.00761000020429492 0.99991297721862793 0.01081399992108345
vn -0.076904997229576111 0.99703401327133179 0.0028480000328272581
vn 0.0084499996155500412 0.99994397163391113 -0.0063769998960196972
vn -0.01473699975758791 0.99884200096130371 0.045795001089572906
vn 0.043754998594522476 0.9947580099105835 -0.09241899847984314
vn -0.015274999663233757 0.99573498964309692 -0.090980999171733856
vn 0.04043399915099144 0.99474602937698364 -0.0940530002117157
vn 0.033162001520395279 0.99895501136779785 -0.0314439982175827
vn -0.039558999240398407 0.99549597501754761 -0.086157001554965973
vn 0.0385579988360405 0.99820601940155029 -0.045807000249624252
vn 0.031897999346256256 0.99622797966003418 -0.080700002610683441
vn -0.01891699992120266 0.99893301725387573 -0.042141001671552658
vn 0.00010099999781232327 0.99946498870849609 -0.03269600123167038
vn -0.007474999874830246 0.99977701902389526 -0.019756000488996506
vn -0.0070250001735985279 0.99975502490997314 -0.021000999957323074
vn -0.009083000011742115 0.99990302324295044 -0.010541000403463841
vn -0.0078480001538991928 0.99989801645278931 -0.011912999674677849
vn 0.00069800001801922917 0.999770998954773 -0.021410999819636345
vn 0.060897000133991241 0.998121976852417 -0.0066889999434351921
vn 0.044617999345064163 0.99813801050186157 -0.041597001254558563
vn 0.032389000058174133 0.99944400787353516 0.00790099985897541
vn 0.00826799962669611 0.99970698356628418 0.02277199923992157
vn -0.019121000543236732 0.9980430006980896 0.05952800065279007
vn -0.0015050000511109829 0.99943697452545166 0.033528998494148254
vn -0.014162999577820301 0.99971699714660645 -0.019124999642372131
vn 0.023272000253200531 0.99947398900985718 0.022607000544667244
vn 0.046622000634670258 0.9986339807510376 0.023597000166773796
vn 0.011652999557554722 0.9993249773979187 0.034827999770641327
vn 0.012232000008225441 0.99992102384567261 0.0030129998922348022
vn -0.035930998623371124 0.99916797876358032 0.019321000203490257
vn 0.022111000493168831 0.99897700548172 -0.039445001631975174
vn 0.005016000010073185 0.9997749924659729 -0.02060999907553196
vn 0.0062190000899136066 0.99860101938247681 -0.052517998963594437
vn 0.03498699888586998 0.99724698066711426 0.065375000238418579
vn -0.0091450000181794167 0.99842202663421631 -0.055399999022483826
vn -0.0022150001022964716 0.99877500534057617 -0.049440000206232071
vn 0.023057999089360237 0.99959099292755127 0.016930999234318733
vn 0.025593999773263931 0.99749898910522461 0.065884001553058624
vn 0.025592999532818794 0.99749898910522461 0.065884001553058624
vn 0.010800999589264393 0.99924701452255249 -0.0372529998421669
vn 0.016533000394701958 0.9991459846496582 -0.037870001047849655
f 1/1/1 2/2/2 3/3/3
f 3/3/3 4/4/4 5/5/5
f 3/3/3 2/2/2 4/4/4
f 4/4/4 2/2/2 6/6/6
f 6/6/6 2/2/2 7/7/7
f 7/7/7 8/8/8 9/9/9
f 7/7/7 2/2/2 8/8/8
f 1/1/1 10/10/10 2/2/2
f 1/1/1 11/11/11 10/10/10
f 12/12/12 13/13/13 14/14/14
f 15/15/15 16/16/16 17/17/17
f 18/18/18 19/19/19 20/20/20
f 10/10/10 21/21/21 22/22/22
f 10/10/10 23/23/23 21/21/21
f 23/23/23 10/10/10 24/24/24
f 22/22/22 25/25/25 8/8/8
f 22/22/22 8/8/8 10/10/10
f 9/9/9 19/19/19 18/18/18
f 9/9/9 8/8/8 19/19/19
f 8/8/8 26/26/26 19/19/19
f 2/2/2 10/10/10 8/8/8
f 22/22/22 27/27/27 28/28/28
f 22/22/22 21/21/21 27/27/27
f 29/29/29 28/28/28 27/27/27
f 22/22/22 28/28/28 25/25/25
f 25/25/25 28/28/28 30/30/30
f 31/31/31 32/32/32 33/33/33
f 31/31/31 34/34/34 32/32/32
f 34/34/34 28/28/28 29/29/29
f 34/34/34 31/31/31 28/28/28
f 26/26/26 30/30/30 35/35/35
f 30/30/30 26/26/26 25/25/25
f 26/26/26 35/35/35 36/36/36
f 35/35/35 30/30/30 37/37/37
f 8/8/8 25/25/25 26/26/26
f 30/30/30 28/28/28 38/38/38
f 13/13/13 19/19/19 26/26/26
f 11/11/11 24/24/24 10/10/10
f 39/39/39 40/40/40 38/38/38
f 39/39/39 38/38/38 41/41/41
f 38/38/38 37/37/37 30/30/30
f 38/38/38 42/42/42 37/37/37
f 38/38/38 43/43/43 42/42/42
f 28/28/28 41/41/41 38/38/38
f 28/28/28 31/31/31 41/41/41
f 43/43/43 38/38/38 40/40/40
f 44/44/44 37/37/37 42/42/42
f 44/44/44 45/45/45 37/37/37
f 46/46/46 33/33/33 32/32/32
f 47/47/47 35/35/35 37/37/37
f 35/35/35 47/47/47 36/36/36
f 48/48/48 36/36/36 49/49/49
f 48/48/48 13/13/13 36/36/36
f 44/44/44 50/50/50 45/45/45
f 51/51/51 45/45/45 52/52/52
f 51/51/51 47/47/47 45/45/45
f 53/53/53 45/45/45 54/54/54
f 54/54/54 50/50/50 55/55/55
f 54/54/54 45/45/45 50/50/50
f 56/56/56 36/36/36 47/47/47
f 56/56/56 57/57/57 36/36/36
f 37/37/37 45/45/45 47/47/47
f 26/26/26 36/36/36 13/13/13
f 56/56/56 47/47/47 51/51/51
f 52/52/52 45/45/45 53/53/53
f 49/49/49 36/36/36 57/57/57
f 17/17/17 13/13/13 48/48/48
f 17/17/17 16/16/16 13/13/13
f 16/16/16 14/14/14 13/13/13
f 12/12/12 19/19/19 13/13/13
f 12/12/12 20/20/20 19/19/19
