mtllib m21223.mtl
usemtl material0
v -891.64825439453125 23.336538314819336 -1024
v -881.88238525390625 18.272287368774414 -945.42767333984375
v -886.00677490234375 23.137758255004883 -1024
v -896 18.725038528442383 -944.6837158203125
v -896 22.5422420501709 -1008.2255249023438
v -896 23.052324295043945 -1024
v -880.16009521484375 23.511274337768555 -1024
v -849.96197509765625 20.42205810546875 -947.12078857421875
v -828.75573706626892 23.559656143188477 -1024
v -896 19.0019474029541 -896
v -895.95733642578125 19.000568389892578 -896
v -896 19.00511360168457 -896.0418701171875
v -880.19061279296875 19.815519332885742 -913.523193359375
v -896 20.263483047485352 -912.6898193359375
v -896 19.415782928466797 -929.73455810546875
v -818.052734375 20.183385848999023 -948.8050537109375
v -848.2789306640625 20.095693588256836 -915.2093505859375
v -822.00628662109375 23.493671417236328 -1024
v -816.36798095703125 20.213459014892578 -916.8948974609375
v -847.27264404296875 18.491613388061523 -896
v -860.72589111328125 18.433021545410156 -896
v -879.2655029296875 19.8214111328125 -896
v -835.16949510574341 18.482919692993164 -896
v -815.2718505859375 18.787849426269531 -896
v -804.77435302734375 19.104244232177734 -896
v -784.4525146484375 21.293310165405273 -918.58404541015625
v -786.14263916015625 20.116283416748047 -950.48992919921875
v -815.01483154296875 23.462804794311523 -1024
v -768 22.978418350219727 -1024
v -768 22.657554626464844 -1016.2642211914063
v -768 20.046314239501953 -951.44781494140625
v -768 20.096124649047852 -934.16705322265625
v -768 21.917593002319336 -997.8968505859375
v -768 20.667095184326172 -919.45074462890625
v -774.37908935546875 19.860319137573242 -896
v -768 19.924205780029297 -903.09014892578125
v -783.2655029296875 20.219810485839844 -896
v -768 19.88438606262207 -896
vt 0.03362400084733963 0.03443300724029541
vt 0.12764899432659149 0.62316399812698364
vt 0.0760200023651123 0.033042013645172119
vt 0.021748999133706093 0.63223999738693237
vt 0.0050619998946785927 0.15418398380279541
vt 0.00087599997641518712 0.035658001899719238
vt 0.12001299858093262 0.031327009201049805
vt 0.36737900972366333 0.60105800628662109
vt 0.50604599714279175 0.0175589919090271
vt 0.0337119996547699 0.99851499998476356
vt 0.034033000469207764 0.99850800004787743
vt 0.0337040014564991 0.99819900002330542
vt 0.15049199759960175 0.86244000494480133
vt 0.029304999858140945 0.8728179931640625
vt 0.02528499998152256 0.74463999271392822
vt 0.60657298564910889 0.5799579918384552
vt 0.38960200548171997 0.84017199277877808
vt 0.55673599243164062 0.015774011611938477
vt 0.62875300645828247 0.81849400699138641
vt 0.402880996465683 0.98461200017482042
vt 0.30186599493026733 0.98864299990236759
vt 0.16225400567054749 0.99377600010484457
vt 0.49375998973846436 0.98102400079369545
vt 0.64318400621414185 0.97518300078809261
vt 0.72203600406646729 0.9718990009278059
vt 0.86810898780822754 0.79719400405883789
vt 0.84576302766799927 0.55879798531532288
vt 0.6092420220375061 0.013912975788116455
vt 0.962336003780365 0.001484990119934082
vt 0.96440601348876953 0.05962902307510376
vt 0.9811980128288269 0.54518699645996094
vt 0.98696297407150269 0.67491701245307922
vt 0.96932297945022583 0.19767498970031738
vt 0.99144899845123291 0.78549499809741974
vt 0.95123201608657837 0.96373900026082993
vt 0.996832013130188 0.90844599902629852
vt 0.88376599550247192 0.96577899903059006
vt 0.99912399053573608 0.96167699992656708
vn -0.0063950000330805779 0.99880099296569824 0.0485289990901947
vn -0.01758899912238121 0.99981200695037842 0.00813200045377016
vn -0.012637999840080738 0.997967004776001 0.0624609999358654
vn 0.032322999089956284 0.99946397542953491 0.0051389997825026512
vn 0.026561999693512917 0.99798697233200073 0.057580001652240753
vn -0.065137997269630432 0.99735498428344727 0.03225100040435791
vn -0.0397379994392395 0.99765700101852417 0.055697999894618988
vn -0.018571000546216965 0.99953997135162354 0.023976000025868416
vn 0.00532899983227253 0.99909299612045288 0.042245000600814819
vn 0.032214000821113586 0.99663501977920532 0.07536499947309494
vn 0.010532000102102757 0.99838000535964966 0.055915001779794693
vn 0.032221999019384384 0.99663597345352173 0.075350001454353333
vn 0.0033839999232441187 0.99998998641967773 0.0029839999042451382
vn 0.029108000919222832 0.99946498870849609 0.014945999719202519
vn 0.026585999876260757 0.99845302104949951 -0.048836998641490936
vn 0.00459099980071187 0.99973201751708984 0.022677000612020493
vn -0.0024280000943690538 0.99896198511123657 0.045481998473405838
vn 0.007178999949246645 0.99902302026748657 0.043602000921964645
vn -0.014485999941825867 0.99939000606536865 0.031762998551130295
vn -0.0017290000105276704 0.99652302265167236 0.0833050012588501
vn 0.014100000262260437 0.9979100227355957 0.063068002462387085
vn 0.014883000403642654 0.99988901615142822 -0.0011220000451430678
vn -0.0035580000840127468 0.99684000015258789 0.079357996582984924
vn -0.022909000515937805 0.99733597040176392 0.069247998297214508
vn -0.035831000655889511 0.99727898836135864 0.064424000680446625
vn -4.400000034365803E-05 0.9999690055847168 0.0078809997066855431
vn 0.0038799999747425318 0.99992901086807251 0.011237000115215778
vn 0.0066510001197457314 0.99905902147293091 0.042869001626968384
vn 0.010293000377714634 0.99908798933029175 0.041439998894929886
vn 0.0099229998886585236 0.99909597635269165 0.041338000446558
vn 0.0048810001462697983 0.99980002641677856 0.019412999972701073
vn 0.027364000678062439 0.99919998645782471 -0.029180999845266342
vn 0.0059790001250803471 0.99917197227478027 0.040252998471260071
vn 0.038134001195430756 0.9992709755897522 0.0018899999558925629
vn 0.028605999425053596 0.99898701906204224 0.034738000482320786
vn 0.030090000480413437 0.99889600276947021 0.036072999238967896
vn -0.0041539999656379223 0.99885302782058716 0.047697000205516815
vn -0.0037730000913143158 0.9999769926071167 0.0056159999221563339
f 1/1/1 2/2/2 3/3/3
f 1/1/1 4/4/4 2/2/2
f 1/1/1 5/5/5 4/4/4
f 6/6/6 5/5/5 1/1/1
f 7/7/7 8/8/8 9/9/9
f 10/10/10 11/11/11 12/12/12
f 12/12/12 13/13/13 14/14/14
f 12/12/12 11/11/11 13/13/13
f 14/14/14 2/2/2 15/15/15
f 14/14/14 13/13/13 2/2/2
f 2/2/2 13/13/13 8/8/8
f 16/16/16 8/8/8 17/17/17
f 9/9/9 16/16/16 18/18/18
f 9/9/9 8/8/8 16/16/16
f 16/16/16 17/17/17 19/19/19
f 17/17/17 8/8/8 13/13/13
f 7/7/7 2/2/2 8/8/8
f 7/7/7 3/3/3 2/2/2
f 20/20/20 13/13/13 21/21/21
f 20/20/20 17/17/17 13/13/13
f 21/21/21 13/13/13 22/22/22
f 23/23/23 24/24/24 19/19/19
f 19/19/19 25/25/25 26/26/26
f 19/19/19 24/24/24 25/25/25
f 23/23/23 17/17/17 20/20/20
f 23/23/23 19/19/19 17/17/17
f 27/27/27 16/16/16 19/19/19
f 22/22/22 13/13/13 11/11/11
f 4/4/4 15/15/15 2/2/2
f 27/27/27 18/18/18 16/16/16
f 27/27/27 28/28/28 18/18/18
f 29/29/29 27/27/27 30/30/30
f 29/29/29 28/28/28 27/27/27
f 31/31/31 27/27/27 32/32/32
f 33/33/33 27/27/27 31/31/31
f 33/33/33 30/30/30 27/27/27
f 34/34/34 35/35/35 36/36/36
f 34/34/34 26/26/26 35/35/35
f 26/26/26 37/37/37 35/35/35
f 38/38/38 36/36/36 35/35/35
f 32/32/32 26/26/26 34/34/34
f 32/32/32 27/27/27 26/26/26
f 25/25/25 37/37/37 26/26/26
f 19/19/19 26/26/26 27/27/27
