mtllib m21212.mtl
usemtl material0
v -744.50390625 21.220924377441406 -768
v -752.21661376953125 20.890018463134766 -768
v -744.11676025390625 21.796070098876953 -760.71978759765625
v -680.50994873046875 20.255294799804688 -768
v -684.656005859375 20.181829452514648 -768
v -680.30438232421875 20.002189636230469 -764.08349609375
v -676.78076171875 19.951957702636719 -768
v -712.5101318359375 20.079433441162109 -768
v -718.44360446929932 19.70338249206543 -768
v -712.21575927734375 19.800666809082031 -762.39764404296875
v -768 19.1994571685791 -759.44970703125
v -742.43572998046875 21.038219451904297 -728.8067626953125
v -768 18.974336624145508 -751.7904052734375
v -710.52593994140625 20.911922454833984 -730.491455078125
v -768 19.190874099731445 -762.052734375
v -768 19.171260833740234 -768
v -648.4075927734375 17.124851226806641 -765.758056640625
v -648.52508544921875 17.296686172485352 -768
v -646.39044189453125 17.161375045776367 -768
v -640 16.299386978149414 -766.19927978515625
v -640 16.483781814575195 -767.87847900390625
v -640 16.497129440307617 -768
v -646.73028564453125 15.575021743774414 -733.84222412109375
v -640 16.458433151245117 -758.1885986328125
v -678.6273193359375 18.413785934448242 -732.16741943359375
v -768 18.282491683959961 -695.4482421875
v -768 15.626700401306152 -666.6185302734375
v -740.7568359375 19.824020385742188 -696.89208984375
v -768 18.484920501708984 -700.39660596847534
v -768 18.59296989440918 -727.44842529296875
v -768 16.472049713134766 -640
v -761.5521240234375 17.3038272857666 -640
v -768 15.844020843505859 -655.88018798828125
v -739.07513427734375 19.215465545654297 -664.97967529296875
v -768 15.545055389404297 -663.43975830078125
v -708.842041015625 20.765087127685547 -698.58068799972534
v -676.93316650390625 20.436346054077148 -700.26458692550659
v -707.15869092941284 20.506626129150391 -666.66949462890625
v -675.2501220703125 20.114896774291992 -668.35321044921875
v -645.03021240234375 18.865625381469727 -701.94403100013733
v -673.755126953125 19.738788604736328 -640
v -677.52197265625 19.787534713745117 -640
v -705.755066037178 19.6224365234375 -640
v -711.3087158203125 19.408113479614258 -640
v -640 18.132431030273438 -707.53613305091858
v -640 18.619768142700195 -702.20880103111267
v -640 15.340438842773438 -734.19683837890625
v -640 19.071033477783203 -697.4200439453125
v -640 20.28999137878418 -670.21527099609375
v -643.3388671875 20.296098709106445 -670.03900146484375
v -640 20.35771369934082 -667.052978515625
v -640 20.358087539672852 -667.0355224609375
v -641.755615234375 19.772161483764648 -640
v -643.73876953125 19.762754440307617 -640
v -737.76324462890625 17.811855316162109 -640
v -640 19.835294723510742 -640
vt 0.1771789938211441 0.032041013240814209
vt 0.11934000253677368 0.033833026885986328
vt 0.18195599317550659 0.0866510272026062
vt 0.6566770076751709 0.013126015663146973
vt 0.62562000751495361 0.014393985271453857
vt 0.65938299894332886 0.042460978031158447
vt 0.68465197086334229 0.012112021446228027
vt 0.41724199056625366 0.022759020328521729
vt 0.37270700931549072 0.024416983127593994
vt 0.42087501287460327 0.064706981182098389
vt 0.0022169998846948147 0.10127401351928711
vt 0.200655996799469 0.32553601264953613
vt 0.0036649999674409628 0.15869402885437012
vt 0.44236400723457336 0.30338698625564575
vt 0.0016570000443607569 0.081770002841949463
vt 0.00037699998938478529 0.037208020687103271
vt 0.8988490104675293 0.021355986595153809
vt 0.89725297689437866 0.00455397367477417
vt 0.9132239818572998 0.00390702486038208
vt 0.96200698614120483 0.01568901538848877
vt 0.9613959789276123 0.0030410289764404297
vt 0.96135097742080688 0.0021259784698486328
vt 0.92095702886581421 0.26018500328063965
vt 0.96413099765777588 0.07571101188659668
vt 0.68151599168777466 0.28130298852920532
vt 0.018600000068545341 0.58346998691558838
vt 0.026421999558806419 0.80034799873828888
vt 0.22252300381660461 0.56426998972892761
vt 0.014130000025033951 0.543819010257721
vt 0.0085159996524453163 0.34111702442169189
vt 0.031830001622438431 0.99787400010973215
vt 0.0805329978466034 0.99617199995554984
vt 0.027067000046372414 0.87883999943733215
vt 0.24281899631023407 0.80299599468708038
vt 0.024800000712275505 0.822174996137619
vt 0.46131500601768494 0.54378300905227661
vt 0.70253700017929077 0.52033799886703491
vt 0.48450198769569397 0.78220100700855255
vt 0.7235410213470459 0.75896400213241577
vt 0.94138699769973755 0.499455988407135
vt 0.74353301525115967 0.97087099961936474
vt 0.71015399694442749 0.97825700044631958
vt 0.49855101108551025 0.982031000778079
vt 0.45691299438476562 0.98340299911797047
vt 0.97772997617721558 0.45600098371505737
vt 0.97903901338577271 0.49607998132705688
vt 0.97126197814941406 0.25516599416732788
vt 0.98022401332855225 0.53210198879241943
vt 0.98715698719024658 0.73611301183700562
vt 0.9621880054473877 0.73828500509262085
vt 0.987962007522583 0.75980900228023529
vt 0.987966001033783 0.75993999838829041
vt 0.981607973575592 0.96296299993991852
vt 0.96833997964859009 0.9615590013563633
vt 0.25836700201034546 0.99014999996870756
vt 0.99476802349090576 0.96251200139522552
vn 0.0059360000304877758 0.99685198068618774 -0.079067997634410858
vn -0.0930899977684021 0.99545001983642578 -0.020317999646067619
vn -0.022857999429106712 0.99942702054977417 -0.024964999407529831
vn 0.029953999444842339 0.99757099151611328 0.0628959983587265
vn -0.0069450000301003456 0.99854302406311035 0.053516998887062073
vn 0.041113998740911484 0.99767202138900757 0.054405998438596725
vn 0.090010002255439758 0.99360001087188721 0.068236999213695526
vn -0.034393001347780228 0.99808198213577271 0.051470998674631119
vn 0.029725000262260437 0.99828797578811646 -0.050379000604152679
vn 0.022610999643802643 0.9997439980506897 0.00077300000702962279
vn -0.10736300051212311 0.99412798881530762 0.013528999872505665
vn -0.041046999394893646 0.99880498647689819 0.026538999751210213
vn -0.10325799882411957 0.99432599544525146 0.025564000010490417
vn 0.034956000745296478 0.99929201602935791 -0.013907999731600285
vn -0.10825599730014801 0.99411797523498535 -0.0032780000474303961
vn -0.10825599730014801 0.99411797523498535 -0.0032790000550448894
vn 0.0838949978351593 0.99496597051620483 0.054816000163555145
vn 0.078775003552436829 0.99428302049636841 0.072079002857208252
vn 0.0921659991145134 0.99080300331115723 0.099065996706485748
vn 0.10001999884843826 0.99390000104904175 0.046461001038551331
vn 0.10277500003576279 0.98875999450683594 0.10858999937772751
vn 0.10277500003576279 0.98875802755355835 0.10860300064086914
vn 0.055617999285459518 0.99813997745513916 -0.0249790009111166
vn 0.053171999752521515 0.99816900491714478 0.02882000058889389
vn 0.07175300270318985 0.99720001220703125 -0.021061999723315239
vn -0.052818000316619873 0.99634397029876709 0.067146003246307373
vn -0.10760500282049179 0.99335199594497681 0.040890999138355255
vn -0.045639000833034515 0.99832797050476074 0.035473000258207321
vn -0.063822001218795776 0.99744099378585815 0.032214000821113586
vn -0.094706997275352478 0.99545902013778687 0.0095870001241564751
vn -0.12784199416637421 0.99102002382278442 -0.039193000644445419
vn -0.099633999168872833 0.99493199586868286 -0.013511000201106072
vn -0.12784199416637421 0.99102002382278442 -0.039193000644445419
vn -0.070761002600193024 0.99719697237014771 0.024302000179886818
vn -0.1262969970703125 0.99196100234985352 -0.0079330001026391983
vn -0.010518999770283699 0.99990999698638916 0.0082740001380443573
vn 0.042036000639200211 0.998790979385376 -0.025476999580860138
vn -0.015785999596118927 0.99969100952148438 0.019204000011086464
vn 0.01093399990350008 0.99992901086807251 0.0047519998624920845
vn 0.030610000714659691 0.99689102172851562 -0.072605997323989868
vn 0.0058400002308189869 0.99989902973175049 0.012955999933183193
vn 0.0085570001974701881 0.99981099367141724 0.017449000850319862
vn -0.02165599912405014 0.99917799234390259 0.034265998750925064
vn -0.043586000800132751 0.99821799993515015 0.04075000062584877
vn 0.03257099911570549 0.994346022605896 -0.1010729968547821
vn 0.0437610000371933 0.99476701021194458 -0.0923210009932518
vn 0.033436998724937439 0.99909502267837524 -0.026304999366402626
vn 0.011270999908447266 0.9982609748840332 -0.057858001440763474
vn 5.999999848427251E-05 0.999439001083374 -0.033481001853942871
vn -0.007734999991953373 0.9998059868812561 -0.018124999478459358
vn 0.00069900002563372254 0.999770998954773 -0.021410999819636345
vn -0.026164000853896141 0.99962198734283447 0.0084549998864531517
vn -0.020858999341726303 0.9996110200881958 0.018533999100327492
vn -0.003823000006377697 0.99985402822494507 0.016666000708937645
vn -0.041347000747919083 0.99744701385498047 0.058217998594045639
vn -0.035930998623371124 0.99916702508926392 0.019321000203490257
f 1/1/1 2/2/2 3/3/3
f 4/4/4 5/5/5 6/6/6
f 7/7/7 4/4/4 6/6/6
f 8/8/8 9/9/9 10/10/10
f 11/11/11 12/12/12 3/3/3
f 11/11/11 13/13/13 12/12/12
f 1/1/1 10/10/10 9/9/9
f 1/1/1 3/3/3 10/10/10
f 8/8/8 6/6/6 5/5/5
f 8/8/8 10/10/10 6/6/6
f 3/3/3 14/14/14 10/10/10
f 2/2/2 11/11/11 3/3/3
f 2/2/2 15/15/15 11/11/11
f 15/15/15 2/2/2 16/16/16
f 17/17/17 7/7/7 6/6/6
f 17/17/17 18/18/18 7/7/7
f 18/18/18 17/17/17 19/19/19
f 20/20/20 19/19/19 17/17/17
f 20/20/20 21/21/21 19/19/19
f 21/21/21 22/22/22 19/19/19
f 6/6/6 23/23/23 17/17/17
f 20/20/20 17/17/17 24/24/24
f 10/10/10 25/25/25 6/6/6
f 26/26/26 27/27/27 28/28/28
f 29/29/29 12/12/12 30/30/30
f 31/31/31 32/32/32 33/33/33
f 33/33/33 34/34/34 35/35/35
f 33/33/33 32/32/32 34/34/34
f 26/26/26 12/12/12 29/29/29
f 26/26/26 28/28/28 12/12/12
f 12/12/12 28/28/28 14/14/14
f 14/14/14 28/28/28 36/36/36
f 14/14/14 25/25/25 10/10/10
f 25/25/25 23/23/23 6/6/6
f 14/14/14 37/37/37 25/25/25
f 3/3/3 12/12/12 14/14/14
f 25/25/25 37/37/37 23/23/23
f 36/36/36 34/34/34 38/38/38
f 34/34/34 36/36/36 28/28/28
f 37/37/37 38/38/38 39/39/39
f 38/38/38 37/37/37 36/36/36
f 39/39/39 40/40/40 37/37/37
f 41/41/41 38/38/38 42/42/42
f 41/41/41 39/39/39 38/38/38
f 14/14/14 36/36/36 37/37/37
f 43/43/43 34/34/34 44/44/44
f 43/43/43 38/38/38 34/34/34
f 23/23/23 37/37/37 40/40/40
f 35/35/35 28/28/28 27/27/27
f 35/35/35 34/34/34 28/28/28
f 45/45/45 40/40/40 46/46/46
f 40/40/40 47/47/47 23/23/23
f 40/40/40 45/45/45 47/47/47
f 46/46/46 40/40/40 48/48/48
f 49/49/49 40/40/40 50/50/50
f 49/49/49 48/48/48 40/40/40
f 51/51/51 50/50/50 52/52/52
f 51/51/51 49/49/49 50/50/50
f 50/50/50 40/40/40 39/39/39
f 24/24/24 23/23/23 47/47/47
f 24/24/24 17/17/17 23/23/23
f 53/53/53 39/39/39 54/54/54
f 53/53/53 50/50/50 39/39/39
f 43/43/43 42/42/42 38/38/38
f 41/41/41 54/54/54 39/39/39
f 44/44/44 34/34/34 55/55/55
f 56/56/56 50/50/50 53/53/53
f 56/56/56 52/52/52 50/50/50
f 55/55/55 34/34/34 32/32/32
f 13/13/13 30/30/30 12/12/12
