mtllib m21220.mtl
usemtl material0
v -1007.2869262695313 14.823166847229004 -896
v -1024 13.198189735412598 -890.882080078125
v -1006.1741333007813 14.057601928710938 -874.85107421875
v -1024 13.406281471252441 -896
v -1024 13.371882438659668 -886.23321533203125
v -1024 13.832345008850098 -873.908935546875
v -1024 13.107117652893066 -855.03936767578125
v -987.14459228515625 15.488483428955078 -896
v -1024 13.188813209533691 -821.2567138671875
v -1004.4888916015625 14.205723762512207 -842.94146728515625
v -1024 13.129766464233398 -841.90740966796875
v -1024 10.644639015197754 -771.02447509765625
v -1001.1294555664063 12.082649230957031 -779.11334228515625
v -1024 10.767568588256836 -777.90106201171875
v -1011.129150390625 11.318463325500488 -768
v -1024 10.590571403503418 -768
v -1024 13.05022144317627 -809.90802001953125
v -1024 11.334424018859863 -787.476806640625
v -1002.8057861328125 13.88089656829834 -811.03009033203125
v -974.25347900390625 16.295001983642578 -876.54449462890625
v -975.28045654296875 16.317037582397461 -896
v -956.74810791015625 17.22956657409668 -896
v -926.3515625 19.029842376708984 -896
v -943.27508544921875 17.56580924987793 -896
v -942.3392333984375 17.134662628173828 -878.23272705078125
v -911.2664794921875 19.495353698730469 -896
v -910.4237060546875 18.252826690673828 -879.9219970703125
v -940.65704345703125 16.616781234741211 -846.32061767578125
v -972.57244873046875 15.520288467407227 -844.6314697265625
v -970.88970947265625 15.115872383117676 -812.71978759765625
v -908.746826171875 16.583599090576172 -848.005615234375
v -896 18.963859558105469 -880.6861572265625
v -896 17.950408935546875 -862.1715087890625
v -907.06085205078125 16.877901077270508 -816.09649658203125
v -938.97509765625 16.042446136474609 -814.4083251953125
v -896 18.998361587524414 -895.95257568359375
v -896 19.0019474029541 -896
v -896 17.906806945800781 -848.683349609375
v -896 17.000040054321289 -836.54070997238159
v -969.21093845367432 13.859119415283203 -780.80499267578125
v -937.30096435546875 13.788640975952148 -782.4898681640625
v -968.53594970703125 13.648992538452148 -768
v -980.73297119140625 12.831409454345703 -768
v -1000.5443115234375 11.762054443359375 -768
v -936.537353515625 13.507416725158691 -768
v -950.3377685546875 13.59318733215332 -768
v -905.38360595703125 15.29498291015625 -784.1805419921875
v -919.942626953125 14.271413803100586 -768
v -896 16.035551071166992 -794.609130859375
v -896 15.273075103759766 -784.67596435546875
v -896 17.156351089477539 -816.68157958984375
v -904.535400390625 14.068662643432617 -768
v -896 14.385168075561523 -772.9091796875
v -896 14.014728546142578 -768
vt 0.12764699757099152 0.031584024429321289
vt 0.0029849999118596315 0.074850976467132568
vt 0.14153000712394714 0.19027698040008545
vt 0.0016550000291317701 0.036370992660522461
vt 0.0043279998935759068 0.1097949743270874
vt 0.0078880004584789276 0.20243197679519653
vt 0.013202999718487263 0.34427899122238159
vt 0.27904000878334045 0.026138007640838623
vt 0.023057999089360237 0.59803101420402527
vt 0.16304700076580048 0.42951202392578125
vt 0.017030000686645508 0.44291698932647705
vt 0.035261001437902451 0.97573399916291237
vt 0.20511700212955475 0.90851700305938721
vt 0.0333780013024807 0.92406900227069855
vt 0.13289999961853027 0.99481000006198883
vt 0.036091998219490051 0.99845700000878423
vt 0.026437999680638313 0.68327799439430237
vt 0.032494999468326569 0.8522769957780838
vt 0.18430399894714356 0.6687920093536377
vt 0.38143500685691833 0.16872102022171021
vt 0.36837899684906006 0.022853970527648926
vt 0.50776100158691406 0.01774299144744873
vt 0.73659902811050415 0.0092210173606872559
vt 0.60900199413299561 0.014066994190216065
vt 0.62079799175262451 0.14732599258422852
vt 0.84987300634384155 0.005084991455078125
vt 0.86024200916290283 0.12602502107620239
vt 0.641975998878479 0.38670897483825684
vt 0.40254399180412292 0.408083975315094
vt 0.42377498745918274 0.64737600088119507
vt 0.88125598430633545 0.36567801237106323
vt 0.968504011631012 0.11620497703552246
vt 0.97337901592254639 0.25550097227096558
vt 0.90252602100372314 0.60465601086616516
vt 0.66316002607345581 0.626006007194519
vt 0.96464800834655762 0.001900017261505127
vt 0.96463602781295776 0.0015429854393005371
vt 0.97715502977371216 0.35661602020263672
vt 0.98011702299118042 0.44809800386428833
vt 0.44477999210357666 0.88687600195407867
vt 0.68397802114486694 0.86596000194549561
vt 0.4531719982624054 0.9829110000282526
vt 0.36151701211929321 0.98634099960327148
vt 0.21248200535774231 0.991882000118494
vt 0.69367802143096924 0.97461999952793121
vt 0.58988600969314575 0.97818000055849552
vt 0.92352497577667236 0.84429000318050385
vt 0.818464994430542 0.96995799988508224
vt 0.99128997325897217 0.76330000162124634
vt 0.99389100074768066 0.838141992688179
vt 0.98548400402069092 0.59727001190185547
vt 0.93422198295593262 0.965964999049902
vt 0.99703902006149292 0.92674800008535385
vt 0.9983450174331665 0.96373200044035912
vn -0.0595409981906414 0.99745398759841919 0.039239000529050827
vn -0.065837003290653229 0.997635006904602 0.019726000726222992
vn -0.05096999928355217 0.998649001121521 0.010102000087499619
vn -0.084404997527599335 0.99560898542404175 0.040481001138687134
vn -0.014599000103771687 0.99919599294662476 -0.037331998348236084
vn -0.012539999559521675 0.99992001056671143 0.0018080000299960375
vn -0.04477899894118309 0.99896800518035889 0.00763599993661046
vn -0.0599059984087944 0.99811100959777832 0.013627000153064728
vn -0.04241500049829483 0.99906200170516968 0.0086880000308156013
vn -0.0490260012447834 0.99877101182937622 0.0072820000350475311
vn -0.055183999240398407 0.99847400188446045 -0.0023070001043379307
vn -0.056453999131917953 0.99824601411819458 0.017844999209046364
vn -0.050418999046087265 0.99787402153015137 0.041301000863313675
vn -0.055373001843690872 0.99775302410125732 0.03771200031042099
vn -0.052565000951290131 0.99838900566101074 0.021353999152779579
vn -0.056453999131917953 0.99824601411819458 0.017844999209046364
vn -0.036726001650094986 0.99829602241516113 0.0453450009226799
vn -0.049734000116586685 0.99677300453186035 0.063014000654220581
vn -0.039175998419523239 0.99852699041366577 0.037528999149799347
vn -0.047694001346826553 0.99877101182937622 0.013488000258803368
vn -0.059769000858068466 0.99820297956466675 0.0042849997989833355
vn -0.031406000256538391 0.99931198358535767 0.019744999706745148
vn -0.045513998717069626 0.99682199954986572 0.0653730034828186
vn -0.054574999958276749 0.99814200401306152 0.02709599956870079
vn -0.035721998661756516 0.99894899129867554 0.028705999255180359
vn -0.00031800000579096377 0.99702602624893188 0.07706800103187561
vn -0.025188999250531197 0.99833899736404419 0.051816999912261963
vn -0.022470999509096146 0.99953901767730713 0.020399000495672226
vn -0.035960998386144638 0.999131977558136 0.021018000319600105
vn -0.030587999150156975 0.99897700548172 0.0333079993724823
vn -0.033201001584529877 0.99910402297973633 0.026259999722242355
vn -0.047761999070644379 0.99847900867462158 0.027533000335097313
vn -0.059585999697446823 0.99731302261352539 0.042610000818967819
vn -0.023422999307513237 0.99935001134872437 0.027403999119997025
vn -0.025857999920845032 0.99865597486495972 0.044907998293638229
vn 0.013247000053524971 0.99820798635482788 0.058354999870061874
vn 0.032210998237133026 0.99663597345352173 0.075356997549533844
vn -0.10121200233697891 0.99416202306747437 0.037397999316453934
vn -0.045334000140428543 0.99887198209762573 0.014120999723672867
vn -0.026603000238537788 0.99917101860046387 0.030825000256299973
vn -0.021284999325871468 0.999006986618042 0.039149001240730286
vn -0.030760999768972397 0.99936401844024658 0.018021000549197197
vn -0.057333998382091522 0.99794799089431763 0.028504999354481697
vn -0.048057999461889267 0.99835300445556641 0.03133000060915947
vn -0.020757000893354416 0.99957400560379028 0.020493999123573303
vn 0.0039059999398887157 0.99984800815582275 0.017000999301671982
vn -0.015641000121831894 0.9980890154838562 0.059787999838590622
vn -0.030209999531507492 0.998894989490509 0.036006998270750046
vn -0.015745000913739204 0.99826598167419434 0.05672299861907959
vn 0.0063359998166561127 0.997094988822937 0.075910001993179321
vn -0.024080999195575714 0.99950098991394043 0.020430000498890877
vn 0.0095960004255175591 0.99713200330734253 0.075070001184940338
vn 0.0063009997829794884 0.99714499711990356 0.075243003666400909
vn 0.0063009997829794884 0.99714499711990356 0.075243003666400909
f 1/1/1 2/2/2 3/3/3
f 1/1/1 4/4/4 2/2/2
f 5/5/5 3/3/3 2/2/2
f 5/5/5 6/6/6 3/3/3
f 6/6/6 7/7/7 3/3/3
f 8/8/8 1/1/1 3/3/3
f 9/9/9 10/10/10 11/11/11
f 12/12/12 13/13/13 14/14/14
f 12/12/12 15/15/15 13/13/13
f 12/12/12 16/16/16 15/15/15
f 17/17/17 18/18/18 19/19/19
f 11/11/11 3/3/3 7/7/7
f 11/11/11 10/10/10 3/3/3
f 10/10/10 20/20/20 3/3/3
f 21/21/21 20/20/20 22/22/22
f 23/23/23 24/24/24 25/25/25
f 26/26/26 25/25/25 27/27/27
f 26/26/26 23/23/23 25/25/25
f 25/25/25 22/22/22 20/20/20
f 25/25/25 24/24/24 22/22/22
f 25/25/25 20/20/20 28/28/28
f 29/29/29 10/10/10 30/30/30
f 20/20/20 10/10/10 29/29/29
f 27/27/27 28/28/28 31/31/31
f 29/29/29 28/28/28 20/20/20
f 32/32/32 31/31/31 33/33/33
f 32/32/32 27/27/27 31/31/31
f 31/31/31 28/28/28 34/34/34
f 28/28/28 27/27/27 25/25/25
f 28/28/28 29/29/29 35/35/35
f 36/36/36 26/26/26 27/27/27
f 36/36/36 37/37/37 26/26/26
f 8/8/8 20/20/20 21/21/21
f 8/8/8 3/3/3 20/20/20
f 38/38/38 33/33/33 31/31/31
f 32/32/32 36/36/36 27/27/27
f 38/38/38 31/31/31 39/39/39
f 14/14/14 19/19/19 18/18/18
f 14/14/14 13/13/13 19/19/19
f 19/19/19 13/13/13 30/30/30
f 30/30/30 13/13/13 40/40/40
f 29/29/29 30/30/30 35/35/35
f 28/28/28 35/35/35 34/34/34
f 30/30/30 41/41/41 35/35/35
f 30/30/30 10/10/10 19/19/19
f 35/35/35 41/41/41 34/34/34
f 42/42/42 40/40/40 43/43/43
f 44/44/44 40/40/40 13/13/13
f 44/44/44 43/43/43 40/40/40
f 45/45/45 41/41/41 46/46/46
f 42/42/42 41/41/41 40/40/40
f 42/42/42 46/46/46 41/41/41
f 45/45/45 47/47/47 41/41/41
f 45/45/45 48/48/48 47/47/47
f 30/30/30 40/40/40 41/41/41
f 34/34/34 41/41/41 47/47/47
f 44/44/44 13/13/13 15/15/15
f 49/49/49 47/47/47 50/50/50
f 47/47/47 51/51/51 34/34/34
f 47/47/47 49/49/49 51/51/51
f 39/39/39 34/34/34 51/51/51
f 39/39/39 31/31/31 34/34/34
f 52/52/52 50/50/50 47/47/47
f 52/52/52 53/53/53 50/50/50
f 53/53/53 52/52/52 54/54/54
f 52/52/52 47/47/47 48/48/48
f 17/17/17 10/10/10 9/9/9
f 17/17/17 19/19/19 10/10/10
