mtllib m21200.mtl
usemtl material0
v -1024 11.713801383972168 -640
v -1024 10.664347648620606 -618.565185546875
v -1004.7149047851563 10.766793251037598 -640
v -1024 9.8700265884399414 -605.99261474609375
v -1024 8.6439170837402344 -586.9013671875
v -1022.9485473632813 8.535792350769043 -585.95452880859375
v -993.7896728515625 11.199114799499512 -640
v -1024 10.684685707092285 -617.90533447265625
v -992.70745849609375 11.871899604797363 -619.56182861328125
v -1024 10.671914100646973 -618.3197021484375
v -981.6431884765625 11.6209077835083 -640
v -960.79229700565338 12.927680015563965 -621.25079345703125
v -961.78363001346588 12.605755805969238 -640
v -991.03399658203125 9.4654111862182617 -587.64300537109375
v -1024 8.6385536193847656 -584.78570556640625
v -1024 8.59743595123291 -585.89923095703125
v -1024 9.0086965560913086 -553.90155029296875
v -1021.2628784179688 8.77592945098877 -554.0452880859375
v -989.3541259765625 8.44287395477295 -555.729248046875
v -959.11859101057053 10.568065643310547 -589.33209228515625
v -1019.569091796875 10.759387016296387 -522.142333984375
v -1024 10.855564117431641 -526.1295166015625
v -957.42974901199341 11.49715518951416 -557.42535400390625
v -987.65521240234375 11.541058540344238 -523.83026123046875
v -943.92474365234375 12.111852645874023 -640
v -1024 10.755311965942383 -517.217529296875
v -1019.033203125 10.860355377197266 -512
v -1024 10.804132461547852 -512
v -1024 10.709708213806152 -520.714111328125
v -1024 10.694134712219238 -521.90814208984375
v -987.0277099609375 12.160913467407227 -512
v -1008.2888793945313 11.582862854003906 -512
v -967.90447998046875 11.73536491394043 -512
v -955.7486572265625 10.740914344787598 -525.51251220703125
v -928.879150390625 13.539807319641113 -622.9381103515625
v -929.78521728515625 12.43076229095459 -640
v -913.5279541015625 13.963808059692383 -640
v -896 13.928627967834473 -640
v -896.96868896484375 13.564240455627441 -624.62335205078125
v -896 13.57651424407959 -625.70001220703125
v -897.778564453125 13.954769134521484 -640
v -896 12.741538047790527 -606.19830322265625
v -896 12.168755531311035 -593.34637451171875
v -896 13.523981094360352 -625.10107421875
v -896 13.486547470092773 -624.67425537109375
v -927.19732666015625 12.93748664855957 -591.02581787109375
v -896 12.156926155090332 -592.670654296875
v -925.5147705078125 12.508201599121094 -559.1141357421875
v -896 14.216290473937988 -562.9677734375
v -923.82391357421875 13.855928421020508 -527.20880126953125
v -896 14.278335571289063 -558.13385009765625
v -896 15.610776901245117 -528.68402099609375
v -896 14.178764343261719 -560.6783447265625
v -896 15.931962013244629 -512
v -906.90753173828125 15.232892990112305 -512
v -896 15.887438774108887 -514.312744140625
v -923.0252685546875 12.967035293579102 -512
v -940.72479248046875 11.299650192260742 -512
v -955.03546094894409 10.710639953613281 -512
vt 0.998304009437561 0.0021160244941711426
vt 0.83149999380111694 0.0025159716606140137
vt 0.998304009437561 0.15219199657440186
vt 0.73356002569198608 0.0023750066757202148
vt 0.58486497402191162 0.0021280050277709961
vt 0.57745397090911865 0.010297000408172607
vt 0.99837201833724976 0.23717600107192993
vt 0.82636898756027222 0.0025269985198974609
vt 0.83944499492645264 0.24591600894927979
vt 0.82959097623825073 0.0025200247764587402
vt 0.9984620213508606 0.33164298534393311
vt 0.85281598567962646 0.49410301446914673
vt 0.99855697154998779 0.48619300127029419
vt 0.590624988079071 0.25845897197723389
vt 0.56835800409317017 0.002097010612487793
vt 0.57706797122955322 0.0021079778671264648
vt 0.32829099893569946 0.0021449923515319824
vt 0.32943400740623474 0.023495018482208252
vt 0.34244498610496521 0.2715269923210144
vt 0.60396397113800049 0.50666201114654541
vt 0.080932997167110443 0.035634994506835938
vt 0.11195500195026398 0.0012149810791015625
vt 0.35595199465751648 0.52077800035476685
vt 0.093326002359390259 0.28446400165557861
vt 0.99881899356842041 0.62505599856376648
vt 0.0426580011844635 0.0011919736862182617
vt 0.002082000020891428 0.039506971836090088
vt 0.0021029999479651451 0.0010300278663635254
vt 0.069838002324104309 0.0011919736862182617
vt 0.0791189968585968 0.0011919736862182617
vt 0.00120599998626858 0.28852099180221558
vt 0.0017239999724552035 0.12320601940155029
vt 0.0011810000287368894 0.43787002563476562
vt 0.10632099956274033 0.53254398703575134
vt 0.86573499441146851 0.74220699071884155
vt 0.9986259937286377 0.73507800698280334
vt 0.99796497821807861 0.86199800670146942
vt 0.99747198820114136 0.9982369999634102
vt 0.87794899940490723 0.99027999956160784
vt 0.88629001379013062 0.99784000008367
vt 0.99752599000930786 0.98441199958324432
vt 0.73571902513504028 0.99788799998350441
vt 0.63572698831558228 0.99798300000838935
vt 0.88273400068283081 0.99727199994958937
vt 0.87944197654724121 0.99777400004677474
vt 0.61765700578689575 0.75542700290679932
vt 0.63047397136688232 0.99798600003123283
vt 0.36962100863456726 0.76893599331378937
vt 0.3990510106086731 0.99764600000344217
vt 0.11981000006198883 0.78184400498867035
vt 0.36045300960540771 0.9978279999922961
vt 0.13131800293922424 0.9985360000282526
vt 0.38139998912811279 0.99872999999206513
vt 0.0020759999752044678 0.99896999995689839
vt 0.001879999996162951 0.91401699930429459
vt 0.020055999979376793 0.9989069999428466
vt 0.0013689999468624592 0.78750899434089661
vt 0.0014479999663308263 0.64953801035881042
vt 0.0013000000035390258 0.53821301460266113
vn 0.048987999558448792 0.99760401248931885 0.048843000084161758
vn -0.018875999376177788 0.99974697828292847 -0.012205000035464764
vn -0.015899000689387321 0.99982798099517822 -0.00952600035816431
vn -0.03290100023150444 0.99713397026062012 0.068121001124382019
vn 0.049130998551845551 0.99703097343444824 0.059296999126672745
vn 0.016079999506473541 0.99957597255706787 0.024291999638080597
vn -0.037188000977039337 0.99883002042770386 -0.030911000445485115
vn -0.036825001239776611 0.99911302328109741 0.020408999174833298
vn -0.03322799876332283 0.999210000038147 0.021817000582814217
vn -0.039521001279354095 0.998744010925293 -0.030782999470829964
vn -0.038143999874591827 0.99890202283859253 -0.027201000601053238
vn -0.021133000031113625 0.9995419979095459 0.02164899930357933
vn -0.012250999920070171 0.99978899955749512 -0.016519000753760338
vn -0.024029999971389771 0.99847298860549927 0.049738999456167221
vn 0.077691003680229187 0.996819019317627 -0.017750000581145287
vn 0.058701001107692719 0.99826997518539429 0.0033289999701082706
vn 0.082580998539924622 0.99578100442886353 -0.0400100015103817
vn 0.036375999450683594 0.99868601560592651 -0.036090001463890076
vn -0.036727000027894974 0.99860501289367676 -0.037930998951196671
vn -0.053679000586271286 0.99822098016738892 0.025965999811887741
vn -0.013465000316500664 0.99949902296066284 -0.028642000630497932
vn 0.056159999221563339 0.9976850152015686 -0.038343999534845352
vn -0.054248001426458359 0.99848198890686035 -0.00953999999910593
vn -0.013288999907672405 0.998429000377655 -0.054441001266241074
vn -0.0091260001063346863 0.99862301349639893 -0.051663000136613846
vn -0.012273999862372875 0.99987298250198364 -0.010215000249445438
vn -0.040164001286029816 0.99916201829910278 -0.007825000211596489
vn -0.01131800003349781 0.999891996383667 -0.0093560004606843
vn -0.015413000248372555 0.99979597330093384 -0.013039999641478062
vn -0.014104999601840973 0.99983197450637817 0.011723999865353108
vn -0.0016299999551847577 0.99863302707672119 -0.052237000316381454
vn -0.036453999578952789 0.99851298332214355 -0.040527999401092529
vn 0.037466000765562057 0.99850600957870483 -0.039781000465154648
vn -0.013774000108242035 0.99988901615142822 0.0056579997763037682
vn -0.02492699958384037 0.999688982963562 -0.00031299999682232738
vn -0.056860998272895813 0.99647098779678345 -0.061751998960971832
vn -0.024661000818014145 0.99969202280044556 0.0026549999602138996
vn 0.014692000113427639 0.99958902597427368 0.024613000452518463
vn 0.033434998244047165 0.99857699871063232 0.041538998484611511
vn 0.030977999791502953 0.9987490177154541 0.039257001131772995
vn 0.0073959999717772007 0.99966001510620117 0.024999000132083893
vn 0.002933999989181757 0.999006986618042 0.044452998787164688
vn 0.019441999495029449 0.99950599670410156 0.024707000702619553
vn 0.084191001951694489 0.99263900518417358 0.087062999606132507
vn 0.083140000700950623 0.99445998668670654 0.064328998327255249
vn -0.02932400070130825 0.999567985534668 0.0021909999195486307
vn 0.023719999939203262 0.99942100048065186 -0.024379000067710876
vn -0.052480001002550125 0.99861598014831543 -0.0033509999047964811
vn -0.035147998481988907 0.999360978603363 -0.0064679998904466629
vn -0.089166998863220215 0.99601501226425171 0.0018149999668821693
vn -0.060104001313447952 0.99737197160720825 -0.040454000234603882
vn -0.064631998538970947 0.99737697839736938 -0.032577000558376312
vn -0.057057999074459076 0.99831700325012207 -0.010420000180602074
vn -0.063947997987270355 0.997767984867096 -0.019207999110221863
vn -0.081513002514839172 0.99667197465896606 0.0004290000069886446
vn -0.063946999609470367 0.997767984867096 -0.019207999110221863
vn -0.11694400012493134 0.9910699725151062 0.064065001904964447
vn -0.081410996615886688 0.99545800685882568 0.049355998635292053
vn 0.01713700033724308 0.99985200166702271 0.0013360000448301435
f 1/1/1 2/2/2 3/3/3
f 4/4/4 5/5/5 6/6/6
f 7/7/7 8/8/8 9/9/9
f 7/7/7 10/10/10 8/8/8
f 10/10/10 3/3/3 2/2/2
f 10/10/10 7/7/7 3/3/3
f 11/11/11 12/12/12 13/13/13
f 7/7/7 12/12/12 11/11/11
f 7/7/7 9/9/9 12/12/12
f 9/9/9 14/14/14 12/12/12
f 15/15/15 6/6/6 16/16/16
f 5/5/5 16/16/16 6/6/6
f 6/6/6 17/17/17 18/18/18
f 6/6/6 15/15/15 17/17/17
f 14/14/14 18/18/18 19/19/19
f 18/18/18 14/14/14 6/6/6
f 19/19/19 20/20/20 14/14/14
f 17/17/17 21/21/21 18/18/18
f 17/17/17 22/22/22 21/21/21
f 9/9/9 6/6/6 14/14/14
f 23/23/23 19/19/19 24/24/24
f 8/8/8 6/6/6 9/9/9
f 8/8/8 4/4/4 6/6/6
f 18/18/18 24/24/24 19/19/19
f 25/25/25 13/13/13 12/12/12
f 26/26/26 27/27/27 21/21/21
f 26/26/26 28/28/28 27/27/27
f 29/29/29 21/21/21 30/30/30
f 29/29/29 26/26/26 21/21/21
f 21/21/21 24/24/24 18/18/18
f 21/21/21 31/31/31 24/24/24
f 21/21/21 32/32/32 31/31/31
f 22/22/22 30/30/30 21/21/21
f 27/27/27 32/32/32 21/21/21
f 24/24/24 33/33/33 34/34/34
f 24/24/24 31/31/31 33/33/33
f 12/12/12 14/14/14 20/20/20
f 20/20/20 35/35/35 12/12/12
f 36/36/36 35/35/35 37/37/37
f 38/38/38 39/39/39 40/40/40
f 38/38/38 41/41/41 39/39/39
f 39/39/39 37/37/37 35/35/35
f 39/39/39 41/41/41 37/37/37
f 42/42/42 35/35/35 43/43/43
f 42/42/42 39/39/39 35/35/35
f 25/25/25 35/35/35 36/36/36
f 25/25/25 12/12/12 35/35/35
f 44/44/44 39/39/39 45/45/45
f 44/44/44 40/40/40 39/39/39
f 23/23/23 20/20/20 19/19/19
f 20/20/20 23/23/23 46/46/46
f 47/47/47 35/35/35 46/46/46
f 47/47/47 43/43/43 35/35/35
f 20/20/20 46/46/46 35/35/35
f 46/46/46 23/23/23 48/48/48
f 42/42/42 45/45/45 39/39/39
f 47/47/47 46/46/46 49/49/49
f 48/48/48 34/34/34 50/50/50
f 34/34/34 48/48/48 23/23/23
f 51/51/51 50/50/50 52/52/52
f 50/50/50 53/53/53 48/48/48
f 50/50/50 51/51/51 53/53/53
f 54/54/54 50/50/50 55/55/55
f 54/54/54 56/56/56 50/50/50
f 56/56/56 52/52/52 50/50/50
f 49/49/49 48/48/48 53/53/53
f 49/49/49 46/46/46 48/48/48
f 57/57/57 34/34/34 58/58/58
f 57/57/57 50/50/50 34/34/34
f 34/34/34 23/23/23 24/24/24
f 58/58/58 34/34/34 59/59/59
f 57/57/57 55/55/55 50/50/50
f 59/59/59 34/34/34 33/33/33
