mtllib m21222.mtl
usemtl material0
v -1014.0430908203125 15.076090812683106 -1024
v -1024 15.376786231994629 -937.91259765625
v -1009.5366821289063 15.496264457702637 -938.67681884765625
v -1024 15.132972717285156 -992.3875732421875
v -1017.4613037109375 15.047045707702637 -1024
v -1024 15.097640037536621 -1000.2817993164063
v -1010.5020751953125 15.137372970581055 -1024
v -977.62384033203125 16.041799545288086 -940.36395263671875
v -1024 15.222375869750977 -921.29254150390625
v -1007.8533935546875 15.21286678314209 -906.76556396484375
v -1024 15.452995300292969 -1024
v -950.02313232421875 19.501529693603516 -1024
v -945.70904541015625 16.999622344970703 -942.05267333984375
v -954.55419921875 19.373220443725586 -1024
v -945.328125 19.8306884765625 -1024
v -913.78802490234375 19.295499801635742 -943.746337890625
v -944.020263671875 17.909074783325195 -910.14581298828125
v -896 22.5422420501709 -1008.2255249023438
v -896 18.725038528442383 -944.6837158203125
v -896 23.052324295043945 -1024
v -912.0968017578125 20.719593048095703 -911.84136962890625
v -975.93792724609375 16.331146240234375 -908.454833984375
v -1024 13.809137344360352 -905.90802001953125
v -1024 13.406281471252441 -896
v -1007.2869262695313 14.823166847229004 -896
v -1024 13.595990180969238 -900.665771484375
v -987.14459228515625 15.488483428955078 -896
v -956.74810791015625 17.22956657409668 -896
v -975.28045654296875 16.317037582397461 -896
v -926.3515625 19.029842376708984 -896
v -943.27508544921875 17.56580924987793 -896
v -911.2664794921875 19.495353698730469 -896
v -896 19.0019474029541 -896
v -896 19.00511360168457 -896.0418701171875
v -896 20.263483047485352 -912.6898193359375
v -896 19.415782928466797 -929.73455810546875
vt 0.0330669991672039 0.92296300083398819
vt 0.682479977607727 0.97544299997389317
vt 0.67299002408981323 0.86696599423885345
vt 0.2731730043888092 0.98957599978894
vt 0.033952999860048294 0.94864699989557266
vt 0.21385900676250458 0.99162399955093861
vt 0.032150000333786011 0.89635399729013443
vt 0.65205001831054688 0.6275860071182251
vt 0.807362973690033 0.97114500030875206
vt 0.91233301162719727 0.84606499969959259
vt 0.03563300147652626 0.99787200009450316
vt 0.016294000670313835 0.44072800874710083
vt 0.63094300031661987 0.38816702365875244
vt 0.017441999167203903 0.47478598356246948
vt 0.01472300011664629 0.40539300441741943
vt 0.61003702878952026 0.14813500642776489
vt 0.87031102180480957 0.366890013217926
vt 0.11966300010681152 0.03409498929977417
vt 0.59784400463104248 0.014705002307891846
vt 0.0020379999186843634 0.0338820219039917
vt 0.84950298070907593 0.12651997804641724
vt 0.8913000226020813 0.606561005115509
vt 0.92345702648162842 0.9675769992172718
vt 0.99796199798583984 0.96497099846601486
vt 0.99312299489974976 0.83896300196647644
vt 0.96287697553634644 0.96619800105690956
vt 0.9878770112991333 0.68767398595809937
vt 0.97990202903747559 0.45898997783660889
vt 0.98470401763916016 0.59831801056861877
vt 0.97219198942184448 0.23033702373504639
vt 0.97644400596618652 0.35772597789764404
vt 0.96873199939727783 0.11692500114440918
vt 0.96578997373580933 0.0021280050277709961
vt 0.965474009513855 0.00213700532913208
vt 0.83848899602890015 0.0057880282402038574
vt 0.71027499437332153 0.010532975196838379
vn -0.012752000242471695 0.99990999698638916 -0.0042500002309679985
vn -0.0081209996715188026 0.99996399879455566 0.0026390000712126493
vn -0.014891999773681164 0.99988901615142822 0.00052100000903010368
vn -0.0084969997406005859 0.9999539852142334 -0.0044749998487532139
vn 0.020717000588774681 0.99977898597717285 0.0035780000034719706
vn -0.0024540000595152378 0.99999302625656128 -0.0028099999763071537
vn -0.039476998150348663 0.99920898675918579 0.0047140000388026237
vn -0.031341001391410828 0.99950802326202393 0.0013089999556541443
vn -0.027520999312400818 0.99913299083709717 0.031244000419974327
vn -0.04914499819278717 0.99818199872970581 0.034883998334407806
vn 0.061958000063896179 0.997967004776001 0.014952000230550766
vn -0.048429001122713089 0.99827998876571655 0.033027999103069305
vn -0.052763998508453369 0.99860501289367676 0.0017969999462366104
vn -0.047834999859333038 0.99850201606750488 0.02657799981534481
vn -0.068081997334957123 0.99712002277374268 0.033406000584363937
vn -0.024707000702619553 0.99969500303268433 0.00033099998836405575
vn -0.063236996531486511 0.99799799919128418 0.00076600001193583012
vn -0.056572999805212021 0.99779802560806274 0.034634999930858612
vn 0.032508999109268188 0.99943399429321289 0.0086770001798868179
vn -0.065137997269630432 0.99735498428344727 0.032249998301267624
vn -0.01999799907207489 0.99972498416900635 0.012253000400960445
vn -0.044068001210689545 0.99901598691940308 0.0049769999459385872
vn -0.083006002008914948 0.99443298578262329 0.064902998507022858
vn -0.084404997527599335 0.99560898542404175 0.040481001138687134
vn -0.057893000543117523 0.99755501747131348 0.039156999439001083
vn -0.084404997527599335 0.99560898542404175 0.040481001138687134
vn -0.04276999831199646 0.998661994934082 0.029083000496029854
vn -0.04272099956870079 0.99904102087020874 0.0095509998500347137
vn -0.0590829998254776 0.99824398756027222 0.0042500002309679985
vn -0.071424998342990875 0.99655997753143311 0.0420290008187294
vn -0.056570000946521759 0.9980279803276062 0.027197999879717827
vn 0.0017770000267773867 0.99703299999237061 0.076958999037742615
vn 0.032195001840591431 0.99663698673248291 0.075349003076553345
vn 0.032186999917030334 0.99663698673248291 0.075356997549533844
vn 0.028890000656247139 0.99952399730682373 0.010785999707877636
vn 0.028679000213742256 0.9984850287437439 -0.046955998986959457
f 1/1/1 2/2/2 3/3/3
f 1/1/1 4/4/4 2/2/2
f 4/4/4 5/5/5 6/6/6
f 4/4/4 1/1/1 5/5/5
f 7/7/7 3/3/3 8/8/8
f 7/7/7 1/1/1 3/3/3
f 3/3/3 9/9/9 10/10/10
f 3/3/3 2/2/2 9/9/9
f 11/11/11 6/6/6 5/5/5
f 12/12/12 8/8/8 13/13/13
f 12/12/12 14/14/14 8/8/8
f 7/7/7 8/8/8 14/14/14
f 15/15/15 13/13/13 16/16/16
f 15/15/15 12/12/12 13/13/13
f 13/13/13 8/8/8 17/17/17
f 18/18/18 16/16/16 19/19/19
f 20/20/20 16/16/16 18/18/18
f 20/20/20 15/15/15 16/16/16
f 16/16/16 13/13/13 21/21/21
f 8/8/8 3/3/3 22/22/22
f 9/9/9 23/23/23 10/10/10
f 24/24/24 25/25/25 26/26/26
f 26/26/26 10/10/10 23/23/23
f 26/26/26 25/25/25 10/10/10
f 27/27/27 10/10/10 25/25/25
f 27/27/27 22/22/22 10/10/10
f 22/22/22 28/28/28 17/17/17
f 22/22/22 29/29/29 28/28/28
f 30/30/30 17/17/17 31/31/31
f 30/30/30 21/21/21 17/17/17
f 13/13/13 17/17/17 21/21/21
f 32/32/32 21/21/21 30/30/30
f 31/31/31 17/17/17 28/28/28
f 17/17/17 8/8/8 22/22/22
f 33/33/33 21/21/21 32/32/32
f 33/33/33 34/34/34 21/21/21
f 34/34/34 35/35/35 21/21/21
f 27/27/27 29/29/29 22/22/22
f 35/35/35 36/36/36 21/21/21
f 3/3/3 10/10/10 22/22/22
f 19/19/19 21/21/21 36/36/36
f 19/19/19 16/16/16 21/21/21
