mtllib m21310.mtl
usemtl material0
v -256 8.51745891571045 -560.05670166015625
v -253.73223876953125 8.549077033996582 -562.57720947265625
v -256 8.6080837249755859 -562.4576416015625
v -256 7.214838981628418 -527.743896484375
v -252.05482482910156 7.0698928833007812 -530.6617431640625
v -256 7.200685977935791 -530.453857421875
v -256 7.2743539810180664 -516.34881591796875
v -256 10.511171340942383 -593.835693359375
v -255.40721130371094 10.533809661865234 -594.4945068359375
v -256 10.567146301269531 -594.46331787109375
v -256 12.09178352355957 -640
v -256 12.634129524230957 -627.614501953125
v -244.85888671875 11.262019157409668 -640
v -256 12.751265525817871 -626.46978759765625
v -225.17289733886719 12.295145988464356 -628.09619140625
v -256 11.324813842773438 -605.79876708984375
v -221.81297302246094 10.392837524414063 -564.26898193359375
v -256 7.3287482261657715 -512
v -251.06851196289063 7.2969570159912109 -512
v -244.71810913085938 7.3575420379638672 -512
v -225.74772644042969 8.6893892288208 -512
v -220.133544921875 9.3316154479980469 -532.35504150390625
v -223.48727416992188 12.510869026184082 -596.186767578125
v -225.80741882324219 11.082986831665039 -640
v -214.46481323242188 11.155491828918457 -640
v -193.25347900390625 14.158136367797852 -629.7880859375
v -189.89918494224548 11.100576400756836 -565.9566650390625
v -219.06173706054688 8.7846803665161133 -512
v -212.13914489746094 8.3679742813110352 -512
v -194.30332899093628 8.3375158309936523 -512
v -188.22308301925659 9.3557729721069336 -534.04022216796875
v -191.57041901350021 13.847502708435059 -597.87677001953125
v -193.80078101158142 12.532052993774414 -640
v -161.35270690917969 12.181053161621094 -631.46600341796875
v -157.98289489746094 12.319724082946777 -567.64617919921875
v -162.85697937011719 8.4878597259521484 -512
v -156.30891418457031 10.14182186126709 -535.7281494140625
v -179.56796264648438 8.1326913833618164 -512
v -159.65541076660156 14.795658111572266 -599.5653076171875
v -187.06550598144531 8.177363395690918 -512
v -184.06845092773438 12.481841087341309 -640
v -161.80801391601563 11.235462188720703 -640
v -129.44894409179688 10.824262619018555 -633.146240234375
v -128 11.208470344543457 -569.22576904296875
v -128 11.073968887329102 -567.19122314453125
v -128 10.502298355102539 -537.22430419921875
v -131.41195678710938 8.2952394485473633 -512
v -128 9.3909683227539062 -524.360595703125
v -146.99507141113281 8.1679601669311523 -512
v -128 11.135746002197266 -601.22467041015625
v -128 11.117844581604004 -600.9736328125
v -155.06523132324219 8.3713827133178711 -512
v -153.67611694335938 11.277852058410645 -640
v -128 11.068408012390137 -605.72283935546875
v -128 10.713780403137207 -633.22235107421875
v -128 8.1433725357055664 -512
v -128 10.342384338378906 -640
v -128 10.705033302307129 -634.75689697265625
v -129.81315612792969 10.3521728515625 -640
vt 0.36078301072120667 0.024515986442565918
vt 0.38029399514198303 0.040862023830413818
vt 0.37880799174308777 0.023873984813690186
vt 0.11815299838781357 0.03318101167678833
vt 0.1410599946975708 0.062048017978668213
vt 0.13848400115966797 0.032486975193023682
vt 0.032660998404026031 0.036101996898651123
vt 0.61463302373886108 0.015314996242523193
vt 0.619737982749939 0.019584000110626221
vt 0.61936002969741821 0.015137016773223877
vt 0.96161901950836182 0.0018870234489440918
vt 0.8686249852180481 0.0054990053176879883
vt 0.96514701843261719 0.085677981376647949
vt 0.85999298095703125 0.0058130025863647461
vt 0.88089698553085327 0.236627995967865
vt 0.70458698272705078 0.01204901933670044
vt 0.40254500508308411 0.28017598390579224
vt 3.1999999919207767E-05 0.037211000919342041
vt 0.0012929999502375722 0.074209988117218018
vt 0.0032609999179840088 0.12266498804092407
vt 0.0089360000565648079 0.26530897617340088
vt 0.16331200301647186 0.30157899856567383
vt 0.64206200838088989 0.25895601511001587
vt 0.97048598527908325 0.22860002517700195
vt 0.9744030237197876 0.31263101100921631
vt 0.90321898460388184 0.47594499588012695
vt 0.4241270124912262 0.51916700601577759
vt 0.010875999927520752 0.31546700000762939
vt 0.012788999825716019 0.36749202013015747
vt 0.017550000920891762 0.50096601247787476
vt 0.18474100530147553 0.5404990017414093
vt 0.664031982421875 0.49808698892593384
vt 0.98054301738739014 0.46797400712966919
vt 0.92487597465515137 0.71522900462150574
vt 0.44605201482772827 0.75826199352741241
vt 0.0262449998408556 0.73685199022293091
vt 0.20646600425243378 0.77949400246143341
vt 0.021538000553846359 0.61152300238609314
vt 0.685778021812439 0.73712000250816345
vt 0.019485000520944595 0.55527698993682861
vt 0.98292297124862671 0.54255101084709167
vt 0.98919302225112915 0.70980000495910645
vt 0.94797301292419434 0.954160001128912
vt 0.46541100740432739 0.98297099955379963
vt 0.45011600852012634 0.98352199979126453
vt 0.22526100277900696 0.99148499965667725
vt 0.034409001469612122 0.97248700074851513
vt 0.1283939927816391 0.99484999990090728
vt 0.03039499931037426 0.85587699711322784
vt 0.704712986946106 0.97590699978172779
vt 0.70282399654388428 0.97597499936819077
vt 0.028305999934673309 0.79531300067901611
vt 0.99106401205062866 0.77081599831581116
vt 0.742779016494751 0.97405499964952469
vt 0.9490320086479187 0.96503200009465218
vt 0.035192001610994339 0.9981129999505356
vt 0.99996799230575562 0.96281899884343147
vt 0.96053999662399292 0.96452200040221214
vt 0.99938100576400757 0.94922100007534027
vn 0.033698998391628265 0.99851298332214355 0.042844999581575394
vn -0.012559999711811543 0.99843698740005493 0.054450999945402145
vn 0.028548000380396843 0.998403012752533 0.0487390011548996
vn 0.032859001308679581 0.99944597482681274 -0.0052200001664459705
vn -0.014151000417768955 0.99965798854827881 0.021994000300765038
vn 0.034116998314857483 0.99924099445343018 0.018780000507831573
vn 0.0087090004235506058 0.99989098310470581 -0.011882999911904335
vn 0.036495998501777649 0.99707901477813721 0.067100003361701965
vn 0.0060560000129044056 0.99818998575210571 0.05984099954366684
vn 0.060065999627113342 0.99514502286911011 0.077964000403881073
vn 0.074201002717018127 0.99628901481628418 -0.043625999242067337
vn 0.024465000256896019 0.99579298496246338 -0.088310003280639648
vn 0.026643000543117523 0.9959070086479187 -0.0863649994134903
vn 0.01407300028949976 0.99980801343917847 -0.013663000427186489
vn -0.0268740002065897 0.99837398529052734 -0.050269000232219696
vn 0.019071999937295914 0.99744802713394165 0.068795002996921539
vn -0.040989000350236893 0.99759399890899658 0.055916998535394669
vn 0.0064460001885890961 0.99990099668502808 -0.012507000006735325
vn -0.0018149999668821693 0.999925971031189 -0.012071000412106514
vn -0.047021999955177307 0.99888902902603149 0.0030890000052750111
vn -0.04694800078868866 0.99872499704360962 0.018562000244855881
vn -0.030710000544786453 0.9989280104637146 0.0346359983086586
vn -0.051536999642848969 0.99809402227401733 0.033955000340938568
vn 0.0017590000061318278 0.99484401941299438 -0.10139799863100052
vn -0.049791000783443451 0.98897302150726318 -0.13947199285030365
vn -0.00570600014179945 0.99755698442459106 -0.069626003503799438
vn -0.022804999724030495 0.99744999408721924 0.067624002695083618
vn 0.024184999987483025 0.99937999248504639 0.025580000132322311
vn 0.023927999660372734 0.99899500608444214 0.037895999848842621
vn 0.01015899982303381 0.99874997138977051 0.048944998532533646
vn -0.00891599990427494 0.998354971408844 0.056644998490810394
vn -0.019992999732494354 0.99918997287750244 0.034910999238491058
vn -0.031606998294591904 0.987326979637146 -0.15552200376987457
vn 0.031177999451756477 0.99622601270675659 -0.080996997654438019
vn 0.014123000204563141 0.99806702136993408 0.060524001717567444
vn -0.006238000001758337 0.99767798185348511 0.067821003496646881
vn -0.0054339999333024025 0.997855007648468 0.065229997038841248
vn -0.010855999775230885 0.99816000461578369 0.059654001146554947
vn 0.032804001122713089 0.999442994594574 0.0061360001564025879
vn 0.013748000375926495 0.99851799011230469 0.052664998918771744
vn 0.042038999497890472 0.99127697944641113 -0.1249070018529892
vn 0.026165999472141266 0.9934229850769043 -0.11146999895572662
vn 0.057727999985218048 0.99742400646209717 -0.042580001056194305
vn 0.038621000945568085 0.998790979385376 0.030423000454902649
vn 0.028276000171899796 0.99808502197265625 0.055011000484228134
vn -0.0099959997460246086 0.99862498044967651 0.051460999995470047
vn 0.013619000092148781 0.99566400051116943 0.09202200174331665
vn -0.0036589999217540026 0.99617600440979 0.087297998368740082
vn 0.0045389998704195023 0.99669301509857178 0.0811299979686737
vn 0.11618500202894211 0.99287199974060059 0.026583999395370483
vn 0.099312998354434967 0.993615984916687 0.053514000028371811
vn 0.020193999633193016 0.99710297584533691 0.073339000344276428
vn 0.026944000273942947 0.99633300304412842 -0.081211000680923462
vn 0.11341899633407593 0.99343597888946533 -0.014836999587714672
vn 0.075548000633716583 0.99709999561309814 -0.0091500002890825272
vn 0.044241998344659805 0.99397099018096924 0.10032500326633453
vn 0.005386000033468008 0.99760198593139648 -0.069000996649265289
vn 0.02182300016283989 0.99828797578811646 -0.054267000406980515
vn 0.022574000060558319 0.99729901552200317 -0.069894000887870789
f 1/1/1 2/2/2 3/3/3
f 4/4/4 5/5/5 6/6/6
f 4/4/4 7/7/7 5/5/5
f 8/8/8 9/9/9 10/10/10
f 11/11/11 12/12/12 13/13/13
f 14/14/14 9/9/9 15/15/15
f 14/14/14 16/16/16 9/9/9
f 3/3/3 9/9/9 8/8/8
f 3/3/3 2/2/2 9/9/9
f 5/5/5 17/17/17 2/2/2
f 18/18/18 5/5/5 7/7/7
f 18/18/18 19/19/19 5/5/5
f 20/20/20 5/5/5 19/19/19
f 21/21/21 5/5/5 20/20/20
f 21/21/21 22/22/22 5/5/5
f 6/6/6 2/2/2 1/1/1
f 6/6/6 5/5/5 2/2/2
f 2/2/2 23/23/23 9/9/9
f 10/10/10 9/9/9 16/16/16
f 24/24/24 15/15/15 25/25/25
f 14/14/14 13/13/13 12/12/12
f 14/14/14 15/15/15 13/13/13
f 15/15/15 24/24/24 13/13/13
f 15/15/15 23/23/23 26/26/26
f 17/17/17 23/23/23 2/2/2
f 22/22/22 27/27/27 17/17/17
f 28/28/28 22/22/22 21/21/21
f 29/29/29 22/22/22 28/28/28
f 30/30/30 22/22/22 29/29/29
f 30/30/30 31/31/31 22/22/22
f 22/22/22 17/17/17 5/5/5
f 17/17/17 32/32/32 23/23/23
f 23/23/23 15/15/15 9/9/9
f 26/26/26 25/25/25 15/15/15
f 26/26/26 33/33/33 25/25/25
f 32/32/32 34/34/34 26/26/26
f 27/27/27 32/32/32 17/17/17
f 31/31/31 35/35/35 27/27/27
f 31/31/31 36/36/36 37/37/37
f 31/31/31 38/38/38 36/36/36
f 31/31/31 27/27/27 22/22/22
f 32/32/32 27/27/27 39/39/39
f 32/32/32 26/26/26 23/23/23
f 38/38/38 31/31/31 40/40/40
f 40/40/40 31/31/31 30/30/30
f 33/33/33 26/26/26 41/41/41
f 34/34/34 41/41/41 26/26/26
f 34/34/34 42/42/42 41/41/41
f 39/39/39 43/43/43 34/34/34
f 35/35/35 39/39/39 27/27/27
f 37/37/37 44/44/44 35/35/35
f 37/37/37 45/45/45 44/44/44
f 46/46/46 47/47/47 48/48/48
f 46/46/46 37/37/37 47/47/47
f 37/37/37 49/49/49 47/47/47
f 37/37/37 35/35/35 31/31/31
f 50/50/50 35/35/35 51/51/51
f 50/50/50 39/39/39 35/35/35
f 39/39/39 34/34/34 32/32/32
f 49/49/49 37/37/37 52/52/52
f 52/52/52 37/37/37 36/36/36
f 42/42/42 34/34/34 53/53/53
f 39/39/39 54/54/54 43/43/43
f 39/39/39 50/50/50 54/54/54
f 54/54/54 55/55/55 43/43/43
f 45/45/45 37/37/37 46/46/46
f 48/48/48 47/47/47 56/56/56
f 51/51/51 35/35/35 44/44/44
f 57/57/57 43/43/43 58/58/58
f 57/57/57 59/59/59 43/43/43
f 53/53/53 43/43/43 59/59/59
f 53/53/53 34/34/34 43/43/43
f 55/55/55 58/58/58 43/43/43
