mtllib m21323.mtl
usemtl material0
v -384 19.4628849029541 -958.29003894329071
v -371.315185546875 18.445096969604492 -972.39056396484375
v -384 18.881580352783203 -971.72222900390625
v -359.02545166015625 18.729198455810547 -1024
v -339.41372680664062 16.580844879150391 -974.06878662109375
v -374.0338134765625 19.621782302856445 -1024
v -310.04412841796875 17.804010391235352 -1024
v -307.51416015625 14.327627182006836 -975.74554443359375
v -325.63913011550903 18.961423873901367 -1024
v -293.8843994140625 18.013532638549805 -1024
v -275.6011962890625 14.864095687866211 -977.43267822265625
v -305.833984375 13.416312217712402 -943.8319091796875
v -337.728759765625 16.661699295043945 -942.15887451171875
v -384 21.035289764404297 -939.73046875
v -369.61749267578125 21.171409606933594 -940.490478515625
v -367.93218994140625 21.322275161743164 -908.58074951171875
v -384 21.105680465698242 -923.03509521484375
v -273.90646362304688 16.965419769287109 -945.5302734375
v -256 15.087254524230957 -978.46856689453125
v -256 15.935501098632813 -965.43463087081909
v -304.14834594726562 13.634069442749023 -911.92254638671875
v -336.03335571289062 18.907251358032227 -910.2569580078125
v -262.75399780273438 17.231231689453125 -1024
v -384 19.9757080078125 -1024
v -384 19.691640853881836 -1010.4271850585938
v -272.2464599609375 11.880541801452637 -913.6011962890625
v -379.252197265625 20.589908599853516 -896
v -367.27554321289062 19.821672439575195 -896
v -384 20.949319839477539 -902.13043212890625
v -384 21.276655197143555 -907.7320556640625
v -384 20.591083526611328 -896
v -335.28231811523438 18.58885383605957 -896
v -353.96035766601562 20.020904541015625 -896
v -303.3087158203125 13.447538375854492 -896
v -320.2106319963932 16.245433807373047 -896
v -271.31863403320312 11.607829093933106 -896
v -286.46115112304688 12.450165748596191 -896
v -257.68902587890625 11.211319923400879 -896
v -256 11.419858932495117 -914.45751953125
v -256 11.18839168548584 -897.87738037109375
v -256 12.424013137817383 -931.6578369140625
v -256 14.678110122680664 -946.46795654296875
v -256 17.290851593017578 -1024
v -256 16.5213565826416 -1008.1004638671875
v -256 11.160635948181152 -896
vt 0.46794098615646362 0.019625008106231689
vt 0.57690298557281494 0.11113101243972778
vt 0.5686039924621582 0.016278982162475586
vt 0.96650898456573486 0.18964701890945435
vt 0.59929502010345459 0.34980499744415283
vt 0.9626619815826416 0.077081978321075439
vt 0.98122799396514893 0.55603998899459839
vt 0.621815025806427 0.58863899111747742
vt 0.97735899686813354 0.43895500898361206
vt 0.98799097537994385 0.67683100700378418
vt 0.64495700597763062 0.82695600390434265
vt 0.383417010307312 0.61162099242210388
vt 0.36096200346946716 0.37217700481414795
vt 0.3284820020198822 0.024206995964050293
vt 0.33760499954223633 0.13172000646591187
vt 0.099081002175807953 0.15196299552917481
vt 0.20347400009632111 0.028195977210998535
vt 0.40338900685310364 0.85381999611854553
vt 0.65786898136138916 0.97347999922931194
vt 0.56018400192260742 0.97913100011646748
vt 0.14085200428962708 0.63255399465560913
vt 0.11939600110054016 0.39107799530029297
vt 0.99774199724197388 0.9095190018415451
vt 0.96007400751113892 0.0024200081825256348
vt 0.85843700170516968 0.0060179829597473145
vt 0.16149899363517761 0.87134100496768951
vt 0.0020230000372976065 0.070209026336669922
vt 0.0044120000675320625 0.16038298606872559
vt 0.046872001141309738 0.033195018768310547
vt 0.088886000216007233 0.031857013702392578
vt 0.00089199998183175921 0.034659028053283691
vt 0.01281800027936697 0.40032798051834106
vt 0.00827299989759922 0.26006698608398438
vt 0.021890999749302864 0.64341101050376892
vt 0.01637599989771843 0.51453599333763123
vt 0.029944999143481255 0.88284000009298325
vt 0.026660999283194542 0.76975199580192566
vt 0.033427998423576355 0.9849279997870326
vt 0.16927200555801392 0.993017999920994
vt 0.047883998602628708 0.997133000055328
vt 0.298334002494812 0.99135200027376413
vt 0.41053500771522522 0.98904700018465519
vt 0.99910801649093628 0.96049699932336807
vt 0.8799780011177063 0.96578900143504143
vt 0.033826000988483429 0.99757999996654689
vn -0.0031840000301599503 0.997189998626709 -0.074841998517513275
vn 0.050301998853683472 0.99857097864151 -0.018070999532938004
vn 0.0337430015206337 0.9993559718132019 -0.012237999588251114
vn 0.034127999097108841 0.99897998571395874 0.02957800030708313
vn 0.061921000480651855 0.99782001972198486 0.022808000445365906
vn 0.0470150001347065 0.9986879825592041 0.020292999222874641
vn 0.031984999775886536 0.99702399969100952 0.070151001214981079
vn 0.029368000105023384 0.998386025428772 0.048618998378515244
vn 0.040355999022722244 0.9974600076675415 0.058688998222351074
vn 0.0015500000445172191 0.997759997844696 0.0668720006942749
vn -0.021679000928997993 0.99971598386764526 0.0099330004304647446
vn 0.024698000401258469 0.99958699941635132 0.014685999602079392
vn 0.11581599712371826 0.992268979549408 -0.044594001024961472
vn -0.011727999895811081 0.99900597333908081 -0.043014001101255417
vn 0.054189000278711319 0.996969997882843 -0.055806998163461685
vn 0.032866001129150391 0.99885398149490356 0.034802999347448349
vn -0.0080169998109340668 0.99994897842407227 -0.0060720001347362995
vn -0.0059079998172819614 0.99798101186752319 0.063230998814105988
vn -0.01172299962490797 0.99991101026535034 -0.0064119999296963215
vn 0.019237000495195389 0.999222993850708 -0.034396998584270477
vn 0.10135599970817566 0.9947969913482666 -0.010288000106811523
vn 0.12487500160932541 0.99189502000808716 -0.023450000211596489
vn 0.0052379998378455639 0.99862200021743774 0.052207998931407928
vn 0.035482000559568405 0.99915200471878052 0.020911000669002533
vn 0.035482000559568405 0.99915200471878052 0.020911000669002533
vn 0.03604000061750412 0.99799901247024536 0.051947001367807388
vn 0.017255999147892 0.99714100360870361 0.073573999106884
vn 0.023017000406980515 0.992838978767395 0.11722200363874435
vn 0.00024699998903088272 0.99829697608947754 0.058336000889539719
vn -0.0015300000086426735 0.99969202280044556 0.024764999747276306
vn 0.00024699998903088272 0.99829697608947754 0.058336000889539719
vn 0.11646199971437454 0.9930649995803833 0.016042999923229218
vn 0.055142000317573547 0.99759697914123535 0.041953999549150467
vn 0.1095770001411438 0.993960976600647 0.0058659999631345272
vn 0.16107599437236786 0.98692697286605835 0.0054959999397397041
vn 0.041861999779939651 0.99903500080108643 0.013271999545395374
vn 0.056366000324487686 0.99834299087524414 0.011618000455200672
vn 0.029320999979972839 0.99946999549865723 0.014173000119626522
vn 0.030265999957919121 0.99886298179626465 0.036839000880718231
vn 0.029289999976754189 0.99947100877761841 0.014144999906420708
vn 0.10939399898052216 0.9857100248336792 0.12809500098228455
vn 0.13146999478340149 0.985588014125824 0.10645200312137604
vn -0.0088160000741481781 0.99879199266433716 0.048339001834392548
vn -0.0088170003145933151 0.99879199266433716 0.048339001834392548
vn 0.029991000890731812 0.99944102764129639 0.014775999821722508
f 1/1/1 2/2/2 3/3/3
f 4/4/4 2/2/2 5/5/5
f 4/4/4 6/6/6 2/2/2
f 7/7/7 5/5/5 8/8/8
f 7/7/7 9/9/9 5/5/5
f 4/4/4 5/5/5 9/9/9
f 10/10/10 8/8/8 11/11/11
f 10/10/10 7/7/7 8/8/8
f 8/8/8 5/5/5 12/12/12
f 5/5/5 2/2/2 13/13/13
f 2/2/2 14/14/14 15/15/15
f 2/2/2 1/1/1 14/14/14
f 2/2/2 15/15/15 13/13/13
f 14/14/14 16/16/16 15/15/15
f 14/14/14 17/17/17 16/16/16
f 11/11/11 12/12/12 18/18/18
f 13/13/13 12/12/12 5/5/5
f 19/19/19 18/18/18 20/20/20
f 19/19/19 11/11/11 18/18/18
f 13/13/13 21/21/21 12/12/12
f 8/8/8 12/12/12 11/11/11
f 15/15/15 22/22/22 13/13/13
f 10/10/10 11/11/11 23/23/23
f 24/24/24 2/2/2 6/6/6
f 24/24/24 25/25/25 2/2/2
f 25/25/25 3/3/3 2/2/2
f 12/12/12 26/26/26 18/18/18
f 27/27/27 28/28/28 16/16/16
f 29/29/29 16/16/16 30/30/30
f 29/29/29 27/27/27 16/16/16
f 29/29/29 31/31/31 27/27/27
f 16/16/16 32/32/32 22/22/22
f 16/16/16 33/33/33 32/32/32
f 22/22/22 21/21/21 13/13/13
f 21/21/21 26/26/26 12/12/12
f 22/22/22 34/34/34 21/21/21
f 22/22/22 35/35/35 34/34/34
f 15/15/15 16/16/16 22/22/22
f 21/21/21 36/36/36 26/26/26
f 21/21/21 37/37/37 36/36/36
f 32/32/32 35/35/35 22/22/22
f 34/34/34 37/37/37 21/21/21
f 33/33/33 16/16/16 28/28/28
f 38/38/38 26/26/26 36/36/36
f 38/38/38 39/39/39 26/26/26
f 38/38/38 40/40/40 39/39/39
f 17/17/17 30/30/30 16/16/16
f 41/41/41 18/18/18 26/26/26
f 41/41/41 42/42/42 18/18/18
f 43/43/43 23/23/23 44/44/44
f 44/44/44 11/11/11 19/19/19
f 44/44/44 23/23/23 11/11/11
f 42/42/42 20/20/20 18/18/18
f 41/41/41 26/26/26 39/39/39
f 40/40/40 38/38/38 45/45/45
