mtllib m21321.mtl
usemtl material0
v -379.252197265625 20.589908599853516 -896
v -366.26589965820312 17.514415740966797 -876.65643310546875
v -367.27554321289062 19.821672439575195 -896
v -384 18.543802261352539 -875.72344970703125
v -384 20.282743453979492 -890.72344970703125
v -384 20.591083526611328 -896
v -353.96035766601562 20.020904541015625 -896
v -334.35220336914062 18.194549560546875 -878.34405517578125
v -335.28231811523438 18.58885383605957 -896
v -320.2106319963932 16.245433807373047 -896
v -302.465576171875 13.260228157043457 -880.01092529296875
v -303.3087158203125 13.447538375854492 -896
v -286.46115112304688 12.450165748596191 -896
v -270.56427001953125 11.386096954345703 -881.68914794921875
v -271.31863403320312 11.607829093933106 -896
v -384 15.894685745239258 -843.71514892578125
v -364.59164428710938 15.367356300354004 -844.73828125
v -384 16.763471603393555 -856.94659423828125
v -384 16.300497055053711 -831.81262199580669
v -362.90203857421875 16.412321090698242 -812.8319091796875
v -332.6734619140625 16.984973907470703 -846.42938232421875
v -300.7772216796875 14.045244216918945 -848.1036376953125
v -268.8753662109375 12.277556419372559 -849.78228759765625
v -257.68902587890625 11.211319923400879 -896
v -384 17.086208343505859 -789.380859375
v -384 17.55815315246582 -811.7216796875
v -331.00726318359375 13.166746139526367 -814.50506591796875
v -299.1024169921875 12.017999649047852 -816.18597412109375
v -267.18426513671875 13.628179550170898 -817.8770751953125
v -329.326904296875 12.292498588562012 -782.5916748046875
v -361.22698974609375 14.430671691894531 -780.91436767578125
v -297.413330078125 12.953778266906738 -784.27923583984375
v -384 16.534704208374023 -779.718994140625
v -360.54736328125 14.002879142761231 -768
v -384 16.43248176574707 -776.0921630859375
v -380.64315795898438 15.889291763305664 -768
v -384 16.289613723754883 -771.0233154296875
v -265.50070190429688 13.41993522644043 -785.966064453125
v -256 13.595849990844727 -818.46759033203125
v -256 13.456398010253906 -796.52587890625
v -296.55767822265625 12.20808219909668 -768
v -313.11175489425659 11.906002998352051 -768
v -328.55477905273438 12.649744987487793 -768
v -346.87786865234375 13.850959777832031 -768
v -256 12.753567695617676 -830.30963099002838
v -256 11.869108200073242 -850.4608154296875
v -256 11.500348091125488 -864.09429931640625
v -256 10.960408210754395 -882.456787109375
v -281.66641235351562 12.389045715332031 -768
v -384 16.027141571044922 -768
v -264.55194091796875 13.480936050415039 -768
v -256 11.160635948181152 -896
v -256 11.144064903259277 -894.879150390625
v -256 13.454837799072266 -786.4678955078125
v -256 13.496467590332031 -773.42791748046875
v -256 13.513794898986816 -768
vt 0.036800999194383621 0.030671000480651855
vt 0.13961699604988098 0.17402100563049316
vt 0.12685400247573853 0.028147995471954346
vt 0.0065219998359680176 0.18480300903320313
vt 0.002512000035494566 0.071520984172821045
vt 0.0011810000287368894 0.031866014003753662
vt 0.22674800455570221 0.02442401647567749
vt 0.3785879909992218 0.1523439884185791
vt 0.36730098724365234 0.020071983337402344
vt 0.48174700140953064 0.016672015190124512
vt 0.62031900882720947 0.13264298439025879
vt 0.61029297113418579 0.012862980365753174
vt 0.735954999923706 0.0082319974899292
vt 0.85908901691436768 0.11158698797225952
vt 0.84973597526550293 0.0044069886207580566
vt 0.014599000103771687 0.42578798532485962
vt 0.16089700162410736 0.41354501247406006
vt 0.011343000456690788 0.32630401849746704
vt 0.01727600023150444 0.51514700055122375
vt 0.18335500359535217 0.65246400237083435
vt 0.40011900663375854 0.39145100116729736
vt 0.63999998569488525 0.370714008808136
vt 0.87933498620986938 0.35067301988601685
vt 0.95203202962875366 0.00093197822570800781
vt 0.029048999771475792 0.83377900719642639
vt 0.023365000262856483 0.66613399982452393
vt 0.42346900701522827 0.63199499249458313
vt 0.66245001554489136 0.61007401347160339
vt 0.89890098571777344 0.58992400765419006
vt 0.44456100463867188 0.87105000019073486
vt 0.20513400435447693 0.89185900241136551
vt 0.683551013469696 0.84962700307369232
vt 0.033844999969005585 0.90646199882030487
vt 0.21369199454784393 0.9886109996587038
vt 0.034809999167919159 0.93368099629879
vt 0.0622589997947216 0.99358200002461672
vt 0.036159001290798187 0.97172199934720993
vt 0.92242401838302612 0.82728399336338043
vt 0.9826970100402832 0.58311301469802856
vt 0.99032002687454224 0.74506500363349915
vt 0.69433397054672241 0.97165000066161156
vt 0.56991201639175415 0.97644999995827675
vt 0.453918993473053 0.98037000000476837
vt 0.31615999341011047 0.98509099986404181
vt 0.98017799854278564 0.49403101205825806
vt 0.9758179783821106 0.34243899583816528
vt 0.97257602214813232 0.24011200666427612
vt 0.968218982219696 0.10228097438812256
vt 0.806052029132843 0.96759900078177452
vt 0.037055999040603638 0.99448500014841557
vt 0.93467497825622559 0.96228199824690819
vt 0.96489500999450684 0.00066000223159790039
vt 0.96515399217605591 0.0090709924697875977
vt 0.99351900815963745 0.8204990029335022
vt 0.99717801809310913 0.91898500174283981
vt 0.99881899356842041 0.959697999060154
vn 0.046677000820636749 0.99390602111816406 0.099858000874519348
vn 0.019425999373197556 0.995235025882721 0.095550000667572021
vn 0.025746999308466911 0.99278897047042847 0.11707399785518646
vn 0.0630979984998703 0.992546021938324 0.10426799952983856
vn 0.048854999244213104 0.99360400438308716 0.10180100053548813
vn 0.00024699998903088272 0.99829697608947754 0.058336999267339706
vn 0.0064420001581311226 0.99537897109985352 0.095808997750282288
vn 0.068639002740383148 0.997044026851654 0.034520000219345093
vn 0.11376799643039703 0.99337500333786011 0.016191000118851662
vn 0.15586799383163452 0.987712025642395 0.011423000134527683
vn 0.10615099966526032 0.99428802728652954 -0.011129000224173069
vn 0.11313699930906296 0.99356299638748169 0.0056739998981356621
vn 0.058265998959541321 0.99825602769851685 0.0095009999349713326
vn 0.042881999164819717 0.99904102087020874 -0.008840000256896019
vn 0.0427590012550354 0.99899798631668091 0.013225000351667404
vn 0.02789900079369545 0.99951201677322388 0.014078999869525433
vn -0.0073319999501109123 0.99987602233886719 0.013929000124335289
vn 0.038049999624490738 0.99666398763656616 0.072209000587463379
vn 0.032166998833417892 0.998615026473999 -0.041639000177383423
vn 0.056768998503685 0.99822300672531128 0.018139999359846115
vn 0.042403999716043472 0.99747002124786377 0.057061001658439636
vn 0.062116000801324844 0.99791198968887329 0.017722999677062035
vn 0.0416719987988472 0.9984620213508606 -0.036557000130414963
vn 0.029746999964118004 0.99945098161697388 0.014557000249624252
vn 0.08559600263834 0.99515300989151 0.048411000519990921
vn 0.053210001438856125 0.99839800596237183 -0.019245000556111336
vn 0.078620001673698425 0.99498897790908813 0.061779998242855072
vn -0.012974999845027924 0.99960798025131226 0.024802999570965767
vn -0.0031280000694096088 0.99991601705551147 -0.012578999623656273
vn 0.04353100061416626 0.99903899431228638 0.0051580001600086689
vn 0.0741180032491684 0.99658697843551636 0.036338001489639282
vn -0.021407999098300934 0.99967497587203979 0.013837000355124474
vn 0.094102002680301666 0.99467802047729492 0.041955001652240753
vn 0.050887998193502426 0.99824202060699463 0.030388999730348587
vn 0.09342300146818161 0.99523097276687622 0.028051000088453293
vn 0.081219002604484558 0.99582397937774658 0.041680000722408295
vn 0.0794999971985817 0.99588102102279663 0.043595999479293823
vn -0.014059999957680702 0.99987202882766724 0.0076310001313686371
vn 0.0011139999842271209 0.99943399429321289 -0.033619999885559082
vn 0.0016189999878406525 0.999987006187439 0.0049089998938143253
vn -0.015081999823451042 0.99880200624465942 0.046544000506401062
vn -0.0027540000155568123 0.99955999851226807 0.029535999521613121
vn 0.056458998471498489 0.9980279803276062 -0.027421999722719193
vn 0.052758999168872833 0.99851202964782715 -0.013798999600112438
vn 0.02233400009572506 0.99849200248718262 -0.050151001662015915
vn 0.029837999492883682 0.99893701076507568 -0.035142000764608383
vn 0.028265999630093575 0.99918502569198608 -0.028831999748945236
vn 0.028869999572634697 0.99956202507019043 -0.0065609999001026154
vn -0.025886999443173409 0.999085009098053 0.034035000950098038
vn 0.040876999497413635 0.995419979095459 0.086418002843856812
vn -0.032765001058578491 0.99946200847625732 -0.0016629999736323953
vn 0.029991000890731812 0.99944102764129639 0.014775999821722508
vn 0.029991000890731812 0.99944102764129639 0.014775999821722508
vn -0.0037509999237954617 0.9999920129776001 -0.0014619999565184116
vn -0.0038419999182224274 0.999987006187439 -0.0031920000910758972
vn -0.0038419999182224274 0.99998801946640015 -0.0031920000910758972
f 1/1/1 2/2/2 3/3/3
f 1/1/1 4/4/4 2/2/2
f 1/1/1 5/5/5 4/4/4
f 6/6/6 5/5/5 1/1/1
f 7/7/7 8/8/8 9/9/9
f 10/10/10 11/11/11 12/12/12
f 13/13/13 14/14/14 15/15/15
f 2/2/2 16/16/16 17/17/17
f 2/2/2 18/18/18 16/16/16
f 18/18/18 2/2/2 4/4/4
f 2/2/2 17/17/17 8/8/8
f 17/17/17 19/19/19 20/20/20
f 17/17/17 16/16/16 19/19/19
f 8/8/8 17/17/17 21/21/21
f 9/9/9 11/11/11 10/10/10
f 9/9/9 8/8/8 11/11/11
f 12/12/12 14/14/14 13/13/13
f 12/12/12 11/11/11 14/14/14
f 8/8/8 22/22/22 11/11/11
f 7/7/7 2/2/2 8/8/8
f 7/7/7 3/3/3 2/2/2
f 11/11/11 23/23/23 14/14/14
f 24/24/24 15/15/15 14/14/14
f 25/25/25 20/20/20 26/26/26
f 21/21/21 20/20/20 27/27/27
f 26/26/26 20/20/20 19/19/19
f 27/27/27 28/28/28 22/22/22
f 27/27/27 22/22/22 21/21/21
f 22/22/22 23/23/23 11/11/11
f 22/22/22 29/29/29 23/23/23
f 8/8/8 21/21/21 22/22/22
f 27/27/27 20/20/20 30/30/30
f 30/30/30 20/20/20 31/31/31
f 27/27/27 30/30/30 28/28/28
f 28/28/28 30/30/30 32/32/32
f 33/33/33 34/34/34 31/31/31
f 33/33/33 35/35/35 34/34/34
f 35/35/35 36/36/36 34/34/34
f 35/35/35 37/37/37 36/36/36
f 29/29/29 32/32/32 38/38/38
f 32/32/32 29/29/29 28/28/28
f 39/39/39 38/38/38 40/40/40
f 39/39/39 29/29/29 38/38/38
f 30/30/30 41/41/41 32/32/32
f 30/30/30 42/42/42 41/41/41
f 22/22/22 28/28/28 29/29/29
f 31/31/31 43/43/43 30/30/30
f 31/31/31 44/44/44 43/43/43
f 45/45/45 23/23/23 29/29/29
f 45/45/45 46/46/46 23/23/23
f 33/33/33 20/20/20 25/25/25
f 33/33/33 31/31/31 20/20/20
f 20/20/20 21/21/21 17/17/17
f 47/47/47 14/14/14 23/23/23
f 47/47/47 48/48/48 14/14/14
f 32/32/32 49/49/49 38/38/38
f 32/32/32 41/41/41 49/49/49
f 50/50/50 36/36/36 37/37/37
f 42/42/42 30/30/30 43/43/43
f 44/44/44 31/31/31 34/34/34
f 51/51/51 38/38/38 49/49/49
f 47/47/47 23/23/23 46/46/46
f 45/45/45 29/29/29 39/39/39
f 52/52/52 24/24/24 53/53/53
f 53/53/53 14/14/14 48/48/48
f 53/53/53 24/24/24 14/14/14
f 51/51/51 54/54/54 38/38/38
f 51/51/51 55/55/55 54/54/54
f 55/55/55 51/51/51 56/56/56
f 40/40/40 38/38/38 54/54/54
