mtllib m21332.mtl
usemtl material0
v -256 15.087254524230957 -978.46856689453125
v -256 15.935501098632813 -965.43463087081909
v -243.68902587890625 15.227414131164551 -979.11920166015625
v -256 11.18839168548584 -897.87738037109375
v -240.3404541015625 10.975817680358887 -915.282958984375
v -256 11.419858932495117 -914.45751953125
v -256 12.424013137817383 -931.6578369140625
v -242.0157470703125 12.891809463500977 -947.20025634765625
v -256 14.678110122680664 -946.46795654296875
v -228.74189758300781 17.534206390380859 -1024
v -211.77682495117188 15.595803260803223 -980.8056640625
v -199.85978698730469 17.884922027587891 -1024
v -256 17.290851593017578 -1024
v -246.0474853515625 17.378705978393555 -1024
v -256 16.5213565826416 -1008.1004638671875
v -227.29507446289063 11.018074035644531 -896
v -208.42533874511719 11.955522537231445 -916.97174072265625
v -239.32408142089844 10.660231590270996 -896
v -210.10298156738281 13.382755279541016 -948.88720703125
v -256 11.160635948181152 -896
v -179.86611938476563 15.656767845153809 -982.4910888671875
v -196.89918518066406 12.096137046813965 -896
v -176.51106262207031 12.756220817565918 -918.65985107421875
v -207.31880187988281 11.838513374328613 -896
v -178.18074035644531 15.821604728698731 -950.5814208984375
v -147.95610046386719 15.572902679443359 -984.1759033203125
v -175.30917358398438 13.875443458557129 -896
v -144.59187316894531 14.562945365905762 -920.3516845703125
v -166.50140380859375 14.395585060119629 -896
v -146.27780151367188 14.285131454467773 -952.26086378097534
v -163.59486389160156 17.768726348876953 -1024
v -182.04623413085938 17.868860244750977 -1024
v -128 14.521335601806641 -953.22692918777466
v -128 14.636825561523438 -938.7930908203125
v -128 15.086773872375488 -921.22967529296875
v -136.10848999023438 13.506878852844238 -896
v -128 14.221002578735352 -905.01116943359375
v -143.31272888183594 13.299781799316406 -896
v -128 16.000850677490234 -985.23126220703125
v -128 15.477323532104492 -972.57421875
v -136.96650695800781 18.292692184448242 -1024
v -128 14.016521453857422 -896
v -128 17.420469284057617 -1007.6576538085938
v -128 18.454957962036133 -1024
vt 0.65910297632217407 0.027819991111755371
vt 0.56154501438140869 0.022747993469238281
vt 0.65910297632217407 0.12003099918365479
vt 0.054869998246431351 0.0022349953651428223
vt 0.1799589991569519 0.12478899955749512
vt 0.17877799272537231 0.007463991641998291
vt 0.30753499269485474 0.012726008892059326
vt 0.41941699385643005 0.12202799320220947
vt 0.41951701045036316 0.016444981098175049
vt 0.9900130033493042 0.24640500545501709
vt 0.66139501333236694 0.35904800891876221
vt 0.98070299625396729 0.46223598718643188
vt 0.9995570182800293 0.045979022979736328
vt 0.99562400579452515 0.12031501531600952
vt 0.88067102432250977 0.039637982845306396
vt 0.031870000064373016 0.21638298034667969
vt 0.18287700414657593 0.3639180064201355
vt 0.035525001585483551 0.12630897760391235
vt 0.42177799344062805 0.3610609769821167
vt 0.040839999914169312 0.0016430020332336426
vt 0.66352397203445435 0.59803900122642517
vt 0.022409999743103981 0.44320100545883179
vt 0.1850769966840744 0.60301101207733154
vt 0.025815000757575035 0.36579298973083496
vt 0.42454499006271362 0.600829005241394
vt 0.66631299257278442 0.83701799809932709
vt 0.015166999772191048 0.60506299138069153
vt 0.18776799738407135 0.84244300425052643
vt 0.012373000383377075 0.67099401354789734
vt 0.4271090030670166 0.84003099799156189
vt 0.96914798021316528 0.73233500123023987
vt 0.97483497858047485 0.59535300731658936
vt 0.42893600463867188 0.97692500054836273
vt 0.3204529881477356 0.97212900035083294
vt 0.18915799260139465 0.96676500141620636
vt 0.002899999963119626 0.89797399938106537
vt 0.067796997725963593 0.96151100099086761
vt 0.0049609998241066933 0.84446300566196442
vt 0.66836899518966675 0.98650300037115812
vt 0.57369899749755859 0.98272199928760529
vt 0.96124202013015747 0.93137600272893906
vt 0.00044299999717622995 0.95868900045752525
vt 0.83629697561264038 0.99337300006300211
vt 0.95866799354553223 0.99835699994582683
vn -0.01192300021648407 0.99987697601318359 -0.010212999768555164
vn 0.096364997327327728 0.99472302198410034 0.035222001373767853
vn 0.0081630004569888115 0.999055027961731 0.042688000947237015
vn 0.029776999726891518 0.99945002794265747 0.01458400022238493
vn 0.0027459999546408653 0.99934899806976318 0.035976998507976532
vn 0.0301900003105402 0.99891799688339233 0.035385001450777054
vn 0.055351000279188156 0.99527597427368164 0.079758003354072571
vn 0.047720998525619507 0.99598699808120728 0.07570900022983551
vn 0.13154600560665131 0.98535799980163574 0.10846599936485291
vn -0.010176000185310841 0.99875599145889282 0.048817001283168793
vn -0.0048210001550614834 0.99816101789474487 0.060424000024795532
vn -0.004497000016272068 0.998652994632721 0.051683999598026276
vn -0.0088170003145933151 0.99879199266433716 0.048339001834392548
vn -0.0088929999619722366 0.998790979385376 0.0483429990708828
vn -0.0088170003145933151 0.99879199266433716 0.048339001834392548
vn -0.032744999974966049 0.999347984790802 0.015208999626338482
vn -0.033762000501155853 0.99883002042770386 0.034616000950336456
vn -0.00087099999655038118 0.99986499547958374 0.016410000622272491
vn -0.035698000341653824 0.99803900718688965 0.051426000893116
vn 0.029991000890731812 0.99944102764129639 0.014775999821722508
vn -0.0071669998578727245 0.99940598011016846 0.033720999956130981
vn -0.040047001093626022 0.99917399883270264 -0.0069260001182556152
vn -0.033631999045610428 0.99925702810287476 0.018842000514268875
vn -0.032604001462459564 0.99944198131561279 0.007296999916434288
vn -0.011016000062227249 0.9989209771156311 0.045113999396562576
vn -0.002773999935016036 0.99903202056884766 0.043891001492738724
vn -0.070060998201370239 0.996504008769989 -0.045504000037908554
vn -0.028653999790549278 0.99955600500106812 0.0081110000610351562
vn -0.030618000775575638 0.9993169903755188 -0.02067900076508522
vn 0.0049950000829994678 0.999547004699707 0.029691999778151512
vn -0.0041330000385642052 0.99838399887084961 0.056671999394893646
vn 0.0030839999672025442 0.99858701229095459 0.053054999560117722
vn -0.011775000020861626 0.99969601631164551 0.021650999784469604
vn -0.017907999455928802 0.99976599216461182 -0.0121069997549057
vn -0.03089199960231781 0.99944400787353516 0.012516000308096409
vn -0.037762999534606934 0.99826699495315552 0.045131001621484756
vn -0.036633998155593872 0.99826300144195557 0.046147000044584274
vn 0.0079549998044967651 0.99864697456359863 0.051383998245000839
vn -0.018627999350428581 0.99844098091125488 0.052620001137256622
vn -0.0171549990773201 0.9989200234413147 0.043191000819206238
vn -0.018711000680923462 0.99783897399902344 0.062983997166156769
vn -0.062712997198104858 0.99777501821517944 0.022640999406576157
vn -0.018058000132441521 0.99783998727798462 0.063164003193378448
vn -0.018056999891996384 0.99783998727798462 0.063164003193378448
f 1/1/1 2/2/2 3/3/3
f 4/4/4 5/5/5 6/6/6
f 7/7/7 8/8/8 9/9/9
f 10/10/10 11/11/11 12/12/12
f 13/13/13 3/3/3 14/14/14
f 13/13/13 15/15/15 3/3/3
f 15/15/15 1/1/1 3/3/3
f 9/9/9 3/3/3 2/2/2
f 9/9/9 8/8/8 3/3/3
f 7/7/7 5/5/5 8/8/8
f 7/7/7 6/6/6 5/5/5
f 3/3/3 8/8/8 11/11/11
f 5/5/5 16/16/16 17/17/17
f 5/5/5 18/18/18 16/16/16
f 19/19/19 8/8/8 5/5/5
f 4/4/4 18/18/18 5/5/5
f 4/4/4 20/20/20 18/18/18
f 5/5/5 17/17/17 19/19/19
f 11/11/11 19/19/19 21/21/21
f 17/17/17 22/22/22 23/23/23
f 17/17/17 24/24/24 22/22/22
f 25/25/25 19/19/19 17/17/17
f 16/16/16 24/24/24 17/17/17
f 8/8/8 19/19/19 11/11/11
f 10/10/10 3/3/3 11/11/11
f 10/10/10 14/14/14 3/3/3
f 19/19/19 25/25/25 21/21/21
f 25/25/25 26/26/26 21/21/21
f 22/22/22 27/27/27 23/23/23
f 27/27/27 28/28/28 23/23/23
f 27/27/27 29/29/29 28/28/28
f 25/25/25 23/23/23 30/30/30
f 17/17/17 23/23/23 25/25/25
f 31/31/31 21/21/21 26/26/26
f 31/31/31 32/32/32 21/21/21
f 12/12/12 21/21/21 32/32/32
f 12/12/12 11/11/11 21/21/21
f 23/23/23 28/28/28 30/30/30
f 28/28/28 33/33/33 30/30/30
f 28/28/28 34/34/34 33/33/33
f 35/35/35 36/36/36 37/37/37
f 35/35/35 28/28/28 36/36/36
f 28/28/28 38/38/38 36/36/36
f 29/29/29 38/38/38 28/28/28
f 39/39/39 30/30/30 40/40/40
f 39/39/39 26/26/26 30/30/30
f 31/31/31 26/26/26 41/41/41
f 33/33/33 40/40/40 30/30/30
f 35/35/35 34/34/34 28/28/28
f 42/42/42 37/37/37 36/36/36
f 39/39/39 41/41/41 26/26/26
f 39/39/39 43/43/43 41/41/41
f 43/43/43 44/44/44 41/41/41
f 25/25/25 30/30/30 26/26/26
