mtllib m21313.mtl
usemtl material0
v -128 10.165555000305176 -702.32293701171875
v -102.59818267822266 9.6160316467285156 -730.55743408203125
v -128 9.9314184188842773 -729.21710205078125
v -128 8.7101478576660156 -668.54302978515625
v -100.91453552246094 9.42788028717041 -698.64660596847534
v -128 10.142630577087402 -697.21868896484375
v -128 9.1651525497436523 -761.213623046875
v -128 9.93950080871582 -736.1058349609375
v -104.282470703125 9.6744899749755859 -762.46783447265625
v -128 10.232744216918945 -641.58514404296875
v -99.23529052734375 8.3380775451660156 -666.73248291015625
v -128 8.5983762741088867 -665.21435546875
v -123.28340148925781 10.316920280456543 -640
v -128 10.342384338378906 -640
v -128 9.23594856262207 -767.62994384765625
v -104.57424163818359 9.7294349670410156 -768
v -128 9.2400312423706055 -768
v -99.304489135742188 10.098431587219238 -768
v -70.680115222930908 11.192178726196289 -732.24835205078125
v -68.996985912323 10.898072242736816 -700.33709692955017
v -72.361282348632812 11.887343406677246 -764.16107177734375
v -92.89208984375 8.50558090209961 -640
v -97.823822021484375 8.3832473754882812 -640
v -67.321068048477173 9.1290826797485352 -668.42047119140625
v -72.563720703125 11.930933952331543 -768
v -68.907555103302 11.782187461853027 -768
v -38.775043487548828 10.109381675720215 -733.92950439453125
v -37.08380126953125 11.471006393432617 -702.0242919921875
v -40.456989288330078 10.643905639648438 -765.8416748046875
v -62.49804699420929 8.3876457214355469 -640
v -35.4005241394043 11.207850456237793 -670.1131591796875
v -65.825562000274658 8.17744255065918 -640
v -40.570819854736328 10.665770530700684 -768
v -8.5384674072265625 12.302944183349609 -767.5328369140625
v -33.816009521484375 10.188935279846191 -640
v -5.1705818176269531 12.04852294921875 -703.71154800057411
v -32.100864410400391 10.185376167297363 -640
v -3.4901885986328125 11.198461532592773 -671.79827880859375
v -6.8570327758789062 11.664419174194336 -735.620361328125
v -38.514862060546875 10.80098819732666 -768
v -8.5630683898925781 12.314458847045898 -768
v -8.1181755065917969 12.306428909301758 -768
v 0 11.45781421661377 -735.98175048828125
v 0 11.818316459655762 -709.45892286300659
v -1.8156852722167969 10.384243965148926 -640
v 0 11.128557205200195 -671.98236083984375
v 0 10.394762992858887 -642.0107421875
v -1.7062835693359375 10.381911277770996 -640
v 0 10.391964912414551 -641.896484375
v 0 11.750971794128418 -703.98358199931681
v 0 11.084617614746094 -675.677734375
v 0 12.094368934631348 -766.5579833984375
v 0 11.65521240234375 -743.24176025390625
v 0 12.121212005615234 -767.983154296875
v 0 12.121682167053223 -768
v 0 10.480891227722168 -640.0845947265625
v 0 10.485042572021484 -640
vt 0.47130098938941956 0.017189979553222656
vt 0.69109702110290527 0.20162999629974365
vt 0.67434900999069214 0.010192990303039551
vt 0.21601900458335877 0.026327013969421387
vt 0.45062398910522461 0.22270900011062622
vt 0.43276599049568176 0.018527984619140625
vt 0.91599702835083008 0.0018039941787719727
vt 0.726356029510498 0.0083940029144287109
vt 0.93156701326370239 0.18058198690414429
vt 0.012060999870300293 0.033450007438659668
vt 0.20995500683784485 0.24338901042938232
vt 0.19087600708007813 0.027222990989685059
vt 0.0013650000328198075 0.069490015506744385
vt 6.6000000515487045E-05 0.033882975578308105
vt 0.96444201469421387 0.00016498565673828125
vt 0.97325998544692993 0.17695802450180054
vt 0.96723401546478271 6.198883056640625E-05
vt 0.97465002536773682 0.2168390154838562
vt 0.71219700574874878 0.44244998693466187
vt 0.47177600860595703 0.46348202228546143
vt 0.95276600122451782 0.4217039942741394
vt 0.0097510004416108131 0.29811602830886841
vt 0.00849200040102005 0.26087099313735962
vt 0.23084400594234467 0.48397701978683472
vt 0.98169898986816406 0.41919201612472534
vt 0.98262500762939453 0.44681799411773682
vt 0.73276799917221069 0.6830579936504364
vt 0.49233800172805786 0.70405399799346924
vt 0.97331398725509644 0.66235199570655823
vt 0.017379000782966614 0.52737098932266235
vt 0.25196400284767151 0.72503200173377991
vt 0.016534000635147095 0.50248000025749207
vt 0.98958098888397217 0.660957008600235
vt 0.99432498216629028 0.90321499854326248
vt 0.02486100047826767 0.74433401226997375
vt 0.51313400268554688 0.944607999175787
vt 0.025317000225186348 0.75755399465560913
vt 0.27273601293563843 0.96552500128746033
vt 0.75375902652740479 0.9238789975643158
vt 0.99010497331619263 0.67651298642158508
vt 0.99784702062606812 0.90291299670934677
vt 0.99795597791671753 0.9062729999423027
vt 0.75810301303863525 0.97559100016951561
vt 0.55783998966217041 0.98222400061786175
vt 0.03300900012254715 0.98620500043034554
vt 0.27499198913574219 0.99183600023388863
vt 0.048645000904798508 0.99940899998182431
vt 0.0330360010266304 0.98703199997544289
vt 0.047782998532056808 0.99943800002802163
vt 0.51649999618530273 0.98364000022411346
vt 0.3028939962387085 0.99092500004917383
vt 0.98906797170639038 0.96793999895453453
vt 0.81300097703933716 0.97375999949872494
vt 0.99983000755310059 0.96758399903774261
vt 0.99993401765823364 0.96758199855685234
vt 0.034086998552083969 0.99991600000066683
vt 0.0334479995071888 0.99993800000083866
vn 0.023197000846266747 0.99972999095916748 0.0014130000490695238
vn -0.0189059991389513 0.9998059868812561 0.0056019998155534267
vn 0.0122079998254776 0.99991798400878906 -0.0039320001378655434
vn 0.015050999820232391 0.99918800592422485 0.037365000694990158
vn -0.01118099968880415 0.99966901540756226 0.0231890007853508
vn 0.027840999886393547 0.99922198057174683 0.027938000857830048
vn -0.022028999403119087 0.99970102310180664 -0.010596999898552895
vn 0.0041809999383986 0.99997097253799438 -0.006289999932050705
vn -0.041058000177145004 0.99914902448654175 0.0039809998124837875
vn 0.005386000033468008 0.99760198593139648 -0.069000996649265289
vn -0.0015630000270903111 0.99994301795959473 0.01056199986487627
vn 0.0080199996009469032 0.99977797269821167 -0.019471000880002975
vn 0.024155000224709511 0.99834597110748291 -0.052172999829053879
vn 0.005386000033468008 0.99760198593139648 -0.069000996649265289
vn -0.020886000245809555 0.9997209906578064 0.011029999703168869
vn -0.044566001743078232 0.99893099069595337 0.012272000312805176
vn -0.020886000245809555 0.9997209906578064 0.011029999703168869
vn -0.068755000829696655 0.997527003288269 0.014574999921023846
vn -0.0058860001154243946 0.99987399578094482 0.014767000451683998
vn -0.021553000435233116 0.999472975730896 0.024274999275803566
vn -0.011721000075340271 0.99982601404190063 0.014542000368237495
vn -0.014949999749660492 0.99985200166702271 0.0084840003401041031
vn 0.023812999948859215 0.99971199035644531 -0.0029470000881701708
vn -0.032715000212192535 0.99882197380065918 0.035845998674631119
vn -0.015699999406933784 0.99980300664901733 0.012179999612271786
vn 0.039707999676465988 0.999176025390625 0.00835500005632639
vn -0.014530999585986137 0.99988001585006714 -0.0052840001881122589
vn -0.028054999187588692 0.9995880126953125 -0.0060009998269379139
vn -0.0080639999359846115 0.99983501434326172 0.016304999589920044
vn -0.062904998660087585 0.997340977191925 0.036798998713493347
vn -0.033275000751018524 0.99913299083709717 0.025023000314831734
vn -0.026698000729084015 0.99903601408004761 0.034857001155614853
vn -0.011389999650418758 0.99987798929214478 0.010730000212788582
vn -0.014248999767005444 0.999629020690918 0.023226000368595123
vn -0.029237000271677971 0.99894797801971436 0.035339001566171646
vn 0.018951000645756721 0.99979299306869507 0.0074129998683929443
vn -0.00023099999816622585 0.99949902296066284 0.03163599967956543
vn 0.014960999600589275 0.99965298175811768 0.021665999665856361
vn -0.00648100022226572 0.99997800588607788 0.0016070000128820539
vn -0.054490000009536743 0.99823498725891113 0.023618999868631363
vn -0.017350999638438225 0.99952298402786255 0.025550000369548798
vn 0.021487999707460403 0.99940997362136841 0.026786999776959419
vn 0.030509000644087791 0.99950700998306274 0.0074720000848174095
vn 0.036102000623941422 0.99931997060775757 -0.0075480001978576183
vn 0.0078419996425509453 0.99965202808380127 0.025183999910950661
vn 0.020324999466538429 0.99977701902389526 0.0056839999742805958
vn 0.021309999749064445 0.999472975730896 0.024470999836921692
vn -0.00047900000936351717 0.99998801946640015 0.0048699998296797276
vn 0.0022599999792873859 0.99997097253799438 0.0073350002057850361
vn 0.058370999991893768 0.99813801050186157 0.017703000456094742
vn 0.049518998712301254 0.9986569881439209 0.015243999660015106
vn 0.02226799912750721 0.99957501888275146 0.018827000632882118
vn 0.02442999929189682 0.99948602914810181 0.020772999152541161
vn 0.022513000294566154 0.99946999549865723 0.023509999737143517
vn 0.022740999236702919 0.999351978302002 0.027891999110579491
vn -0.060260001569986343 0.996982991695404 -0.048928000032901764
vn -0.060260001569986343 0.996982991695404 -0.0489250011742115
f 1/1/1 2/2/2 3/3/3
f 4/4/4 5/5/5 6/6/6
f 7/7/7 8/8/8 9/9/9
f 10/10/10 11/11/11 12/12/12
f 10/10/10 13/13/13 11/11/11
f 10/10/10 14/14/14 13/13/13
f 7/7/7 9/9/9 15/15/15
f 15/15/15 16/16/16 17/17/17
f 15/15/15 9/9/9 16/16/16
f 16/16/16 9/9/9 18/18/18
f 6/6/6 2/2/2 1/1/1
f 6/6/6 5/5/5 2/2/2
f 2/2/2 5/5/5 19/19/19
f 5/5/5 11/11/11 20/20/20
f 12/12/12 5/5/5 4/4/4
f 12/12/12 11/11/11 5/5/5
f 21/21/21 9/9/9 2/2/2
f 3/3/3 9/9/9 8/8/8
f 3/3/3 2/2/2 9/9/9
f 22/22/22 11/11/11 23/23/23
f 22/22/22 24/24/24 11/11/11
f 23/23/23 11/11/11 13/13/13
f 18/18/18 21/21/21 25/25/25
f 18/18/18 9/9/9 21/21/21
f 25/25/25 21/21/21 26/26/26
f 5/5/5 20/20/20 19/19/19
f 20/20/20 27/27/27 19/19/19
f 24/24/24 28/28/28 20/20/20
f 11/11/11 24/24/24 20/20/20
f 21/21/21 19/19/19 29/29/29
f 2/2/2 19/19/19 21/21/21
f 24/24/24 30/30/30 31/31/31
f 24/24/24 32/32/32 30/30/30
f 22/22/22 32/32/32 24/24/24
f 29/29/29 26/26/26 21/21/21
f 29/29/29 33/33/33 26/26/26
f 28/28/28 27/27/27 20/20/20
f 34/34/34 29/29/29 27/27/27
f 35/35/35 31/31/31 30/30/30
f 36/36/36 28/28/28 31/31/31
f 37/37/37 31/31/31 35/35/35
f 37/37/37 38/38/38 31/31/31
f 28/28/28 39/39/39 27/27/27
f 31/31/31 28/28/28 24/24/24
f 33/33/33 29/29/29 40/40/40
f 27/27/27 29/29/29 19/19/19
f 41/41/41 29/29/29 34/34/34
f 41/41/41 40/40/40 29/29/29
f 41/41/41 34/34/34 42/42/42
f 27/27/27 39/39/39 34/34/34
f 28/28/28 36/36/36 39/39/39
f 36/36/36 43/43/43 39/39/39
f 36/36/36 44/44/44 43/43/43
f 37/37/37 45/45/45 38/38/38
f 45/45/45 46/46/46 38/38/38
f 45/45/45 47/47/47 46/46/46
f 47/47/47 48/48/48 49/49/49
f 47/47/47 45/45/45 48/48/48
f 50/50/50 38/38/38 51/51/51
f 50/50/50 36/36/36 38/38/38
f 31/31/31 38/38/38 36/36/36
f 52/52/52 39/39/39 53/53/53
f 52/52/52 34/34/34 39/39/39
f 52/52/52 54/54/54 34/34/34
f 55/55/55 34/34/34 54/54/54
f 55/55/55 42/42/42 34/34/34
f 44/44/44 36/36/36 50/50/50
f 51/51/51 38/38/38 46/46/46
f 53/53/53 39/39/39 43/43/43
f 49/49/49 48/48/48 56/56/56
f 56/56/56 48/48/48 57/57/57
