mtllib m2200.mtl
usemtl material0
v -2048 22.036186218261719 -1280
v -2048 23.048746109008789 -1237.087158203125
v -2009.3902587890625 24.41346549987793 -1280
v -2048 20.841493606567383 -1213.54736328125
v -2048 16.971469879150391 -1173.9095458984375
v -2045.8221435546875 16.790950775146484 -1171.94873046875
v -1948.6019287109375 24.291181564331055 -1280
v -1987.4949951171875 24.084245681762695 -1280
v -1985.347412109375 22.200658798217773 -1239.1600341796875
v -1923.4979250431061 23.745735168457031 -1280
v -1921.5317380428314 21.052206039428711 -1242.5260009765625
v -2048 22.992855072021484 -1235.854248046875
v -1887.8150634765625 22.525484085083008 -1280
v -1859.5091552734375 21.590234756469727 -1280
v -1857.7193603515625 19.175996780395508 -1245.88916015625
v -1918.1723630428314 18.79254150390625 -1178.6968994140625
v -2048 22.931570053100586 -1234.744384765625
v -1981.99365234375 18.623634338378906 -1175.3260498046875
v -1827.0274658203125 21.697093963623047 -1280
v -1792 23.219905853271484 -1280
v -1793.8858642578125 22.095380783081055 -1249.2705078125
v -1792 22.241561889648438 -1251.366455078125
v -1795.503662109375 23.081375122070312 -1280
v -1792 21.220426559448242 -1213.4716796875
v -1792 20.505542755126953 -1186.7723388671875
v -1792 22.180967330932617 -1250.199462890625
v -1792 22.137918472290039 -1249.3702392578125
v -1854.3536376953125 18.357717514038086 -1182.0655517578125
v -2048 16.822546005249023 -1171.8338623046875
v -2048 16.672624588012695 -1169.5283203125
v -2042.4625244140625 14.563774108886719 -1108.1199951171875
v -2039.0933837890625 14.540433883666992 -1044.2996826171875
v -1978.6240234375 18.726009368896484 -1111.5059814453125
v -2048 14.471979141235352 -1107.8272705078125
v -2048 14.403285980224609 -1052.3118896484375
v -2048 14.075407981872559 -1043.82763671875
v -2048 13.961179733276367 -1034.400634765625
v -2038.0184326171875 15.255367279052734 -1024
v -2048 14.273295402526856 -1024
v -1975.250732421875 19.653337478637695 -1047.6890869140625
v -1996.564697265625 18.643217086791992 -1024
v -1914.803955078125 18.593652725219727 -1114.8758544921875
v -1850.9765625 20.147563934326172 -1118.251953125
v -1792 20.485038757324219 -1185.365966796875
v -1792 20.52593994140625 -1183.802978515625
v -1847.608642578125 19.840538024902344 -1054.430419921875
v -1911.4259033203125 20.618618011474609 -1051.06298828125
v -1935.7752685546875 19.73211669921875 -1024
v -1974.002197265625 19.194604873657227 -1024
v -1909.998779296875 20.269905090332031 -1024
v -1846.001220703125 20.0418643951416 -1024
v -1874.98681640625 19.820474624633789 -1024
v -1792 21.732637405395508 -1057.3736572265625
v -1814.1971435546875 21.132097244262695 -1024
v -1792 21.774456024169922 -1048.6710205078125
v -1792 20.231651306152344 -1116.238037109375
v -1792 20.256753921508789 -1121.3668212890625
v -1792 21.014480590820312 -1024
vt 0.998852014541626 0.0014569759368896484
vt 0.83180397748947144 0.0016989707946777344
vt 0.998852014541626 0.15199702978134155
vt 0.73978400230407715 0.0016840100288391113
vt 0.58479398488998413 0.0016599893569946289
vt 0.5771300196647644 0.010133981704711914
vt 0.99879598617553711 0.38857501745224
vt 0.99878102540969849 0.23721498250961304
vt 0.839676022529602 0.24554997682571411
vt 0.99865102767944336 0.4862939715385437
vt 0.8524399995803833 0.49395501613616943
vt 0.82700097560882568 0.0016989707946777344
vt 0.99832397699356079 0.62523999810218811
vt 0.99807298183441162 0.73545598983764648
vt 0.86539900302886963 0.74234399199485779
vt 0.60400301218032837 0.50697198510169983
vt 0.82267498970031738 0.0016989707946777344
vt 0.59086698293685913 0.25860202312469482
vt 0.99845701456069946 0.861843004822731
vt 0.9987189769744873 0.99828599998727441
vt 0.87904798984527588 0.99099399987608194
vt 0.8872230052947998 0.99833500001113862
vt 0.9986950159072876 0.98464000038802624
vt 0.73926997184753418 0.99823799997102469
vt 0.635329008102417 0.99814499996136874
vt 0.88224601745605469 0.99854299996513873
vt 0.87901997566223145 0.99835699994582683
vt 0.61699497699737549 0.75534400343894958
vt 0.57669597864151 0.0016570091247558594
vt 0.56768798828125 0.0016710162162780762
vt 0.32859900593757629 0.023557007312774658
vt 0.080271996557712555 0.037401974201202393
vt 0.34250301122665405 0.27173399925231934
vt 0.32741698622703552 0.0020070075988769531
vt 0.1113710030913353 0.0024250149726867676
vt 0.078328996896743774 0.0025740265846252441
vt 0.041639998555183411 0.002655029296875
vt 0.0012570000253617764 0.042155027389526367
vt 0.0011480000102892518 0.0030090212821960449
vt 0.094594001770019531 0.28658801317214966
vt 0.0019869999960064888 0.20401501655578613
vt 0.35563400387763977 0.520099014043808
vt 0.36862701177597046 0.76857399940490723
vt 0.62985402345657349 0.99814200005494058
vt 0.62371701002120972 0.998107000021264
vt 0.12037400156259537 0.78161899745464325
vt 0.10717199742794037 0.53325200080871582
vt 0.0020989999175071716 0.44002902507781982
vt 0.0023769999388605356 0.29124897718429565
vt 0.0018469999777153134 0.53886300325393677
vt 0.0019499999471008778 0.78793300688266754
vt 0.0018990000244230032 0.6751289963722229
vt 0.1317099928855896 0.99815999995917082
vt 0.0018769999733194709 0.91167599707841873
vt 0.097842000424861908 0.99814699997659773
vt 0.36086401343345642 0.998081999947317
vt 0.38082298636436462 0.99807500001043081
vt 0.0017859999788925052 0.99806100002024323
vn -0.061438001692295074 0.9978330135345459 -0.023545000702142715
vn -0.0028389999642968178 0.99956899881362915 0.02923399955034256
vn -0.0053900000639259815 0.99962198734283447 0.026940999552607536
vn -0.023075999692082405 0.99491000175476074 0.098085001111030579
vn 0.0011889999732375145 0.99590802192687988 0.090365998446941376
vn -0.010467999614775181 0.99768102169036865 0.067253999412059784
vn 0.014464999549090862 0.99783897399902344 0.0640920028090477
vn 0.0051930001936852932 0.99893701076507568 0.045798998326063156
vn 0.01220299955457449 0.99862402677536011 0.05100800096988678
vn 0.027667000889778137 0.99714797735214233 0.070220999419689178
vn 0.023584000766277313 0.99850302934646606 0.049345001578330994
vn 0.015285000205039978 0.99861401319503784 0.050367999821901321
vn 0.03325200080871582 0.99705398082733154 0.0691170021891594
vn 0.015448000282049179 0.99744200706481934 0.069784998893737793
vn 0.00013899999612476677 0.99926501512527466 0.03833400085568428
vn 0.0063539999537169933 0.99976098537445068 0.020903000608086586
vn 0.005169999785721302 0.99776697158813477 0.066596001386642456
vn -0.013081000186502934 0.99920797348022461 0.037592001259326935
vn -0.033025998622179031 0.99848198890686035 0.044082000851631165
vn -0.03948500007390976 0.99863702058792114 0.034120999276638031
vn -0.034733999520540237 0.99887102842330933 0.032405000180006027
vn -0.034896999597549438 0.99865901470184326 0.038251999765634537
vn -0.041735999286174774 0.99854201078414917 0.034237001091241837
vn -0.043871000409126282 0.9986799955368042 0.026720000430941582
vn -0.036244001239538193 0.9991840124130249 0.017821000888943672
vn -0.019776999950408936 0.99845999479293823 0.051840998232364655
vn -0.020463999360799789 0.999023973941803 0.039140999317169189
vn -0.014720000326633453 0.999891996383667 -0.00011100000119768083
vn 0.018062999472022057 0.99751502275466919 0.068106003105640411
vn -0.007089999970048666 0.99907302856445312 0.042461998760700226
vn -0.035486999899148941 0.99925899505615234 0.014937000349164009
vn -0.065545998513698578 0.9978330135345459 -0.0057450002059340477
vn -0.036417998373508453 0.99931997060775757 -0.0058419997803866863
vn -0.015628000721335411 0.99971801042556763 0.017859999090433121
vn -0.025477999821305275 0.99961298704147339 0.0112119996920228
vn -0.050808999687433243 0.99839800596237183 0.024879999458789825
vn -0.0870710015296936 0.99599999189376831 -0.020059999078512192
vn -0.0893549993634224 0.99553799629211426 -0.030330000445246696
vn -0.097871996462345123 0.9947509765625 -0.029851999133825302
vn -0.040814001113176346 0.99916398525238037 -0.0022219999227672815
vn -0.066253997385501862 0.99765700101852417 -0.01707099936902523
vn -0.0033839999232441187 0.99990397691726685 -0.013451999984681606
vn -0.017478000372648239 0.99982500076293945 -0.0066550001502037048
vn -0.034366000443696976 0.999396026134491 -0.005106000229716301
vn -0.027577999979257584 0.99943798780441284 -0.019043000414967537
vn -0.014227000065147877 0.999879002571106 -0.0063009997829794884
vn -0.00046499999007210135 0.99997901916503906 -0.0064360001124441624
vn -0.015870999544858932 0.99970299005508423 0.018467999994754791
vn -0.019068999215960503 0.9996110200881958 0.020362000912427902
vn -0.0034479999449104071 0.999908983707428 0.013066000305116177
vn -0.021398000419139862 0.99975597858428955 -0.0054839998483657837
vn 0.0073730000294744968 0.9999459981918335 0.0072929998859763145
vn -0.034820001572370529 0.99927401542663574 -0.015483999624848366
vn -0.023710999637842178 0.99970799684524536 0.0046959999017417431
vn -0.0250410009175539 0.99967998266220093 0.0034980000928044319
vn -0.0094699999317526817 0.99995297193527222 -0.0021929999347776175
vn -0.0016090000281110406 0.99998801946640015 0.0045929998159408569
vn 0.005295999813824892 0.99951201677322388 0.030789999291300774
f 1/1/1 2/2/2 3/3/3
f 4/4/4 5/5/5 6/6/6
f 7/7/7 8/8/8 9/9/9
f 10/10/10 9/9/9 11/11/11
f 10/10/10 7/7/7 9/9/9
f 12/12/12 3/3/3 2/2/2
f 12/12/12 9/9/9 3/3/3
f 9/9/9 8/8/8 3/3/3
f 13/13/13 10/10/10 11/11/11
f 14/14/14 11/11/11 15/15/15
f 14/14/14 13/13/13 11/11/11
f 11/11/11 9/9/9 16/16/16
f 9/9/9 17/17/17 18/18/18
f 9/9/9 12/12/12 17/17/17
f 19/19/19 14/14/14 15/15/15
f 20/20/20 21/21/21 22/22/22
f 20/20/20 23/23/23 21/21/21
f 21/21/21 19/19/19 15/15/15
f 21/21/21 23/23/23 19/19/19
f 24/24/24 15/15/15 25/25/25
f 24/24/24 21/21/21 15/15/15
f 26/26/26 21/21/21 27/27/27
f 26/26/26 22/22/22 21/21/21
f 15/15/15 11/11/11 28/28/28
f 29/29/29 30/30/30 6/6/6
f 18/18/18 6/6/6 31/31/31
f 17/17/17 6/6/6 18/18/18
f 17/17/17 4/4/4 6/6/6
f 31/31/31 32/32/32 33/33/33
f 34/34/34 6/6/6 30/30/30
f 34/34/34 31/31/31 6/6/6
f 29/29/29 6/6/6 5/5/5
f 31/31/31 35/35/35 32/32/32
f 31/31/31 34/34/34 35/35/35
f 36/36/36 37/37/37 32/32/32
f 37/37/37 38/38/38 32/32/32
f 37/37/37 39/39/39 38/38/38
f 38/38/38 40/40/40 32/32/32
f 38/38/38 41/41/41 40/40/40
f 35/35/35 36/36/36 32/32/32
f 31/31/31 33/33/33 18/18/18
f 16/16/16 33/33/33 42/42/42
f 33/33/33 16/16/16 18/18/18
f 28/28/28 42/42/42 43/43/43
f 42/42/42 28/28/28 16/16/16
f 44/44/44 43/43/43 45/45/45
f 44/44/44 28/28/28 43/43/43
f 43/43/43 42/42/42 46/46/46
f 28/28/28 11/11/11 16/16/16
f 42/42/42 33/33/33 47/47/47
f 48/48/48 40/40/40 49/49/49
f 48/48/48 47/47/47 40/40/40
f 40/40/40 47/47/47 33/33/33
f 50/50/50 47/47/47 48/48/48
f 49/49/49 40/40/40 41/41/41
f 51/51/51 46/46/46 52/52/52
f 50/50/50 46/46/46 47/47/47
f 50/50/50 52/52/52 46/46/46
f 53/53/53 54/54/54 55/55/55
f 53/53/53 46/46/46 54/54/54
f 46/46/46 51/51/51 54/54/54
f 42/42/42 47/47/47 46/46/46
f 56/56/56 43/43/43 46/46/46
f 56/56/56 57/57/57 43/43/43
f 40/40/40 33/33/33 32/32/32
f 16/16/16 9/9/9 18/18/18
f 56/56/56 46/46/46 53/53/53
f 25/25/25 28/28/28 44/44/44
f 25/25/25 15/15/15 28/28/28
f 55/55/55 54/54/54 58/58/58
f 45/45/45 43/43/43 57/57/57
f 24/24/24 27/27/27 21/21/21
