mtllib m2211.mtl
usemtl material0
v -1219.8724365234375 29.803903579711914 -1280
v -1219.46435546875 29.77784538269043 -1279.632568359375
v -1219.4837646484375 29.76251220703125 -1280
v -1219.1337890625 29.777627944946289 -1280
v -1280 23.586666107177734 -1213.4774169921875
v -1280 23.531436920166016 -1212.4149169921875
v -1279.9443359375 23.531538009643555 -1212.4178466796875
v -1216.10693359375 27.168582916259766 -1215.802001953125
v -1280 27.003854751586914 -1276.4259033203125
v -1212.5311279296875 30.130039215087891 -1280
v -1158.3416748046875 32.758090972900391 -1280
v -1276.5699462890625 24.670516967773438 -1148.6016850471497
v -1280 24.606363296508789 -1151.6871339976788
v -1280 27.006181716918945 -1276.446044921875
v -1280 27.41510009765625 -1280
v -1152.2836909890175 27.680452346801758 -1219.17431640625
v -1212.744384765625 25.718250274658203 -1151.9759519994259
v -1280 23.003751754760742 -1084.4161376953125
v -1273.20849609375 22.946035385131836 -1084.774658203125
v -1280 24.603446960449219 -1144.7893071174622
v -1280 24.7003231048584 -1148.4206540584564
v -1209.388916015625 22.700336456298828 -1088.14404296875
v -1148.9259030818939 25.191564559936523 -1155.3442380428314
v -1206.033935546875 19.576725006103516 -1024.311767578125
v -1270.0155029296875 19.689918518066406 -1024
v -1280 20.124485015869141 -1030.073486328125
v -1273.2528076171875 19.726482391357422 -1024
v -1280 20.255876541137695 -1032.5533447265625
v -1280 19.924501419067383 -1024
v -1206.017578125 19.558591842651367 -1024
v -1206.314453125 19.566598892211914 -1024
v -1211.937744140625 19.572036743164062 -1024
v -1142.2095947265625 20.356658935546875 -1027.6849365234375
v -1145.5252690315247 20.110326766967773 -1024
v -1145.57275390625 21.67707633972168 -1091.510498046875
v -1027.4783935546875 31.587432861328125 -1280
v -1084.7108154296875 32.927471160888672 -1280
v -1024.6439208984375 27.248456954956055 -1225.9132080078125
v -1091.4703369140625 33.036163330078125 -1280
v -1152.2792969942093 32.769332885742188 -1280
v -1088.46142578125 27.981161117553711 -1222.5457763671875
v -1085.1158447265625 22.833629608154297 -1158.7056879997253
v -1024 25.713689804077148 -1213.576416015625
v -1024 19.453767776489258 -1161.921142578125
v -1155.4705810546875 32.768398284912109 -1280
v -1081.75048828125 22.001224517822266 -1094.8819580078125
v -1024 27.291839599609375 -1226.62890625
v -1024 31.515823364257812 -1280
v -1024 27.224418640136719 -1225.9471435546875
v -1024 16.832738876342773 -1103.6727294921875
v -1024 16.508945465087891 -1091.5126953125
v -1078.3953857421875 18.935718536376953 -1031.0499267578125
v -1024 16.785184860229492 -1097.913330078125
v -1024 15.601483345031738 -1033.910888671875
v -1084.73876953125 18.471487045288086 -1024
v -1142.0167236328125 20.019199371337891 -1024
v -1078.025390625 18.468250274658203 -1024
v -1075.6260986328125 18.658164978027344 -1024
v -1024 15.584866523742676 -1032.8017578125
v -1024 15.452995300292969 -1024
vt 0.0092249996960163116 0.73740598559379578
vt 0.01066800020635128 0.735929012298584
vt 0.0092730000615119934 0.73594900965690613
vt 0.0093200001865625381 0.73463898897171021
vt 0.2513200044631958 0.97244299948215485
vt 0.25530201196670532 0.97260800004005432
vt 0.25530201196670532 0.97240200079977512
vt 0.25094699859619141 0.73184800148010254
vt 0.014786000363528729 0.96367200091481209
vt 0.010200000368058682 0.70982399582862854
vt 0.017024999484419823 0.50621199607849121
vt 0.4953010082244873 0.967994000762701
vt 0.483254998922348 0.98049799911677837
vt 0.014716999605298042 0.96367499977350235
vt 0.0013139999937266111 0.96304599940776825
vt 0.24694100022315979 0.49176400899887085
vt 0.491115003824234 0.72795999050140381
vt 0.73575800657272339 0.98955199960619211
vt 0.735414981842041 0.96398499980568886
vt 0.50910502672195435 0.9814010001718998
vt 0.49549999833106995 0.98097500018775463
vt 0.731410026550293 0.72403600811958313
vt 0.48718300461769104 0.48783200979232788
vt 0.97183001041412354 0.72013801336288452
vt 0.96432697772979736 0.9603549987077713
vt 0.940064013004303 0.9968620000872761
vt 0.96383100748062134 0.972478000447154
vt 0.9307439923286438 0.99653099989518523
vt 0.96286100149154663 0.99772599991410971
vt 0.97302097082138062 0.72013100981712341
vt 0.97297102212905884 0.72124400734901428
vt 0.97209501266479492 0.74231898784637451
vt 0.967831015586853 0.48009800910949707
vt 0.98125898838043213 0.49308902025222778
vt 0.72766202688217163 0.48397600650787354
vt 0.034929998219013214 0.01524198055267334
vt 0.026951000094413757 0.22988897562026978
vt 0.23877599835395813 0.011822998523712158
vt 0.025926999747753143 0.255266010761261
vt 0.017836000770330429 0.48348599672317505
vt 0.24283699691295624 0.25174200534820557
vt 0.4836919903755188 0.24755799770355225
vt 0.28537899255752563 0.011017978191375732
vt 0.48060598969459534 0.017261981964111328
vt 0.017376000061631203 0.4954339861869812
vt 0.72375601530075073 0.24400299787521362
vt 0.23619699478149414 0.0093219876289367676
vt 0.035493999719619751 0.0022739768028259277
vt 0.23871399462223053 0.0093209743499755859
vt 0.6993439793586731 0.025135993957519531
vt 0.74503499269485474 0.026844978332519531
vt 0.96413099765777588 0.2400130033493042
vt 0.7209630012512207 0.025991976261138916
vt 0.96142899990081787 0.03507697582244873
vt 0.98980599641799927 0.26483899354934692
vt 0.98174798488616943 0.47989398241043091
vt 0.99073898792266846 0.23966997861862183
vt 0.99099099636077881 0.2306320071220398
vt 0.96559697389602661 0.035265028476715088
vt 0.99868601560592651 0.036552011966705322
vn -0.0055260001681745052 0.99702799320220947 0.076847001910209656
vn -0.028025999665260315 0.999396026134491 0.02054700069129467
vn 0.033858999609947205 0.99848097562789917 -0.043455999344587326
vn -0.050533998757600784 0.99765998125076294 -0.046053998172283173
vn -0.042116999626159668 0.99764597415924072 0.054118998348712921
vn -0.00097699998877942562 0.99987202882766724 0.015949999913573265
vn -0.021731000393629074 0.99952501058578491 0.021864999085664749
vn -0.035712998360395432 0.99860197305679321 0.038972001522779465
vn -0.041207998991012573 0.9956669807434082 0.083365000784397125
vn -0.048480000346899033 0.99794900417327881 0.04179299995303154
vn -0.015531999990344048 0.99722200632095337 0.072848998010158539
vn -0.0050169997848570347 0.99998098611831665 0.00355600006878376
vn -0.00012599999899975956 0.99978697299957275 -0.020647000521421432
vn -0.03942200168967247 0.9926459789276123 0.11445699632167816
vn -0.039438001811504364 0.99267297983169556 0.11421699821949005
vn -0.0011950000189244747 0.9982450008392334 0.059211000800132751
vn -0.0070830001495778561 0.99953097105026245 0.029784999787807465
vn 0.010610000230371952 0.9991379976272583 0.040139999240636826
vn 0.0052729998715221882 0.9991070032119751 0.041930999606847763
vn 0.0099400002509355545 0.99959897994995117 0.026528000831604004
vn 0.00868299975991249 0.9999619722366333 -0.00011300000187475234
vn 0.0115130003541708 0.998760998249054 0.048413999378681183
vn 0.015483999624848366 0.99886101484298706 0.045141000300645828
vn 0.0031910000834614038 0.99887698888778687 0.047276999801397324
vn 0.006496999878436327 0.99856501817703247 0.053158998489379883
vn 0.016086999326944351 0.99873799085617065 0.04757700115442276
vn 0.015487000346183777 0.99871599674224854 0.0482419990003109
vn 0.011277999728918076 0.99853599071502686 0.05290599912405014
vn 0.029319999739527702 0.99902898073196411 0.032896000891923904
vn 0.0083020003512501717 0.998304009437561 0.057627998292446136
vn 0.0078999996185302734 0.99918597936630249 0.039562001824378967
vn 0.0020089999306946993 0.99858897924423218 0.053057000041007996
vn 0.0086340000852942467 0.9984620213508606 0.054761998355388641
vn 0.00025000001187436283 0.99775797128677368 0.066922999918460846
vn 0.0041129998862743378 0.999144971370697 0.041140999644994736
vn 0.021974999457597733 0.99664801359176636 0.078801997005939484
vn 0.017726000398397446 0.99623000621795654 0.084916003048419952
vn 0.03322099894285202 0.99462300539016724 0.098086997866630554
vn 0.005481999833136797 0.99616199731826782 0.087357997894287109
vn -0.0012460000580176711 0.99642902612686157 0.084425002336502075
vn 0.012117999605834484 0.99690598249435425 0.0776669979095459
vn 0.047765001654624939 0.9973980188369751 0.05399399995803833
vn 0.060823999345302582 0.990896999835968 0.12009900063276291
vn 0.05941300094127655 0.9947199821472168 0.083682999014854431
vn -0.0019890000112354755 0.99650901556015015 0.0834600031375885
vn 0.052654001861810684 0.9981759786605835 0.029520999640226364
vn 0.025601999834179878 0.9961860179901123 0.083419002592563629
vn 0.020518999546766281 0.99667298793792725 0.078879997134208679
vn 0.042837001383304596 0.99307698011398315 0.10937300324440002
vn 0.081639997661113739 0.99649900197982788 0.017997000366449356
vn 0.085079997777938843 0.99570298194885254 0.036577999591827393
vn 0.037195000797510147 0.99828898906707764 0.0451200008392334
vn 0.091228999197483063 0.995514988899231 0.025032000616192818
vn 0.061978001147508621 0.99795901775360107 0.015348999761044979
vn 0.019842000678181648 0.99631398916244507 0.0834600031375885
vn 0.026398999616503716 0.99560999870300293 0.08979400247335434
vn -0.040401998907327652 0.99685198068618774 0.068219996988773346
vn 0.0083020003512501717 0.99931401014328 0.036081999540328979
vn 0.061958000063896179 0.997967004776001 0.014952000230550766
vn 0.061958000063896179 0.997967004776001 0.014952000230550766
f 1/1/1 2/2/2 3/3/3
f 3/3/3 2/2/2 4/4/4
f 5/5/5 6/6/6 7/7/7
f 2/2/2 7/7/7 8/8/8
f 5/5/5 2/2/2 9/9/9
f 5/5/5 7/7/7 2/2/2
f 8/8/8 10/10/10 2/2/2
f 8/8/8 11/11/11 10/10/10
f 6/6/6 12/12/12 7/7/7
f 6/6/6 13/13/13 12/12/12
f 1/1/1 9/9/9 2/2/2
f 1/1/1 14/14/14 9/9/9
f 14/14/14 1/1/1 15/15/15
f 16/16/16 8/8/8 17/17/17
f 7/7/7 17/17/17 8/8/8
f 12/12/12 18/18/18 19/19/19
f 12/12/12 20/20/20 18/18/18
f 20/20/20 12/12/12 21/21/21
f 17/17/17 19/19/19 22/22/22
f 19/19/19 17/17/17 12/12/12
f 22/22/22 23/23/23 17/17/17
f 22/22/22 19/19/19 24/24/24
f 7/7/7 12/12/12 17/17/17
f 25/25/25 26/26/26 27/27/27
f 25/25/25 28/28/28 26/26/26
f 28/28/28 19/19/19 18/18/18
f 28/28/28 25/25/25 19/19/19
f 29/29/29 27/27/27 26/26/26
f 30/30/30 24/24/24 31/31/31
f 31/31/31 24/24/24 32/32/32
f 30/30/30 33/33/33 24/24/24
f 30/30/30 34/34/34 33/33/33
f 19/19/19 32/32/32 24/24/24
f 19/19/19 25/25/25 32/32/32
f 22/22/22 24/24/24 35/35/35
f 13/13/13 21/21/21 12/12/12
f 4/4/4 2/2/2 10/10/10
f 36/36/36 37/37/37 38/38/38
f 39/39/39 40/40/40 41/41/41
f 23/23/23 16/16/16 17/17/17
f 16/16/16 23/23/23 41/41/41
f 38/38/38 41/41/41 42/42/42
f 39/39/39 38/38/38 37/37/37
f 39/39/39 41/41/41 38/38/38
f 43/43/43 42/42/42 44/44/44
f 43/43/43 38/38/38 42/42/42
f 42/42/42 41/41/41 23/23/23
f 40/40/40 16/16/16 41/41/41
f 40/40/40 45/45/45 16/16/16
f 42/42/42 23/23/23 46/46/46
f 47/47/47 36/36/36 38/38/38
f 47/47/47 48/48/48 36/36/36
f 16/16/16 11/11/11 8/8/8
f 16/16/16 45/45/45 11/11/11
f 47/47/47 38/38/38 49/49/49
f 49/49/49 38/38/38 43/43/43
f 44/44/44 42/42/42 50/50/50
f 33/33/33 35/35/35 24/24/24
f 35/35/35 33/33/33 46/46/46
f 51/51/51 46/46/46 52/52/52
f 51/51/51 53/53/53 46/46/46
f 50/50/50 46/46/46 53/53/53
f 50/50/50 42/42/42 46/46/46
f 51/51/51 52/52/52 54/54/54
f 52/52/52 46/46/46 33/33/33
f 46/46/46 23/23/23 35/35/35
f 55/55/55 33/33/33 56/56/56
f 55/55/55 52/52/52 33/33/33
f 57/57/57 52/52/52 55/55/55
f 57/57/57 58/58/58 52/52/52
f 58/58/58 54/54/54 52/52/52
f 58/58/58 59/59/59 54/54/54
f 59/59/59 58/58/58 60/60/60
f 56/56/56 33/33/33 34/34/34
f 35/35/35 23/23/23 22/22/22
