mtllib m2212.mtl
usemtl material0
v -1536 40.530570983886719 -1518.9503173828125
v -1536 38.770549774169922 -1468.322998046875
v -1488.1751708984375 40.886447906494141 -1521.4771728515625
v -1475.10791015625 42.0311279296875 -1536
v -1488.9407958984375 41.118373870849609 -1536
v -1484.8035888671875 41.422080993652344 -1457.658447265625
v -1424.33349609375 45.461166381835938 -1524.8653564453125
v -1535.89794921875 40.809440612792969 -1536
v -1536 40.806915283203125 -1535.8865966796875
v -1536 40.810825347900391 -1536
v -1536 38.847064971923828 -1454.9454345703125
v -1536 36.177619934082031 -1390.93701171875
v -1536 24.653236389160156 -1333.20751953125
v -1481.470458984375 33.3341064453125 -1393.8063955307007
v -1536 37.39166259765625 -1400.7587890625
v -1421.0028076171875 36.883193969726562 -1461.01123046875
v -1478.1314697265625 26.578397750854492 -1329.959716796875
v -1417.6595458984375 31.103771209716797 -1397.1680908203125
v -1536 23.972255706787109 -1326.8944091796875
v -1475.494384765625 26.507534027099609 -1280
v -1536 23.950754165649414 -1321.213623046875
v -1490.1748046875 25.849330902099609 -1280
v -1536 23.955238342285156 -1322.3984375
v -1424.9207763671875 45.587284088134766 -1536
v -1360.9073486328125 48.614799499511719 -1536
v -1360.499267578125 48.337444305419922 -1528.2469482421875
v -1414.3148188591003 46.315952301025391 -1536
v -1296.9195556640625 46.198371887207031 -1536
v -1296.6890869140625 45.895233154296875 -1531.6077880859375
v -1353.523681640625 48.564010620117188 -1536
v -1292.7373046875 46.025772094726562 -1536
v -1293.351806640625 38.848484039306641 -1467.759521484375
v -1357.156494140625 42.491847991943359 -1464.4031982421875
v -1353.828369140625 33.369712829589844 -1400.547119140625
v -1290.010498046875 32.689186096191406 -1403.9149169921875
v -1280 38.416511535644531 -1468.4630126953125
v -1280 33.367050170898438 -1415.0405268669128
v -1350.45068359375 35.249595642089844 -1336.733642578125
v -1414.30908203125 26.938350677490234 -1333.3314208984375
v -1280 39.6953239440918 -1482.5987548828125
v -1280 45.055248260498047 -1532.486083984375
v -1286.635009765625 34.0666389465332 -1340.099365234375
v -1280 45.314582824707031 -1535.7799072265625
v -1280 45.331912994384766 -1536
v -1280 32.422309875488281 -1404.4425048828125
v -1280 31.858318328857422 -1394.9019775390625
v -1411.4851069450378 28.728006362915039 -1280
v -1462.2916259765625 26.580802917480469 -1280
v -1536 21.091243743896484 -1280
v -1401.4993901252747 30.041810989379883 -1280
v -1347.4727783203125 31.591272354125977 -1280
v -1340.709228515625 31.443302154541016 -1280
v -1283.494384765625 27.276271820068359 -1280
v -1280 33.3435173034668 -1340.4471435546875
v -1280 33.641361236572266 -1334.1611328125
v -1280 33.642997741699219 -1334.1265869140625
v -1280 27.41510009765625 -1280
vt 0.90050297975540161 0.0030360221862792969
vt 0.71079397201538086 0.0095369815826416016
vt 0.91614401340484619 0.18181300163269043
vt 0.97228401899337769 0.22898900508880615
vt 0.97043901681900024 0.17707502841949463
vt 0.67759799957275391 0.20291602611541748
vt 0.93722301721572876 0.42105698585510254
vt 0.96437400579452515 0.0012230277061462402
vt 0.9639359712600708 0.00085502862930297852
vt 0.96436101198196411 0.00084000825881958008
vt 0.66069698333740234 0.011310994625091553
vt 0.42063501477241516 0.019438028335571289
vt 0.2002130001783371 0.027961015701293945
vt 0.43699601292610168 0.22367197275161743
vt 0.45769700407981873 0.018168985843658447
vt 0.6964079737663269 0.44217997789382935
vt 0.19698099792003632 0.24431300163269043
vt 0.45688098669052124 0.46414399147033691
vt 0.17643700540065765 0.028856992721557617
vt 0.010522999800741673 0.26303499937057495
vt 0.15516899526119232 0.029752016067504883
vt 0.0081820003688335419 0.20802098512649536
vt 0.15960399806499481 0.029564976692199707
vt 0.97885000705718994 0.41744101047515869
vt 0.988988995552063 0.6570340096950531
vt 0.960004985332489 0.65974301099777222
vt 0.98023700714111328 0.45725297927856445
vt 0.9983069896697998 0.896807000041008
vt 0.9809340238571167 0.8984370008111
vt 0.990106999874115 0.68467900156974792
vt 0.99798500537872314 0.91256699711084366
vt 0.740913987159729 0.9203990027308464
vt 0.72043198347091675 0.68147298693656921
vt 0.47934401035308838 0.70275598764419556
vt 0.50054198503494263 0.941295001655817
vt 0.74451100826263428 0.97040200047194958
vt 0.54356002807617188 0.97736399993300438
vt 0.2408670037984848 0.72545498609542847
vt 0.21672399342060089 0.48298400640487671
vt 0.79846197366714478 0.96828500181436539
vt 0.98632699251174927 0.96090599894523621
vt 0.26364600658416748 0.96386700123548508
vt 0.99869900941848755 0.96044899895787239
vt 0.99952501058578491 0.96041899919509888
vt 0.50573700666427612 0.97774999961256981
vt 0.47001200914382935 0.9802509993314743
vt 0.017190000042319298 0.49967402219772339
vt 0.011625000275671482 0.3092079758644104
vt 0.00047500000800937414 0.035557985305786133
vt 0.019310999661684036 0.54131799936294556
vt 0.028533000499010086 0.745943009853363
vt 0.029609000310301781 0.77127000689506531
vt 0.037797998636960983 0.98607200011610985
vt 0.26606699824333191 0.98879299964755774
vt 0.24250499904155731 0.98972999956458807
vt 0.24240000545978546 0.989754999987781
vt 0.038460999727249146 0.99916000000666827
vn -0.0060729999095201492 0.99964797496795654 0.025839999318122864
vn -0.040070001035928726 0.99918997287750244 0.0037219999358057976
vn -0.043666999787092209 0.99898701906204224 0.010869000107049942
vn -0.069383002817630768 0.99745899438858032 0.016189999878406525
vn -0.035238001495599747 0.99922001361846924 0.01781499944627285
vn 0.008418000303208828 0.99795699119567871 0.063340000808238983
vn -0.045972999185323715 0.99743497371673584 0.054866999387741089
vn -0.0012120000319555402 0.9997749924659729 0.021157000213861465
vn -0.0019079999765381217 0.99978697299957275 0.02054700069129467
vn 0.013559999875724316 0.99931401014328 0.034455999732017517
vn -0.049642998725175858 0.99870502948760986 0.011106999590992928
vn 0.059801999479532242 0.98529499769210815 0.16005200147628784
vn -0.0157919991761446 0.9916679859161377 0.12784799933433533
vn 0.042020998895168304 0.99180197715759277 0.12067499756813049
vn 0.033241000026464462 0.994396984577179 0.10034599900245667
vn -0.0066100000403821468 0.993183970451355 0.11636800318956375
vn -0.017656000331044197 0.99862700700759888 0.049320001155138016
vn -0.019481999799609184 0.99673497676849365 0.078354001045227051
vn -0.04208499938249588 0.997668981552124 0.053725000470876694
vn -0.0245169997215271 0.99969601631164551 0.0027119999285787344
vn -0.060453999787569046 0.99794501066207886 0.02124599926173687
vn -0.058432001620531082 0.99811100959777832 0.018990000709891319
vn -0.044789999723434448 0.99898898601531982 0.0037809999193996191
vn -0.069638997316360474 0.9974600076675415 0.014971000142395496
vn -0.0188790000975132 0.99914699792861938 0.036736998707056046
vn -0.0015200000489130616 0.99754601716995239 0.069991998374462128
vn -0.049786001443862915 0.99825197458267212 0.031837999820709229
vn 0.041411999613046646 0.99691802263259888 0.066632002592086792
vn 0.047155000269412994 0.99497699737548828 0.08829999715089798
vn 0.032379001379013062 0.99777400493621826 0.058290001004934311
vn 0.0507269985973835 0.99587398767471313 0.075239002704620361
vn 0.043942999094724655 0.99384498596191406 0.10169500112533569
vn 0.0025879999157041311 0.99336200952529907 0.114997997879982
vn -0.0029410000424832106 0.99865901470184326 0.051676999777555466
vn 0.032010000199079514 0.99846601486206055 0.04517199844121933
vn 0.037039998918771744 0.99507200717926025 0.091972999274730682
vn 0.035760998725891113 0.99504202604293823 0.0928030014038086
vn -0.030510000884532928 0.99936002492904663 0.018668999895453453
vn -0.070431001484394073 0.99723201990127563 0.023831000551581383
vn 0.051235001534223557 0.99338299036026 0.1027899980545044
vn 0.054887998849153519 0.99423599243164062 0.092099003493785858
vn 0.050216998904943466 0.99860000610351562 0.016597000882029533
vn 0.05422699823975563 0.99544799327850342 0.07837899774312973
vn 0.054225999861955643 0.99544799327850342 0.078382000327110291
vn 0.03049200028181076 0.99676597118377686 0.074354000389575958
vn 0.086428999900817871 0.99624902009963989 -0.0041550002060830593
vn -0.08794499933719635 0.995710015296936 -0.028757000342011452
vn -0.015336999669671059 0.99985700845718384 -0.0070949997752904892
vn -0.10303100198507309 0.99229300022125244 0.068847998976707458
vn -0.10345699638128281 0.99463200569152832 -0.0017890000017359853
vn -0.002553999889642 0.99791598320007324 0.064482003450393677
vn 0.035362999886274338 0.99653202295303345 0.075317002832889557
vn 0.014495999552309513 0.99365699291229248 0.11151199787855148
vn 0.10636799782514572 0.9936479926109314 -0.036731000989675522
vn 0.10577899962663651 0.99327600002288818 -0.047056000679731369
vn -0.00054500001715496182 0.99745100736618042 0.0713530033826828
vn -0.039438001811504364 0.99267297983169556 0.11421900242567062
f 1/1/1 2/2/2 3/3/3
f 4/4/4 5/5/5 3/3/3
f 3/3/3 6/6/6 7/7/7
f 1/1/1 8/8/8 9/9/9
f 1/1/1 3/3/3 8/8/8
f 3/3/3 5/5/5 8/8/8
f 10/10/10 9/9/9 8/8/8
f 3/3/3 11/11/11 6/6/6
f 3/3/3 2/2/2 11/11/11
f 12/12/12 13/13/13 14/14/14
f 12/12/12 6/6/6 15/15/15
f 12/12/12 14/14/14 6/6/6
f 14/14/14 16/16/16 6/6/6
f 17/17/17 18/18/18 14/14/14
f 19/19/19 14/14/14 13/13/13
f 19/19/19 17/17/17 14/14/14
f 11/11/11 15/15/15 6/6/6
f 20/20/20 21/21/21 22/22/22
f 20/20/20 23/23/23 21/21/21
f 23/23/23 17/17/17 19/19/19
f 23/23/23 20/20/20 17/17/17
f 7/7/7 4/4/4 3/3/3
f 7/7/7 24/24/24 4/4/4
f 25/25/25 7/7/7 26/26/26
f 25/25/25 27/27/27 7/7/7
f 24/24/24 7/7/7 27/27/27
f 28/28/28 26/26/26 29/29/29
f 28/28/28 30/30/30 26/26/26
f 25/25/25 26/26/26 30/30/30
f 28/28/28 29/29/29 31/31/31
f 29/29/29 26/26/26 32/32/32
f 26/26/26 7/7/7 33/33/33
f 33/33/33 16/16/16 18/18/18
f 16/16/16 33/33/33 7/7/7
f 33/33/33 18/18/18 34/34/34
f 18/18/18 16/16/16 14/14/14
f 32/32/32 34/34/34 35/35/35
f 34/34/34 32/32/32 33/33/33
f 36/36/36 35/35/35 37/37/37
f 36/36/36 32/32/32 35/35/35
f 18/18/18 38/38/38 34/34/34
f 26/26/26 33/33/33 32/32/32
f 18/18/18 17/17/17 39/39/39
f 40/40/40 29/29/29 32/32/32
f 40/40/40 41/41/41 29/29/29
f 16/16/16 7/7/7 6/6/6
f 42/42/42 35/35/35 34/34/34
f 41/41/41 31/31/31 29/29/29
f 41/41/41 43/43/43 31/31/31
f 43/43/43 44/44/44 31/31/31
f 45/45/45 37/37/37 35/35/35
f 45/45/45 35/35/35 46/46/46
f 36/36/36 40/40/40 32/32/32
f 47/47/47 39/39/39 48/48/48
f 49/49/49 22/22/22 21/21/21
f 39/39/39 50/50/50 38/38/38
f 39/39/39 47/47/47 50/50/50
f 48/48/48 17/17/17 20/20/20
f 48/48/48 39/39/39 17/17/17
f 51/51/51 38/38/38 50/50/50
f 38/38/38 52/52/52 42/42/42
f 38/38/38 51/51/51 52/52/52
f 53/53/53 42/42/42 52/52/52
f 42/42/42 46/46/46 35/35/35
f 42/42/42 54/54/54 46/46/46
f 54/54/54 42/42/42 55/55/55
f 55/55/55 42/42/42 56/56/56
f 34/34/34 38/38/38 42/42/42
f 57/57/57 42/42/42 53/53/53
f 57/57/57 56/56/56 42/42/42
f 18/18/18 39/39/39 38/38/38
