mtllib m2312.mtl
usemtl material0
v -512 47.498409271240234 -1509.0535888671875
v -512 42.757122039794922 -1457.85791015625
v -463.64602661132812 45.232112884521484 -1511.598876953125
v -502.475830078125 49.600456237792969 -1536
v -464.92214965820312 47.649856567382812 -1536
v -512 49.075092315673828 -1525.414794921875
v -512 48.8748664855957 -1536
v -441.69009399414062 46.95318603515625 -1536
v -320.11325073242188 45.919742584228516 -1536
v -336.92877197265625 46.582801818847656 -1536
v -336.00616455078125 44.62762451171875 -1518.3372802734375
v -355.62393188476562 46.188804626464844 -1536
v -399.8153076171875 47.178230285644531 -1514.976806640625
v -460.29696655273438 41.014190673828125 -1447.761474609375
v -400.9205322265625 48.098564147949219 -1536
v -396.47494506835938 41.166889190673828 -1451.1324462890625
v -512 41.923980712890625 -1445.034423828125
v -332.65548706054688 40.779815673828125 -1454.5013427734375
v -268.83447265625 40.716728210449219 -1457.8714599609375
v -329.305908203125 36.711078643798828 -1390.6646728515625
v -393.1202392578125 38.1435432434082 -1387.2998046875
v -456.94271850585938 37.889286041259766 -1383.928466796875
v -512 41.3711051940918 -1433.4913330078125
v -272.19384765625 42.744258880615234 -1521.7003173828125
v -512 38.572467803955078 -1381.0234375
v -512 36.973461151123047 -1322.7347412109375
v -512 33.992481231689453 -1280
v -489.66525268554688 32.71246337890625 -1280
v -512 36.071567535400391 -1309.5819091796875
v -453.59466552734375 33.462905883789062 -1320.0906982421875
v -512 36.594161987304688 -1317.0174560546875
v -451.48654174804688 31.792200088500977 -1280
v -428.87652587890625 32.647682189941406 -1280
v -389.76122999191284 36.025714874267578 -1323.4708251953125
v -387.48535203933716 32.227291107177734 -1280
v -368.08642578125 33.564300537109375 -1280
v -325.91732788085938 40.734249114990234 -1326.859130859375
v -323.4732666015625 34.821479797363281 -1280
v -262.10403442382812 39.078903198242188 -1330.22314453125
v -307.29653930664062 34.295692443847656 -1280
v -265.45724487304688 42.380794525146484 -1394.056884765625
v -272.94110107421875 44.267261505126953 -1536
v -259.32723999023438 43.6240234375 -1536
v -256 40.954360961914062 -1458.550048828125
v -256 42.305339813232422 -1404.5684809684753
v -256 41.567440032958984 -1394.5533447265625
v -256 38.858272552490234 -1337.008056640625
v -256 43.234222412109375 -1522.5572509765625
v -256 41.55694580078125 -1472.1353759765625
v -256 38.570716857910156 -1330.543701171875
v -256 36.19635009765625 -1310.5625
v -259.48394775390625 32.876399993896484 -1280
v -256 32.564609527587891 -1280
v -256 43.692672729492188 -1535.2869873046875
v -256 43.718353271484375 -1536
vt 0.86207199096679688 0.00568997859954834
vt 0.66920900344848633 0.013269007205963135
vt 0.87793201208114624 0.18696999549865723
vt 0.96485400199890137 0.037460982799530029
vt 0.96972101926803589 0.17854398488998413
vt 0.92372900247573853 0.0032560229301452637
vt 0.96344000101089478 0.0016319751739501953
vt 0.97291499376297 0.26573902368545532
vt 0.98945397138595581 0.72255599498748779
vt 0.98755502700805664 0.65940999984741211
vt 0.92100197076797485 0.66516301035881042
vt 0.98531001806259155 0.58886799216270447
vt 0.90023797750473022 0.4259989857673645
vt 0.6384199857711792 0.20872700214385986
vt 0.97901499271392822 0.41878902912139893
vt 0.66015499830245972 0.44766402244567871
vt 0.62100398540496826 0.015115022659301758
vt 0.68155699968338013 0.68662399053573608
vt 0.70359998941421509 0.92552900314331055
vt 0.4423690140247345 0.70833998918533325
vt 0.42092001438140869 0.46934700012207031
vt 0.39915400743484497 0.23040997982025147
vt 0.5776519775390625 0.016759991645812988
vt 0.94205498695373535 0.904227003455162
vt 0.38054999709129333 0.024258971214294434
vt 0.16204099357128143 0.032217025756835938
vt 0.0013419999741017819 0.038375973701477051
vt 0.0040139998309314251 0.12248802185058594
vt 0.11258400231599808 0.034096002578735352
vt 0.15958000719547272 0.25207799673080444
vt 0.14054599404335022 0.033030986785888672
vt 0.0093609998002648354 0.26575297117233276
vt 0.012749999761581421 0.35062497854232788
vt 0.18183900415897369 0.49120402336120605
vt 0.01846499927341938 0.50591099262237549
vt 0.020968999713659286 0.577564001083374
vt 0.20321400463581085 0.730910986661911
vt 0.02623400092124939 0.74502599239349365
vt 0.22449399530887604 0.96993499994277954
vt 0.028148999437689781 0.805755004286766
vt 0.46380600333213806 0.94835200160741806
vt 0.99588698148727417 0.89929299801588058
vt 0.99765300750732422 0.95042600110173225
vt 0.70724999904632568 0.97365600056946278
vt 0.504718005657196 0.98217299953103065
vt 0.46685299277305603 0.98390400037169456
vt 0.2507379949092865 0.99197500012815
vt 0.94820898771286011 0.96482399851083755
vt 0.7589460015296936 0.971738999709487
vt 0.22646300494670868 0.99287599977105856
vt 0.15099799633026123 0.99616200011223555
vt 0.03369000181555748 0.98523799981921911
vt 0.033819999545812607 0.99836900003720075
vt 0.99598801136016846 0.96287700161337852
vt 0.99865800142288208 0.96267100051045418
vn 0.051541998982429504 0.99424797296524048 0.093887999653816223
vn 0.028092000633478165 0.99706697463989258 0.071194998919963837
vn 0.01546700019389391 0.99681597948074341 0.0782179981470108
vn 0.017616000026464462 0.99770599603652954 0.065369002521038055
vn 0.041124001145362854 0.99449402093887329 0.096386998891830444
vn 0.02186799980700016 0.99736499786376953 0.069177001714706421
vn -0.075949996709823608 0.9969329833984375 -0.018857000395655632
vn -0.012570000253617764 0.99817299842834473 0.059092998504638672
vn 0.0359870009124279 0.99381202459335327 0.10508300364017487
vn 0.0081059997901320457 0.9939429759979248 0.10960099846124649
vn 0.02678300067782402 0.9965050220489502 0.079117998480796814
vn 0.027344999834895134 0.99795198440551758 0.05783500149846077
vn 0.011611999943852425 0.997842013835907 0.064631998538970947
vn 0.007081999909132719 0.9981529712677002 0.060330998152494431
vn 0.0058410000056028366 0.99904000759124756 0.043428000062704086
vn 0.011667000129818916 0.99763298034667969 0.067769996821880341
vn 0.020521000027656555 0.998216986656189 0.056049000471830368
vn 0.010129000060260296 0.99827700853347778 0.05780399963259697
vn -0.020571000874042511 0.99965000152587891 0.016615999862551689
vn -0.0358319990336895 0.99935698509216309 0.0011080000549554825
vn 0.0072639998979866505 0.99897998571395874 0.044564999639987946
vn 0.012834999710321426 0.99846500158309937 0.053881999105215073
vn 0.018791999667882919 0.99860799312591553 0.049277998507022858
vn 0.0083100004121661186 0.99797701835632324 0.063031002879142761
vn 0.014503000304102898 0.999098002910614 0.039912998676300049
vn 0.046858999878168106 0.99726897478103638 0.057084999978542328
vn 0.057075999677181244 0.995913028717041 0.069995000958442688
vn 0.048268001526594162 0.99690300226211548 0.062088999897241592
vn 0.057075999677181244 0.995913028717041 0.069995000958442688
vn 0.010102000087499619 0.99847298860549927 0.054304998368024826
vn 0.056983999907970428 0.99605000019073486 0.068103998899459839
vn -0.00788000039756298 0.9990839958190918 0.042048998177051544
vn -0.024985000491142273 0.99816900491714478 0.055084999650716782
vn -0.036807999014854431 0.99833601713180542 0.044381000101566315
vn -0.030443999916315079 0.99560302495956421 0.08858799934387207
vn -0.057672001421451569 0.99330598115921021 0.10008600354194641
vn -0.03112499974668026 0.998615026473999 0.042417999356985092
vn 0.0031419999431818724 0.99214798212051392 0.12502700090408325
vn 0.058662001043558121 0.99474602937698364 0.083903998136520386
vn 0.031488999724388123 0.99193102121353149 0.12280599772930145
vn 0.00044400000479072332 0.99993401765823364 0.011512000113725662
vn 0.040665000677108765 0.99377501010894775 0.10371799767017365
vn -0.0081679997965693474 0.99850302934646606 0.0540819987654686
vn -0.017938999459147453 0.99978101253509521 0.01082099974155426
vn 0.0057230000384151936 0.99998199939727783 -0.0020290000829845667
vn 0.08867800235748291 0.99422597885131836 0.060414999723434448
vn 0.087369002401828766 0.99510198831558228 0.046243000775575638
vn -0.028392000123858452 0.99899601936340332 0.034651998430490494
vn -0.025599999353289604 0.99903100728988647 0.035813998430967331
vn 0.0868690013885498 0.99300998449325562 0.079906001687049866
vn 0.088519997894763947 0.98911499977111816 0.1175369992852211
vn 0.060116998851299286 0.99104201793670654 0.11925599724054337
vn 0.088518999516963959 0.98911499977111816 0.1175369992852211
vn -0.028320999816060066 0.9989510178565979 0.035978000611066818
vn -0.028320999816060066 0.9989510178565979 0.035978998988866806
f 1/1/1 2/2/2 3/3/3
f 4/4/4 3/3/3 5/5/5
f 4/4/4 1/1/1 3/3/3
f 4/4/4 6/6/6 1/1/1
f 6/6/6 4/4/4 7/7/7
f 5/5/5 3/3/3 8/8/8
f 9/9/9 10/10/10 11/11/11
f 10/10/10 12/12/12 11/11/11
f 13/13/13 3/3/3 14/14/14
f 8/8/8 13/13/13 15/15/15
f 8/8/8 3/3/3 13/13/13
f 13/13/13 14/14/14 16/16/16
f 17/17/17 3/3/3 2/2/2
f 17/17/17 14/14/14 3/3/3
f 11/11/11 16/16/16 18/18/18
f 16/16/16 11/11/11 13/13/13
f 19/19/19 18/18/18 20/20/20
f 14/14/14 21/21/21 16/16/16
f 12/12/12 13/13/13 11/11/11
f 12/12/12 15/15/15 13/13/13
f 17/17/17 22/22/22 14/14/14
f 17/17/17 23/23/23 22/22/22
f 18/18/18 24/24/24 11/11/11
f 16/16/16 20/20/20 18/18/18
f 25/25/25 26/26/26 22/22/22
f 27/27/27 28/28/28 29/29/29
f 29/29/29 30/30/30 31/31/31
f 29/29/29 28/28/28 30/30/30
f 26/26/26 30/30/30 22/22/22
f 26/26/26 31/31/31 30/30/30
f 22/22/22 30/30/30 21/21/21
f 32/32/32 30/30/30 28/28/28
f 23/23/23 25/25/25 22/22/22
f 33/33/33 30/30/30 32/32/32
f 33/33/33 34/34/34 30/30/30
f 33/33/33 35/35/35 34/34/34
f 21/21/21 34/34/34 20/20/20
f 36/36/36 34/34/34 35/35/35
f 36/36/36 37/37/37 34/34/34
f 34/34/34 37/37/37 20/20/20
f 38/38/38 39/39/39 37/37/37
f 38/38/38 40/40/40 39/39/39
f 38/38/38 37/37/37 36/36/36
f 16/16/16 21/21/21 20/20/20
f 30/30/30 34/34/34 21/21/21
f 14/14/14 22/22/22 21/21/21
f 37/37/37 41/41/41 20/20/20
f 9/9/9 24/24/24 42/42/42
f 9/9/9 11/11/11 24/24/24
f 42/42/42 24/24/24 43/43/43
f 20/20/20 41/41/41 19/19/19
f 41/41/41 44/44/44 19/19/19
f 41/41/41 45/45/45 44/44/44
f 39/39/39 46/46/46 41/41/41
f 39/39/39 47/47/47 46/46/46
f 37/37/37 39/39/39 41/41/41
f 48/48/48 19/19/19 49/49/49
f 48/48/48 24/24/24 19/19/19
f 18/18/18 19/19/19 24/24/24
f 50/50/50 39/39/39 51/51/51
f 51/51/51 52/52/52 53/53/53
f 51/51/51 39/39/39 52/52/52
f 40/40/40 52/52/52 39/39/39
f 48/48/48 43/43/43 24/24/24
f 48/48/48 54/54/54 43/43/43
f 54/54/54 55/55/55 43/43/43
f 49/49/49 19/19/19 44/44/44
f 45/45/45 41/41/41 46/46/46
f 50/50/50 47/47/47 39/39/39
