mtllib m2322.mtl
usemtl material0
v -1024 69.7598648071289 -1930.0921630859375
v -1024 69.452651977539062 -1902.236572265625
v -997.68121337890625 71.219696044921875 -1931.487548828125
v -1024 65.424156188964844 -1834.6748046875
v -994.330322265625 67.244575500488281 -1867.6500244140625
v -1024 67.2051010131836 -1866.0831298828125
v -933.8519287109375 72.822914123535156 -1934.8643798828125
v -1024 62.003810882568359 -1802.0643310546875
v -990.99285888671875 60.363525390625 -1803.80126953125
v -1024 69.385215759277344 -2048
v -1003.6326293945313 70.518363952636719 -2048
v -1024 69.436775207519531 -2031.7742919921875
v -1001.6116943359375 59.161075592041016 -1792
v -990.3717041015625 59.977497100830078 -1792
v -927.15106201171875 64.709854125976562 -1807.18896484375
v -940.818115234375 63.255924224853516 -1792
v -1024 60.454975128173828 -1792
v -1024 61.001926422119141 -1795.5540771484375
v -930.500732421875 68.934219360351562 -1871.0272216796875
v -978.1256103515625 71.1654052734375 -2048
v -902.48309278488159 69.516464233398438 -2048
v -875.6741943359375 64.502067565917969 -2048
v -870.08526611328125 60.9710807800293 -1938.187255859375
v -847.9036865234375 61.707416534423828 -2048
v -806.29327392578125 54.641864776611328 -1941.5322265625
v -866.72406005859375 59.256172180175781 -1874.3590087890625
v -768 67.5640640258789 -2048
v -776.71478271484375 67.952484130859375 -2048
v -768 63.957378387451172 -2021.7509765625
v -768 53.212249755859375 -1943.5491943359375
v -768 53.462882995605469 -1907.070556640625
v -802.931640625 53.009475708007812 -1877.7044677734375
v -863.32403564453125 65.867057800292969 -1810.56396484375
v -799.57672119140625 49.957942962646484 -1813.87109375
v -862.34722900390625 65.205718994140625 -1792
v -910.271240234375 64.429283142089844 -1792
v -926.35302734375 63.926319122314453 -1792
v -819.249267578125 54.399810791015625 -1792
v -798.40948486328125 52.544345855712891 -1792
v -768 51.323867797851562 -1848.9664306640625
v -768 52.770832061767578 -1879.54833984375
v -768 49.608127593994141 -1815.537353515625
v -768 50.94580078125 -1804.2503662109375
v -768 52.397640228271484 -1792
vt 0.52317899465560913 0.015429973602294922
vt 0.41844698786735535 0.018967986106872559
vt 0.5318329930305481 0.11434799432754517
vt 0.16397799551486969 0.027220010757446289
vt 0.29176300764083862 0.1347460150718689
vt 0.28225600719451904 0.023384988307952881
vt 0.55266702175140381 0.35396498441696167
vt 0.040702998638153076 0.031383991241455078
vt 0.050703000277280807 0.15488600730895996
vt 0.96645599603652954 0.00010699033737182617
vt 0.96909397840499878 0.0767970085144043
vt 0.90545499324798584 0.0022150278091430664
vt 0.0047909999266266823 0.11642897129058838
vt 0.0063959998078644276 0.15879201889038086
vt 0.072502002120018 0.39496499300003052
vt 0.013420999981462956 0.34547501802444458
vt 0.002423000056296587 0.032770991325378418
vt 0.015940999612212181 0.032287001609802246
vt 0.31261900067329407 0.37436997890472412
vt 0.97236800193786621 0.17298901081085205
vt 0.982200026512146 0.45743399858474731
vt 0.98575097322463989 0.55996999144554138
vt 0.57070398330688477 0.59760001301765442
vt 0.98669397830963135 0.66515600681304932
vt 0.589148998260498 0.83836999535560608
vt 0.330935001373291 0.616661012172699
vt 0.9975770115852356 0.96761500090360641
vt 0.99656802415847778 0.93481499701738358
vt 0.89797502756118774 0.97128299996256828
vt 0.60050201416015625 0.98227299936115742
vt 0.46332100033760071 0.98582400009036064
vt 0.3493880033493042 0.85740099847316742
vt 0.090011999011039734 0.63480201363563538
vt 0.11078400164842606 0.88139799982309341
vt 0.020220000296831131 0.639835000038147
vt 0.016609000042080879 0.45956897735595703
vt 0.015414999797940254 0.39991098642349243
vt 0.022285999730229378 0.80696399509906769
vt 0.025234000757336617 0.88561300188302994
vt 0.24842199683189392 0.993741000071168
vt 0.35979300737380981 0.98857999965548515
vt 0.12264899909496307 0.99976099999912549
vt 0.0766960009932518 0.99784999992698431
vt 0.030336000025272369 0.99989300000015646
vn -0.055162001401185989 0.99846899509429932 0.0041589997708797455
vn -0.011292999610304833 0.99867701530456543 0.050168998539447784
vn -0.032290000468492508 0.99921399354934692 0.022998999804258347
vn 0.04245699942111969 0.99475002288818359 0.093116998672485352
vn -0.0032089999876916409 0.99691897630691528 0.0783739984035492
vn 0.0017999999690800905 0.99824202060699463 0.059238001704216
vn 0.070290997624397278 0.99720102548599243 0.025499999523162842
vn 0.055977001786231995 0.99009799957275391 0.12873700261116028
vn -0.015270999632775784 0.996595025062561 0.081027999520301819
vn -0.055548999458551407 0.99845099449157715 -0.0031729999464005232
vn -0.040950998663902283 0.9991530179977417 -0.0039229998365044594
vn -0.055548999458551407 0.99845099449157715 -0.0031729999464005232
vn 0.022532999515533447 0.99234998226165771 0.12138699740171433
vn -0.069081999361515045 0.99695199728012085 0.036247000098228455
vn -0.019650999456644058 0.99921798706054688 0.034297998994588852
vn -0.060717999935150146 0.99731898307800293 0.040832001715898514
vn 0.057027999311685562 0.98675602674484253 0.15185600519180298
vn 0.057027999311685562 0.98675602674484253 0.151855006814003
vn 0.06019899994134903 0.99604701995849609 0.065320000052452087
vn -0.0073830001056194305 0.99990397691726685 -0.011760000139474869
vn 0.1171799972653389 0.99310499429702759 0.0034660000819712877
vn 0.14353899657726288 0.98934102058410645 0.024506000801920891
vn 0.14179399609565735 0.989657998085022 0.02170100063085556
vn 0.028682999312877655 0.99807298183441162 0.055025000125169754
vn 0.050487000495195389 0.99746501445770264 0.050147000700235367
vn 0.10607200115919113 0.9941830039024353 -0.018673000857234
vn 0.044112000614404678 0.98972702026367188 0.13599100708961487
vn -0.010080999694764614 0.99256598949432373 0.12128999829292297
vn 0.044112998992204666 0.98972702026367188 0.13599100708961487
vn 0.040748000144958496 0.99691998958587646 0.067009001970291138
vn 0.015840999782085419 0.999737024307251 0.016599999740719795
vn 0.0718500018119812 0.99731302261352539 0.014274000190198422
vn 0.093299999833107 0.99542897939682007 -0.020379999652504921
vn 0.10687600076198578 0.99404001235961914 -0.021478999406099319
vn 0.11909200251102448 0.99245697259902954 0.029090000316500664
vn -0.01969899982213974 0.99899202585220337 0.040346000343561172
vn -0.038483001291751862 0.9978259801864624 0.053495999425649643
vn 0.20295600593090057 0.97905200719833374 -0.016285000368952751
vn 0.045196998864412308 0.99178099632263184 -0.11969699710607529
vn 0.010355000384151936 0.99878400564193726 0.048190001398324966
vn 0.0087190000340342522 0.99931997060775757 0.035831000655889511
vn 0.0094640003517270088 0.99949002265930176 -0.030482999980449677
vn 0.0047909999266266823 0.99303901195526123 -0.11768899857997894
vn 0.0047909999266266823 0.99303901195526123 -0.11768899857997894
f 1/1/1 2/2/2 3/3/3
f 4/4/4 5/5/5 6/6/6
f 2/2/2 5/5/5 3/3/3
f 2/2/2 6/6/6 5/5/5
f 5/5/5 7/7/7 3/3/3
f 5/5/5 8/8/8 9/9/9
f 5/5/5 4/4/4 8/8/8
f 10/10/10 3/3/3 11/11/11
f 10/10/10 12/12/12 3/3/3
f 12/12/12 1/1/1 3/3/3
f 13/13/13 14/14/14 9/9/9
f 14/14/14 15/15/15 9/9/9
f 14/14/14 16/16/16 15/15/15
f 17/17/17 13/13/13 18/18/18
f 18/18/18 9/9/9 8/8/8
f 18/18/18 13/13/13 9/9/9
f 5/5/5 9/9/9 19/19/19
f 19/19/19 7/7/7 5/5/5
f 20/20/20 7/7/7 21/21/21
f 22/22/22 7/7/7 23/23/23
f 22/22/22 21/21/21 7/7/7
f 24/24/24 23/23/23 25/25/25
f 24/24/24 22/22/22 23/23/23
f 23/23/23 7/7/7 26/26/26
f 27/27/27 28/28/28 29/29/29
f 29/29/29 25/25/25 30/30/30
f 29/29/29 28/28/28 25/25/25
f 24/24/24 25/25/25 28/28/28
f 30/30/30 25/25/25 31/31/31
f 25/25/25 23/23/23 32/32/32
f 9/9/9 15/15/15 19/19/19
f 19/19/19 15/15/15 26/26/26
f 32/32/32 26/26/26 33/33/33
f 23/23/23 26/26/26 32/32/32
f 32/32/32 33/33/33 34/34/34
f 33/33/33 26/26/26 15/15/15
f 26/26/26 7/7/7 19/19/19
f 35/35/35 15/15/15 36/36/36
f 35/35/35 33/33/33 15/15/15
f 37/37/37 36/36/36 15/15/15
f 38/38/38 39/39/39 34/34/34
f 38/38/38 33/33/33 35/35/35
f 38/38/38 34/34/34 33/33/33
f 40/40/40 32/32/32 34/34/34
f 40/40/40 41/41/41 32/32/32
f 16/16/16 37/37/37 15/15/15
f 39/39/39 42/42/42 34/34/34
f 39/39/39 43/43/43 42/42/42
f 43/43/43 39/39/39 44/44/44
f 40/40/40 34/34/34 42/42/42
f 41/41/41 25/25/25 32/32/32
f 41/41/41 31/31/31 25/25/25
f 20/20/20 3/3/3 7/7/7
f 20/20/20 11/11/11 3/3/3
