mtllib m2320.mtl
usemtl material0
v -1024 51.117195129394531 -1699.55908203125
v -987.63323974609375 58.275608062744141 -1739.9716796875
v -1024 55.563568115234375 -1738.0411376953125
v -1001.6116943359375 59.161075592041016 -1792
v -990.3717041015625 59.977497100830078 -1792
v -1024 56.625885009765625 -1767.1187744140625
v -940.818115234375 63.255924224853516 -1792
v -1024 48.598075866699219 -1674.0162353515625
v -984.291748046875 52.270545959472656 -1676.126708984375
v -1024 60.454975128173828 -1792
v -1024 43.333236694335938 -1609.9979248046875
v -1024 44.49737548828125 -1564.4351806640625
v -980.95941162109375 44.290683746337891 -1612.2742919921875
v -1024 46.100723266601562 -1631.9991455078125
v -920.43927001953125 58.963027954101562 -1679.5234384536743
v -977.60601806640625 40.865680694580078 -1548.43994140625
v -917.11090087890625 50.159938812255859 -1615.667724609375
v -1024 43.567195892333984 -1545.999755859375
v -1024 43.801471710205078 -1536
v -976.94805908203125 41.11962890625 -1536
v -1024 43.6461296081543 -1542.630615234375
v -928.0079345703125 42.149898529052734 -1536
v -913.77886962890625 42.144203186035156 -1551.8153076171875
v -923.797119140625 61.416885375976562 -1743.3544921875
v -862.34722900390625 65.205718994140625 -1792
v -910.271240234375 64.429283142089844 -1792
v -859.96539306640625 63.593109130859375 -1746.7335205078125
v -856.61614990234375 59.300907135009766 -1682.8951416015625
v -796.17218017578125 57.501682281494141 -1750.079833984375
v -926.35302734375 63.926319122314453 -1792
v -819.249267578125 54.399810791015625 -1792
v -798.40948486328125 52.544345855712891 -1792
v -853.27154541015625 54.018260955810547 -1619.05322265625
v -768 52.397640228271484 -1792
v -768 53.6541862487793 -1781.3974609375
v -768 54.356380462646484 -1713.83056640625
v -792.7960205078125 58.991111755371094 -1686.264404296875
v -768 53.1725959777832 -1751.551513671875
v -768 53.457485198974609 -1769.207275390625
v -768 55.288543701171875 -1687.5601806640625
v -768 57.417030334472656 -1663.9428710006177
v -789.43487548828125 57.262599945068359 -1622.436279296875
v -849.9541015625 42.906394958496094 -1555.1885986328125
v -786.11688232421875 46.307952880859375 -1558.572265625
v -848.95263671875 40.535148620605469 -1536
v -896.21697999536991 40.280124664306641 -1536
v -912.95111083984375 40.674251556396484 -1536
v -806.42962646484375 42.5169792175293 -1536
v -784.9398193359375 43.329669952392578 -1536
v -768 48.829418182373047 -1578.70556640625
v -768 56.410854339599609 -1623.5650634765625
v -768 46.140933990478516 -1559.5284423828125
v -768 43.975971221923828 -1543.014892578125
v -768 43.056297302246094 -1536
vt 0.62013900279998779 0.011063992977142334
vt 0.77869200706481934 0.14486497640609741
vt 0.76665002107620239 0.0072259902954101562
vt 0.97374600172042847 0.085628986358642578
vt 0.97521001100540161 0.12824100255966187
vt 0.87668001651763916 0.0037379860877990723
vt 0.98161798715591431 0.31602197885513306
vt 0.52306801080703735 0.013733029365539551
vt 0.53651797771453857 0.16421699523925781
vt 0.97187799215316772 0.00080400705337524414
vt 0.28003299236297607 0.020955026149749756
vt 0.10767500102519989 0.026198029518127441
vt 0.29349899291992188 0.18350499868392944
vt 0.36389699578285217 0.018652021884918213
vt 0.55809199810028076 0.406499981880188
vt 0.052158001810312271 0.20376700162887573
vt 0.31515198945999146 0.42545998096466064
vt 0.037873998284339905 0.028419017791748047
vt 4.5000000682193786E-05 0.029460012912750244
vt 0.0051899999380111694 0.2076910138130188
vt 0.025127999484539032 0.028770029544830322
vt 0.010696999728679657 0.39279502630233765
vt 0.0721300020813942 0.44492900371551514
vt 0.7992439866065979 0.38613897562026978
vt 0.99099898338317871 0.61285001039505
vt 0.98521202802658081 0.43160402774810791
vt 0.81999599933624268 0.62722599506378174
vt 0.57843899726867676 0.64745000004768372
vt 0.83871001005172729 0.86928600072860718
vt 0.98315399885177612 0.37087798118591309
vt 0.99633502960205078 0.77945700287818909
vt 0.99828201532363892 0.85859000682830811
vt 0.33658799529075623 0.66765999794006348
vt 0.99995499849319458 0.97362999990582466
vt 0.95956498384475708 0.974193999543786
vt 0.70485597848892212 0.980613999068737
vt 0.59763199090957642 0.8884819969534874
vt 0.847590982913971 0.97690100036561489
vt 0.91436100006103516 0.97468299977481365
vt 0.60543501377105713 0.9831399992108345
vt 0.517445981502533 0.98494299966841936
vt 0.3579069972038269 0.908889003098011
vt 0.091766998171806335 0.68690299987792969
vt 0.11319199949502945 0.92815600335597992
vt 0.018671000376343727 0.69173499941825867
vt 0.013705000281333923 0.51298201084136963
vt 0.012110999785363674 0.45001602172851562
vt 0.024441000074148178 0.85380400717258453
vt 0.027218999341130257 0.93511900305747986
vt 0.19173699617385864 0.99465500004589558
vt 0.36471399664878845 0.98987600021064281
vt 0.11849799752235413 0.996591999894008
vt 0.055638998746871948 0.99844500003382564
vt 0.028882000595331192 0.99919599998975173
vn -0.082180000841617584 0.99141901731491089 0.10165999829769135
vn -0.062389001250267029 0.99553298950195312 0.070858001708984375
vn -0.070082999765872955 0.99456697702407837 0.076972000300884247
vn -0.037710998207330704 0.99699598550796509 0.067653000354766846
vn -0.0692870020866394 0.99693799018859863 0.036256998777389526
vn -0.042362000793218613 0.99708402156829834 0.063476003706455231
vn -0.0514880008995533 0.99746298789978027 0.049152001738548279
vn -0.08771900087594986 0.99310898780822754 0.077714003622531891
vn -0.077201999723911285 0.99227100610733032 0.097148999571800232
vn 0.057027999311685562 0.98675602674484253 0.15185700356960297
vn -0.01971999928355217 0.99869102239608765 0.04718799889087677
vn 0.041071999818086624 0.99862301349639893 0.032637998461723328
vn -0.043818999081850052 0.99562698602676392 0.082506000995635986
vn -0.032554998993873596 0.99344199895858765 0.10960599780082703
vn -0.058848001062870026 0.99459099769592285 0.085585996508598328
vn 0.011451000347733498 0.99962401390075684 0.024903999641537666
vn -0.059994000941514969 0.99038302898406982 0.12466800212860107
vn 0.058768998831510544 0.998196005821228 0.012257000431418419
vn 0.056889999657869339 0.99810701608657837 -0.023383999243378639
vn 0.016635999083518982 0.99963498115539551 -0.021285999566316605
vn 0.056889999657869339 0.99810701608657837 -0.023383999243378639
vn 0.010639999993145466 0.99990099668502808 0.0092120002955198288
vn 0.0015849999617785215 0.99455702304840088 0.10418099910020828
vn -0.0455779992043972 0.99748897552490234 0.0542059987783432
vn 0.1098020002245903 0.993511974811554 0.029616000130772591
vn -0.027708999812602997 0.998403012752533 0.049237001687288284
vn 0.056609999388456345 0.99801099300384521 0.027724999934434891
vn 0.00712599977850914 0.99839401245117188 0.056203998625278473
vn 0.092340998351573944 0.99464797973632812 -0.046348001807928085
vn -0.038963999599218369 0.99780601263046265 0.053520001471042633
vn 0.12948599457740784 0.98800098896026611 -0.084186002612113953
vn 0.047708000987768173 0.99164897203445435 -0.11981499940156937
vn -0.035479001700878143 0.99091297388076782 0.12974299490451813
vn 0.0047909999266266823 0.99303901195526123 -0.11768899857997894
vn 0.039625998586416245 0.99545097351074219 -0.086649000644683838
vn 0.14919100701808929 0.98829197883605957 -0.031964000314474106
vn 0.062591001391410828 0.99791902303695679 -0.015510999597609043
vn 0.15153500437736511 0.98842900991439819 -0.0067449999041855335
vn 0.15267699956893921 0.98814702033996582 0.015945000573992729
vn 0.14429299533367157 0.98765701055526733 -0.060943000018596649
vn 0.068484999239444733 0.99763602018356323 -0.00572500005364418
vn 0.006756999995559454 0.99445199966430664 0.1049719974398613
vn -0.024094000458717346 0.98870599269866943 0.14791600406169891
vn -0.00930199958384037 0.98927497863769531 0.14576900005340576
vn -0.026411000639200211 0.99193602800369263 0.12395799905061722
vn 0.001382000045850873 0.99330198764801025 0.1155410036444664
vn 0.058995001018047333 0.99425399303436279 0.0893229991197586
vn -0.043859001249074936 0.99093800783157349 0.12695799767971039
vn -0.0098799997940659523 0.99129199981689453 0.13131000101566315
vn 0.040608998388051987 0.98627102375030518 0.16006100177764893
vn 0.044458001852035522 0.99460399150848389 0.093731999397277832
vn 0.016233999282121658 0.99077498912811279 0.13454000651836395
vn 0.015999000519514084 0.99138802289962769 0.12997399270534515
vn 0.015999000519514084 0.99138802289962769 0.12997399270534515
f 1/1/1 2/2/2 3/3/3
f 4/4/4 2/2/2 5/5/5
f 4/4/4 3/3/3 2/2/2
f 4/4/4 6/6/6 3/3/3
f 5/5/5 2/2/2 7/7/7
f 2/2/2 8/8/8 9/9/9
f 2/2/2 1/1/1 8/8/8
f 6/6/6 4/4/4 10/10/10
f 11/11/11 12/12/12 13/13/13
f 11/11/11 9/9/9 14/14/14
f 11/11/11 13/13/13 9/9/9
f 13/13/13 15/15/15 9/9/9
f 16/16/16 17/17/17 13/13/13
f 18/18/18 13/13/13 12/12/12
f 18/18/18 16/16/16 13/13/13
f 19/19/19 20/20/20 21/21/21
f 21/21/21 16/16/16 18/18/18
f 21/21/21 20/20/20 16/16/16
f 16/16/16 22/22/22 23/23/23
f 16/16/16 20/20/20 22/22/22
f 8/8/8 14/14/14 9/9/9
f 2/2/2 9/9/9 24/24/24
f 25/25/25 26/26/26 27/27/27
f 9/9/9 15/15/15 24/24/24
f 24/24/24 15/15/15 27/27/27
f 27/27/27 28/28/28 29/29/29
f 30/30/30 27/27/27 26/26/26
f 30/30/30 24/24/24 27/27/27
f 31/31/31 29/29/29 32/32/32
f 31/31/31 27/27/27 29/29/29
f 28/28/28 27/27/27 15/15/15
f 31/31/31 25/25/25 27/27/27
f 28/28/28 15/15/15 33/33/33
f 7/7/7 24/24/24 30/30/30
f 7/7/7 2/2/2 24/24/24
f 34/34/34 29/29/29 35/35/35
f 34/34/34 32/32/32 29/29/29
f 36/36/36 29/29/29 37/37/37
f 36/36/36 38/38/38 29/29/29
f 39/39/39 29/29/29 38/38/38
f 39/39/39 35/35/35 29/29/29
f 36/36/36 37/37/37 40/40/40
f 37/37/37 29/29/29 28/28/28
f 40/40/40 37/37/37 41/41/41
f 37/37/37 28/28/28 42/42/42
f 16/16/16 23/23/23 17/17/17
f 17/17/17 23/23/23 33/33/33
f 42/42/42 33/33/33 43/43/43
f 28/28/28 33/33/33 42/42/42
f 42/42/42 43/43/43 44/44/44
f 43/43/43 33/33/33 23/23/23
f 33/33/33 15/15/15 17/17/17
f 45/45/45 23/23/23 46/46/46
f 45/45/45 43/43/43 23/23/23
f 47/47/47 46/46/46 23/23/23
f 48/48/48 49/49/49 44/44/44
f 48/48/48 43/43/43 45/45/45
f 48/48/48 44/44/44 43/43/43
f 50/50/50 42/42/42 44/44/44
f 50/50/50 51/51/51 42/42/42
f 22/22/22 47/47/47 23/23/23
f 49/49/49 52/52/52 44/44/44
f 49/49/49 53/53/53 52/52/52
f 53/53/53 49/49/49 54/54/54
f 41/41/41 42/42/42 51/51/51
f 41/41/41 37/37/37 42/42/42
f 50/50/50 44/44/44 52/52/52
f 13/13/13 17/17/17 15/15/15
