mtllib m2321.mtl
usemtl material0
v -768 52.397640228271484 -1792
v -768 53.6541862487793 -1781.3974609375
v -758.46240234375 52.351627349853516 -1792
v -670.42486572265625 49.660614013671875 -1792
v -707.70672607421875 49.1599235534668 -1792
v -668.5689697265625 49.032920837402344 -1756.787109375
v -768 54.356380462646484 -1713.83056640625
v -732.39666748046875 47.701602935791016 -1753.411376953125
v -768 53.1725959777832 -1751.551513671875
v -734.42919921875 48.6383056640625 -1792
v -768 53.457485198974609 -1769.207275390625
v -768 55.288543701171875 -1687.5601806640625
v -729.0191650390625 49.467880249023438 -1689.5972900390625
v -665.21746826171875 45.285629272460938 -1692.951171875
v -604.735107421875 51.662815093994141 -1760.1678466796875
v -636.88592505455017 50.776515960693359 -1792
v -768 57.417030334472656 -1663.9428710006177
v -725.625244140625 54.727027893066406 -1625.7967529296875
v -768 48.829418182373047 -1578.70556640625
v -768 56.410854339599609 -1623.5650634765625
v -768 43.975971221923828 -1543.014892578125
v -722.29833984375 45.7196159362793 -1561.9403076171875
v -768 46.140933990478516 -1559.5284423828125
v -745.64044189453125 42.695457458496094 -1536
v -768 43.056297302246094 -1536
v -661.86468505859375 41.796897888183594 -1629.116455078125
v -601.3955078125 45.404342651367188 -1696.322021484375
v -658.50732421875 39.291801452636719 -1565.28564453125
v -598.05010986328125 40.3829231262207 -1632.481201171875
v -656.9525146484375 41.072113037109375 -1536
v -693.47564697265625 44.6259880065918 -1536
v -720.93096923828125 45.300693511962891 -1536
v -624.06378173828125 41.654243469238281 -1536
v -594.68170166015625 40.219581604003906 -1568.65966796875
v -606.41387939453125 52.010841369628906 -1792
v -576.0902099609375 56.406623840332031 -1792
v -540.87579345703125 59.620014190673828 -1763.56982421875
v -512 61.582038879394531 -1765.1019287109375
v -537.5289306640625 54.922061920166016 -1699.7298583984375
v -512 58.735164642333984 -1728.0997314453125
v -542.37213134765625 60.538459777832031 -1792
v -512 63.032371520996094 -1792
v -515.2933349609375 62.818019866943359 -1792
v -512 62.916141510009766 -1789.8443603515625
v -534.1746826171875 51.773162841796875 -1635.896240234375
v -512 56.251834869384766 -1701.0830078125
v -512 55.623989105224609 -1676.767578125
v -512 49.874183654785156 -1592.9796142578125
v -530.829345703125 46.758354187011719 -1572.0555419921875
v -512 53.508571624755859 -1637.07373046875
v -512 48.1739387512207 -1573.0550537109375
v -528.92181396484375 47.585697174072266 -1536
v -558.3414306640625 44.545639038085938 -1536
v -592.9454345703125 42.666996002197266 -1536
v -512 48.8748664855957 -1536
v -512 48.645771026611328 -1548.111328125
vt 0.98837798833847046 3.8981437683105469E-05
vt 0.94742900133132935 1.5974044799804688E-05
vt 0.98837798833847046 0.036619007587432861
vt 0.99181002378463745 0.37537401914596558
vt 0.990231990814209 0.23238402605056763
vt 0.85682302713394165 0.38394999504089355
vt 0.68821299076080322 0.0015829801559448242
vt 0.84113699197769165 0.13926100730895996
vt 0.83295297622680664 0.0011680126190185547
vt 0.98908698558807373 0.12988299131393433
vt 0.900672972202301 0.0004870295524597168
vt 0.58739602565765381 0.0018110275268554688
vt 0.59633702039718628 0.15290802717208862
vt 0.61054700613021851 0.39805501699447632
vt 0.87046200037002563 0.62893998622894287
vt 0.99327999353408813 0.504067987203598
vt 0.49645200371742249 0.0013030171394348145
vt 0.35075300931930542 0.16468799114227295
vt 0.16706900298595429 0.0040540099143981934
vt 0.34154599905014038 0.0020760297775268555
vt 0.028946999460458755 0.0063980221748352051
vt 0.10397599637508392 0.1855739951133728
vt 0.092818997800350189 0.0057039856910705566
vt 0.0018700000364333391 0.092239022254943848
vt 0.0018129999516531825 0.0064730048179626465
vt 0.36491400003433228 0.414126992225647
vt 0.62447798252105713 0.64277499914169312
vt 0.12017899751663208 0.43126899003982544
vt 0.37983998656272888 0.65881699323654175
vt 0.0077019999735057354 0.438073992729187
vt 0.0057859998196363449 0.29734998941421509
vt 0.0045460001565515995 0.19202697277069092
vt 0.0085119996219873428 0.56422901153564453
vt 0.13549299538135529 0.67819300293922424
vt 0.99253600835800171 0.62216898798942566
vt 0.99310499429702759 0.73968198895454407
vt 0.88754302263259888 0.8755050003528595
vt 0.89477998018264771 0.98642599955201149
vt 0.64213800430297852 0.89013999700546265
vt 0.75245100259780884 0.98745399992913008
vt 0.996554970741272 0.86837400496006012
vt 0.99808698892593384 0.98555999994277954
vt 0.99818700551986694 0.97258199937641621
vt 0.98980802297592163 0.98560000024735928
vt 0.39981600642204285 0.90720299631357193
vt 0.64840000867843628 0.9881199998781085
vt 0.55861902236938477 0.98969000019133091
vt 0.2365570068359375 0.99509100010618567
vt 0.15445399284362793 0.92397899925708771
vt 0.40619000792503357 0.99239100003615022
vt 0.15987299382686615 0.99629699997603893
vt 0.016373999416828156 0.93491599708795547
vt 0.013638000003993511 0.8215160071849823
vt 0.0083699999377131462 0.68363898992538452
vt 0.017976000905036926 0.9999840000000404
vt 0.0642160028219223 0.99852899997495115
vn 0.0047909999266266823 0.99303901195526123 -0.11768899857997894
vn 0.11867299675941467 0.9928169846534729 -0.015217999927699566
vn 0.11360900104045868 0.99332702159881592 -0.019835999235510826
vn -0.023008000105619431 0.99955397844314575 0.019029999151825905
vn -0.018091000616550446 0.99955499172210693 0.023711999878287315
vn -0.017059000208973885 0.99945402145385742 0.028289999812841415
vn 0.14683699607849121 0.98857200145721436 -0.034129001200199127
vn 0.06490500271320343 0.99788099527359009 -0.0045949998311698437
vn 0.15145200490951538 0.98842900991439819 -0.0083219995722174644
vn 0.069794997572898865 0.99734997749328613 0.020533999428153038
vn 0.15267699956893921 0.98814797401428223 0.015944000333547592
vn 0.14416800439357758 0.98754400014877319 -0.063023000955581665
vn 0.09316900372505188 0.99445497989654541 -0.048781998455524445
vn 0.046170998364686966 0.99804997444152832 0.04201199859380722
vn -0.077243000268936157 0.99543702602386475 0.056026000529527664
vn -0.038545001298189163 0.99914699792861938 0.014791999943554401
vn 0.11565600335597992 0.991562008857727 -0.058554001152515411
vn 0.11499100178480148 0.99175500869750977 0.056559998542070389
vn 0.023762000724673271 0.98910897970199585 0.14525699615478516
vn 0.044672001153230667 0.994172990322113 0.098104000091552734
vn 0.015999000519514084 0.99138802289962769 0.12997399270534515
vn 0.047031998634338379 0.99658197164535522 0.067910000681877136
vn 0.0162189994007349 0.99081498384475708 0.13425199687480927
vn -0.016220999881625175 0.994717001914978 0.10136900097131729
vn 0.015999000519514084 0.99138802289962769 0.12997399270534515
vn 0.098159998655319214 0.99353599548339844 0.057022999972105026
vn -0.067924000322818756 0.99433702230453491 0.081738002598285675
vn 0.04650299996137619 0.99875998497009277 -0.017769999802112579
vn -0.078798003494739532 0.995684027671814 0.049035001546144485
vn 0.0377190001308918 0.99732398986816406 -0.062631003558635712
vn 0.079907000064849854 0.99570298194885254 -0.046806998550891876
vn -0.038077998906373978 0.99910998344421387 0.018141999840736389
vn -0.021618999540805817 0.99776202440261841 -0.063279002904891968
vn -0.063715003430843353 0.99785298109054565 -0.01513999979943037
vn -0.09039200097322464 0.99578297138214111 0.015653999522328377
vn -0.12734900414943695 0.99130499362945557 0.033132001757621765
vn -0.097433000802993774 0.9932519793510437 0.062905997037887573
vn -0.064228996634483337 0.99583399295806885 0.064730003476142883
vn -0.10142599791288376 0.992713987827301 0.065048001706600189
vn -0.059700001031160355 0.99500399827957153 0.080013997852802277
vn -0.10329200327396393 0.9939420223236084 0.037546001374721527
vn -0.064856000244617462 0.99644702672958374 0.053727000951766968
vn -0.06990399956703186 0.99634099006652832 0.049173001199960709
vn -0.064855001866817474 0.99644702672958374 0.053727999329566956
vn -0.11056800186634064 0.99183398485183716 0.063555002212524414
vn -0.048764001578092575 0.99701797962188721 0.059803001582622528
vn -0.068576999008655548 0.996595025062561 0.045777998864650726
vn -0.0726889967918396 0.99392902851104736 0.082594998180866241
vn -0.087081998586654663 0.99566799402236938 0.032590001821517944
vn -0.0743120014667511 0.994983971118927 0.066968999803066254
vn -0.073082998394966125 0.99671697616577148 0.034844998270273209
vn -0.088901996612548828 0.99587500095367432 -0.018147999420762062
vn -0.091491997241973877 0.99535298347473145 -0.030039999634027481
vn -0.043644998222589493 0.99642401933670044 -0.072348996996879578
vn -0.075949996709823608 0.9969329833984375 -0.018858000636100769
vn -0.075949996709823608 0.9969329833984375 -0.018858000636100769
f 1/1/1 2/2/2 3/3/3
f 4/4/4 5/5/5 6/6/6
f 7/7/7 8/8/8 9/9/9
f 10/10/10 9/9/9 8/8/8
f 10/10/10 11/11/11 9/9/9
f 11/11/11 3/3/3 2/2/2
f 11/11/11 10/10/10 3/3/3
f 8/8/8 12/12/12 13/13/13
f 8/8/8 7/7/7 12/12/12
f 6/6/6 8/8/8 13/13/13
f 5/5/5 8/8/8 6/6/6
f 5/5/5 10/10/10 8/8/8
f 6/6/6 14/14/14 15/15/15
f 6/6/6 13/13/13 14/14/14
f 4/4/4 6/6/6 16/16/16
f 13/13/13 17/17/17 18/18/18
f 13/13/13 12/12/12 17/17/17
f 19/19/19 18/18/18 20/20/20
f 21/21/21 22/22/22 23/23/23
f 21/21/21 24/24/24 22/22/22
f 21/21/21 25/25/25 24/24/24
f 18/18/18 22/22/22 26/26/26
f 26/26/26 14/14/14 18/18/18
f 26/26/26 27/27/27 14/14/14
f 28/28/28 29/29/29 26/26/26
f 28/28/28 26/26/26 22/22/22
f 17/17/17 20/20/20 18/18/18
f 30/30/30 22/22/22 31/31/31
f 30/30/30 28/28/28 22/22/22
f 24/24/24 32/32/32 22/22/22
f 31/31/31 22/22/22 32/32/32
f 28/28/28 33/33/33 34/34/34
f 28/28/28 30/30/30 33/33/33
f 19/19/19 22/22/22 18/18/18
f 19/19/19 23/23/23 22/22/22
f 13/13/13 18/18/18 14/14/14
f 16/16/16 15/15/15 35/35/35
f 16/16/16 6/6/6 15/15/15
f 35/35/35 15/15/15 36/36/36
f 27/27/27 15/15/15 14/14/14
f 15/15/15 27/27/27 37/37/37
f 38/38/38 39/39/39 40/40/40
f 38/38/38 37/37/37 39/39/39
f 36/36/36 37/37/37 41/41/41
f 36/36/36 15/15/15 37/37/37
f 42/42/42 43/43/43 44/44/44
f 44/44/44 37/37/37 38/38/38
f 44/44/44 43/43/43 37/37/37
f 39/39/39 37/37/37 27/27/27
f 43/43/43 41/41/41 37/37/37
f 39/39/39 27/27/27 45/45/45
f 46/46/46 40/40/40 39/39/39
f 46/46/46 39/39/39 47/47/47
f 34/34/34 29/29/29 28/28/28
f 29/29/29 34/34/34 45/45/45
f 48/48/48 45/45/45 49/49/49
f 48/48/48 50/50/50 45/45/45
f 47/47/47 45/45/45 50/50/50
f 47/47/47 39/39/39 45/45/45
f 48/48/48 49/49/49 51/51/51
f 49/49/49 45/45/45 34/34/34
f 45/45/45 27/27/27 29/29/29
f 52/52/52 34/34/34 53/53/53
f 52/52/52 49/49/49 34/34/34
f 54/54/54 53/53/53 34/34/34
f 55/55/55 49/49/49 52/52/52
f 55/55/55 56/56/56 49/49/49
f 56/56/56 51/51/51 49/49/49
f 54/54/54 34/34/34 33/33/33
f 29/29/29 27/27/27 26/26/26
