mtllib m2330.mtl
usemtl material0
v -512 61.582038879394531 -1765.1019287109375
v -512 58.735164642333984 -1728.0997314453125
v -477.033447265625 63.957912445068359 -1766.9573974609375
v -512 63.032371520996094 -1792
v -478.34918212890625 65.222564697265625 -1792
v -512 62.916141510009766 -1789.8443603515625
v -454.50552368164062 61.530422210693359 -1792
v -413.23013305664062 60.107753753662109 -1770.3125
v -473.69149780273438 58.247283935546875 -1703.1134033203125
v -414.37957763671875 59.203517913818359 -1792
v -409.875 57.174903869628906 -1706.4796142578125
v -512 56.251834869384766 -1701.0830078125
v -349.41989135742188 57.732925415039062 -1773.673583984375
v -393.71978759765625 58.5919189453125 -1792
v -350.39071655273438 57.066577911376953 -1792
v -285.62893676757812 51.374061584472656 -1777.018798828125
v -346.07275390625 53.144344329833984 -1709.8341064453125
v -406.51901245117188 54.4176025390625 -1642.6474609375
v -332.93243408203125 57.01898193359375 -1792
v -512 55.623989105224609 -1676.767578125
v -470.32931518554688 56.769744873046875 -1639.2862548828125
v -512 49.874183654785156 -1592.9796142578125
v -512 53.508571624755859 -1637.07373046875
v -512 48.1739387512207 -1573.0550537109375
v -466.98501586914062 51.558158874511719 -1575.444580078125
v -502.475830078125 49.600456237792969 -1536
v -464.92214965820312 47.649856567382812 -1536
v -512 48.8748664855957 -1536
v -512 48.645771026611328 -1548.111328125
v -403.17111206054688 49.972606658935547 -1578.808837890625
v -441.69009399414062 46.95318603515625 -1536
v -342.707763671875 52.271286010742188 -1646.0093994140625
v -278.89404296875 50.653053283691406 -1649.3734130859375
v -339.34133911132812 51.695358276367188 -1582.1859130859375
v -320.11325073242188 45.919742584228516 -1536
v -336.92877197265625 46.582801818847656 -1536
v -275.53018188476562 49.544418334960938 -1585.5478515625
v -355.62393188476562 46.188804626464844 -1536
v -400.9205322265625 48.098564147949219 -1536
v -282.26019287109375 51.279533386230469 -1713.1971435546875
v -256 50.927772521972656 -1778.581787109375
v -256 50.903007507324219 -1742.3853759765625
v -256 50.180423736572266 -1714.579833984375
v -256 49.878761291503906 -1674.82080078125
v -286.41537475585938 52.252170562744141 -1792
v -272.1490478515625 52.356048583984375 -1792
v -272.94110107421875 44.267261505126953 -1536
v -256 48.728630065917969 -1586.5762939453125
v -256 44.990028381347656 -1550.6409912109375
v -259.32723999023438 43.6240234375 -1536
v -256 43.851528167724609 -1539.6978759765625
v -256 48.905315399169922 -1650.5760498046875
v -256 48.328762054443359 -1607.257080078125
v -256 52.04205322265625 -1792
v -256 51.732620239257812 -1788.2738037109375
v -256 43.718353271484375 -1536
vt 0.87201797962188721 0.0032470226287841797
vt 0.73129302263259888 0.0073760151863098145
vt 0.88362199068069458 0.13588100671768189
vt 0.974157989025116 0.00010097026824951172
vt 0.97854501008987427 0.12795299291610718
vt 0.96597200632095337 0.00035297870635986328
vt 0.98072397708892822 0.21945697069168091
vt 0.901947021484375 0.3780059814453125
vt 0.640919029712677 0.15549898147583008
vt 0.984184980392456 0.37195402383804321
vt 0.65996402502059937 0.39721298217773438
vt 0.62841302156448364 0.010309994220733643
vt 0.920756995677948 0.61984699964523315
vt 0.98589402437210083 0.450344979763031
vt 0.990215003490448 0.61447599530220032
vt 0.93870002031326294 0.86271099746227264
vt 0.6785159707069397 0.6393589973449707
vt 0.41801199316978455 0.41641098260879517
vt 0.99182999134063721 0.68068599700927734
vt 0.53618597984313965 0.013235986232757568
vt 0.39924898743629456 0.175944983959198
vt 0.21768200397491455 0.022431015968322754
vt 0.38545799255371094 0.017759025096893311
vt 0.14185099303722382 0.024527013301849365
vt 0.15671299397945404 0.19552898406982422
vt 0.0025520001072436571 0.065679013729095459
vt 0.006668000016361475 0.20811498165130615
vt 0.0013409999664872885 0.029464006423950195
vt 0.047265999019145966 0.027862012386322021
vt 0.17649400234222412 0.43721497058868408
vt 0.0092029999941587448 0.29625099897384644
vt 0.43676799535751343 0.6582300066947937
vt 0.45555400848388672 0.8999980017542839
vt 0.19631600379943848 0.678972989320755
vt 0.02174299955368042 0.75658500194549561
vt 0.020337000489234924 0.69275999069213867
vt 0.2155040055513382 0.92075899988412857
vt 0.018306000158190727 0.62185201048851013
vt 0.014290999621152878 0.45089101791381836
vt 0.697288990020752 0.88114800304174423
vt 0.94760000705718994 0.97492799907922745
vt 0.81032401323318481 0.97815199941396713
vt 0.70500099658966064 0.98069499991834164
vt 0.55421501398086548 0.9844779996201396
vt 0.99552899599075317 0.85820199549198151
vt 0.99700301885604858 0.91230399906635284
vt 0.026281999424099922 0.935588002204895
vt 0.22157800197601318 0.99476600019261241
vt 0.083600997924804688 0.99833600001875311
vt 0.027487000450491905 0.98727700021117926
vt 0.041880000382661819 0.99951200000941753
vt 0.46219998598098755 0.98696599993854761
vt 0.30001500248908997 0.99252900015562773
vt 0.99865901470184326 0.97349599935114384
vt 0.98448002338409424 0.9738989993929863
vt 0.027847999706864357 0.99989900000218768
vn -0.064180999994277954 0.99578201770782471 0.06556200236082077
vn -0.050820998847484589 0.994825005531311 0.087978996336460114
vn 0.012647000141441822 0.99837100505828857 0.055631998926401138
vn -0.064855001866817474 0.99644702672958374 0.053727999329566956
vn 0.040483999997377396 0.99801301956176758 0.0482730008661747
vn -0.064854003489017487 0.99644702672958374 0.053727999329566956
vn 0.08327600359916687 0.99629098176956177 -0.021661000326275826
vn 0.042950998991727829 0.99905902147293091 0.00595800019800663
vn -0.0068439999595284462 0.998537003993988 0.053637001663446426
vn 0.044162999838590622 0.99805700778961182 -0.043953999876976013
vn 0.03906099870800972 0.99819201231002808 0.045678000897169113
vn -0.0488939993083477 0.99714899063110352 0.057468999177217484
vn 0.06076199933886528 0.9978870153427124 0.022989999502897263
vn 0.0336650013923645 0.99865198135375977 -0.039514999836683273
vn 0.019481999799609184 0.99911201000213623 -0.037360001355409622
vn 0.047230999916791916 0.99810701608657837 0.039402000606060028
vn 0.05300699919462204 0.99799001216888428 0.034742999821901321
vn 0.0374860018491745 0.99806398153305054 0.049630999565124512
vn 0.075482003390789032 0.9967229962348938 0.029077999293804169
vn -0.057195000350475311 0.99781501293182373 0.033085998147726059
vn -0.013965999707579613 0.99834299087524414 0.055821001529693604
vn -0.070967003703117371 0.993923008441925 0.084144003689289093
vn -0.0742499977350235 0.99491602182388306 0.068034999072551727
vn -0.073284998536109924 0.9968230128288269 0.031192999333143234
vn -0.0045549999922513962 0.99727499485015869 0.0736280009150505
vn -0.041910998523235321 0.99905097484588623 0.011874999850988388
vn 0.04034699872136116 0.994521975517273 0.096431002020835876
vn -0.0759510025382042 0.9969329833984375 -0.018858000636100769
vn -0.075949996709823608 0.9969329833984375 -0.018858000636100769
vn 0.011284000240266323 0.99790602922439575 0.063689000904560089
vn 0.014384999871253967 0.99642699956893921 0.083223998546600342
vn 0.023298999294638634 0.9995800256729126 0.017210999503731728
vn 0.048239998519420624 0.9987339973449707 0.014286000281572342
vn 0.0054890001192688942 0.998166024684906 0.060292001813650131
vn 0.03800399973988533 0.99354499578475952 0.10687900334596634
vn 0.010129000060260296 0.99393600225448608 0.10949499905109406
vn 0.044367998838424683 0.99747002124786377 0.055534999817609787
vn -0.0062319999560713768 0.99546599388122559 0.094910003244876862
vn 0.0081979995593428612 0.99902802705764771 0.043304000049829483
vn 0.032095998525619507 0.99945402145385742 0.0077809998765587807
vn 0.017319999635219574 0.9989200234413147 0.043108001351356506
vn 0.021652000024914742 0.9997439980506897 0.0065830000676214695
vn 0.042709000408649445 0.99894201755523682 0.01707099936902523
vn 0.05062900111079216 0.99860197305679321 0.015163999982178211
vn 0.049244001507759094 0.99722301959991455 0.055865999311208725
vn 0.012257999740540981 0.99700301885604858 0.076380997896194458
vn 0.041099000722169876 0.99375998973846436 0.10369399935007095
vn 0.043809998780488968 0.99823397397995 0.040125001221895218
vn 0.046943001449108124 0.99353498220443726 0.10336499661207199
vn 0.026869000867009163 0.99598002433776855 0.085451997816562653
vn 0.029428999871015549 0.99570900201797485 0.087737999856472015
vn 0.077504001557827 0.99662500619888306 0.027062999084591866
vn 0.068397998809814453 0.99764198064804077 0.0056670000776648521
vn 0.019373999908566475 0.996383011341095 0.082741998136043549
vn 0.019372999668121338 0.996383011341095 0.082741998136043549
vn -0.028320999816060066 0.9989510178565979 0.035976000130176544
f 1/1/1 2/2/2 3/3/3
f 4/4/4 3/3/3 5/5/5
f 4/4/4 6/6/6 3/3/3
f 6/6/6 1/1/1 3/3/3
f 5/5/5 3/3/3 7/7/7
f 8/8/8 3/3/3 9/9/9
f 10/10/10 3/3/3 8/8/8
f 10/10/10 7/7/7 3/3/3
f 8/8/8 9/9/9 11/11/11
f 12/12/12 3/3/3 2/2/2
f 12/12/12 9/9/9 3/3/3
f 13/13/13 8/8/8 11/11/11
f 14/14/14 13/13/13 15/15/15
f 14/14/14 8/8/8 13/13/13
f 16/16/16 13/13/13 17/17/17
f 13/13/13 11/11/11 17/17/17
f 14/14/14 10/10/10 8/8/8
f 11/11/11 9/9/9 18/18/18
f 15/15/15 13/13/13 19/19/19
f 9/9/9 20/20/20 21/21/21
f 9/9/9 12/12/12 20/20/20
f 22/22/22 21/21/21 23/23/23
f 20/20/20 23/23/23 21/21/21
f 21/21/21 24/24/24 25/25/25
f 21/21/21 22/22/22 24/24/24
f 26/26/26 27/27/27 25/25/25
f 28/28/28 26/26/26 29/29/29
f 29/29/29 25/25/25 24/24/24
f 29/29/29 26/26/26 25/25/25
f 18/18/18 21/21/21 25/25/25
f 27/27/27 30/30/30 25/25/25
f 27/27/27 31/31/31 30/30/30
f 18/18/18 30/30/30 32/32/32
f 32/32/32 17/17/17 18/18/18
f 33/33/33 32/32/32 34/34/34
f 35/35/35 34/34/34 36/36/36
f 35/35/35 37/37/37 34/34/34
f 34/34/34 32/32/32 30/30/30
f 9/9/9 21/21/21 18/18/18
f 36/36/36 30/30/30 38/38/38
f 36/36/36 34/34/34 30/30/30
f 31/31/31 39/39/39 30/30/30
f 38/38/38 30/30/30 39/39/39
f 25/25/25 30/30/30 18/18/18
f 11/11/11 18/18/18 17/17/17
f 32/32/32 40/40/40 17/17/17
f 17/17/17 40/40/40 16/16/16
f 40/40/40 41/41/41 16/16/16
f 40/40/40 42/42/42 41/41/41
f 33/33/33 43/43/43 40/40/40
f 33/33/33 44/44/44 43/43/43
f 32/32/32 33/33/33 40/40/40
f 45/45/45 16/16/16 46/46/46
f 19/19/19 16/16/16 45/45/45
f 19/19/19 13/13/13 16/16/16
f 37/37/37 33/33/33 34/34/34
f 35/35/35 47/47/47 37/37/37
f 47/47/47 48/48/48 37/37/37
f 47/47/47 49/49/49 48/48/48
f 49/49/49 50/50/50 51/51/51
f 49/49/49 47/47/47 50/50/50
f 52/52/52 37/37/37 53/53/53
f 52/52/52 33/33/33 37/37/37
f 42/42/42 40/40/40 43/43/43
f 44/44/44 33/33/33 52/52/52
f 54/54/54 46/46/46 55/55/55
f 55/55/55 16/16/16 41/41/41
f 55/55/55 46/46/46 16/16/16
f 56/56/56 51/51/51 50/50/50
f 53/53/53 37/37/37 48/48/48
