mtllib m300210.mtl
usemtl material0
v 128 4.0420169830322266 -278.72955322265625
v 128 3.9743080139160156 -274.377685546875
v 129.21807861328125 4.1008710861206055 -278.7940673828125
v 128 4.1631031036376953 -279.89047241210938
v 128 5.611846923828125 -302.0146484375
v 143.49452209472656 5.2818760871887207 -311.5509033203125
v 128 5.7978267669677734 -310.73434448242188
v 128.3824462890625 5.4438199996948242 -294.75387620925903
v 128 5.432197093963623 -294.73364305496216
v 138.65061950683594 2.5487759113311768 -256
v 145.16867065429688 3.1810040473937988 -279.63339233398438
v 138.16752624511719 2.5777359008789062 -256
v 130.41581726074219 3.0154500007629395 -256
v 128 3.1549549102783203 -256
v 128 6.0513949394226074 -320
v 134.10835266113281 5.8391852378845215 -320
v 128 6.0380768775939941 -319.51333618164062
v 143.05268859863281 6.09921407699585 -320
v 144.32839965820313 3.5869579315185547 -295.58987379074097
v 159.44667100906372 4.6749157905578613 -312.39129638671875
v 154.40962219238281 3.1715199947357178 -256.1220703125
v 161.12576305866242 3.5730490684509277 -280.47732496261597
v 152.1059718132019 3.0414199829101562 -256
v 146.41395568847656 2.7266368865966797 -256
v 154.41601610183716 3.1635808944702148 -256
v 154.29977416992188 3.1592199802398682 -256
v 161.89856004714966 3.2895050048828125 -256
v 162.38800001144409 3.3335990905761719 -256.54391479492188
v 150.99928283691406 5.7572989463806152 -320
v 159.04895001649857 5.4412050247192383 -320
v 175.40242004394531 4.7910118103027344 -313.23428344726562
v 167.88828992843628 5.4584407806396484 -320
v 160.28398099541664 3.6723690032958984 -296.43270874023438
v 177.08662414550781 4.7213530540466309 -281.32391405105591
v 170.36593627929688 3.406303882598877 -256.9654541015625
v 162.41659498214722 3.3096029758453369 -256
v 169.49723815917969 3.3574941158294678 -256
v 170.41677856445313 3.3814949989318848 -256
v 177.09648132324219 3.7477550506591797 -256
v 178.34574890136719 3.8559370040893555 -257.3883056640625
v 175.04615783691406 4.9670109748840332 -320
v 191.36788940429688 6.8669581413269043 -314.08416748046875
v 184.78668212890625 6.2165541648864746 -320
v 176.2470703125 5.2693939208984375 -297.28091430664062
v 192 5.743812084197998 -283.11193799972534
v 192 5.7062010765075684 -282.11468505859375
v 186.32334899902344 3.8597590923309326 -257.80960083007812
v 192 5.4770450592041016 -278.376708984375
v 178.41899108886719 3.8452410697937012 -256
v 184.69522094726563 3.8456931114196777 -256
v 186.41848754882813 3.7850220203399658 -256
v 192 3.4523370265960693 -258.1080322265625
v 192 3.37677001953125 -256.08877563476562
v 192 3.3734469413757324 -256
v 191.05593872070313 6.9332351684570312 -320
v 192 6.9171900749206543 -320
v 192 6.9141550064086914 -319.70550537109375
v 192 6.8565587997436523 -314.11749267578125
v 192 6.6348438262939453 -298.11724853515625
v 192 6.7061629295349121 -302.09466552734375
vt 0.34581801295280457 0.019252002239227295
vt 0.27987200021743774 0.0214729905128479
vt 0.3474310040473938 0.037694990634918213
vt 0.36350500583648682 0.018725991249084473
vt 0.69960802793502808 0.0083460211753845215
vt 0.85064697265625 0.23963302373886108
vt 0.83197999000549316 0.0050169825553894043
vt 0.58974498510360718 0.017665982246398926
vt 0.58924901485443115 0.011878013610839844
vt 0.0062029999680817127 0.19255000352859497
vt 0.36631101369857788 0.2795100212097168
vt 0.0059750000946223736 0.185217022895813
vt 0.0022909999825060368 0.067569971084594727
vt 0.0011439999798312783 0.03090202808380127
vt 0.97244799137115479 0.0011249780654907227
vt 0.97400397062301636 0.092970013618469238
vt 0.96507102251052856 0.0013290047645568848
vt 0.9790310263633728 0.22853201627731323
vt 0.60789698362350464 0.26069700717926025
vt 0.87073498964309692 0.48114699125289917
vt 0.013578999787569046 0.42869001626968384
vt 0.38532999157905579 0.52108699083328247
vt 0.013020999729633331 0.39658600091934204
vt 0.010041999630630016 0.31021302938461304
vt 0.013550000265240669 0.43029302358627319
vt 0.011838000267744064 0.42987102270126343
vt 0.014630000106990337 0.542248010635376
vt 0.02308100089430809 0.54946398735046387
vt 0.982666015625 0.34906101226806641
vt 0.98639202117919922 0.47113299369812012
vt 0.88968300819396973 0.72264900803565979
vt 0.98965901136398315 0.60600998997688293
vt 0.626820981502533 0.50218701362609863
vt 0.40446099638938904 0.763267993927002
vt 0.03256399929523468 0.67021399736404419
vt 0.014840999618172646 0.55010500550270081
vt 0.017581000924110413 0.65741801261901855
vt 0.0179469995200634 0.67135798931121826
vt 0.020602000877261162 0.77272899448871613
vt 0.042148001492023468 0.79117199778556824
vt 0.9921259880065918 0.71475300192832947
vt 0.90889197587966919 0.966329000890255
vt 0.995963990688324 0.86379200220108032
vt 0.64615797996521 0.74497100710868835
vt 0.43731701374053955 0.98912699986249208
vt 0.42219099402427673 0.98947400040924549
vt 0.051474999636411667 0.911922998726368
vt 0.36609798669815063 0.99092100001871586
vt 0.021136000752449036 0.79282599687576294
vt 0.023447999730706215 0.8879150003194809
vt 0.024062000215053558 0.91404899954795837
vt 0.057374000549316406 0.99812100001145154
vt 0.027276000007987022 0.99884200002998114
vt 0.025930000469088554 0.99887500004842877
vt 0.99844199419021606 0.9594230018556118
vt 0.99885499477386475 0.97296899929642677
vt 0.99439102411270142 0.97302800044417381
vt 0.90971899032592773 0.975891999900341
vt 0.665149986743927 0.98426700010895729
vt 0.72754001617431641 0.98206000030040741
vn -0.04510900005698204 0.99729198217391968 0.058088000863790512
vn 0.048611000180244446 0.99793398380279541 0.0420060008764267
vn 0.015163999982178211 0.99807602167129517 0.0601160004734993
vn -0.030238000676035881 0.99547398090362549 0.090097002685070038
vn 0.033332999795675278 0.99921602010726929 0.021368000656366348
vn 0.041687998920679092 0.99591898918151855 0.080049000680446625
vn 0.034545999020338058 0.99910902976989746 0.024226000532507896
vn 0.027989000082015991 0.99809098243713379 0.055059999227523804
vn -0.027370000258088112 0.99805700778961182 0.055980999022722244
vn 0.025530999526381493 0.99910300970077515 0.033769000321626663
vn 0.019657999277114868 0.99929898977279663 0.031876001507043838
vn 0.05846799910068512 0.99733299016952515 0.043687999248504639
vn 0.056935001164674759 0.99738597869873047 0.044502001255750656
vn 0.057594001293182373 0.99734902381896973 0.04446600005030632
vn 0.034706998616456985 0.99902302026748657 0.027340000495314598
vn 0.019827999174594879 0.99884098768234253 0.043857000768184662
vn 0.034706998616456985 0.99902302026748657 0.027340000495314598
vn 0.0057370001450181007 0.99536597728729248 0.095987997949123383
vn 0.060901999473571777 0.99666202068328857 0.054363999515771866
vn 0.013931999914348126 0.99623101949691772 0.085610002279281616
vn -0.03292899951338768 0.99869900941848755 0.0389380007982254
vn -0.041469000279903412 0.99900197982788086 0.016572000458836555
vn -0.0551769994199276 0.99822098016738892 0.022608999162912369
vn -0.039590999484062195 0.99898898601531982 0.021291999146342278
vn -0.026768999174237251 0.99744200706481934 0.066276997327804565
vn -0.049247000366449356 0.99720597267150879 0.056168001145124435
vn -0.02263999916613102 0.9979100227355957 0.060524001717567444
vn -0.015699999406933784 0.99941200017929077 0.030469000339508057
vn 0.041921000927686691 0.99459898471832275 0.094944998621940613
vn 0.019259000197052956 0.99488198757171631 0.099189996719360352
vn -0.069254003465175629 0.99734199047088623 0.0226610004901886
vn 0.014488999731838703 0.99650901556015015 0.08221299946308136
vn -0.035978998988866806 0.9989510178565979 0.028319999575614929
vn -0.066113002598285675 0.99707198143005371 0.038437001407146454
vn -0.037429999560117722 0.99886602163314819 0.029427999630570412
vn -0.022221000865101814 0.99873000383377075 0.045228000730276108
vn -0.011912000365555286 0.99913698434829712 0.03979400172829628
vn -0.040878999978303909 0.99877697229385376 0.027817999944090843
vn -0.059730999171733856 0.99792599678039551 0.02401299960911274
vn -0.029258999973535538 0.99924099445343018 0.025699000805616379
vn -0.026269000023603439 0.99927997589111328 0.027378000319004059
vn -0.048608999699354172 0.99875402450561523 0.011319000273942947
vn -0.12401500344276428 0.99185901880264282 0.028914999216794968
vn -0.094944000244140625 0.99536699056625366 0.015154000371694565
vn -0.069017998874187469 0.99667298793792725 0.043363001197576523
vn -0.063231997191905975 0.99679899215698242 0.0489250011742115
vn 0.031897999346256256 0.99831497669219971 0.048470001667737961
vn -0.050675999373197556 0.99663800001144409 0.064383000135421753
vn -0.0355909988284111 0.99932098388671875 0.0095769995823502541
vn 0.0093360003083944321 0.99982601404190063 0.016171000897884369
vn 0.054999001324176788 0.997750997543335 0.038316000252962112
vn 0.075033001601696014 0.99477899074554443 0.069168001413345337
vn 0.073487997055053711 0.9965980052947998 0.037298001348972321
vn 0.073487997055053711 0.9965980052947998 0.037300001829862595
vn -0.050553001463413239 0.99862498044967651 0.013852999545633793
vn 0.016992999240756035 0.99980199337005615 0.010304000228643417
vn 0.016992000862956047 0.99980300664901733 0.01030499953776598
vn 0.01704699918627739 0.9997900128364563 0.011369000189006329
vn -0.08430500328540802 0.99572497606277466 0.037737999111413956
vn -0.083688996732234955 0.99633300304412842 0.017774000763893127
f 1/1/1 2/2/2 3/3/3
f 4/4/4 1/1/1 3/3/3
f 5/5/5 6/6/6 7/7/7
f 5/5/5 8/8/8 6/6/6
f 4/4/4 8/8/8 9/9/9
f 4/4/4 3/3/3 8/8/8
f 3/3/3 10/10/10 11/11/11
f 3/3/3 12/12/12 10/10/10
f 12/12/12 3/3/3 13/13/13
f 14/14/14 3/3/3 2/2/2
f 14/14/14 13/13/13 3/3/3
f 8/8/8 3/3/3 11/11/11
f 9/9/9 8/8/8 5/5/5
f 15/15/15 6/6/6 16/16/16
f 15/15/15 17/17/17 6/6/6
f 17/17/17 7/7/7 6/6/6
f 16/16/16 6/6/6 18/18/18
f 19/19/19 20/20/20 6/6/6
f 11/11/11 19/19/19 8/8/8
f 11/11/11 21/21/21 22/22/22
f 11/11/11 23/23/23 21/21/21
f 11/11/11 24/24/24 23/23/23
f 24/24/24 11/11/11 10/10/10
f 19/19/19 11/11/11 22/22/22
f 19/19/19 6/6/6 8/8/8
f 25/25/25 21/21/21 26/26/26
f 21/21/21 27/27/27 28/28/28
f 21/21/21 25/25/25 27/27/27
f 23/23/23 26/26/26 21/21/21
f 29/29/29 6/6/6 20/20/20
f 29/29/29 18/18/18 6/6/6
f 30/30/30 31/31/31 32/32/32
f 30/30/30 20/20/20 31/31/31
f 33/33/33 20/20/20 19/19/19
f 22/22/22 34/34/34 33/33/33
f 22/22/22 35/35/35 34/34/34
f 22/22/22 33/33/33 19/19/19
f 20/20/20 33/33/33 31/31/31
f 29/29/29 20/20/20 30/30/30
f 36/36/36 28/28/28 27/27/27
f 28/28/28 37/37/37 35/35/35
f 28/28/28 36/36/36 37/37/37
f 38/38/38 35/35/35 37/37/37
f 35/35/35 39/39/39 40/40/40
f 35/35/35 38/38/38 39/39/39
f 22/22/22 28/28/28 35/35/35
f 28/28/28 22/22/22 21/21/21
f 41/41/41 42/42/42 43/43/43
f 41/41/41 31/31/31 42/42/42
f 44/44/44 31/31/31 33/33/33
f 34/34/34 45/45/45 44/44/44
f 34/34/34 46/46/46 45/45/45
f 46/46/46 47/47/47 48/48/48
f 46/46/46 34/34/34 47/47/47
f 34/34/34 44/44/44 33/33/33
f 31/31/31 44/44/44 42/42/42
f 32/32/32 31/31/31 41/41/41
f 49/49/49 40/40/40 39/39/39
f 40/40/40 50/50/50 47/47/47
f 40/40/40 49/49/49 50/50/50
f 50/50/50 51/51/51 47/47/47
f 52/52/52 47/47/47 53/53/53
f 53/53/53 51/51/51 54/54/54
f 53/53/53 47/47/47 51/51/51
f 34/34/34 40/40/40 47/47/47
f 40/40/40 34/34/34 35/35/35
f 43/43/43 42/42/42 55/55/55
f 56/56/56 55/55/55 57/57/57
f 57/57/57 42/42/42 58/58/58
f 57/57/57 55/55/55 42/42/42
f 59/59/59 44/44/44 45/45/45
f 48/48/48 47/47/47 52/52/52
f 58/58/58 42/42/42 60/60/60
f 44/44/44 60/60/60 42/42/42
f 44/44/44 59/59/59 60/60/60
