mtllib m3000122.mtl
usemtl material0
v 129.16960144042969 2.3102929592132568 -128
v 128 2.3932089805603027 -126.72880554199219
v 129.2337646484375 2.4079430103302 -126.79400634765625
v 128 2.3106439113616943 -127.75945281982422
v 128 2.2913739681243896 -128
v 137.1705322265625 2.5274720191955566 -128
v 137.21218919754028 2.5803511142730713 -127.21587371826172
v 130.31871032714844 2.3554599285125732 -128
v 137.91764783859253 2.563323974609375 -128
v 137.63627576828003 3.1758010387420654 -119.24042510986328
v 128 2.9732649326324463 -120.30986785888672
v 129.65850830078125 3.1357159614562988 -118.81901597976685
v 145.17352294921875 3.1450679302215576 -128
v 145.1927490234375 3.1804659366607666 -127.63923645019531
v 145.517333984375 3.1852359771728516 -128
v 151.97168016433716 4.047083854675293 -128
v 145.61590600013733 3.5884199142456055 -119.66313219070435
v 128 3.1731629371643066 -118.73155212402344
v 128 3.3783400058746338 -116.97512817382813
v 130.08451843261719 4.1183481216430664 -110.84491002559662
v 138.06141710281372 3.9807019233703613 -111.26570099592209
v 128 4.1502289772033691 -110.73493194580078
v 128 4.3381662368774414 -105.12344408035278
v 130.50694274902344 4.3797821998596191 -102.86829376220703
v 128 4.4070749282836914 -102.73599243164063
v 128 4.5661811828613281 -100.08150482177734
v 138.48454284667969 4.3827590942382812 -103.28958129882813
v 146.04069495201111 4.3249621391296387 -111.68817099928856
v 128 4.6954121589660645 -96
v 130.87057495117188 4.5830111503601074 -96
v 138.14288282394409 4.5917220115661621 -96
v 138.87043809890747 4.5930981636047363 -96
v 153.17875671386719 4.2005739212036133 -128
v 153.59628295898438 4.1523838043212891 -120.08637237548828
v 153.11773681640625 4.196293830871582 -128
v 160 4.6428818702697754 -126.76750946044922
v 160 4.6209712028503418 -120.42604064941406
v 160 4.6443867683410645 -127.20294952392578
v 160 4.6520237922668457 -128
v 160 4.3260149955749512 -114.32637810707092
v 154.01902770996094 4.4778008460998535 -112.10997799783945
v 146.46343994140625 4.648406982421875 -103.71177673339844
v 154.44252014160156 4.9521222114562988 -104.13410186767578
v 160 4.5312910079956055 -110.31195795536041
v 160 4.6363692283630371 -104.42656707763672
v 160 4.4045758247375488 -112.42558300495148
v 154.85977172851563 4.16668176651001 -96.153854370117188
v 146.86872911453247 4.2941699028015137 -96
v 146.58599901199341 4.2854690551757812 -96
v 160 4.3163590431213379 -99.1290512084961
v 151.94367980957031 4.2088041305541992 -96
v 154.7213134765625 4.150841236114502 -96
v 160 3.9927220344543457 -96
v 154.86776733398438 4.1442470550537109 -96
v 160 3.9996240139007568 -96.047836303710938
v 160 4.0540328025817871 -96.424934387207031
vt 0.0391170009970665 0.0073490142822265625
vt 0.0014299999456852675 0.044179022312164307
vt 0.040173999965190887 0.0426030158996582
vt 0.0014039999805390835 0.012246012687683106
vt 0.0013940000208094716 0.0047389864921569824
vt 0.28502801060676575 0.0033460259437561035
vt 0.28651699423789978 0.027698993682861328
vt 0.073124997317790985 0.0044119954109191895
vt 0.30822399258613586 0.0033659934997558594
vt 0.30140200257301331 0.27499902248382568
vt 0.0031139999628067017 0.24369102716445923
vt 0.05479700118303299 0.28967297077178955
vt 0.533266007900238 0.0028719902038574219
vt 0.53396201133728027 0.014123976230621338
vt 0.54394501447677612 0.0029109716415405273
vt 0.74536299705505371 0.0029339790344238281
vt 0.54857200384140015 0.2611839771270752
vt 0.0034680000972002745 0.292900025844574
vt 0.0039690001867711544 0.34767597913742065
vt 0.069831997156143188 0.538006991147995
vt 0.31659099459648132 0.52295500040054321
vt 0.0053590000607073307 0.54198798537254333
vt 0.0066579999402165413 0.71554499864578247
vt 0.084767997264862061 0.78457500040531158
vt 0.0073400000110268593 0.78916800022125244
vt 0.0076430002227425575 0.8714900016784668
vt 0.331279993057251 0.77002499997615814
vt 0.5636259913444519 0.50889301300048828
vt 0.0083149997517466545 0.99772100010886788
vt 0.097058996558189392 0.9970189998857677
vt 0.32172098755836487 0.99585000006482
vt 0.34418898820877075 0.995769000146538
vt 0.78294801712036133 0.00284498929977417
vt 0.796205997467041 0.24760401248931885
vt 0.78106200695037842 0.0028539896011352539
vt 0.99426102638244629 0.04023897647857666
vt 0.994858980178833 0.23615199327468872
vt 0.99418002367019653 0.026835978031158447
vt 0.99423301219940186 0.0022779703140258789
vt 0.99523299932479858 0.42499899864196777
vt 0.81049400568008423 0.49453800916671753
vt 0.57822102308273315 0.75576299428939819
vt 0.82531797885894775 0.7413800060749054
vt 0.99580800533294678 0.549223005771637
vt 0.99735802412033081 0.73153901100158691
vt 0.9955260157585144 0.48385202884674072
vt 0.83851701021194458 0.989125999622047
vt 0.59136497974395752 0.99458200018852949
vt 0.58261299133300781 0.99458499997854233
vt 0.99838501214981079 0.89643099904060364
vt 0.747937023639679 0.99401099979877472
vt 0.83419501781463623 0.99393700016662478
vt 0.998524010181427 0.99370200000703335
vt 0.8387330174446106 0.99393300013616681
vt 0.99849897623062134 0.99215300008654594
vt 0.99860602617263794 0.98055299930274487
vn -0.027234999462962151 0.99648398160934448 -0.079236999154090881
vn -0.016394000500440598 0.99623900651931763 -0.0850830003619194
vn -0.020624000579118729 0.9965050220489502 -0.080953001976013184
vn -0.01612200029194355 0.9966769814491272 -0.079842999577522278
vn -0.01612200029194355 0.9966769814491272 -0.07984200119972229
vn -0.036037001758813858 0.9972119927406311 -0.0653349980711937
vn -0.045138999819755554 0.99657297134399414 -0.069314002990722656
vn -0.02882000058889389 0.99717801809310913 -0.06932300329208374
vn -0.071088001132011414 0.99379599094390869 -0.085536003112792969
vn -0.032310999929904938 0.995373010635376 -0.090489998459815979
vn -0.0080249998718500137 0.9950060248374939 -0.09949299693107605
vn -0.0022630000021308661 0.99394601583480835 -0.10984200239181519
vn -0.096868999302387238 0.99102902412414551 -0.092077001929283142
vn -0.10247000306844711 0.99222999811172485 -0.070568002760410309
vn -0.12731499969959259 0.98665499687194824 -0.10150100290775299
vn -0.12902900576591492 0.99062502384185791 -0.044867999851703644
vn -0.066648997366428375 0.99606698751449585 -0.058387000113725662
vn 0.016047999262809753 0.99256497621536255 -0.12065500020980835
vn 0.010464999824762344 0.99257397651672363 -0.12119299918413162
vn 0.00949500035494566 0.997111976146698 -0.075355999171733856
vn -0.019928999245166779 0.99726897478103638 -0.071114003658294678
vn 0.011203000321984291 0.9969940185546875 -0.076664000749588013
vn 0.012408999726176262 0.99940299987792969 -0.03223700076341629
vn 0.0098799997940659523 0.99926698207855225 -0.03698199987411499
vn 0.0085070002824068069 0.99895697832107544 -0.044868998229503632
vn 0.031798999756574631 0.99876397848129272 -0.038198001682758331
vn -0.010218000039458275 0.9995419979095459 -0.028487000614404678
vn -0.033298000693321228 0.997285008430481 -0.065678998827934265
vn 0.039106998592615128 0.99873501062393188 -0.03162200003862381
vn 0.018287999555468559 0.99936598539352417 -0.030539000406861305
vn -0.0017290000105276704 0.9995800256729126 -0.028922000899910927
vn 0.01966400071978569 0.99936002492904663 -0.02987699955701828
vn -0.068071000277996063 0.99763399362564087 0.009665999561548233
vn -0.060538001358509064 0.99815702438354492 -0.0042860000394284725
vn -0.085753999650478363 0.99630600214004517 -0.0045199999585747719
vn -0.072797000408172607 0.997340977191925 0.0034459999296814203
vn -0.07163500040769577 0.99711698293685913 0.025040000677108765
vn -0.067615002393722534 0.99767798185348511 0.00813200045377016
vn -0.066035002470016479 0.9977719783782959 0.0095600001513957977
vn -0.011463999748229981 0.9997829794883728 -0.017392000183463097
vn -0.015039999969303608 0.99846398830413818 -0.05332300066947937
vn -0.0263069998472929 0.99962002038955688 0.0082719996571540833
vn 0.00054999999701976776 0.9997900128364563 0.020502999424934387
vn 0.01996299996972084 0.9985470175743103 -0.050062000751495361
vn 0.057757999747991562 0.99813199043273926 0.019928000867366791
vn 0.0095750000327825546 0.99869102239608765 -0.050255000591278076
vn 0.020208999514579773 0.99363899230957031 0.11078199744224548
vn -0.0061769997701048851 0.9989129900932312 0.046209000051021576
vn -0.014276999980211258 0.99947100877761841 0.029207000508904457
vn 0.035645999014377594 0.99558097124099731 0.086883001029491425
vn 0.016868999227881432 0.99878597259521484 0.046282000839710236
vn 0.027120999991893768 0.991595983505249 0.12650200724601746
vn 0.029208999127149582 0.98932701349258423 0.142753005027771
vn 0.036591000854969025 0.98914200067520142 0.14233599603176117
vn 0.029208999127149582 0.98932802677154541 0.14274799823760986
vn 0.028023000806570053 0.99250698089599609 0.11893399804830551
f 1/1/1 2/2/2 3/3/3
f 1/1/1 4/4/4 2/2/2
f 4/4/4 1/1/1 5/5/5
f 6/6/6 3/3/3 7/7/7
f 6/6/6 8/8/8 3/3/3
f 1/1/1 3/3/3 8/8/8
f 6/6/6 7/7/7 9/9/9
f 7/7/7 3/3/3 10/10/10
f 3/3/3 11/11/11 12/12/12
f 3/3/3 2/2/2 11/11/11
f 13/13/13 14/14/14 15/15/15
f 14/14/14 9/9/9 7/7/7
f 14/14/14 13/13/13 9/9/9
f 15/15/15 14/14/14 16/16/16
f 14/14/14 7/7/7 17/17/17
f 18/18/18 19/19/19 12/12/12
f 10/10/10 12/12/12 20/20/20
f 3/3/3 12/12/12 10/10/10
f 10/10/10 20/20/20 21/21/21
f 22/22/22 12/12/12 19/19/19
f 22/22/22 20/20/20 12/12/12
f 18/18/18 12/12/12 11/11/11
f 20/20/20 23/23/23 24/24/24
f 20/20/20 22/22/22 23/23/23
f 25/25/25 26/26/26 24/24/24
f 21/21/21 24/24/24 27/27/27
f 25/25/25 24/24/24 23/23/23
f 21/21/21 27/27/27 28/28/28
f 29/29/29 24/24/24 26/26/26
f 29/29/29 30/30/30 24/24/24
f 21/21/21 20/20/20 24/24/24
f 31/31/31 27/27/27 24/24/24
f 31/31/31 32/32/32 27/27/27
f 17/17/17 10/10/10 21/21/21
f 33/33/33 17/17/17 34/34/34
f 33/33/33 35/35/35 17/17/17
f 10/10/10 17/17/17 7/7/7
f 36/36/36 34/34/34 37/37/37
f 36/36/36 38/38/38 34/34/34
f 39/39/39 34/34/34 38/38/38
f 39/39/39 33/33/33 34/34/34
f 37/37/37 34/34/34 40/40/40
f 34/34/34 17/17/17 41/41/41
f 41/41/41 28/28/28 42/42/42
f 28/28/28 41/41/41 17/17/17
f 41/41/41 42/42/42 43/43/43
f 42/42/42 28/28/28 27/27/27
f 44/44/44 43/43/43 45/45/45
f 43/43/43 46/46/46 41/41/41
f 43/43/43 44/44/44 46/46/46
f 42/42/42 47/47/47 43/43/43
f 40/40/40 41/41/41 46/46/46
f 40/40/40 34/34/34 41/41/41
f 27/27/27 48/48/48 42/42/42
f 27/27/27 49/49/49 48/48/48
f 28/28/28 17/17/17 21/21/21
f 16/16/16 17/17/17 35/35/35
f 16/16/16 14/14/14 17/17/17
f 45/45/45 43/43/43 50/50/50
f 31/31/31 24/24/24 30/30/30
f 51/51/51 52/52/52 47/47/47
f 53/53/53 47/47/47 54/54/54
f 53/53/53 55/55/55 47/47/47
f 55/55/55 56/56/56 47/47/47
f 47/47/47 50/50/50 43/43/43
f 47/47/47 56/56/56 50/50/50
f 54/54/54 47/47/47 52/52/52
f 42/42/42 51/51/51 47/47/47
f 42/42/42 48/48/48 51/51/51
f 49/49/49 27/27/27 32/32/32
