mtllib m300000212.mtl
usemtl material0
v 16 2.1525371074676514 -46.815891027450562
v 16 2.0452780723571777 -45.277583956718445
v 17.451750040054321 1.8451930284500122 -46.89157509803772
v 16 1.8354129791259766 -42.815001964569092
v 16 1.6083840131759644 -41.0556640625
v 17.661803960800171 1.74025297164917 -42.902454018592834
v 16 1.6094950437545776 -40.814346075057983
v 16.949970006942749 1.6749169826507568 -40
v 17.767179012298584 1.7583370208740234 -40.908138036727905
v 16 1.6066709756851196 -40.646941900253296
v 16 1.5957560539245606 -40
v 16 1.8799159526824951 -43.166518986225128
v 17.55779504776001 1.999506950378418 -44.897728025913239
v 16 2.0822238922119141 -44.81573098897934
v 16 2.2931170463562012 -47.388484954833984
v 16.550230026245117 2.3197228908538818 -48
v 16 2.3157939910888672 -48
v 17.394690036773682 2.1301379203796387 -48
v 18.449538946151733 2.1390581130981445 -48
v 19.553534001111984 2.2735099792480469 -45.003993988037109
v 18.84966504573822 1.706449031829834 -40
v 19.761823996901512 1.8096870183944702 -41.013633966445923
v 17.814743041992188 1.6843279600143433 -40
v 19.657510995864868 2.0074200630187988 -43.008693993091583
v 19.448269009590149 2.2773959636688232 -46.998383045196533
v 20.447324991226196 2.3793239593505859 -48
v 21.443060040473938 2.3585300445556641 -47.103981018066406
v 19.395712018013 2.3401479721069336 -48
v 21.54781699180603 2.2511301040649414 -45.109233975410461
v 19.814775004982948 1.7000490427017212 -40
v 20.749352991580963 1.7355829477310181 -40
v 21.75664496421814 1.8971689939498901 -41.119255065917969
v 21.395912051200867 2.3885700702667236 -48
v 22.249277114868164 2.3948049545288086 -48
v 21.652531027793884 2.1349399089813232 -43.114452004432678
v 23.542740106582642 2.3591179847717285 -45.214923977851868
v 21.815284967422485 1.8095149993896484 -40
v 23.752310037612915 2.1555440425872803 -41.225464105606079
v 22.649312973022461 1.9137289524078369 -40
v 23.647562026977539 2.2648999691009521 -43.220219016075134
v 23.43766188621521 2.4010889530181885 -47.209445953369141
v 23.396013021469116 2.4179179668426514 -48
v 24 2.4114360809326172 -47.239177942276
v 24 2.3781559467315674 -45.72311794757843
v 23.816592931747437 2.0754659175872803 -40
v 24 2.3038070201873779 -43.238955974578857
v 24 2.1987290382385254 -41.500679016113281
v 24 2.1936678886413574 -41.238667011260986
v 24 2.1648221015930176 -40.844681024551392
v 24 2.1029789447784424 -40
v 24 2.3016939163208008 -43.611874014139175
v 24 2.3827509880065918 -45.239146947860718
v 24 2.4153480529785156 -47.834441900253296
v 24 2.41888689994812 -48
vt 0.82159501314163208 0.012426972389221191
vt 0.63690400123596191 0.021822988986968994
vt 0.83712601661682129 0.18993997573852539
vt 0.33982700109481812 0.033784985542297363
vt 0.12728099524974823 0.04285198450088501
vt 0.3572709858417511 0.232915997505188
vt 0.098365001380443573 0.044018983840942383
vt 0.0058039999566972256 0.16238600015640259
vt 0.11836300045251846 0.24991798400878906
vt 0.0783040001988411 0.044874012470245361
vt 0.0007789999945089221 0.048175990581512451
vt 0.38227999210357666 0.031979978084564209
vt 0.597815990447998 0.21018099784851074
vt 0.581367015838623 0.023563981056213379
vt 0.89203500747680664 0.0062749981880187988
vt 0.9696199893951416 0.0672919750213623
vt 0.96526199579238892 0.0014479756355285645
vt 0.97323799133300781 0.17102199792861939
vt 0.98465800285339355 0.29701298475265503
vt 0.61497199535369873 0.45149201154708862
vt 0.012168999761343002 0.38211101293563843
vt 0.13669200241565704 0.48883700370788574
vt 0.009243999607861042 0.25800400972366333
vt 0.37385499477386475 0.46865200996398926
vt 0.85389202833175659 0.43467998504638672
vt 0.97583800554275513 0.55326300859451294
vt 0.871097981929779 0.67381998896598816
vt 0.974170982837677 0.42707198858261108
vt 0.63177698850631714 0.69041499495506287
vt 0.014588999561965466 0.49782997369766235
vt 0.015654999762773514 0.608132004737854
vt 0.15175199508666992 0.72470098733901978
vt 0.97849899530410767 0.6662839949131012
vt 0.98029500246047974 0.76863400638103485
vt 0.39246401190757751 0.70800599455833435
vt 0.64904999732971191 0.92971900105476379
vt 0.017272999510169029 0.73430699110031128
vt 0.17157599329948425 0.96555000171065331
vt 0.02021699957549572 0.83506299555301666
vt 0.41048699617385864 0.94742599874734879
vt 0.888031005859375 0.9128120020031929
vt 0.98275798559188843 0.90616200119256973
vt 0.89283597469329834 0.9801850002259016
vt 0.71100801229476929 0.983457999303937
vt 0.024491000920534134 0.97632200084626675
vt 0.41381201148033142 0.98987799976021051
vt 0.20550200343132019 0.99466199986636639
vt 0.17408700287342072 0.99554099980741739
vt 0.12672099471092224 0.99648500001057982
vt 0.025183999910950661 0.99855200003366917
vt 0.45851999521255493 0.98871599975973368
vt 0.65297597646713257 0.98456500004976988
vt 0.96421301364898682 0.978880999609828
vt 0.98406898975372314 0.97852599993348122
vn 0.21225099265575409 0.965624988079071 0.15005800127983093
vn 0.08730199933052063 0.99517202377319336 -0.044844001531600952
vn 0.0046529998071491718 0.99663901329040527 0.081788003444671631
vn 0.0633469969034195 0.98993301391601562 0.126569002866745
vn -0.049885999411344528 0.99840599298477173 0.02640100009739399
vn -0.05156400054693222 0.99541699886322021 0.08054099977016449
vn -0.083585001528263092 0.99647998809814453 0.00647500017657876
vn -0.063828997313976288 0.9973750114440918 0.034178998321294785
vn -0.057395000010728836 0.99738001823425293 0.0440329983830452
vn -0.083030000329017639 0.99640500545501709 0.016809999942779541
vn -0.083030998706817627 0.99640500545501709 0.016809999942779541
vn 0.062293000519275665 0.99026697874069214 0.12445999681949616
vn -0.04922499880194664 0.99806100130081177 0.038082998245954514
vn 0.054287001490592957 0.99822801351547241 0.024358000606298447
vn 0.16267099976539612 0.96850597858428955 0.18850700557231903
vn 0.15505999326705933 0.97103899717330933 0.181768998503685
vn -0.007135000079870224 0.999288022518158 0.037057999521493912
vn 0.10831200331449509 0.96414202451705933 0.24227799475193024
vn -0.15494099259376526 0.98054897785186768 0.12048699706792831
vn -0.058136001229286194 0.99588501453399658 0.06951499730348587
vn -0.013837000355124474 0.99593698978424072 0.088985003530979156
vn -0.025952000170946121 0.99453699588775635 0.10110799968242645
vn -0.01624000072479248 0.99649500846862793 0.082060001790523529
vn -0.067754998803138733 0.99279999732971191 0.098780997097492218
vn -0.1089090034365654 0.99344801902771 0.034641001373529434
vn -0.030755000188946724 0.99788099527359009 0.057335998862981796
vn -0.023305000737309456 0.99862498044967651 0.046952001750469208
vn -0.12510700523853302 0.98977100849151611 0.068575002253055573
vn -0.030169999226927757 0.99795800447463989 0.05630899965763092
vn -0.016300000250339508 0.99397802352905273 0.10836400091648102
vn -0.046077001839876175 0.9937170147895813 0.10199400037527084
vn -0.079101003706455231 0.99229300022125244 0.095379002392292023
vn -0.008561999537050724 0.99938702583312988 0.033955998718738556
vn -0.016720000654459 0.99953699111938477 0.025421999394893646
vn -0.05803300067782402 0.99426901340484619 0.089786000549793243
vn -0.048234999179840088 0.99826300144195557 0.033822000026702881
vn -0.097065001726150513 0.99183100461959839 0.082759998738765717
vn -0.1330219954252243 0.98913002014160156 0.062661997973918915
vn -0.12707799673080444 0.98860502243041992 0.080698996782302856
vn -0.085005000233650208 0.99481099843978882 0.055904000997543335
vn -0.020703999325633049 0.99948799610137939 0.024380000308156013
vn -0.011184000410139561 0.9996979832649231 0.021870000287890434
vn -0.01765500009059906 0.99974602460861206 0.0139979999512434
vn -0.02537900023162365 0.99957102537155151 0.014611000195145607
vn -0.1425819993019104 0.98716199398040771 0.071985997259616852
vn -0.10832300037145615 0.99377501010894775 0.026030000299215317
vn -0.11689399927854538 0.99186301231384277 0.050430998206138611
vn -0.14964799582958221 0.98773002624511719 0.044658001512289047
vn -0.14796599745750427 0.98635202646255493 0.0722149983048439
vn -0.14796499907970429 0.98635202646255493 0.0722149983048439
vn -0.06325799971818924 0.99731999635696411 0.036768998950719833
vn -0.050597000867128372 0.998537003993988 0.019098000600934029
vn -0.005439000204205513 0.99982500076293945 0.017917999997735023
vn -0.0016029999824240804 0.99976998567581177 0.021367000415921211
f 1/1/1 2/2/2 3/3/3
f 4/4/4 5/5/5 6/6/6
f 7/7/7 8/8/8 9/9/9
f 7/7/7 10/10/10 8/8/8
f 10/10/10 11/11/11 8/8/8
f 12/12/12 13/13/13 14/14/14
f 15/15/15 16/16/16 17/17/17
f 16/16/16 3/3/3 18/18/18
f 16/16/16 1/1/1 3/3/3
f 16/16/16 15/15/15 1/1/1
f 12/12/12 6/6/6 13/13/13
f 12/12/12 4/4/4 6/6/6
f 14/14/14 3/3/3 2/2/2
f 14/14/14 13/13/13 3/3/3
f 18/18/18 3/3/3 19/19/19
f 5/5/5 9/9/9 6/6/6
f 5/5/5 7/7/7 9/9/9
f 6/6/6 20/20/20 13/13/13
f 9/9/9 21/21/21 22/22/22
f 9/9/9 23/23/23 21/21/21
f 6/6/6 9/9/9 24/24/24
f 13/13/13 25/25/25 3/3/3
f 8/8/8 23/23/23 9/9/9
f 26/26/26 25/25/25 27/27/27
f 26/26/26 28/28/28 25/25/25
f 25/25/25 19/19/19 3/3/3
f 25/25/25 28/28/28 19/19/19
f 24/24/24 20/20/20 6/6/6
f 20/20/20 24/24/24 29/29/29
f 30/30/30 22/22/22 21/21/21
f 22/22/22 31/31/31 32/32/32
f 22/22/22 30/30/30 31/31/31
f 32/32/32 24/24/24 22/22/22
f 22/22/22 24/24/24 9/9/9
f 29/29/29 25/25/25 20/20/20
f 20/20/20 25/25/25 13/13/13
f 33/33/33 27/27/27 34/34/34
f 29/29/29 27/27/27 25/25/25
f 35/35/35 36/36/36 29/29/29
f 32/32/32 35/35/35 24/24/24
f 37/37/37 38/38/38 32/32/32
f 37/37/37 39/39/39 38/38/38
f 37/37/37 32/32/32 31/31/31
f 35/35/35 32/32/32 40/40/40
f 35/35/35 29/29/29 24/24/24
f 27/27/27 29/29/29 41/41/41
f 26/26/26 27/27/27 33/33/33
f 34/34/34 41/41/41 42/42/42
f 34/34/34 27/27/27 41/41/41
f 35/35/35 40/40/40 36/36/36
f 43/43/43 36/36/36 44/44/44
f 43/43/43 41/41/41 36/36/36
f 39/39/39 45/45/45 38/38/38
f 46/46/46 38/38/38 47/47/47
f 46/46/46 40/40/40 38/38/38
f 48/48/48 38/38/38 49/49/49
f 49/49/49 45/45/45 50/50/50
f 49/49/49 38/38/38 45/45/45
f 51/51/51 36/36/36 40/40/40
f 51/51/51 52/52/52 36/36/36
f 32/32/32 38/38/38 40/40/40
f 53/53/53 42/42/42 41/41/41
f 53/53/53 54/54/54 42/42/42
f 29/29/29 36/36/36 41/41/41
f 53/53/53 41/41/41 43/43/43
f 46/46/46 51/51/51 40/40/40
f 44/44/44 36/36/36 52/52/52
f 48/48/48 47/47/47 38/38/38
