mtllib m300000101.mtl
usemtl material0
v 41.505814075469971 2.132889986038208 -8
v 40 2.3101251125335693 -7.6122419834136963
v 41.602364063262939 2.11181902885437 -6.1690490245819092
v 40 2.3121531009674072 -8
v 43.506451010704041 2.2669169902801514 -8
v 41.678997039794922 2.1425549983978271 -8
v 43.597312986850739 2.2246789932250977 -6.2747559547424316
v 47.50550103187561 2.0994110107421875 -8
v 45.9035609960556 2.3319060802459717 -8
v 47.584881067276 1.9777469635009766 -6.4845418930053711
v 45.149814963340759 2.38476300239563 -8
v 40 1.9365019798278809 -6.0838758945465088
v 41.7052800655365 1.6308660507202148 -4.1730169951915741
v 43.701366007328033 1.9746789932250977 -4.2795180082321167
v 45.5905339717865 1.9869580268859863 -6.379256010055542
v 45.50676703453064 2.3382608890533447 -8
v 48 2.0130479335784912 -6.9458649158477783
v 48 1.9933069944381714 -6.5065131187438965
v 47.687804937362671 1.4982589483261108 -4.4885149896144867
v 40 1.8442920446395874 -5.708920955657959
v 48 1.9408669471740723 -6.110774040222168
v 40 1.4655590057373047 -4.0824399963021278
v 40 1.4495209455490112 -3.8061600029468536
v 41.810043096542358 1.5249049663543701 -2.1782740354537964
v 48 2.0974578857421875 -8
v 45.696316003799438 2.0880260467529297 -4.3852260112762451
v 45.80059802532196 1.8839219808578491 -2.390144944190979
v 43.805301994085312 1.7007520198822022 -2.2841969728469849
v 43.9088210016489 1.3423529863357544 -0.28858709335327148
v 40 0.89798301458358765 -2.0806980133056641
v 40 0.870993971824646 -1.9019529819488525
v 41.914016962051392 1.2587889432907105 -0.18298101425170898
v 47.793270111083984 1.5353620052337647 -2.4942640066146851
v 48 1.54270601272583 -2.50520396232605
v 48 1.518246054649353 -2.3081380128860474
v 48 1.5633490085601807 -2.7239810228347778
v 48 1.5440959930419922 -4.5051469802856445
v 47.897670984268188 1.3556699752807617 -0.49926900863647461
v 40 1.1383299827575684 -0.081523895263671875
v 40 1.1189930438995361 0
v 41.74929404258728 1.2070900201797485 0
v 40 1.1365020275115967 -0.073813915252685547
v 41.923549890518188 1.2336690425872803 0
v 43.923935003578663 1.3184070587158203 0
v 43.649089992046356 1.2932469844818115 0
v 45.905464053153992 1.7994430065155029 -0.3954770565032959
v 47.924091100692749 1.3680150508880615 0
v 46.344315052032471 1.7169209718704224 0
v 48 1.3559739589691162 -0.50467300415039062
v 48 1.3590719699859619 -0.47406005859375
v 48 1.3658289909362793 -0.40728402137756348
v 45.925246953964233 1.5848009586334229 0
v 44.228744998574257 1.2466200590133667 0
v 47.924091100692749 1.3680150508880615 0
v 48 1.3741559982299805 0
vt 0.22606900334358215 0.00987100601196289
vt 0.04242200031876564 0.046468973159790039
vt 0.22606900334358215 0.22926902770996094
vt 0.04488300159573555 0.0001379847526550293
vt 0.46566900610923767 0.022274971008300781
vt 0.24679499864578247 0.010949015617370606
vt 0.465487003326416 0.22905302047729492
vt 0.940064013004303 0.033631980419158936
vt 0.75152897834777832 0.031068027019500732
vt 0.94464302062988281 0.21573501825332642
vt 0.66254502534866333 0.032441973686218262
vt 0.032997999340295792 0.23449200391769409
vt 0.22609199583530426 0.47524499893188477
vt 0.46868199110031128 0.46828597784042358
vt 0.7059749960899353 0.22763597965240479
vt 0.70409202575683594 0.028962016105651855
vt 0.993740975856781 0.15986698865890503
vt 0.99431097507476807 0.21248698234558106
vt 0.95686298608779907 0.4613649845123291
vt 0.030680000782012939 0.28063499927520752
vt 0.99469399452209473 0.26024997234344482
vt 0.020867999643087387 0.48021399974823
vt 0.019737999886274338 0.51330798864364624
vt 0.23060999810695648 0.71454399824142456
vt 0.99921101331710815 0.035248994827270508
vt 0.70809900760650635 0.46685999631881714
vt 0.7105870246887207 0.70450401306152344
vt 0.47055798768997192 0.70958501100540161
vt 0.47152999043464661 0.95250000059604645
vt 0.0015450000064447522 0.72929099202156067
vt 0.00078900001244619489 0.75090800225734711
vt 0.23232300579547882 0.955715999007225
vt 0.95295602083206177 0.70405000448226929
vt 0.97773897647857666 0.704477995634079
vt 0.97716397047042847 0.72255998849868774
vt 0.97966200113296509 0.67825499176979065
vt 0.99453401565551758 0.45814800262451172
vt 0.96128702163696289 0.93963399901986122
vt 0.0045830002054572105 0.97103100083768368
vt 0.0046359999105334282 0.98105699941515923
vt 0.21139100193977356 0.97734799981117249
vt 0.00458399998024106 0.97197999991476536
vt 0.23247699439525604 0.977845000103116
vt 0.47190698981285095 0.987193999812007
vt 0.43890199065208435 0.98608800023794174
vt 0.71678698062896729 0.94361700117588043
vt 0.96198797225952148 0.99947099998826161
vt 0.76539897918701172 0.99587500002235174
vt 0.97354000806808472 0.93919200077652931
vt 0.97340798377990723 0.94313599914312363
vt 0.97310501337051392 0.95116100087761879
vt 0.71284502744674683 0.99736599996685982
vt 0.50591397285461426 0.99258300010114908
vt 0.96198797225952148 0.99947099998826161
vt 0.97109198570251465 0.99986199999693781
vn 0.034301001578569412 0.999364972114563 0.009692000225186348
vn 0.062371999025344849 0.99576300382614136 0.067574001848697662
vn -0.044982999563217163 0.98709899187088013 0.15366299450397492
vn 0.11821100115776062 0.99297499656677246 0.0051930001936852932
vn -0.069624997675418854 0.99717801809310913 0.02807999961078167
vn -0.058549001812934875 0.99813002347946167 0.01758899912238121
vn -0.0029029999859631062 0.99384200572967529 0.11076399683952332
vn 0.0763389989733696 0.99419498443603516 0.075816996395587921
vn 0.04542199894785881 0.98274999856948853 0.17927299439907074
vn 6.9000001531094313E-05 0.98769402503967285 0.15639899671077728
vn 0.073913998901844025 0.98468798398971558 0.15788200497627258
vn -0.093195997178554535 0.96699702739715576 0.23713299632072449
vn -0.11286299675703049 0.98452097177505493 0.13409100472927094
vn -0.080162003636360168 0.99197602272033691 0.097759000957012177
vn 0.082220003008842468 0.98753702640533447 0.13420599699020386
vn 0.073475003242492676 0.97544300556182861 0.20763400197029114
vn -0.0051429998129606247 0.99741297960281372 0.07169400155544281
vn -0.032738000154495239 0.99570298194885254 0.086623996496200562
vn 0.02680400013923645 0.99593502283096313 0.085998997092247009
vn -0.090203002095222473 0.96788698434829712 0.23464600741863251
vn -0.10261700302362442 0.972320020198822 0.20991100370883942
vn -0.088244996964931488 0.986378014087677 0.13882000744342804
vn -0.15247499942779541 0.98048102855682373 0.12413199990987778
vn -0.17417299747467041 0.97389602661132812 0.14556799829006195
vn 0.0039380001835525036 0.99680197238922119 0.079819001257419586
vn 0.11541300266981125 0.99313199520111084 0.019177999347448349
vn 0.053591001778841019 0.99521899223327637 0.081656001508235931
vn -0.080023996531963348 0.9838709831237793 0.15997999906539917
vn -0.062484998255968094 0.98286199569702148 0.17343200743198395
vn -0.30977299809455872 0.92716997861862183 0.21070599555969238
vn -0.25429001450538635 0.96490997076034546 0.065462000668048859
vn -0.092817001044750214 0.98896300792694092 0.1154870018362999
vn 0.061840999871492386 0.99681097269058228 0.050425000488758087
vn -0.029587000608444214 0.993710994720459 0.10799799859523773
vn -0.00634300010278821 0.99511200189590454 0.098553001880645752
vn -0.11918699741363525 0.99277698993682861 0.013695999979972839
vn -0.13795900344848633 0.98315197229385376 0.11991199851036072
vn 0.092899002134799957 0.99560302495956421 0.012032999657094479
vn -0.06008400022983551 0.9969329833984375 0.050151001662015915
vn -0.04894300177693367 0.97183597087860107 0.23051999509334564
vn -0.075588002800941467 0.97530698776245117 0.20751400291919708
vn -0.048944000154733658 0.97183698415756226 0.2305150032043457
vn -0.0904569998383522 0.98600000143051147 0.14007699489593506
vn 0.07567799836397171 0.99403601884841919 0.078518003225326538
vn -0.049261000007390976 0.991021990776062 0.12429600208997726
vn -0.051430001854896545 0.97836697101593018 0.20038299262523651
vn 0.21552400290966034 0.97585201263427734 -0.035532999783754349
vn 0.095127999782562256 0.990319013595581 0.10108400136232376
vn -0.0030940000433474779 0.9999920129776001 -0.0023610000498592854
vn -0.0082719996571540833 0.99488502740859985 -0.10067400336265564
vn -0.061423998326063156 0.99723601341247559 -0.041802998632192612
vn -0.21657800674438477 0.85345202684402466 0.47404000163078308
vn -0.07946699857711792 0.91647601127624512 0.39211800694465637
vn -0.080618999898433685 0.99653702974319458 -0.020374000072479248
vn -0.080618999898433685 0.99653702974319458 -0.020372999832034111
f 1/1/1 2/2/2 3/3/3
f 1/1/1 4/4/4 2/2/2
f 5/5/5 6/6/6 7/7/7
f 8/8/8 9/9/9 10/10/10
f 11/11/11 5/5/5 7/7/7
f 2/2/2 12/12/12 3/3/3
f 7/7/7 3/3/3 13/13/13
f 6/6/6 3/3/3 7/7/7
f 6/6/6 1/1/1 3/3/3
f 7/7/7 14/14/14 15/15/15
f 9/9/9 15/15/15 10/10/10
f 9/9/9 16/16/16 15/15/15
f 17/17/17 10/10/10 18/18/18
f 15/15/15 19/19/19 10/10/10
f 15/15/15 11/11/11 7/7/7
f 15/15/15 16/16/16 11/11/11
f 7/7/7 13/13/13 14/14/14
f 3/3/3 20/20/20 13/13/13
f 3/3/3 12/12/12 20/20/20
f 18/18/18 10/10/10 21/21/21
f 20/20/20 22/22/22 13/13/13
f 13/13/13 23/23/23 24/24/24
f 13/13/13 22/22/22 23/23/23
f 25/25/25 10/10/10 17/17/17
f 25/25/25 8/8/8 10/10/10
f 14/14/14 26/26/26 15/15/15
f 26/26/26 19/19/19 15/15/15
f 14/14/14 27/27/27 26/26/26
f 26/26/26 27/27/27 19/19/19
f 28/28/28 24/24/24 29/29/29
f 24/24/24 28/28/28 14/14/14
f 28/28/28 27/27/27 14/14/14
f 27/27/27 28/28/28 29/29/29
f 30/30/30 24/24/24 23/23/23
f 24/24/24 31/31/31 32/32/32
f 24/24/24 30/30/30 31/31/31
f 33/33/33 19/19/19 27/27/27
f 34/34/34 33/33/33 35/35/35
f 36/36/36 33/33/33 34/34/34
f 33/33/33 37/37/37 19/19/19
f 33/33/33 36/36/36 37/37/37
f 21/21/21 19/19/19 37/37/37
f 21/21/21 10/10/10 19/19/19
f 33/33/33 27/27/27 38/38/38
f 31/31/31 39/39/39 32/32/32
f 40/40/40 41/41/41 42/42/42
f 42/42/42 32/32/32 39/39/39
f 42/42/42 41/41/41 32/32/32
f 43/43/43 32/32/32 41/41/41
f 44/44/44 29/29/29 45/45/45
f 27/27/27 29/29/29 46/46/46
f 46/46/46 47/47/47 38/38/38
f 46/46/46 48/48/48 47/47/47
f 35/35/35 38/38/38 49/49/49
f 35/35/35 33/33/33 38/38/38
f 49/49/49 38/38/38 50/50/50
f 50/50/50 38/38/38 51/51/51
f 38/38/38 27/27/27 46/46/46
f 29/29/29 52/52/52 46/46/46
f 29/29/29 53/53/53 52/52/52
f 43/43/43 29/29/29 32/32/32
f 43/43/43 45/45/45 29/29/29
f 29/29/29 24/24/24 32/32/32
f 44/44/44 53/53/53 29/29/29
f 54/54/54 51/51/51 38/38/38
f 54/54/54 55/55/55 51/51/51
f 48/48/48 46/46/46 52/52/52
f 13/13/13 24/24/24 14/14/14
