mtllib m30000232.mtl
usemtl material0
v 36.492801904678345 5.92232608795166 -128
v 37.29876708984375 5.9932551383972168 -125.95056915283203
v 37.863861083984375 6.0144081115722656 -128
v 33.188285827636719 5.5269999504089355 -128
v 32 5.4905300140380859 -125.66914415359497
v 33.307612895965576 5.5131440162658691 -125.73826599121094
v 32 5.501561164855957 -127.24074602127075
v 32 5.506889820098877 -128
v 33.517670154571533 5.4087839126586914 -121.74913799762726
v 37.507671117782593 5.6550121307373047 -121.96063196659088
v 32 5.3764071464538574 -121.66889202594757
v 32 5.4475879669189453 -124.28501081466675
v 32 5.2562980651855469 -119.31405597925186
v 33.727256774902344 5.2092061042785645 -117.75968909263611
v 41.288715004920959 6.22873592376709 -126.162024974823
v 41.191601037979126 6.2118721008300781 -128
v 44.638259887695312 6.2876920700073242 -128
v 45.277931213378906 6.3148012161254883 -126.37296295166016
v 41.498188018798828 6.0057258605957031 -122.17248511314392
v 45.487784862518311 6.1699151992797852 -122.38369798660278
v 48 6.2385711669921875 -126.51646423339844
v 48 6.1919870376586914 -125.17591905593872
v 45.697720050811768 6.0406479835510254 -118.39448499679565
v 45.726334095001221 6.275026798248291 -128
v 41.707973003387451 5.8461871147155762 -118.18317401409149
v 37.717475891113281 5.4993791580200195 -117.97132897377014
v 48 6.2288351058959961 -127.08998918533325
v 48 6.2133879661560059 -128
v 48 6.10971212387085 -122.5161669254303
v 48 6.100243091583252 -120.12293200194836
v 32 5.1704549789428711 -117.66834998130798
v 32 5.0151019096374512 -115.84027099609375
v 33.937004089355469 5.0418500900268555 -113.77033996582031
v 36.143234014511108 4.8965740203857422 -112
v 37.926543951034546 5.1943302154541016 -113.98151397705078
v 34.029376983642578 4.8293957710266113 -112
v 32 4.9168620109558105 -113.66765594482422
v 32 4.7116851806640625 -112
v 32 4.8070220947265625 -112.77488708496094
v 41.917263031005859 5.5860581398010254 -114.19350385665894
v 45.907307147979736 5.8410658836364746 -114.40502882003784
v 48 6.04804801940918 -118.51609003543854
v 48 5.95867919921875 -116.73077392578125
v 46.032828807830811 5.55862283706665 -112
v 44.354239940643311 5.46205997467041 -112
v 42.031630992889404 5.306725025177002 -112
v 40.128441005945206 5.1332640647888184 -112
v 38.0302619934082 5.0205240249633789 -112
v 47.542187213897705 5.5191249847412109 -112
v 48 5.7991161346435547 -114.51540422439575
v 48 5.5661978721618652 -112.50875091552734
v 48 5.5446109771728516 -112
vt 0.0068279998376965523 0.71887001395225525
vt 0.13308799266815186 0.66796800494194031
vt 0.0062079997733235359 0.63397100567817688
vt 0.0083529995754361153 0.92448899894952774
vt 0.15283699333667755 0.99700900004245341
vt 0.14804700016975403 0.91623499989509583
vt 0.055734999477863312 0.99762100004591048
vt 0.0088250003755092621 0.99791699997149408
vt 0.39454600214958191 0.90228399634361267
vt 0.38045701384544373 0.65444299578666687
vt 0.39992600679397583 0.99605099996551871
vt 0.23839500546455383 0.99650199990719557
vt 0.54560697078704834 0.99554400006309152
vt 0.64133197069168091 0.88914500176906586
vt 0.1182050034403801 0.42112398147583008
vt 0.00469199987128377 0.42801100015640259
vt 0.0030680000782012939 0.21501398086547852
vt 0.1032940000295639 0.17470002174377441
vt 0.36502298712730408 0.40707498788833618
vt 0.35011199116706848 0.16047501564025879
vt 0.093010999262332916 0.0065320134162902832
vt 0.17658600211143494 0.0063809752464294434
vt 0.596642017364502 0.14598602056503296
vt 0.0025229998864233494 0.1477850079536438
vt 0.61161899566650391 0.39267599582672119
vt 0.62715500593185425 0.64201900362968445
vt 0.057571999728679657 0.0068140029907226562
vt 0.0013409999664872885 0.0072609782218933105
vt 0.34104898571968079 0.0052559971809387207
vt 0.48891401290893555 0.0044000148773193359
vt 0.64742499589920044 0.99552999995648861
vt 0.76077902317047119 0.99522500019520521
vt 0.88801300525665283 0.87585700303316116
vt 0.99793499708175659 0.7396869957447052
vt 0.874347984790802 0.62841901183128357
vt 0.998196005821228 0.87051300704479218
vt 0.89484697580337524 0.9957570000551641
vt 0.99865901470184326 0.99610799993388355
vt 0.95042198896408081 0.995945000089705
vt 0.858581006526947 0.3785889744758606
vt 0.84336400032043457 0.13168501853942871
vt 0.58824300765991211 0.0037890076637268066
vt 0.698756992816925 0.0032020211219787598
vt 0.99296700954437256 0.12370002269744873
vt 0.9967460036277771 0.23019498586654663
vt 0.99535399675369263 0.37401098012924194
vt 0.9965059757232666 0.49208098649978638
vt 0.99768799543380737 0.62284600734710693
vt 0.99310702085495 0.030412971973419189
vt 0.83669197559356689 0.0023549795150756836
vt 0.96150499582290649 0.0021650195121765137
vt 0.99296599626541138 0.0020840167999267578
vn -0.099122002720832825 0.99506497383117676 0.0045429999008774757
vn -0.077616997063159943 0.99628901481628418 0.037200000137090683
vn -0.06245499849319458 0.99802398681640625 -0.006920000072568655
vn -0.066246002912521362 0.99775701761245728 0.0096079995855689049
vn -0.016263000667095184 0.99967902898788452 0.019417999312281609
vn -0.067900002002716064 0.99748802185058594 0.020191000774502754
vn -0.016921000555157661 0.99983197450637817 0.0070179998874664307
vn -0.016921000555157661 0.99983197450637817 0.0070179998874664307
vn -0.047609001398086548 0.9977869987487793 0.0464170016348362
vn -0.067497000098228455 0.99580997228622437 0.061696000397205353
vn -0.019225999712944031 0.99903601408004761 0.039469998329877853
vn -0.018895000219345093 0.99942702054977417 0.028082000091671944
vn -0.018885999917984009 0.99850797653198242 0.051236998289823532
vn -0.049678999930620193 0.99731200933456421 0.053858000785112381
vn -0.042249999940395355 0.99868398904800415 0.029092000797390938
vn -0.041248999536037445 0.99912399053573608 -0.0069880001246929169
vn -0.0091880001127719879 0.99987298250198364 -0.013047000393271446
vn 0.0024610001128166914 0.99990701675415039 0.013430999591946602
vn -0.060284998267889023 0.99704599380493164 0.04758799821138382
vn -0.0098320003598928452 0.99947202205657959 0.030959999188780785
vn 0.028415000066161156 0.999563992023468 0.0080150002613663673
vn 0.028819000348448753 0.99901199340820312 0.033826000988483429
vn -0.024465000256896019 0.99867498874664307 0.045272000133991241
vn 0.020692000165581703 0.99961000680923462 -0.018734000623226166
vn -0.066013000905513763 0.99618297815322876 0.05711200088262558
vn -0.070726998150348663 0.99579101800918579 0.0582909993827343
vn 0.02709599956870079 0.99948900938034058 -0.016966000199317932
vn 0.02709599956870079 0.99948900938034058 -0.016966000199317932
vn 0.024895999580621719 0.999530017375946 0.017882000654935837
vn 0.005348999984562397 0.99967700242996216 0.024863999336957932
vn -0.018732000142335892 0.99744498729705811 0.068943001329898834
vn -0.051711000502109528 0.99718397855758667 0.054308000952005386
vn -0.050756998360157013 0.99488002061843872 0.087388999760150909
vn -0.040525998920202255 0.9928010106086731 0.11271300166845322
vn -0.060509998351335526 0.9938889741897583 0.092316001653671265
vn -0.044123999774456024 0.99163401126861572 0.12130600214004517
vn -0.0596730001270771 0.99459397792816162 0.084977999329566956
vn -0.057473998516798019 0.99087601900100708 0.12191099673509598
vn -0.057475000619888306 0.99087601900100708 0.12191099673509598
vn -0.074614003300666809 0.9925609827041626 0.096206001937389374
vn -0.020083000883460045 0.99598902463912964 0.087194003164768219
vn -0.0010489999549463391 0.9991610050201416 0.040936999022960663
vn 0.005106000229716301 0.99846899509429932 0.055087000131607056
vn -0.014214999973773956 0.9929879903793335 0.11735700070858002
vn -0.059174999594688416 0.99079501628875732 0.12175299972295761
vn -0.077771000564098358 0.9884679913520813 0.12993200123310089
vn -0.081435002386569977 0.98930901288986206 0.12098100036382675
vn -0.059179998934268951 0.99415498971939087 0.090297996997833252
vn 0.0042420001700520515 0.9953799843788147 0.095914997160434723
vn 0.024850999936461449 0.995369017124176 0.092863000929355621
vn 0.0070039997808635235 0.99512499570846558 0.09837699681520462
vn -0.055530998855829239 0.99755901098251343 0.042328000068664551
f 1/1/1 2/2/2 3/3/3
f 4/4/4 5/5/5 6/6/6
f 4/4/4 7/7/7 5/5/5
f 7/7/7 4/4/4 8/8/8
f 2/2/2 6/6/6 9/9/9
f 4/4/4 2/2/2 1/1/1
f 4/4/4 6/6/6 2/2/2
f 2/2/2 9/9/9 10/10/10
f 11/11/11 6/6/6 12/12/12
f 11/11/11 9/9/9 6/6/6
f 12/12/12 6/6/6 5/5/5
f 9/9/9 13/13/13 14/14/14
f 9/9/9 11/11/11 13/13/13
f 15/15/15 2/2/2 10/10/10
f 16/16/16 2/2/2 15/15/15
f 16/16/16 3/3/3 2/2/2
f 17/17/17 15/15/15 18/18/18
f 17/17/17 16/16/16 15/15/15
f 15/15/15 10/10/10 19/19/19
f 18/18/18 19/19/19 20/20/20
f 19/19/19 18/18/18 15/15/15
f 20/20/20 21/21/21 18/18/18
f 20/20/20 22/22/22 21/21/21
f 20/20/20 19/19/19 23/23/23
f 17/17/17 18/18/18 24/24/24
f 19/19/19 10/10/10 25/25/25
f 10/10/10 9/9/9 26/26/26
f 21/21/21 24/24/24 18/18/18
f 21/21/21 27/27/27 24/24/24
f 27/27/27 28/28/28 24/24/24
f 29/29/29 22/22/22 20/20/20
f 29/29/29 20/20/20 30/30/30
f 31/31/31 32/32/32 14/14/14
f 26/26/26 14/14/14 33/33/33
f 9/9/9 14/14/14 26/26/26
f 33/33/33 34/34/34 35/35/35
f 33/33/33 36/36/36 34/34/34
f 37/37/37 14/14/14 32/32/32
f 37/37/37 33/33/33 14/14/14
f 31/31/31 14/14/14 13/13/13
f 38/38/38 36/36/36 39/39/39
f 39/39/39 33/33/33 37/37/37
f 39/39/39 36/36/36 33/33/33
f 33/33/33 35/35/35 26/26/26
f 25/25/25 35/35/35 40/40/40
f 35/35/35 25/25/25 26/26/26
f 23/23/23 40/40/40 41/41/41
f 40/40/40 23/23/23 25/25/25
f 42/42/42 41/41/41 43/43/43
f 42/42/42 23/23/23 41/41/41
f 44/44/44 40/40/40 45/45/45
f 44/44/44 41/41/41 40/40/40
f 23/23/23 19/19/19 25/25/25
f 46/46/46 35/35/35 47/47/47
f 46/46/46 40/40/40 35/35/35
f 48/48/48 47/47/47 35/35/35
f 45/45/45 40/40/40 46/46/46
f 49/49/49 41/41/41 44/44/44
f 49/49/49 50/50/50 41/41/41
f 49/49/49 51/51/51 50/50/50
f 48/48/48 35/35/35 34/34/34
f 25/25/25 10/10/10 26/26/26
f 51/51/51 49/49/49 52/52/52
f 43/43/43 41/41/41 50/50/50
f 30/30/30 23/23/23 42/42/42
f 30/30/30 20/20/20 23/23/23
