mtllib m300000121.mtl
usemtl material0
v 40 2.5589621067047119 -24
v 40.763125896453857 2.7294800281524658 -22.126204013824463
v 40.663539886474609 2.5991580486297607 -24
v 40 2.63775897026062 -22.812058925628662
v 42.44901704788208 2.74391508102417 -24
v 40 2.7794840335845947 -20.086125999689102
v 40.868736028671265 2.7958900928497314 -20.132053002715111
v 40 2.7410919666290283 -21.277984976768494
v 40 2.6900420188903809 -22.085778951644897
v 42.757766962051392 2.7798409461975098 -22.231694936752319
v 40 2.7896749973297119 -19.013947010040283
v 40.974124908447266 2.8168890476226807 -18.137747049331665
v 42.6642609834671 2.7495288848876953 -24
v 42.9035609960556 2.7569971084594727 -24
v 44.752457022666931 2.8404541015625 -22.337223052978516
v 44.665085017681122 2.9198191165924072 -24
v 45.0164680480957 2.922806978225708 -24
v 46.746959924697876 2.8624930381774902 -22.442616939544678
v 46.665385961532593 2.9882779121398926 -24
v 48 2.9865710735321045 -24
v 47.128494024276733 2.9882450103759766 -24
v 48 2.9248170852661133 -23.215414047241211
v 44.857524991035461 2.7965149879455566 -20.342693001031876
v 42.863190054893494 2.8081650733947754 -20.237415000796318
v 44.9625049829483 2.7340190410614014 -18.348098993301392
v 46.851794958114624 2.771190881729126 -20.447923988103867
v 48 2.9127919673919678 -23.06652307510376
v 48 2.8677489757537842 -22.508801937103271
v 48 2.833683967590332 -21.315040946006775
v 42.968333959579468 2.7793610095977783 -18.242936968803406
v 40 2.7920389175415039 -17.114309072494507
v 41.079185009002686 2.7709929943084717 -16.143210887908936
v 40 2.8144700527191162 -18.086300015449524
v 43.073273003101349 2.7090520858764648 -16.248316049575806
v 40 2.804250955581665 -16.086328983306885
v 41.08672308921814 2.7667160034179688 -16
v 40 2.8024020195007324 -16.020687103271484
v 40 2.8018200397491455 -16
v 45.067206978797913 2.6158590316772461 -16.353312969207764
v 46.95667290687561 2.6881880760192871 -18.453258991241455
v 48 2.7577729225158691 -19.612753003835678
v 48 2.6803030967712402 -18.508329033851624
v 48 2.7959630489349365 -20.508635997772217
v 47.0609929561615 2.4928810596466064 -16.458208084106445
v 48 2.582427978515625 -17.501708984375
v 48 2.4506030082702637 -16.507659912109375
v 44.749324977397919 2.6143689155578613 -16
v 43.086314976215363 2.6963479518890381 -16
v 48 2.4292130470275879 -16.245568990707397
v 47.569740056991577 2.4303929805755615 -16
v 48 2.4091720581054688 -16
v 47.085032939910889 2.4632720947265625 -16
v 45.459499001502991 2.5687708854675293 -16
v 41.2382550239563 2.7585649490356445 -16
v 45.0857470035553 2.5938069820404053 -16
vt 0 0
vt 0.23422500491142273 0.095390975475311279
vt 0 0.082942008972167969
vt 0.14849300682544708 0
vt 0 0.30612701177597046
vt 0.48923400044441223 0
vt 0.48349300026893616 0.10859197378158569
vt 0.34025201201438904 0
vt 0.23927800357341766 0
vt 0.22103799879550934 0.34472101926803589
vt 0.62325698137283325 0
vt 0.73278200626373291 0.12176597118377686
vt 0 0.33303302526474
vt 0 0.362945020198822
vt 0.207846999168396 0.59405699372291565
vt 0 0.58313599228858948
vt 0 0.62705901265144348
vt 0.19467300176620483 0.84337000548839569
vt 0 0.833173006772995
vt 0 1
vt 0 0.89106199890375137
vt 0.098072998225688934 1
vt 0.457163006067276 0.60719099640846252
vt 0.47032299637794495 0.357899010181427
vt 0.70648801326751709 0.62031298875808716
vt 0.44400998950004578 0.85647399723529816
vt 0.11668500304222107 1
vt 0.18639999628067017 1
vt 0.33561998605728149 1
vt 0.71963298320770264 0.37104201316833496
vt 0.86071097850799561 0
vt 0.98209899663925171 0.13489800691604614
vt 0.73921298980712891 0
vt 0.96896100044250488 0.38415902853012085
vt 0.989208996295929 0
vt 1 0.13583999872207642
vt 0.9974139928817749 0
vt 1 0
vt 0.95583599805831909 0.63340100646018982
vt 0.69334298372268677 0.86958399415016174
vt 0.54840600490570068 1
vt 0.6864590048789978 1
vt 0.43641999363899231 1
vt 0.94272398948669434 0.88262400031089783
vt 0.81228601932525635 1
vt 0.93654298782348633 1
vt 1 0.59366598725318909
vt 1 0.38578897714614868
vt 0.96930402517318726 1
vt 1 0.94621799886226654
vt 1 1
vt 1 0.88562899827957153
vt 1 0.682437002658844
vt 1 0.1547819972038269
vt 1 0.63571798801422119
vn -0.060334999114274979 0.995989978313446 -0.066064000129699707
vn -0.042314000427722931 0.99824798107147217 -0.041352000087499619
vn -0.075147002935409546 0.99503797292709351 -0.065210998058319092
vn -0.058410998433828354 0.995959997177124 -0.0681999996304512
vn -0.074813999235630035 0.99541199207305908 -0.059643000364303589
vn -0.020263999700546265 0.99944901466369629 -0.026287000626325607
vn -0.0084690004587173462 0.999888002872467 -0.012299000285565853
vn -0.034444998949766159 0.99840801954269409 -0.044658001512289047
vn -0.055038999766111374 0.99622702598571777 -0.067103996872901917
vn -0.019030999392271042 0.99975597858428955 -0.011212999932467938
vn -0.015584999695420265 0.999783992767334 -0.013725000433623791
vn 0.013547999784350395 0.99984300136566162 0.011450000107288361
vn -0.026566000655293465 0.99952298402786255 -0.01572900079190731
vn -0.057234000414609909 0.99826902151107788 0.013535999692976475
vn -0.031072000041604042 0.99918699264526367 0.025682000443339348
vn -0.078129999339580536 0.995606005191803 0.051626000553369522
vn -0.020898999646306038 0.99786502122879028 0.061868000775575638
vn -0.0077519998885691166 0.99874097108840942 0.049552999436855316
vn -0.019760999828577042 0.99647599458694458 0.08151700347661972
vn 0.0019150000298395753 0.99691498279571533 0.07846599817276001
vn 0.0012750000460073352 0.99686002731323242 0.0791729986667633
vn 0.00108299998100847 0.99684298038482666 0.079384997487068176
vn 0.00048799999058246613 0.99973499774932861 0.023018000647425652
vn 0.0047439998015761375 0.999970018863678 0.006113000214099884
vn 0.026931999251246452 0.99856001138687134 0.046386998146772385
vn 0.006244999822229147 0.99915397167205811 0.040642999112606049
vn 7.1000002208165824E-05 0.99675500392913818 0.0805009976029396
vn -0.0018070000223815441 0.99897998571395874 0.0451200008392334
vn -0.013976000249385834 0.99905902147293091 0.041057001799345016
vn 0.021844999864697456 0.99948501586914062 0.023520000278949738
vn 0.00723200011998415 0.99988102912902832 0.0136329997330904
vn 0.023617999628186226 0.999521017074585 0.019988000392913818
vn -0.002549000084400177 0.9999960064888 -0.0012440000427886844
vn 0.034956000745296478 0.99888801574707031 0.031626001000404358
vn 0.03053399920463562 0.999521017074585 -0.0050920001231133938
vn 0.03399299830198288 0.99902898073196411 0.02804500050842762
vn 0.032272998243570328 0.99908298254013062 0.028132999315857887
vn 0.032272998243570328 0.9990839958190918 0.028107000514864922
vn 0.048551999032497406 0.997560977935791 0.050138998776674271
vn 0.013059999793767929 0.99768298864364624 0.066765002906322479
vn -0.0024319998919963837 0.99832999706268311 0.057725001126527786
vn 0.012245999649167061 0.99592000246047974 0.089406996965408325
vn -0.019249999895691872 0.99886798858642578 0.04350300133228302
vn 0.040794998407363892 0.99568897485733032 0.083306998014450073
vn 0.031998001039028168 0.9929649829864502 0.11400400102138519
vn 0.051003001630306244 0.99135100841522217 0.12091799825429916
vn 0.050338000059127808 0.99750500917434692 0.049497999250888824
vn 0.0390859991312027 0.99803298711776733 0.049006000161170959
vn 0.049098998308181763 0.99548399448394775 0.081243999302387238
vn 0.05540899932384491 0.99569797515869141 0.074266999959945679
vn 0.049097999930381775 0.99548399448394775 0.081242002546787262
vn 0.065021999180316925 0.99602097272872925 0.060950998216867447
vn 0.065033003687858582 0.99604499340057373 0.060541998594999313
vn 0.035130001604557037 0.99824798107147217 0.047609999775886536
vn 0.063964001834392548 0.99621701240539551 0.058821998536586761
f 1/1/1 2/2/2 3/3/3
f 1/1/1 4/4/4 2/2/2
f 3/3/3 2/2/2 5/5/5
f 2/2/2 6/6/6 7/7/7
f 2/2/2 8/8/8 6/6/6
f 8/8/8 2/2/2 9/9/9
f 7/7/7 10/10/10 2/2/2
f 7/7/7 11/11/11 12/12/12
f 7/7/7 6/6/6 11/11/11
f 4/4/4 9/9/9 2/2/2
f 13/13/13 2/2/2 10/10/10
f 13/13/13 5/5/5 2/2/2
f 14/14/14 10/10/10 15/15/15
f 14/14/14 13/13/13 10/10/10
f 14/14/14 15/15/15 16/16/16
f 17/17/17 18/18/18 19/19/19
f 20/20/20 21/21/21 22/22/22
f 23/23/23 10/10/10 24/24/24
f 10/10/10 23/23/23 15/15/15
f 15/15/15 23/23/23 18/18/18
f 23/23/23 24/24/24 25/25/25
f 18/18/18 23/23/23 26/26/26
f 19/19/19 22/22/22 21/21/21
f 19/19/19 27/27/27 22/22/22
f 27/27/27 18/18/18 28/28/28
f 27/27/27 19/19/19 18/18/18
f 28/28/28 18/18/18 29/29/29
f 17/17/17 15/15/15 18/18/18
f 17/17/17 16/16/16 15/15/15
f 24/24/24 10/10/10 7/7/7
f 24/24/24 7/7/7 30/30/30
f 12/12/12 31/31/31 32/32/32
f 12/12/12 33/33/33 31/31/31
f 11/11/11 33/33/33 12/12/12
f 7/7/7 12/12/12 30/30/30
f 30/30/30 12/12/12 34/34/34
f 35/35/35 32/32/32 31/31/31
f 32/32/32 34/34/34 12/12/12
f 35/35/35 36/36/36 32/32/32
f 35/35/35 37/37/37 36/36/36
f 37/37/37 38/38/38 36/36/36
f 39/39/39 30/30/30 34/34/34
f 26/26/26 25/25/25 40/40/40
f 30/30/30 25/25/25 24/24/24
f 41/41/41 40/40/40 42/42/42
f 40/40/40 43/43/43 26/26/26
f 40/40/40 41/41/41 43/43/43
f 29/29/29 26/26/26 43/43/43
f 29/29/29 18/18/18 26/26/26
f 40/40/40 25/25/25 44/44/44
f 44/44/44 25/25/25 39/39/39
f 42/42/42 44/44/44 45/45/45
f 42/42/42 40/40/40 44/44/44
f 45/45/45 44/44/44 46/46/46
f 34/34/34 47/47/47 39/39/39
f 34/34/34 48/48/48 47/47/47
f 46/46/46 44/44/44 49/49/49
f 49/49/49 50/50/50 51/51/51
f 49/49/49 44/44/44 50/50/50
f 39/39/39 52/52/52 44/44/44
f 39/39/39 53/53/53 52/52/52
f 39/39/39 25/25/25 30/30/30
f 25/25/25 26/26/26 23/23/23
f 32/32/32 48/48/48 34/34/34
f 32/32/32 54/54/54 48/48/48
f 55/55/55 39/39/39 47/47/47
f 53/53/53 39/39/39 55/55/55
f 36/36/36 54/54/54 32/32/32
f 52/52/52 50/50/50 44/44/44
