mtllib m300000113.mtl
usemtl material0
v 56.014323949813843 2.2898440361022949 -16
v 57.1366651058197 2.1728899478912354 -14.989317893981934
v 57.08374810218811 2.258479118347168 -16
v 63.08249306678772 2.0410211086273193 -16
v 62.346312999725342 2.0191469192504883 -16
v 63.118649005889893 1.9303940534591675 -15.30443811416626
v 58.046040058135986 2.20487904548645 -16
v 60.235317006707191 2.071397066116333 -16
v 61.124340057373047 1.9479140043258667 -15.199179887771606
v 61.0825229883194 2.0376749038696289 -16
v 56 2.177030086517334 -14.929306983947754
v 57.241188049316406 2.0185959339141846 -12.994409024715424
v 56 2.1141350269317627 -14.111848115921021
v 56 2.2423989772796631 -15.548985004425049
v 56 2.2899758815765381 -16
v 59.2350999712944 1.9210009574890137 -13.099390983581543
v 59.130546987056732 2.0694360733032227 -15.094280004501343
v 61.22894299030304 1.8092449903488159 -13.204324960708618
v 59.08313000202179 2.1465790271759033 -16
v 64 1.781906008720398 -14.51032304763794
v 64 1.8762420415878296 -15.350806951522827
v 64 1.9771460294723511 -16
v 64 1.9599289894104004 -15.889233112335205
v 63.327316045761108 1.5446569919586182 -11.314354002475739
v 56 2.0358800888061523 -12.928919970989227
v 57.345940113067627 1.9101979732513428 -10.999657988548279
v 56 1.997514009475708 -12.21127499639988
v 61.333644986152649 1.6910820007324219 -11.209538996219635
v 56 1.9586050510406494 -10.928735971450806
v 57.450736999511719 1.8110769987106323 -9.0049378871917725
v 56 1.9291609525680542 -10.311082005500794
v 59.339824974536896 1.8072320222854614 -11.10462099313736
v 61.438137054443359 1.53043794631958 -9.2146079540252686
v 59.444504022598267 1.6841850280761719 -9.1098189353942871
v 64 1.4904719591140747 -11.349704027175903
v 64 1.4396690130233765 -10.779894948005676
v 64 1.4332829713821411 -10.708266973495483
v 58.445888996124268 1.6268680095672607 -8
v 57.503180980682373 1.6925350427627564 -8
v 61.501536965370178 1.3895399570465088 -8
v 60.676078975200653 1.4580440521240234 -8
v 56 1.8824399709701538 -8.9285550117492676
v 56 1.8228340148925781 -8.4105899333953857
v 56.455734014511108 1.75040602684021 -8
v 56 1.8516590595245361 -8.66107702255249
v 59.502395987510681 1.5481139421463013 -8
v 56 1.7908769845962524 -8
v 62.786017894744873 1.2851380109786987 -8
v 63.5005989074707 1.2157280445098877 -8
v 64 1.1758190393447876 -8
vt 0 0.0017910003662109375
vt 0.12633499503135681 0.14208298921585083
vt 0 0.1354680061340332
vt 0 0.88531199842691422
vt 0 0.79328900575637817
vt 0.086944997310638428 0.88983099907636642
vt 0 0.25575500726699829
vt 0 0.52941501140594482
vt 0.100102998316288 0.64054301381111145
vt 0 0.63531500101089478
vt 0.13383699953556061 0
vt 0.37569901347160339 0.15514898300170898
vt 0.23601900041103363 0
vt 0.056377001106739044 0
vt 0 0
vt 0.36257600784301758 0.40438699722290039
vt 0.11321499943733215 0.39131802320480347
vt 0.34945899248123169 0.65361800789833069
vt 0 0.3853909969329834
vt 0.18621000647544861 1
vt 0.081148996949195862 1
vt 0 1
vt 0.013845999725162983 1
vt 0.58570599555969238 0.915914997458458
vt 0.383884996175766 0
vt 0.62504297494888306 0.16824197769165039
vt 0.47359099984169006 0
vt 0.59880799055099487 0.666705995798111
vt 0.6339079737663269 0
vt 0.87438297271728516 0.18134200572967529
vt 0.71111500263214111 0
vt 0.611922025680542 0.41747802495956421
vt 0.848173975944519 0.67976701259613037
vt 0.86127299070358276 0.43056297302246094
vt 0.58128702640533447 1
vt 0.65251302719116211 1
vt 0.66146701574325562 1
vt 1 0.3057360053062439
vt 1 0.18789798021316528
vt 1 0.68769198656082153
vt 1 0.58450999855995178
vt 0.88393098115921021 0
vt 0.94867599010467529 0
vt 1 0.056967020034790039
vt 0.91736501455307007 0
vt 1 0.43779897689819336
vt 1 0
vt 1 0.84825199842453
vt 1 0.93757500126957893
vt 1 1
vn 0.022636000066995621 0.99567699432373047 0.090080998837947845
vn 0.042257998138666153 0.99603599309921265 0.078270003199577332
vn 0.041641999036073685 0.99575001001358032 0.082143999636173248
vn 0.028495000675320625 0.98741501569747925 0.15556499361991882
vn -0.0016589999431744218 0.99172300100326538 0.12838500738143921
vn 0.044270001351833344 0.99441301822662354 0.095831997692584991
vn 0.055808998644351959 0.99509197473526 0.081710003316402435
vn 0.054150998592376709 0.9941750168800354 0.093181997537612915
vn 0.041049998253583908 0.99612200260162354 0.077817998826503754
vn 0.019934000447392464 0.993694007396698 0.1103380024433136
vn 0.0079439999535679817 0.99662500619888306 0.081699997186660767
vn 0.033390000462532043 0.99734997749328613 0.064641997218132019
vn 0.013412999920547009 0.99743002653121948 0.07038000226020813
vn 0.0091599998995661736 0.99444001913070679 0.1049019992351532
vn 0.0091530000790953636 0.99444001913070679 0.1049019992351532
vn 0.0561710000038147 0.99651598930358887 0.061657000333070755
vn 0.059627000242471695 0.99556297063827515 0.072793997824192047
vn 0.050358999520540237 0.9961249828338623 0.072107002139091492
vn 0.062608003616333008 0.99470901489257812 0.081445001065731049
vn 0.080962002277374268 0.99211698770523071 0.095656000077724457
vn 0.067518003284931183 0.98950600624084473 0.1277489960193634
vn 0.068630002439022064 0.9858049750328064 0.15322799980640411
vn 0.068631000816822052 0.98580598831176758 0.15322299301624298
vn 0.072470001876354218 0.99366998672485352 0.085831999778747559
vn 0.016915999352931976 0.9982219934463501 0.057149998843669891
vn 0.047384001314640045 0.99759900569915771 0.050505001097917557
vn 0.030059000477194786 0.99880301952362061 0.038587998598814011
vn 0.0669580027461052 0.99573200941085815 0.063513003289699554
vn 0.038118999451398849 0.99839097261428833 0.041972998529672623
vn 0.056301001459360123 0.9961090087890625 0.067795000970363617
vn 0.047026000916957855 0.998170018196106 0.038008999079465866
vn 0.062320001423358917 0.99624598026275635 0.06008400022983551
vn 0.08188299834728241 0.993058979511261 0.084432996809482574
vn 0.070648998022079468 0.99446201324462891 0.077803000807762146
vn 0.084720999002456665 0.992214024066925 0.091292001307010651
vn 0.084595002233982086 0.99247902631759644 0.088486999273300171
vn 0.079439997673034668 0.99238002300262451 0.094190001487731934
vn 0.070367999374866486 0.99092799425125122 0.11449400335550308
vn 0.058984000235795975 0.99173897504806519 0.11390700191259384
vn 0.081661999225616455 0.99049997329711914 0.11063800007104874
vn 0.0785520002245903 0.99029898643493652 0.11461800336837769
vn 0.051538001745939255 0.99757099151611328 0.046856999397277832
vn 0.061096999794244766 0.99235498905181885 0.10723699629306793
vn 0.064935997128486633 0.99255800247192383 0.10301200300455093
vn 0.054804999381303787 0.99195098876953125 0.11415000259876251
vn 0.074960999190807343 0.99023997783660889 0.11749999970197678
vn 0.088191002607345581 0.99309998750686646 0.077294997870922089
vn 0.086145997047424316 0.99078702926635742 0.10449899733066559
vn 0.093195997178554535 0.99124801158905029 0.093502998352050781
vn 0.079304002225399017 0.99237602949142456 0.094341002404689789
f 1/1/1 2/2/2 3/3/3
f 4/4/4 5/5/5 6/6/6
f 3/3/3 2/2/2 7/7/7
f 8/8/8 9/9/9 10/10/10
f 11/11/11 12/12/12 2/2/2
f 11/11/11 13/13/13 12/12/12
f 11/11/11 2/2/2 14/14/14
f 14/14/14 1/1/1 15/15/15
f 14/14/14 2/2/2 1/1/1
f 2/2/2 16/16/16 17/17/17
f 9/9/9 18/18/18 6/6/6
f 9/9/9 19/19/19 17/17/17
f 9/9/9 8/8/8 19/19/19
f 20/20/20 21/21/21 6/6/6
f 22/22/22 4/4/4 23/23/23
f 23/23/23 6/6/6 21/21/21
f 23/23/23 4/4/4 6/6/6
f 10/10/10 6/6/6 5/5/5
f 10/10/10 9/9/9 6/6/6
f 18/18/18 24/24/24 6/6/6
f 7/7/7 17/17/17 19/19/19
f 7/7/7 2/2/2 17/17/17
f 17/17/17 18/18/18 9/9/9
f 25/25/25 26/26/26 12/12/12
f 25/25/25 27/27/27 26/26/26
f 13/13/13 25/25/25 12/12/12
f 2/2/2 12/12/12 16/16/16
f 12/12/12 26/26/26 16/16/16
f 18/18/18 16/16/16 28/28/28
f 18/18/18 17/17/17 16/16/16
f 29/29/29 30/30/30 26/26/26
f 29/29/29 31/31/31 30/30/30
f 32/32/32 33/33/33 28/28/28
f 32/32/32 16/16/16 26/26/26
f 28/28/28 16/16/16 32/32/32
f 28/28/28 33/33/33 24/24/24
f 29/29/29 26/26/26 27/27/27
f 26/26/26 34/34/34 32/32/32
f 35/35/35 6/6/6 24/24/24
f 35/35/35 20/20/20 6/6/6
f 28/28/28 24/24/24 18/18/18
f 35/35/35 24/24/24 36/36/36
f 36/36/36 24/24/24 37/37/37
f 38/38/38 30/30/30 39/39/39
f 38/38/38 34/34/34 30/30/30
f 30/30/30 34/34/34 26/26/26
f 34/34/34 33/33/33 32/32/32
f 40/40/40 34/34/34 41/41/41
f 40/40/40 33/33/33 34/34/34
f 31/31/31 42/42/42 30/30/30
f 39/39/39 43/43/43 44/44/44
f 39/39/39 45/45/45 43/43/43
f 45/45/45 30/30/30 42/42/42
f 45/45/45 39/39/39 30/30/30
f 38/38/38 46/46/46 34/34/34
f 46/46/46 41/41/41 34/34/34
f 47/47/47 44/44/44 43/43/43
f 48/48/48 33/33/33 40/40/40
f 33/33/33 49/49/49 24/24/24
f 33/33/33 48/48/48 49/49/49
f 50/50/50 24/24/24 49/49/49
f 50/50/50 37/37/37 24/24/24
