mtllib m300330.mtl
usemtl material0
v 384 6.322908878326416 -448
v 384 6.6013631820678711 -443.73440551757812
v 387.83767700195312 6.5404338836669922 -448
v 384 6.6687049865722656 -436.25277709960938
v 392.88800048828125 6.6122941970825195 -436.721923828125
v 392.2921142578125 6.5142779350280762 -448
v 403.03448486328125 6.361968994140625 -448
v 408.28955078125 6.0848112106323242 -448
v 408.83904981613159 5.7922201156616211 -437.56158447265625
v 418.22958397865295 5.2509112358093262 -448
v 393.73086547851562 6.730370044708252 -420.76730298995972
v 384 6.7206301689147949 -429.52197265625
v 433.4263916015625 5.070950984954834 -448
v 424.28262329101562 4.82618522644043 -448
v 424.78866577148438 4.6825261116027832 -438.40017700195312
v 440.28683471679688 5.6972627639770508 -448
v 440.75100708007812 6.1044459342956543 -439.247802734375
v 448 5.4993700981140137 -443.3328857421875
v 448 5.9313898086547852 -439.63003540039062
v 448 5.03569221496582 -447.30706787109375
v 448 5.0001320838928223 -448
v 441.59515380859375 6.4788651466369629 -423.29406690597534
v 425.63275146484375 5.0442490577697754 -422.4464111328125
v 409.68423509597778 6.3678069114685059 -421.60855102539062
v 448 6.6244750022888184 -432.73016357421875
v 384 6.6679520606994629 -420.25320386886597
v 384 6.7674870491027832 -409.95159912109375
v 384 7.19716215133667 -393.05947875976562
v 394.57626342773438 7.351290225982666 -404.81442260742188
v 384 6.9779758453369141 -404.25469970703125
v 384 7.3718490600585938 -388.25643920898438
v 395.42169189453125 7.9779949188232422 -388.861572265625
v 391.04727172851562 7.7362098693847656 -384
v 395.67742919921875 7.7984957695007324 -384
v 406.24420166015625 7.631378173828125 -384
v 411.37576293945312 7.7560539245605469 -389.70333862304688
v 384 7.3629908561706543 -384
v 384 7.368074893951416 -386.4429931640625
v 410.54238891601562 9.5243234634399414 -405.66473388671875
v 426.4847412109375 6.9708089828491211 -406.49819946289062
v 427.32907104492188 7.3816971778869629 -390.54458618164062
v 411.67562913894653 7.5186038017272949 -384
v 421.440673828125 7.26871395111084 -384
v 427.67453002929688 7.3751602172851562 -384
v 436.637939453125 7.3380742073059082 -384
v 443.283935546875 7.3163409233093262 -391.38690185546875
v 442.44076538085938 7.1354289054870605 -407.34133911132812
v 448 6.8123769760131836 -423.63339185714722
v 448 7.1996040344238281 -413.52017211914062
v 448 7.4321990013122559 -396.62844848632812
v 448 7.3278088569641113 -407.63552856445312
v 448 7.3967218399047852 -391.63619995117188
v 443.6754150390625 7.6085348129272461 -384
v 448 7.5633449554443359 -387.31332397460938
v 448 7.6910548210144043 -384
vt 0.99519801139831543 0.0038959980010986328
vt 0.92920297384262085 0.0041390061378479
vt 0.99519801139831543 0.063239991664886475
vt 0.81369197368621826 0.0044010281562805176
vt 0.82125300168991089 0.14160597324371338
vt 0.99535799026489258 0.1320120096206665
vt 0.99575400352478027 0.29787802696228027
vt 0.99592399597167969 0.37912201881408691
vt 0.83473497629165649 0.38816899061203003
vt 0.99612897634506226 0.53312298655509949
vt 0.57495599985122681 0.15517902374267578
vt 0.70977300405502319 0.0046370029449462891
vt 0.99775397777557373 0.76758000254631042
vt 0.99708598852157593 0.62636199593544006
vt 0.84889501333236694 0.63481399416923523
vt 0.99744701385498047 0.8743869960308075
vt 0.862214982509613 0.88221599906682968
vt 0.92637002468109131 0.99390400014817715
vt 0.868815004825592 0.99412500020116568
vt 0.9878469705581665 0.99399900017306209
vt 0.99855899810791016 0.99394899979233742
vt 0.61587798595428467 0.8959449976682663
vt 0.60256201028823853 0.64852398633956909
vt 0.58854800462722778 0.40151000022888184
vt 0.76175397634506226 0.99456699984148145
vt 0.56667298078536987 0.0049620270729064941
vt 0.40783300995826721 0.0051019787788391113
vt 0.14694699645042419 0.0053989887237548828
vt 0.32849800586700439 0.16862398386001587
vt 0.31981998682022095 0.005240023136138916
vt 0.074782997369766235 0.0023710131645202637
vt 0.0818910002708435 0.17905998229980469
vt 0.0076950001530349255 0.1104779839515686
vt 0.0067170001566410065 0.18145197629928589
vt 0.0032420000061392784 0.34457302093505859
vt 0.089645996689796448 0.42561602592468262
vt 0.009073999710381031 0.0015329718589782715
vt 0.04678799957036972 0.0020139813423156738
vt 0.33778101205825806 0.41756701469421387
vt 0.3575960099697113 0.66637900471687317
vt 0.10285300016403198 0.671972006559372
vt 0.0014410000294446945 0.42842698097229004
vt 0.0016530000139027834 0.58122199773788452
vt 0.0018210000125691295 0.67747899889945984
vt 0.0022299999836832285 0.81598399579524994
vt 0.11657200008630753 0.91825900226831436
vt 0.37194699048995972 0.91266000270843506
vt 0.62477898597717285 0.9947219998575747
vt 0.4685479998588562 0.997133000055328
vt 0.19518400728702545 0.99358000000938773
vt 0.37768399715423584 0.99846699996851385
vt 0.11814600229263306 0.99116500001400709
vt 0.002460000105202198 0.92471399903297424
vt 0.0513870008289814 0.98912699986249208
vt 0.0021470000501722097 0.99149200040847063
vn -0.056471001356840134 0.996284008026123 -0.065035998821258545
vn -0.0086939996108412743 0.99971801042556763 -0.02210099995136261
vn -0.01080199982970953 0.99965399503707886 -0.023996999487280846
vn 0.0059070000424981117 0.99994802474975586 -0.0083360001444816589
vn 0.020260000601410866 0.99976199865341187 -0.0081089995801448822
vn 0.0098850000649690628 0.999908983707428 -0.0092120002955198288
vn 0.04239799827337265 0.99897301197052 0.015970999374985695
vn 0.0675870031118393 0.99741500616073608 0.024399999529123306
vn 0.0632999986410141 0.99796801805496216 -0.0073130000382661819
vn 0.073615998029708862 0.9971809983253479 0.014514000155031681
vn 0.0051759998314082623 0.9998210072517395 -0.018222000449895859
vn 0.0027240000199526548 0.99998801946640015 -0.0041399998590350151
vn -0.073798000812530518 0.9969329833984375 -0.026063999161124229
vn 0.023274000734090805 0.99963498115539551 0.013732999563217163
vn -0.0027290000580251217 0.9999309778213501 -0.011469000019133091
vn -0.0035099999513477087 0.99892199039459229 -0.046287000179290771
vn -0.0360650010406971 0.99804002046585083 -0.051137000322341919
vn 0.017598999664187431 0.99310898780822754 -0.11586800217628479
vn 0.018024999648332596 0.99396800994873047 -0.10818099975585938
vn 0.073178999125957489 0.995123028755188 -0.066143997013568878
vn 0.0898979976773262 0.99464201927185059 -0.051043000072240829
vn -0.062784001231193542 0.99727499485015869 -0.038729999214410782
vn -0.00012199999764561653 0.9966130256652832 -0.082234002649784088
vn 0.03157699853181839 0.99504202604293823 -0.094310000538825989
vn -0.034042000770568848 0.99854499101638794 -0.041809998452663422
vn -0.0065330001525580883 0.99997597932815552 -0.0022470001131296158
vn -0.030144000425934792 0.99907898902893066 -0.030548999086022377
vn -0.050544001162052155 0.99819701910018921 -0.032388001680374146
vn -0.07038000226020813 0.99612301588058472 -0.052774000912904739
vn -0.03673899918794632 0.99893397092819214 -0.027945000678300858
vn -0.053858000785112381 0.99841302633285522 -0.016475999727845192
vn -0.032827999442815781 0.99935400485992432 0.014631999656558037
vn -0.04237699881196022 0.99903500080108643 0.011556000448763371
vn 0.0016700000269338489 0.99932098388671875 0.036809001117944717
vn 0.017122000455856323 0.99915897846221924 0.037246998399496078
vn 0.039225000888109207 0.99764502048492432 0.056262999773025513
vn -0.052884999662637711 0.99859797954559326 0.0020779999904334545
vn -0.052884999662637711 0.99859797954559326 0.0020779999904334545
vn 0.018395999446511269 0.9984620213508606 -0.052296999841928482
vn 0.044952001422643662 0.99780899286270142 -0.048542998731136322
vn 0.0065899998880922794 0.99996101856231689 -0.0058430000208318233
vn 0.023233000189065933 0.99891501665115356 0.0403669998049736
vn 0.014189999550580978 0.99944901466369629 0.030021000653505325
vn -0.006111999973654747 0.99997997283935547 0.0013210000470280647
vn -0.0072150002233684063 0.99992901086807251 -0.009433000348508358
vn -0.014650999568402767 0.99974101781845093 -0.017395000904798508
vn -0.024128999561071396 0.99940699338912964 -0.024570999667048454
vn -0.053518000990152359 0.99814200401306152 -0.029128000140190125
vn -0.049722999334335327 0.99817198514938354 -0.034370001405477524
vn -0.030789999291300774 0.99950999021530151 -0.0056099998764693737
vn -0.035417001694440842 0.99924701452255249 -0.0158270001411438
vn -0.01782899908721447 0.9997289776802063 -0.014942999929189682
vn -0.028388999402523041 0.9988740086555481 -0.038006000220775604
vn -0.019063999876379967 0.99907600879669189 -0.038509000092744827
vn -0.019063999876379967 0.99907600879669189 -0.038509000092744827
f 1/1/1 2/2/2 3/3/3
f 4/4/4 3/3/3 2/2/2
f 4/4/4 5/5/5 3/3/3
f 5/5/5 6/6/6 3/3/3
f 6/6/6 5/5/5 7/7/7
f 8/8/8 9/9/9 10/10/10
f 9/9/9 7/7/7 5/5/5
f 9/9/9 8/8/8 7/7/7
f 4/4/4 11/11/11 5/5/5
f 4/4/4 12/12/12 11/11/11
f 13/13/13 14/14/14 15/15/15
f 16/16/16 15/15/15 17/17/17
f 16/16/16 13/13/13 15/15/15
f 15/15/15 10/10/10 9/9/9
f 15/15/15 14/14/14 10/10/10
f 18/18/18 17/17/17 19/19/19
f 18/18/18 20/20/20 17/17/17
f 21/21/21 17/17/17 20/20/20
f 21/21/21 16/16/16 17/17/17
f 15/15/15 22/22/22 17/17/17
f 9/9/9 23/23/23 15/15/15
f 5/5/5 24/24/24 9/9/9
f 19/19/19 17/17/17 25/25/25
f 26/26/26 27/27/27 11/11/11
f 28/28/28 29/29/29 30/30/30
f 27/27/27 29/29/29 11/11/11
f 27/27/27 30/30/30 29/29/29
f 11/11/11 29/29/29 24/24/24
f 29/29/29 31/31/31 32/32/32
f 29/29/29 28/28/28 31/31/31
f 12/12/12 26/26/26 11/11/11
f 33/33/33 34/34/34 32/32/32
f 32/32/32 35/35/35 36/36/36
f 32/32/32 34/34/34 35/35/35
f 37/37/37 33/33/33 38/38/38
f 38/38/38 32/32/32 31/31/31
f 38/38/38 33/33/33 32/32/32
f 39/39/39 29/29/29 32/32/32
f 32/32/32 36/36/36 39/39/39
f 24/24/24 39/39/39 23/23/23
f 40/40/40 39/39/39 36/36/36
f 39/39/39 40/40/40 23/23/23
f 23/23/23 40/40/40 22/22/22
f 40/40/40 36/36/36 41/41/41
f 9/9/9 24/24/24 23/23/23
f 35/35/35 42/42/42 36/36/36
f 43/43/43 44/44/44 41/41/41
f 41/41/41 45/45/45 46/46/46
f 41/41/41 44/44/44 45/45/45
f 36/36/36 43/43/43 41/41/41
f 36/36/36 42/42/42 43/43/43
f 47/47/47 40/40/40 41/41/41
f 29/29/29 39/39/39 24/24/24
f 41/41/41 46/46/46 47/47/47
f 48/48/48 47/47/47 49/49/49
f 48/48/48 22/22/22 47/47/47
f 50/50/50 47/47/47 46/46/46
f 50/50/50 51/51/51 47/47/47
f 49/49/49 47/47/47 51/51/51
f 50/50/50 46/46/46 52/52/52
f 25/25/25 22/22/22 48/48/48
f 25/25/25 17/17/17 22/22/22
f 45/45/45 53/53/53 46/46/46
f 52/52/52 46/46/46 54/54/54
f 54/54/54 53/53/53 55/55/55
f 54/54/54 46/46/46 53/53/53
f 40/40/40 47/47/47 22/22/22
f 15/15/15 23/23/23 22/22/22
f 5/5/5 11/11/11 24/24/24
