mtllib m3000200.mtl
usemtl material0
v 0 5.9941949844360352 -143.61317399144173
v 0.346710205078125 5.9735360145568848 -143.99858100002166
v 0 5.9792699813842773 -143.98028600029647
v 0 6.0714340209960938 -135.98081970214844
v 0.76814842224121094 6.0338959693908691 -136.0212550163269
v 0 5.955894947052002 -153.27169799804688
v 0.38673114776611328 5.9065327644348145 -160
v 0 5.9204130172729492 -159.97963047027588
v 7.1441621780395508 5.6658902168273926 -160
v 0 5.962310791015625 -152.05885314941406
v 0 6.1782751083374023 -128
v 0 6.1146559715271 -133.23385620117188
v 1.1919631958007813 6.10552978515625 -128
v 8.3236980438232422 5.8532810211181641 -144.41943401098251
v 3.920166015625 5.9223651885986328 -128
v 0 5.9640498161315918 -151.97999620437622
v 7.9023981094360352 5.8207330703735352 -152.39683532714844
v 0 5.9668388366699219 -150.56553602218628
v 7.5002002716064453 5.6598467826843262 -160
v 0 5.96239709854126 -152.05496215820313
v 0 5.9206361770629883 -160
v 8.744143009185791 5.7114958763122559 -136.44142198562622
v 14.742213010787964 5.3821539878845215 -160
v 15.877476997673512 5.3122820854187012 -152.81634521484375
v 15.498355984687805 5.3339591026306152 -160
v 22.340597152709961 5.286780834197998 -160
v 16.29960098862648 5.5123071670532227 -144.83952301740646
v 6.4173488616943359 5.821681022644043 -128
v 12.061809062957764 5.681063175201416 -128
v 9.1898269653320312 5.7221250534057617 -128
v 14.278224945068359 5.6800751686096191 -128
v 16.721710026264191 5.7093839645385742 -136.86268615722656
v 24.274971008300781 5.0634069442749023 -145.25923204421997
v 23.852705001831055 4.8345742225646973 -153.2359619140625
v 23.497561931610107 5.2142629623413086 -160
v 29.938911437988281 5.1510372161865234 -160
v 31.830867767333984 4.9535160064697266 -153.65763854980469
v 24.698005676269531 5.4484691619873047 -137.28305101394653
v 20.204261779785156 5.5688400268554688 -128
v 17.189169049263 5.6290531158447266 -128
v 22.138968944549561 5.5052528381347656 -128
v 25.187744140625 5.3855390548706055 -128
v 28.346641540527344 5.4450621604919434 -128
v 32 5.0581507682800293 -145.3998110294342
v 32 5.0452499389648438 -145.66711401939392
v 32 4.9900798797607422 -150.45735216140747
v 32 5.5747580528259277 -137.66905212402344
v 32 5.5643692016601562 -136.18896484375
v 30.000278472900391 5.473048210144043 -128
v 32 5.5577940940856934 -135.25224304199219
v 32 4.9646468162536621 -153.66661071777344
v 32 5.506889820098877 -128
v 32 5.1649961471557617 -160
v 32 4.9576997756958008 -153.84562683105469
v 31.497159957885742 5.171381950378418 -160
vt 0.9910159707069397 0.49409902095794678
vt 0.98022401332855225 0.50582599639892578
vt 0.99086099863052368 0.50538000464439392
vt 0.99393200874328613 0.2601349949836731
vt 0.97032898664474487 0.26105201244354248
vt 0.98745101690292358 0.79027800261974335
vt 0.97310298681259155 0.99647799995727837
vt 0.98489999771118164 0.99592499993741512
vt 0.76570802927017212 0.99391200020909309
vt 0.98787897825241089 0.75307700037956238
vt 0.99694597721099854 0.015529990196228027
vt 0.99497300386428833 0.17592501640319824
vt 0.96049702167510986 0.014966011047363281
vt 0.73549199104309082 0.51578199863433838
vt 0.87663799524307251 0.013960003852844238
vt 0.98788100481033325 0.75060699880123138
vt 0.74532401561737061 0.760456994175911
vt 0.98841899633407593 0.70726698637008667
vt 0.75476700067520142 0.99378400016576052
vt 0.98790299892425537 0.752933993935585
vt 0.98489201068878174 0.99655000003986061
vt 0.72542101144790649 0.27095198631286621
vt 0.53269898891448975 0.9912710003554821
vt 0.50028902292251587 0.77053199708461761
vt 0.5094829797744751 0.99101599957793951
vt 0.2997409999370575 0.98874699976295233
vt 0.49054801464080811 0.52563399076461792
vt 0.80000799894332886 0.013018012046813965
vt 0.62684899568557739 0.010971009731292725
vt 0.71485698223114014 0.012028992176055908
vt 0.55889898538589478 0.010061025619506836
vt 0.48065900802612305 0.28084099292755127
vt 0.24545599520206451 0.53578001260757446
vt 0.25522500276565552 0.78056000173091888
vt 0.26413699984550476 0.98835199978202581
vt 0.066262997686862946 0.98607399966567755
vt 0.010486000217497349 0.79035699367523193
vt 0.2357809990644455 0.29078102111816406
vt 0.37712699174880981 0.0078290104866027832
vt 0.46959599852561951 0.0089640021324157715
vt 0.31775298714637756 0.0071309804916381836
vt 0.22438499331474304 0.005970001220703125
vt 0.12748099863529205 0.0046939849853515625
vt 0.0085399998351931572 0.53697401285171509
vt 0.0084359999746084213 0.54517200589179993
vt 0.0065190000459551811 0.69203799962997437
vt 0.011637999676167965 0.29950100183486938
vt 0.012361999601125717 0.25416600704193115
vt 0.076834000647068024 0.0041509866714477539
vt 0.012787999585270882 0.22554498910903931
vt 0.0052829999476671219 0.79051299393177032
vt 0.015660999342799187 0.0034499764442443848
vt 0.0030539999715983868 0.98517400026321411
vt 0.0052180001512169838 0.79604800045490265
vt 0.018425999209284782 0.98544699978083372
vn 0.04038500040769577 0.99903601408004761 -0.017221000045537949
vn 0.019710000604391098 0.99975800514221191 -0.0097529999911785126
vn 0.015379000455141068 0.999642014503479 -0.021909000352025032
vn 0.048124000430107117 0.998757004737854 -0.013005999848246574
vn 0.043152999132871628 0.99904799461364746 -0.0063900002278387547
vn 0.03558799996972084 0.99935299158096313 -0.0052860002033412457
vn 0.035603001713752747 0.99935299158096313 -0.0050139999948441982
vn 0.036001000553369522 0.99934899806976318 0.002558999927714467
vn 0.02193400077521801 0.99960500001907349 -0.017580000683665276
vn 0.021309999749064445 0.99960798025131226 -0.018141999840736389
vn 0.060910999774932861 0.99806898832321167 -0.012130999937653542
vn 0.059803999960422516 0.99813300371170044 -0.01243900042027235
vn 0.064047001302242279 0.99787098169326782 -0.012295999564230442
vn 0.034637000411748886 0.99940001964569092 -0.00077400001464411616
vn 0.050455998629331589 0.99870902299880981 -0.005940999835729599
vn 0.017518000677227974 0.99977797269821167 -0.01167100016027689
vn 0.036901999264955521 0.99925702810287476 -0.011163000017404556
vn 0.018004000186920166 0.9998360276222229 -0.0019700000993907452
vn 0.027282999828457832 0.99937301874160767 -0.022590000182390213
vn 0.016969999298453331 0.99961298704147339 -0.022045999765396118
vn 0.036439999938011169 0.99927598237991333 0.010947000235319138
vn 0.026283999904990196 0.99965101480484009 0.0027799999807029963
vn 0.0568699985742569 0.99836099147796631 -0.0064289998263120651
vn 0.052235998213291168 0.99862498044967651 -0.0045179999433457851
vn 0.036219000816345215 0.99934297800064087 0.001104000024497509
vn 0.047662001103162766 0.9980890154838562 0.039338000118732452
vn 0.043421998620033264 0.99880802631378174 -0.022301999852061272
vn 0.03846300020813942 0.99925702810287476 -0.002440999960526824
vn 0.00571999978274107 0.999983012676239 0.0013569999719038606
vn 0.024730000644922256 0.99969100952148438 -0.0025639999657869339
vn 0.00752299977466464 0.99995702505111694 0.0053810002282261848
vn 0.018881000578403473 0.99972701072692871 -0.013740000315010548
vn 0.022354999557137489 0.99915397167205811 -0.034527998417615891
vn 0.025234999135136604 0.99963098764419556 0.010076999664306641
vn 0.037057999521493912 0.9978489875793457 0.05406700074672699
vn -0.0069470000453293324 0.99915599822998047 0.040495000779628754
vn -0.028506999835371971 0.99959301948547363 0.0012329999590292573
vn 0.0091009996831417084 0.9996650218963623 -0.024217000231146812
vn 0.027944000437855721 0.99959802627563477 0.0048710000701248646
vn 0.018786000087857246 0.99979102611541748 0.0080709997564554214
vn 0.035495001822710037 0.9993630051612854 0.0036720000207424164
vn 0.0092270001769065857 0.99993801116943359 0.0062919999472796917
vn -0.017650999128818512 0.99981701374053955 0.007304999977350235
vn -0.0049939998425543308 0.99860799312591553 -0.0525129996240139
vn 0.000805000017862767 0.99957197904586792 -0.029250999912619591
vn 0.00060000002849847078 0.99993401765823364 -0.011455999687314034
vn -0.018926000222563744 0.99933797121047974 -0.031068999320268631
vn -0.016921000555157661 0.99983197450637817 0.0070179998874664307
vn -0.016921000555157661 0.99983197450637817 0.0070179998874664307
vn -0.016920000314712524 0.99983197450637817 0.0070179998874664307
vn -0.066908001899719238 0.9974750280380249 -0.023803999647498131
vn -0.016921000555157661 0.99983197450637817 0.0070179998874664307
vn 0.012690999545156956 0.99935299158096313 0.033661000430583954
vn -0.00609100004658103 0.99984097480773926 0.01677200011909008
vn -0.00060899998061358929 0.999409019947052 0.034363001585006714
f 1/1/1 2/2/2 3/3/3
f 4/4/4 2/2/2 1/1/1
f 4/4/4 5/5/5 2/2/2
f 6/6/6 7/7/7 8/8/8
f 6/6/6 9/9/9 7/7/7
f 6/6/6 10/10/10 9/9/9
f 11/11/11 5/5/5 12/12/12
f 11/11/11 13/13/13 5/5/5
f 5/5/5 14/14/14 2/2/2
f 13/13/13 15/15/15 5/5/5
f 16/16/16 2/2/2 17/17/17
f 16/16/16 18/18/18 2/2/2
f 12/12/12 5/5/5 4/4/4
f 3/3/3 2/2/2 18/18/18
f 19/19/19 16/16/16 17/17/17
f 19/19/19 20/20/20 16/16/16
f 20/20/20 9/9/9 10/10/10
f 20/20/20 19/19/19 9/9/9
f 21/21/21 8/8/8 7/7/7
f 14/14/14 5/5/5 22/22/22
f 19/19/19 17/17/17 23/23/23
f 24/24/24 17/17/17 14/14/14
f 23/23/23 24/24/24 25/25/25
f 23/23/23 17/17/17 24/24/24
f 25/25/25 24/24/24 26/26/26
f 14/14/14 22/22/22 27/27/27
f 5/5/5 28/28/28 22/22/22
f 5/5/5 15/15/15 28/28/28
f 29/29/29 22/22/22 30/30/30
f 22/22/22 31/31/31 32/32/32
f 22/22/22 29/29/29 31/31/31
f 27/27/27 24/24/24 14/14/14
f 28/28/28 30/30/30 22/22/22
f 32/32/32 27/27/27 22/22/22
f 27/27/27 32/32/32 33/33/33
f 27/27/27 34/34/34 24/24/24
f 35/35/35 34/34/34 36/36/36
f 34/34/34 33/33/33 37/37/37
f 33/33/33 34/34/34 27/27/27
f 35/35/35 24/24/24 34/34/34
f 35/35/35 26/26/26 24/24/24
f 33/33/33 32/32/32 38/38/38
f 39/39/39 32/32/32 40/40/40
f 41/41/41 42/42/42 38/38/38
f 43/43/43 38/38/38 42/42/42
f 41/41/41 32/32/32 39/39/39
f 41/41/41 38/38/38 32/32/32
f 44/44/44 33/33/33 38/38/38
f 44/44/44 45/45/45 33/33/33
f 40/40/40 32/32/32 31/31/31
f 17/17/17 2/2/2 14/14/14
f 46/46/46 33/33/33 45/45/45
f 46/46/46 37/37/37 33/33/33
f 47/47/47 44/44/44 38/38/38
f 43/43/43 47/47/47 38/38/38
f 43/43/43 48/48/48 47/47/47
f 48/48/48 49/49/49 50/50/50
f 48/48/48 43/43/43 49/49/49
f 51/51/51 37/37/37 46/46/46
f 52/52/52 50/50/50 49/49/49
f 53/53/53 37/37/37 54/54/54
f 53/53/53 55/55/55 37/37/37
f 55/55/55 34/34/34 37/37/37
f 55/55/55 36/36/36 34/34/34
f 54/54/54 37/37/37 51/51/51
