mtllib m3000133.mtl
usemtl material0
v 224 4.3772621154785156 -123.80492401123047
v 224 4.4783692359924316 -122.32722473144531
v 225.39549255371094 4.3542561531066895 -123.8785400390625
v 224 5.4635591506958008 -107.80888414382935
v 224 5.4721927642822266 -105.4339599609375
v 226.24288940429688 5.3825058937072754 -107.92706298828125
v 224 4.8815789222717285 -113.8807909488678
v 225.81800842285156 4.6313338279724121 -115.90197801589966
v 224 4.7213010787963867 -115.80626702308655
v 225.17692565917969 4.1631379127502441 -128
v 229.10282897949219 3.9439411163330078 -128
v 233.37092590332031 3.9229331016540527 -124.29831695556641
v 233.17454481124878 3.7351889610290527 -128
v 236.70078992843628 3.6198630332946777 -128
v 233.79382276535034 4.2771577835083008 -116.32202100753784
v 224 5.6819009780883789 -99.809822082519531
v 226.66551208496094 5.6805419921875 -99.950576782226562
v 224 5.5950708389282227 -96.98809814453125
v 224 5.5822019577026367 -96
v 226.87382507324219 5.6327528953552246 -96
v 234.64132690429688 5.3249020576477051 -100.37061309814453
v 230.70932006835938 5.4597649574279785 -96
v 234.2172999382019 4.7441549301147461 -108.3461229801178
v 224 4.1796159744262695 -128
v 224 4.3041467666625977 -125.35679626464844
v 241.7695620059967 3.9053859710693359 -116.74200391769409
v 241.34576404094696 3.3729410171508789 -124.71768188476563
v 246.14119005203247 3.1332828998565674 -128
v 249.32183837890625 3.0709729194641113 -125.13790130615234
v 241.17219495773315 3.3163840770721436 -128
v 242.19306898117065 4.3811721801757812 -108.76613593101502
v 234.87281799316406 5.472142219543457 -96
v 242.61630201339722 4.8032288551330566 -100.79007720947266
v 238.30749499797821 5.2541599273681641 -96
v 250.16827392578125 3.9053781032562256 -109.18576002120972
v 256 3.0413379669189453 -125.49046325683594
v 256 3.5559749603271484 -115.66830396652222
v 256 3.032573938369751 -126.53205871582031
v 249.17062377929688 3.0474939346313477 -128
v 256 3.0202219486236572 -128
v 256 3.7199220657348633 -109.49312591552734
v 256 3.8404440879821777 -104.57978105545044
v 256 3.8561720848083496 -103.93862247467041
v 242.8701479434967 4.9889411926269531 -96
v 247.93716382980347 4.4318680763244629 -96
v 250.86569213867188 4.1631431579589844 -96
v 256 4.0228362083435059 -96
vt 0.83802002668380737 0.0066450238227844238
vt 0.79354298114776611 0.0081380009651184082
vt 0.84167999029159546 0.048478007316589355
vt 0.35639598965644836 0.022665977478027344
vt 0.28508201241493225 0.025164008140563965
vt 0.36231398582458496 0.089936971664428711
vt 0.53957301378250122 0.016781985759735107
vt 0.6024550199508667 0.069451987743377686
vt 0.59759598970413208 0.014901995658874512
vt 0.96535301208496094 0.037717998027801514
vt 0.96967899799346924 0.15576601028442383
vt 0.86303699016571045 0.28783702850341797
vt 0.974137008190155 0.2781829833984375
vt 0.97789198160171509 0.38412302732467651
vt 0.6237180233001709 0.30871701240539551
vt 0.11600500345230103 0.03132098913192749
vt 0.12309499830007553 0.11120599508285523
vt 0.031238000839948654 0.034357011318206787
vt 0.0014619999565184116 0.0355910062789917
vt 0.00470300018787384 0.12189000844955444
vt 0.1445389986038208 0.35045701265335083
vt 0.0089509999379515648 0.23716902732849121
vt 0.38424000144004822 0.32963001728057861
vt 0.96413201093673706 0.0023739933967590332
vt 0.88467198610305786 0.0050650238990783691
vt 0.64494699239730835 0.548007994890213
vt 0.8845670223236084 0.52738198637962341
vt 0.98841798305511475 0.667926013469696
vt 0.90565699338912964 0.76660600304603577
vt 0.98295098543167114 0.51862698793411255
vt 0.40555998682975769 0.568901002407074
vt 0.013473999686539173 0.36205101013183594
vt 0.16612799465656281 0.58953800797462463
vt 0.017432000488042831 0.46538102626800537
vt 0.42682600021362305 0.80809700489044189
vt 0.92299497127532959 0.966788999736309
vt 0.62764102220535278 0.97668600082397461
vt 0.95445698499679565 0.96569300070405006
vt 0.991445004940033 0.75909599661827087
vt 0.99853801727294922 0.96417000144720078
vt 0.4421440064907074 0.98297899961471558
vt 0.29455900192260742 0.98799499962478876
vt 0.275299996137619 0.98864900041371584
vt 0.022441999986767769 0.60206699371337891
vt 0.028356000781059265 0.75511300563812256
vt 0.031732998788356781 0.84340900182724
vt 0.03742000088095665 0.997626000083983
vn 0.013395999558269978 0.99822497367858887 -0.058021999895572662
vn 0.039393998682498932 0.99823600053787231 -0.044426999986171722
vn 0.037383999675512314 0.99818998575210571 -0.047120001167058945
vn 0.033548999577760696 0.99828499555587769 -0.04796300083398819
vn 0.0072619998827576637 0.99954098463058472 -0.02942500077188015
vn 0.045910000801086426 0.9971960186958313 -0.059089001268148422
vn 0.034177001565694809 0.99512898921966553 -0.09246700257062912
vn 0.04287400096654892 0.99689602851867676 -0.066036999225616455
vn 0.046139001846313477 0.99708002805709839 -0.06084899976849556
vn 0.034159000962972641 0.99825799465179443 -0.0481019988656044
vn 0.052340999245643616 0.99726402759552 -0.052202001214027405
vn 0.053628001362085342 0.99755001068115234 -0.044916998594999313
vn 0.04218599945306778 0.99771201610565186 -0.052839998155832291
vn 0.058368999511003494 0.997868001461029 -0.029193000867962837
vn 0.049359001219272614 0.99690699577331543 -0.061149999499320984
vn 0.00039800000376999378 0.99999797344207764 -0.0021120000164955854
vn 0.023746000602841377 0.99959099292755127 -0.015931999310851097
vn -0.012989000417292118 0.99976801872253418 0.017156999558210373
vn -0.017586000263690948 0.99976098537445068 0.013020999729633331
vn 0.014794000424444675 0.99982702732086182 0.011315000243484974
vn 0.044190000742673874 0.99790501594543457 -0.047262001782655716
vn 0.03225100040435791 0.99947798252105713 -0.0018260000506415963
vn 0.054903000593185425 0.99643200635910034 -0.06409599632024765
vn 0.013984000310301781 0.99879401922225952 -0.047056999057531357
vn 0.013983000069856644 0.99879401922225952 -0.047056999057531357
vn 0.045003999024629593 0.99702602624893188 -0.0625540018081665
vn 0.048310998827219009 0.997963011264801 -0.041662998497486114
vn 0.034832999110221863 0.99924898147583008 -0.016954999417066574
vn 0.019988000392913818 0.99921500682830811 -0.034194998443126678
vn 0.052774999290704727 0.99840599298477173 -0.019993999972939491
vn 0.051662001758813858 0.99677997827529907 -0.061321999877691269
vn 0.031272999942302704 0.99888700246810913 -0.035307001322507858
vn 0.07430499792098999 0.99633198976516724 -0.04244999960064888
vn 0.061879001557826996 0.99735099077224731 -0.038226999342441559
vn 0.0429299995303154 0.9982680082321167 -0.040217000991106033
vn 0.002870999975129962 0.9995570182800293 -0.029637999832630157
vn 0.0083609996363520622 0.99889200925827026 -0.046317998319864273
vn 0.003992999903857708 0.99995702505111694 -0.0084140002727508545
vn 0.016558000817894936 0.99982202053070068 -0.0090770004317164421
vn 0.003992999903857708 0.99995702505111694 -0.0084140002727508545
vn 0.030430000275373459 0.999210000038147 -0.025552999228239059
vn 0.030485000461339951 0.99923497438430786 -0.024511000141501427
vn 0.028157999739050865 0.9993630051612854 -0.021924000233411789
vn 0.084412001073360443 0.99550002813339233 -0.043069001287221909
vn 0.0955130010843277 0.9950069785118103 -0.028955999761819839
vn 0.058309998363256454 0.9980430006980896 -0.022594999521970749
vn 0.027310999110341072 0.99940699338912964 -0.020981999114155769
f 1/1/1 2/2/2 3/3/3
f 4/4/4 5/5/5 6/6/6
f 7/7/7 8/8/8 9/9/9
f 2/2/2 8/8/8 3/3/3
f 2/2/2 9/9/9 8/8/8
f 10/10/10 3/3/3 11/11/11
f 12/12/12 3/3/3 8/8/8
f 11/11/11 12/12/12 13/13/13
f 11/11/11 3/3/3 12/12/12
f 13/13/13 12/12/12 14/14/14
f 8/8/8 6/6/6 15/15/15
f 7/7/7 6/6/6 8/8/8
f 7/7/7 4/4/4 6/6/6
f 6/6/6 16/16/16 17/17/17
f 6/6/6 5/5/5 16/16/16
f 16/16/16 18/18/18 17/17/17
f 19/19/19 17/17/17 18/18/18
f 19/19/19 20/20/20 17/17/17
f 20/20/20 21/21/21 17/17/17
f 20/20/20 22/22/22 21/21/21
f 6/6/6 17/17/17 23/23/23
f 24/24/24 3/3/3 10/10/10
f 24/24/24 25/25/25 3/3/3
f 25/25/25 1/1/1 3/3/3
f 8/8/8 15/15/15 12/12/12
f 23/23/23 15/15/15 6/6/6
f 15/15/15 23/23/23 26/26/26
f 15/15/15 27/27/27 12/12/12
f 28/28/28 27/27/27 29/29/29
f 28/28/28 30/30/30 27/27/27
f 27/27/27 26/26/26 29/29/29
f 26/26/26 27/27/27 15/15/15
f 30/30/30 12/12/12 27/27/27
f 30/30/30 14/14/14 12/12/12
f 26/26/26 23/23/23 31/31/31
f 32/32/32 21/21/21 22/22/22
f 32/32/32 33/33/33 21/21/21
f 32/32/32 34/34/34 33/33/33
f 31/31/31 21/21/21 33/33/33
f 23/23/23 21/21/21 31/31/31
f 35/35/35 26/26/26 31/31/31
f 21/21/21 23/23/23 17/17/17
f 33/33/33 35/35/35 31/31/31
f 36/36/36 35/35/35 37/37/37
f 36/36/36 29/29/29 35/35/35
f 38/38/38 29/29/29 36/36/36
f 38/38/38 39/39/39 29/29/29
f 38/38/38 40/40/40 39/39/39
f 41/41/41 37/37/37 35/35/35
f 39/39/39 28/28/28 29/29/29
f 42/42/42 35/35/35 43/43/43
f 42/42/42 41/41/41 35/35/35
f 44/44/44 33/33/33 34/34/34
f 45/45/45 33/33/33 44/44/44
f 45/45/45 35/35/35 33/33/33
f 45/45/45 46/46/46 35/35/35
f 47/47/47 35/35/35 46/46/46
f 47/47/47 43/43/43 35/35/35
f 26/26/26 35/35/35 29/29/29
