mtllib m30000120.mtl
usemtl material0
v 65.403778076171875 4.1303510665893555 -48
v 64.802352905273438 4.0335531234741211 -48
v 65.433411121368408 4.0670261383056641 -47.432507038116455
v 73.404129028320312 4.2350811958312988 -48
v 73.250084042549133 4.2515277862548828 -48
v 73.411803960800171 4.233245849609375 -47.854351043701172
v 69.4046630859375 4.3221898078918457 -48
v 69.02764892578125 4.3058872222900391 -48
v 69.42327094078064 4.2844128608703613 -47.643894195556641
v 64 4.0192131996154785 -45.839400768280029
v 64 3.9535050392150879 -47.356449127197266
v 69.632766962051392 4.0671682357788086 -43.654385089874268
v 73.622519969940186 4.262578010559082 -43.865695953369141
v 64 3.9611349105834961 -47.634284973144531
v 64 3.9711790084838867 -48
v 64 3.9568328857421875 -43.356579065322876
v 65.643494129180908 3.9679429531097412 -43.443404912948608
v 80 3.8891599178314209 -48
v 77.4706802368164 3.9886889457702637 -48
v 80 3.8490340709686279 -45.723297119140625
v 76.179999828338623 4.0662059783935547 -48
v 77.610282897949219 4.0546708106994629 -44.075614929199219
v 77.402801990509033 3.9936220645904541 -48
v 64 3.96812105178833 -41.616703033447266
v 64 3.946721076965332 -39.3566700220108
v 65.8538670539856 3.92793607711792 -39.4545059800148
v 73.831946969032288 4.0306811332702637 -39.876133002340794
v 80 3.8785600662231445 -44.201243877410889
v 80 3.8081541061401367 -41.923660039901733
v 80 3.8494861125946045 -45.700024127960205
v 77.820145130157471 3.9106619358062744 -40.086356997489929
v 66.064133167266846 3.866441011428833 -35.465534210205078
v 64 3.9165399074554443 -37.323009014129639
v 69.843002080917358 3.9988420009613037 -39.665385991334915
v 70.052840948104858 3.8499460220336914 -35.676116943359375
v 78.029076099395752 3.5791521072387695 -36.096455097198486
v 80 3.7526869773864746 -40.200966000556946
v 80 3.5840270519256592 -38.122581005096436
v 74.041282892227173 3.7807118892669678 -35.886513233184814
v 64 3.8666360378265381 -35.356536865234375
v 66.246512889862061 3.75532603263855 -32
v 64 3.8153738975524902 -33.753028869628906
v 65.692176818847656 3.7563140392303467 -32
v 64 3.8080151081085205 -33.522841930389404
v 70.245978951454163 3.6690959930419922 -32
v 69.914336919784546 3.67132306098938 -32
v 74.1360239982605 3.5313758850097656 -32
v 74.245171070098877 3.5291149616241455 -32
v 64 3.7726349830627441 -32
v 78.142096996307373 3.2226688861846924 -32
v 78.237899780273438 3.22468900680542 -32.106472015380859
v 76.212502002716064 3.3759329319000244 -32
v 74.34337592124939 3.5238308906555176 -32
v 80 3.4322140216827393 -36.200066089630127
v 80 3.2367680072784424 -34.320529937744141
v 80 3.0293920040130615 -32
v 78.355995178222656 3.1967151165008545 -32
v 80 3.0383241176605225 -32.0596079826355
v 80 3.0592100620269775 -32.198997020721436
v 78.243439197540283 3.2091999053955078 -32
vt 0 0.087736010551452637
vt 0 0.050146996974945068
vt 0.035468000918626785 0.0895879864692688
vt 0 0.58775800466537476
vt 0 0.57813000679016113
vt 0.0091030001640319824 0.588238000869751
vt 0 0.33779102563858032
vt 0 0.31422799825668335
vt 0.022257000207901 0.33895397186279297
vt 0.13503700494766235 0
vt 0.040222000330686569 0
vt 0.27160099148750305 0.35204797983169556
vt 0.25839400291442871 0.60140800476074219
vt 0.022856999188661575 0
vt 0 0
vt 0.29021400213241577 0
vt 0.28478699922561646 0.10271799564361572
vt 0 1
vt 0 0.84191800653934479
vt 0.14229400455951691 1
vt 0 0.76125000417232513
vt 0.24527400732040405 0.85064299404621124
vt 0 0.837675005197525
vt 0.39895600080490112 0
vt 0.54020798206329346 0
vt 0.53409302234649658 0.115867018699646
vt 0.50774198770523071 0.61449700593948364
vt 0.23742200434207916 1
vt 0.37977099418640137 1
vt 0.14374899864196777 1
vt 0.49460300803184509 0.863758996129036
vt 0.78340399265289307 0.12900799512863159
vt 0.66731202602386475 0
vt 0.52091300487518311 0.36518800258636475
vt 0.77024298906326294 0.37830299139022827
vt 0.74397200345993042 0.8768170028924942
vt 0.48743999004364014 1
vt 0.617339015007019 1
vt 0.75709301233291626 0.62757998704910278
vt 0.79021602869033813 0
vt 1 0.1404070258140564
vt 0.89043599367141724 0
vt 1 0.10576099157333374
vt 0.90482199192047119 0
vt 1 0.39037400484085083
vt 1 0.36964601278305054
vt 1 0.63350200653076172
vt 1 0.64032301306724548
vt 1 0
vt 1 0.883881002664566
vt 0.99334502220153809 0.88986899703741074
vt 1 0.76328100264072418
vt 1 0.646461009979248
vt 0.737496018409729 1
vt 0.85496699810028076 1
vt 1 1
vt 1 0.89724999666213989
vt 0.99627399444580078 1
vt 0.98756301403045654 1
vt 1 0.89021500200033188
vn -0.06390099972486496 0.99142700433731079 0.11396700143814087
vn -0.098626002669334412 0.99381399154663086 0.051054999232292175
vn -0.03531000018119812 0.99857997894287109 0.039889998733997345
vn 0.063123002648353577 0.997963011264801 0.0092489998787641525
vn 0.019255999475717545 0.99444901943206787 0.10344699770212174
vn 0.038966000080108643 0.99919402599334717 -0.009692000225186348
vn 0.012802000157535076 0.99440902471542358 0.10482099652290344
vn -0.047885000705718994 0.99243497848510742 0.11304499953985214
vn -0.027139000594615936 0.99881201982498169 0.040477998554706573
vn -0.034260999411344528 0.999413013458252 -0.000830999983008951
vn -0.080608002841472626 0.99622499942779541 -0.032235998660326004
vn -0.030660999938845634 0.99890601634979248 0.035314999520778656
vn 0.009855000302195549 0.999455988407135 0.0314829982817173
vn -0.077477000653743744 0.99661797285079956 0.027370000258088112
vn -0.077476002275943756 0.99661797285079956 0.027371000498533249
vn -0.0057990001514554024 0.99981802701950073 0.018163999542593956
vn -0.013334999792277813 0.999779999256134 0.016166999936103821
vn 0.039314001798629761 0.99907201528549194 0.017607999965548515
vn 0.040183000266551971 0.99905401468276978 0.016641000285744667
vn 0.040511000901460648 0.99904698133468628 0.016276000067591667
vn 0.059280999004840851 0.99808001518249512 -0.017961999401450157
vn 0.061719998717308044 0.99808698892593384 0.0036430000327527523
vn 0.068164996802806854 0.99749100208282471 -0.019121000543236732
vn 0.0029180001001805067 0.99999302625656128 0.0025279999244958162
vn 0.01077600009739399 0.9998670220375061 0.012210000306367874
vn -0.008500000461935997 0.9997820258140564 0.019051000475883484
vn 0.010586000047624111 0.99835699796676636 0.056315001100301743
vn 0.07406199723482132 0.99719399213790894 0.010913999751210213
vn 0.074263997375965118 0.99673402309417725 0.031711000949144363
vn 0.0724710002541542 0.99718302488327026 -0.019344000145792961
vn 0.053977001458406448 0.996882975101471 0.057537000626325607
vn 0.0092249996960163116 0.99955397844314575 0.028386000543832779
vn 0.0062540001235902309 0.999779999256134 0.020015999674797058
vn -0.0050019999034702778 0.99939000606536865 0.034554999321699142
vn 0.011477000080049038 0.9990839958190918 0.041230998933315277
vn 0.062185000628232956 0.99525898694992065 0.074781998991966248
vn 0.075226001441478729 0.99543797969818115 0.058694999665021896
vn 0.077202998101711273 0.993831992149353 0.079605996608734131
vn 0.02850399911403656 0.99797797203063965 0.05680600181221962
vn 0.0016870000399649143 0.99954402446746826 0.030152000486850739
vn 0.012751000002026558 0.999426007270813 0.031373001635074615
vn 0.0017819999484345317 0.99948799610137939 0.031952999532222748
vn 0.0069249998778104782 0.99963200092315674 0.026242999359965324
vn 0.0086099999025464058 0.99966597557067871 0.024372000247240067
vn 0.020292000845074654 0.99863797426223755 0.0480629988014698
vn 0.021544000133872032 0.99924498796463013 0.03232400119304657
vn 0.02760699950158596 0.9980589747428894 0.055828001350164413
vn 0.036292001605033875 0.9973750114440918 0.062661997973918915
vn 0.0096420003101229668 0.99968397617340088 0.023226000368595123
vn 0.081473000347614288 0.99240797758102417 0.092137999832630157
vn 0.089795999228954315 0.99230098724365234 0.085299000144004822
vn 0.078603997826576233 0.99334299564361572 0.084206998348236084
vn 0.061753001064062119 0.99570298194885254 0.06900700181722641
vn 0.078487001359462738 0.99334698915481567 0.084274999797344208
vn 0.092997997999191284 0.99177002906799316 0.0879959985613823
vn 0.10014799982309341 0.98398697376251221 0.14744700491428375
vn 0.10072799772024155 0.98402202129364014 0.14681200683116913
vn 0.10014799982309341 0.98398697376251221 0.14744199812412262
vn 0.0976720005273819 0.99140697717666626 0.0870169997215271
vn 0.11932100355625153 0.98337900638580322 0.1368509978055954
f 1/1/1 2/2/2 3/3/3
f 4/4/4 5/5/5 6/6/6
f 7/7/7 8/8/8 9/9/9
f 10/10/10 3/3/3 11/11/11
f 3/3/3 12/12/12 9/9/9
f 8/8/8 3/3/3 9/9/9
f 8/8/8 1/1/1 3/3/3
f 5/5/5 9/9/9 6/6/6
f 5/5/5 7/7/7 9/9/9
f 9/9/9 13/13/13 6/6/6
f 11/11/11 3/3/3 14/14/14
f 14/14/14 2/2/2 15/15/15
f 14/14/14 3/3/3 2/2/2
f 3/3/3 16/16/16 17/17/17
f 3/3/3 10/10/10 16/16/16
f 18/18/18 19/19/19 20/20/20
f 21/21/21 22/22/22 23/23/23
f 21/21/21 6/6/6 22/22/22
f 21/21/21 4/4/4 6/6/6
f 24/24/24 17/17/17 16/16/16
f 25/25/25 17/17/17 24/24/24
f 25/25/25 26/26/26 17/17/17
f 13/13/13 12/12/12 27/27/27
f 12/12/12 13/13/13 9/9/9
f 28/28/28 22/22/22 29/29/29
f 23/23/23 20/20/20 19/19/19
f 23/23/23 30/30/30 20/20/20
f 30/30/30 22/22/22 28/28/28
f 30/30/30 23/23/23 22/22/22
f 6/6/6 13/13/13 22/22/22
f 22/22/22 13/13/13 31/31/31
f 25/25/25 32/32/32 26/26/26
f 25/25/25 33/33/33 32/32/32
f 26/26/26 34/34/34 12/12/12
f 34/34/34 27/27/27 12/12/12
f 26/26/26 35/35/35 34/34/34
f 27/27/27 36/36/36 31/31/31
f 31/31/31 29/29/29 22/22/22
f 31/31/31 37/37/37 29/29/29
f 37/37/37 31/31/31 38/38/38
f 13/13/13 27/27/27 31/31/31
f 34/34/34 39/39/39 27/27/27
f 26/26/26 12/12/12 17/17/17
f 3/3/3 17/17/17 12/12/12
f 40/40/40 41/41/41 32/32/32
f 40/40/40 42/42/42 41/41/41
f 42/42/42 43/43/43 41/41/41
f 42/42/42 44/44/44 43/43/43
f 33/33/33 40/40/40 32/32/32
f 26/26/26 32/32/32 35/35/35
f 32/32/32 45/45/45 35/35/35
f 32/32/32 46/46/46 45/45/45
f 35/35/35 39/39/39 34/34/34
f 47/47/47 39/39/39 35/35/35
f 47/47/47 48/48/48 39/39/39
f 41/41/41 46/46/46 32/32/32
f 45/45/45 47/47/47 35/35/35
f 49/49/49 43/43/43 44/44/44
f 50/50/50 51/51/51 52/52/52
f 53/53/53 39/39/39 48/48/48
f 53/53/53 36/36/36 39/39/39
f 54/54/54 36/36/36 55/55/55
f 27/27/27 39/39/39 36/36/36
f 54/54/54 31/31/31 36/36/36
f 54/54/54 38/38/38 31/31/31
f 56/56/56 51/51/51 57/57/57
f 56/56/56 58/58/58 51/51/51
f 58/58/58 59/59/59 51/51/51
f 55/55/55 51/51/51 59/59/59
f 55/55/55 36/36/36 51/51/51
f 60/60/60 57/57/57 51/51/51
f 60/60/60 51/51/51 50/50/50
f 52/52/52 36/36/36 53/53/53
f 52/52/52 51/51/51 36/36/36
