mtllib m3000222.mtl
usemtl material0
v 0 7.0742311477661133 -236.51280188560486
v 3.2762794494628906 7.1294031143188477 -240.15420499444008
v 0 7.2461872100830078 -239.9815669991076
v 3.9380807876586914 6.3875417709350586 -224
v 4.11495304107666 6.3951029777526855 -224.19657897949219
v 0.385498046875 6.5086331367492676 -224
v 0 6.8904399871826172 -231.98065185546875
v 0 6.7176680564880371 -228.06788635253906
v 3.6957721710205078 6.7940001487731934 -232.17550706863403
v 0 7.4324679374694824 -247.98194885253906
v 0 7.4178447723388672 -244.95774793624878
v 2.8565683364868164 7.4203529357910156 -248.13275146484375
v 7.902857780456543 6.6753740310668945 -256
v 10.831210136413574 6.8220610618591309 -248.55192565917969
v 12.882076978683472 6.1875357627868652 -256
v 2.4394693374633789 7.0714211463928223 -256
v 11.25069522857666 6.4852128028869629 -240.57322698831558
v 18.801755905151367 5.3912448883056641 -248.96818542480469
v 4.125248908996582 6.3792738914489746 -224
v 11.669496059417725 6.009188175201416 -232.59402513504028
v 19.221352100372314 5.0773458480834961 -240.98954802751541
v 12.088011026382446 5.475039005279541 -224.6146240234375
v 19.641562938690186 4.8884248733520508 -233.01136779785156
v 12.12031102180481 5.4463791847229 -224
v 4.3331480026245117 6.361508846282959 -224
v 0 6.5213479995727539 -224
v 0 6.7176680564880371 -228.06788635253906
v 0 7.1949257850646973 -253.32560729980469
v 0 7.0760412216186523 -256
v 26.773015975952148 4.1073808670043945 -249.38494873046875
v 18.429574966430664 5.2022008895874023 -256
v 24.174137115478516 4.2875781059265137 -256
v 28.595797538757324 3.871006965637207 -256
v 27.193206787109375 3.9140849113464355 -241.40675401687622
v 27.613981246948242 3.8399078845977783 -233.4289698600769
v 20.061133861541748 4.5691170692443848 -225.03273010253906
v 32 3.4117870330810547 -241.65895104408264
v 32 3.3991219997406006 -238.30477905273438
v 28.033773422241211 3.5660090446472168 -225.45048522949219
v 32 3.5140049457550049 -246.75016784667969
v 32 3.568540096282959 -249.65922546386719
v 32 3.5214018821716309 -256
v 32 3.5468978881835938 -252.57038879394531
v 32 3.3002860546112061 -229.859375
v 32 3.41087007522583 -233.65918016433716
v 32 3.3126280307769775 -225.65910339355469
v 32 3.3460679054260254 -224
v 29.645343780517578 3.4939980506896973 -224
v 32 3.3311939239501953 -224.73794555664063
v 28.110252380371094 3.5474560260772705 -224
v 21.207670211791992 4.4181499481201172 -224
v 20.1153302192688 4.5060482025146484 -224
v 12.770164012908936 5.3617877960205078 -224
vt 0.37582799792289734 0.021915972232818604
vt 0.48835301399230957 0.11607801914215088
vt 0.47978299856185913 0.018122017383575439
vt 0.0050249998457729816 0.15347802639007568
vt 0.011118000373244286 0.15867799520492554
vt 0.0013249999610707164 0.047074019908905029
vt 0.24005800485610962 0.026830971240997314
vt 0.12282499670982361 0.031086981296539307
vt 0.24977500736713409 0.13729202747344971
vt 0.71934801340103149 0.00957101583480835
vt 0.62882202863693237 0.012767016887664795
vt 0.72687900066375732 0.094919025897979736
vt 0.96749198436737061 0.23878300189971924
vt 0.74741697311401367 0.33389502763748169
vt 0.97244101762771606 0.39103800058364868
vt 0.96216702461242676 0.074147999286651611
vt 0.50884097814559937 0.35515797138214111
vt 0.76709502935409546 0.57596799731254578
vt 0.0051560001447796822 0.15908801555633545
vt 0.2700439989566803 0.37674599885940552
vt 0.52811402082443237 0.59714600443840027
vt 0.031176000833511353 0.39856100082397461
vt 0.28961199522018433 0.61740401387214661
vt 0.012794000096619129 0.40019899606704712
vt 0.0054350001737475395 0.16546797752380371
vt 0.00092299998505041 0.035528004169464111
vt 0.12282499670982361 0.031086981296539307
vt 0.87945997714996338 0.003943026065826416
vt 0.9595940113067627 0.0011259913444519043
vt 0.78651398420333862 0.81755700707435608
vt 0.97745698690414429 0.55972400307655334
vt 0.98241102695465088 0.73406898975372314
vt 0.98611199855804443 0.86704200506210327
vt 0.54802000522613525 0.83795000612735748
vt 0.3093700110912323 0.85776400566101074
vt 0.051105998456478119 0.63840898871421814
vt 0.55965900421142578 0.98243699967861176
vt 0.45923799276351929 0.98543599992990494
vt 0.070919997990131378 0.87859799712896347
vt 0.7124210000038147 0.977445999160409
vt 0.79952198266983032 0.97462200000882149
vt 0.9893680214881897 0.96916400082409382
vt 0.88668197393417358 0.9720309991389513
vt 0.20670999586582184 0.993383000139147
vt 0.32015201449394226 0.98950100038200617
vt 0.080966003239154816 0.99737600004300475
vt 0.031206000596284866 0.99887400004081428
vt 0.028997000306844711 0.9282429963350296
vt 0.0533830001950264 0.99822299997322261
vt 0.0275650005787611 0.88225799798965454
vt 0.021273000165820122 0.67399799823760986
vt 0.020198000594973564 0.6411919891834259
vt 0.013399000279605389 0.41981798410415649
vn 0.030528999865055084 0.9986259937286377 0.042598001658916473
vn 0.058809000998735428 0.997573971748352 0.037255000323057175
vn 0.0378119982779026 0.99839299917221069 0.042208999395370483
vn 0.036665000021457672 0.99677902460098267 0.071328997611999512
vn 0.070418998599052429 0.99583101272583008 0.057982999831438065
vn 0.032947000116109848 0.998278021812439 0.048526998609304428
vn 0.028294000774621964 0.99870198965072632 0.042357999831438065
vn 0.028384000062942505 0.99862402677536011 0.0440949983894825
vn 0.062659002840518951 0.99705398082733154 0.044234000146389008
vn 0.0032389999832957983 0.99981498718261719 -0.018965000286698341
vn 0.029741000384092331 0.99917799234390259 0.02754800021648407
vn 0.043657001107931137 0.99900197982788086 -0.00945299956947565
vn 0.081818997859954834 0.99530202150344849 -0.051771000027656555
vn 0.1228799968957901 0.99240899085998535 -0.0050479997880756855
vn 0.14297899603843689 0.9887080192565918 -0.044861000031232834
vn 0.035932000726461411 0.9982870221138 -0.046181999146938324
vn 0.13112600147724152 0.99054700136184692 0.040282998234033585
vn 0.16550399363040924 0.98620098829269409 -0.0040759998373687267
vn 0.065205000340938568 0.994920015335083 0.076697997748851776
vn 0.12752500176429749 0.99060100317001343 0.049458000808954239
vn 0.15613000094890595 0.98735898733139038 0.027307000011205673
vn 0.12122099846601486 0.99144601821899414 0.048367999494075775
vn 0.13456299901008606 0.99056297540664673 0.026026999577879906
vn 0.12302999943494797 0.99160599708557129 0.039774000644683838
vn 0.10927499830722809 0.99283397197723389 0.048377998173236847
vn 0.03292899951338768 0.99829602241516113 0.048179000616073608
vn 0.03292899951338768 0.99829602241516113 0.048179000616073608
vn 0.0018919999711215496 0.99901199340820312 -0.044408999383449554
vn 0.0018919999711215496 0.99901199340820312 -0.044408999383449554
vn 0.12707400321960449 0.99189299345016479 -0.0008580000139772892
vn 0.16622899472713471 0.9854549765586853 -0.035291001200675964
vn 0.133091002702713 0.99078100919723511 -0.02529899962246418
vn 0.0986969992518425 0.99508202075958252 -0.0083609996363520622
vn 0.12478300184011459 0.99208700656890869 0.013848000206053257
vn 0.11481600254774094 0.99326598644256592 0.015495999716222286
vn 0.11550799757242203 0.99260002374649048 0.037443999201059341
vn 0.10455299913883209 0.99444502592086792 0.012121999636292458
vn 0.10251200199127197 0.99472898244857788 0.0022879999596625566
vn 0.095389999449253082 0.99538499116897583 0.010487999767065048
vn 0.10383500158786774 0.99441397190093994 0.018952000886201859
vn 0.1028129979968071 0.994687020778656 0.0051970002241432667
vn 0.10215800255537033 0.99474102258682251 -0.007395000196993351
vn 0.10215800255537033 0.99474102258682251 -0.007395000196993351
vn 0.090607002377510071 0.99565500020980835 0.021501999348402023
vn 0.098007000982761383 0.99510502815246582 0.012707999907433987
vn 0.063161998987197876 0.99794000387191772 -0.011230999603867531
vn 0.062688000500202179 0.99783098697662354 -0.020112000405788422
vn 0.056194998323917389 0.99833697080612183 -0.012872000224888325
vn 0.062688000500202179 0.99783098697662354 -0.020111000165343285
vn 0.078515999019145966 0.99687600135803223 0.0086110001429915428
vn 0.11472000181674957 0.99323797225952148 0.017830999568104744
vn 0.097174003720283508 0.99371397495269775 0.055587001144886017
vn 0.1186629980802536 0.99162298440933228 0.051015999168157578
f 1/1/1 2/2/2 3/3/3
f 4/4/4 5/5/5 6/6/6
f 7/7/7 8/8/8 9/9/9
f 10/10/10 11/11/11 12/12/12
f 12/12/12 3/3/3 2/2/2
f 12/12/12 11/11/11 3/3/3
f 13/13/13 14/14/14 15/15/15
f 14/14/14 16/16/16 12/12/12
f 14/14/14 13/13/13 16/16/16
f 14/14/14 17/17/17 18/18/18
f 14/14/14 12/12/12 17/17/17
f 2/2/2 7/7/7 9/9/9
f 2/2/2 1/1/1 7/7/7
f 19/19/19 5/5/5 4/4/4
f 2/2/2 9/9/9 17/17/17
f 9/9/9 5/5/5 20/20/20
f 20/20/20 17/17/17 9/9/9
f 20/20/20 21/21/21 17/17/17
f 22/22/22 23/23/23 20/20/20
f 22/22/22 20/20/20 5/5/5
f 12/12/12 2/2/2 17/17/17
f 24/24/24 5/5/5 25/25/25
f 24/24/24 22/22/22 5/5/5
f 9/9/9 6/6/6 5/5/5
f 9/9/9 26/26/26 6/6/6
f 9/9/9 27/27/27 26/26/26
f 16/16/16 10/10/10 12/12/12
f 16/16/16 28/28/28 10/10/10
f 28/28/28 16/16/16 29/29/29
f 30/30/30 31/31/31 18/18/18
f 30/30/30 32/32/32 31/31/31
f 32/32/32 30/30/30 33/33/33
f 30/30/30 18/18/18 34/34/34
f 18/18/18 15/15/15 14/14/14
f 18/18/18 31/31/31 15/15/15
f 23/23/23 21/21/21 20/20/20
f 21/21/21 23/23/23 34/34/34
f 35/35/35 23/23/23 36/36/36
f 23/23/23 35/35/35 34/34/34
f 37/37/37 35/35/35 38/38/38
f 37/37/37 34/34/34 35/35/35
f 35/35/35 36/36/36 39/39/39
f 18/18/18 21/21/21 34/34/34
f 36/36/36 23/23/23 22/22/22
f 40/40/40 30/30/30 34/34/34
f 40/40/40 41/41/41 30/30/30
f 21/21/21 18/18/18 17/17/17
f 40/40/40 34/34/34 37/37/37
f 42/42/42 33/33/33 43/43/43
f 43/43/43 30/30/30 41/41/41
f 43/43/43 33/33/33 30/30/30
f 44/44/44 35/35/35 39/39/39
f 44/44/44 45/45/45 35/35/35
f 38/38/38 35/35/35 45/45/45
f 44/44/44 39/39/39 46/46/46
f 47/47/47 39/39/39 48/48/48
f 47/47/47 49/49/49 39/39/39
f 49/49/49 46/46/46 39/39/39
f 50/50/50 36/36/36 51/51/51
f 50/50/50 39/39/39 36/36/36
f 52/52/52 22/22/22 53/53/53
f 52/52/52 36/36/36 22/22/22
f 25/25/25 5/5/5 19/19/19
f 53/53/53 22/22/22 24/24/24
f 48/48/48 39/39/39 50/50/50
f 51/51/51 36/36/36 52/52/52
