mtllib m3000322.mtl
usemtl material0
v 128 2.7858469486236572 -246.72643995285034
v 128 2.7828071117401123 -243.66041588783264
v 130.89468383789063 2.4948060512542725 -246.87834215164185
v 128 2.80074405670166 -238.72672998905182
v 128 2.6878509521484375 -235.21499586105347
v 131.31576538085938 2.4836161136627197 -238.90078699588776
v 128 3.0709810256958008 -252.10543823242188
v 130.47584533691406 2.9610459804534912 -254.85749816894531
v 128 3.0982089042663574 -254.72720336914063
v 138.16752576828003 2.5777359008789062 -256
v 138.4512791633606 2.5294420719146729 -255.27726745605469
v 138.6506199836731 2.5487759113311768 -256
v 130.41581726074219 3.0154500007629395 -256
v 128 3.1207339763641357 -255.23243713378906
v 128 3.1549549102783203 -256
v 138.87104797363281 2.2516739368438721 -247.29876708984375
v 131.73666381835938 2.4367640018463135 -230.92311096191406
v 139.29177904129028 2.169684886932373 -239.32096898555756
v 128 2.6767289638519287 -230.72656345367432
v 146.42981004714966 2.7208540439605713 -255.69921875
v 146.84898400306702 2.3249249458312988 -247.72030591964722
v 139.71244812011719 2.0749819278717041 -231.34310913085938
v 132.10104370117188 2.2215321063995361 -224
v 128 2.5651159286499023 -226.68734741210938
v 130.98458862304688 2.2948520183563232 -224
v 128 2.5792338848114014 -227.19825744628906
v 140.09864807128906 1.7936710119247437 -224
v 133.10600280761719 2.1744320392608643 -224
v 147.68965101242065 1.9978450536727905 -231.76411437988281
v 140.70384192466736 1.7866150140762329 -224
v 128 2.5606369972229004 -224
v 147.26933288574219 2.1643240451812744 -239.7422179877758
v 146.41395592689514 2.7266368865966797 -256
v 152.10597229003906 3.0414199829101562 -256
v 154.82818603515625 2.6525459289550781 -248.14273071289063
v 154.29977416992188 3.1592199802398682 -256
v 154.416015625 3.1635808944702148 -256
v 160 3.2575540542602539 -256
v 160 3.1184670925140381 -253.89013671875
v 160 2.8658349514007568 -248.41653442382813
v 155.24751281738281 2.2873589992523193 -240.16392500698566
v 160 2.7237989902496338 -245.44532823562622
v 155.6678466796875 2.124298095703125 -232.18583679199219
v 160 2.4234540462493896 -240.41534399986267
v 160 2.2497780323028564 -235.88786315917969
v 148.09815979003906 1.7341370582580566 -224
v 148.30230712890625 1.7369979619979858 -224
v 155.90138244628906 2.0276970863342285 -224
v 156.08854675292969 2.0354349613189697 -224.2080078125
v 152.15888977050781 1.8834619522094727 -224
v 160 2.1767799854278564 -232.4147801399231
v 160 2.131450891494751 -228.5552978515625
v 156.09953308105469 2.036797046661377 -224
v 160 2.127871036529541 -224
v 160 2.1273488998413086 -224.09823608398438
v 160 2.1256659030914307 -224.41485595703125
vt 0.68442201614379883 0.012597978115081787
vt 0.59234100580215454 0.015841007232666016
vt 0.69205302000045776 0.099811971187591553
vt 0.44416400790214539 0.020991981029510498
vt 0.33865401148796082 0.025021970272064209
vt 0.45290398597717285 0.1208450198173523
vt 0.84616398811340332 0.0060489773750305176
vt 0.93153601884841919 0.077452003955841064
vt 0.92490202188491821 0.003126978874206543
vt 0.97456502914428711 0.30742698907852173
vt 0.95316201448440552 0.3168330192565918
vt 0.97510898113250732 0.321960985660553
vt 0.96580797433853149 0.074270009994506836
vt 0.94008898735046387 0.0025339722633361816
vt 0.96314901113510132 0.0015990138053894043
vt 0.71306401491165161 0.33903801441192627
vt 0.21375000476837158 0.1419060230255127
vt 0.47390198707580566 0.360135018825531
vt 0.2038549929857254 0.029848992824554443
vt 0.9746670126914978 0.55603998899459839
vt 0.73420798778533936 0.57819798588752747
vt 0.23473499715328217 0.38125002384185791
vt 0.0061340001411736012 0.1603969931602478
vt 0.082507997751235962 0.034362971782684326
vt 0.00481799989938736 0.1270819902420044
vt 0.0978579968214035 0.03381800651550293
vt 0.014453999698162079 0.40070199966430664
vt 0.0071879997849464417 0.19061201810836792
vt 0.25580701231956482 0.62039598822593689
vt 0.015092999674379826 0.418878972530365
vt 0.0017950000474229455 0.037086009979248047
vt 0.49500000476837158 0.59927800297737122
vt 0.98368501663208008 0.55523499846458435
vt 0.98984897136688232 0.72645300626754761
vt 0.75556200742721558 0.81757299602031708
vt 0.99263501167297363 0.79241600632667542
vt 0.9915270209312439 0.79604199528694153
vt 0.99820500612258911 0.96373999863862991
vt 0.93402099609375 0.96702399849891663
vt 0.76945400238037109 0.97272299975156784
vt 0.51611500978469849 0.838468000292778
vt 0.68011701107025146 0.97581000067293644
vt 0.27689799666404724 0.85946699976921082
vt 0.528777003288269 0.98098400048911572
vt 0.39268401265144348 0.98569600004702806
vt 0.022915000095963478 0.64075899124145508
vt 0.023130999878048897 0.64689099788665771
vt 0.031353998929262161 0.87527400255203247
vt 0.037804000079631805 0.88067399710416794
vt 0.027303999289870262 0.76279500126838684
vt 0.28835299611091614 0.98934200033545494
vt 0.17256200313568115 0.99351500021293759
vt 0.031569000333547592 0.881231002509594
vt 0.035799998790025711 0.99840100004803389
vt 0.038704998791217804 0.99829500005580485
vt 0.048213999718427658 0.99795400002039969
vn 0.10135699808597565 0.9945099949836731 0.026017999276518822
vn 0.096206001937389374 0.99535799026489258 -0.0025420000310987234
vn 0.068815000355243683 0.997344970703125 0.023824000731110573
vn 0.095964998006820679 0.99527502059936523 0.014759000390768051
vn 0.071863003075122833 0.99737000465393066 0.0093830004334449768
vn 0.062568999826908112 0.99802601337432861 0.0053460001945495605
vn 0.091733001172542572 0.99486398696899414 0.042785000056028366
vn 0.062545999884605408 0.99707400798797607 0.043954998254776
vn 0.05670500174164772 0.99802899360656738 0.026868000626564026
vn 0.05763699859380722 0.99736702442169189 0.0440169982612133
vn 0.018391000106930733 0.99913102388381958 0.037397000938653946
vn 0.011397999711334705 0.99948799610137939 0.029882000759243965
vn 0.05697999894618988 0.9973829984664917 0.044500000774860382
vn 0.057594001293182373 0.99734902381896973 0.04446600005030632
vn 0.057594001293182373 0.99734902381896973 0.04446600005030632
vn 0.011102000251412392 0.99968099594116211 0.022686000913381577
vn 0.054806999862194061 0.99836397171020508 0.016310000792145729
vn 0.020075000822544098 0.99974298477172852 0.010494999587535858
vn 0.06488800048828125 0.99777299165725708 0.015429999679327011
vn -0.036506999284029007 0.99873900413513184 0.034453000873327255
vn -0.023824999108910561 0.99904000759124756 0.036766998469829559
vn 0.028522999957203865 0.99931001663208008 0.023793000727891922
vn 0.055831000208854675 0.998045027256012 0.028088999912142754
vn 0.0717099979519844 0.9972119927406311 0.020647000521421432
vn 0.070912003517150879 0.9972500205039978 0.021537000313401222
vn 0.065507002174854279 0.99747097492218018 0.02756199985742569
vn 0.032269999384880066 0.99880999326705933 0.036566998809576035
vn 0.048810001462697983 0.99834597110748291 0.030393000692129135
vn -0.0021490000654011965 0.9996039867401123 0.028062000870704651
vn 0.010433999821543694 0.99927699565887451 0.036573998630046844
vn 0.088701002299785614 0.99605697393417358 0.0016599999507889152
vn -0.0082879997789859772 0.999701976776123 0.022951999679207802
vn -0.038524001836776733 0.99903202056884766 0.021237999200820923
vn -0.053573999553918838 0.997219979763031 0.051787998527288437
vn -0.03256399929523468 0.99815702438354492 0.051203001290559769
vn -0.041705001145601273 0.99714499711990356 0.06294800341129303
vn -0.027431000024080276 0.9974219799041748 0.066311001777648926
vn -0.016790999099612236 0.99769300222396851 0.065770000219345093
vn -0.021901000291109085 0.99788600206375122 0.061186999082565308
vn -0.038683000952005386 0.99815201759338379 0.046863999217748642
vn -0.019516000524163246 0.99909698963165283 0.037728998810052872
vn -0.035560999065637588 0.998091995716095 0.050478998571634293
vn -0.015744000673294067 0.99968600273132324 0.019517999142408371
vn -0.025983000174164772 0.99844497442245483 0.04932200163602829
vn -0.0151589997112751 0.9995570182800293 0.025632999837398529
vn -0.0038079998921602964 0.99940997362136841 0.034145001322031021
vn -0.020391000434756279 0.99937301874160767 0.028936000540852547
vn -0.0404760017991066 0.999180018901825 0.00075299997115507722
vn -0.030185999348759651 0.999538004398346 0.0033990000374615192
vn -0.037957001477479935 0.99919497966766357 0.012954999692738056
vn -0.011238000355660915 0.99980002641677856 0.016534000635147095
vn -0.014174000360071659 0.99985599517822266 0.0093299997970461845
vn -0.034233000129461288 0.99940299987792969 -0.0047349999658763409
vn -0.023343000560998917 0.99971300363540649 -0.0053139999508857727
vn -0.023343000560998917 0.99971300363540649 -0.005313000176101923
vn -0.023159999400377274 0.99972999095916748 -0.0018449999624863267
f 1/1/1 2/2/2 3/3/3
f 4/4/4 5/5/5 6/6/6
f 7/7/7 8/8/8 9/9/9
f 10/10/10 11/11/11 12/12/12
f 10/10/10 8/8/8 11/11/11
f 10/10/10 13/13/13 8/8/8
f 9/9/9 8/8/8 14/14/14
f 14/14/14 13/13/13 15/15/15
f 14/14/14 8/8/8 13/13/13
f 4/4/4 3/3/3 2/2/2
f 4/4/4 6/6/6 3/3/3
f 3/3/3 6/6/6 16/16/16
f 6/6/6 17/17/17 18/18/18
f 19/19/19 6/6/6 5/5/5
f 19/19/19 17/17/17 6/6/6
f 16/16/16 11/11/11 3/3/3
f 16/16/16 20/20/20 11/11/11
f 18/18/18 21/21/21 16/16/16
f 18/18/18 16/16/16 6/6/6
f 8/8/8 3/3/3 11/11/11
f 18/18/18 17/17/17 22/22/22
f 1/1/1 8/8/8 7/7/7
f 1/1/1 3/3/3 8/8/8
f 23/23/23 24/24/24 25/25/25
f 23/23/23 26/26/26 24/24/24
f 26/26/26 17/17/17 19/19/19
f 26/26/26 23/23/23 17/17/17
f 27/27/27 22/22/22 28/28/28
f 27/27/27 29/29/29 22/22/22
f 27/27/27 30/30/30 29/29/29
f 31/31/31 25/25/25 24/24/24
f 23/23/23 22/22/22 17/17/17
f 23/23/23 28/28/28 22/22/22
f 18/18/18 22/22/22 32/32/32
f 33/33/33 20/20/20 34/34/34
f 20/20/20 12/12/12 11/11/11
f 20/20/20 33/33/33 12/12/12
f 32/32/32 21/21/21 18/18/18
f 21/21/21 32/32/32 35/35/35
f 35/35/35 36/36/36 21/21/21
f 35/35/35 37/37/37 36/36/36
f 38/38/38 35/35/35 39/39/39
f 38/38/38 37/37/37 35/35/35
f 40/40/40 41/41/41 42/42/42
f 40/40/40 35/35/35 41/41/41
f 41/41/41 35/35/35 32/32/32
f 34/34/34 21/21/21 36/36/36
f 34/34/34 20/20/20 21/21/21
f 41/41/41 32/32/32 43/43/43
f 21/21/21 20/20/20 16/16/16
f 40/40/40 39/39/39 35/35/35
f 44/44/44 42/42/42 41/41/41
f 44/44/44 41/41/41 45/45/45
f 46/46/46 29/29/29 30/30/30
f 29/29/29 47/47/47 43/43/43
f 29/29/29 46/46/46 47/47/47
f 48/48/48 49/49/49 50/50/50
f 47/47/47 49/49/49 43/43/43
f 47/47/47 50/50/50 49/49/49
f 51/51/51 49/49/49 52/52/52
f 51/51/51 43/43/43 49/49/49
f 53/53/53 49/49/49 48/48/48
f 32/32/32 29/29/29 43/43/43
f 54/54/54 49/49/49 53/53/53
f 54/54/54 55/55/55 49/49/49
f 55/55/55 56/56/56 49/49/49
f 52/52/52 49/49/49 56/56/56
f 45/45/45 43/43/43 51/51/51
f 45/45/45 41/41/41 43/43/43
f 29/29/29 32/32/32 22/22/22
