mtllib m3000320.mtl
usemtl material0
v 132.10104370117188 2.2215321063995361 -224
v 130.98458862304688 2.2948520183563232 -224
v 132.15658569335938 2.1887240409851074 -222.94471740722656
v 128 2.55851411819458 -222.72642517089844
v 128 2.6786050796508789 -218.32380676269531
v 128 3.0944540500640869 -206.72863805294037
v 128 3.4195859432220459 -201.43110704421997
v 133.00115966796875 2.6535089015960693 -206.99131798744202
v 128 3.5547211170196533 -198.73037719726563
v 128 3.1279969215393066 -192.986083984375
v 133.424072265625 3.0113589763641357 -199.01504516601563
v 128 2.9558069705963135 -209.87764000892639
v 132.57846069335938 2.3386080265045166 -214.96772813796997
v 128 2.7636010646820068 -214.72732496261597
v 140.132080078125 1.7693270444869995 -223.36453247070313
v 133.10600280761719 2.1744320392608643 -224
v 140.09864807128906 1.7936710119247437 -224
v 140.70384192466736 1.7866150140762329 -224
v 140.55335998535156 1.7981189489364624 -215.38711500167847
v 148.10943603515625 1.7268569469451904 -223.78564453125
v 128 2.5595591068267822 -223.35321044921875
v 128 2.5606369972229004 -224
v 140.97580003738403 2.0617508888244629 -207.4105070233345
v 134.71138000488281 3.1322510242462158 -192
v 141.39991807937622 2.6632490158081055 -199.43510437011719
v 133.79522705078125 3.1710309982299805 -192
v 128 3.1502549648284912 -192
v 148.95227098464966 1.8386199474334717 -207.83100900053978
v 141.79467797279358 3.1005969047546387 -192
v 149.37464904785156 2.0890510082244873 -199.8543701171875
v 142.30979895591736 3.0651979446411133 -192
v 148.53056287765503 1.7229340076446533 -215.80812120437622
v 148.09815979003906 1.7341370582580566 -224
v 148.30230712890625 1.7369979619979858 -224
v 155.90138244628906 2.0276970863342285 -224
v 152.15888977050781 1.8834619522094727 -224
v 156.09953308105469 2.036797046661377 -224
v 156.50994873046875 2.08766508102417 -216.23066711425781
v 156.93223571777344 2.3200480937957764 -208.25396698713303
v 149.90745496749878 2.5698978900909424 -192
v 157.35360717773438 2.368333101272583 -200.27662706375122
v 149.791748046875 2.56548810005188 -192
v 160 2.3763360977172852 -216.41590881347656
v 160 2.493649959564209 -211.66336107254028
v 160 2.1485428810119629 -220.10966491699219
v 160 2.127871036529541 -224
v 160 2.609997034072876 -208.41691601276398
v 160 2.615494966506958 -203.21751403808594
v 160 2.5770258903503418 -200.41703796386719
v 152.1007080078125 2.5321218967437744 -192
v 157.77507019042969 2.4317359924316406 -192.29931640625
v 160 2.5296430587768555 -197.89697265625
v 157.7908935546875 2.4371380805969238 -192
v 157.50578308105469 2.4436719417572021 -192
v 160 2.5568408966064453 -192.41722106933594
v 160 2.56010103225708 -192.2003173828125
v 160 2.5631120204925537 -192
vt 0.12744499742984772 0.030593991279602051
vt 0.093863002955913544 0.031696021556854248
vt 0.13021199405193329 0.062223970890045166
vt 0.0051730000413954258 0.072840988636016846
vt 0.0091469995677471161 0.2050439715385437
vt 0.019230000674724579 0.55334299802780151
vt 0.023536000400781631 0.712673008441925
vt 0.17056599259376526 0.54051399230957031
vt 0.027187999337911606 0.7940409928560257
vt 0.034513998776674271 0.966864999383688
vt 0.19049400091171265 0.77979500591754913
vt 0.016642000526189804 0.45872098207473755
vt 0.15055400133132935 0.30129098892211914
vt 0.012427999638020992 0.31302797794342041
vt 0.36950400471687317 0.041685998439788818
vt 0.15764099359512329 0.029587984085083008
vt 0.36783099174499512 0.022634983062744141
vt 0.38599500060081482 0.022005975246429443
vt 0.3900420069694519 0.28070700168609619
vt 0.608485996723175 0.020705997943878174
vt 0.0045599997974932194 0.0540279746055603
vt 0.0039269998669624329 0.034614980220794678
vt 0.41014999151229858 0.51987200975418091
vt 0.23561200499534607 0.98920399975031614
vt 0.42972201108932495 0.75959800183773041
vt 0.20808899402618408 0.9900749996304512
vt 0.03562600165605545 0.9964650000911206
vt 0.64923399686813354 0.4993320107460022
vt 0.44823399186134338 0.982812000438571
vt 0.6692579984664917 0.73880499601364136
vt 0.46373099088668823 0.98228500038385391
vt 0.62904602289199829 0.25994998216629028
vt 0.6079220175743103 0.014280974864959717
vt 0.61404997110366821 0.014064013957977295
vt 0.84233599901199341 0.0067570209503173828
vt 0.72987300157547 0.0098829865455627441
vt 0.84829002618789673 0.0065600275993347168
vt 0.8684459924697876 0.24021399021148682
vt 0.88881498575210571 0.47933000326156616
vt 0.69300597906112671 0.974464999511838
vt 0.908515989780426 0.71878498792648315
vt 0.68879002332687378 0.974651999771595
vt 0.97339898347854614 0.23151201009750366
vt 0.97795599699020386 0.37420499324798584
vt 0.96935099363327026 0.12031501531600952
vt 0.9658769965171814 0.0035349726676940918
vt 0.98116797208786011 0.47170698642730713
vt 0.98574197292327881 0.62819200754165649
vt 0.98808097839355469 0.71226701140403748
vt 0.7588459849357605 0.9723300002515316
vt 0.92889600992202759 0.9578230008482933
vt 0.99015599489212036 0.78793099522590637
vt 0.92966002225875854 0.9667930006980896
vt 0.92110002040863037 0.96707100048661232
vt 0.9956669807434082 0.95210500061511993
vt 0.99587202072143555 0.95861800014972687
vt 0.99607300758361816 0.96463099867105484
vn 0.056476999074220657 0.998009979724884 0.028054999187588692
vn 0.083310998976230621 0.99649399518966675 0.007689999882131815
vn 0.067069001495838165 0.99774801731109619 -4.9999998736893758E-05
vn 0.08791700005531311 0.9960399866104126 -0.013243000023066998
vn 0.090241000056266785 0.99562197923660278 -0.024376999586820602
vn 0.08495599776506424 0.99498802423477173 -0.0527460016310215
vn 0.094065003097057343 0.99418801069259644 -0.05237099900841713
vn 0.07981400191783905 0.99566799402236938 -0.047704998403787613
vn 0.10039500147104263 0.99484902620315552 0.014007000252604485
vn 0.02148899994790554 0.99976897239685059 -9.0000003183376975E-06
vn 0.061253000050783157 0.997730016708374 -0.0279959999024868
vn 0.08658900111913681 0.99532401561737061 -0.042803000658750534
vn 0.076768003404140472 0.99660301208496094 -0.029821999371051788
vn 0.090727001428604126 0.995369017124176 -0.031764000654220581
vn 0.032047998160123825 0.99939900636672974 0.013201000168919563
vn 0.052324999123811722 0.9980660080909729 0.033558998256921768
vn 0.033730998635292053 0.99876499176025391 0.036488000303506851
vn 0.0083090001717209816 0.99936401844024658 0.034664999693632126
vn 0.036970000714063644 0.99912101030349731 -0.019748000428080559
vn -0.012532999739050865 0.99981600046157837 0.014516999945044518
vn 0.088701002299785614 0.99605697393417358 0.0016599999507889152
vn 0.088701002299785614 0.99605697393417358 0.0016599999507889152
vn 0.041345000267028809 0.99784398078918457 -0.050964001566171646
vn 0.03219199925661087 0.99890100955963135 -0.034049998968839645
vn 0.0445609986782074 0.99724400043487549 -0.059319999068975449
vn 0.020116999745368958 0.99951398372650146 -0.023815000429749489
vn -0.0035840000491589308 0.99973899126052856 -0.022565999999642372
vn -0.010397999547421932 0.99950498342514038 -0.029699999839067459
vn 0.037496000528335571 0.99745398759841919 -0.060662999749183655
vn 0.012745000422000885 0.99898397922515869 -0.043226998299360275
vn 0.0679130032658577 0.99572098255157471 -0.062661997973918915
vn -0.015422999858856201 0.99983698129653931 -0.0093860002234578133
vn -0.0031049998942762613 0.999413013458252 0.034106999635696411
vn -0.031564999371767044 0.99932301044464111 0.0188790000975132
vn -0.043914001435041428 0.99903297424316406 -0.0023459999356418848
vn -0.038500998169183731 0.99925500154495239 0.0026990000624209642
vn -0.0349930003285408 0.99937701225280762 -0.0046950001269578934
vn -0.059505999088287354 0.99802201986312866 -0.020258000120520592
vn -0.073514997959136963 0.9971269965171814 -0.018281999975442886
vn -0.023285999894142151 0.9987030029296875 -0.045267999172210693
vn -0.049697000533342361 0.99874502420425415 -0.0061889998614788055
vn 0.012532999739050865 0.99804598093032837 -0.061206001788377762
vn -0.084647998213768 0.99545902013778687 -0.043542999774217606
vn -0.086565002799034119 0.99587500095367432 -0.027181999757885933
vn -0.037914998829364777 0.999110996723175 -0.018433000892400742
vn -0.023343000560998917 0.99971300363540649 -0.005311999935656786
vn -0.09507499635219574 0.99528998136520386 -0.01891699992120266
vn -0.090355001389980316 0.9959070086479187 0.0023930000606924295
vn -0.077754996716976166 0.99684202671051025 0.016131000593304634
vn 0.017206000164151192 0.999809980392456 -0.0091289998963475227
vn -0.019130000844597816 0.99973601102828979 -0.012761999852955341
vn -0.062079999595880508 0.99807000160217285 0.0013830000534653664
vn -0.01837100088596344 0.99968600273132324 -0.017069999128580093
vn 0.018105000257492065 0.9995579719543457 -0.023571999743580818
vn -0.056655999273061752 0.99834597110748291 -0.0098120002076029778
vn -0.056926000863313675 0.99826598167419434 -0.015003999695181847
vn -0.056926000863313675 0.99826598167419434 -0.015003999695181847
f 1/1/1 2/2/2 3/3/3
f 4/4/4 5/5/5 3/3/3
f 6/6/6 7/7/7 8/8/8
f 9/9/9 10/10/10 11/11/11
f 12/12/12 13/13/13 14/14/14
f 14/14/14 3/3/3 5/5/5
f 14/14/14 13/13/13 3/3/3
f 3/3/3 13/13/13 15/15/15
f 15/15/15 16/16/16 3/3/3
f 15/15/15 17/17/17 16/16/16
f 17/17/17 15/15/15 18/18/18
f 19/19/19 20/20/20 15/15/15
f 19/19/19 15/15/15 13/13/13
f 2/2/2 4/4/4 3/3/3
f 2/2/2 21/21/21 4/4/4
f 21/21/21 2/2/2 22/22/22
f 19/19/19 13/13/13 23/23/23
f 9/9/9 8/8/8 7/7/7
f 9/9/9 11/11/11 8/8/8
f 8/8/8 11/11/11 23/23/23
f 11/11/11 24/24/24 25/25/25
f 11/11/11 26/26/26 24/24/24
f 27/27/27 11/11/11 10/10/10
f 27/27/27 26/26/26 11/11/11
f 25/25/25 23/23/23 11/11/11
f 25/25/25 28/28/28 23/23/23
f 29/29/29 30/30/30 25/25/25
f 29/29/29 31/31/31 30/30/30
f 29/29/29 25/25/25 24/24/24
f 13/13/13 8/8/8 23/23/23
f 19/19/19 23/23/23 32/32/32
f 6/6/6 13/13/13 12/12/12
f 6/6/6 8/8/8 13/13/13
f 1/1/1 3/3/3 16/16/16
f 20/20/20 18/18/18 15/15/15
f 20/20/20 33/33/33 18/18/18
f 33/33/33 20/20/20 34/34/34
f 35/35/35 20/20/20 32/32/32
f 35/35/35 36/36/36 20/20/20
f 34/34/34 20/20/20 36/36/36
f 37/37/37 32/32/32 38/38/38
f 37/37/37 35/35/35 32/32/32
f 32/32/32 20/20/20 19/19/19
f 30/30/30 28/28/28 25/25/25
f 28/28/28 30/30/30 39/39/39
f 30/30/30 40/40/40 41/41/41
f 30/30/30 42/42/42 40/40/40
f 28/28/28 39/39/39 38/38/38
f 43/43/43 39/39/39 44/44/44
f 43/43/43 38/38/38 39/39/39
f 30/30/30 41/41/41 39/39/39
f 32/32/32 28/28/28 38/38/38
f 42/42/42 30/30/30 31/31/31
f 45/45/45 37/37/37 38/38/38
f 45/45/45 46/46/46 37/37/37
f 28/28/28 32/32/32 23/23/23
f 45/45/45 38/38/38 43/43/43
f 44/44/44 39/39/39 47/47/47
f 48/48/48 41/41/41 49/49/49
f 48/48/48 39/39/39 41/41/41
f 48/48/48 47/47/47 39/39/39
f 41/41/41 50/50/50 51/51/51
f 41/41/41 40/40/40 50/50/50
f 49/49/49 41/41/41 52/52/52
f 53/53/53 51/51/51 54/54/54
f 53/53/53 55/55/55 51/51/51
f 53/53/53 56/56/56 55/55/55
f 56/56/56 53/53/53 57/57/57
f 52/52/52 51/51/51 55/55/55
f 52/52/52 41/41/41 51/51/51
f 54/54/54 51/51/51 50/50/50
