mtllib m30000131.mtl
usemtl material0
v 113.40456390380859 4.4999051094055176 -48
v 112 4.3012251853942871 -45.892426013946533
v 113.51089477539063 4.3624520301818848 -45.972404003143311
v 112 4.3917121887207031 -47.190235137939453
v 112 4.4481711387634277 -48
v 115.33549499511719 4.5573601722717285 -48
v 112 4.0266928672790527 -43.529781103134155
v 113.71920776367188 3.9059479236602783 -41.982071042060852
v 119.13478100299835 4.5639228820800781 -48
v 117.4050669670105 4.6160168647766113 -48
v 117.50031995773315 4.4904279708862305 -46.1834831237793
v 121.48876202106476 4.421137809753418 -46.393883228302
v 121.40447199344635 4.5174422264099121 -48
v 117.70807600021362 3.9221110343933105 -42.192764043807983
v 112 3.802203893661499 -41.890952944755554
v 113.92629194259644 3.2004220485687256 -37.990875005722046
v 112 3.4137260913848877 -39.725627988576889
v 121.69728899002075 4.0076031684875488 -42.403693914413452
v 117.91603899002075 3.3948040008544922 -38.20218300819397
v 125.47255706787109 3.411919116973877 -46.601036071777344
v 125.89318799972534 3.309441089630127 -38.6231609582901
v 123.92167711257935 3.8736639022827148 -48
v 125.39931488037109 3.5308899879455566 -48
v 128 3.059614896774292 -46.733376026153564
v 128 3.1332180500030518 -47.682715892791748
v 128 3.157818078994751 -48
v 128 2.9781250953674316 -44.323688983917236
v 121.90564000606537 3.5598840713500977 -38.41339099407196
v 112 2.8596630096435547 -35.921939849853516
v 114.13391876220703 2.6057279109954834 -34.000069141387939
v 112 3.1544198989868164 -37.889008045196533
v 122.11457800865173 3.2293460369110107 -34.423491954803467
v 126.2398829460144 2.7352249622344971 -32
v 124.80482482910156 2.8371570110321045 -32
v 128 2.9558451175689697 -38.733291983604431
v 128 2.90179705619812 -36.950287103652954
v 128 2.8949499130249023 -36.724411010742188
v 118.12445795536041 2.9602630138397217 -34.211925983428955
v 112 2.5884590148925781 -33.887324810028076
v 114.23898315429688 2.5048830509185791 -32
v 112 2.5423810482025146 -32.978565216064453
v 112.13308715820313 2.4934830665588379 -32
v 112 2.4988360404968262 -32.119778156280518
v 118.24023401737213 2.766732931137085 -32
v 116.3570020198822 2.6086070537567139 -32
v 122.24101996421814 2.9384489059448242 -32
v 120.58192402124405 2.8374021053314209 -32
v 112 2.4856739044189453 -32
v 128 2.5161349773406982 -32
vt 0 0.087785005569458008
vt 0.13172300159931183 0
vt 0.12672500312328339 0.094430983066558838
vt 0.050609998404979706 0
vt 0 0
vt 0 0.20846801996231079
vt 0.27938899397850037 0
vt 0.37612101435661316 0.10745000839233398
vt 0 0.44592398405075073
vt 0 0.33781701326370239
vt 0.11353199928998947 0.34377002716064453
vt 0.100382000207901 0.59304800629615784
vt 0 0.58777999877929688
vt 0.36295199394226074 0.35675501823425293
vt 0.38181498646736145 0
vt 0.62556999921798706 0.12039297819137573
vt 0.51714801788330078 0
vt 0.3497689962387085 0.60608100891113281
vt 0.61236399412155151 0.36975198984146118
vt 0.087434999644756317 0.84203499555587769
vt 0.58605200052261353 0.86832399666309357
vt 0 0.74510499835014343
vt 0 0.837457001209259
vt 0.079163998365402222 1
vt 0.019829999655485153 1
vt 0 1
vt 0.22976900637149811 1
vt 0.5991629958152771 0.61910200119018555
vt 0.75487899780273438 0
vt 0.8749960064888 0.13336998224258423
vt 0.63193702697753906 0
vt 0.84853202104568481 0.63216099143028259
vt 1 0.88999299705028534
vt 1 0.80030199885368347
vt 0.579168975353241 1
vt 0.69060701131820679 1
vt 0.7047240138053894 1
vt 0.86175501346588135 0.38277900218963623
vt 0.88204199075698853 0
vt 1 0.13993597030639648
vt 0.93883997201919556 0
vt 1 0.0083180069923400879
vt 0.99251401424407959 0
vt 1 0.39001500606536865
vt 1 0.27231299877166748
vt 1 0.640064001083374
vt 1 0.53637000918388367
vt 1 0
vt 1 1
vn -0.033945001661777496 0.99701297283172607 0.069369003176689148
vn -0.035631000995635986 0.99540197849273682 0.088910996913909912
vn -0.020222999155521393 0.99364197254180908 0.11075100302696228
vn -0.036719001829624176 0.99690598249435425 0.069507002830505371
vn -0.036719001829624176 0.99690598249435425 0.069507002830505371
vn -0.028620000928640366 0.99712902307510376 0.070097997784614563
vn -0.038146998733282089 0.99206900596618652 0.11976999789476395
vn -0.019640000537037849 0.98974698781967163 0.14147500693798065
vn 0.022644000127911568 0.99789601564407349 0.06074799969792366
vn -0.0017229999648407102 0.99761098623275757 0.0690620020031929
vn -0.0015549999661743641 0.993806004524231 0.11112099885940552
vn 0.10162000358104706 0.99043601751327515 0.0933310016989708
vn 0.14252999424934387 0.98843497037887573 0.051787998527288437
vn -0.0085629997774958611 0.992110013961792 0.12507599592208862
vn -0.050496000796556473 0.98446899652481079 0.16813699901103973
vn -0.045256000012159348 0.98756402730941772 0.15056300163269043
vn -0.034568000584840775 0.98656100034713745 0.15969200432300568
vn 0.10251600295305252 0.99224597215652466 0.070271998643875122
vn -0.03501100093126297 0.99161297082901 0.12440700083971024
vn 0.18432299792766571 0.9824180006980896 0.029668999835848808
vn 0.12006299942731857 0.99162799119949341 0.04751800000667572
vn 0.2437489926815033 0.96857601404190063 0.049472998827695847
vn 0.16137599945068359 0.984021008014679 0.075234003365039825
vn 0.14066800475120544 0.98853302001953125 0.054901000112295151
vn 0.14158199727535248 0.986965000629425 0.076521001756191254
vn 0.14158099889755249 0.986965000629425 0.076522998511791229
vn 0.16147300601005554 0.98683798313140869 0.0087689999490976334
vn 0.0097080003470182419 0.9945949912071228 0.10337500274181366
vn -0.011847999878227711 0.98952102661132812 0.14390000700950623
vn -0.054283998906612396 0.99165898561477661 0.11690399795770645
vn -0.016007000580430031 0.9894300103187561 0.14412499964237213
vn 0.01360199972987175 0.99550902843475342 0.093684002757072449
vn 0.092713996767997742 0.99237799644470215 0.08118399977684021
vn 0.050475999712944031 0.99322199821472168 0.10469900071620941
vn 0.16603000462055206 0.9860680103302002 0.010208000428974628
vn 0.16696399450302124 0.985509991645813 0.029874000698328018
vn 0.12408600002527237 0.98918098211288452 0.078252002596855164
vn -0.061448000371456146 0.991159975528717 0.11758200079202652
vn -0.0036230001132935286 0.99645400047302246 0.084055997431278229
vn -0.020013999193906784 0.9984779953956604 0.0513949990272522
vn -0.0054060001857578754 0.99870198965072632 0.050638999789953232
vn -0.0057930001057684422 0.99867802858352661 0.051068000495433807
vn -0.011912000365555286 0.99825400114059448 0.0578479990363121
vn -0.067873001098632812 0.993582010269165 0.090484999120235443
vn -0.065137997269630432 0.99535000324249268 0.070968002080917358
vn -0.028815999627113342 0.992281973361969 0.12060900032520294
vn -0.042654998600482941 0.99380898475646973 0.10259100049734116
vn -0.058226998895406723 0.992330014705658 0.10904499888420105
vn 0.12313199788331986 0.98921501636505127 0.079318001866340637
f 1/1/1 2/2/2 3/3/3
f 1/1/1 4/4/4 2/2/2
f 4/4/4 1/1/1 5/5/5
f 1/1/1 3/3/3 6/6/6
f 3/3/3 7/7/7 8/8/8
f 3/3/3 2/2/2 7/7/7
f 9/9/9 10/10/10 11/11/11
f 9/9/9 12/12/12 13/13/13
f 9/9/9 11/11/11 12/12/12
f 11/11/11 6/6/6 3/3/3
f 11/11/11 10/10/10 6/6/6
f 11/11/11 3/3/3 14/14/14
f 12/12/12 11/11/11 14/14/14
f 15/15/15 16/16/16 8/8/8
f 15/15/15 17/17/17 16/16/16
f 3/3/3 8/8/8 14/14/14
f 14/14/14 18/18/18 12/12/12
f 8/8/8 19/19/19 14/14/14
f 15/15/15 8/8/8 7/7/7
f 20/20/20 12/12/12 18/18/18
f 20/20/20 18/18/18 21/21/21
f 22/22/22 20/20/20 23/23/23
f 24/24/24 23/23/23 20/20/20
f 24/24/24 25/25/25 23/23/23
f 25/25/25 26/26/26 23/23/23
f 24/24/24 20/20/20 27/27/27
f 22/22/22 12/12/12 20/20/20
f 22/22/22 13/13/13 12/12/12
f 14/14/14 28/28/28 18/18/18
f 16/16/16 29/29/29 30/30/30
f 16/16/16 31/31/31 29/29/29
f 28/28/28 19/19/19 32/32/32
f 8/8/8 16/16/16 19/19/19
f 33/33/33 32/32/32 34/34/34
f 33/33/33 21/21/21 32/32/32
f 18/18/18 28/28/28 21/21/21
f 27/27/27 21/21/21 35/35/35
f 27/27/27 20/20/20 21/21/21
f 35/35/35 21/21/21 36/36/36
f 36/36/36 21/21/21 37/37/37
f 28/28/28 14/14/14 19/19/19
f 21/21/21 28/28/28 32/32/32
f 31/31/31 16/16/16 17/17/17
f 19/19/19 16/16/16 38/38/38
f 39/39/39 40/40/40 30/30/30
f 39/39/39 41/41/41 40/40/40
f 41/41/41 42/42/42 40/40/40
f 41/41/41 43/43/43 42/42/42
f 16/16/16 30/30/30 38/38/38
f 19/19/19 38/38/38 32/32/32
f 30/30/30 44/44/44 38/38/38
f 30/30/30 45/45/45 44/44/44
f 39/39/39 30/30/30 29/29/29
f 38/38/38 46/46/46 32/32/32
f 38/38/38 47/47/47 46/46/46
f 40/40/40 45/45/45 30/30/30
f 44/44/44 47/47/47 38/38/38
f 48/48/48 42/42/42 43/43/43
f 33/33/33 37/37/37 21/21/21
f 33/33/33 49/49/49 37/37/37
f 34/34/34 32/32/32 46/46/46
