mtllib m30000100.mtl
usemtl material0
v 66.567284107208252 1.798414945602417 -16
v 67.1062240600586 1.6853920221328735 -15.514231204986572
v 67.080879211425781 1.7445329427719116 -16
v 75.006798028945923 1.0797020196914673 -16
v 75.080727100372314 1.0645159482955933 -15.933364868164063
v 75.077255010604858 1.0732649564743042 -16
v 71.079200983047485 1.4344609975814819 -16
v 70.787178039550781 1.4543830156326294 -16
v 71.093590021133423 1.3979049921035767 -15.723876953125
v 64 1.781906008720398 -14.51032304763794
v 64 1.8762420415878296 -15.350807189941406
v 67.31451416015625 1.223484992980957 -11.523884057998657
v 64 1.9771460294723511 -16
v 64 1.9599289894104004 -15.889233112335205
v 71.302437007427216 1.0492769479751587 -11.733921051025391
v 79.278472900390625 0.73844599723815918 -12.154122829437256
v 76.346396923065186 1.0011639595031738 -16
v 79.076073169708252 0.86036598682403564 -16
v 80 0.86348700523376465 -16
v 79.227776050567627 0.85976499319076538 -16
v 80 0.83481597900390625 -15.305039882659912
v 75.290252923965454 0.85211598873138428 -11.943877935409546
v 71.511092990636826 0.6606060266494751 -7.7438279986381531
v 64 1.4904719591140747 -11.349704027175903
v 79.487839221954346 0.49479201436042786 -8.1645299941301346
v 80 0.73678398132324219 -12.192220211029053
v 80 0.689113974571228 -11.504584074020386
v 75.499268054962158 0.5366860032081604 -7.9540380015969276
v 80 0.83146399259567261 -15.198610782623291
v 67.523239135742188 0.84995001554489136 -7.5338430106639862
v 64 1.4332829713821411 -10.708266973495483
v 71.72087100148201 0.4999539852142334 -3.7545199394226074
v 75.70856499671936 0.27886798977851868 -3.9643959999084473
v 64 1.1138960123062134 -7.3486300110816956
v 67.733345031738281 0.75521397590637207 -3.544762134552002
v 64 1.1051620244979858 -6.9063739776611328
v 79.697060108184814 0.22037200629711151 -4.1748309135437012
v 80 0.48922300338745117 -8.1915580034255981
v 80 0.44779500365257263 -7.7033739984035492
v 71.918761998415 0.43835699558258057 0
v 71.67069199681282 0.45440599322319031 0
v 64 0.96630501747131348 -3.3482861518859863
v 79.906967163085938 0.087545998394489288 -0.18561887741088867
v 80 0.21195900440216065 -4.1908020973205566
v 80 0.20075100660324097 -3.9021201133728027
v 75.917754888534546 0.26138201355934143 0
v 75.891913890838623 0.26281699538230896 0
v 67.919853210449219 0.63284897804260254 0
v 64 0.95868098735809326 -3.1059131622314453
v 67.4495849609375 0.66021698713302612 0
v 64 0.959492027759552 -3.1317110061645508
v 64 0.88292902708053589 0
v 80 0.08430200070142746 -0.19052219390869141
v 80 0.083936996757984161 -0.18131208419799805
v 80 0.080784998834133148 -0.1018681526184082
v 76.382682800292969 0.2410770058631897 0
v 79.916739940643311 0.082319997251033783 0
v 80 0.078183002769947052 0
vt 0 0.16045498847961426
vt 0.030361000448465347 0.19413900375366211
vt 0 0.1925550103187561
vt 0 0.68792501091957092
vt 0.0041649998165667057 0.69254499673843384
vt 0 0.692328006029129
vt 0 0.44244998693466187
vt 0 0.42419898509979248
vt 0.017257999628782272 0.44334900379180908
vt 0.0931050032377243 0
vt 0.040575001388788223 0
vt 0.27975699305534363 0.20715701580047607
vt 0 0
vt 0.0069229998625814915 0
vt 0.26662999391555786 0.4564020037651062
vt 0.24036699533462524 0.95490499958395958
vt 0 0.77165000140666962
vt 0 0.94225500151515007
vt 0 1
vt 0 0.95173599943518639
vt 0.043434999883174896 1
vt 0.25350800156593323 0.7056410014629364
vt 0.51601099967956543 0.46944302320480347
vt 0.29064399003982544 0
vt 0.48971700668334961 0.96798999980092049
vt 0.2379859983921051 1
vt 0.28096300363540649 1
vt 0.5028730034828186 0.7187039852142334
vt 0.050087001174688339 1
vt 0.52913498878479 0.22020202875137329
vt 0.33073300123214722 0
vt 0.76534199714660645 0.48255401849746704
vt 0.75222498178482056 0.731784999370575
vt 0.540710985660553 0
vt 0.77845197916030884 0.2333340048789978
vt 0.56835198402404785 0
vt 0.73907297849655151 0.98106599971652031
vt 0.48802798986434937 1
vt 0.51853901147842407 1
vt 1 0.49492299556732178
vt 1 0.47941797971725464
vt 0.79073202610015869 0
vt 0.98839902877807617 0.994185000192374
vt 0.73807501792907715 1
vt 0.75611698627471924 1
vt 1 0.74485999345779419
vt 1 0.743245005607605
vt 1 0.2449910044670105
vt 0.80588001012802124 0
vt 1 0.21559900045394898
vt 0.8042680025100708 0
vt 1 0
vt 0.98809200525283813 1
vt 0.98866802453994751 1
vt 0.993632972240448 1
vt 1 0.77391800284385681
vt 1 0.99479599995538592
vt 1 1
vn 0.074470996856689453 0.98634898662567139 0.1468690037727356
vn 0.064962998032569885 0.99225902557373047 0.10583700239658356
vn 0.079548999667167664 0.99001401662826538 0.11638200283050537
vn 0.089258000254631042 0.98799002170562744 0.126133993268013
vn 0.058706000447273254 0.99701499938964844 0.050154000520706177
vn 0.05805400013923645 0.99020397663116455 0.12698699533939362
vn 0.088031001389026642 0.98808801174163818 0.126227006316185
vn 0.076784998178482056 0.99012202024459839 0.1173119992017746
vn 0.072507999837398529 0.99449402093887329 0.075654000043869019
vn 0.074101001024246216 0.991894006729126 0.10322800278663635
vn 0.0675169974565506 0.98950600624084473 0.1277489960193634
vn 0.062235001474618912 0.99321097135543823 0.0982770025730133
vn 0.068630002439022064 0.9858049750328064 0.15322400629520416
vn 0.068630002439022064 0.9858049750328064 0.15322400629520416
vn 0.052749998867511749 0.99447202682495117 0.090784996747970581
vn 0.033162001520395279 0.99838697910308838 0.0460829995572567
vn 0.051518000662326813 0.9982370138168335 0.029472000896930695
vn 0.039386998862028122 0.99878597259521484 0.029589999467134476
vn -0.0048159998841583729 0.99913901090621948 0.041219998151063919
vn -0.003375000087544322 0.99920898675918579 0.039622001349925995
vn -0.0024009998887777328 0.99925398826599121 0.038541000336408615
vn 0.045021001249551773 0.99678599834442139 0.0662589967250824
vn 0.046220999211072922 0.996504008769989 0.069592997431755066
vn 0.084650002419948578 0.99236500263214111 0.089697003364562988
vn 0.020169999450445175 0.99749898910522461 0.067749001085758209
vn 0.004335000179708004 0.99924898147583008 0.038506001234054565
vn 0.01321799959987402 0.9980430006980896 0.061119001358747482
vn 0.028359999880194664 0.99686497449874878 0.0738689973950386
vn 0.0039639999158680439 0.99949699640274048 0.031477000564336777
vn 0.066923998296260834 0.99609500169754028 0.057578999549150467
vn 0.080153003334999084 0.9923970103263855 0.09340299665927887
vn 0.05600300058722496 0.99821501970291138 0.020744999870657921
vn 0.037496000528335571 0.99874198436737061 0.033291999250650406
vn 0.077316001057624817 0.99565798044204712 0.051846001297235489
vn 0.062098998576402664 0.99775201082229614 0.025200000032782555
vn 0.060362998396158218 0.99749797582626343 0.036802001297473907
vn 0.016992000862956047 0.99837601184844971 0.054368000477552414
vn 0.014193999581038952 0.99788999557495117 0.063350997865200043
vn 0.029278000816702843 0.99717897176742554 0.069107003509998322
vn 0.054676998406648636 0.99841302633285522 0.013497999869287014
vn 0.048555999994277954 0.99834597110748291 0.030786000192165375
vn 0.058428999036550522 0.99754899740219116 0.038497000932693481
vn 0.02984200045466423 0.99937498569488525 0.018973000347614288
vn 0.031183000653982162 0.99732100963592529 0.066163003444671631
vn 0.036111999303102493 0.99884301424026489 0.031748998910188675
vn 0.054212998598814011 0.998528003692627 0.0015439999988302589
vn 0.044206999242305756 0.998924970626831 0.01398099958896637
vn 0.053082000464200974 0.998088002204895 0.031661000102758408
vn 0.0636029988527298 0.997655987739563 0.025229999795556068
vn 0.0636489987373352 0.99765497446060181 0.025179000571370125
vn 0.058070998638868332 0.99781900644302368 0.031389001756906509
vn 0.064409002661705017 0.99762701988220215 0.024331999942660332
vn 0.036481998860836029 0.99884200096130371 0.031357999891042709
vn 0.036901999264955521 0.99853301048278809 0.039613001048564911
vn 0.044038999825716019 0.99852699041366577 0.031688999384641647
vn 0.043682001531124115 0.99904102087020874 0.00303900009021163
vn 0.044971000403165817 0.99865597486495972 0.025748999789357185
vn 0.04960700124502182 0.99844300746917725 0.025499999523162842
f 1/1/1 2/2/2 3/3/3
f 4/4/4 5/5/5 6/6/6
f 7/7/7 8/8/8 9/9/9
f 10/10/10 2/2/2 11/11/11
f 10/10/10 12/12/12 2/2/2
f 13/13/13 2/2/2 1/1/1
f 13/13/13 14/14/14 2/2/2
f 14/14/14 11/11/11 2/2/2
f 9/9/9 3/3/3 2/2/2
f 9/9/9 8/8/8 3/3/3
f 15/15/15 9/9/9 2/2/2
f 16/16/16 17/17/17 5/5/5
f 16/16/16 18/18/18 17/17/17
f 17/17/17 6/6/6 5/5/5
f 19/19/19 20/20/20 21/21/21
f 7/7/7 5/5/5 4/4/4
f 7/7/7 9/9/9 5/5/5
f 22/22/22 5/5/5 9/9/9
f 12/12/12 23/23/23 15/15/15
f 24/24/24 12/12/12 10/10/10
f 22/22/22 25/25/25 16/16/16
f 22/22/22 9/9/9 15/15/15
f 16/16/16 5/5/5 22/22/22
f 26/26/26 16/16/16 27/27/27
f 12/12/12 15/15/15 2/2/2
f 15/15/15 28/28/28 22/22/22
f 18/18/18 21/21/21 20/20/20
f 18/18/18 29/29/29 21/21/21
f 29/29/29 16/16/16 26/26/26
f 29/29/29 18/18/18 16/16/16
f 24/24/24 30/30/30 12/12/12
f 24/24/24 31/31/31 30/30/30
f 30/30/30 32/32/32 23/23/23
f 12/12/12 30/30/30 23/23/23
f 15/15/15 23/23/23 28/28/28
f 23/23/23 33/33/33 28/28/28
f 34/34/34 30/30/30 31/31/31
f 34/34/34 35/35/35 30/30/30
f 34/34/34 36/36/36 35/35/35
f 28/28/28 37/37/37 25/25/25
f 38/38/38 25/25/25 39/39/39
f 27/27/27 25/25/25 38/38/38
f 27/27/27 16/16/16 25/25/25
f 25/25/25 22/22/22 28/28/28
f 40/40/40 35/35/35 41/41/41
f 40/40/40 32/32/32 35/35/35
f 36/36/36 42/42/42 35/35/35
f 37/37/37 33/33/33 43/43/43
f 23/23/23 32/32/32 33/33/33
f 28/28/28 33/33/33 37/37/37
f 44/44/44 37/37/37 45/45/45
f 32/32/32 30/30/30 35/35/35
f 46/46/46 32/32/32 47/47/47
f 46/46/46 33/33/33 32/32/32
f 48/48/48 49/49/49 50/50/50
f 48/48/48 51/51/51 49/49/49
f 51/51/51 35/35/35 42/42/42
f 51/51/51 48/48/48 35/35/35
f 44/44/44 25/25/25 37/37/37
f 44/44/44 39/39/39 25/25/25
f 41/41/41 35/35/35 48/48/48
f 47/47/47 32/32/32 40/40/40
f 52/52/52 50/50/50 49/49/49
f 53/53/53 43/43/43 54/54/54
f 54/54/54 43/43/43 55/55/55
f 45/45/45 43/43/43 53/53/53
f 45/45/45 37/37/37 43/43/43
f 56/56/56 33/33/33 46/46/46
f 56/56/56 43/43/43 33/33/33
f 56/56/56 57/57/57 43/43/43
f 58/58/58 43/43/43 57/57/57
f 58/58/58 55/55/55 43/43/43
