mtllib m30000303.mtl
usemtl material0
v 80 5.1157121658325195 -93.180411815643311
v 82.536858081817627 5.1498022079467773 -96
v 80 5.2401270866394043 -96
v 82.874579906463623 5.1519708633422852 -96
v 80 5.1095461845397949 -92.203734874725342
v 83.066329956054688 5.1302571296691895 -92.365729808807373
v 80 5.1151371002197266 -93.089210987091064
v 86.336205005645752 5.1864461898803711 -96
v 86.8747409582138 5.1999058723449707 -96
v 87.05560302734375 5.2284817695617676 -92.576705932617188
v 80 5.0763158798217773 -91.324738025665283
v 83.276161193847656 4.98044490814209 -88.376450002193451
v 80 4.96032190322876 -88.203376993536949
v 80 4.569584846496582 -84.735908985137939
v 87.265609979629517 5.113825798034668 -88.58754700422287
v 91.0447850227356 5.3076601028442383 -92.787621021270752
v 80 4.5141811370849609 -84.202071905136108
v 83.484694957733154 4.5684270858764648 -84.386260986328125
v 87.474349975585938 4.74330997467041 -84.597503900527954
v 80 4.07834005355835 -80.51409912109375
v 80 4.0478229522705078 -80.200698852539062
v 83.693381786346436 4.186676025390625 -80.39617919921875
v 87.682960987091064 4.3469119071960449 -80.607367992401123
v 91.463448047637939 4.8063750267028809 -84.808357000350952
v 83.714118957519531 4.1528911590576172 -80
v 80 4.0452699661254883 -80.171356201171875
v 80 4.0303621292114258 -80
v 87.714789986610413 4.3008379936218262 -80
v 84.13359808921814 4.1717438697814941 -80
v 91.254738092422485 5.1822609901428223 -88.798424005508423
v 90.935782909393311 4.3477802276611328 -80
v 91.672111988067627 4.4212069511413574 -80.818267822265625
v 90.135544061660767 5.2201108932495117 -96
v 93.934806823730469 5.2142581939697266 -96
v 90.874831914901733 5.2356181144714355 -96
v 94.874687194824219 5.2249717712402344 -96
v 95.033760070800781 5.3448410034179688 -92.998383045196533
v 95.243912220001221 5.2614350318908691 -89.0093309879303
v 96 5.3578681945800781 -93.049454212188721
v 96 5.2888832092285156 -89.849647998809814
v 96 5.281620979309082 -89.049324035644531
v 95.452674865722656 4.8948249816894531 -85.0193018913269
v 96 4.9633212089538574 -85.627501964569092
v 95.661849975585938 4.6121950149536133 -81.0295639038086
v 96 5.33397102355957 -94.0723648071289
v 96 5.2601871490478516 -96
v 96 4.9252438545227051 -85.048301935195923
v 96 4.8894991874694824 -84.526839971542358
v 91.714988946914673 4.3584351539611816 -80
v 94.735321044921875 4.490379810333252 -80
v 95.715819835662842 4.5390081405639648 -80
v 96 4.6326842308044434 -81.047484874725342
v 96 4.6223831176757812 -80.90838623046875
v 96 4.5551109313964844 -80
vt 0.1762239933013916 0
vt 0 0.15855401754379273
vt 0 0
vt 0 0.17966097593307495
vt 0.23726700246334076 0
vt 0.22714200615882874 0.19164597988128662
vt 0.1819240003824234 0
vt 0 0.39601302146911621
vt 0 0.42967098951339722
vt 0.21395599842071533 0.44097501039505005
vt 0.29220399260520935 0
vt 0.47647199034690857 0.20476001501083374
vt 0.48728901147842407 0
vt 0.704006016254425 0
vt 0.46327799558639526 0.454101026058197
vt 0.20077399909496307 0.69029900431633
vt 0.73737001419067383 0
vt 0.72585898637771606 0.21779298782348633
vt 0.71265602111816406 0.46714699268341064
vt 0.967868983745575 0
vt 0.98745602369308472 0
vt 0.97523897886276245 0.23083597421646118
vt 0.96203899383544922 0.48018497228622437
vt 0.69947797060012817 0.71646499633789062
vt 1 0.23213201761245728
vt 0.98928999900817871 0
vt 1 0
vt 1 0.48217397928237915
vt 1 0.25835001468658447
vt 0.45009899139404297 0.70342099666595459
vt 1 0.68348601460456848
vt 0.94885802268981934 0.72950699925422668
vt 0 0.63347101211547852
vt 0 0.87092499434947968
vt 0 0.67967700958251953
vt 0 0.92966800183057785
vt 0.1876010000705719 0.93961000069975853
vt 0.4369170069694519 0.95274399966001511
vt 0.1844090074300766 1
vt 0.3843970000743866 1
vt 0.4344170093536377 1
vt 0.68629401922225952 0.96579200029373169
vt 0.64828097820281982 1
vt 0.93565201759338379 0.97886599972844124
vt 0.12047699838876724 1
vt 0 1
vt 0.68448102474212646 1
vt 0.7170720100402832 1
vt 1 0.73218700289726257
vt 1 0.92095799744129181
vt 1 0.9822390004992485
vt 0.93453198671340942 1
vt 0.94322597980499268 1
vt 1 1
vn 0.03423599898815155 0.998494029045105 0.042876001447439194
vn 0.029470000416040421 0.99882000684738159 0.038591001182794571
vn 0.035548001527786255 0.99839699268341064 0.044054001569747925
vn -0.0080519998446106911 0.99994701147079468 0.0063990000635385513
vn -0.0061470000073313713 0.99991500377655029 0.011482999660074711
vn -0.014468999579548836 0.99974197149276733 0.017483999952673912
vn -0.0064210002310574055 0.99995899200439453 0.0063129998743534088
vn -0.011982000432908535 0.99991697072982788 0.0046790000051259995
vn -0.01716499961912632 0.99982500076293945 -0.007439000066369772
vn -0.021500999107956886 0.99968397617340088 0.01299699954688549
vn -0.0045210001990199089 0.9992859959602356 0.037517998367547989
vn -0.019277000799775124 0.99731200933456421 0.070684000849723816
vn -0.0020729999523609877 0.99705398082733154 0.076681002974510193
vn -0.001500000013038516 0.99383997917175293 0.1108120009303093
vn -0.021203000098466873 0.99820899963378906 0.055945999920368195
vn -0.012318000197410584 0.99991601705551147 0.0040139998309314251
vn -0.0096800001338124275 0.99392902851104736 0.10959599912166596
vn -0.026700999587774277 0.99428999423980713 0.10331899672746658
vn -0.024691000580787659 0.994920015335083 0.097592003643512726
vn -0.011056000366806984 0.99321597814559937 0.11575900018215179
vn -0.03232400119304657 0.99486202001571655 0.095940001308918
vn -0.0352029986679554 0.99472498893737793 0.096350997686386108
vn -0.019773000851273537 0.99519199132919312 0.095931001007556915
vn -0.018193000927567482 0.99554902315139771 0.092477001249790192
vn -0.033679001033306122 0.99566799402236938 0.086668998003005981
vn -0.032848000526428223 0.99569898843765259 0.086626000702381134
vn -0.032848000526428223 0.99569898843765259 0.086625002324581146
vn -0.028712999075651169 0.99660897254943848 0.077105000615119934
vn -0.036841001361608505 0.99623399972915649 0.078484997153282166
vn -0.013243000023066998 0.99802398681640625 0.061420001089572906
vn -0.014429000206291676 0.99696701765060425 0.0764790028333664
vn -0.029079999774694443 0.9952620267868042 0.092780999839305878
vn -0.014756999909877777 0.99976801872253418 -0.015721000730991364
vn 0.00266100000590086 0.99964100122451782 -0.026670999825000763
vn 0.0015399999683722854 0.99974602460861206 -0.022501999512314796
vn -0.016527999192476273 0.999101996421814 -0.039023000746965408
vn -0.013795999810099602 0.99988502264022827 0.0063220001757144928
vn -0.016742000356316566 0.9977409839630127 0.065061002969741821
vn -0.012663000263273716 0.99980002641677856 0.015451000072062016
vn -0.01511400006711483 0.99970400333404541 0.01905599981546402
vn -0.022183999419212341 0.99626302719116211 0.083476997911930084
vn -0.020803999155759811 0.99636197090148926 0.082643002271652222
vn -0.026056999340653419 0.99571800231933594 0.088689997792243958
vn -0.034474000334739685 0.99595201015472412 0.08301900327205658
vn -0.028634000569581985 0.99894601106643677 -0.035872001200914383
vn -0.031256001442670822 0.9987800121307373 -0.038229998201131821
vn -0.051837000995874405 0.99641698598861694 0.066830001771450043
vn -0.056060001254081726 0.99575001001358032 0.073074996471405029
vn -0.03738899901509285 0.99622201919555664 0.078382000327110291
vn -0.044312998652458191 0.99597102403640747 0.077960997819900513
vn -0.052018001675605774 0.99593597650527954 0.073522999882698059
vn -0.056435998529195786 0.995697021484375 0.073503002524375916
vn -0.056421000510454178 0.99567997455596924 0.073735997080802917
vn -0.056419000029563904 0.99568098783493042 0.0737370029091835
f 1/1/1 2/2/2 3/3/3
f 4/4/4 5/5/5 6/6/6
f 4/4/4 7/7/7 5/5/5
f 7/7/7 2/2/2 1/1/1
f 7/7/7 4/4/4 2/2/2
f 8/8/8 4/4/4 6/6/6
f 9/9/9 6/6/6 10/10/10
f 9/9/9 8/8/8 6/6/6
f 6/6/6 11/11/11 12/12/12
f 6/6/6 5/5/5 11/11/11
f 13/13/13 14/14/14 12/12/12
f 10/10/10 12/12/12 15/15/15
f 13/13/13 12/12/12 11/11/11
f 15/15/15 16/16/16 10/10/10
f 12/12/12 17/17/17 18/18/18
f 12/12/12 14/14/14 17/17/17
f 12/12/12 19/19/19 15/15/15
f 17/17/17 20/20/20 18/18/18
f 18/18/18 21/21/21 22/22/22
f 18/18/18 20/20/20 21/21/21
f 19/19/19 22/22/22 23/23/23
f 22/22/22 19/19/19 18/18/18
f 23/23/23 24/24/24 19/19/19
f 21/21/21 25/25/25 22/22/22
f 21/21/21 26/26/26 25/25/25
f 26/26/26 27/27/27 25/25/25
f 12/12/12 18/18/18 19/19/19
f 22/22/22 28/28/28 23/23/23
f 22/22/22 29/29/29 28/28/28
f 15/15/15 19/19/19 30/30/30
f 29/29/29 22/22/22 25/25/25
f 23/23/23 31/31/31 32/32/32
f 23/23/23 28/28/28 31/31/31
f 6/6/6 12/12/12 10/10/10
f 9/9/9 10/10/10 33/33/33
f 34/34/34 35/35/35 16/16/16
f 36/36/36 16/16/16 37/37/37
f 36/36/36 34/34/34 16/16/16
f 16/16/16 33/33/33 10/10/10
f 16/16/16 35/35/35 33/33/33
f 24/24/24 30/30/30 19/19/19
f 30/30/30 24/24/24 38/38/38
f 38/38/38 37/37/37 30/30/30
f 39/39/39 38/38/38 40/40/40
f 39/39/39 37/37/37 38/38/38
f 41/41/41 42/42/42 43/43/43
f 41/41/41 38/38/38 42/42/42
f 42/42/42 38/38/38 24/24/24
f 16/16/16 30/30/30 37/37/37
f 42/42/42 24/24/24 44/44/44
f 45/45/45 36/36/36 37/37/37
f 45/45/45 46/46/46 36/36/36
f 30/30/30 16/16/16 15/15/15
f 41/41/41 40/40/40 38/38/38
f 47/47/47 43/43/43 42/42/42
f 39/39/39 45/45/45 37/37/37
f 47/47/47 42/42/42 48/48/48
f 49/49/49 32/32/32 31/31/31
f 32/32/32 50/50/50 44/44/44
f 32/32/32 49/49/49 50/50/50
f 50/50/50 51/51/51 44/44/44
f 52/52/52 44/44/44 53/53/53
f 53/53/53 51/51/51 54/54/54
f 53/53/53 44/44/44 51/51/51
f 44/44/44 24/24/24 32/32/32
f 48/48/48 44/44/44 52/52/52
f 48/48/48 42/42/42 44/44/44
f 32/32/32 24/24/24 23/23/23
