mtllib m3000312.mtl
usemtl material0
v 192 3.7360720634460449 -192
v 192 3.621290922164917 -188.10906982421875
v 195.50190734863281 4.2845702171325684 -192
v 203.10221910476685 5.243405818939209 -192
v 197.80056762695313 4.4930682182312012 -192
v 198.09199523925781 4.0250368118286133 -186.43374633789063
v 205.80703711509705 5.7829489707946777 -192
v 206.07759094238281 5.6347479820251465 -186.86064052581787
v 192 3.44372296333313 -186.11016845703125
v 192 3.3393819332122803 -184.31057739257813
v 198.51103210449219 3.6011068820953369 -178.45474195480347
v 192 2.8484261035919189 -171.21942090988159
v 192 3.0435121059417725 -178.1091160774231
v 192 2.7849340438842773 -170.10852098464966
v 198.93000793457031 3.1669039726257324 -170.4757080078125
v 206.49835205078125 5.5594439506530762 -178.88285803794861
v 214.05459594726563 5.5198640823364258 -187.28152465820313
v 206.9114990234375 3.9524118900299072 -170.89971923828125
v 192 2.7294840812683105 -169.10847520828247
v 199.34906005859375 2.7463541030883789 -162.49671936035156
v 210.701416015625 5.5961737632751465 -192
v 192 2.6717860698699951 -162.1083984375
v 197.1029052734375 2.8316929340362549 -160
v 192 2.683650016784668 -161.84747314453125
v 192 2.7676548957824707 -160
v 204.70195007324219 3.097498893737793 -160
v 207.32868999242783 3.1597979068756104 -162.91943359375
v 199.48124694824219 2.819659948348999 -160
v 214.4754638671875 5.4650669097900391 -179.30380201339722
v 213.8056640625 5.5505290031433105 -192
v 221.80427646636963 5.3157529830932617 -192
v 217.25518798828125 5.4431509971618652 -192
v 222.03096008300781 5.2736139297485352 -187.70193481445313
v 214.89634704589844 5.4136700630187988 -171.32609605789185
v 222.45280456542969 5.4165678024291992 -179.72491502761841
v 215.31015014648438 3.9379630088806152 -163.34342956542969
v 222.87496852874756 5.6205368041992188 -171.74809312820435
v 215.48553514480591 3.7214360237121582 -160
v 210.57452392578125 3.260807991027832 -160
v 207.48271197080612 3.1397249698638916 -160
v 219.90139770507813 4.3694849014282227 -160
v 223.29371643066406 5.14041805267334 -163.76889038085938
v 224 5.2939372062683105 -187.805983543396
v 224 5.4041571617126465 -181.4445948600769
v 224 5.6628518104553223 -171.80764818191528
v 224 5.2133069038391113 -164.55377197265625
v 224 5.6099162101745605 -172.9985659122467
v 224 5.442288875579834 -179.80670189857483
v 224 5.1878089904785156 -163.80635070800781
v 224 5.0964088439941406 -163.13618469238281
v 223.49008178710938 4.6381540298461914 -160
v 224 4.6686811447143555 -160
v 224 5.2653207778930664 -189.89048767089844
v 224 5.2844147682189941 -192
vt 0.99906599521636963 0.0092769861221313477
vt 0.87917697429656982 0.0087299942970275879
vt 0.99906599521636963 0.11844801902770996
vt 0.99890398979187012 0.35444897413253784
vt 0.99879497289657593 0.18953502178192139
vt 0.82666099071502686 0.19651699066162109
vt 0.99926799535751343 0.43939602375030518
vt 0.84046697616577148 0.44737899303436279
vt 0.81737500429153442 0.00800102949142456
vt 0.76185798645019531 0.007499992847442627
vt 0.5804629921913147 0.20725899934768677
vt 0.35836899280548096 0.0045660138130187988
vt 0.57064598798751831 0.0059480071067810059
vt 0.32409900426864624 0.004275977611541748
vt 0.33423501253128052 0.2177090048789978
vt 0.59475398063659668 0.46048802137374878
vt 0.853547990322113 0.69308298826217651
vt 0.34366300702095032 0.46488600969314575
vt 0.29325199127197266 0.0040180087089538574
vt 0.087939001619815826 0.22568798065185547
vt 0.99832600355148315 0.59027001261711121
vt 0.077670998871326447 0.00088602304458618164
vt 0.011536000296473503 0.15762901306152344
vt 0.069626003503799438 0.000832974910736084
vt 0.012667999602854252 0.00045502185821533203
vt 0.00798999983817339 0.38945198059082031
vt 0.096435002982616425 0.47198200225830078
vt 0.010951000265777111 0.2284579873085022
vt 0.60784202814102173 0.70618799328804016
vt 0.99887901544570923 0.68546599149703979
vt 0.99897098541259766 0.93180599808692932
vt 0.99882400035858154 0.79175999760627747
vt 0.86659198999404907 0.93886100128293037
vt 0.35736799240112305 0.71486601233482361
vt 0.6208680272102356 0.951884999871254
vt 0.10614900290966034 0.71912398934364319
vt 0.3703170120716095 0.96068700030446053
vt 0.002870999975129962 0.72246798872947693
vt 0.0047459998168051243 0.570376992225647
vt 0.0064460001885890961 0.47509300708770752
vt 0.0014969999901950359 0.85992300510406494
vt 0.11970499902963638 0.96776099875569344
vt 0.86979299783706665 0.99950999999418855
vt 0.67383700609207153 0.99953400000231341
vt 0.37149599194526672 0.99538999982178211
vt 0.1434909999370575 0.9900500001385808
vt 0.40820598602294922 0.99601999996230006
vt 0.62337797880172729 0.99954499999876134
vt 0.12046299874782562 0.98957999981939793
vt 0.0981839969754219 0.98906700033694506
vt 0.0010199999669566751 0.97076000086963177
vt 0.00073199998587369919 0.9864910002797842
vt 0.93402600288391113 0.99947500001871958
vt 0.99900001287460327 0.999439999985043
vn -0.15467600524425507 0.98753601312637329 0.029131999239325523
vn -0.10518799722194672 0.99166697263717651 0.074377000331878662
vn -0.10716799646615982 0.99158799648284912 0.072581000626087189
vn -0.18085700273513794 0.9821239709854126 0.052181001752614975
vn -0.11414399743080139 0.98945397138595581 0.089172996580600739
vn -0.13596299290657044 0.98835998773574829 0.068259000778198242
vn -0.08296000212430954 0.99600297212600708 0.033087998628616333
vn -0.093220002949237823 0.99529397487640381 0.026444999501109123
vn -0.090934999287128448 0.993228018283844 0.072310999035835266
vn -0.089368999004364014 0.99448299407958984 0.054921001195907593
vn -0.15169699490070343 0.98711901903152466 0.050831001251935959
vn -0.059379000216722488 0.99696898460388184 0.050278998911380768
vn -0.0832889974117279 0.99581897258758545 0.037505999207496643
vn -0.051984000951051712 0.9970710277557373 0.056104999035596848
vn -0.090072996914386749 0.99304801225662231 0.075782999396324158
vn -0.090935997664928436 0.99175900220870972 0.0902480036020279
vn 0.022615000605583191 0.99972701072692871 0.0058100000023841858
vn -0.10270900279283524 0.986956000328064 0.1239669993519783
vn -0.040748998522758484 0.99825501441955566 0.042745999991893768
vn -0.039600998163223267 0.9991459846496582 0.011760000139474869
vn 0.02095399983227253 0.99971598386764526 0.011347999796271324
vn -0.01117399986833334 0.99974799156188965 -0.019494000822305679
vn -0.0078400000929832458 0.99911999702453613 -0.041204001754522324
vn -0.012535000219941139 0.99888902902603149 -0.045419998466968536
vn -0.012536000460386276 0.99888902902603149 -0.045419998466968536
vn -0.043012998998165131 0.99892300367355347 -0.017385000362992287
vn -0.069131001830101013 0.99519699811935425 0.06931699812412262
vn -0.025035999715328217 0.9992939829826355 -0.028015000745654106
vn -0.010676000267267227 0.99954098463058472 0.028356000781059265
vn 0.022631999105215073 0.99972999095916748 0.0053030000999569893
vn 0.021362999454140663 0.99973398447036743 0.0086749996989965439
vn 0.030386000871658325 0.99952197074890137 0.0056630000472068787
vn 0.00951599981635809 0.99994301795959473 -0.004889999981969595
vn -0.084026999771595 0.99290698766708374 0.084114998579025269
vn -0.0094349998980760574 0.99979299306869507 -0.01802700012922287
vn -0.1013759970664978 0.98839300870895386 0.11314400285482407
vn -0.0428210012614727 0.99856197834014893 0.032246001064777374
vn -0.11976300179958344 0.99030202627182007 0.070416003465652466
vn -0.080605998635292053 0.99521702527999878 0.055183999240398407
vn -0.027558999136090279 0.99958598613739014 0.008326999843120575
vn -0.12613800168037415 0.98805099725723267 0.088573001325130463
vn -0.090998999774456024 0.99190998077392578 0.088512003421783447
vn -0.011136000044643879 0.99981802701950073 -0.015464000403881073
vn -0.012776000425219536 0.99974298477172852 -0.018710000440478325
vn -0.037218000739812851 0.99928301572799683 0.0069360001944005489
vn -0.041446000337600708 0.99760597944259644 0.055348999798297882
vn -0.023048000410199165 0.99930697679519653 -0.029224000871181488
vn -0.0178810004144907 0.99955397844314575 -0.023917999118566513
vn -0.062352001667022705 0.99462300539016724 0.0826909989118576
vn -0.059211999177932739 0.98908901214599609 0.13489699363708496
vn -0.066393002867698669 0.98859101533889771 0.1352040022611618
vn -0.059213001281023026 0.98908901214599609 0.13489599525928497
vn 0.00836700014770031 0.99995797872543335 0.0037390000652521849
vn 0.014270000159740448 0.99985700845718384 0.0090500004589557648
f 1/1/1 2/2/2 3/3/3
f 4/4/4 5/5/5 6/6/6
f 7/7/7 6/6/6 8/8/8
f 7/7/7 4/4/4 6/6/6
f 9/9/9 3/3/3 2/2/2
f 9/9/9 6/6/6 3/3/3
f 6/6/6 5/5/5 3/3/3
f 6/6/6 10/10/10 11/11/11
f 6/6/6 9/9/9 10/10/10
f 12/12/12 11/11/11 13/13/13
f 10/10/10 13/13/13 11/11/11
f 11/11/11 14/14/14 15/15/15
f 11/11/11 12/12/12 14/14/14
f 16/16/16 11/11/11 15/15/15
f 11/11/11 16/16/16 8/8/8
f 8/8/8 16/16/16 17/17/17
f 16/16/16 15/15/15 18/18/18
f 8/8/8 6/6/6 11/11/11
f 15/15/15 19/19/19 20/20/20
f 15/15/15 14/14/14 19/19/19
f 21/21/21 7/7/7 8/8/8
f 22/22/22 23/23/23 20/20/20
f 22/22/22 24/24/24 23/23/23
f 24/24/24 25/25/25 23/23/23
f 20/20/20 26/26/26 27/27/27
f 20/20/20 28/28/28 26/26/26
f 22/22/22 20/20/20 19/19/19
f 28/28/28 20/20/20 23/23/23
f 18/18/18 15/15/15 20/20/20
f 29/29/29 16/16/16 18/18/18
f 20/20/20 27/27/27 18/18/18
f 21/21/21 17/17/17 30/30/30
f 21/21/21 8/8/8 17/17/17
f 31/31/31 32/32/32 33/33/33
f 34/34/34 29/29/29 18/18/18
f 17/17/17 16/16/16 29/29/29
f 27/27/27 34/34/34 18/18/18
f 29/29/29 34/34/34 35/35/35
f 34/34/34 36/36/36 37/37/37
f 36/36/36 34/34/34 27/27/27
f 33/33/33 17/17/17 29/29/29
f 38/38/38 27/27/27 39/39/39
f 38/38/38 36/36/36 27/27/27
f 39/39/39 27/27/27 40/40/40
f 41/41/41 36/36/36 38/38/38
f 41/41/41 42/42/42 36/36/36
f 40/40/40 27/27/27 26/26/26
f 34/34/34 37/37/37 35/35/35
f 35/35/35 43/43/43 33/33/33
f 35/35/35 44/44/44 43/43/43
f 45/45/45 42/42/42 46/46/46
f 45/45/45 37/37/37 42/42/42
f 47/47/47 35/35/35 37/37/37
f 47/47/47 48/48/48 35/35/35
f 49/49/49 42/42/42 50/50/50
f 50/50/50 51/51/51 52/52/52
f 50/50/50 42/42/42 51/51/51
f 41/41/41 51/51/51 42/42/42
f 32/32/32 17/17/17 33/33/33
f 32/32/32 30/30/30 17/17/17
f 36/36/36 42/42/42 37/37/37
f 43/43/43 53/53/53 33/33/33
f 29/29/29 35/35/35 33/33/33
f 53/53/53 31/31/31 33/33/33
f 53/53/53 54/54/54 31/31/31
f 45/45/45 47/47/47 37/37/37
f 49/49/49 46/46/46 42/42/42
f 48/48/48 44/44/44 35/35/35
