mtllib m300123.mtl
usemtl material0
v 322.42916870117188 6.4285459518432617 -256
v 320 6.6352548599243164 -240.87844848632813
v 323.218505859375 6.42631721496582 -241.0477294921875
v 320 6.5940961837768555 -253.46980285644531
v 321.47412109375 6.490382194519043 -256
v 320 6.5911822319030762 -254.36134338378906
v 336.66586303710938 3.569782018661499 -256
v 320 6.343721866607666 -237.47062683105469
v 324.05453491210938 5.1807222366333008 -225.08830296993256
v 320 4.950657844543457 -208.87391662597656
v 324.893798828125 4.5800600051879883 -209.13114929199219
v 320 5.3436388969421387 -220.58145093917847
v 320 5.3987421989440918 -224.87489300966263
v 340.0003662109375 3.3185629844665527 -225.92431604862213
v 320 4.4473152160644531 -198.33572387695313
v 325.73193359375 3.7522749900817871 -193.17320251464844
v 339.1622314453125 4.1437559127807617 -241.88226318359375
v 338.41268920898438 3.3256740570068359 -256
v 351.86071799695492 2.3578140735626221 -256
v 367.05618286132812 1.4729080200195313 -256
v 354.40545701980591 2.0024189949035645 -256
v 355.1062319278717 1.916295051574707 -242.71699523925781
v 370.40115356445312 1.2494750022888184 -256
v 371.05615234375 0.87330597639083862 -243.55589294433594
v 355.94455003738403 1.127722978591919 -226.75920104980469
v 340.83544921875 1.8844200372695923 -209.96426391601563
v 356.78793287277222 1.3532160520553589 -210.80494689941406
v 371.89865112304688 0.92163199186325073 -227.60102796554565
v 384 0.60340499877929688 -231.90824890136719
v 384 0.61931401491165161 -228.23908996582031
v 372.74026489257812 0.79117602109909058 -211.64552307128906
v 357.62722778320312 0.75784897804260254 -194.84782409667969
v 382.2530517578125 1.3495039939880371 -256
v 341.67645263671875 1.6318199634552002 -194.00833129882813
v 320 4.2712039947509766 -192
v 324.67666625976562 3.8995299339294434 -192
v 320 4.2655172348022461 -192.10527038574219
v 320 4.2240872383117676 -192.87203979492188
v 325.79403686523438 3.7851839065551758 -192
v 339.8701171875 1.9390120506286621 -192
v 355.06573510169983 1.1318110227584839 -192
v 341.78335571289062 1.7993819713592529 -192
v 370.26168823242188 0.51690500974655151 -192
v 373.58047485351562 0.37988701462745667 -195.68905639648438
v 357.77780199050903 0.80173301696777344 -192
v 384 0.59142100811004639 -224.16084299981594
v 384 0.76071101427078247 -244.23905944824219
v 384 0.44118699431419373 -207.26995849609375
v 384 0.56365001201629639 -212.23939514160156
v 384 0.60044401884078979 -196.24000549316406
v 384 1.3298460245132446 -256
v 384 1.1236859560012817 -251.73979187011719
v 373.77529907226562 0.39067000150680542 -192
v 384 0.60278397798538208 -194.94038391113281
v 384 0.60807698965072632 -192
v 320 6.5359330177307129 -256
vt 0.033303998410701752 0.96246600151062012
vt 0.26110899448394775 0.9910869998857379
vt 0.2568889856338501 0.94285900145769119
vt 0.0724790021777153 0.997620000038296
vt 0.033803001046180725 0.97680299915373325
vt 0.059122998267412186 0.998081999947317
vt 0.025528000667691231 0.74494001269340515
vt 0.31233599781990051 0.98900900036096573
vt 0.49615299701690674 0.9207490012049675
vt 0.74131101369857788 0.97248700074851513
vt 0.73483997583389282 0.89880599826574326
vt 0.56584399938583374 0.979118000715971
vt 0.50152301788330078 0.98146099969744682
vt 0.47509399056434631 0.67974498867988586
vt 0.89933598041534424 0.966338999569416
vt 0.97385299205780029 0.87730699777603149
vt 0.23627200722694397 0.70198601484298706
vt 0.02464199997484684 0.718515008687973
vt 0.018725000321865082 0.51649799942970276
vt 0.010863999836146832 0.28845500946044922
vt 0.0169489998370409 0.47815501689910889
vt 0.21561999619007111 0.46122699975967407
vt 0.0092719998210668564 0.23822802305221558
vt 0.19387100636959076 0.22228902578353882
vt 0.45441898703575134 0.43906098604202271
vt 0.71500998735427856 0.65694200992584229
vt 0.69363200664520264 0.41830897331237793
vt 0.43237900733947754 0.20057600736618042
vt 0.36094498634338379 0.021709024906158447
vt 0.41590601205825806 0.019618988037109375
vt 0.67194598913192749 0.17969000339508057
vt 0.93358099460601807 0.397691011428833
vt 0.0016769999638199806 0.060802996158599854
vt 0.95368498563766479 0.63663399219512939
vt 0.99433398246765137 0.96293799951672554
vt 0.99198698997497559 0.89265400171279907
vt 0.99275398254394531 0.962983999401331
vt 0.98124897480010986 0.96331899985671043
vt 0.99141401052474976 0.87589100003242493
vt 0.984669029712677 0.66319400072097778
vt 0.97761297225952148 0.43496298789978027
vt 0.98390001058578491 0.63444900512695312
vt 0.9699699878692627 0.20695799589157105
vt 0.91197198629379272 0.15913200378417969
vt 0.97617697715759277 0.39403402805328369
vt 0.47869798541069031 0.017377018928527832
vt 0.17622900009155273 0.028788983821868896
vt 0.73337101936340332 0.0086920261383056641
vt 0.657293975353241 0.01127701997756958
vt 0.898635983467102 0.0032619833946228027
vt 0.00081200001295655966 0.034628987312316895
vt 0.064709998667240143 0.032482028007507324
vt 0.96768099069595337 0.15430498123168945
vt 0.91815698146820068 0.002678990364074707
vt 0.9622039794921875 0.0011019706726074219
vt 0.034559000283479691 0.998896999983117
vn 0.12882700562477112 0.99164497852325439 -0.0066530001349747181
vn 0.066940002143383026 0.99685901403427124 0.042325999587774277
vn 0.10700400173664093 0.99396300315856934 0.024232000112533569
vn 0.064609996974468231 0.99790501594543457 -0.0032619999255985022
vn 0.055626001209020615 0.99838697910308838 -0.011374000459909439
vn 0.056754998862743378 0.99833399057388306 -0.010355000384151936
vn 0.15369099378585815 0.98683798313140869 -0.050308000296354294
vn 0.060162000358104706 0.99520599842071533 0.07710999995470047
vn 0.090144999325275421 0.99466902017593384 0.050067998468875885
vn 0.077578000724315643 0.99615401029586792 0.040727999061346054
vn 0.11244600266218185 0.99282997846603394 0.040557999163866043
vn 0.071883998811244965 0.9970020055770874 0.028629999607801437
vn 0.0558909997344017 0.99752002954483032 0.04278700053691864
vn 0.13878700137138367 0.98855400085449219 0.0591449998319149
vn 0.079558998346328735 0.99578100442886353 0.045729998499155045
vn 0.10903999954462051 0.99403399229049683 0.0025800000876188278
vn 0.13206599652767181 0.99123901128768921 -0.0021750000305473804
vn 0.10592500120401382 0.99236798286437988 -0.0631290003657341
vn 0.12069399654865265 0.99254399538040161 -0.016999000683426857
vn 0.0600150004029274 0.99798297882080078 0.02067900076508522
vn 0.091803997755050659 0.99577599763870239 0.0016129999421536923
vn 0.093189999461174011 0.99545502662658691 0.019638000056147575
vn 0.030389999970793724 0.99912899732589722 0.028603000566363335
vn 0.037512999027967453 0.99916797876358032 0.015984000638127327
vn 0.06308399885892868 0.99764001369476318 0.027124000713229179
vn 0.11740600317716599 0.99243897199630737 0.035799998790025711
vn 0.032122999429702759 0.99940401315689087 0.012666000053286552
vn 0.028539000079035759 0.999580979347229 0.00482999999076128
vn 0.020645000040531158 0.99978697299957275 0.00022400000307243317
vn 0.025030000135302544 0.99968600273132324 0.0010639999527484179
vn 0.02772199921309948 0.99948197603225708 0.016350999474525452
vn 0.046199001371860504 0.99892401695251465 -0.00406799977645278
vn 0.0059890002012252808 0.99902999401092529 0.043618001043796539
vn 0.089443996548652649 0.995622992515564 -0.027093000710010529
vn 0.079109996557235718 0.99541401863098145 -0.053782001137733459
vn 0.0851299986243248 0.99519699811935425 -0.048340998589992523
vn 0.079109996557235718 0.99541401863098145 -0.053782999515533447
vn 0.081607997417449951 0.99663102626800537 -0.0081449998542666435
vn 0.1163100004196167 0.99263101816177368 -0.034001000225543976
vn 0.11477299779653549 0.992205023765564 -0.048537999391555786
vn 0.068869002163410187 0.99525398015975952 -0.068747997283935547
vn 0.060924001038074493 0.99441200494766235 -0.086209997534751892
vn 0.02630000002682209 0.99956297874450684 -0.013465000316500664
vn 0.0082149999216198921 0.99995702505111694 0.0042579998262226582
vn 0.07027599960565567 0.997344970703125 -0.019084999337792397
vn 0.02416599914431572 0.99969100952148438 0.0057859998196363449
vn 0.010338000021874905 0.99946099519729614 0.031143000349402428
vn 0.011370000429451466 0.99981498718261719 0.015522000379860401
vn 0.020891999825835228 0.99969601631164551 0.013108000159263611
vn -0.021601999178528786 0.99973201751708984 -0.008329000324010849
vn 0.011238999664783478 0.99876797199249268 0.048331998288631439
vn 0.011238999664783478 0.99876797199249268 0.048331998288631439
vn 0.0063669998198747635 0.99997401237487793 -0.003258999902755022
vn -0.021258000284433365 0.99977201223373413 -0.0017999999690800905
vn -0.021258000284433365 0.99977201223373413 -0.0017999999690800905
vn 0.030867999419569969 0.998956024646759 -0.033681001514196396
f 1/1/1 2/2/2 3/3/3
f 1/1/1 4/4/4 2/2/2
f 4/4/4 5/5/5 6/6/6
f 4/4/4 1/1/1 5/5/5
f 1/1/1 3/3/3 7/7/7
f 2/2/2 8/8/8 3/3/3
f 9/9/9 10/10/10 11/11/11
f 9/9/9 12/12/12 10/10/10
f 12/12/12 9/9/9 13/13/13
f 9/9/9 11/11/11 14/14/14
f 11/11/11 15/15/15 16/16/16
f 11/11/11 10/10/10 15/15/15
f 3/3/3 13/13/13 9/9/9
f 3/3/3 8/8/8 13/13/13
f 14/14/14 3/3/3 9/9/9
f 17/17/17 7/7/7 3/3/3
f 17/17/17 18/18/18 7/7/7
f 18/18/18 17/17/17 19/19/19
f 20/20/20 21/21/21 22/22/22
f 23/23/23 22/22/22 24/24/24
f 23/23/23 20/20/20 22/22/22
f 22/22/22 19/19/19 17/17/17
f 22/22/22 21/21/21 19/19/19
f 22/22/22 17/17/17 14/14/14
f 25/25/25 14/14/14 26/26/26
f 22/22/22 14/14/14 25/25/25
f 25/25/25 26/26/26 27/27/27
f 26/26/26 14/14/14 11/11/11
f 28/28/28 25/25/25 27/27/27
f 22/22/22 25/25/25 28/28/28
f 29/29/29 28/28/28 30/30/30
f 29/29/29 24/24/24 28/28/28
f 28/28/28 27/27/27 31/31/31
f 28/28/28 24/24/24 22/22/22
f 27/27/27 26/26/26 32/32/32
f 33/33/33 23/23/23 24/24/24
f 14/14/14 17/17/17 3/3/3
f 26/26/26 11/11/11 34/34/34
f 35/35/35 36/36/36 37/37/37
f 37/37/37 16/16/16 38/38/38
f 37/37/37 36/36/36 16/16/16
f 15/15/15 38/38/38 16/16/16
f 39/39/39 16/16/16 36/36/36
f 40/40/40 16/16/16 39/39/39
f 40/40/40 34/34/34 16/16/16
f 34/34/34 41/41/41 32/32/32
f 34/34/34 42/42/42 41/41/41
f 32/32/32 43/43/43 44/44/44
f 32/32/32 45/45/45 43/43/43
f 34/34/34 32/32/32 26/26/26
f 45/45/45 32/32/32 41/41/41
f 11/11/11 16/16/16 34/34/34
f 44/44/44 31/31/31 32/32/32
f 40/40/40 42/42/42 34/34/34
f 31/31/31 27/27/27 32/32/32
f 46/46/46 28/28/28 31/31/31
f 46/46/46 30/30/30 28/28/28
f 47/47/47 24/24/24 29/29/29
f 48/48/48 31/31/31 44/44/44
f 48/48/48 49/49/49 31/31/31
f 46/46/46 31/31/31 49/49/49
f 48/48/48 44/44/44 50/50/50
f 51/51/51 33/33/33 52/52/52
f 52/52/52 24/24/24 47/47/47
f 52/52/52 33/33/33 24/24/24
f 53/53/53 50/50/50 44/44/44
f 53/53/53 54/54/54 50/50/50
f 54/54/54 53/53/53 55/55/55
f 53/53/53 44/44/44 43/43/43
f 56/56/56 6/6/6 5/5/5
