mtllib m3000000313.mtl
usemtl material0
v 28 2.7093489170074463 -23.452093005180359
v 28 2.7042140960693359 -22.720157980918884
v 28.691380977630615 2.708528995513916 -23.488602042198181
v 28.201648950576782 2.6966118812561035 -24
v 28 2.7018170356750488 -23.775861978530884
v 28.664324045181274 2.696631908416748 -24
v 29.151454985141754 2.6895160675048828 -24
v 28.743185043334961 2.5383689403533936 -22.490826010704041
v 29.688627004623413 2.7185769081115723 -23.5412939786911
v 28 2.660891056060791 -22.451970994472504
v 28 2.6926639080047607 -24
v 28 2.7159481048583984 -22.211033001542091
v 28.796908974647522 2.7578499317169189 -21.494391977787018
v 28 2.6394801139831543 -21.451933026313782
v 28 2.7240469455718994 -20.60871696472168
v 28 2.6109459400177 -20
v 28.401955008506775 2.61454701423645 -20
v 28 2.6900169849395752 -20.324903011322021
v 28.849460959434509 2.7395420074462891 -20.497141003608704
v 28 2.7210030555725098 -20.452222943305969
v 29.794370993971825 2.8118419647216797 -21.547237008810043
v 28.87548303604126 2.6958620548248291 -20
v 29.741582989692688 2.7822990417480469 -22.544324994087219
v 29.664294987916946 2.695997953414917 -24
v 30.233964994549751 2.6567249298095703 -24
v 30.6854709982872 2.647083044052124 -23.593708038330078
v 32 2.59047794342041 -23.662945032119751
v 32 2.668834924697876 -22.411208987236023
v 30.663895010948181 2.6220090389251709 -24
v 32 2.5743520259857178 -23.915627002716064
v 32 2.56896710395813 -24
v 30.791206002235413 2.7383949756622314 -21.599644005298615
v 29.847340002655983 2.8780059814453125 -20.550276041030884
v 30.875787973403931 2.765031099319458 -20
v 30.458425998687744 2.8160400390625 -20
v 32 2.7041070461273193 -21.663367986679077
v 32 2.6985681056976318 -20.671815991401672
v 32 2.6976749897003174 -20.511782050132751
v 29.876169003546238 2.8350419998168945 -20
v 29.402307987213135 2.7714378833770752 -20
v 32 2.7075788974761963 -20
vt 0.13697700202465057 0
vt 0.31996101140975952 0
vt 0.1278499960899353 0.17284500598907471
vt 0 0.050411999225616455
vt 0.056035000830888748 0
vt 0 0.1660810112953186
vt 0 0.28786402940750122
vt 0.37729400396347046 0.18579602241516113
vt 0.11467599868774414 0.42215698957443237
vt 0.38700699806213379 0
vt 0 0
vt 0.44724199175834656 0
vt 0.62640202045440674 0.199226975440979
vt 0.637017011642456 0
vt 0.84782099723815918 0
vt 1 0
vt 1 0.10048902034759522
vt 0.91877400875091553 0
vt 0.87571501731872559 0.21236497163772583
vt 0.8869439959526062 0
vt 0.61319100856781006 0.44859302043914795
vt 1 0.21887099742889404
vt 0.36391898989677429 0.43539601564407349
vt 0 0.41607397794723511
vt 0 0.55849099159240723
vt 0.10157299786806107 0.67136800289154053
vt 0.084264002740383148 1
vt 0.39719799160957336 1
vt 0 0.66597399115562439
vt 0.02109299972653389 1
vt 0 1
vt 0.60008901357650757 0.69780200719833374
vt 0.862430989742279 0.46183502674102783
vt 1 0.71894699335098267
vt 1 0.61460599303245544
vt 0.58415800333023071 1
vt 0.83204597234725952 1
vt 0.87205499410629272 1
vt 1 0.46904200315475464
vt 1 0.35057699680328369
vt 1 1
vn 0.00081599998520687222 0.99997502565383911 -0.0070099998265504837
vn 0.047501999884843826 0.99770098924636841 0.048340998589992523
vn 0.041747000068426132 0.99638998508453369 0.073919996619224548
vn -0.0012710000155493617 0.999701976776123 -0.024359999224543571
vn -0.0080319996923208237 0.999504029750824 -0.030437000095844269
vn 0.0074689998291432858 0.99969202280044556 -0.023652000352740288
vn -0.0056380000896751881 0.9990919828414917 -0.042217999696731567
vn -0.049281001091003418 0.998045027256012 -0.038447998464107513
vn -0.032063998281955719 0.99947601556777954 -0.0043779998086392879
vn 0.16682100296020508 0.98123800754547119 0.096658997237682343
vn -0.019557999446988106 0.99897599220275879 -0.040794998407363892
vn 0.036373000591993332 0.99446302652359009 -0.098592996597290039
vn -0.077180996537208557 0.99499398469924927 -0.06348399817943573
vn -0.14718300104141235 0.989096999168396 -0.0049990001134574413
vn -0.074877999722957611 0.9967610239982605 -0.02933100052177906
vn -0.0087050003930926323 0.97160297632217407 0.23645700514316559
vn -0.061553999781608582 0.9796760082244873 0.19090999662876129
vn -0.0087029999122023582 0.97160297632217407 0.2364560067653656
vn -0.085086002945899963 0.99541699886322021 0.043653000146150589
vn -0.015371999703347683 0.99277102947235107 0.1190359964966774
vn -0.02172200009226799 0.99920099973678589 -0.033544998615980148
vn -0.15424799919128418 0.98350399732589722 0.094486996531486511
vn -0.034763000905513763 0.99699699878692627 -0.0692019984126091
vn 0.030239000916481018 0.99825400114059448 -0.050740998238325119
vn 0.071036003530025482 0.99593901634216309 -0.055305998772382736
vn 0.052136998623609543 0.99710100889205933 -0.055422000586986542
vn 0.039643999189138412 0.99724900722503662 -0.062631003558635712
vn 0.030352000147104263 0.99817997217178345 -0.052103001624345779
vn 0.048197999596595764 0.99678099155426025 -0.064075000584125519
vn 0.039588000625371933 0.99718701839447021 -0.0636420026421547
vn 0.039586998522281647 0.99718701839447021 -0.063643001019954681
vn 0.059815000742673874 0.99759501218795776 -0.035011999309062958
vn 0.0187819991260767 0.99959897994995117 -0.021182000637054443
vn 0.081440001726150513 0.99645900726318359 -0.0208979994058609
vn 0.069824002683162689 0.99695497751235962 0.034724999219179153
vn 0.027450000867247581 0.99947702884674072 -0.017085000872612
vn 0.028648000210523605 0.99957400560379028 0.0055829999037086964
vn 0.049373000860214233 0.99862700700759888 -0.0174809992313385
vn -0.085311003029346466 0.99297499656677246 0.081997998058795929
vn -0.1372079998254776 0.98650997877120972 0.08929000049829483
vn 0.051027998328208923 0.99851000308990479 -0.019323000684380531
f 1/1/1 2/2/2 3/3/3
f 1/1/1 4/4/4 5/5/5
f 1/1/1 3/3/3 4/4/4
f 3/3/3 6/6/6 4/4/4
f 6/6/6 3/3/3 7/7/7
f 3/3/3 8/8/8 9/9/9
f 10/10/10 3/3/3 2/2/2
f 10/10/10 8/8/8 3/3/3
f 11/11/11 5/5/5 4/4/4
f 8/8/8 12/12/12 13/13/13
f 8/8/8 10/10/10 12/12/12
f 14/14/14 15/15/15 13/13/13
f 16/16/16 17/17/17 18/18/18
f 18/18/18 19/19/19 20/20/20
f 18/18/18 17/17/17 19/19/19
f 15/15/15 19/19/19 13/13/13
f 15/15/15 20/20/20 19/19/19
f 13/13/13 19/19/19 21/21/21
f 17/17/17 22/22/22 19/19/19
f 12/12/12 14/14/14 13/13/13
f 23/23/23 8/8/8 13/13/13
f 9/9/9 7/7/7 3/3/3
f 9/9/9 24/24/24 7/7/7
f 25/25/25 9/9/9 26/26/26
f 25/25/25 24/24/24 9/9/9
f 27/27/27 26/26/26 28/28/28
f 25/25/25 26/26/26 29/29/29
f 30/30/30 26/26/26 27/27/27
f 30/30/30 29/29/29 26/26/26
f 30/30/30 31/31/31 29/29/29
f 26/26/26 9/9/9 23/23/23
f 21/21/21 23/23/23 13/13/13
f 23/23/23 21/21/21 32/32/32
f 21/21/21 33/33/33 32/32/32
f 33/33/33 21/21/21 19/19/19
f 34/34/34 33/33/33 35/35/35
f 34/34/34 32/32/32 33/33/33
f 23/23/23 32/32/32 26/26/26
f 28/28/28 32/32/32 36/36/36
f 28/28/28 26/26/26 32/32/32
f 36/36/36 32/32/32 37/37/37
f 37/37/37 32/32/32 38/38/38
f 19/19/19 39/39/39 33/33/33
f 19/19/19 40/40/40 39/39/39
f 23/23/23 9/9/9 8/8/8
f 22/22/22 40/40/40 19/19/19
f 34/34/34 38/38/38 32/32/32
f 34/34/34 41/41/41 38/38/38
f 35/35/35 33/33/33 39/39/39
