mtllib m3000212.mtl
usemtl material0
v 64 5.23923397064209 -192
v 64 5.560884952545166 -189.41165161132813
v 66.32843017578125 5.38441801071167 -192
v 64 5.4293618202209473 -171.35746812820435
v 64 4.9490227699279785 -164.07603454589844
v 70.872833251953125 4.2157249450683594 -171.71649217605591
v 64 4.9041910171508789 -163.35601806640625
v 67.929939270019531 4.1796321868896484 -160
v 71.2911605834961 3.6452939510345459 -163.73698425292969
v 64 4.8974080085754395 -162.8309326171875
v 64 4.8608322143554688 -160
v 64 5.4768939018249512 -172.52059888839722
v 70.45367431640625 4.6167068481445312 -179.69540405273438
v 64 5.3840880393981934 -179.35708594322205
v 64 5.4417390823364258 -180.96627807617188
v 70.034194946289062 4.95321798324585 -187.67410278320313
v 64 5.5243129730224609 -187.3572998046875
v 69.80633544921875 5.0520081520080566 -192
v 73.926506042480469 5.115537166595459 -192
v 81.524216055870056 4.6414361000061035 -192
v 77.805206060409546 4.8682918548583984 -192
v 78.009459972381592 4.4846549034118652 -188.09375
v 85.984221935272217 3.914513111114502 -188.51303100585938
v 78.42706298828125 3.767780065536499 -180.11372423171997
v 75.526702880859375 3.1817030906677246 -160
v 79.265166997909546 2.9213650226593018 -164.15573120117188
v 71.487968444824219 3.5525989532470703 -160
v 78.846328973770142 3.3882830142974854 -172.13487195968628
v 86.821648120880127 2.9319078922271729 -172.55456495285034
v 83.123985052108765 2.4786150455474854 -160
v 87.240149974823 2.3971209526062012 -164.57518005371094
v 79.483551025390625 2.7262289524078369 -160
v 86.401924133300781 3.2176570892333984 -180.5330810546875
v 85.802169799804688 4.3109278678894043 -192
v 89.121818542480469 4.110389232635498 -192
v 96 3.6479010581970215 -192
v 93.958778381347656 3.3028490543365479 -188.93217468261719
v 96 3.5407071113586426 -191.20046997070313
v 93.798957824707031 3.7193400859832764 -192
v 94.376747131347656 2.6616559028625488 -180.95240783691406
v 96 3.2314059734344482 -189.03973388671875
v 96 3.0578958988189697 -187.09375
v 94.796279907226562 2.3358690738677979 -172.9737548828125
v 87.480559825897217 2.1797699928283691 -160
v 90.7217025756836 2.0172019004821777 -160
v 95.215835571289062 2.0159220695495605 -164.9951171875
v 96 2.5871500968933105 -181.03788805007935
v 96 2.3294498920440674 -174.31167602539063
v 96 1.9906840324401856 -165.03645324707031
v 96 1.9231820106506348 -163.73310947418213
v 95.478164672851562 1.7480579614639282 -160
v 96 1.7298389673233032 -160
v 96 1.9987690448760986 -165.86672973632813
v 96 2.2626330852508545 -173.03707909584045
vt 0.97978001832962036 0.0028629899024963379
vt 0.90000700950622559 0.0034750103950500488
vt 0.97978001832962036 0.074217021465301514
vt 0.34806400537490845 0.00793600082397461
vt 0.12490499764680862 0.011704027652740479
vt 0.36018100380897522 0.2213360071182251
vt 0.10284300148487091 0.012058019638061523
vt 0.00086799997370690107 0.13484299182891846
vt 0.11573000252246857 0.23792999982833862
vt 0.086782000958919525 0.012181997299194336
vt 0.00019200000679120421 0.012853026390075684
vt 0.38332799077033997 0.00786900520324707
vt 0.60433602333068848 0.20526701211929321
vt 0.59244102239608765 0.00657498836517334
vt 0.64168697595596313 0.0059810280799865723
vt 0.848406970500946 0.1894029974937439
vt 0.83716702461242676 0.0041069984436035156
vt 0.98067301511764526 0.18107199668884277
vt 0.98201501369476318 0.30709701776504517
vt 0.98343700170516968 0.53992500901222229
vt 0.982725977897644 0.4259679913520813
vt 0.86276102066040039 0.43366599082946777
vt 0.87924700975418091 0.67797699570655823
vt 0.61914801597595215 0.45040202140808105
vt 0.0025989999994635582 0.36926400661468506
vt 0.13076600432395935 0.48269498348236084
vt 0.001471000025048852 0.24522298574447632
vt 0.3750230073928833 0.46640300750732422
vt 0.39036598801612854 0.71058699488639832
vt 0.0047399997711181641 0.602636992931366
vt 0.1460610032081604 0.72699901461601257
vt 0.0036220001056790352 0.49108201265335083
vt 0.63437402248382568 0.69475901126861572
vt 0.98642098903656006 0.66984999179840088
vt 0.98816400766372681 0.77155399322509766
vt 0.98990702629089355 0.98316499963402748
vt 0.8943210244178772 0.92252899706363678
vt 0.96523797512054443 0.98364000022411346
vt 0.98890101909637451 0.91581699997186661
vt 0.64969801902771 0.93912199884653091
vt 0.898402988910675 0.98495199996978045
vt 0.83865600824356079 0.98590799979865551
vt 0.40560099482536316 0.95503700152039528
vt 0.0060769999399781227 0.736191987991333
vt 0.0071689998731017113 0.83546499907970428
vt 0.16159999370574951 0.97106100060045719
vt 0.65289801359176636 0.9887880003079772
vt 0.44694700837135315 0.991376000456512
vt 0.16313700377941132 0.99504199996590614
vt 0.12322399765253067 0.99556499999016523
vt 0.0087259998545050621 0.98116800002753735
vt 0.00891599990427494 0.997137000085786
vt 0.18853099644184113 0.99474499979987741
vt 0.4079119861125946 0.99189999978989363
vn -0.061758000403642654 0.99047297239303589 -0.12308499962091446
vn 0.058722998946905136 0.99815797805786133 -0.015225999988615513
vn 0.053259998559951782 0.99837702512741089 -0.020154999569058418
vn 0.17632700502872467 0.98291301727294922 0.052825998514890671
vn 0.17384900152683258 0.98281502723693848 0.062056999653577805
vn 0.14105400443077087 0.98858600854873657 0.05293000116944313
vn 0.17187200486660004 0.98445099592208862 0.03628699854016304
vn 0.17150700092315674 0.98509198427200317 0.013406000100076199
vn 0.13413499295711517 0.99020999670028687 0.038614999502897263
vn 0.17077499628067017 0.98522800207138062 0.012729000300168991
vn 0.17077499628067017 0.98522800207138062 0.012729000300168991
vn 0.16217499971389771 0.98637497425079346 0.027618000283837318
vn 0.12068799883127213 0.99216198921203613 0.032386001199483871
vn 0.11859799921512604 0.99289000034332275 0.010246000252664089
vn 0.11400300264358521 0.99301999807357788 0.030233999714255333
vn 0.078059002757072449 0.99612200260162354 0.040592998266220093
vn 0.095003001391887665 0.99536097049713135 0.015211000107228756
vn 0.04179999977350235 0.9989129900932312 0.020610999315977097
vn 0.042343001812696457 0.99624800682067871 0.075480997562408447
vn 0.0722929984331131 0.99185597896575928 0.10485699772834778
vn 0.062022998929023743 0.99360597133636475 0.0943399965763092
vn 0.067598998546600342 0.99348002672195435 0.091806001961231232
vn 0.074768997728824615 0.99237197637557983 0.098017998039722443
vn 0.084356002509593964 0.99474501609802246 0.058017000555992126
vn 0.097529001533985138 0.99490797519683838 0.025408999994397163
vn 0.082046002149581909 0.99554300308227539 0.046493999660015106
vn 0.13114799559116364 0.99120497703552246 0.017680000513792038
vn 0.082496002316474915 0.99540501832962036 0.048615001142024994
vn 0.068659000098705292 0.99652397632598877 0.047178998589515686
vn 0.06795000284910202 0.99674499034881592 0.043379001319408417
vn 0.062654003500938416 0.99676501750946045 0.050349000841379166
vn 0.090218000113964081 0.9950370192527771 0.041981998831033707
vn 0.070690996944904327 0.99575001001358032 0.059025000780820847
vn 0.068571001291275024 0.991657018661499 0.10915599763393402
vn 0.076522998511791229 0.98927402496337891 0.12442699819803238
vn 0.032152999192476273 0.9906190037727356 0.13281300663948059
vn 0.061163000762462616 0.99243199825286865 0.10648000240325928
vn 0.034462999552488327 0.99026602506637573 0.13485400378704071
vn 0.058350998908281326 0.98962199687957764 0.13131199777126312
vn 0.062093000859022141 0.99642300605773926 0.057321000844240189
vn 0.040846999734640121 0.99240797758102417 0.11601100116968155
vn 0.047054000198841095 0.99564999341964722 0.0804160013794899
vn 0.064572997391223907 0.99702101945877075 0.042174998670816422
vn 0.058887999504804611 0.99728202819824219 0.044282998889684677
vn 0.051748998463153839 0.99758601188659668 0.046303000301122665
vn 0.046363998204469681 0.99812400341033936 0.039994999766349792
vn 0.048843998461961746 0.99709397554397583 0.058455001562833786
vn 0.051465000957250595 0.99781101942062378 0.041515998542308807
vn 0.033734001219272614 0.99897998571395874 0.030029000714421272
vn 0.034846000373363495 0.99805498123168945 0.051690999418497086
vn 0.045260000973939896 0.99766600131988525 0.0511230006814003
vn 0.034844998270273209 0.99805498123168945 0.051690999418497086
vn 0.055633001029491425 0.99798798561096191 0.030410999432206154
vn 0.063011996448040009 0.9970099925994873 0.044720999896526337
f 1/1/1 2/2/2 3/3/3
f 4/4/4 5/5/5 6/6/6
f 7/7/7 8/8/8 9/9/9
f 7/7/7 10/10/10 8/8/8
f 10/10/10 11/11/11 8/8/8
f 12/12/12 13/13/13 14/14/14
f 15/15/15 16/16/16 17/17/17
f 3/3/3 16/16/16 18/18/18
f 3/3/3 17/17/17 16/16/16
f 3/3/3 2/2/2 17/17/17
f 18/18/18 16/16/16 19/19/19
f 20/20/20 21/21/21 22/22/22
f 23/23/23 22/22/22 24/24/24
f 22/22/22 19/19/19 16/16/16
f 22/22/22 21/21/21 19/19/19
f 22/22/22 16/16/16 24/24/24
f 15/15/15 13/13/13 16/16/16
f 15/15/15 14/14/14 13/13/13
f 5/5/5 9/9/9 6/6/6
f 5/5/5 7/7/7 9/9/9
f 13/13/13 6/6/6 24/24/24
f 9/9/9 25/25/25 26/26/26
f 9/9/9 27/27/27 25/25/25
f 28/28/28 6/6/6 9/9/9
f 8/8/8 27/27/27 9/9/9
f 13/13/13 4/4/4 6/6/6
f 13/13/13 12/12/12 4/4/4
f 9/9/9 26/26/26 28/28/28
f 26/26/26 29/29/29 28/28/28
f 26/26/26 30/30/30 31/31/31
f 26/26/26 32/32/32 30/30/30
f 25/25/25 32/32/32 26/26/26
f 28/28/28 33/33/33 24/24/24
f 6/6/6 28/28/28 24/24/24
f 16/16/16 13/13/13 24/24/24
f 23/23/23 20/20/20 22/22/22
f 23/23/23 34/34/34 20/20/20
f 34/34/34 23/23/23 35/35/35
f 36/36/36 37/37/37 38/38/38
f 36/36/36 39/39/39 37/37/37
f 37/37/37 35/35/35 23/23/23
f 37/37/37 39/39/39 35/35/35
f 37/37/37 23/23/23 40/40/40
f 41/41/41 38/38/38 37/37/37
f 41/41/41 37/37/37 42/42/42
f 29/29/29 33/33/33 28/28/28
f 31/31/31 43/43/43 29/29/29
f 44/44/44 31/31/31 30/30/30
f 31/31/31 45/45/45 46/46/46
f 31/31/31 44/44/44 45/45/45
f 31/31/31 29/29/29 26/26/26
f 33/33/33 29/29/29 40/40/40
f 43/43/43 40/40/40 29/29/29
f 47/47/47 43/43/43 48/48/48
f 47/47/47 40/40/40 43/43/43
f 49/49/49 46/46/46 50/50/50
f 50/50/50 51/51/51 52/52/52
f 50/50/50 46/46/46 51/51/51
f 53/53/53 43/43/43 46/46/46
f 53/53/53 54/54/54 43/43/43
f 51/51/51 46/46/46 45/45/45
f 47/47/47 37/37/37 40/40/40
f 47/47/47 42/42/42 37/37/37
f 46/46/46 43/43/43 31/31/31
f 40/40/40 23/23/23 33/33/33
f 48/48/48 43/43/43 54/54/54
f 49/49/49 53/53/53 46/46/46
f 33/33/33 23/23/23 24/24/24
