mtllib m300120.mtl
usemtl material0
v 261.80020141601562 4.6976728439331055 -192
v 256 4.9578452110290527 -189.49473571777344
v 261.91632080078125 4.7608242034912109 -189.8065185546875
v 256 4.9153728485107422 -190.88871765136719
v 256 4.8815150260925293 -192
v 277.79788208007812 4.3195900917053223 -192
v 277.869384765625 4.33985710144043 -190.64759826660156
v 263.8896484375 4.6746201515197754 -192
v 279.08633422851562 4.440155029296875 -192
v 278.71926879882812 5.8615632057189941 -174.69786071777344
v 256 5.1725950241088867 -179.93539428710938
v 262.76025390625 5.0921220779418945 -173.85263061523438
v 256 5.2400588989257812 -173.49610900878906
v 256 5.0236220359802246 -166.33892822265625
v 263.59738159179688 4.0591120719909668 -157.89398193359375
v 279.55545043945312 4.6425209045410156 -158.73855602741242
v 256 4.4781942367553711 -157.49412488937378
v 256 4.0354981422424316 -149.53181457519531
v 264.43496704101562 3.1231939792633057 -141.9356689453125
v 280.3992919921875 4.95658016204834 -142.78460693359375
v 256 3.0263988971710205 -141.48992919921875
v 295.517333984375 5.9841418266296387 -159.58578500151634
v 265.17010498046875 3.0157461166381836 -128
v 256 2.9741818904876709 -135.19297790527344
v 263.03158569335938 2.992142915725708 -128
v 256 2.9669930934906006 -134.3260498046875
v 294.67480516433716 5.9336757659912109 -175.54066467285156
v 293.8314208984375 5.7141919136047363 -191.49494934082031
v 281.17303514480591 3.65529203414917 -128
v 279.92788696289062 3.5185039043426514 -128
v 256 3.0202219486236572 -128
v 282.29223585128784 3.6839621067047119 -128
v 296.35687255859375 5.4407939910888672 -143.62884521484375
v 293.80471801757812 5.7101321220397949 -192
v 303.41921997070312 5.324030876159668 -192
v 309.48175048828125 5.0823898315429688 -192
v 320 4.5521330833435059 -186.80064392089844
v 309.80111694335938 5.081751823425293 -192
v 310.62957763671875 5.8597202301025391 -176.38296508789063
v 320 4.2712039947509766 -192
v 320 4.5778241157531738 -186.03303527832031
v 320 4.8843369483947754 -176.8746337890625
v 311.47210693359375 5.9062809944152832 -160.42807000875473
v 297.18411254882812 5.858403205871582 -128
v 320 5.4855809211730957 -160.8770449757576
v 312.31332397460938 5.6959338188171387 -144.47227478027344
v 320 5.4026288986206055 -153.01643419265747
v 320 4.9427928924560547 -169.90861511230469
v 313.15631103515625 5.8346271514892578 -128.5177001953125
v 320 5.6409769058227539 -144.87802124023438
v 320 5.5822920799255371 -137.55574035644531
v 313.18356323242188 5.8238368034362793 -128
v 312.69049072265625 5.8192238807678223 -128
v 303.35137939453125 5.8545699119567871 -128
v 320 5.6686038970947266 -128.87857055664063
v 320 5.6568708419799805 -128.27719116210938
v 320 5.6514639854431152 -128
vt 0.028968000784516335 0.91178400069475174
vt 0.069834001362323761 0.998100999975577
vt 0.062031000852584839 0.90891499817371368
vt 0.048783000558614731 0.998810000019148
vt 0.032001998275518417 0.99937500001396984
vt 0.020681999623775482 0.67024698853492737
vt 0.041060999035835266 0.6684739887714386
vt 0.0278949998319149 0.88024400174617767
vt 0.020042000338435173 0.6507129967212677
vt 0.28174200654029846 0.64724698662757874
vt 0.21415999531745911 0.99320500018075109
vt 0.30246001482009888 0.88799899816513062
vt 0.3113589882850647 0.98987600021064281
vt 0.41943499445915222 0.986077000387013
vt 0.54349702596664429 0.86813199520111084
vt 0.52299600839614868 0.62749499082565308
vt 0.553180992603302 0.9812029991298914
vt 0.67354202270507812 0.97685999982059
vt 0.78443700075149536 0.84822900593280792
vt 0.76337897777557373 0.606114000082016
vt 0.79591000080108643 0.973776999861002
vt 0.50212198495864868 0.38613897562026978
vt 0.99419498443603516 0.82758599519729614
vt 0.89094501733779907 0.97014099918305874
vt 0.99543297290802 0.85986199975013733
vt 0.90402901172637939 0.96963999979197979
vt 0.26154598593711853 0.40678197145462036
vt 0.021081000566482544 0.42700302600860596
vt 0.987188994884491 0.58908399939537048
vt 0.98782700300216675 0.60799199342727661
vt 0.99950301647186279 0.96598099917173386
vt 0.98674702644348145 0.572180986404419
vt 0.74259102344512939 0.36555898189544678
vt 0.013469000346958637 0.42763501405715942
vt 0.0088670002296566963 0.28239601850509644
vt 0.00596500001847744 0.1908079981803894
vt 0.079099997878074646 0.029190003871917725
vt 0.0058180000633001328 0.18598699569702148
vt 0.24148300290107727 0.16631799936294556
vt 0.00049700000090524554 0.031561970710754395
vt 0.09069400280714035 0.028819024562835693
vt 0.22890700399875641 0.024594008922576904
vt 0.48149299621582031 0.14572298526763916
vt 0.97899800539016724 0.34501999616622925
vt 0.47064599394798279 0.017050027847290039
vt 0.72190797328948975 0.12509399652481079
vt 0.58919799327850342 0.013130009174346924
vt 0.33405399322509766 0.020972013473510742
vt 0.96232098340988159 0.10438597202301025
vt 0.71210199594497681 0.00925302505493164
vt 0.82244199514389038 0.005576014518737793
vt 0.97004497051239014 0.1035500168800354
vt 0.97039800882339478 0.11098802089691162
vt 0.9758489727973938 0.25192999839782715
vt 0.95342600345611572 0.0012360215187072754
vt 0.96250498294830322 0.00092899799346923828
vt 0.96667701005935669 0.00062501430511474609
vn 0.021691000089049339 0.9993169903755188 -0.029919000342488289
vn 0.0318869985640049 0.999144971370697 -0.0263069998472929
vn 0.017030000686645508 0.99930202960968018 -0.033261001110076904
vn 0.031665001064538956 0.99903500080108643 -0.030439000576734543
vn 0.031665001064538956 0.99903500080108643 -0.030439000576734543
vn -0.031869001686573029 0.99940401315689087 -0.013291999697685242
vn -0.033289000391960144 0.99807697534561157 -0.052296999841928482
vn 0.021650999784469604 0.99956899881362915 -0.019804999232292175
vn -0.087881997227668762 0.9961169958114624 -0.0052049998193979263
vn -0.02525000087916851 0.99963200092315674 0.0098919998854398727
vn 0.02921999990940094 0.99938797950744629 -0.019253000617027283
vn -0.0065440000034868717 0.99978697299957275 0.01958099938929081
vn 0.022432999685406685 0.999692976474762 0.010553999803960323
vn 0.050099998712539673 0.99727398157119751 0.054168000817298889
vn 0.011115999892354012 0.99798798561096191 0.06242699921131134
vn -0.058368999511003494 0.99780601263046265 0.031238999217748642
vn 0.058044999837875366 0.99660801887512207 0.05833899974822998
vn 0.041276998817920685 0.99641597270965576 0.073835998773574829
vn -0.032575998455286026 0.99852597713470459 0.043411999940872192
vn -0.076444000005722046 0.99607402086257935 0.044642001390457153
vn -0.0080409999936819077 0.99788302183151245 0.06453300267457962
vn -0.03223000094294548 0.999426007270813 0.010444000363349915
vn -0.022926999256014824 0.99969702959060669 0.0089170001447200775
vn -0.011036000214517117 0.999904990196228 0.00829199980944395
vn -0.0075309998355805874 0.9999619722366333 0.0043959999457001686
vn -0.0070270001888275146 0.99996799230575562 0.0038350000977516174
vn -0.0054839998483657837 0.99998098611831665 -0.0027129999361932278
vn -0.013501999899744988 0.99970102310180664 -0.020370999351143837
vn -0.06595899909734726 0.99367201328277588 0.090911000967025757
vn -0.091398999094963074 0.99310201406478882 0.0734419971704483
vn 0.003992999903857708 0.99995702505111694 -0.0084140002727508545
vn -0.057284999638795853 0.99652498960495 0.060467001050710678
vn -0.0315839983522892 0.99931502342224121 0.019282000139355659
vn -0.025093000382184982 0.99966299533843994 -0.0067099998705089092
vn 0.039825998246669769 0.99908298254013062 -0.015753999352455139
vn 0.01208799984306097 0.99909400939941406 -0.04079899936914444
vn 0.084397003054618835 0.99522602558135986 -0.049003999680280685
vn 0.039337001740932465 0.99788302183151245 -0.051796998828649521
vn 0.050032000988721848 0.998403012752533 -0.026249999180436134
vn 0.079109996557235718 0.99541401863098145 -0.053782999515533447
vn 0.10174699872732163 0.99425399303436279 -0.033275999128818512
vn 0.10240600258111954 0.99451601505279541 -0.021243000403046608
vn 0.031222999095916748 0.99951201677322388 -0.0007570000016130507
vn -0.069582998752594 0.99731200933456421 -0.022965999320149422
vn 0.047894999384880066 0.9985160231590271 -0.025913000106811523
vn 0.0029349999967962503 0.99999499320983887 -0.0010420000180602074
vn 0.03952300176024437 0.99921798706054688 0.001256000017747283
vn 0.0898509994149208 0.99574702978134155 -0.020372999832034111
vn 0.0095840003341436386 0.99994200468063354 0.0048770001158118248
vn 0.0065549998544156551 0.99991500377655029 -0.011257999576628208
vn 0.019417999312281609 0.9997979998588562 -0.0051529998891055584
vn 0.0085429996252059937 0.99975597858428955 0.020386999472975731
vn 0.00027799999224953353 0.9995499849319458 0.029989000409841537
vn 0.000674000009894371 0.99966800212860107 -0.025738000869750977
vn 0.024477999657392502 0.99969100952148438 0.0042860000394284725
vn 0.025274999439716339 0.99949002265930176 0.019500000402331352
vn 0.025274999439716339 0.99949002265930176 0.019499000161886215
f 1/1/1 2/2/2 3/3/3
f 1/1/1 4/4/4 2/2/2
f 4/4/4 1/1/1 5/5/5
f 6/6/6 3/3/3 7/7/7
f 6/6/6 8/8/8 3/3/3
f 1/1/1 3/3/3 8/8/8
f 6/6/6 7/7/7 9/9/9
f 7/7/7 3/3/3 10/10/10
f 3/3/3 11/11/11 12/12/12
f 3/3/3 2/2/2 11/11/11
f 13/13/13 14/14/14 12/12/12
f 10/10/10 12/12/12 15/15/15
f 11/11/11 13/13/13 12/12/12
f 10/10/10 15/15/15 16/16/16
f 17/17/17 12/12/12 14/14/14
f 17/17/17 15/15/15 12/12/12
f 15/15/15 18/18/18 19/19/19
f 15/15/15 17/17/17 18/18/18
f 16/16/16 19/19/19 20/20/20
f 18/18/18 21/21/21 19/19/19
f 16/16/16 20/20/20 22/22/22
f 21/21/21 23/23/23 19/19/19
f 21/21/21 24/24/24 23/23/23
f 24/24/24 25/25/25 23/23/23
f 24/24/24 26/26/26 25/25/25
f 16/16/16 15/15/15 19/19/19
f 27/27/27 10/10/10 16/16/16
f 10/10/10 3/3/3 12/12/12
f 28/28/28 7/7/7 10/10/10
f 19/19/19 29/29/29 20/20/20
f 19/19/19 30/30/30 29/29/29
f 31/31/31 25/25/25 26/26/26
f 30/30/30 19/19/19 23/23/23
f 32/32/32 20/20/20 29/29/29
f 32/32/32 33/33/33 20/20/20
f 9/9/9 28/28/28 34/34/34
f 9/9/9 7/7/7 28/28/28
f 16/16/16 22/22/22 27/27/27
f 35/35/35 27/27/27 36/36/36
f 35/35/35 28/28/28 27/27/27
f 37/37/37 38/38/38 39/39/39
f 37/37/37 40/40/40 38/38/38
f 41/41/41 39/39/39 42/42/42
f 41/41/41 37/37/37 39/39/39
f 39/39/39 36/36/36 27/27/27
f 39/39/39 38/38/38 36/36/36
f 35/35/35 34/34/34 28/28/28
f 39/39/39 27/27/27 43/43/43
f 32/32/32 44/44/44 33/33/33
f 22/22/22 33/33/33 43/43/43
f 45/45/45 46/46/46 47/47/47
f 45/45/45 43/43/43 46/46/46
f 22/22/22 43/43/43 27/27/27
f 48/48/48 43/43/43 45/45/45
f 46/46/46 43/43/43 33/33/33
f 48/48/48 39/39/39 43/43/43
f 48/48/48 42/42/42 39/39/39
f 46/46/46 33/33/33 49/49/49
f 20/20/20 33/33/33 22/22/22
f 50/50/50 47/47/47 46/46/46
f 50/50/50 46/46/46 51/51/51
f 10/10/10 27/27/27 28/28/28
f 52/52/52 49/49/49 53/53/53
f 53/53/53 49/49/49 54/54/54
f 55/55/55 49/49/49 56/56/56
f 56/56/56 52/52/52 57/57/57
f 56/56/56 49/49/49 52/52/52
f 54/54/54 33/33/33 44/44/44
f 54/54/54 49/49/49 33/33/33
f 55/55/55 46/46/46 49/49/49
f 55/55/55 51/51/51 46/46/46
