mtllib m300000233.mtl
usemtl material0
v 26.338484048843384 2.3892068862915039 -64
v 26.58397901058197 2.3629579544067383 -63.374980926513672
v 26.756409049034119 2.3923740386962891 -64
v 24 2.4931700229644775 -64
v 24.590065002441406 2.4600470066070557 -63.269999980926514
v 24.551620006561279 2.4783229827880859 -64
v 24 2.4816970825195312 -63.514209985733032
v 24 2.475193977355957 -63.238888025283813
v 24.695234060287476 2.4366390705108643 -61.275539040565491
v 24 2.4613440036773682 -61.901229977607727
v 26.689010977745056 2.311229944229126 -61.380424022674561
v 24 2.4677670001983643 -61.23892605304718
v 24 2.4662768840789795 -60.502743005752563
v 24.800487995147705 2.4303200244903564 -59.281139016151428
v 26.794329047203064 2.31809401512146 -59.386070013046265
v 24 2.4651799201965332 -59.238978981971741
v 24 2.4861249923706055 -58.102115988731384
v 24.905930995941162 2.4625730514526367 -57.28687310218811
v 28.68307900428772 2.2453889846801758 -61.485515952110291
v 30.686819076538086 2.3158140182495117 -64
v 30.409615993499756 2.3188650608062744 -64
v 30.572423934936523 2.293773889541626 -63.585381031036377
v 28.577989995479584 2.285398006439209 -63.480030059814453
v 30.677546977996826 2.2610890865325928 -61.590888977050781
v 28.55070298910141 2.3170390129089355 -64
v 32 2.3434469699859619 -63.660923004150391
v 32 2.3488950729370117 -63.784157037734985
v 32 2.3584349155426025 -64
v 32 2.295504093170166 -62.3010139465332
v 28.788331985473633 2.239069938659668 -59.491115987300873
v 32 2.2844469547271729 -61.660796999931335
v 32 2.2713010311126709 -60.401169002056122
v 30.782747030258179 2.2435390949249268 -59.5964469909668
v 24 2.5000278949737549 -57.239151000976562
v 24 2.4925239086151123 -56.279887914657593
v 24.973833084106445 2.4559729099273682 -56
v 24 2.491628885269165 -56
v 25.647684097290039 2.4182980060577393 -56
v 26.899775981903076 2.3513240814208984 -57.391803979873657
v 26.973337054252625 2.3680388927459717 -56
v 28.893805027008057 2.2771821022033691 -57.496867895126343
v 32 2.2641448974609375 -59.660793006420136
v 30.888120889663696 2.261631965637207 -57.602130889892578
v 32 2.2708549499511719 -58.837939977645874
v 28.973115980625153 2.3340120315551758 -56
v 27.547194004058838 2.34712290763855 -56
v 30.973031997680664 2.3267738819122314 -56
v 29.446802020072937 2.33127498626709 -56
v 32 2.2769160270690918 -57.660896062850952
v 32 2.3064858913421631 -56.918297052383423
v 31.346441030502319 2.3326930999755859 -56
v 32 2.3141250610351562 -56.726452112197876
v 32 2.3487639427185059 -56
vt 0 0.29230999946594238
vt 0.078126996755599976 0.32299697399139404
vt 0 0.34455102682113647
vt 0 0
vt 0.091250002384185791 0.07375800609588623
vt 0 0.068952977657318115
vt 0.060724001377820969 0
vt 0.095138996839523315 0
vt 0.34055799245834351 0.086903989315032959
vt 0.26234599947929382 0
vt 0.32744699716567993 0.33612602949142456
vt 0.34513399004936218 0
vt 0.43715700507164 0
vt 0.58985799551010132 0.10006099939346314
vt 0.57674098014831543 0.34929102659225464
vt 0.59512799978256226 0
vt 0.73723602294921875 0
vt 0.83914101123809814 0.11324101686477661
vt 0.31431099772453308 0.58538499474525452
vt 0 0.8358519971370697
vt 0 0.80120199918746948
vt 0.051826998591423035 0.82155300676822662
vt 0.064995996654033661 0.57224899530410767
vt 0.30113899707794189 0.83469299972057343
vt 0 0.56883800029754639
vt 0.042385000735521317 1
vt 0.026979999616742134 1
vt 0 1
vt 0.21237300336360931 1
vt 0.56361097097396851 0.59854099154472351
vt 0.29240000247955322 1
vt 0.44985398650169373 1
vt 0.55044400691986084 0.84784300625324249
vt 0.84510600566864014 0
vt 0.96501398086547852 0
vt 1 0.12172901630401611
vt 1 0
vt 1 0.20596098899841309
vt 0.82602500915527344 0.36247199773788452
vt 1 0.37166702747344971
vt 0.81289100646972656 0.61172598600387573
vt 0.5424010157585144 1
vt 0.79973399639129639 0.86101500689983368
vt 0.64525699615478516 1
vt 1 0.62163901329040527
vt 1 0.44339901208877563
vt 1 0.871628999710083
vt 1 0.68084999918937683
vt 0.79238802194595337 1
vt 0.88521301746368408 1
vt 1 0.91830500215291977
vt 0.90919399261474609 1
vt 1 1
vn 0.038938999176025391 0.998885989189148 0.026655999943614006
vn 0.041921999305486679 0.99880599975585938 0.025066999718546867
vn 0.036557000130414963 0.99770200252532959 0.057041998952627182
vn 0.026899000629782677 0.99935901165008545 0.023602999746799469
vn 0.0503619983792305 0.99859201908111572 0.016674000769853592
vn 0.046707000583410263 0.99865400791168213 0.022541999816894531
vn 0.026899000629782677 0.99935901165008545 0.023602999746799469
vn 0.026255000382661819 0.99959099292755127 0.011297999881207943
vn 0.052386000752449036 0.998619019985199 0.0039429999887943268
vn 0.032175999134778976 0.99947500228881836 0.0037120000924915075
vn 0.048344999551773071 0.99880999326705933 0.0064480002038180828
vn 0.044543001800775528 0.99900102615356445 -0.0035240000579506159
vn 0.0440250001847744 0.99902999401092529 0.0012919999426230788
vn 0.054019998759031296 0.99849700927734375 -0.0092070000246167183
vn 0.046620000153779984 0.99879997968673706 -0.015030999667942524
vn 0.043280001729726791 0.99905401468276978 -0.00430699996650219
vn 0.04205700010061264 0.99895501136779785 -0.017875000834465027
vn 0.050981998443603516 0.99863702058792114 -0.011172999627888203
vn 0.015158000402152538 0.99980401992797852 0.012729999609291554
vn -0.028047999367117882 0.99857801198959351 0.045343000441789627
vn -0.00026599998818710446 0.99816799163818359 0.060509998351335526
vn -0.013849000446498394 0.99956601858139038 0.02600800059735775
vn 0.013012999668717384 0.99950599670410156 0.028606999665498734
vn -0.010107000358402729 0.99984300136566162 0.014578999951481819
vn 0.020082000643014908 0.99801599979400635 0.059677001088857651
vn -0.032758001238107681 0.99875199794769287 0.037689998745918274
vn -0.032407999038696289 0.99849998950958252 0.04413599893450737
vn -0.032407999038696289 0.99849998950958252 0.04413200169801712
vn -0.022448999807238579 0.999468982219696 0.02360600046813488
vn 0.018818000331521034 0.99978798627853394 -0.008391999639570713
vn -0.016984999179840088 0.9997749924659729 0.012737000361084938
vn -0.016642000526189804 0.99981200695037842 0.0099160000681877136
vn -0.00824199989438057 0.99996501207351685 0.0015300000086426735
vn 0.041124001145362854 0.99914801120758057 -0.0035089999437332153
vn 0.038465999066829681 0.99924802780151367 0.0048850001767277718
vn 0.0436209999024868 0.99904400110244751 0.0028220000676810741
vn 0.036589000374078751 0.9993249773979187 0.003195999888703227
vn 0.04964900016784668 0.998760998249054 -0.0033950000070035458
vn 0.044677998870611191 0.99890601634979248 -0.013819999992847443
vn 0.036912001669406891 0.99922102689743042 -0.013950999826192856
vn 0.023842999711632729 0.99944400787353516 -0.023305000737309456
vn -0.017156999558210373 0.99984300136566162 -0.0043759997934103012
vn -0.0028959999326616526 0.99974501132965088 -0.022393999621272087
vn -0.015390000306069851 0.99986100196838379 -0.0063849999569356441
vn 0.0070110000669956207 0.99924099445343018 -0.038307998329401016
vn 0.017004000023007393 0.99936199188232422 -0.031396999955177307
vn -0.0072309998795390129 0.99916398525238037 -0.040242001414299011
vn 0.003616000059992075 0.99918597936630249 -0.04018000140786171
vn -0.015220999717712402 0.99949097633361816 -0.028043000027537346
vn -0.015836000442504883 0.99908298254013062 -0.039783000946044922
vn -0.020227000117301941 0.99883902072906494 -0.043728001415729523
vn -0.022733999416232109 0.99868398904800415 -0.045979000627994537
vn -0.024553999304771423 0.99856400489807129 -0.047614000737667084
f 1/1/1 2/2/2 3/3/3
f 4/4/4 5/5/5 6/6/6
f 4/4/4 7/7/7 5/5/5
f 7/7/7 8/8/8 5/5/5
f 6/6/6 2/2/2 1/1/1
f 6/6/6 5/5/5 2/2/2
f 8/8/8 9/9/9 5/5/5
f 8/8/8 10/10/10 9/9/9
f 5/5/5 11/11/11 2/2/2
f 12/12/12 13/13/13 9/9/9
f 11/11/11 9/9/9 14/14/14
f 9/9/9 11/11/11 5/5/5
f 14/14/14 15/15/15 11/11/11
f 16/16/16 9/9/9 13/13/13
f 16/16/16 14/14/14 9/9/9
f 10/10/10 12/12/12 9/9/9
f 14/14/14 17/17/17 18/18/18
f 14/14/14 16/16/16 17/17/17
f 2/2/2 11/11/11 19/19/19
f 20/20/20 21/21/21 22/22/22
f 22/22/22 23/23/23 24/24/24
f 21/21/21 23/23/23 22/22/22
f 21/21/21 25/25/25 23/23/23
f 26/26/26 20/20/20 22/22/22
f 26/26/26 27/27/27 20/20/20
f 27/27/27 28/28/28 20/20/20
f 26/26/26 22/22/22 29/29/29
f 11/11/11 30/30/30 19/19/19
f 19/19/19 24/24/24 23/23/23
f 31/31/31 24/24/24 32/32/32
f 29/29/29 24/24/24 31/31/31
f 29/29/29 22/22/22 24/24/24
f 19/19/19 33/33/33 24/24/24
f 19/19/19 23/23/23 2/2/2
f 23/23/23 3/3/3 2/2/2
f 23/23/23 25/25/25 3/3/3
f 34/34/34 35/35/35 18/18/18
f 35/35/35 36/36/36 18/18/18
f 35/35/35 37/37/37 36/36/36
f 34/34/34 18/18/18 17/17/17
f 18/18/18 38/38/38 39/39/39
f 18/18/18 36/36/36 38/38/38
f 38/38/38 40/40/40 39/39/39
f 39/39/39 41/41/41 15/15/15
f 15/15/15 41/41/41 30/30/30
f 30/30/30 33/33/33 19/19/19
f 33/33/33 32/32/32 24/24/24
f 33/33/33 42/42/42 32/32/32
f 30/30/30 43/43/43 33/33/33
f 11/11/11 15/15/15 30/30/30
f 42/42/42 43/43/43 44/44/44
f 42/42/42 33/33/33 43/43/43
f 45/45/45 41/41/41 46/46/46
f 40/40/40 41/41/41 39/39/39
f 40/40/40 46/46/46 41/41/41
f 47/47/47 43/43/43 48/48/48
f 45/45/45 43/43/43 41/41/41
f 45/45/45 48/48/48 43/43/43
f 47/47/47 49/49/49 43/43/43
f 47/47/47 50/50/50 49/49/49
f 50/50/50 51/51/51 52/52/52
f 50/50/50 47/47/47 51/51/51
f 30/30/30 41/41/41 43/43/43
f 44/44/44 43/43/43 49/49/49
f 53/53/53 52/52/52 51/51/51
f 18/18/18 39/39/39 15/15/15
f 14/14/14 18/18/18 15/15/15
