mtllib m30000301.mtl
usemtl material0
v 80 4.0303621292114258 -80
v 83.902266979217529 3.8464241027832031 -76.406241893768311
v 83.714118957519531 4.1528911590576172 -80
v 80 4.0232682228088379 -79.9184718132019
v 84.13359808921814 4.1717438697814941 -80
v 87.892035998404026 4.0442571640014648 -76.617560863494873
v 87.714789986610413 4.3008379936218262 -80
v 80 3.8214459419250488 -72.2002180069685
v 80 3.8281149864196777 -72.068999998271465
v 80.123908996582031 3.8171100616455078 -72.206741005182266
v 80 3.8728389739990234 -67.846107006073
v 80.334624767303467 3.8474469184875488 -68.2180860042572
v 80 3.8730509281158447 -68.200500011444092
v 80 3.797260046005249 -74.551964044570923
v 84.112021923065186 3.6814570426940918 -72.416907995939255
v 80 3.7847230434417725 -76.1999740600586
v 88.10164599865675 3.8495049476623535 -72.628127992153168
v 91.8811719417572 4.1151337623596191 -76.828444957733154
v 88.3115159869194 3.7079710960388184 -68.638878107070923
v 84.3228530883789 3.7342550754547119 -68.428337097167969
v 80.544235229492188 3.651710033416748 -64.228652954101562
v 84.532378911972046 3.522892951965332 -64.4388427734375
v 80 3.7175569534301758 -64.200127124786377
v 88.521408021450043 3.571803092956543 -64.649651050567627
v 92.301108837127686 3.8711318969726562 -68.850081920623779
v 84.555588006973267 3.5308499336242676 -64
v 80.798346996307373 3.6482911109924316 -64
v 80.556273937225342 3.6460309028625488 -64
v 80 3.7139229774475098 -64.002738952636719
v 80 3.7138729095458984 -64
v 92.090972900390625 3.9594440460205078 -72.8391489982605
v 90.935782909393311 4.3477802276611328 -80
v 85.020142078399658 3.5214910507202148 -64
v 88.555656015872955 3.5618720054626465 -64
v 91.714988946914673 4.3584351539611816 -80
v 94.735321044921875 4.490379810333252 -80
v 95.871016979217529 4.3285818099975586 -77.039824962615967
v 95.715819835662842 4.5390081405639648 -80
v 96 4.5551109313964844 -80
v 96 4.3465061187744141 -77.183150768280029
v 96 4.19907808303833 -74.583954095840454
v 96 4.1150012016296387 -73.046066045761108
v 92.5106348991394 3.6602580547332764 -64.860596179962158
v 96 3.9495229721069336 -69.045661926269531
v 96 3.9329850673675537 -68.738379955291748
v 96 4.1129398345947266 -72.960815012454987
v 96 3.6915009021759033 -65.044960021972656
v 92.555823802948 3.6131880283355713 -64
v 89.2433010339737 3.5494949817657471 -64
v 96 4.3344559669494629 -77.046654224395752
v 96 3.6698129177093506 -64.1182861328125
v 93.467072010040283 3.6474969387054443 -64
v 96 3.6670451164245605 -64
vt 0 0
vt 0.22461000084877014 0.24389201402664185
vt 0 0.23213201761245728
vt 0.00509499991312623 0
vt 0 0.25835001468658447
vt 0.21140199899673462 0.4932519793510437
vt 0 0.48217397928237915
vt 0.48748600482940674 0
vt 0.49568700790405273 0
vt 0.487078994512558 0.0077440142631530762
vt 0.75961798429489136 0
vt 0.7363700270652771 0.020914018154144287
vt 0.73746901750564575 0
vt 0.340501993894577 0
vt 0.47394299507141113 0.25700098276138306
vt 0.23750199377536774 0
vt 0.46074199676513672 0.5063529908657074
vt 0.19822199642658234 0.74257299304008484
vt 0.710070013999939 0.51947000622749329
vt 0.72322899103164673 0.27017802000045776
vt 0.985709011554718 0.034014999866485596
vt 0.97257202863693237 0.28327399492263794
vt 0.987492024898529 0
vt 0.95939701795578 0.532588005065918
vt 0.69687002897262573 0.76881900429725647
vt 1 0.28472399711608887
vt 1 0.04989701509475708
vt 1 0.034766972064971924
vt 0.9998289942741394 0
vt 1 0
vt 0.44755300879478455 0.75568599998950958
vt 0 0.68348601460456848
vt 1 0.31375902891159058
vt 1 0.53472900390625
vt 0 0.73218700289726257
vt 0 0.92095799744129181
vt 0.18501099944114685 0.99193899985402822
vt 0 0.9822390004992485
vt 0 1
vt 0.1760530024766922 1
vt 0.33850300312042236 1
vt 0.43462100625038147 1
vt 0.9462130069732666 0.78191499412059784
vt 0.68464601039886475 1
vt 0.70385098457336426 1
vt 0.43994900584220886 1
vt 0.934689998626709 1
vt 1 0.78473900258541107
vt 1 0.57770600914955139
vt 0.18458400666713715 1
vt 0.9926069974899292 1
vt 1 0.8416920006275177
vt 1 1
vn -0.032848000526428223 0.99569898843765259 0.08663100004196167
vn -0.019338000565767288 0.99849498271942139 0.051318001002073288
vn -0.034053999930620193 0.995652973651886 0.08669000118970871
vn -0.012834000401198864 0.99783498048782349 0.064501002430915833
vn -0.040906999260187149 0.99571102857589722 0.082983002066612244
vn -0.030919000506401062 0.99744600057601929 0.064382001757621765
vn -0.025793999433517456 0.99670100212097168 0.076958000659942627
vn 0.034315001219511032 0.99933397769927979 -0.012418000027537346
vn 0.07425999641418457 0.997156023979187 -0.012865000404417515
vn 0.026055999100208282 0.99965697526931763 0.0025110000278800726
vn 0.11816699802875519 0.99224400520324707 0.038568001240491867
vn 0.0398700013756752 0.99900197982788086 0.020145000889897346
vn 0.075721003115177155 0.99707001447677612 -0.010835999622941017
vn -0.015294999815523624 0.99985402822494507 -0.0076549998484551907
vn -0.0086099999025464058 0.99967801570892334 0.023869000375270844
vn -0.013571999967098236 0.99902200698852539 0.042073000222444534
vn -0.029108000919222832 0.99865102767944336 0.042998000979423523
vn -0.03166000172495842 0.99781298637390137 0.058024000376462936
vn -0.019921999424695969 0.99935799837112427 0.029760999605059624
vn 0.023694999516010284 0.99954098463058472 0.01890300028026104
vn 0.038322001695632935 0.99830597639083862 0.04378499835729599
vn 0.011194000020623207 0.99903398752212524 0.042484000325202942
vn 0.12211699783802033 0.99168097972869873 0.040686998516321182
vn -0.021398000419139862 0.9989359974861145 0.040851999074220657
vn -0.029216999188065529 0.99882298707962036 0.038729000836610794
vn 0.030432999134063721 0.99934202432632446 -0.019728999584913254
vn 0.028783999383449554 0.99944001436233521 -0.017045000568032265
vn 0.096550002694129944 0.99513500928878784 0.019629999995231628
vn 0.12104000151157379 0.99247902631759644 0.018270000815391541
vn 0.12104099988937378 0.99248200654983521 0.018141999840736389
vn -0.036168001592159271 0.998661994934082 0.036967001855373383
vn -0.014004999771714211 0.996944010257721 0.076857998967170715
vn -0.0099419998005032539 0.99984902143478394 0.014244000427424908
vn -0.0066300001926720142 0.99985599517822266 0.015634000301361084
vn -0.03738899901509285 0.99622201919555664 0.078382998704910278
vn -0.0471000000834465 0.99603599309921265 0.0754610002040863
vn -0.04729900136590004 0.99725800752639771 0.056919999420642853
vn -0.050978999584913254 0.99599301815032959 0.073473997414112091
vn -0.056423000991344452 0.99567997455596924 0.0737370029091835
vn -0.055702999234199524 0.99567198753356934 0.0743900015950203
vn -0.036933001130819321 0.99782699346542358 0.054556999355554581
vn -0.03802499920129776 0.9987490177154541 0.032476000487804413
vn -0.014825999736785889 0.99845397472381592 0.05356299877166748
vn -0.018626999109983444 0.99867397546768188 0.047993000596761703
vn -0.0064730001613497734 0.99790602922439575 0.064359001815319061
vn -0.019381999969482422 0.99895799160003662 0.041322000324726105
vn -0.0059340000152587891 0.99836397171020508 0.056869000196456909
vn -0.021454000845551491 0.99821597337722778 0.055723998695611954
vn -0.012811999768018723 0.99873900413513184 0.048532001674175262
vn -0.042433001101017 0.99749600887298584 0.056579001247882843
vn -0.0077149998396635056 0.99969702959060669 0.023397000506520271
vn -0.014659999869763851 0.99940800666809082 0.031112000346183777
vn -0.0077149998396635056 0.99969702959060669 0.023391999304294586
f 1/1/1 2/2/2 3/3/3
f 1/1/1 4/4/4 2/2/2
f 5/5/5 6/6/6 7/7/7
f 8/8/8 9/9/9 10/10/10
f 11/11/11 12/12/12 13/13/13
f 8/8/8 10/10/10 14/14/14
f 2/2/2 10/10/10 15/15/15
f 14/14/14 2/2/2 16/16/16
f 14/14/14 10/10/10 2/2/2
f 6/6/6 15/15/15 17/17/17
f 15/15/15 6/6/6 2/2/2
f 17/17/17 18/18/18 6/6/6
f 17/17/17 15/15/15 19/19/19
f 5/5/5 2/2/2 6/6/6
f 5/5/5 3/3/3 2/2/2
f 15/15/15 10/10/10 20/20/20
f 20/20/20 12/12/12 21/21/21
f 12/12/12 20/20/20 10/10/10
f 20/20/20 21/21/21 22/22/22
f 23/23/23 12/12/12 11/11/11
f 23/23/23 21/21/21 12/12/12
f 19/19/19 22/22/22 24/24/24
f 22/22/22 19/19/19 20/20/20
f 24/24/24 25/25/25 19/19/19
f 21/21/21 26/26/26 22/22/22
f 21/21/21 27/27/27 26/26/26
f 15/15/15 20/20/20 19/19/19
f 23/23/23 28/28/28 21/21/21
f 23/23/23 29/29/29 28/28/28
f 29/29/29 30/30/30 28/28/28
f 17/17/17 19/19/19 31/31/31
f 13/13/13 10/10/10 9/9/9
f 13/13/13 12/12/12 10/10/10
f 4/4/4 16/16/16 2/2/2
f 7/7/7 6/6/6 32/32/32
f 33/33/33 24/24/24 22/22/22
f 33/33/33 34/34/34 24/24/24
f 18/18/18 32/32/32 6/6/6
f 18/18/18 35/35/35 32/32/32
f 35/35/35 18/18/18 36/36/36
f 37/37/37 18/18/18 31/31/31
f 36/36/36 37/37/37 38/38/38
f 36/36/36 18/18/18 37/37/37
f 39/39/39 37/37/37 40/40/40
f 39/39/39 38/38/38 37/37/37
f 41/41/41 31/31/31 42/42/42
f 41/41/41 37/37/37 31/31/31
f 31/31/31 18/18/18 17/17/17
f 43/43/43 25/25/25 24/24/24
f 44/44/44 43/43/43 45/45/45
f 44/44/44 25/25/25 43/43/43
f 44/44/44 46/46/46 25/25/25
f 47/47/47 45/45/45 43/43/43
f 42/42/42 25/25/25 46/46/46
f 42/42/42 31/31/31 25/25/25
f 24/24/24 48/48/48 43/43/43
f 24/24/24 49/49/49 48/48/48
f 50/50/50 37/37/37 41/41/41
f 25/25/25 31/31/31 19/19/19
f 50/50/50 40/40/40 37/37/37
f 47/47/47 43/43/43 51/51/51
f 51/51/51 52/52/52 53/53/53
f 51/51/51 43/43/43 52/52/52
f 27/27/27 21/21/21 28/28/28
f 26/26/26 33/33/33 22/22/22
f 49/49/49 24/24/24 34/34/34
f 52/52/52 43/43/43 48/48/48
