mtllib m300000333.mtl
usemtl material0
v 56 3.3085401058197021 -63.512290954589844
v 56 3.3362040519714355 -62.931534051895142
v 56.610312938690186 3.4093940258026123 -62.963996887207031
v 64 5.1495709419250488 -64
v 63.919806957244873 5.140538215637207 -64
v 64 5.1554551124572754 -63.927970886230469
v 57.542651891708374 3.5413720607757568 -64
v 56.555386066436768 3.363461971282959 -64
v 58.55706000328064 3.6996889114379883 -64
v 58.606235980987549 3.7195050716400146 -63.070384979248047
v 56 3.29032301902771 -64
v 58.711688995361328 3.7537119388580322 -61.076125979423523
v 60.605292975902557 4.6653451919555664 -63.178973913192749
v 59.688953012228012 4.2350101470947266 -64
v 60.561760008335114 4.628140926361084 -64
v 64 5.1766018867492676 -63.359874963760376
v 64 5.1720671653747559 -63.481693029403687
v 56.715717077255249 3.4338350296020508 -60.96969997882843
v 56 3.3439850807189941 -61.612918972969055
v 64 5.0836210250854492 -60.128089994192123
v 56 3.2901389598846436 -59.712837010622025
v 56 3.25669002532959 -58.9313999414444
v 56.820590972900391 3.3498790264129639 -58.975033044815063
v 58.816444039344788 3.6463189125061035 -59.081375002861023
v 56 3.3488800525665283 -60.931632995605469
v 56 3.2360970973968506 -57.812756061553955
v 56.925750970840454 3.325002908706665 -56.980567932128906
v 57.943459033966064 3.48429799079895 -56
v 58.921494007110596 3.598006010055542 -57.086826086044312
v 56.977649927139282 3.3511850833892822 -56
v 56 3.2142109870910645 -56.931324005126953
v 56 3.2312419414520264 -56.092753887176514
v 56 3.2331259250640869 -56
v 60.815132021903992 4.5174541473388672 -59.189705014228821
v 60.982361018657684 4.2903032302856445 -56
v 60.132701992988586 3.9639499187469482 -56
v 64 5.0484890937805176 -59.359584987163544
v 64 4.8515291213989258 -56.753856897354126
v 64 4.8192410469055176 -56.326690912246704
v 58.978752017021179 3.5759360790252686 -56
v 64 4.7931218147277832 -56
vt 0.98836100101470947 0.90834199637174606
vt 0.98836100101470947 0.83933599293231964
vt 0.91538500785827637 0.84277099370956421
vt 0.0042989999055862427 0.95476299896836281
vt 0.013875000178813934 0.9549189992249012
vt 0.0043609999120235443 0.94618599861860275
vt 0.80274200439453125 0.96492199972271919
vt 0.921800971031189 0.96585699915885925
vt 0.68106299638748169 0.96436399966478348
vt 0.675583004951477 0.853986993432045
vt 0.988286018371582 0.96626700088381767
vt 0.663985013961792 0.61721399426460266
vt 0.41303101181983948 0.86526599526405334
vt 0.532567024230957 0.96346699818968773
vt 0.418954998254776 0.96276700124144554
vt 0.0052370000630617142 0.87871900200843811
vt 0.0050510000437498093 0.89318600296974182
vt 0.90397399663925171 0.606002002954483
vt 0.98914700746536255 0.6828329861164093
vt 0.014418999664485455 0.49510097503662109
vt 0.99150598049163818 0.45735001564025879
vt 0.99270498752593994 0.36452698707580566
vt 0.89464700222015381 0.36890900135040283
vt 0.65508902072906494 0.37996202707290649
vt 0.9895399808883667 0.60197299718856812
vt 0.99405902624130249 0.2317429780960083
vt 0.88428300619125366 0.13207197189331055
vt 0.7628440260887146 0.014835000038146973
vt 0.64512801170349121 0.1430479884147644
vt 0.87855398654937744 0.01562798023223877
vt 0.99509400129318237 0.12710201740264893
vt 0.9956439733505249 0.027556002140045166
vt 0.995701014995575 0.016544997692108154
vt 0.40037700533866882 0.39098197221755981
vt 0.38690099120140076 0.014451026916503906
vt 0.49492698907852173 0.014088988304138184
vt 0.016842000186443329 0.40382599830627441
vt 0.026559999212622643 0.093831002712249756
vt 0.028153000399470329 0.04301297664642334
vt 0.63949102163314819 0.013972997665405273
vt 0.023942999541759491 0.0046060085296630859
vn -0.12805600464344025 0.99097001552581787 -0.0397379994392395
vn -0.120387002825737 0.9923890233039856 -0.02589699998497963
vn -0.14193099737167358 0.98968499898910522 -0.01945899985730648
vn -0.11156900227069855 0.99045699834823608 -0.080912001430988312
vn -0.14173400402069092 0.98878902196884155 -0.0469839982688427
vn -0.14035099744796753 0.988910973072052 -0.048548001796007156
vn -0.16032199561595917 0.98689001798629761 -0.018557999283075333
vn -0.15302200615406036 0.98757898807525635 -0.035670999437570572
vn -0.28894698619842529 0.95733201503753662 -0.0051210001111030579
vn -0.29385000467300415 0.95584702491760254 -0.0028460000175982714
vn -0.13047400116920471 0.99076098203659058 -0.037007998675107956
vn -0.27877399325370789 0.95969700813293457 0.035585999488830566
vn -0.28389400243759155 0.95883798599243164 0.0058280001394450665
vn -0.423895001411438 0.905709981918335 -0.0016169999726116657
vn -0.28853499889373779 0.95705801248550415 -0.028069999068975449
vn -0.14919599890708923 0.98879402875900269 -0.0052499999292194843
vn -0.15073899924755096 0.98788899183273315 -0.036772999912500381
vn -0.13711099326610565 0.9903150200843811 0.021846000105142593
vn -0.11907099932432175 0.99286597967147827 -0.006200999952852726
vn -0.15803800523281097 0.98659902811050415 0.040585000067949295
vn -0.11395999789237976 0.99240201711654663 0.046392001211643219
vn -0.11121399700641632 0.99334502220153809 0.029965000227093697
vn -0.13003799319267273 0.99090301990509033 0.03466000035405159
vn -0.27107200026512146 0.96124601364135742 0.050264999270439148
vn -0.11672800034284592 0.99293500185012817 0.021313000470399857
vn -0.11337500065565109 0.99335098266601562 0.019997000694274902
vn -0.12775400280952454 0.99180400371551514 0.0018919999711215496
vn -0.12370599806308746 0.99229001998901367 -0.0075059998780488968
vn -0.24232999980449677 0.96939200162887573 0.039448000490665436
vn -0.1284870058298111 0.99151599407196045 -0.019673999398946762
vn -0.11875200271606445 0.99292302131652832 0.0014880000380799174
vn -0.11986199766397476 0.99258601665496826 -0.020159000530838966
vn -0.11986199766397476 0.99258601665496826 -0.020159000530838966
vn -0.27394899725914 0.95970797538757324 0.062555000185966492
vn -0.25993400812149048 0.96212601661682129 0.082143999636173248
vn -0.34862199425697327 0.93434399366378784 0.073917999863624573
vn -0.16110800206661224 0.98516201972961426 0.059154000133275986
vn -0.16014799475669861 0.98428499698638916 0.074399001896381378
vn -0.16285000741481781 0.98360401391983032 0.077476002275943756
vn -0.20822900533676148 0.97759401798248291 0.030821999534964561
vn -0.16385200619697571 0.98334699869155884 0.078617997467517853
f 1/1/1 2/2/2 3/3/3
f 4/4/4 5/5/5 6/6/6
f 7/7/7 8/8/8 3/3/3
f 9/9/9 3/3/3 10/10/10
f 9/9/9 7/7/7 3/3/3
f 11/11/11 3/3/3 8/8/8
f 11/11/11 1/1/1 3/3/3
f 3/3/3 12/12/12 10/10/10
f 9/9/9 13/13/13 14/14/14
f 9/9/9 10/10/10 13/13/13
f 14/14/14 13/13/13 15/15/15
f 10/10/10 12/12/12 13/13/13
f 16/16/16 15/15/15 13/13/13
f 16/16/16 17/17/17 15/15/15
f 17/17/17 5/5/5 15/15/15
f 17/17/17 6/6/6 5/5/5
f 2/2/2 18/18/18 3/3/3
f 2/2/2 19/19/19 18/18/18
f 16/16/16 13/13/13 20/20/20
f 21/21/21 22/22/22 23/23/23
f 12/12/12 18/18/18 23/23/23
f 18/18/18 12/12/12 3/3/3
f 12/12/12 23/23/23 24/24/24
f 21/21/21 18/18/18 25/25/25
f 21/21/21 23/23/23 18/18/18
f 19/19/19 25/25/25 18/18/18
f 23/23/23 26/26/26 27/27/27
f 23/23/23 22/22/22 26/26/26
f 27/27/27 28/28/28 29/29/29
f 27/27/27 30/30/30 28/28/28
f 31/31/31 27/27/27 26/26/26
f 27/27/27 29/29/29 24/24/24
f 32/32/32 27/27/27 31/31/31
f 32/32/32 30/30/30 27/27/27
f 32/32/32 33/33/33 30/30/30
f 24/24/24 23/23/23 27/27/27
f 34/34/34 12/12/12 24/24/24
f 29/29/29 35/35/35 34/34/34
f 29/29/29 36/36/36 35/35/35
f 12/12/12 34/34/34 13/13/13
f 37/37/37 13/13/13 34/34/34
f 37/37/37 20/20/20 13/13/13
f 37/37/37 34/34/34 38/38/38
f 38/38/38 34/34/34 39/39/39
f 40/40/40 29/29/29 28/28/28
f 36/36/36 29/29/29 40/40/40
f 29/29/29 34/34/34 24/24/24
f 35/35/35 39/39/39 34/34/34
f 35/35/35 41/41/41 39/39/39
