mtllib m3000333.mtl
usemtl material0
v 226.41716003417969 3.7018520832061768 -256
v 224 3.1996510028839111 -251.79730224609375
v 226.62957763671875 3.2966239452362061 -251.93647766113281
v 224 3.4841580390930176 -254.60389709472656
v 224 3.6256809234619141 -256
v 234.41384887695313 3.0957059860229492 -256
v 234.60732984542847 3.3296289443969727 -252.35786437988281
v 230.28514099121094 3.0647048950195312 -256
v 238.99775695800781 2.5210819244384766 -256
v 242.57977294921875 2.3006229400634766 -252.77552795410156
v 235.03712511062622 5.0679178237915039 -244.38644409179688
v 256 2.8978428840637207 -255.90350341796875
v 256 2.9781010150909424 -253.48641967773438
v 255.89266967773438 2.8890330791473389 -256
v 242.40895104408264 2.1846330165863037 -256
v 224 4.4201240539550781 -246.71263122558594
v 227.0603494644165 5.231198787689209 -243.96574401855469
v 256 2.8915660381317139 -256
v 256 3.6154549121856689 -240.71198999881744
v 224 4.9837422370910645 -243.80332899093628
v 224 5.633965015411377 -240.56341600418091
v 224 6.47930383682251 -232.1160888671875
v 227.49116516113281 7.1735668182373047 -235.99502611160278
v 224 6.7587141990661621 -235.809326171875
v 224 6.3955349922180176 -227.80838012695313
v 227.91191101074219 7.0930061340332031 -228.01722717285156
v 224 6.2980380058288574 -226.00143432617188
v 224.29603576660156 6.2419781684875488 -224
v 224 6.1900491714477539 -224
v 235.47003221511841 7.4302010536193848 -236.41720604896545
v 231.89567565917969 6.8340530395507812 -224
v 235.89041090011597 7.2763981819152832 -228.43913269042969
v 228.12226867675781 6.763862133026123 -224
v 243.44128394126892 6.1575469970703125 -236.83401489257813
v 240.8226780295372 7.0726308822631836 -224
v 236.12274193763733 6.8866181373596191 -224
v 244.12200880050659 6.7785940170288086 -224
v 256 4.9253702163696289 -224
v 256 4.8389811515808105 -225.52452087402344
v 256 4.41647481918335 -237.49156188964844
v 256 4.781102180480957 -227.16389465332031
vt 0.0039809998124837875 0.877751000225544
vt 0.1256289929151535 0.95666199922561646
vt 0.1256289929151535 0.87827300280332565
vt 0.041841000318527222 0.95194099843502045
vt 0.00016199999663513154 0.94959200173616409
vt 0.020864000543951988 0.6389009952545166
vt 0.12957499921321869 0.64064499735832214
vt 0.012337000109255314 0.76143200695514679
vt 0.029190000146627426 0.50172099471092224
vt 0.11516699939966202 0.40139800310134888
vt 0.36679598689079285 0.6382330060005188
vt 0.014647999778389931 0.0035799741744995117
vt 0.110446996986866 0.0011240243911743164
vt 0.011832999996840954 0.0068359971046447754
vt 0.019303999841213226 0.40843701362609863
vt 0.28104498982429504 0.96331499889492989
vt 0.36995700001716614 0.87589000165462494
vt 0.011772000230848789 0.0036410093307495117
vt 0.49066099524497986 0.015763998031616211
vt 0.36910998821258545 0.96735300123691559
vt 0.46731498837471008 0.97179700061678886
vt 0.722350001335144 0.98680000007152557
vt 0.61433899402618408 0.87351100146770477
vt 0.61251002550125122 0.9781040009111166
vt 0.85221201181411743 0.99205099977552891
vt 0.85201102495193481 0.87367799878120422
vt 0.90594702959060669 0.9952890002168715
vt 0.96591997146606445 0.98994699958711863
vt 0.96546602249145508 0.99887600005604327
vt 0.61438900232315063 0.63569501042366028
vt 0.97794598340988159 0.76175500452518463
vt 0.85182499885559082 0.62426599860191345
vt 0.97208100557327271 0.87387500703334808
vt 0.60374701023101807 0.3976290225982666
vt 0.98463702201843262 0.47809302806854248
vt 0.99012899398803711 0.636586993932724
vt 0.9850190281867981 0.37955397367477417
vt 0.98411601781845093 0.021924972534179688
vt 0.94545000791549683 0.026746988296508789
vt 0.58928298950195312 0.020219981670379639
vt 0.89665800333023071 0.025852978229522705
vn 0.061967998743057251 0.99346697330474854 0.095833003520965576
vn -0.040585998445749283 0.9965440034866333 -0.072475001215934753
vn -0.0014169999631121755 0.99622499942779541 -0.086800999939441681
vn -0.031335998326539993 0.99441301822662354 0.10080400109291077
vn -0.03133700042963028 0.99441301822662354 0.10080400109291077
vn 0.05636800080537796 0.99616098403930664 -0.066974997520446777
vn 0.054177999496459961 0.98837798833847046 -0.14203600585460663
vn 0.03804900124669075 0.99901598691940308 -0.0227889996021986
vn 0.11802499741315842 0.99098700284957886 -0.063358001410961151
vn 0.048856999725103378 0.99207502603530884 -0.11575999855995178
vn 0.0480789989233017 0.96846997737884521 -0.24444699287414551
vn -0.044530000537633896 0.99814099073410034 -0.041606999933719635
vn -0.052551001310348511 0.99776899814605713 -0.041184000670909882
vn -0.045483000576496124 0.99814200401306152 -0.040545001626014709
vn 0.025523999705910683 0.99897897243499756 -0.037287000566720963
vn -0.058896001428365707 0.97331798076629639 -0.22177499532699585
vn -0.0407009981572628 0.97363400459289551 -0.22445400059223175
vn -0.023547999560832977 0.99761402606964111 -0.064894996583461761
vn 0.07503499835729599 0.97888100147247314 -0.1901639997959137
vn -0.08924499899148941 0.97717398405075073 -0.19278499484062195
vn -0.11812499910593033 0.96812599897384644 -0.22085799276828766
vn -0.16042900085449219 0.98652297258377075 0.032179001718759537
vn -0.081289000809192657 0.99078100919723511 -0.10837599635124207
vn -0.12153299897909164 0.98986399173736572 -0.073477998375892639
vn -0.1735060065984726 0.98414701223373413 0.036747999489307404
vn -0.093457996845245361 0.99450302124023438 0.04720500111579895
vn -0.17253300547599793 0.98357301950454712 0.053070001304149628
vn -0.16258400678634644 0.98472797870635986 0.062270000576972961
vn -0.1725350022315979 0.98357301950454712 0.053070001304149628
vn 0.055950000882148743 0.98902398347854614 -0.13675400614738464
vn -0.016892999410629272 0.99631601572036743 0.084077998995780945
vn 0.027912000194191933 0.99927598237991333 0.025853000581264496
vn -0.075024999678134918 0.99352401494979858 0.08533100038766861
vn 0.12640799582004547 0.9815019965171814 -0.14379000663757324
vn 0.058864999562501907 0.9980739951133728 -0.019589999690651894
vn -0.026318000629544258 0.995701014995575 0.088804997503757477
vn 0.12231600284576416 0.99099701642990112 -0.054443001747131348
vn 0.15391500294208527 0.98650097846984863 -0.055900998413562775
vn 0.14895500242710114 0.98756498098373413 -0.050269000232219696
vn 0.12859100103378296 0.98139601945877075 -0.14256800711154938
vn 0.13544100522994995 0.99016797542572021 -0.03495899960398674
f 1/1/1 2/2/2 3/3/3
f 1/1/1 4/4/4 2/2/2
f 4/4/4 1/1/1 5/5/5
f 6/6/6 3/3/3 7/7/7
f 6/6/6 8/8/8 3/3/3
f 8/8/8 1/1/1 3/3/3
f 9/9/9 7/7/7 10/10/10
f 9/9/9 6/6/6 7/7/7
f 7/7/7 3/3/3 11/11/11
f 12/12/12 10/10/10 13/13/13
f 12/12/12 14/14/14 10/10/10
f 14/14/14 15/15/15 10/10/10
f 9/9/9 10/10/10 15/15/15
f 10/10/10 7/7/7 11/11/11
f 3/3/3 16/16/16 17/17/17
f 3/3/3 2/2/2 16/16/16
f 18/18/18 14/14/14 12/12/12
f 13/13/13 10/10/10 19/19/19
f 20/20/20 21/21/21 17/17/17
f 22/22/22 23/23/23 24/24/24
f 25/25/25 23/23/23 22/22/22
f 25/25/25 26/26/26 23/23/23
f 21/21/21 23/23/23 17/17/17
f 21/21/21 24/24/24 23/23/23
f 27/27/27 26/26/26 25/25/25
f 27/27/27 28/28/28 26/26/26
f 27/27/27 29/29/29 28/28/28
f 23/23/23 26/26/26 30/30/30
f 26/26/26 31/31/31 32/32/32
f 26/26/26 33/33/33 31/31/31
f 33/33/33 26/26/26 28/28/28
f 11/11/11 17/17/17 23/23/23
f 20/20/20 17/17/17 16/16/16
f 26/26/26 32/32/32 30/30/30
f 11/11/11 30/30/30 34/34/34
f 35/35/35 32/32/32 36/36/36
f 32/32/32 34/34/34 30/30/30
f 34/34/34 10/10/10 11/11/11
f 31/31/31 36/36/36 32/32/32
f 32/32/32 37/37/37 34/34/34
f 32/32/32 35/35/35 37/37/37
f 23/23/23 30/30/30 11/11/11
f 38/38/38 34/34/34 37/37/37
f 38/38/38 39/39/39 34/34/34
f 40/40/40 34/34/34 41/41/41
f 41/41/41 34/34/34 39/39/39
f 40/40/40 10/10/10 34/34/34
f 40/40/40 19/19/19 10/10/10
f 11/11/11 3/3/3 17/17/17
