mtllib m300113.mtl
usemtl material0
v 457.1712646484375 4.0637221336364746 -128
v 448.84799194335938 3.9223320484161377 -128
v 457.58468627929688 3.7613170146942139 -120.13838958740234
v 448 3.2877070903778076 -103.63120985031128
v 458.4266357421875 3.6967389583587646 -104.18312072753906
v 448 3.3234250545501709 -109.48619079589844
v 448 3.1818540096282959 -119.63039398193359
v 473.54403686523438 4.587958812713623 -120.98381805419922
v 448 3.7901530265808105 -126.97776794433594
v 448 3.8747859001159668 -128
v 464.65939331054688 4.5773220062255859 -128
v 459.26348876953125 2.6194078922271729 -88.224341869354248
v 448 2.9220631122589111 -98.360404968261719
v 448 3.8155848979949951 -71.63385009765625
v 460.10794067382812 3.0532050132751465 -72.270805358886719
v 448 3.691723108291626 -75.7029800415039
v 448 3.2289409637451172 -87.631500244140625
v 475.21688795089722 2.2761499881744385 -89.065703868865967
v 460.53839111328125 1.8771389722824097 -64
v 448 3.307858943939209 -67.968978881835938
v 452.40386962890625 2.4486169815063477 -64
v 448 3.5460889339447021 -69.6885757446289
v 448 2.9800949096679688 -64
v 467.86074829101562 1.5032620429992676 -64
v 476.05957007408142 2.3559501171112061 -73.1109390258789
v 474.37686204910278 2.7177510261535645 -105.02227020263672
v 473.17575120925903 4.9913530349731445 -128
v 479.85604900121689 4.3391032218933105 -128
v 505.44903564453125 3.5325720310211182 -122.66524505615234
v 489.16534423828125 3.0710370540618896 -128
v 489.48858642578125 2.488800048828125 -121.81906890869141
v 499.52093505859375 3.6948189735412598 -128
v 505.17047119140625 4.1139669418334961 -128
v 490.3253173828125 1.3895729780197144 -105.86021423339844
v 512 3.8121531009674072 -123.76683807373047
v 512 3.7650749683380127 -123.01193237304688
v 510.24969482421875 4.019801139831543 -128
v 512 4.0761451721191406 -128
v 491.16610717773438 1.0959190130233765 -89.9041600227356
v 507.12261962890625 1.3682219982147217 -90.747650146484375
v 492.01138305664062 1.6913340091705322 -73.951187133789062
v 492.5367431640625 1.6978130340576172 -64
v 483.05700707435608 1.0636110305786133 -64
v 503.08065795898438 2.6574759483337402 -64
v 476.53539991378784 1.371595025062561 -64
v 512 1.8999619483947754 -96.167572006583214
v 512 1.8186969757080078 -91.00665283203125
v 512 1.8984769582748413 -86.845268249511719
v 512 1.9077060222625732 -86.363861083984375
v 512 3.0873270034790039 -64
v 508.54251098632812 2.868812084197998 -64
vt 0.13828699290752411 0.029370009899139404
vt 0.012884999625384808 0.03381502628326416
vt 0.14863799512386322 0.14767402410507202
vt 0.013566000387072563 0.40182900428771973
vt 0.17005500197410584 0.38756299018859863
vt 0.010227999649941921 0.31363397836685181
vt 0.0042909998446702957 0.16082197427749634
vt 0.3889009952545166 0.12612402439117432
vt 0.00060400000074878335 0.049751996994018555
vt 9.1000001702923328E-05 0.034299015998840332
vt 0.25134798884391785 0.025125980377197266
vt 0.19159300625324249 0.62803700566291809
vt 0.016390999779105186 0.48142099380493164
vt 0.029319999739527702 0.88369300216436386
vt 0.21178099513053894 0.8680959939956665
vt 0.028132999315857887 0.822954997420311
vt 0.021995000541210175 0.64311599731445312
vt 0.43021100759506226 0.6078769862651825
vt 0.22312599420547485 0.99367799982428551
vt 0.031633000820875168 0.93941599875688553
vt 0.10063400119543076 0.99766299990005791
vt 0.030561000108718872 0.91326999664306641
vt 0.033792000263929367 0.99940899998182431
vt 0.33359101414680481 0.990195999853313
vt 0.44941198825836182 0.84794799983501434
vt 0.41045400500297546 0.36773699522018433
vt 0.37978801131248474 0.020434975624084473
vt 0.48092401027679443 0.017570018768310547
vt 0.87122100591659546 0.083945989608764648
vt 0.62249898910522461 0.013930022716522217
vt 0.63091301918029785 0.10726100206375122
vt 0.77873200178146362 0.0071110129356384277
vt 0.86403900384902954 0.003264009952545166
vt 0.65125399827957153 0.34850502014160156
vt 0.96962600946426392 0.064921021461486816
vt 0.96987897157669067 0.076318979263305664
vt 0.94056898355484009 0.000590980052947998
vt 0.96755498647689819 0.0010210275650024414
vt 0.67084401845932007 0.58860099315643311
vt 0.91316002607345581 0.56624400615692139
vt 0.69316500425338745 0.82854199409484863
vt 0.70584297180175781 0.97821700014173985
vt 0.55932402610778809 0.98317299969494343
vt 0.86535602807998657 0.97312399931252
vt 0.4642300009727478 0.98421999998390675
vt 0.983847975730896 0.48170101642608643
vt 0.98678398132324219 0.55945101380348206
vt 0.9893530011177063 0.62213701009750366
vt 0.98965001106262207 0.62938898801803589
vt 0.999908983707428 0.969072999432683
vt 0.94770902395248413 0.97058000043034554
vn -0.041852999478578568 0.99829798936843872 0.040601000189781189
vn -0.046737000346183777 0.996284008026123 0.072343997657299042
vn -0.049063999205827713 0.99838399887084961 0.028684999793767929
vn -0.037122998386621475 0.99856001138687134 0.038736000657081604
vn -0.00050000002374872565 0.998757004737854 0.049841001629829407
vn -0.044064998626708984 0.99902802705764771 0.0014189999783411622
vn -0.05859399959445 0.99774998426437378 0.032579999417066574
vn 0.046539999544620514 0.9965360164642334 0.068926997482776642
vn -0.05579100176692009 0.99503797292709351 0.0823810026049614
vn -0.05579100176692009 0.99503797292709351 0.0823810026049614
vn -0.053769998252391815 0.99703198671340942 0.055100999772548676
vn 0.032246999442577362 0.99948000907897949 0.00070099998265504837
vn -0.011974000371992588 0.99899798631668091 0.04313499853014946
vn 0.065679997205734253 0.99626398086547852 0.056070998311042786
vn 0.053408998996019363 0.99694901704788208 0.056915998458862305
vn 0.059064000844955444 0.99773097038269043 -0.0323139987885952
vn 0.052232000976800919 0.998062014579773 -0.033808998763561249
vn 0.051851000636816025 0.99864399433135986 0.0046609998680651188
vn 0.059604998677968979 0.9887089729309082 0.13748699426651
vn 0.082711003720760345 0.98903602361679077 0.12234199792146683
vn 0.0810530036687851 0.98894602060317993 0.12416200339794159
vn 0.069421000778675079 0.98815000057220459 0.13689699769020081
vn 0.11941400170326233 0.98947602510452271 0.081712000072002411
vn 0.0410120002925396 0.99071401357650757 0.12962700426578522
vn 0.044984001666307449 0.99778002500534058 0.049109999090433121
vn 0.070828996598720551 0.99479997158050537 0.073190003633499146
vn 0.021855000406503677 0.99817800521850586 0.056242998689413071
vn 0.12449400126934052 0.989234983921051 0.076912000775337219
vn -0.041836000978946686 0.99571502208709717 0.082473002374172211
vn 0.040904000401496887 0.99495697021484375 0.091585002839565277
vn 0.036843001842498779 0.99617600440979 0.079218998551368713
vn -0.063060998916625977 0.99295902252197266 0.100273996591568
vn -0.029010999947786331 0.9935309886932373 0.10979200154542923
vn 0.022345999255776405 0.99821001291275024 0.055475998669862747
vn -0.0321119986474514 0.99754601716995239 0.062210001051425934
vn -0.031923998147249222 0.99733400344848633 0.065619997680187225
vn -0.018594000488519669 0.99706000089645386 0.074330002069473267
vn -0.0321119986474514 0.99754601716995239 0.062210001051425934
vn 0.024004999548196793 0.999688982963562 -0.0066909999586641788
vn -0.051895998418331146 0.99865102767944336 0.0016509999986737967
vn -0.015972999855875969 0.99977701902389526 -0.013814999721944332
vn -0.079102002084255219 0.99686002731323242 0.003527000080794096
vn 0.016612999141216278 0.996828019618988 0.07782900333404541
vn -0.050737001001834869 0.99789297580718994 -0.040445998311042786
vn 0.031564000993967056 0.99389398097991943 0.1057329997420311
vn -0.045616000890731812 0.99734300374984741 0.056797999888658524
vn -0.092027999460697174 0.99575597047805786 -0.0011210000375285745
vn -0.092956997454166412 0.99548697471618652 -0.019084999337792397
vn -0.07100600004196167 0.99652099609375 -0.043634999543428421
vn -0.062986999750137329 0.996628999710083 -0.05256899818778038
vn -0.05123399943113327 0.99726700782775879 -0.053229000419378281
f 1/1/1 2/2/2 3/3/3
f 3/3/3 4/4/4 5/5/5
f 3/3/3 6/6/6 4/4/4
f 6/6/6 3/3/3 7/7/7
f 5/5/5 8/8/8 3/3/3
f 2/2/2 7/7/7 3/3/3
f 2/2/2 9/9/9 7/7/7
f 9/9/9 2/2/2 10/10/10
f 1/1/1 3/3/3 11/11/11
f 4/4/4 12/12/12 5/5/5
f 4/4/4 13/13/13 12/12/12
f 12/12/12 14/14/14 15/15/15
f 12/12/12 16/16/16 14/14/14
f 16/16/16 12/12/12 17/17/17
f 15/15/15 18/18/18 12/12/12
f 19/19/19 20/20/20 21/21/21
f 19/19/19 22/22/22 20/20/20
f 22/22/22 15/15/15 14/14/14
f 22/22/22 19/19/19 15/15/15
f 13/13/13 17/17/17 12/12/12
f 23/23/23 21/21/21 20/20/20
f 15/15/15 24/24/24 25/25/25
f 15/15/15 19/19/19 24/24/24
f 5/5/5 12/12/12 26/26/26
f 27/27/27 8/8/8 28/28/28
f 8/8/8 11/11/11 3/3/3
f 8/8/8 27/27/27 11/11/11
f 29/29/29 30/30/30 31/31/31
f 29/29/29 32/32/32 30/30/30
f 33/33/33 32/32/32 29/29/29
f 29/29/29 31/31/31 34/34/34
f 31/31/31 28/28/28 8/8/8
f 31/31/31 30/30/30 28/28/28
f 35/35/35 29/29/29 36/36/36
f 35/35/35 37/37/37 29/29/29
f 35/35/35 38/38/38 37/37/37
f 37/37/37 33/33/33 29/29/29
f 31/31/31 8/8/8 34/34/34
f 18/18/18 26/26/26 12/12/12
f 26/26/26 18/18/18 34/34/34
f 39/39/39 18/18/18 25/25/25
f 18/18/18 39/39/39 34/34/34
f 34/34/34 39/39/39 40/40/40
f 39/39/39 25/25/25 41/41/41
f 34/34/34 8/8/8 26/26/26
f 25/25/25 18/18/18 15/15/15
f 42/42/42 41/41/41 43/43/43
f 44/44/44 41/41/41 42/42/42
f 25/25/25 43/43/43 41/41/41
f 25/25/25 45/45/45 43/43/43
f 40/40/40 39/39/39 41/41/41
f 45/45/45 25/25/25 24/24/24
f 46/46/46 40/40/40 47/47/47
f 34/34/34 40/40/40 29/29/29
f 48/48/48 40/40/40 49/49/49
f 48/48/48 47/47/47 40/40/40
f 50/50/50 40/40/40 51/51/51
f 50/50/50 49/49/49 40/40/40
f 44/44/44 40/40/40 41/41/41
f 44/44/44 51/51/51 40/40/40
f 40/40/40 36/36/36 29/29/29
f 40/40/40 46/46/46 36/36/36
f 26/26/26 8/8/8 5/5/5
