mtllib m30000123.mtl
usemtl material0
v 80.798346996307373 3.6482911109924316 -64
v 84.7433090209961 3.5952119827270508 -60.45033597946167
v 84.555588006973267 3.5308499336242676 -64
v 80 3.7138729095458984 -64
v 80.754311084747314 3.5526459217071533 -60.239552021026611
v 80.556273937225342 3.6460309028625488 -64
v 80 3.657149076461792 -60.91902494430542
v 85.020142078399658 3.5214910507202148 -64
v 88.7316820025444 3.5108239650726318 -60.660683155059814
v 88.555656015872955 3.5618720054626465 -64
v 89.2433010339737 3.5494949817657471 -64
v 92.720130920410156 3.4420549869537354 -60.871078014373779
v 92.555823802948 3.6131880283355713 -64
v 96 3.6670451164245605 -64
v 93.467072010040283 3.6474969387054443 -64
v 96 3.6137030124664307 -61.720879077911377
v 80 3.6544508934020996 -60.2000470161438
v 80.964844226837158 3.5453720092773438 -56.25076699256897
v 80 3.6707310676574707 -57.119822978973389
v 84.9536669254303 3.5513179302215576 -56.461425989866257
v 88.942077994346619 3.4752299785614014 -56.671799004077911
v 80 3.7667748928070068 -53.321269989013672
v 81.176230907440186 3.710453987121582 -52.26258111000061
v 80 3.6339709758758545 -56.200100004673004
v 85.164673089981079 3.6397409439086914 -52.472973108291626
v 80 3.7765328884124756 -52.200675964355469
v 89.153205990791321 3.5895318984985352 -52.68343710899353
v 85.375602960586548 3.7139999866485596 -48.484469890594482
v 80 3.8708159923553467 -49.522778034210205
v 81.387435913085938 3.83939790725708 -48.274264812469482
v 96 3.5753839015960693 -61.044707775115967
v 96 3.6194369792938232 -57.921612024307251
v 96 3.6057639122009277 -61.580788135528564
v 96 3.6170461177825928 -57.044960021972656
v 92.930702209472656 3.4430820941925049 -56.882323980331421
v 96 3.6272621154785156 -54.122364044189453
v 93.141960144042969 3.5817968845367432 -52.894047021865845
v 96 3.6630051136016846 -53.045231103897095
v 96 3.7303810119628906 -50.323867797851562
v 93.352890014648438 3.6550788879394531 -48.905539989471436
v 89.363868951797485 3.6071500778198242 -48.694736003875732
v 80 3.8927059173583984 -48.201168060302734
v 81.401885986328125 3.833996057510376 -48
v 80 3.8895559310913086 -48.022471904754639
v 80 3.8891599178314209 -48
v 85.401114940643311 3.7016100883483887 -48
v 81.692139148712158 3.8228929042816162 -48
v 88.73880797624588 3.60794997215271 -48
v 89.400390982627869 3.5779058933258057 -48
v 96 3.7029099464416504 -48
v 94.359322071075439 3.6472640037536621 -48
v 96 3.7174279689788818 -48.313407897949219
v 96 3.7513480186462402 -49.045630931854248
v 92.5380859375 3.6085400581359863 -48
v 93.400452136993408 3.6083168983459473 -48
vt 0 0.04989701509475708
vt 0.22185400128364563 0.29645699262619019
vt 0 0.28472399711608887
vt 0 0
vt 0.23502799868583679 0.047143995761871338
vt 0 0.034766972064971924
vt 0.19256100058555603 0
vt 0 0.31375902891159058
vt 0.20870700478553772 0.54572999477386475
vt 0 0.53472900390625
vt 0 0.57770600914955139
vt 0.19555799663066864 0.79500800371170044
vt 0 0.78473900258541107
vt 0 1
vt 0 0.8416920006275177
vt 0.14244499802589417 1
vt 0.2374970018863678 0
vt 0.48432698845863342 0.0603029727935791
vt 0.43001100420951843 0
vt 0.47116100788116455 0.3096039891242981
vt 0.45801299810409546 0.55888000130653381
vt 0.66742098331451416 0
vt 0.73358899354934692 0.073513984680175781
vt 0.48749399185180664 0
vt 0.72043901681900024 0.32279199361801147
vt 0.7374579906463623 0
vt 0.70728498697280884 0.5720750093460083
vt 0.96972101926803589 0.33597499132156372
vt 0.90482598543167114 0
vt 0.98285800218582153 0.0867149829864502
vt 0.18470600247383118 1
vt 0.37989899516105652 1
vt 0.15120099484920502 1
vt 0.434689998626709 1
vt 0.44485500454902649 0.80816900730133057
vt 0.61735200881958008 1
vt 0.69412201642990112 0.82137300074100494
vt 0.684673011302948 1
vt 0.85475802421569824 1
vt 0.94340401887893677 0.83455599844455719
vt 0.95657902956008911 0.58524200320243835
vt 0.9874269962310791 0
vt 1 0.087617993354797363
vt 0.99859499931335449 0
vt 1 0
vt 1 0.33757001161575317
vt 1 0.10575902462005615
vt 1 0.54617500305175781
vt 1 0.58752399682998657
vt 1 1
vt 1 0.89745800197124481
vt 0.98041200637817383 1
vt 0.93464797735214233 1
vt 1 0.78362999856472015
vt 1 0.83752800524234772
vn 0.00918199960142374 0.99994701147079468 0.004747999832034111
vn 0.011718000285327435 0.99992501735687256 0.0034360000863671303
vn 0.025227999314665794 0.99949198961257935 -0.019456999376416206
vn 0.12104000151157379 0.99247997999191284 0.018271999433636665
vn 0.01231400016695261 0.99984902143478394 0.012265999801456928
vn 0.081854000687599182 0.99643498659133911 0.020433999598026276
vn 0.12348700314760208 0.99222499132156372 0.015515999868512154
vn -0.00775500014424324 0.99989998340606689 0.011812999844551086
vn 0.014503000304102898 0.99988299608230591 0.0047920001670718193
vn -0.0066300001926720142 0.99985599517822266 0.015634000301361084
vn 0.0030839999672025442 0.99951797723770142 0.030895000323653221
vn -0.012064999900758266 0.999809980392456 0.015324000269174576
vn -0.029861999675631523 0.99797600507736206 0.056150998920202255
vn -0.0077149998396635056 0.99969601631164551 0.023398000746965408
vn -0.016899999231100082 0.99929201602935791 0.033599000424146652
vn -0.0094480002298951149 0.99963498115539551 0.025321999564766884
vn 0.13351899385452271 0.99103599786758423 -0.0044940002262592316
vn 0.027741000056266785 0.99938702583312988 -0.0213639996945858
vn 0.12434100359678268 0.99222701787948608 0.0050800000317394733
vn 0.0046700001694262028 0.99997997283935547 -0.0043469998054206371
vn 0.014611000195145607 0.99986100196838379 -0.00803999975323677
vn 0.08385399729013443 0.9956669807434082 -0.040196001529693604
vn 0.030858000740408897 0.99898499250411987 -0.032825998961925507
vn 0.090103000402450562 0.99561399221420288 -0.025172999128699303
vn 0.013782000169157982 0.99963998794555664 -0.023012999445199966
vn 0.054634999483823776 0.99813199043273926 -0.027339000254869461
vn 0.0031240000389516354 0.99979400634765625 -0.020044999197125435
vn 0.024646999314427376 0.99951797723770142 -0.018895000219345093
vn 0.051233001053333282 0.99817997217178345 -0.031814999878406525
vn 0.035585001111030579 0.99903899431228638 -0.025591000914573669
vn -0.039322998374700546 0.99893200397491455 0.024251999333500862
vn -0.050363998860120773 0.99872297048568726 -0.0040569999255239964
vn -0.0375639982521534 0.99769300222396851 0.056540001183748245
vn -0.056696001440286636 0.99838900566101074 -0.002056000055745244
vn -0.0177449993789196 0.99970102310180664 -0.016798000782728195
vn -0.040228001773357391 0.99895000457763672 -0.021926999092102051
vn -0.016277000308036804 0.99952501058578491 -0.02616100013256073
vn -0.029826000332832336 0.99918699264526367 -0.027124999091029167
vn -0.034554999321699142 0.99921602010726929 -0.019339999184012413
vn -0.016364999115467072 0.99986499547958374 -0.0011129999766126275
vn 0.0089320000261068344 0.99994802474975586 -0.0048279999755322933
vn 0.037981998175382614 0.99924802780151367 -0.0077929999679327011
vn 0.039195999503135681 0.99907600879669189 0.017613999545574188
vn 0.039312999695539474 0.99907201528549194 0.017611000686883926
vn 0.039312999695539474 0.99907201528549194 0.017605999484658241
vn 0.031035000458359718 0.99923199415206909 0.023919999599456787
vn 0.033075999468564987 0.99917900562286377 0.023383000865578651
vn 0.029729999601840973 0.9992300271987915 0.025598000735044479
vn -0.00558699993416667 0.99908697605133057 0.042350001633167267
vn -0.033860001713037491 0.99835598468780518 0.046248000115156174
vn -0.0363209992647171 0.99813902378082275 0.048980999737977982
vn -0.033860001713037491 0.99835598468780518 0.046248000115156174
vn -0.036003001034259796 0.999330997467041 0.0064389999024569988
vn -0.0075949998572468758 0.99897998571395874 0.044507000595331192
vn -0.021228000521659851 0.998386025428772 0.052671000361442566
f 1/1/1 2/2/2 3/3/3
f 4/4/4 5/5/5 6/6/6
f 4/4/4 7/7/7 5/5/5
f 8/8/8 9/9/9 10/10/10
f 11/11/11 12/12/12 13/13/13
f 14/14/14 15/15/15 16/16/16
f 17/17/17 18/18/18 5/5/5
f 17/17/17 19/19/19 18/18/18
f 7/7/7 17/17/17 5/5/5
f 1/1/1 5/5/5 2/2/2
f 1/1/1 6/6/6 5/5/5
f 5/5/5 20/20/20 2/2/2
f 2/2/2 21/21/21 9/9/9
f 3/3/3 9/9/9 8/8/8
f 3/3/3 2/2/2 9/9/9
f 18/18/18 22/22/22 23/23/23
f 18/18/18 24/24/24 22/22/22
f 24/24/24 18/18/18 19/19/19
f 18/18/18 20/20/20 5/5/5
f 20/20/20 18/18/18 25/25/25
f 25/25/25 18/18/18 23/23/23
f 26/26/26 23/23/23 22/22/22
f 21/21/21 25/25/25 27/27/27
f 25/25/25 23/23/23 28/28/28
f 21/21/21 20/20/20 25/25/25
f 23/23/23 29/29/29 30/30/30
f 23/23/23 26/26/26 29/29/29
f 2/2/2 20/20/20 21/21/21
f 12/12/12 9/9/9 21/21/21
f 31/31/31 12/12/12 32/32/32
f 11/11/11 9/9/9 12/12/12
f 11/11/11 10/10/10 9/9/9
f 31/31/31 13/13/13 12/12/12
f 31/31/31 33/33/33 13/13/13
f 33/33/33 15/15/15 13/13/13
f 33/33/33 16/16/16 15/15/15
f 34/34/34 35/35/35 36/36/36
f 32/32/32 35/35/35 34/34/34
f 32/32/32 12/12/12 35/35/35
f 27/27/27 35/35/35 21/21/21
f 35/35/35 27/27/27 37/37/37
f 38/38/38 37/37/37 39/39/39
f 36/36/36 37/37/37 38/38/38
f 36/36/36 35/35/35 37/37/37
f 37/37/37 27/27/27 40/40/40
f 21/21/21 35/35/35 12/12/12
f 27/27/27 25/25/25 41/41/41
f 42/42/42 43/43/43 30/30/30
f 42/42/42 44/44/44 43/43/43
f 44/44/44 45/45/45 43/43/43
f 29/29/29 42/42/42 30/30/30
f 23/23/23 30/30/30 28/28/28
f 30/30/30 46/46/46 28/28/28
f 30/30/30 47/47/47 46/46/46
f 28/28/28 48/48/48 41/41/41
f 28/28/28 46/46/46 48/48/48
f 28/28/28 41/41/41 25/25/25
f 43/43/43 47/47/47 30/30/30
f 49/49/49 41/41/41 48/48/48
f 50/50/50 40/40/40 51/51/51
f 50/50/50 52/52/52 40/40/40
f 52/52/52 53/53/53 40/40/40
f 40/40/40 27/27/27 41/41/41
f 40/40/40 39/39/39 37/37/37
f 40/40/40 53/53/53 39/39/39
f 54/54/54 55/55/55 40/40/40
f 51/51/51 40/40/40 55/55/55
f 49/49/49 40/40/40 41/41/41
f 49/49/49 54/54/54 40/40/40
