mtllib m300000312.mtl
usemtl material0
v 48 3.3746979236602783 -47.914474010467529
v 48 3.4599330425262451 -46.509955883026123
v 49.475219964981079 3.4498670101165771 -46.587830066680908
v 48 3.3685400485992432 -48
v 49.400154113769531 3.3492200374603271 -48
v 50.016296029090881 3.363286018371582 -48
v 51.4697989821434 3.4880149364471436 -46.693279027938843
v 51.400249004364014 3.3766379356384277 -48
v 52.12797500193119 3.3891680240631104 -48
v 53.46432101726532 3.5134680271148682 -46.798682928085327
v 53.400424957275391 3.4201970100402832 -48
v 48 3.5558719635009766 -44.510326027870178
v 49.581176996231079 3.5861139297485352 -44.593918025493622
v 48 3.5264921188354492 -44.948001980781555
v 48 3.6101889610290527 -42.836433053016663
v 51.575848013162613 3.6428170204162598 -44.699432015419006
v 53.570152044296265 3.6248118877410889 -44.804687976837158
v 51.681412011384964 3.6989860534667969 -42.705245971679688
v 54.545017004013062 3.4408419132232666 -48
v 49.686886072158813 3.6725559234619141 -42.599838018417358
v 48 3.6295568943023682 -42.217517971992493
v 49.792381048202515 3.7150518894195557 -40.605606079101562
v 48 3.6237759590148926 -42.510601043701172
v 53.675734996795654 3.6853759288787842 -42.810520052909851
v 55.564456939697266 3.6063179969787598 -44.909942984580994
v 51.786902993917465 3.7414820194244385 -40.711014032363892
v 48 3.6764180660247803 -40
v 48.353748083114624 3.6800711154937744 -40
v 48 3.6733949184417725 -40.3182110786438
v 48 3.6741890907287598 -40.510822057724
v 49.824341058731079 3.7132771015167236 -40
v 48 3.6739389896392822 -40.450222015380859
v 51.824432000517845 3.7400939464569092 -40
v 51.147181987762451 3.7305529117584229 -40
v 53.781329989433289 3.7478909492492676 -40.816356897354126
v 53.046844005584717 3.7438859939575195 -40
v 55.458674907684326 3.50571608543396 -46.903975963592529
v 56 3.468393087387085 -47.568599939346313
v 56 3.5062620639801025 -46.93256402015686
v 55.400477886199951 3.4402179718017578 -48
v 56 3.4427080154418945 -48
v 56 3.5463809967041016 -46.41727089881897
v 55.67009711265564 3.6786000728607178 -42.915812969207764
v 56 3.6405549049377441 -44.518360018730164
v 56 3.6939530372619629 -42.933284997940063
v 56 3.6188058853149414 -44.932982981204987
v 56 3.6964828968048096 -42.619143962860107
v 55.824448108673096 3.7613129615783691 -40
v 54.688823938369751 3.7616400718688965 -40
v 55.775711059570312 3.7455101013183594 -40.921664953231812
v 56 3.7507870197296143 -40.933525085449219
v 56 3.7655909061431885 -40
v 56 3.7540380954742432 -40.72855806350708
v 53.824478030204773 3.7578909397125244 -40
vt 0.010691000148653984 0
vt 0.18625499308109283 0
vt 0.17652100324630737 0.1844019889831543
vt 0 0
vt 0 0.17501902580261231
vt 0 0.252036988735199
vt 0.1633400022983551 0.43372499942779541
vt 0 0.42503100633621216
vt 0 0.51599699258804321
vt 0.15016500651836395 0.68303999304771423
vt 0 0.67505300045013428
vt 0.43620899319648743 0
vt 0.42576000094413757 0.19764697551727295
vt 0.3815000057220459 0
vt 0.64544600248336792 0
vt 0.4125710129737854 0.44698101282119751
vt 0.39941400289535522 0.69626900553703308
vt 0.66184401512146 0.46017599105834961
vt 0 0.81812700629234314
vt 0.67501997947692871 0.21086102724075317
vt 0.72280997037887573 0
vt 0.92429900169372559 0.22404801845550537
vt 0.68617498874664307 0
vt 0.64868497848510742 0.70946699380874634
vt 0.38625699281692505 0.94555699825286865
vt 0.91112297773361206 0.47336298227310181
vt 1 0
vt 1 0.044219017028808594
vt 0.9602239727973938 0
vt 0.93614697456359863 0
vt 1 0.22804301977157593
vt 0.94372200965881348 0
vt 1 0.4780539870262146
vt 1 0.3933979868888855
vt 0.89795500040054321 0.72266599535942078
vt 1 0.63085600733757019
vt 0.13700300455093384 0.93233399838209152
vt 0.053925000131130219 1
vt 0.13343000411987305 1
vt 0 0.92505999654531479
vt 0 1
vt 0.19784100353717804 1
vt 0.63552302122116089 0.95876200124621391
vt 0.43520501255989075 1
vt 0.633338987827301 1
vt 0.38337698578834534 1
vt 0.67260700464248657 1
vt 1 0.97805600054562092
vt 1 0.83610300719738007
vt 0.88479197025299072 0.97196399979293346
vt 0.883309006690979 1
vt 1 1
vt 0.90893000364303589 1
vt 1 0.72806000709533691
vn 0.0041959998197853565 0.99811500310897827 -0.061220001429319382
vn 0.0041169999167323112 0.99868500232696533 -0.051102999597787857
vn -0.011846000328660011 0.99786299467086792 -0.064255997538566589
vn 0.013760999776422977 0.99732297658920288 -0.071811996400356293
vn 0.0025989999994635582 0.99745702743530273 -0.071227997541427612
vn -0.018391000106930733 0.99703598022460938 -0.074712000787258148
vn -0.021469999104738235 0.996940016746521 -0.075161002576351166
vn -0.014578999951481819 0.99634701013565063 -0.084146000444889069
vn -0.021703999489545822 0.99664002656936646 -0.078978002071380615
vn -0.007348999846726656 0.99768602848052979 -0.067590996623039246
vn -0.02131200022995472 0.99686002731323242 -0.076263003051280975
vn -0.021887000650167465 0.99836397171020508 -0.052818998694419861
vn -0.025242000818252563 0.99838697910308838 -0.050849001854658127
vn -0.0013889999827370048 0.99884998798370361 -0.047922998666763306
vn -0.022498000413179398 0.99917101860046387 -0.0339290015399456
vn -0.01308399997651577 0.998524010181427 -0.052715998142957687
vn 0.0056560002267360687 0.99909698963165283 -0.042100999504327774
vn -0.0068740001879632473 0.9995729923248291 -0.028402000665664673
vn -0.0099860001355409622 0.9975469708442688 -0.069289997220039368
vn -0.020674999803304672 0.99937599897384644 -0.028629999607801437
vn -0.0274020005017519 0.99936997890472412 -0.022536000236868858
vn -0.02144400030374527 0.99962097406387329 -0.017264999449253082
vn -0.030952999368309975 0.998753011226654 -0.03917200118303299
vn 0.0028150000143796206 0.99953699111938477 -0.03030100092291832
vn -0.0024069999344646931 0.999189019203186 -0.040197998285293579
vn -0.0075139999389648438 0.99980801343917847 -0.018090000376105309
vn -0.010325999930500984 0.99990200996398926 -0.0094999996945261955
vn -0.020896000787615776 0.99977898597717285 0.0022539999336004257
vn -0.013918000273406506 0.999888002872467 -0.0055060000158846378
vn -0.023719999939203262 0.99956297874450684 -0.017619000747799873
vn -0.017472000792622566 0.99984002113342285 0.0038519999943673611
vn -0.022574000060558319 0.999737024307251 0.0041209999471902847
vn -0.0049250000156462193 0.9999849796295166 0.0022120000794529915
vn -0.013407000340521336 0.999904990196228 0.00330700003542006
vn -0.0019420000026002526 0.99971401691436768 -0.02384600043296814
vn -0.0088980002328753471 0.99995601177215576 -0.0031000000890344381
vn -0.00047999998787418008 0.99848300218582153 -0.055057000368833542
vn -0.0041459999047219753 0.99822402000427246 -0.059432998299598694
vn -0.0045750001445412636 0.99770301580429077 -0.067581996321678162
vn -0.0003279999946244061 0.99822002649307251 -0.059636000543832779
vn -0.0041459999047219753 0.99822402000427246 -0.059432998299598694
vn -0.027471000328660011 0.99822402000427246 -0.052850000560283661
vn -0.0053639998659491539 0.99942499399185181 -0.033477999269962311
vn -0.046250998973846436 0.9982870221138 -0.035840000957250595
vn -0.048020999878644943 0.99841398000717163 -0.029401000589132309
vn -0.031241999939084053 0.99828499555587769 -0.049509000033140182
vn -0.027242999523878098 0.99918097257614136 -0.029931999742984772
vn -0.0010730000212788582 0.99985301494598389 -0.017086999490857124
vn -0.0017109999898821116 0.99988698959350586 -0.014937999658286572
vn -0.005016000010073185 0.99958902597427368 -0.028234999626874924
vn -0.02511800080537796 0.99922198057174683 -0.0304189994931221
vn -0.024359000846743584 0.99957799911499023 -0.01585100032389164
vn -0.024359000846743584 0.99957799911499023 -0.01585100032389164
vn -0.010811000131070614 0.99987298250198364 -0.011676999740302563
f 1/1/1 2/2/2 3/3/3
f 4/4/4 3/3/3 5/5/5
f 4/4/4 1/1/1 3/3/3
f 6/6/6 7/7/7 8/8/8
f 9/9/9 10/10/10 11/11/11
f 3/3/3 12/12/12 13/13/13
f 3/3/3 14/14/14 12/12/12
f 14/14/14 3/3/3 2/2/2
f 3/3/3 13/13/13 7/7/7
f 15/15/15 13/13/13 12/12/12
f 10/10/10 7/7/7 16/16/16
f 8/8/8 10/10/10 9/9/9
f 8/8/8 7/7/7 10/10/10
f 10/10/10 16/16/16 17/17/17
f 16/16/16 7/7/7 13/13/13
f 6/6/6 3/3/3 7/7/7
f 6/6/6 5/5/5 3/3/3
f 16/16/16 13/13/13 18/18/18
f 19/19/19 11/11/11 10/10/10
f 20/20/20 21/21/21 22/22/22
f 20/20/20 23/23/23 21/21/21
f 13/13/13 23/23/23 20/20/20
f 13/13/13 15/15/15 23/23/23
f 17/17/17 18/18/18 24/24/24
f 20/20/20 18/18/18 13/13/13
f 17/17/17 24/24/24 25/25/25
f 24/24/24 18/18/18 26/26/26
f 18/18/18 20/20/20 26/26/26
f 27/27/27 28/28/28 29/29/29
f 30/30/30 22/22/22 21/21/21
f 30/30/30 31/31/31 22/22/22
f 30/30/30 32/32/32 31/31/31
f 32/32/32 28/28/28 31/31/31
f 32/32/32 29/29/29 28/28/28
f 33/33/33 26/26/26 34/34/34
f 31/31/31 26/26/26 22/22/22
f 31/31/31 34/34/34 26/26/26
f 33/33/33 35/35/35 26/26/26
f 33/33/33 36/36/36 35/35/35
f 20/20/20 22/22/22 26/26/26
f 24/24/24 26/26/26 35/35/35
f 18/18/18 17/17/17 16/16/16
f 37/37/37 10/10/10 17/17/17
f 17/17/17 25/25/25 37/37/37
f 38/38/38 37/37/37 39/39/39
f 38/38/38 40/40/40 37/37/37
f 38/38/38 41/41/41 40/40/40
f 39/39/39 37/37/37 42/42/42
f 35/35/35 43/43/43 24/24/24
f 44/44/44 43/43/43 45/45/45
f 44/44/44 25/25/25 43/43/43
f 25/25/25 42/42/42 37/37/37
f 25/25/25 46/46/46 42/42/42
f 44/44/44 46/46/46 25/25/25
f 45/45/45 43/43/43 47/47/47
f 24/24/24 43/43/43 25/25/25
f 48/48/48 35/35/35 49/49/49
f 48/48/48 50/50/50 35/35/35
f 43/43/43 35/35/35 50/50/50
f 50/50/50 47/47/47 43/43/43
f 50/50/50 51/51/51 47/47/47
f 52/52/52 50/50/50 48/48/48
f 52/52/52 53/53/53 50/50/50
f 53/53/53 51/51/51 50/50/50
f 54/54/54 49/49/49 35/35/35
f 54/54/54 35/35/35 36/36/36
f 40/40/40 10/10/10 37/37/37
f 40/40/40 19/19/19 10/10/10
