mtllib m300000231.mtl
usemtl material0
v 24 2.498939037322998 -53.239269018173218
v 24 2.470473051071167 -52.057133000344038
v 25.116467952728271 2.4557869434356689 -53.298092007637024
v 24 2.4725320339202881 -51.239246010780334
v 24 2.4492599964141846 -49.945774078369141
v 25.221772909164429 2.4597170352935791 -51.303726017475128
v 24 2.495448112487793 -54.168483972549438
v 25.011168003082275 2.4523448944091797 -55.292458057403564
v 24 2.4891970157623291 -55.239177942276
v 24 2.41888689994812 -48
v 24.148957967758179 2.4191250801086426 -48
v 24 2.4235820770263672 -48.219681024551392
v 25.327004909515381 2.4489970207214355 -49.309310913085938
v 24 2.44537091255188 -49.239223003387451
v 27.00518000125885 2.3752748966217041 -55.397511005401611
v 27.216229975223541 2.4729769229888916 -51.409088015556335
v 25.396087884902954 2.4416379928588867 -48
v 27.321681976318359 2.50669002532959 -49.414829015731812
v 26.048670053482056 2.4602670669555664 -48
v 27.110711991786957 2.425590991973877 -53.403305053710938
v 24 2.491628885269165 -56
v 24.973833084106445 2.4559729099273682 -56
v 24 2.4911789894104004 -55.858936071395874
v 25.647684097290039 2.4182980060577393 -56
v 26.973337054252625 2.3680388927459717 -56
v 28.973115980625153 2.3340120315551758 -56
v 28.999462008476257 2.3528900146484375 -55.502749919891357
v 27.547194004058838 2.34712290763855 -56
v 30.973031997680664 2.3267738819122314 -56
v 30.993804931640625 2.3427109718322754 -55.608031988143921
v 29.446802020072937 2.33127498626709 -56
v 31.346441030502319 2.3326930999755859 -56
v 31.09970498085022 2.4677329063415527 -53.614086031913757
v 32 2.3649160861968994 -55.661240100860596
v 32 2.354201078414917 -55.885962963104248
v 32 2.3487639427185059 -56
v 32 2.4461278915405273 -54.7035870552063
v 29.210886001586914 2.5262749195098877 -51.514591008424759
v 29.105152010917664 2.4349439144134521 -53.508656024932861
v 32 2.5087540149688721 -53.661757946014404
v 31.205615997314453 2.59470796585083 -51.620148003101349
v 32 2.5795340538024902 -52.503117024898529
v 29.316588997840881 2.6112570762634277 -49.520508050918579
v 31.311501026153564 2.7167980670928955 -49.626189947128296
v 32 2.6345961093902588 -51.6622239947319
v 32 2.7088079452514648 -50.391456961631775
v 31.397736072540283 2.7924718856811523 -48
v 31.008019924163818 2.770953893661499 -48
v 27.948472999036312 2.551469087600708 -48
v 27.396452009677887 2.5222930908203125 -48
v 32 2.7506959438323975 -49.662655115127563
v 32 2.7818090915679932 -49.089660882949829
v 32 2.7862811088562012 -49.007301092147827
v 29.397070050239563 2.6525969505310059 -48
v 32 2.8298408985137939 -48
vt 0.34509098529815674 0
vt 0.49285799264907837 0
vt 0.33773899078369141 0.13955897092819214
vt 0.59509402513504028 0
vt 0.75677800178527832 0
vt 0.58703398704528809 0.15272200107574463
vt 0.22893999516963959 0
vt 0.088443003594875336 0.12639600038528442
vt 0.095103003084659576 0
vt 1 0
vt 1 0.018620014190673828
vt 0.972540020942688 0
vt 0.83633601665496826 0.16587597131729126
vt 0.845097005367279 0
vt 0.075310997664928436 0.37564802169799805
vt 0.57386398315429688 0.40202897787094116
vt 1 0.17451101541519165
vt 0.82314598560333252 0.41521000862121582
vt 1 0.25608402490615845
vt 0.32458698749542236 0.3888390064239502
vt 0 0
vt 0 0.12172901630401611
vt 0.017633000388741493 0
vt 0 0.20596098899841309
vt 0 0.37166702747344971
vt 0 0.62163901329040527
vt 0.06215599924325943 0.62493300437927246
vt 0 0.44339901208877563
vt 0 0.871628999710083
vt 0.048996001482009888 0.87422600388526916
vt 0 0.68084999918937683
vt 0 0.91830500215291977
vt 0.29823899269104004 0.88746300339698792
vt 0.042344998568296432 1
vt 0.014255000278353691 1
vt 0 1
vt 0.16205200552940369 1
vt 0.5606759786605835 0.65136098861694336
vt 0.31141799688339233 0.63814398646354675
vt 0.292279988527298 1
vt 0.54748201370239258 0.90070199966430664
vt 0.43711000680923462 1
vt 0.8099370002746582 0.66457399725914
vt 0.79672598838806152 0.9139380007982254
vt 0.54222202301025391 1
vt 0.70106798410415649 1
vt 1 0.9247170016169548
vt 1 0.87600299715995789
vt 1 0.49355900287628174
vt 1 0.42455601692199707
vt 0.7921680212020874 1
vt 0.86379200220108032 1
vt 0.87408697605133057 1
vt 1 0.67463400959968567
vt 1 1
vn 0.0392410010099411 0.99915999174118042 0.011819000355899334
vn 0.018696000799536705 0.9998130202293396 0.0049879997968673706
vn 0.024823000654578209 0.99967300891876221 -0.0061420002020895481
vn 0.011017999611794949 0.99988901615142822 0.01004599966108799
vn 0.0018609999679028988 0.9999539852142334 0.00937500037252903
vn 0.0025460000615566969 0.99999397993087769 -0.0024210000410676003
vn 0.037836000323295593 0.99927502870559692 -0.0042829997837543488
vn 0.038653001189231873 0.99924498796463013 -0.0040460000745952129
vn 0.036288000643253326 0.99933797121047974 -0.0025239998940378428
vn -0.0015989999519661069 0.99976998567581177 0.021368000656366348
vn -0.014272999949753285 0.99984800815582275 0.0099689997732639313
vn -0.0016029999824240804 0.99976998567581177 0.021367000415921211
vn -0.014790000393986702 0.99988698959350586 0.00279000005684793
vn -0.0019470000406727195 0.99988698959350586 0.014875000342726708
vn 0.02197599969804287 0.9995570182800293 -0.020066000521183014
vn -0.019874000921845436 0.99970299005508423 -0.014135999605059624
vn -0.025226999074220657 0.99965798854827881 0.0069499998353421688
vn -0.039271000772714615 0.99912601709365845 -0.014340000227093697
vn -0.040286999195814133 0.99918198585510254 -0.003464000066742301
vn -0.0015829999465495348 0.99964499473571777 -0.026606999337673187
vn 0.036589998751878738 0.9993249773979187 0.0031920000910758972
vn 0.044461000710725784 0.999006986618042 0.0027759999502450228
vn 0.036589998751878738 0.9993249773979187 0.003194000106304884
vn 0.041150998324155807 0.9990919828414917 -0.011056000366806984
vn 0.037439998239278793 0.99920099973678589 -0.01397900003939867
vn 0.00880299974232912 0.99922400712966919 -0.038403000682592392
vn -0.0021230001002550125 0.99911701679229736 -0.041949000209569931
vn 0.017004000023007393 0.99936199188232422 -0.031399000436067581
vn 0.001319000031799078 0.99917101860046387 -0.040695998817682266
vn -0.014763999730348587 0.99800199270248413 -0.061425000429153442
vn 0.003616000059992075 0.99918597936630249 -0.04018000140786171
vn -0.022839000448584557 0.99867701530456543 -0.046071000397205353
vn -0.022373000159859657 0.99814802408218384 -0.056572999805212021
vn -0.025787999853491783 0.9971039891242981 -0.071543000638484955
vn -0.024553999304771423 0.99856400489807129 -0.04761200025677681
vn -0.024553999304771423 0.99856400489807129 -0.047609999775886536
vn -0.043003000319004059 0.996882975101471 -0.066146001219749451
vn -0.031654998660087585 0.99890202283859253 -0.034533001482486725
vn -0.017752999439835548 0.99875998497009277 -0.046514999121427536
vn -0.0486380010843277 0.99697297811508179 -0.060653999447822571
vn -0.04037100076675415 0.99775201082229614 -0.053486999124288559
vn -0.050687000155448914 0.99674302339553833 -0.062730997800827026
vn -0.0549050010740757 0.997825026512146 -0.036465000361204147
vn -0.055617000907659531 0.99709397554397583 -0.0520550012588501
vn -0.053215000778436661 0.99679601192474365 -0.059718001633882523
vn -0.052769001573324203 0.99692797660827637 -0.057884000241756439
vn -0.0564580000936985 0.9974600076675415 -0.043421998620033264
vn -0.069718003273010254 0.9971960186958313 -0.027179000899195671
vn -0.05910399928689003 0.99815499782562256 -0.013931999914348126
vn -0.04794900119304657 0.99881398677825928 -0.008480999618768692
vn -0.052051998674869537 0.997078001499176 -0.055913001298904419
vn -0.051963001489639282 0.99717998504638672 -0.054145999252796173
vn -0.061122998595237732 0.99716198444366455 -0.043954998254776
vn -0.071534000337123871 0.9971650242805481 -0.023324999958276749
vn -0.0618709996342659 0.99715197086334229 -0.04312099888920784
f 1/1/1 2/2/2 3/3/3
f 4/4/4 5/5/5 6/6/6
f 7/7/7 8/8/8 9/9/9
f 10/10/10 11/11/11 12/12/12
f 12/12/12 13/13/13 14/14/14
f 12/12/12 11/11/11 13/13/13
f 7/7/7 3/3/3 8/8/8
f 7/7/7 1/1/1 3/3/3
f 3/3/3 15/15/15 8/8/8
f 5/5/5 13/13/13 6/6/6
f 5/5/5 14/14/14 13/13/13
f 13/13/13 16/16/16 6/6/6
f 17/17/17 18/18/18 13/13/13
f 17/17/17 19/19/19 18/18/18
f 11/11/11 17/17/17 13/13/13
f 3/3/3 6/6/6 20/20/20
f 2/2/2 6/6/6 3/3/3
f 2/2/2 4/4/4 6/6/6
f 21/21/21 8/8/8 22/22/22
f 21/21/21 23/23/23 8/8/8
f 23/23/23 9/9/9 8/8/8
f 22/22/22 8/8/8 24/24/24
f 24/24/24 15/15/15 25/25/25
f 24/24/24 8/8/8 15/15/15
f 26/26/26 15/15/15 27/27/27
f 26/26/26 28/28/28 15/15/15
f 25/25/25 15/15/15 28/28/28
f 29/29/29 27/27/27 30/30/30
f 29/29/29 31/31/31 27/27/27
f 26/26/26 27/27/27 31/31/31
f 29/29/29 30/30/30 32/32/32
f 30/30/30 27/27/27 33/33/33
f 27/27/27 15/15/15 20/20/20
f 3/3/3 20/20/20 15/15/15
f 34/34/34 32/32/32 30/30/30
f 34/34/34 35/35/35 32/32/32
f 35/35/35 36/36/36 32/32/32
f 34/34/34 30/30/30 37/37/37
f 13/13/13 18/18/18 16/16/16
f 16/16/16 38/38/38 20/20/20
f 20/20/20 38/38/38 39/39/39
f 27/27/27 39/39/39 33/33/33
f 37/37/37 33/33/33 40/40/40
f 37/37/37 30/30/30 33/33/33
f 39/39/39 41/41/41 33/33/33
f 39/39/39 27/27/27 20/20/20
f 40/40/40 41/41/41 42/42/42
f 40/40/40 33/33/33 41/41/41
f 38/38/38 18/18/18 43/43/43
f 18/18/18 38/38/38 16/16/16
f 41/41/41 43/43/43 44/44/44
f 43/43/43 41/41/41 38/38/38
f 44/44/44 45/45/45 41/41/41
f 44/44/44 46/46/46 45/45/45
f 47/47/47 43/43/43 48/48/48
f 47/47/47 44/44/44 43/43/43
f 39/39/39 38/38/38 41/41/41
f 49/49/49 18/18/18 50/50/50
f 49/49/49 43/43/43 18/18/18
f 42/42/42 41/41/41 45/45/45
f 19/19/19 50/50/50 18/18/18
f 51/51/51 46/46/46 44/44/44
f 52/52/52 44/44/44 53/53/53
f 52/52/52 51/51/51 44/44/44
f 6/6/6 16/16/16 20/20/20
f 48/48/48 43/43/43 54/54/54
f 55/55/55 44/44/44 47/47/47
f 55/55/55 53/53/53 44/44/44
f 54/54/54 43/43/43 49/49/49
