mtllib m30000213.mtl
usemtl material0
v 48 3.5573019981384277 -96
v 48 3.5233190059661865 -95.621634960174561
v 48.340529918670654 3.5868549346923828 -96
v 50.938521862030029 3.7255520820617676 -94.6645278930664
v 50.86854887008667 3.8283200263977051 -96
v 48 3.4320828914642334 -94.5084080696106
v 54.869971990585327 4.1252889633178711 -96
v 54.928622961044312 3.9917809963226318 -94.876082897186279
v 55.940200999379158 4.205045223236084 -96
v 53.679503917694092 4.0039172172546387 -96
v 48 3.0259819030761719 -90.5072250366211
v 51.146823883056641 3.2652039527893066 -90.674170970916748
v 48 3.1321799755096436 -91.399620056152344
v 55.136913001537323 3.52947998046875 -90.885719060897827
v 58.918498992919922 4.2121071815490723 -95.087485790252686
v 55.345031976699829 3.0320179462432861 -86.895241022109985
v 48 2.9442501068115234 -89.703490972518921
v 51.355469226837158 2.8741860389709473 -86.684059023857117
v 62.872169017791748 4.5907649993896484 -96
v 62.130257129669189 4.565399169921875 -96
v 62.908774852752686 4.514458179473877 -95.299170970916748
v 59.127074956893921 3.8079099655151367 -91.097327947616577
v 58.8709979057312 4.3440508842468262 -96
v 63.116833209991455 4.0047950744628906 -91.30864691734314
v 64 4.15703821182251 -92.289955139160156
v 64 4.0426478385925293 -91.355400085449219
v 64 4.5533509254455566 -95.356917858123779
v 64 3.9673459529876709 -90.5137710571289
v 64 4.5714859962463379 -95.521125793457031
v 64 4.6243720054626465 -96
v 63.325394153594971 3.5971748828887939 -87.3184739947319
v 59.335490942001343 3.3714830875396729 -87.107056021690369
v 48 2.7135169506073 -86.506348013877869
v 48 2.5014228820800781 -82.955284118652344
v 51.564266204833984 2.5144119262695312 -82.6940541267395
v 55.554127007722855 2.7327899932861328 -82.905448913574219
v 48 2.4606389999389648 -82.505661010742188
v 51.706684112548828 2.5527219772338867 -80
v 48 2.4660539627075195 -82.1010971069336
v 50.3359260559082 2.5310719013214111 -80
v 48 2.46435809135437 -82.227875232696533
v 48 2.5001189708709717 -80
v 52.939879894256592 2.6209568977355957 -80
v 55.707684010267258 2.7666370868682861 -80
v 59.544127941131592 2.9789950847625732 -83.116936206817627
v 56.739535987377167 2.8307650089263916 -80
v 64 3.2415680885314941 -83.846199035644531
v 63.5338020324707 3.15927791595459 -83.328194141387939
v 64 3.6359939575195312 -87.354218006134033
v 64 3.1975100040435791 -83.352935791015625
v 64 3.2181808948516846 -81.400908946990967
v 63.709754943847656 3.2090499401092529 -80
v 64 3.2330160140991211 -80
v 63.010319232940674 3.1769800186157227 -80
v 59.708630084991455 2.9702808856964111 -80
vt 0.99775302410125732 0.0082910060882568359
vt 0.97428601980209351 0.0081099867820739746
vt 0.99775302410125732 0.029407024383544922
vt 0.91509801149368286 0.19004601240158081
vt 0.997868001461029 0.18628501892089844
vt 0.9052879810333252 0.0076249837875366211
vt 0.99768900871276855 0.4341920018196106
vt 0.9277380108833313 0.4371039867401123
vt 0.99760597944259644 0.5004889965057373
vt 0.99753600358963013 0.36027002334594727
vt 0.65684401988983154 0.0054399967193603516
vt 0.666841983795166 0.20041197538375855
vt 0.71235799789428711 0.0060070157051086426
vt 0.67934799194335938 0.44746899604797363
vt 0.93967902660369873 0.68400999903678894
vt 0.43081900477409363 0.457813024520874
vt 0.60693901777267456 0.0049899816513061523
vt 0.41906800866127014 0.2111009955406189
vt 0.9958760142326355 0.92943199723958969
vt 0.99618297815322876 0.88357400149106979
vt 0.952305018901825 0.93123900145292282
vt 0.69181698560714722 0.6945909857749939
vt 0.99666702747344971 0.68175798654556274
vt 0.703665018081665 0.94141900166869164
vt 0.764398992061615 0.99665599991567433
vt 0.70673799514770508 0.99580299993976951
vt 0.95542502403259277 0.99871399998664856
vt 0.65453898906707764 0.99559699976816773
vt 0.96562999486923218 0.99881899997126311
vt 0.995389997959137 0.99912499997299165
vt 0.45621600747108459 0.95212199911475182
vt 0.44393599033355713 0.70521199703216553
vt 0.40892800688743591 0.0035369992256164551
vt 0.18917499482631683 0.0020440220832824707
vt 0.17148399353027344 0.22186601161956787
vt 0.18356199562549591 0.4687579870223999
vt 0.16128699481487274 0.0018309950828552246
vt 0.0050209998153150082 0.22987401485443115
vt 0.13629299402236939 0.0016739964485168457
vt 0.005563999991863966 0.14518702030181885
vt 0.14412499964237213 0.0017229914665222168
vt 0.00648299977183342 0.00087499618530273438
vt 0.0047109997831285 0.30641597509384155
vt 0.0040350002236664295 0.47763198614120483
vt 0.19592900574207306 0.71574500203132629
vt 0.0038280000444501638 0.541496992111206
vt 0.23995499312877655 0.9916770001873374
vt 0.20788100361824036 0.9625139981508255
vt 0.45829498767852783 0.99387199990451336
vt 0.20936299860477448 0.99141199979931116
vt 0.088675998151302338 0.99093400035053492
vt 0.0022189998999238014 0.972596000880003
vt 0.0021309999283403158 0.99058699980378151
vt 0.00241199997253716 0.92934399843215942
vt 0.0032170000486075878 0.72511398792266846
vn -0.0861160010099411 0.99229097366333008 0.08912300318479538
vn -0.092759996652603149 0.99221199750900269 0.083129003643989563
vn -0.092473000288009644 0.99221700429916382 0.083388999104499817
vn -0.074602000415325165 0.992546021938324 0.0963670015335083
vn -0.078947000205516815 0.99361497163772583 0.080596998333930969
vn -0.094314001500606537 0.99158000946044922 0.088739000260829926
vn -0.0875760018825531 0.98865801095962524 0.12201099842786789
vn -0.06251399964094162 0.99111002683639526 0.11744599789381027
vn -0.054037999361753464 0.98881798982620239 0.13899199664592743
vn -0.071225002408027649 0.99340200424194336 0.089886002242565155
vn -0.069594003260135651 0.99159401655197144 0.10907900333404541
vn -0.061326000839471817 0.991769015789032 0.11239399760961533
vn -0.074818998575210571 0.99080401659011841 0.11273200064897537
vn -0.06121399998664856 0.99104601144790649 0.11866399645805359
vn -0.059920001775026321 0.99014300107955933 0.12659600377082825
vn -0.061670001596212387 0.99299097061157227 0.10082300007343292
vn -0.063101999461650848 0.99364697933197021 0.0931830033659935
vn -0.038297999650239944 0.99537897109985352 0.088054001331329346
vn -0.031851001083850861 0.99343997240066528 0.10983099788427353
vn -0.059271000325679779 0.98869800567626953 0.13770699501037598
vn -0.041161000728607178 0.99184000492095947 0.12066300213336945
vn -0.057427998632192612 0.99228298664093018 0.10989099740982056
vn -0.056678000837564468 0.98769402503967285 0.1457660049200058
vn -0.04069799929857254 0.99270600080490112 0.11348000168800354
vn -0.030299000442028046 0.9914969801902771 0.12655499577522278
vn -0.0369889996945858 0.99369597434997559 0.105833999812603
vn -0.029099000617861748 0.99251699447631836 0.11858700215816498
vn -0.047982998192310333 0.99381601810455322 0.10013400018215179
vn -0.029603999108076096 0.993520975112915 0.10972300171852112
vn -0.029603999108076096 0.99352198839187622 0.10972099751234055
vn -0.048675000667572021 0.99304002523422241 0.10724599659442902
vn -0.059927001595497131 0.9926379919052124 0.10525599867105484
vn -0.044263001531362534 0.99686902761459351 0.065517999231815338
vn -0.018244000151753426 0.99636697769165039 0.083187997341156
vn -0.03096500039100647 0.99881500005722046 0.0375560000538826
vn -0.058671999722719193 0.9975849986076355 0.037181001156568527
vn -0.013132000342011452 0.99923801422119141 0.036765001714229584
vn -0.036192998290061951 0.99926900863647461 -0.012295999564230442
vn -0.015112999826669693 0.99978601932525635 -0.014135999605059624
vn -0.015197999775409699 0.99978601932525635 -0.014041000045835972
vn -0.015791000798344612 0.99978601932525635 -0.013381999917328358
vn -0.013248000293970108 0.99978101253509521 -0.01620900072157383
vn -0.054528001695871353 0.99845600128173828 -0.010630999691784382
vn -0.057454001158475876 0.99831098318099976 -0.0085929995402693748
vn -0.052464000880718231 0.99734598398208618 0.050487998872995377
vn -0.058006998151540756 0.99830502271652222 -0.0047189998440444469
vn -0.0571260005235672 0.99269300699234009 0.10628700256347656
vn -0.057844001799821854 0.99721401929855347 0.047090001404285431
vn -0.051424000412225723 0.99284899234771729 0.10773500055074692
vn -0.079510003328323364 0.99599498510360718 0.040888998657464981
vn -0.08228600025177002 0.99655300378799438 -0.010552999563515186
vn -0.064676001667976379 0.99783998727798462 -0.011502999812364578
vn -0.082285001873970032 0.99655300378799438 -0.010552999563515186
vn -0.04968700185418129 0.99873101711273193 -0.0081839999184012413
vn -0.054969999939203262 0.99847197532653809 0.0056929998099803925
f 1/1/1 2/2/2 3/3/3
f 3/3/3 4/4/4 5/5/5
f 3/3/3 6/6/6 4/4/4
f 3/3/3 2/2/2 6/6/6
f 7/7/7 8/8/8 9/9/9
f 7/7/7 10/10/10 8/8/8
f 4/4/4 11/11/11 12/12/12
f 4/4/4 13/13/13 11/11/11
f 6/6/6 13/13/13 4/4/4
f 8/8/8 12/12/12 14/14/14
f 12/12/12 8/8/8 4/4/4
f 14/14/14 15/15/15 8/8/8
f 14/14/14 12/12/12 16/16/16
f 10/10/10 4/4/4 8/8/8
f 10/10/10 5/5/5 4/4/4
f 12/12/12 17/17/17 18/18/18
f 12/12/12 11/11/11 17/17/17
f 19/19/19 20/20/20 21/21/21
f 21/21/21 15/15/15 22/22/22
f 23/23/23 21/21/21 20/20/20
f 23/23/23 15/15/15 21/21/21
f 21/21/21 22/22/22 24/24/24
f 22/22/22 15/15/15 14/14/14
f 25/25/25 24/24/24 26/26/26
f 24/24/24 27/27/27 21/21/21
f 24/24/24 25/25/25 27/27/27
f 26/26/26 24/24/24 28/28/28
f 29/29/29 21/21/21 27/27/27
f 29/29/29 19/19/19 21/21/21
f 29/29/29 30/30/30 19/19/19
f 24/24/24 22/22/22 31/31/31
f 15/15/15 9/9/9 8/8/8
f 15/15/15 23/23/23 9/9/9
f 22/22/22 14/14/14 32/32/32
f 33/33/33 34/34/34 18/18/18
f 16/16/16 18/18/18 35/35/35
f 12/12/12 18/18/18 16/16/16
f 16/16/16 35/35/35 36/36/36
f 37/37/37 18/18/18 34/34/34
f 37/37/37 35/35/35 18/18/18
f 33/33/33 18/18/18 17/17/17
f 38/38/38 39/39/39 40/40/40
f 38/38/38 41/41/41 39/39/39
f 41/41/41 35/35/35 37/37/37
f 41/41/41 38/38/38 35/35/35
f 42/42/42 40/40/40 39/39/39
f 43/43/43 44/44/44 36/36/36
f 43/43/43 35/35/35 38/38/38
f 43/43/43 36/36/36 35/35/35
f 32/32/32 16/16/16 36/36/36
f 44/44/44 45/45/45 36/36/36
f 44/44/44 46/46/46 45/45/45
f 32/32/32 45/45/45 31/31/31
f 47/47/47 31/31/31 48/48/48
f 47/47/47 49/49/49 31/31/31
f 28/28/28 31/31/31 49/49/49
f 28/28/28 24/24/24 31/31/31
f 50/50/50 48/48/48 51/51/51
f 51/51/51 52/52/52 53/53/53
f 51/51/51 48/48/48 52/52/52
f 48/48/48 31/31/31 45/45/45
f 31/31/31 22/22/22 32/32/32
f 52/52/52 45/45/45 54/54/54
f 52/52/52 48/48/48 45/45/45
f 46/46/46 55/55/55 45/45/45
f 54/54/54 45/45/45 55/55/55
f 36/36/36 45/45/45 32/32/32
f 32/32/32 14/14/14 16/16/16
f 47/47/47 48/48/48 50/50/50
