mtllib m300102.mtl
usemtl material0
v 263.03158569335938 2.992142915725708 -128
v 265.27664184570312 3.0001730918884277 -125.98020935058594
v 265.17010498046875 3.0157461166381836 -128
v 279.92788696289062 3.5185039043426514 -128
v 281.23455810546875 3.5518438816070557 -126.82466888427734
v 281.17303514480591 3.65529203414917 -128
v 256 3.0413379669189453 -125.49046325683594
v 256 3.5559749603271484 -115.66830444335938
v 266.12091064453125 3.3980629444122314 -110.02655029296875
v 256 3.032573938369751 -126.53205871582031
v 256 3.0202219486236572 -128
v 282.07891798019409 3.9678010940551758 -110.87107086181641
v 256 3.7199220657348633 -109.49312591552734
v 256 3.8561720848083496 -103.93862199783325
v 266.96499633789062 3.7636520862579346 -94.072777032852173
v 256 4.0754318237304688 -93.49474310874939
v 267.80691528320312 3.68972110748291 -78.117477416992188
v 282.92315721511841 4.3597559928894043 -94.917389035224915
v 297.2012939453125 5.8670802116394043 -127.67527008056641
v 256 4.0605850219726562 -88.742996215820312
v 256 4.12311315536499 -64
v 256 4.0153179168701172 -64.993705749511719
v 268.56048583984375 5.291234016418457 -64
v 256 4.0611391067504883 -67.1887435913086
v 256 4.2762961387634277 -77.495864868164062
v 283.76263380050659 3.8048770427703857 -78.9604263305664
v 270.30551147460938 5.3142209053039551 -64
v 282.29223585128784 3.6839621067047119 -128
v 297.18411254882812 5.858403205871582 -128
v 298.0408935546875 5.3348121643066406 -111.71836853027344
v 313.18356323242188 5.8238368034362793 -128
v 313.99691772460938 5.50206184387207 -112.56150054931641
v 312.69049072265625 5.8192238807678223 -128
v 303.35137939453125 5.8545699119567871 -128
v 320 5.6514639854431152 -128
v 320 5.4804339408874512 -119.23382568359375
v 298.883544921875 5.4089021682739258 -95.763573005795479
v 314.83819580078125 5.30125617980957 -96.605750977993011
v 299.72109985351562 4.4599871635437012 -79.80523681640625
v 315.67437744140625 4.0857439041137695 -80.646492004394531
v 320 5.0679478645324707 -96.877586007118225
v 320 4.2272629737854 -85.454017639160156
v 316.51605224609375 3.9663279056549072 -64.691032409667969
v 300.55511474609375 4.3934478759765625 -64
v 300.39620971679688 4.3869791030883789 -64
v 320 5.1705989837646484 -102.34325408935547
v 320 5.2825570106506348 -112.87779998779297
v 320 4.3206977844238281 -80.875663757324219
v 303.40887546539307 4.3167362213134766 -64
v 284.55468797683716 4.2446398735046387 -64
v 320 3.9785230159759521 -64.875053405761719
v 320 3.996100902557373 -64.5258560180664
v 316.55270385742188 4.0013399124145508 -64
v 320 4.0225720405578613 -64
v 320 4.1936211585998535 -68.562873840332031
vt 0.10803099721670151 0.029492020606994629
vt 0.14281100034713745 0.058668017387390137
vt 0.14016099274158478 0.028378009796142578
vt 0.3619999885559082 0.020641028881072998
vt 0.38225200772285461 0.037613987922668457
vt 0.3808160126209259 0.019912004470825195
vt 0.0036979999858886003 0.070858001708984375
vt 0.0087980004027485847 0.21862399578094482
vt 0.16405899822711945 0.29795902967453003
vt 0.0031550000421702862 0.055208981037139893
vt 0.0023910000454634428 0.03315502405166626
vt 0.40351200103759766 0.27691000699996948
vt 0.01223399955779314 0.31152898073196411
vt 0.015219000168144703 0.39499801397323608
vt 0.18528600037097931 0.53724199533462524
vt 0.020831000059843063 0.55192899703979492
vt 0.20622999966144562 0.77651000022888184
vt 0.42475599050521851 0.51620000600814819
vt 0.62423700094223022 0.016942024230957031
vt 0.023438999429345131 0.62331300973892212
vt 0.035523999482393265 0.99431899981573224
vt 0.03499700129032135 0.97930300049483776
vt 0.22509400546550751 0.98955800011754036
vt 0.035046998411417007 0.94718199968338013
vt 0.029224999248981476 0.7923160046339035
vt 0.44551700353622437 0.75564999878406525
vt 0.25131300091743469 0.98867100011557341
vt 0.3976379930973053 0.019388020038604736
vt 0.62380498647689819 0.012071013450622559
vt 0.64380699396133423 0.25647997856140137
vt 0.86424899101257324 0.0051249861717224121
vt 0.8829759955406189 0.23538297414779663
vt 0.85684001445770264 0.0053420066833496094
vt 0.71650797128677368 0.0093920230865478516
vt 0.96659302711486816 0.00082600116729736328
vt 0.970350980758667 0.13257497549057007
vt 0.66464501619338989 0.49553298950195312
vt 0.90391498804092407 0.47467499971389771
vt 0.68505400419235229 0.73492199182510376
vt 0.92442399263381958 0.71477699279785156
vt 0.98143798112869263 0.4683459997177124
vt 0.98711097240448 0.64044100046157837
vt 0.9446139931678772 0.95411600172519684
vt 0.70548498630523682 0.971968000754714
vt 0.7030940055847168 0.97204999998211861
vt 0.97853600978851318 0.38581997156143188
vt 0.97306197881698608 0.22754502296447754
vt 0.98940098285675049 0.70925399661064148
vt 0.74837601184844971 0.97054499946534634
vt 0.46594199538230896 0.9800259992480278
vt 0.996878981590271 0.9497699998319149
vt 0.99703097343444824 0.95280300080776215
vt 0.94592297077178955 0.96445899829268456
vt 0.99760901927948 0.9606969989836216
vt 0.9952089786529541 0.89426399767398834
vn 0.00048799999058246613 0.99998998641967773 -0.0045179999433457851
vn -0.014328000135719776 0.99980902671813965 -0.013261999934911728
vn -0.022158000618219376 0.99971497058868408 0.0088769998401403427
vn -0.051585998386144638 0.99824601411819458 0.029032999649643898
vn -0.084481999278068542 0.99636197090148926 0.011238999664783478
vn -0.068398997187614441 0.99349701404571533 0.0910239964723587
vn 0.00279300007969141 0.99951201677322388 -0.031114999204874039
vn 0.023692000657320023 0.999189019203186 -0.032542001456022263
vn -0.0030680000782012939 0.99971002340316772 -0.023901000618934631
vn 0.003992999903857708 0.99995702505111694 -0.0084140002727508545
vn 0.003992999903857708 0.99995702505111694 -0.0084140002727508545
vn -0.068833999335765839 0.99752897024154663 -0.014041000045835972
vn 0.030432999134063721 0.99921202659606934 -0.025484999641776085
vn 0.029637999832630157 0.99928301572799683 -0.023569000884890556
vn -0.004290000069886446 0.99995297193527222 -0.0086989998817443848
vn 0.027972999960184097 0.99957197904586792 -0.0085239997133612633
vn -0.0041539999656379223 0.999351978302002 -0.035750001668930054
vn -0.049862999469041824 0.99873501062393188 0.0064550000242888927
vn -0.0635560005903244 0.99797797203063965 -0.00064899999415501952
vn 0.033934000879526138 0.99941998720169067 -0.0028250000905245543
vn -0.0920649990439415 0.98994600772857666 -0.1073869988322258
vn -0.058892000466585159 0.99523800611495972 -0.077674001455307
vn -0.051134001463651657 0.99262899160385132 -0.10987599939107895
vn 0.050703000277280807 0.99849599599838257 0.020842999219894409
vn 0.049699001014232636 0.99876302480697632 0.0015140000032261014
vn -0.012502999976277351 0.999921977519989 0.00011800000356743112
vn 0.010355999693274498 0.99578398466110229 -0.0911479964852333
vn -0.11303400248289108 0.99354100227355957 0.0099640004336833954
vn -0.0746299996972084 0.996953010559082 -0.022691000252962112
vn -0.04099699854850769 0.99905198812484741 0.014615999534726143
vn 0.0073810000903904438 0.99976402521133423 0.020447999238967896
vn 0.012423000298440456 0.99976801872253418 0.017594000324606895
vn -0.0058479998260736465 0.99968302249908447 0.024481000378727913
vn 0.0037299999967217445 0.99947702884674072 0.032134000211954117
vn 0.025274999439716339 0.99949002265930176 0.019500000402331352
vn 0.028282999992370605 0.99935299158096313 0.022206999361515045
vn -0.024994999170303345 0.99936002492904663 0.025596000254154205
vn 0.026861000806093216 0.99885100126266479 0.039686001837253571
vn -0.0086300000548362732 0.99935799837112427 0.0347599983215332
vn -0.0014600000577047467 0.99956601858139038 0.029409000650048256
vn 0.047481000423431396 0.99785000085830688 0.045173998922109604
vn 0.024591999128460884 0.99836897850036621 0.051516000181436539
vn 0.0040150000713765621 0.99986600875854492 -0.015838000923395157
vn -0.0057749999687075615 0.99997299909591675 0.0045139999128878117
vn -0.033296000212430954 0.99944400787353516 -0.0018680000212043524
vn 0.039207000285387039 0.9991530179977417 0.012520000338554382
vn 0.037647999823093414 0.99906599521636963 0.021196000277996063
vn -0.054529000073671341 0.99849700927734375 -0.0055479998700320721
vn 0.026822999119758606 0.999638020992279 0.0018729999428614974
vn 0.031560998409986496 0.999019980430603 -0.031036999076604843
vn -0.0031930000986903906 0.99997800588607788 0.0058059999719262123
vn -0.0061510000377893448 0.99871701002120972 -0.050273999571800232
vn 0.008400999940931797 0.99866098165512085 -0.051043000072240829
vn -0.0061510000377893448 0.99871701002120972 -0.050273999571800232
vn -0.041292998939752579 0.99891597032547 0.021484000608325005
f 1/1/1 2/2/2 3/3/3
f 4/4/4 5/5/5 6/6/6
f 7/7/7 8/8/8 2/2/2
f 5/5/5 2/2/2 9/9/9
f 1/1/1 7/7/7 2/2/2
f 1/1/1 10/10/10 7/7/7
f 10/10/10 1/1/1 11/11/11
f 5/5/5 9/9/9 12/12/12
f 13/13/13 2/2/2 8/8/8
f 13/13/13 9/9/9 2/2/2
f 9/9/9 14/14/14 15/15/15
f 9/9/9 13/13/13 14/14/14
f 16/16/16 15/15/15 14/14/14
f 15/15/15 17/17/17 18/18/18
f 12/12/12 9/9/9 15/15/15
f 19/19/19 5/5/5 12/12/12
f 5/5/5 3/3/3 2/2/2
f 5/5/5 4/4/4 3/3/3
f 20/20/20 15/15/15 16/16/16
f 20/20/20 17/17/17 15/15/15
f 21/21/21 17/17/17 22/22/22
f 21/21/21 23/23/23 17/17/17
f 24/24/24 17/17/17 25/25/25
f 24/24/24 22/22/22 17/17/17
f 23/23/23 26/26/26 17/17/17
f 23/23/23 27/27/27 26/26/26
f 20/20/20 25/25/25 17/17/17
f 12/12/12 15/15/15 18/18/18
f 28/28/28 6/6/6 5/5/5
f 28/28/28 19/19/19 29/29/29
f 28/28/28 5/5/5 19/19/19
f 30/30/30 12/12/12 18/18/18
f 19/19/19 12/12/12 30/30/30
f 31/31/31 30/30/30 32/32/32
f 31/31/31 33/33/33 30/30/30
f 30/30/30 34/34/34 19/19/19
f 30/30/30 33/33/33 34/34/34
f 35/35/35 32/32/32 36/36/36
f 35/35/35 31/31/31 32/32/32
f 30/30/30 18/18/18 37/37/37
f 34/34/34 29/29/29 19/19/19
f 30/30/30 38/38/38 32/32/32
f 37/37/37 26/26/26 39/39/39
f 26/26/26 37/37/37 18/18/18
f 38/38/38 39/39/39 40/40/40
f 39/39/39 38/38/38 37/37/37
f 41/41/41 40/40/40 42/42/42
f 41/41/41 38/38/38 40/40/40
f 40/40/40 39/39/39 43/43/43
f 30/30/30 37/37/37 38/38/38
f 44/44/44 26/26/26 45/45/45
f 44/44/44 39/39/39 26/26/26
f 46/46/46 32/32/32 38/38/38
f 46/46/46 47/47/47 32/32/32
f 26/26/26 18/18/18 17/17/17
f 47/47/47 36/36/36 32/32/32
f 42/42/42 40/40/40 48/48/48
f 41/41/41 46/46/46 38/38/38
f 49/49/49 39/39/39 44/44/44
f 49/49/49 43/43/43 39/39/39
f 50/50/50 45/45/45 26/26/26
f 51/51/51 43/43/43 52/52/52
f 52/52/52 53/53/53 54/54/54
f 52/52/52 43/43/43 53/53/53
f 43/43/43 48/48/48 40/40/40
f 43/43/43 55/55/55 48/48/48
f 49/49/49 53/53/53 43/43/43
f 55/55/55 43/43/43 51/51/51
f 50/50/50 26/26/26 27/27/27
