mtllib m3000201.mtl
usemtl material0
v 32 5.0581507682800293 -145.3998110294342
v 32.252456665039062 5.0446572303771973 -145.68043494224548
v 32 5.0452499389648438 -145.66711401939392
v 32 4.9900798797607422 -150.45735216140747
v 32 5.5747580528259277 -137.66905212402344
v 32.676261901855469 5.586453914642334 -137.70480298995972
v 40.232903003692627 5.627439022064209 -146.1037449836731
v 37.863861083984375 6.0144081115722656 -128
v 40.656464099884033 6.11894416809082 -138.12793016433716
v 36.492801666259766 5.92232608795166 -128
v 32 5.5643692016601562 -136.18896484375
v 32 5.5577940940856934 -135.25224304199219
v 32 4.9646468162536621 -153.66661071777344
v 39.811031341552734 5.4786820411682129 -154.08075046539307
v 32 5.506889820098877 -128
v 33.188285827636719 5.5269999504089355 -128
v 32 5.1649961471557617 -160
v 32 4.9576997756958008 -153.84562683105469
v 37.5373649597168 5.0946741104125977 -160
v 39.497264862060547 5.22768497467041 -160
v 45.136859893798828 5.62004280090332 -160
v 47.790400996804237 5.84269905090332 -154.5032958984375
v 48.211143001914024 5.7614789009094238 -146.5254819393158
v 41.191600799560547 6.2118721008300781 -128
v 44.638259887695312 6.2876920700073242 -128
v 45.726334095001221 6.275026798248291 -128
v 48.633544981479645 6.0171489715576172 -138.54885911941528
v 47.499652981758118 5.7300882339477539 -160
v 55.766239166259766 5.4889369010925293 -154.92333984375
v 52.735446929931641 5.6377677917480469 -160
v 55.498371124267578 5.5148210525512695 -160
v 60.333232879638672 5.2063608169555664 -160
v 56.1869535446167 5.402346134185791 -146.94551110267639
v 49.191264986991882 6.1810932159423828 -128
v 52.780373096466064 6.1210389137268066 -128
v 53.587001800537109 6.0805420875549316 -128
v 56.609088897705078 5.6043062210083008 -138.96868896484375
v 63.740646362304688 4.8456110954284668 -155.34236145019531
v 63.495292663574219 4.9483160972595215 -160
v 64 4.8608322143554688 -160
v 64 4.8043808937072754 -155.63072204589844
v 64 4.5707459449768066 -150.40287780761719
v 64 4.421638011932373 -147.35493493080139
v 57.189067840576172 5.78685998916626 -128
v 60.91729736328125 5.1306071281433105 -128
v 61.444293975830078 5.0372090339660645 -128
v 64 4.284247875213623 -139.35473585128784
v 64 4.3390631675720215 -137.28021192550659
v 64 4.42702579498291 -147.18586707115173
v 64 4.80011510848999 -155.35591125488281
v 64 4.6558132171630859 -128
vt 0.52637797594070435 0.01657402515411377
vt 0.53506898880004883 0.023858010768890381
vt 0.53440701961517334 0.016296982765197754
vt 0.67814397811889648 0.01133197546005249
vt 0.29390600323677063 0.024643003940582275
vt 0.29565700888633728 0.044901013374328613
vt 0.55492997169494629 0.26360100507736206
vt 0.0091359997168183327 0.20987600088119507
vt 0.31560000777244568 0.28452402353286743
vt 0.0078910002484917641 0.16864001750946045
vt 0.24949400126934052 0.026121973991394043
vt 0.22138699889183044 0.027059018611907959
vt 0.77443897724151611 0.0080170035362243652
vt 0.79482799768447876 0.24247199296951294
vt 0.0037740000989288092 0.034308016300201416
vt 0.0049660000950098038 0.069967985153198242
vt 0.964576005935669 0.0014479756355285645
vt 0.77981400489807129 0.00782102346420288
vt 0.97023701667785645 0.16760802268981934
vt 0.97223299741745 0.22654998302459717
vt 0.97796601057052612 0.39617502689361572
vt 0.81475001573562622 0.4817889928817749
vt 0.575518012046814 0.50260800123214722
vt 0.012161999940872192 0.30991202592849731
vt 0.015317999757826328 0.41336500644683838
vt 0.016897000372409821 0.44706398248672485
vt 0.33649200201034546 0.52345401048660278
vt 0.97945600748062134 0.4679340124130249
vt 0.83515399694442749 0.72093901038169861
vt 0.98440200090408325 0.6250700056552887
vt 0.98722797632217407 0.70796200633049011
vt 0.992343008518219 0.85281999409198761
vt 0.5966460108757019 0.74170100688934326
vt 0.020516000688076019 0.55106401443481445
vt 0.024244999513030052 0.65876701474189758
vt 0.025164000689983368 0.683118999004364
vt 0.35766699910163879 0.76261299848556519
vt 0.85620498657226562 0.96053199842572212
vt 0.99570399522781372 0.94800800085067749
vt 0.99622601270675659 0.96337800100445747
vt 0.86509501934051514 0.9681520015001297
vt 0.70809602737426758 0.97407300025224686
vt 0.61790299415588379 0.97746899910271168
vt 0.029129000380635262 0.79154700040817261
vt 0.033528000116348267 0.90511199831962585
vt 0.034081999212503433 0.92102999985218048
vt 0.37788501381874084 0.9874059995636344
vt 0.31561699509620667 0.98950500041246414
vt 0.61282902956008911 0.97763999924063683
vt 0.85684800148010254 0.96842100098729134
vt 0.036990001797676086 0.99855300004128367
vn -0.01598300039768219 0.99792498350143433 -0.062366001307964325
vn -0.03866099938750267 0.99860501289367676 -0.035960998386144638
vn 0.00073999998858198524 0.99953502416610718 -0.030484000220894814
vn -0.0649460032582283 0.99785697460174561 -0.0079680001363158226
vn -0.018797999247908592 0.99941402673721313 -0.028617000207304955
vn -0.047118999063968658 0.99840497970581055 -0.031093999743461609
vn -0.049465999007225037 0.9981759786605835 -0.03462199866771698
vn -0.063786998391151428 0.997937023639679 -0.0072880000807344913
vn -0.03366599977016449 0.99889999628067017 -0.032627001404762268
vn -0.086731001734733582 0.99623197317123413 -0.000371000001905486
vn -0.016921000555157661 0.99983197450637817 0.0070179998874664307
vn -0.016921000555157661 0.99983197450637817 0.0070179998874664307
vn -0.066853001713752747 0.99750202894210815 -0.022797999903559685
vn -0.060478001832962036 0.99788999557495117 -0.023617999628186226
vn -0.016921000555157661 0.99983197450637817 0.0070179998874664307
vn -0.0696289986371994 0.99752497673034668 0.0097850002348423
vn 0.012690999545156956 0.99935299158096313 0.033661000430583954
vn -0.048962000757455826 0.99856197834014893 -0.021828999742865562
vn -0.04626300185918808 0.99874097108840942 -0.019395999610424042
vn -0.068475998938083649 0.99690401554107666 -0.038642000406980515
vn -0.052616998553276062 0.998337984085083 -0.023499999195337296
vn -0.0005169999785721302 0.9999849796295166 -0.005526999942958355
vn 0.016897000372409821 0.99973797798156738 -0.015433999709784985
vn -0.039990000426769257 0.99917501211166382 -0.0070549999363720417
vn -0.0011680000461637974 0.99986797571182251 -0.016200000420212746
vn 0.018042000010609627 0.99964797496795654 -0.019464999437332153
vn 0.028953000903129578 0.99919599294662476 -0.027738999575376511
vn -0.015537000261247158 0.99968600273132324 -0.019658999517560005
vn 0.060699000954627991 0.99813300371170044 0.0067870002239942551
vn 0.037303999066352844 0.999297022819519 -0.0036959999706596136
vn 0.053741000592708588 0.99855202436447144 0.0022559999488294125
vn 0.076623000204563141 0.996969997882843 0.013437000103294849
vn 0.07981099933385849 0.99678802490234375 -0.0066960002295672894
vn 0.021739000454545021 0.99962401390075684 -0.0166849996894598
vn 0.03740600124001503 0.99899899959564209 -0.024543000385165215
vn 0.063006997108459473 0.99767500162124634 -0.025956999510526657
vn 0.10784099996089935 0.99392098188400269 -0.022182999178767204
vn 0.1331699937582016 0.99074697494506836 0.026203999295830727
vn 0.1246120035648346 0.99208700656890869 0.015312000177800655
vn 0.17077499628067017 0.98522800207138062 0.012729000300168991
vn 0.17142699658870697 0.98510700464248657 0.013332000002264977
vn 0.12771399319171906 0.99062800407409668 0.048418998718261719
vn 0.12504099309444428 0.99210399389266968 0.0097340000793337822
vn 0.12888400256633759 0.99138599634170532 -0.023314999416470528
vn 0.17401200532913208 0.984404981136322 -0.025833999738097191
vn 0.16336700320243835 0.98613297939300537 -0.0291959997266531
vn 0.17565500736236572 0.98444598913192749 -0.00330400001257658
vn 0.17212800681591034 0.98471301794052124 -0.026676999405026436
vn 0.13560199737548828 0.99056202173233032 -0.019951999187469482
vn 0.17422400414943695 0.984250009059906 0.029976999387145042
vn 0.14751499891281128 0.98848402500152588 -0.033739000558853149
f 1/1/1 2/2/2 3/3/3
f 4/4/4 3/3/3 2/2/2
f 5/5/5 2/2/2 1/1/1
f 5/5/5 6/6/6 2/2/2
f 6/6/6 7/7/7 2/2/2
f 6/6/6 8/8/8 9/9/9
f 6/6/6 10/10/10 8/8/8
f 11/11/11 6/6/6 5/5/5
f 11/11/11 12/12/12 6/6/6
f 13/13/13 2/2/2 14/14/14
f 13/13/13 4/4/4 2/2/2
f 15/15/15 6/6/6 12/12/12
f 15/15/15 16/16/16 6/6/6
f 16/16/16 10/10/10 6/6/6
f 17/17/17 18/18/18 19/19/19
f 2/2/2 7/7/7 14/14/14
f 20/20/20 14/14/14 21/21/21
f 14/14/14 7/7/7 22/22/22
f 7/7/7 9/9/9 23/23/23
f 6/6/6 9/9/9 7/7/7
f 24/24/24 9/9/9 8/8/8
f 25/25/25 9/9/9 24/24/24
f 9/9/9 26/26/26 27/27/27
f 9/9/9 25/25/25 26/26/26
f 28/28/28 14/14/14 22/22/22
f 28/28/28 21/21/21 14/14/14
f 19/19/19 14/14/14 20/20/20
f 19/19/19 13/13/13 14/14/14
f 19/19/19 18/18/18 13/13/13
f 23/23/23 22/22/22 7/7/7
f 22/22/22 23/23/23 29/29/29
f 28/28/28 22/22/22 30/30/30
f 31/31/31 29/29/29 32/32/32
f 29/29/29 30/30/30 22/22/22
f 29/29/29 31/31/31 30/30/30
f 23/23/23 27/27/27 33/33/33
f 34/34/34 27/27/27 26/26/26
f 35/35/35 27/27/27 34/34/34
f 27/27/27 36/36/36 37/37/37
f 27/27/27 35/35/35 36/36/36
f 33/33/33 29/29/29 23/23/23
f 27/27/27 23/23/23 9/9/9
f 32/32/32 38/38/38 39/39/39
f 32/32/32 29/29/29 38/38/38
f 40/40/40 38/38/38 41/41/41
f 40/40/40 39/39/39 38/38/38
f 33/33/33 38/38/38 29/29/29
f 42/42/42 33/33/33 43/43/43
f 42/42/42 38/38/38 33/33/33
f 44/44/44 37/37/37 36/36/36
f 45/45/45 37/37/37 44/44/44
f 46/46/46 37/37/37 45/45/45
f 46/46/46 47/47/47 37/37/37
f 46/46/46 48/48/48 47/47/47
f 47/47/47 49/49/49 37/37/37
f 43/43/43 37/37/37 49/49/49
f 43/43/43 33/33/33 37/37/37
f 50/50/50 38/38/38 42/42/42
f 37/37/37 33/33/33 27/27/27
f 41/41/41 38/38/38 50/50/50
f 51/51/51 48/48/48 46/46/46
