mtllib m300000213.mtl
usemtl material0
v 24 2.4114360809326172 -47.239177942276
v 24 2.3781559467315674 -45.72311794757843
v 25.432235956192017 2.4377880096435547 -47.314892053604126
v 24 2.3038070201873779 -43.238955974578857
v 24 2.1987290382385254 -41.500679016113281
v 25.643038034439087 2.4851889610290527 -43.326297998428345
v 24 2.1936678886413574 -41.238667011260986
v 24.549443960189819 2.1854040622711182 -40
v 25.748213052749634 2.4627459049224854 -41.331844091415405
v 24 2.1648221015930176 -40.844681024551392
v 24 2.1029789447784424 -40
v 24 2.3016939163208008 -43.611874014139175
v 25.53764009475708 2.4622209072113037 -45.320598959922791
v 24 2.3827509880065918 -45.239146947860718
v 24 2.4153480529785156 -47.834441900253296
v 24.148957967758179 2.4191250801086426 -48
v 24 2.41888689994812 -48
v 25.396087884902954 2.4416379928588867 -48
v 26.048670053482056 2.4602670669555664 -48
v 27.532644003629684 2.5863199234008789 -45.4263459444046
v 25.818013906478882 2.3630061149597168 -40
v 27.743620008230209 2.6688740253448486 -41.43787407875061
v 26.44951605796814 2.4255540370941162 -40
v 27.638217985630035 2.6449310779571533 -43.432166993618011
v 27.427074015140533 2.52868390083313 -47.420525074005127
v 31.397736072540283 2.7924718856811523 -48
v 31.008019924163818 2.770953893661499 -48
v 31.417243957519531 2.8095910549163818 -47.632129907608032
v 27.948472999036312 2.551469087600708 -48
v 27.396452009677887 2.5222930908203125 -48
v 29.527685046195984 2.7182290554046631 -45.532119989395142
v 29.422142028808594 2.6654760837554932 -47.52631402015686
v 29.397070050239563 2.6525969505310059 -48
v 32 2.8403069972991943 -47.757987976074219
v 32 2.8444139957427979 -47.66301703453064
v 32 2.8298408985137939 -48
v 31.52286696434021 2.8784570693969727 -45.637989044189453
v 32 2.8911709785461426 -46.168284893035889
v 29.633154034614563 2.755357027053833 -43.537867993116379
v 31.628231048583984 2.8945889472961426 -43.643664985895157
v 32 2.90802001953125 -45.663280010223389
v 32 2.9157340526580811 -44.0568349994719
v 31.733431100845337 2.8770289421081543 -41.649226903915405
v 32 2.9128930568695068 -43.663356989622116
v 32 2.90687894821167 -43.309288024902344
v 28.349460989236832 2.5936601161956787 -40
v 29.738474011421204 2.76269793510437 -41.543514013290405
v 27.819024994969368 2.5706930160522461 -40
v 30.249329090118408 2.7209420204162598 -40
v 29.819623947143555 2.6973450183868408 -40
v 31.82008695602417 2.7971088886260986 -40
v 32 2.8044719696044922 -40
v 32 2.8344149589538574 -40.591648101806641
v 32 2.888653039932251 -41.663341999053955
vt 0.87290298938751221 0.0056610107421875
vt 0.69083100557327271 0.011866986751556397
vt 0.887923002243042 0.17733901739120483
vt 0.39231300354003906 0.021844029426574707
vt 0.18319199979305267 0.027999997138977051
vt 0.40993800759315491 0.21992599964141846
vt 0.15172800421714783 0.029092013835906982
vt 0.00507699977606535 0.099772989749908447
vt 0.170864999294281 0.2404789924621582
vt 0.10428600013256073 0.030359029769897461
vt 0.0025740000419318676 0.033073008060455322
vt 0.43708500266075134 0.020205974578857422
vt 0.64891201257705688 0.19843399524688721
vt 0.63272100687026978 0.013911008834838867
vt 0.94437497854232788 0.0032060146331787109
vt 0.96486997604370117 0.020411014556884766
vt 0.96425801515579224 0.0025259852409362793
vt 0.97003298997879028 0.17017197608947754
vt 0.97274100780487061 0.24855601787567139
vt 0.669875979423523 0.43799000978469849
vt 0.010692000389099121 0.25310599803924561
vt 0.19180199503898621 0.4804069995880127
vt 0.013360000215470791 0.32929700613021851
vt 0.4308139979839325 0.45933401584625244
vt 0.908935010433197 0.41665500402450562
vt 0.9949219822883606 0.89206299930810928
vt 0.99328899383544922 0.8452019989490509
vt 0.95079702138900757 0.89605499804019928
vt 0.98068702220916748 0.47689801454544067
vt 0.97838199138641357 0.41052699089050293
vt 0.69082099199295044 0.67761299014091492
vt 0.92986899614334106 0.65632200241088867
vt 0.98665201663970947 0.6512640118598938
vt 0.96834498643875122 0.96559499949216843
vt 0.95693302154541016 0.96601999923586845
vt 0.99742597341537476 0.96451200172305107
vt 0.71170997619628906 0.91750799864530563
vt 0.77739298343658447 0.97257599979639053
vt 0.45179799199104309 0.69878301024436951
vt 0.47271499037742615 0.93847300112247467
vt 0.71673798561096191 0.97479899972677231
vt 0.52385801076889038 0.98147800005972385
vt 0.23365800082683563 0.9591200016438961
vt 0.47659799456596375 0.983084000647068
vt 0.43407899141311646 0.98449300043284893
vt 0.021227000281214714 0.5586560070514679
vt 0.212785005569458 0.7197439968585968
vt 0.019029000774025917 0.49491000175476074
vt 0.029348999261856079 0.78703700006008148
vt 0.027607999742031097 0.73559999465942383
vt 0.035781998187303543 0.97585400007665157
vt 0.036517001688480377 0.99747400009073317
vt 0.10758999735116959 0.99519299995154142
vt 0.23643900454044342 0.991100000217557
vn -0.01762700080871582 0.99973899126052856 0.014516999945044518
vn -0.0439860001206398 0.99902999401092529 -0.0021520000882446766
vn -0.034008998423814774 0.99942100048065186 0.00056600000243633986
vn -0.10819400101900101 0.9937250018119812 0.028359999880194664
vn -0.14071300625801086 0.98963600397109985 0.028643999248743057
vn -0.097474999725818634 0.99520498514175415 0.0081449998542666435
vn -0.14952799677848816 0.987654983997345 0.046673998236656189
vn -0.14539200067520142 0.98655998706817627 0.0745759978890419
vn -0.1209150031208992 0.991644024848938 0.044953998178243637
vn -0.14796699583530426 0.98635202646255493 0.07221599668264389
vn -0.14796599745750427 0.98635202646255493 0.0722149983048439
vn -0.095831997692584991 0.99537098407745361 0.0072739999741315842
vn -0.062261998653411865 0.998054027557373 -0.0033360000234097242
vn -0.050487000495195389 0.9985010027885437 0.021128000691533089
vn -0.014213000424206257 0.99984902143478394 0.010022000409662724
vn -0.013660999946296215 0.99985098838806152 0.010520000010728836
vn -0.001601999974809587 0.99976998567581177 0.021368000656366348
vn -0.02311599999666214 0.99970901012420654 0.006839000154286623
vn -0.041322998702526093 0.99913597106933594 -0.0043970001861453056
vn -0.067464001476764679 0.99744999408721924 -0.023274000734090805
vn -0.1177000030875206 0.98979800939559937 0.080292999744415283
vn -0.074863001704216 0.99662202596664429 0.033769000321626663
vn -0.10006900131702423 0.99193501472473145 0.077794000506401062
vn -0.072423003613948822 0.99729502201080322 -0.012578000314533711
vn -0.057585000991821289 0.99820399284362793 -0.016511000692844391
vn -0.058355998247861862 0.99735599756240845 -0.043315999209880829
vn -0.069030001759529114 0.99722301959991455 -0.027946999296545982
vn -0.065237000584602356 0.99727100133895874 -0.034561999142169952
vn -0.065133996307849884 0.99768799543380737 -0.019376000389456749
vn -0.0492589995265007 0.99875098466873169 -0.0084109995514154434
vn -0.073034003376960754 0.99712401628494263 -0.020253000780940056
vn -0.07246900349855423 0.99708402156829834 -0.023910999298095703
vn -0.071373999118804932 0.997177004814148 -0.023334000259637833
vn -0.0618709996342659 0.99715197086334229 -0.043120000511407852
vn -0.061581000685691833 0.99740302562713623 -0.037356000393629074
vn -0.0618709996342659 0.99715197086334229 -0.043122000992298126
vn -0.069306999444961548 0.99743002653121948 -0.018167000263929367
vn -0.06180499866604805 0.9975849986076355 -0.031690999865531921
vn -0.061485998332500458 0.99809002876281738 -0.0060490001924335957
vn -0.059971999377012253 0.998183012008667 0.0058140000328421593
vn -0.06285800039768219 0.99783200025558472 -0.019504999741911888
vn -0.058988999575376511 0.99825698137283325 -0.0019910000264644623
vn -0.049635998904705048 0.99835002422332764 0.028869999572634697
vn -0.048540998250246048 0.99874997138977051 0.011920000426471233
vn -0.044390998780727386 0.99893397092819214 0.012637999840080738
vn -0.050374001264572144 0.99668902158737183 0.0638199970126152
vn -0.053968001157045364 0.99822098016738892 0.025349000468850136
vn -0.073237001895904541 0.99472898244857788 0.071763001382350922
vn -0.053070001304149628 0.997501015663147 0.0466499999165535
vn -0.062283001840114594 0.99702101945877075 0.04548799991607666
vn -0.044484999030828476 0.99772298336029053 0.050686001777648926
vn -0.040839999914169312 0.99788898229599 0.050503000617027283
vn -0.040839999914169312 0.99788898229599 0.050503000617027283
vn -0.041953001171350479 0.998665988445282 0.030107999220490456
f 1/1/1 2/2/2 3/3/3
f 4/4/4 5/5/5 6/6/6
f 7/7/7 8/8/8 9/9/9
f 7/7/7 10/10/10 8/8/8
f 10/10/10 11/11/11 8/8/8
f 12/12/12 13/13/13 14/14/14
f 15/15/15 16/16/16 17/17/17
f 18/18/18 3/3/3 19/19/19
f 16/16/16 3/3/3 18/18/18
f 16/16/16 1/1/1 3/3/3
f 16/16/16 15/15/15 1/1/1
f 4/4/4 13/13/13 12/12/12
f 4/4/4 6/6/6 13/13/13
f 3/3/3 14/14/14 13/13/13
f 3/3/3 2/2/2 14/14/14
f 6/6/6 20/20/20 13/13/13
f 7/7/7 6/6/6 5/5/5
f 7/7/7 9/9/9 6/6/6
f 8/8/8 21/21/21 9/9/9
f 21/21/21 22/22/22 9/9/9
f 21/21/21 23/23/23 22/22/22
f 6/6/6 9/9/9 24/24/24
f 3/3/3 13/13/13 25/25/25
f 26/26/26 27/27/27 28/28/28
f 29/29/29 30/30/30 25/25/25
f 19/19/19 25/25/25 30/30/30
f 19/19/19 3/3/3 25/25/25
f 6/6/6 24/24/24 20/20/20
f 20/20/20 31/31/31 25/25/25
f 25/25/25 31/31/31 32/32/32
f 27/27/27 32/32/32 28/28/28
f 27/27/27 33/33/33 32/32/32
f 34/34/34 28/28/28 35/35/35
f 34/34/34 26/26/26 28/28/28
f 34/34/34 36/36/36 26/26/26
f 32/32/32 37/37/37 28/28/28
f 32/32/32 29/29/29 25/25/25
f 32/32/32 33/33/33 29/29/29
f 35/35/35 37/37/37 38/38/38
f 35/35/35 28/28/28 37/37/37
f 31/31/31 24/24/24 39/39/39
f 24/24/24 31/31/31 20/20/20
f 37/37/37 39/39/39 40/40/40
f 39/39/39 37/37/37 31/31/31
f 40/40/40 41/41/41 37/37/37
f 40/40/40 42/42/42 41/41/41
f 40/40/40 39/39/39 43/43/43
f 32/32/32 31/31/31 37/37/37
f 39/39/39 24/24/24 22/22/22
f 38/38/38 37/37/37 41/41/41
f 9/9/9 22/22/22 24/24/24
f 44/44/44 42/42/42 40/40/40
f 44/44/44 40/40/40 45/45/45
f 22/22/22 46/46/46 47/47/47
f 22/22/22 48/48/48 46/46/46
f 49/49/49 47/47/47 50/50/50
f 49/49/49 43/43/43 47/47/47
f 47/47/47 43/43/43 39/39/39
f 51/51/51 43/43/43 49/49/49
f 50/50/50 47/47/47 46/46/46
f 39/39/39 22/22/22 47/47/47
f 52/52/52 43/43/43 51/51/51
f 52/52/52 53/53/53 43/43/43
f 53/53/53 54/54/54 43/43/43
f 45/45/45 43/43/43 54/54/54
f 45/45/45 40/40/40 43/43/43
f 23/23/23 48/48/48 22/22/22
f 13/13/13 20/20/20 25/25/25
