mtllib m300000130.mtl
usemtl material0
v 48 2.9865710735321045 -24
v 48.74139404296875 2.870858907699585 -22.547964096069336
v 48.665324926376343 2.985292911529541 -24
v 48 2.9248170852661133 -23.215414047241211
v 50.048087954521179 3.029541015625 -24
v 48 2.9127919673919678 -23.06652307510376
v 48 2.8677489757537842 -22.508801937103271
v 50.736251950263977 2.9651598930358887 -22.653605937957764
v 50.665642023086548 3.0564420223236084 -24
v 48.84640097618103 2.8142240047454834 -20.553390979766846
v 48 2.833683967590332 -21.315040946006775
v 51.947914000600576 3.1316919326782227 -24
v 48 2.7577729225158691 -19.612753003835678
v 48.950989007949829 2.67311692237854 -18.558524966239929
v 48 2.6803030967712402 -18.508329033851624
v 48 2.7959630489349365 -20.508635997772217
v 50.841209053993225 2.8987588882446289 -20.658999979496002
v 50.945602059364319 2.718101978302002 -18.663998007774353
v 48 2.582427978515625 -17.501708984375
v 48 2.4506030082702637 -16.507659912109375
v 49.0549430847168 2.4031040668487549 -16.563216924667358
v 51.049121975898743 2.3592240810394287 -16.668385028839111
v 52.93997997045517 2.7147469520568848 -18.769304037094116
v 49.0844349861145 2.3556849956512451 -16
v 48 2.4292130470275879 -16.245568990707397
v 48 2.4091720581054688 -16
v 52.835464000701904 2.87050199508667 -20.764221012592316
v 52.731033027172089 3.0443229675292969 -22.759196996688843
v 52.666106998920441 3.156682014465332 -24
v 53.847656011581421 3.1900100708007812 -24
v 54.666203022003174 3.1844980716705322 -24
v 54.725425958633423 3.043895959854126 -22.864515066146851
v 56 3.1492099761962891 -24
v 55.57577109336853 3.1552829742431641 -24
v 56 3.0949769020080566 -23.617849111557007
v 54.829413890838623 2.78072190284729 -20.869229972362518
v 56 2.9119939804077148 -22.170039892196655
v 56 2.7512359619140625 -20.930949985980988
v 56 3.0111660957336426 -22.931716918945312
v 54.933845996856689 2.6078770160675049 -18.874256014823914
v 55.038067102432251 2.3915750980377197 -16.879131078720093
v 56 2.5580430030822754 -18.930397033691406
v 56 2.6770539283752441 -20.059117998927832
v 56 2.4727029800415039 -17.913981914520264
v 53.083920001983643 2.273521900177002 -16
v 53.043529987335205 2.3627049922943115 -16.773714065551758
v 51.791325002908707 2.2791190147399902 -16
v 56 2.3675799369812012 -16.92985200881958
v 56 2.3289899826049805 -16.465739965438843
v 56 2.2913370132446289 -16.012898921966553
v 55.084000110626221 2.2984130382537842 -16
v 53.902855038642883 2.2879610061645508 -16
v 50.447700977325439 2.3197329044342041 -16
v 51.084011018276215 2.282181978225708 -16
v 56 2.2899758815765381 -16
vt 0 0
vt 0.18150399625301361 0.092674016952514648
vt 0 0.083166003227233887
vt 0.098072998225688934 0
vt 0 0.25601100921630859
vt 0.11668500304222107 0
vt 0.18639999628067017 0
vt 0.16829900443553925 0.34203100204467773
vt 0 0.333204984664917
vt 0.43082600831985474 0.10579997301101685
vt 0.33561998605728149 0
vt 0 0.49348902702331543
vt 0.54840600490570068 0
vt 0.680184006690979 0.11887401342391968
vt 0.6864590048789978 0
vt 0.43641999363899231 0
vt 0.41762501001358032 0.35515099763870239
vt 0.66699999570846558 0.36820000410079956
vt 0.81228601932525635 0
vt 0.93654298782348633 0
vt 0.92959797382354736 0.13186800479888916
vt 0.91645199060440063 0.38113999366760254
vt 0.65383702516555786 0.61749699711799622
vt 1 0.13555401563644409
vt 0.96930402517318726 0
vt 1 0
vt 0.4044719934463501 0.604433000087738
vt 0.15510000288486481 0.59137898683547974
vt 0 0.58326300978660583
vt 0 0.73095700144767761
vt 0 0.83327500522136688
vt 0.14193600416183472 0.84067800641059875
vt 0 1
vt 0 0.94697099924087524
vt 0.047768998891115189 1
vt 0.39134600758552551 0.85367700457572937
vt 0.2287449985742569 1
vt 0.38363099098205566 1
vt 0.1335349977016449 1
vt 0.64071798324584961 0.86673100292682648
vt 0.89010900259017944 0.87975800037384033
vt 0.63370001316070557 1
vt 0.49261000752449036 1
vt 0.76075202226638794 1
vt 1 0.63549000024795532
vt 0.90328598022460938 0.63044100999832153
vt 1 0.47391599416732788
vt 0.88376897573471069 1
vt 0.94178199768066406 1
vt 0.99838799238204956 1
vt 1 0.88549999892711639
vt 1 0.73785701394081116
vt 1 0.30596297979354858
vt 1 0.38550102710723877
vt 1 1
vn 0.0019150000298395753 0.99691498279571533 0.07846599817276001
vn -0.029791999608278275 0.99801599979400635 0.055470999330282211
vn -0.020909000188112259 0.99660497903823853 0.079636998474597931
vn 0.0016199999954551458 0.99689000844955444 0.078790999948978424
vn -0.039276998490095139 0.99651700258255 0.073556996881961823
vn 7.1000002208165824E-05 0.99675500392913818 0.0805009976029396
vn -0.0022929999977350235 0.99935102462768555 0.035941999405622482
vn -0.042302001267671585 0.99779999256134033 0.051047001034021378
vn -0.053557999432086945 0.99608397483825684 0.070340998470783234
vn -0.026812000200152397 0.99816298484802246 0.0543380007147789
vn -0.0092979995533823967 0.99931299686431885 0.035865001380443573
vn -0.042571999132633209 0.99548697471618652 0.084817998111248016
vn 0.0048000002279877663 0.99792498350143433 0.0642080008983612
vn 0.010139999911189079 0.99295502901077271 0.11806099861860275
vn 0.011899000033736229 0.9964979887008667 0.082769997417926788
vn -0.019193999469280243 0.99882298707962036 0.044541001319885254
vn -0.015602000057697296 0.99758899211883545 0.067622996866703033
vn -0.0055340002290904522 0.99341100454330444 0.11446999758481979
vn 0.031998999416828156 0.9929649829864502 0.11400400102138519
vn 0.050969000905752182 0.99144399166107178 0.12017399817705154
vn 0.035096000880002975 0.99249100685119629 0.11717700213193893
vn 0.010089999996125698 0.98834598064422607 0.15188699960708618
vn 0.022468000650405884 0.99118900299072266 0.13053600490093231
vn 0.039949998259544373 0.995851993560791 0.0817520022392273
vn 0.049100000411272049 0.99548399448394775 0.08124300092458725
vn 0.049100000411272049 0.99548399448394775 0.081242002546787262
vn 0.029442999511957169 0.9955589771270752 0.089411996304988861
vn -0.0096969995647668838 0.99646002054214478 0.083507999777793884
vn -0.030554000288248062 0.99531501531600952 0.091728001832962036
vn -0.013829999603331089 0.99444800615310669 0.10431600362062454
vn 0.01270699966698885 0.99242097139358521 0.12222400307655335
vn 0.026329999789595604 0.99294799566268921 0.1155880019068718
vn 0.014171999879181385 0.98997998237609863 0.1404930055141449
vn 0.030431000515818596 0.9919700026512146 0.12275800108909607
vn 0.03030800074338913 0.99195700883865356 0.12289199978113174
vn 0.040585998445749283 0.99325400590896606 0.10862699896097183
vn 0.0319410003721714 0.991159975528717 0.12876699864864349
vn 0.030851999297738075 0.99339002370834351 0.11056199669837952
vn 0.032175999134778976 0.99132198095321655 0.12745499610900879
vn 0.0488400012254715 0.99472397565841675 0.090217001736164093
vn 0.022316999733448029 0.99213099479675293 0.12320300191640854
vn 0.0514569990336895 0.99417400360107422 0.094708003103733063
vn 0.035590000450611115 0.99529397487640381 0.090134002268314362
vn 0.035870000720024109 0.99432599544525146 0.10014200210571289
vn -0.00023799999326001853 0.99342101812362671 0.11451999843120575
vn -0.0014240000164136291 0.98872697353363037 0.14972400665283203
vn 0.0043020001612603664 0.99343901872634888 0.11428499966859818
vn 0.03001599945127964 0.99466401338577271 0.098702996969223022
vn 0.029216000810265541 0.99613600969314575 0.082827001810073853
vn 0.028658999130129814 0.9961010217666626 0.083440996706485748
vn -0.0046410001814365387 0.99439597129821777 0.10561899840831757
vn -0.012369000352919102 0.99388200044631958 0.10975100100040436
vn 0.031870000064373016 0.99565398693084717 0.087503999471664429
vn 0.030020000413060188 0.99315202236175537 0.11291000247001648
vn 0.0091589996591210365 0.99444001913070679 0.10490299761295319
f 1/1/1 2/2/2 3/3/3
f 1/1/1 4/4/4 2/2/2
f 3/3/3 2/2/2 5/5/5
f 6/6/6 2/2/2 4/4/4
f 6/6/6 7/7/7 2/2/2
f 5/5/5 8/8/8 9/9/9
f 5/5/5 2/2/2 8/8/8
f 7/7/7 10/10/10 2/2/2
f 7/7/7 11/11/11 10/10/10
f 2/2/2 10/10/10 8/8/8
f 12/12/12 9/9/9 8/8/8
f 13/13/13 14/14/14 10/10/10
f 13/13/13 15/15/15 14/14/14
f 13/13/13 10/10/10 16/16/16
f 10/10/10 17/17/17 8/8/8
f 10/10/10 18/18/18 17/17/17
f 11/11/11 16/16/16 10/10/10
f 15/15/15 19/19/19 14/14/14
f 14/14/14 20/20/20 21/21/21
f 14/14/14 19/19/19 20/20/20
f 22/22/22 14/14/14 21/21/21
f 14/14/14 22/22/22 18/18/18
f 18/18/18 22/22/22 23/23/23
f 20/20/20 24/24/24 21/21/21
f 20/20/20 25/25/25 24/24/24
f 25/25/25 26/26/26 24/24/24
f 10/10/10 14/14/14 18/18/18
f 27/27/27 17/17/17 18/18/18
f 28/28/28 8/8/8 17/17/17
f 28/28/28 12/12/12 8/8/8
f 28/28/28 29/29/29 12/12/12
f 29/29/29 28/28/28 30/30/30
f 31/31/31 28/28/28 32/32/32
f 31/31/31 30/30/30 28/28/28
f 33/33/33 34/34/34 35/35/35
f 32/32/32 27/27/27 36/36/36
f 27/27/27 32/32/32 28/28/28
f 37/37/37 36/36/36 38/38/38
f 36/36/36 39/39/39 32/32/32
f 36/36/36 37/37/37 39/39/39
f 35/35/35 32/32/32 39/39/39
f 35/35/35 34/34/34 32/32/32
f 34/34/34 31/31/31 32/32/32
f 36/36/36 27/27/27 40/40/40
f 27/27/27 28/28/28 17/17/17
f 40/40/40 23/23/23 41/41/41
f 27/27/27 23/23/23 40/40/40
f 42/42/42 43/43/43 40/40/40
f 43/43/43 36/36/36 40/40/40
f 43/43/43 38/38/38 36/36/36
f 42/42/42 40/40/40 44/44/44
f 22/22/22 45/45/45 46/46/46
f 22/22/22 47/47/47 45/45/45
f 23/23/23 46/46/46 41/41/41
f 41/41/41 44/44/44 40/40/40
f 41/41/41 48/48/48 44/44/44
f 48/48/48 41/41/41 49/49/49
f 49/49/49 41/41/41 50/50/50
f 46/46/46 51/51/51 41/41/41
f 46/46/46 52/52/52 51/51/51
f 46/46/46 23/23/23 22/22/22
f 23/23/23 27/27/27 18/18/18
f 21/21/21 53/53/53 22/22/22
f 21/21/21 24/24/24 53/53/53
f 54/54/54 22/22/22 53/53/53
f 52/52/52 46/46/46 45/45/45
f 55/55/55 41/41/41 51/51/51
f 55/55/55 50/50/50 41/41/41
f 54/54/54 47/47/47 22/22/22
