mtllib m30000220.mtl
usemtl material0
v 0 5.7662148475646973 -107.98066711425781
v 0 5.752720832824707 -105.60840594768524
v 2.2404627799987793 5.6925292015075684 -108.09874677658081
v 0 5.722567081451416 -103.98064400069416
v 0 5.664039134979248 -101.3857729434967
v 2.4506220817565918 5.6086578369140625 -104.10969500243664
v 0 5.8314027786254883 -109.83105516433716
v 1.9514279365539551 5.8400101661682129 -112
v 0 5.9268760681152344 -111.9390869140625
v 0 5.9268760681152344 -111.9390869140625
v 0.35939598083496094 5.9131278991699219 -112
v 0 5.9287781715393066 -111.98107099533081
v 0.37556219100952148 5.4988870620727539 -96
v 2.7525539398193359 5.4443550109863281 -96
v 2.870966911315918 5.4467611312866211 -96.131607055664062
v 0 5.5184001922607422 -97.163260936737061
v 2.6606121063232422 5.490602970123291 -100.12052202224731
v 0 5.6263279914855957 -99.980453014373779
v 0 5.9298501014709473 -112
v 0 5.9287781715393066 -111.98107099533081
v 2.0352492332458496 5.8370981216430664 -112
v 5.750230073928833 5.5741820335388184 -112
v 6.2276359796524048 5.363609790802002 -108.30824279785156
v 0 5.8298859596252441 -109.78801012039185
v 0 5.8314027786254883 -109.83105516433716
v 2.8778810501098633 5.4401440620422363 -96
v 6.647631049156189 5.1304349899291992 -100.32991003990173
v 6.5512319803237915 5.110321044921875 -96
v 6.85804295539856 5.0983099937438965 -96.341033935546875
v 6.4371060132980347 5.1396050453186035 -104.31870299577713
v 0 5.5069270133972168 -96
v 10.215431928634644 5.1616368293762207 -108.51817321777344
v 10.424642086029053 4.8848981857299805 -104.52845799922943
v 6.0336949825286865 5.5501108169555664 -112
v 9.5491609573364258 5.380828857421875 -112
v 6.87601900100708 5.0929341316223145 -96
v 10.349859952926636 4.7491040229797363 -96
v 10.844902992248535 4.7059111595153809 -96.5503158569336
v 10.634689092636108 4.778562068939209 -100.53933000564575
v 10.032608985900879 5.3550009727478027 -112
v 14.030695915222168 4.9978008270263672 -112
v 10.569633007049561 5.311488151550293 -112
v 14.202683925628662 4.8493099212646484 -108.72772979736328
v 16 4.7047791481018066 -108.82217407226563
v 14.412000179290772 4.59405517578125 -104.73808300495148
v 16 4.5665740966796875 -106.5031590461731
v 16 4.81286096572876 -110.72547101974487
v 16 4.8662219047546387 -112
v 14.621570110321045 4.3905529975891113 -100.74861907958984
v 16 4.4663558006286621 -104.82153302431107
v 16 4.3861169815063477 -103.30773198604584
v 10.873955965042114 4.7062621116638184 -96
v 14.148293018341065 4.2793431282043457 -96
v 14.831127166748047 4.1846041679382324 -96.759140014648438
v 16 4.2709240913391113 -100.82102203369141
v 16 4.141261100769043 -98.058403015136719
v 14.871189117431641 4.1818342208862305 -96
v 16 4.0793728828430176 -96
v 16 4.0788311958312988 -96.474349975585938
v 16 4.0784358978271484 -96.820526123046875
vt 0.72210901975631714 0.0092890262603759766
vt 0.57977801561355591 0.014248013496398926
vt 0.73385399580001831 0.14353799819946289
vt 0.48210200667381287 0.017701983451843262
vt 0.32638201117515564 0.023238003253936768
vt 0.4949209988117218 0.16462600231170654
vt 0.833191990852356 0.0053070187568664551
vt 0.96745401620864868 0.11779099702835083
vt 0.95979100465774536 0.00071799755096435547
vt 0.95979100465774536 0.00071799755096435547
vt 0.96418601274490356 0.0221710205078125
vt 0.96231198310852051 0.00062602758407592773
vt 0.0038970001041889191 0.057407975196838379
vt 0.00889899954199791 0.20005702972412109
vt 0.017017999663949013 0.20650899410247803
vt 0.072901003062725067 0.032405972480773926
vt 0.25593799352645874 0.18580502271652222
vt 0.24203899502754211 0.026253998279571533
vt 0.963450014591217 0.000585019588470459
vt 0.96231198310852051 0.00062602758407592773
vt 0.967628002166748 0.12282299995422363
vt 0.97509002685546875 0.34627997875213623
vt 0.75455200672149658 0.38315200805664062
vt 0.83060801029205322 0.0054000020027160645
vt 0.833191990852356 0.0053070187568664551
vt 0.0091279996559023857 0.20721900463104248
vt 0.2764270007610321 0.42558902502059937
vt 0.0164209995418787 0.42851001024246216
vt 0.037510998547077179 0.44623398780822754
vt 0.51533997058868408 0.40505999326705933
vt 0.0031059999018907547 0.034870028495788574
vt 0.77580100297927856 0.62224900722503662
vt 0.53639698028564453 0.644338995218277
vt 0.97588098049163818 0.36331099271774292
vt 0.98319399356842041 0.5744749903678894
vt 0.017085000872612 0.44802397489547729
vt 0.024167999625205994 0.6574769914150238
vt 0.058240000158548355 0.68668800592422485
vt 0.2971319854259491 0.66531199216842651
vt 0.98458999395370483 0.60343199968338013
vt 0.99275600910186768 0.84412999451160431
vt 0.98578900098800659 0.63561499118804932
vt 0.79663002490997314 0.86177599430084229
vt 0.80600601434707642 0.96976600028574467
vt 0.55730700492858887 0.8837679997086525
vt 0.66664797067642212 0.97522399947047234
vt 0.92036497592926025 0.96531400084495544
vt 0.99689400196075439 0.9624600000679493
vt 0.31815299391746521 0.90553499758243561
vt 0.56559199094772339 0.97918099910020828
vt 0.47466498613357544 0.98270300030708313
vt 0.024979999288916588 0.68903499841690063
vt 0.031906001269817352 0.887642003595829
vt 0.078838996589183807 0.92747899889945984
vt 0.32532799243927 0.9884019996970892
vt 0.15931600332260132 0.99484500009566545
vt 0.033371001482009888 0.93140800297260284
vt 0.03564000129699707 0.99941500002751127
vt 0.064194001257419586 0.99848800001200289
vt 0.084963999688625336 0.99776900000870228
vn 0.033914998173713684 0.99922597408294678 0.019950000569224358
vn 0.044077001512050629 0.99890798330307007 0.015510999597609043
vn 0.058922000229358673 0.99792802333831787 0.025862999260425568
vn 0.047502998262643814 0.99865901470184326 0.020578000694513321
vn 0.051229998469352722 0.99835401773452759 0.025792000815272331
vn 0.07916799932718277 0.9965519905090332 0.02484700083732605
vn 0.045832999050617218 0.99792599678039551 0.04519600048661232
vn 0.037673000246286392 0.99857300519943237 0.037857998162508011
vn 0.045832999050617218 0.99792599678039551 0.04519600048661232
vn 0.045832999050617218 0.99792599678039551 0.045198999345302582
vn 0.0458419993519783 0.99791699647903442 0.045382000505924225
vn 0.045834001153707504 0.99792599678039551 0.045200001448392868
vn 0.021429000422358513 0.99971699714660645 0.010346000082790852
vn 0.025758000090718269 0.99880897998809814 0.041429001837968826
vn 0.0569549985229969 0.99804002046585083 0.025916000828146935
vn 0.028767000883817673 0.99945002794265747 0.01648700051009655
vn 0.070992998778820038 0.99733400344848633 0.016863999888300896
vn 0.052636001259088516 0.99807798862457275 0.032694000750780106
vn 0.0464010015130043 0.99732500314712524 0.056478999555110931
vn 0.0464010015130043 0.99732500314712524 0.056478999555110931
vn 0.0520160011947155 0.9980589747428894 0.034247998148202896
vn 0.0807960033416748 0.99582499265670776 0.042479000985622406
vn 0.072470001876354218 0.99632799625396729 0.045584000647068024
vn 0.03470199927687645 0.99877798557281494 0.035186000168323517
vn 0.034699998795986176 0.99877798557281494 0.035183999687433243
vn 0.062449999153614044 0.9969480037689209 0.046845000237226486
vn 0.085763998329639435 0.99630701541900635 0.0040290001779794693
vn 0.079781003296375275 0.99613702297210693 0.0366940014064312
vn 0.087624996900558472 0.9960709810256958 0.01280600018799305
vn 0.086776003241539 0.99579000473022461 0.029528999701142311
vn 0.021402999758720398 0.99972200393676758 0.0098590003326535225
vn 0.0688600018620491 0.99600100517272949 0.056928001344203949
vn 0.077160000801086426 0.99608802795410156 0.043074000626802444
vn 0.066938996315002441 0.99665701389312744 0.04683300107717514
vn 0.051876001060009 0.99733400344848633 0.0513250008225441
vn 0.076760001480579376 0.99698102474212646 0.011672000400722027
vn 0.093965001404285431 0.99555498361587524 0.0063880002126097679
vn 0.10816299915313721 0.99409002065658569 0.0092120002955198288
vn 0.094475001096725464 0.99539697170257568 0.016092000529170036
vn 0.0664839968085289 0.99643999338150024 0.051846999675035477
vn 0.0788239985704422 0.99604302644729614 0.04105599969625473
vn 0.08287300169467926 0.99537497758865356 0.04857800155878067
vn 0.080458998680114746 0.99528902769088745 0.054094001650810242
vn 0.083042003214359283 0.9948660135269165 0.057851001620292664
vn 0.079940997064113617 0.99534600973129272 0.053819000720977783
vn 0.0831110030412674 0.99477499723434448 0.0592849999666214
vn 0.070442996919155121 0.996491014957428 0.045194998383522034
vn 0.0666079968214035 0.99690598249435425 0.04173700138926506
vn 0.094756998121738434 0.99474000930786133 0.038897998631000519
vn 0.08296000212430954 0.99497199058532715 0.056116998195648193
vn 0.087182000279426575 0.99504202604293823 0.047864001244306564
vn 0.10620699822902679 0.99432498216629028 -0.0062400000169873238
vn 0.13044999539852142 0.99143397808074951 -0.0063910000026226044
vn 0.11117400228977203 0.99356698989868164 0.021555999293923378
vn 0.088785998523235321 0.99497002363204956 0.046385001391172409
vn 0.089778997004032135 0.99482399225234985 0.047582000494003296
vn 0.11133500188589096 0.99378001689910889 -0.0022499999031424522
vn 0.090397998690605164 0.99590498208999634 -0.00113800005055964
vn 0.090397998690605164 0.99590498208999634 -0.00113800005055964
vn 0.091755002737045288 0.99545502662658691 0.025496000424027443
f 1/1/1 2/2/2 3/3/3
f 4/4/4 5/5/5 6/6/6
f 7/7/7 8/8/8 9/9/9
f 10/10/10 11/11/11 12/12/12
f 10/10/10 8/8/8 11/11/11
f 13/13/13 14/14/14 15/15/15
f 16/16/16 17/17/17 18/18/18
f 19/19/19 20/20/20 11/11/11
f 3/3/3 4/4/4 6/6/6
f 3/3/3 2/2/2 4/4/4
f 21/21/21 3/3/3 22/22/22
f 6/6/6 23/23/23 3/3/3
f 6/6/6 18/18/18 17/17/17
f 6/6/6 5/5/5 18/18/18
f 21/21/21 1/1/1 3/3/3
f 21/21/21 24/24/24 1/1/1
f 24/24/24 8/8/8 25/25/25
f 24/24/24 21/21/21 8/8/8
f 26/26/26 15/15/15 14/14/14
f 15/15/15 27/27/27 17/17/17
f 15/15/15 28/28/28 29/29/29
f 15/15/15 26/26/26 28/28/28
f 6/6/6 17/17/17 30/30/30
f 17/17/17 13/13/13 15/15/15
f 17/17/17 31/31/31 13/13/13
f 17/17/17 16/16/16 31/31/31
f 30/30/30 23/23/23 6/6/6
f 32/32/32 23/23/23 30/30/30
f 33/33/33 30/30/30 27/27/27
f 17/17/17 27/27/27 30/30/30
f 34/34/34 23/23/23 35/35/35
f 23/23/23 22/22/22 3/3/3
f 23/23/23 34/34/34 22/22/22
f 36/36/36 29/29/29 28/28/28
f 29/29/29 37/37/37 38/38/38
f 29/29/29 36/36/36 37/37/37
f 29/29/29 39/39/39 27/27/27
f 27/27/27 15/15/15 29/29/29
f 35/35/35 32/32/32 40/40/40
f 35/35/35 23/23/23 32/32/32
f 41/41/41 42/42/42 43/43/43
f 27/27/27 39/39/39 33/33/33
f 32/32/32 33/33/33 43/43/43
f 44/44/44 45/45/45 46/46/46
f 44/44/44 43/43/43 45/45/45
f 40/40/40 43/43/43 42/42/42
f 40/40/40 32/32/32 43/43/43
f 47/47/47 43/43/43 44/44/44
f 45/45/45 43/43/43 33/33/33
f 47/47/47 41/41/41 43/43/43
f 47/47/47 48/48/48 41/41/41
f 45/45/45 33/33/33 49/49/49
f 30/30/30 33/33/33 32/32/32
f 50/50/50 46/46/46 45/45/45
f 50/50/50 45/45/45 51/51/51
f 37/37/37 52/52/52 38/38/38
f 39/39/39 38/38/38 49/49/49
f 53/53/53 38/38/38 52/52/52
f 53/53/53 54/54/54 38/38/38
f 38/38/38 54/54/54 49/49/49
f 55/55/55 54/54/54 56/56/56
f 55/55/55 49/49/49 54/54/54
f 57/57/57 54/54/54 53/53/53
f 33/33/33 39/39/39 49/49/49
f 58/58/58 54/54/54 57/57/57
f 58/58/58 59/59/59 54/54/54
f 59/59/59 60/60/60 54/54/54
f 60/60/60 56/56/56 54/54/54
f 51/51/51 49/49/49 55/55/55
f 51/51/51 45/45/45 49/49/49
f 29/29/29 38/38/38 39/39/39
