mtllib m300310.mtl
usemtl material0
v 384 5.6924071311950684 -320
v 384 4.75017786026001 -308.60830688476562
v 394.25225830078125 6.4304189682006836 -320
v 384 3.4100139141082764 -292.71984910964966
v 384 3.4023458957672119 -292.2462158203125
v 384.49716186523438 3.4000749588012695 -292.2724609375
v 384 3.3668150901794434 -291.7199399471283
v 384 4.1701908111572266 -301.7662353515625
v 400.46450805664062 5.8168320655822754 -293.12353515625
v 384 4.7172970771789551 -307.9276123046875
v 385.33547973632812 2.6083109378814697 -276.31460571289062
v 384 2.5899310111999512 -276.24404907226562
v 384 4.7318501472473145 -308.25009155273438
v 399.62539672851562 6.4469032287597656 -309.080810546875
v 399.05154418945312 6.9441370964050293 -320
v 409.45040893554688 6.9650349617004395 -320
v 415.05203199386597 7.1035089492797852 -320
v 415.58267199993134 6.8626461029052734 -309.92483520507812
v 424.6466064453125 6.4685587882995605 -320
v 401.30416870117188 5.300940990447998 -277.16665554046631
v 416.42330899834633 6.5382328033447266 -293.9686279296875
v 432.37368774414062 5.5842971801757812 -294.80783081054688
v 417.26101696491241 5.6327009201049805 -278.0103759765625
v 386.1722412109375 1.5161839723587036 -260.35574340820312
v 448 5.5314540863037109 -312.17617797851562
v 447.04461669921875 5.8079099655151367 -320
v 447.48629760742188 5.5245118141174316 -311.605224609375
v 448 5.7862391471862793 -320
v 438.158935546875 5.9028439521789551 -320
v 431.53323364257812 5.9458179473876953 -310.76416015625
v 448 5.4071130752563477 -295.94482421875
v 448 5.4002470970153809 -295.63241577148438
v 433.21368408203125 5.1338348388671875 -278.85116577148438
v 448 5.3906879425048828 -295.28524780273438
v 448 5.4463047981262207 -301.86624145507812
v 448 5.4713468551635742 -311.14260864257812
v 448 4.910801887512207 -279.63128662109375
v 431.04644775390625 6.0962491035461426 -320
v 418.09866309165955 4.7153749465942383 -262.05209350585938
v 402.13937377929688 3.8919260501861572 -261.20663452148438
v 384 2.4976649284362793 -274.83050537109375
v 434.05355834960938 4.6549777984619141 -262.89443969726562
v 448 4.8747859001159668 -278.39511108398438
v 384 1.423799991607666 -257.9415283203125
v 384 1.4943300485610962 -260.240966796875
v 397.45309448242188 2.9138920307159424 -256
v 386.40109252929688 1.302827000617981 -256
v 412.65206909179688 3.9122569561004639 -256
v 402.41183471679688 3.4330329895019531 -256
v 418.41803002357483 4.6883587837219238 -256
v 384 1.3298460245132446 -256
v 434.41714477539062 4.5872788429260254 -256
v 427.8505859375 4.6505341529846191 -256
v 448 3.4340720176696777 -256
v 448 3.7524940967559814 -261.5062255859375
v 443.04653930664062 4.0343971252441406 -256
v 448 3.7661590576171875 -263.62802124023438
v 448 3.7604351043701172 -262.73928833007812
v 448 5.5123271942138672 -311.63232421875
vt 0.99340200424194336 0.0081380009651184082
vt 0.81669998168945312 0.0070919990539550781
vt 0.99340200424194336 0.16703701019287109
vt 0.57020801305770874 0.0052549839019775391
vt 0.56288498640060425 0.0052120089530944824
vt 0.56324601173400879 0.012899994850158691
vt 0.55472499132156372 0.0051749944686889648
vt 0.71054399013519287 0.0063030123710632324
vt 0.57767301797866821 0.26248002052307129
vt 0.80616497993469238 0.0070629715919494629
vt 0.3166239857673645 0.024709999561309814
vt 0.315185010433197 0.0040799975395202637
vt 0.81115502119064331 0.0070750117301940918
vt 0.82457602024078369 0.25004702806472778
vt 0.99357402324676514 0.24165302515029907
vt 0.99313497543334961 0.40240800380706787
vt 0.99296802282333374 0.48903000354766846
vt 0.83715099096298218 0.49683797359466553
vt 0.992372989654541 0.63767498731613159
vt 0.33084401488304138 0.27499699592590332
vt 0.59064000844955444 0.5094430148601532
vt 0.60295599699020386 0.75649300217628479
vt 0.34351199865341187 0.52174600958824158
vt 0.06924699991941452 0.0357319712638855
vt 0.87105798721313477 0.99825099995359778
vt 0.99208599328994751 0.98351499997079372
vt 0.86223500967025757 0.99030499998480082
vt 0.99207001924514771 0.9982880000025034
vt 0.9916120171546936 0.84676800668239594
vt 0.84917300939559937 0.74387198686599731
vt 0.62013101577758789 0.99810399999842048
vt 0.61529999971389771 0.99809799995273352
vt 0.35572400689125061 0.76851800084114075
vt 0.6093670129776001 0.99758900003507733
vt 0.711670994758606 0.99815899995155632
vt 0.85507500171661377 0.99828099994920194
vt 0.36726000905036926 0.99715199996717274
vt 0.99198997020721436 0.73677599430084229
vt 0.096378996968269348 0.53416100144386292
vt 0.0831189975142479 0.2871289849281311
vt 0.29328900575637817 0.0044320225715637207
vt 0.10880199819803238 0.78083999454975128
vt 0.34797099232673645 0.99696899997070432
vt 0.032150998711586 0.0018720030784606934
vt 0.067712999880313873 0.0021380186080932617
vt 0.0022249999456107616 0.2115749716758728
vt 0.0018129999516531825 0.038917005062103271
vt 0.0023910000454634428 0.44952601194381714
vt 0.0023030000738799572 0.2910500168800354
vt 0.0028389999642968178 0.53946501016616821
vt 0.0021019999403506517 0.0017120242118835449
vt 0.0025919999461621046 0.78679999709129334
vt 0.0026010000146925449 0.68528300523757935
vt 0.0014250000240281224 0.99760699993930757
vt 0.086687996983528137 0.99758399999700487
vt 0.0019409999949857593 0.920473001897335
vt 0.11904499679803848 0.99692999990656972
vt 0.10575000196695328 0.99766999995335937
vt 0.862671971321106 0.99824800004716963
vn -0.071556001901626587 0.99404197931289673 0.082218997180461884
vn -0.098236002027988434 0.99346399307250977 0.058122999966144562
vn -0.097088001668453217 0.99351602792739868 0.059163998812437057
vn -0.039161998778581619 0.99707299470901489 0.0656680017709732
vn 0.0068140001967549324 0.99906700849533081 0.042642001062631607
vn -0.079502999782562256 0.99482101202011108 0.063330002129077911
vn -0.00662099989131093 0.998511016368866 0.054149001836776733
vn -0.14304199814796448 0.98584502935409546 0.087459996342659
vn -0.091891996562480927 0.99462097883224487 0.04780999943614006
vn -0.11689600348472595 0.99154400825500488 0.05636100098490715
vn -0.084421001374721527 0.99458599090576172 0.060586001724004745
vn -0.010680999606847763 0.99826598167419434 0.057888999581336975
vn -0.10647399723529816 0.99317002296447754 0.0477060005068779
vn -0.065122000873088837 0.99704599380493164 0.04071500152349472
vn -0.055884998291730881 0.99726599454879761 0.048349998891353607
vn -0.018650000914931297 0.9993559718132019 0.030640000477433205
vn 0.019145000725984573 0.99955499172210693 0.022887999191880226
vn 0.018004000186920166 0.99962800741195679 0.02050199918448925
vn 0.06019200012087822 0.99807202816009521 0.015111999586224556
vn -0.0906900018453598 0.9937400221824646 0.06523200124502182
vn 0.014655999839305878 0.999206006526947 0.037052001804113388
vn 0.033305998891592026 0.99908202886581421 0.0269399993121624
vn 0.0079730004072189331 0.99835002422332764 0.056873999536037445
vn -0.075373999774456024 0.995199978351593 0.062412001192569733
vn 0.023337999358773232 0.99917799234390259 0.033146001398563385
vn 0.016468999907374382 0.99932402372360229 0.03286999836564064
vn 0.033557001501321793 0.99907499551773071 0.026892000809311867
vn 0.022664999589323997 0.99921298027038574 0.032540000975131989
vn 0.023330999538302422 0.99954497814178467 0.019123999401926994
vn 0.040881000459194183 0.99904400110244751 0.015472999773919582
vn 0.0166190005838871 0.999701976776123 0.01787400059401989
vn 0.013074000366032124 0.9996110200881958 0.024652000516653061
vn 0.020992999896407127 0.99927198886871338 0.03184099867939949
vn 0.014032999984920025 0.99950200319290161 0.028247000649571419
vn 0.027994999662041664 0.99958699941635132 0.0065500000491738319
vn 0.081339001655578613 0.99639302492141724 0.024186000227928162
vn 0.016652999445796013 0.99941402673721313 0.029903000220656395
vn 0.0431549996137619 0.99896997213363647 0.013996000401675701
vn -0.028748000040650368 0.99880897998809814 0.03942900151014328
vn -0.086186997592449188 0.99277597665786743 0.083467997610569
vn -0.0073150000534951687 0.99767202138900757 0.067798003554344177
vn 0.029555000364780426 0.99928098917007446 0.023749999701976776
vn 0.028478000313043594 0.99880200624465942 0.039785999804735184
vn 0.0066530001349747181 0.99900001287460327 0.044213999062776566
vn -0.0074590002186596394 0.99877101182937622 0.048997998237609863
vn -0.13338400423526764 0.98888397216796875 0.065701998770236969
vn -0.069022998213768 0.99623697996139526 0.052425000816583633
vn -0.0696989968419075 0.99515599012374878 0.069333001971244812
vn -0.074323996901512146 0.99303597211837769 0.0914120003581047
vn -0.062555998563766479 0.99801099300384521 0.00775599991902709
vn 0.011238999664783478 0.99876797199249268 0.048331998288631439
vn 0.037714999169111252 0.99925798177719116 0.0078229997307062149
vn 0.0055100000463426113 0.9999690055847168 0.0056019998155534267
vn 0.1201149970293045 0.991104006767273 0.057314999401569366
vn 0.077164001762866974 0.996849000453949 0.018381999805569649
vn 0.078979998826980591 0.99667501449584961 0.020023999735713005
vn 0.065728999674320221 0.99696701765060425 0.041668001562356949
vn 0.0639370009303093 0.99793297052383423 0.0064269998110830784
vn 0.026757000014185905 0.99792999029159546 0.05847800150513649
f 1/1/1 2/2/2 3/3/3
f 4/4/4 5/5/5 6/6/6
f 5/5/5 7/7/7 6/6/6
f 4/4/4 6/6/6 8/8/8
f 8/8/8 9/9/9 10/10/10
f 8/8/8 6/6/6 9/9/9
f 11/11/11 9/9/9 6/6/6
f 12/12/12 6/6/6 7/7/7
f 12/12/12 11/11/11 6/6/6
f 13/13/13 3/3/3 2/2/2
f 13/13/13 14/14/14 3/3/3
f 14/14/14 15/15/15 3/3/3
f 15/15/15 14/14/14 16/16/16
f 17/17/17 14/14/14 18/18/18
f 17/17/17 16/16/16 14/14/14
f 17/17/17 18/18/18 19/19/19
f 20/20/20 9/9/9 11/11/11
f 9/9/9 20/20/20 21/21/21
f 9/9/9 21/21/21 14/14/14
f 21/21/21 22/22/22 18/18/18
f 23/23/23 22/22/22 21/21/21
f 23/23/23 21/21/21 20/20/20
f 18/18/18 14/14/14 21/21/21
f 11/11/11 24/24/24 20/20/20
f 10/10/10 14/14/14 13/13/13
f 10/10/10 9/9/9 14/14/14
f 25/25/25 26/26/26 27/27/27
f 25/25/25 28/28/28 26/26/26
f 26/26/26 29/29/29 27/27/27
f 22/22/22 30/30/30 18/18/18
f 31/31/31 22/22/22 32/32/32
f 31/31/31 30/30/30 22/22/22
f 32/32/32 33/33/33 34/34/34
f 32/32/32 22/22/22 33/33/33
f 33/33/33 22/22/22 23/23/23
f 31/31/31 27/27/27 30/30/30
f 31/31/31 35/35/35 27/27/27
f 35/35/35 36/36/36 27/27/27
f 37/37/37 34/34/34 33/33/33
f 29/29/29 30/30/30 27/27/27
f 29/29/29 38/38/38 30/30/30
f 23/23/23 39/39/39 33/33/33
f 30/30/30 19/19/19 18/18/18
f 30/30/30 38/38/38 19/19/19
f 20/20/20 40/40/40 23/23/23
f 12/12/12 41/41/41 11/11/11
f 37/37/37 42/42/42 43/43/43
f 37/37/37 33/33/33 42/42/42
f 44/44/44 24/24/24 45/45/45
f 24/24/24 46/46/46 40/40/40
f 24/24/24 47/47/47 46/46/46
f 48/48/48 40/40/40 49/49/49
f 48/48/48 39/39/39 40/40/40
f 40/40/40 39/39/39 23/23/23
f 49/49/49 40/40/40 46/46/46
f 20/20/20 24/24/24 40/40/40
f 48/48/48 50/50/50 39/39/39
f 44/44/44 47/47/47 24/24/24
f 44/44/44 51/51/51 47/47/47
f 52/52/52 42/42/42 53/53/53
f 50/50/50 42/42/42 39/39/39
f 50/50/50 53/53/53 42/42/42
f 54/54/54 55/55/55 56/56/56
f 52/52/52 57/57/57 42/42/42
f 52/52/52 58/58/58 57/57/57
f 58/58/58 56/56/56 55/55/55
f 58/58/58 52/52/52 56/56/56
f 43/43/43 42/42/42 57/57/57
f 33/33/33 39/39/39 42/42/42
f 11/11/11 45/45/45 24/24/24
f 11/11/11 41/41/41 45/45/45
f 25/25/25 27/27/27 59/59/59
f 36/36/36 59/59/59 27/27/27
