mtllib m3000332.mtl
usemtl material0
v 192 3.3734469413757324 -256
v 192 3.3612639904022217 -255.67445373535156
v 192.29287719726563 3.3518500328063965 -256
v 192 3.0598189830780029 -247.22944593429565
v 194.71725463867188 2.8909831047058105 -250.24993896484375
v 192 3.1088058948516846 -250.10716247558594
v 194.41517639160156 3.1766641139984131 -256
v 192 3.2879641056060791 -254.05802917480469
v 199.89065647125244 2.9202749729156494 -256
v 192 3.0164670944213867 -242.10710096359253
v 195.13790893554688 2.7933690547943115 -242.27207899093628
v 202.69293212890625 2.5100080966949463 -250.66987609863281
v 202.41301012039185 2.7930879592895508 -256
v 207.48870801925659 2.6415650844573975 -256
v 203.11402893066406 2.5007719993591309 -242.69233703613281
v 192 3.0224740505218506 -237.49842810630798
v 195.55894470214844 2.773859977722168 -234.29449510574341
v 192 2.9617230892181396 -234.10716199874878
v 192 3.0994620323181152 -230.33815002441406
v 192 3.37231707572937 -224
v 193.89645385742188 3.3029038906097412 -224
v 192 3.3550500869750977 -224.61109924316406
v 195.98200988769531 3.1610629558563232 -226.31832885742188
v 192 3.3127379417419434 -226.10853576660156
v 203.5365138053894 2.7708079814910889 -234.71575880050659
v 211.0933530330658 2.852186918258667 -243.11483788490295
v 203.96286010742188 3.8191320896148682 -226.74191284179688
v 211.5225830078125 4.48010778427124 -235.14303588867188
v 204.10935997962952 4.1577692031860352 -224
v 198.56329345703125 3.665503978729248 -224
v 196.10545253753662 3.3667290210723877 -224
v 209.095734000206 4.4959931373596191 -224
v 211.94288611412048 4.3097038269042969 -227.1649169921875
v 210.66983008384705 2.3736400604248047 -251.09068298339844
v 210.4117579460144 2.5851089954376221 -256
v 215.08743286132813 2.7421619892120361 -256
v 222.68753147125244 3.5843219757080078 -256
v 218.41372680664063 3.0034389495849609 -256
v 218.65054321289063 3.0023739337921143 -251.51416015625
v 224 3.4841580390930176 -254.60389709472656
v 224 3.1996510028839111 -251.79730224609375
v 224 3.6256809234619141 -256
v 219.07955932617188 4.5858821868896484 -243.54220604896545
v 224 4.4201240539550781 -246.71263122558594
v 219.50885009765625 6.2250328063964844 -235.57043504714966
v 224 4.9837422370910645 -243.80332899093628
v 224 5.633965015411377 -240.56341600418091
v 219.92723083496094 5.6693830490112305 -227.59095764160156
v 212.11015319824219 4.34824800491333 -224
v 220.115966796875 5.5087361335754395 -224
v 216.69544982910156 5.1298661231994629 -224
v 224 6.47930383682251 -232.1160888671875
v 224 6.7587141990661621 -235.809326171875
v 224 6.3955349922180176 -227.80838012695313
v 224 6.2980380058288574 -226.00143432617188
v 224 6.1900491714477539 -224
vt 0.99755698442459106 0.00050997734069824219
vt 0.98752701282501221 0.00053697824478149414
vt 0.99755698442459106 0.009552001953125
vt 0.72732102870941162 0.0012090206146240234
vt 0.82030802965164185 0.085048019886016846
vt 0.81593698263168335 0.0011150240898132324
vt 0.99753397703170776 0.0751190185546875
vt 0.93770700693130493 0.00070500373840332031
vt 0.99774998426437378 0.24389100074768066
vt 0.569599986076355 0.0012729763984680176
vt 0.5746610164642334 0.09813302755355835
vt 0.83352500200271606 0.33087998628616333
vt 0.99783599376678467 0.32165199518203735
vt 0.99817198514938354 0.4779999852180481
vt 0.58775901794433594 0.34387099742889404
vt 0.42770099639892578 0.0012329816818237305
vt 0.32903200387954712 0.11105901002883911
vt 0.32326900959014893 0.0013279914855957031
vt 0.20714500546455383 0.0011039972305297852
vt 0.011806000024080277 0.000635981559753418
vt 0.01168499980121851 0.05906599760055542
vt 0.030628999695181847 0.000693976879119873
vt 0.083155997097492218 0.12400102615356445
vt 0.07675199955701828 0.00077402591705322266
vt 0.34190800786018372 0.356689989566803
vt 0.600354015827179 0.58981099724769592
vt 0.094329997897148132 0.37065398693084717
vt 0.350057989358902 0.60835900902748108
vt 0.0092789996415376663 0.37539297342300415
vt 0.010641000233590603 0.20396602153778076
vt 0.011491999961435795 0.12773799896240234
vt 0.0084349997341632843 0.52927199006080627
vt 0.10376399755477905 0.61698299646377563
vt 0.84635502099990845 0.576528012752533
vt 0.99764102697372437 0.56838798522949219
vt 0.99803799390792847 0.71243000030517578
vt 0.99957001209259033 0.94774600118398666
vt 0.99883401393890381 0.81495000422000885
vt 0.86075502634048462 0.82293599843978882
vt 0.95636099576950073 0.98803600016981363
vt 0.871845006942749 0.9876129999756813
vt 0.99956697225570679 0.98817699961364269
vt 0.610850989818573 0.84155499935150146
vt 0.7108910083770752 0.99155000038445
vt 0.35925599932670593 0.8602290004491806
vt 0.61967098712921143 0.99350399989634752
vt 0.51682597398757935 0.99534999998286366
vt 0.11299899965524674 0.86653099954128265
vt 0.0074809999205172062 0.62219101190567017
vt 0.0022229999303817749 0.86988599598407745
vt 0.0040179998613893986 0.76394100487232208
vt 0.25034898519515991 0.99650599993765354
vt 0.3664659857749939 0.99949000001652166
vt 0.11771500110626221 0.993995999917388
vt 0.062125001102685928 0.99277199991047382
vt 0.00042999998549930751 0.99128600023686886
vn 0.073490001261234283 0.9965980052947998 0.037296999245882034
vn 0.080150000751018524 0.99584102630615234 0.043310999870300293
vn 0.079861998558044434 0.9958760142326355 0.043051999062299728
vn 0.073562003672122955 0.99723601341247559 0.010435000061988831
vn 0.063749000430107117 0.99754297733306885 0.02906700037419796
vn 0.081467002630233765 0.99620598554611206 0.030611999332904816
vn 0.065087996423244476 0.99681401252746582 0.046105001121759415
vn 0.08218199759721756 0.99559402465820312 0.04514700174331665
vn 0.049341000616550446 0.99755597114562988 0.049474999308586121
vn 0.0710970014333725 0.99746400117874146 0.0034090001136064529
vn 0.055335000157356262 0.998462975025177 0.0030249999836087227
vn 0.03359600156545639 0.99911201000213623 0.025443999096751213
vn 0.040405001491308212 0.9978870153427124 0.050875000655651093
vn 0.02210099995136261 0.99876302480697632 0.04453599825501442
vn -0.0015780000248923898 0.99981099367141724 -0.019356999546289444
vn 0.066262997686862946 0.9977949857711792 0.0038199999835342169
vn 0.03021400049328804 0.9992300271987915 -0.025040000677108765
vn 0.052173998206853867 0.99858599901199341 -0.010214000009000301
vn 0.038954999297857285 0.99813002347946167 -0.047102998942136765
vn 0.0365619994699955 0.99893301725387573 -0.028226999565958977
vn 0.019101999700069427 0.998852014541626 -0.043928001075983047
vn 0.0365619994699955 0.99893301725387573 -0.02822599932551384
vn -0.027528999373316765 0.99689900875091553 -0.07372099906206131
vn 0.0359870009124279 0.99859499931335449 -0.038899999111890793
vn -0.098112002015113831 0.99138098955154419 -0.086815997958183289
vn -0.1532139927148819 0.98319202661514282 -0.099293999373912811
vn -0.095679998397827148 0.99016302824020386 -0.1020909994840622
vn -0.19688700139522553 0.97569602727890015 -0.096189998090267181
vn -0.0770919993519783 0.989998996257782 -0.11815000325441361
vn -0.095325000584125519 0.98944300413131714 -0.10915400087833405
vn -0.076328001916408539 0.99353200197219849 -0.084074996411800385
vn -0.036251001060009 0.995173990726471 -0.091187998652458191
vn -0.10665799677371979 0.99429398775100708 0.0020719999447464943
vn -0.050974998623132706 0.99849498271942139 -0.020230000838637352
vn -0.0062480000779032707 0.99904000759124756 0.043361999094486237
vn -0.066399998962879181 0.99767798185348511 0.015142000280320644
vn -0.058894999325275421 0.9953569769859314 0.076125003397464752
vn -0.10559400171041489 0.99439197778701782 0.0058109997771680355
vn -0.079866997897624969 0.993054986000061 -0.086390003561973572
vn -0.03133700042963028 0.99441301822662354 0.10080400109291077
vn -0.04004799947142601 0.997285008430481 -0.061792001128196716
vn -0.03133700042963028 0.99441301822662354 0.10080400109291077
vn -0.13783499598503113 0.97523099184036255 -0.17298999428749085
vn -0.078449003398418427 0.97646200656890869 -0.20091900229454041
vn -0.15802900493144989 0.98512297868728638 -0.06751599907875061
vn -0.0892380028963089 0.97720402479171753 -0.19263400137424469
vn -0.098159998655319214 0.97411900758743286 -0.20361100137233734
vn -0.15487299859523773 0.98664999008178711 0.050363998860120773
vn -0.06358800083398819 0.99793797731399536 -0.0087930001318454742
vn -0.14222200214862824 0.98848402500152588 0.051695998758077621
vn -0.15274399518966675 0.98820501565933228 0.011003999970853329
vn -0.12806999683380127 0.98983198404312134 0.061896000057458878
vn -0.12189599871635437 0.989162027835846 -0.0818530023097992
vn -0.17358000576496124 0.9841809868812561 0.035475000739097595
vn -0.17253200709819794 0.98357301950454712 0.053070001304149628
vn -0.17253200709819794 0.98357301950454712 0.053070001304149628
f 1/1/1 2/2/2 3/3/3
f 4/4/4 5/5/5 6/6/6
f 7/7/7 6/6/6 5/5/5
f 7/7/7 8/8/8 6/6/6
f 8/8/8 3/3/3 2/2/2
f 8/8/8 7/7/7 3/3/3
f 7/7/7 5/5/5 9/9/9
f 5/5/5 10/10/10 11/11/11
f 5/5/5 4/4/4 10/10/10
f 12/12/12 5/5/5 11/11/11
f 9/9/9 12/12/12 13/13/13
f 9/9/9 5/5/5 12/12/12
f 13/13/13 12/12/12 14/14/14
f 12/12/12 11/11/11 15/15/15
f 11/11/11 16/16/16 17/17/17
f 11/11/11 10/10/10 16/16/16
f 18/18/18 19/19/19 17/17/17
f 20/20/20 21/21/21 22/22/22
f 22/22/22 23/23/23 24/24/24
f 22/22/22 21/21/21 23/23/23
f 24/24/24 17/17/17 19/19/19
f 24/24/24 23/23/23 17/17/17
f 17/17/17 23/23/23 25/25/25
f 25/25/25 15/15/15 17/17/17
f 15/15/15 25/25/25 26/26/26
f 25/25/25 27/27/27 28/28/28
f 27/27/27 25/25/25 23/23/23
f 16/16/16 18/18/18 17/17/17
f 29/29/29 23/23/23 30/30/30
f 29/29/29 27/27/27 23/23/23
f 30/30/30 23/23/23 31/31/31
f 32/32/32 27/27/27 29/29/29
f 32/32/32 33/33/33 27/27/27
f 31/31/31 23/23/23 21/21/21
f 17/17/17 15/15/15 11/11/11
f 34/34/34 12/12/12 15/15/15
f 15/15/15 26/26/26 34/34/34
f 35/35/35 34/34/34 36/36/36
f 37/37/37 38/38/38 39/39/39
f 40/40/40 39/39/39 41/41/41
f 40/40/40 37/37/37 39/39/39
f 40/40/40 42/42/42 37/37/37
f 39/39/39 36/36/36 34/34/34
f 39/39/39 38/38/38 36/36/36
f 39/39/39 34/34/34 43/43/43
f 14/14/14 34/34/34 35/35/35
f 14/14/14 12/12/12 34/34/34
f 41/41/41 39/39/39 44/44/44
f 27/27/27 33/33/33 28/28/28
f 26/26/26 28/28/28 43/43/43
f 45/45/45 28/28/28 33/33/33
f 28/28/28 45/45/45 43/43/43
f 46/46/46 45/45/45 47/47/47
f 46/46/46 43/43/43 45/45/45
f 45/45/45 33/33/33 48/48/48
f 43/43/43 34/34/34 26/26/26
f 32/32/32 49/49/49 33/33/33
f 50/50/50 48/48/48 51/51/51
f 33/33/33 51/51/51 48/48/48
f 33/33/33 49/49/49 51/51/51
f 52/52/52 45/45/45 48/48/48
f 52/52/52 53/53/53 45/45/45
f 54/54/54 52/52/52 48/48/48
f 47/47/47 45/45/45 53/53/53
f 50/50/50 54/54/54 48/48/48
f 50/50/50 55/55/55 54/54/54
f 55/55/55 50/50/50 56/56/56
f 46/46/46 39/39/39 43/43/43
f 46/46/46 44/44/44 39/39/39
f 26/26/26 25/25/25 28/28/28
