mtllib m3000230.mtl
usemtl material0
v 64 3.8141090869903564 -224
v 64 3.8455440998077393 -223.19749546051025
v 64.722007751464844 3.8375380039215088 -224
v 64 4.2230710983276367 -203.35261487960815
v 64 4.6984291076660156 -197.85897827148438
v 69.190741539001465 4.7160429954528809 -203.62832593917847
v 64 4.8223381042480469 -195.35479736328125
v 66.32843017578125 5.38441801071167 -192
v 69.61395263671875 5.1354150772094727 -195.65226745605469
v 64 5.0401740074157715 -193.60185241699219
v 64 5.23923397064209 -192
v 64 4.1421771049499512 -206.30569505691528
v 68.768325805664062 4.4568052291870117 -211.60493493080139
v 64 4.3069920539855957 -211.35264611244202
v 64 4.20393180847168 -214.75117492675781
v 68.3459243774414 4.2009658813476562 -219.58157253265381
v 64 4.029325008392334 -219.35151672363281
v 68.111541748046875 3.9799809455871582 -224
v 72.321053028106689 4.1137170791625977 -224
v 76.747184991836548 4.7172331809997559 -212.02713012695313
v 77.170494079589844 5.1566429138183594 -204.05114698410034
v 69.80633544921875 5.0520081520080566 -192
v 76.3245849609375 4.421356201171875 -220.00361633300781
v 76.112624883651733 4.2278409004211426 -224
v 79.920189000666142 4.4423398971557617 -224
v 84.303726196289062 4.7374281883239746 -220.42599487304688
v 77.5921859741211 5.2684040069580078 -196.07400512695313
v 73.926506042480469 5.115537166595459 -192
v 81.524216055870056 4.6414361000061035 -192
v 77.805206060409546 4.8682918548583984 -192
v 85.56756591796875 4.8217949867248535 -196.49372863769531
v 84.7259750366211 4.9620180130004883 -212.44926500320435
v 85.147713184356689 5.0835628509521484 -204.47216796875
v 92.11529541015625 4.8199381828308105 -224
v 88.777748107910156 4.813849925994873 -224
v 92.282913208007812 5.0632472038269043 -220.84841918945313
v 92.705528259277344 5.3620538711547852 -212.87193298339844
v 96 5.1094851493835449 -221.04486083984375
v 96 5.2750358581542969 -216.53382873535156
v 93.125237464904785 5.0724740028381348 -204.89340209960938
v 84.114426136016846 4.6155681610107422 -224
v 85.802169799804688 4.3109278678894043 -192
v 89.121818542480469 4.110389232635498 -192
v 93.5429916381836 4.3863978385925293 -196.91348266601563
v 96 5.0155038833618164 -205.04502892494202
v 96 4.5580191612243652 -199.64404296875
v 96 4.3240180015563965 -197.04302978515625
v 96 3.797111988067627 -193.11293029785156
v 93.798957824707031 3.7193400859832764 -192
v 96 3.6479010581970215 -192
v 96 5.1275119781494141 -208.08851599693298
v 96 5.3022122383117676 -213.04571485519409
v 96 4.9435319900512695 -223.2191162109375
v 96 4.8839311599731445 -224
vt 0.996508002281189 0.0032430291175842285
vt 0.97164797782897949 0.0032749772071838379
vt 0.996508002281189 0.02560502290725708
vt 0.35694900155067444 0.0036780238151550293
vt 0.1862650066614151 0.0051100254058837891
vt 0.3654710054397583 0.16470801830291748
vt 0.10865399986505508 0.0053120255470275879
vt 0.0054040001705288887 0.076039016246795654
vt 0.11825700104236603 0.17825800180435181
vt 0.053973998874425888 0.005258023738861084
vt 0.0040099998004734516 0.0057110190391540527
vt 0.4483950138092041 0.0035589933395385742
vt 0.61250400543212891 0.15140300989151
vt 0.60470598936080933 0.0037270188331604004
vt 0.70995497703552246 0.0036330223083496094
vt 0.85953402519226074 0.13809901475906372
vt 0.85246098041534424 0.0034639835357666016
vt 0.99646502733230591 0.13062000274658203
vt 0.9964749813079834 0.26099002361297607
vt 0.62554097175598145 0.39852100610733032
vt 0.37829700112342834 0.41210997104644775
vt 0.005169999785721302 0.18418800830841065
vt 0.87260699272155762 0.38517099618911743
vt 0.99645000696182251 0.37843400239944458
vt 0.99630600214004517 0.49648398160934448
vt 0.88559001684188843 0.63236299157142639
vt 0.13134700059890747 0.42525601387023926
vt 0.005187000147998333 0.31174200773239136
vt 0.00471699982881546 0.54797399044036865
vt 0.0046399999409914017 0.4320489764213562
vt 0.14449000358581543 0.67251101136207581
vt 0.63858300447463989 0.64561998844146729
vt 0.39168500900268555 0.65903499722480774
vt 0.99641197919845581 0.87418800592422485
vt 0.99622499942779541 0.77087500691413879
vt 0.89857500791549683 0.87956800311803818
vt 0.65150701999664307 0.89294499903917313
vt 0.9047359824180603 0.99463400011882186
vt 0.76500397920608521 0.9947999999858439
vt 0.40456798672676086 0.9059860035777092
vt 0.99628102779388428 0.62639498710632324
vt 0.0045480001717805862 0.68079200387001038
vt 0.0042619998566806316 0.78330500423908234
vt 0.15693500638008118 0.91978500038385391
vt 0.40921700000762939 0.99499400006607175
vt 0.24183100461959839 0.99561200011521578
vt 0.16099299490451813 0.99586299993097782
vt 0.038343999534845352 0.99655800010077655
vt 0.0034910000395029783 0.92858800292015076
vt 0.0035860000643879175 0.99675699998624623
vt 0.503491997718811 0.99496900010854006
vt 0.657027006149292 0.99493400007486343
vt 0.97223597764968872 0.99451299989596009
vt 0.99647802114486694 0.99446900002658367
vn -0.032407999038696289 0.99870902299880981 -0.039120998233556747
vn -0.039716001600027084 0.998166024684906 -0.045690000057220459
vn -0.039393998682498932 0.99819201231002808 -0.045400999486446381
vn -0.097411997616291046 0.993586003780365 -0.057429999113082886
vn -0.067728996276855469 0.99602198600769043 -0.057895999401807785
vn -0.069554001092910767 0.9964979887008667 -0.046411000192165375
vn -0.06008400022983551 0.99436002969741821 -0.087394997477531433
vn -0.019936999306082726 0.9961090087890625 -0.085846997797489166
vn -0.023646999150514603 0.99934101104736328 -0.027537999674677849
vn -0.061758998781442642 0.99047297239303589 -0.12308499962091446
vn -0.061758998781442642 0.99047297239303589 -0.12308499962091446
vn -0.080535002052783966 0.996662974357605 -0.013291999697685242
vn -0.040516998618841171 0.99891901016235352 -0.022799000144004822
vn -0.03128499910235405 0.99950802326202393 0.0022239999379962683
vn -0.034961998462677 0.9988740086555481 -0.032069001346826553
vn -0.034811999648809433 0.99859499931335449 -0.039946999400854111
vn -0.041680999100208282 0.99822098016738892 -0.042633000761270523
vn -0.037007000297307968 0.99816298484802246 -0.047959998250007629
vn -0.030496999621391296 0.99842202663421631 -0.04715299978852272
vn -0.03767000138759613 0.9984859824180603 -0.040084000676870346
vn -0.024870999157428741 0.9991459846496582 -0.03300900012254715
vn 0.038035999983549118 0.99905997514724731 0.020811999216675758
vn -0.038008999079465866 0.99854499101638794 -0.038263998925685883
vn -0.042667001485824585 0.99802702665328979 -0.046064000576734543
vn -0.04523799940943718 0.99834698438644409 -0.0354590006172657
vn -0.040646001696586609 0.99872201681137085 -0.030050000175833702
vn 0.025061000138521194 0.99900102615356445 0.037007998675107956
vn 0.0056830001994967461 0.99907600879669189 0.042601998895406723
vn 0.064902998507022858 0.99304300546646118 0.09825500100851059
vn 0.06192300096154213 0.99361199140548706 0.094346001744270325
vn 0.0542679987847805 0.99572902917861938 0.07469099760055542
vn -0.035595998167991638 0.99902999401092529 -0.025932999327778816
vn 0.0051660002209246159 0.99994498491287231 0.009100000374019146
vn -0.0088719995692372322 0.99703001976013184 -0.076500996947288513
vn -0.032985001802444458 0.99855899810791016 -0.042334001511335373
vn -0.025002999231219292 0.99846798181533813 -0.049359001219272614
vn -0.013476000167429447 0.99990600347518921 -0.002466999925673008
vn -0.015432000160217285 0.99825197458267212 -0.05704599991440773
vn -0.0068789999932050705 0.99952799081802368 -0.029941000044345856
vn 0.019821999594569206 0.99836999177932739 0.053520001471042633
vn -0.041832000017166138 0.99861699342727661 -0.031833000481128693
vn 0.067942000925540924 0.99169600009918213 0.10919400304555893
vn 0.066047996282577515 0.99115502834320068 0.11510699987411499
vn 0.047327999025583267 0.99328702688217163 0.10555399954319
vn 0.022931000217795372 0.99794602394104 0.059811998158693314
vn 0.025544000789523125 0.99600297212600708 0.085585996508598328
vn 0.0310479998588562 0.99338698387146 0.11053299903869629
vn 0.032152000814676285 0.99062001705169678 0.13281199336051941
vn 0.056446999311447144 0.98971801996231079 0.13142399489879608
vn 0.032152999192476273 0.99062001705169678 0.13281300663948059
vn 0.020410999655723572 0.99915897846221924 0.035576000809669495
vn 0.018844999372959137 0.99973797798156738 0.01299699954688549
vn -0.016423000022768974 0.99696499109268188 -0.076094001531600952
vn -0.016423000022768974 0.99696499109268188 -0.076094001531600952
f 1/1/1 2/2/2 3/3/3
f 4/4/4 5/5/5 6/6/6
f 7/7/7 8/8/8 9/9/9
f 7/7/7 10/10/10 8/8/8
f 10/10/10 11/11/11 8/8/8
f 12/12/12 13/13/13 14/14/14
f 15/15/15 16/16/16 17/17/17
f 15/15/15 13/13/13 16/16/16
f 15/15/15 14/14/14 13/13/13
f 18/18/18 16/16/16 19/19/19
f 5/5/5 9/9/9 6/6/6
f 5/5/5 7/7/7 9/9/9
f 13/13/13 6/6/6 20/20/20
f 6/6/6 9/9/9 21/21/21
f 8/8/8 22/22/22 9/9/9
f 23/23/23 16/16/16 13/13/13
f 12/12/12 6/6/6 13/13/13
f 12/12/12 4/4/4 6/6/6
f 3/3/3 16/16/16 18/18/18
f 3/3/3 17/17/17 16/16/16
f 3/3/3 2/2/2 17/17/17
f 24/24/24 23/23/23 25/25/25
f 19/19/19 23/23/23 24/24/24
f 19/19/19 16/16/16 23/23/23
f 21/21/21 20/20/20 6/6/6
f 23/23/23 13/13/13 20/20/20
f 20/20/20 26/26/26 23/23/23
f 27/27/27 21/21/21 9/9/9
f 22/22/22 27/27/27 9/9/9
f 22/22/22 28/28/28 27/27/27
f 29/29/29 27/27/27 30/30/30
f 29/29/29 31/31/31 27/27/27
f 30/30/30 27/27/27 28/28/28
f 20/20/20 21/21/21 32/32/32
f 33/33/33 21/21/21 27/27/27
f 34/34/34 35/35/35 36/36/36
f 32/32/32 26/26/26 20/20/20
f 26/26/26 32/32/32 36/36/36
f 37/37/37 32/32/32 33/33/33
f 32/32/32 37/37/37 36/36/36
f 38/38/38 37/37/37 39/39/39
f 38/38/38 36/36/36 37/37/37
f 37/37/37 33/33/33 40/40/40
f 36/36/36 41/41/41 26/26/26
f 36/36/36 35/35/35 41/41/41
f 33/33/33 32/32/32 21/21/21
f 42/42/42 31/31/31 29/29/29
f 31/31/31 43/43/43 44/44/44
f 31/31/31 42/42/42 43/43/43
f 44/44/44 40/40/40 31/31/31
f 45/45/45 44/44/44 46/46/46
f 45/45/45 40/40/40 44/44/44
f 47/47/47 44/44/44 48/48/48
f 48/48/48 49/49/49 50/50/50
f 48/48/48 44/44/44 49/49/49
f 49/49/49 44/44/44 43/43/43
f 33/33/33 31/31/31 40/40/40
f 51/51/51 37/37/37 40/40/40
f 51/51/51 52/52/52 37/37/37
f 31/31/31 33/33/33 27/27/27
f 52/52/52 39/39/39 37/37/37
f 53/53/53 36/36/36 38/38/38
f 53/53/53 34/34/34 36/36/36
f 53/53/53 54/54/54 34/34/34
f 47/47/47 46/46/46 44/44/44
f 45/45/45 51/51/51 40/40/40
f 26/26/26 25/25/25 23/23/23
f 26/26/26 41/41/41 25/25/25
