mtllib m300121.mtl
usemtl material0
v 320 4.5521330833435059 -186.80064392089844
v 324.67666625976562 3.8995299339294434 -192
v 320 4.2712039947509766 -192
v 325.79403686523438 3.7851839065551758 -192
v 320 4.8843369483947754 -176.8746337890625
v 326.57644653320312 4.1997809410095215 -177.21971130371094
v 320 4.5778241157531738 -186.03303527832031
v 320 5.4855809211730957 -160.8770449757576
v 320 5.4026288986206055 -153.01643419265747
v 327.42333984375 5.1193718910217285 -161.26786804199219
v 320 4.9427928924560547 -169.90861511230469
v 339.8701171875 1.9390120506286621 -192
v 342.52542114257812 2.9626109600067139 -178.05793762207031
v 341.78335571289062 1.7993819713592529 -192
v 355.06573510169983 1.1318110227584839 -192
v 357.77780199050903 0.80173301696777344 -192
v 358.47073411941528 1.0036989450454712 -178.89366149902344
v 370.26168823242188 0.51690500974655151 -192
v 359.3179931640625 1.9916479587554932 -162.94206190109253
v 374.42300415039062 0.42652198672294617 -179.73419189453125
v 343.3753662109375 4.4940071105957031 -162.10824608802795
v 328.26791381835938 5.5818648338317871 -145.31443786621094
v 344.21963500976562 4.88960599899292 -146.15457153320313
v 320 5.6409769058227539 -144.87802124023438
v 360.15936279296875 1.8145040273666382 -146.98640441894531
v 375.26776123046875 0.918874979019165 -163.7808690071106
v 361.00543212890625 2.57281494140625 -131.03401184082031
v 345.059326171875 4.3764557838439941 -130.19773864746094
v 320 5.5822920799255371 -137.55574035644531
v 329.10952758789062 5.4476141929626465 -129.35891723632813
v 384 0.55409300327301025 -187.38536071777344
v 384 0.41824701428413391 -180.23989868164063
v 384 0.61099600791931152 -190.37840270996094
v 384 0.60807698965072632 -192
v 373.77529907226562 0.39067000150680542 -192
v 384 0.98706299066543579 -171.12234497070313
v 376.11422729492188 1.758802056312561 -147.82876586914063
v 384 1.1876050233840942 -164.24287414550781
v 384 1.5767589807510376 -156.59397888183594
v 384 1.960468053817749 -148.24583435058594
v 384 2.4122369289398193 -140.7392578125
v 376.96145629882812 2.74367094039917 -131.87715148925781
v 320 5.6686038970947266 -128.87857055664063
v 327.88693237304688 5.452019214630127 -128
v 320 5.6568708419799805 -128.27719116210938
v 320 5.6514639854431152 -128
v 329.1810302734375 5.4025759696960449 -128
v 343.0821533203125 4.44741678237915 -128
v 345.17498779296875 4.3084588050842285 -128
v 361.166015625 2.6513628959655762 -128
v 347.50030517578125 4.1742911338806152 -128
v 377.16885375976562 3.2627670764923096 -128
v 364.3818359375 3.0360209941864014 -128
v 384 3.4849979877471924 -128
v 384 3.2805929183959961 -129.54681396484375
v 384 2.9234549999237061 -132.24942016601563
vt 0.91560298204422 0.0031629800796508789
vt 0.99603700637817383 0.075978994369506836
vt 0.99603700637817383 0.0035070180892944336
vt 0.99605399370193481 0.0933300256729126
vt 0.76218301057815552 0.0027920007705688477
vt 0.76761698722839355 0.10492700338363648
vt 0.90373802185058594 0.0031350255012512207
vt 0.514801025390625 0.0022900104522705078
vt 0.3933660089969635 0.0022510290145874023
vt 0.52074199914932251 0.11710900068283081
vt 0.65456897020339966 0.0028079748153686523
vt 0.99648201465606689 0.31263601779937744
vt 0.7802320122718811 0.35206001996994019
vt 0.99643701314926147 0.34227001667022705
vt 0.99571800231933594 0.54771000146865845
vt 0.995730996131897 0.589915007352829
vt 0.79322302341461182 0.6002269983291626
vt 0.99542802572250366 0.78281299769878387
vt 0.54815500974655151 0.61292201280593872
vt 0.80827897787094116 0.84670700132846832
vt 0.53291499614715576 0.3637620210647583
vt 0.27413800358772278 0.12906301021575928
vt 0.28645899891853333 0.37804001569747925
vt 0.26759201288223267 0.0020719766616821289
vt 0.30182099342346191 0.62867200374603271
vt 0.56371498107910156 0.85971699655056
vt 0.055116001516580582 0.64177900552749634
vt 0.039698999375104904 0.38829100131988525
vt 0.15447500348091126 0.0019389986991882324
vt 0.028061000630259514 0.14286297559738159
vt 0.92858201265335083 0.99191000033169985
vt 0.81819301843643188 0.99353200010955334
vt 0.97295999526977539 0.99439800018444657
vt 0.998009979724884 0.99435399984940886
vt 0.9977409839630127 0.83637000620365143
vt 0.6770780086517334 0.99465300003066659
vt 0.31707701086997986 0.87501099705696106
vt 0.5718420147895813 0.99461799999699
vt 0.45353499054908752 0.995678000152111
vt 0.32119199633598328 0.99806100002024323
vt 0.2050279974937439 0.99702199990861118
vt 0.068039998412132263 0.88828299939632416
vt 0.020425999537110329 0.002111971378326416
vt 0.0070360000245273113 0.12401300668716431
vt 0.011133999563753605 0.002129971981048584
vt 0.0068520000204443932 0.002138972282409668
vt 0.007054000161588192 0.14390599727630615
vt 0.0059639997780323029 0.35915100574493408
vt 0.00661400007084012 0.39154499769210815
vt 0.007899000309407711 0.63880899548530579
vt 0.0060600000433623791 0.42640501260757446
vt 0.00761700002476573 0.891575999557972
vt 0.0019900000188499689 0.68849000334739685
vt 0.0073190000839531422 0.99715700000524521
vt 0.031422000378370285 0.99712199997156858
vt 0.073641002178192139 0.99705599993467331
vn 0.09648200124502182 0.99460697174072266 -0.038056999444961548
vn 0.095740996301174164 0.99465298652648926 -0.038729000836610794
vn 0.079109996557235718 0.99541401863098145 -0.053784001618623734
vn 0.11542599648237228 0.99273598194122314 -0.033957000821828842
vn 0.10245300084352493 0.99452900886535645 -0.020380999892950058
vn 0.087957002222538 0.99499702453613281 -0.047380998730659485
vn 0.10174799710512161 0.99425399303436279 -0.033275999128818512
vn 0.048023998737335205 0.9985700249671936 -0.023502999916672707
vn 0.015926999971270561 0.99967300891876221 -0.019989000633358955
vn 0.041320998221635818 0.99813598394393921 -0.044916998594999313
vn 0.059397000819444656 0.99708402156829834 -0.047903001308441162
vn 0.0877939984202385 0.993461012840271 -0.07299400120973587
vn 0.0865669995546341 0.99331700801849365 -0.076339997351169586
vn 0.061608999967575073 0.99436700344085693 -0.08624199777841568
vn 0.10204199701547623 0.99402499198913574 -0.038747001439332962
vn 0.073492996394634247 0.99711000919342041 -0.019251000136137009
vn 0.075314000248909 0.99632000923156738 -0.040913999080657959
vn 0.032412000000476837 0.999442994594574 -0.0079619996249675751
vn 0.10573799908161163 0.99375498294830322 -0.03563699871301651
vn 0.01447600033134222 0.99963700771331787 -0.022717000916600227
vn 0.09408000111579895 0.99341499805450439 -0.0653809979557991
vn 0.027256999164819717 0.99959498643875122 -0.00823500007390976
vn 0.10215999931097031 0.9947429895401001 -0.007091000210493803
vn 0.00662099989131093 0.99992799758911133 -0.010005000047385693
vn 0.10113699734210968 0.99431800842285156 -0.033217001706361771
vn 0.0084499996155500412 0.99937897920608521 -0.034210000187158585
vn 0.045186001807451248 0.99806797504425049 -0.042647998780012131
vn 0.080383002758026123 0.99661099910736084 0.017480000853538513
vn 0.011882999911904335 0.99992400407791138 0.003223000094294548
vn 0.045797001570463181 0.99884301424026489 0.014657000079751015
vn 0.0018680000212043524 0.99981802701950073 0.019007999449968338
vn -0.00020700000459328294 0.99979400634765625 -0.020282000303268433
vn -0.015866000205278397 0.99986898899078369 0.0030529999639838934
vn -0.021258000284433365 0.99977201223373413 -0.0017999999690800905
vn 0.00828499998897314 0.99996000528335571 -0.0033599999733269215
vn -0.024329999461770058 0.99898302555084229 -0.037966001778841019
vn -0.014607000164687634 0.998341977596283 -0.055668998509645462
vn -0.032829001545906067 0.99867600202560425 -0.039599999785423279
vn -0.032134998589754105 0.99825000762939453 -0.049642998725175858
vn -0.028317000716924667 0.99820601940155029 -0.052742999047040939
vn -0.028671000152826309 0.99778199195861816 -0.060072999447584152
vn -0.021248999983072281 0.99531698226928711 -0.094301998615264893
vn 0.024529999122023582 0.99968498945236206 0.0052709998562932014
vn 0.028714999556541443 0.9993320107460022 0.022594999521970749
vn 0.025274999439716339 0.99949002265930176 0.019500000402331352
vn 0.025274999439716339 0.99949002265930176 0.019499000161886215
vn 0.053869999945163727 0.99809002876281738 0.030244000256061554
vn 0.067907996475696564 0.9972730278968811 0.028891999274492264
vn 0.061755001544952393 0.99770897626876831 0.027618000283837318
vn -0.0079100001603364944 0.99964499473571777 -0.025460999459028244
vn 0.098384998738765717 0.99498999118804932 -0.017746999859809875
vn -0.025167999789118767 0.99101799726486206 -0.1313370019197464
vn -0.041147001087665558 0.99352598190307617 -0.10589200258255005
vn -0.032235000282526016 0.99086600542068481 -0.13093900680541992
vn -0.032235000282526016 0.99086600542068481 -0.13093900680541992
vn -0.030411999672651291 0.99506598711013794 -0.0944409966468811
f 1/1/1 2/2/2 3/3/3
f 4/4/4 5/5/5 6/6/6
f 4/4/4 7/7/7 5/5/5
f 7/7/7 2/2/2 1/1/1
f 7/7/7 4/4/4 2/2/2
f 8/8/8 9/9/9 10/10/10
f 11/11/11 10/10/10 6/6/6
f 11/11/11 8/8/8 10/10/10
f 11/11/11 6/6/6 5/5/5
f 12/12/12 4/4/4 6/6/6
f 10/10/10 13/13/13 6/6/6
f 14/14/14 13/13/13 15/15/15
f 16/16/16 17/17/17 18/18/18
f 17/17/17 19/19/19 20/20/20
f 17/17/17 15/15/15 13/13/13
f 17/17/17 16/16/16 15/15/15
f 17/17/17 13/13/13 19/19/19
f 21/21/21 10/10/10 22/22/22
f 10/10/10 21/21/21 13/13/13
f 21/21/21 22/22/22 23/23/23
f 24/24/24 10/10/10 9/9/9
f 24/24/24 22/22/22 10/10/10
f 19/19/19 23/23/23 25/25/25
f 23/23/23 19/19/19 21/21/21
f 25/25/25 26/26/26 19/19/19
f 25/25/25 23/23/23 27/27/27
f 13/13/13 21/21/21 19/19/19
f 23/23/23 22/22/22 28/28/28
f 12/12/12 13/13/13 14/14/14
f 12/12/12 6/6/6 13/13/13
f 22/22/22 29/29/29 30/30/30
f 22/22/22 24/24/24 29/29/29
f 31/31/31 20/20/20 32/32/32
f 31/31/31 33/33/33 20/20/20
f 34/34/34 20/20/20 33/33/33
f 34/34/34 35/35/35 20/20/20
f 32/32/32 20/20/20 36/36/36
f 37/37/37 26/26/26 25/25/25
f 38/38/38 37/37/37 39/39/39
f 38/38/38 26/26/26 37/37/37
f 40/40/40 39/39/39 37/37/37
f 36/36/36 26/26/26 38/38/38
f 36/36/36 20/20/20 26/26/26
f 40/40/40 37/37/37 41/41/41
f 26/26/26 20/20/20 19/19/19
f 20/20/20 18/18/18 17/17/17
f 20/20/20 35/35/35 18/18/18
f 37/37/37 25/25/25 42/42/42
f 43/43/43 44/44/44 30/30/30
f 43/43/43 45/45/45 44/44/44
f 45/45/45 46/46/46 44/44/44
f 47/47/47 30/30/30 44/44/44
f 30/30/30 48/48/48 28/28/28
f 30/30/30 47/47/47 48/48/48
f 49/49/49 28/28/28 48/48/48
f 23/23/23 28/28/28 27/27/27
f 25/25/25 27/27/27 42/42/42
f 28/28/28 50/50/50 27/27/27
f 28/28/28 51/51/51 50/50/50
f 28/28/28 22/22/22 30/30/30
f 27/27/27 52/52/52 42/42/42
f 27/27/27 53/53/53 52/52/52
f 50/50/50 53/53/53 27/27/27
f 51/51/51 28/28/28 49/49/49
f 54/54/54 42/42/42 52/52/52
f 54/54/54 55/55/55 42/42/42
f 55/55/55 56/56/56 42/42/42
f 43/43/43 30/30/30 29/29/29
f 41/41/41 42/42/42 56/56/56
f 41/41/41 37/37/37 42/42/42
