mtllib m3000223.mtl
usemtl material0
v 32 3.4117870330810547 -241.65895104408264
v 32 3.3991219997406006 -238.30477905273438
v 35.166679382324219 3.0808770656585693 -241.8251039981842
v 32 3.5140049457550049 -246.75016784667969
v 34.746547698974609 3.28540301322937 -249.80332946777344
v 32 3.568540096282959 -249.65922546386719
v 42.721240997314453 2.700706958770752 -250.22256469726563
v 34.419357299804688 3.2729380130767822 -256
v 40.451279163360596 2.8325450420379639 -256
v 44.314246892929077 2.7543230056762695 -256
v 43.14201021194458 2.6250851154327393 -242.24476599693298
v 32 3.5214018821716309 -256
v 32 3.5468978881835938 -252.57038879394531
v 32 3.3002860546112061 -229.859375
v 35.587715148925781 3.0599219799041748 -233.84750413894653
v 32 3.41087007522583 -233.65918016433716
v 32 3.3126280307769775 -225.65910339355469
v 36.008842468261719 3.0565249919891357 -225.86997985839844
v 43.564156055450439 2.8297109603881836 -234.26797485351563
v 51.11968994140625 2.647291898727417 -242.66612195968628
v 43.985916137695312 2.95570707321167 -226.2908935546875
v 32 3.3460679054260254 -224
v 36.107719421386719 3.0880029201507568 -224
v 32 3.3311939239501953 -224.73794555664063
v 50.698090076446533 2.5534849166870117 -250.643310546875
v 41.924900054931641 3.0198400020599365 -224
v 44.1070818901062 2.9997389316558838 -224
v 49.523723959922791 3.1726510524749756 -224
v 51.964709997177124 3.2030088901519775 -226.71304321289063
v 51.541945934295654 2.8734030723571777 -234.68940687179565
v 50.415733098983765 2.6370201110839844 -256
v 56.736778259277344 2.7049100399017334 -256
v 58.676116943359375 2.6459848880767822 -251.06491088867188
v 60.036228179931641 2.5317749977111816 -256
v 59.098381042480469 2.8740670680999756 -243.08819603919983
v 57.1229362487793 3.5459129810333252 -224
v 59.944042205810547 3.5596640110015869 -227.13555908203125
v 52.108489990234375 3.3117899894714355 -224
v 59.520881652832031 3.14998197555542 -235.11164903640747
v 64 2.7096540927886963 -251.34626770019531
v 64 2.7880001068115234 -248.53639221191406
v 60.110228538513184 3.6878829002380371 -224
v 64 3.3307199478149414 -235.34877014160156
v 64 3.5125811100006104 -231.64375305175781
v 64 3.6828770637512207 -227.35014343261719
v 64 3.7955479621887207 -224.47381591796875
v 64 3.8141090869903564 -224
v 64 3.1295249462127686 -240.09011799842119
v 64 3.0223701000213623 -243.34751892089844
v 64 2.58479905128479 -256
v 64 2.6573259830474854 -253.29667663574219
vt 0.53322601318359375 0.017242014408111572
vt 0.4324670135974884 0.020823001861572266
vt 0.541579008102417 0.11271202564239502
vt 0.68618601560592651 0.011545002460479736
vt 0.7808300256729126 0.0910940170288086
vt 0.77358400821685791 0.0083019733428955078
vt 0.80180901288986206 0.33098697662353516
vt 0.96665400266647339 0.074954986572265625
vt 0.97298699617385864 0.25663799047470093
vt 0.977088987827301 0.37259197235107422
vt 0.56260597705841064 0.35224002599716187
vt 0.96407097578048706 0.0017480254173278809
vt 0.86103999614715576 0.0052930116653442383
vt 0.17872899770736694 0.030032992362976074
vt 0.30237498879432678 0.13378399610519409
vt 0.29291200637817383 0.025692999362945557
vt 0.052553001791238785 0.034498989582061768
vt 0.06318199634552002 0.15494298934936523
vt 0.32332399487495422 0.37306201457977295
vt 0.58338099718093872 0.59147301316261292
vt 0.0842059999704361 0.39415401220321655
vt 0.0027020000852644444 0.036210000514984131
vt 0.0071000000461936 0.15984702110290527
vt 0.02487500011920929 0.035449028015136719
vt 0.82302200794219971 0.57019498944282532
vt 0.01321099977940321 0.33462798595428467
vt 0.01549999974668026 0.40018397569656372
vt 0.02095399983227253 0.56294998526573181
vt 0.10492999851703644 0.63354098796844482
vt 0.34408500790596008 0.6123029887676239
vt 0.9836459755897522 0.55591100454330444
vt 0.99004298448562622 0.74610000848770142
vt 0.8437809944152832 0.809456005692482
vt 0.99344700574874878 0.84535500407218933
vt 0.60401499271392822 0.83084599673748016
vt 0.028443999588489532 0.791485995054245
vt 0.12547999620437622 0.87308399379253387
vt 0.023514999076724052 0.64071500301361084
vt 0.36468100547790527 0.85173399746418
vt 0.85743898153305054 0.9691380001604557
vt 0.77300000190734863 0.97218799963593483
vt 0.031380001455545425 0.88133399933576584
vt 0.37621501088142395 0.98617400042712688
vt 0.26511800289154053 0.99025900010019541
vt 0.13603499531745911 0.99477000022307038
vt 0.049513000994920731 0.99775999994017184
vt 0.03526800125837326 0.99825199996121228
vt 0.51877701282501221 0.98125500045716763
vt 0.61668598651885986 0.97791099920868874
vt 0.997298002243042 0.96452099829912186
vt 0.91605502367019653 0.96720999851822853
vn 0.10452699661254883 0.99445497989654541 0.011597000062465668
vn 0.098839998245239258 0.99510300159454346 -0.0010489999549463391
vn 0.0802299976348877 0.99671900272369385 0.010677999816834927
vn 0.1046070009469986 0.99431902170181274 0.019652999937534332
vn 0.086286000907421112 0.996258020401001 0.0050340001471340656
vn 0.10285700112581253 0.99467802047729492 0.0060519999824464321
vn 0.043464001268148422 0.99903202056884766 0.0067759999074041843
vn 0.087985001504421234 0.99610000848770142 -0.0066490001045167446
vn 0.052820000797510147 0.99860197305679321 0.00203399988822639
vn 0.019643999636173248 0.99969899654388428 0.014693999662995338
vn 0.027930999174714088 0.9995880126953125 -0.0066720000468194485
vn 0.10215800255537033 0.99474102258682251 -0.007395000196993351
vn 0.10215800255537033 0.99474102258682251 -0.007395000196993351
vn 0.071860998868942261 0.99740397930145264 0.0045320000499486923
vn 0.062394998967647552 0.9980509877204895 -0.0010849999962374568
vn 0.098058998584747314 0.99508601427078247 0.01372699998319149
vn 0.063130997121334076 0.99793499708175659 -0.011812999844551086
vn 0.039579000324010849 0.99914097785949707 -0.012315000407397747
vn 0.0089680003002285957 0.99976998567581177 -0.019502999261021614
vn -0.014937999658286572 0.99966698884963989 -0.021020000800490379
vn -0.0073370002210140228 0.99977302551269531 -0.020005999132990837
vn 0.062688000500202179 0.99783098697662354 -0.020112000405788422
vn 0.036368001252412796 0.99916297197341919 -0.018742000684142113
vn 0.062688000500202179 0.99783098697662354 -0.020111000165343285
vn 0.0010140000376850367 0.99998897314071655 0.0045179999433457851
vn 0.011045999825000763 0.99977600574493408 -0.018050000071525574
vn -0.0120430001989007 0.99975502490997314 -0.018579000607132912
vn -0.037728000432252884 0.99902898073196411 -0.022765999659895897
vn -0.0411049984395504 0.99846500158309937 -0.037115000188350677
vn -0.024102000519633293 0.99922502040863037 -0.031116999685764313
vn 0.0047439998015761375 0.999871015548706 0.015341999940574169
vn 0.013313000090420246 0.99988901615142822 0.0067070000804960728
vn -0.0080319996923208237 0.99985897541046143 -0.01474200002849102
vn 0.013886000029742718 0.99971699714660645 -0.019308999180793762
vn -0.029472000896930695 0.9990689754486084 -0.031509000808000565
vn -0.046828001737594604 0.99818897247314453 -0.03775399923324585
vn -0.041064999997615814 0.99825102090835571 -0.042520999908447266
vn -0.050037000328302383 0.99804800748825073 -0.037365999072790146
vn -0.039597999304533005 0.99838197231292725 -0.040812000632286072
vn -0.013398000039160252 0.99953699111938477 -0.027326000854372978
vn -0.017898999154567719 0.999330997467041 -0.031890999525785446
vn -0.039662998169660568 0.9984620213508606 -0.03872700035572052
vn -0.042684998363256454 0.99804902076721191 -0.045561999082565308
vn -0.040426000952720642 0.99808597564697266 -0.04679499939084053
vn -0.032421998679637909 0.99869799613952637 -0.039374001324176788
vn -0.032409001141786575 0.99870902299880981 -0.039122000336647034
vn -0.032407999038696289 0.99870902299880981 -0.039120998233556747
vn -0.034428000450134277 0.998790979385376 -0.035078998655080795
vn -0.032290000468492508 0.99870997667312622 -0.039181001484394073
vn -0.013371000066399574 0.999550998210907 -0.026816999539732933
vn -0.013371000066399574 0.999550998210907 -0.026816999539732933
f 1/1/1 2/2/2 3/3/3
f 4/4/4 5/5/5 6/6/6
f 7/7/7 8/8/8 5/5/5
f 7/7/7 9/9/9 8/8/8
f 9/9/9 7/7/7 10/10/10
f 7/7/7 5/5/5 11/11/11
f 4/4/4 3/3/3 5/5/5
f 4/4/4 1/1/1 3/3/3
f 12/12/12 5/5/5 8/8/8
f 12/12/12 13/13/13 5/5/5
f 13/13/13 6/6/6 5/5/5
f 14/14/14 15/15/15 16/16/16
f 3/3/3 16/16/16 15/15/15
f 3/3/3 2/2/2 16/16/16
f 3/3/3 15/15/15 11/11/11
f 15/15/15 17/17/17 18/18/18
f 15/15/15 14/14/14 17/17/17
f 19/19/19 15/15/15 18/18/18
f 15/15/15 19/19/19 11/11/11
f 11/11/11 19/19/19 20/20/20
f 19/19/19 18/18/18 21/21/21
f 5/5/5 3/3/3 11/11/11
f 22/22/22 23/23/23 24/24/24
f 24/24/24 18/18/18 17/17/17
f 24/24/24 23/23/23 18/18/18
f 25/25/25 7/7/7 11/11/11
f 26/26/26 27/27/27 21/21/21
f 28/28/28 21/21/21 27/27/27
f 28/28/28 29/29/29 21/21/21
f 26/26/26 18/18/18 23/23/23
f 26/26/26 21/21/21 18/18/18
f 30/30/30 19/19/19 21/21/21
f 10/10/10 25/25/25 31/31/31
f 10/10/10 7/7/7 25/25/25
f 32/32/32 33/33/33 34/34/34
f 19/19/19 30/30/30 20/20/20
f 25/25/25 20/20/20 33/33/33
f 20/20/20 30/30/30 35/35/35
f 21/21/21 29/29/29 30/30/30
f 33/33/33 31/31/31 25/25/25
f 33/33/33 32/32/32 31/31/31
f 11/11/11 20/20/20 25/25/25
f 29/29/29 36/36/36 37/37/37
f 29/29/29 38/38/38 36/36/36
f 39/39/39 30/30/30 29/29/29
f 28/28/28 38/38/38 29/29/29
f 30/30/30 39/39/39 35/35/35
f 40/40/40 35/35/35 41/41/41
f 40/40/40 33/33/33 35/35/35
f 36/36/36 42/42/42 37/37/37
f 43/43/43 37/37/37 44/44/44
f 43/43/43 39/39/39 37/37/37
f 45/45/45 37/37/37 46/46/46
f 46/46/46 42/42/42 47/47/47
f 46/46/46 37/37/37 42/42/42
f 48/48/48 35/35/35 39/39/39
f 48/48/48 49/49/49 35/35/35
f 29/29/29 37/37/37 39/39/39
f 20/20/20 35/35/35 33/33/33
f 50/50/50 34/34/34 51/51/51
f 51/51/51 33/33/33 40/40/40
f 51/51/51 34/34/34 33/33/33
f 48/48/48 39/39/39 43/43/43
f 44/44/44 37/37/37 45/45/45
f 41/41/41 35/35/35 49/49/49
