mtllib m300000310.mtl
usemtl material0
v 48.353748083114624 3.6800711154937744 -40
v 48 3.6905639171600342 -38.510936975479126
v 49.897635936737061 3.7092080116271973 -38.6112060546875
v 48 3.6875619888305664 -38.826981067657471
v 48 3.6764180660247803 -40
v 49.824341058731079 3.7132771015167236 -40
v 51.824432000517845 3.7400939464569092 -40
v 51.892169997096062 3.737591028213501 -38.716620922088623
v 51.147181987762451 3.7305529117584229 -40
v 53.046844005584717 3.7438859939575195 -40
v 48.008232116699219 3.6491000652313232 -36.511299014091492
v 48 3.6522738933563232 -36.667560994625092
v 48 3.6491129398345947 -36.5187069773674
v 51.99718499998562 3.6829180717468262 -36.722054004669189
v 55.824448108673096 3.7613129615783691 -40
v 54.688823938369751 3.7616400718688965 -40
v 55.881165027618408 3.7797040939331055 -38.927402019500732
v 56 3.780505895614624 -39.059483051300049
v 56 3.7655909061431885 -40
v 53.991737008094788 3.7152059078216553 -36.827484011650085
v 53.886734008789062 3.772320032119751 -38.822060108184814
v 53.824478030204773 3.7578909397125244 -40
v 56 3.7806680202484131 -38.933681011199951
v 55.986294031143188 3.747981071472168 -36.9329149723053
v 56 3.7483279705047607 -36.948146998882294
v 56 3.7805910110473633 -38.992989063262939
v 48 3.648468017578125 -36.502151012420654
v 48.113079071044922 3.5597589015960693 -34.5166130065918
v 48 3.5566000938415527 -34.510632038116455
v 48 3.6489219665527344 -36.510864019393921
v 50.0026969909668 3.6633241176605225 -36.6166689991951
v 50.107589960098267 3.5837490558624268 -34.622012972831726
v 48 3.5515460968017578 -34.390944957733154
v 48 3.4647469520568848 -32.510399103164673
v 48.217917919158936 3.4699289798736572 -32.521923065185547
v 50.212463021278381 3.5002660751342773 -32.627346038818359
v 52.1020810008049 3.6033430099487305 -34.727401971817017
v 49.648036956787109 3.4998118877410889 -32
v 48.245510101318359 3.4774711132049561 -32
v 48 3.4714620113372803 -32
v 48 3.470797061920166 -32.050559997558594
v 50.245620965957642 3.5081019401550293 -32
v 51.547726005315781 3.5296618938446045 -32
v 52.207011997699738 3.5320661067962646 -32.732777118682861
v 54.0966260433197 3.6341660022735596 -34.832824945449829
v 56 3.7409090995788574 -36.672607004642487
v 56 3.6910660266876221 -34.933516979217529
v 54.2015380859375 3.558495044708252 -32.838184118270874
v 52.245723992586136 3.5376319885253906 -32
v 53.447410941123962 3.5539910793304443 -32
v 56 3.6250228881835938 -32.933368921279907
v 55.347110986709595 3.5874979496002197 -32
v 56 3.6219320297241211 -32.725600957870483
v 54.245731115341187 3.5476241111755371 -32
v 56 3.6872580051422119 -34.836871981620789
v 56 3.7482700347900391 -36.933640003204346
v 56 3.5980501174926758 -32
vt 0 0.044219017028808594
vt 0.1861329972743988 0
vt 0.1735990047454834 0.23720502853393555
vt 0.14662699401378632 0
vt 0 0
vt 0 0.22804301977157593
vt 0 0.4780539870262146
vt 0.16042199730873108 0.48652100563049316
vt 0 0.3933979868888855
vt 0 0.63085600733757019
vt 0.43608799576759338 0.0010290145874023438
vt 0.41655498743057251 0
vt 0.4351620078086853 0
vt 0.40974301099777222 0.49964797496795654
vt 0 0.97805600054562092
vt 0 0.83610300719738007
vt 0.13407500088214874 0.9851460000500083
vt 0.11756499856710434 1
vt 0 1
vt 0.39656400680541992 0.74896699190139771
vt 0.14724299311637878 0.73584198951721191
vt 0 0.72806000709533691
vt 0.13328999280929565 1
vt 0.38338598608970642 0.9982869999948889
vt 0.38148200511932373 1
vt 0.12587599456310272 1
vt 0.43723100423812866 0
vt 0.68542301654815674 0.014135003089904785
vt 0.68617099523544312 0
vt 0.43614199757575989 0
vt 0.4229159951210022 0.25033700466156006
vt 0.67224800586700439 0.26344901323318481
vt 0.70113199949264526 0
vt 0.93620002269744873 0
vt 0.93475997447967529 0.027239978313446045
vt 0.92158198356628418 0.276557981967926
vt 0.65907502174377441 0.51276001334190369
vt 1 0.20600497722625732
vt 1 0.030689001083374023
vt 1 0
vt 0.99368000030517578 0
vt 1 0.28070300817489624
vt 1 0.44346600770950317
vt 0.90840297937393188 0.52587699890136719
vt 0.64589697122573853 0.76207800209522247
vt 0.41592401266098022 1
vt 0.63331001996994019 1
vt 0.89522701501846313 0.7751920074224472
vt 1 0.53071498870849609
vt 1 0.68092599511146545
vt 0.88332897424697876 1
vt 1 0.91838899999856949
vt 0.90930002927780151 1
vt 1 0.78071600198745728
vt 0.64539098739624023 1
vt 0.38329499959945679 1
vt 1 1
vn -0.0149940000846982 0.99987798929214478 -0.0043080002069473267
vn -0.0094179995357990265 0.999925971031189 0.0076839998364448547
vn -0.01118099968880415 0.99983298778533936 0.01447100006043911
vn -0.010324000380933285 0.99990200996398926 -0.0094990003854036331
vn -0.010325999930500984 0.99990200996398926 -0.0094990003854036331
vn -0.018069000914692879 0.9998289942741394 0.0038829999975860119
vn -0.010692000389099121 0.99993997812271118 0.0025150000583380461
vn -0.013892999850213528 0.999750018119812 0.017508000135421753
vn -0.013407000340521336 0.999904990196228 0.0033060000278055668
vn -0.013256999664008617 0.99988698959350586 -0.0070230001583695412
vn -0.0073190000839531422 0.99944400787353516 0.032513000071048737
vn -0.0093999998643994331 0.99973899126052856 0.02080100029706955
vn -0.0176790002733469 0.99961501359939575 0.021383000537753105
vn -0.010902999900281429 0.99937999248504639 0.033472001552581787
vn -0.0045850002206861973 0.99984699487686157 -0.016900999471545219
vn -0.0017109999898821116 0.99988698959350586 -0.014937999658286572
vn -0.0034250000026077032 0.99999397993087769 0.00060700002359226346
vn -0.023945000022649765 0.99959301948547363 -0.015478000044822693
vn -0.024358000606298447 0.99957799911499023 -0.015852000564336777
vn -0.014487000182271004 0.99928098917007446 0.035043001174926758
vn -0.011572999879717827 0.99984598159790039 0.013164999894797802
vn -0.0073190000839531422 0.99990302324295044 -0.011861000210046768
vn -0.0072699999436736107 0.99984800815582275 0.015829000622034073
vn -0.011308999732136726 0.99952501058578491 0.028661999851465225
vn -0.007306000217795372 0.99984198808670044 0.016195999458432198
vn -0.0081740003079175949 0.999966025352478 -0.0012890000361949205
vn -0.025459000840783119 0.99861401319503784 0.046066999435424805
vn -0.011555000208318234 0.99894100427627563 0.04452500119805336
vn -0.025471000000834465 0.99862402677536011 0.045844998210668564
vn -0.019557999446988106 0.99905097484588623 0.038917999714612961
vn -0.006794000044465065 0.99947100877761841 0.031791001558303833
vn -0.0078950002789497375 0.99909698963165283 0.04174099862575531
vn -0.021568000316619873 0.99871498346328735 0.045862000435590744
vn -0.02173599973320961 0.99903398752212524 0.038180999457836151
vn -0.014674000442028046 0.99954497814178467 0.026341000571846962
vn -0.012005999684333801 0.99943602085113525 0.031357999891042709
vn -0.011611999943852425 0.99915599822998047 0.039388999342918396
vn -0.015589999966323376 0.9997900128364563 -0.013302999548614025
vn -0.01728999987244606 0.9997590184211731 -0.013532999902963638
vn -0.024467000737786293 0.99961400032043457 -0.013147000223398209
vn -0.024466000497341156 0.99961400032043457 -0.013151999562978745
vn -0.015709999948740005 0.99980902671813965 -0.011657999828457832
vn -0.015588999725878239 0.9998210072517395 -0.010745000094175339
vn -0.013243000023066998 0.999701976776123 0.020526999607682228
vn -0.019330000504851341 0.99909400939941406 0.037919998168945312
vn -0.028347000479698181 0.99918800592422485 0.028636999428272247
vn -0.028325000777840614 0.99917197227478027 0.029201999306678772
vn -0.021649999544024467 0.99932199716567993 0.029773000627756119
vn -0.01280600018799305 0.99989402294158936 -0.0069180000573396683
vn -0.0090159997344017029 0.99995601177215576 -0.0027389999013394117
vn -0.035544998943805695 0.99901300668716431 0.0266369991004467
vn -0.033165998756885529 0.99929499626159668 0.017579000443220139
vn -0.020610999315977097 0.99936997890472412 0.028880000114440918
vn -0.01763400062918663 0.99974799156188965 0.013895999640226364
vn -0.031218999996781349 0.99885499477386475 0.036258000880479813
vn -0.019648000597953796 0.99944502115249634 0.026909999549388885
vn -0.016150999814271927 0.99932801723480225 0.032891001552343369
f 1/1/1 2/2/2 3/3/3
f 1/1/1 4/4/4 2/2/2
f 4/4/4 1/1/1 5/5/5
f 1/1/1 3/3/3 6/6/6
f 7/7/7 3/3/3 8/8/8
f 7/7/7 9/9/9 3/3/3
f 6/6/6 3/3/3 9/9/9
f 7/7/7 8/8/8 10/10/10
f 2/2/2 11/11/11 3/3/3
f 2/2/2 12/12/12 11/11/11
f 13/13/13 11/11/11 12/12/12
f 14/14/14 8/8/8 3/3/3
f 15/15/15 16/16/16 17/17/17
f 18/18/18 15/15/15 17/17/17
f 18/18/18 19/19/19 15/15/15
f 8/8/8 20/20/20 21/21/21
f 22/22/22 17/17/17 16/16/16
f 22/22/22 21/21/21 17/17/17
f 23/23/23 24/24/24 25/25/25
f 23/23/23 17/17/17 24/24/24
f 26/26/26 17/17/17 23/23/23
f 26/26/26 18/18/18 17/17/17
f 21/21/21 24/24/24 17/17/17
f 21/21/21 10/10/10 8/8/8
f 21/21/21 22/22/22 10/10/10
f 27/27/27 28/28/28 11/11/11
f 27/27/27 29/29/29 28/28/28
f 27/27/27 11/11/11 30/30/30
f 11/11/11 31/31/31 3/3/3
f 11/11/11 32/32/32 31/31/31
f 13/13/13 30/30/30 11/11/11
f 29/29/29 33/33/33 28/28/28
f 28/28/28 34/34/34 35/35/35
f 28/28/28 33/33/33 34/34/34
f 36/36/36 28/28/28 35/35/35
f 28/28/28 36/36/36 32/32/32
f 32/32/32 36/36/36 37/37/37
f 38/38/38 35/35/35 39/39/39
f 38/38/38 36/36/36 35/35/35
f 11/11/11 28/28/28 32/32/32
f 40/40/40 39/39/39 41/41/41
f 41/41/41 35/35/35 34/34/34
f 41/41/41 39/39/39 35/35/35
f 14/14/14 31/31/31 32/32/32
f 38/38/38 42/42/42 36/36/36
f 43/43/43 36/36/36 42/42/42
f 43/43/43 44/44/44 36/36/36
f 37/37/37 14/14/14 32/32/32
f 14/14/14 37/37/37 20/20/20
f 24/24/24 20/20/20 45/45/45
f 20/20/20 24/24/24 21/21/21
f 46/46/46 45/45/45 47/47/47
f 46/46/46 24/24/24 45/45/45
f 45/45/45 20/20/20 37/37/37
f 8/8/8 14/14/14 20/20/20
f 45/45/45 37/37/37 48/48/48
f 49/49/49 44/44/44 43/43/43
f 44/44/44 50/50/50 48/48/48
f 44/44/44 49/49/49 50/50/50
f 51/51/51 52/52/52 53/53/53
f 51/51/51 48/48/48 52/52/52
f 48/48/48 54/54/54 52/52/52
f 44/44/44 48/48/48 37/37/37
f 55/55/55 48/48/48 51/51/51
f 54/54/54 48/48/48 50/50/50
f 55/55/55 45/45/45 48/48/48
f 55/55/55 47/47/47 45/45/45
f 56/56/56 24/24/24 46/46/46
f 44/44/44 37/37/37 36/36/36
f 57/57/57 53/53/53 52/52/52
f 25/25/25 24/24/24 56/56/56
f 3/3/3 31/31/31 14/14/14
