mtllib m300323.mtl
usemtl material0
v 320 6.2882308959960938 -512
v 320 6.7550811767578125 -507.72958374023438
v 323.8404541015625 5.8090147972106934 -512
v 320 7.0849990844726562 -490.83767700195312
v 325.69900512695312 6.7816238403320312 -497.17257690429688
v 320 7.674191951751709 -496.87460327148438
v 320 5.8782458305358887 -457.05758666992188
v 327.3770751953125 5.4856171607971191 -465.25781345367432
v 320 6.1199951171875 -464.870361328125
v 320 5.6149120330810547 -448.62945556640625
v 328.2161865234375 4.8514161109924316 -449.30047607421875
v 320 5.5924282073974609 -448.86904907226562
v 327.0465087890625 5.0731768608093262 -448
v 320 5.6739778518676758 -448
v 320 7.1354889869689941 -480.87326002120972
v 320 6.8373842239379883 -473.94692993164062
v 326.54150390625 6.8223662376403809 -481.21765100955963
v 340.90594482421875 4.8651700019836426 -512
v 341.64325046539307 4.5956668853759766 -498.00732421875
v 339.03634643554688 5.1226701736450195 -512
v 324.91036987304688 5.6461830139160156 -512
v 354.236083984375 6.5817041397094727 -512
v 342.48858642578125 5.2067098617553711 -482.05444288253784
v 384 6.35793399810791 -512
v 373.568603515625 7.5837368965148926 -499.70315551757812
v 384 6.34782600402832 -511.29986572265625
v 372.92080688476562 7.8484220504760742 -512
v 356.9151611328125 6.7008399963378906 -512
v 357.6024169921875 5.391510009765625 -498.85272216796875
v 359.89630079269409 7.0932550430297852 -512
v 343.33029174804688 5.0945467948913574 -466.09896945953369
v 358.43927001953125 4.3160619735717773 -482.89379906654358
v 344.16873216629028 4.3294892311096191 -450.14117431640625
v 344.2830810546875 4.58108377456665 -448
v 342.24261474609375 4.5101571083068848 -448
v 357.44024705886841 4.7789411544799805 -448
v 360.12460327148438 4.4710488319396973 -450.9842529296875
v 328.28521728515625 4.9243807792663574 -448
v 359.28008985519409 4.0261678695678711 -466.93771362304688
v 374.40609741210938 6.6357278823852539 -483.74465894699097
v 384 7.1362757682800293 -500.25253295898438
v 384 6.8031449317932129 -494.40771484375
v 375.24481201171875 5.9239668846130371 -467.78704833984375
v 360.28369140625 4.7640337944030762 -448
v 372.63906860351562 5.7183609008789062 -448
v 376.0855712890625 5.6242318153381348 -451.8309326171875
v 384 6.8322157859802246 -468.25241088867188
v 384 6.6477718353271484 -460.62554931640625
v 376.2891845703125 5.8858499526977539 -448
v 384 6.04545783996582 -452.250244140625
v 384 6.1735091209411621 -450.28866577148438
v 384 6.322908878326416 -448
v 384 7.9130878448486328 -484.25555419921875
v 384 7.5662379264831543 -477.51495409011841
vt 0.98836797475814819 0.0046340227127075195
vt 0.92228299379348755 0.0037450194358825684
vt 0.98836797475814819 0.064176976680755615
vt 0.66138899326324463 0.00372999906539917
vt 0.7595210075378418 0.0907829999923706
vt 0.754692018032074 0.0020490288734436035
vt 0.14112000167369843 0.00859898328781128
vt 0.26800400018692017 0.12244898080825806
vt 0.261370986700058 0.0076259970664978027
vt 0.011029999703168869 0.011498987674713135
vt 0.022485999390482903 0.13835102319717407
vt 0.014732000418007374 0.011497020721435547
vt 0.0022360000293701887 0.12030398845672607
vt 0.0013030000263825059 0.011505007743835449
vt 0.50809097290039062 0.0048670172691345215
vt 0.40143701434135437 0.0059080123901367188
vt 0.51416099071502686 0.10557800531387329
vt 0.98686701059341431 0.3273320198059082
vt 0.77153998613357544 0.33841800689697266
vt 0.98696398735046387 0.29829698801040649
vt 0.988411009311676 0.080826997756958008
vt 0.98721802234649658 0.53410598635673523
vt 0.52900600433349609 0.35206598043441772
vt 0.99372100830078125 0.99310400011017919
vt 0.804286003112793 0.83180800080299377
vt 0.983485996723175 0.99254400003701448
vt 0.99347501993179321 0.82111699879169464
vt 0.98706799745559692 0.57536399364471436
vt 0.78793400526046753 0.58406099677085876
vt 0.99151700735092163 0.62143900990486145
vt 0.28369098901748657 0.36779999732971191
vt 0.54190200567245483 0.59784701466560364
vt 0.038081001490354538 0.38375401496887207
vt 0.0049310000613331795 0.38581901788711548
vt 0.0047670002095401287 0.35440897941589355
vt 0.0064730001613497734 0.58826100826263428
vt 0.053008999675512314 0.62913098931312561
vt 0.0024570000823587179 0.13959497213363648
vt 0.2979159951210022 0.613660991191864
vt 0.55839997529983521 0.84586900472640991
vt 0.81309199333190918 0.99242200003936887
vt 0.72302597761154175 0.992848000023514
vt 0.31363099813461304 0.8608500063419342
vt 0.0069010001607239246 0.63200598955154419
vt 0.0083990003913640976 0.82292099297046661
vt 0.068003997206687927 0.87521500140428543
vt 0.32168999314308167 0.99621900008060038
vt 0.20431999862194061 0.99686500011011958
vt 0.0089750001206994057 0.87913399934768677
vt 0.0751350000500679 0.99711099988780916
vt 0.045000001788139343 0.99760099989362061
vt 0.0097160004079341888 0.99795099999755621
vt 0.56934201717376709 0.99458499997854233
vt 0.465505987405777 0.99544000020250678
vn 0.12309800088405609 0.98651701211929321 -0.10784800350666046
vn 0.14373199641704559 0.98559898138046265 -0.089088998734951019
vn 0.14286799728870392 0.98565202951431274 -0.089878000319004059
vn 0.073972001671791077 0.99708300828933716 0.018797000870108604
vn 0.11459299921989441 0.99311202764511108 -0.024445999413728714
vn 0.1551939994096756 0.987841010093689 0.0091840000823140144
vn 0.090565003454685211 0.9953160285949707 0.033817000687122345
vn 0.06759999692440033 0.99656599760055542 0.047823000699281693
vn 0.088363997638225555 0.99462699890136719 0.053938999772071838
vn 0.084585003554821014 0.99205797910690308 -0.09309300035238266
vn 0.063537999987602234 0.99787300825119019 -0.014550999738276005
vn 0.088141001760959625 0.99561101198196411 -0.031463000923395157
vn 0.093731999397277832 0.99197500944137573 -0.0848499983549118
vn 0.084585003554821014 0.99205797910690308 -0.093092001974582672
vn 0.0488400012254715 0.99861198663711548 0.0197369996458292
vn 0.080294996500015259 0.99429702758789062 0.0701880007982254
vn 0.080610997974872589 0.99625301361083984 0.031344998627901077
vn 0.0088430000469088554 0.999783992767334 0.018790999427437782
vn 0.033117998391389847 0.99945098161697388 -0.0012339999666437507
vn 0.11011599749326706 0.99384498596191406 -0.012144999578595161
vn 0.095223002135753632 0.99215197563171387 -0.081041000783443451
vn -0.066431000828742981 0.99446797370910645 0.081363998353481293
vn 0.060490000993013382 0.99813300371170044 0.0084170000627636909
vn 0.13331499695777893 0.99097001552581787 0.014306999742984772
vn -0.024429000914096832 0.99886202812194824 0.040966998785734177
vn 0.11149899661540985 0.99374902248382568 -0.0056130001321434975
vn 0.03464600071310997 0.999206006526947 0.019681999459862709
vn -0.08590099960565567 0.99094700813293457 0.1031780019402504
vn -0.075669996440410614 0.99440699815750122 0.073683001101017
vn -0.11311300098896027 0.98982900381088257 0.08628399670124054
vn 0.046619001775979996 0.99859100580215454 0.025336999446153641
vn -0.039517000317573547 0.99832302331924438 0.042314000427722931
vn 0.011832999996840954 0.99924600124359131 -0.036986000835895538
vn -0.024374999105930328 0.99302202463150024 -0.11538100242614746
vn 0.01243900042027235 0.99725699424743652 -0.072957001626491547
vn -0.0095410002395510674 0.99376201629638672 -0.11111100018024445
vn -0.046820998191833496 0.99728399515151978 -0.056864000856876373
vn 0.07301899790763855 0.99554002285003662 -0.059732001274824142
vn -0.037865001708269119 0.99923402070999146 0.0099080000072717667
vn -0.11128000169992447 0.99326002597808838 0.032419998198747635
vn 0.042364999651908875 0.99905902147293091 -0.0093099996447563171
vn 0.0028099999763071537 0.99983000755310059 0.018226999789476395
vn -0.10658500343561173 0.993690013885498 0.034931998699903488
vn -0.037227001041173935 0.99471598863601685 -0.095674000680446625
vn -0.068403996527194977 0.99394702911376953 -0.085961997509002686
vn -0.066163003444671631 0.997635006904602 -0.018623000010848045
vn -0.1002890020608902 0.99357998371124268 0.052358001470565796
vn -0.089670002460479736 0.99535101652145386 0.035146001726388931
vn -0.051297999918460846 0.9965440034866333 -0.065329000353813171
vn -0.052850000560283661 0.99858701229095459 0.0056130001321434975
vn -0.056471001356840134 0.996284008026123 -0.065035998821258545
vn -0.056471001356840134 0.996284008026123 -0.065035998821258545
vn -0.13353300094604492 0.99056202173233032 -0.030928000807762146
vn -0.12208399921655655 0.99085897207260132 0.057401999831199646
f 1/1/1 2/2/2 3/3/3
f 4/4/4 5/5/5 6/6/6
f 7/7/7 8/8/8 9/9/9
f 10/10/10 11/11/11 12/12/12
f 10/10/10 13/13/13 11/11/11
f 10/10/10 14/14/14 13/13/13
f 15/15/15 16/16/16 17/17/17
f 18/18/18 5/5/5 19/19/19
f 18/18/18 20/20/20 5/5/5
f 21/21/21 5/5/5 20/20/20
f 18/18/18 19/19/19 22/22/22
f 19/19/19 5/5/5 23/23/23
f 6/6/6 3/3/3 2/2/2
f 6/6/6 5/5/5 3/3/3
f 5/5/5 21/21/21 3/3/3
f 24/24/24 25/25/25 26/26/26
f 24/24/24 27/27/27 25/25/25
f 28/28/28 19/19/19 29/29/29
f 28/28/28 22/22/22 19/19/19
f 30/30/30 25/25/25 27/27/27
f 9/9/9 17/17/17 16/16/16
f 9/9/9 8/8/8 17/17/17
f 17/17/17 8/8/8 23/23/23
f 31/31/31 8/8/8 11/11/11
f 8/8/8 31/31/31 23/23/23
f 23/23/23 31/31/31 32/32/32
f 31/31/31 11/11/11 33/33/33
f 23/23/23 5/5/5 17/17/17
f 12/12/12 8/8/8 7/7/7
f 12/12/12 11/11/11 8/8/8
f 34/34/34 33/33/33 35/35/35
f 33/33/33 36/36/36 37/37/37
f 33/33/33 34/34/34 36/36/36
f 11/11/11 35/35/35 33/33/33
f 11/11/11 38/38/38 35/35/35
f 39/39/39 31/31/31 33/33/33
f 38/38/38 11/11/11 13/13/13
f 32/32/32 29/29/29 23/23/23
f 29/29/29 32/32/32 25/25/25
f 40/40/40 32/32/32 39/39/39
f 32/32/32 40/40/40 25/25/25
f 40/40/40 41/41/41 25/25/25
f 40/40/40 42/42/42 41/41/41
f 40/40/40 39/39/39 43/43/43
f 30/30/30 29/29/29 25/25/25
f 30/30/30 28/28/28 29/29/29
f 39/39/39 32/32/32 31/31/31
f 44/44/44 37/37/37 36/36/36
f 37/37/37 45/45/45 46/46/46
f 37/37/37 44/44/44 45/45/45
f 46/46/46 43/43/43 37/37/37
f 46/46/46 47/47/47 43/43/43
f 46/46/46 48/48/48 47/47/47
f 49/49/49 50/50/50 46/46/46
f 49/49/49 51/51/51 50/50/50
f 51/51/51 49/49/49 52/52/52
f 49/49/49 46/46/46 45/45/45
f 39/39/39 37/37/37 43/43/43
f 53/53/53 43/43/43 54/54/54
f 53/53/53 40/40/40 43/43/43
f 37/37/37 39/39/39 33/33/33
f 29/29/29 19/19/19 23/23/23
f 15/15/15 5/5/5 4/4/4
f 15/15/15 17/17/17 5/5/5
f 41/41/41 26/26/26 25/25/25
f 47/47/47 54/54/54 43/43/43
f 50/50/50 48/48/48 46/46/46
f 53/53/53 42/42/42 40/40/40
