mtllib m3000330.mtl
usemtl material0
v 192 3.7615470886230469 -218.11024475097656
v 192 3.7307980060577393 -213.44566297531128
v 196.40666198730469 3.8685529232025146 -218.34329223632813
v 192 4.18045711517334 -210.11183190345764
v 192 4.1205081939697266 -204.99926805496216
v 196.83354187011719 5.0213289260864258 -210.36979699134827
v 192 3.4318850040435791 -221.89187622070313
v 193.89645385742188 3.3029038906097412 -224
v 192 3.37231707572937 -224
v 204.10935997962952 4.1577692031860352 -224
v 198.56329345703125 3.665503978729248 -224
v 204.38890099525452 4.8039608001708984 -218.76783752441406
v 197.25648498535156 5.38552713394165 -202.39355516433716
v 204.8180079460144 6.406923770904541 -210.79592895507813
v 192 4.2180538177490234 -202.11219787597656
v 212.364501953125 4.40685510635376 -219.18772888183594
v 205.23877000808716 6.3321647644042969 -202.81814622879028
v 212.79090881347656 5.4658818244934082 -211.21391296386719
v 196.10545253753662 3.3667290210723877 -224
v 197.6741943359375 4.6960139274597168 -194.41361999511719
v 192 3.9639430046081543 -199.51280212402344
v 209.095734000206 4.4959931373596191 -224
v 205.65759301185608 5.8648161888122559 -194.83897399902344
v 192 3.7983479499816895 -194.11106872558594
v 195.50190734863281 4.2845702171325684 -192
v 192 3.7714090347290039 -193.1978759765625
v 192 3.7360720634460449 -192
v 203.10221910476685 5.243405818939209 -192
v 197.80056762695313 4.4930682182312012 -192
v 205.80703711509705 5.7829489707946777 -192
v 210.701416015625 5.5961737632751465 -192
v 213.63371276855469 5.5717120170593262 -195.25923156738281
v 213.21406602859497 5.8691420555114746 -203.23779296875
v 212.11015319824219 4.34824800491333 -224
v 220.34658813476563 5.31243896484375 -219.61216735839844
v 221.19073486328125 5.6863679885864258 -203.65843200683594
v 220.7698974609375 5.7484321594238281 -211.63616895675659
v 220.115966796875 5.5087361335754395 -224
v 216.69544982910156 5.1298661231994629 -224
v 213.8056640625 5.5505290031433105 -192
v 224 6.1900491714477539 -224
v 224 6.1723031997680664 -223.67109680175781
v 224 5.8280839920043945 -219.80677795410156
v 224 5.4977221488952637 -216.32672119140625
v 224 5.7444062232971191 -211.8067319393158
v 224 5.7057437896728516 -206.78082299232483
v 224 5.3697080612182617 -198.33589172363281
v 221.61021423339844 5.3518290519714355 -195.67973327636719
v 224 5.5884528160095215 -203.80645799636841
v 224 5.3188629150390625 -195.80583190917969
v 221.80427646636963 5.3157529830932617 -192
v 217.25518798828125 5.4431509971618652 -192
v 224 5.2844147682189941 -192
v 224 5.2991580963134766 -193.62879943847656
vt 0.77701401710510254 0.0069220066070556641
vt 0.63921600580215454 0.011649012565612793
vt 0.78838497400283813 0.1368979811668396
vt 0.53989899158477783 0.016470015048980713
vt 0.38881200551986694 0.019964993000030518
vt 0.55116599798202515 0.16124802827835083
vt 0.88913899660110474 0.0027989745140075684
vt 0.95356601476669312 0.056546986103057861
vt 0.95143401622772217 0.0004940032958984375
vt 0.96396499872207642 0.35871100425720215
vt 0.95774102210998535 0.19498699903488159
vt 0.80866098403930664 0.37391799688339233
vt 0.315654993057251 0.18100500106811523
vt 0.56943899393081665 0.40041399002075195
vt 0.30347099900245667 0.022696018218994141
vt 0.83670699596405029 0.60860899090766907
vt 0.33396598696708679 0.41822397708892822
vt 0.600197970867157 0.63603600859642029
vt 0.95580202341079712 0.12182897329330444
vt 0.079015001654624939 0.19511902332305908
vt 0.22627200186252594 0.022985994815826416
vt 0.97223901748657227 0.50275200605392456
vt 0.097960002720355988 0.43464797735214233
vt 0.066552996635437012 0.025537014007568359
vt 0.0063049998134374619 0.13129502534866333
vt 0.0395519994199276 0.025973021984100342
vt 0.0041350000537931919 0.026546001434326172
vt 0.011601000092923641 0.35805600881576538
vt 0.0074800001457333565 0.19984102249145508
vt 0.013299999758601189 0.43956202268600464
vt 0.018850000575184822 0.58654499053955078
vt 0.11795300245285034 0.67004400491714478
vt 0.35782700777053833 0.65347400307655334
vt 0.97815698385238647 0.59176298975944519
vt 0.86052799224853516 0.84519200026988983
vt 0.38209700584411621 0.88838800042867661
vt 0.62550300359725952 0.87099799513816834
vt 0.98995000123977661 0.83289699256420136
vt 0.98701101541519165 0.72896501421928406
vt 0.021831000223755836 0.67826199531555176
vt 0.995864987373352 0.94930399954319
vt 0.9861379861831665 0.94970700144767761
vt 0.87272298336029053 0.95371900126338
vt 0.76950699090957642 0.95849300175905228
vt 0.63591897487640381 0.96603700146079063
vt 0.47724899649620056 0.96813299879431725
vt 0.21971000730991364 0.974549999460578
vt 0.14006400108337402 0.9051939994096756
vt 0.38931998610496521 0.97127600014209747
vt 0.14492200314998627 0.97576900012791157
vt 0.0316229984164238 0.91542199999094009
vt 0.025135999545454979 0.78021900355815887
vt 0.034297998994588852 0.98027499951422215
vt 0.0805789977312088 0.9768070001155138
vn -0.026297999545931816 0.99890798330307007 -0.038614999502897263
vn -0.14146299660205841 0.98492199182510376 -0.099578998982906342
vn -0.09337499737739563 0.99139398336410522 -0.091756999492645264
vn -0.17411799728870392 0.98299998044967651 -0.058263998478651047
vn -0.20723000168800354 0.97803401947021484 -0.0224590003490448
vn -0.17399799823760986 0.98107200860977173 -0.084988996386528015
vn -0.013554000295698643 0.99722498655319214 -0.073206000030040741
vn -0.011343000456690788 0.99739599227905273 -0.071226999163627625
vn 0.0365619994699955 0.99893301725387573 -0.02822599932551384
vn -0.077909998595714569 0.98994100093841553 -0.11809899657964706
vn -0.11277200281620026 0.98955899477005 -0.089754000306129456
vn -0.0566909983754158 0.98958301544189453 -0.13232800364494324
vn -0.17549000680446625 0.983942985534668 0.032545998692512512
vn -0.032758001238107681 0.99537897109985352 -0.090263999998569489
vn -0.21498599648475647 0.97604197263717651 0.033525999635457993
vn -0.034001000225543976 0.99687099456787109 -0.071355998516082764
vn -0.021027000620961189 0.99940097332000732 0.027490999549627304
vn 0.019888000562787056 0.99696600437164307 -0.075254000723361969
vn -0.072864003479480743 0.99377399682998657 -0.084280997514724731
vn -0.14638000726699829 0.98628801107406616 0.076215997338294983
vn -0.19586800038814545 0.97755402326583862 0.0776119977235794
vn 0.017826000228524208 0.99892598390579224 -0.042761001735925674
vn -0.052000999450683594 0.99719202518463135 0.053895998746156693
vn -0.15464499592781067 0.98752397298812866 0.029681999236345291
vn -0.13763600587844849 0.98946899175643921 0.044798001646995544
vn -0.15467600524425507 0.98753601312637329 0.029131999239325523
vn -0.15467600524425507 0.98753601312637329 0.029131999239325523
vn -0.15433800220489502 0.98503702878952026 0.076688997447490692
vn -0.11547300219535828 0.98929500579833984 0.0892300009727478
vn -0.075507000088691711 0.99660897254943848 0.032712999731302261
vn 0.031874999403953552 0.99926799535751343 0.021176999434828758
vn 0.030437000095844269 0.99924701452255249 0.024048000574111938
vn 0.030602000653743744 0.999530017375946 0.0017010000301524997
vn -0.056207001209259033 0.99837702512741089 -0.0091880001127719879
vn -0.10289300233125687 0.9946100115776062 0.012791000306606293
vn 0.026666000485420227 0.99927902221679688 0.0270409993827343
vn -0.011358000338077545 0.99948298931121826 -0.030084999278187752
vn -0.14040499925613403 0.98874801397323608 0.05161299929022789
vn -0.12540200352668762 0.99144899845123291 0.03609900176525116
vn 0.023183999583125114 0.99971699714660645 0.0052740001119673252
vn -0.17253300547599793 0.98357301950454712 0.053068999201059341
vn -0.16374699771404266 0.98460197448730469 0.061195999383926392
vn -0.134442999958992 0.98676502704620361 0.090664997696876526
vn -0.037450999021530151 0.99918997287750244 -0.014704000204801559
vn -4.5000000682193786E-05 0.99970102310180664 -0.024457000195980072
vn 0.0098750004544854164 0.99983698129653931 0.015088999643921852
vn 0.031764000654220581 0.99887198209762573 0.035301998257637024
vn 0.024452999234199524 0.99946099519729614 0.021926000714302063
vn 0.036892000585794449 0.99853301048278809 0.039643000811338425
vn 0.014569999650120735 0.99978500604629517 0.014755000360310078
vn 0.020901000127196312 0.9997439980506897 0.0086989998817443848
vn 0.028720999136567116 0.99955898523330688 0.0075150001794099808
vn 0.014270000159740448 0.99985700845718384 0.0090500004589557648
vn 0.014270000159740448 0.99985700845718384 0.0090500004589557648
f 1/1/1 2/2/2 3/3/3
f 4/4/4 5/5/5 6/6/6
f 7/7/7 8/8/8 9/9/9
f 10/10/10 11/11/11 12/12/12
f 4/4/4 3/3/3 2/2/2
f 4/4/4 6/6/6 3/3/3
f 3/3/3 6/6/6 12/12/12
f 6/6/6 13/13/13 14/14/14
f 15/15/15 6/6/6 5/5/5
f 15/15/15 13/13/13 6/6/6
f 14/14/14 12/12/12 6/6/6
f 12/12/12 14/14/14 16/16/16
f 14/14/14 17/17/17 18/18/18
f 17/17/17 14/14/14 13/13/13
f 11/11/11 3/3/3 12/12/12
f 11/11/11 19/19/19 3/3/3
f 15/15/15 20/20/20 13/13/13
f 15/15/15 21/21/21 20/20/20
f 22/22/22 10/10/10 12/12/12
f 1/1/1 8/8/8 7/7/7
f 1/1/1 3/3/3 8/8/8
f 3/3/3 19/19/19 8/8/8
f 13/13/13 23/23/23 17/17/17
f 24/24/24 25/25/25 20/20/20
f 24/24/24 26/26/26 25/25/25
f 26/26/26 27/27/27 25/25/25
f 28/28/28 20/20/20 29/29/29
f 28/28/28 23/23/23 20/20/20
f 20/20/20 23/23/23 13/13/13
f 30/30/30 23/23/23 28/28/28
f 29/29/29 20/20/20 25/25/25
f 21/21/21 24/24/24 20/20/20
f 31/31/31 23/23/23 30/30/30
f 31/31/31 32/32/32 23/23/23
f 33/33/33 17/17/17 23/23/23
f 22/22/22 16/16/16 34/34/34
f 22/22/22 12/12/12 16/16/16
f 17/17/17 33/33/33 18/18/18
f 18/18/18 35/35/35 16/16/16
f 33/33/33 32/32/32 36/36/36
f 37/37/37 18/18/18 33/33/33
f 38/38/38 16/16/16 35/35/35
f 38/38/38 39/39/39 16/16/16
f 31/31/31 40/40/40 32/32/32
f 34/34/34 16/16/16 39/39/39
f 23/23/23 32/32/32 33/33/33
f 14/14/14 18/18/18 16/16/16
f 41/41/41 35/35/35 42/42/42
f 41/41/41 38/38/38 35/35/35
f 43/43/43 42/42/42 35/35/35
f 43/43/43 35/35/35 44/44/44
f 36/36/36 37/37/37 33/33/33
f 45/45/45 36/36/36 46/46/46
f 45/45/45 37/37/37 36/36/36
f 47/47/47 36/36/36 48/48/48
f 47/47/47 49/49/49 36/36/36
f 46/46/46 36/36/36 49/49/49
f 47/47/47 48/48/48 50/50/50
f 44/44/44 37/37/37 45/45/45
f 44/44/44 35/35/35 37/37/37
f 48/48/48 36/36/36 32/32/32
f 37/37/37 35/35/35 18/18/18
f 51/51/51 32/32/32 52/52/52
f 51/51/51 48/48/48 32/32/32
f 52/52/52 32/32/32 40/40/40
f 53/53/53 48/48/48 51/51/51
f 53/53/53 54/54/54 48/48/48
f 54/54/54 50/50/50 48/48/48
