mtllib m300000201.mtl
usemtl material0
v 8 1.389117956161499 -34.391368985176086
v 8.10925006866455 1.3873569965362549 -34.397132992744446
v 8 1.4012570381164551 -34.495532989501953
v 8 1.3738880157470703 -34.157848000526428
v 8 1.3636709451675415 -34.001201987266541
v 8 1.4766019582748413 -36.391586005687714
v 8.0044009685516357 1.4762090444564819 -36.391819000244141
v 8 1.4766570329666138 -36.395781993865967
v 8 1.5715370178222656 -38.498135089874268
v 9.3511679172515869 1.5338660478591919 -40
v 8 1.5954899787902832 -40
v 9.8937530517578125 1.5260850191116333 -38.491688013076782
v 8 1.4803299903869629 -36.475589990615845
v 8 1.5719070434570313 -38.391829967498779
v 9.050015926361084 1.1616669893264771 -32
v 8.2349460124969482 1.2205439805984497 -32
v 9.998650074005127 1.4470000267028809 -36.497036010026932
v 8 1.2275309562683106 -32
v 11.250860989093781 1.5650650262832642 -40
v 9.81411099433899 1.5227489471435547 -40
v 11.993129000067711 1.4646639823913574 -36.6024169921875
v 10.103975057601929 1.4553149938583374 -34.502686023712158
v 9.4128820896148682 1.1720069646835327 -32
v 10.234601020812988 1.1623649597167969 -32
v 11.086395978927612 1.256255030632019 -32
v 11.3785600066185 1.2532429695129395 -32
v 12.098306000232697 1.4427059888839722 -34.607959985733032
v 11.887881003320217 1.4724609851837158 -38.596821069717407
v 11.814193993806839 1.5483570098876953 -40
v 13.150462031364441 1.5455859899520874 -40
v 13.882493019104004 1.5169800519943237 -38.702292919158936
v 13.344256043434143 1.3389010429382324 -32
v 14.093390941619873 1.5839020013809204 -34.713768005371094
v 13.122607946395874 1.3240580558776856 -32
v 12.234944000840187 1.2390979528427124 -32
v 13.987674951553345 1.4959989786148071 -36.707840025424957
v 13.814200043678284 1.5592199563980103 -40
v 15.050128936767578 1.5622819662094116 -40
v 16 1.5957560539245606 -40
v 15.8771231174469 1.5654029846191406 -38.807776927948
v 16 1.5779459476470947 -38.94432806968689
v 15.814260005950928 1.5802780389785767 -40
v 14.236227989196777 1.5004359483718872 -32
v 16 1.6944119930267334 -34.898933053016663
v 16 1.6978440284729004 -34.814811944961548
v 15.161922931671143 1.8866070508956909 -32
v 16 1.7206259965896606 -34.550555944442749
v 15.311824083328247 1.8962500095367432 -32
v 16 1.7251019477844238 -34.498641967773438
v 16 1.5667099952697754 -36.814330995082855
v 15.982412099838257 1.5663939714431763 -36.813404023647308
v 16 1.5890899896621704 -36.482441008090973
v 16 1.931460976600647 -32
v 16 1.5666680335998535 -36.832951009273529
v 16 1.5672730207443237 -38.81427001953125
vt 0.99663001298904419 0.30260497331619263
vt 0.983066976070404 0.30329000949859619
vt 0.99663001298904419 0.31562000513076782
vt 0.99666100740432739 0.27355998754501343
vt 0.99668198823928833 0.25407701730728149
vt 0.99561202526092529 0.551129013299942
vt 0.99506402015686035 0.55115398764610291
vt 0.99560898542404175 0.55164998769760132
vt 0.99454599618911743 0.81285999715328217
vt 0.82581502199172974 0.99838600005023181
vt 0.99368500709533691 0.99928300001192838
vt 0.75944602489471436 0.81083400547504425
vt 0.99556899070739746 0.56156599521636963
vt 0.99461698532104492 0.79966700077056885
vt 0.86837399005889893 0.003657996654510498
vt 0.9677550196647644 0.0050389766693115234
vt 0.74746400117874146 0.56302401423454285
vt 0.99692797660827637 0.0051270127296447754
vt 0.59022998809814453 0.997391999932006
vt 0.768625020980835 0.99807199998758733
vt 0.49986600875854492 0.57518300414085388
vt 0.73530399799346924 0.31545001268386841
vt 0.82331997156143188 0.0034739971160888672
vt 0.72132998704910278 0.0026050209999084473
vt 0.614346981048584 0.0034729838371276855
vt 0.57808297872543335 0.0033310055732727051
vt 0.48772799968719482 0.32758301496505737
vt 0.51179397106170654 0.82257799804210663
vt 0.52028298377990723 0.9970189998857677
vt 0.354434996843338 0.99637600011192262
vt 0.26412799954414368 0.83476300537586212
vt 0.33573698997497559 0.0023930072784423828
vt 0.239437997341156 0.33964699506759644
vt 0.36110800504684448 0.0033659934997558594
vt 0.47178098559379578 0.0028640031814575195
vt 0.25224098563194275 0.58739501237869263
vt 0.27195298671722412 0.99594399984925985
vt 0.11855799704790115 0.99533700011670589
vt 0.00056600000243633986 0.99495900003239512
vt 0.016450999304652214 0.84700700640678406
vt 0.0010809999657794833 0.8639180064201355
vt 0.023698000237345695 0.99501700000837445
vt 0.2232310026884079 0.0025960206985473633
vt 0.0023189999628812075 0.36172199249267578
vt 0.002334000077098608 0.35127300024032593
vt 0.10605300217866898 0.0010439753532409668
vt 0.0022869999520480633 0.31835401058197021
vt 0.087410002946853638 0.00096899271011352539
vt 0.0022780001163482666 0.31188702583312988
vt 0.0022990000434219837 0.59997698664665222
vt 0.0044590001925826073 0.59942400455474854
vt 0.0023000000510364771 0.558690994977951
vt 0.0018860000418499112 0.00071597099304199219
vt 0.0022650000173598528 0.60183998942375183
vt 0.0011950000189244747 0.84774599969387054
vn 0.020773999392986298 0.995760977268219 0.089607000350952148
vn 0.015406000427901745 0.997747004032135 0.065302997827529907
vn 0.072777003049850464 0.99555200338363647 0.059831999242305756
vn 0.019509999081492424 0.99769002199172974 0.065067999064922333
vn 0.028790000826120377 0.99729698896408081 0.067605003714561462
vn 0.090369999408721924 0.99554997682571411 0.026717999950051308
vn 0.051178999245166779 0.99792802333831787 0.03899100050330162
vn 0.068098001182079315 0.996986985206604 0.037129998207092285
vn 0.029038000851869583 0.99957799911499023 0.0010519999777898192
vn 0.029757000505924225 0.99955600500106812 0.0016990000149235129
vn 0.0455549992620945 0.998835027217865 0.01593099907040596
vn 0.018665999174118042 0.99948900938034058 0.025947999209165573
vn 0.027236999943852425 0.99849098920822144 0.047687999904155731
vn 0.025394000113010406 0.999413013458252 0.02297700010240078
vn 0.0098350001499056816 0.99590200185775757 0.089905001223087311
vn 0.051536001265048981 0.99644500017166138 0.0666389986872673
vn 0.0022819999139755964 0.99981200695037842 0.019231999292969704
vn 0.029659999534487724 0.99725502729415894 0.067841999232769012
vn 0.01385900005698204 0.99917000532150269 0.038290999829769135
vn -0.0018200000049546361 0.9999960064888 -0.0021150000393390656
vn -0.010843000374734402 0.99991697072982788 0.0069599999114871025
vn -0.017426000908017159 0.99868398904800415 0.04824100062251091
vn -0.011753000319004059 0.9939429759979248 0.10926999896764755
vn -0.050411999225616455 0.99164897203445435 0.11870799958705902
vn -0.035420998930931091 0.99503099918365479 0.09304799884557724
vn 0.012845000252127647 0.99702697992324829 0.07597699761390686
vn -0.024562999606132507 0.99902999401092529 0.036547999829053879
vn 0.0021130000241100788 0.99952900409698486 0.03062799945473671
vn 0.016305999830365181 0.99845397472381592 0.053148001432418823
vn -0.014495000243186951 0.99913299083709717 0.03902599960565567
vn -0.018943000584840775 0.99963599443435669 0.019191000610589981
vn -0.11270000040531158 0.99190902709960938 0.05843999981880188
vn -0.090158000588417053 0.99576002359390259 -0.018285999074578285
vn -0.07748500257730484 0.99411898851394653 0.075659997761249542
vn -0.041049998253583908 0.99595701694488525 0.079907000064849854
vn -0.034690998494625092 0.99932098388671875 -0.012451999820768833
vn -0.011800999753177166 0.99938100576400757 0.033151000738143921
vn -0.017922999337315559 0.99966299533843994 0.01877100020647049
vn -0.083030998706817627 0.99640500545501709 0.016809999942779541
vn -0.028799999505281448 0.9994320273399353 0.017487000674009323
vn -0.066279999911785126 0.99728900194168091 0.031964000314474106
vn -0.052326999604701996 0.99851399660110474 0.015217999927699566
vn -0.28570500016212463 0.95728498697280884 0.044481001794338226
vn -0.055619001388549805 0.99732100963592529 -0.047518998384475708
vn -0.062839001417160034 0.99606400728225708 -0.062518998980522156
vn -0.18796099722385407 0.981535017490387 -0.035475999116897583
vn -0.06396300345659256 0.99426400661468506 -0.0857200026512146
vn -0.058540001511573792 0.99472302198410034 -0.084257997572422028
vn -0.062853001058101654 0.99436002969741821 -0.085421003401279449
vn -0.019675999879837036 0.99923801422119141 -0.033695001155138016
vn -0.028003999963402748 0.99905198812484741 -0.033319998532533646
vn -0.038405001163482666 0.99705797433853149 -0.066330999135971069
vn -0.050925999879837036 0.99531400203704834 -0.082200996577739716
vn -0.015861000865697861 0.99987399578094482 -0.00028800001018680632
vn -0.012959999963641167 0.99901401996612549 0.042461998760700226
f 1/1/1 2/2/2 3/3/3
f 4/4/4 2/2/2 1/1/1
f 4/4/4 5/5/5 2/2/2
f 6/6/6 7/7/7 8/8/8
f 9/9/9 10/10/10 11/11/11
f 12/12/12 13/13/13 7/7/7
f 12/12/12 14/14/14 13/13/13
f 8/8/8 7/7/7 13/13/13
f 15/15/15 2/2/2 16/16/16
f 3/3/3 7/7/7 6/6/6
f 3/3/3 2/2/2 7/7/7
f 2/2/2 17/17/17 7/7/7
f 18/18/18 2/2/2 5/5/5
f 18/18/18 16/16/16 2/2/2
f 19/19/19 20/20/20 12/12/12
f 7/7/7 17/17/17 12/12/12
f 21/21/21 17/17/17 22/22/22
f 15/15/15 22/22/22 2/2/2
f 15/15/15 23/23/23 22/22/22
f 24/24/24 25/25/25 22/22/22
f 24/24/24 22/22/22 23/23/23
f 22/22/22 26/26/26 27/27/27
f 22/22/22 25/25/25 26/26/26
f 2/2/2 22/22/22 17/17/17
f 17/17/17 28/28/28 12/12/12
f 10/10/10 12/12/12 20/20/20
f 10/10/10 14/14/14 12/12/12
f 10/10/10 9/9/9 14/14/14
f 29/29/29 28/28/28 30/30/30
f 21/21/21 31/31/31 28/28/28
f 28/28/28 17/17/17 21/21/21
f 27/27/27 32/32/32 33/33/33
f 27/27/27 34/34/34 32/32/32
f 35/35/35 27/27/27 26/26/26
f 34/34/34 27/27/27 35/35/35
f 21/21/21 22/22/22 27/27/27
f 21/21/21 27/27/27 36/36/36
f 29/29/29 12/12/12 28/28/28
f 29/29/29 19/19/19 12/12/12
f 31/31/31 30/30/30 28/28/28
f 31/31/31 37/37/37 30/30/30
f 37/37/37 31/31/31 38/38/38
f 36/36/36 31/31/31 21/21/21
f 39/39/39 40/40/40 41/41/41
f 39/39/39 42/42/42 40/40/40
f 40/40/40 38/38/38 31/31/31
f 40/40/40 42/42/42 38/38/38
f 40/40/40 31/31/31 36/36/36
f 32/32/32 43/43/43 33/33/33
f 44/44/44 33/33/33 45/45/45
f 44/44/44 36/36/36 33/33/33
f 46/46/46 33/33/33 43/43/43
f 46/46/46 45/45/45 33/33/33
f 46/46/46 47/47/47 45/45/45
f 47/47/47 48/48/48 49/49/49
f 47/47/47 46/46/46 48/48/48
f 50/50/50 51/51/51 52/52/52
f 53/53/53 49/49/49 48/48/48
f 52/52/52 36/36/36 44/44/44
f 52/52/52 51/51/51 36/36/36
f 40/40/40 36/36/36 51/51/51
f 54/54/54 40/40/40 51/51/51
f 54/54/54 55/55/55 40/40/40
f 33/33/33 36/36/36 27/27/27
f 54/54/54 51/51/51 50/50/50
f 41/41/41 40/40/40 55/55/55
