mtllib m3000331.mtl
usemtl material0
v 224 6.1900491714477539 -224
v 224 6.1723031997680664 -223.67109680175781
v 224.29603576660156 6.2419781684875488 -224
v 228.12226867675781 6.763862133026123 -224
v 228.32978820800781 6.4391927719116211 -220.03739929199219
v 231.89567565917969 6.8340530395507812 -224
v 224 5.8280839920043945 -219.80677795410156
v 224 5.4977221488952637 -216.32672119140625
v 228.7474365234375 5.73848819732666 -212.05741882324219
v 224 5.7444062232971191 -211.8067319393158
v 224 5.7057437896728516 -206.78082299232483
v 224 5.3697080612182617 -198.33589172363281
v 229.16693115234375 5.4083619117736816 -204.07873511314392
v 224 5.5884528160095215 -203.80645799636841
v 236.7254331111908 5.822272777557373 -212.4789891242981
v 224 5.3188629150390625 -195.80583190917969
v 229.58724975585938 5.2417888641357422 -196.10063171386719
v 236.30805993080139 6.5757122039794922 -220.45915222167969
v 229.80401611328125 5.3004751205444336 -192
v 225.89791870117188 5.2573280334472656 -192
v 224 5.2844147682189941 -192
v 224 5.2991580963134766 -193.62879943847656
v 237.14601111412048 5.7069869041442871 -204.50105309486389
v 240.8226780295372 7.0726308822631836 -224
v 244.28739881515503 6.9294929504394531 -220.88166809082031
v 236.12274193763733 6.8866181373596191 -224
v 237.56626892089844 5.5321140289306641 -196.52291870117188
v 233.49681091308594 5.4372549057006836 -192
v 245.12422180175781 5.8332338333129883 -204.92277503013611
v 237.80503797531128 5.5306777954101562 -192
v 242.59219408035278 5.3884439468383789 -192
v 244.12200880050659 6.7785940170288086 -224
v 256 5.0673670768737793 -221.494140625
v 256 5.0208358764648438 -222.31529235839844
v 256 4.9253702163696289 -224
v 256 5.0956201553344727 -210.3293149471283
v 248.69332885742188 5.1131048202514648 -192
v 245.80415296554565 5.3949670791625977 -192
v 256 4.7886490821838379 -205.49371290206909
v 256 4.6340479850769043 -200.12216186523438
v 256 4.8815150260925293 -192
vt 0.997655987739563 0.010348021984100342
vt 0.98756599426269531 0.010254025459289551
vt 0.997655987739563 0.019554972648620605
vt 0.99733799695968628 0.13784700632095337
vt 0.87546801567077637 0.14247399568557739
vt 0.995872974395752 0.25344699621200562
vt 0.86873602867126465 0.0085099935531616211
vt 0.761667013168335 0.006855010986328125
vt 0.62991601228713989 0.15159100294113159
vt 0.62300401926040649 0.0061259865760803223
vt 0.4690450131893158 0.0053160190582275391
vt 0.2101529985666275 0.0041159987449646
vt 0.3852429986000061 0.16331297159194946
vt 0.37786200642585754 0.00489199161529541
vt 0.63942199945449829 0.39614701271057129
vt 0.13263599574565888 0.0037180185317993164
vt 0.14069299399852753 0.17396402359008789
vt 0.8852120041847229 0.38705199956893921
vt 0.015018999576568604 0.17962402105331421
vt 0.015842000022530556 0.061336994171142578
vt 0.016049999743700027 0.0031930208206176758
vt 0.065945997834205627 0.0033649802207946777
vt 0.39614999294281006 0.40800201892852783
vt 0.992609977722168 0.52700701355934143
vt 0.895359992980957 0.631852000951767
vt 0.994163990020752 0.38293200731277466
vt 0.1515209972858429 0.41683197021484375
vt 0.014422999694943428 0.29281997680664062
vt 0.40504100918769836 0.65077099204063416
vt 0.012887000106275082 0.42229598760604858
vt 0.010931000113487244 0.56899100542068481
vt 0.99107301235198975 0.62857198715209961
vt 0.910302996635437 0.99532199976965785
vt 0.935492992401123 0.99580899998545647
vt 0.98717302083969116 0.99680699990130961
vt 0.5642049908638 0.98781299963593483
vt 0.00686699990183115 0.75373099744319916
vt 0.00865700002759695 0.66482600569725037
vt 0.41579499840736389 0.98574199993163347
vt 0.25120699405670166 0.98288699984550476
vt 0.0023439999204128981 0.97762000001966953
vn -0.1725350022315979 0.98357301950454712 0.053068999201059341
vn -0.14351600408554077 0.98642599582672119 0.079792000353336334
vn -0.14463600516319275 0.98634499311447144 0.078767001628875732
vn -0.078403003513813019 0.99325001239776611 0.085486002266407013
vn -0.07430399954319 0.99326401948928833 0.0889120027422905
vn -0.014027999714016914 0.99614101648330688 0.086638003587722778
vn -0.1344279944896698 0.98674499988555908 0.090902999043464661
vn -0.0991630032658577 0.9935920238494873 0.054235000163316727
vn -0.016687000170350075 0.99888402223587036 0.044178999960422516
vn 6.5000000176951289E-05 0.999750018119812 -0.022368000820279121
vn 0.028667999431490898 0.99907702207565308 0.031993001699447632
vn 0.019998999312520027 0.99949401617050171 0.024721000343561172
vn 0.0010389999952167273 0.99953997135162354 0.030321000143885612
vn 0.036892998963594437 0.9985319972038269 0.039661001414060593
vn -0.030213000252842903 0.99757301807403564 0.062724001705646515
vn 0.014550999738276005 0.99979102611541748 0.014384999871253967
vn -0.014049000106751919 0.99987602233886719 0.0071669998578727245
vn -0.024937000125646591 0.99552202224731445 0.091185003519058228
vn -0.024468999356031418 0.99961602687835693 -0.013012999668717384
vn 0.0075170001946389675 0.99996697902679443 0.0029740000609308481
vn 0.014271000400185585 0.99985700845718384 0.0090500004589557648
vn 0.014270000159740448 0.99985700845718384 0.0090500004589557648
vn -0.02545199915766716 0.99948799610137939 0.01938600093126297
vn -0.0094980001449584961 0.99836397171020508 0.056379999965429306
vn 0.063662000000476837 0.99778401851654053 0.019318999722599983
vn -0.025461999699473381 0.995727002620697 0.088762998580932617
vn -0.014739000238478184 0.999767005443573 0.015765000134706497
vn -0.032923001796007156 0.99941998720169067 -0.008662000298500061
vn 0.036811999976634979 0.99848002195358276 0.041023001074790955
vn 0.0048730000853538513 0.99998801946640015 5.999999848427251E-05
vn 0.0053710001520812511 0.99965298175811768 0.025784999132156372
vn 0.12037699669599533 0.99123901128768921 -0.054350998252630234
vn 0.15540300309658051 0.98739099502563477 -0.030162999406456947
vn 0.15391600131988525 0.98650097846984863 -0.055900998413562775
vn 0.15391600131988525 0.98650097846984863 -0.055900998413562775
vn 0.11437100172042847 0.99239498376846313 0.045520000159740448
vn 0.079681999981403351 0.996737003326416 0.012892999686300755
vn 0.04927700012922287 0.99829602241516113 0.03126399964094162
vn 0.097915999591350555 0.9941139817237854 0.046369001269340515
vn 0.08185499906539917 0.99653297662734985 0.014860000461339951
vn 0.031665001064538956 0.99903500080108643 -0.030438000336289406
f 1/1/1 2/2/2 3/3/3
f 4/4/4 5/5/5 6/6/6
f 7/7/7 3/3/3 2/2/2
f 7/7/7 5/5/5 3/3/3
f 5/5/5 4/4/4 3/3/3
f 5/5/5 8/8/8 9/9/9
f 5/5/5 7/7/7 8/8/8
f 10/10/10 11/11/11 9/9/9
f 12/12/12 13/13/13 14/14/14
f 11/11/11 13/13/13 9/9/9
f 11/11/11 14/14/14 13/13/13
f 9/9/9 13/13/13 15/15/15
f 13/13/13 16/16/16 17/17/17
f 13/13/13 12/12/12 16/16/16
f 8/8/8 10/10/10 9/9/9
f 18/18/18 5/5/5 9/9/9
f 19/19/19 17/17/17 20/20/20
f 21/21/21 20/20/20 22/22/22
f 22/22/22 17/17/17 16/16/16
f 22/22/22 20/20/20 17/17/17
f 23/23/23 13/13/13 17/17/17
f 24/24/24 18/18/18 25/25/25
f 24/24/24 26/26/26 18/18/18
f 18/18/18 15/15/15 25/25/25
f 9/9/9 15/15/15 18/18/18
f 6/6/6 18/18/18 26/26/26
f 6/6/6 5/5/5 18/18/18
f 27/27/27 23/23/23 17/17/17
f 15/15/15 13/13/13 23/23/23
f 19/19/19 27/27/27 17/17/17
f 19/19/19 28/28/28 27/27/27
f 27/27/27 29/29/29 23/23/23
f 30/30/30 31/31/31 27/27/27
f 30/30/30 27/27/27 28/28/28
f 15/15/15 23/23/23 29/29/29
f 24/24/24 25/25/25 32/32/32
f 33/33/33 32/32/32 25/25/25
f 33/33/33 34/34/34 32/32/32
f 34/34/34 35/35/35 32/32/32
f 33/33/33 25/25/25 36/36/36
f 37/37/37 29/29/29 38/38/38
f 37/37/37 39/39/39 29/29/29
f 37/37/37 40/40/40 39/39/39
f 29/29/29 36/36/36 25/25/25
f 29/29/29 39/39/39 36/36/36
f 41/41/41 40/40/40 37/37/37
f 31/31/31 29/29/29 27/27/27
f 31/31/31 38/38/38 29/29/29
f 29/29/29 25/25/25 15/15/15
