mtllib m30000133.mtl
usemtl material0
v 114.59081983566284 4.6946368217468262 -64
v 116.65908098220825 4.7006998062133789 -62.139252185821533
v 116.56122589111328 4.7740092277526855 -64
v 112 4.5805912017822266 -64
v 112.66927289962769 4.4955759048461914 -61.927906036376953
v 112.56040191650391 4.5957231521606445 -64
v 112 4.5074658393859863 -62.5301399230957
v 124.55847215652466 4.2735757827758789 -64
v 123.03443098068237 4.4439349174499512 -64
v 124.63434600830078 4.2339968681335449 -62.558914184570312
v 118.81495702266693 4.8348188400268555 -64
v 120.64844501018524 4.8169541358947754 -62.350292205810547
v 120.56128698587418 4.8036031723022461 -64
v 112 4.4788570404052734 -61.892508983612061
v 112.88114881515503 4.7588062286376953 -57.940055966377258
v 112 4.6826930046081543 -58.732215881347656
v 116.8703989982605 4.8521151542663574 -58.151015996932983
v 120.85878002643585 4.7701301574707031 -58.361370086669922
v 128 3.8545730113983154 -62.735432147979736
v 128 3.87233304977417 -63.562625885009766
v 128 3.8817229270935059 -64
v 128 3.6832029819488525 -59.526508092880249
v 112 4.7007827758789062 -57.893340945243835
v 112 4.6770801544189453 -56.96085000038147
v 112 4.7178740501403809 -53.893512964248657
v 113.09209394454956 4.8345341682434082 -53.951556921005249
v 117.08110809326172 4.8799920082092285 -54.1623500585556
v 121.06931304931641 4.7628521919250488 -54.372581005096436
v 125.05477905273438 4.090540885925293 -54.58089804649353
v 121.27938103675842 4.6603560447692871 -50.383469104766846
v 117.29111504554749 4.766265869140625 -50.17319917678833
v 128 3.4826679229736328 -52.256443023681641
v 128 3.4622170925140381 -51.926139831542969
v 128 3.6361329555511475 -54.734974026679993
v 112 4.5632867813110352 -51.132645130157471
v 113.30166578292847 4.6329178810119629 -49.962100982666016
v 112 4.4481711387634277 -48
v 112 4.4841217994689941 -48.515635967254639
v 113.40456390380859 4.4999051094055176 -48
v 112 4.5380997657775879 -49.306858062744141
v 112 4.5780987739562988 -49.893187999725342
v 115.33549499511719 4.5573601722717285 -48
v 119.13478100299835 4.5639228820800781 -48
v 117.4050669670105 4.6160168647766113 -48
v 121.40447199344635 4.5174422264099121 -48
v 125.39931488037109 3.5308899879455566 -48
v 123.92167711257935 3.8736639022827148 -48
v 128 3.157818078994751 -48
vt 0 0.16192597150802612
vt 0.11629699915647507 0.29119300842285156
vt 0 0.28507697582244873
vt 0 0
vt 0.12950600683689117 0.041830003261566162
vt 0 0.03502500057220459
vt 0.091866001486778259 0
vt 0 0.78490400314331055
vt 0 0.68965199589729309
vt 0.090067997574806213 0.78964699804782867
vt 0 0.42593497037887573
vt 0.10310699790716171 0.54052799940109253
vt 0 0.53507998585700989
vt 0.1317179948091507 0
vt 0.37874698638916016 0.055072009563446045
vt 0.32923701405525208 0
vt 0.36556100845336914 0.30440002679824829
vt 0.35241401195526123 0.55367401242256165
vt 0.07903599739074707 1
vt 0.02733599953353405 1
vt 0 1
vt 0.27959299087524414 1
vt 0.38166600465774536 0
vt 0.43994700908660889 0
vt 0.63165497779846191 0
vt 0.62802797555923462 0.068256020545959473
vt 0.614853024482727 0.31756901741027832
vt 0.601714015007019 0.56683200597763062
vt 0.58869397640228271 0.81592400372028351
vt 0.85103297233581543 0.57996100187301636
vt 0.864175021648407 0.33069497346878052
vt 0.73397201299667358 1
vt 0.75461602210998535 1
vt 0.5790640115737915 1
vt 0.80421000719070435 0
vt 0.8773689866065979 0.081354022026062012
vt 1 0
vt 0.96777302026748657 0
vt 1 0.087785005569458008
vt 0.91832101345062256 0
vt 0.88167601823806763 0
vt 1 0.20846801996231079
vt 1 0.44592398405075073
vt 1 0.33781701326370239
vt 1 0.58777999877929688
vt 1 0.837457001209259
vt 1 0.74510499835014343
vt 1 1
vn -0.046645000576972961 0.99772900342941284 0.04859599843621254
vn -0.02602900005877018 0.99966001510620117 -0.001715000020340085
vn -0.030231000855565071 0.99870401620864868 0.040936999022960663
vn -0.026957999914884567 0.99840199947357178 0.049671001732349396
vn -0.040771998465061188 0.99895197153091431 -0.020773999392986298
vn -0.043919999152421951 0.99775600433349609 0.050530999898910522
vn -0.025634000077843666 0.9985089898109436 0.048200998455286026
vn 0.11271099746227264 0.99339801073074341 0.021348999813199043
vn 0.13810500502586365 0.99037599563598633 -0.00904799997806549
vn 0.14338700473308563 0.98958301544189453 0.012852000072598457
vn -0.0073970002122223377 0.99979102611541748 0.019047999754548073
vn 0.055326998233795166 0.99842101335525513 0.0096909999847412109
vn 0.092234998941421509 0.995652973651886 -0.01293100044131279
vn -0.027917999774217606 0.998013973236084 -0.056460000574588776
vn -0.039799999445676804 0.99848198890686035 -0.038072999566793442
vn -0.036410998553037643 0.9978020191192627 -0.0553710013628006
vn -0.012914000079035759 0.99951201677322388 -0.028450999408960342
vn 0.082245998084545136 0.99660998582839966 -0.0020810000132769346
vn 0.11399699747562408 0.99268299341201782 0.039808999747037888
vn 0.11310300230979919 0.99335402250289917 0.021327000111341476
vn 0.11310300230979919 0.99335402250289917 0.021325999870896339
vn 0.14483100175857544 0.98927497863769531 0.0189410001039505
vn -0.065540000796318054 0.99784499406814575 0.0031620000954717398
vn -0.097037002444267273 0.99527198076248169 -0.004253000020980835
vn -0.10582800209522247 0.99435698986053467 0.0073730000294744968
vn -0.033048998564481735 0.99930799007415771 0.01704699918627739
vn 0.014419999904930592 0.9998360276222229 0.010998000390827656
vn 0.098962001502513886 0.99505501985549927 0.0084739997982978821
vn 0.16513100266456604 0.98573297262191772 0.032600000500679016
vn 0.12596100568771362 0.991008996963501 0.045099001377820969
vn -0.0025520001072436571 0.9988740086555481 0.047370001673698425
vn 0.15531699359416962 0.985975980758667 0.061048999428749084
vn 0.14265100657939911 0.98690301179885864 0.07531999796628952
vn 0.15381799638271332 0.98772400617599487 0.027245000004768372
vn -0.093053996562957764 0.99467498064041138 0.044307999312877655
vn -0.040762998163700104 0.99752300977706909 0.05733099952340126
vn -0.036719001829624176 0.99690502882003784 0.069507002830505371
vn -0.037728000432252884 0.99693000316619873 0.068602003157138824
vn -0.032639000564813614 0.99706202745437622 0.069302998483181
vn -0.038385000079870224 0.99694597721099854 0.068011999130249023
vn -0.041345000267028809 0.99905002117156982 0.013782000169157982
vn -0.029287999495863914 0.99715197086334229 0.069499000906944275
vn 0.027188999578356743 0.99752599000930786 0.064823001623153687
vn -0.0017229999648407102 0.99761098623275757 0.0690620020031929
vn 0.14252999424934387 0.98843497037887573 0.051787000149488449
vn 0.19530199468135834 0.97802597284317017 0.072948001325130463
vn 0.23939700424671173 0.9693869948387146 0.054565001279115677
vn 0.14158199727535248 0.986965000629425 0.076521001756191254
f 1/1/1 2/2/2 3/3/3
f 4/4/4 5/5/5 6/6/6
f 4/4/4 7/7/7 5/5/5
f 8/8/8 9/9/9 10/10/10
f 11/11/11 12/12/12 13/13/13
f 14/14/14 15/15/15 5/5/5
f 14/14/14 16/16/16 15/15/15
f 7/7/7 14/14/14 5/5/5
f 1/1/1 5/5/5 2/2/2
f 1/1/1 6/6/6 5/5/5
f 5/5/5 17/17/17 2/2/2
f 18/18/18 12/12/12 2/2/2
f 12/12/12 18/18/18 10/10/10
f 9/9/9 12/12/12 10/10/10
f 9/9/9 13/13/13 12/12/12
f 19/19/19 8/8/8 10/10/10
f 19/19/19 20/20/20 8/8/8
f 20/20/20 21/21/21 8/8/8
f 19/19/19 10/10/10 22/22/22
f 12/12/12 3/3/3 2/2/2
f 12/12/12 11/11/11 3/3/3
f 23/23/23 15/15/15 16/16/16
f 23/23/23 24/24/24 15/15/15
f 25/25/25 15/15/15 24/24/24
f 25/25/25 26/26/26 15/15/15
f 17/17/17 26/26/26 27/27/27
f 26/26/26 17/17/17 15/15/15
f 18/18/18 27/27/27 28/28/28
f 27/27/27 18/18/18 17/17/17
f 18/18/18 28/28/28 29/29/29
f 28/28/28 27/27/27 30/30/30
f 2/2/2 17/17/17 18/18/18
f 27/27/27 26/26/26 31/31/31
f 32/32/32 29/29/29 33/33/33
f 32/32/32 34/34/34 29/29/29
f 18/18/18 29/29/29 10/10/10
f 22/22/22 29/29/29 34/34/34
f 22/22/22 10/10/10 29/29/29
f 29/29/29 28/28/28 30/30/30
f 5/5/5 15/15/15 17/17/17
f 26/26/26 35/35/35 36/36/36
f 26/26/26 25/25/25 35/35/35
f 37/37/37 36/36/36 38/38/38
f 37/37/37 39/39/39 36/36/36
f 40/40/40 36/36/36 41/41/41
f 40/40/40 38/38/38 36/36/36
f 36/36/36 42/42/42 31/31/31
f 36/36/36 39/39/39 42/42/42
f 43/43/43 31/31/31 44/44/44
f 43/43/43 30/30/30 31/31/31
f 27/27/27 31/31/31 30/30/30
f 43/43/43 45/45/45 30/30/30
f 44/44/44 31/31/31 42/42/42
f 31/31/31 26/26/26 36/36/36
f 41/41/41 36/36/36 35/35/35
f 30/30/30 46/46/46 29/29/29
f 30/30/30 47/47/47 46/46/46
f 48/48/48 29/29/29 46/46/46
f 48/48/48 33/33/33 29/29/29
f 47/47/47 30/30/30 45/45/45
