mtllib m3000000131.mtl
usemtl material0
v 28 0.95213502645492554 -12
v 28.317754983901978 1.0544849634170532 -11.463976979255676
v 28.2885320186615 0.8730430006980896 -12
v 28 1.0405839681625366 -11.74974799156189
v 28.77652895450592 0.92121702432632446 -12
v 29.315349996089935 1.1353319883346558 -11.516914010047913
v 29.290865004062653 1.3348079919815064 -12
v 30.29109999537468 1.3857179880142212 -12
v 29.836115002632141 1.3624459505081177 -12
v 30.312902003526688 1.2078789472579956 -11.569821953773499
v 29.367148995399475 0.9641919732093811 -10.519136011600494
v 30.363604009151459 0.81359797716140747 -10.571277022361755
v 28 1.0085289478302002 -11.447051048278809
v 28 0.87886202335357666 -10.79864901304245
v 28.369449973106384 0.861860990524292 -10.466125011444092
v 31.311781048774719 1.5499509572982788 -11.623659014701843
v 31.415570974349976 1.24624502658844 -9.6282359957695
v 30.893728017807007 1.5781389474868774 -12
v 31.29273796081543 1.7112300395965576 -12
v 32 1.672700047492981 -11.660392999649048
v 32 1.7795790433883667 -11.905310988426209
v 32 1.8209010362625122 -12
v 32 1.5533360242843628 -11.004502058029175
v 28 0.83372700214385986 -10.446525990962982
v 28.42133104801178 0.70732200145721436 -9.4684039950370789
v 28 0.73886698484420776 -9.8477199971675873
v 29.419188022613525 0.84139102697372437 -9.5215240120887756
v 30.417234003543854 1.0145210027694702 -9.5747799873352051
v 28 0.70410799980163574 -9.4461449980735779
v 28.474115014076233 0.73588401079177856 -8.4713129997253418
v 28 0.71955299377441406 -8.8977409601211548
v 30.469150990247726 0.86681801080703735 -8.5770829916000366
v 29.471454977989197 0.76497501134872437 -8.5240730047225952
v 32 1.3381969928741455 -9.65939000248909
v 32 1.2628710269927979 -9.1721040010452271
v 32 1.2521079778671265 -9.1024770140647888
v 28 0.68748801946640015 -8.4461230039596558
v 28.498388051986694 0.6167910099029541 -8
v 28 0.625203013420105 -8.203995943069458
v 28 0.57272797822952271 -8
v 28.99968695640564 0.62468999624252319 -8
v 29.498076975345612 0.56085699796676636 -8
v 29.949455000460148 0.59749299287796021 -8
v 31.111215949058533 0.94025999307632446 -8
v 30.499027013778687 0.75174999237060547 -8
v 31.500447988510132 1.0346640348434448 -8
v 32 1.1011929512023926 -8
vt 9.1000001702923328E-05 0.057920992374420166
vt 0.079332999885082245 0.17873698472976685
vt 0.068033002316951752 0.049578011035919189
vt 0.0021540001034736633 0.11861598491668701
vt 0.18023000657558441 0.049085021018981934
vt 0.30824100971221924 0.16496998071670532
vt 0.33123201131820679 0.04748302698135376
vt 0.53566199541091919 0.039739012718200684
vt 0.43144100904464722 0.03786700963973999
vt 0.53665101528167725 0.146356999874115
vt 0.31874901056289673 0.396664023399353
vt 0.54959100484848022 0.39192599058151245
vt 0.0063740001060068607 0.18813300132751465
vt 0.013686000369489193 0.33925098180770874
vt 0.089423000812530518 0.41134601831436157
vt 0.77487301826477051 0.10438799858093262
vt 0.78233802318573 0.637118011713028
vt 0.67527300119400024 0.022624015808105469
vt 0.77077001333236694 0.010694026947021484
vt 0.93398201465606689 0.085956990718841553
vt 0.9341769814491272 0.024815976619720459
vt 0.93425202369689941 0.0011770129203796387
vt 0.94094699621200562 0.32107001543045044
vt 0.011257000267505646 0.42044097185134888
vt 0.10023699700832367 0.6424030065536499
vt 0.0080080004408955574 0.55911999940872192
vt 0.33038398623466492 0.62665900588035583
vt 0.54784500598907471 0.62483400106430054
vt 0.0080270003527402878 0.65134599804878235
vt 0.11539799720048904 0.87045000493526459
vt 0.0084250001236796379 0.776871994137764
vt 0.55833601951599121 0.85574500262737274
vt 0.343519002199173 0.85548399388790131
vt 0.9177899956703186 0.63188698887825012
vt 0.91359901428222656 0.744625985622406
vt 0.91299998760223389 0.76073500514030457
vt 0.0065819998271763325 0.87954899668693542
vt 0.12174700200557709 0.98163500055670738
vt 0.00698099983856082 0.93675100058317184
vt 0.0073159998282790184 0.9849439999088645
vt 0.23645299673080444 0.98037200048565865
vt 0.33834800124168396 0.9842080008238554
vt 0.44179099798202515 0.990209000185132
vt 0.69999802112579346 0.99441799987107515
vt 0.57217901945114136 0.98271000012755394
vt 0.79157400131225586 0.99783200002275407
vt 0.90687799453735352 0.99882300000172108
vn 0.25022900104522705 0.91284799575805664 -0.32263699173927307
vn -0.062189999967813492 0.99794101715087891 -0.015676999464631081
vn 0.082447998225688934 0.94260698556900024 -0.32356399297714233
vn 0.14988599717617035 0.96535098552703857 -0.21361799538135529
vn -0.226283997297287 0.95866298675537109 -0.17251099646091461
vn -0.12654100358486176 0.96652901172637939 0.22318099439144135
vn -0.31570300459861755 0.87127900123596191 0.37577098608016968
vn -0.16713200509548187 0.90812402963638306 0.38389700651168823
vn -0.04686100035905838 0.922406017780304 0.38336798548698425
vn -0.16623899340629578 0.911408007144928 0.37643000483512878
vn -0.0076089999638497829 0.99400800466537476 0.10904499888420105
vn -0.14078399538993835 0.98696798086166382 0.0779390037059784
vn -0.13356600701808929 0.97937101125717163 0.15163199603557587
vn -0.11383700370788574 0.97770202159881592 0.17646600306034088
vn -0.091457001864910126 0.98236900568008423 0.16305500268936157
vn -0.24802300333976746 0.91959798336029053 0.30467098951339722
vn -0.22539299726486206 0.967877984046936 0.11140300333499908
vn -0.28408700227737427 0.87964999675750732 0.38145801424980164
vn -0.2144010066986084 0.89380502700805664 0.39388400316238403
vn -0.15246699750423431 0.94318902492523193 0.29521000385284424
vn -0.14070700109004974 0.90741199254989624 0.39598599076271057
vn -0.14070700109004974 0.90741199254989624 0.39598700404167175
vn -0.15035900473594666 0.97530198097229 0.16179899871349335
vn -0.0676639974117279 0.98754000663757324 0.14207999408245087
vn -0.061753999441862106 0.995648980140686 0.069780997931957245
vn -0.049835000187158585 0.98922997713088989 0.13762399554252625
vn -0.13223899900913239 0.98418402671813965 0.11787299811840057
vn -0.15899500250816345 0.98704898357391357 0.021314999088644981
vn -0.0061900001019239426 0.99961197376251221 0.027160000056028366
vn -0.046353999525308609 0.99135702848434448 0.12273000180721283
vn -0.032878998667001724 0.99945801496505737 -0.0017219999572262168
vn -0.19723400473594666 0.96359997987747192 0.18048399686813355
vn -0.05128299817442894 0.97903501987457275 0.19712899625301361
vn -0.14556799829006195 0.97731697559356689 0.15381999313831329
vn -0.14577199518680573 0.97770601511001587 0.15113399922847748
vn -0.13486699759960175 0.981069028377533 0.13897399604320526
vn -0.091558001935482025 0.98222702741622925 0.16385400295257568
vn -0.049501001834869385 0.96772998571395874 0.247079998254776
vn -0.085311003029346466 0.96494001150131226 0.24821999669075012
vn -0.085311003029346466 0.96494001150131226 0.24821999669075012
vn 0.022435000166296959 0.960519015789032 0.27731001377105713
vn 0.018301999196410179 0.93197500705718994 0.362060010433197
vn -0.12510399520397186 0.93745499849319458 0.3248479962348938
vn -0.2466450035572052 0.95701199769973755 0.15262599289417267
vn -0.27643999457359314 0.93963301181793213 0.20167100429534912
vn -0.18151399493217468 0.97393602132797241 0.1360200047492981
vn -0.13081400096416473 0.982246994972229 0.13445700705051422
f 1/1/1 2/2/2 3/3/3
f 1/1/1 4/4/4 2/2/2
f 5/5/5 6/6/6 7/7/7
f 8/8/8 9/9/9 10/10/10
f 6/6/6 2/2/2 11/11/11
f 3/3/3 6/6/6 5/5/5
f 3/3/3 2/2/2 6/6/6
f 7/7/7 10/10/10 9/9/9
f 7/7/7 6/6/6 10/10/10
f 10/10/10 6/6/6 12/12/12
f 4/4/4 13/13/13 2/2/2
f 2/2/2 14/14/14 15/15/15
f 2/2/2 13/13/13 14/14/14
f 16/16/16 12/12/12 17/17/17
f 18/18/18 16/16/16 19/19/19
f 20/20/20 19/19/19 16/16/16
f 20/20/20 21/21/21 19/19/19
f 21/21/21 22/22/22 19/19/19
f 20/20/20 16/16/16 23/23/23
f 18/18/18 10/10/10 16/16/16
f 18/18/18 8/8/8 10/10/10
f 16/16/16 10/10/10 12/12/12
f 24/24/24 25/25/25 15/15/15
f 24/24/24 26/26/26 25/25/25
f 24/24/24 15/15/15 14/14/14
f 11/11/11 2/2/2 15/15/15
f 15/15/15 27/27/27 11/11/11
f 12/12/12 11/11/11 28/28/28
f 11/11/11 12/12/12 6/6/6
f 29/29/29 30/30/30 25/25/25
f 29/29/29 31/31/31 30/30/30
f 27/27/27 32/32/32 28/28/28
f 27/27/27 15/15/15 25/25/25
f 28/28/28 11/11/11 27/27/27
f 28/28/28 32/32/32 17/17/17
f 29/29/29 25/25/25 26/26/26
f 25/25/25 33/33/33 27/27/27
f 34/34/34 16/16/16 17/17/17
f 34/34/34 23/23/23 16/16/16
f 28/28/28 17/17/17 12/12/12
f 34/34/34 17/17/17 35/35/35
f 35/35/35 17/17/17 36/36/36
f 37/37/37 30/30/30 31/31/31
f 37/37/37 38/38/38 30/30/30
f 37/37/37 39/39/39 38/38/38
f 39/39/39 40/40/40 38/38/38
f 41/41/41 30/30/30 38/38/38
f 41/41/41 33/33/33 30/30/30
f 42/42/42 33/33/33 41/41/41
f 33/33/33 43/43/43 32/32/32
f 33/33/33 42/42/42 43/43/43
f 44/44/44 32/32/32 45/45/45
f 46/46/46 32/32/32 44/44/44
f 46/46/46 17/17/17 32/32/32
f 45/45/45 32/32/32 43/43/43
f 27/27/27 33/33/33 32/32/32
f 47/47/47 17/17/17 46/46/46
f 47/47/47 36/36/36 17/17/17
f 25/25/25 30/30/30 33/33/33
