mtllib m300212.mtl
usemtl material0
v 128 5.3963041305541992 -378.7850341796875
v 132.69110107421875 4.9156961441040039 -384
v 128 5.1065769195556641 -384
v 128 5.8547711372375488 -345.00167798995972
v 140.96633911132813 5.0103192329406738 -359.41510009765625
v 128 5.952247142791748 -358.73345899581909
v 128 6.3146648406982422 -328.10952758789062
v 141.81697082519531 6.6949601173400879 -343.46600341796875
v 128 6.0882868766784668 -342.734375
v 128 5.7790131568908691 -361.89303588867188
v 140.12001037597656 4.194727897644043 -375.36724853515625
v 128 5.4059357643127441 -374.731201171875
v 128 6.0513949394226074 -320
v 134.10835266113281 5.8391852378845215 -320
v 128 6.2018709182739258 -325.49850463867188
v 139.66441345214844 4.2196898460388184 -384
v 147.88821411132813 4.923832893371582 -384
v 156.08064293861389 5.2962331771850586 -376.21371459960938
v 155.67039489746094 5.4512219429016113 -384
v 156.92231798171997 5.1758060455322266 -360.25823974609375
v 163.08932495117188 7.184074878692627 -384
v 172.04249572753906 6.6427750587463379 -377.06106567382812
v 157.77027893066406 6.3204169273376465 -344.30721998214722
v 171.68228054046631 7.8292059898376465 -384
v 178.28877258300781 8.4942646026611328 -384
v 188.01321411132813 9.7728996276855469 -377.91473388671875
v 187.69464111328125 10.289987564086914 -384
v 172.88006591796875 5.6937499046325684 -361.10263061523438
v 188.85150146484375 8.9703569412231445 -361.956787109375
v 192 9.7697839736938477 -378.125244140625
v 192 9.13491153717041 -365.45596313476562
v 189.68927001953125 8.0612964630126953 -345.99850511550903
v 192 9.0177068710327148 -362.12322998046875
v 192 8.236912727355957 -348.56646704673767
v 192 10.197216033935547 -384
v 192 10.058483123779297 -382.34536743164062
v 173.72483825683594 6.19872522354126 -345.14935302734375
v 142.65989685058594 6.8258419036865234 -327.51141357421875
v 128 6.323422908782959 -326.735595703125
v 143.05268859863281 6.09921407699585 -320
v 150.99928283691406 5.7572989463806152 -320
v 158.61236596107483 6.2823581695556641 -328.35205078125
v 159.04895001649857 5.4412050247192383 -320
v 167.88828992843628 5.4584407806396484 -320
v 174.56219482421875 5.2060928344726562 -329.1907958984375
v 175.04615783691406 4.9670109748840332 -320
v 184.78668212890625 6.2165541648864746 -320
v 191.05593872070313 6.9332351684570312 -320
v 190.52650451660156 7.0457148551940918 -330.03985595703125
v 192 7.0070052146911621 -328.71383666992188
v 192 6.9171900749206543 -320
v 192 8.0254020690917969 -346.12042188644409
v 192 7.1205520629882812 -331.67745971679688
v 192 7.0234131813049316 -330.11758422851562
v 192 7.0120420455932617 -329.144775390625
vt 0.91575300693511963 0.002258002758026123
vt 0.9964669942855835 0.0749940276145935
vt 0.9964669942855835 0.0024399757385253906
vt 0.39351999759674072 0.0021870136260986328
vt 0.61637699604034424 0.2028539776802063
vt 0.60572898387908936 0.0019559860229492188
vt 0.13226699829101563 0.0012040138244628906
vt 0.36853900551795959 0.21603900194168091
vt 0.35829699039459229 0.0021790266036987305
vt 0.65462899208068848 0.0021190047264099121
vt 0.86325597763061523 0.19056200981140137
vt 0.85310697555541992 0.0023499727249145508
vt 0.0068259998224675655 0.00020402669906616211
vt 0.0059090000577270985 0.094651997089385986
vt 0.091825000941753387 0.00094801187515258789
vt 0.99665099382400513 0.1832919716835022
vt 0.99692702293396 0.31084299087524414
vt 0.87680900096893311 0.4377710223197937
vt 0.99715501070022583 0.43137997388839722
vt 0.62910699844360352 0.44945800304412842
vt 0.99790102243423462 0.5491119921207428
vt 0.88775599002838135 0.68541800975799561
vt 0.38197699189186096 0.46261799335479736
vt 0.99664002656936646 0.68227100372314453
vt 0.9961169958114624 0.78487899899482727
vt 0.90186202526092529 0.93686699867248535
vt 0.99629902839660645 0.93325600028038025
vt 0.64056402444839478 0.69626998901367188
vt 0.65486299991607666 0.94816499948501587
vt 0.90469497442245483 0.9984979999717325
vt 0.70866900682449341 0.99718299997039139
vt 0.40478700399398804 0.956470999866724
vt 0.65367799997329712 0.99695999990217388
vt 0.44386899471282959 0.99293799977749586
vt 0.99525398015975952 0.99979600000369828
vt 0.9700620174407959 0.99893200001679361
vt 0.39383998513221741 0.70798599720001221
vt 0.12199699878692627 0.22945302724838257
vt 0.11103399842977524 0.0011010169982910156
vt 0.0054120002314448357 0.23614400625228882
vt 0.0055630002170801163 0.35905998945236206
vt 0.13535800576210022 0.4745439887046814
vt 0.0065449997782707214 0.48354697227478027
vt 0.0053670001216232777 0.61761999130249023
vt 0.14656999707221985 0.71692600846290588
vt 0.007044999860227108 0.72848200798034668
vt 0.0031190000008791685 0.8744170069694519
vt 0.0022549999412149191 0.971925999969244
vt 0.157492995262146 0.96536999940872192
vt 0.1367579996585846 0.98792800027877092
vt 0.0020989999175071716 0.98651599977165461
vt 0.4060479998588562 0.99221100006252527
vt 0.18244600296020508 0.98855600040405989
vt 0.15829700231552124 0.98816100042313337
vt 0.14341799914836884 0.987997000105679
vn 0.085680000483989716 0.996213972568512 -0.01473699975758791
vn 0.0837239995598793 0.99635201692581177 -0.016509000211954117
vn 0.040594000369310379 0.99763697385787964 -0.055424999445676804
vn -0.020625999197363853 0.99682098627090454 -0.076957002282142639
vn 0.0062489998526871204 0.99837601184844971 -0.05662199854850769
vn 0.07124599814414978 0.99720001220703125 -0.022715000435709953
vn -0.036942999809980392 0.99928098917007446 -0.0084929997101426125
vn -0.015948999673128128 0.99847900867462158 -0.052783999592065811
vn -0.046835001558065414 0.99724298715591431 -0.057564999908208847
vn 0.07612600177526474 0.99591201543807983 -0.048622999340295792
vn 0.008839000016450882 0.999779999256134 -0.019026000052690506
vn 0.098590001463890076 0.99499797821044922 -0.0160910002887249
vn 0.034706998616456985 0.99902302026748657 0.027340000495314598
vn -0.01408000010997057 0.99658399820327759 0.081376999616622925
vn -0.011970000341534615 0.99679899215698242 0.079047001898288727
vn 0.010134000331163406 0.9999459981918335 0.0023570000194013119
vn -0.072313003242015839 0.99719798564910889 0.019151000306010246
vn -0.086085997521877289 0.99585402011871338 0.02937999926507473
vn -0.14545799791812897 0.98898601531982422 0.02734999917447567
vn -0.019921999424695969 0.99952000379562378 -0.023742999881505966
vn -0.11457499861717224 0.98413300514221191 0.13547800481319428
vn -0.11560700088739395 0.98797601461410522 0.10265400260686874
vn 0.014926999807357788 0.99921399354934692 -0.03673199936747551
vn -0.085924997925758362 0.98129898309707642 0.17224499583244324
vn -0.16367200016975403 0.97989100217819214 0.11412700265645981
vn -0.0914129987359047 0.99327200651168823 0.071091003715991974
vn -0.086071997880935669 0.99232101440429688 0.088826999068260193
vn -0.10343299806118012 0.99421799182891846 0.028851000592112541
vn -0.10333599895238876 0.99303001165390015 0.056683998554944992
vn 0.0039200000464916229 0.99822300672531128 0.0594559982419014
vn -0.00044400000479072332 0.99891501665115356 0.04657600075006485
vn -0.06186399981379509 0.99651098251342773 0.056033000349998474
vn -0.012593000195920467 0.998865008354187 0.045942001044750214
vn -0.0045239999890327454 0.99792802333831787 0.06417500227689743
vn 0.021467000246047974 0.99627399444580078 0.083532996475696564
vn 0.017488999292254448 0.99664300680160522 0.079976998269557953
vn -0.05158500000834465 0.998652994632721 0.0054950001649558544
vn 0.0014880000380799174 0.99895000457763672 0.045786000788211823
vn -0.031699001789093018 0.99836599826812744 0.047548998147249222
vn 0.0081420000642538071 0.99536097049713135 0.0958620011806488
vn 0.039923001080751419 0.99446898698806763 0.097144998610019684
vn 0.036410000175237656 0.99820202589035034 0.047609999775886536
vn 0.017854999750852585 0.99490100145339966 0.099265001714229584
vn 0.052062999457120895 0.9978179931640625 0.040610998868942261
vn -0.023336000740528107 0.99877798557281494 0.043554998934268951
vn -0.032721001654863358 0.99908000230789185 0.027712000533938408
vn -0.11672899872064591 0.99294799566268921 0.020689999684691429
vn -0.04622500017285347 0.99883800745010376 0.013628000393509865
vn -0.047469001263380051 0.99807202816009521 0.0399789996445179
vn 0.016659999266266823 0.99980401992797852 0.010672999545931816
vn 0.016992999240756035 0.99980300664901733 0.01030499953776598
vn 0.019429000094532967 0.99701601266860962 0.0747160017490387
vn 0.018701000139117241 0.99787402153015137 0.062428999692201614
vn 0.017115000635385513 0.99914002418518066 0.037762999534606934
vn 0.015749000012874603 0.99980801343917847 0.011686000041663647
f 1/1/1 2/2/2 3/3/3
f 4/4/4 5/5/5 6/6/6
f 7/7/7 8/8/8 9/9/9
f 10/10/10 11/11/11 12/12/12
f 13/13/13 14/14/14 15/15/15
f 12/12/12 2/2/2 1/1/1
f 12/12/12 11/11/11 2/2/2
f 11/11/11 16/16/16 2/2/2
f 16/16/16 11/11/11 17/17/17
f 11/11/11 5/5/5 18/18/18
f 6/6/6 11/11/11 10/10/10
f 6/6/6 5/5/5 11/11/11
f 18/18/18 17/17/17 11/11/11
f 18/18/18 19/19/19 17/17/17
f 5/5/5 20/20/20 18/18/18
f 19/19/19 18/18/18 21/21/21
f 20/20/20 22/22/22 18/18/18
f 8/8/8 20/20/20 5/5/5
f 8/8/8 23/23/23 20/20/20
f 9/9/9 5/5/5 4/4/4
f 9/9/9 8/8/8 5/5/5
f 24/24/24 22/22/22 25/25/25
f 22/22/22 21/21/21 18/18/18
f 22/22/22 24/24/24 21/21/21
f 26/26/26 25/25/25 22/22/22
f 26/26/26 27/27/27 25/25/25
f 28/28/28 26/26/26 22/22/22
f 29/29/29 30/30/30 26/26/26
f 29/29/29 31/31/31 30/30/30
f 32/32/32 33/33/33 29/29/29
f 32/32/32 34/34/34 33/33/33
f 29/29/29 26/26/26 28/28/28
f 35/35/35 26/26/26 36/36/36
f 35/35/35 27/27/27 26/26/26
f 20/20/20 37/37/37 28/28/28
f 28/28/28 22/22/22 20/20/20
f 28/28/28 32/32/32 29/29/29
f 15/15/15 38/38/38 39/39/39
f 15/15/15 14/14/14 38/38/38
f 14/14/14 40/40/40 38/38/38
f 41/41/41 38/38/38 40/40/40
f 42/42/42 23/23/23 38/38/38
f 43/43/43 44/44/44 42/42/42
f 41/41/41 42/42/42 38/38/38
f 41/41/41 43/43/43 42/42/42
f 23/23/23 42/42/42 37/37/37
f 8/8/8 38/38/38 23/23/23
f 45/45/45 37/37/37 42/42/42
f 46/46/46 47/47/47 45/45/45
f 44/44/44 45/45/45 42/42/42
f 44/44/44 46/46/46 45/45/45
f 37/37/37 45/45/45 32/32/32
f 45/45/45 48/48/48 49/49/49
f 45/45/45 47/47/47 48/48/48
f 48/48/48 50/50/50 49/49/49
f 48/48/48 51/51/51 50/50/50
f 49/49/49 52/52/52 32/32/32
f 49/49/49 53/53/53 52/52/52
f 45/45/45 49/49/49 32/32/32
f 28/28/28 37/37/37 32/32/32
f 20/20/20 23/23/23 37/37/37
f 39/39/39 8/8/8 7/7/7
f 39/39/39 38/38/38 8/8/8
f 31/31/31 29/29/29 33/33/33
f 34/34/34 32/32/32 52/52/52
f 54/54/54 49/49/49 55/55/55
f 55/55/55 49/49/49 50/50/50
f 53/53/53 49/49/49 54/54/54
f 36/36/36 26/26/26 30/30/30
