mtllib m3000000221.mtl
usemtl material0
v 4 1.2991349697113037 -28
v 4 1.2901409864425659 -27.718598961830139
v 4.2531750202178955 1.28923499584198 -28
v 4 1.2806479930877686 -27.18001401424408
v 4 1.2965359687805176 -26.6628879904747
v 4.4883860349655151 1.2697889804840088 -27.205770015716553
v 4 1.271401047706604 -25.1800479888916
v 4 1.2655049562454224 -24.551550030708313
v 4.5937520265579224 1.2863980531692505 -25.211449027061462
v 4 1.2067689895629883 -24
v 4.4533569812774658 1.139333963394165 -24
v 4 1.2034889459609985 -24.09102201461792
v 4.6454939842224121 1.1030559539794922 -24.213629007339478
v 4 1.2002880573272705 -24.17985200881958
v 4 1.2633110284805298 -25.60725399851799
v 4.5410100221633911 1.2661310434341431 -26.208569005131721
v 4 1.2961809635162354 -26.180096000432968
v 4.4465340375900269 1.2847559452056885 -28
v 5.2028980255126953 1.2361999750137329 -28
v 5.5380949974060059 1.2434710264205933 -26.261150002479553
v 5.5907909870147705 1.2544620037078857 -25.263997972011566
v 4.6569550037384033 1.1391140222549439 -24
v 5.4853889942169189 1.2305279970169067 -27.258293032646179
v 5.4034810066223145 1.30771005153656 -24
v 5.6437569856643677 1.3201379776000977 -24.267035961151123
v 4 1.2881230115890503 -27.604148983955383
v 5.4462140202522278 1.2267110347747803 -28
v 6.1526159942150116 1.1808700561523438 -28
v 6.5350329875946045 1.191027045249939 -26.313627004623413
v 6.5876529812812805 1.1863930225372315 -25.316422998905182
v 5.65803200006485 1.355131983757019 -24
v 6.4823459982872009 1.1819889545440674 -27.310785055160522
v 6.3531849980354309 1.2449209690093994 -24
v 6.6401410102844238 1.1549030542373657 -24.3191260099411
v 6.4458850026130676 1.1669670343399048 -28
v 7.4793369770050049 1.1402870416641235 -27.363299965858459
v 7.5846120119094849 1.138342022895813 -25.368915975093842
v 7.53199303150177 1.1429769992828369 -26.366120994091034
v 7.4456499814987183 1.1254739761352539 -28
v 7.1023579835891724 1.1393740177154541 -28
v 6.6566389799118042 1.0865910053253174 -24
v 8 1.1097979545593262 -28
v 8 1.1112320423126221 -27.942064046859741
v 8 1.1124889850616455 -27.706437945365906
v 8 1.1141719818115234 -27.390712976455688
v 8 1.1211080551147461 -26.390765994787216
v 8 1.1198890209197998 -25.830647006630898
v 8 1.1162869930267334 -25.390780985355377
v 7.63714599609375 1.116129994392395 -24.37165105342865
v 8 1.1043260097503662 -24.774978995323181
v 8 1.1168609857559204 -26.886353015899658
v 8 1.098641037940979 -24.390756964683533
v 7.6567310094833374 1.1093070507049561 -24
v 6.9946780204772949 1.1356220245361328 -24
v 8 1.0924780368804932 -24
v 8 1.0948829650878906 -24.152508020401
vt 0.98882997035980225 0.0034059882164001465
vt 0.91976499557495117 0.0034930109977722168
vt 0.98882997035980225 0.065559983253479
vt 0.7876250147819519 0.0035989880561828613
vt 0.66070997714996338 0.0035660266876220703
vt 0.79399198293685913 0.12343102693557739
vt 0.29670900106430054 0.0042949914932250977
vt 0.14252699911594391 0.0046219825744628906
vt 0.30472800135612488 0.14947998523712158
vt 0.0058360002003610134 0.0038099884986877441
vt 0.00046400001156143844 0.11956101655960083
vt 0.028155000880360603 0.0048320293426513672
vt 0.055952001363039017 0.16392302513122559
vt 0.049956001341342926 0.0052520036697387695
vt 0.40152499079704285 0.0042639970779418945
vt 0.54938197135925293 0.13659000396728516
vt 0.542277991771698 0.0036780238151550293
vt 0.9888489842414856 0.11300498247146606
vt 0.98879599571228027 0.29892897605895996
vt 0.56234598159790039 0.38124299049377441
vt 0.31772199273109436 0.3941810131072998
vt 0.0030189999379217625 0.16943901777267456
vt 0.806833028793335 0.36819499731063843
vt 0.0059449998661875725 0.35715800523757935
vt 0.073109999299049377 0.41428297758102417
vt 0.89168500900268555 0.0035150051116943359
vt 0.988785982131958 0.35866200923919678
vt 0.988789975643158 0.53231200575828552
vt 0.57552599906921387 0.62612101435661316
vt 0.33084601163864136 0.63927501440048218
vt 0.0072590000927448273 0.420661985874176
vt 0.82013702392578125 0.61302399635314941
vt 0.010324999690055847 0.59028100967407227
vt 0.090724997222423553 0.661745011806488
vt 0.98925000429153442 0.60413900017738342
vt 0.833296000957489 0.857792004942894
vt 0.34400299191474915 0.88410600274801254
vt 0.58869200944900513 0.87095199525356293
vt 0.98952502012252808 0.84950900077819824
vt 0.98934900760650635 0.76531900465488434
vt 0.01154400035738945 0.67423498630523682
vt 0.98963499069213867 0.98554900009185076
vt 0.975417971611023 0.98555099964141846
vt 0.91762399673461914 0.9855960002169013
vt 0.84017300605773926 0.98566799983382225
vt 0.594871997833252 0.98587599955499172
vt 0.45737200975418091 0.98598899971693754
vt 0.349467009305954 0.9861420001834631
vt 0.1065479964017868 0.90633100271224976
vt 0.20762099325656891 0.99295999994501472
vt 0.71644800901412964 0.98578200023621321
vt 0.11338700354099274 0.99530600011348724
vt 0.015432000160217285 0.9122920036315918
vt 0.022946000099182129 0.75724700093269348
vt 0.016431000083684921 0.99659299990162253
vt 0.053844001144170761 0.996121000032872
vn 0.039053000509738922 0.998727023601532 0.031922999769449234
vn 0.026867000386118889 0.99941897392272949 0.020957000553607941
vn 0.027400000020861626 0.99939501285552979 0.02143700048327446
vn 0.021841999143362045 0.99973398447036743 -0.0073560001328587532
vn 0.047371000051498413 0.99885600805282593 -0.0065970001742243767
vn 0.038054998964071274 0.99927300214767456 0.0020860000513494015
vn -0.025477999821305275 0.99966597557067871 -0.00430000014603138
vn 0.11391499638557434 0.98445701599121094 0.13366700708866119
vn 0.026976000517606735 0.99791800975799561 0.058579999953508377
vn 0.14703400433063507 0.98848998546600342 -0.035620998591184616
vn 0.10835900157690048 0.99157798290252686 -0.070928998291492462
vn 0.14703400433063507 0.98848998546600342 -0.035620998591184616
vn -0.018984999507665634 0.99980902671813965 -0.0045810001902282238
vn 0.15196999907493591 0.98623102903366089 0.065223999321460724
vn -0.00648800004273653 0.99997800588607788 -0.0011470000026747584
vn 0.030984999611973763 0.99951797723770142 -0.0019519999623298645
vn 0.057002000510692596 0.99792701005935669 0.029888000339269638
vn 0.042920000851154327 0.99894100427627563 0.016564000397920609
vn 0.045664001256227493 0.998956024646759 -0.0011660000309348106
vn 0.037528999149799347 0.99918800592422485 -0.014649000018835068
vn 0.016690999269485474 0.99984198808670044 -0.0061920001171529293
vn -0.1138949990272522 0.98062098026275635 -0.159403994679451
vn 0.0433880016207695 0.998993992805481 -0.011345000006258488
vn -0.20814000070095062 0.96770000457763672 -0.14224399626255035
vn -0.036747001111507416 0.99537098407745361 -0.088799998164176941
vn 0.023155000060796738 0.999576985836029 0.0176170002669096
vn 0.051435001194477081 0.998645007610321 -0.00785600021481514
vn 0.051982000470161438 0.998445987701416 -0.020083999261260033
vn 0.051176998764276505 0.99867099523544312 -0.006068000104278326
vn 0.07036600261926651 0.99751901626586914 0.0022420000750571489
vn -0.0076139997690916061 0.99154597520828247 -0.12952899932861328
vn 0.044904999434947968 0.99882102012634277 -0.018456999212503433
vn 0.23904399573802948 0.96924799680709839 -0.058456998318433762
vn 0.12324900180101395 0.99124401807785034 0.047375001013278961
vn 0.044750001281499863 0.99870699644088745 -0.024134999141097069
vn 0.043458998203277588 0.99896401166915894 -0.013492999598383904
vn 0.049295000731945038 0.99870198965072632 0.01279900036752224
vn 0.047731999307870865 0.99885797500610352 -0.001973999897018075
vn 0.034554000943899155 0.99908798933029175 -0.025072000920772552
vn 0.040855001658201218 0.998852014541626 -0.025008000433444977
vn 0.14905500411987305 0.96847301721572876 0.19960500299930573
vn 0.028257999569177628 0.9992939829826355 -0.024744000285863876
vn 0.033289000391960144 0.99924099445343018 -0.020214999094605446
vn 0.049812998622655869 0.998744010925293 -0.0053249998018145561
vn 0.049812998622655869 0.998744010925293 -0.0053249998018145561
vn 0.046498998999595642 0.9989129900932312 -0.0033740000799298286
vn 0.048346001654863358 0.99882400035858154 0.0035749999806284904
vn 0.05372999981045723 0.998462975025177 0.01360000018030405
vn 0.045014999806880951 0.9988359808921814 0.017309000715613365
vn 0.052834000438451767 0.99843502044677734 0.018312999978661537
vn 0.048976000398397446 0.99878102540969849 -0.0060789999552071095
vn 0.048937000334262848 0.99868601560592651 0.015248999930918217
vn 0.04449399933218956 0.998881995677948 0.015992000699043274
vn -0.0031840000301599503 0.99795597791671753 0.063832998275756836
vn 0.048962999135255814 0.99867600202560425 0.015752999112010002
vn 0.048962999135255814 0.99867600202560425 0.015752999112010002
f 1/1/1 2/2/2 3/3/3
f 4/4/4 5/5/5 6/6/6
f 7/7/7 8/8/8 9/9/9
f 10/10/10 11/11/11 12/12/12
f 12/12/12 13/13/13 14/14/14
f 12/12/12 11/11/11 13/13/13
f 15/15/15 16/16/16 17/17/17
f 5/5/5 16/16/16 6/6/6
f 5/5/5 17/17/17 16/16/16
f 18/18/18 6/6/6 19/19/19
f 8/8/8 13/13/13 9/9/9
f 8/8/8 14/14/14 13/13/13
f 16/16/16 9/9/9 20/20/20
f 9/9/9 13/13/13 21/21/21
f 11/11/11 22/22/22 13/13/13
f 23/23/23 6/6/6 16/16/16
f 15/15/15 9/9/9 16/16/16
f 15/15/15 7/7/7 9/9/9
f 24/24/24 13/13/13 22/22/22
f 24/24/24 25/25/25 13/13/13
f 18/18/18 4/4/4 6/6/6
f 18/18/18 26/26/26 4/4/4
f 26/26/26 3/3/3 2/2/2
f 26/26/26 18/18/18 3/3/3
f 16/16/16 20/20/20 23/23/23
f 27/27/27 23/23/23 28/28/28
f 13/13/13 25/25/25 21/21/21
f 20/20/20 21/21/21 29/29/29
f 21/21/21 25/25/25 30/30/30
f 24/24/24 31/31/31 25/25/25
f 32/32/32 23/23/23 20/20/20
f 9/9/9 21/21/21 20/20/20
f 33/33/33 25/25/25 31/31/31
f 33/33/33 34/34/34 25/25/25
f 19/19/19 23/23/23 27/27/27
f 19/19/19 6/6/6 23/23/23
f 28/28/28 32/32/32 35/35/35
f 28/28/28 23/23/23 32/32/32
f 21/21/21 30/30/30 29/29/29
f 29/29/29 36/36/36 32/32/32
f 30/30/30 34/34/34 37/37/37
f 38/38/38 29/29/29 30/30/30
f 39/39/39 32/32/32 36/36/36
f 39/39/39 40/40/40 32/32/32
f 33/33/33 41/41/41 34/34/34
f 35/35/35 32/32/32 40/40/40
f 25/25/25 34/34/34 30/30/30
f 20/20/20 29/29/29 32/32/32
f 42/42/42 36/36/36 43/43/43
f 42/42/42 39/39/39 36/36/36
f 44/44/44 36/36/36 45/45/45
f 44/44/44 43/43/43 36/36/36
f 37/37/37 38/38/38 30/30/30
f 46/46/46 37/37/37 47/47/47
f 46/46/46 38/38/38 37/37/37
f 48/48/48 49/49/49 50/50/50
f 48/48/48 37/37/37 49/49/49
f 49/49/49 37/37/37 34/34/34
f 46/46/46 51/51/51 38/38/38
f 48/48/48 47/47/47 37/37/37
f 45/45/45 38/38/38 51/51/51
f 45/45/45 36/36/36 38/38/38
f 50/50/50 49/49/49 52/52/52
f 38/38/38 36/36/36 29/29/29
f 53/53/53 34/34/34 54/54/54
f 53/53/53 49/49/49 34/34/34
f 54/54/54 34/34/34 41/41/41
f 55/55/55 49/49/49 53/53/53
f 55/55/55 56/56/56 49/49/49
f 56/56/56 52/52/52 49/49/49
