mtllib m300000122.mtl
usemtl material0
v 34.240543007850647 2.4400880336761475 -32
v 34.008628964424133 2.4157218933105469 -32
v 34.252045035362244 2.4294259548187256 -31.781109094619751
v 32.239589929580688 2.2437469959259033 -32
v 32 2.218113899230957 -31.661509990692139
v 32.256675958633423 2.230626106262207 -31.675103902816772
v 32 2.2303769588470459 -31.9478440284729
v 32 2.2326109409332275 -32
v 36.247611999511719 2.6677761077880859 -31.887248992919922
v 36.122215002775192 2.6593461036682129 -32
v 36.241687998175621 2.6733229160308838 -32
v 36.349086999893188 2.6846029758453369 -32
v 34.356922030448914 2.346919059753418 -29.78644597530365
v 32.361984014511108 2.23600697517395 -29.680744051933289
v 32 2.2183198928833008 -30.006280899047852
v 32 2.3477230072021484 -27.662045985460281
v 32.467770099639893 2.3370890617370605 -27.686713993549347
v 32 2.2640740871429443 -29.278350949287415
v 32 2.2323610782623291 -29.661617040634155
v 34.4621239900589 2.3298389911651611 -27.792006999254227
v 36.352061986923218 2.4983561038970947 -29.892285943031311
v 36.456699013710022 2.3665308952331543 -27.897453002631664
v 32 2.4197499752044678 -26.20855700969696
v 32.573528051376343 2.4337749481201172 -25.692668914794922
v 32 2.4597361087799072 -25.662466049194336
v 34.567543029785156 2.3567020893096924 -25.797722101211548
v 36.561873972415924 2.34407901763916 -25.902996063232422
v 38.451672077178955 2.48476505279541 -28.003177999984473
v 34.662925958633423 2.4509119987487793 -24
v 34.455134987831116 2.4583489894866943 -24
v 32.663436889648438 2.5419650077819824 -24
v 32 2.5362548828125 -24.505465030670166
v 32.344527959823608 2.5552899837493896 -24
v 32 2.5491878986358643 -24.309922933578491
v 38.347279071807861 2.6659040451049805 -29.998182058334351
v 36.5662379860878 2.4185850620269775 -24
v 36.662711977958679 2.4181740283966064 -24
v 38.243022918701172 2.8743860721588135 -31.993278980255127
v 38.249068975448608 2.87519907951355 -32
v 38.369728088378906 2.8837549686431885 -32
v 38.24266791343689 2.8747460842132568 -32
v 40 2.9966819286346436 -31.999181985855103
v 40 2.8581099510192871 -30.412415027618408
v 40 2.9967529773712158 -32
v 40 2.8224790096282959 -30.085957050323486
v 40 2.7878670692443848 -29.723492026329041
v 40 2.66855788230896 -28.085527002811432
v 40 2.6553289890289307 -27.612360000610352
v 38.55674409866333 2.4413158893585205 -26.008649945259094
v 40 2.577692985534668 -26.085299015045166
v 40 2.5440340042114258 -24.710975885391235
v 38.66220498085022 2.4769670963287354 -24.014394998550415
v 32 2.56896710395813 -24
v 38.390075922012329 2.4694299697875977 -24
v 38.649254083633423 2.4777500629425049 -24
v 38.662971019744873 2.47804594039917 -24
v 40 2.5533061027526855 -24.085283041000366
v 40 2.5586459636688232 -24.004771947860718
v 38.678219079971313 2.4788920879364014 -24
v 40 2.5589621067047119 -24
vt 0 0.28006798028945923
vt 0 0.2510790228843689
vt 0.027360999956727028 0.2815060019493103
vt 0 0.029949009418487549
vt 0.042311001569032669 0
vt 0.040612000972032547 0.032083988189697266
vt 0.0065199998207390308 0
vt 0 0
vt 0.01409399975091219 0.53095099329948425
vt 0 0.51527699828147888
vt 0 0.53021100163459778
vt 0 0.54363599419593811
vt 0.27669399976730347 0.29461497068405151
vt 0.28990700840950012 0.045247972011566162
vt 0.24921500682830811 0
vt 0.542244017124176 0
vt 0.53916102647781372 0.058471024036407471
vt 0.34020599722862244 0
vt 0.29229798913002014 0
vt 0.52599900960922241 0.30776500701904297
vt 0.26346400380134583 0.54400798678398132
vt 0.51281797885894775 0.5570870041847229
vt 0.7239300012588501 0
vt 0.78841602802276611 0.071690976619720459
vt 0.79219198226928711 0
vt 0.775285005569458 0.32094299793243408
vt 0.76212501525878906 0.57023400068283081
vt 0.49960300326347351 0.80645899474620819
vt 1 0.33286601305007935
vt 1 0.30689197778701782
vt 1 0.082930028438568115
vt 0.9368169903755188 0
vt 1 0.043066024780273438
vt 0.96126002073287964 0
vt 0.25022700428962708 0.79341000318527222
vt 1 0.57078000903129578
vt 1 0.58283901214599609
vt 0.00083999999333173037 0.78037799894809723
vt 0 0.7811339944601059
vt 0 0.79621599614620209
vt 0 0.7803339958190918
vt 0.00010199999815085903 1
vt 0.19844800233840942 1
vt 0 1
vt 0.23925499618053436 1
vt 0.28456398844718933 1
vt 0.48930901288986206 1
vt 0.548454999923706 1
vt 0.74891901016235352 0.81959299743175507
vt 0.7393379807472229 1
vt 0.91112798452377319 1
vt 0.99820101261138916 0.83277599513530731
vt 1 0
vt 1 0.79875899851322174
vt 1 0.831156998872757
vt 1 0.83287100493907928
vt 0.98934000730514526 1
vt 0.99940299987792969 1
vt 1 0.83477699756622314
vt 1 1
vn -0.1147570013999939 0.99190598726272583 0.054343000054359436
vn -0.097549997270107269 0.994156002998352 0.04623899981379509
vn -0.10567899793386459 0.99329298734664917 0.046911999583244324
vn -0.0898049995303154 0.99494701623916626 0.04490400105714798
vn -0.048420999199151993 0.99881398677825928 0.0050400001928210258
vn -0.075796999037265778 0.99684101343154907 0.023714000359177589
vn -0.046388000249862671 0.99800902605056763 0.042743001133203506
vn -0.046386998146772385 0.99800902605056763 0.042746998369693756
vn -0.0960799977183342 0.99265497922897339 0.073518000543117523
vn -0.1155959963798523 0.99180501699447632 0.054407000541687012
vn -0.1104779988527298 0.99237602949142456 0.054625000804662704
vn -0.09997200220823288 0.9932829737663269 0.058262001723051071
vn -0.06049799919128418 0.997780978679657 0.027821000665426254
vn -0.04416700080037117 0.998682975769043 -0.026112999767065048
vn -0.042415998876094818 0.99907499551773071 -0.0071169999428093433
vn 0.020010000094771385 0.99849802255630493 -0.050997000187635422
vn -0.010696000419557095 0.9993939995765686 -0.033128000795841217
vn 0.013380000367760658 0.99825102090835571 -0.0575920008122921
vn -0.013365999795496464 0.99794101715087891 -0.06272599846124649
vn 0.0021550001110881567 0.999966025352478 -0.0079520000144839287
vn -0.079577997326850891 0.99320501089096069 0.084918998181819916
vn -0.050041001290082932 0.99773800373077393 0.044879000633955
vn 0.02328299917280674 0.9983220100402832 -0.053024999797344208
vn 0.029583999887108803 0.99846601486206055 -0.04679499939084053
vn 0.041595000773668289 0.99688500165939331 -0.067006997764110565
vn 0.020006999373435974 0.99921500682830811 -0.034189000725746155
vn -0.027573000639677048 0.99959099292755127 -0.0076339999213814735
vn -0.076071001589298248 0.99562901258468628 0.054180998355150223
vn 0.027008999139070511 0.99818897247314453 -0.053743001073598862
vn 0.045395001769065857 0.9968559741973877 -0.064934000372886658
vn 0.044642001390457153 0.996815025806427 -0.066083997488021851
vn 0.041653998196125031 0.99695402383804321 -0.065935000777244568
vn 0.04099699854850769 0.99702900648117065 -0.065205998718738556
vn 0.040387999266386032 0.99709802865982056 -0.064529001712799072
vn -0.077221997082233429 0.99251300096511841 0.094633996486663818
vn 0.010133000090718269 0.99890601634979248 -0.045650999993085861
vn -0.027847999706864357 0.99891197681427 -0.037418000400066376
vn -0.084325999021530151 0.99162602424621582 0.097810998558998108
vn -0.070610001683235168 0.99587702751159668 0.056940000504255295
vn -0.068994000554084778 0.99400001764297485 0.084871001541614532
vn -0.099642999470233917 0.99330401420593262 0.058462001383304596
vn -0.06888599693775177 0.99384200572967529 0.0867919996380806
vn -0.080075003206729889 0.99184000492095947 0.09920799732208252
vn -0.06888899952173233 0.99388498067855835 0.086296997964382172
vn -0.088804997503757477 0.99138098955154419 0.096322998404502869
vn -0.10928600281476975 0.99108099937438965 0.076258003711700439
vn -0.11536099761724472 0.99227499961853027 0.045625999569892883
vn -0.09724300354719162 0.99423497915267944 0.04516499862074852
vn -0.073415003716945648 0.9972040057182312 0.01396500039845705
vn -0.091995999217033386 0.995028018951416 0.038169000297784805
vn -0.070277996361255646 0.997527003288269 -0.0007980000227689743
vn -0.051924001425504684 0.9985010027885437 -0.017318999394774437
vn 0.039586000144481659 0.99718701839447021 -0.063639998435974121
vn -0.029642000794410706 0.99886202812194824 -0.037365999072790146
vn -0.031449001282453537 0.99609702825546265 -0.082474999129772186
vn -0.039292998611927032 0.99658697843551636 -0.072598002851009369
vn -0.058049000799655914 0.99809998273849487 -0.020651999861001968
vn -0.060334999114274979 0.995989978313446 -0.0660569965839386
vn -0.060290999710559845 0.995989978313446 -0.066096998751163483
vn -0.060334999114274979 0.99599498510360718 -0.065981999039649963
f 1/1/1 2/2/2 3/3/3
f 4/4/4 5/5/5 6/6/6
f 4/4/4 7/7/7 5/5/5
f 7/7/7 4/4/4 8/8/8
f 9/9/9 1/1/1 3/3/3
f 9/9/9 10/10/10 1/1/1
f 4/4/4 3/3/3 2/2/2
f 4/4/4 6/6/6 3/3/3
f 11/11/11 9/9/9 12/12/12
f 6/6/6 13/13/13 3/3/3
f 10/10/10 9/9/9 11/11/11
f 5/5/5 14/14/14 6/6/6
f 5/5/5 15/15/15 14/14/14
f 3/3/3 13/13/13 9/9/9
f 14/14/14 16/16/16 17/17/17
f 14/14/14 18/18/18 16/16/16
f 18/18/18 14/14/14 19/19/19
f 17/17/17 20/20/20 13/13/13
f 17/17/17 13/13/13 14/14/14
f 13/13/13 21/21/21 9/9/9
f 13/13/13 22/22/22 21/21/21
f 6/6/6 14/14/14 13/13/13
f 17/17/17 23/23/23 24/24/24
f 17/17/17 16/16/16 23/23/23
f 25/25/25 24/24/24 23/23/23
f 17/17/17 24/24/24 20/20/20
f 20/20/20 24/24/24 26/26/26
f 27/27/27 20/20/20 26/26/26
f 20/20/20 27/27/27 22/22/22
f 22/22/22 27/27/27 28/28/28
f 24/24/24 29/29/29 26/26/26
f 24/24/24 30/30/30 29/29/29
f 13/13/13 20/20/20 22/22/22
f 25/25/25 31/31/31 24/24/24
f 25/25/25 32/32/32 31/31/31
f 32/32/32 33/33/33 31/31/31
f 32/32/32 34/34/34 33/33/33
f 35/35/35 21/21/21 22/22/22
f 15/15/15 19/19/19 14/14/14
f 36/36/36 27/27/27 26/26/26
f 36/36/36 37/37/37 27/27/27
f 38/38/38 9/9/9 21/21/21
f 39/39/39 38/38/38 40/40/40
f 41/41/41 38/38/38 39/39/39
f 42/42/42 38/38/38 43/43/43
f 42/42/42 40/40/40 38/38/38
f 42/42/42 44/44/44 40/40/40
f 38/38/38 12/12/12 9/9/9
f 38/38/38 41/41/41 12/12/12
f 28/28/28 35/35/35 22/22/22
f 45/45/45 28/28/28 46/46/46
f 45/45/45 35/35/35 28/28/28
f 46/46/46 28/28/28 47/47/47
f 43/43/43 35/35/35 45/45/45
f 43/43/43 38/38/38 35/35/35
f 48/48/48 49/49/49 50/50/50
f 49/49/49 47/47/47 28/28/28
f 49/49/49 48/48/48 47/47/47
f 50/50/50 49/49/49 51/51/51
f 27/27/27 52/52/52 49/49/49
f 49/49/49 28/28/28 27/27/27
f 35/35/35 38/38/38 21/21/21
f 53/53/53 33/33/33 34/34/34
f 31/31/31 30/30/30 24/24/24
f 54/54/54 55/55/55 52/52/52
f 56/56/56 52/52/52 55/55/55
f 27/27/27 54/54/54 52/52/52
f 27/27/27 37/37/37 54/54/54
f 51/51/51 52/52/52 57/57/57
f 51/51/51 49/49/49 52/52/52
f 57/57/57 52/52/52 58/58/58
f 58/58/58 59/59/59 60/60/60
f 58/58/58 52/52/52 59/59/59
f 36/36/36 26/26/26 29/29/29
f 59/59/59 52/52/52 56/56/56
