mtllib m3000311.mtl
usemtl material0
v 224 4.6686811447143555 -160
v 224 4.1381940841674805 -156.11036682128906
v 227.50090026855469 4.8782649040222168 -160
v 224 3.4921669960021973 -147.80136108398438
v 224 3.4973220825195312 -147.66606092453003
v 224.12779235839844 3.49458909034729 -147.80812096595764
v 224 3.6114590167999268 -139.8019871711731
v 224 3.6421380043029785 -139.22016906738281
v 224.54950046539307 3.608151912689209 -139.83099412918091
v 224 3.6724860668182373 -150.24630689620972
v 231.68997192382813 4.6469178199768066 -156.21092224121094
v 224 4.0975441932678223 -155.80307006835938
v 232.10667419433594 3.7551479339599609 -148.23030090332031
v 224.97251892089844 3.9843869209289551 -131.85478210449219
v 224 3.9954791069030762 -131.80345153808594
v 239.66610699892044 4.3571748733520508 -156.63119506835938
v 232.52578687667847 3.3491899967193604 -140.25135803222656
v 240.08306899666786 3.5191149711608887 -148.6507420539856
v 235.09988403320313 5.111720085144043 -160
v 239.49115002155304 4.9144649505615234 -160
v 244.37522888183594 5.2268152236938477 -160
v 247.64659118652344 4.9389801025390625 -157.05448913574219
v 231.49247741699219 5.1354198455810547 -160
v 247.4915771484375 5.0316929817199707 -160
v 250.29673767089844 4.9658331871032715 -160
v 256 4.4781942367553711 -157.49412536621094
v 256 4.5770339965820312 -159.09693908691406
v 256 4.6327219009399414 -160
v 256 4.0354981422424316 -149.53181505203247
v 248.47891235351563 2.9400920867919922 -141.09248399734497
v 240.50245702266693 3.1678431034088135 -140.67201209068298
v 240.92393499612808 3.235490083694458 -132.69471740722656
v 256 3.0263988971710205 -141.48992896080017
v 256 2.9741818904876709 -135.19297790527344
v 256 2.9669930934906006 -134.3260498046875
v 232.94776916503906 3.5183970928192139 -132.27442932128906
v 229.10282897949219 3.9439411163330078 -128
v 225.17692565917969 4.1631379127502441 -128
v 233.17454481124878 3.7351889610290527 -128
v 236.70078992843628 3.6198630332946777 -128
v 224 4.0489349365234375 -130.77371215820313
v 224 4.1796159744262695 -128
v 246.14119005203247 3.1332828998565674 -128
v 241.17219495773315 3.3163840770721436 -128
v 256 3.0202219486236572 -128
v 249.17062377929688 3.0474939346313477 -128
vt 0.99832999706268311 0.0062509775161743164
vt 0.87683302164077759 0.0052700042724609375
vt 0.99832999706268311 0.11480098962783814
vt 0.61887401342391968 0.0041559934616088867
vt 0.614683985710144 0.0041469931602478027
vt 0.61907202005386353 0.0081120133399963379
vt 0.37125900387763977 0.0036249756813049316
vt 0.35322600603103638 0.0035840272903442383
vt 0.37212198972702026 0.020635008811950684
vt 0.69475197792053223 0.004467010498046875
vt 0.88011598587036133 0.24379897117614746
vt 0.86723899841308594 0.0051950216293334961
vt 0.63150101900100708 0.25522899627685547
vt 0.12490800023078919 0.032342970371246338
vt 0.12341699749231339 0.0022410154342651367
vt 0.889814019203186 0.49098098278045654
vt 0.38420000672340393 0.26768499612808228
vt 0.64177602529525757 0.50234198570251465
vt 0.99744898080825806 0.3502500057220459
vt 0.99553298950195312 0.4862859845161438
vt 0.9960939884185791 0.63776001334190369
vt 0.90362697839736938 0.73860400915145874
vt 0.99840497970581055 0.23859900236129761
vt 0.99487698078155518 0.73460501432418823
vt 0.99405300617218018 0.82144699990749359
vt 0.9140629768371582 0.99768800009042025
vt 0.9637640118598938 0.99813600000925362
vt 0.99176597595214844 0.99839399999473244
vt 0.66725301742553711 0.99544099997729063
vt 0.40555799007415771 0.7607479989528656
vt 0.39548099040985107 0.51471799612045288
vt 0.14928999543190002 0.52671000361442566
vt 0.41640499234199524 0.99361900007352233
vt 0.2215069979429245 0.99238400021567941
vt 0.19467499852180481 0.99221399985253811
vt 0.13719700276851654 0.27964001893997192
vt 0.0050860000774264336 0.15970498323440552
vt 0.005437999963760376 0.0380060076713562
vt 0.0046930001117289066 0.28593599796295166
vt 0.004280999768525362 0.39513301849365234
vt 0.091503001749515533 0.0021219849586486816
vt 0.0055610002018511295 0.001605987548828125
vt 0.003456000005826354 0.68774199485778809
vt 0.00393499992787838 0.53384500741958618
vt 0.0015950000379234552 0.99234500015154481
vt 0.0021579999011009932 0.7809700071811676
vn -0.059213001281023026 0.98908901214599609 0.13489699363708496
vn -0.0626939982175827 0.98929202556610107 0.13180199265480042
vn -0.062532998621463776 0.98928302526474 0.13194499909877777
vn -0.018107999116182327 0.99971002340316772 0.015877999365329742
vn -0.000859999970998615 0.99979901313781738 -0.020006999373435974
vn -0.025748999789357185 0.9991459846496582 0.032308001071214676
vn 0.004207999911159277 0.999405026435852 -0.034233000129461288
vn 0.0075639998540282249 0.99878197908401489 -0.048767000436782837
vn 0.013918000273406506 0.999688982963562 -0.020710999146103859
vn -0.066171996295452118 0.99490499496459961 0.0760589987039566
vn -0.010843000374734402 0.9927399754524231 0.11979100108146668
vn -0.065475001931190491 0.99257802963256836 0.1024790033698082
vn 0.011195999570190907 0.99737799167633057 0.071497000753879547
vn 0.032885998487472534 0.99825400114059448 -0.049067001789808273
vn 0.00876300036907196 0.99872100353240967 -0.049784999340772629
vn -0.011738999746739864 0.99075299501419067 0.13516500592231751
vn 0.030764000490307808 0.99943000078201294 0.013918000273406506
vn -1.8999999156221747E-05 0.99615401029586792 0.0876230001449585
vn 0.034150000661611557 0.98780500888824463 0.15190599858760834
vn -0.0076509998179972172 0.986499011516571 0.16359099745750427
vn -0.033728998154401779 0.99037498235702515 0.13424000144004822
vn 0.0027439999394118786 0.99613600969314575 0.0877859964966774
vn -0.029704000800848007 0.99115598201751709 0.12933200597763062
vn 0.043639998883008957 0.99862200021743774 0.029136000201106071
vn 0.048930998891592026 0.997389018535614 0.053116999566555023
vn 0.05805400013923645 0.99659597873687744 0.058527000248432159
vn 0.058198001235723495 0.99641197919845581 0.061445001512765884
vn 0.058196999132633209 0.99641197919845581 0.061445001512765884
vn 0.011880000121891499 0.994271993637085 0.10622099786996841
vn 0.0031179999932646751 0.99875199794769287 0.049842998385429382
vn 0.026494000107049942 0.99951499700546265 0.016357000917196274
vn 0.034788001328706741 0.99920898675918579 -0.019287999719381332
vn -0.0078290002420544624 0.99762099981307983 0.06848599761724472
vn -0.011036000214517117 0.999904990196228 0.00829199980944395
vn -1.7000000298139639E-05 0.9999920129776001 -0.003957000095397234
vn 0.040929000824689865 0.99832999706268311 -0.040761999785900116
vn 0.054467998445034027 0.99724799394607544 -0.050287000834941864
vn 0.035519998520612717 0.9982069730758667 -0.0481720007956028
vn 0.041588999330997467 0.99773800373077393 -0.052809998393058777
vn 0.0419900007545948 0.99815100431442261 -0.043949998915195465
vn 0.012741999700665474 0.99875801801681519 -0.0481720007956028
vn 0.013983000069856644 0.99879401922225952 -0.047056999057531357
vn 0.030292000621557236 0.99946999549865723 -0.011904000304639339
vn 0.051754999905824661 0.99846100807189941 -0.019941000267863274
vn 0.003992999903857708 0.99995702505111694 -0.0084140002727508545
vn 0.01574300043284893 0.99983501434326172 -0.00903400033712387
f 1/1/1 2/2/2 3/3/3
f 4/4/4 5/5/5 6/6/6
f 7/7/7 8/8/8 9/9/9
f 4/4/4 6/6/6 10/10/10
f 10/10/10 11/11/11 12/12/12
f 10/10/10 6/6/6 11/11/11
f 9/9/9 13/13/13 6/6/6
f 7/7/7 6/6/6 5/5/5
f 7/7/7 9/9/9 6/6/6
f 8/8/8 14/14/14 9/9/9
f 8/8/8 15/15/15 14/14/14
f 13/13/13 11/11/11 6/6/6
f 11/11/11 13/13/13 16/16/16
f 13/13/13 17/17/17 18/18/18
f 19/19/19 16/16/16 20/20/20
f 19/19/19 11/11/11 16/16/16
f 21/21/21 16/16/16 22/22/22
f 21/21/21 20/20/20 16/16/16
f 13/13/13 18/18/18 16/16/16
f 23/23/23 11/11/11 19/19/19
f 17/17/17 13/13/13 9/9/9
f 12/12/12 3/3/3 2/2/2
f 12/12/12 11/11/11 3/3/3
f 11/11/11 23/23/23 3/3/3
f 18/18/18 22/22/22 16/16/16
f 24/24/24 22/22/22 25/25/25
f 26/26/26 25/25/25 22/22/22
f 26/26/26 27/27/27 25/25/25
f 27/27/27 28/28/28 25/25/25
f 26/26/26 22/22/22 29/29/29
f 30/30/30 18/18/18 31/31/31
f 22/22/22 18/18/18 30/30/30
f 17/17/17 32/32/32 31/31/31
f 31/31/31 18/18/18 17/17/17
f 29/29/29 30/30/30 33/33/33
f 29/29/29 22/22/22 30/30/30
f 33/33/33 30/30/30 34/34/34
f 34/34/34 30/30/30 35/35/35
f 31/31/31 32/32/32 30/30/30
f 21/21/21 22/22/22 24/24/24
f 9/9/9 36/36/36 17/17/17
f 14/14/14 37/37/37 36/36/36
f 14/14/14 38/38/38 37/37/37
f 37/37/37 39/39/39 36/36/36
f 36/36/36 40/40/40 32/32/32
f 36/36/36 39/39/39 40/40/40
f 9/9/9 14/14/14 36/36/36
f 41/41/41 38/38/38 14/14/14
f 41/41/41 42/42/42 38/38/38
f 41/41/41 14/14/14 15/15/15
f 43/43/43 32/32/32 44/44/44
f 44/44/44 32/32/32 40/40/40
f 45/45/45 30/30/30 46/46/46
f 45/45/45 35/35/35 30/30/30
f 46/46/46 32/32/32 43/43/43
f 46/46/46 30/30/30 32/32/32
f 17/17/17 36/36/36 32/32/32
