mtllib m30000101.mtl
usemtl material0
v 83.450812816619873 0.8745880126953125 -16
v 87.255843997001648 0.69809800386428833 -12.575256824493408
v 87.075981020927429 0.88085001707077026 -16
v 87.673859000206 0.89085698127746582 -16
v 91.2450098991394 0.77630400657653809 -12.78616189956665
v 91.07604193687439 0.91083300113677979 -16
v 80 0.86348700523376465 -16
v 83.2672119140625 0.72926002740859985 -12.364727973937988
v 83.076065063476562 0.87831598520278931 -16
v 80 0.83481597900390625 -15.305039882659912
v 91.897156000137329 0.93559300899505615 -16
v 95.23443603515625 0.90577399730682373 -12.997244834899902
v 95.075859069824219 0.8940119743347168 -16
v 80 0.73678398132324219 -12.192220211029053
v 83.476409912109375 0.45142701268196106 -8.3750160038471222
v 80 0.689113974571228 -11.504584074020386
v 91.454102039337158 0.47698700428009033 -8.7963770031929016
v 95.443595886230469 0.62012797594070435 -9.0075050592422485
v 96 0.90616297721862793 -13.037672996520996
v 96 0.89708501100540161 -15.37784481048584
v 96 0.89467102289199829 -16
v 96 0.8613550066947937 -12.30812406539917
v 80 0.83146399259567261 -15.198610782623291
v 87.465095996856689 0.43198299407958984 -8.58558601140976
v 80 0.48922300338745117 -8.1915580034255981
v 83.685295104980469 0.10962600260972977 -4.3850860595703125
v 80 0.44779500365257263 -7.7033739984035492
v 91.663321971893311 0.20403200387954712 -4.80668306350708
v 95.652458190917969 0.27539700269699097 -5.0175650119781494
v 87.674225002527237 0.13949699699878693 -4.5958249568939209
v 96 0.62599599361419678 -9.0369069576263428
v 96 0.580141007900238 -8.5065979957580566
v 80 0.20075100660324097 -3.9021201133728027
v 83.895064830780029 -0.051520001143217087 -0.39577722549438477
v 80 0.21195900440216065 -4.1908020973205566
v 91.872390985488892 -0.10017699748277664 -0.81688213348388672
v 96 0.27914699912071228 -5.0359289646148682
v 96 0.26582399010658264 -4.7048120498657227
v 95.861876964569092 0.041988000273704529 -1.0280070304870606
v 87.883629001677036 -0.096354000270366669 -0.60625886917114258
v 80 0.08430200070142746 -0.19052219390869141
v 83.915877819061279 -0.06799200177192688 0
v 80 0.083936996757984161 -0.18131208419799805
v 80.113152027130127 0.072561003267765045 0
v 80 0.080784998834133148 -0.1018681526184082
v 87.915489003062248 -0.12484999746084213 0
v 84.334754943847656 -0.07585500180721283 0
v 95.915740966796875 -0.036522001028060913 0
v 92.780045032501221 -0.13531500101089478 0
v 96 0.046064000576734543 -1.0353140830993652
v 96 0.04285300150513649 -0.99298477172851562
v 96 0.036077998578548431 -0.90369319915771484
v 91.915252923965454 -0.15206800401210785 0
v 88.557120978832245 -0.13762499392032623 0
v 80 0.078183002769947052 0
v 96 -0.034226998686790466 0
vt 0 0.21567600965499878
vt 0.21404600143432617 0.45349001884460449
vt 0 0.44224900007247925
vt 0 0.47961598634719849
vt 0.2008650004863739 0.70281299948692322
vt 0 0.6922529935836792
vt 0 0
vt 0.22720499336719513 0.20420098304748535
vt 0 0.19225400686264038
vt 0.043434999883174896 0
vt 0 0.74357199668884277
vt 0.18767200410366058 0.95215199887752533
vt 0 0.94224099814891815
vt 0.2379859983921051 0
vt 0.47656100988388062 0.21727597713470459
vt 0.28096300363540649 0
vt 0.45022600889205933 0.71588099002838135
vt 0.43703100085258484 0.96522499993443489
vt 0.18514500558376312 1
vt 0.038885001093149185 1
vt 0 1
vt 0.23074199259281158 1
vt 0.050087001174688339 0
vt 0.46340098977088928 0.4665679931640625
vt 0.48802798986434937 0
vt 0.72593200206756592 0.23033100366592407
vt 0.51853901147842407 0
vt 0.69958198070526123 0.728958010673523
vt 0.68640202283859253 0.97827900014817715
vt 0.71276098489761353 0.47963899374008179
vt 0.43519300222396851 1
vt 0.4683380126953125 1
vt 0.75611698627471924 0
vt 0.97526401281356812 0.24344199895858765
vt 0.73807501792907715 0
vt 0.94894498586654663 0.7420240044593811
vt 0.68525397777557373 1
vt 0.70594900846481323 1
vt 0.93575000762939453 0.99136700015515089
vt 0.9621090292930603 0.49272698163986206
vt 0.98809200525283813 0
vt 1 0.24474197626113892
vt 0.98866802453994751 0
vt 1 0.0070719718933105469
vt 0.993632972240448 0
vt 1 0.49471801519393921
vt 1 0.27092200517654419
vt 1 0.99473399994894862
vt 1 0.79875299334526062
vt 0.93529301881790161 1
vt 0.93793797492980957 1
vt 0.9435189962387085 1
vt 1 0.74470299482345581
vt 1 0.53481999039649963
vt 1 0
vt 1 1
vn -0.00063299998873844743 0.99863797426223755 0.052166998386383057
vn -0.0031709999311715364 0.99820297956466675 0.059831999242305756
vn -0.010075000114738941 0.99849998950958252 0.053810998797416687
vn -0.0074880002066493034 0.999006986618042 0.043928999453783035
vn -0.022019000723958015 0.9978020191192627 0.062500998377799988
vn -0.020020000636577606 0.99888002872467041 0.042865000665187836
vn -0.00481700012460351 0.9991379976272583 0.041221000254154205
vn 0.0061789997853338718 0.9985010027885437 0.05438699945807457
vn 0.0038300000596791506 0.9991610050201416 0.040766999125480652
vn -0.0036510000936686993 0.99919599294662476 0.039926998317241669
vn 0.0042050001211464405 0.9999769926071167 0.0052559999749064445
vn -0.017028000205755234 0.9988669753074646 0.044433999806642532
vn 0.0083119999617338181 0.99995601177215576 -0.0043560001067817211
vn 0.005179000087082386 0.99849802255630493 0.054545998573303223
vn 0.007815999910235405 0.99722999334335327 0.073963001370429993
vn 0.012640000320971012 0.99801099300384521 0.061756998300552368
vn -0.017990000545978546 0.99709200859069824 0.074059002101421356
vn -0.028315000236034393 0.99647098779678345 0.079023003578186035
vn -0.00033000000985339284 0.99999397993087769 0.0033760000951588154
vn -0.00071400002343580127 0.9999920129776001 -0.0038789999671280384
vn -0.0007130000158213079 0.9999920129776001 -0.0038799999747425318
vn -0.0050019999034702778 0.99754500389099121 0.069856002926826477
vn 0.0039639999158680439 0.99949699640274048 0.031477000564336777
vn 0.00014899999951012433 0.99758201837539673 0.069502003490924835
vn 0.014760999940335751 0.99712902307510376 0.074271999299526215
vn 0.013129999861121178 0.99797099828720093 0.062304999679327011
vn 0.029278000816702843 0.99717998504638672 0.069107003509998322
vn -0.015382000245153904 0.99737101793289185 0.070812001824378967
vn -0.019274000078439713 0.99718201160430908 0.072495996952056885
vn -0.0031429999507963657 0.99746298789978027 0.0711119994521141
vn -0.0066809998825192451 0.99733799695968628 0.072607003152370453
vn -0.0061659999191761017 0.99624300003051758 0.086378000676631927
vn 0.032974999397993088 0.998835027217865 0.035232998430728912
vn 0.025481000542640686 0.99896997213363647 0.037533998489379883
vn 0.031113000586628914 0.99741202592849731 0.0648220032453537
vn -0.01433700043708086 0.99735301733016968 0.071290001273155212
vn -0.0063990000635385513 0.99657899141311646 0.082392998039722443
vn -0.025248000398278236 0.99796199798583984 0.058605000376701355
vn -0.0241519995033741 0.99731999635696411 0.069058999419212341
vn 0.0048509999178349972 0.99856901168823242 0.053258001804351807
vn 0.0365229994058609 0.99881500005722046 0.032154999673366547
vn 0.035672999918460846 0.99857497215271 0.039684001356363297
vn 0.036906998604536057 0.99853301048278809 0.039615999907255173
vn 0.0371129997074604 0.99853497743606567 0.039388999342918396
vn 0.044045999646186829 0.99852699041366577 0.031688999384641647
vn 0.014239000156521797 0.99883097410202026 0.046199999749660492
vn 0.0142000000923872 0.99885702133178711 0.045641001313924789
vn -0.031341001391410828 0.99648100137710571 0.0777439996600151
vn -0.028790000826120377 0.99677801132202148 0.074864998459815979
vn -0.026275999844074249 0.9978560209274292 0.059941999614238739
vn -0.025419000536203384 0.99681198596954346 0.075627997517585754
vn -0.026985000818967819 0.99663800001144409 0.0773639976978302
vn 0.0015150000108405948 0.99799197912216187 0.063316002488136292
vn 0.0067920000292360783 0.99815100431442261 0.0604030005633831
vn 0.049607999622821808 0.99844300746917725 0.025503000244498253
vn -0.027141999453306198 0.99661999940872192 0.0775350034236908
f 1/1/1 2/2/2 3/3/3
f 4/4/4 5/5/5 6/6/6
f 7/7/7 8/8/8 9/9/9
f 7/7/7 10/10/10 8/8/8
f 11/11/11 12/12/12 13/13/13
f 14/14/14 15/15/15 8/8/8
f 14/14/14 16/16/16 15/15/15
f 2/2/2 17/17/17 5/5/5
f 2/2/2 9/9/9 8/8/8
f 2/2/2 1/1/1 9/9/9
f 5/5/5 3/3/3 2/2/2
f 5/5/5 4/4/4 3/3/3
f 5/5/5 18/18/18 12/12/12
f 19/19/19 13/13/13 12/12/12
f 19/19/19 20/20/20 13/13/13
f 20/20/20 21/21/21 13/13/13
f 6/6/6 12/12/12 11/11/11
f 6/6/6 5/5/5 12/12/12
f 19/19/19 12/12/12 22/22/22
f 23/23/23 8/8/8 10/10/10
f 23/23/23 14/14/14 8/8/8
f 8/8/8 24/24/24 2/2/2
f 25/25/25 26/26/26 15/15/15
f 25/25/25 27/27/27 26/26/26
f 16/16/16 25/25/25 15/15/15
f 24/24/24 28/28/28 17/17/17
f 2/2/2 24/24/24 17/17/17
f 5/5/5 17/17/17 18/18/18
f 17/17/17 29/29/29 18/18/18
f 24/24/24 8/8/8 15/15/15
f 15/15/15 30/30/30 24/24/24
f 31/31/31 12/12/12 18/18/18
f 31/31/31 22/22/22 12/12/12
f 31/31/31 18/18/18 32/32/32
f 26/26/26 33/33/33 34/34/34
f 26/26/26 35/35/35 33/33/33
f 28/28/28 30/30/30 36/36/36
f 15/15/15 26/26/26 30/30/30
f 37/37/37 29/29/29 38/38/38
f 17/17/17 28/28/28 29/29/29
f 32/32/32 29/29/29 37/37/37
f 32/32/32 18/18/18 29/29/29
f 28/28/28 24/24/24 30/30/30
f 29/29/29 28/28/28 39/39/39
f 35/35/35 26/26/26 27/27/27
f 30/30/30 26/26/26 40/40/40
f 41/41/41 42/42/42 34/34/34
f 41/41/41 43/43/43 42/42/42
f 43/43/43 44/44/44 42/42/42
f 43/43/43 45/45/45 44/44/44
f 33/33/33 41/41/41 34/34/34
f 26/26/26 34/34/34 40/40/40
f 34/34/34 46/46/46 40/40/40
f 34/34/34 47/47/47 46/46/46
f 36/36/36 48/48/48 39/39/39
f 36/36/36 49/49/49 48/48/48
f 28/28/28 36/36/36 39/39/39
f 38/38/38 39/39/39 50/50/50
f 38/38/38 29/29/29 39/39/39
f 50/50/50 39/39/39 51/51/51
f 51/51/51 39/39/39 52/52/52
f 36/36/36 30/30/30 40/40/40
f 40/40/40 53/53/53 36/36/36
f 40/40/40 54/54/54 53/53/53
f 55/55/55 44/44/44 45/45/45
f 47/47/47 34/34/34 42/42/42
f 49/49/49 36/36/36 53/53/53
f 56/56/56 39/39/39 48/48/48
f 56/56/56 52/52/52 39/39/39
f 54/54/54 40/40/40 46/46/46
