mtllib m30000211.mtl
usemtl material0
v 48 2.7585759162902832 -70.506981015205383
v 48 2.7558979988098145 -69.762137889862061
v 48.208419799804688 2.7640171051025391 -70.518005013465881
v 51.706684112548828 2.5527219772338867 -80
v 50.3359260559082 2.5310719013214111 -80
v 51.775115966796875 2.5711309909820557 -78.705490112304688
v 48 2.5243420600891113 -78.505989074707031
v 48 2.7311348915100098 -74.509223937988281
v 51.986629009246826 2.7626070976257324 -74.717400074005127
v 55.764926999807358 2.7792549133300781 -78.9168472290039
v 48 2.5001189708709717 -80
v 48 2.5016329288482666 -79.9066162109375
v 52.939879894256592 2.6209568977355957 -80
v 55.707684010267258 2.7666370868682861 -80
v 48 2.7312510013580322 -74.50677490234375
v 48 2.7313590049743652 -74.504570007324219
v 52.198169946670532 2.9594500064849854 -70.72931694984436
v 56.739535987377167 2.8307650089263916 -80
v 64 3.2330160140991211 -80
v 63.744667053222656 3.218925952911377 -79.339644908905029
v 64 3.2370040416717529 -79.623404979705811
v 63.709754943847656 3.2090499401092529 -80
v 63.010319232940674 3.1769800186157227 -80
v 59.754642009735107 2.9678430557250977 -79.1281361579895
v 55.976764999330044 3.0366480350494385 -74.9289779663086
v 59.708630084991455 2.9702808856964111 -80
v 59.966346979141235 3.1978929042816162 -75.140175104141235
v 63.956436157226562 3.4621589183807373 -75.351730108261108
v 64 3.2352120876312256 -79.353179931640625
v 64 3.4622890949249268 -75.400146007537842
v 64 3.6121149063110352 -74.541060924530029
v 64 4.1588659286499023 -71.518723011016846
v 60.180350780487061 3.8947269916534424 -71.153831005096436
v 64 3.4645650386810303 -75.354033946990967
v 56.188788995146751 3.3311460018157959 -70.941238045692444
v 48 2.7584140300750732 -64.507164001464844
v 48.52435302734375 2.7797360420227051 -64.5349268913269
v 50.519032001495361 2.8379030227661133 -64.64044189453125
v 52.513771057128906 2.9077880382537842 -64.746002197265625
v 54.508923053741455 3.062143087387085 -64.851851940155029
v 52.553272008895874 2.9315450191497803 -64
v 51.231276988983154 2.8831369876861572 -64
v 48 2.7315928936004639 -74.462898015975952
v 50.552853107452393 2.8399510383605957 -64
v 49.119075775146484 2.7980151176452637 -64
v 48.552567005157471 2.7748990058898926 -64
v 54.554131031036377 3.1082549095153809 -64
v 53.742439031600952 3.0252900123596191 -64
v 55.457130014896393 3.2188320159912109 -64
v 48 2.7566609382629395 -64.350081920623779
v 48 2.7527549266815186 -64
v 60.393833160400391 4.4846248626708984 -67.167107105255127
v 64 4.2124009132385254 -71.175827026367188
v 64 4.8751859664916992 -67.358788013458252
v 64 4.1864848136901855 -71.356468021869659
v 64 5.1495709419250488 -64
v 63.919806957244873 5.140538215637207 -64
v 64 5.1145439147949219 -64.42877197265625
v 56.5045930147171 3.3209869861602783 -64.95806884765625
v 57.542652010917664 3.5413720607757568 -64
v 56.555386006832123 3.363461971282959 -64
v 58.500740051269531 3.6769959926605225 -65.064620971679688
v 58.55706000328064 3.6996889114379883 -64
v 59.688952922821045 4.2350101470947266 -64
v 60.561759948730469 4.628140926361084 -64
vt 0.593313992023468 0
vt 0.63986599445343018 0
vt 0.59262502193450928 0.013025999069213867
vt 0 0.23166799545288086
vt 0 0.14599502086639404
vt 0.080907002091407776 0.23594498634338379
vt 0.093376003205776215 0
vt 0.343174010515213 0
vt 0.33016300201416016 0.24916398525238037
vt 0.067697003483772278 0.48530799150466919
vt 0 0
vt 0.0058360002003610134 0
vt 0 0.30874300003051758
vt 0 0.48172998428344727
vt 0.34332698583602905 0
vt 0.34346398711204529 0
vt 0.57941800355911255 0.2623860239982605
vt 0 0.546220988035202
vt 0 1
vt 0.041271999478340149 0.98404200002551079
vt 0.023537000641226768 1
vt 0 0.98186000064015388
vt 0 0.938145000487566
vt 0.054492000490427017 0.73466500639915466
vt 0.31693899631500244 0.49854797124862671
vt 0 0.7317889928817749
vt 0.30373901128768921 0.74789699912071228
vt 0.29051700234413147 0.99727699998766184
vt 0.040426000952720642 1
vt 0.28749099373817444 1
vt 0.34118399024009705 1
vt 0.53008002042770386 1
vt 0.55288600921630859 0.76127199828624725
vt 0.29037299752235413 1
vt 0.5661730170249939 0.51179900765419006
vt 0.96830201148986816 0
vt 0.96656697988510132 0.0327720046043396
vt 0.95997202396392822 0.15743899345397949
vt 0.953374981880188 0.28211098909378052
vt 0.94675898551940918 0.40680801868438721
vt 1 0.28457999229431152
vt 1 0.20195502042770386
vt 0.34606900811195374 0
vt 1 0.15955299139022827
vt 1 0.069941997528076172
vt 1 0.034534990787506104
vt 1 0.40963298082351685
vt 1 0.3589019775390625
vt 1 0.46607100963592529
vt 0.97812002897262573 0
vt 1 0
vt 0.80205601453781128 0.774615004658699
vt 0.55151098966598511 1
vt 0.79007601737976074 1
vt 0.54022097587585449 1
vt 1 1
vt 1 0.99498800002038479
vt 0.97320199012756348 1
vt 0.94012099504470825 0.53153699636459351
vt 1 0.59641599655151367
vt 1 0.53471198678016663
vt 0.93346101045608521 0.6562960147857666
vt 1 0.65981599688529968
vt 1 0.73056000471115112
vt 1 0.7851099967956543
vn -0.026371000334620476 0.99963897466659546 -0.0051690000109374523
vn -0.038828000426292419 0.99924600124359131 2.7000000045518391E-05
vn -0.043731998652219772 0.99904298782348633 0.00082399998791515827
vn -0.034494999796152115 0.99932801723480225 -0.012388000264763832
vn -0.014188000001013279 0.999783992767334 -0.015165000222623348
vn -0.027401000261306763 0.99887198209762573 -0.03879300132393837
vn -0.014626000076532364 0.998989999294281 -0.04247799888253212
vn -0.015103000216186047 0.99854999780654907 -0.051662001758813858
vn -0.052390001714229584 0.99724102020263672 -0.052588999271392822
vn -0.057270001620054245 0.99735802412033081 -0.044682998210191727
vn -0.013248000293970108 0.99978101253509521 -0.016209999099373817
vn -0.013248000293970108 0.99978101253509521 -0.016209999099373817
vn -0.0530100017786026 0.99855101108551025 -0.00926200021058321
vn -0.055132001638412476 0.99844098091125488 -0.0087169995531439781
vn -0.010360999964177609 0.99882197380065918 -0.047407001256942749
vn -0.029841000214219093 0.99918502569198608 -0.027184000238776207
vn -0.059870999306440353 0.99818897247314453 -0.0057700001634657383
vn -0.0490959994494915 0.99878901243209839 0.0033229999244213104
vn -0.082286998629570007 0.99655300378799438 -0.010552999563515186
vn -0.066742002964019775 0.99652200937271118 -0.049883998930454254
vn -0.074368000030517578 0.99722498655319214 -0.0033859999384731054
vn -0.056526001542806625 0.99832999706268311 -0.0119420001283288
vn -0.061225999146699905 0.99811297655105591 0.0046870000660419464
vn -0.053291000425815582 0.99760299921035767 -0.044140998274087906
vn -0.071658000349998474 0.99417001008987427 -0.080565996468067169
vn -0.055126000195741653 0.998462975025177 0.0057009998708963394
vn -0.06411299854516983 0.9914889931678772 -0.11330600082874298
vn -0.069779999554157257 0.99460601806640625 -0.076742000877857208
vn -0.066399998962879181 0.99634498357772827 -0.053743999451398849
vn -0.06646999716758728 0.99615198373794556 -0.057130001485347748
vn -0.074380002915859222 0.98130202293396 -0.17752200365066528
vn -0.079784996807575226 0.98191499710083008 -0.17169000208377838
vn -0.10114800184965134 0.98548698425292969 -0.13632600009441376
vn -0.0633699968457222 0.98315000534057617 -0.17146299779415131
vn -0.14432400465011597 0.98897302150726318 -0.03322099894285202
vn -0.040644001215696335 0.99917399883270264 -0.0002570000069681555
vn -0.031651001423597336 0.99949902296066284 -0.00058100000023841858
vn -0.039972998201847076 0.99919402599334717 0.0037889999803155661
vn -0.055737998336553574 0.998420000076294 0.0070810001343488693
vn -0.0977730005979538 0.995166003704071 0.0091989999637007713
vn -0.058327998965978622 0.99788498878479 -0.028689999133348465
vn -0.045731000602245331 0.99875998497009277 -0.019683999940752983
vn -0.026696000248193741 0.99962002038955688 -0.0068060001358389854
vn -0.035248998552560806 0.9993780255317688 -0.0013340000296011567
vn -0.032503999769687653 0.99946999549865723 0.0019839999731630087
vn -0.040321998298168182 0.99912399053573608 0.011161999776959419
vn -0.11203200370073319 0.99255502223968506 -0.047782998532056808
vn -0.08791700005531311 0.99547600746154785 -0.03604000061750412
vn -0.12855300307273865 0.9909290075302124 -0.039177000522613525
vn -0.040040001273155212 0.99913597106933594 0.0111480001360178
vn -0.040040001273155212 0.99913597106933594 0.0111480001360178
vn -0.17926199734210968 0.98146700859069824 -0.067736998200416565
vn -0.11359299719333649 0.97910398244857788 -0.1686750054359436
vn -0.11365199834108353 0.98475700616836548 -0.1316709965467453
vn -0.08289799839258194 0.98631799221038818 -0.14249299466609955
vn -0.11157000064849854 0.99045699834823608 -0.0809129998087883
vn -0.14983400702476502 0.98798799514770508 -0.037801999598741531
vn -0.11157099902629852 0.99045699834823608 -0.080912001430988312
vn -0.21465900540351868 0.97633200883865356 0.02640100009739399
vn -0.17113099992275238 0.98483401536941528 -0.028547000139951706
vn -0.15274199843406677 0.987621009349823 -0.035686999559402466
vn -0.30768400430679321 0.9505239725112915 0.042837999761104584
vn -0.30751499533653259 0.95153498649597168 -0.0040139998309314251
vn -0.42024499177932739 0.90738701820373535 -0.0065689999610185623
vn -0.26377901434898376 0.96412599086761475 -0.02970300056040287
f 1/1/1 2/2/2 3/3/3
f 4/4/4 5/5/5 6/6/6
f 7/7/7 8/8/8 6/6/6
f 6/6/6 9/9/9 10/10/10
f 11/11/11 6/6/6 5/5/5
f 11/11/11 12/12/12 6/6/6
f 12/12/12 7/7/7 6/6/6
f 13/13/13 10/10/10 14/14/14
f 13/13/13 6/6/6 10/10/10
f 15/15/15 6/6/6 8/8/8
f 15/15/15 9/9/9 6/6/6
f 13/13/13 4/4/4 6/6/6
f 9/9/9 16/16/16 17/17/17
f 9/9/9 15/15/15 16/16/16
f 14/14/14 10/10/10 18/18/18
f 19/19/19 20/20/20 21/21/21
f 19/19/19 22/22/22 20/20/20
f 22/22/22 23/23/23 20/20/20
f 24/24/24 10/10/10 25/25/25
f 18/18/18 24/24/24 26/26/26
f 18/18/18 10/10/10 24/24/24
f 24/24/24 25/25/25 27/27/27
f 25/25/25 10/10/10 9/9/9
f 20/20/20 27/27/27 28/28/28
f 27/27/27 20/20/20 24/24/24
f 28/28/28 29/29/29 20/20/20
f 28/28/28 30/30/30 29/29/29
f 31/31/31 27/27/27 32/32/32
f 31/31/31 28/28/28 27/27/27
f 23/23/23 24/24/24 20/20/20
f 23/23/23 26/26/26 24/24/24
f 27/27/27 25/25/25 33/33/33
f 34/34/34 28/28/28 31/31/31
f 25/25/25 9/9/9 35/35/35
f 36/36/36 3/3/3 2/2/2
f 36/36/36 37/37/37 3/3/3
f 3/3/3 37/37/37 38/38/38
f 17/17/17 38/38/38 39/39/39
f 38/38/38 17/17/17 3/3/3
f 17/17/17 39/39/39 40/40/40
f 41/41/41 38/38/38 42/42/42
f 41/41/41 39/39/39 38/38/38
f 16/16/16 3/3/3 17/17/17
f 16/16/16 43/43/43 3/3/3
f 44/44/44 37/37/37 45/45/45
f 44/44/44 38/38/38 37/37/37
f 45/45/45 37/37/37 46/46/46
f 47/47/47 40/40/40 48/48/48
f 44/44/44 42/42/42 38/38/38
f 49/49/49 40/40/40 47/47/47
f 41/41/41 40/40/40 39/39/39
f 41/41/41 48/48/48 40/40/40
f 35/35/35 17/17/17 40/40/40
f 50/50/50 37/37/37 36/36/36
f 50/50/50 46/46/46 37/37/37
f 50/50/50 51/51/51 46/46/46
f 33/33/33 35/35/35 52/52/52
f 35/35/35 33/33/33 25/25/25
f 53/53/53 52/52/52 54/54/54
f 52/52/52 55/55/55 33/33/33
f 52/52/52 53/53/53 55/55/55
f 56/56/56 52/52/52 57/57/57
f 56/56/56 58/58/58 52/52/52
f 58/58/58 54/54/54 52/52/52
f 32/32/32 33/33/33 55/55/55
f 32/32/32 27/27/27 33/33/33
f 52/52/52 35/35/35 59/59/59
f 60/60/60 59/59/59 61/61/61
f 60/60/60 62/62/62 59/59/59
f 59/59/59 62/62/62 52/52/52
f 63/63/63 62/62/62 60/60/60
f 49/49/49 59/59/59 40/40/40
f 49/49/49 61/61/61 59/59/59
f 63/63/63 64/64/64 62/62/62
f 62/62/62 65/65/65 52/52/52
f 62/62/62 64/64/64 65/65/65
f 57/57/57 52/52/52 65/65/65
f 59/59/59 35/35/35 40/40/40
f 9/9/9 17/17/17 35/35/35
f 1/1/1 3/3/3 43/43/43
f 34/34/34 30/30/30 28/28/28
f 29/29/29 21/21/21 20/20/20
