mtllib m30000233.mtl
usemtl material0
v 48 6.1919870376586914 -125.17591905593872
v 49.266170978546143 6.2031121253967285 -126.58321380615234
v 48 6.2385711669921875 -126.51646423339844
v 48 6.2288351058959961 -127.08998918533325
v 49.191265106201172 6.1810932159423828 -128
v 48 6.2133879661560059 -128
v 52.780373096466064 6.1210389137268066 -128
v 53.254616022109985 6.13292121887207 -126.79360198974609
v 49.476105213165283 6.0743379592895508 -122.59400200843811
v 53.464705944061279 6.0358848571777344 -122.80450391769409
v 57.241778969764709 5.8034520149230957 -127.00309801101685
v 53.674701929092407 5.9193129539489746 -118.81533801555634
v 53.587002038955688 6.0805420875549316 -128
v 48 6.10971212387085 -122.5161669254303
v 57.189067959785461 5.78685998916626 -128
v 60.917296886444092 5.1306071281433105 -128
v 61.227085113525391 5.0965437889099121 -127.21127319335938
v 57.452414989471436 5.8167657852172852 -123.01438093185425
v 64 4.67778205871582 -127.356360912323
v 61.438018798828125 5.1699161529541016 -123.22277092933655
v 64 4.7115921974182129 -126.07127380371094
v 61.444293975830078 5.0372090339660645 -128
v 61.649203777313232 5.295039176940918 -119.23444402217865
v 57.6624219417572 5.7021470069885254 -119.02522301673889
v 64 4.6692428588867188 -127.60655212402344
v 64 4.6558132171630859 -128
v 64 4.7808089256286621 -123.35681200027466
v 64 4.9611520767211914 -120.91613000631332
v 48 6.100243091583252 -120.12293200194836
v 49.686573028564453 6.0534682273864746 -118.6051709651947
v 48 6.04804801940918 -118.51609003543854
v 48 5.95867919921875 -116.73077392578125
v 48 5.5661978721618652 -112.50875091552734
v 49.895701885223389 5.7611141204833984 -114.61538696289063
v 48 5.7991161346435547 -114.51540422439575
v 50.033245086669922 5.6577939987182617 -112
v 48 5.5446109771728516 -112
v 53.88449501991272 5.7617220878601074 -114.82602691650391
v 57.872681021690369 5.6392807960510254 -115.0362401008606
v 54.033378958702087 5.7019619941711426 -112
v 52.802181005477905 5.7031450271606445 -112
v 55.141009986400604 5.6668190956115723 -112
v 58.032974004745483 5.6404848098754883 -112
v 61.860148906707764 5.3713297843933105 -115.24594879150391
v 58.9401319026947 5.5797128677368164 -112
v 64 5.0195522308349609 -119.35769701004028
v 64 5.0633139610290527 -117.62495398521423
v 64 5.2314648628234863 -115.35849809646606
v 64 5.3373007774353027 -113.58064985275269
v 64 5.3527817726135254 -113.32060194015503
v 62.0323600769043 5.5383391380310059 -112
v 64 5.4247732162475586 -112
vt 0.17650499939918518 0
vt 0.088549003005027771 0.079136013984680176
vt 0.09272100031375885 0
vt 0.056876000016927719 0
vt 0 0.074454009532928467
vt 0 0
vt 0 0.29877299070358276
vt 0.075400002300739288 0.32841300964355469
vt 0.33787500858306885 0.092257022857666016
vt 0.32471799850463867 0.341543972492218
vt 0.0623060017824173 0.57761099934577942
vt 0.57404100894927979 0.35466897487640381
vt 0 0.34918802976608276
vt 0.342739999294281 0
vt 0 0.57431700825691223
vt 0 0.807330995798111
vt 0.049295000731945038 0.82669299840927124
vt 0.31160101294517517 0.5907759964466095
vt 0.040226999670267105 1
vt 0.29857701063156128 0.83987599611282349
vt 0.12054499983787537 1
vt 0 0.84026800096035
vt 0.54784697294235229 0.85307499766349792
vt 0.5609239935874939 0.60390099883079529
vt 0.024590000510215759 1
vt 0 1
vt 0.29019901156425476 1
vt 0.4427419900894165 1
vt 0.49231699109077454 0
vt 0.58717697858810425 0.10541099309921265
vt 0.592743992805481 0
vt 0.70432698726654053 0
vt 0.96820300817489624 0
vt 0.83653801679611206 0.11848098039627075
vt 0.84278702735900879 0
vt 1 0.12707799673080444
vt 1 0
vt 0.823373019695282 0.36778098344802856
vt 0.81023502349853516 0.61704298853874207
vt 1 0.37708598375320435
vt 1 0.3001360297203064
vt 1 0.44631302356719971
vt 1 0.62706100940704346
vt 0.79712802171707153 0.86625899374485016
vt 1 0.68375799059867859
vt 0.54014402627944946 1
vt 0.64844000339508057 1
vt 0.79009401798248291 1
vt 0.90120899677276611 1
vt 0.91746199131011963 1
vt 1 0.877022996544838
vt 1 1
vn 0.026992000639438629 0.99911701679229736 0.032184001058340073
vn 0.021046999841928482 0.99964702129364014 0.016194999217987061
vn 0.029001999646425247 0.9993939995765686 0.019238999113440514
vn 0.02709599956870079 0.99948900938034058 -0.016966000199317932
vn 0.020444000139832497 0.99965298175811768 -0.016617000102996826
vn 0.02709599956870079 0.99948900938034058 -0.016966000199317932
vn 0.019695000723004341 0.99965101480484009 -0.017588000744581223
vn 0.039854999631643295 0.99906301498413086 0.016855999827384949
vn 0.019948000088334084 0.9995959997177124 0.020222999155521393
vn 0.045356001704931259 0.99877697229385376 0.019665999338030815
vn 0.10903300344944 0.99402397871017456 -0.00532200001180172
vn 0.032715000212192535 0.998878002166748 0.034233000129461288
vn 0.077997997403144836 0.9967150092124939 -0.021785000339150429
vn 0.025188000872731209 0.99940699338912964 0.023476999253034592
vn 0.12848100066184998 0.99143797159194946 -0.023295000195503235
vn 0.1733659952878952 0.98452502489089966 -0.025575000792741776
vn 0.1619189977645874 0.9865570068359375 -0.022066999226808548
vn 0.11783599853515625 0.99301499128341675 -0.0060499999672174454
vn 0.14787499606609345 0.98862999677658081 -0.027269000187516212
vn 0.14634799957275391 0.98861199617385864 -0.035057000815868378
vn 0.14853799343109131 0.98857897520065308 -0.025465000420808792
vn 0.1501850038766861 0.98810797929763794 -0.032974999397993088
vn 0.10909000039100647 0.99395197629928589 -0.012628999538719654
vn 0.0674860030412674 0.99746298789978027 0.022664999589323997
vn 0.14751400053501129 0.98848402500152588 -0.033739000558853149
vn 0.14751499891281128 0.98848402500152588 -0.033739998936653137
vn 0.14753800630569458 0.9879000186920166 -0.04782399907708168
vn 0.13378100097179413 0.98925000429153442 -0.059057001024484634
vn 0.01867000013589859 0.9997749924659729 0.01006499957293272
vn 0.028410999104380608 0.99885600805282593 0.038462001830339432
vn -0.0010089999996125698 0.9991300106048584 0.041696000844240189
vn 0.01867000013589859 0.9975619912147522 0.067245997488498688
vn -0.024733999744057655 0.99724000692367554 0.070012003183364868
vn 0.0080939996987581253 0.99862200021743774 0.051851000636816025
vn 0.024834999814629555 0.99540001153945923 0.092532999813556671
vn -0.034577999264001846 0.99854999780654907 0.041266001760959625
vn -0.055530000478029251 0.99755901098251343 0.042328000068664551
vn 0.025824999436736107 0.99931401014328 0.026537999510765076
vn 0.055337999016046524 0.99846500158309937 0.0024679999332875013
vn 0.0064150001853704453 0.999763011932373 0.020803999155759811
vn -0.011033999733626843 0.99934697151184082 0.034412998706102371
vn 0.02324800007045269 0.99965900182724 0.011849000118672848
vn 0.045646000653505325 0.99895399808883667 -0.0028059999458491802
vn 0.066174998879432678 0.99726498126983643 -0.032915998250246048
vn 0.025510000064969063 0.99882602691650391 -0.041173998266458511
vn 0.11472100019454956 0.99290698766708374 -0.031207000836730003
vn 0.084608003497123718 0.99501800537109375 -0.052724998444318771
vn 0.061540998518466949 0.995822012424469 -0.067463003098964691
vn 0.062001999467611313 0.99631202220916748 -0.059310998767614365
vn 0.058272000402212143 0.99677598476409912 -0.0551609992980957
vn 0.030564000830054283 0.99812799692153931 -0.052976999431848526
vn 0.057535998523235321 0.99686300754547119 -0.054343000054359436
f 1/1/1 2/2/2 3/3/3
f 3/3/3 2/2/2 4/4/4
f 4/4/4 5/5/5 6/6/6
f 4/4/4 2/2/2 5/5/5
f 7/7/7 2/2/2 8/8/8
f 7/7/7 5/5/5 2/2/2
f 8/8/8 9/9/9 10/10/10
f 9/9/9 8/8/8 2/2/2
f 10/10/10 11/11/11 8/8/8
f 10/10/10 9/9/9 12/12/12
f 7/7/7 8/8/8 13/13/13
f 14/14/14 2/2/2 1/1/1
f 14/14/14 9/9/9 2/2/2
f 11/11/11 13/13/13 8/8/8
f 11/11/11 15/15/15 13/13/13
f 16/16/16 11/11/11 17/17/17
f 16/16/16 15/15/15 11/11/11
f 11/11/11 18/18/18 17/17/17
f 18/18/18 11/11/11 10/10/10
f 19/19/19 20/20/20 21/21/21
f 19/19/19 17/17/17 20/20/20
f 22/22/22 16/16/16 17/17/17
f 20/20/20 17/17/17 18/18/18
f 20/20/20 18/18/18 23/23/23
f 18/18/18 10/10/10 24/24/24
f 19/19/19 22/22/22 17/17/17
f 19/19/19 25/25/25 22/22/22
f 25/25/25 26/26/26 22/22/22
f 27/27/27 21/21/21 20/20/20
f 27/27/27 20/20/20 28/28/28
f 9/9/9 29/29/29 30/30/30
f 9/9/9 14/14/14 29/29/29
f 31/31/31 32/32/32 30/30/30
f 33/33/33 34/34/34 35/35/35
f 33/33/33 36/36/36 34/34/34
f 33/33/33 37/37/37 36/36/36
f 30/30/30 34/34/34 12/12/12
f 24/24/24 12/12/12 38/38/38
f 10/10/10 12/12/12 24/24/24
f 24/24/24 38/38/38 39/39/39
f 38/38/38 12/12/12 34/34/34
f 12/12/12 9/9/9 30/30/30
f 40/40/40 34/34/34 41/41/41
f 40/40/40 38/38/38 34/34/34
f 36/36/36 41/41/41 34/34/34
f 42/42/42 43/43/43 39/39/39
f 42/42/42 38/38/38 40/40/40
f 42/42/42 39/39/39 38/38/38
f 23/23/23 24/24/24 39/39/39
f 43/43/43 44/44/44 39/39/39
f 43/43/43 45/45/45 44/44/44
f 46/46/46 44/44/44 47/47/47
f 46/46/46 23/23/23 44/44/44
f 48/48/48 47/47/47 44/44/44
f 46/46/46 20/20/20 23/23/23
f 46/46/46 28/28/28 20/20/20
f 49/49/49 44/44/44 50/50/50
f 49/49/49 48/48/48 44/44/44
f 45/45/45 51/51/51 44/44/44
f 52/52/52 44/44/44 51/51/51
f 52/52/52 50/50/50 44/44/44
f 39/39/39 44/44/44 23/23/23
f 23/23/23 18/18/18 24/24/24
f 32/32/32 34/34/34 30/30/30
f 32/32/32 35/35/35 34/34/34
f 29/29/29 31/31/31 30/30/30
