mtllib m30101.mtl
usemtl material0
v 640 0.30638998746871948 -128
v 640 0.80287200212478638 -103.30902862548828
v 662.2122802734375 -0.37290099263191223 -128
v 665.14288330078125 -0.44307500123977661 -128
v 640 0.94749599695205688 -97.763191223144531
v 666.668701171875 0.27223899960517883 -99.169326782226562
v 640 0.8175169825553894 -102.74741363525391
v 668.40045166015625 -0.44434601068496704 -128
v 698.57873487472534 0.21795600652694702 -100.85424041748047
v 697.14502000808716 0.088221997022628784 -128
v 723.0025634765625 0.54457199573516846 -128
v 640 3.0504879951477051 -65.7708660364151
v 668.37384033203125 4.30424690246582 -67.273209095001221
v 640 2.5863950252532959 -69.5226821899414
v 700.28253197669983 3.9843440055847168 -68.957190990448
v 730.4876708984375 -0.052443999797105789 -102.53839111328125
v 670.06536865234375 5.68170690536499 -35.367851257324219
v 640 3.1878459453582764 -62.39733099937439
v 729.14642333984375 0.48581698536872864 -128
v 761.14813232421875 0.94018101692199707 -128
v 762.404541015625 1.2193059921264648 -104.2279052734375
v 753.39697265625 0.62739002704620361 -128
v 768 0.81426602602005 -110.44802856445313
v 768 1.4119110107421875 -104.52400207519531
v 768 0.55618798732757568 -128
v 764.09820556640625 2.9969620704650879 -72.323966979980469
v 732.18670654296875 2.7779269218444824 -70.638114929199219
v 768 2.9092938899993896 -76.660919189453125
v 768 3.220958948135376 -72.530731201171875
v 733.86492919921875 1.5450860261917114 -38.723770141601562
v 768 3.1151299476623535 -68.81451416015625
v 765.7745361328125 1.3969409465789795 -40.408351898193359
v 701.96392798423767 3.3633079528808594 -37.044948577880859
v 640 6.452174186706543 -33.782634735107422
v 671.743408203125 4.4060859680175781 -3.4533462524414062
v 640 6.3846120834350586 -32.028499603271484
v 703.64239498972893 2.182898998260498 -5.1307907104492188
v 767.44757080078125 -0.83715897798538208 -8.4905815124511719
v 768 1.5794210433959961 -40.526451110839844
v 768 1.3266899585723877 -38.405540466308594
v 735.54461669921875 0.59953600168228149 -6.8104324340820312
v 640 6.0907959938049316 -1.78240966796875
v 668.6361083984375 4.2542519569396973 0
v 640 6.0890541076660156 -1.7643241882324219
v 640 5.9191808700561523 0
v 671.923095703125 3.9088230133056641 0
v 703.91070599853992 1.6969200372695923 0
v 675.576416015625 3.8069899082183838 0
v 729.4166259765625 0.30764400959014893 0
v 735.90130615234375 0.0671520009636879 0
v 729.4166259765625 0.30764400959014893 0
v 767.894775390625 -1.0324289798736572 0
v 759.8079833984375 -1.1046329736709595 0
v 759.8079833984375 -1.1046329736709595 0
v 768 -0.81684201955795288 -8.5198173522949219
v 768 -1.0278509855270386 -0.0340423583984375
v 768 -1.0286970138549805 0
vt 0.99897998571395874 0.0028560161590576172
vt 0.80705702304840088 0.0027379989624023438
vt 0.99897998571395874 0.17555797100067139
vt 0.99897700548172 0.19833898544311523
vt 0.76394397020339966 0.0027049779891967773
vt 0.77484399080276489 0.21002697944641113
vt 0.80269098281860352 0.0027350187301635742
vt 0.99895799160003662 0.22365498542785645
vt 0.78775602579116821 0.45802301168441772
vt 0.99873000383377075 0.44708001613616943
vt 0.99852597713470459 0.64806100726127625
vt 0.51472598314285278 0.0023549795150756836
vt 0.52498602867126465 0.22314602136611939
vt 0.54410600662231445 0.0023729801177978516
vt 0.53814101219177246 0.47113102674484253
vt 0.80086797475814819 0.70600900053977966
vt 0.27674800157546997 0.23517000675201416
vt 0.48848798871040344 0.0022349953651428223
vt 0.99846601486206055 0.6958099901676178
vt 0.99857902526855469 0.9445439986884594
vt 0.8132140040397644 0.95428499951958656
vt 0.99862200021743774 0.8842570036649704
vt 0.861661970615387 0.99776299996301532
vt 0.81538999080657959 0.99780200002714992
vt 0.99799597263336182 0.99790799990296364
vt 0.564877986907959 0.96722099930047989
vt 0.55198299884796143 0.71920698881149292
vt 0.5985419750213623 0.99759700009599328
vt 0.56454700231552124 0.99865900003351271
vt 0.30175599455833435 0.73209500312805176
vt 0.53567099571228027 0.99770800000987947
vt 0.31453600525856018 0.98009699955582619
vt 0.28945600986480713 0.4837380051612854
vt 0.26467001438140869 0.0014299750328063965
vt 0.028548000380396843 0.24857699871063232
vt 0.25102800130844116 0.0014399886131286621
vt 0.041283998638391495 0.497094988822937
vt 0.067152999341487885 0.99352099979296327
vt 0.31550899147987366 0.99744699988514185
vt 0.30024999380111694 0.99736399995163083
vt 0.054203998297452927 0.7453329861164093
vt 0.015961000695824623 0.0013409852981567383
vt 0.001623000018298626 0.2243109941482544
vt 0.015820000320672989 0.00134199857711792
vt 0.0020459999796003103 0.0013920068740844727
vt 0.0014459999511018395 0.25018799304962158
vt 0.0012440000427886844 0.49939799308776855
vt 0.0015579999890178442 0.27859002351760864
vt 0.001091000041924417 0.69786301255226135
vt 0.0011259999591857195 0.7482930123806
vt 0.001091000041924417 0.69786301255226135
vt 0.0011709999525919557 0.99715299997478724
vt 0.0010199999669566751 0.93430499732494354
vt 0.0010199999669566751 0.93430499732494354
vt 0.067399002611637115 0.99781599990092218
vt 0.0014390000142157078 0.99797099991701543
vt 0.0011739999754354358 0.99797099991701543
vn 0.030561000108718872 0.999330997467041 -0.020093999803066254
vn 0.025475999340415 0.9993709921836853 -0.02466999925673008
vn 0.025699000805616379 0.99936997890472412 -0.024470999836921692
vn 0.012555000372231007 0.99959701299667358 -0.025465000420808792
vn 0.023048000410199165 0.99882900714874268 -0.042541000992059708
vn 0.0013460000045597553 0.99777501821517944 -0.0666550025343895
vn 0.023930000141263008 0.99937397241592407 -0.026062000542879105
vn -0.0040210001170635223 0.99979299306869507 -0.019922999665141106
vn -0.0028780000284314156 0.99811702966690063 -0.061269998550415039
vn -0.01810000091791153 0.9998289942741394 -0.0038219999987632036
vn 0.0023020000662654638 0.99989801645278931 0.014101999811828136
vn -0.048250000923871994 0.99559301137924194 -0.080413997173309326
vn -0.01413199957460165 0.99710601568222046 -0.074703000485897064
vn -0.033434998244047165 0.99362802505493164 -0.10763700306415558
vn 0.020320000126957893 0.99882298707962036 -0.044050998985767364
vn -0.0057609998621046543 0.99929898977279663 -0.036991998553276062
vn 0.039298001676797867 0.9991459846496582 -0.012765999883413315
vn -0.028770999982953072 0.99778002500534058 -0.060056999325752258
vn 0.0021200000774115324 0.99977701902389526 0.021023999899625778
vn 0.0062090000137686729 0.9999079704284668 -0.01206899993121624
vn -0.027997000142931938 0.9986569881439209 -0.043588999658823013
vn -0.031127000227570534 0.99951499700546265 -0.001319000031799078
vn 0.033739998936653137 0.99882799386978149 -0.034690000116825104
vn -0.038405001163482666 0.99623501300811768 -0.077725999057292938
vn 0.055948000401258469 0.99832600355148315 -0.014678999781608582
vn -0.037018999457359314 0.99925500154495239 -0.010879999957978725
vn 0.015625 0.999580979347229 -0.024344999343156815
vn -0.042780999094247818 0.99736100435256958 -0.058649998158216476
vn -0.058621000498533249 0.99796497821807861 -0.025073999539017677
vn 0.0352570004761219 0.99876898527145386 0.034885000437498093
vn -0.072619996964931488 0.9962419867515564 0.047194000333547592
vn -0.030825000256299973 0.99736100435256958 0.065739996731281281
vn 0.056844998151063919 0.99824702739715576 0.016449000686407089
vn 0.023761000484228134 0.9991070032119751 -0.034940999001264572
vn 0.060986001044511795 0.99546200037002563 0.07304699718952179
vn 0.034533999860286713 0.99892902374267578 0.030802000313997269
vn 0.063097000122070312 0.99604099988937378 0.062614001333713531
vn -0.00523399980738759 0.99880802631378174 0.048535998910665512
vn -0.076953999698162079 0.99341797828674316 0.084843002259731293
vn -0.044142000377178192 0.99549001455307007 0.083967000246047974
vn 0.048914000391960144 0.99733400344848633 0.054145000874996185
vn 0.05575999990105629 0.99697697162628174 0.054102998226881027
vn 0.0701339989900589 0.99181300401687622 0.10671299695968628
vn 0.05777600035071373 0.99373400211334229 0.095683000981807709
vn 0.057776998728513718 0.99373400211334229 0.095679000020027161
vn 0.064133003354072571 0.98821902275085449 0.13896100223064423
vn 0.063698999583721161 0.99383002519607544 0.090802997350692749
vn 0.0631370022892952 0.9927629828453064 0.10214900225400925
vn 0.054161000996828079 0.99434500932693481 0.0913499966263771
vn 0.043095998466014862 0.99620497226715088 0.075617998838424683
vn 0.03695400059223175 0.996425986289978 0.075957000255584717
vn -0.022621000185608864 0.99945199489593506 0.024176999926567078
vn -0.0089260004460811615 0.99968498945236206 0.023460999131202698
vn 0.048817001283168793 0.99596500396728516 0.075300000607967377
vn -0.034118000417947769 0.99821597337722778 0.0489949993789196
vn -0.035433001816272736 0.99906301498413086 0.024841999635100365
vn -0.035433001816272736 0.99906301498413086 0.024841999635100365
f 1/1/1 2/2/2 3/3/3
f 4/4/4 5/5/5 6/6/6
f 4/4/4 7/7/7 5/5/5
f 7/7/7 3/3/3 2/2/2
f 7/7/7 4/4/4 3/3/3
f 8/8/8 9/9/9 10/10/10
f 10/10/10 9/9/9 11/11/11
f 6/6/6 12/12/12 13/13/13
f 6/6/6 14/14/14 12/12/12
f 14/14/14 6/6/6 5/5/5
f 9/9/9 13/13/13 15/15/15
f 13/13/13 9/9/9 6/6/6
f 15/15/15 16/16/16 9/9/9
f 12/12/12 17/17/17 13/13/13
f 12/12/12 18/18/18 17/17/17
f 8/8/8 6/6/6 9/9/9
f 8/8/8 4/4/4 6/6/6
f 19/19/19 9/9/9 16/16/16
f 19/19/19 11/11/11 9/9/9
f 20/20/20 16/16/16 21/21/21
f 20/20/20 22/22/22 16/16/16
f 19/19/19 16/16/16 22/22/22
f 23/23/23 21/21/21 24/24/24
f 25/25/25 21/21/21 23/23/23
f 25/25/25 20/20/20 21/21/21
f 21/21/21 16/16/16 26/26/26
f 26/26/26 16/16/16 27/27/27
f 24/24/24 26/26/26 28/28/28
f 24/24/24 21/21/21 26/26/26
f 28/28/28 26/26/26 29/29/29
f 15/15/15 30/30/30 27/27/27
f 29/29/29 26/26/26 31/31/31
f 27/27/27 32/32/32 26/26/26
f 27/27/27 16/16/16 15/15/15
f 13/13/13 33/33/33 15/15/15
f 34/34/34 35/35/35 17/17/17
f 34/34/34 36/36/36 35/35/35
f 34/34/34 17/17/17 18/18/18
f 17/17/17 37/37/37 33/33/33
f 30/30/30 38/38/38 32/32/32
f 30/30/30 15/15/15 33/33/33
f 32/32/32 27/27/27 30/30/30
f 39/39/39 32/32/32 40/40/40
f 17/17/17 33/33/33 13/13/13
f 33/33/33 41/41/41 30/30/30
f 31/31/31 32/32/32 39/39/39
f 31/31/31 26/26/26 32/32/32
f 42/42/42 43/43/43 35/35/35
f 42/42/42 44/44/44 43/43/43
f 44/44/44 45/45/45 43/43/43
f 46/46/46 35/35/35 43/43/43
f 36/36/36 42/42/42 35/35/35
f 17/17/17 35/35/35 37/37/37
f 35/35/35 47/47/47 37/37/37
f 35/35/35 48/48/48 47/47/47
f 37/37/37 49/49/49 41/41/41
f 37/37/37 47/47/47 49/49/49
f 48/48/48 35/35/35 46/46/46
f 50/50/50 41/41/41 51/51/51
f 52/52/52 38/38/38 53/53/53
f 50/50/50 38/38/38 41/41/41
f 50/50/50 54/54/54 38/38/38
f 52/52/52 55/55/55 38/38/38
f 52/52/52 56/56/56 55/55/55
f 56/56/56 52/52/52 57/57/57
f 40/40/40 38/38/38 55/55/55
f 40/40/40 32/32/32 38/38/38
f 38/38/38 30/30/30 41/41/41
f 41/41/41 33/33/33 37/37/37
