mtllib m30111.mtl
usemtl material0
v 905.360595703125 -3.0978970527648926 -128
v 921.9354248046875 -2.8085849285125732 -112.639404296875
v 921.12139892578125 -3.3867020606994629 -128
v 896 -2.2805290222167969 -111.27151489257813
v 896 -2.5246469974517822 -117.59461975097656
v 896 -2.8106989860534668 -128
v 938.6612548828125 -1.0682289600372315 -128
v 953.86737108230591 1.3602269887924194 -114.33897399902344
v 953.13586378097534 -0.5668259859085083 -128
v 923.62548828125 -1.7355060577392578 -80.733062744140625
v 955.55847215652466 2.6217789649963379 -82.4332504272461
v 896 -1.4258589744567871 -79.275230407714844
v 896 -1.5806360244750977 -83.810089111328125
v 966.15557909011841 0.040614001452922821 -128
v 985.78369140625 2.5019409656524658 -116.02803802490234
v 1006.2315673828125 -0.66157001256942749 -128
v 1017.6808471679688 -0.029913000762462616 -117.704345703125
v 985.142822265625 0.855692982673645 -128
v 987.46624755859375 2.11948299407959 -84.116607666015625
v 1021.0528564453125 0.52759701013565063 -53.886100769042969
v 1017.1372680664063 -0.044270999729633331 -128
v 1024 -0.14865800738334656 -118.86376953125
v 1024 -0.14670500159263611 -118.03766632080078
v 1024 -0.17025299370288849 -128
v 1024 -0.076053999364376068 -112.01870727539063
v 957.22668504714966 -0.517274022102356 -50.512302398681641
v 925.3182373046875 -0.15883100032806397 -48.828449249267578
v 896 -1.2224689722061157 -75.197113037109375
v 989.1495361328125 1.8783220052719116 -52.205673217773438
v 896 2.2195639610290527 -47.287799835205078
v 927.00439453125 0.15389600396156311 -16.919452667236328
v 896 2.2540810108184814 -44.830802917480469
v 958.90136694908142 -2.4144649505615234 -18.595695495605469
v 990.80810546875 -3.1013278961181641 -20.278419494628906
v 1024 0.47919300198554993 -54.041580200195312
v 1024 0.53466099500656128 -51.510257720947266
v 1024 0.54070001840591431 -51.234672546386719
v 896 2.7488470077514648 -15.290424346923828
v 927.90228271484375 1.0345120429992676 0
v 896 2.7748479843139648 -14.828857421875
v 912.04638671875 2.314661979675293 0
v 896 2.7967150211334229 -14.440666198730469
v 942.17559814453125 -0.072654999792575836 0
v 896 1.4616390466690064 0
v 959.88519299775362 -2.0178239345550537 0
v 991.87542724609375 -3.6933460235595703 0
v 972.56524658203125 -2.2758069038391113 0
v 1013.36083984375 -1.6207369565963745 0
v 1023.8909912109375 -0.67352300882339478 0
v 1024 -0.67071998119354248 0
vt 0.070937998592853546 0.029555022716522217
vt 0.19984200596809387 0.14101499319076538
vt 0.18972599506378174 0.025389015674591064
vt 0.00472299987450242 0.15818601846694946
vt 0.0030839999672025442 0.1105009913444519
vt 0.00036700000055134296 0.032059013843536377
vt 0.32307299971580505 0.02140200138092041
vt 0.44217100739479065 0.12094402313232422
vt 0.43220299482345581 0.017247021198272705
vt 0.22072200477123261 0.38116598129272461
vt 0.46324899792671204 0.36112499237060547
vt 0.012900999747216702 0.39927202463150024
vt 0.011886999942362309 0.365198016166687
vt 0.53041702508926392 0.013670027256011963
vt 0.68242800235748291 0.1002190113067627
vt 0.83338600397109985 0.0017189979553222656
vt 0.92314499616622925 0.079555988311767578
vt 0.67414200305938721 0.00934600830078125
vt 0.70330500602722168 0.3402860164642334
vt 0.96149599552154541 0.57032498717308044
vt 0.91770702600479126 0.0020059943199157715
vt 0.97064298391342163 0.069990992546081543
vt 0.97616797685623169 0.086288988590240479
vt 0.96945500373840332 0.0011109709739685059
vt 0.97267097234725952 0.13154298067092896
vt 0.47977399826049805 0.60274198651313782
vt 0.24159300327301025 0.62146401405334473
vt 0.013938999734818935 0.43004298210144043
vt 0.72079199552536011 0.58430099487304688
vt 0.020444000139832497 0.64198300242424011
vt 0.25989100337028503 0.86171899735927582
vt 0.021006999537348747 0.66050198674201965
vt 0.500806987285614 0.84325000643730164
vt 0.73634397983551025 0.82777799665927887
vt 0.98368501663208008 0.56858900189399719
vt 0.98399502038955688 0.58789199590682983
vt 0.98402702808380127 0.58997100591659546
vt 0.027807999402284622 0.88317400217056274
vt 0.26920399069786072 0.989308999851346
vt 0.027907000854611397 0.88665799796581268
vt 0.15242299437522888 0.99459199979901314
vt 0.027991000562906265 0.88958899676799774
vt 0.37712100148200989 0.98670899961143732
vt 0.031334001570940018 0.99888900003861636
vt 0.5099719762802124 0.98339599929749966
vt 0.75152301788330078 0.97732100076973438
vt 0.60557997226715088 0.98129799962043762
vt 0.90934497117996216 0.97775699943304062
vt 0.98905402421951294 0.97637300007045269
vt 0.98987698554992676 0.97636000066995621
vn 0.021601000800728798 0.999131977558136 -0.035611998289823532
vn -0.057477999478578568 0.99785399436950684 -0.031369000673294067
vn -0.053881000727415085 0.99794399738311768 -0.034703999757766724
vn 0.018668999895453453 0.99931997060775757 -0.031801000237464905
vn 0.021185999736189842 0.999127984046936 -0.035985000431537628
vn 0.0306560005992651 0.9991530179977417 -0.0274679996073246
vn -0.10864599794149399 0.99252998828887939 -0.055504001677036285
vn -0.074803002178668976 0.99461597204208374 -0.07172200083732605
vn -0.040006000548601151 0.98969799280166626 -0.13746699690818787
vn -0.044293001294136047 0.998786985874176 -0.02150999940931797
vn -0.075869001448154449 0.996720016002655 0.0281629990786314
vn 0.0089699998497962952 0.999068021774292 -0.042226001620292664
vn 0.011641000397503376 0.9994170069694519 -0.032097000628709793
vn -0.043487999588251114 0.98992598056793213 -0.13474200665950775
vn 0.024411000311374664 0.99725902080535889 -0.069839999079704285
vn 0.041398998349905014 0.99339801073074341 -0.10698399692773819
vn 0.02789900079369545 0.9993860125541687 -0.021199999377131462
vn 0.01246699970215559 0.99050998687744141 -0.13687099516391754
vn 0.037868000566959381 0.99927800893783569 0.0031500000040978193
vn 0.010328999720513821 0.99975597858428955 0.019530000165104866
vn -0.020349999889731407 0.99979299306869507 -0.00031999999191612005
vn 0.018354000523686409 0.9998289942741394 -0.0023630000650882721
vn 0.018115000799298286 0.99981200695037842 -0.0068919998593628407
vn 0.018354000523686409 0.9998289942741394 -0.0023630000650882721
vn 0.016434000805020332 0.9998130202293396 -0.010152000002563
vn -0.034154001623392105 0.9966769814491272 0.0739469975233078
vn 0.044323999434709549 0.99850499629974365 -0.031989999115467072
vn 0.026056999340653419 0.99726301431655884 -0.069197997450828552
vn 9.1000001702923328E-05 0.99574899673461914 0.0921040028333664
vn 0.077226996421813965 0.99481701850891113 -0.06614299863576889
vn 0.079617001116275787 0.99619901180267334 -0.035328000783920288
vn 0.080761998891830444 0.99662500619888306 -0.014720999635756016
vn 0.046314001083374023 0.99891799688339233 0.0041510001756250858
vn -0.021709000691771507 0.99811702966690063 0.057367999106645584
vn 0.015599999576807022 0.99975800514221191 -0.015533000230789185
vn 0.015262000262737274 0.99964398145675659 -0.021903999149799347
vn -0.014775999821722508 0.99982500076293945 0.011482999660074711
vn 0.081413000822067261 0.99599099159240723 -0.037075001746416092
vn 0.078732997179031372 0.99532300233840942 -0.055982001125812531
vn 0.080347999930381775 0.99518901109695435 -0.056060999631881714
vn 0.049323998391628265 0.99855202436447144 -0.021475000306963921
vn 0.044911999255418777 0.99885398149490356 -0.016561999917030334
vn 0.085708998143672943 0.99515199661254883 -0.048232000321149826
vn -0.052859999239444733 0.99436098337173462 0.091931000351905823
vn 0.063352003693580627 0.99768698215484619 -0.024631999433040619
vn -0.01424499973654747 0.99945098161697388 0.029928000643849373
vn 0.034451998770236969 0.99935901165008545 -0.0096899997442960739
vn -0.091050997376441956 0.99543601274490356 0.028582999482750893
vn -0.056616999208927155 0.99807697534561157 0.025228999555110931
vn -0.025699000805616379 0.99939000606536865 0.023630000650882721
f 1/1/1 2/2/2 3/3/3
f 1/1/1 4/4/4 2/2/2
f 1/1/1 5/5/5 4/4/4
f 6/6/6 5/5/5 1/1/1
f 7/7/7 8/8/8 9/9/9
f 8/8/8 2/2/2 10/10/10
f 3/3/3 8/8/8 7/7/7
f 3/3/3 2/2/2 8/8/8
f 8/8/8 10/10/10 11/11/11
f 12/12/12 2/2/2 13/13/13
f 12/12/12 10/10/10 2/2/2
f 13/13/13 2/2/2 4/4/4
f 14/14/14 9/9/9 8/8/8
f 11/11/11 15/15/15 8/8/8
f 16/16/16 15/15/15 17/17/17
f 16/16/16 18/18/18 15/15/15
f 17/17/17 19/19/19 20/20/20
f 16/16/16 17/17/17 21/21/21
f 22/22/22 17/17/17 23/23/23
f 22/22/22 21/21/21 17/17/17
f 22/22/22 24/24/24 21/21/21
f 23/23/23 17/17/17 25/25/25
f 17/17/17 15/15/15 19/19/19
f 19/19/19 15/15/15 11/11/11
f 10/10/10 26/26/26 11/11/11
f 14/14/14 15/15/15 18/18/18
f 14/14/14 8/8/8 15/15/15
f 12/12/12 27/27/27 10/10/10
f 12/12/12 28/28/28 27/27/27
f 11/11/11 29/29/29 19/19/19
f 30/30/30 31/31/31 27/27/27
f 30/30/30 32/32/32 31/31/31
f 27/27/27 33/33/33 26/26/26
f 29/29/29 34/34/34 20/20/20
f 27/27/27 26/26/26 10/10/10
f 29/29/29 20/20/20 19/19/19
f 20/20/20 25/25/25 17/17/17
f 20/20/20 35/35/35 25/25/25
f 11/11/11 26/26/26 29/29/29
f 35/35/35 20/20/20 36/36/36
f 36/36/36 20/20/20 37/37/37
f 28/28/28 30/30/30 27/27/27
f 26/26/26 34/34/34 29/29/29
f 32/32/32 38/38/38 31/31/31
f 38/38/38 39/39/39 31/31/31
f 38/38/38 40/40/40 39/39/39
f 40/40/40 41/41/41 39/39/39
f 40/40/40 42/42/42 41/41/41
f 31/31/31 43/43/43 33/33/33
f 31/31/31 39/39/39 43/43/43
f 44/44/44 41/41/41 42/42/42
f 45/45/45 33/33/33 43/43/43
f 46/46/46 34/34/34 47/47/47
f 45/45/45 34/34/34 33/33/33
f 45/45/45 47/47/47 34/34/34
f 46/46/46 48/48/48 34/34/34
f 34/34/34 49/49/49 20/20/20
f 34/34/34 48/48/48 49/49/49
f 49/49/49 37/37/37 20/20/20
f 49/49/49 50/50/50 37/37/37
f 34/34/34 26/26/26 33/33/33
f 33/33/33 27/27/27 31/31/31
