mtllib m30133.mtl
usemtl material0
v 896 0.48103201389312744 -455.41189622879028
v 903.4256591796875 1.0841569900512695 -463.66403198242188
v 896 0.68573397397995 -463.27059936523438
v 896 3.2886180877685547 -495.27828979492188
v 896 3.0434470176696777 -489.18875122070312
v 901.7557373046875 3.9063129425048828 -495.58428955078125
v 896 3.9412961006164551 -501.63140869140625
v 900.89776611328125 5.505363941192627 -512
v 896 5.006497859954834 -512
v 916.5302734375 6.5547809600830078 -512
v 951.10382080078125 6.8708739280700684 -512
v 965.58227491378784 5.0064711570739746 -498.95846557617188
v 964.90338087081909 6.7844820022583008 -512
v 932.90576171875 7.1125850677490234 -512
v 933.6729736328125 5.2143402099609375 -497.27407836914062
v 1024 1.7879300117492676 -502.03271484375
v 996.89300537109375 4.97613000869751 -512
v 997.486572265625 3.8266410827636719 -500.63934326171875
v 1024 2.4270710945129395 -508.62872314453125
v 1024 2.7537429332733154 -512
v 967.25305223464966 2.3640000820159912 -467.03884887695312
v 1024 2.7777121067047119 -476.77679443359375
v 984.87835693359375 5.9047379493713379 -512
v 935.3426513671875 2.3555641174316406 -465.35369873046875
v 896 0.38587099313735962 -431.27053833007812
v 905.1102294921875 1.0878150463104248 -431.75393676757812
v 937.0224609375 1.4402949810028076 -433.4403076171875
v 968.9285888671875 0.62843501567840576 -435.12252807617188
v 938.69207763671875 -1.4342199563980103 -401.51998901367188
v 1000.8253173828125 -1.9869129657745361 -436.79830932617188
v 970.592529296875 -3.338831901550293 -403.19830322265625
v 1024 -0.84122401475906372 -438.02587890625
v 1024 -1.781309962272644 -418.47821044921875
v 1024 -1.9029439687728882 -415.94900512695312
v 896 -0.2553040087223053 -409.54473876953125
v 906.79052734375 0.27283000946044922 -399.8409423828125
v 896 -0.12707400321960449 -399.26980590820312
v 896 -0.75114297866821289 -387.84976196289062
v 922.92913818359375 -1.4791959524154663 -384
v 907.62200927734375 -0.61722701787948608 -384
v 939.61474609375 -1.8424049615859985 -384
v 896 -0.97364699840545654 -384
v 953.32098388671875 -2.6752269268035889 -384
v 991.923095703125 -4.2356348037719727 -384
v 971.6021728515625 -4.0478057861328125 -384
v 1003.6002197265625 -4.2732458114624023 -384
v 1024 -3.3614840507507324 -384
vt 0.53902101516723633 0.014356017112731934
vt 0.603193998336792 0.06836402416229248
vt 0.59829699993133545 0.01239699125289917
vt 0.84050601720809937 0.0050060153007507324
vt 0.79455298185348511 0.0065519809722900391
vt 0.84446698427200317 0.048560023307800293
vt 0.888670027256012 0.0036929845809936523
vt 0.96867400407791138 0.03866499662399292
vt 0.96727699041366577 0.0015500187873840332
vt 0.97297501564025879 0.15648102760314941
vt 0.98070299625396729 0.41728299856185913
vt 0.88446897268295288 0.52930399775505066
vt 0.98358297348022461 0.52135398983955383
vt 0.97703099250793457 0.28002798557281494
vt 0.86522501707077026 0.28899902105331421
vt 0.919297993183136 0.970015000551939
vt 0.98994797468185425 0.76249699294567108
vt 0.90398699045181274 0.76970699429512024
vt 0.96926897764205933 0.96843599900603294
vt 0.99480897188186646 0.967629998922348
vt 0.64376002550125122 0.54905301332473755
vt 0.73298197984695435 0.975637000054121
vt 0.98775297403335571 0.67161101102828979
vt 0.623924970626831 0.30879199504852295
vt 0.356997013092041 0.020630002021789551
vt 0.36303699016571045 0.089395999908447266
vt 0.38380700349807739 0.32960700988769531
vt 0.40379500389099121 0.56990000605583191
vt 0.14255599677562714 0.35009700059890747
vt 0.42366299033164978 0.81085999310016632
vt 0.16177700459957123 0.59075900912284851
vt 0.43952399492263794 0.98543700017035007
vt 0.29197201132774353 0.990667000412941
vt 0.2715190052986145 0.99094399996101856
vt 0.19310599565505981 0.025960981845855713
vt 0.12273900210857391 0.10993099212646484
vt 0.11562900245189667 0.028665006160736084
vt 0.029389999806880951 0.0314670205116272
vt 0.0067509999498724937 0.23574197292327881
vt 0.003312000073492527 0.12012797594070435
vt 0.010846000164747238 0.36158698797225952
vt 0.00031299999682232738 0.032407999038696289
vt 0.013415000401437283 0.46438401937484741
vt 0.021591000258922577 0.75589099526405334
vt 0.017126999795436859 0.60264098644256592
vt 0.02515999972820282 0.84448200464248657
vt 0.030349999666213989 0.99844999995548278
vn -0.070922002196311951 0.99744099378585815 0.0090810004621744156
vn -0.046952001750469208 0.9976770281791687 0.049364000558853149
vn -0.050471998751163483 0.99708998203277588 0.057126998901367188
vn -0.10278300195932388 0.99225997924804688 0.069689996540546417
vn -0.061648000031709671 0.99498599767684937 0.078759998083114624
vn -0.065811999142169952 0.99347299337387085 0.09316900372505188
vn -0.10080700367689133 0.98969697952270508 0.10167499631643295
vn -0.08421199768781662 0.99131900072097778 0.10096599906682968
vn -0.10080599784851074 0.98969697952270508 0.10167499631643295
vn -0.04252300038933754 0.99165302515029907 0.12171900272369385
vn 0.011537999846041203 0.99158400297164917 0.12894700467586517
vn 0.026317000389099121 0.99395900964736938 0.10655300319194794
vn 0.02425600029528141 0.990710973739624 0.13380500674247742
vn -0.0110470000654459 0.99165999889373779 0.12840600311756134
vn -0.012238999828696251 0.99403601884841919 0.10836400091648102
vn 0.078238002955913544 0.99646002054214478 0.030767999589443207
vn 0.078928999602794647 0.99222099781036377 0.096271000802516937
vn 0.05059099942445755 0.99545997381210327 0.080618999898433685
vn 0.081332996487617493 0.99204099178314209 0.09612700343132019
vn 0.081332996487617493 0.99204099178314209 0.09612700343132019
vn 0.033672001212835312 0.99698901176452637 0.0698470026254654
vn -0.012520000338554382 0.99825000762939453 0.057790998369455338
vn 0.051329001784324646 0.99091702699661255 0.1242929995059967
vn -0.013611000031232834 0.99834001064300537 0.0559610016644001
vn -0.075907997786998749 0.99696797132492065 0.017113000154495239
vn -0.03809799998998642 0.99892598390579224 0.026370000094175339
vn 0.011680000461637974 0.997750997543335 0.066008001565933228
vn 0.057868998497724533 0.994642972946167 0.085656002163887024
vn 0.046975001692771912 0.99763798713684082 0.050112999975681305
vn 0.0056320000439882278 0.99735397100448608 0.07248300313949585
vn 0.04183100163936615 0.99715197086334229 0.062747001647949219
vn -0.045485999435186386 0.99642002582550049 0.0712599977850914
vn -0.046783998608589172 0.99775201082229614 0.04798400029540062
vn -0.045186001807451248 0.99790900945663452 0.0462069995701313
vn -0.065229997038841248 0.997704029083252 0.018233999609947205
vn 0.00546600017696619 0.99936902523040771 0.035105001181364059
vn -0.035852998495101929 0.999110996723175 0.022185999900102615
vn -0.031415998935699463 0.99788302183151245 0.056942999362945557
vn 0.046973001211881638 0.99788999557495117 0.04482400044798851
vn 0.014245999976992607 0.99836599826812744 0.055348001420497894
vn 0.041868001222610474 0.99890100955963135 0.021067999303340912
vn -0.030602000653743744 0.99786597490310669 0.057672999799251556
vn 0.064427003264427185 0.99764597415924072 0.023476999253034592
vn 0.004621999803930521 0.99912601709365845 0.041535999625921249
vn 0.040927000343799591 0.99855899810791016 0.034722998738288879
vn -0.021484000608325005 0.99878400564193726 0.044380001723766327
vn -0.044603999704122543 0.99796497821807861 0.045559000223875046
f 1/1/1 2/2/2 3/3/3
f 4/4/4 5/5/5 6/6/6
f 4/4/4 6/6/6 7/7/7
f 7/7/7 8/8/8 9/9/9
f 7/7/7 6/6/6 8/8/8
f 8/8/8 6/6/6 10/10/10
f 11/11/11 12/12/12 13/13/13
f 14/14/14 6/6/6 15/15/15
f 14/14/14 10/10/10 6/6/6
f 16/16/16 17/17/17 18/18/18
f 16/16/16 19/19/19 17/17/17
f 19/19/19 20/20/20 17/17/17
f 12/12/12 15/15/15 21/21/21
f 14/14/14 12/12/12 11/11/11
f 14/14/14 15/15/15 12/12/12
f 16/16/16 18/18/18 22/22/22
f 23/23/23 18/18/18 17/17/17
f 23/23/23 12/12/12 18/18/18
f 23/23/23 13/13/13 12/12/12
f 18/18/18 12/12/12 21/21/21
f 15/15/15 6/6/6 24/24/24
f 25/25/25 2/2/2 1/1/1
f 25/25/25 26/26/26 2/2/2
f 2/2/2 26/26/26 24/24/24
f 21/21/21 24/24/24 27/27/27
f 15/15/15 24/24/24 21/21/21
f 21/21/21 27/27/27 28/28/28
f 27/27/27 24/24/24 26/26/26
f 24/24/24 6/6/6 2/2/2
f 27/27/27 26/26/26 29/29/29
f 30/30/30 28/28/28 31/31/31
f 28/28/28 30/30/30 21/21/21
f 22/22/22 30/30/30 32/32/32
f 22/22/22 18/18/18 30/30/30
f 18/18/18 21/21/21 30/30/30
f 33/33/33 30/30/30 34/34/34
f 33/33/33 32/32/32 30/30/30
f 28/28/28 27/27/27 31/31/31
f 3/3/3 6/6/6 5/5/5
f 3/3/3 2/2/2 6/6/6
f 26/26/26 35/35/35 36/36/36
f 26/26/26 25/25/25 35/35/35
f 37/37/37 38/38/38 36/36/36
f 39/39/39 36/36/36 40/40/40
f 39/39/39 29/29/29 36/36/36
f 37/37/37 36/36/36 35/35/35
f 41/41/41 29/29/29 39/39/39
f 42/42/42 36/36/36 38/38/38
f 42/42/42 40/40/40 36/36/36
f 43/43/43 29/29/29 41/41/41
f 43/43/43 31/31/31 29/29/29
f 44/44/44 31/31/31 45/45/45
f 31/31/31 46/46/46 30/30/30
f 31/31/31 44/44/44 46/46/46
f 47/47/47 30/30/30 46/46/46
f 47/47/47 34/34/34 30/30/30
f 43/43/43 45/45/45 31/31/31
f 36/36/36 29/29/29 26/26/26
f 31/31/31 27/27/27 29/29/29
