mtllib m30322.mtl
usemtl material0
v 521.9605712890625 21.5313720703125 -1024
v 554.11114501953125 22.915672302246094 -1021.276611328125
v 553.04144287109375 23.028146743774414 -1024
v 522.1922607421875 21.276704788208008 -1019.5853271484375
v 512 21.23969841003418 -1019.0469360351563
v 512 21.356685638427734 -1021.0738525390625
v 512 21.52557373046875 -1024
v 554.86297607421875 23.165229797363281 -1024
v 512 20.2050838470459 -998.35162353515625
v 523.8687744140625 19.68278694152832 -987.6690673828125
v 512 19.559612274169922 -987.0418701171875
v 512 18.6031551361084 -967.94360399246216
v 525.5452880859375 18.097358703613281 -955.75286912918091
v 512 18.477882385253906 -955.03887891769409
v 555.78338623046875 20.482906341552734 -989.357177734375
v 586.02142333984375 22.855644226074219 -1022.9615478515625
v 587.69281005859375 20.265165328979492 -991.04150390625
v 585.96710205078125 22.953128814697266 -1024
v 605.649169921875 23.416109085083008 -1024
v 619.6080322265625 21.192607879638672 -992.73016357421875
v 617.97064208984375 23.714542388916016 -1024
v 640 22.944381713867188 -1024
v 618.6588134765625 23.724235534667969 -1024
v 640 22.461269378662109 -1004.7890014648438
v 557.456787109375 18.286649703979492 -957.43872094154358
v 589.3697509765625 18.76762580871582 -959.12567102909088
v 559.13470458984375 16.984603881835938 -925.5235595703125
v 640 21.194442749023438 -981.6126708984375
v 621.28778076171875 20.244373321533203 -960.81628400087357
v 640 21.567569732666016 -993.80828857421875
v 640 22.443954467773438 -1004.5762939453125
v 640 19.994348526000977 -961.80358898639679
v 622.95892333984375 17.611789703369141 -928.89617919921875
v 640 18.855180740356445 -947.83453369140625
v 591.04656982421875 17.251716613769531 -927.209716796875
v 527.22393798828125 16.930564880371094 -923.8382568359375
v 512 17.865777969360352 -937.54278564453125
v 512 18.172611236572266 -923.03857421875
v 512 17.693002700805664 -906.91571044921875
v 512 17.227188110351562 -896
v 528.6865234375 15.599980354309082 -896
v 560.685546875 15.52604866027832 -896
v 532.56982421875 15.596762657165527 -896
v 562.96405029296875 15.539135932922363 -896
v 592.68011474609375 14.595332145690918 -896
v 624.6275634765625 14.491608619689941 -896.974365234375
v 624.67889404296875 14.469815254211426 -896
v 623.7508544921875 14.448107719421387 -896
v 606.1749267578125 14.516613006591797 -896
v 640 14.72441577911377 -897.7869873046875
v 640 14.712697982788086 -897.27972412109375
v 640 14.683135986328125 -896
v 640 17.57914924621582 -929.7960205078125
v 640 16.046596527099609 -914.05743408203125
vt 0.10233599692583084 0.0033069849014282227
vt 0.34595701098442078 0.029488027095794678
vt 0.338358998298645 0.0086119771003723145
vt 0.10324499756097794 0.036889970302581787
vt 0.025838000699877739 0.039026021957397461
vt 0.026227999478578568 0.023626983165740967
vt 0.02679000049829483 0.0013970136642456055
vt 0.3522149920463562 0.008899986743927002
vt 0.021919000893831253 0.19621598720550537
vt 0.10991600155830383 0.27958101034164429
vt 0.019773999229073524 0.282135009765625
vt 0.016160000115633011 0.42716902494430542
vt 0.11650499701499939 0.522269994020462
vt 0.013636000454425812 0.52504900097846985
vt 0.35236400365829468 0.27260798215866089
vt 0.58831697702407837 0.02329099178314209
vt 0.59472197294235229 0.26638102531433105
vt 0.58811700344085693 0.015370011329650879
vt 0.73743999004364014 0.01903998851776123
vt 0.8370400071144104 0.2595900297164917
vt 0.83092200756073 0.02133101224899292
vt 0.99809902906417847 0.026004016399383545
vt 0.83614099025726318 0.021465003490447998
vt 0.99414801597595215 0.17174899578094482
vt 0.35886600613594055 0.51558899879455566
vt 0.60126197338104248 0.50892099738121033
vt 0.36543199419975281 0.75817400217056274
vt 0.989683985710144 0.34739398956298828
vt 0.84391701221466064 0.50184100866317749
vt 0.99193602800369263 0.25530600547790527
vt 0.9941059947013855 0.17336797714233398
vt 0.98604100942611694 0.49791598320007324
vt 0.85017597675323486 0.74473100900650024
vt 0.98323702812194824 0.604214996099472
vt 0.6077989935874939 0.7514680027961731
vt 0.12332300096750259 0.76480400562286377
vt 0.010366999544203281 0.657831996679306
vt 0.0073179998435080051 0.76785700023174286
vt 0.0044350000098347664 0.89019999653100967
vt 0.00190100003965199 0.97267699986696243
vt 0.12904499471187592 0.97646700032055378
vt 0.37148299813270569 0.98266799934208393
vt 0.15824000537395477 0.97720899991691113
vt 0.38876500725746155 0.98310399986803532
vt 0.61424601078033447 0.98934600036591291
vt 0.8565409779548645 0.988319999538362
vt 0.85673999786376953 0.99572200002148747
vt 0.84969902038574219 0.99554400006309152
vt 0.7163969874382019 0.99204799998551607
vt 0.9733009934425354 0.9850449999794364
vt 0.97320002317428589 0.98889399971812963
vt 0.97295600175857544 0.998602999956347
vt 0.97960102558135986 0.74130401015281677
vt 0.97649902105331421 0.86123700439929962
vn -0.023536000400781631 0.99799197912216187 0.058805998414754868
vn -0.02308100089430809 0.99707901477813721 0.072801001369953156
vn -0.058276999741792679 0.99624502658843994 0.064034000039100647
vn -0.024512000381946564 0.99818599224090576 0.054999001324176788
vn -0.00079199997708201408 0.99856001138687134 0.0536470003426075
vn -0.00058100000023841858 0.998337984085083 0.057620998471975327
vn -0.00058100000023841858 0.998337984085083 0.057620998471975327
vn -0.027000000700354576 0.99611502885818481 0.0838249996304512
vn -0.0026839999482035637 0.998652994632721 0.051809001713991165
vn -0.017225999385118484 0.99835199117660522 0.054747998714447021
vn -0.0075420001521706581 0.99854600429534912 0.053380001336336136
vn 0.0019640000537037849 0.99922597408294678 0.039276000112295151
vn 0.0065740002319216728 0.99914401769638062 0.04084400087594986
vn 0.029271999374032021 0.99931299686431885 0.022745000198483467
vn -0.0035979999229311943 0.99748802185058594 0.070748999714851379
vn -0.0081350002437829971 0.99618202447891235 0.086916998028755188
vn -0.010270999744534493 0.99769097566604614 0.0671359971165657
vn -0.0078189997002482414 0.99555397033691406 0.093865998089313507
vn -0.024119999259710312 0.99635297060012817 0.081841997802257538
vn -0.022670000791549683 0.99803298711776733 0.0584460012614727
vn -0.019247999414801598 0.9964979887008667 0.081376001238822937
vn 0.036506000906229019 0.99901801347732544 0.025123000144958496
vn -0.0022470001131296158 0.9976770281791687 0.068084999918937683
vn -0.0005740000051446259 0.99780398607254028 0.0662359967827797
vn -0.0041220001876354218 0.998583972454071 0.053036998957395554
vn -0.021435000002384186 0.998494029045105 0.050491001456975937
vn -0.0030060000717639923 0.99900597333908081 0.0444829985499382
vn -0.00900300033390522 0.99925398826599121 0.037549998611211777
vn -0.017152000218629837 0.99800300598144531 0.060787998139858246
vn -0.015356999821960926 0.99827200174331665 0.056726999580860138
vn -0.014039999805390835 0.99660599231719971 0.081115998327732086
vn 0.017047999426722527 0.99736398458480835 0.070528000593185425
vn -0.0031590000726282597 0.99644899368286133 0.084141999483108521
vn 0.014816000126302242 0.99678200483322144 0.078776001930236816
vn -0.0013269999762997031 0.99804401397705078 0.0625080019235611
vn 0.03657199814915657 0.99882400035858154 0.031844001263380051
vn 0.043368000537157059 0.9988589882850647 0.019987000152468681
vn 0.0815809965133667 0.9966539740562439 0.0051159998401999474
vn 0.093661002814769745 0.99482297897338867 0.039438001811504364
vn 0.096968002617359161 0.99438202381134033 0.042433999478816986
vn 0.047277998179197311 0.99785798788070679 0.045210998505353928
vn -0.0017500000540167093 0.99877601861953735 0.049435000866651535
vn 0.001276999944821 0.99884200096130371 0.048103000968694687
vn 0.0042610000818967819 0.99827200174331665 0.058612998574972153
vn 0.01828400045633316 0.9963110089302063 0.08384300023317337
vn -0.0064260000362992287 0.99819302558898926 0.059749998152256012
vn -0.018490999937057495 0.9995570182800293 0.023330999538302422
vn -0.003381999908015132 0.9991300106048584 0.0415630005300045
vn 0.0057799997739493847 0.99645799398422241 0.083893001079559326
vn -0.012318000197410584 0.9985160231590271 0.053050000220537186
vn -0.013918000273406506 0.99963599443435669 0.0230919998139143
vn -0.013918000273406506 0.99963599443435669 0.0230919998139143
vn 0.0063080000691115856 0.996504008769989 0.083305999636650085
vn 0.0028750000055879354 0.99564200639724731 0.093216001987457275
f 1/1/1 2/2/2 3/3/3
f 1/1/1 4/4/4 2/2/2
f 5/5/5 4/4/4 6/6/6
f 6/6/6 1/1/1 7/7/7
f 6/6/6 4/4/4 1/1/1
f 3/3/3 2/2/2 8/8/8
f 4/4/4 9/9/9 10/10/10
f 4/4/4 5/5/5 9/9/9
f 9/9/9 11/11/11 10/10/10
f 10/10/10 12/12/12 13/13/13
f 10/10/10 11/11/11 12/12/12
f 14/14/14 13/13/13 12/12/12
f 15/15/15 10/10/10 13/13/13
f 15/15/15 2/2/2 10/10/10
f 2/2/2 15/15/15 16/16/16
f 16/16/16 15/15/15 17/17/17
f 18/18/18 16/16/16 19/19/19
f 19/19/19 20/20/20 21/21/21
f 19/19/19 16/16/16 20/20/20
f 18/18/18 2/2/2 16/16/16
f 18/18/18 8/8/8 2/2/2
f 22/22/22 23/23/23 24/24/24
f 17/17/17 25/25/25 26/26/26
f 25/25/25 17/17/17 15/15/15
f 17/17/17 26/26/26 20/20/20
f 13/13/13 27/27/27 25/25/25
f 28/28/28 20/20/20 29/29/29
f 28/28/28 30/30/30 20/20/20
f 21/21/21 24/24/24 23/23/23
f 21/21/21 31/31/31 24/24/24
f 31/31/31 20/20/20 30/30/30
f 31/31/31 21/21/21 20/20/20
f 32/32/32 33/33/33 34/34/34
f 32/32/32 29/29/29 33/33/33
f 29/29/29 20/20/20 26/26/26
f 16/16/16 17/17/17 20/20/20
f 25/25/25 35/35/35 26/26/26
f 25/25/25 15/15/15 13/13/13
f 2/2/2 4/4/4 10/10/10
f 14/14/14 36/36/36 13/13/13
f 14/14/14 37/37/37 36/36/36
f 26/26/26 33/33/33 29/29/29
f 38/38/38 36/36/36 37/37/37
f 38/38/38 39/39/39 36/36/36
f 40/40/40 36/36/36 39/39/39
f 40/40/40 41/41/41 36/36/36
f 42/42/42 27/27/27 43/43/43
f 41/41/41 27/27/27 36/36/36
f 41/41/41 43/43/43 27/27/27
f 44/44/44 45/45/45 35/35/35
f 42/42/42 35/35/35 27/27/27
f 42/42/42 44/44/44 35/35/35
f 35/35/35 33/33/33 26/26/26
f 35/35/35 46/46/46 33/33/33
f 25/25/25 27/27/27 35/35/35
f 47/47/47 46/46/46 48/48/48
f 48/48/48 46/46/46 49/49/49
f 47/47/47 50/50/50 46/46/46
f 47/47/47 51/51/51 50/50/50
f 51/51/51 47/47/47 52/52/52
f 35/35/35 49/49/49 46/46/46
f 35/35/35 45/45/45 49/49/49
f 53/53/53 46/46/46 54/54/54
f 53/53/53 33/33/33 46/46/46
f 13/13/13 36/36/36 27/27/27
f 28/28/28 29/29/29 32/32/32
f 53/53/53 34/34/34 33/33/33
f 50/50/50 54/54/54 46/46/46
