mtllib m30313.mtl
usemtl material0
v 896 10.046272277832031 -751.2939453125
v 896 10.929425239562988 -725.6494140625
v 920.22265625 10.230802536010742 -752.57373046875
v 896 10.328850746154785 -759.4332275390625
v 903.70819091796875 10.670854568481445 -768
v 896 10.703405380249023 -768
v 896 9.67382526397705 -655.29522705078125
v 910.11920166015625 8.5565967559814453 -640
v 925.2608642578125 7.2559008598327637 -656.832275390625
v 896 9.6816110610961914 -652.77227783203125
v 896 9.7210273742675781 -640
v 896 9.7841482162475586 -658.0867919921875
v 923.58355712890625 8.6592855453491211 -688.74761962890625
v 896 10.662781715393066 -687.2977294921875
v 896 10.887338638305664 -691.866943359375
v 921.9078369140625 10.353867530822754 -720.66400146484375
v 896 10.961701393127441 -719.29791259765625
v 919.4111328125 10.761676788330078 -768
v 934.10504150390625 11.975415229797363 -768
v 984.0631103515625 13.983624458312988 -755.957763671875
v 951.4188232421875 12.290070533752441 -768
v 952.136962890625 10.974085807800293 -754.2615966796875
v 970.67840576171875 14.00282096862793 -768
v 983.42791748046875 14.082023620605469 -768
v 953.8157958984375 9.8745203018188477 -722.34735107421875
v 987.40234375 8.2505712509155273 -692.11639404296875
v 955.486328125 7.1750760078430176 -690.42730712890625
v 957.16815209388733 6.65057897567749 -658.5152587890625
v 1024 10.06833553314209 -732.78985595703125
v 1024 12.275096893310547 -758.06097412109375
v 1024 12.315065383911133 -764.83734130859375
v 1024 12.333720207214356 -768
v 1024 8.1490621566772461 -694.0487060546875
v 1024 5.1088137626647949 -663.52874755859375
v 1024 4.6736240386962891 -659.16009521484375
v 926.146728515625 6.752479076385498 -640
v 958.14105200767517 5.8186888694763184 -640
v 940.509521484375 6.458158016204834 -640
v 977.72906494140625 4.6305818557739258 -640
v 990.13201904296875 4.2512540817260742 -640
v 1024 3.2334721088409424 -640
vt 0.838038980960846 0.0043510198593139648
vt 0.64542698860168457 0.011052012443542481
vt 0.85391801595687866 0.18585199117660523
vt 0.89917302131652832 0.0022569894790649414
vt 0.96551299095153809 0.057914018630981445
vt 0.96354198455810547 5.1975250244140625E-05
vt 0.1171799972653389 0.0299069881439209
vt 0.0060450001619756222 0.13888400793075562
vt 0.13601599633693695 0.24897801876068115
vt 0.098237998783588409 0.030444025993347168
vt 0.0023459999356418848 0.033218979835510254
vt 0.13815000653266907 0.029143989086151123
vt 0.37538200616836548 0.2280849814414978
vt 0.35750800371170044 0.021238982677459717
vt 0.3918440043926239 0.019963979721069336
vt 0.6148340106010437 0.20688599348068237
vt 0.59775000810623169 0.012721002101898193
vt 0.96957600116729736 0.17579001188278198
vt 0.973701000213623 0.28645402193069458
vt 0.89708298444747925 0.66521298885345459
vt 0.978551983833313 0.41612100601196289
vt 0.8751329779624939 0.4250190258026123
vt 0.9840400218963623 0.56164601445198059
vt 0.98731899261474609 0.65735200047492981
vt 0.63587099313735962 0.44598102569580078
vt 0.41808098554611206 0.7065809965133667
vt 0.39589399099349976 0.46741801500320435
vt 0.15673400461673737 0.48811197280883789
vt 0.73279601335525513 0.97121099941432476
vt 0.923196017742157 0.96412799879908562
vt 0.97391301393508911 0.96300499886274338
vt 0.9976540207862854 0.96219399943947792
vt 0.4416159987449646 0.98083999939262867
vt 0.21137699484825134 0.98852999974042177
vt 0.17825999855995178 0.99019999988377094
vt 0.0098360003903508186 0.25996702909469604
vt 0.017866000533103943 0.50026699900627136
vt 0.013473000377416611 0.36780601739883423
vt 0.022617999464273453 0.6475850045681
vt 0.025785999372601509 0.74073299765586853
vt 0.034026000648736954 0.99509399989619851
vn -0.0076720002107322216 0.999970018863678 -0.0010209999745711684
vn 0.015584000386297703 0.99980700016021729 -0.01192300021648407
vn -0.01310999970883131 0.99961400032043457 0.024495000019669533
vn -0.0034499999601393938 0.9993169903755188 0.036791000515222549
vn -0.0031109999399632216 0.99930697679519653 0.037094999104738235
vn 0.0042190002277493477 0.99903702735900879 0.043680001050233841
vn 0.0832509994506836 0.99637597799301147 0.017456000670790672
vn 0.090098001062870026 0.99592399597167969 0.0040890001691877842
vn 0.055815998464822769 0.99797898530960083 0.0303569994866848
vn 0.082191996276378632 0.996612012386322 -0.0030759999062865973
vn 0.082191996276378632 0.996612012386322 -0.0030749998986721039
vn 0.081918999552726746 0.99594599008560181 0.037158001214265823
vn 0.055647000670433044 0.99744802713394165 0.044734001159667969
vn 0.074435003101825714 0.99645602703094482 0.039168998599052429
vn 0.062963001430034637 0.99728602170944214 0.038171000778675079
vn 0.026273999363183975 0.99950897693634033 0.017066000029444695
vn 0.023398999124765396 0.99972599744796753 -0.001053999993018806
vn -0.042812999337911606 0.998412013053894 0.036610998213291168
vn -0.035190999507904053 0.9960939884185791 0.0809829980134964
vn -0.0049789999611675739 0.99857598543167114 0.0531110018491745
vn -0.052104000002145767 0.99382901191711426 0.097921997308731079
vn -0.054852001368999481 0.99620097875595093 0.067644000053405762
vn -0.069099001586437225 0.99452501535415649 0.078386999666690826
vn 0.017596000805497169 0.99981898069381714 0.0072409999556839466
vn -0.015882000327110291 0.99812799692153931 0.059053998440504074
vn 0.0031389999203383923 0.99735498428344727 0.072619996964931488
vn 0.0090250000357627869 0.99871498346328735 0.049858998507261276
vn 0.026740999892354012 0.99874699115753174 0.042296998202800751
vn 0.037420999258756638 0.99623602628707886 0.078193999826908112
vn 0.045069999992847443 0.99796402454376221 0.045131001621484756
vn 0.043049998581409454 0.999055027961731 0.0058929999358952045
vn 0.043051000684499741 0.99905598163604736 0.0058929999358952045
vn 0.0066470000892877579 0.9972730278968811 0.073495998978614807
vn 0.0079920003190636635 0.99504297971725464 0.099122002720832825
vn 0.024119000881910324 0.99639302492141724 0.081359997391700745
vn 0.064638003706932068 0.99755901098251343 0.026433000341057777
vn 0.048776000738143921 0.99791502952575684 0.042272999882698059
vn 0.024682000279426575 0.99916398525238037 0.032590001821517944
vn 0.037480998784303665 0.99703800678253174 0.067153997719287872
vn 0.030208999291062355 0.99673300981521606 0.074905000627040863
vn 0.0299529992043972 0.99673998355865479 0.074919000267982483
f 1/1/1 2/2/2 3/3/3
f 4/4/4 5/5/5 6/6/6
f 7/7/7 8/8/8 9/9/9
f 7/7/7 10/10/10 8/8/8
f 10/10/10 11/11/11 8/8/8
f 12/12/12 13/13/13 14/14/14
f 15/15/15 16/16/16 17/17/17
f 2/2/2 16/16/16 3/3/3
f 2/2/2 17/17/17 16/16/16
f 18/18/18 3/3/3 19/19/19
f 20/20/20 21/21/21 22/22/22
f 20/20/20 23/23/23 21/21/21
f 24/24/24 23/23/23 20/20/20
f 20/20/20 22/22/22 25/25/25
f 22/22/22 19/19/19 3/3/3
f 22/22/22 21/21/21 19/19/19
f 22/22/22 3/3/3 25/25/25
f 12/12/12 9/9/9 13/13/13
f 12/12/12 7/7/7 9/9/9
f 16/16/16 13/13/13 25/25/25
f 26/26/26 25/25/25 27/27/27
f 25/25/25 26/26/26 20/20/20
f 26/26/26 27/27/27 28/28/28
f 27/27/27 25/25/25 13/13/13
f 3/3/3 16/16/16 25/25/25
f 27/27/27 13/13/13 28/28/28
f 29/29/29 20/20/20 26/26/26
f 29/29/29 30/30/30 20/20/20
f 15/15/15 13/13/13 16/16/16
f 15/15/15 14/14/14 13/13/13
f 31/31/31 20/20/20 30/30/30
f 31/31/31 24/24/24 20/20/20
f 31/31/31 32/32/32 24/24/24
f 33/33/33 29/29/29 26/26/26
f 34/34/34 26/26/26 35/35/35
f 34/34/34 33/33/33 26/26/26
f 36/36/36 9/9/9 8/8/8
f 37/37/37 28/28/28 38/38/38
f 36/36/36 28/28/28 9/9/9
f 36/36/36 38/38/38 28/28/28
f 39/39/39 28/28/28 37/37/37
f 28/28/28 13/13/13 9/9/9
f 40/40/40 28/28/28 39/39/39
f 40/40/40 26/26/26 28/28/28
f 41/41/41 26/26/26 40/40/40
f 41/41/41 35/35/35 26/26/26
f 5/5/5 3/3/3 18/18/18
f 5/5/5 1/1/1 3/3/3
f 5/5/5 4/4/4 1/1/1
