mtllib m30320.mtl
usemtl material0
v 512 15.696640968322754 -873.136962890625
v 528.9007568359375 15.40507984161377 -891.92230224609375
v 512 17.015327453613281 -891.03533935546875
v 528.6865234375 15.599980354309082 -896
v 512 17.097911834716797 -892.9705810546875
v 512 17.227188110351562 -896
v 560.685546875 15.52604866027832 -896
v 560.811279296875 15.40785026550293 -893.60748291015625
v 532.56982421875 15.596762657165527 -896
v 562.96405029296875 15.539135932922363 -896
v 592.71728515625 14.534849166870117 -895.28936767578125
v 592.68011474609375 14.595332145690918 -896
v 562.4901123046875 14.285375595092773 -861.69305419921875
v 530.5819091796875 14.731814384460449 -860.00958251953125
v 594.39398193359375 12.991484642028809 -863.3734130859375
v 564.17010498046875 13.391111373901367 -829.779541015625
v 624.67889404296875 14.469815254211426 -896
v 626.3084716796875 13.777817726135254 -865.06146240234375
v 623.7508544921875 14.448107719421387 -896
v 606.1749267578125 14.516613006591797 -896
v 640 14.683135986328125 -896
v 640 14.31995964050293 -880.2781982421875
v 627.98602294921875 12.402116775512695 -833.14617896080017
v 596.07568359375 12.433638572692871 -831.46112102270126
v 512 15.4276123046875 -859.03070068359375
v 512 15.30299186706543 -846.33758544921875
v 532.2645263671875 14.354630470275879 -828.09796094894409
v 512 14.042553901672363 -805.57501220703125
v 533.93914794921875 12.386354446411133 -796.18048095703125
v 512 13.419778823852539 -795.025390625
v 512 14.786208152770996 -827.029296875
v 565.850830078125 12.636679649353027 -797.86651611328125
v 597.75555419921875 11.504894256591797 -799.5474853515625
v 629.66436767578125 11.19017505645752 -801.23150634765625
v 512 12.264596939086914 -768
v 512 12.329645156860352 -771.7957763671875
v 535.42413330078125 11.878982543945313 -768
v 512 12.523045539855957 -775.9169921875
v 538.978515625 11.903415679931641 -768
v 567.42144775390625 11.48532772064209 -768
v 599.419677734375 11.260777473449707 -768
v 599.03485107421875 11.274547576904297 -768
v 631.35382080078125 12.148299217224121 -769.32476806640625
v 640 12.151865959167481 -833.77972400188446
v 640 11.377310752868652 -812.7188720703125
v 640 13.648933410644531 -865.7840576171875
v 640 12.829453468322754 -846.49859619140625
v 640 11.148870468139648 -801.77716064453125
v 640 10.948610305786133 -791.9306640625
v 606.31219482421875 11.449709892272949 -768
v 630.16168212890625 12.025271415710449 -768
v 640 11.766970634460449 -768
v 631.424072265625 12.212480545043945 -768
v 640 11.719223022460938 -768.9324951171875
v 640 11.675840377807617 -769.77978515625
vt 0.79090201854705811 0.00750201940536499
vt 0.93682098388671875 0.12911498546600342
vt 0.92568397521972656 0.0018129944801330566
vt 0.96741998195648193 0.1262969970703125
vt 0.94023299217224121 0.0012429952621459961
vt 0.96300697326660156 0.00035101175308227539
vt 0.97687000036239624 0.36663997173309326
vt 0.95891499519348145 0.36829400062561035
vt 0.96856898069381714 0.15546399354934692
vt 0.97754901647567749 0.38375401496887207
vt 0.98039001226425171 0.60758399963378906
vt 0.98573601245880127 0.60709500312805176
vt 0.71935498714447021 0.39018601179122925
vt 0.69755202531814575 0.15097498893737793
vt 0.74088197946548462 0.62956199049949646
vt 0.48004099726676941 0.41206401586532593
vt 0.99508297443389893 0.84744399785995483
vt 0.76300901174545288 0.86879099905490875
vt 0.9948040246963501 0.84047199785709381
vt 0.98966699838638306 0.70845699310302734
vt 0.99950700998306274 0.96254099905490875
vt 0.88130301237106323 0.9672669991850853
vt 0.52354300022125244 0.89055299758911133
vt 0.50172901153564453 0.65134900808334351
vt 0.68492799997329712 0.011578023433685303
vt 0.58958101272583008 0.015211999416351318
vt 0.45832100510597229 0.17275899648666382
vt 0.2832610011100769 0.027073979377746582
vt 0.21862499415874481 0.19473201036453247
vt 0.20388500392436981 0.030194997787475586
vt 0.44450199604034424 0.020816028118133545
vt 0.24075600504875183 0.43392401933670044
vt 0.26240798830986023 0.67323499917984009
vt 0.28424599766731262 0.91243600100278854
vt 0.000493000028654933 0.038255989551544189
vt 0.029216000810265541 0.037033021450042725
vt 0.0073689999990165234 0.21421897411346436
vt 0.060203999280929565 0.035811007022857666
vt 0.0084229996427893639 0.24091500043869019
vt 0.016730999574065208 0.45457500219345093
vt 0.025910999625921249 0.69472599029541016
vt 0.02580299973487854 0.69183400273323059
vt 0.044959999620914459 0.93425299972295761
vt 0.53182500600814819 0.98062399961054325
vt 0.37352699041366577 0.986748999916017
vt 0.77231699228286743 0.971433000639081
vt 0.62732797861099243 0.97696799971163273
vt 0.29140698909759521 0.98990400042384863
vt 0.21743600070476532 0.9928290001116693
vt 0.027888000011444092 0.74651700258255
vt 0.034651000052690506 0.92571199685335159
vt 0.037576999515295029 0.99964900000486523
vt 0.03505999967455864 0.93529599905014038
vt 0.044590998440980911 0.99938900000415742
vt 0.050964001566171646 0.99915300001157448
vn 0.052498999983072281 0.99811601638793945 0.031741000711917877
vn 0.043900001794099808 0.99818497896194458 0.041221000254154205
vn 0.097714997828006744 0.99350899457931519 0.058240000158548355
vn 0.050627000629901886 0.99770200252532959 0.0450269989669323
vn 0.096969000995159149 0.99438297748565674 0.042433999478816986
vn 0.096968002617359161 0.99438297748565674 0.042433999478816986
vn -0.0014750000555068255 0.99877697229385376 0.049421001225709915
vn 0.011594999581575394 0.99887001514434814 0.04609299823641777
vn 0.0020620001014322042 0.99880599975585938 0.048806998878717422
vn 0.021656999364495277 0.99700802564620972 0.074196003377437592
vn 0.019341999664902687 0.99777001142501831 0.063888996839523315
vn 0.019166000187397003 0.99629902839660645 0.0837939977645874
vn 0.0240509994328022 0.9992939829826355 0.028882000595331192
vn 0.028620000928640366 0.99944597482681274 0.016964999958872795
vn 0.016075000166893005 0.99935901165008545 0.03199400007724762
vn 0.029947999864816666 0.99928897619247437 0.022894000634551048
vn -0.018805000931024551 0.999550998210907 0.023346999660134315
vn -0.00875800009816885 0.999305009841919 0.036237001419067383
vn -0.01610100083053112 0.99941599369049072 0.030131999403238297
vn 0.0039260000921785831 0.99880498647689819 0.048709999769926071
vn -0.013918000273406506 0.99963599443435669 0.0230919998139143
vn -0.0079129999503493309 0.99956297874450684 0.028493000194430351
vn 0.0082930000498890877 0.99923199415206909 0.03829599916934967
vn 0.01921599917113781 0.99950999021530151 0.024693999439477921
vn 0.038166001439094543 0.9991689920425415 0.014279000461101532
vn 0.033872000873088837 0.99932301044464111 0.014328000135719776
vn 0.027763999998569489 0.99918502569198608 0.029284000396728516
vn 0.043777000159025192 0.9976230263710022 0.053210001438856125
vn 0.017899999395012856 0.998924970626831 0.0427590012550354
vn 0.049752000719308853 0.99737298488616943 0.052648000419139862
vn 0.022907000035047531 0.99926197528839111 0.030820999294519424
vn 0.0187740009278059 0.99941998720169067 0.02842400036752224
vn 0.017890000715851784 0.999767005443573 0.012066000141203404
vn 0.014587000012397766 0.99987399578094482 0.0063169999048113823
vn 0.016457000747323036 0.99971801042556763 0.017131999135017395
vn 0.024167999625205994 0.99941802024841309 0.024067999795079231
vn 0.0044010002166032791 0.99983197450637817 0.017768999561667442
vn 0.049460001289844513 0.99767798185348511 0.046819001436233521
vn -0.0011180000146850944 0.99972200393676758 0.023538999259471893
vn 0.010540000163018704 0.999222993850708 0.037966001778841019
vn 0.0031210000161081553 0.999966025352478 0.0075730001553893089
vn 0.028976000845432281 0.99949002265930176 0.013389999978244305
vn 0.002245000097900629 0.99980002641677856 -0.019858000800013542
vn 0.023188000544905663 0.99870699644088745 0.045235000550746918
vn 0.018633000552654266 0.99927997589111328 0.033043000847101212
vn 0.011746999807655811 0.9989439845085144 0.044410001486539841
vn 0.014433000236749649 0.99888497591018677 0.044955000281333923
vn 0.0050840000621974468 0.9997749924659729 0.020611999556422234
vn 0.040093999356031418 0.99902302026748657 -0.018606999889016151
vn -0.027343999594449997 0.99957400560379028 0.010222000069916248
vn -0.056850001215934753 0.99752098321914673 0.041478000581264496
vn 0.051812000572681427 0.99734997749328613 -0.051068000495433807
vn -0.044123999774456024 0.99796599149703979 -0.046009998768568039
vn 0.051812000572681427 0.99734997749328613 -0.051066998392343521
vn 0.052331998944282532 0.99776297807693481 -0.041599001735448837
f 1/1/1 2/2/2 3/3/3
f 4/4/4 3/3/3 2/2/2
f 4/4/4 5/5/5 3/3/3
f 5/5/5 4/4/4 6/6/6
f 7/7/7 2/2/2 8/8/8
f 7/7/7 9/9/9 2/2/2
f 4/4/4 2/2/2 9/9/9
f 10/10/10 11/11/11 12/12/12
f 10/10/10 8/8/8 11/11/11
f 7/7/7 8/8/8 10/10/10
f 8/8/8 2/2/2 13/13/13
f 13/13/13 2/2/2 14/14/14
f 8/8/8 13/13/13 11/11/11
f 11/11/11 13/13/13 15/15/15
f 13/13/13 14/14/14 16/16/16
f 17/17/17 15/15/15 18/18/18
f 17/17/17 19/19/19 15/15/15
f 15/15/15 20/20/20 11/11/11
f 15/15/15 19/19/19 20/20/20
f 21/21/21 18/18/18 22/22/22
f 21/21/21 17/17/17 18/18/18
f 18/18/18 15/15/15 23/23/23
f 12/12/12 11/11/11 20/20/20
f 15/15/15 13/13/13 24/24/24
f 25/25/25 2/2/2 1/1/1
f 25/25/25 14/14/14 2/2/2
f 14/14/14 26/26/26 27/27/27
f 14/14/14 25/25/25 26/26/26
f 28/28/28 29/29/29 27/27/27
f 28/28/28 30/30/30 29/29/29
f 28/28/28 27/27/27 31/31/31
f 27/27/27 32/32/32 16/16/16
f 16/16/16 24/24/24 13/13/13
f 24/24/24 23/23/23 15/15/15
f 16/16/16 33/33/33 24/24/24
f 14/14/14 27/27/27 16/16/16
f 24/24/24 34/34/34 23/23/23
f 35/35/35 29/29/29 36/36/36
f 35/35/35 37/37/37 29/29/29
f 38/38/38 29/29/29 30/30/30
f 38/38/38 36/36/36 29/29/29
f 29/29/29 39/39/39 32/32/32
f 29/29/29 37/37/37 39/39/39
f 40/40/40 32/32/32 39/39/39
f 32/32/32 33/33/33 16/16/16
f 33/33/33 34/34/34 24/24/24
f 32/32/32 41/41/41 33/33/33
f 32/32/32 42/42/42 41/41/41
f 27/27/27 29/29/29 32/32/32
f 43/43/43 34/34/34 33/33/33
f 44/44/44 34/34/34 45/45/45
f 44/44/44 23/23/23 34/34/34
f 26/26/26 31/31/31 27/27/27
f 46/46/46 23/23/23 47/47/47
f 46/46/46 18/18/18 23/23/23
f 44/44/44 47/47/47 23/23/23
f 48/48/48 34/34/34 49/49/49
f 48/48/48 45/45/45 34/34/34
f 46/46/46 22/22/22 18/18/18
f 50/50/50 51/51/51 43/43/43
f 52/52/52 43/43/43 53/53/53
f 52/52/52 54/54/54 43/43/43
f 54/54/54 55/55/55 43/43/43
f 43/43/43 49/49/49 34/34/34
f 43/43/43 55/55/55 49/49/49
f 53/53/53 43/43/43 51/51/51
f 33/33/33 50/50/50 43/43/43
f 33/33/33 41/41/41 50/50/50
f 42/42/42 32/32/32 40/40/40
