mtllib m30331.mtl
usemtl material0
v 896 15.351198196411133 -896
v 896 15.282422065734863 -894.55328369140625
v 897.30157470703125 15.253209114074707 -896
v 912.6781005859375 15.235071182250977 -896
v 913.511962890625 15.535704612731934 -880.2342529296875
v 927.69390869140625 14.163681983947754 -896
v 896 15.574051856994629 -879.30963134765625
v 896 15.22642707824707 -865.59228515625
v 915.1922607421875 14.721029281616211 -848.32098388671875
v 976.66546630859375 13.088895797729492 -896
v 963.52862501144409 12.648041725158691 -896
v 977.318115234375 12.672449111938477 -883.593994140625
v 945.4102783203125 13.188231468200684 -881.91070556640625
v 944.6651611328125 12.934226036071777 -896
v 896 12.969006538391113 -835.17877197265625
v 916.8665771484375 12.742989540100098 -816.4034423828125
v 896 13.750452995300293 -847.30413818359375
v 947.105224609375 15.192832946777344 -850.00787353515625
v 1024 13.699718475341797 -896
v 1024 13.472636222839356 -889.3692626953125
v 1024 13.359354972839356 -886.0615234375
v 980.69671630859375 14.505128860473633 -819.78021240234375
v 1024 13.865038871765137 -867.91204833984375
v 896 11.860392570495606 -815.29852294921875
v 948.79156494140625 15.534083366394043 -818.098876953125
v 950.46832275390625 14.031806945800781 -786.18304443359375
v 918.5438232421875 11.32909107208252 -784.48797607421875
v 896 11.371958732604981 -804.77081298828125
v 1024 12.882270812988281 -822.06146240234375
v 1024 12.470780372619629 -786.1710205078125
v 1024 12.409236907958984 -780.80316162109375
v 896 10.703405380249023 -768
v 903.70819091796875 10.670854568481445 -768
v 896 10.995588302612305 -774.6827392578125
v 896 11.372246742248535 -783.29766845703125
v 934.10504150390625 11.975415229797363 -768
v 919.4111328125 10.761676788330078 -768
v 970.67840576171875 14.00282096862793 -768
v 951.4188232421875 12.290070533752441 -768
v 983.42791748046875 14.082023620605469 -768
v 1024 12.333720207214356 -768
vt 0.99760597944259644 0.0014389753341674805
vt 0.98634099960327148 0.0014799833297729492
vt 0.99760597944259644 0.011591970920562744
vt 0.99773097038269043 0.13118898868560791
vt 0.875091016292572 0.13779997825622559
vt 0.99802500009536743 0.24827802181243897
vt 0.86775499582290649 0.0016009807586669922
vt 0.76102900505065918 0.0017210245132446289
vt 0.62680602073669434 0.15114998817443848
vt 0.99874502420425415 0.62959399819374084
vt 0.99856299161911011 0.5273590087890625
vt 0.90220099687576294 0.6347309947013855
vt 0.88876402378082275 0.3865399956703186
vt 0.99836099147796631 0.380623996257782
vt 0.52381598949432373 0.0017809867858886719
vt 0.37808701395988464 0.16436201333999634
vt 0.61832201480865479 0.0017139911651611328
vt 0.63972502946853638 0.39940398931503296
vt 0.99913597106933594 0.9977889999281615
vt 0.94753199815750122 0.99782099993899465
vt 0.92100101709365845 0.997878999914974
vt 0.40524598956108093 0.66129499673843384
vt 0.77978098392486572 0.9979530000127852
vt 0.36894899606704712 0.0019479990005493164
vt 0.39188098907470703 0.41358602046966553
vt 0.14334399998188019 0.42618298530578613
vt 0.12962700426578522 0.1777769923210144
vt 0.28697699308395386 0.00206601619720459
vt 0.42307698726654053 0.99833600001875311
vt 0.14390499889850617 0.99852999998256564
vt 0.10180599987506867 0.99856099998578429
vt 0.00086400000145658851 0.0027539730072021484
vt 0.0013699999544769526 0.062288999557495117
vt 0.052891001105308533 0.0026199817657470703
vt 0.11996100097894669 0.0024549961090087891
vt 0.0015640000347048044 0.29910498857498169
vt 0.0013040000339969993 0.18442797660827637
vt 0.0020910000894218683 0.58353200554847717
vt 0.0016629999736323953 0.43379199504852295
vt 0.0022040000185370445 0.68269899487495422
vt 0.0022229999303817749 0.99855799996294081
vn 0.0749880000948906 0.99606001377105713 0.047352001070976257
vn 0.018451999872922897 0.99982297420501709 -0.0035880000796169043
vn 0.020911000669002533 0.999779999256134 -0.0013749999925494194
vn 0.035027999430894852 0.99916797876358032 -0.020905999466776848
vn 0.037742000073194504 0.99928700923919678 0.0013599999947473407
vn 0.07194799929857254 0.99716401100158691 -0.022058000788092613
vn 0.0023930000606924295 0.99998998641967773 0.0038499999791383743
vn -0.0097260000184178352 0.99915099143981934 0.040045000612735748
vn -0.012868000194430351 0.99912101030349731 0.039905998855829239
vn -0.023547999560832977 0.99911797046661377 0.034777000546455383
vn 0.0038079998921602964 0.99997401237487793 -0.0062000001780688763
vn -0.0018990000244230032 0.99996501207351685 -0.0081850001588463783
vn 0.032145000994205475 0.99900001287460327 -0.031059000641107559
vn 0.044665001332759857 0.99879401922225952 -0.020369000732898712
vn -0.044936999678611755 0.99706798791885376 0.061944998800754547
vn -0.0538799986243248 0.99748200178146362 0.046115998178720474
vn -0.04656900092959404 0.99631601572036743 0.072013996541500092
vn 0.00078499998198822141 0.99967002868652344 -0.025678999722003937
vn -0.012896000407636166 0.999330997467041 0.034223999828100204
vn -0.012896000407636166 0.999330997467041 0.034223999828100204
vn -0.014488999731838703 0.99988597631454468 0.0042340001091361046
vn 0.026517000049352646 0.99964499473571777 0.0026279999874532223
vn -0.0034050000831484795 0.99985998868942261 -0.016359999775886536
vn -0.039519000798463821 0.99792599678039551 0.050808999687433243
vn -0.026404999196529388 0.99946099519729614 0.019531000405550003
vn -0.041659001260995865 0.99789899587631226 0.049626000225543976
vn -0.0459510013461113 0.9982450008392334 0.037358999252319336
vn -0.028653999790549278 0.99901199340820312 0.033959999680519104
vn 0.038318000733852386 0.999127984046936 0.016599999740719795
vn 0.038049999624490738 0.999210000038147 0.011455999687314034
vn 0.041717000305652618 0.999101996421814 0.00737700005993247
vn 0.0042190002277493477 0.99903702735900879 0.043680001050233841
vn 0.0015500000445172191 0.9991459846496582 0.041283000260591507
vn 0.0042190002277493477 0.99903702735900879 0.043680001050233841
vn 0.0031059999018907547 0.99974000453948975 0.022570999339222908
vn -0.0651869997382164 0.99641001224517822 0.05402500182390213
vn -0.045294001698493958 0.99829798936843872 0.036738000810146332
vn -0.025443000718951225 0.9992300271987915 0.029872000217437744
vn -0.054191999137401581 0.99370801448822021 0.09801899641752243
vn 0.019253000617027283 0.99978899955749512 0.0071539999917149544
vn 0.043051000684499741 0.999055027961731 0.0058929999358952045
f 1/1/1 2/2/2 3/3/3
f 4/4/4 5/5/5 6/6/6
f 7/7/7 3/3/3 2/2/2
f 7/7/7 5/5/5 3/3/3
f 5/5/5 4/4/4 3/3/3
f 5/5/5 8/8/8 9/9/9
f 5/5/5 7/7/7 8/8/8
f 10/10/10 11/11/11 12/12/12
f 6/6/6 13/13/13 14/14/14
f 6/6/6 5/5/5 13/13/13
f 9/9/9 15/15/15 16/16/16
f 9/9/9 17/17/17 15/15/15
f 8/8/8 17/17/17 9/9/9
f 13/13/13 9/9/9 18/18/18
f 14/14/14 12/12/12 11/11/11
f 14/14/14 13/13/13 12/12/12
f 19/19/19 10/10/10 20/20/20
f 20/20/20 12/12/12 21/21/21
f 20/20/20 10/10/10 12/12/12
f 13/13/13 18/18/18 12/12/12
f 13/13/13 5/5/5 9/9/9
f 21/21/21 22/22/22 23/23/23
f 21/21/21 12/12/12 22/22/22
f 15/15/15 24/24/24 16/16/16
f 22/22/22 18/18/18 25/25/25
f 18/18/18 22/22/22 12/12/12
f 16/16/16 26/26/26 25/25/25
f 25/25/25 18/18/18 16/16/16
f 18/18/18 9/9/9 16/16/16
f 24/24/24 27/27/27 16/16/16
f 24/24/24 28/28/28 27/27/27
f 29/29/29 23/23/23 22/22/22
f 29/29/29 22/22/22 30/30/30
f 30/30/30 22/22/22 31/31/31
f 25/25/25 26/26/26 22/22/22
f 32/32/32 33/33/33 34/34/34
f 34/34/34 27/27/27 35/35/35
f 34/34/34 33/33/33 27/27/27
f 27/27/27 36/36/36 26/26/26
f 27/27/27 37/37/37 36/36/36
f 38/38/38 26/26/26 39/39/39
f 40/40/40 26/26/26 38/38/38
f 40/40/40 22/22/22 26/26/26
f 39/39/39 26/26/26 36/36/36
f 16/16/16 27/27/27 26/26/26
f 41/41/41 22/22/22 40/40/40
f 41/41/41 31/31/31 22/22/22
f 33/33/33 37/37/37 27/27/27
f 28/28/28 35/35/35 27/27/27
