mtllib m3101.mtl
usemtl material0
v 1336.9267578125 -0.71282702684402466 -256
v 1397.281494140625 8.4482135772705078 -201.77540588378906
v 1394.403076171875 5.567018985748291 -256
v 1446.0584716796875 4.1912941932678223 -256
v 1324.46826171875 -1.8587089776992798 -256
v 1333.4010009765625 -2.7791659832000732 -198.36592102050781
v 1330.363525390625 -1.8575299978256226 -256
v 1280 -2.8349759578704834 -195.5457763671875
v 1280 -2.6584620475769043 -206.57670593261719
v 1336.766357421875 -3.4787271022796631 -134.5433349609375
v 1280 -2.9440178871154785 -185.61981201171875
v 1461.10595703125 9.1155185699462891 -205.14794921875
v 1400.6418461799622 6.8043360710144043 -137.94931030273438
v 1280 -0.93322998285293579 -256
v 1280 -4.1043457984924316 -131.54365491867065
v 1340.11572265625 -7.1813850402832031 -70.710380554199219
v 1280 -4.49727201461792 -124.81797003746033
v 1403.9791259765625 0.85856002569198608 -74.108390808105469
v 1458.3953857421875 4.3804478645324707 -256
v 1524.88427734375 1.1416599750518799 -208.49026489257813
v 1528.25341796875 1.1691349744796753 -144.67010498046875
v 1506.8477783203125 4.4350647926330566 -256
v 1522.3836669921875 2.4752459526062012 -256
v 1536 1.885342001914978 -244.24760437011719
v 1536 0.93513298034667969 -209.07658386230469
v 1536 2.2028539180755615 -256
v 1536 0.158037006855011 -198.48133850097656
v 1467.8016357421875 1.1616159677505493 -77.4796371459961
v 1464.4654541015625 7.3090472221374512 -141.32127380371094
v 1536 0.44410601258277893 -145.07685852050781
v 1536 -0.19208499789237976 -137.68928527832031
v 1531.5938720703125 -4.1667890548706055 -80.831382751464844
v 1280 -6.79807186126709 -67.537063598632812
v 1343.478515625 -8.3603963851928711 -6.8862686157226562
v 1280 -6.8618741035461426 -64.009521484375
v 1471.1287841796875 -6.6632561683654785 -13.632461547851563
v 1534.931884765625 -9.93506145477295 -16.991378784179688
v 1407.3139650225639 -5.5669269561767578 -10.266059875488281
v 1536 -4.6129899024963379 -81.062637329101562
v 1536 -4.6684269905090332 -76.863052368164062
v 1280 -7.0597929954528809 0
v 1337.282958984375 -8.2954254150390625 0
v 1280 -7.02488899230957 -3.5002365112304688
v 1280 -7.024507999420166 -3.5383834838867188
v 1343.8436279296875 -8.0555734634399414 0
v 1458.8626708984375 -7.0689740180969238 0
v 1407.85314899683 -6.0648961067199707 0
v 1351.1322021484375 -8.3948812484741211 0
v 1471.8427734375 -7.6864891052246094 0
v 1536 -9.96661376953125 -16.711685180664062
v 1536 -9.9669008255004883 -16.030189514160156
v 1536 -9.9664716720581055 -17.047683715820312
v 1519.643798828125 -10.319332122802734 0
v 1535.82568359375 -10.504659652709961 0
v 1536 -10.504593849182129 0
v 1519.643798828125 -10.319332122802734 0
vt 0.21709200739860535 0.026892006397247314
vt 0.45336198806762695 0.22526001930236816
vt 0.43545499444007874 0.020588994026184082
vt 0.6305689811706543 0.013612985610961914
vt 0.1696619987487793 0.028149008750915527
vt 0.2087630033493042 0.24503797292709351
vt 0.19192899763584137 0.027599990367889404
vt 0.0073219998739659786 0.26065802574157715
vt 0.0062959999777376652 0.21898800134658814
vt 0.22759300470352173 0.48579299449920654
vt 0.0082620000466704369 0.29815202951431274
vt 0.69397300481796265 0.20459401607513428
vt 0.47158899903297424 0.466139018535614
vt 0.0016609999584034085 0.032195985317230225
vt 0.013364999555051327 0.50245100259780884
vt 0.24445800483226776 0.72712001204490662
vt 0.013891000300645828 0.52790001034736633
vt 0.48726099729537964 0.70821401476860046
vt 0.67716199159622192 0.012090027332305908
vt 0.93615502119064331 0.18261998891830444
vt 0.95410400629043579 0.4290500283241272
vt 0.86012399196624756 0.0058709979057312012
vt 0.91924399137496948 0.0035920143127441406
vt 0.97250497341156006 0.045861005783081055
vt 0.98113799095153809 0.18507200479507446
vt 0.970658004283905 0.0014799833297729492
vt 0.97948199510574341 0.22517800331115723
vt 0.731544017791748 0.68854901194572449
vt 0.71228998899459839 0.44665902853012085
vt 0.98346400260925293 0.42691898345947266
vt 0.98427200317382812 0.45490902662277222
vt 0.97358798980712891 0.67063701152801514
vt 0.017585000023245811 0.74338701367378235
vt 0.26173600554466248 0.96802299842238426
vt 0.017837999388575554 0.75671499967575073
vt 0.74717801809310913 0.93144100159406662
vt 0.99272298812866211 0.91239500045776367
vt 0.50285500288009644 0.95047299936413765
vt 0.99029999971389771 0.66942700743675232
vt 0.99063998460769653 0.68529200553894043
vt 0.022375000640749931 0.998520000022836
vt 0.23876799643039703 0.9944330002181232
vt 0.022122999653220177 0.98529700003564358
vt 0.022120000794529915 0.98515299987047911
vt 0.26357001066207886 0.99403900001198053
vt 0.69860398769378662 0.98442499991506338
vt 0.50589799880981445 0.989241000264883
vt 0.29113200306892395 0.9934990000911057
vt 0.75136101245880127 0.98299399949610233
vt 0.99678498506546021 0.91335400193929672
vt 0.99684697389602661 0.91592799872159958
vt 0.996753990650177 0.91208499670028687
vt 0.93220198154449463 0.97920599952340126
vt 0.99334502220153809 0.97943899966776371
vt 0.99833899736404419 0.97650999948382378
vt 0.93220198154449463 0.97920599952340126
vn -0.15725000202655792 0.98752498626708984 0.0081890001893043518
vn -0.0788469985127449 0.99686801433563232 -0.0060330000706017017
vn -0.04341299831867218 0.99776899814605713 -0.050710998475551605
vn -0.0040930001996457577 0.99663001298904419 -0.0819230005145073
vn 0.0054040001705288887 0.99976402521133423 0.021041000261902809
vn -0.0845239982008934 0.99622702598571777 0.01969200000166893
vn -0.083517998456954956 0.99629902839660645 0.020332999527454376
vn -0.00033700000494718552 0.99990999698638916 0.013407999649643898
vn 0.00469700014218688 0.99978101253509521 0.020403999835252762
vn -0.077338002622127533 0.9960319995880127 0.044034998863935471
vn -0.0029780000913888216 0.99990099668502808 0.013776999898254871
vn 0.037422999739646912 0.99903297424316406 -0.0230919998139143
vn -0.081836000084877014 0.99470502138137817 0.06216299906373024
vn 0.020795000717043877 0.99917501211166382 0.034878998994827271
vn -0.00887100026011467 0.99913901090621948 0.040516998618841171
vn -0.048648998141288757 0.99762898683547974 0.048689000308513641
vn -0.0035459999926388264 0.99856299161911011 0.0534759983420372
vn -0.061131998896598816 0.99332702159881592 0.097802996635437012
vn -0.0084359999746084213 0.99569898843765259 -0.092263996601104736
vn 0.081702999770641327 0.99647897481918335 0.018827000632882118
vn 0.10102199763059616 0.99406099319458008 0.04046899825334549
vn 0.0916609987616539 0.995747983455658 -0.0091989999637007713
vn 0.0744829997420311 0.99693202972412109 0.024063000455498695
vn 0.019992999732494354 0.99943500757217407 0.0270019993185997
vn 0.021153999492526054 0.99855899810791016 0.049320001155138016
vn 0.019992999732494354 0.99943500757217407 0.0270019993185997
vn 0.074202001094818115 0.99712097644805908 0.015584000386297703
vn 0.040123000741004944 0.99395102262496948 0.10223700106143951
vn 0.045393001288175583 0.99728202819824219 0.05804000049829483
vn 0.095129996538162231 0.99471300840377808 0.038676001131534576
vn 0.10256700217723846 0.99154198169708252 0.079526998102664948
vn 0.088361002504825592 0.99330300092697144 0.074442997574806213
vn 0.0078910002484917641 0.99955600500106812 0.028741000220179558
vn -0.00827999971807003 0.99995702505111694 0.0042229997925460339
vn 0.011025000363588333 0.99984198808670044 0.013976999558508396
vn 0.039406001567840576 0.99514400959014893 0.090191997587680817
vn 0.038470000028610229 0.99714899063110352 0.064910002052783966
vn -0.020067000761628151 0.99767100811004639 0.06518399715423584
vn 0.10304799675941467 0.99360001087188721 0.046268001198768616
vn 0.051984000951051712 0.99631500244140625 0.068226002156734467
vn 0.021563999354839325 0.99971801042556763 0.0099689997732639313
vn 0.0060629998333752155 0.99997401237487793 -0.0039789997972548008
vn 0.021564999595284462 0.99971801042556763 0.0099710002541542053
vn 0.021379999816417694 0.99975097179412842 0.006453000009059906
vn 0.006372000090777874 0.998986005783081 -0.044557999819517136
vn 0.027080999687314034 0.998170018196106 0.0540740005671978
vn -0.0096699995920062065 0.99875402450561523 0.04895399883389473
vn -0.020601000636816025 0.99939799308776855 0.027901999652385712
vn 0.05125800147652626 0.99608099460601807 0.07208000123500824
vn 0.029417000710964203 0.99956697225570679 0.00042200001189485192
vn 0.0075739999301731586 0.99966597557067871 0.024697000160813332
vn 0.031775001436471939 0.998445987701416 0.045777000486850739
vn 0.011446000076830387 0.99939298629760742 0.032900001853704453
vn 0.0053360001184046268 0.99943399429321289 0.033222999423742294
vn -0.00037799999699927866 0.99943798780441284 0.033523000776767731
vn 0.054852999746799469 0.99590402841567993 0.071878001093864441
f 1/1/1 2/2/2 3/3/3
f 3/3/3 2/2/2 4/4/4
f 5/5/5 6/6/6 7/7/7
f 5/5/5 8/8/8 6/6/6
f 5/5/5 9/9/9 8/8/8
f 7/7/7 2/2/2 1/1/1
f 7/7/7 6/6/6 2/2/2
f 8/8/8 10/10/10 6/6/6
f 8/8/8 11/11/11 10/10/10
f 12/12/12 2/2/2 13/13/13
f 9/9/9 5/5/5 14/14/14
f 6/6/6 13/13/13 2/2/2
f 11/11/11 15/15/15 10/10/10
f 15/15/15 16/16/16 10/10/10
f 15/15/15 17/17/17 16/16/16
f 18/18/18 13/13/13 10/10/10
f 13/13/13 6/6/6 10/10/10
f 19/19/19 2/2/2 12/12/12
f 19/19/19 4/4/4 2/2/2
f 20/20/20 12/12/12 21/21/21
f 22/22/22 20/20/20 23/23/23
f 22/22/22 12/12/12 20/20/20
f 24/24/24 20/20/20 25/25/25
f 24/24/24 23/23/23 20/20/20
f 24/24/24 26/26/26 23/23/23
f 25/25/25 20/20/20 27/27/27
f 19/19/19 12/12/12 22/22/22
f 13/13/13 28/28/28 29/29/29
f 12/12/12 29/29/29 21/21/21
f 21/21/21 27/27/27 20/20/20
f 21/21/21 30/30/30 27/27/27
f 30/30/30 21/21/21 31/31/31
f 29/29/29 32/32/32 21/21/21
f 29/29/29 12/12/12 13/13/13
f 33/33/33 34/34/34 16/16/16
f 33/33/33 35/35/35 34/34/34
f 18/18/18 36/36/36 28/28/28
f 33/33/33 16/16/16 17/17/17
f 16/16/16 18/18/18 10/10/10
f 28/28/28 37/37/37 32/32/32
f 16/16/16 38/38/38 18/18/18
f 29/29/29 28/28/28 32/32/32
f 32/32/32 31/31/31 21/21/21
f 32/32/32 39/39/39 31/31/31
f 13/13/13 18/18/18 28/28/28
f 39/39/39 32/32/32 40/40/40
f 41/41/41 42/42/42 43/43/43
f 43/43/43 34/34/34 44/44/44
f 43/43/43 42/42/42 34/34/34
f 35/35/35 44/44/44 34/34/34
f 45/45/45 34/34/34 42/42/42
f 38/38/38 46/46/46 36/36/36
f 38/38/38 47/47/47 46/46/46
f 48/48/48 38/38/38 34/34/34
f 48/48/48 47/47/47 38/38/38
f 38/38/38 16/16/16 34/34/34
f 38/38/38 36/36/36 18/18/18
f 45/45/45 48/48/48 34/34/34
f 49/49/49 36/36/36 46/46/46
f 50/50/50 37/37/37 51/51/51
f 50/50/50 52/52/52 37/37/37
f 28/28/28 36/36/36 37/37/37
f 52/52/52 32/32/32 37/37/37
f 52/52/52 40/40/40 32/32/32
f 53/53/53 54/54/54 37/37/37
f 55/55/55 37/37/37 54/54/54
f 55/55/55 51/51/51 37/37/37
f 49/49/49 37/37/37 36/36/36
f 49/49/49 56/56/56 37/37/37
