mtllib m3131.mtl
usemtl material0
v 1815.40673828125 12.60122013092041 -768
v 1792 8.3317594528198242 -734.60595703125
v 1817.080322265625 9.18985366821289 -735.93328857421875
v 1792 10.494236946105957 -754.65283203125
v 1792 11.934011459350586 -768
v 1845.9390869140625 12.945302963256836 -768
v 1880.916015625 11.86089038848877 -739.3133544921875
v 1879.4149169921875 14.198124885559082 -768
v 1916.6248779296875 14.652004241943359 -768
v 1944.742919921875 12.916499137878418 -742.6875
v 1943.416748046875 14.677854537963867 -768
v 1792 5.36111307144165 -697.6756591796875
v 1820.421875 4.1548080444335938 -672.094482421875
v 1948.0865478515625 8.28574275970459 -678.85003662109375
v 2008.9346923828125 19.831674575805664 -746.10064697265625
v 1984.45751953125 18.935342788696289 -768
v 2048 20.491003036499023 -748.16583251953125
v 2048 17.698762893676758 -710.93560791015625
v 2048 20.403644561767578 -753.8211669921875
v 2007.7764892578125 19.4729061126709 -768
v 2048 20.184625625610352 -768
v 2015.614990234375 9.3468179702758789 -618.42120361328125
v 1884.2550048828125 6.3629651069641113 -675.4727783203125
v 1792 3.779987096786499 -670.59234619140625
v 1823.76806640625 -0.038199998438358307 -608.2589111328125
v 1792 1.546754002571106 -636.85382103919983
v 1887.5950927734375 1.0776959657669067 -611.63323974609375
v 1951.4248046875 2.6694281101226807 -615.00921630859375
v 1890.9423828125 -2.8948400020599365 -547.798583984375
v 1954.765380859375 -2.5174369812011719 -551.170166015625
v 1792 0.25228598713874817 -606.582275390625
v 1792 -1.2434600591659546 -576.04083251953125
v 1827.119873046875 -3.203624963760376 -544.42724609375
v 2048 8.22199535369873 -592.62237548828125
v 2048 7.9877772331237793 -589.27313232421875
v 2048 10.145938873291016 -620.13409423828125
v 1892.8245849609375 -4.2337918281555176 -512
v 1863.1519775390625 -4.3184928894042969 -512
v 1919.5200200080872 -4.1289730072021484 -512
v 1792 -1.9757150411605835 -542.57666015625
v 1828.8309326171875 -3.3389320373535156 -512
v 1792 -2.0391600131988525 -515.244873046875
v 1795.6053466796875 -2.1731901168823242 -512
v 1792 -2.0087659358978271 -528.33843994140625
v 1792 -2.0920710563659668 -512
v 1956.8194580078125 -4.9078798294067383 -512
v 1998.5472412109375 -0.79608798027038574 -512
v 2048 2.3166770935058594 -512
v 2021.1890869140625 1.6708070039749146 -512
vt 0.0327720008790493 0.90594799816608429
vt 0.16174100339412689 0.989847999997437
vt 0.15352299809455872 0.89591000229120255
vt 0.086119003593921661 0.9921980001963675
vt 0.035769000649452209 0.99376199999824166
vt 0.029075000435113907 0.79143199324607849
vt 0.13247300684452057 0.65675601363182068
vt 0.024707000702619553 0.66580700874328613
vt 0.020145000889897346 0.52624601125717163
vt 0.11195100098848343 0.41776800155639648
vt 0.01694599911570549 0.42576497793197632
vt 0.30069398880004883 0.98542100004851818
vt 0.39329099655151367 0.87572000175714493
vt 0.35154598951339722 0.3975750207901001
vt 0.089466996490955353 0.17620998620986939
vt 0.010774999856948853 0.27111697196960449
vt 0.076605997979640961 0.030117988586425781
vt 0.216622993350029 0.025521993637084961
vt 0.055396001785993576 0.03086698055267334
vt 0.00750399986281991 0.18365401029586792
vt 0.0022189998999238014 0.0327489972114563
vt 0.56883502006530762 0.13600701093673706
vt 0.37236601114273071 0.63663101196289062
vt 0.40244001150131226 0.98213399946689606
vt 0.63281100988388062 0.8554379940032959
vt 0.52925002574920654 0.978048000484705
vt 0.612214982509613 0.61647200584411621
vt 0.59149497747421265 0.37744802236557007
vt 0.85167801380157471 0.59617701172828674
vt 0.83131098747253418 0.35728102922439575
vt 0.6428840160369873 0.974388999864459
vt 0.7575640082359314 0.97068700008094311
vt 0.87209302186965942 0.83512699604034424
vt 0.66178202629089355 0.011439979076385498
vt 0.67430198192596436 0.010912001132965088
vt 0.55834901332855225 0.014733016490936279
vt 0.98580199480056763 0.58477500081062317
vt 0.98941099643707275 0.696058988571167
vt 0.98257601261138916 0.484686017036438
vt 0.88310098648071289 0.9667150005698204
vt 0.99350601434707642 0.82483099400997162
vt 0.98561000823974609 0.963527001440525
vt 0.99736100435256958 0.949618998914957
vt 0.93650197982788086 0.96506299823522568
vt 0.997780978679657 0.96314400061964989
vt 0.97820299863815308 0.34476298093795776
vt 0.97187000513076782 0.18734699487686157
vt 0.96488100290298462 0.0013830065727233887
vt 0.96836000680923462 0.10195600986480713
vn -0.020038999617099762 0.99407899379730225 0.10679899901151657
vn -0.029117999598383904 0.99522101879119873 0.093203000724315643
vn -0.029024999588727951 0.99538099765777588 0.09151100367307663
vn -0.028328999876976013 0.99383300542831421 0.10720600187778473
vn -0.028328999876976013 0.99383300542831421 0.10720600187778473
vn -0.03030800074338913 0.99554198980331421 0.0893160030245781
vn -0.026363000273704529 0.99618798494338989 0.083158001303672791
vn -0.025115000084042549 0.99627602100372314 0.082486003637313843
vn -0.00953999999910593 0.99683302640914917 0.078942999243736267
vn -0.056269001215696335 0.99558097124099731 0.075185999274253845
vn -0.050427000969648361 0.9961320161819458 0.071956999599933624
vn -0.024579999968409538 0.99693101644515991 0.074321001768112183
vn -0.020460000261664391 0.99714797735214233 0.072648003697395325
vn -0.0594559982419014 0.99459701776504517 0.085092999041080475
vn -0.048725001513957977 0.997855007648468 0.043715998530387878
vn -0.0844469964504242 0.99498200416564941 0.053663000464439392
vn -0.01537999976426363 0.99948501586914062 0.02817000076174736
vn -0.0182499997317791 0.99656999111175537 0.080720998346805573
vn -0.017689000815153122 0.99972397089004517 -0.015443000011146069
vn -0.020456999540328979 0.99967402219772339 -0.015294999815523624
vn -0.017689000815153122 0.99972397089004517 -0.015441999770700932
vn -0.060412999242544174 0.99485498666763306 0.081330999732017517
vn -0.027969999238848686 0.99596101045608521 0.085318997502326965
vn -0.0098689999431371689 0.99800902605056763 0.062293998897075653
vn -0.0023819999769330025 0.99840199947357178 0.05645500123500824
vn -0.0040560001507401466 0.998199999332428 0.059835001826286316
vn -0.017024999484419823 0.99715501070022583 0.073427997529506683
vn -0.060068000108003616 0.99442797899246216 0.086626000702381134
vn -0.0043890001252293587 0.99881798028945923 0.048402000218629837
vn -0.052368000149726868 0.996275007724762 0.068506002426147461
vn 0.011556999757885933 0.998878002166748 0.04591900110244751
vn 0.018213000148534775 0.99896401166915894 0.041707001626491547
vn 0.017403999343514442 0.99948698282241821 0.026867000386118889
vn -0.020920999348163605 0.997344970703125 0.0697460025548935
vn -0.023191999644041061 0.99711602926254272 0.072259001433849335
vn -0.020549999549984932 0.99685502052307129 0.0765409991145134
vn -0.0034060000907629728 0.99928897619247437 0.037555001676082611
vn 0.0044669997878372669 0.9995579719543457 0.029401000589132309
vn 0.0026920000091195107 0.99904900789260864 0.043524999171495438
vn 0.035558998584747314 0.99929797649383545 0.011766999959945679
vn 0.031686998903751373 0.99949502944946289 0.0024979999288916588
vn 0.031711999326944351 0.99947899580001831 0.0060490001924335957
vn 0.032133001834154129 0.99946802854537964 0.00558099988847971
vn 0.035064000636339188 0.99938201904296875 0.0023199999704957008
vn 0.022491000592708588 0.99961400032043457 0.016299000009894371
vn -0.040463000535964966 0.99719399213790894 0.062977999448776245
vn -0.10563100129365921 0.9916120171546936 0.0744900032877922
vn -0.024018000811338425 0.99703001976013184 0.073172003030776978
vn -0.064800001680850983 0.99506300687789917 0.075167000293731689
f 1/1/1 2/2/2 3/3/3
f 1/1/1 4/4/4 2/2/2
f 4/4/4 1/1/1 5/5/5
f 6/6/6 7/7/7 8/8/8
f 6/6/6 3/3/3 7/7/7
f 1/1/1 3/3/3 6/6/6
f 9/9/9 10/10/10 11/11/11
f 3/3/3 12/12/12 13/13/13
f 3/3/3 2/2/2 12/12/12
f 10/10/10 7/7/7 14/14/14
f 8/8/8 10/10/10 9/9/9
f 8/8/8 7/7/7 10/10/10
f 11/11/11 15/15/15 16/16/16
f 11/11/11 10/10/10 15/15/15
f 15/15/15 10/10/10 14/14/14
f 17/17/17 15/15/15 18/18/18
f 19/19/19 15/15/15 17/17/17
f 19/19/19 20/20/20 15/15/15
f 19/19/19 21/21/21 20/20/20
f 20/20/20 16/16/16 15/15/15
f 15/15/15 14/14/14 22/22/22
f 7/7/7 3/3/3 23/23/23
f 24/24/24 25/25/25 13/13/13
f 24/24/24 26/26/26 25/25/25
f 3/3/3 13/13/13 23/23/23
f 7/7/7 23/23/23 14/14/14
f 13/13/13 27/27/27 23/23/23
f 24/24/24 13/13/13 12/12/12
f 23/23/23 28/28/28 14/14/14
f 27/27/27 25/25/25 29/29/29
f 25/25/25 27/27/27 13/13/13
f 27/27/27 28/28/28 23/23/23
f 28/28/28 27/27/27 30/30/30
f 26/26/26 31/31/31 25/25/25
f 25/25/25 32/32/32 33/33/33
f 25/25/25 31/31/31 32/32/32
f 34/34/34 22/22/22 35/35/35
f 34/34/34 36/36/36 22/22/22
f 22/22/22 18/18/18 15/15/15
f 22/22/22 36/36/36 18/18/18
f 14/14/14 28/28/28 22/22/22
f 22/22/22 28/28/28 30/30/30
f 37/37/37 33/33/33 38/38/38
f 37/37/37 29/29/29 33/33/33
f 33/33/33 29/29/29 25/25/25
f 29/29/29 30/30/30 27/27/27
f 39/39/39 29/29/29 37/37/37
f 39/39/39 30/30/30 29/29/29
f 32/32/32 40/40/40 33/33/33
f 41/41/41 42/42/42 43/43/43
f 41/41/41 44/44/44 42/42/42
f 44/44/44 33/33/33 40/40/40
f 44/44/44 41/41/41 33/33/33
f 45/45/45 43/43/43 42/42/42
f 41/41/41 38/38/38 33/33/33
f 46/46/46 30/30/30 39/39/39
f 46/46/46 47/47/47 30/30/30
f 48/48/48 22/22/22 49/49/49
f 48/48/48 35/35/35 22/22/22
f 49/49/49 30/30/30 47/47/47
f 49/49/49 22/22/22 30/30/30
