mtllib m3130.mtl
usemtl material0
v 1559.393310546875 9.506373405456543 -768
v 1536 9.7279834747314453 -745.66522216796875
v 1561.787841796875 7.6541080474853516 -722.44659423828125
v 1536 10.582159996032715 -768
v 1687.3839111328125 8.1893472671508789 -768
v 1646.2921142578125 7.92771577835083 -768
v 1689.42138671875 6.0916748046875 -729.18145751953125
v 1724.354736328125 9.842411994934082 -768
v 1623.384521484375 8.1066036224365234 -768
v 1578.7362060546875 9.1040372848510742 -768
v 1625.6024169921875 6.459928035736084 -725.8125
v 1628.961669921875 4.661139965057373 -661.98553466796875
v 1692.7769775390625 3.6107730865478516 -665.35198974609375
v 1536 7.8786897659301758 -721.0855712890625
v 1536 7.6656098365783691 -684.85833740234375
v 1565.1546630859375 7.2483558654785156 -658.62469482421875
v 1753.247314453125 7.0058817863464355 -732.5550537109375
v 1751.3936767578125 10.104057312011719 -768
v 1792 10.494236946105957 -754.65283203125
v 1792 8.3317594528198242 -734.60595703125
v 1785.1475830078125 11.738682746887207 -768
v 1792 11.934011459350586 -768
v 1792 5.36111307144165 -697.6756591796875
v 1756.5963134765625 3.3130919933319092 -668.72119140625
v 1536 7.745643138885498 -657.08673095703125
v 1568.506103515625 3.9791560173034668 -594.79241943359375
v 1536 6.0881128311157227 -624.0556640625
v 1696.12939453125 0.53688198328018188 -601.5205078125
v 1792 3.779987096786499 -670.59234619140625
v 1792 1.546754002571106 -636.85382103919983
v 1759.9503173828125 0.54534697532653809 -604.89080810546875
v 1632.3145751953125 1.6541420221328735 -598.154296875
v 1536 4.8174319267272949 -593.07867431640625
v 1571.8546142578125 0.14528599381446838 -530.95831298828125
v 1536 3.0705769062042236 -563.24090576171875
v 1635.667236328125 -1.3784749507904053 -534.32305908203125
v 1536 1.3265490531921387 -512
v 1572.8505859375 -0.71909600496292114 -512
v 1536 1.7051739692687988 -520.87176513671875
v 1536 2.0551059246063232 -529.07122802734375
v 1615.58203125 -1.8390949964523315 -512
v 1636.85302734375 -0.04867900162935257 -512
v 1763.3111572265625 -0.97265297174453735 -541.06500244140625
v 1792 0.25228598713874817 -606.582275390625
v 1792 -1.2434600591659546 -576.04083251953125
v 1764.842529296875 -1.4810429811477661 -512
v 1699.4810791015625 -2.6612579822540283 -537.68865966796875
v 1728.0362548828125 -2.4180788993835449 -512
v 1792 -1.9757150411605835 -542.57666015625
v 1792 -2.0087659358978271 -528.33843994140625
v 1792 -2.0391600131988525 -515.244873046875
v 1676.373046875 -0.71706897020339966 -512
v 1700.8497314453125 -0.42267099022865295 -512
v 1792 -2.0920710563659668 -512
vt 0.97596198320388794 0.09106600284576416
vt 0.88916498422622681 0.0042690038681030273
vt 0.80321002006530762 0.10435199737548828
vt 0.97396498918533325 0.0022140145301818848
vt 0.98754501342773438 0.57674100995063782
vt 0.98371797800064087 0.42083597183227539
vt 0.8402400016784668 0.58804100751876831
vt 0.9913560152053833 0.71706199645996094
vt 0.98164701461791992 0.33391201496124268
vt 0.97768300771713257 0.16447001695632935
vt 0.82166999578475952 0.3462110161781311
vt 0.57971900701522827 0.36477798223495483
vt 0.59819501638412476 0.60662901401519775
vt 0.79564797878265381 0.00663602352142334
vt 0.65820097923278809 0.01001197099685669
vt 0.56138002872467041 0.12307298183441162
vt 0.85906100273132324 0.82989899814128876
vt 0.99388599395751953 0.81965099275112152
vt 0.94723302125930786 0.975034000352025
vt 0.8707050085067749 0.97680100053548813
vt 0.99748802185058594 0.94785099849104881
vt 0.99816799163818359 0.97385800071060658
vt 0.73013699054718018 0.98013100028038025
vt 0.61677700281143188 0.848458006978035
vt 0.55283498764038086 0.012588024139404297
vt 0.31921300292015076 0.14195400476455689
vt 0.42736101150512695 0.015776991844177246
vt 0.35604900121688843 0.62526398897171021
vt 0.62720698118209839 0.98261399939656258
vt 0.49901300668716431 0.9857360003516078
vt 0.37472999095916748 0.86708800494670868
vt 0.33761999011039734 0.38386499881744385
vt 0.30973899364471436 0.018741011619567871
vt 0.076912999153137207 0.16073602437973023
vt 0.19634300470352173 0.021595001220703125
vt 0.0954819992184639 0.40249699354171753
vt 0.0018319999799132347 0.026292026042938232
vt 0.0050070001743733883 0.16632401943206787
vt 0.035521999001502991 0.025448977947235107
vt 0.066644996404647827 0.0247189998626709
vt 0.0088910004124045372 0.32850402593612671
vt 0.010741000063717365 0.40896600484848022
vt 0.13281799852848053 0.88573899865150452
vt 0.38405799865722656 0.98853799980133772
vt 0.2681100070476532 0.99142900016158819
vt 0.02270900085568428 0.89473599940538406
vt 0.11414200067520142 0.6443449854850769
vt 0.019302999600768089 0.755048006772995
vt 0.14111700654029846 0.9945180001668632
vt 0.087095998227596283 0.99579400010406971
vt 0.03795899823307991 0.99742999998852611
vt 0.014374000020325184 0.55892699956893921
vt 0.01642799936234951 0.65180200338363647
vt 0.025647999718785286 0.997785999905318
vn 0.033775001764297485 0.99867498874664307 0.038832001388072968
vn 0.037060998380184174 0.99816000461578369 0.047993998974561691
vn 0.022377999499440193 0.99931597709655762 0.029434999451041222
vn 0.04590500146150589 0.99821597337722778 0.038176000118255615
vn -0.024862000718712807 0.99816298484802246 0.055243998765945435
vn 0.004497000016272068 0.99909698963165283 0.042259000241756439
vn -0.0052089998498559 0.99866902828216553 0.051316998898983
vn -0.018962999805808067 0.99667602777481079 0.0792350023984909
vn 0.015305999666452408 0.9991530179977417 0.038194999098777771
vn 0.02113799937069416 0.99901002645492554 0.039131000638008118
vn 0.015580999664962292 0.99928998947143555 0.034301001578569412
vn 0.027650000527501106 0.99905401468276978 0.033560000360012054
vn 0.010781999677419663 0.999101996421814 0.040972001850605011
vn 0.010777000337839127 0.99916797876358032 0.039322998374700546
vn 0.011122000403702259 0.99993199110031128 0.0035439999774098396
vn 0.028571000322699547 0.99926197528839111 0.025685999542474747
vn -0.019759999588131905 0.99672698974609375 0.078386999666690826
vn -0.028307000175118446 0.99567300081253052 0.088509999215602875
vn -0.028328999876976013 0.99383300542831421 0.10720600187778473
vn -0.029063999652862549 0.99513202905654907 0.094164997339248657
vn -0.033622998744249344 0.99416601657867432 0.10248599946498871
vn -0.028328999876976013 0.99383300542831421 0.10720600187778473
vn -0.015355999581515789 0.99782401323318481 0.0641150027513504
vn -0.0011399999493733048 0.99869698286056519 0.0510139986872673
vn 0.018340999260544777 0.99953097105026245 0.024504000321030617
vn 0.031105000525712967 0.99820101261138916 0.05124799907207489
vn 0.021871000528335571 0.99862301349639893 0.047674000263214111
vn 0.0079539995640516281 0.9989590048789978 0.044916000217199326
vn -0.0098829995840787888 0.99802500009536743 0.062029000371694565
vn 0.005778999999165535 0.99878501892089844 0.048941001296043396
vn 0.010267999954521656 0.99926900863647461 0.036830000579357147
vn 0.029874999076128006 0.9984859824180603 0.046181000769138336
vn 0.028380999341607094 0.99834698438644409 0.049982000142335892
vn 0.037569001317024231 0.99817198514938354 0.047331999987363815
vn 0.035721998661756516 0.99807202816009521 0.050765000283718109
vn 0.010525000281631947 0.999908983707428 0.0084530003368854523
vn 0.055376000702381134 0.99755698442459106 0.042573999613523483
vn 0.040275998413562775 0.99824601411819458 0.043398000299930573
vn 0.055376000702381134 0.99755799770355225 0.042573001235723495
vn 0.055061999708414078 0.99782198667526245 0.036325998604297638
vn -0.0032059999648481607 0.99983698129653931 0.017745999619364738
vn -0.031713999807834625 0.99782699346542358 -0.057755999267101288
vn 0.0070340000092983246 0.99973601102828979 0.02188899926841259
vn 0.01154599990695715 0.99888801574707031 0.045713998377323151
vn 0.029594000428915024 0.99913901090621948 0.02907400019466877
vn -0.0006750000175088644 0.99984598159790039 0.017524000257253647
vn 0.0063319997861981392 0.9999769926071167 -0.0022899999748915434
vn -0.0024270000867545605 0.99997401237487793 -0.0067679998464882374
vn 0.035592999309301376 0.99928897619247437 0.012415999546647072
vn 0.035064000636339188 0.99938201904296875 0.0023199999704957008
vn 0.025846000760793686 0.99958699941635132 0.012570000253617764
vn 0.00916299968957901 0.99769300222396851 -0.067264996469020844
vn 0.031849998980760574 0.99557101726531982 -0.0884540006518364
vn 0.022491000592708588 0.99961400032043457 0.016299000009894371
f 1/1/1 2/2/2 3/3/3
f 1/1/1 4/4/4 2/2/2
f 5/5/5 6/6/6 7/7/7
f 8/8/8 5/5/5 7/7/7
f 9/9/9 10/10/10 11/11/11
f 11/11/11 3/3/3 12/12/12
f 1/1/1 11/11/11 10/10/10
f 1/1/1 3/3/3 11/11/11
f 9/9/9 7/7/7 6/6/6
f 9/9/9 11/11/11 7/7/7
f 7/7/7 11/11/11 13/13/13
f 2/2/2 14/14/14 3/3/3
f 3/3/3 15/15/15 16/16/16
f 3/3/3 14/14/14 15/15/15
f 17/17/17 8/8/8 7/7/7
f 17/17/17 18/18/18 8/8/8
f 19/19/19 17/17/17 20/20/20
f 19/19/19 21/21/21 17/17/17
f 19/19/19 22/22/22 21/21/21
f 18/18/18 17/17/17 21/21/21
f 20/20/20 17/17/17 23/23/23
f 17/17/17 7/7/7 24/24/24
f 12/12/12 3/3/3 16/16/16
f 25/25/25 16/16/16 15/15/15
f 13/13/13 11/11/11 12/12/12
f 25/25/25 26/26/26 16/16/16
f 25/25/25 27/27/27 26/26/26
f 12/12/12 28/28/28 13/13/13
f 7/7/7 13/13/13 24/24/24
f 29/29/29 24/24/24 30/30/30
f 29/29/29 17/17/17 24/24/24
f 29/29/29 23/23/23 17/17/17
f 13/13/13 31/31/31 24/24/24
f 16/16/16 32/32/32 12/12/12
f 33/33/33 26/26/26 27/27/27
f 26/26/26 32/32/32 16/16/16
f 33/33/33 34/34/34 26/26/26
f 33/33/33 35/35/35 34/34/34
f 26/26/26 36/36/36 32/32/32
f 37/37/37 38/38/38 39/39/39
f 39/39/39 34/34/34 40/40/40
f 39/39/39 38/38/38 34/34/34
f 40/40/40 34/34/34 35/35/35
f 34/34/34 36/36/36 26/26/26
f 41/41/41 34/34/34 38/38/38
f 41/41/41 36/36/36 34/34/34
f 42/42/42 36/36/36 41/41/41
f 28/28/28 32/32/32 36/36/36
f 31/31/31 28/28/28 43/43/43
f 28/28/28 31/31/31 13/13/13
f 30/30/30 31/31/31 44/44/44
f 30/30/30 24/24/24 31/31/31
f 44/44/44 31/31/31 45/45/45
f 46/46/46 47/47/47 48/48/48
f 46/46/46 43/43/43 47/47/47
f 47/47/47 43/43/43 28/28/28
f 45/45/45 43/43/43 49/49/49
f 45/45/45 31/31/31 43/43/43
f 50/50/50 43/43/43 51/51/51
f 50/50/50 49/49/49 43/43/43
f 52/52/52 53/53/53 47/47/47
f 46/46/46 51/51/51 43/43/43
f 46/46/46 54/54/54 51/51/51
f 48/48/48 47/47/47 53/53/53
f 36/36/36 52/52/52 47/47/47
f 36/36/36 42/42/42 52/52/52
f 36/36/36 47/47/47 28/28/28
f 12/12/12 32/32/32 28/28/28
