mtllib m3201.mtl
usemtl material0
v 256 35.864540100097656 -1280
v 256 29.238739013671875 -1230.44482421875
v 300.59017944335938 32.605247497558594 -1280
v 256 28.938838958740234 -1213.486328125
v 256 28.257490158081055 -1165.5489501953125
v 258.51995849609375 28.234180450439453 -1165.6820068359375
v 256 30.046239852905273 -1088.581298828125
v 261.90676879882812 31.772558212280273 -1101.87451171875
v 256 31.33012580871582 -1101.56103515625
v 256 29.245456695556641 -1080.485595703125
v 256 28.182338714599609 -1162.8812255859375
v 318.99996948242188 33.821174621582031 -1232.894287109375
v 256 29.23643684387207 -1229.5511474609375
v 322.33724975585938 27.458120346069336 -1169.0494384765625
v 316.512939453125 33.7618293762207 -1280
v 361.38134765625 33.990089416503906 -1280
v 382.81445300579071 32.467262268066406 -1236.259521484375
v 380.51110792160034 33.560211181640625 -1280
v 422.171630859375 34.786830902099609 -1280
v 386.16390991210938 28.548006057739258 -1172.423828125
v 256 22.921588897705078 -1024
v 265.97305297851562 23.145278930664062 -1024
v 292.45709228515625 22.83062744140625 -1024
v 325.72006225585938 30.189384460449219 -1105.2388916015625
v 389.51211500167847 24.38829231262207 -1108.58740234375
v 450.0015869140625 31.81437873840332 -1175.8065185546875
v 303.29263305664062 22.502985000610352 -1024
v 366.18096923828125 21.612777709960938 -1024
v 357.60018920898438 22.419553756713867 -1024
v 446.64364624023438 34.032497406005859 -1239.6358642578125
v 329.97125244140625 22.99793815612793 -1024
v 393.95538330078125 20.150022506713867 -1024
v 422.73361206054688 20.525894165039062 -1024
v 444.51943969726562 35.296413421630859 -1280
v 482.96188354492188 35.562393188476562 -1280
v 510.45782470703125 32.620510101318359 -1243.0008544921875
v 508.51669311523438 34.9151725769043 -1280
v 512 34.843124389648438 -1280
v 512 32.693050384521484 -1244.7147216796875
v 512 31.227384567260742 -1213.6484375
v 512 29.654010772705078 -1179.072998046875
v 453.35467529296875 28.633161544799805 -1111.9736328125
v 457.95870971679688 20.981855392456055 -1024
v 429.07009887695312 20.923574447631836 -1024
v 487.88665771484375 21.645387649536133 -1024
v 512 26.948686599731445 -1115.0648193359375
v 512 25.890678405761719 -1099.22021484375
v 491.96438598632812 21.5139102935791 -1024
v 512 25.716550827026367 -1096.612548828125
v 512 29.562187194824219 -1177.1549072265625
v 512 32.617958068847656 -1243.082275390625
v 512 21.52557373046875 -1024
vt 0.99352198839187622 0.00081300735473632812
vt 0.80031698942184448 0.0026800036430358887
vt 0.99352198839187622 0.17359501123428345
vt 0.7347710132598877 0.0032430291175842285
vt 0.54950201511383057 0.00484699010848999
vt 0.55009901523590088 0.014581024646759033
vt 0.25149598717689514 0.0056610107421875
vt 0.30318999290466309 0.028732001781463623
vt 0.30190101265907288 0.005849003791809082
vt 0.22005699574947357 0.00554502010345459
vt 0.539188027381897 0.00493699312210083
vt 0.812188982963562 0.24668598175048828
vt 0.79686301946640015 0.0027130246162414551
vt 0.564320981502533 0.26115900278091431
vt 0.99413001537323 0.23528897762298584
vt 0.99583101272583008 0.4086800217628479
vt 0.82753902673721313 0.49322301149368286
vt 0.99653297662734985 0.48262399435043335
vt 0.99827200174331665 0.64368501305580139
vt 0.57977902889251709 0.5077190101146698
vt 0.00040200000512413681 0.0046070218086242676
vt 0.00054099998669698834 0.047019004821777344
vt 0.001276999944821 0.14937400817871094
vt 0.3175550103187561 0.27534401416778564
vt 0.331928014755249 0.52281099557876587
vt 0.59504002332687378 0.75462199747562408
vt 0.0014969999901950359 0.19126701354980469
vt 0.0039750002324581146 0.43591398000717163
vt 0.0032089999876916409 0.40117698907852173
vt 0.841763973236084 0.73990499973297119
vt 0.0025200000964105129 0.29438197612762451
vt 0.0048210001550614834 0.54339599609375
vt 0.0060539999976754189 0.65461400151252747
vt 0.99777799844741821 0.73073801398277283
vt 0.99872201681137085 0.87930300086736679
vt 0.85631400346755981 0.986494000069797
vt 0.99951499700546265 0.977930000051856
vt 0.99959802627563477 0.99139400012791157
vt 0.8629869818687439 0.992403999902308
vt 0.74279898405075073 0.993298000190407
vt 0.60947597026824951 0.994262000080198
vt 0.34816798567771912 0.769894003868103
vt 0.0070500001311302185 0.79031200706958771
vt 0.0061719999648630619 0.67867299914360046
vt 0.0081639997661113739 0.9059939980506897
vt 0.36190098524093628 0.99652600008994341
vt 0.30004400014877319 0.99689200008288026
vt 0.0082569997757673264 0.92176000028848648
vt 0.28994500637054443 0.9969709999859333
vt 0.602055013179779 0.99433099990710616
vt 0.85667198896408081 0.99245100002735853
vt 0.0088700000196695328 0.999186999979429
vn 0.072259999811649323 0.98858797550201416 0.13217900693416596
vn -0.038770999759435654 0.99870401620864868 0.03296000137925148
vn -0.033700000494718552 0.998727023601532 0.037523999810218811
vn -0.070229999721050262 0.99736100435256958 0.018403999507427216
vn 0.010378000326454639 0.99971699714660645 0.021417999640107155
vn -0.010354000143706799 0.9999459981918335 0.0013360000448301435
vn -0.069149002432823181 0.99276101589202881 0.09819900244474411
vn -0.023702999576926231 0.99938201904296875 0.025956999510526657
vn -0.073284998536109924 0.99696701765060425 0.02619599923491478
vn -0.026290999725461006 0.993569016456604 0.11012999713420868
vn -0.056818999350070953 0.99785000085830688 -0.032652001827955246
vn -0.016197999939322472 0.99896198511123657 0.042582999914884567
vn -0.072007998824119568 0.99734598398208618 0.010793000459671021
vn 0.0050309998914599419 0.99975299835205078 0.021664999425411224
vn -0.039919998496770859 0.99920302629470825 0.00084900000365450978
vn 0.015111999586224556 0.99973797798156738 0.017180999740958214
vn -0.0046279998496174812 0.998790979385376 0.04894699901342392
vn -0.0026149998884648085 0.99968099594116211 0.025117000564932823
vn -0.024553999304771423 0.99922102689743042 0.030895000323653221
vn -0.014769000001251698 0.99877798557281494 0.04715999960899353
vn -0.022284999489784241 0.99354398250579834 0.11123300343751907
vn -0.0046830000355839729 0.99388200044631958 0.11035100370645523
vn 0.02310900017619133 0.994193971157074 0.10509199649095535
vn 0.039657998830080032 0.99869000911712646 0.03233800083398819
vn 0.017733000218868256 0.997996985912323 0.060724001377820969
vn -0.009181000292301178 0.99888902902603149 0.046213999390602112
vn 0.0099390000104904175 0.995244026184082 0.096909001469612122
vn 0.076471999287605286 0.99562102556228638 0.053762000054121017
vn 0.065893001854419708 0.99541401863098145 0.069344997406005859
vn -0.0062119998037815094 0.9991610050201416 0.040491998195648193
vn 0.0018400000408291817 0.99611198902130127 0.088082000613212585
vn 0.018640000373125076 0.99862200021743774 0.0490569993853569
vn -0.043634001165628433 0.99708002805709839 0.062665000557899475
vn -0.015112999826669693 0.9993709921836853 0.032088000327348709
vn 0.016682999208569527 0.998462975025177 0.0528549998998642
vn 0.018076000735163689 0.99857801198959351 0.050145000219345093
vn 0.02303599938750267 0.99789100885391235 0.060679998248815536
vn 0.02064099907875061 0.99793601036071777 0.060807999223470688
vn 0.01677899993956089 0.998212993144989 0.057348001748323441
vn 0.036628000438213348 0.9982950091362 0.045457001775503159
vn 0.037236999720335007 0.99822098016738892 0.046567998826503754
vn -0.014611000195145607 0.998054027557373 0.060612000524997711
vn -0.012372000142931938 0.99610698223114014 0.087282001972198486
vn -0.037471000105142593 0.99632900953292847 0.076970003545284271
vn 0.011475999839603901 0.99713999032974243 0.074698999524116516
vn 0.031509000808000565 0.99804800748825073 0.053918998688459396
vn 0.032154001295566559 0.99726200103759766 0.06659100204706192
vn 0.018581999465823174 0.99784797430038452 0.0628800019621849
vn 0.029357999563217163 0.9973989725112915 0.065828002989292145
vn 0.035805001854896545 0.99827897548675537 0.046443000435829163
vn 0.004110999871045351 0.99890702962875366 0.046549998223781586
vn -0.00058100000023841858 0.998337984085083 0.057620998471975327
f 1/1/1 2/2/2 3/3/3
f 4/4/4 5/5/5 6/6/6
f 7/7/7 8/8/8 9/9/9
f 7/7/7 10/10/10 8/8/8
f 11/11/11 8/8/8 6/6/6
f 11/11/11 9/9/9 8/8/8
f 5/5/5 11/11/11 6/6/6
f 12/12/12 4/4/4 6/6/6
f 12/12/12 13/13/13 4/4/4
f 6/6/6 14/14/14 12/12/12
f 15/15/15 12/12/12 16/16/16
f 17/17/17 12/12/12 14/14/14
f 16/16/16 17/17/17 18/18/18
f 16/16/16 12/12/12 17/17/17
f 18/18/18 17/17/17 19/19/19
f 17/17/17 14/14/14 20/20/20
f 8/8/8 14/14/14 6/6/6
f 21/21/21 8/8/8 10/10/10
f 21/21/21 22/22/22 8/8/8
f 22/22/22 23/23/23 8/8/8
f 20/20/20 24/24/24 25/25/25
f 8/8/8 24/24/24 14/14/14
f 20/20/20 25/25/25 26/26/26
f 8/8/8 27/27/27 24/24/24
f 8/8/8 23/23/23 27/27/27
f 20/20/20 14/14/14 24/24/24
f 24/24/24 28/28/28 25/25/25
f 24/24/24 29/29/29 28/28/28
f 30/30/30 17/17/17 20/20/20
f 3/3/3 12/12/12 15/15/15
f 3/3/3 13/13/13 12/12/12
f 3/3/3 2/2/2 13/13/13
f 31/31/31 29/29/29 24/24/24
f 28/28/28 32/32/32 25/25/25
f 31/31/31 24/24/24 27/27/27
f 33/33/33 25/25/25 32/32/32
f 26/26/26 30/30/30 20/20/20
f 34/34/34 30/30/30 35/35/35
f 36/36/36 30/30/30 26/26/26
f 35/35/35 36/36/36 37/37/37
f 35/35/35 30/30/30 36/36/36
f 38/38/38 36/36/36 39/39/39
f 38/38/38 37/37/37 36/36/36
f 40/40/40 26/26/26 41/41/41
f 40/40/40 36/36/36 26/26/26
f 42/42/42 26/26/26 25/25/25
f 43/43/43 42/42/42 44/44/44
f 25/25/25 44/44/44 42/42/42
f 25/25/25 33/33/33 44/44/44
f 45/45/45 42/42/42 43/43/43
f 45/45/45 46/46/46 42/42/42
f 45/45/45 47/47/47 46/46/46
f 47/47/47 48/48/48 49/49/49
f 47/47/47 45/45/45 48/48/48
f 50/50/50 42/42/42 46/46/46
f 41/41/41 42/42/42 50/50/50
f 41/41/41 26/26/26 42/42/42
f 51/51/51 36/36/36 40/40/40
f 52/52/52 49/49/49 48/48/48
f 39/39/39 36/36/36 51/51/51
f 19/19/19 30/30/30 34/34/34
f 19/19/19 17/17/17 30/30/30
