mtllib m3200.mtl
usemtl material0
v 0 25.082357406616211 -1148.6099851131439
v 3.2205352783203125 25.209798812866211 -1152.1893309950829
v 0 25.270072937011719 -1152.0194090008736
v 0 26.195058822631836 -1213.290283203125
v 0 26.261629104614258 -1216.17333984375
v 57.438499450683594 35.324813842773438 -1280
v 0 30.451129913330078 -1280
v 0 21.914026260375977 -1088.009033203125
v 0 20.974258422851562 -1064.5257568359375
v 6.5729827880859375 21.810321807861328 -1088.3558349609375
v 67.040962219238281 25.080633163452148 -1155.55908203125
v 51.717819213867188 20.620254516601562 -1024
v 70.402816772460938 23.602018356323242 -1091.73291015625
v 31.856781005859375 20.101442337036133 -1024
v 9.9557723999023438 18.953912734985352 -1024
v 0 19.235864639282227 -1024
v 0 26.252336502075195 -1216.021484375
v 63.706832885742188 32.180980682373047 -1219.40673828125
v 60.525627136230469 35.602069854736328 -1280
v 118.23059844970703 37.3911018371582 -1280
v 130.8713231086731 26.956083297729492 -1158.9365229606628
v 114.60898590087891 20.452730178833008 -1024
v 134.20973205566406 20.748556137084961 -1095.0924072265625
v 97.00982666015625 21.255275726318359 -1024
v 73.965789794921875 21.1279296875 -1024
v 127.53745999932289 34.082798004150391 -1222.7843017578125
v 124.53490400314331 37.558208465576172 -1280
v 179.01802062988281 36.354633331298828 -1280
v 191.35704040527344 33.742733001708984 -1226.1533203125
v 137.94924926757813 18.127824783325195 -1024
v 162.13462829589844 18.008945465087891 -1024
v 194.70173645019531 28.824470520019531 -1162.3138427734375
v 188.52755737304688 36.280509948730469 -1280
v 239.8082275390625 37.118194580078125 -1280
v 255.155517578125 29.174980163574219 -1229.50634765625
v 252.52595520019531 36.118473052978516 -1280
v 256 35.864540100097656 -1280
v 256 29.238739013671875 -1230.44482421875
v 256 28.938838958740234 -1213.486328125
v 256 28.257490158081055 -1165.5489501953125
v 198.061767578125 26.990392684936523 -1098.4862060546875
v 201.96002197265625 20.428590774536133 -1024
v 177.49685668945313 19.449142456054688 -1024
v 227.30381774902344 21.659448623657227 -1024
v 256 31.33012580871582 -1101.56103515625
v 256 30.046239852905273 -1088.581298828125
v 240.40101623535156 22.571712493896484 -1024
v 256 29.245456695556641 -1080.485595703125
v 256 28.182338714599609 -1162.8812255859375
v 256 29.23643684387207 -1229.5511474609375
v 256 22.921588897705078 -1024
vt 0.46983999013900757 0.018563985824584961
vt 0.48370999097824097 0.030174016952514648
vt 0.48265400528907776 0.018106997013092041
vt 0.71263200044631958 0.010088026523590088
vt 0.72343897819519043 0.0097439885139465332
vt 0.97136801481246948 0.21870899200439453
vt 0.9635310173034668 0.0023760199546813965
vt 0.24209800362586975 0.026678979396820068
vt 0.15389600396156311 0.029802024364471436
vt 0.24425600469112396 0.051304996013641357
vt 0.50484901666641235 0.26924097537994385
vt 0.0087710004299879074 0.22939300537109375
vt 0.26570698618888855 0.29047602415084839
vt 0.0060640000738203526 0.15488100051879883
vt 0.002945000072941184 0.072582006454467773
vt 0.001664999988861382 0.0352020263671875
vt 0.722885012626648 0.0097410082817077637
vt 0.74436700344085693 0.24938899278640747
vt 0.97179198265075684 0.23034101724624634
vt 0.98015099763870239 0.44558697938919067
vt 0.52630901336669922 0.508421003818512
vt 0.016806000843644142 0.46496099233627319
vt 0.28604701161384583 0.52979901432991028
vt 0.014914000406861305 0.39939099550247192
vt 0.011815999634563923 0.31290698051452637
vt 0.766381025314331 0.48853099346160889
vt 0.98107099533081055 0.46925199031829834
vt 0.98841601610183716 0.67377099394798279
vt 0.78687697649002075 0.72765499353408813
vt 0.019531000405550003 0.55300301313400269
vt 0.022631999105215073 0.64377498626708984
vt 0.54841399192810059 0.74754300713539124
vt 0.988851010799408 0.71034100651741028
vt 0.995369017124176 0.90283100306987762
vt 0.80707401037216187 0.96732800081372261
vt 0.99797201156616211 0.95027200132608414
vt 0.99833601713180542 0.963348001241684
vt 0.81069099903106689 0.97040300071239471
vt 0.74702197313308716 0.97220499999821186
vt 0.56988197565078735 0.97706500068306923
vt 0.30933699011802673 0.76993599534034729
vt 0.029237000271677971 0.79459799826145172
vt 0.025626000016927719 0.70272800326347351
vt 0.033052001148462296 0.88980700075626373
vt 0.32950600981712341 0.98749400023370981
vt 0.2810710072517395 0.98935099970549345
vt 0.035087000578641891 0.9390689991414547
vt 0.25053900480270386 0.99040200002491474
vt 0.5598679780960083 0.97747400030493736
vt 0.80733698606491089 0.97050200030207634
vt 0.037214998155832291 0.997624000068754
vn 0.019223999232053757 0.99841797351837158 0.052845001220703125
vn 0.00061500002630054951 0.99890202283859253 0.046852998435497284
vn 0.020583000034093857 0.99915099143981934 0.035693999379873276
vn -0.08968999981880188 0.99575299024581909 0.020783999934792519
vn -0.088124997913837433 0.99418598413467407 0.061866998672485352
vn -0.087978996336460114 0.99419099092483521 0.061997998505830765
vn -0.084366999566555023 0.99429500102996826 0.065264001488685608
vn 0.018178999423980713 0.99878102540969849 0.045889999717473984
vn 0.027391999959945679 0.99871701002120972 0.042594999074935913
vn -0.000986000057309866 0.99909102916717529 0.042608998715877533
vn -0.013673000037670136 0.99735498428344727 0.071388997137546539
vn -0.024730000644922256 0.999002993106842 0.037156999111175537
vn -0.0015729999868199229 0.99936801195144653 0.035498999059200287
vn -0.036079000681638718 0.998520016670227 0.040688998997211456
vn -0.013333999551832676 0.99889600276947021 0.045035999268293381
vn 0.028282999992370605 0.99868202209472656 0.042838998138904572
vn -0.090466998517513275 0.99509000778198242 0.040139999240636826
vn -0.045970000326633453 0.99615299701690674 0.074611000716686249
vn -0.061044998466968536 0.99636197090148926 0.059459999203681946
vn -0.027643999084830284 0.997759997844696 0.060917999595403671
vn -0.010901999659836292 0.9957919716835022 0.090994000434875488
vn 0.067772001028060913 0.99743902683258057 0.022835999727249146
vn -0.0067349998280406 0.9980660080909729 0.061799999326467514
vn 0.026109000667929649 0.99936199188232422 0.024368999525904655
vn -0.013873999938368797 0.999210000038147 0.037227999418973923
vn -0.0059710000641644 0.99641799926757812 0.084348998963832855
vn -0.0030070000793784857 0.99814599752426147 0.060787998139858246
vn 0.011597000062465668 0.99867701530456543 0.050087999552488327
vn 0.026715999469161034 0.99674499034881592 0.076059997081756592
vn 0.050418000668287277 0.99814397096633911 0.034143000841140747
vn -0.055762998759746552 0.99662101268768311 0.060309000313282013
vn -0.00787699967622757 0.998511016368866 0.053971000015735626
vn -0.0038640000857412815 0.9988740086555481 0.0472790002822876
vn 0.052618999034166336 0.99258601665496826 0.10956799983978272
vn 0.012113000266253948 0.99778199195861816 0.065453998744487762
vn 0.075078003108501434 0.98840099573135376 0.13200700283050537
vn 0.072259999811649323 0.98858797550201416 0.13218000531196594
vn 0.038578998297452927 0.99401098489761353 0.10224699974060059
vn 0.008627999573946 0.99986100196838379 0.014283999800682068
vn 0.010352999903261662 0.99972701072692871 0.020951999351382256
vn -0.069061003625392914 0.99639797210693359 0.049215998500585556
vn -0.044208001345396042 0.99496299028396606 0.089964002370834351
vn -0.071125000715255737 0.99417197704315186 0.081017002463340759
vn -0.06117900088429451 0.99358302354812622 0.095127999782562256
vn -0.073568001389503479 0.99706900119781494 0.021004000678658485
vn -0.0691479966044426 0.99276202917099 0.09819900244474411
vn -0.049793001264333725 0.993369996547699 0.10361599922180176
vn -0.06515900045633316 0.99291998147964478 0.099319003522396088
vn -0.0098649999126791954 0.999904990196228 0.0096330000087618828
vn -0.07203800231218338 0.99734902381896973 0.010250000283122063
vn -0.022283999249339104 0.99354499578475952 0.11123199760913849
f 1/1/1 2/2/2 3/3/3
f 4/4/4 3/3/3 2/2/2
f 5/5/5 6/6/6 7/7/7
f 8/8/8 9/9/9 10/10/10
f 10/10/10 11/11/11 2/2/2
f 10/10/10 12/12/12 13/13/13
f 10/10/10 14/14/14 12/12/12
f 9/9/9 15/15/15 10/10/10
f 9/9/9 16/16/16 15/15/15
f 17/17/17 2/2/2 18/18/18
f 17/17/17 4/4/4 2/2/2
f 2/2/2 8/8/8 10/10/10
f 2/2/2 1/1/1 8/8/8
f 14/14/14 10/10/10 15/15/15
f 17/17/17 6/6/6 5/5/5
f 17/17/17 18/18/18 6/6/6
f 18/18/18 19/19/19 6/6/6
f 19/19/19 18/18/18 20/20/20
f 13/13/13 11/11/11 10/10/10
f 13/13/13 21/21/21 11/11/11
f 13/13/13 22/22/22 23/23/23
f 13/13/13 24/24/24 22/22/22
f 25/25/25 13/13/13 12/12/12
f 18/18/18 11/11/11 26/26/26
f 11/11/11 18/18/18 2/2/2
f 24/24/24 13/13/13 25/25/25
f 20/20/20 26/26/26 27/27/27
f 20/20/20 18/18/18 26/26/26
f 27/27/27 26/26/26 28/28/28
f 21/21/21 29/29/29 26/26/26
f 11/11/11 21/21/21 26/26/26
f 22/22/22 30/30/30 23/23/23
f 30/30/30 31/31/31 23/23/23
f 21/21/21 23/23/23 32/32/32
f 13/13/13 23/23/23 21/21/21
f 21/21/21 32/32/32 29/29/29
f 33/33/33 29/29/29 34/34/34
f 35/35/35 29/29/29 32/32/32
f 34/34/34 35/35/35 36/36/36
f 34/34/34 29/29/29 35/35/35
f 37/37/37 35/35/35 38/38/38
f 37/37/37 36/36/36 35/35/35
f 39/39/39 32/32/32 40/40/40
f 39/39/39 35/35/35 32/32/32
f 23/23/23 41/41/41 32/32/32
f 42/42/42 41/41/41 43/43/43
f 23/23/23 43/43/43 41/41/41
f 23/23/23 31/31/31 43/43/43
f 44/44/44 41/41/41 42/42/42
f 44/44/44 45/45/45 41/41/41
f 44/44/44 46/46/46 45/45/45
f 46/46/46 47/47/47 48/48/48
f 46/46/46 44/44/44 47/47/47
f 49/49/49 41/41/41 45/45/45
f 40/40/40 41/41/41 49/49/49
f 40/40/40 32/32/32 41/41/41
f 50/50/50 35/35/35 39/39/39
f 33/33/33 26/26/26 29/29/29
f 33/33/33 28/28/28 26/26/26
f 51/51/51 48/48/48 47/47/47
f 38/38/38 35/35/35 50/50/50
