mtllib m3202.mtl
usemtl material0
v 0 35.361793518066406 -1418.855224609375
v 50.277671813964844 41.811904907226562 -1474.7274169921875
v 0 39.307086944580078 -1472.0633544921875
v 0 35.590888977050781 -1351.2891845703125
v 53.643539428710938 41.143497467041016 -1410.9038090705872
v 0 35.185832977294922 -1408.0495610013604
v 0 45.41607666015625 -1536
v 0 39.787261962890625 -1486.4139404296875
v 44.618125915527344 43.590167999267578 -1536
v 0 30.451129913330078 -1280
v 60.355453491210938 35.785076141357422 -1283.2413330078125
v 0 30.453432083129883 -1280.0350341796875
v 57.438499450683594 35.324813842773438 -1280
v 0 35.202346801757812 -1344.05078125
v 0 30.590639114379883 -1283.731689453125
v 56.996536254882812 37.864070892333984 -1347.0703125
v 114.09606170654297 41.201072692871094 -1478.095458984375
v 117.47650909423828 43.482315063476562 -1414.283203125
v 47.052772521972656 43.707145690917969 -1536
v 105.41066741943359 45.967952728271484 -1536
v 60.525627136230469 35.602069854736328 -1280
v 124.1875 37.960323333740234 -1286.6199951171875
v 118.23059844970703 37.3911018371582 -1280
v 120.82440900802612 39.185817718505859 -1350.4456787109375
v 0 30.480646133422852 -1280.768310546875
v 111.06338500976563 45.889907836914062 -1536
v 166.19439697265625 42.242019653320312 -1536
v 181.29493713378906 42.874671936035156 -1417.6512451171875
v 124.53490400314331 37.558208465576172 -1280
v 188.00283813476563 36.751132965087891 -1289.9857177734375
v 179.01802062988281 36.354633331298828 -1280
v 184.66360473632813 42.774871826171875 -1353.829833984375
v 177.94534301757813 46.816455841064453 -1481.487548828125
v 175.04814147949219 43.0508918762207 -1536
v 226.98764038085938 45.042945861816406 -1536
v 239.0538330078125 44.267776489257812 -1536
v 241.74687194824219 42.802402496337891 -1484.8424072265625
v 245.11058044433594 41.711151123046875 -1421.01708984375
v 256 42.859714508056641 -1485.5953369140625
v 256 41.953922271728516 -1433.1201171875
v 256 41.817665100097656 -1421.592529296875
v 248.48016357421875 41.794452667236328 -1357.1964111328125
v 256 41.861747741699219 -1365.554443359375
v 251.83016967773438 37.955730438232422 -1293.3607177734375
v 256 43.653713226318359 -1500.68310546875
v 256 44.714332580566406 -1536
v 256 41.45025634765625 -1357.59228515625
v 256 40.892559051513672 -1350.42333984375
v 239.8082275390625 37.118194580078125 -1280
v 188.52755737304688 36.280509948730469 -1280
v 252.52595520019531 36.118473052978516 -1280
v 256 37.680248260498047 -1293.5799560546875
v 256 37.4981689453125 -1292.2181396484375
v 256 35.864540100097656 -1280
vt 0.52506697177886963 0.014665007591247559
vt 0.74291002750396729 0.19797599315643311
vt 0.72632801532745361 0.008451998233795166
vt 0.27024298906326294 0.02422797679901123
vt 0.50263398885726929 0.21925997734069824
vt 0.48430699110031128 0.016106009483337402
vt 0.9687269926071167 0.00056302547454833984
vt 0.78048801422119141 0.0066769719123840332
vt 0.97342097759246826 0.16902601718902588
vt 0.00062900001648813486 0.032988011837005615
vt 0.021503999829292297 0.26062601804733276
vt 0.00076099997386336327 0.032984018325805664
vt 0.0088369995355606079 0.2499769926071167
vt 0.2429019957780838 0.025137007236480713
vt 0.014712999574840069 0.032498002052307129
vt 0.26196300983428955 0.23990899324417114
vt 0.76417702436447144 0.43823099136352539
vt 0.52381998300552368 0.45973098278045654
vt 0.97373700141906738 0.17821997404098511
vt 0.98124200105667114 0.398497998714447
vt 0.0092789996415376663 0.26166701316833496
vt 0.042541999369859695 0.50108501315116882
vt 0.016757000237703323 0.479420006275177
vt 0.28289699554443359 0.48027098178863525
vt 0.0035290000960230827 0.03288799524307251
vt 0.98190498352050781 0.41982299089431763
vt 0.98856401443481445 0.62817800045013428
vt 0.54420602321624756 0.70006299018859863
vt 0.017565999180078506 0.50318300724029541
vt 0.062530003488063812 0.74147000908851624
vt 0.02377299964427948 0.70875799655914307
vt 0.30393499135971069 0.720999002456665
vt 0.78504097461700439 0.67956501245498657
vt 0.9907500147819519 0.661410003900528
vt 0.99711501598358154 0.85746900737285614
vt 0.9973750114440918 0.90432599931955338
vt 0.804627001285553 0.92036300152540207
vt 0.56422001123428345 0.94044400006532669
vt 0.80912101268768311 0.97404100000858307
vt 0.61114501953125 0.98011899925768375
vt 0.567658007144928 0.98145600035786629
vt 0.32439899444580078 0.96133499965071678
vt 0.35688000917434692 0.98863600008189678
vt 0.08360300213098526 0.98199399933218956
vt 0.86608797311782837 0.97232699953019619
vt 0.9993709921836853 0.96827099844813347
vt 0.32680898904800415 0.98968099988996983
vt 0.29964199662208557 0.99061799980700016
vt 0.031569000333547592 0.93816399946808815
vt 0.024891000241041183 0.74472200870513916
vt 0.032728001475334167 0.98629499971866608
vt 0.084891997277736664 0.99773399997502565
vt 0.079710997641086578 0.99793400010094047
vt 0.033038001507520676 0.99943700002040714
vn -0.094724997878074646 0.995061993598938 0.029634000733494759
vn -0.032040998339653015 0.99882900714874268 0.036242999136447906
vn -0.046810999512672424 0.99742400646209717 0.054361000657081604
vn -0.059470999985933304 0.997452974319458 0.039390001446008682
vn -0.058729000389575958 0.99807000160217285 0.020186999812722206
vn -0.11016199737787247 0.99390500783920288 0.0041510001756250858
vn 0.040628001093864441 0.99279797077178955 0.1126990020275116
vn -0.027355000376701355 0.99827498197555542 0.051947001367807388
vn -0.02426300011575222 0.9982069730758667 0.054722998291254044
vn -0.084362000226974487 0.99429100751876831 0.0653349980711937
vn -0.057438001036643982 0.99727398157119751 0.046310000121593475
vn -0.0851529985666275 0.99502700567245483 0.051665998995304108
vn -0.085671998560428619 0.99426001310348511 0.0640840008854866
vn -0.043099001049995422 0.99693697690963745 0.065261997282505035
vn -0.075888998806476593 0.996051013469696 0.046089999377727509
vn -0.0380919985473156 0.99796897172927856 0.051058001816272736
vn -0.025567999109625816 0.99961197376251221 0.011010999791324139
vn -0.022317999973893166 0.99938297271728516 0.027110999450087547
vn -0.04347899928689003 0.99850302934646606 0.033172998577356338
vn -0.00023099999816622585 0.99772202968597412 0.067465998232364655
vn -0.059229001402854919 0.99647700786590576 0.059370998293161392
vn -0.013793000020086765 0.9986799955368042 0.049479000270366669
vn -0.029738999903202057 0.99781298637390137 0.059036999940872192
vn -0.029867999255657196 0.99882197380065918 0.038231998682022095
vn -0.085986003279685974 0.99561101198196411 0.036952000111341476
vn 0.038888998329639435 0.99614500999450684 0.078625999391078949
vn -0.049077998846769333 0.99845099449157715 -0.026208000257611275
vn 0.013001999817788601 0.999351978302002 0.033569000661373138
vn -0.0013960000360384584 0.99815499782562256 0.060704000294208527
vn 0.002145000034943223 0.99739599227905273 0.072088003158569336
vn 0.018238000571727753 0.9982609748840332 0.056047998368740082
vn -0.013117000460624695 0.99931800365448 0.034517001360654831
vn -0.012613000348210335 0.99991601705551147 -0.0028850000817328691
vn -0.0654980018734932 0.995714008808136 -0.065300002694129944
vn 0.036805000156164169 0.99932199716567993 0.00060000002849847078
vn 0.020426999777555466 0.99941200017929077 0.027551999315619469
vn 0.022419000044465065 0.99929100275039673 0.030238000676035881
vn 0.00496899988502264 0.99996101856231689 0.0072710001841187477
vn -0.0021430000197142363 0.99936699867248535 0.035505000501871109
vn -0.0045190001837909222 0.999862015247345 0.015990000218153
vn -0.0094779999926686287 0.99993902444839478 0.0057279998436570168
vn 0.028056999668478966 0.99890899658203125 0.03732600063085556
vn 0.0037660000380128622 0.99992799758911133 0.011439000256359577
vn 0.043526999652385712 0.99509298801422119 0.088858999311923981
vn -0.020486000925302505 0.99916797876358032 0.0352649986743927
vn -0.026329999789595604 0.99920302629470825 0.030007999390363693
vn 0.048996999859809875 0.99673998355865479 0.064104996621608734
vn 0.063689999282360077 0.99604701995849609 0.061921000480651855
vn 0.0089649995788931847 0.99746501445770264 0.070593997836112976
vn -0.0046649998985230923 0.998869001865387 0.047320999205112457
vn 0.074864998459815979 0.98841601610183716 0.13201999664306641
vn 0.070513002574443817 0.99314802885055542 0.093193002045154572
vn 0.07226099818944931 0.98858797550201416 0.13217900693416596
vn 0.072259999811649323 0.98858797550201416 0.13217900693416596
f 1/1/1 2/2/2 3/3/3
f 4/4/4 5/5/5 6/6/6
f 7/7/7 8/8/8 9/9/9
f 10/10/10 11/11/11 12/12/12
f 10/10/10 13/13/13 11/11/11
f 14/14/14 15/15/15 16/16/16
f 6/6/6 2/2/2 1/1/1
f 6/6/6 5/5/5 2/2/2
f 5/5/5 17/17/17 2/2/2
f 16/16/16 18/18/18 5/5/5
f 14/14/14 5/5/5 4/4/4
f 14/14/14 16/16/16 5/5/5
f 19/19/19 2/2/2 20/20/20
f 3/3/3 9/9/9 8/8/8
f 3/3/3 2/2/2 9/9/9
f 2/2/2 19/19/19 9/9/9
f 21/21/21 11/11/11 13/13/13
f 21/21/21 22/22/22 11/11/11
f 21/21/21 23/23/23 22/22/22
f 16/16/16 11/11/11 24/24/24
f 25/25/25 16/16/16 15/15/15
f 25/25/25 11/11/11 16/16/16
f 25/25/25 12/12/12 11/11/11
f 26/26/26 2/2/2 17/17/17
f 26/26/26 20/20/20 2/2/2
f 26/26/26 17/17/17 27/27/27
f 18/18/18 17/17/17 5/5/5
f 16/16/16 24/24/24 18/18/18
f 24/24/24 28/28/28 18/18/18
f 23/23/23 29/29/29 22/22/22
f 29/29/29 30/30/30 22/22/22
f 29/29/29 31/31/31 30/30/30
f 24/24/24 22/22/22 32/32/32
f 11/11/11 22/22/22 24/24/24
f 18/18/18 33/33/33 17/17/17
f 27/27/27 33/33/33 34/34/34
f 27/27/27 17/17/17 33/33/33
f 35/35/35 34/34/34 33/33/33
f 36/36/36 33/33/33 37/37/37
f 36/36/36 35/35/35 33/33/33
f 18/18/18 28/28/28 33/33/33
f 22/22/22 30/30/30 32/32/32
f 28/28/28 32/32/32 38/38/38
f 38/38/38 37/37/37 28/28/28
f 39/39/39 38/38/38 40/40/40
f 39/39/39 37/37/37 38/38/38
f 41/41/41 42/42/42 43/43/43
f 41/41/41 38/38/38 42/42/42
f 42/42/42 38/38/38 32/32/32
f 33/33/33 28/28/28 37/37/37
f 42/42/42 32/32/32 44/44/44
f 45/45/45 36/36/36 37/37/37
f 45/45/45 46/46/46 36/36/36
f 24/24/24 32/32/32 28/28/28
f 41/41/41 40/40/40 38/38/38
f 47/47/47 43/43/43 42/42/42
f 39/39/39 45/45/45 37/37/37
f 47/47/47 42/42/42 48/48/48
f 30/30/30 49/49/49 44/44/44
f 30/30/30 50/50/50 49/49/49
f 49/49/49 51/51/51 44/44/44
f 52/52/52 44/44/44 53/53/53
f 53/53/53 51/51/51 54/54/54
f 53/53/53 44/44/44 51/51/51
f 44/44/44 32/32/32 30/30/30
f 50/50/50 30/30/30 31/31/31
f 52/52/52 42/42/42 44/44/44
f 52/52/52 48/48/48 42/42/42
