mtllib m3211.mtl
usemtl material0
v 768 30.875028610229492 -1280
v 768 29.421613693237305 -1258.9967041015625
v 786.901611328125 32.275077819824219 -1280
v 768 25.738037109375 -1191.438232421875
v 769.076904296875 25.739948272705078 -1192.6351318359375
v 768 25.763494491577148 -1192.578369140625
v 768 26.812410354614258 -1213.142822265625
v 829.5498046875 29.77387809753418 -1259.8416748046875
v 768 29.102958679199219 -1256.5888671875
v 772.43682861328125 23.952747344970703 -1128.8076171875
v 768 24.069553375244141 -1128.57373046875
v 956.48687744140625 30.284328460693359 -1280
v 942.284912109375 30.422325134277344 -1280
v 957.18975830078125 29.2564697265625 -1266.580322265625
v 892.50915503501892 34.2899169921875 -1280
v 874.7635498046875 35.320903778076172 -1280
v 893.39410400390625 34.211479187011719 -1263.2288818359375
v 832.89691162109375 25.505023956298828 -1196.004638671875
v 828.49993896484375 32.437580108642578 -1280
v 896.72772198915482 27.362600326538086 -1199.3819580078125
v 960.5615234375 29.769742965698242 -1202.761474609375
v 1021.0491943359375 36.560256958007812 -1269.978515625
v 900.0830078125 24.694070816040039 -1135.5511474609375
v 836.25238037109375 22.865301132202148 -1132.173828125
v 969.267578125 31.605857849121094 -1280
v 768 21.807016372680664 -1032.5679931640625
v 777.48077392578125 22.072649002075195 -1033.069580078125
v 768 23.494672775268555 -1112.72119140625
v 809.3868408203125 21.190704345703125 -1034.7513427734375
v 768 21.234855651855469 -1024
v 777.9564208984375 21.4786376953125 -1024
v 768 21.386363983154297 -1026.268798828125
v 809.94976806640625 20.326885223388672 -1024
v 799.71307373046875 20.803993225097656 -1024
v 841.2867431640625 19.122936248779297 -1036.4288330078125
v 830.1041259765625 18.939140319824219 -1024
v 873.189697265625 17.653488159179688 -1038.1083984375
v 905.0987548828125 17.366819381713867 -1039.79248046875
v 937.01031494140625 17.5676326751709 -1041.4783935546875
v 905.92852783203125 16.643352508544922 -1024
v 888.86352491378784 16.837385177612305 -1024
v 873.93115234375 17.042993545532227 -1024
v 855.09033203125 17.951211929321289 -1024
v 841.94317626953125 19.185619354248047 -1024
v 937.92938232421875 16.901147842407227 -1024
v 921.2833251953125 16.70265007019043 -1024
v 956.44256591796875 18.109323501586914 -1024
v 967.2745361328125 24.919261932373047 -1075.1015625
v 963.92669677734375 29.008401870727539 -1138.937744140625
v 1020.52392578125 37.261547088623047 -1280
v 1024 28.735616683959961 -1206.10791015625
v 1024 28.731204986572266 -1205.7083740234375
v 1024 36.563236236572266 -1270.1343994140625
v 1024 29.617538452148438 -1213.3690185546875
v 1024 37.252239227294922 -1280
v 1024 37.227146148681641 -1279.6407470703125
v 1024 25.619470596313477 -1142.0982666015625
v 1024 25.378877639770508 -1138.1495361328125
v 1024 29.234157562255859 -1078.1121826171875
v 1024 23.138771057128906 -1024
v 1024 28.449359893798828 -1070.577880859375
v 982.079345703125 20.640642166137695 -1024
v 969.9444580078125 19.784675598144531 -1024
v 1024 28.61284065246582 -1072.1473388671875
vt 0.998179018497467 0.0073729753494262695
vt 0.91683197021484375 0.0069580078125
vt 0.998179018497467 0.080605983734130859
vt 0.65538299083709717 0.0051050186157226562
vt 0.65997397899627686 0.009302973747253418
vt 0.65978902578353882 0.0051389932632446289
vt 0.73934900760650635 0.0057020187377929688
vt 0.91845697164535522 0.24479901790618897
vt 0.90744799375534058 0.00688701868057251
vt 0.41316699981689453 0.020464003086090088
vt 0.41240298748016357 0.0033079981803894043
vt 0.9934769868850708 0.73766601085662842
vt 0.99522101879119873 0.68202000856399536
vt 0.94143402576446533 0.73945799469947815
vt 0.99666798114776611 0.48911798000335693
vt 0.9971809983253479 0.42043799161911011
vt 0.931842029094696 0.49206501245498657
vt 0.67120498418807983 0.25688701868057251
vt 0.997052013874054 0.24133402109146118
vt 0.683667004108429 0.50365498661994934
vt 0.69622898101806641 0.75050200521945953
vt 0.95397502183914185 0.98784600012004375
vt 0.43677300214767456 0.51573801040649414
vt 0.42423298954963684 0.2671700119972229
vt 0.99299997091293335 0.787310004234314
vt 0.041358001530170441 0.00049901008605957031
vt 0.043039001524448395 0.0371590256690979
vt 0.35111299157142639 0.0028669834136962891
vt 0.04853999987244606 0.16053497791290283
vt 0.00817899964749813 0.00021499395370483398
vt 0.0079100001603364944 0.038779020309448242
vt 0.016964999958872795 0.00028598308563232422
vt 0.0068560000509023666 0.16254401206970215
vt 0.0072209998033940792 0.12288099527359009
vt 0.05392099916934967 0.28497302532196045
vt 0.00595899997279048 0.24059700965881348
vt 0.059640999883413315 0.40841102600097656
vt 0.064983002841472626 0.53176400065422058
vt 0.070414997637271881 0.65512099862098694
vt 0.0038729999214410782 0.53442099690437317
vt 0.0044990000315010548 0.46848297119140625
vt 0.0050659999251365662 0.41104298830032349
vt 0.0055229999125003815 0.33816200494766235
vt 0.0058789998292922974 0.28714102506637573
vt 0.0028049999382346869 0.65806901454925537
vt 0.0033499998971819878 0.5937480032444
vt 0.0028919999022036791 0.73024401068687439
vt 0.20235100388526917 0.77459000051021576
vt 0.44957798719406128 0.76299899816513062
vt 0.992808997631073 0.98617700021713972
vt 0.70860999822616577 0.99568099994212389
vt 0.707069993019104 0.99567400012165308
vt 0.95441800355911255 0.99925499997334555
vt 0.73346900939941406 0.99621800007298589
vt 0.99262601137161255 0.99978500000725035
vt 0.99123501777648926 0.99976900000183377
vt 0.45968499779701233 0.9955850001424551
vt 0.44439899921417236 0.995500999968499
vt 0.2119469940662384 0.99450200004503131
vt 0.0018210000125691295 0.992077000439167
vt 0.18294300138950348 0.99440999981015921
vt 0.0028180000372231007 0.829816997051239
vt 0.0030509999487549067 0.78281299769878387
vt 0.18903900682926178 0.99448500014841557
vn -0.07369299978017807 0.99490201473236084 0.068847000598907471
vn -0.02011599950492382 0.99295198917388916 0.11679700016975403
vn -0.022492000833153725 0.99314701557159424 0.11468599736690521
vn 0.026613000780344009 0.99931901693344116 0.025541000068187714
vn 0.015395999886095524 0.998989999294281 0.042220998555421829
vn 0.023749999701976776 0.999064028263092 0.036152999848127365
vn -0.0075590000487864017 0.99858599901199341 0.052618000656366348
vn -0.03287699818611145 0.994575023651123 0.098691001534461975
vn -0.0060649998486042023 0.99586397409439087 0.090654000639915466
vn 0.020856000483036041 0.99941802024841309 0.027008000761270523
vn 0.02796499989926815 0.999110996723175 0.031534001231193542
vn -0.044755998998880386 0.9958990216255188 0.078624002635478973
vn 0.061698999255895615 0.99792897701263428 0.018169999122619629
vn -0.038460001349449158 0.99842798709869385 0.040780998766422272
vn 0.067409001290798187 0.99772500991821289 0.001108999946154654
vn -0.033787999302148819 0.99407702684402466 0.10329300165176392
vn 0.02841000072658062 0.99747800827026367 0.065035998821258545
vn -0.014465999789536 0.99810397624969482 0.059829000383615494
vn -0.031904999166727066 0.99066001176834106 0.13256700336933136
vn -0.01578499935567379 0.99802601337432861 0.060782000422477722
vn -0.029493000358343124 0.999288022518158 0.023543000221252441
vn -0.036896999925374985 0.99598300457000732 0.081591002643108368
vn -0.039958000183105469 0.99763000011444092 0.056014999747276306
vn 0.00092999998014420271 0.999189019203186 0.040252000093460083
vn -0.10755100101232529 0.99123400449752808 0.076738998293876648
vn -0.025620000436902046 0.99867498874664307 0.044620998203754425
vn 0.0020530000329017639 0.9990990161895752 0.042380001395940781
vn -0.022171000018715858 0.999504029750824 0.022346999496221542
vn 0.047568000853061676 0.99763202667236328 0.049681998789310455
vn -0.02442299947142601 0.99747997522354126 0.066610999405384064
vn 0.0041789999231696129 0.997868001461029 0.065136000514030457
vn -0.02442299947142601 0.99747997522354126 0.066610999405384064
vn 0.0578560009598732 0.99535501003265381 0.076943002641201019
vn 0.035076998174190521 0.997107982635498 0.067426003515720367
vn 0.052313998341560364 0.99815201759338379 0.030913999304175377
vn 0.044707000255584717 0.99748599529266357 0.0549749992787838
vn 0.024705000221729279 0.99843800067901611 0.050103999674320221
vn 0.0045529999770224094 0.99813997745513916 0.06079300120472908
vn -0.06041400134563446 0.99510902166366577 0.078153997659683228
vn 0.0034950000699609518 0.99895501136779785 0.045579001307487488
vn 0.011916999705135822 0.9989359974861145 0.044544000178575516
vn 0.030347999185323715 0.9986720085144043 0.041618999093770981
vn 0.058696001768112183 0.99785798788070679 0.028883999213576317
vn 0.038302000612020493 0.99924099445343018 -0.0070620002225041389
vn -0.039367001503705978 0.99841797351837158 0.0401419997215271
vn -0.0060080001130700111 0.99901199340820312 0.044034000486135483
vn -0.10911499708890915 0.98988902568817139 0.090632997453212738
vn -0.0706460028886795 0.99455499649047852 0.076614998281002045
vn -0.00827299989759922 0.99902600049972534 0.043342001736164093
vn -0.055162999778985977 0.99583601951599121 0.072578996419906616
vn 0.019832000136375427 0.99751001596450806 0.067685998976230621
vn 0.02668599970638752 0.99944698810577393 0.019859999418258667
vn 0.0039989999495446682 0.9954950213432312 0.094724997878074646
vn 0.022254999727010727 0.99245697259902954 0.12055700272321701
vn 0.0026710000820457935 0.99756598472595215 0.06967800110578537
vn 0.0026720000896602869 0.99756598472595215 0.069673001766204834
vn 0.059099998325109482 0.99676001071929932 0.054556000977754593
vn 0.027084000408649445 0.999131977558136 0.031651001423597336
vn -0.074945002794265747 0.99704498052597046 0.016897000372409821
vn -0.059105001389980316 0.99182599782943726 0.11308299750089645
vn -0.067466996610164642 0.99211698770523071 0.10560599714517593
vn -0.067091003060340881 0.992106020450592 0.105942003428936
vn -0.095550999045372009 0.98992800712585449 0.1044590026140213
vn -0.0699860006570816 0.9921799898147583 0.1033490002155304
f 1/1/1 2/2/2 3/3/3
f 4/4/4 5/5/5 6/6/6
f 6/6/6 5/5/5 7/7/7
f 7/7/7 8/8/8 9/9/9
f 7/7/7 5/5/5 8/8/8
f 4/4/4 10/10/10 5/5/5
f 4/4/4 11/11/11 10/10/10
f 12/12/12 13/13/13 14/14/14
f 15/15/15 16/16/16 17/17/17
f 17/17/17 8/8/8 18/18/18
f 19/19/19 17/17/17 16/16/16
f 19/19/19 8/8/8 17/17/17
f 17/17/17 18/18/18 20/20/20
f 18/18/18 8/8/8 5/5/5
f 14/14/14 20/20/20 21/21/21
f 20/20/20 14/14/14 17/17/17
f 14/14/14 21/21/21 22/22/22
f 18/18/18 23/23/23 20/20/20
f 13/13/13 17/17/17 14/14/14
f 13/13/13 15/15/15 17/17/17
f 5/5/5 24/24/24 18/18/18
f 25/25/25 12/12/12 14/14/14
f 9/9/9 3/3/3 2/2/2
f 9/9/9 8/8/8 3/3/3
f 8/8/8 19/19/19 3/3/3
f 20/20/20 23/23/23 21/21/21
f 10/10/10 26/26/26 27/27/27
f 10/10/10 28/28/28 26/26/26
f 10/10/10 27/27/27 29/29/29
f 30/30/30 31/31/31 32/32/32
f 32/32/32 27/27/27 26/26/26
f 32/32/32 31/31/31 27/27/27
f 28/28/28 10/10/10 11/11/11
f 33/33/33 29/29/29 34/34/34
f 27/27/27 34/34/34 29/29/29
f 27/27/27 31/31/31 34/34/34
f 24/24/24 10/10/10 29/29/29
f 33/33/33 35/35/35 29/29/29
f 33/33/33 36/36/36 35/35/35
f 24/24/24 35/35/35 37/37/37
f 23/23/23 37/37/37 38/38/38
f 37/37/37 23/23/23 24/24/24
f 23/23/23 38/38/38 39/39/39
f 40/40/40 37/37/37 41/41/41
f 40/40/40 38/38/38 37/37/37
f 18/18/18 24/24/24 23/23/23
f 42/42/42 35/35/35 43/43/43
f 42/42/42 37/37/37 35/35/35
f 44/44/44 35/35/35 36/36/36
f 43/43/43 35/35/35 44/44/44
f 45/45/45 39/39/39 46/46/46
f 42/42/42 41/41/41 37/37/37
f 45/45/45 47/47/47 39/39/39
f 38/38/38 46/46/46 39/39/39
f 38/38/38 40/40/40 46/46/46
f 23/23/23 39/39/39 48/48/48
f 29/29/29 35/35/35 24/24/24
f 5/5/5 10/10/10 24/24/24
f 23/23/23 49/49/49 21/21/21
f 25/25/25 22/22/22 50/50/50
f 25/25/25 14/14/14 22/22/22
f 49/49/49 51/51/51 21/21/21
f 49/49/49 52/52/52 51/51/51
f 53/53/53 22/22/22 54/54/54
f 55/55/55 50/50/50 56/56/56
f 56/56/56 22/22/22 53/53/53
f 56/56/56 50/50/50 22/22/22
f 21/21/21 54/54/54 22/22/22
f 21/21/21 51/51/51 54/54/54
f 48/48/48 49/49/49 23/23/23
f 57/57/57 48/48/48 58/58/58
f 57/57/57 49/49/49 48/48/48
f 58/58/58 48/48/48 59/59/59
f 57/57/57 52/52/52 49/49/49
f 60/60/60 61/61/61 62/62/62
f 63/63/63 59/59/59 48/48/48
f 63/63/63 64/64/64 59/59/59
f 64/64/64 62/62/62 61/61/61
f 64/64/64 63/63/63 62/62/62
f 47/47/47 48/48/48 39/39/39
f 47/47/47 63/63/63 48/48/48
