mtllib m3233.mtl
usemtl material0
v 768 88.843666076660156 -2048
v 789.43377685546875 90.668159484863281 -2025.9384765625
v 788.3125 91.5904769897461 -2048
v 768 88.175018310546875 -2034.2642822265625
v 768 87.714073181152344 -2024.79541015625
v 768 76.106414794921875 -1960.751953125
v 792.73431396484375 77.334365844726562 -1962.062744140625
v 768 84.825149536132812 -2002.1251220703125
v 853.229736328125 85.52294921875 -2029.2882080078125
v 768 71.869232177734375 -1923.4781489372253
v 796.06689453125 70.221405029296875 -1898.2125244140625
v 916.2681884765625 85.374984741210938 -2048
v 917.0460205078125 84.342269897460938 -2032.6539306640625
v 858.4244384765625 86.647056579589844 -2048
v 856.6036376953125 86.437873840332031 -1965.4698486328125
v 920.396484375 80.730438232421875 -1968.8173828125
v 980.87567138671875 85.734542846679688 -2036.030029296875
v 923.74261474609375 76.293197631835938 -1904.9776611328125
v 845.917724609375 86.830810546875 -2048
v 859.91741943359375 75.723426818847656 -1901.60498046875
v 984.2156982421875 80.137893676757812 -1972.1854248046875
v 1024 84.1009292602539 -2048
v 984.19891357421875 86.485366821289062 -2048
v 1024 83.651077270507812 -2042.3314208984375
v 1024 83.3310317993164 -2038.29833984375
v 1024 81.480560302734375 -2016.4024658203125
v 1024 85.562736511230469 -1974.3067626953125
v 1024 77.408134460449219 -1936.3681640625
v 976.19744873046875 86.465950012207031 -2048
v 987.56939697265625 77.167915344238281 -1908.3516845703125
v 768 72.7520751953125 -1896.73974609375
v 768 71.683509826660156 -1867.01416015625
v 799.43975830078125 70.946426391601562 -1834.3936767578125
v 863.28399658203125 75.220939636230469 -1837.7811279296875
v 768 72.14044189453125 -1832.73779296875
v 801.68389892578125 72.095794677734375 -1792
v 768 73.035804748535156 -1801.9071044921875
v 779.0106201171875 72.922203063964844 -1792
v 768 72.7454605102539 -1811.9046630859375
v 768 71.899322509765625 -1792
v 822.09185791015625 73.487602233886719 -1792
v 865.693359375 73.83880615234375 -1792
v 927.1025390625 74.515342712402344 -1841.1488037109375
v 882.8818359375 73.621986389160156 -1792
v 1024 74.060867309570312 -1881.282470703125
v 990.91314697265625 72.286613464355469 -1844.5103759765625
v 1024 76.232429504394531 -1910.2720947265625
v 1024 70.4121322631836 -1846.250732421875
v 993.656982421875 67.0851821899414 -1792
v 981.664306640625 67.565315246582031 -1792
v 929.67919921875 71.192802429199219 -1792
v 1024 67.873703002929688 -1819.7623291015625
v 1004.4496459960938 66.419342041015625 -1792
v 1024 67.295448303222656 -1813.728271484375
v 1024 67.0329818725586 -1792
vt 0.0016449999529868364 0.043213009834289551
vt 0.0847100019454956 0.12163197994232178
vt 0.077565997838974 0.03997802734375
vt 0.0034829999785870314 0.094163000583648682
vt 0.0047510000877082348 0.129285991191864
vt 0.017813000828027725 0.37294101715087891
vt 0.10917100310325623 0.36261498928070068
vt 0.0069360001944005489 0.21398299932479858
vt 0.32144498825073242 0.10132098197937012
vt 0.025376999750733376 0.51181098818778992
vt 0.13049699366092682 0.6001569926738739
vt 0.55243200063705444 0.02338099479675293
vt 0.55698299407958984 0.075439989566802979
vt 0.33807599544525146 0.031149983406066895
vt 0.34729200601577759 0.33685600757598877
vt 0.58368301391601562 0.31129902601242065
vt 0.79302901029586792 0.053933978080749512
vt 0.60332798957824707 0.55619099736213684
vt 0.29173600673675537 0.032851994037628174
vt 0.367233008146286 0.5764180123806
vt 0.81942999362945557 0.28758001327514648
vt 0.95045602321624756 0.0011820197105407715
vt 0.80283498764038086 0.00884997844696045
vt 0.951649010181427 0.022229015827178955
vt 0.95212697982788086 0.03388601541519165
vt 0.95704102516174316 0.11520099639892578
vt 0.97509199380874634 0.28555399179458618
vt 0.97167998552322388 0.429377019405365
vt 0.77321797609329224 0.010518014430999756
vt 0.83952099084854126 0.53691300749778748
vt 0.028425000607967377 0.610945999622345
vt 0.0346359983086586 0.72104400396347046
vt 0.15430200099945068 0.83589999377727509
vt 0.38742101192474365 0.8125080019235611
vt 0.038093000650405884 0.84766300022602081
vt 0.17003899812698364 0.9925560001283884
vt 0.043490998446941376 0.96188300102949142
vt 0.086024999618530273 0.99661500006914139
vt 0.041740000247955322 0.92484500259161
vt 0.045088000595569611 0.99881799996364862
vt 0.24603499472141266 0.98895999975502491
vt 0.40189400315284729 0.98192699998617172
vt 0.62350302934646606 0.792383998632431
vt 0.46558898687362671 0.97987000085413456
vt 0.97787702083587646 0.63278099894523621
vt 0.85976600646972656 0.77322299778461456
vt 0.974386990070343 0.526183009147644
vt 0.98239302635192871 0.76327900588512421
vt 0.8761870265007019 0.96842300146818161
vt 0.83170801401138306 0.96967200003564358
vt 0.63923501968383789 0.97458199970424175
vt 0.985493004322052 0.86208200454711914
vt 0.91626101732254028 0.96735600009560585
vt 0.98622298240661621 0.88454300165176392
vt 0.98874002695083618 0.96506299823522568
vn -0.13385200500488281 0.98982900381088257 0.048183999955654144
vn -0.011638999916613102 0.99353498220443726 0.1129319965839386
vn -0.029360000044107437 0.99863302707672119 0.043242000043392181
vn -0.13385200500488281 0.98982900381088257 0.048183999955654144
vn -0.13136999309062958 0.98738300800323486 0.088416002690792084
vn -0.040617000311613083 0.986627995967865 0.15784400701522827
vn -0.053332999348640442 0.98866701126098633 0.14033399522304535
vn -0.058740001171827316 0.98046797513961792 0.18770399689674377
vn 0.020214999094605446 0.998645007610321 0.047945000231266022
vn -0.0082019995898008347 0.99721300601959229 0.074150003492832184
vn -0.019649999216198921 0.99901401996612549 0.03980100154876709
vn 0.0025359999854117632 0.9977489709854126 0.067014999687671661
vn 0.0099959997460246086 0.99857300519943237 0.0524509996175766
vn 0.018922999501228333 0.99769300222396851 0.06519000232219696
vn -0.042743001133203506 0.99631601572036743 0.074345998466014862
vn 0.0456559993326664 0.99706298112869263 0.06148499995470047
vn 0.022331999614834785 0.99696099758148193 0.07463199645280838
vn 0.0064509999938309193 0.99829798936843872 0.057966001331806183
vn 0.056559998542070389 0.99726402759552 0.047602001577615738
vn -0.0477290004491806 0.995639979839325 0.080140002071857452
vn -0.015746999531984329 0.99782001972198486 0.064093001186847687
vn 0.059615001082420349 0.99509298801422119 0.078970000147819519
vn 0.033918000757694244 0.996832013130188 0.071943998336791992
vn 0.059615001082420349 0.99509298801422119 0.078968003392219543
vn 0.05973299965262413 0.99488699436187744 0.081436000764369965
vn 0.013009999878704548 0.99903100728988647 0.042040999978780746
vn -0.13224600255489349 0.989890992641449 0.051245000213384628
vn -0.012064999900758266 0.99593102931976318 0.089304998517036438
vn -0.012151000089943409 0.997763991355896 0.065715998411178589
vn 0.017912000417709351 0.99820101261138916 0.057225998491048813
vn 0.089936003088951111 0.99594402313232422 0.0025919999461621046
vn 0.049989998340606689 0.99874800443649292 -0.0018329999875277281
vn -0.017674999311566353 0.99971699714660645 -0.015894999727606773
vn -0.022428000345826149 0.99962699413299561 0.015560000203549862
vn 0.036814998835325241 0.9990919828414917 -0.021431999281048775
vn -0.017597999423742294 0.99950301647186279 -0.026166999712586403
vn 0.00203699991106987 0.99995601177215576 0.0092019997537136078
vn 0.006318999920040369 0.999970018863678 0.0044439998455345631
vn 0.036409001797437668 0.99891597032547 -0.029009999707341194
vn -0.091903999447822571 0.98927998542785645 0.11348400264978409
vn -0.052055999636650085 0.99860298633575439 -0.0090300003066658974
vn 0.0026249999646097422 0.99954497814178467 0.030037999153137207
vn 0.028152000159025192 0.998278021812439 0.051454998552799225
vn 0.023073000833392143 0.99897599220275879 0.038917001336812973
vn 0.037043999880552292 0.995993971824646 0.081387996673583984
vn 0.046365998685359955 0.99497497081756592 0.0887409970164299
vn 0.028751000761985779 0.99782299995422363 0.059353001415729523
vn 0.061494998633861542 0.99314302206039429 0.099428996443748474
vn 0.05094899982213974 0.99409502744674683 0.0958079993724823
vn 0.046730998903512955 0.99495100975036621 0.088817000389099121
vn 0.060919001698493958 0.99607998132705688 0.064143002033233643
vn 0.061298001557588577 0.99356800317764282 0.095215000212192535
vn 0.036603998392820358 0.99665099382400513 0.073120996356010437
vn 0.039730999618768692 0.996321976184845 0.075921997427940369
vn -0.031369999051094055 0.99943500757217407 0.012071999721229076
f 1/1/1 2/2/2 3/3/3
f 1/1/1 4/4/4 2/2/2
f 4/4/4 5/5/5 2/2/2
f 2/2/2 6/6/6 7/7/7
f 2/2/2 8/8/8 6/6/6
f 8/8/8 2/2/2 5/5/5
f 7/7/7 9/9/9 2/2/2
f 7/7/7 10/10/10 11/11/11
f 7/7/7 6/6/6 10/10/10
f 12/12/12 9/9/9 13/13/13
f 12/12/12 14/14/14 9/9/9
f 15/15/15 9/9/9 7/7/7
f 13/13/13 15/15/15 16/16/16
f 15/15/15 13/13/13 9/9/9
f 16/16/16 17/17/17 13/13/13
f 16/16/16 15/15/15 18/18/18
f 19/19/19 9/9/9 14/14/14
f 3/3/3 9/9/9 19/19/19
f 3/3/3 2/2/2 9/9/9
f 15/15/15 7/7/7 20/20/20
f 21/21/21 17/17/17 16/16/16
f 22/22/22 23/23/23 24/24/24
f 24/24/24 17/17/17 25/25/25
f 24/24/24 23/23/23 17/17/17
f 26/26/26 21/21/21 27/27/27
f 21/21/21 25/25/25 17/17/17
f 21/21/21 26/26/26 25/25/25
f 27/27/27 21/21/21 28/28/28
f 29/29/29 17/17/17 23/23/23
f 12/12/12 17/17/17 29/29/29
f 12/12/12 13/13/13 17/17/17
f 21/21/21 16/16/16 30/30/30
f 31/31/31 32/32/32 11/11/11
f 20/20/20 11/11/11 33/33/33
f 7/7/7 11/11/11 20/20/20
f 20/20/20 33/33/33 34/34/34
f 35/35/35 11/11/11 32/32/32
f 35/35/35 33/33/33 11/11/11
f 31/31/31 11/11/11 10/10/10
f 36/36/36 37/37/37 38/38/38
f 36/36/36 39/39/39 37/37/37
f 39/39/39 33/33/33 35/35/35
f 39/39/39 36/36/36 33/33/33
f 40/40/40 38/38/38 37/37/37
f 41/41/41 42/42/42 34/34/34
f 41/41/41 33/33/33 36/36/36
f 41/41/41 34/34/34 33/33/33
f 18/18/18 20/20/20 34/34/34
f 42/42/42 43/43/43 34/34/34
f 42/42/42 44/44/44 43/43/43
f 18/18/18 43/43/43 30/30/30
f 45/45/45 30/30/30 46/46/46
f 45/45/45 47/47/47 30/30/30
f 28/28/28 30/30/30 47/47/47
f 28/28/28 21/21/21 30/30/30
f 45/45/45 46/46/46 48/48/48
f 46/46/46 30/30/30 43/43/43
f 30/30/30 16/16/16 18/18/18
f 49/49/49 43/43/43 50/50/50
f 49/49/49 46/46/46 43/43/43
f 51/51/51 43/43/43 44/44/44
f 51/51/51 50/50/50 43/43/43
f 49/49/49 48/48/48 46/46/46
f 49/49/49 52/52/52 48/48/48
f 52/52/52 53/53/53 54/54/54
f 52/52/52 49/49/49 53/53/53
f 34/34/34 43/43/43 18/18/18
f 18/18/18 15/15/15 20/20/20
f 54/54/54 53/53/53 55/55/55
