mtllib m3231.mtl
usemtl material0
v 801.68389892578125 72.095794677734375 -1792
v 779.0106201171875 72.922203063964844 -1792
v 802.81781005859375 72.676567077636719 -1770.5787353515625
v 768 69.229621887207031 -1768.727294921875
v 768 66.590850830078125 -1731.8902587890625
v 806.139892578125 63.528785705566406 -1706.720947265625
v 866.6431884765625 73.293930053710938 -1773.95166015625
v 768 71.899322509765625 -1792
v 768 70.755256652832031 -1782.02685546875
v 822.09185791015625 73.487602233886719 -1792
v 865.693359375 73.83880615234375 -1792
v 768 62.675437927246094 -1704.7037353515625
v 768 59.757316589355469 -1680.21240234375
v 809.4700927734375 55.9744873046875 -1642.8697509765625
v 882.8818359375 73.621986389160156 -1792
v 993.656982421875 67.0851821899414 -1792
v 981.664306640625 67.565315246582031 -1792
v 994.2493896484375 65.962242126464844 -1780.6634521484375
v 930.44927978515625 70.199722290039062 -1777.309814453125
v 869.988525390625 68.683158874511719 -1710.1116943359375
v 929.67919921875 71.192802429199219 -1792
v 933.8165283203125 69.824699401855469 -1713.4866943359375
v 997.61297607421875 64.892898559570312 -1716.837646484375
v 1024 66.915069580078125 -1782.2381591796875
v 1024 66.251640319824219 -1746.1636962890625
v 1004.4496459960938 66.419342041015625 -1792
v 937.1431884765625 61.635166168212891 -1649.6328134536743
v 873.31219482421875 59.887680053710938 -1646.255615234375
v 768 58.518241882324219 -1640.6890869140625
v 768 56.7017822265625 -1596.775390625
v 812.83148193359375 54.465244293212891 -1579.04248046875
v 876.63543701171875 51.016288757324219 -1582.3994140625
v 768 56.270454406738281 -1576.6815185546875
v 815.09588623046875 53.004508972167969 -1536
v 768 55.696624755859375 -1558.59716796875
v 793.09991455078125 53.926967620849609 -1536
v 768 55.877098083496094 -1564.2847900390625
v 768 53.34954833984375 -1536
v 834.89117431640625 51.902168273925781 -1536
v 879.0819091796875 50.464153289794922 -1536
v 940.4642333984375 52.3721809387207 -1585.775146484375
v 895.67871099710464 50.805316925048828 -1536
v 1000.9705200195313 62.6744270324707 -1653.00732421875
v 1024 64.158576965332031 -1718.2283935546875
v 1024 62.843040466308594 -1678.603759765625
v 1004.3047485351563 55.975357055664062 -1589.15966796875
v 1024 61.179851531982422 -1654.218017578125
v 1024 56.808731079101562 -1611.048828125
v 1007.0931396484375 52.6654167175293 -1536
v 995.78607177734375 52.066234588623047 -1536
v 943.0777587890625 49.76513671875 -1536
v 1024 56.881168365478516 -1590.2030029296875
v 1017.261474609375 53.098331451416016 -1536
v 1024 53.868194580078125 -1543.48828125
v 1024 67.0329818725586 -1792
v 1024 66.9979476928711 -1789.09912109375
v 1024 53.324039459228516 -1536
vt 0.12949299812316895 0.025170028209686279
vt 0.044057998806238174 0.0281980037689209
vt 0.1365399956703186 0.10571998357772827
vt 0.0051070000045001507 0.11812698841094971
vt 0.0098860003054142 0.25720101594924927
vt 0.15674400329589844 0.34827101230621338
vt 0.37650299072265625 0.085205018520355225
vt 0.0024270000867545605 0.029901981353759766
vt 0.0035749999806284904 0.067709982395172119
vt 0.2065269947052002 0.022651970386505127
vt 0.37073400616645813 0.017319023609161377
vt 0.01334299985319376 0.36079597473144531
vt 0.016318999230861664 0.45368397235870361
vt 0.17674699425697327 0.590036004781723
vt 0.43547201156616211 0.015257000923156738
vt 0.85338801145553589 0.0027070045471191406
vt 0.80818802118301392 0.0041509866714477539
vt 0.85715699195861816 0.045524001121520996
vt 0.6166989803314209 0.0651329755783081
vt 0.39739599823951721 0.32580101490020752
vt 0.61195999383926392 0.0099620223045349121
vt 0.63737702369689941 0.30506497621536255
vt 0.878216028213501 0.28812301158905029
vt 0.96927201747894287 0.038366019725799561
vt 0.97388201951980591 0.17423802614212036
vt 0.89411401748657227 0.0014899969100952148
vt 0.65715599060058594 0.54758399724960327
vt 0.41710099577903748 0.56820300221443176
vt 0.020634999498724937 0.60261699557304382
vt 0.025692999362945557 0.76814599335193634
vt 0.19810600578784943 0.82998600602149963
vt 0.43679898977279663 0.81064499914646149
vt 0.029464999213814735 0.84483599662780762
vt 0.21257099509239197 0.99184099957346916
vt 0.031957000494003296 0.91296599805355072
vt 0.12966999411582947 0.99476299993693829
vt 0.031173000112175941 0.89153899997472763
vt 0.035144001245498657 0.9985099999466911
vt 0.28619900345802307 0.98981400020420551
vt 0.451557993888855 0.98510800022631884
vt 0.67682802677154541 0.790241003036499
vt 0.514074981212616 0.98310800082981586
vt 0.89725297689437866 0.52835699915885925
vt 0.97751301527023315 0.28034001588821411
vt 0.98147702217102051 0.42967301607131958
vt 0.91718101501464844 0.76924900710582733
vt 0.98403501510620117 0.52122798562049866
vt 0.98902499675750732 0.68464300036430359
vt 0.93385499715805054 0.96952199935913086
vt 0.891215980052948 0.97097799926996231
vt 0.69263201951980591 0.977640999481082
vt 0.9913250207901001 0.763155996799469
vt 0.97218197584152222 0.96824000030756
vt 0.99672198295593262 0.93913599848747253
vt 0.96899199485778809 0.0015829801559448242
vt 0.968999981880188 0.012513995170593262
vt 0.99757301807403564 0.96741300076246262
vn -0.014055999927222729 0.99955397844314575 -0.026356000453233719
vn -0.062116999179124832 0.99482202529907227 0.080443002283573151
vn -0.030734000727534294 0.99679702520370483 0.073836997151374817
vn -0.093285001814365387 0.99142700433731079 0.091494001448154449
vn -0.033204000443220139 0.99146497249603271 0.12607599794864655
vn -0.033351000398397446 0.99159198999404907 0.12503199279308319
vn 0.0092660002410411835 0.997901976108551 0.064078003168106079
vn -0.091903999447822571 0.98927998542785645 0.11348500102758408
vn -0.091903999447822571 0.98927998542785645 0.11348400264978409
vn -0.024064000695943832 0.99957901239395142 0.016193000599741936
vn 0.0019330000504851341 0.99954599142074585 0.030074000358581543
vn -0.015305999666452408 0.99139600992202759 0.12999899685382843
vn 0.0050369999371469021 0.9954410195350647 0.095245003700256348
vn -0.0095650004222989082 0.99794900417327881 0.063295997679233551
vn 0.041292998939752579 0.9976159930229187 0.055286001414060593
vn 0.050170999020338058 0.99413001537323 0.095852002501487732
vn 0.062561996281147 0.99549001455307007 0.071317002177238464
vn 0.02770099975168705 0.99881899356842041 0.0399169996380806
vn 0.0512549988925457 0.99779301881790161 0.042226001620292664
vn -0.036699999123811722 0.99464201927185059 0.0966470018029213
vn 0.060283999890089035 0.99611598253250122 0.064179003238677979
vn 0.031647000461816788 0.99730402231216431 0.066206000745296478
vn 0.035567000508308411 0.99844098091125488 0.043007999658584595
vn -0.031207999214529991 0.99939900636672974 0.015119000338017941
vn -0.0164209995418787 0.99936801195144653 0.031527001410722733
vn -0.0065629999153316021 0.99938702583312988 0.034391000866889954
vn -0.0015539999585598707 0.992231011390686 0.12439499795436859
vn -0.025732999667525291 0.992218017578125 0.12182299792766571
vn 0.063092000782489777 0.99734300374984741 0.03641900047659874
vn 0.046491999179124832 0.99857801198959351 0.026071999222040176
vn 0.034871999174356461 0.998537003993988 0.041317999362945557
vn 0.016883999109268188 0.99685800075531006 0.077390000224113464
vn 0.0416250005364418 0.99877601861953735 0.026732999831438065
vn 0.0489640012383461 0.99831002950668335 0.031304001808166504
vn 0.024654999375343323 0.99840402603149414 0.050802998244762421
vn 0.026740999892354012 0.99846601486206055 0.048491001129150391
vn 0.041880000382661819 0.99861997365951538 0.031686998903751373
vn -0.02287600003182888 0.994388997554779 0.10328300297260284
vn 0.049428001046180725 0.99845397472381592 0.025405999273061752
vn 0.005096999928355217 0.99991899728775024 0.011629999615252018
vn -0.022636000066995621 0.99564498662948608 0.090430997312068939
vn -0.0092139998450875282 0.999688982963562 0.023178000003099442
vn 0.018719000741839409 0.99677002429962158 0.078092999756336212
vn 0.030652999877929688 0.99803698062896729 0.054609000682830811
vn 0.038586001843214035 0.99840199947357178 0.041292998939752579
vn -0.033498000353574753 0.99689501523971558 0.0712599977850914
vn 0.06891699880361557 0.99410402774810791 0.083717003464698792
vn 0.042743001133203506 0.99616199731826782 0.076384998857975
vn -0.0474650003015995 0.99678498506546021 0.064553998410701752
vn -0.050643999129533768 0.99676501750946045 0.062415000051259995
vn -0.011905999854207039 0.998528003692627 0.052925001829862595
vn -0.044376000761985779 0.99858599901199341 0.029262999072670937
vn -0.0400330014526844 0.99698501825332642 0.066473998129367828
vn -0.040341001003980637 0.996990978717804 0.0661970004439354
vn -0.031369999051094055 0.99943500757217407 0.012070000171661377
vn -0.031369999051094055 0.99943500757217407 0.012071999721229076
vn -0.033387999981641769 0.99681401252746582 0.072435997426509857
f 1/1/1 2/2/2 3/3/3
f 4/4/4 5/5/5 3/3/3
f 3/3/3 6/6/6 7/7/7
f 8/8/8 3/3/3 2/2/2
f 8/8/8 9/9/9 3/3/3
f 9/9/9 4/4/4 3/3/3
f 10/10/10 7/7/7 11/11/11
f 10/10/10 3/3/3 7/7/7
f 12/12/12 3/3/3 5/5/5
f 12/12/12 6/6/6 3/3/3
f 10/10/10 1/1/1 3/3/3
f 6/6/6 13/13/13 14/14/14
f 6/6/6 12/12/12 13/13/13
f 11/11/11 7/7/7 15/15/15
f 16/16/16 17/17/17 18/18/18
f 19/19/19 7/7/7 20/20/20
f 21/21/21 7/7/7 19/19/19
f 21/21/21 15/15/15 7/7/7
f 19/19/19 20/20/20 22/22/22
f 20/20/20 7/7/7 6/6/6
f 22/22/22 23/23/23 18/18/18
f 22/22/22 18/18/18 19/19/19
f 21/21/21 18/18/18 17/17/17
f 21/21/21 19/19/19 18/18/18
f 23/23/23 24/24/24 18/18/18
f 23/23/23 25/25/25 24/24/24
f 16/16/16 18/18/18 26/26/26
f 22/22/22 20/20/20 27/27/27
f 20/20/20 6/6/6 28/28/28
f 29/29/29 30/30/30 14/14/14
f 28/28/28 14/14/14 31/31/31
f 6/6/6 14/14/14 28/28/28
f 28/28/28 31/31/31 32/32/32
f 33/33/33 14/14/14 30/30/30
f 33/33/33 31/31/31 14/14/14
f 29/29/29 14/14/14 13/13/13
f 34/34/34 35/35/35 36/36/36
f 34/34/34 37/37/37 35/35/35
f 37/37/37 31/31/31 33/33/33
f 37/37/37 34/34/34 31/31/31
f 38/38/38 36/36/36 35/35/35
f 39/39/39 40/40/40 32/32/32
f 39/39/39 31/31/31 34/34/34
f 39/39/39 32/32/32 31/31/31
f 27/27/27 28/28/28 32/32/32
f 40/40/40 41/41/41 32/32/32
f 40/40/40 42/42/42 41/41/41
f 27/27/27 41/41/41 43/43/43
f 43/43/43 23/23/23 27/27/27
f 43/43/43 44/44/44 23/23/23
f 43/43/43 45/45/45 44/44/44
f 46/46/46 47/47/47 43/43/43
f 46/46/46 48/48/48 47/47/47
f 46/46/46 43/43/43 41/41/41
f 20/20/20 28/28/28 27/27/27
f 49/49/49 41/41/41 50/50/50
f 49/49/49 46/46/46 41/41/41
f 42/42/42 51/51/51 41/41/41
f 50/50/50 41/41/41 51/51/51
f 52/52/52 53/53/53 54/54/54
f 52/52/52 46/46/46 53/53/53
f 46/46/46 49/49/49 53/53/53
f 32/32/32 41/41/41 27/27/27
f 22/22/22 27/27/27 23/23/23
f 55/55/55 26/26/26 56/56/56
f 56/56/56 18/18/18 24/24/24
f 56/56/56 26/26/26 18/18/18
f 44/44/44 25/25/25 23/23/23
f 52/52/52 48/48/48 46/46/46
f 57/57/57 54/54/54 53/53/53
f 47/47/47 45/45/45 43/43/43
