mtllib m3303.mtl
usemtl material0
v 1327.1280517578125 59.232246398925781 -1536
v 1280 55.213691711425781 -1475.717529296875
v 1330.173583984375 59.950809478759766 -1478.3841552734375
v 1280 55.116722106933594 -1488.7159423828125
v 1321.2188720703125 58.671989440917969 -1536
v 1280 55.1057014465332 -1490.193359375
v 1280 58.299465179443359 -1536
v 1382.003173828125 55.770576477050781 -1536
v 1393.9774169921875 56.551300048828125 -1481.7413330078125
v 1333.507080078125 53.237384796142578 -1414.5367431640625
v 1280 53.782657623291016 -1462.68115234375
v 1280 52.396888732910156 -1355.066650390625
v 1280 49.329891204833984 -1411.6971440315247
v 1280 52.035926818847656 -1347.70751953125
v 1336.85888671875 49.976291656494141 -1350.702880859375
v 1280 42.793540954589844 -1283.675537109375
v 1340.1995849609375 44.637382507324219 -1286.8612060546875
v 1280 43.120277404785156 -1287.519775390625
v 1400.6777338981628 49.424381256103516 -1354.0711669921875
v 1340.559326171875 44.183292388916016 -1280
v 1280 42.767219543457031 -1283.2862548828125
v 1280.238037109375 42.551509857177734 -1280
v 1280 42.559551239013672 -1280.2142333984375
v 1397.3509521484375 57.375801086425781 -1417.923095703125
v 1280 42.534408569335938 -1280
v 1394.8121337890625 42.649784088134766 -1280
v 1404.0128169059753 43.051311492919922 -1290.2254638671875
v 1391.106201171875 55.297943115234375 -1536
v 1442.79248046875 55.601837158203125 -1536
v 1455.10595703125 55.278480529785156 -1536
v 1457.79052734375 54.896156311035156 -1485.1053466796875
v 1503.585205078125 57.292160034179688 -1536
v 1461.1285400390625 49.060153961181641 -1421.261474609375
v 1536 57.3232536315918 -1536
v 1521.6092529296875 54.290565490722656 -1488.473388671875
v 1536 55.439052581787109 -1504.4659423828125
v 1519.115966796875 57.096927642822266 -1536
v 1536 54.227729797363281 -1489.233154296875
v 1536 53.019035339355469 -1475.51513671875
v 1524.9517822265625 49.325153350830078 -1424.6328125
v 1464.503173828125 50.102684020996094 -1357.444091796875
v 1467.8773193359375 51.053188323974609 -1293.62646484375
v 1468.58251953125 48.493087768554688 -1280
v 1455.613037109375 48.686466217041016 -1280
v 1516.3905029296875 42.4745979309082 -1280
v 1531.6593017578125 43.629875183105469 -1296.968505859375
v 1404.5494379997253 42.462455749511719 -1280
v 1528.2967529296875 44.833133697509766 -1360.7943115234375
v 1536 49.157463073730469 -1425.2156982421875
v 1536 45.281967163085938 -1369.3553466796875
v 1536 44.668643951416016 -1361.200439453125
v 1536 43.892005920410156 -1353.8555908203125
v 1532.5618896484375 44.851310729980469 -1280
v 1536 43.153495788574219 -1297.196044921875
v 1536 43.296730041503906 -1295.3502197265625
v 1536 44.487972259521484 -1280
vt 0.023865999653935432 0.82199500501155853
vt 0.25561898946762085 0.99127400014549494
vt 0.23914399743080139 0.80296899378299713
vt 0.20696200430393219 0.99298299988731742
vt 0.024630999192595482 0.84421400725841522
vt 0.201432004570961 0.99317699996754527
vt 0.029531000182032585 0.99852699995972216
vt 0.016405999660491943 0.61618798971176147
vt 0.22204999625682831 0.56393399834632874
vt 0.479220986366272 0.7845579981803894
vt 0.30472499132156372 0.99007199984043837
vt 0.70862501859664917 0.977335000410676
vt 0.49634599685668945 0.98505300004035234
vt 0.73359900712966919 0.97982699982821941
vt 0.71830499172210693 0.766976997256279
vt 0.97473502159118652 0.97517500072717667
vt 0.95797598361968994 0.74990001320838928
vt 0.96141999959945679 0.97412800043821335
vt 0.7009509801864624 0.52248299121856689
vt 0.98369902372360229 0.7480509877204895
vt 0.97619599103927612 0.97514699958264828
vt 0.98851197957992554 0.974014999344945
vt 0.98772698640823364 0.97492199949920177
vt 0.46070799231529236 0.545309990644455
vt 0.98853397369384766 0.97490900009870529
vt 0.98030298948287964 0.54482001066207886
vt 0.94072097539901733 0.50196701288223267
vt 0.019208999350667 0.58106899261474609
vt 0.013152999803423882 0.38757002353668213
vt 0.011872000060975552 0.34140300750732422
vt 0.20209099352359772 0.325344979763031
vt 0.0060789999552071095 0.15976101160049439
vt 0.44166299700737 0.30483901500701904
vt 0.0017569999909028411 0.038599014282226562
vt 0.18174299597740173 0.086835980415344238
vt 0.12001899629831314 0.034856975078582764
vt 0.0038079998921602964 0.10180997848510742
vt 0.17712999880313873 0.033056974411010742
vt 0.22868099808692932 0.031333982944488525
vt 0.42103001475334167 0.06634598970413208
vt 0.6801450252532959 0.28398501873016357
vt 0.91848301887512207 0.26158297061920166
vt 0.97033101320266724 0.25763601064682007
vt 0.97141999006271362 0.30620598793029785
vt 0.96361798048019409 0.075527012348175049
vt 0.89704602956771851 0.021706998348236084
vt 0.9837149977684021 0.50850200653076172
vt 0.6599850058555603 0.044753015041351318
vt 0.4175260066986084 0.025050997734069824
vt 0.62681597471237183 0.017126023769378662
vt 0.65742498636245728 0.015968024730682373
vt 0.68346798419952393 0.014730989933013916
vt 0.96043401956558228 0.014389991760253906
vt 0.89549899101257324 0.0054020285606384277
vt 0.90242898464202881 0.0051649808883666992
vt 0.95951700210571289 0.0014730095863342285
vn -0.018418999388813972 0.99976402521133423 -0.011494999751448631
vn -0.091081000864505768 0.99444001913070679 0.052841998636722565
vn -0.016621999442577362 0.99882501363754272 0.045533999800682068
vn -0.094384998083114624 0.99550801515579224 -0.0074260002002120018
vn -0.071700997650623322 0.99734002351760864 0.013128999620676041
vn -0.0745759978890419 0.997160017490387 0.010526999831199646
vn -0.00901500042527914 0.99753797054290771 0.0695509985089302
vn 0.0547959990799427 0.99822998046875 -0.023133000358939171
vn 0.03463900089263916 0.999330997467041 0.011769000440835953
vn -0.040539000183343887 0.9979739785194397 0.049042001366615295
vn -0.0824349969625473 0.99127602577209473 0.1028439998626709
vn 0.012024000287055969 0.99961602687835693 0.024946000427007675
vn -0.072085000574588776 0.99730002880096436 0.014050999656319618
vn 0.0412449985742569 0.99420201778411865 0.099306002259254456
vn 0.00936300028115511 0.99641197919845581 0.084118001163005829
vn -0.026522999629378319 0.99677401781082153 0.0757490023970604
vn -0.00084100000094622374 0.99704998731613159 0.076756000518798828
vn -0.0098660001531243324 0.99502897262573242 0.099092997610569
vn 0.023324999958276749 0.99559402465820312 0.090819999575614929
vn 0.0015259999781847 0.99782097339630127 0.065958000719547272
vn -0.026980999857187271 0.99735897779464722 0.067428998649120331
vn -0.037374000996351242 0.99617999792099 0.078922003507614136
vn -0.038814999163150787 0.99599701166152954 0.08051300048828125
vn 0.043618999421596527 0.998088002204895 0.043799001723527908
vn -0.071171998977661133 0.9906650185585022 0.11626499891281128
vn 0.025792999193072319 0.99771898984909058 0.062385998666286469
vn -0.033231001347303391 0.9971960186958313 0.067045003175735474
vn 0.023948999121785164 0.9994170069694519 -0.0243539996445179
vn 0.017681000754237175 0.99984198808670044 -0.001588999992236495
vn -0.0064940000884234905 0.99994802474975586 0.0078539997339248657
vn 0.012369000352919102 0.99849599599838257 0.053415998816490173
vn -0.0018690000288188458 0.99896997213363647 0.045347999781370163
vn 0.034331001341342926 0.99860298633575439 0.04016600176692009
vn -0.013380000367760658 0.99813002347946167 0.059640001505613327
vn 0.009433000348508358 0.99738198518753052 0.071696996688842773
vn -0.0082769999280571938 0.997901976108551 0.064214996993541718
vn 1.5999999959603883E-05 0.9982609748840332 0.058945000171661377
vn 0.00875299982726574 0.99647998809814453 0.08337700366973877
vn 0.016459999606013298 0.99669700860977173 0.079521998763084412
vn 0.021374000236392021 0.99774301052093506 0.063648000359535217
vn 0.011242000386118889 0.99989700317382812 0.0089469999074935913
vn 0.010875999927520752 0.99730497598648071 0.072550997138023376
vn 0.071071997284889221 0.98098099231719971 0.18062600493431091
vn -0.084669999778270721 0.991769015789032 0.096050001680850983
vn 0.051656000316143036 0.9921339750289917 0.11402899771928787
vn 0.080263003706932068 0.99677199125289917 0.0016540000215172768
vn -0.053102001547813416 0.99677401781082153 0.060187999159097672
vn 0.068752996623516083 0.99645900726318359 0.048397999256849289
vn 0.018984999507665634 0.99715197086334229 0.072985999286174774
vn 0.020292999222874641 0.99730199575424194 0.070546001195907593
vn 0.025983000174164772 0.99564200639724731 0.089570000767707825
vn 0.087828002870082855 0.99542897939682007 0.0375090017914772
vn -0.015969999134540558 0.99735301733016968 -0.070942997932434082
vn 0.107464998960495 0.99374300241470337 -0.030431000515818596
vn 0.10478299856185913 0.99151402711868286 -0.076943002641201019
vn 0.10478299856185913 0.99151402711868286 -0.076945997774600983
f 1/1/1 2/2/2 3/3/3
f 1/1/1 4/4/4 2/2/2
f 4/4/4 5/5/5 6/6/6
f 4/4/4 1/1/1 5/5/5
f 7/7/7 6/6/6 5/5/5
f 1/1/1 3/3/3 8/8/8
f 9/9/9 3/3/3 10/10/10
f 2/2/2 10/10/10 3/3/3
f 2/2/2 11/11/11 10/10/10
f 12/12/12 10/10/10 13/13/13
f 13/13/13 10/10/10 11/11/11
f 10/10/10 14/14/14 15/15/15
f 10/10/10 12/12/12 14/14/14
f 15/15/15 16/16/16 17/17/17
f 15/15/15 18/18/18 16/16/16
f 17/17/17 19/19/19 15/15/15
f 18/18/18 15/15/15 14/14/14
f 16/16/16 20/20/20 17/17/17
f 16/16/16 21/21/21 20/20/20
f 21/21/21 22/22/22 20/20/20
f 21/21/21 23/23/23 22/22/22
f 10/10/10 15/15/15 24/24/24
f 25/25/25 22/22/22 23/23/23
f 17/17/17 26/26/26 27/27/27
f 17/17/17 20/20/20 26/26/26
f 8/8/8 9/9/9 28/28/28
f 8/8/8 3/3/3 9/9/9
f 28/28/28 9/9/9 29/29/29
f 30/30/30 31/31/31 32/32/32
f 31/31/31 29/29/29 9/9/9
f 31/31/31 30/30/30 29/29/29
f 31/31/31 9/9/9 33/33/33
f 34/34/34 35/35/35 36/36/36
f 34/34/34 37/37/37 35/35/35
f 35/35/35 32/32/32 31/31/31
f 35/35/35 37/37/37 32/32/32
f 38/38/38 36/36/36 35/35/35
f 38/38/38 35/35/35 39/39/39
f 35/35/35 31/31/31 40/40/40
f 15/15/15 19/19/19 24/24/24
f 24/24/24 19/19/19 33/33/33
f 41/41/41 19/19/19 27/27/27
f 19/19/19 41/41/41 33/33/33
f 33/33/33 41/41/41 40/40/40
f 41/41/41 27/27/27 42/42/42
f 33/33/33 9/9/9 24/24/24
f 17/17/17 27/27/27 19/19/19
f 43/43/43 42/42/42 44/44/44
f 42/42/42 45/45/45 46/46/46
f 42/42/42 43/43/43 45/45/45
f 27/27/27 44/44/44 42/42/42
f 27/27/27 47/47/47 44/44/44
f 48/48/48 41/41/41 42/42/42
f 26/26/26 47/47/47 27/27/27
f 48/48/48 40/40/40 41/41/41
f 49/49/49 48/48/48 50/50/50
f 49/49/49 40/40/40 48/48/48
f 51/51/51 50/50/50 48/48/48
f 49/49/49 35/35/35 40/40/40
f 49/49/49 39/39/39 35/35/35
f 51/51/51 48/48/48 52/52/52
f 53/53/53 46/46/46 45/45/45
f 54/54/54 46/46/46 55/55/55
f 55/55/55 53/53/53 56/56/56
f 55/55/55 46/46/46 53/53/53
f 46/46/46 52/52/52 48/48/48
f 46/46/46 54/54/54 52/52/52
f 46/46/46 48/48/48 42/42/42
f 40/40/40 31/31/31 33/33/33
f 10/10/10 24/24/24 9/9/9
