mtllib m3302.mtl
usemtl material0
v 1024 47.190788269042969 -1475.93505859375
v 1071.4874267578125 54.384342193603516 -1528.702392578125
v 1024 52.611038208007812 -1526.188232421875
v 1135.09716796875 53.503746032714844 -1536
v 1130.9381103515625 53.743888854980469 -1536
v 1135.3040771484375 53.384620666503906 -1532.0689697265625
v 1024 45.588138580322266 -1462.1636962890625
v 1074.818115234375 47.0275993347168 -1464.8525390625
v 1138.6416015625 47.366230010986328 -1468.2242431640625
v 1199.107666015625 49.932083129882812 -1535.4259033203125
v 1071.10498046875 54.901832580566406 -1536
v 1138.84130859375 53.627788543701172 -1536
v 1199.0777587890625 50.000511169433594 -1536
v 1078.16748046875 43.262351989746094 -1401.0168461799622
v 1024 44.840427398681641 -1449.7642822265625
v 1024 53.258140563964844 -1535.0931396484375
v 1024 53.324039459228516 -1536
v 1199.6243896484375 50.017559051513672 -1536
v 1260.427734375 57.821994781494141 -1536
v 1202.4559326171875 45.963455200195312 -1471.5892333984375
v 1209.8822021484375 51.351016998291016 -1536
v 1263.1221923828125 58.146930694580078 -1536
v 1266.3197021484375 53.922069549560547 -1474.9903564453125
v 1280 55.116722106933594 -1488.7159423828125
v 1280 55.213691711425781 -1475.717529296875
v 1280 55.1057014465332 -1490.193359375
v 1280 58.299465179443359 -1536
v 1269.6605224609375 48.574825286865234 -1411.1484379768372
v 1205.8160400390625 44.267498016357422 -1407.7614749968052
v 1141.9915771484375 43.731349945068359 -1404.3890380859375
v 1280 53.782657623291016 -1462.68115234375
v 1024 41.571830749511719 -1398.1501455307007
v 1024 41.260330200195312 -1340.8148193359375
v 1081.521728515625 40.405548095703125 -1337.1846923828125
v 1145.3416748046875 40.103076934814453 -1340.553955078125
v 1024 40.966232299804688 -1334.1490478515625
v 1084.5220947265625 37.018619537353516 -1280
v 1024 40.6148567199707 -1328.148193359375
v 1077.4832763671875 37.108978271484375 -1280
v 1024 40.649822235107422 -1328.745361328125
v 1024 37.252239227294922 -1280
v 1090.8553466796875 36.968936920166016 -1280
v 1148.5183110237122 36.443897247314453 -1280
v 1209.18212890625 43.679203033447266 -1343.93798828125
v 1151.6439209878445 36.608512878417969 -1280
v 1280 52.396888732910156 -1355.066650390625
v 1273.04931640625 52.287704467773438 -1347.3414306640625
v 1280 49.329891204833984 -1411.6971440315247
v 1280 52.035926818847656 -1347.70751953125
v 1276.3675537109375 42.682281494140625 -1283.4833984375
v 1212.435791015625 38.075759887695312 -1280
v 1212.521728515625 38.081993103027344 -1280.095458984375
v 1210.7177734375 38.030094146728516 -1280
v 1212.5267333984375 38.074775695800781 -1280
v 1280 43.120277404785156 -1287.519775390625
v 1280 42.793540954589844 -1283.675537109375
v 1276.54931640625 42.286575317382812 -1280
v 1212.627685546875 38.077804565429688 -1280
v 1280 42.767219543457031 -1283.2862548828125
v 1280 42.559551239013672 -1280.2142333984375
v 1280 42.534408569335938 -1280
vt 0.0029579999390989542 0.24399197101593018
vt 0.18351200222969055 0.03761601448059082
vt 0.0010900000343099237 0.0495380163192749
vt 0.42766401171684265 0.00766301155090332
vt 0.41170701384544373 0.0078629851341247559
vt 0.42858600616455078 0.022863984107971191
vt 0.00317499996162951 0.29704999923706055
vt 0.19855800271034241 0.28470402956008911
vt 0.44389098882675171 0.269432008266449
vt 0.67420798540115356 0.0086470246315002441
vt 0.18184000253677368 0.0094640254974365234
vt 0.44202101230621338 0.007534027099609375
vt 0.67407399415969849 0.0064299702644348145
vt 0.21349899470806122 0.53043299913406372
vt 0.0037130001001060009 0.3446890115737915
vt 0.00072900002123788 0.015169978141784668
vt 0.00072100001852959394 0.011677026748657227
vt 0.67619401216506958 0.0064100027084350586
vt 0.91216599941253662 0.0025820136070251465
vt 0.68918001651763916 0.2545660138130188
vt 0.71599501371383667 0.0057280063629150391
vt 0.92255997657775879 0.0024139881134033203
vt 0.93641000986099243 0.23773998022079468
vt 0.988618016242981 0.18444198369979858
vt 0.98922401666641235 0.23442602157592773
vt 0.98863798379898071 0.17872202396392822
vt 0.98736602067947388 0.0020840167999267578
vt 0.950203001499176 0.48421001434326172
vt 0.70427197217941284 0.50007998943328857
vt 0.45892998576164246 0.51521998643875122
vt 0.98925697803497314 0.28488701581954956
vt 0.0051199998706579208 0.54343199729919434
vt 0.0072169997729361057 0.76386399567127228
vt 0.22854000329971314 0.77588899433612823
vt 0.47392800450325012 0.76106099784374237
vt 0.0072699999436736107 0.78939400613307953
vt 0.2417680025100708 0.99598400015383959
vt 0.0075520002283155918 0.81242799758911133
vt 0.21473599970340729 0.99609600007534027
vt 0.0075059998780488968 0.81014899909496307
vt 0.0090380003675818443 0.99791599996387959
vt 0.26611199975013733 0.99582399986684322
vt 0.48782798647880554 0.99415400018915534
vt 0.71978700160980225 0.74541398882865906
vt 0.4998529851436615 0.994005000218749
vt 0.99375402927398682 0.69956099987030029
vt 0.96750998497009277 0.72928598523139954
vt 0.99010401964187622 0.48166602849960327
vt 0.99430400133132935 0.72791600227355957
vt 0.97919702529907227 0.97718000039458275
vt 0.73340499401092529 0.99233599985018373
vt 0.73373401165008545 0.9919659998267889
vt 0.72681498527526855 0.99237299989908934
vt 0.73375499248504639 0.99233399983495474
vt 0.99324798583984375 0.96172000095248222
vt 0.99318999052047729 0.97657199949026108
vt 0.97990602254867554 0.990663000382483
vt 0.734142005443573 0.99232999980449677
vt 0.993149995803833 0.9780850000679493
vt 0.9930729866027832 0.98977699968963861
vt 0.993270993232727 0.990671000443399
vn -0.024198999628424644 0.9932289719581604 0.11362499743700028
vn -0.00482399994507432 0.99577200412750244 0.091727003455162048
vn -0.032382000237703323 0.99537497758865356 0.090443000197410584
vn 0.013803999871015549 0.99946802854537964 0.0295609999448061
vn 0.028240999206900597 0.99780899286270142 0.059827998280525208
vn 0.030284000560641289 0.99639898538589478 0.079193003475666046
vn -0.023610999807715416 0.995934009552002 0.086932003498077393
vn -0.0099520003423094749 0.996383011341095 0.084397003054618835
vn 0.012066000141203404 0.99768197536468506 0.066976003348827362
vn -0.026420999318361282 0.99611800909042358 0.083971001207828522
vn -0.0079140001907944679 0.99743497371673584 0.071144998073577881
vn 0.034968998283147812 0.99505001306533813 0.093019001185894012
vn 0.01593099907040596 0.99294298887252808 0.11752200126647949
vn -0.011268000118434429 0.99880099296569824 0.0476440005004406
vn -0.025803999975323677 0.99780601263046265 0.060975000262260437
vn -0.033387999981641769 0.99681401252746582 0.072435997426509857
vn -0.033388998359441757 0.99681401252746582 0.072434999048709869
vn -0.10293000191450119 0.993153989315033 0.055224999785423279
vn -0.12132199853658676 0.989920973777771 0.073059000074863434
vn -0.041733000427484512 0.99764800071716309 0.054379001259803772
vn -0.12672799825668335 0.98963397741317749 0.067556999623775482
vn -0.065981000661849976 0.9951930046081543 0.072374001145362854
vn -0.091969996690750122 0.99306100606918335 0.073293000459671021
vn -0.094384998083114624 0.99550801515579224 -0.0074260002002120018
vn -0.091325998306274414 0.99463498592376709 0.04858500137925148
vn -0.029004000127315521 0.99824601411819458 0.051619000732898712
vn -0.0090159997344017029 0.99753797054290771 0.0695509985089302
vn -0.08456999808549881 0.99624699354171753 0.0184090007096529
vn -0.038444001227617264 0.99882102012634277 0.02964399941265583
vn -0.0031570000573992729 0.99844199419021606 0.055713001638650894
vn -0.0732709988951683 0.9929959774017334 0.09267900139093399
vn -0.029415000230073929 0.99901199340820312 0.033326998353004456
vn 0.0020419999491423368 0.99938297271728516 0.03507100045681
vn 0.0085220001637935638 0.99855899810791016 0.052976999431848526
vn -0.016689000651240349 0.99843698740005493 0.053334999829530716
vn 0.012451999820768833 0.99859499931335449 0.051502000540494919
vn 0.010239000432193279 0.99822998046875 0.0585860013961792
vn 0.010115000419318676 0.99805998802185059 0.061436999589204788
vn 0.010444999672472477 0.99807900190353394 0.061071999371051788
vn 0.012814999558031559 0.99820798635482788 0.058449000120162964
vn 0.0026720000896602869 0.99756699800491333 0.069669000804424286
vn 0.00816699955612421 0.99822402000427246 0.059013999998569489
vn -0.022710999473929405 0.9978489875793457 0.061489999294281006
vn -0.072846002876758575 0.99618101119995117 0.048131998628377914
vn -0.044886000454425812 0.99655002355575562 0.069811999797821045
vn -0.048980999737977982 0.99835002422332764 -0.029960000887513161
vn -0.0589199997484684 0.99633300304412842 0.062040001153945923
vn -0.071823000907897949 0.99723798036575317 0.018895000219345093
vn 0.041095998138189316 0.99450600147247314 0.096280001103878021
vn -0.050461001694202423 0.9924740195274353 0.11157499998807907
vn -0.016580000519752502 0.99859797954559326 0.050280001014471054
vn -0.036573000252246857 0.99583697319030762 0.08349599689245224
vn -0.02400599978864193 0.995851993560791 0.087761998176574707
vn -0.010224999859929085 0.997061014175415 0.075920999050140381
vn 0.027364000678062439 0.99085301160812378 0.13214500248432159
vn -0.026489999145269394 0.99672901630401611 0.07635200023651123
vn -0.068287000060081482 0.990884006023407 0.11612600088119507
vn -0.056983999907970428 0.9926459789276123 0.1068049967288971
vn -0.026980999857187271 0.99735897779464722 0.067428998649120331
vn -0.059385001659393311 0.99287897348403931 0.10326600074768066
vn -0.071151003241539 0.9906659722328186 0.11626599729061127
f 1/1/1 2/2/2 3/3/3
f 4/4/4 5/5/5 6/6/6
f 7/7/7 2/2/2 1/1/1
f 7/7/7 8/8/8 2/2/2
f 2/2/2 8/8/8 6/6/6
f 6/6/6 9/9/9 10/10/10
f 11/11/11 6/6/6 5/5/5
f 11/11/11 2/2/2 6/6/6
f 12/12/12 10/10/10 13/13/13
f 12/12/12 6/6/6 10/10/10
f 9/9/9 6/6/6 8/8/8
f 12/12/12 4/4/4 6/6/6
f 7/7/7 14/14/14 8/8/8
f 7/7/7 15/15/15 14/14/14
f 3/3/3 2/2/2 16/16/16
f 16/16/16 11/11/11 17/17/17
f 16/16/16 2/2/2 11/11/11
f 13/13/13 10/10/10 18/18/18
f 19/19/19 10/10/10 20/20/20
f 19/19/19 21/21/21 10/10/10
f 18/18/18 10/10/10 21/21/21
f 22/22/22 20/20/20 23/23/23
f 22/22/22 19/19/19 20/20/20
f 20/20/20 10/10/10 9/9/9
f 24/24/24 23/23/23 25/25/25
f 24/24/24 26/26/26 23/23/23
f 27/27/27 23/23/23 26/26/26
f 27/27/27 22/22/22 23/23/23
f 20/20/20 28/28/28 23/23/23
f 9/9/9 29/29/29 20/20/20
f 8/8/8 30/30/30 9/9/9
f 25/25/25 23/23/23 31/31/31
f 32/32/32 33/33/33 14/14/14
f 30/30/30 14/14/14 34/34/34
f 14/14/14 30/30/30 8/8/8
f 30/30/30 34/34/34 35/35/35
f 36/36/36 14/14/14 33/33/33
f 36/36/36 34/34/34 14/14/14
f 15/15/15 32/32/32 14/14/14
f 37/37/37 38/38/38 39/39/39
f 37/37/37 40/40/40 38/38/38
f 40/40/40 34/34/34 36/36/36
f 40/40/40 37/37/37 34/34/34
f 41/41/41 39/39/39 38/38/38
f 42/42/42 43/43/43 35/35/35
f 42/42/42 34/34/34 37/37/37
f 42/42/42 35/35/35 34/34/34
f 29/29/29 30/30/30 35/35/35
f 43/43/43 44/44/44 35/35/35
f 43/43/43 45/45/45 44/44/44
f 29/29/29 44/44/44 28/28/28
f 46/46/46 28/28/28 47/47/47
f 46/46/46 48/48/48 28/28/28
f 28/28/28 31/31/31 23/23/23
f 28/28/28 48/48/48 31/31/31
f 46/46/46 47/47/47 49/49/49
f 47/47/47 28/28/28 44/44/44
f 20/20/20 29/29/29 28/28/28
f 47/47/47 44/44/44 50/50/50
f 51/51/51 52/52/52 53/53/53
f 44/44/44 53/53/53 52/52/52
f 44/44/44 45/45/45 53/53/53
f 51/51/51 54/54/54 52/52/52
f 55/55/55 50/50/50 56/56/56
f 52/52/52 50/50/50 44/44/44
f 52/52/52 57/57/57 50/50/50
f 52/52/52 58/58/58 57/57/57
f 50/50/50 49/49/49 47/47/47
f 50/50/50 55/55/55 49/49/49
f 56/56/56 50/50/50 59/59/59
f 59/59/59 50/50/50 60/60/60
f 35/35/35 44/44/44 29/29/29
f 9/9/9 30/30/30 29/29/29
f 57/57/57 60/60/60 50/50/50
f 57/57/57 61/61/61 60/60/60
f 58/58/58 52/52/52 54/54/54
