mtllib m3312.mtl
usemtl material0
v 1536 57.3232536315918 -1536
v 1536 55.439052581787109 -1504.4659423828125
v 1564.3756103515625 57.7036247253418 -1536
v 1583.118408203125 57.543094635009766 -1536
v 1585.4296875 54.011890411376953 -1491.8427734375
v 1625.1646728515625 57.442916870117188 -1536
v 1536 54.227729797363281 -1489.233154296875
v 1536 53.019035339355469 -1475.51513671875
v 1588.768310546875 48.356548309326172 -1427.99951171875
v 1649.2457275390625 52.909275054931641 -1495.2088623046875
v 1647.114990234375 56.950313568115234 -1536
v 1685.9527587890625 56.618339538574219 -1536
v 1711.117431640625 57.401348114013672 -1536
v 1713.07958984375 55.108112335205078 -1498.5877685546875
v 1746.744873046875 57.910186767578125 -1536
v 1716.4200439453125 49.841926574707031 -1434.7459716796875
v 1792 57.906806945800781 -1536
v 1776.894775390625 53.876625061035156 -1501.953369140625
v 1792 56.17596435546875 -1518.7374267578125
v 1775.1163330078125 57.217750549316406 -1536
v 1792 55.598716735839844 -1510.2159423828125
v 1792 55.093353271484375 -1502.7554931640625
v 1780.238037109375 49.125076293945312 -1438.1136474609375
v 1652.5950927734375 49.266586303710938 -1431.3734130859375
v 1536 49.157463073730469 -1425.2156982421875
v 1536 45.281967163085938 -1369.3553466796875
v 1592.111083984375 43.470497131347656 -1364.159423828125
v 1655.93212890625 43.33709716796875 -1367.529296875
v 1536 44.668643951416016 -1361.200439453125
v 1536 43.892005920410156 -1353.8555908203125
v 1595.443359375 36.629665374755859 -1300.31201171875
v 1536 43.153495788574219 -1297.196044921875
v 1577.17529296875 40.136539459228516 -1280
v 1536 43.296730041503906 -1295.3502197265625
v 1536 44.487972259521484 -1280
v 1637.96240234375 38.9630126953125 -1280
v 1659.2777099609375 38.982051849365234 -1303.69140625
v 1596.519775390625 37.361263275146484 -1280
v 1719.7518310546875 42.957382202148438 -1370.898193359375
v 1783.6138916015625 50.364376068115234 -1374.2969970703125
v 1792 49.870109558105469 -1438.7374267578125
v 1792 50.75335693359375 -1383.6171875
v 1723.103759765625 39.792743682861328 -1307.06494140625
v 1724.5224609375 38.011249542236328 -1280
v 1698.74951171875 37.866794586181641 -1280
v 1786.97021484375 48.0254020690918 -1310.466796875
v 1759.5478515625 42.391139984130859 -1280
v 1660.5201420783997 37.507938385009766 -1280
v 1792 50.633113861083984 -1374.7408447265625
v 1792 48.390056610107422 -1316.056396484375
v 1788.5634765625 45.358642578125 -1280
v 1792 48.188198089599609 -1310.73291015625
v 1792 47.755977630615234 -1305.875244140625
v 1792 45.453685760498047 -1280
v 1792 51.048507690429688 -1451.1824951171875
vt 0.99910801649093628 0.0036389827728271484
vt 0.87640297412872314 0.0035399794578552246
vt 0.99910801649093628 0.11386698484420776
vt 0.99899697303771973 0.18667197227478027
vt 0.82692301273345947 0.19550400972366333
vt 0.99882799386978149 0.34999102354049683
vt 0.81704801321029663 0.0034899711608886719
vt 0.76355701684951782 0.0034490227699279785
vt 0.57795798778533936 0.20828002691268921
vt 0.83936399221420288 0.44345301389694214
vt 0.99858897924423218 0.43527299165725708
vt 0.99836999177932739 0.58613499999046326
vt 0.99853998422622681 0.68392899632453918
vt 0.85294598340988159 0.6915229856967926
vt 0.99863499402999878 0.82232999801635742
vt 0.60410702228546143 0.70415300130844116
vt 0.99834400415420532 0.998325000051409
vt 0.86524897813797 0.93948400020599365
vt 0.93084502220153809 0.99838799994904548
vt 0.99813598394393921 0.93269000202417374
vt 0.89766997098922729 0.99835799995344132
vt 0.8686249852180481 0.99833299999590963
vt 0.61657202243804932 0.95208700001239777
vt 0.5911329984664917 0.4562230110168457
vt 0.56760501861572266 0.0032659769058227539
vt 0.35010701417922974 0.0030339956283569336
vt 0.32925200462341309 0.22110199928283691
vt 0.34206900000572205 0.46901500225067139
vt 0.318342000246048 0.0030040144920349121
vt 0.28965300321578979 0.0029990077018737793
vt 0.079824000597000122 0.2339019775390625
vt 0.069558002054691315 0.0015540122985839844
vt 0.0012760000536218286 0.16129100322723389
vt 0.0623680017888546 0.0014380216598510742
vt 0.0025720000267028809 0.00046902894973754883
vt 0.0012610000558197498 0.39946597814559937
vt 0.093528002500534058 0.48198902606964111
vt 0.00089099997421726584 0.23837101459503174
vt 0.35471400618553162 0.71693599224090576
vt 0.3687950074672699 0.96660799905657768
vt 0.61927598714828491 0.99784899991936982
vt 0.40514999628067017 0.99904700001934543
vt 0.10660800337791443 0.72992798686027527
vt 0.001247999956831336 0.73535299301147461
vt 0.0012929999502375722 0.6352429986000061
vt 0.12108000367879868 0.97998600080609322
vt 0.0019789999350905418 0.87245899438858032
vt 0.0013510000426322222 0.48726797103881836
vt 0.37097099423408508 0.99917500000447035
vt 0.14285799860954285 0.99950099998386577
vt 0.0024470000062137842 0.98575100023299456
vt 0.12216500192880631 0.99953100000857376
vt 0.10322199761867523 0.99953000000095926
vt 0.0024210000410676003 0.99910399998771027
vt 0.66768598556518555 0.99799200007691979
vn -0.013380000367760658 0.99813002347946167 0.059638999402523041
vn 0.0034340000711381435 0.99720001220703125 0.074703000485897064
vn 0.0026859999634325504 0.99725198745727539 0.074032999575138092
vn 0.0055590001866221428 0.99682497978210449 0.079424001276493073
vn 0.0088179996237158775 0.996595025062561 0.081975996494293213
vn 0.016993999481201172 0.99555397033691406 0.0926470011472702
vn 0.0087679997086524963 0.99645602703094482 0.08365900069475174
vn 0.01169199962168932 0.996330976486206 0.084780998528003693
vn 0.0041100000962615013 0.99678999185562134 0.079952001571655273
vn 0.0033179998863488436 0.99709600210189819 0.076089002192020416
vn 0.01565299928188324 0.99508702754974365 0.097762003540992737
vn -0.020470000803470612 0.99717599153518677 0.072250999510288239
vn -0.022918999195098877 0.99778997898101807 0.062362998723983765
vn -0.0091390004381537437 0.99708598852157593 0.0757410004734993
vn 0.01399299968034029 0.99609297513961792 0.0871959999203682
vn 0.0045099998824298382 0.99597901105880737 0.089473001658916473
vn -0.040575001388788223 0.99419200420379639 0.099684000015258789
vn -0.021819999441504478 0.9963269829750061 0.082803003489971161
vn -0.048948999494314194 0.99453699588775635 0.092193998396396637
vn -0.0070960000157356262 0.99515801668167114 0.0980290025472641
vn -0.076550997793674469 0.99478602409362793 0.067386999726295471
vn -0.076254002749919891 0.99445098638534546 0.0724790021777153
vn -0.040417999029159546 0.99800300598144531 0.048544000834226608
vn -0.0015899999998509884 0.997052013874054 0.076713003218173981
vn 0.018973000347614288 0.99716997146606445 0.072746001183986664
vn 0.023736000061035156 0.99700301885604858 0.0736280009150505
vn 0.014531999826431274 0.99558800458908081 0.092704996466636658
vn 0.0018980000168085098 0.9962189793586731 0.08685699850320816
vn 0.026032999157905579 0.99555301666259766 0.090539999306201935
vn 0.048980999737977982 0.99553799629211426 0.080651000142097473
vn 0.035224001854658127 0.99929100275039673 0.013265999965369701
vn 0.10728999972343445 0.99365901947021484 -0.033610999584198
vn 0.11462400108575821 0.99107801914215088 -0.06802000105381012
vn 0.10478299856185913 0.99151402711868286 -0.076943002641201019
vn 0.10478399693965912 0.99151402711868286 -0.076944999396801
vn -0.011126000434160233 0.99989598989486694 -0.0092070000246167183
vn -0.0074729998596012592 0.99867498874664307 0.050925999879837036
vn 0.048932000994682312 0.998058021068573 -0.038541000336408615
vn -0.037762999534606934 0.99704200029373169 0.066940002143383026
vn -0.07814200222492218 0.99677598476409912 0.018194999545812607
vn -0.060993999242782593 0.997294008731842 0.041053000837564468
vn -0.056423000991344452 0.99836498498916626 -0.0091009996831417084
vn -0.065154999494552612 0.99613702297210693 0.058867998421192169
vn -0.066597998142242432 0.995389997959137 0.069009996950626373
vn -0.0083600003272295 0.99794697761535645 0.063492000102996826
vn -0.07397499680519104 0.99527502059936523 0.062894999980926514
vn -0.11782900243997574 0.99004101753234863 0.07703399658203125
vn 0.026197999715805054 0.99781101942062378 0.060711000114679337
vn -0.030673999339342117 0.999206006526947 0.025438999757170677
vn -0.030066000297665596 0.99882102012634277 0.038107000291347504
vn -0.063382998108863831 0.99389499425888062 0.0903099998831749
vn -0.0289900004863739 0.99763202667236328 0.062369000166654587
vn -0.027538999915122986 0.99568700790405273 0.0885929986834526
vn -0.027536999434232712 0.99568700790405273 0.0885929986834526
vn -0.0717649981379509 0.99406898021698 0.081715002655982971
f 1/1/1 2/2/2 3/3/3
f 4/4/4 5/5/5 6/6/6
f 7/7/7 3/3/3 2/2/2
f 7/7/7 5/5/5 3/3/3
f 5/5/5 4/4/4 3/3/3
f 5/5/5 8/8/8 9/9/9
f 5/5/5 7/7/7 8/8/8
f 10/10/10 6/6/6 5/5/5
f 10/10/10 11/11/11 6/6/6
f 11/11/11 10/10/10 12/12/12
f 13/13/13 14/14/14 15/15/15
f 14/14/14 12/12/12 10/10/10
f 14/14/14 13/13/13 12/12/12
f 14/14/14 10/10/10 16/16/16
f 17/17/17 18/18/18 19/19/19
f 17/17/17 20/20/20 18/18/18
f 18/18/18 15/15/15 14/14/14
f 18/18/18 20/20/20 15/15/15
f 21/21/21 18/18/18 22/22/22
f 21/21/21 19/19/19 18/18/18
f 18/18/18 14/14/14 23/23/23
f 10/10/10 5/5/5 24/24/24
f 25/25/25 26/26/26 9/9/9
f 24/24/24 9/9/9 27/27/27
f 5/5/5 9/9/9 24/24/24
f 24/24/24 27/27/27 28/28/28
f 29/29/29 9/9/9 26/26/26
f 29/29/29 27/27/27 9/9/9
f 25/25/25 9/9/9 8/8/8
f 27/27/27 30/30/30 31/31/31
f 27/27/27 29/29/29 30/30/30
f 32/32/32 33/33/33 31/31/31
f 32/32/32 34/34/34 33/33/33
f 34/34/34 35/35/35 33/33/33
f 31/31/31 36/36/36 37/37/37
f 31/31/31 38/38/38 36/36/36
f 32/32/32 31/31/31 30/30/30
f 38/38/38 31/31/31 33/33/33
f 28/28/28 27/27/27 31/31/31
f 16/16/16 24/24/24 28/28/28
f 28/28/28 31/31/31 37/37/37
f 39/39/39 28/28/28 37/37/37
f 28/28/28 39/39/39 16/16/16
f 23/23/23 39/39/39 40/40/40
f 39/39/39 23/23/23 16/16/16
f 41/41/41 40/40/40 42/42/42
f 41/41/41 23/23/23 40/40/40
f 39/39/39 37/37/37 43/43/43
f 23/23/23 14/14/14 16/16/16
f 39/39/39 43/43/43 40/40/40
f 44/44/44 43/43/43 45/45/45
f 44/44/44 46/46/46 43/43/43
f 44/44/44 47/47/47 46/46/46
f 37/37/37 45/45/45 43/43/43
f 37/37/37 48/48/48 45/45/45
f 43/43/43 46/46/46 40/40/40
f 48/48/48 37/37/37 36/36/36
f 42/42/42 40/40/40 49/49/49
f 46/46/46 49/49/49 40/40/40
f 46/46/46 50/50/50 49/49/49
f 51/51/51 46/46/46 47/47/47
f 52/52/52 46/46/46 53/53/53
f 53/53/53 51/51/51 54/54/54
f 53/53/53 46/46/46 51/51/51
f 50/50/50 46/46/46 52/52/52
f 55/55/55 23/23/23 41/41/41
f 10/10/10 24/24/24 16/16/16
f 22/22/22 23/23/23 55/55/55
f 22/22/22 18/18/18 23/23/23
